# Blender v2.78 (sub 0) OBJ File: 'exporter.blend'
# www.blender.org
o FJ1266.obj_grp1.014
v 0.028759 -0.803670 6.898947
v 0.028255 -0.807459 6.898752
v 0.028055 -0.804544 6.905810
v 0.031775 -0.817258 6.886328
v 0.028264 -0.808209 6.903073
v 0.028838 -0.801115 6.918356
v 0.030877 -0.808213 6.888216
v 0.036488 -0.819099 6.872086
v 0.037715 -0.803451 6.885397
v 0.032533 -0.805392 6.888310
v 0.031597 -0.801769 6.896023
v 0.031478 -0.814493 6.885299
v 0.036492 -0.825880 6.881673
v 0.035191 -0.820895 6.875915
v 0.031410 -0.800008 6.901958
v 0.032804 -0.818994 6.893882
v 0.030942 -0.797846 6.918557
v 0.032231 -0.811215 6.920050
v 0.029640 -0.801594 6.927669
v 0.032297 -0.797080 6.940464
v 0.032503 -0.809089 6.925347
v 0.030750 -0.803795 6.932508
v 0.031833 -0.798922 6.941349
v 0.032715 -0.806349 6.934282
v 0.034047 -0.795435 6.944235
v 0.033684 -0.796833 6.945950
v 0.033456 -0.799292 6.945719
v 0.037849 -0.839001 6.834179
v 0.036835 -0.833950 6.840125
v 0.039034 -0.836277 6.833591
v 0.037383 -0.829059 6.845644
v 0.038300 -0.840761 6.835673
v 0.037369 -0.825848 6.850912
v 0.036151 -0.832391 6.845287
v 0.037837 -0.821063 6.853917
v 0.036303 -0.827772 6.857966
v 0.037533 -0.820162 6.867322
v 0.036441 -0.822222 6.869366
v 0.036565 -0.825637 6.869889
v 0.039263 -0.832522 6.865983
v 0.040297 -0.814847 6.870630
v 0.039862 -0.797446 6.898148
v 0.037326 -0.826896 6.890325
v 0.041552 -0.832514 6.874946
v 0.037448 -0.794652 6.919991
v 0.037955 -0.823672 6.902025
v 0.034794 -0.817020 6.909380
v 0.039094 -0.818448 6.910302
v 0.038559 -0.793021 6.946811
v 0.036197 -0.811385 6.926120
v 0.039014 -0.816750 6.913258
v 0.037428 -0.803667 6.945676
v 0.035350 -0.797420 6.947991
v 0.038652 -0.793492 6.949328
v 0.035975 -0.800226 6.948088
v 0.034577 -0.802441 6.944456
v 0.040197 -0.842053 6.828032
v 0.041104 -0.844051 6.828004
v 0.044590 -0.846064 6.823247
v 0.046365 -0.831612 6.834059
v 0.044304 -0.840462 6.822553
v 0.040324 -0.843280 6.835762
v 0.045603 -0.847351 6.825654
v 0.042393 -0.845115 6.833497
v 0.039408 -0.817728 6.853338
v 0.043743 -0.814855 6.851023
v 0.042227 -0.814281 6.854383
v 0.039930 -0.815170 6.860467
v 0.039506 -0.824297 6.848660
v 0.046882 -0.825908 6.841172
v 0.041637 -0.839687 6.854568
v 0.040753 -0.815609 6.867355
v 0.043573 -0.802548 6.884385
v 0.044656 -0.810614 6.872751
v 0.042037 -0.794906 6.915254
v 0.042401 -0.830803 6.889569
v 0.045565 -0.827463 6.899184
v 0.040928 -0.793662 6.930046
v 0.039844 -0.814195 6.918562
v 0.043263 -0.818381 6.909471
v 0.042987 -0.804676 6.943324
v 0.040339 -0.793368 6.949480
v 0.040535 -0.804074 6.945753
v 0.040308 -0.795809 6.950928
v 0.041047 -0.799084 6.950553
v 0.040874 -0.800686 6.949626
v 0.046990 -0.836118 6.825092
v 0.050226 -0.839461 6.817070
v 0.044117 -0.843213 6.821495
v 0.043745 -0.844535 6.822504
v 0.046729 -0.845617 6.820530
v 0.051554 -0.817282 6.843489
v 0.048076 -0.812825 6.852542
v 0.049332 -0.845585 6.843191
v 0.044207 -0.812762 6.860643
v 0.044901 -0.812519 6.867203
v 0.048248 -0.810037 6.871904
v 0.052942 -0.837670 6.874960
v 0.055095 -0.841084 6.863672
v 0.048309 -0.804776 6.881151
v 0.047059 -0.797810 6.902251
v 0.046349 -0.799050 6.894357
v 0.043268 -0.796319 6.903391
v 0.046252 -0.834156 6.879597
v 0.045753 -0.831100 6.892025
v 0.046091 -0.797039 6.919769
v 0.046808 -0.823427 6.903596
v 0.049880 -0.815524 6.909590
v 0.043992 -0.795119 6.938544
v 0.050398 -0.810673 6.916464
v 0.044392 -0.808207 6.931247
v 0.049297 -0.805801 6.927701
v 0.041024 -0.794773 6.950342
v 0.044637 -0.799090 6.946068
v 0.042696 -0.798821 6.949684
v 0.043481 -0.802450 6.946389
v 0.054522 -0.831712 6.818572
v 0.052402 -0.836334 6.816802
v 0.050039 -0.842024 6.817126
v 0.049329 -0.845013 6.819243
v 0.048808 -0.847745 6.824766
v 0.051804 -0.843073 6.817866
v 0.059287 -0.822590 6.830370
v 0.052453 -0.847267 6.827344
v 0.050452 -0.847936 6.829574
v 0.054041 -0.814341 6.846568
v 0.048962 -0.811674 6.866499
v 0.052493 -0.812599 6.859132
v 0.051010 -0.804985 6.882548
v 0.052219 -0.803785 6.887865
v 0.053638 -0.804198 6.893726
v 0.056988 -0.836748 6.875897
v 0.051125 -0.801750 6.911034
v 0.051570 -0.828747 6.896004
v 0.052109 -0.804459 6.915286
v 0.057318 -0.834123 6.815208
v 0.053874 -0.837535 6.815524
v 0.055072 -0.838684 6.815501
v 0.063513 -0.821770 6.825801
v 0.051636 -0.845386 6.820971
v 0.059793 -0.838343 6.818171
v 0.060404 -0.812099 6.851934
v 0.056529 -0.843554 6.853798
v 0.057086 -0.813432 6.863812
v 0.058740 -0.811881 6.877113
v 0.057335 -0.809015 6.886395
v 0.056759 -0.831847 6.884971
v 0.057957 -0.810875 6.890864
v 0.054281 -0.826875 6.896863
v 0.052405 -0.814982 6.908041
v 0.053108 -0.808653 6.912180
v 0.059221 -0.834541 6.815001
v 0.058259 -0.837863 6.816183
v 0.060763 -0.818168 6.831429
v 0.059560 -0.815809 6.836093
v 0.062801 -0.839745 6.829074
v 0.063713 -0.840222 6.841292
v 0.060875 -0.812088 6.856834
v 0.057832 -0.841450 6.862339
v 0.059869 -0.840839 6.862003
v 0.063952 -0.816330 6.875709
v 0.059241 -0.834808 6.877493
v 0.059084 -0.815388 6.893647
v 0.057145 -0.828845 6.890594
v 0.058169 -0.816786 6.897155
v 0.055144 -0.816997 6.903164
v 0.056821 -0.824497 6.896387
v 0.060341 -0.821449 6.891986
v 0.060995 -0.829506 6.816917
v 0.064590 -0.827381 6.817967
v 0.061617 -0.834940 6.817063
v 0.063676 -0.835320 6.820116
v 0.061918 -0.838936 6.823031
v 0.061383 -0.814094 6.840377
v 0.064778 -0.815600 6.867284
v 0.059811 -0.842525 6.850519
v 0.063275 -0.838228 6.862520
v 0.063121 -0.815092 6.872149
v 0.063548 -0.836058 6.868611
v 0.063068 -0.817828 6.884264
v 0.064310 -0.829145 6.876334
v 0.061936 -0.826152 6.882458
v 0.064545 -0.822834 6.878943
v 0.068081 -0.821506 6.822487
v 0.064724 -0.816985 6.829307
v 0.068439 -0.818378 6.826170
v 0.067841 -0.825646 6.820035
v 0.068335 -0.823506 6.820952
v 0.067133 -0.816669 6.828954
v 0.065708 -0.835452 6.825149
v 0.068328 -0.815970 6.834713
v 0.073146 -0.825867 6.830017
v 0.064388 -0.812845 6.856537
v 0.066480 -0.814181 6.854618
v 0.067594 -0.835893 6.838915
v 0.064839 -0.818765 6.877456
v 0.069381 -0.819941 6.859698
v 0.067594 -0.831860 6.866665
v 0.069718 -0.817608 6.828682
v 0.070716 -0.821408 6.824533
v 0.070429 -0.824675 6.822873
v 0.071745 -0.818764 6.832093
v 0.071157 -0.829692 6.843874
v 0.071332 -0.824208 6.854669
v 0.068678 -0.824481 6.870225
v 0.070578 -0.826662 6.861758
v 0.072386 -0.824574 6.826644
v 0.072728 -0.820986 6.831201
vn -0.8796 0.4279 -0.2078
vn -0.9895 -0.0675 -0.1280
vn -0.9940 0.1081 0.0158
vn -0.9359 -0.3361 -0.1057
vn -0.9626 -0.2633 0.0634
vn -0.9646 0.2606 0.0402
vn -0.3672 0.7893 -0.4921
vn -0.6508 0.5991 -0.4664
vn -0.5755 0.7535 -0.3181
vn -0.8822 0.2577 -0.3942
vn -0.9603 -0.0345 -0.2769
vn -0.9752 -0.1173 -0.1876
vn -0.8524 -0.5226 -0.0206
vn -0.5626 0.8105 -0.1631
vn -0.8576 -0.5061 0.0913
vn -0.6497 0.7586 -0.0496
vn -0.7471 -0.6176 0.2458
vn -0.9919 -0.0253 0.1245
vn -0.8502 0.5148 0.1097
vn -0.7488 -0.6195 0.2356
vn -0.9231 -0.3369 0.1855
vn -0.6533 -0.6766 0.3398
vn -0.9738 -0.0113 0.2273
vn -0.6838 0.7126 0.1569
vn -0.8365 -0.2189 0.5024
vn -0.9583 -0.0366 -0.2834
vn -0.9209 0.2638 -0.2871
vn -0.6861 0.5332 -0.4950
vn -0.7422 0.5490 -0.3843
vn -0.9990 -0.0038 -0.0436
vn -0.8752 -0.4837 0.0095
vn -0.9165 0.3175 -0.2433
vn -0.9427 0.2770 -0.1859
vn -0.9986 0.0476 -0.0242
vn -0.8824 0.4600 -0.0987
vn -0.9849 0.1291 -0.1156
vn -0.9503 -0.3092 0.0364
vn -0.8430 -0.4974 0.2048
vn -0.8748 0.3268 -0.3575
vn -0.6712 0.6175 -0.4100
vn -0.1588 0.9489 -0.2728
vn -0.7286 -0.6724 0.1308
vn -0.2384 0.9675 -0.0843
vn -0.5316 -0.7533 0.3873
vn -0.5718 -0.7499 0.3327
vn -0.1293 -0.8141 0.5661
vn -0.1725 0.9819 0.0781
vn -0.2707 -0.9086 0.3179
vn -0.0403 -0.9103 0.4119
vn -0.8202 0.3244 0.4712
vn -0.6669 -0.6009 0.4407
vn -0.3273 -0.7736 0.5426
vn -0.6358 0.1029 0.7650
vn -0.3936 0.7130 0.5803
vn -0.5125 -0.3938 0.7631
vn -0.9349 -0.0819 -0.3454
vn -0.7539 -0.4081 -0.5149
vn -0.7864 -0.5940 -0.1695
vn -0.5439 -0.7599 -0.3560
vn -0.6993 -0.7079 0.0999
vn -0.3685 -0.9216 -0.1217
vn -0.4841 -0.8674 0.1148
vn -0.5202 0.7182 -0.4621
vn -0.7854 0.5101 -0.3506
vn -0.6570 0.4936 -0.5699
vn -0.4807 0.7116 -0.5124
vn -0.5576 0.6037 -0.5698
vn -0.7297 0.6830 -0.0319
vn -0.5174 0.8241 -0.2303
vn -0.5893 -0.7728 0.2358
vn -0.7312 0.6812 -0.0370
vn -0.6249 -0.7649 0.1560
vn -0.3372 0.8062 -0.4861
vn -0.0416 0.8930 -0.4481
vn 0.1346 0.9809 -0.1407
vn 0.2278 0.9705 -0.0793
vn -0.4319 -0.8779 0.2068
vn 0.2145 0.9760 -0.0377
vn -0.0299 -0.8425 0.5378
vn 0.2331 -0.7153 0.6588
vn 0.2323 -0.8925 0.3867
vn 0.4158 -0.8229 0.3872
vn 0.3480 0.8210 0.4527
vn 0.0457 -0.8479 0.5282
vn -0.0120 0.1122 0.9936
vn 0.1061 -0.3256 0.9395
vn 0.0949 -0.6065 0.7894
vn -0.5905 0.6803 -0.4342
vn -0.5951 0.2744 -0.7554
vn -0.7091 0.4157 -0.5696
vn -0.7294 -0.0555 -0.6819
vn -0.3534 -0.6818 -0.6405
vn -0.5162 0.6340 -0.5759
vn -0.3192 0.9463 -0.0512
vn -0.1628 0.9532 -0.2547
vn -0.4343 0.8884 -0.1490
vn -0.1775 -0.9652 0.1921
vn 0.0025 0.9159 -0.4014
vn -0.1068 -0.9512 0.2895
vn -0.1033 -0.9619 0.2533
vn 0.1674 0.8655 -0.4721
vn 0.5078 0.8576 -0.0812
vn 0.2790 0.9211 -0.2714
vn -0.3315 -0.9237 0.1923
vn -0.1129 -0.9189 0.3781
vn 0.2216 -0.6985 0.6804
vn 0.3709 -0.7273 0.5774
vn 0.7006 0.7099 0.0722
vn 0.6398 0.7681 0.0276
vn 0.6602 -0.6436 0.3872
vn 0.4734 -0.8324 0.2882
vn 0.8666 -0.3928 0.3078
vn 0.9320 0.0854 0.3521
vn 0.5017 0.5014 0.7049
vn 0.7023 -0.0931 0.7057
vn 0.6349 -0.5764 0.5145
vn -0.5457 0.6445 -0.5356
vn -0.6218 0.4464 -0.6435
vn -0.2801 -0.3062 -0.9098
vn -0.0041 -0.7369 -0.6760
vn 0.0367 -0.9726 -0.2296
vn -0.6596 0.5714 -0.4882
vn 0.0975 -0.9928 0.0698
vn -0.2281 0.8992 -0.3735
vn 0.0914 0.9869 -0.1332
vn 0.0564 0.9984 0.0084
vn 0.5493 0.8082 -0.2122
vn 0.2770 -0.8849 0.3745
vn 0.2494 -0.8238 0.5090
vn 0.7924 0.6061 0.0693
vn 0.9362 0.3046 0.1757
vn -0.2393 0.3332 -0.9120
vn -0.2944 0.0772 -0.9526
vn 0.1077 -0.3588 -0.9272
vn -0.5298 0.6586 -0.5344
vn 0.2404 -0.6600 -0.7118
vn 0.3797 -0.8225 -0.4234
vn 0.4361 -0.8879 -0.1465
vn 0.0537 0.9940 -0.0949
vn 0.1789 -0.9666 0.1837
vn 0.1409 0.9787 0.1491
vn 0.3656 0.8512 -0.3766
vn 0.5088 0.8223 -0.2549
vn 0.7397 0.6725 -0.0259
vn 0.7769 0.6290 0.0283
vn 0.6121 -0.6816 0.4008
vn 0.8824 0.4475 0.1457
vn 0.4621 -0.6703 0.5806
vn 0.6160 -0.5306 0.5822
vn 0.9263 -0.1812 0.3303
vn 0.3134 -0.0663 -0.9473
vn 0.4428 -0.5520 -0.7065
vn 0.5766 -0.6585 -0.4837
vn -0.3925 0.8346 -0.3865
vn -0.6001 0.5594 -0.5718
vn 0.0926 0.9895 0.1111
vn 0.1839 -0.9454 0.2692
vn 0.8048 0.5826 0.1133
vn 0.5548 -0.7138 0.4275
vn 0.9424 0.2090 0.2612
vn 0.9285 -0.0061 0.3714
vn 0.8124 -0.2834 0.5095
vn 0.7392 -0.4488 0.5021
vn 0.9178 -0.1657 0.3607
vn 0.6334 -0.6685 0.3897
vn -0.1763 0.5658 -0.8054
vn 0.2061 0.3428 -0.9165
vn 0.6687 -0.3773 -0.6407
vn 0.7513 -0.4925 -0.4393
vn 0.6496 -0.7064 -0.2812
vn 0.6759 -0.7246 -0.1344
vn -0.0853 0.9749 -0.2059
vn 0.6620 -0.7493 0.0156
vn 0.5565 0.8164 0.1542
vn 0.5169 -0.8529 0.0738
vn 0.6849 -0.7093 0.1668
vn 0.4930 0.8696 0.0281
vn 0.4535 -0.8668 0.2074
vn 0.6534 -0.6869 0.3182
vn 0.9362 0.2264 0.2687
vn 0.8106 -0.3898 0.4369
vn 0.8225 -0.3871 0.4166
vn -0.3419 0.8053 -0.4843
vn 0.0456 0.6970 -0.7156
vn 0.1578 0.8035 -0.5740
vn 0.6347 0.0065 -0.7727
vn 0.4027 0.4566 -0.7933
vn 0.0525 0.9259 -0.3741
vn 0.7849 -0.5730 -0.2358
vn 0.4177 0.9062 -0.0658
vn 0.8029 -0.5955 -0.0268
vn 0.9647 -0.2168 -0.1492
vn 0.4078 0.9055 0.1179
vn 0.6929 0.7163 0.0818
vn 0.9248 0.2744 0.2635
vn 0.9004 0.4097 0.1463
vn 0.8520 -0.4634 0.2436
vn 0.9127 -0.0912 0.3983
vn 0.7435 0.4498 -0.4948
vn 0.5493 0.7831 -0.2915
vn 0.8345 -0.0546 -0.5483
vn 0.7947 0.6039 -0.0616
vn 0.9183 -0.3914 0.0595
vn 0.9873 0.1202 0.1040
vn 0.9488 0.0043 0.3159
vn 0.9751 -0.1248 0.1831
vn 0.9355 -0.0630 -0.3476
vn 0.9496 0.3014 -0.0854
s 1
f 1//1 2//2 3//3
f 2//2 4//4 5//5
f 6//6 1//1 3//3
f 2//2 5//5 3//3
f 6//6 3//3 5//5
f 9//7 10//8 11//9
f 1//1 10//8 7//10
f 4//4 2//2 12//11
f 4//4 14//12 13//13
f 15//14 11//9 1//1
f 11//9 10//8 1//1
f 2//2 1//1 7//10
f 7//10 12//11 2//2
f 4//4 16//15 5//5
f 13//13 16//15 4//4
f 15//14 1//1 17//16
f 6//6 17//16 1//1
f 16//15 18//17 5//5
f 5//5 19//18 6//6
f 18//17 19//18 5//5
f 20//19 17//16 6//6
f 21//20 22//21 19//18
f 19//18 18//17 21//20
f 6//6 19//18 20//19
f 21//20 24//22 22//21
f 23//23 20//19 19//18
f 20//19 25//24 17//16
f 23//23 19//18 22//21
f 22//21 27//25 23//23
f 28//26 29//27 30//28
f 29//27 31//29 30//28
f 29//27 28//26 34//30
f 28//26 32//31 34//30
f 34//30 31//29 29//27
f 33//32 31//29 34//30
f 35//33 33//32 36//34
f 34//30 36//34 33//32
f 37//35 35//33 38//36
f 39//37 36//34 34//30
f 34//30 32//31 39//37
f 35//33 36//34 38//36
f 39//37 32//31 40//38
f 14//12 8//39 38//36
f 8//39 37//35 38//36
f 38//36 36//34 39//37
f 7//10 8//39 12//11
f 12//11 8//39 14//12
f 39//37 14//12 38//36
f 10//8 9//7 41//40
f 8//39 7//10 10//8
f 41//40 8//39 10//8
f 12//11 14//12 4//4
f 42//41 11//9 15//14
f 16//15 13//13 43//42
f 15//14 45//43 42//41
f 45//43 15//14 17//16
f 43//42 46//44 16//15
f 46//44 47//45 16//15
f 47//45 46//44 48//46
f 49//47 45//43 17//16
f 47//45 18//17 16//15
f 49//47 17//16 25//24
f 21//20 18//17 50//48
f 18//17 47//45 50//48
f 47//45 51//49 50//48
f 21//20 50//48 24//22
f 20//19 23//23 26//50
f 25//24 20//19 26//50
f 22//21 24//22 27//25
f 27//25 24//22 56//51
f 24//22 50//48 52//52
f 26//50 27//25 53//53
f 26//50 54//54 25//24
f 26//50 23//23 27//25
f 55//55 27//25 56//51
f 53//53 27//25 55//55
f 56//51 24//22 52//52
f 55//55 56//51 52//52
f 57//56 90//57 58//58
f 90//57 59//59 58//58
f 57//56 28//26 30//28
f 57//56 58//58 62//60
f 58//58 63//61 64//62
f 58//58 64//62 62//60
f 30//28 31//29 60//63
f 28//26 57//56 32//31
f 62//60 32//31 57//56
f 33//32 35//33 65//64
f 69//65 33//32 65//64
f 65//64 66//66 69//65
f 69//65 31//29 33//32
f 31//29 69//65 70//67
f 65//64 35//33 68//68
f 68//68 67//69 65//64
f 62//60 71//70 32//31
f 68//68 35//33 37//35
f 68//68 37//35 72//71
f 71//70 40//38 32//31
f 37//35 8//39 41//40
f 72//71 37//35 41//40
f 40//38 71//70 44//72
f 74//73 9//7 73//74
f 9//7 74//73 41//40
f 39//37 44//72 13//13
f 39//37 40//38 44//72
f 9//7 11//9 42//41
f 73//74 9//7 42//41
f 13//13 14//12 39//37
f 103//75 45//43 75//76
f 13//13 44//72 43//42
f 43//42 76//77 46//44
f 76//77 43//42 44//72
f 75//76 45//43 78//78
f 46//44 77//79 48//46
f 51//49 47//45 48//46
f 80//80 51//49 48//46
f 79//81 50//48 51//49
f 49//47 78//78 45//43
f 50//48 79//81 81//82
f 82//83 49//47 54//54
f 49//47 25//24 54//54
f 54//54 26//50 53//53
f 82//83 78//78 49//47
f 50//48 81//82 83//84
f 83//84 52//52 50//48
f 55//55 84//85 53//53
f 54//54 53//53 84//85
f 84//85 55//55 85//86
f 54//54 84//85 82//83
f 86//87 55//55 52//52
f 86//87 85//86 55//55
f 52//52 83//84 86//87
f 87//88 88//89 61//90
f 61//90 89//91 57//56
f 61//90 57//56 30//28
f 89//91 91//92 90//57
f 61//90 30//28 87//88
f 58//58 59//59 63//61
f 90//57 57//56 89//91
f 90//57 91//92 59//59
f 63//61 59//59 91//92
f 60//63 31//29 70//67
f 66//66 92//93 69//65
f 92//93 70//67 69//65
f 67//69 68//68 95//94
f 93//95 67//69 95//94
f 65//64 67//69 66//66
f 66//66 67//69 93//95
f 71//70 62//60 64//62
f 72//71 96//96 68//68
f 96//96 95//94 68//68
f 71//70 64//62 94//97
f 41//40 74//73 96//96
f 74//73 97//98 96//96
f 72//71 41//40 96//96
f 44//72 71//70 98//99
f 71//70 99//100 98//99
f 100//101 74//73 73//74
f 101//102 102//103 103//75
f 102//103 42//41 103//75
f 102//103 73//74 42//41
f 44//72 104//104 76//77
f 42//41 45//43 103//75
f 76//77 104//104 105//105
f 76//77 105//105 46//44
f 46//44 105//105 77//79
f 48//46 77//79 107//106
f 80//80 48//46 107//106
f 51//49 108//107 79//81
f 51//49 80//80 108//107
f 78//78 109//108 75//76
f 109//108 106//109 75//76
f 108//107 110//110 79//81
f 82//83 109//108 78//78
f 110//110 111//111 79//81
f 111//111 81//82 79//81
f 81//82 111//111 112//112
f 82//83 114//113 109//108
f 113//114 114//113 82//83
f 84//85 113//114 82//83
f 113//114 84//85 115//115
f 115//115 84//85 85//86
f 115//115 114//113 113//114
f 86//87 116//116 115//115
f 86//87 115//115 85//86
f 116//116 114//113 115//115
f 83//84 116//116 86//87
f 83//84 81//82 116//116
f 117//117 118//118 88//89
f 89//91 61//90 88//89
f 89//91 119//119 91//92
f 88//89 119//119 89//91
f 87//88 117//117 88//89
f 120//120 91//92 119//119
f 120//120 121//121 91//92
f 123//122 87//88 60//63
f 87//88 30//28 60//63
f 121//121 63//61 91//92
f 70//67 123//122 60//63
f 63//61 94//97 64//62
f 121//121 125//123 63//61
f 94//97 63//61 125//123
f 66//66 93//95 126//124
f 92//93 66//66 126//124
f 93//95 95//94 127//125
f 95//94 96//96 127//125
f 93//95 127//125 128//126
f 96//96 97//98 127//125
f 99//100 71//70 94//97
f 100//101 97//98 74//73
f 73//74 102//103 100//101
f 102//103 101//102 130//127
f 104//104 44//72 98//99
f 101//102 103//75 75//76
f 75//76 106//109 101//102
f 132//128 134//129 105//105
f 106//109 133//130 101//102
f 134//129 107//106 77//79
f 80//80 107//106 108//107
f 106//109 109//108 135//131
f 110//110 112//112 111//111
f 114//113 135//131 109//108
f 114//113 116//116 112//112
f 116//116 81//82 112//112
f 117//117 136//132 118//118
f 137//133 88//89 118//118
f 137//133 138//134 119//119
f 136//132 137//133 118//118
f 123//122 117//117 87//88
f 139//135 117//117 123//122
f 119//119 88//89 137//133
f 122//136 120//120 119//119
f 122//136 119//119 138//134
f 122//136 140//137 120//120
f 120//120 140//137 121//121
f 140//137 124//138 121//121
f 70//67 92//93 123//122
f 124//138 125//123 121//121
f 126//124 93//95 142//139
f 142//139 93//95 128//126
f 125//123 143//140 94//97
f 125//123 124//138 143//140
f 144//141 128//126 127//125
f 94//97 143//140 99//100
f 129//142 97//98 100//101
f 129//142 145//143 97//98
f 97//98 145//143 127//125
f 102//103 129//142 100//101
f 129//142 130//127 145//143
f 130//127 129//142 102//103
f 101//102 131//144 130//127
f 131//144 146//145 130//127
f 98//99 105//105 104//104
f 132//128 105//105 98//99
f 147//146 134//129 132//128
f 133//130 131//144 101//102
f 148//147 131//144 133//130
f 149//148 150//149 107//106
f 107//106 134//129 149//148
f 105//105 134//129 77//79
f 133//130 106//109 135//131
f 150//149 110//110 108//107
f 107//106 150//149 108//107
f 112//112 135//131 114//113
f 112//112 151//150 135//131
f 112//112 110//110 151//150
f 136//132 152//151 137//133
f 137//133 152//151 138//134
f 153//152 138//134 152//151
f 138//134 153//152 122//136
f 122//136 153//152 141//153
f 141//153 124//138 140//137
f 141//153 140//137 122//136
f 92//93 155//154 154//155
f 92//93 154//155 123//122
f 92//93 126//124 155//154
f 142//139 128//126 158//156
f 144//141 158//156 128//126
f 143//140 159//157 99//100
f 161//158 130//127 146//145
f 98//99 99//100 159//157
f 146//145 131//144 148//147
f 159//157 132//128 98//99
f 132//128 162//159 147//146
f 135//131 163//160 148//147
f 148//147 133//130 135//131
f 135//131 151//150 163//160
f 165//161 163//160 151//150
f 166//162 167//163 168//164
f 134//129 164//165 149//148
f 164//165 167//163 149//148
f 164//165 168//164 167//163
f 147//146 164//165 134//129
f 150//149 166//162 151//150
f 150//149 167//163 166//162
f 150//149 149//148 167//163
f 151//150 110//110 150//149
f 169//166 136//132 117//117
f 169//166 152//151 136//132
f 170//167 152//151 169//166
f 171//168 153//152 152//151
f 141//153 153//152 171//168
f 141//153 171//168 172//169
f 172//169 173//170 141//153
f 141//153 173//170 124//138
f 173//170 156//171 124//138
f 155//154 126//124 174//172
f 124//138 156//171 157//173
f 174//172 126//124 142//139
f 175//174 158//156 144//141
f 176//175 143//140 124//138
f 176//175 157//173 177//176
f 157//173 176//175 124//138
f 127//125 175//174 144//141
f 127//125 178//177 175//174
f 127//125 145//143 178//177
f 160//178 159//157 143//140
f 176//175 160//178 143//140
f 176//175 177//176 160//178
f 130//127 161//158 145//143
f 178//177 145//143 161//158
f 177//176 179//179 160//178
f 148//147 161//158 146//145
f 180//180 161//158 148//147
f 179//179 162//159 132//128
f 159//157 160//178 132//128
f 160//178 179//179 132//128
f 147//146 181//181 182//182
f 162//159 179//179 181//181
f 148//147 163//160 180//180
f 165//161 168//164 163//160
f 162//159 181//181 147//146
f 168//164 164//165 182//182
f 147//146 182//182 164//165
f 165//161 151//150 166//162
f 165//161 166//162 168//164
f 154//155 185//183 184//184
f 184//184 185//183 186//185
f 184//184 117//117 139//135
f 169//166 117//117 184//184
f 184//184 170//167 169//166
f 170//167 187//186 152//151
f 170//167 184//184 188//187
f 188//187 187//186 170//167
f 187//186 171//168 152//151
f 187//186 172//169 171//168
f 185//183 155//154 189//188
f 185//183 154//155 155//154
f 186//185 185//183 189//188
f 154//155 139//135 123//122
f 139//135 154//155 184//184
f 190//189 173//170 172//169
f 174//172 189//188 155//154
f 189//188 174//172 142//139
f 189//188 142//139 191//190
f 195//191 156//171 190//189
f 195//191 190//189 192//192
f 173//170 190//189 156//171
f 156//171 195//191 157//173
f 158//156 193//193 142//139
f 193//193 191//190 142//139
f 191//190 193//193 194//194
f 193//193 158//156 175//174
f 177//176 157//173 195//191
f 175//174 194//194 193//193
f 175//174 178//177 161//158
f 161//158 196//195 197//196
f 179//179 177//176 198//197
f 161//158 180//180 196//195
f 179//179 198//197 181//181
f 196//195 180//180 183//198
f 182//182 183//198 168//164
f 182//182 181//181 183//198
f 163//160 168//164 180//180
f 183//198 180//180 168//164
f 186//185 200//199 184//184
f 186//185 199//200 200//199
f 187//186 188//187 201//201
f 184//184 200//199 188//187
f 200//199 201//201 188//187
f 201//201 172//169 187//186
f 189//188 199//200 186//185
f 191//190 199//200 189//188
f 191//190 202//202 199//200
f 172//169 192//192 190//189
f 191//190 194//194 202//202
f 203//203 195//191 192//192
f 198//197 195//191 203//203
f 194//194 175//174 197//196
f 194//194 197//196 202//202
f 198//197 177//176 195//191
f 175//174 161//158 197//196
f 204//204 205//205 206//206
f 197//196 196//195 205//205
f 205//205 181//181 198//197
f 206//206 205//205 198//197
f 205//205 196//195 183//198
f 181//181 205//205 183//198
f 200//199 207//207 201//201
f 199//200 202//202 200//199
f 200//199 202//202 208//208
f 207//207 200//199 208//208
f 172//169 201//201 207//207
f 207//207 192//192 172//169
f 207//207 208//208 192//192
f 208//208 204//204 192//192
f 208//208 202//202 204//204
f 202//202 197//196 204//204
f 204//204 206//206 192//192
f 192//192 206//206 203//203
f 206//206 198//197 203//203
f 197//196 205//205 204//204
