# Blender v2.78 (sub 0) OBJ File: 'exporter.blend'
# www.blender.org
o FJ1296.obj_grp1.044
v 0.033500 -0.813553 7.139574
v 0.034556 -0.812711 7.139290
v 0.033679 -0.814035 7.139585
v 0.033679 -0.814035 7.139585
v 0.033402 -0.814007 7.140196
v 0.033478 -0.813537 7.139571
v 0.033155 -0.813453 7.141886
v 0.033066 -0.813406 7.141965
v 0.033907 -0.811065 7.148113
v 0.033614 -0.814162 7.143951
v 0.033080 -0.812251 7.150998
v 0.033601 -0.814219 7.144037
v 0.034119 -0.814641 7.140243
v 0.034910 -0.813848 7.139162
v 0.034836 -0.814731 7.140034
v 0.035194 -0.812483 7.151273
v 0.035272 -0.811971 7.147640
v 0.035591 -0.813462 7.139793
v 0.035113 -0.810298 7.151416
v 0.035135 -0.805391 7.168908
v 0.038122 -0.805164 7.168869
v 0.037405 -0.805294 7.165875
v 0.035801 -0.808245 7.164453
v 0.035756 -0.803264 7.170351
v 0.036552 -0.803268 7.168481
v 0.037405 -0.805294 7.165875
v 0.038203 -0.803126 7.169442
v 0.037324 -0.804036 7.172824
v 0.038664 -0.800317 7.176095
v 0.039867 -0.798139 7.176264
v 0.039969 -0.802777 7.173527
v 0.039025 -0.802027 7.170922
v 0.039001 -0.802055 7.170950
v 0.041287 -0.798120 7.175124
v 0.041287 -0.798120 7.175124
v 0.040946 -0.800383 7.173666
v 0.040458 -0.801101 7.172965
v 0.042538 -0.798683 7.179179
v 0.042769 -0.796627 7.176579
v 0.048130 -0.791763 7.184544
v 0.048502 -0.793388 7.183761
v 0.048553 -0.790986 7.181479
v 0.049659 -0.792539 7.182817
v 0.047214 -0.790611 7.183173
v 0.049589 -0.791437 7.183116
v 0.048186 -0.790679 7.183480
v 0.048199 -0.790655 7.183486
vn -0.5425 0.4273 -0.7233
vn 0.0140 0.7092 -0.7048
vn -0.3406 -0.5238 -0.7808
vn -0.8641 -0.3447 -0.3666
vn -0.8940 -0.4161 -0.1659
vn -0.9292 -0.2377 -0.2831
vn -0.8817 -0.4715 -0.0195
vn -0.9981 -0.0094 -0.0613
vn -0.0768 0.9539 -0.2903
vn -0.8826 -0.4702 -0.0027
vn -0.8557 -0.4799 0.1937
vn -0.5226 -0.8435 0.1239
vn -0.3592 -0.9138 -0.1898
vn 0.3171 -0.2716 -0.9087
vn 0.3817 -0.8792 -0.2852
vn 0.9289 0.1395 -0.3431
vn 0.8512 0.5092 -0.1269
vn 0.5653 -0.8022 0.1922
vn 0.4370 0.8155 -0.3795
vn 0.9202 -0.3388 -0.1962
vn 0.8526 0.4321 -0.2938
vn -0.0270 -0.9109 0.4118
vn -0.8805 -0.3094 0.3591
vn -0.8803 0.4435 0.1685
vn -0.1353 0.8753 -0.4643
vn 0.5300 0.7608 -0.3745
vn 0.3003 0.6856 -0.6632
vn -0.3554 -0.6850 0.6359
vn -0.7700 -0.0209 0.6377
vn -0.6276 0.7763 -0.0590
vn 0.7100 -0.6887 0.1470
vn 0.4142 0.5856 -0.6968
vn 0.8323 0.1128 -0.5428
vn -0.1151 0.8142 -0.5691
vn 0.5408 0.3667 -0.7570
vn 0.7031 0.0828 -0.7062
vn 0.5082 0.4070 -0.7590
vn -0.1053 -0.6151 0.7814
vn -0.1450 0.7358 -0.6615
vn 0.0216 0.1212 0.9924
vn 0.4076 -0.6332 0.6579
vn 0.4068 0.6580 -0.6337
vn 0.9620 -0.2708 0.0360
vn -0.4772 0.8390 0.2615
vn -0.2668 0.3274 0.9064
vn 0.2790 0.8428 0.4603
vn 0.8972 0.4049 0.1765
s 1
f 1//1 2//2 3//3
f 4//4 5//5 6//6
f 5//5 7//7 6//6
f 1//1 8//8 9//9
f 2//2 1//1 9//9
f 7//7 5//5 10//10
f 7//7 11//11 8//8
f 7//7 10//10 11//11
f 10//10 12//12 11//11
f 13//13 5//5 3//3
f 14//14 15//15 3//3
f 13//13 3//3 15//15
f 3//3 2//2 14//14
f 2//2 18//16 14//14
f 2//2 9//9 17//17
f 15//15 14//14 18//16
f 16//18 15//15 18//16
f 17//17 18//16 2//2
f 5//5 13//13 10//10
f 13//13 15//15 12//12
f 18//16 17//17 16//18
f 12//12 15//15 16//18
f 16//18 11//11 12//12
f 19//19 17//17 9//9
f 16//18 17//17 21//20
f 17//17 22//21 21//20
f 22//21 17//17 19//19
f 23//22 11//11 16//18
f 11//11 23//22 20//23
f 9//9 8//8 24//24
f 19//19 9//9 25//25
f 25//25 9//9 24//24
f 26//26 19//19 25//25
f 11//11 20//23 8//8
f 8//8 20//23 24//24
f 25//25 27//27 26//26
f 28//28 20//23 23//22
f 23//22 16//18 21//20
f 20//23 29//29 24//24
f 24//24 30//30 25//25
f 20//23 28//28 29//29
f 30//30 24//24 29//29
f 21//20 31//31 23//22
f 28//28 23//22 31//31
f 27//27 25//25 32//32
f 33//33 21//20 22//21
f 32//32 25//25 34//34
f 21//20 33//33 35//35
f 36//36 31//31 21//20
f 35//35 37//37 21//20
f 35//35 36//36 37//37
f 29//29 28//28 38//38
f 38//38 28//28 31//31
f 30//30 34//34 25//25
f 39//39 36//36 35//35
f 39//39 34//34 30//30
f 38//38 40//40 29//29
f 40//40 38//38 41//41
f 41//41 38//38 31//31
f 42//42 31//31 36//36
f 31//31 42//42 43//43
f 39//39 42//42 36//36
f 29//29 44//44 30//30
f 29//29 40//40 44//44
f 43//43 41//41 31//31
f 42//42 39//39 30//30
f 42//42 30//30 44//44
f 44//44 40//40 46//45
f 42//42 44//44 47//46
f 46//45 47//46 44//44
f 45//47 47//46 40//40
f 43//43 42//42 45//47
f 41//41 43//43 40//40
f 40//40 43//43 45//47
f 47//46 45//47 42//42
