# Blender v2.78 (sub 0) OBJ File: 'exporter.blend'
# www.blender.org
o FJ1271.obj_grp1.019
v -0.115228 -0.717823 6.783628
v -0.112693 -0.701266 6.756612
v -0.116020 -0.719403 6.768601
v -0.116184 -0.715139 6.770586
v -0.115287 -0.725435 6.774308
v -0.116759 -0.727189 6.789518
v -0.116224 -0.729983 6.785593
v -0.114619 -0.726753 6.797723
v -0.115435 -0.731643 6.797716
v -0.113530 -0.736749 6.796391
v -0.117522 -0.735097 6.806602
v -0.115786 -0.729236 6.810802
v -0.115742 -0.731040 6.821978
v -0.116383 -0.738887 6.804245
v -0.117090 -0.739432 6.813002
v -0.113239 -0.743374 6.803140
v -0.114750 -0.744008 6.810471
v -0.114931 -0.742335 6.818428
v -0.114367 -0.733912 6.826475
v -0.113227 -0.745895 6.814513
v -0.110073 -0.696890 6.726688
v -0.111291 -0.698126 6.729878
v -0.109012 -0.694345 6.727045
v -0.110460 -0.694079 6.734767
v -0.110600 -0.700005 6.728868
v -0.108880 -0.697888 6.725495
v -0.112399 -0.704428 6.744196
v -0.108606 -0.710730 6.745800
v -0.112933 -0.701110 6.748241
v -0.110755 -0.698433 6.754389
v -0.112130 -0.731042 6.776456
v -0.107243 -0.713471 6.789454
v -0.108443 -0.731559 6.774712
v -0.113000 -0.735393 6.788359
v -0.111122 -0.721977 6.798960
v -0.113225 -0.724764 6.804946
v -0.110435 -0.740332 6.796719
v -0.108124 -0.745236 6.801622
v -0.114842 -0.728010 6.819996
v -0.109684 -0.748613 6.811379
v -0.110995 -0.724072 6.823496
v -0.111442 -0.727450 6.828608
v -0.112668 -0.731525 6.829524
v -0.108928 -0.745757 6.829124
v -0.108228 -0.740935 6.833040
v -0.106792 -0.691596 6.732003
v -0.104425 -0.692119 6.729522
v -0.105436 -0.693179 6.726575
v -0.106348 -0.700898 6.726478
v -0.104181 -0.698944 6.724781
v -0.108819 -0.692971 6.737537
v -0.105127 -0.694148 6.749432
v -0.103489 -0.714800 6.749744
v -0.108320 -0.702469 6.770052
v -0.106078 -0.705844 6.779852
v -0.106460 -0.737636 6.784708
v -0.103022 -0.715404 6.804930
v -0.107717 -0.719254 6.809032
v -0.106901 -0.741690 6.795485
v -0.103133 -0.714570 6.816828
v -0.104863 -0.717583 6.823555
v -0.100110 -0.751693 6.812620
v -0.102648 -0.718216 6.827209
v -0.106486 -0.726182 6.831838
v -0.108670 -0.730443 6.832806
v -0.106901 -0.750450 6.819995
v -0.107152 -0.728704 6.832857
v -0.106712 -0.738059 6.834367
v -0.106165 -0.748828 6.828206
v -0.102645 -0.694650 6.726858
v -0.102238 -0.698276 6.725587
v -0.103594 -0.701062 6.726393
v -0.101378 -0.698804 6.726385
v -0.099890 -0.696621 6.730546
v -0.103059 -0.692475 6.738128
v -0.097935 -0.718673 6.757125
v -0.102224 -0.697302 6.760532
v -0.098382 -0.698960 6.760982
v -0.102840 -0.729231 6.770353
v -0.098601 -0.712141 6.797789
v -0.101248 -0.713622 6.798755
v -0.099101 -0.737342 6.784320
v -0.098703 -0.741168 6.794375
v -0.104256 -0.722823 6.830574
v -0.106446 -0.726255 6.831759
v -0.105251 -0.727947 6.831985
v -0.100083 -0.725145 6.830090
v -0.102916 -0.734700 6.832881
v -0.101141 -0.751723 6.827053
v -0.097569 -0.738658 6.833321
v -0.104406 -0.746385 6.833470
v -0.099005 -0.743677 6.834403
v -0.101457 -0.747548 6.833451
v -0.098558 -0.696274 6.738248
v -0.093501 -0.715907 6.758786
v -0.095212 -0.699578 6.746351
v -0.093418 -0.702908 6.758409
v -0.095680 -0.729135 6.773358
v -0.096116 -0.711455 6.795043
v -0.097181 -0.712170 6.803801
v -0.097588 -0.711632 6.816961
v -0.093945 -0.713729 6.823615
v -0.098012 -0.718611 6.828424
v -0.094387 -0.723967 6.830635
v -0.098822 -0.729821 6.828112
v -0.097119 -0.754238 6.822180
v -0.097343 -0.754107 6.819151
v -0.096384 -0.751554 6.827616
v -0.094697 -0.703491 6.743652
v -0.091460 -0.707074 6.759989
v -0.091350 -0.723447 6.771531
v -0.093927 -0.709800 6.786456
v -0.091318 -0.731668 6.780876
v -0.090438 -0.736254 6.791769
v -0.095131 -0.711675 6.819752
v -0.091079 -0.751795 6.816975
v -0.093748 -0.722114 6.830290
v -0.096360 -0.729639 6.827048
v -0.092756 -0.735291 6.829297
v -0.096112 -0.741753 6.833201
v -0.096726 -0.750237 6.828611
v -0.093289 -0.753238 6.823182
v -0.090900 -0.710388 6.773334
v -0.089104 -0.718987 6.773585
v -0.091153 -0.713490 6.794194
v -0.091661 -0.713021 6.800399
v -0.088421 -0.715588 6.799743
v -0.091789 -0.711003 6.814946
v -0.090896 -0.739775 6.800645
v -0.091780 -0.712385 6.820188
v -0.089948 -0.717654 6.826164
v -0.091154 -0.728729 6.827859
v -0.089380 -0.725550 6.830022
v -0.088990 -0.733508 6.828299
v -0.093149 -0.753521 6.819946
v -0.091986 -0.737340 6.828623
v -0.093492 -0.747012 6.826252
v -0.089741 -0.740309 6.823622
v -0.089279 -0.749595 6.823359
v -0.086298 -0.748156 6.821225
v -0.087237 -0.718232 6.786408
v -0.086444 -0.730415 6.788035
v -0.085216 -0.727398 6.789586
v -0.087520 -0.733319 6.790774
v -0.085089 -0.715586 6.807920
v -0.084750 -0.722766 6.794372
v -0.088137 -0.712458 6.814052
v -0.087079 -0.736534 6.804047
v -0.083427 -0.729776 6.805750
v -0.085750 -0.714985 6.819162
v -0.087240 -0.744395 6.811189
v -0.085057 -0.725844 6.829521
v -0.086169 -0.747436 6.817587
v -0.083841 -0.729346 6.829970
v -0.089771 -0.738507 6.824066
v -0.089490 -0.735466 6.827384
v -0.083426 -0.737634 6.825279
v -0.084016 -0.733409 6.829622
v -0.083147 -0.722421 6.803791
v -0.082858 -0.716799 6.814503
v -0.080071 -0.722109 6.814960
v -0.080574 -0.720804 6.817450
v -0.081433 -0.726371 6.825551
v -0.081019 -0.732343 6.812387
v -0.082175 -0.729955 6.828585
v -0.081943 -0.735734 6.825269
v -0.084140 -0.735405 6.827816
v -0.083810 -0.739916 6.823856
v -0.082408 -0.740755 6.822708
v -0.084140 -0.735405 6.827816
v -0.079188 -0.729412 6.816078
v -0.081108 -0.739621 6.820263
vn -0.9874 0.1527 0.0427
vn -0.8484 0.4547 0.2711
vn -0.8537 0.4979 0.1529
vn -0.9161 -0.2783 -0.2887
vn -0.9930 0.0277 0.1147
vn -0.9121 -0.3847 -0.1418
vn -0.8181 -0.4546 -0.3523
vn -0.9167 0.3444 0.2026
vn -0.9987 -0.0462 -0.0229
vn -0.8244 -0.4983 -0.2684
vn -0.8978 0.4390 0.0346
vn -0.9931 0.0351 -0.1116
vn -0.9542 0.1973 0.2250
vn -0.9044 -0.3294 -0.2712
vn -0.9652 -0.2407 0.1020
vn -0.7992 -0.5958 -0.0793
vn -0.8697 -0.4263 0.2489
vn -0.9032 -0.1020 0.4169
vn -0.7425 -0.6675 0.0559
vn -0.8178 0.1689 -0.5502
vn -0.9755 0.0685 -0.2091
vn -0.5781 0.6240 -0.5258
vn -0.8203 0.5710 -0.0323
vn -0.7348 -0.5078 -0.4497
vn -0.4407 -0.1180 -0.8899
vn -0.9404 -0.2763 -0.1981
vn -0.9863 0.1559 -0.0547
vn -0.6134 0.7569 0.2254
vn -0.4886 0.8038 0.3393
vn -0.5697 -0.7193 -0.3976
vn -0.7150 0.6704 0.1983
vn -0.5858 0.7031 0.4032
vn -0.6586 -0.7067 -0.2586
vn -0.8339 0.5476 0.0685
vn -0.5625 -0.7119 -0.4204
vn -0.6339 -0.6778 -0.3724
vn -0.2430 -0.8420 -0.4817
vn -0.4675 -0.8651 -0.1816
vn -0.8532 0.5045 0.1321
vn -0.7146 0.4807 0.5083
vn -0.7962 0.1247 0.5920
vn -0.7404 0.6301 0.2342
vn -0.7338 -0.5278 0.4278
vn -0.6664 -0.2444 0.7044
vn -0.2401 0.9671 -0.0836
vn 0.3518 0.9080 -0.2275
vn 0.0405 0.7082 -0.7048
vn -0.2433 -0.7036 -0.6676
vn 0.1086 -0.1571 -0.9816
vn -0.0920 0.9624 0.2557
vn -0.4838 0.8651 0.1325
vn -0.5315 -0.7191 -0.4477
vn -0.0292 -0.8313 -0.5551
vn -0.2315 -0.8258 -0.5143
vn -0.4963 0.7734 0.3943
vn -0.1917 -0.8896 -0.4146
vn -0.5813 0.8135 0.0182
vn -0.7185 0.6947 0.0350
vn -0.2143 -0.8687 -0.4466
vn -0.5851 0.8075 0.0755
vn -0.5754 0.7549 0.3146
vn -0.3490 0.7188 0.6013
vn -0.4954 0.1907 0.8475
vn -0.5633 0.5329 0.6314
vn -0.5202 -0.8500 0.0833
vn -0.1326 0.3631 0.9222
vn -0.2375 0.0151 0.9713
vn 0.5891 0.5243 -0.6148
vn 0.5578 0.0292 -0.8294
vn 0.2737 -0.6958 -0.6641
vn 0.8858 0.3695 -0.2808
vn 0.7703 -0.1565 -0.6181
vn 0.3677 0.9246 0.0999
vn 0.3858 -0.7699 -0.5083
vn 0.0817 0.9464 0.3126
vn 0.5065 0.8357 0.2123
vn 0.1136 -0.8208 -0.5599
vn -0.1869 0.9427 0.2762
vn -0.5165 0.8302 0.2099
vn 0.2093 -0.8740 -0.4385
vn 0.1867 -0.8668 -0.4624
vn -0.0334 -0.9302 -0.3656
vn -0.2119 0.4743 0.8545
vn 0.3756 0.2008 0.9048
vn 0.1772 0.2712 0.9461
vn 0.2946 0.2936 0.9094
vn -0.2695 -0.8900 0.3679
vn -0.5419 -0.7638 0.3507
vn 0.3272 0.2857 0.9007
vn -0.3754 -0.4959 0.7831
vn 0.3026 -0.1706 0.9377
vn -0.0049 -0.5962 0.8028
vn 0.7569 0.6505 -0.0628
vn 0.7784 -0.4632 -0.4236
vn 0.8471 0.5298 -0.0423
vn 0.4261 -0.7269 -0.5386
vn 0.2448 0.9373 0.2481
vn -0.2152 0.9763 -0.0212
vn -0.3115 0.9423 0.1227
vn -0.0953 0.9375 0.3346
vn 0.0843 0.7893 0.6082
vn 0.0019 0.6140 0.7893
vn 0.1498 -0.2548 0.9553
vn 0.0448 -0.2001 0.9788
vn 0.4327 0.1567 0.8878
vn -0.0468 -0.9862 0.1588
vn -0.0622 -0.9768 -0.2051
vn 0.3445 -0.7036 0.6215
vn 0.9535 -0.0894 -0.2880
vn 0.7943 0.6011 0.0882
vn 0.7795 -0.4587 -0.4266
vn 0.6549 0.7338 0.1806
vn 0.5898 -0.6684 -0.4532
vn 0.5379 -0.7833 -0.3116
vn 0.4935 -0.8115 -0.3130
vn 0.1575 0.3701 0.9156
vn 0.1583 -0.0481 0.9862
vn 0.4001 0.1999 0.8944
vn 0.4090 -0.8471 0.3394
vn 0.6051 -0.1101 0.7885
vn 0.6217 -0.3937 0.6771
vn 0.9790 0.1814 -0.0927
vn 0.8136 0.5634 0.1437
vn 0.9608 -0.0997 -0.2586
vn 0.6082 0.7932 0.0319
vn 0.3742 0.9231 -0.0886
vn 0.7381 0.6571 -0.1529
vn 0.1716 0.9832 0.0618
vn 0.6256 -0.6859 -0.3716
vn 0.3135 0.8687 0.3835
vn 0.3759 0.6374 0.6726
vn -0.2009 -0.3056 0.9307
vn -0.0117 -0.1340 0.9909
vn -0.0570 -0.1589 0.9856
vn 0.3573 -0.9287 -0.0991
vn 0.2504 -0.5771 0.7773
vn 0.7394 -0.2095 0.6398
vn 0.6957 -0.1848 0.6941
vn 0.4240 -0.4657 0.7768
vn 0.3659 -0.1586 0.9170
vn 0.6578 -0.4410 0.6106
vn 0.7636 -0.6077 0.2181
vn 0.8985 0.4371 -0.0404
vn 0.8478 -0.4397 -0.2966
vn 0.9721 -0.1126 -0.2059
vn 0.7461 -0.6192 -0.2447
vn 0.7404 0.6376 -0.2126
vn 0.4905 0.8709 0.0314
vn 0.8178 -0.4714 -0.3301
vn 0.9254 -0.2625 -0.2732
vn 0.5927 0.7188 0.3633
vn 0.7128 -0.5467 -0.4393
vn 0.4606 0.3750 0.8045
vn 0.7597 -0.5944 -0.2635
vn 0.4013 0.0576 0.9141
vn 0.2816 -0.3619 0.8887
vn 0.9525 0.2851 -0.1071
vn 0.9454 0.2055 -0.2528
vn 0.9599 0.2627 -0.0980
vn 0.7877 0.6159 -0.0082
vn 0.8916 0.4123 0.1872
vn 0.8698 0.2731 0.4108
vn 0.8897 -0.2719 -0.3669
vn 0.9364 -0.3498 0.0273
vn 0.8459 0.0380 0.5320
vn 0.3518 -0.6032 0.7158
vn 0.8730 -0.3122 0.3746
vn 0.5802 -0.5519 0.5990
vn 0.2660 -0.3630 0.8930
vn -0.0457 -0.7160 0.6966
vn 0.7364 -0.4026 0.5437
vn 0.9960 -0.0673 -0.0585
s 1
f 4//1 1//2 2//3
f 3//4 6//5 4//1
f 3//4 7//6 6//5
f 3//4 5//7 7//6
f 4//1 6//5 1//2
f 8//8 1//2 6//5
f 7//6 9//9 6//5
f 9//9 8//8 6//5
f 7//6 10//10 9//9
f 12//11 9//9 11//12
f 12//11 11//12 13//13
f 10//10 14//14 11//12
f 11//12 14//14 15//15
f 14//14 17//16 15//15
f 15//15 13//13 11//12
f 18//17 19//18 15//15
f 15//15 19//18 13//13
f 17//16 20//19 15//15
f 21//20 22//21 23//22
f 23//22 22//21 24//23
f 21//20 25//24 22//21
f 21//20 26//25 25//24
f 25//24 27//26 22//21
f 22//21 29//27 24//23
f 2//3 24//23 29//27
f 30//28 24//23 2//3
f 27//26 29//27 22//21
f 4//1 29//27 27//26
f 27//26 3//4 4//1
f 2//3 29//27 4//1
f 2//3 54//29 30//28
f 27//26 31//30 3//4
f 2//3 1//2 54//29
f 3//4 31//30 5//7
f 31//30 7//6 5//7
f 35//31 32//32 1//2
f 34//33 7//6 31//30
f 35//31 1//2 8//8
f 7//6 34//33 10//10
f 35//31 8//8 36//34
f 34//33 37//35 10//10
f 8//8 9//9 36//34
f 36//34 9//9 12//11
f 9//9 10//10 11//12
f 10//10 16//36 14//14
f 10//10 37//35 16//36
f 37//35 38//37 16//36
f 16//36 17//16 14//14
f 16//36 40//38 17//16
f 13//13 39//39 12//11
f 20//19 17//16 40//38
f 13//13 42//40 39//39
f 42//40 13//13 43//41
f 42//40 41//42 39//39
f 20//19 18//17 15//15
f 43//41 13//13 19//18
f 18//17 44//43 19//18
f 45//44 43//41 19//18
f 19//18 44//43 45//44
f 46//45 47//46 48//47
f 23//22 26//25 21//20
f 48//47 23//22 46//45
f 48//47 26//25 23//22
f 49//48 26//25 50//49
f 24//23 46//45 23//22
f 25//24 26//25 49//48
f 52//50 46//45 51//51
f 24//23 30//28 51//51
f 24//23 51//51 46//45
f 49//48 28//52 25//24
f 30//28 52//50 51//51
f 25//24 28//52 27//26
f 28//52 49//48 53//53
f 52//50 30//28 54//29
f 33//54 31//30 28//52
f 28//52 31//30 27//26
f 33//54 28//52 53//53
f 54//29 1//2 32//32
f 55//55 54//29 32//32
f 56//56 34//33 31//30
f 56//56 31//30 33//54
f 57//57 35//31 58//58
f 56//56 37//35 34//33
f 58//58 35//31 36//34
f 59//59 37//35 56//56
f 58//58 36//34 12//11
f 40//38 16//36 38//37
f 39//39 41//42 60//60
f 41//42 61//61 60//60
f 41//42 42//40 61//61
f 42//40 63//62 61//61
f 42//40 65//63 64//64
f 42//40 43//41 65//63
f 20//19 40//38 66//65
f 64//64 65//63 67//66
f 43//41 45//44 68//67
f 68//67 65//63 43//41
f 18//17 20//19 44//43
f 20//19 66//65 44//43
f 67//66 65//63 68//67
f 70//68 48//47 47//46
f 48//47 71//69 50//49
f 71//69 48//47 70//68
f 48//47 50//49 26//25
f 50//49 72//70 49//48
f 70//68 47//46 74//71
f 71//69 73//72 50//49
f 50//49 73//72 72//70
f 75//73 46//45 52//50
f 75//73 47//46 46//45
f 76//74 49//48 72//70
f 75//73 52//50 77//75
f 76//74 53//53 49//48
f 75//73 77//75 78//76
f 77//75 52//50 54//29
f 53//53 79//77 33//54
f 77//75 54//29 55//55
f 80//78 77//75 55//55
f 32//32 80//78 55//55
f 32//32 81//79 80//78
f 79//77 56//56 33//54
f 82//80 56//56 79//77
f 32//32 35//31 81//79
f 57//57 81//79 35//31
f 59//59 38//37 37//35
f 83//81 38//37 59//59
f 60//60 12//11 39//39
f 60//60 57//57 58//58
f 58//58 12//11 60//60
f 62//82 40//38 38//37
f 42//40 64//64 63//62
f 64//64 84//83 63//62
f 86//84 84//83 85//85
f 86//84 85//85 67//66
f 67//66 88//86 86//84
f 66//65 89//87 69//88
f 88//86 67//66 68//67
f 88//86 68//67 90//89
f 44//43 66//65 69//88
f 91//90 68//67 45//44
f 91//90 45//44 44//43
f 92//91 91//90 93//92
f 91//90 44//43 69//88
f 70//68 73//72 71//69
f 94//93 74//71 47//46
f 73//72 95//94 72//70
f 73//72 70//68 74//71
f 75//73 94//93 47//46
f 74//71 94//93 96//95
f 95//94 76//74 72//70
f 53//53 76//74 79//77
f 79//77 76//74 98//96
f 99//97 77//75 80//78
f 56//56 82//80 83//81
f 100//98 80//78 81//79
f 83//81 59//59 56//56
f 100//98 81//79 57//57
f 101//99 100//98 57//57
f 101//99 57//57 60//60
f 101//99 60//60 61//61
f 83//81 62//82 38//37
f 63//62 101//99 61//61
f 101//99 63//62 115//100
f 102//101 115//100 63//62
f 103//102 63//62 84//83
f 84//83 86//84 87//103
f 104//104 84//83 87//103
f 86//84 105//105 87//103
f 105//105 86//84 88//86
f 106//106 66//65 107//107
f 106//106 89//87 66//65
f 107//107 66//65 40//38
f 107//107 40//38 62//82
f 68//67 92//91 90//89
f 68//67 91//90 92//91
f 89//87 93//92 69//88
f 91//90 69//88 93//92
f 89//87 108//108 93//92
f 74//71 109//109 73//72
f 73//72 109//109 95//94
f 74//71 96//95 109//109
f 96//95 75//73 78//76
f 75//73 96//95 94//93
f 97//110 96//95 78//76
f 95//94 111//111 76//74
f 78//76 77//75 99//97
f 78//76 112//112 97//110
f 111//111 98//96 76//74
f 98//96 111//111 113//113
f 112//112 78//76 99//97
f 79//77 98//96 82//80
f 114//114 83//81 82//80
f 103//102 102//101 63//62
f 83//81 116//115 62//82
f 117//116 103//102 84//83
f 117//116 84//83 104//104
f 87//103 105//105 118//117
f 118//117 105//105 88//86
f 62//82 116//115 107//107
f 118//117 88//86 119//118
f 108//108 89//87 106//106
f 106//106 122//119 108//108
f 120//120 90//89 92//91
f 92//91 93//92 121//121
f 121//121 120//120 92//91
f 121//121 93//92 108//108
f 109//109 96//95 110//122
f 96//95 97//110 110//122
f 95//94 109//109 110//122
f 97//110 123//123 110//122
f 112//112 123//123 97//110
f 95//94 124//124 111//111
f 113//113 82//80 98//96
f 99//97 125//125 112//112
f 99//97 126//126 125//125
f 114//114 82//80 113//113
f 99//97 80//78 126//126
f 126//126 127//127 125//125
f 100//98 126//126 80//78
f 128//128 126//126 100//98
f 83//81 114//114 129//129
f 128//128 100//98 101//99
f 130//130 115//100 102//101
f 128//128 101//99 115//100
f 130//130 128//128 115//100
f 116//115 83//81 129//129
f 131//131 102//101 103//102
f 131//131 103//102 117//116
f 132//132 104//104 87//103
f 133//133 117//116 104//104
f 132//132 87//103 118//117
f 134//134 118//117 119//118
f 116//115 135//135 107//107
f 88//86 90//89 119//118
f 156//136 134//134 119//118
f 119//118 90//89 120//120
f 119//118 120//120 136//137
f 156//136 119//118 136//137
f 137//138 136//137 120//120
f 137//138 155//139 136//137
f 155//139 137//138 138//140
f 135//135 106//106 107//107
f 106//106 135//135 122//119
f 121//121 108//108 137//138
f 137//138 120//120 121//121
f 137//138 108//108 139//141
f 108//108 122//119 139//141
f 139//141 122//119 140//142
f 110//122 123//123 141//143
f 95//94 110//122 124//124
f 110//122 141//143 124//124
f 142//144 111//111 124//124
f 123//123 112//112 141//143
f 124//124 143//145 142//144
f 111//111 142//144 113//113
f 125//125 141//143 112//112
f 141//143 125//125 127//127
f 144//146 113//113 142//144
f 144//146 114//114 113//113
f 126//126 145//147 127//127
f 128//128 147//148 126//126
f 147//148 145//147 126//126
f 148//149 144//146 142//144
f 149//150 148//149 142//144
f 144//146 129//129 114//114
f 150//151 147//148 128//128
f 144//146 148//149 129//129
f 128//128 130//130 150//151
f 130//130 102//101 150//151
f 150//151 102//101 131//131
f 129//129 151//152 116//115
f 131//131 117//116 152//153
f 153//154 116//115 151//152
f 152//153 117//116 133//133
f 104//104 132//132 133//133
f 154//155 152//153 133//133
f 158//156 133//133 132//132
f 134//134 158//156 132//132
f 133//133 158//156 154//155
f 132//132 118//117 134//134
f 136//137 155//139 156//136
f 158//156 134//134 156//136
f 139//141 138//140 137//138
f 140//142 122//119 135//135
f 116//115 140//142 135//135
f 124//124 141//143 146//157
f 124//124 146//157 143//145
f 141//143 127//127 146//157
f 146//157 127//127 159//158
f 143//145 149//150 142//144
f 159//158 127//127 145//147
f 161//159 159//158 145//147
f 146//157 159//158 143//145
f 149//150 143//145 159//158
f 147//148 150//151 160//160
f 145//147 147//148 160//160
f 150//151 162//161 160//160
f 150//151 163//162 162//161
f 131//131 152//153 150//151
f 163//162 150//151 152//153
f 129//129 148//149 151//152
f 164//163 172//164 151//152
f 164//163 151//152 148//149
f 172//164 153//154 151//152
f 165//165 154//155 158//156
f 155//139 157//166 156//136
f 166//167 167//168 157//166
f 155//139 138//140 168//169
f 155//139 168//169 157//166
f 172//164 140//142 153//154
f 153//154 140//142 116//115
f 158//156 156//136 170//170
f 166//167 158//156 167//168
f 170//170 156//136 157//166
f 168//169 138//140 139//141
f 140//142 169//171 139//141
f 168//169 139//141 169//171
f 162//161 161//159 160//160
f 145//147 160//160 161//159
f 159//158 161//159 171//172
f 149//150 159//158 164//163
f 164//163 159//158 171//172
f 161//159 162//161 171//172
f 148//149 149//150 164//163
f 163//162 171//172 162//161
f 164//163 171//172 172//164
f 163//162 165//165 171//172
f 152//153 165//165 163//162
f 165//165 152//153 154//155
f 158//156 166//167 165//165
f 171//172 165//165 172//164
f 157//166 168//169 166//167
f 166//167 169//171 172//164
f 166//167 172//164 165//165
f 169//171 166//167 168//169
f 169//171 140//142 172//164
