# Blender v2.78 (sub 0) OBJ File: 'exporter.blend'
# www.blender.org
o FJ1260.obj_grp1.008
v 0.037663 -0.771516 6.744211
v 0.036595 -0.778124 6.752445
v 0.035970 -0.775026 6.756207
v 0.037310 -0.770344 6.749269
v 0.036903 -0.771832 6.756005
v 0.037466 -0.783811 6.762419
v 0.038301 -0.784254 6.758276
v 0.042961 -0.763312 6.730357
v 0.043824 -0.765331 6.727476
v 0.038695 -0.773611 6.742297
v 0.043836 -0.760978 6.733930
v 0.039762 -0.777402 6.744554
v 0.040416 -0.767149 6.754870
v 0.045209 -0.760261 6.738141
v 0.040790 -0.769917 6.764997
v 0.038373 -0.774427 6.767368
v 0.040060 -0.784339 6.754757
v 0.043148 -0.784020 6.750413
v 0.037923 -0.777788 6.769280
v 0.039528 -0.788380 6.765566
v 0.045815 -0.771193 6.786710
v 0.038043 -0.787264 6.775373
v 0.039823 -0.780809 6.782419
v 0.040716 -0.795644 6.781874
v 0.040414 -0.787467 6.788548
v 0.044674 -0.783515 6.798688
v 0.041219 -0.794095 6.791269
v 0.045109 -0.757588 6.723248
v 0.047258 -0.756119 6.728212
v 0.047158 -0.754422 6.712383
v 0.046468 -0.787597 6.754637
v 0.048398 -0.795754 6.766897
v 0.049968 -0.766060 6.779812
v 0.044764 -0.775661 6.790916
v 0.046238 -0.805466 6.788802
v 0.048331 -0.810097 6.805370
v 0.045693 -0.788065 6.802960
v 0.043238 -0.794413 6.798543
v 0.050094 -0.744441 6.701371
v 0.050406 -0.743480 6.702826
v 0.049378 -0.746636 6.713277
v 0.050812 -0.747895 6.700708
v 0.047665 -0.748347 6.710515
v 0.051074 -0.743288 6.704836
v 0.047595 -0.749912 6.716715
v 0.053449 -0.754456 6.703486
v 0.050388 -0.756709 6.732702
v 0.048831 -0.761007 6.746298
v 0.054579 -0.759118 6.707815
v 0.057353 -0.771673 6.728853
v 0.049468 -0.764198 6.765410
v 0.053643 -0.785185 6.752018
v 0.052629 -0.798832 6.770731
v 0.048517 -0.803039 6.779908
v 0.048028 -0.770126 6.794985
v 0.050554 -0.770589 6.799137
v 0.048095 -0.806491 6.787847
v 0.047012 -0.774444 6.798737
v 0.051085 -0.787980 6.808098
v 0.053103 -0.813327 6.798703
v 0.048711 -0.800175 6.810955
v 0.050631 -0.798353 6.812513
v 0.050179 -0.812361 6.803589
v 0.047952 -0.807444 6.809124
v 0.052994 -0.742950 6.703232
v 0.051586 -0.744865 6.710409
v 0.050983 -0.745539 6.700079
v 0.052594 -0.743346 6.700764
v 0.052573 -0.745025 6.699905
v 0.054172 -0.743614 6.701459
v 0.056078 -0.744576 6.703945
v 0.054356 -0.752535 6.701629
v 0.056036 -0.746119 6.701763
v 0.056120 -0.752872 6.702298
v 0.055016 -0.745775 6.710636
v 0.054227 -0.756282 6.730871
v 0.058189 -0.762385 6.714017
v 0.054067 -0.760573 6.742467
v 0.052933 -0.763315 6.760052
v 0.054395 -0.764225 6.761920
v 0.051618 -0.765052 6.776711
v 0.051457 -0.768207 6.795127
v 0.055324 -0.769564 6.799605
v 0.055809 -0.773258 6.803210
v 0.054682 -0.813909 6.798806
v 0.054263 -0.779953 6.805551
v 0.057323 -0.794132 6.814219
v 0.050630 -0.808219 6.817653
v 0.051437 -0.806830 6.818429
v 0.057479 -0.803569 6.820241
v 0.051996 -0.811560 6.817098
v 0.055175 -0.815125 6.813612
v 0.052585 -0.808334 6.819820
v 0.057348 -0.752203 6.703095
v 0.058486 -0.748947 6.705134
v 0.058755 -0.754547 6.706334
v 0.058368 -0.749373 6.714412
v 0.057180 -0.757052 6.706054
v 0.058226 -0.758838 6.730600
v 0.057231 -0.762994 6.741982
v 0.060708 -0.766389 6.734721
v 0.057752 -0.768121 6.763326
v 0.057083 -0.783831 6.752468
v 0.059663 -0.783251 6.755682
v 0.059991 -0.769685 6.779315
v 0.056662 -0.766920 6.783340
v 0.057600 -0.797964 6.771705
v 0.057900 -0.769970 6.798101
v 0.058122 -0.803414 6.779657
v 0.055915 -0.771327 6.801879
v 0.061597 -0.776684 6.804918
v 0.057331 -0.807608 6.787582
v 0.057742 -0.787473 6.809976
v 0.060315 -0.813963 6.801169
v 0.060019 -0.815841 6.806823
v 0.057285 -0.815198 6.816516
v 0.054539 -0.812290 6.819181
v 0.061742 -0.812107 6.823340
v 0.058975 -0.808787 6.822373
v 0.057925 -0.813890 6.819573
v 0.060257 -0.751436 6.714983
v 0.061503 -0.755545 6.716784
v 0.061326 -0.758464 6.715354
v 0.060421 -0.762824 6.717668
v 0.060938 -0.770777 6.738248
v 0.060248 -0.775558 6.744627
v 0.060350 -0.770142 6.745639
v 0.061814 -0.776352 6.758358
v 0.061287 -0.782231 6.758141
v 0.062548 -0.776754 6.768009
v 0.063471 -0.800055 6.779744
v 0.062799 -0.774403 6.802107
v 0.062183 -0.803311 6.783369
v 0.059897 -0.779806 6.805688
v 0.063682 -0.787291 6.811145
v 0.063244 -0.795244 6.818704
v 0.063076 -0.815954 6.810110
v 0.062336 -0.805485 6.825577
v 0.061839 -0.816165 6.814731
v 0.063495 -0.814484 6.820696
v 0.062902 -0.779295 6.762511
v 0.068235 -0.780768 6.789130
v 0.065253 -0.786171 6.770814
v 0.065135 -0.795566 6.777771
v 0.068512 -0.778791 6.802837
v 0.067586 -0.778346 6.806191
v 0.069960 -0.785111 6.812863
v 0.065914 -0.810356 6.801716
v 0.065423 -0.814752 6.810608
v 0.067642 -0.791717 6.816689
v 0.063255 -0.800854 6.824011
v 0.068259 -0.797088 6.820876
v 0.065514 -0.814868 6.817816
v 0.064349 -0.802502 6.825453
v 0.064660 -0.805393 6.826012
v 0.062784 -0.809560 6.824965
v 0.065972 -0.811977 6.823725
v 0.069008 -0.789177 6.786831
v 0.069495 -0.803824 6.798005
v 0.074048 -0.787745 6.814679
v 0.072435 -0.806079 6.810767
v 0.069859 -0.799423 6.821979
v 0.069642 -0.811376 6.816957
v 0.068353 -0.803069 6.824746
v 0.071733 -0.800970 6.821804
v 0.069598 -0.805612 6.824091
v 0.069668 -0.810403 6.820887
v 0.066754 -0.813084 6.821213
v 0.071137 -0.806834 6.822020
v 0.075079 -0.788002 6.813235
v 0.074581 -0.797002 6.805025
v 0.074172 -0.800514 6.806307
v 0.074209 -0.794849 6.819821
v 0.073536 -0.799603 6.820782
v 0.074731 -0.802663 6.817140
v 0.075716 -0.789990 6.811195
v 0.076641 -0.796530 6.816525
v 0.076164 -0.794529 6.817651
v 0.076031 -0.797572 6.818730
vn -0.9687 0.0574 -0.2417
vn -0.9206 -0.3135 -0.2328
vn -0.9975 0.0554 0.0438
vn -0.9119 0.4100 -0.0198
vn -0.8872 0.4436 0.1269
vn -0.9561 -0.2915 -0.0308
vn -0.7961 -0.5550 -0.2412
vn -0.9463 0.2602 -0.1917
vn -0.8735 -0.2580 -0.4128
vn -0.8369 -0.3374 -0.4310
vn -0.6534 -0.5897 -0.4748
vn -0.5572 0.8045 0.2056
vn -0.8121 0.5832 -0.0185
vn -0.6414 0.7493 0.1644
vn -0.6928 0.6895 0.2113
vn -0.8930 0.3916 0.2217
vn -0.3758 -0.7718 -0.5129
vn -0.6232 -0.6886 -0.3708
vn -0.9825 0.1152 0.1467
vn -0.7722 -0.5994 -0.2108
vn -0.9856 -0.1527 0.0720
vn -0.9382 0.2410 0.2483
vn -0.9010 -0.4313 -0.0462
vn -0.9631 0.0781 0.2574
vn -0.9051 0.1976 0.3766
vn -0.9692 -0.1555 0.1908
vn -0.9320 0.3584 0.0540
vn -0.6831 0.6752 0.2783
vn -0.9022 -0.2160 -0.3733
vn -0.1781 0.9576 0.2265
vn -0.3435 -0.8144 -0.4678
vn -0.0872 -0.8348 -0.5437
vn -0.7975 0.5735 0.1874
vn -0.4626 0.8711 0.1648
vn -0.9064 0.3496 0.2370
vn -0.7241 -0.6665 -0.1775
vn -0.8412 -0.5326 0.0936
vn -0.8426 0.1702 0.5109
vn -0.9418 -0.0173 0.3357
vn -0.9543 0.2935 -0.0564
vn -0.4759 0.8025 0.3600
vn -0.6111 0.7798 -0.1360
vn -0.7797 0.4074 -0.4755
vn -0.2906 0.9420 0.1677
vn -0.5896 -0.2680 -0.7619
vn -0.7883 0.5678 0.2372
vn -0.4286 -0.6142 -0.6626
vn -0.1700 0.9224 0.3467
vn -0.1499 -0.7682 -0.6224
vn 0.4243 -0.7893 -0.4439
vn -0.3387 0.9297 0.1447
vn -0.3843 -0.8273 -0.4098
vn -0.7024 0.6548 0.2790
vn -0.7633 0.3737 0.5270
vn -0.4585 -0.8193 -0.3443
vn -0.4312 0.6512 0.6246
vn -0.8689 0.1179 0.4807
vn -0.6163 0.3534 0.7038
vn -0.6121 -0.7902 -0.0315
vn -0.9363 -0.2188 0.2746
vn -0.0120 0.7935 -0.6084
vn -0.4829 0.0557 -0.8739
vn 0.1638 0.9855 0.0437
vn 0.1589 0.1738 -0.9719
vn 0.5434 0.7045 -0.4565
vn 0.7146 0.6978 -0.0492
vn -0.0431 -0.4531 -0.8904
vn 0.4320 -0.3882 -0.8140
vn -0.0516 0.9290 0.3664
vn 0.3838 0.8568 0.3444
vn 0.2998 0.8490 0.4352
vn 0.4206 -0.7432 -0.5203
vn 0.3976 0.8772 0.2690
vn 0.1666 0.9711 0.1711
vn -0.0583 0.9863 0.1544
vn 0.2301 -0.8155 -0.5311
vn 0.0426 -0.8493 -0.5262
vn -0.2083 0.9403 0.2690
vn 0.0723 0.8818 0.4660
vn -0.4734 0.3845 0.7925
vn -0.4076 -0.8877 -0.2142
vn -0.1101 -0.9572 -0.2678
vn -0.2307 0.4172 0.8791
vn -0.4430 0.4925 0.7491
vn -0.8664 -0.1555 0.4746
vn -0.6675 0.2795 0.6902
vn -0.5473 0.3418 0.7640
vn -0.7025 -0.6001 0.3826
vn -0.4073 -0.9072 0.1056
vn -0.5547 -0.0369 0.8313
vn 0.7144 0.2412 -0.6569
vn 0.7452 -0.1465 -0.6505
vn 0.8364 0.5128 0.1936
vn 0.9295 0.2135 -0.3009
vn 0.8660 -0.2362 -0.4407
vn 0.5632 0.7593 0.3262
vn 0.4534 -0.6100 -0.6498
vn 0.6863 0.6473 0.3317
vn 0.7925 0.5801 0.1882
vn 0.9298 0.3135 0.1929
vn 0.5606 0.8194 0.1197
vn 0.8425 0.5387 0.0043
vn 0.5511 -0.7081 -0.4413
vn 0.7651 -0.5267 -0.3705
vn 0.7710 0.6361 -0.0302
vn 0.4132 0.9023 0.1231
vn 0.3603 -0.7520 -0.5520
vn 0.4430 0.8655 0.2338
vn 0.0006 0.7123 0.7019
vn -0.1710 0.4663 0.8679
vn 0.2583 -0.8320 -0.4910
vn 0.0111 0.5802 0.8144
vn 0.2868 -0.8453 -0.4509
vn -0.2459 0.5031 0.8285
vn 0.3238 -0.8744 -0.3613
vn 0.0144 -0.9842 -0.1766
vn -0.5029 -0.6070 0.6153
vn -0.2419 -0.5424 0.8046
vn -0.5290 -0.0049 0.8486
vn -0.2943 -0.9121 0.2852
vn -0.2987 -0.7815 0.5478
vn 0.9817 0.1853 0.0441
vn 0.9619 -0.1675 -0.2160
vn 0.7895 -0.5222 -0.3224
vn 0.9970 -0.0699 -0.0338
vn 0.8927 -0.3980 -0.2115
vn 0.9243 0.3710 0.0901
vn 0.9817 0.1811 -0.0583
vn 0.9153 -0.2829 -0.2868
vn 0.8859 0.4537 -0.0965
vn 0.6074 -0.6517 -0.4542
vn 0.5053 -0.7595 -0.4096
vn 0.4361 0.8028 0.4066
vn -0.1768 0.4222 0.8891
vn -0.2579 0.5366 0.8035
vn -0.2525 0.6277 0.7364
vn 0.2901 -0.9469 -0.1389
vn 0.0585 -0.9915 0.1160
vn 0.0658 -0.8928 0.4456
vn 0.9679 0.1264 -0.2171
vn 0.9217 0.3641 -0.1337
vn 0.9463 -0.1185 -0.3006
vn 0.8490 -0.3675 -0.3797
vn 0.7737 0.6334 0.0132
vn 0.4347 0.7781 0.4535
vn -0.0930 0.6022 0.7929
vn 0.6480 -0.6838 -0.3355
vn 0.6010 -0.7805 -0.1720
vn -0.3180 0.5699 0.7577
vn -0.0159 0.5551 0.8316
vn -0.4779 0.0604 0.8764
vn 0.4399 -0.8841 0.1576
vn -0.0857 0.3973 0.9137
vn 0.0846 -0.0576 0.9948
vn -0.2289 -0.3367 0.9134
vn 0.3263 -0.5929 0.7362
vn 0.9635 0.0223 -0.2668
vn 0.8037 -0.5000 -0.3225
vn 0.4613 0.5991 0.6544
vn -0.2625 0.5896 0.7639
vn 0.8435 -0.5107 -0.1667
vn 0.7634 -0.6459 0.0050
vn 0.2279 0.4041 0.8859
vn 0.3962 0.2315 0.8885
vn 0.3598 0.2729 0.8922
vn 0.5533 -0.1776 0.8138
vn 0.7849 -0.3541 0.5085
vn 0.7532 -0.5631 0.3400
vn 0.5144 -0.7779 0.3608
vn 0.8417 0.5028 0.1970
vn 0.9647 -0.0878 -0.2481
vn 0.9194 -0.3228 -0.2248
vn 0.3541 0.3785 0.8552
vn 0.6380 -0.0294 0.7695
vn 0.9215 -0.3515 0.1651
vn 0.9741 0.2048 -0.0956
vn 0.9968 -0.0577 0.0547
vn 0.8606 0.2787 0.4263
vn 0.8529 -0.1130 0.5098
s 1
f 1//1 2//2 3//3
f 1//1 3//3 4//4
f 3//3 5//5 4//4
f 6//6 3//3 2//2
f 2//2 7//7 6//6
f 4//4 8//8 1//1
f 9//9 10//10 1//1
f 10//10 2//2 1//1
f 10//10 12//11 2//2
f 14//12 11//13 13//14
f 13//14 11//13 4//4
f 5//5 13//14 4//4
f 15//15 5//5 16//16
f 15//15 13//14 5//5
f 18//17 17//18 12//11
f 5//5 3//3 16//16
f 7//7 2//2 12//11
f 12//11 17//18 7//7
f 16//16 3//3 19//19
f 7//7 17//18 20//20
f 3//3 6//6 19//19
f 7//7 20//20 22//21
f 6//6 7//7 22//21
f 6//6 22//21 19//19
f 16//16 19//19 23//22
f 22//21 23//22 19//19
f 20//20 24//23 22//21
f 22//21 25//24 23//22
f 23//22 25//24 26//25
f 27//26 25//24 22//21
f 22//21 24//23 27//26
f 28//27 8//8 29//28
f 28//27 30//29 8//8
f 30//29 9//9 8//8
f 8//8 11//13 29//28
f 10//10 9//9 12//11
f 9//9 1//1 8//8
f 4//4 11//13 8//8
f 14//12 13//14 48//30
f 17//18 18//17 32//31
f 32//31 18//17 31//32
f 21//33 15//15 16//16
f 33//34 15//15 21//33
f 32//31 20//20 17//18
f 23//22 26//25 34//35
f 24//23 20//20 35//36
f 24//23 36//37 27//26
f 36//37 24//23 35//36
f 26//25 25//24 37//38
f 25//24 27//26 38//39
f 25//24 38//39 37//38
f 43//40 41//41 40//42
f 40//42 39//43 43//40
f 43//40 39//43 30//29
f 44//44 40//42 41//41
f 39//43 42//45 30//29
f 45//46 41//41 43//40
f 28//27 43//40 30//29
f 45//46 29//28 41//41
f 45//46 43//40 28//27
f 29//28 45//46 28//27
f 9//9 30//29 46//47
f 12//11 9//9 46//47
f 29//28 11//13 14//12
f 29//28 14//12 47//48
f 47//48 14//12 48//30
f 49//49 18//17 12//11
f 49//49 31//32 18//17
f 50//50 31//32 49//49
f 51//51 48//30 13//14
f 51//51 13//14 15//15
f 33//34 51//51 15//15
f 32//31 54//52 20//20
f 23//22 34//35 21//33
f 16//16 23//22 21//33
f 21//33 34//35 55//53
f 55//53 34//35 58//54
f 20//20 54//52 35//36
f 57//55 35//36 54//52
f 56//56 55//53 58//54
f 34//35 26//25 58//54
f 58//54 26//25 37//38
f 61//57 37//38 38//39
f 37//38 61//57 62//58
f 35//36 63//59 36//37
f 64//60 38//39 27//26
f 38//39 64//60 61//57
f 36//37 64//60 27//26
f 39//43 68//61 67//62
f 40//42 44//44 65//63
f 68//61 69//64 67//62
f 68//61 39//43 40//42
f 40//42 65//63 68//61
f 68//61 65//63 70//65
f 68//61 70//65 69//64
f 71//66 70//65 65//63
f 67//62 42//45 39//43
f 67//62 72//67 42//45
f 67//62 69//64 72//67
f 72//67 69//64 74//68
f 66//69 44//44 41//41
f 66//69 65//63 44//44
f 65//63 66//69 75//70
f 65//63 75//70 71//66
f 46//47 42//45 72//67
f 42//45 46//47 30//29
f 75//70 66//69 76//71
f 76//71 66//69 41//41
f 46//47 49//49 12//11
f 50//50 49//49 77//72
f 41//41 29//28 47//48
f 76//71 41//41 47//48
f 78//73 76//71 47//48
f 47//48 48//30 78//73
f 48//30 79//74 78//73
f 48//30 51//51 79//74
f 51//51 33//34 81//75
f 79//74 51//51 81//75
f 31//32 52//76 53//77
f 53//77 32//31 31//32
f 21//33 55//53 33//34
f 33//34 55//53 82//78
f 33//34 82//78 81//75
f 56//56 82//78 55//53
f 83//79 82//78 56//56
f 53//77 54//52 32//31
f 58//54 59//80 56//56
f 60//81 57//55 54//52
f 54//52 85//82 60//81
f 58//54 62//58 59//80
f 86//83 56//56 59//80
f 58//54 37//38 62//58
f 60//81 35//36 57//55
f 63//59 35//36 60//81
f 59//80 62//58 87//84
f 88//85 61//57 64//60
f 88//85 89//86 61//57
f 61//57 89//86 62//58
f 62//58 89//86 90//87
f 64//60 91//88 88//85
f 36//37 91//88 64//60
f 63//59 91//88 36//37
f 63//59 92//89 91//88
f 88//85 91//88 93//90
f 89//86 88//85 93//90
f 69//64 70//65 73//91
f 71//66 73//91 70//65
f 74//68 69//64 73//91
f 94//92 74//68 73//91
f 71//66 121//93 95//94
f 71//66 95//94 73//91
f 95//94 94//92 73//91
f 95//94 96//95 94//92
f 97//96 121//93 71//66
f 75//70 97//96 71//66
f 72//67 49//49 46//47
f 49//49 72//67 98//97
f 72//67 74//68 98//97
f 94//92 98//97 74//68
f 94//92 96//95 98//97
f 75//70 76//71 97//96
f 98//97 77//72 49//49
f 78//73 99//98 76//71
f 50//50 52//76 31//32
f 100//99 99//98 78//73
f 99//98 100//99 101//100
f 100//99 78//73 80//101
f 100//99 80//101 102//102
f 80//101 78//73 79//74
f 50//50 103//103 52//76
f 104//104 103//103 50//50
f 80//101 105//105 102//102
f 106//106 105//105 80//101
f 81//75 80//101 79//74
f 106//106 80//101 81//75
f 52//76 107//107 53//77
f 52//76 103//103 107//107
f 81//75 82//78 106//106
f 106//106 82//78 83//79
f 83//79 108//108 106//106
f 83//79 56//56 110//109
f 110//109 56//56 84//110
f 109//111 85//82 53//77
f 110//109 84//110 111//112
f 53//77 85//82 54//52
f 109//111 112//113 85//82
f 84//110 56//56 86//83
f 84//110 86//83 111//112
f 113//114 86//83 59//80
f 85//82 112//113 114//115
f 113//114 59//80 87//84
f 63//59 60//81 85//82
f 85//82 92//89 63//59
f 92//89 85//82 115//116
f 62//58 90//87 87//84
f 89//86 93//90 90//87
f 93//90 91//88 117//117
f 93//90 117//117 118//118
f 119//119 93//90 118//118
f 117//117 91//88 92//89
f 92//89 116//120 117//117
f 120//121 117//117 116//120
f 122//122 95//94 121//93
f 123//123 96//95 95//94
f 95//94 122//122 123//123
f 124//124 98//97 96//95
f 98//97 124//124 77//72
f 96//95 123//123 124//124
f 121//93 76//71 99//98
f 121//93 97//96 76//71
f 123//123 122//122 125//125
f 123//123 125//125 124//124
f 121//93 99//98 101//100
f 121//93 101//100 122//122
f 122//122 101//100 125//125
f 124//124 50//50 77//72
f 126//126 124//124 125//125
f 101//100 100//99 127//127
f 101//100 127//127 125//125
f 50//50 124//124 126//126
f 125//125 127//127 128//128
f 126//126 104//104 50//50
f 126//126 125//125 128//128
f 100//99 128//128 127//127
f 128//128 129//129 126//126
f 100//99 102//102 128//128
f 126//126 129//129 104//104
f 128//128 102//102 130//130
f 102//102 105//105 130//130
f 103//103 131//131 107//107
f 107//107 109//111 53//77
f 131//131 109//111 107//107
f 109//111 131//131 133//132
f 132//133 110//109 111//112
f 132//133 108//108 83//79
f 110//109 132//133 83//79
f 133//132 112//113 109//111
f 86//83 134//134 111//112
f 113//114 135//135 86//83
f 133//132 114//115 112//113
f 113//114 87//84 136//136
f 114//115 115//116 85//82
f 137//137 115//116 114//115
f 139//138 116//120 92//89
f 139//138 92//89 115//116
f 119//119 90//87 93//90
f 118//118 117//117 120//121
f 116//120 139//138 140//139
f 128//128 141//140 129//129
f 130//130 105//105 142//141
f 128//128 130//130 141//140
f 130//130 142//141 141//140
f 141//140 143//142 129//129
f 103//103 104//104 144//143
f 129//129 143//142 104//104
f 144//143 104//104 143//142
f 131//131 103//103 144//143
f 106//106 145//144 105//105
f 105//105 145//144 142//141
f 132//133 106//106 108//108
f 111//112 146//145 132//133
f 111//112 134//134 147//146
f 146//145 111//112 147//146
f 131//131 148//147 133//132
f 135//135 134//134 86//83
f 135//135 147//146 134//134
f 133//132 148//147 114//115
f 113//114 136//136 135//135
f 148//147 149//148 114//115
f 137//137 114//115 149//148
f 139//138 115//116 137//137
f 136//136 87//84 151//149
f 136//136 151//149 152//150
f 151//149 87//84 90//87
f 90//87 138//151 151//149
f 149//148 153//152 137//137
f 153//152 139//138 137//137
f 151//149 138//151 154//153
f 138//151 90//87 119//119
f 116//120 140//139 120//121
f 153//152 140//139 139//138
f 155//154 154//153 138//151
f 138//151 156//155 155//154
f 138//151 119//119 156//155
f 156//155 119//119 118//118
f 156//155 118//118 157//156
f 120//121 140//139 118//118
f 157//156 118//118 140//139
f 143//142 141//140 158//157
f 141//140 142//141 158//157
f 158//157 144//143 143//142
f 131//131 144//143 159//158
f 146//145 145//144 106//106
f 146//145 106//106 132//133
f 131//131 159//158 148//147
f 160//159 146//145 147//146
f 150//160 135//135 136//136
f 135//135 150//160 147//146
f 161//161 148//147 159//158
f 150//160 152//150 147//146
f 148//147 161//161 149//148
f 136//136 152//150 150//160
f 153//152 149//148 163//162
f 162//163 152//150 154//153
f 151//149 154//153 152//150
f 154//153 155//154 164//164
f 162//163 154//153 164//164
f 162//163 164//164 165//165
f 166//166 164//164 155//154
f 166//166 157//156 169//167
f 163//162 167//168 168//169
f 153//152 163//162 168//169
f 155//154 156//155 157//156
f 166//166 155//154 157//156
f 168//169 167//168 157//156
f 140//139 168//169 157//156
f 153//152 168//169 140//139
f 145//144 170//170 142//141
f 171//171 144//143 158//157
f 170//170 145//144 146//145
f 159//158 144//143 172//172
f 152//150 173//173 147//146
f 173//173 160//159 147//146
f 161//161 159//158 172//172
f 173//173 152//150 162//163
f 163//162 149//148 161//161
f 165//165 173//173 162//163
f 165//165 166//166 174//174
f 175//175 169//167 167//168
f 166//166 169//167 174//174
f 167//168 163//162 175//175
f 164//164 166//166 165//165
f 169//167 157//156 167//168
f 142//141 176//176 158//157
f 170//170 146//145 160//159
f 142//141 170//170 176//176
f 176//176 171//171 158//157
f 144//143 171//171 172//172
f 176//176 177//177 171//171
f 171//171 177//177 172//172
f 178//178 170//170 160//159
f 173//173 178//178 160//159
f 176//176 170//170 177//177
f 170//170 178//178 177//177
f 172//172 175//175 161//161
f 172//172 177//177 175//175
f 173//173 165//165 174//174
f 173//173 174//174 179//179
f 173//173 179//179 178//178
f 177//177 178//178 179//179
f 177//177 179//179 175//175
f 163//162 161//161 175//175
f 179//179 174//174 175//175
f 169//167 175//175 174//174
