# Blender v2.78 (sub 0) OBJ File: 'exporter.blend'
# www.blender.org
o FJ1291.obj_grp1.039
v 0.055778 -0.582424 7.170986
v 0.058268 -0.583634 7.167867
v 0.055706 -0.576003 7.170765
v 0.056807 -0.585192 7.174770
v 0.056228 -0.580131 7.177410
v 0.056900 -0.574191 7.165609
v 0.056561 -0.576826 7.175030
v 0.056543 -0.573233 7.169005
v 0.056600 -0.575684 7.172588
v 0.059065 -0.585048 7.169597
v 0.059309 -0.586667 7.173889
v 0.059589 -0.584568 7.181790
v 0.061978 -0.587000 7.181321
v 0.058288 -0.578600 7.164682
v 0.057479 -0.577060 7.177150
v 0.057215 -0.576671 7.174328
v 0.058559 -0.578693 7.172543
v 0.058380 -0.577131 7.179443
v 0.060611 -0.586341 7.174759
v 0.059629 -0.577185 7.182271
v 0.058073 -0.573431 7.169584
v 0.056598 -0.575858 7.172987
v 0.057536 -0.570234 7.166330
v 0.060014 -0.567964 7.165952
v 0.062211 -0.570309 7.159915
v 0.060334 -0.566002 7.163760
v 0.059971 -0.566938 7.165500
v 0.061947 -0.587202 7.178768
v 0.060459 -0.586350 7.174842
v 0.062629 -0.586055 7.178610
v 0.060056 -0.583925 7.169105
v 0.059873 -0.585449 7.171885
v 0.059924 -0.585445 7.171866
v 0.061777 -0.578342 7.186121
v 0.063447 -0.574781 7.160027
v 0.063113 -0.576633 7.186130
v 0.064001 -0.579065 7.184043
v 0.065234 -0.575418 7.161999
v 0.062512 -0.565137 7.165059
v 0.064660 -0.566159 7.159977
v 0.059971 -0.566938 7.165500
v 0.062161 -0.564492 7.164655
v 0.062664 -0.564985 7.164983
v 0.062161 -0.564492 7.164655
v 0.064850 -0.585003 7.185780
v 0.065675 -0.578143 7.188969
v 0.067140 -0.585486 7.183239
v 0.066795 -0.573277 7.159857
v 0.063928 -0.576450 7.187119
v 0.067455 -0.561386 7.164751
v 0.066549 -0.561308 7.164263
v 0.068078 -0.585918 7.184706
v 0.068106 -0.583669 7.187531
v 0.069606 -0.583351 7.184712
v 0.067783 -0.577974 7.186445
v 0.066345 -0.573889 7.161508
v 0.063846 -0.576433 7.187041
v 0.068197 -0.574645 7.189321
v 0.067362 -0.569655 7.158693
v 0.066822 -0.573159 7.159866
v 0.068232 -0.571382 7.161356
v 0.071420 -0.567706 7.163054
v 0.065961 -0.562467 7.162110
v 0.071186 -0.584270 7.186687
v 0.073979 -0.577380 7.189957
v 0.067195 -0.573028 7.161057
v 0.070808 -0.565027 7.159624
v 0.070115 -0.560062 7.164180
v 0.069563 -0.560405 7.165219
v 0.069539 -0.560419 7.165310
v 0.072724 -0.582637 7.185301
v 0.072257 -0.574501 7.187142
v 0.071442 -0.573289 7.189975
v 0.073310 -0.571184 7.188430
v 0.071094 -0.568895 7.159561
v 0.071114 -0.570067 7.160739
v 0.071198 -0.569971 7.161415
v 0.073583 -0.561773 7.162419
v 0.077607 -0.579470 7.188252
v 0.078930 -0.578879 7.184530
v 0.071193 -0.570027 7.160758
v 0.073756 -0.569009 7.161650
v 0.071198 -0.569971 7.161415
v 0.073465 -0.568870 7.162785
v 0.073831 -0.559894 7.167966
v 0.073354 -0.559228 7.166875
v 0.073246 -0.559502 7.166767
v 0.069575 -0.560413 7.165218
v 0.073471 -0.559665 7.167914
v 0.076315 -0.581123 7.185588
v 0.076749 -0.581252 7.186109
v 0.076195 -0.576489 7.184845
v 0.077295 -0.567517 7.184045
v 0.079586 -0.572430 7.187505
v 0.075271 -0.569834 7.187668
v 0.078835 -0.566530 7.163439
v 0.073415 -0.568957 7.162824
v 0.076318 -0.568744 7.163607
v 0.077769 -0.567750 7.166720
v 0.075409 -0.560456 7.170053
v 0.077804 -0.561052 7.167136
v 0.077716 -0.560230 7.172035
v 0.078876 -0.568628 7.165594
v 0.078876 -0.568628 7.165594
v 0.078802 -0.565985 7.183049
v 0.078950 -0.565463 7.182847
v 0.077023 -0.560784 7.172244
v 0.077848 -0.561628 7.173831
v 0.078947 -0.578928 7.184372
v 0.079446 -0.579182 7.184982
v 0.081524 -0.577053 7.185606
v 0.079446 -0.579182 7.184982
v 0.080691 -0.577030 7.181825
v 0.078947 -0.578928 7.184372
v 0.080495 -0.578102 7.183578
v 0.082038 -0.569950 7.169481
v 0.081026 -0.569937 7.169558
v 0.078876 -0.568628 7.165594
v 0.078876 -0.568628 7.165594
v 0.081870 -0.569783 7.169490
v 0.081118 -0.569802 7.169538
v 0.081660 -0.570636 7.173506
v 0.078876 -0.563935 7.179790
v 0.079052 -0.563999 7.179865
v 0.080293 -0.562215 7.177577
v 0.078807 -0.562472 7.177220
v 0.078947 -0.562478 7.177190
v 0.082639 -0.563879 7.170597
v 0.081513 -0.562269 7.172999
v 0.080739 -0.576994 7.181931
v 0.082839 -0.572341 7.174976
v 0.082728 -0.572501 7.174936
v 0.084029 -0.570640 7.181918
v 0.082118 -0.571037 7.172448
v 0.082600 -0.566212 7.168346
v 0.082732 -0.564249 7.178069
v 0.084187 -0.573070 7.177108
v 0.084787 -0.569863 7.174813
v 0.084637 -0.566797 7.174839
vn -0.7898 -0.6071 0.0876
vn -0.9361 0.0268 0.3508
vn -0.9234 -0.3169 -0.2166
vn -0.9745 0.2201 0.0431
vn -0.8881 0.0553 -0.4563
vn -0.9074 0.2517 0.3365
vn -0.7755 0.5620 0.2877
vn -0.9741 0.2166 -0.0650
vn 0.0407 -0.8811 -0.4712
vn -0.3814 -0.6544 -0.6529
vn -0.2750 -0.8984 0.3424
vn -0.7184 -0.4411 0.5378
vn -0.0492 -0.9698 -0.2389
vn -0.6423 -0.3200 -0.6965
vn 0.8134 0.5381 -0.2210
vn 0.9036 0.2774 0.3265
vn 0.6008 0.7916 0.1114
vn 0.8948 0.3446 -0.2840
vn 0.6715 0.6705 -0.3156
vn -0.6767 0.6137 0.4067
vn 0.0675 0.9863 0.1505
vn 0.6428 0.5854 0.4940
vn -0.8852 0.4640 -0.0331
vn 0.3176 0.6166 0.7203
vn -0.1050 0.7125 0.6938
vn -0.1721 0.5163 0.8390
vn -0.5136 0.0993 -0.8523
vn -0.7596 0.5868 -0.2804
vn -0.7032 0.6457 0.2978
vn 0.2872 -0.9350 -0.2081
vn 0.6271 -0.6810 -0.3782
vn 0.7940 -0.1194 -0.5960
vn 0.8750 -0.4661 -0.1304
vn 0.5569 -0.7612 -0.3324
vn 0.9800 0.1990 0.0066
vn -0.7066 0.0829 0.7027
vn -0.1176 -0.4353 -0.8926
vn 0.4196 0.7756 -0.4716
vn 0.5488 0.4900 -0.6773
vn 0.8217 -0.2357 0.5189
vn 0.4266 -0.1268 0.8955
vn -0.3422 0.4109 -0.8451
vn -0.0921 0.3972 0.9131
vn -0.6086 0.7930 0.0278
vn -0.1656 0.4021 0.9005
vn -0.2378 0.4492 0.8612
vn -0.3087 -0.6384 0.7051
vn -0.3942 -0.0492 0.9177
vn 0.6617 -0.1192 -0.7402
vn 0.4821 -0.4901 -0.7262
vn -0.5087 0.1752 0.8430
vn -0.3430 0.7419 -0.5761
vn -0.4520 0.8674 0.2082
vn -0.3932 0.4780 0.7854
vn 0.4305 -0.9025 0.0141
vn -0.0780 -0.5633 0.8226
vn 0.3296 0.0869 -0.9401
vn 0.0829 0.5284 -0.8450
vn -0.5053 0.7863 0.3556
vn 0.2595 0.8043 -0.5346
vn 0.1321 -0.2715 -0.9533
vn 0.5187 -0.1677 0.8384
vn 0.0423 -0.0365 -0.9984
vn 0.3236 -0.3953 0.8597
vn 0.0482 -0.3228 0.9452
vn -0.2076 -0.5107 0.8343
vn 0.3269 -0.8135 0.4810
vn 0.1673 -0.1351 0.9766
vn 0.7324 -0.6536 0.1908
vn 0.1807 0.3559 -0.9169
vn -0.1411 0.9178 -0.3710
vn -0.3468 0.9238 0.1620
vn -0.0045 0.1381 -0.9904
vn -0.3517 0.4163 -0.8385
vn -0.1240 0.4302 0.8942
vn -0.5969 0.8017 0.0321
vn 0.4680 -0.8538 -0.2280
vn 0.4508 -0.3137 -0.8357
vn 0.3766 -0.9187 0.1193
vn -0.3011 -0.3786 0.8752
vn 0.2988 0.6554 -0.6936
vn -0.1957 -0.0890 -0.9766
vn 0.4758 -0.5968 -0.6461
vn 0.5062 -0.7700 -0.3883
vn 0.1482 -0.5746 0.8049
vn -0.2800 -0.6986 0.6584
vn -0.6138 -0.4224 0.6669
vn 0.2938 0.8808 -0.3714
vn -0.2291 0.9453 0.2321
vn -0.3000 0.9397 0.1640
vn -0.0624 0.9560 0.2866
vn 0.4069 -0.6871 -0.6020
vn 0.5328 -0.8455 -0.0355
vn 0.5150 -0.4466 0.7316
vn -0.6389 -0.3540 -0.6830
vn -0.8969 0.2514 -0.3639
vn 0.5436 0.2367 0.8053
vn -0.0306 0.7118 0.7018
vn 0.6881 -0.0475 -0.7240
vn 0.1980 -0.9745 0.1058
vn 0.4693 -0.6729 -0.5718
vn -0.5665 -0.6320 0.5289
vn -0.8240 -0.4075 0.3937
vn 0.0840 0.9676 0.2382
vn 0.4445 -0.7025 -0.5558
vn 0.0510 -0.9982 0.0313
vn -0.1634 -0.9207 0.3544
vn -0.4739 0.8092 0.3474
vn 0.5324 0.7478 -0.3966
vn -0.5856 0.6003 0.5447
vn -0.9182 0.0658 0.3906
vn 0.2362 -0.8050 -0.5441
vn 0.2944 -0.7848 -0.5454
vn 0.8384 -0.3621 0.4074
vn 0.6710 -0.7294 0.1331
vn -0.7353 -0.2821 -0.6162
vn -0.5305 -0.4587 -0.7129
vn 0.5096 -0.7955 -0.3278
vn 0.8013 -0.3044 -0.5150
vn -0.8040 -0.5586 0.2040
vn -0.5879 -0.8072 0.0530
vn 0.0032 -0.9573 -0.2890
vn -0.0209 -0.9354 -0.3531
vn -0.0014 -0.9411 -0.3382
vn -0.8678 -0.4954 -0.0394
vn -0.9372 -0.1446 -0.3174
vn 0.5466 0.5311 0.6474
vn -0.3440 0.8091 0.4764
vn -0.9395 -0.3423 0.0107
vn 0.1668 0.9071 0.3864
vn -0.3990 0.8034 0.4420
vn 0.6421 0.7667 -0.0027
vn -0.1150 -0.8170 -0.5651
vn -0.4154 -0.7669 -0.4892
vn 0.3394 -0.7726 -0.5366
vn 0.0144 -0.9206 -0.3902
vn 0.7870 -0.5880 -0.1869
vn 0.8385 0.1231 -0.5308
vn 0.8952 0.1296 0.4264
vn 0.7939 0.5448 -0.2700
vn 0.7399 0.5840 0.3339
vn 0.9660 -0.1836 -0.1822
vn 0.9599 0.2759 -0.0501
s 1
f 4//1 5//2 1//3
f 1//3 5//2 3//4
f 1//3 3//4 6//5
f 5//2 7//6 3//4
f 9//7 3//4 7//6
f 3//4 8//8 6//5
f 10//9 4//1 2//10
f 13//11 12//12 4//1
f 13//11 4//1 11//13
f 2//10 4//1 1//3
f 12//12 5//2 4//1
f 14//14 1//3 6//5
f 14//14 2//10 1//3
f 15//15 17//16 16//17
f 19//18 17//16 15//15
f 18//19 7//6 20//20
f 3//4 9//7 8//8
f 16//17 7//21 15//15
f 22//22 7//21 16//17
f 8//8 23//23 6//5
f 21//24 8//25 22//22
f 21//24 24//26 8//25
f 25//27 6//5 26//28
f 23//23 26//28 6//5
f 23//23 8//8 27//29
f 28//30 11//13 29//31
f 30//32 28//30 29//31
f 11//13 28//30 13//11
f 31//33 32//34 10//9
f 11//13 4//1 10//9
f 11//13 10//9 32//34
f 11//13 32//34 29//31
f 33//35 17//16 19//18
f 5//2 12//12 34//36
f 31//33 17//16 33//35
f 19//18 15//15 30//32
f 2//10 14//14 35//37
f 21//24 22//22 17//16
f 22//22 16//17 17//16
f 5//2 20//20 7//6
f 18//19 20//20 36//38
f 15//15 18//19 36//38
f 15//15 36//38 37//39
f 5//2 34//36 20//20
f 25//27 35//37 14//14
f 17//16 38//40 21//24
f 25//27 14//14 6//5
f 39//41 24//26 21//24
f 25//27 26//28 40//42
f 24//26 41//43 8//25
f 26//28 23//23 27//29
f 26//28 27//29 42//44
f 24//26 43//45 41//43
f 43//45 44//46 41//43
f 45//47 12//12 13//11
f 12//12 45//47 34//36
f 46//48 34//36 45//47
f 15//15 37//39 30//32
f 37//39 47//49 30//32
f 48//50 2//10 35//37
f 31//33 38//40 17//16
f 31//33 10//9 38//40
f 20//20 49//51 36//38
f 20//20 34//36 49//51
f 21//24 38//40 39//41
f 63//52 26//28 51//53
f 63//52 40//42 26//28
f 44//46 43//45 50//54
f 51//53 26//28 42//44
f 28//30 52//55 13//11
f 30//32 47//49 28//30
f 53//56 46//48 45//47
f 47//49 37//39 54//57
f 10//9 2//10 48//50
f 36//38 55//58 37//39
f 48//50 38//40 10//9
f 49//51 34//36 58//59
f 57//60 55//58 36//38
f 34//36 46//48 58//59
f 60//61 48//50 35//37
f 39//41 38//40 56//62
f 35//37 25//27 59//63
f 61//64 39//41 56//62
f 39//41 61//64 50//65
f 62//66 50//65 61//64
f 44//46 50//54 51//53
f 47//49 52//55 28//30
f 52//55 45//47 13//11
f 45//47 52//55 64//67
f 37//39 55//58 54//57
f 65//68 46//48 53//56
f 38//40 48//50 66//69
f 58//59 55//58 57//60
f 66//69 61//64 56//62
f 60//61 35//37 59//63
f 40//42 59//63 25//27
f 40//42 63//52 67//70
f 63//52 51//53 68//71
f 68//71 51//53 69//72
f 50//54 69//72 51//53
f 52//55 47//49 54//57
f 71//73 52//55 54//57
f 45//47 64//67 53//56
f 55//58 58//59 72//74
f 73//75 58//59 46//48
f 73//75 46//48 65//68
f 58//59 74//76 72//74
f 48//50 76//77 66//69
f 60//61 59//63 75//78
f 76//77 61//64 66//69
f 48//50 75//78 76//77
f 76//77 77//79 61//64
f 59//63 40//42 67//70
f 62//66 70//80 50//65
f 63//52 78//81 67//70
f 78//81 63//52 68//71
f 64//67 65//68 53//56
f 55//58 71//73 54//57
f 71//73 55//58 80//82
f 80//82 55//58 72//74
f 58//59 73//75 74//76
f 81//83 76//77 75//78
f 75//78 82//84 81//83
f 82//84 77//79 76//77
f 75//78 59//63 67//70
f 61//64 83//85 62//66
f 84//86 62//66 83//85
f 70//80 62//66 85//87
f 68//71 69//72 86//88
f 68//71 86//88 78//81
f 87//89 88//90 89//91
f 90//92 91//93 52//55
f 71//73 90//92 52//55
f 91//93 64//67 52//55
f 65//68 64//67 79//94
f 92//95 72//74 74//76
f 74//76 93//96 92//95
f 94//97 73//75 65//68
f 73//75 95//98 74//76
f 96//99 75//78 67//70
f 77//79 82//84 97//100
f 82//84 98//101 97//100
f 67//70 78//81 96//99
f 62//66 99//102 85//87
f 85//87 99//102 100//103
f 102//104 87//89 89//91
f 90//92 71//73 80//82
f 91//93 79//94 64//67
f 92//95 80//82 72//74
f 94//97 95//98 73//75
f 75//78 98//101 82//84
f 75//78 96//99 98//101
f 103//105 98//101 96//99
f 84//86 99//102 62//66
f 98//106 104//107 84//86
f 84//86 104//107 99//102
f 74//76 105//108 93//96
f 74//76 95//98 105//108
f 96//99 78//81 101//109
f 86//88 101//109 78//81
f 107//110 102//104 89//91
f 100//103 108//111 107//110
f 101//109 86//88 102//104
f 90//92 109//112 110//113
f 90//92 110//113 91//93
f 111//114 91//93 112//115
f 111//114 79//94 91//93
f 92//95 113//116 114//117
f 109//112 115//118 110//113
f 93//96 113//116 92//95
f 94//97 79//94 111//114
f 79//94 94//97 65//68
f 96//99 116//119 103//105
f 117//120 99//102 118//121
f 119//122 120//123 121//124
f 99//102 117//120 100//103
f 100//103 117//120 122//125
f 93//96 123//126 122//125
f 106//127 95//98 94//97
f 93//96 105//108 124//128
f 122//125 108//111 100//103
f 122//125 126//129 108//111
f 122//125 123//126 126//129
f 125//130 124//128 105//108
f 102//104 127//131 125//130
f 125//130 127//131 124//128
f 129//132 101//109 102//104
f 108//111 102//104 107//110
f 108//111 127//131 102//104
f 102//104 125//130 129//132
f 109//112 130//133 115//118
f 112//115 115//118 111//114
f 93//96 122//125 113//116
f 131//134 113//116 122//125
f 132//135 115//118 130//133
f 122//125 117//120 131//134
f 121//124 120//123 134//136
f 120//123 137//137 134//136
f 135//138 116//119 96//99
f 133//139 106//127 94//97
f 96//99 128//140 135//138
f 96//99 101//109 128//140
f 136//141 125//130 106//127
f 129//132 128//140 101//109
f 111//114 115//118 137//137
f 132//135 137//137 115//118
f 137//137 133//139 111//114
f 94//97 111//114 133//139
f 132//135 134//136 137//137
f 116//119 135//138 138//142
f 137//137 116//119 138//142
f 133//139 139//143 136//141
f 138//142 135//138 139//143
f 128//140 136//141 139//143
f 136//141 106//127 133//139
f 139//143 135//138 128//140
f 129//132 136//141 128//140
f 129//132 125//130 136//141
f 137//137 138//142 133//139
f 139//143 133//139 138//142
