# Blender v2.78 (sub 0) OBJ File: 'exporter.blend'
# www.blender.org
o FJ1257.obj_grp1.005
v 0.076724 -0.727331 6.805367
v 0.077931 -0.721255 6.802042
v 0.077394 -0.716268 6.811390
v 0.074511 -0.721379 6.813370
v 0.074906 -0.719877 6.817214
v 0.077069 -0.716702 6.817384
v 0.073982 -0.723406 6.819213
v 0.073039 -0.728980 6.815804
v 0.075002 -0.737810 6.816786
v 0.076218 -0.725134 6.826045
v 0.075154 -0.739676 6.820846
v 0.076089 -0.729565 6.828663
v 0.078552 -0.725754 6.829171
v 0.075763 -0.736012 6.825022
v 0.076628 -0.740909 6.822900
v 0.077323 -0.731209 6.829908
v 0.077827 -0.739417 6.824157
v 0.087914 -0.703089 6.746467
v 0.081080 -0.722670 6.780693
v 0.081702 -0.717029 6.785676
v 0.084301 -0.714171 6.792465
v 0.078717 -0.725004 6.790286
v 0.080727 -0.731664 6.789188
v 0.085011 -0.736160 6.790300
v 0.085229 -0.713397 6.798743
v 0.080463 -0.716438 6.802934
v 0.081189 -0.737578 6.804154
v 0.079472 -0.714083 6.815983
v 0.083646 -0.711497 6.814559
v 0.082493 -0.716514 6.824175
v 0.080010 -0.745399 6.814450
v 0.083045 -0.747442 6.812222
v 0.080799 -0.748829 6.818892
v 0.085113 -0.718255 6.826970
v 0.082921 -0.724374 6.829823
v 0.077930 -0.732880 6.829692
v 0.083631 -0.725653 6.829894
v 0.082890 -0.738940 6.823694
v 0.080581 -0.745183 6.823084
v 0.080785 -0.748568 6.821882
v 0.090620 -0.702537 6.738022
v 0.081928 -0.730950 6.785163
v 0.087919 -0.701390 6.753831
v 0.087381 -0.711963 6.792952
v 0.085907 -0.732469 6.781346
v 0.085507 -0.739775 6.799276
v 0.092907 -0.741592 6.795389
v 0.087832 -0.710933 6.815062
v 0.088074 -0.712336 6.821735
v 0.088616 -0.714809 6.825011
v 0.092283 -0.748431 6.806544
v 0.088251 -0.722961 6.830816
v 0.086545 -0.729215 6.827291
v 0.082397 -0.734154 6.828276
v 0.084267 -0.734073 6.828521
v 0.083616 -0.735456 6.827534
v 0.085482 -0.736465 6.828583
v 0.084253 -0.734081 6.828473
v 0.084104 -0.738938 6.824492
v 0.086947 -0.746413 6.825987
v 0.084545 -0.752066 6.818716
v 0.084275 -0.750914 6.823890
v 0.090518 -0.751345 6.827904
v 0.089054 -0.699360 6.747421
v 0.094380 -0.697684 6.728215
v 0.093594 -0.695612 6.733409
v 0.096941 -0.692484 6.739192
v 0.091666 -0.709838 6.745459
v 0.092561 -0.699366 6.763240
v 0.095288 -0.727527 6.767907
v 0.093261 -0.738086 6.785747
v 0.091179 -0.711869 6.796681
v 0.090660 -0.712140 6.804186
v 0.092337 -0.726042 6.829225
v 0.090966 -0.729836 6.827337
v 0.087735 -0.753646 6.818648
v 0.087069 -0.735625 6.829599
v 0.087800 -0.753585 6.822952
v 0.095186 -0.751615 6.812678
v 0.090736 -0.740887 6.833628
v 0.090429 -0.736832 6.831947
v 0.091136 -0.743719 6.833457
v 0.091475 -0.754339 6.821386
v 0.098355 -0.692231 6.728831
v 0.096396 -0.699020 6.725322
v 0.096456 -0.701791 6.727985
v 0.095543 -0.717401 6.754109
v 0.096168 -0.698753 6.764550
v 0.094611 -0.712174 6.796168
v 0.092887 -0.712210 6.817298
v 0.095903 -0.720833 6.829928
v 0.095699 -0.722720 6.830516
v 0.095679 -0.726876 6.830099
v 0.096158 -0.733963 6.832228
v 0.093998 -0.753222 6.823596
v 0.093357 -0.743556 6.834548
v 0.100255 -0.738052 6.834444
v 0.093251 -0.748005 6.832369
v 0.097391 -0.694216 6.726336
v 0.098319 -0.698021 6.724782
v 0.100612 -0.692674 6.727671
v 0.098318 -0.699873 6.725110
v 0.100323 -0.705326 6.734111
v 0.098838 -0.694408 6.750663
v 0.100766 -0.712691 6.747489
v 0.099491 -0.702452 6.773036
v 0.099648 -0.730596 6.772285
v 0.096176 -0.715083 6.801566
v 0.101242 -0.737500 6.785089
v 0.105559 -0.721220 6.795856
v 0.105568 -0.722541 6.800740
v 0.097447 -0.742403 6.796163
v 0.098143 -0.716100 6.821259
v 0.102249 -0.745092 6.801542
v 0.097095 -0.718960 6.827637
v 0.100914 -0.729441 6.833129
v 0.101187 -0.748498 6.827032
v 0.096630 -0.748969 6.831487
v 0.097079 -0.747028 6.833639
v 0.100863 -0.694078 6.726285
v 0.102682 -0.696193 6.725797
v 0.101322 -0.691895 6.731679
v 0.103592 -0.695157 6.727403
v 0.102127 -0.698865 6.725471
v 0.104042 -0.698409 6.726885
v 0.104395 -0.694290 6.734655
v 0.103151 -0.693203 6.738116
v 0.104229 -0.701008 6.729771
v 0.104796 -0.701762 6.763323
v 0.104462 -0.729546 6.772830
v 0.105764 -0.704781 6.742303
v 0.100207 -0.706469 6.780369
v 0.101912 -0.712680 6.786836
v 0.102624 -0.741780 6.797014
v 0.107690 -0.726811 6.811536
v 0.102801 -0.749199 6.812573
v 0.104543 -0.724903 6.826387
v 0.100356 -0.726446 6.831933
v 0.100323 -0.726490 6.831806
v 0.102755 -0.731540 6.832926
v 0.101976 -0.740714 6.833182
v 0.101389 -0.746339 6.830357
v 0.105395 -0.698304 6.731291
v 0.106710 -0.701382 6.755001
v 0.106255 -0.699289 6.742514
v 0.109776 -0.722672 6.772337
v 0.108248 -0.714755 6.780232
v 0.107225 -0.730353 6.777512
v 0.107388 -0.734573 6.787676
v 0.107407 -0.725030 6.804398
v 0.106045 -0.738374 6.796479
v 0.107813 -0.735819 6.796701
v 0.105502 -0.744116 6.802256
v 0.108300 -0.727998 6.822563
v 0.106223 -0.730959 6.829750
v 0.107047 -0.745810 6.815214
v 0.109131 -0.741931 6.817688
v 0.104029 -0.743379 6.829021
v 0.108490 -0.733384 6.825969
v 0.110131 -0.715060 6.768488
v 0.110006 -0.724918 6.790669
v 0.110245 -0.729554 6.785666
v 0.108816 -0.728565 6.799366
v 0.110733 -0.726626 6.788822
v 0.109019 -0.732731 6.797550
v 0.109697 -0.729607 6.805867
v 0.111242 -0.735131 6.805489
v 0.109771 -0.730256 6.819802
v 0.108684 -0.740831 6.802553
v 0.110570 -0.740072 6.808336
v 0.107879 -0.744737 6.809650
v 0.111090 -0.737938 6.814157
vn -0.9557 -0.1128 -0.2717
vn -0.9483 0.2511 -0.1938
vn -0.9303 0.3166 -0.1854
vn -0.8879 0.4356 0.1479
vn -0.7226 0.6383 0.2653
vn -0.7576 0.6254 -0.1871
vn -0.9415 0.2477 0.2287
vn -0.9955 -0.0599 -0.0739
vn -0.9025 -0.3528 -0.2472
vn -0.7679 0.4127 0.4898
vn -0.8213 0.0692 0.5663
vn -0.4857 0.3645 0.7945
vn -0.9184 -0.3793 0.1129
vn -0.4336 -0.0972 0.8959
vn -0.8292 -0.3099 0.4652
vn -0.7240 -0.4200 0.5472
vn -0.1905 -0.4823 0.8550
vn -0.8861 0.4629 -0.0212
vn -0.9630 -0.0630 -0.2621
vn -0.9840 -0.0369 -0.1741
vn -0.8456 -0.4688 -0.2553
vn -0.7693 -0.5225 -0.3678
vn -0.5370 -0.7829 -0.3140
vn -0.4211 0.9054 -0.0544
vn -0.6515 0.7578 -0.0376
vn -0.7381 0.6412 -0.2099
vn -0.7815 -0.4862 -0.3910
vn -0.5785 0.7992 0.1635
vn -0.4768 0.6718 0.5669
vn -0.7724 -0.5245 -0.3582
vn -0.5730 -0.6744 -0.4657
vn -0.7339 -0.6678 -0.1242
vn -0.2691 0.5600 0.7836
vn -0.1887 0.2447 0.9511
vn 0.0654 -0.2358 0.9696
vn -0.2397 -0.4280 0.8714
vn 0.0642 -0.3192 0.9455
vn -0.1925 -0.3983 0.8968
vn -0.2799 -0.2100 0.9368
vn -0.6999 -0.5812 0.4151
vn -0.9746 0.0610 -0.2154
vn -0.8782 -0.2435 -0.4117
vn -0.8081 0.5842 0.0758
vn -0.4980 0.8537 0.1523
vn -0.4888 -0.7408 -0.4608
vn -0.3544 0.9332 0.0594
vn -0.5547 -0.7323 -0.3951
vn -0.2360 -0.8698 -0.4333
vn -0.0462 0.8973 0.4391
vn -0.0373 0.7312 0.6811
vn -0.1669 -0.8412 -0.5143
vn -0.0496 0.0944 0.9943
vn 0.1325 -0.1897 0.9729
vn -0.1416 0.2057 0.9683
vn -0.4541 -0.5645 0.6893
vn -0.6427 -0.2522 0.7234
vn -0.4949 -0.2007 0.8455
vn -0.6803 -0.3413 0.6486
vn -0.7055 -0.1615 0.6900
vn -0.5781 -0.5712 0.5827
vn -0.5342 -0.8279 -0.1708
vn -0.8244 0.5657 -0.0205
vn -0.8726 0.1673 -0.4590
vn -0.4685 0.8486 0.2458
vn -0.5670 -0.6452 -0.5121
vn -0.1750 -0.8043 -0.5678
vn -0.1990 -0.8943 -0.4007
vn -0.0716 0.9821 0.1744
vn 0.1428 0.9896 -0.0146
vn 0.0161 0.9976 0.0668
vn -0.1098 -0.3783 0.9191
vn -0.2330 0.0526 0.9711
vn -0.2594 -0.9374 -0.2325
vn -0.6062 -0.4125 0.6799
vn -0.2953 -0.9116 0.2858
vn -0.3350 0.3836 0.8606
vn -0.5870 -0.2896 0.7560
vn -0.4870 0.0813 0.8696
vn -0.2971 -0.7101 0.6383
vn 0.0868 -0.9957 0.0331
vn -0.5698 -0.1958 -0.7981
vn -0.8280 0.5291 -0.1857
vn -0.3748 -0.7257 -0.5769
vn -0.2991 0.9499 0.0906
vn -0.1042 -0.8270 -0.5524
vn 0.4221 0.8521 0.3096
vn 0.4057 0.9054 0.1249
vn 0.1674 0.5216 0.8366
vn 0.1246 -0.9368 -0.3268
vn -0.1099 0.0923 0.9896
vn -0.3867 -0.0852 0.9183
vn -0.3344 0.3622 0.8701
vn 0.1970 0.1086 0.9744
vn -0.1978 -0.1331 0.9712
vn -0.3079 -0.5676 0.7636
vn 0.2765 -0.9328 0.2311
vn -0.3296 0.9079 -0.2590
vn -0.4304 0.5813 -0.6905
vn 0.2638 0.8395 -0.4750
vn -0.0921 0.1026 -0.9904
vn -0.0092 -0.5364 -0.8439
vn 0.2278 -0.8320 -0.5059
vn 0.3798 -0.3676 -0.8489
vn 0.3573 -0.7688 -0.5304
vn 0.0767 0.9620 0.2622
vn -0.0591 0.9440 0.3245
vn 0.0745 -0.8450 -0.5296
vn 0.3246 0.8578 0.3985
vn 0.2753 -0.8755 -0.3973
vn 0.5943 0.7943 0.1260
vn 0.7700 0.6307 0.0962
vn 0.0468 -0.8814 -0.4700
vn 0.2097 -0.8529 -0.4782
vn 0.5758 0.7762 0.2568
vn 0.4030 0.7011 0.5883
vn 0.0743 0.3037 0.9499
vn 0.6146 -0.7384 0.2774
vn 0.2364 -0.7992 0.5527
vn 0.2105 -0.5380 0.8162
vn 0.2232 0.5612 -0.7970
vn 0.4951 0.2620 -0.8284
vn 0.3424 0.9368 -0.0713
vn 0.7671 0.4836 -0.4215
vn 0.8196 -0.1784 -0.5444
vn 0.5195 0.8418 0.1468
vn 0.6962 -0.5784 -0.4251
vn 0.6409 0.7103 0.2912
vn 0.4392 -0.7368 -0.5140
vn 0.5317 0.7344 0.4218
vn 0.6200 0.6615 0.4219
vn 0.6913 0.6652 0.2821
vn 0.3669 -0.8082 -0.4606
vn 0.8274 0.5592 0.0525
vn 0.4754 -0.8693 -0.1357
vn 0.7082 0.5739 0.4112
vn 0.5531 0.5049 0.6627
vn -0.3605 0.2239 0.9055
vn 0.6413 -0.2019 0.7403
vn 0.6324 -0.5836 0.5094
vn 0.9819 0.0526 -0.1822
vn 0.8290 0.5582 -0.0336
vn 0.9212 -0.3177 -0.2248
vn 0.8661 0.4805 0.1378
vn 0.9835 0.1715 -0.0579
vn 0.8035 0.5257 0.2794
vn 0.6754 -0.6535 -0.3417
vn 0.8137 0.5805 0.0310
vn 0.7173 -0.6066 -0.3428
vn 0.6973 -0.6706 -0.2533
vn 0.5163 -0.7539 -0.4063
vn 0.8510 0.4709 0.2323
vn 0.7843 0.1911 0.5903
vn 0.7401 -0.6680 0.0778
vn 0.5283 0.1821 0.8293
vn 0.8873 -0.4101 0.2109
vn 0.8082 -0.3928 0.4388
vn 0.9939 0.1076 -0.0226
vn 0.9110 -0.3277 -0.2504
vn 0.9971 0.0075 0.0757
vn 0.9053 0.3577 0.2289
vn 0.9290 -0.3522 -0.1132
vn 0.9726 0.2209 0.0730
vn 0.9842 -0.1662 -0.0617
vn 0.8837 -0.4030 -0.2383
vn 0.9353 0.3499 -0.0520
vn 0.9898 0.0109 -0.1420
vn 0.7958 -0.4778 -0.3722
vn 0.9454 0.2948 0.1389
vn 0.7328 -0.6707 -0.1149
vn 0.9333 -0.3500 -0.0805
vn 0.9153 -0.0360 0.4012
vn 0.9868 -0.1247 0.1029
s 1
f 1//1 4//2 2//3
f 5//4 6//5 3//6
f 5//4 3//6 4//2
f 5//4 4//2 7//7
f 1//1 8//8 4//2
f 8//8 1//1 9//9
f 10//10 5//4 7//7
f 5//4 10//10 6//5
f 7//7 4//2 8//8
f 10//10 7//7 12//11
f 12//11 7//7 8//8
f 10//10 12//11 13//12
f 12//11 8//8 11//13
f 8//8 9//9 11//13
f 16//14 12//11 14//15
f 12//11 11//13 14//15
f 14//15 11//13 15//16
f 17//17 14//15 15//16
f 20//18 19//19 22//20
f 20//18 22//20 2//3
f 23//21 22//20 19//19
f 19//19 42//22 23//21
f 24//23 23//21 42//22
f 25//24 21//25 26//26
f 2//3 21//25 20//18
f 2//3 22//20 1//1
f 23//21 1//1 22//20
f 3//6 26//26 2//3
f 26//26 21//25 2//3
f 4//2 3//6 2//3
f 23//21 27//27 1//1
f 6//5 28//28 3//6
f 6//5 30//29 28//28
f 1//1 27//27 9//9
f 30//29 6//5 10//10
f 31//30 9//9 27//27
f 31//30 27//27 32//31
f 9//9 31//30 33//32
f 10//10 13//12 30//29
f 30//29 13//12 34//33
f 35//34 34//33 13//12
f 11//13 9//9 33//32
f 31//30 32//31 33//32
f 16//14 13//12 12//11
f 35//34 13//12 16//14
f 37//35 35//34 16//14
f 37//35 16//14 36//36
f 16//14 14//15 36//36
f 14//15 17//17 36//36
f 54//37 36//36 17//17
f 17//17 38//38 54//37
f 38//38 17//17 39//39
f 40//40 15//16 11//13
f 15//16 40//40 39//39
f 39//39 17//17 15//16
f 33//32 40//40 11//13
f 18//41 41//42 42//22
f 43//43 18//41 20//18
f 20//18 44//44 43//43
f 19//19 18//41 42//22
f 18//41 19//19 20//18
f 44//44 21//25 25//24
f 45//45 24//23 42//22
f 25//24 3//6 29//46
f 3//6 25//24 26//26
f 24//23 27//27 23//21
f 46//47 27//27 24//23
f 47//48 46//47 24//23
f 29//46 3//6 28//28
f 30//29 49//49 28//28
f 29//46 28//28 49//49
f 32//31 27//27 46//47
f 30//29 34//33 50//50
f 32//31 46//47 51//51
f 52//52 34//33 35//34
f 53//53 37//35 36//36
f 55//54 54//37 56//55
f 54//37 38//38 56//55
f 57//56 58//57 56//55
f 56//55 38//38 59//58
f 56//55 59//58 57//56
f 60//59 59//58 38//38
f 38//38 39//39 62//60
f 33//32 61//61 40//40
f 61//61 62//60 40//40
f 33//32 32//31 61//61
f 39//39 40//40 62//60
f 60//59 38//38 62//60
f 64//62 65//63 18//41
f 43//43 64//62 18//41
f 44//44 69//64 43//43
f 41//42 68//65 45//45
f 41//42 45//45 42//22
f 70//66 71//67 45//45
f 44//44 20//18 21//25
f 25//24 72//68 44//44
f 45//45 71//67 24//23
f 25//24 29//46 73//69
f 73//69 29//46 48//70
f 48//70 29//46 49//49
f 46//47 47//48 51//51
f 49//49 30//29 50//50
f 52//52 50//50 34//33
f 52//52 35//34 37//35
f 74//71 37//35 53//53
f 52//52 37//35 74//71
f 54//37 53//53 36//36
f 53//53 54//37 55//54
f 55//54 75//72 53//53
f 32//31 51//51 76//73
f 58//57 57//56 77//74
f 59//58 60//59 57//56
f 76//73 61//61 32//31
f 78//75 61//61 76//73
f 55//54 77//74 81//76
f 60//59 82//77 57//56
f 82//77 80//78 57//56
f 60//59 62//60 63//79
f 78//75 62//60 61//61
f 63//79 62//60 78//75
f 76//73 83//80 78//75
f 41//42 65//63 85//81
f 65//63 64//62 66//82
f 18//41 65//63 41//42
f 86//83 68//65 41//42
f 67//84 66//82 64//62
f 67//84 64//62 69//64
f 87//85 68//65 86//83
f 69//64 64//62 43//43
f 87//85 70//66 68//65
f 70//66 45//45 68//65
f 72//68 69//64 44//44
f 25//24 73//69 72//68
f 89//86 72//68 73//69
f 71//67 47//48 24//23
f 90//87 48//70 49//49
f 52//52 91//88 50//50
f 51//51 79//89 76//73
f 92//90 52//52 74//71
f 91//88 52//52 92//90
f 93//91 74//71 75//72
f 74//71 53//53 75//72
f 55//54 81//76 75//72
f 79//89 83//80 76//73
f 75//72 81//76 94//92
f 81//76 77//74 57//56
f 57//56 80//78 81//76
f 78//75 83//80 63//79
f 80//78 97//93 81//76
f 97//93 80//78 96//94
f 96//94 80//78 82//77
f 82//77 60//59 63//79
f 82//77 63//79 98//95
f 96//94 82//77 98//95
f 63//79 83//80 95//96
f 66//82 84//97 99//98
f 99//98 84//97 101//99
f 66//82 99//98 65//63
f 65//63 99//98 85//81
f 99//98 100//100 85//81
f 85//81 86//83 41//42
f 102//101 85//81 100//100
f 86//83 85//81 102//101
f 102//101 103//102 86//83
f 103//102 102//101 124//103
f 67//84 84//97 66//82
f 103//102 87//85 86//83
f 103//102 105//104 87//85
f 69//64 104//105 67//84
f 104//105 69//64 88//106
f 87//85 107//107 70//66
f 88//106 69//64 72//68
f 106//108 88//106 72//68
f 89//86 106//108 72//68
f 107//107 71//67 70//66
f 107//107 109//109 71//67
f 73//69 108//110 89//86
f 90//87 108//110 73//69
f 108//110 90//87 111//111
f 73//69 48//70 90//87
f 47//48 112//112 51//51
f 112//112 114//113 51//51
f 49//49 113//114 90//87
f 49//49 50//50 115//115
f 113//114 49//49 115//115
f 115//115 50//50 91//88
f 92//90 74//71 93//91
f 116//116 93//91 75//72
f 116//116 75//72 94//92
f 97//93 116//116 94//92
f 117//117 118//118 95//96
f 81//76 97//93 94//92
f 119//119 97//93 96//94
f 63//79 118//118 98//95
f 118//118 117//117 119//119
f 118//118 63//79 95//96
f 119//119 96//94 98//95
f 119//119 98//95 118//118
f 101//99 120//120 99//98
f 99//98 120//120 100//100
f 120//120 121//121 100//100
f 122//122 101//99 84//97
f 120//120 101//99 123//123
f 101//99 122//122 123//123
f 121//121 124//103 100//100
f 123//123 121//121 120//120
f 121//121 125//124 124//103
f 102//101 100//100 124//103
f 67//84 122//122 84//97
f 67//84 104//105 127//125
f 122//122 67//84 127//125
f 128//126 103//102 124//103
f 105//104 103//102 128//126
f 106//108 129//127 104//105
f 87//85 105//104 107//107
f 104//105 88//106 106//108
f 105//104 130//128 107//107
f 132//129 129//127 106//108
f 132//129 106//108 89//86
f 129//127 132//129 133//130
f 132//129 89//86 133//130
f 130//128 109//109 107//107
f 133//130 89//86 110//131
f 108//110 110//131 89//86
f 134//132 71//67 109//109
f 71//67 112//112 47//48
f 134//132 112//112 71//67
f 113//114 135//133 111//111
f 113//114 111//111 90//87
f 134//132 114//113 112//112
f 114//113 79//89 51//51
f 136//134 79//89 114//113
f 113//114 115//115 137//135
f 136//134 83//80 79//89
f 115//115 91//88 138//136
f 91//88 92//90 138//136
f 136//134 95//96 83//80
f 92//90 93//91 139//137
f 139//137 93//91 116//116
f 95//96 136//134 117//117
f 141//138 97//93 119//119
f 142//139 141//138 119//119
f 117//117 142//139 119//119
f 123//123 125//124 121//121
f 125//124 123//123 143//140
f 123//123 126//141 143//140
f 127//125 126//141 122//122
f 122//122 126//141 123//123
f 124//103 125//124 128//126
f 128//126 125//124 143//140
f 143//140 131//142 128//126
f 144//143 126//141 127//125
f 145//144 143//140 126//141
f 145//144 126//141 144//143
f 143//140 145//144 131//142
f 131//142 105//104 128//126
f 129//127 127//125 104//105
f 129//127 144//143 127//125
f 131//142 130//128 105//104
f 129//127 147//145 144//143
f 148//146 130//128 131//142
f 129//127 133//130 147//145
f 130//128 148//146 109//109
f 133//130 110//131 147//145
f 108//110 111//111 110//131
f 111//111 135//133 150//147
f 151//148 134//132 149//149
f 149//149 134//132 109//109
f 151//148 153//150 134//132
f 114//113 134//132 153//150
f 153//150 136//134 114//113
f 154//151 135//133 113//114
f 154//151 113//114 137//135
f 137//135 115//115 138//136
f 155//152 137//135 138//136
f 136//134 156//153 117//117
f 140//154 138//136 116//116
f 155//152 138//136 140//154
f 157//155 117//117 156//153
f 141//138 155//152 140//154
f 158//156 155//152 141//138
f 142//139 117//117 158//156
f 97//93 140//154 116//116
f 140//154 97//93 141//138
f 158//156 141//138 142//139
f 145//144 144//143 160//157
f 145//144 160//157 131//142
f 146//158 131//142 160//157
f 160//157 144//143 147//145
f 160//157 164//159 146//158
f 131//142 146//158 148//146
f 147//145 161//160 160//157
f 162//161 148//146 146//158
f 110//131 161//160 147//145
f 162//161 149//149 148//146
f 161//160 163//162 164//159
f 148//146 149//149 109//109
f 161//160 110//131 111//111
f 161//160 111//111 163//162
f 163//162 165//163 164//159
f 152//164 149//149 162//161
f 162//161 165//163 152//164
f 162//161 164//159 165//163
f 152//164 151//148 149//149
f 163//162 111//111 150//147
f 150//147 166//165 163//162
f 165//163 163//162 166//165
f 165//163 167//166 152//164
f 169//167 151//148 152//164
f 166//165 150//147 135//133
f 135//133 168//168 166//165
f 167//166 169//167 152//164
f 169//167 153//150 151//148
f 171//169 153//150 169//167
f 169//167 170//170 171//169
f 168//168 135//133 154//151
f 153//150 171//169 136//134
f 156//153 171//169 170//170
f 156//153 170//170 157//155
f 171//169 156//153 136//134
f 137//135 155//152 154//151
f 154//151 155//152 159//171
f 168//168 154//151 159//171
f 159//171 158//156 157//155
f 172//172 159//171 157//155
f 159//171 155//152 158//156
f 157//155 158//156 117//117
f 160//157 161//160 164//159
f 164//159 162//161 146//158
f 165//163 166//165 167//166
f 167//166 170//170 169//167
f 166//165 168//168 167//166
f 167//166 168//168 172//172
f 167//166 172//172 170//170
f 172//172 157//155 170//170
f 172//172 168//168 159//171
