# Blender v2.78 (sub 0) OBJ File: 'exporter.blend'
# www.blender.org
o FJ1278.obj_grp1.026
v -0.134420 -0.732344 6.847081
v -0.132498 -0.727538 6.850805
v -0.134012 -0.741409 6.842411
v -0.136064 -0.741700 6.853911
v -0.133059 -0.729365 6.857313
v -0.135471 -0.739386 6.860313
v -0.133725 -0.746171 6.845500
v -0.134448 -0.746548 6.851842
v -0.131294 -0.751249 6.854692
v -0.131089 -0.750214 6.873642
v -0.132439 -0.744682 6.875594
v -0.132626 -0.730181 6.842791
v -0.130053 -0.728905 6.841209
v -0.130547 -0.734977 6.837181
v -0.128453 -0.732637 6.837755
v -0.129856 -0.743400 6.835774
v -0.132404 -0.743693 6.839009
v -0.128767 -0.738457 6.835288
v -0.129944 -0.726140 6.847589
v -0.130105 -0.747663 6.839630
v -0.131027 -0.726023 6.856342
v -0.126198 -0.752740 6.843104
v -0.127601 -0.754019 6.864612
v -0.125553 -0.730957 6.878442
v -0.129865 -0.743522 6.880910
v -0.128407 -0.747665 6.884517
v -0.125281 -0.750688 6.890056
v -0.127585 -0.753117 6.876099
v -0.120757 -0.730071 6.844382
v -0.124592 -0.736912 6.836360
v -0.123928 -0.743168 6.834753
v -0.124909 -0.745166 6.834638
v -0.124137 -0.722969 6.855148
v -0.119797 -0.722676 6.849497
v -0.121979 -0.724786 6.846922
v -0.126776 -0.747130 6.835996
v -0.123964 -0.751748 6.839792
v -0.125148 -0.724643 6.867020
v -0.123885 -0.754153 6.844299
v -0.121090 -0.755338 6.849478
v -0.128210 -0.740107 6.884901
v -0.127445 -0.737517 6.892179
v -0.120827 -0.754459 6.889060
v -0.120999 -0.755606 6.870720
v -0.126200 -0.733978 6.890039
v -0.127251 -0.732579 6.909883
v -0.125610 -0.730909 6.900489
v -0.126414 -0.747615 6.892440
v -0.126176 -0.747186 6.900912
v -0.127840 -0.735349 6.928884
v -0.127441 -0.737703 6.934493
v -0.124400 -0.750274 6.906964
v -0.123708 -0.735818 6.949563
v -0.125789 -0.741396 6.937425
v -0.118843 -0.739390 6.839266
v -0.118790 -0.728293 6.845682
v -0.113234 -0.720953 6.858399
v -0.118734 -0.753108 6.840749
v -0.117080 -0.722900 6.870300
v -0.120420 -0.725710 6.874762
v -0.123070 -0.730893 6.886968
v -0.118475 -0.729037 6.889248
v -0.123804 -0.729435 6.903322
v -0.118997 -0.728200 6.902784
v -0.119159 -0.754552 6.908057
v -0.122296 -0.750158 6.921197
v -0.125409 -0.734243 6.937079
v -0.122241 -0.733260 6.940041
v -0.122216 -0.734680 6.951631
v -0.122053 -0.747809 6.934104
v -0.123128 -0.738101 6.952520
v -0.120398 -0.742499 6.950860
v -0.116433 -0.722359 6.849153
v -0.113377 -0.727365 6.845778
v -0.116458 -0.733193 6.846628
v -0.114100 -0.737624 6.845373
v -0.116311 -0.748014 6.839379
v -0.116852 -0.750785 6.839316
v -0.111384 -0.753189 6.844594
v -0.113343 -0.726246 6.879174
v -0.108287 -0.753880 6.859200
v -0.114322 -0.755950 6.885114
v -0.118091 -0.755626 6.896845
v -0.116107 -0.731239 6.913661
v -0.114567 -0.728789 6.905481
v -0.120709 -0.732142 6.929035
v -0.118297 -0.733135 6.930272
v -0.115481 -0.755668 6.909008
v -0.120475 -0.750425 6.925016
v -0.119983 -0.734943 6.952126
v -0.116872 -0.734945 6.938099
v -0.119694 -0.748781 6.934826
v -0.117986 -0.745846 6.944055
v -0.121967 -0.736725 6.954216
v -0.120659 -0.735978 6.954310
v -0.118382 -0.741360 6.953202
v -0.120714 -0.738324 6.954772
v -0.119357 -0.738368 6.954471
v -0.110007 -0.721225 6.855312
v -0.111944 -0.725622 6.845847
v -0.114605 -0.732911 6.846758
v -0.110543 -0.745359 6.841786
v -0.107987 -0.748234 6.842012
v -0.110242 -0.721531 6.864138
v -0.108524 -0.753970 6.850678
v -0.107217 -0.754037 6.869760
v -0.108320 -0.728355 6.888280
v -0.109011 -0.755424 6.876789
v -0.101470 -0.730614 6.903681
v -0.112104 -0.732611 6.912367
v -0.114025 -0.733124 6.914303
v -0.101019 -0.756340 6.901201
v -0.113528 -0.739046 6.931641
v -0.115426 -0.752336 6.918887
v -0.111893 -0.752206 6.916068
v -0.112850 -0.748416 6.923687
v -0.114637 -0.739819 6.946370
v -0.116391 -0.739613 6.952054
v -0.116074 -0.741466 6.951174
v -0.107590 -0.723436 6.851603
v -0.106105 -0.725279 6.846151
v -0.105688 -0.729387 6.841161
v -0.106479 -0.736380 6.840491
v -0.108585 -0.741727 6.841972
v -0.106298 -0.722420 6.862691
v -0.106057 -0.728805 6.882438
v -0.109959 -0.732920 6.913011
v -0.110727 -0.738010 6.915068
v -0.110246 -0.738268 6.915517
v -0.107910 -0.756038 6.905277
v -0.111791 -0.739722 6.916547
v -0.111235 -0.739014 6.915289
v -0.110700 -0.738085 6.915041
v -0.111245 -0.739085 6.915277
v -0.110650 -0.739653 6.915182
v -0.110136 -0.743832 6.915277
v -0.110661 -0.743043 6.915180
v -0.111204 -0.750401 6.916157
v -0.110586 -0.748237 6.914557
v -0.110139 -0.747863 6.914190
v -0.110158 -0.750517 6.915323
v -0.110179 -0.754726 6.911384
v -0.110161 -0.752906 6.914718
v -0.110136 -0.750545 6.915453
v -0.111100 -0.750428 6.916215
v -0.103544 -0.728284 6.841686
v -0.100123 -0.735770 6.838856
v -0.100395 -0.725207 6.856679
v -0.100118 -0.744972 6.840735
v -0.102094 -0.751425 6.850062
v -0.098569 -0.731996 6.876748
v -0.102249 -0.752110 6.874127
v -0.107849 -0.733452 6.915040
v -0.106611 -0.734606 6.920031
v -0.109067 -0.738048 6.917295
v -0.109839 -0.738209 6.915157
v -0.110266 -0.744006 6.915340
v -0.109604 -0.745072 6.916636
v -0.107608 -0.739729 6.937804
v -0.109371 -0.747747 6.914756
v -0.110165 -0.747754 6.914231
v -0.108920 -0.750643 6.916479
v -0.110125 -0.750971 6.915334
v -0.102313 -0.756293 6.917153
v -0.104202 -0.735442 6.934620
v -0.108760 -0.752802 6.915343
v -0.105764 -0.739142 6.952492
v -0.105141 -0.746658 6.941003
v -0.098531 -0.728997 6.843776
v -0.100386 -0.726519 6.848189
v -0.099540 -0.749015 6.846496
v -0.098306 -0.749066 6.865144
v -0.101217 -0.732107 6.884343
v -0.100777 -0.751763 6.880577
v -0.097814 -0.753814 6.894928
v -0.101690 -0.731813 6.912225
v -0.101782 -0.755299 6.923394
v -0.100562 -0.734077 6.937588
v -0.103982 -0.734861 6.941043
v -0.103244 -0.732430 6.952691
v -0.106237 -0.737621 6.949417
v -0.103793 -0.741144 6.953835
v -0.102080 -0.747521 6.945368
v -0.103561 -0.733768 6.954945
v -0.102114 -0.736238 6.956544
v -0.097394 -0.736191 6.839076
v -0.095156 -0.735487 6.841044
v -0.095459 -0.730091 6.847803
v -0.098615 -0.739986 6.838920
v -0.097608 -0.742950 6.840677
v -0.094192 -0.738054 6.841590
v -0.095649 -0.729521 6.857151
v -0.096635 -0.746684 6.849351
v -0.099087 -0.734783 6.886050
v -0.096267 -0.745012 6.881584
v -0.095612 -0.742327 6.884061
v -0.098692 -0.732406 6.904667
v -0.094526 -0.752756 6.900818
v -0.099519 -0.734062 6.930561
v -0.095398 -0.737246 6.933450
v -0.098223 -0.756114 6.914182
v -0.099095 -0.754638 6.924470
v -0.097105 -0.734867 6.937344
v -0.095991 -0.749441 6.931912
v -0.100839 -0.732357 6.944498
v -0.098394 -0.731503 6.950439
v -0.098135 -0.745445 6.947000
v -0.100971 -0.731638 6.954872
v -0.098686 -0.731712 6.953025
v -0.102008 -0.733370 6.956218
v -0.099163 -0.733989 6.955731
v -0.100961 -0.741730 6.953662
v -0.099240 -0.738518 6.955064
v -0.093164 -0.734370 6.847973
v -0.093183 -0.733388 6.852404
v -0.092250 -0.739430 6.851088
v -0.095782 -0.736228 6.875297
v -0.094928 -0.743662 6.869462
v -0.093346 -0.740563 6.899207
v -0.094832 -0.749324 6.890100
v -0.092099 -0.746849 6.897099
v -0.095430 -0.737794 6.912507
v -0.093039 -0.751054 6.904292
v -0.095770 -0.754376 6.915548
v -0.094356 -0.746329 6.922083
v -0.095433 -0.744520 6.942306
v -0.096297 -0.735037 6.950011
v -0.097135 -0.738643 6.952018
vn -0.7964 0.4731 -0.3767
vn -0.9463 -0.0353 -0.3214
vn -0.9590 0.2515 -0.1303
vn -0.9965 -0.0831 0.0094
vn -0.8865 0.4230 0.1876
vn -0.7862 0.6160 -0.0495
vn -0.9822 0.0975 0.1604
vn -0.8560 -0.4673 -0.2209
vn -0.8981 -0.4381 -0.0389
vn -0.6705 -0.7392 -0.0633
vn -0.8313 -0.5356 0.1488
vn -0.5957 0.2866 -0.7504
vn -0.2292 0.7485 -0.6223
vn 0.0395 0.6006 -0.7986
vn -0.5772 -0.1826 -0.7959
vn -0.8351 -0.2397 -0.4952
vn -0.2656 0.2040 -0.9422
vn -0.4601 0.8583 -0.2272
vn -0.6393 -0.6212 -0.4533
vn -0.6429 0.7568 0.1178
vn -0.4872 -0.8120 -0.3215
vn -0.9547 -0.0110 0.2974
vn -0.4668 -0.8842 0.0154
vn -0.7817 0.5693 0.2546
vn -0.9199 0.1511 0.3618
vn -0.9262 -0.2209 0.3057
vn -0.5442 -0.8317 0.1105
vn -0.7826 -0.6019 0.1590
vn 0.4579 0.4436 -0.7704
vn 0.3660 0.4136 -0.8336
vn 0.3188 0.0802 -0.9444
vn 0.0417 -0.2891 -0.9564
vn -0.3081 0.9513 -0.0096
vn -0.1638 0.9242 -0.3450
vn 0.1405 0.5841 -0.7994
vn -0.2993 -0.5890 -0.7507
vn -0.2104 -0.7560 -0.6199
vn -0.4928 0.8304 0.2600
vn -0.2359 -0.9371 -0.2573
vn -0.0865 -0.9907 -0.1048
vn -0.9757 0.1649 0.1444
vn -0.9947 0.1013 0.0197
vn -0.1064 -0.9942 -0.0181
vn -0.4372 -0.8960 0.0776
vn -0.8066 0.5909 -0.0144
vn -0.8552 0.5177 0.0243
vn -0.7280 0.6779 -0.1023
vn -0.9551 -0.2678 0.1264
vn -0.9561 -0.2877 0.0555
vn -0.9393 0.3335 0.0802
vn -0.9862 -0.0335 0.1624
vn -0.7847 -0.6154 0.0740
vn -0.6317 0.7550 0.1756
vn -0.9142 0.3196 0.2493
vn 0.6322 0.3349 -0.6987
vn 0.1726 0.2049 -0.9634
vn -0.0568 0.9983 0.0160
vn 0.0948 -0.8320 -0.5466
vn -0.1182 0.9532 0.2781
vn -0.3149 0.8945 0.3173
vn -0.5672 0.7848 0.2499
vn -0.2577 0.9642 0.0625
vn -0.4541 0.8910 0.0050
vn -0.4745 -0.8751 0.0956
vn -0.6838 -0.7152 0.1447
vn -0.0873 0.9902 0.1090
vn -0.4399 0.8229 0.3597
vn -0.6340 -0.7424 0.2166
vn -0.8845 -0.4247 0.1934
vn -0.8672 -0.1989 0.4566
vn -0.4384 -0.7857 0.4365
vn 0.0327 0.9080 -0.4178
vn -0.2322 0.0933 -0.9682
vn 0.1701 0.3911 -0.9045
vn 0.4601 0.1193 -0.8798
vn 0.3360 -0.3934 -0.8558
vn 0.2617 -0.8393 -0.4765
vn 0.0253 0.9503 0.3102
vn 0.2691 -0.9629 -0.0206
vn -0.0569 -0.9982 -0.0174
vn 0.4734 0.8424 0.2575
vn 0.1286 0.9559 0.2640
vn -0.1169 0.9897 0.0820
vn -0.2656 -0.9637 0.0275
vn 0.0397 0.9875 0.1524
vn 0.5414 0.8275 0.1488
vn -0.3149 -0.9349 0.1634
vn -0.1213 -0.9819 0.1455
vn 0.4221 0.8462 0.3251
vn 0.6812 0.7256 0.0970
vn -0.1286 -0.9596 0.2502
vn 0.2176 -0.9241 0.3142
vn 0.1474 0.5978 0.7880
vn -0.6308 0.2406 0.7377
vn 0.1923 -0.5817 0.7904
vn -0.2181 -0.2651 0.9392
vn 0.4869 0.0527 0.8719
vn -0.0503 0.6918 -0.7203
vn 0.4018 0.2411 -0.8834
vn -0.2341 0.0190 -0.9720
vn 0.2281 0.9514 -0.2070
vn 0.0671 -0.3075 -0.9492
vn 0.1160 0.2425 -0.9632
vn 0.1298 0.9721 0.1954
vn 0.2577 -0.9596 -0.1131
vn 0.2686 -0.9590 -0.0903
vn 0.1142 0.9894 0.0892
vn 0.2401 -0.9669 -0.0865
vn 0.2171 0.7234 0.6555
vn 0.2351 -0.9686 -0.0804
vn 0.6439 0.6009 0.4735
vn 0.9448 0.3082 0.1111
vn 0.2191 -0.8954 0.3876
vn 0.6950 -0.2392 0.6780
vn 0.8644 -0.4365 0.2496
vn 0.9542 0.2170 0.2059
vn 0.8101 0.1873 0.5555
vn 0.7546 -0.4384 0.4883
vn 0.2203 0.9209 -0.3215
vn 0.1213 0.9046 -0.4086
vn -0.2316 0.3398 -0.9115
vn -0.3953 0.0178 -0.9184
vn -0.4339 0.0676 -0.8984
vn 0.4110 0.8990 0.1510
vn 0.3188 0.9417 0.1076
vn -0.1781 0.7996 0.5735
vn -0.2128 0.1651 0.9630
vn -0.5772 0.1355 0.8053
vn -0.0702 -0.9953 0.0672
vn 0.9238 0.1880 0.3334
vn 0.7009 0.0448 0.7119
vn 0.5812 -0.0407 0.8128
vn 0.2973 0.0318 0.9543
vn -0.2161 0.0145 0.9763
vn -0.4082 -0.1778 0.8954
vn 0.2806 -0.1083 0.9537
vn 0.8547 -0.1282 0.5030
vn 0.7254 0.1601 0.6694
vn 0.5272 0.0763 0.8463
vn 0.6152 0.3495 0.7067
vn -0.1248 -0.9421 0.3112
vn 0.0028 -0.6415 0.7671
vn 0.4874 -0.2462 0.8378
vn 0.6555 0.3479 0.6703
vn 0.1380 0.6893 -0.7113
vn -0.0414 0.1458 -0.9885
vn 0.5536 0.8323 0.0288
vn 0.2180 -0.1905 -0.9572
vn 0.4163 0.9006 0.1249
vn 0.4759 -0.8714 -0.1191
vn 0.7102 0.6637 0.2349
vn 0.5823 -0.8122 -0.0354
vn -0.9144 0.3090 0.2614
vn -0.9529 0.1000 0.2864
vn -0.4583 0.7633 0.4553
vn -0.8691 -0.0803 0.4881
vn -0.6982 0.6712 0.2489
vn -0.9768 -0.1081 0.1851
vn -0.9602 0.2599 0.1028
vn -0.8361 -0.0675 0.5443
vn -0.5115 -0.0135 0.8592
vn -0.9216 -0.1342 0.3643
vn -0.5733 -0.0841 0.8150
vn -0.1738 -0.9705 0.1669
vn -0.5533 -0.4000 0.7307
vn -0.5229 0.8511 0.0474
vn -0.8866 -0.1787 0.4267
vn 0.5169 0.6972 -0.4967
vn 0.4286 0.8779 -0.2137
vn 0.2554 -0.5513 -0.7943
vn 0.5745 -0.7451 -0.3387
vn 0.6858 -0.7278 -0.0005
vn 0.6457 0.7578 0.0937
vn 0.6714 -0.7089 -0.2158
vn 0.5166 -0.8322 -0.2013
vn -0.1533 0.9768 0.1495
vn 0.1752 0.9827 0.0595
vn -0.1900 -0.9591 0.2098
vn -0.6028 0.7897 -0.1142
vn -0.7584 -0.6155 0.2144
vn -0.6186 0.7818 0.0781
vn -0.9661 0.2313 0.1145
vn -0.4706 -0.5398 0.6980
vn -0.2144 -0.8763 0.4314
vn -0.7691 0.3968 0.5011
vn -0.1938 -0.1176 0.9740
vn -0.2394 0.4227 0.8741
vn 0.3869 0.1891 -0.9025
vn 0.7253 0.3647 -0.5838
vn 0.7508 0.6323 -0.1907
vn 0.6085 -0.4925 -0.6222
vn 0.7831 -0.6083 -0.1293
vn 0.7904 0.6021 0.1130
vn 0.8403 0.5416 0.0232
vn 0.9258 -0.3667 -0.0916
vn 0.7143 0.6998 -0.0016
vn 0.9052 0.4249 -0.0036
vn 0.3564 -0.9340 0.0235
vn -0.0616 0.9904 -0.1238
vn 0.4002 -0.8822 0.2481
vn 0.5652 0.8230 -0.0556
vn -0.1669 0.9654 -0.2003
vn 0.4198 0.9076 0.0020
vn 0.5677 -0.6820 0.4610
vn 0.8378 -0.5223 0.1591
vn -0.0614 0.8734 0.4832
vn 0.6012 0.7384 0.3055
vn 0.5817 0.2186 0.7835
vn 0.2061 -0.6518 0.7298
vn 0.5082 -0.3530 0.7856
vn 0.9386 0.2964 -0.1767
vn 0.8674 -0.0894 -0.4895
vn 0.9370 0.3439 0.0614
vn 0.9813 -0.1908 -0.0275
vn 0.9469 0.2856 0.1477
vn 0.9647 -0.2551 0.0654
vn 0.9920 0.1192 -0.0418
vn 0.9252 0.3782 -0.0326
vn 0.8481 -0.4626 -0.2583
vn 0.9902 -0.0929 -0.1046
vn 0.6952 -0.7097 -0.1144
vn 0.9354 0.3526 0.0271
vn 0.9242 -0.3818 -0.0006
vn 0.7453 -0.6572 0.1121
vn 0.9965 -0.0168 0.0814
vn 0.9295 -0.3055 0.2066
vn 0.9493 0.2436 0.1989
vn 0.8682 -0.2236 0.4429
s 1
f 12//1 3//2 1//3
f 3//2 4//4 1//3
f 5//5 2//6 1//3
f 5//5 1//3 6//7
f 7//8 8//9 4//4
f 3//2 7//8 4//4
f 1//3 4//4 6//7
f 9//10 10//11 8//9
f 14//12 12//1 13//13
f 15//14 14//12 13//13
f 14//12 16//15 17//16
f 18//17 16//15 14//12
f 13//13 12//1 19//18
f 14//12 3//2 12//1
f 14//12 17//16 3//2
f 17//16 16//15 20//19
f 19//18 12//1 2//6
f 1//3 2//6 12//1
f 3//2 17//16 7//8
f 17//16 20//19 7//8
f 21//20 2//6 5//5
f 7//8 20//19 22//21
f 22//21 9//10 7//8
f 7//8 9//10 8//9
f 6//7 11//22 5//5
f 9//10 23//23 10//11
f 5//5 11//22 24//24
f 24//24 11//22 25//25
f 8//9 10//11 4//4
f 6//7 4//4 11//22
f 10//11 11//22 4//4
f 26//26 25//25 11//22
f 11//22 10//11 26//26
f 10//11 28//27 27//28
f 10//11 27//28 26//26
f 15//14 13//13 29//29
f 29//29 30//30 15//14
f 18//17 14//12 15//14
f 15//14 30//30 18//17
f 30//30 31//31 18//17
f 32//32 16//15 18//17
f 31//31 32//32 18//17
f 19//18 33//33 34//34
f 13//13 34//34 35//35
f 34//34 13//13 19//18
f 20//19 16//15 36//36
f 32//32 36//36 16//15
f 20//19 36//36 22//21
f 36//36 37//37 22//21
f 19//18 2//6 21//20
f 33//33 19//18 21//20
f 38//38 33//33 21//20
f 22//21 39//39 9//10
f 24//24 21//20 5//5
f 21//20 24//24 38//38
f 39//39 23//23 9//10
f 40//40 23//23 39//39
f 24//24 25//25 41//41
f 10//11 23//23 28//27
f 42//42 24//24 41//41
f 44//43 28//27 23//23
f 43//44 28//27 44//43
f 25//25 26//26 41//41
f 43//44 27//28 28//27
f 45//45 42//42 46//46
f 47//47 45//45 46//46
f 41//41 48//48 42//42
f 48//48 41//41 26//26
f 26//26 27//28 48//48
f 48//48 49//49 42//42
f 46//46 42//42 50//50
f 49//49 50//50 42//42
f 50//50 49//49 51//51
f 51//51 49//49 52//52
f 51//51 67//53 50//50
f 67//53 51//51 53//54
f 31//31 30//30 55//55
f 13//13 35//35 29//29
f 56//56 29//29 35//35
f 34//34 33//33 57//57
f 36//36 32//32 37//37
f 58//58 37//37 32//32
f 22//21 37//37 39//39
f 58//58 39//39 37//37
f 33//33 38//38 59//59
f 40//40 39//39 58//58
f 38//38 24//24 60//60
f 23//23 40//40 44//43
f 24//24 61//61 60//60
f 45//45 61//61 24//24
f 45//45 24//24 42//42
f 62//62 47//47 63//63
f 61//61 45//45 62//62
f 62//62 45//45 47//47
f 63//63 47//47 46//46
f 52//52 49//49 48//48
f 48//48 27//28 52//52
f 27//28 65//64 52//52
f 52//52 65//64 66//65
f 63//63 46//46 67//53
f 67//53 46//46 50//50
f 52//52 66//65 51//51
f 68//66 67//53 69//67
f 66//65 70//68 54//69
f 51//51 66//65 54//69
f 51//51 54//69 53//54
f 71//70 54//69 72//71
f 70//68 72//71 54//69
f 53//54 54//69 71//70
f 67//53 53//54 69//67
f 73//72 35//35 34//34
f 35//35 74//73 56//56
f 30//30 29//29 55//55
f 29//29 76//74 55//55
f 55//55 77//75 31//31
f 31//31 77//75 78//76
f 78//76 58//58 32//32
f 32//32 31//31 78//76
f 79//77 40//40 58//58
f 80//78 59//59 60//60
f 81//79 44//43 40//40
f 60//60 59//59 38//38
f 62//62 60//60 61//61
f 44//43 82//80 43//44
f 65//64 27//28 43//44
f 84//81 85//82 64//83
f 83//84 65//64 43//44
f 64//83 63//63 67//53
f 64//83 67//53 86//85
f 64//83 86//85 87//86
f 67//53 68//66 86//85
f 68//66 87//86 86//85
f 89//87 66//65 88//88
f 89//87 70//68 66//65
f 87//86 68//66 90//89
f 91//90 87//86 90//89
f 70//68 89//87 92//91
f 90//89 68//66 69//67
f 72//71 70//68 92//91
f 72//71 92//91 93//92
f 95//93 69//67 94//94
f 90//89 69//67 95//93
f 53//54 94//94 69//67
f 71//70 94//94 53//54
f 72//71 93//92 96//95
f 71//70 97//96 94//94
f 95//93 94//94 97//96
f 71//70 72//71 97//96
f 97//96 98//97 95//93
f 96//95 97//96 72//71
f 98//97 97//96 96//95
f 73//72 100//98 35//35
f 74//73 35//35 100//98
f 56//56 75//99 29//29
f 56//56 74//73 75//99
f 101//100 75//99 74//73
f 77//75 55//55 76//74
f 99//101 73//72 57//57
f 73//72 34//34 57//57
f 75//99 76//74 29//29
f 76//74 75//99 101//100
f 78//76 103//102 79//77
f 102//103 103//102 77//75
f 103//102 78//76 77//75
f 57//57 33//33 59//59
f 79//77 58//58 78//76
f 57//57 59//59 104//104
f 79//77 105//105 40//40
f 44//43 81//79 106//106
f 80//78 60//60 107//107
f 107//107 60//60 62//62
f 108//108 82//80 44//43
f 63//63 64//83 62//62
f 107//107 62//62 64//83
f 64//83 85//82 107//107
f 82//80 83//84 43//44
f 110//109 85//82 84//81
f 83//84 82//80 88//88
f 112//110 88//88 82//80
f 84//81 87//86 111//111
f 83//84 88//88 65//64
f 87//86 84//81 64//83
f 111//111 87//86 113//112
f 65//64 88//88 66//65
f 114//113 89//87 88//88
f 115//114 116//115 114//113
f 116//115 93//92 114//113
f 87//86 91//90 113//112
f 89//87 114//113 92//91
f 91//90 117//116 113//112
f 114//113 93//92 92//91
f 90//89 117//116 91//90
f 117//116 90//89 118//117
f 119//118 93//92 116//115
f 119//118 116//115 117//116
f 90//89 95//93 118//117
f 118//117 119//118 117//116
f 96//95 93//92 119//118
f 95//93 98//97 118//117
f 118//117 98//97 96//95
f 118//117 96//95 119//118
f 100//98 73//72 99//101
f 100//98 120//119 121//120
f 122//121 74//73 100//98
f 123//122 101//100 74//73
f 123//122 124//123 101//100
f 74//73 122//121 123//122
f 120//119 100//98 99//101
f 76//74 101//100 124//123
f 76//74 102//103 77//75
f 124//123 102//103 76//74
f 99//101 57//57 104//104
f 105//105 81//79 40//40
f 104//104 59//59 80//78
f 104//104 80//78 126//124
f 126//124 80//78 107//107
f 44//43 106//106 108//108
f 107//107 85//82 109//125
f 108//108 112//110 82//80
f 109//125 85//82 127//126
f 127//126 85//82 110//109
f 110//109 84//81 111//111
f 111//111 128//127 110//109
f 128//127 129//128 110//109
f 129//128 127//126 110//109
f 88//88 112//110 130//129
f 111//111 113//112 131//130
f 111//111 132//131 128//127
f 131//130 132//131 111//111
f 132//131 133//132 128//127
f 133//132 132//131 134//133
f 134//133 135//134 133//132
f 128//127 135//134 129//128
f 129//128 135//134 136//135
f 135//134 134//133 137//136
f 137//136 132//131 131//130
f 135//134 137//136 136//135
f 131//130 138//137 139//138
f 131//130 139//138 137//136
f 136//135 137//136 140//139
f 139//138 140//139 137//136
f 139//138 141//140 140//139
f 130//129 142//141 88//88
f 131//130 113//112 138//137
f 114//113 143//142 115//114
f 138//137 115//114 144//143
f 139//138 145//144 141//140
f 144//143 115//114 143//142
f 88//88 142//141 114//113
f 142//141 143//142 114//113
f 138//137 113//112 116//115
f 138//137 116//115 115//114
f 113//112 117//116 116//115
f 100//98 146//145 122//121
f 100//98 121//120 146//145
f 122//121 147//146 123//122
f 99//101 148//147 120//119
f 103//102 102//103 124//123
f 123//122 103//102 124//123
f 103//102 123//122 189//148
f 99//101 125//149 148//147
f 125//149 99//101 104//104
f 79//77 150//150 105//105
f 150//150 81//79 105//105
f 126//124 125//149 104//104
f 151//151 125//149 126//124
f 152//152 106//106 81//79
f 155//153 127//126 156//154
f 155//153 153//155 127//126
f 157//156 155//153 156//154
f 155//153 154//157 153//155
f 155//153 157//156 158//158
f 158//158 159//159 155//153
f 157//156 160//160 158//158
f 161//161 160//160 157//156
f 160//160 162//162 158//158
f 160//160 161//161 163//163
f 160//160 163//163 162//162
f 142//141 164//164 143//142
f 142//141 130//129 164//164
f 159//159 154//157 155//153
f 163//163 143//142 166//165
f 166//165 162//162 163//163
f 143//142 164//164 166//165
f 159//159 165//166 154//157
f 159//159 158//158 167//167
f 158//158 162//162 167//167
f 169//168 146//145 121//120
f 146//145 147//146 122//121
f 170//169 121//120 120//119
f 170//169 169//168 121//120
f 189//148 123//122 147//146
f 120//119 148//147 170//169
f 189//148 149//170 103//102
f 103//102 149//170 79//77
f 149//170 171//171 79//77
f 151//151 148//147 125//149
f 150//150 79//77 171//171
f 150//150 172//172 81//79
f 172//172 152//152 81//79
f 151//151 126//124 173//173
f 108//108 106//106 152//152
f 152//152 174//174 108//108
f 107//107 109//125 126//124
f 112//110 108//108 174//174
f 175//175 112//110 174//174
f 127//126 176//176 109//125
f 176//176 127//126 153//155
f 199//177 153//155 154//157
f 176//176 153//155 199//177
f 164//164 130//129 112//110
f 165//166 199//177 154//157
f 177//178 166//165 164//164
f 179//179 165//166 159//159
f 162//162 166//165 168//180
f 180//181 179//179 159//159
f 168//180 167//167 162//162
f 180//181 159//159 181//182
f 167//167 181//182 159//159
f 168//180 182//183 167//167
f 168//180 166//165 183//184
f 183//184 166//165 177//178
f 184//185 180//181 181//182
f 184//185 181//182 167//167
f 182//183 168//180 183//184
f 184//185 167//167 185//186
f 185//186 210//187 184//185
f 185//186 167//167 182//183
f 186//188 147//146 146//145
f 146//145 187//189 186//188
f 169//168 170//169 188//190
f 169//168 187//189 146//145
f 189//148 147//146 186//188
f 190//191 149//170 189//148
f 148//147 188//190 170//169
f 149//170 190//191 171//171
f 171//171 190//191 193//192
f 148//147 151//151 192//193
f 193//192 172//172 150//150
f 173//173 194//194 151//151
f 195//195 152//152 172//172
f 174//174 152//152 195//195
f 109//125 173//173 126//124
f 173//173 197//196 194//194
f 173//173 109//125 197//196
f 199//177 109//125 176//176
f 199//177 197//196 109//125
f 199//177 200//197 197//196
f 112//110 201//198 164//164
f 199//177 165//166 178//199
f 177//178 201//198 202//200
f 201//198 177//178 164//164
f 178//199 203//201 199//177
f 178//199 165//166 179//179
f 202//200 183//184 177//178
f 178//199 179//179 205//202
f 178//199 205//202 206//203
f 206//203 203//201 178//199
f 183//184 202//200 207//204
f 204//205 207//204 202//200
f 179//179 180//181 205//202
f 206//203 205//202 180//181
f 206//203 180//181 208//206
f 208//206 209//207 206//203
f 184//185 210//187 208//206
f 211//208 208//206 210//187
f 180//181 184//185 208//206
f 208//206 211//208 209//207
f 183//184 207//204 212//209
f 210//187 185//186 211//208
f 185//186 213//210 211//208
f 185//186 182//183 212//209
f 213//210 185//186 212//209
f 183//184 212//209 182//183
f 213//210 212//209 207//204
f 169//168 188//190 187//189
f 187//189 188//190 214//211
f 187//189 191//212 186//188
f 214//211 191//212 187//189
f 191//212 190//191 189//148
f 186//188 191//212 189//148
f 214//211 188//190 215//213
f 191//212 214//211 216//214
f 188//190 192//193 215//213
f 188//190 148//147 192//193
f 216//214 214//211 215//213
f 193//192 190//191 191//212
f 191//212 216//214 193//192
f 215//213 192//193 217//215
f 171//171 193//192 150//150
f 192//193 151//151 217//215
f 216//214 215//213 218//216
f 215//213 217//215 218//216
f 216//214 218//216 193//192
f 217//215 196//217 218//216
f 218//216 172//172 193//192
f 217//215 151//151 194//194
f 194//194 196//217 217//215
f 195//195 172//172 218//216
f 218//216 196//217 195//195
f 194//194 219//218 196//217
f 220//219 195//195 196//217
f 174//174 195//195 220//219
f 219//218 194//194 197//196
f 196//217 221//220 220//219
f 174//174 220//219 175//175
f 198//221 175//175 220//219
f 219//218 197//196 222//222
f 221//220 198//221 220//219
f 175//175 198//221 112//110
f 197//196 200//197 222//222
f 198//221 201//198 112//110
f 223//223 224//224 198//221
f 222//222 200//197 225//225
f 219//218 222//222 225//225
f 224//224 201//198 198//221
f 204//205 224//224 223//223
f 201//198 224//224 202//200
f 203//201 200//197 199//177
f 226//226 225//225 200//197
f 224//224 204//205 202//200
f 226//226 204//205 225//225
f 203//201 206//203 227//227
f 227//227 206//203 209//207
f 200//197 203//201 227//227
f 226//226 200//197 227//227
f 204//205 226//226 207//204
f 227//227 211//208 228//228
f 211//208 227//227 209//207
f 228//228 211//208 213//210
f 213//210 207//204 228//228
f 207//204 226//226 228//228
f 228//228 226//226 227//227
f 219//218 221//220 196//217
f 221//220 225//225 223//223
f 221//220 219//218 225//225
f 223//223 198//221 221//220
f 223//223 225//225 204//205
