# Blender v2.78 (sub 0) OBJ File: 'exporter.blend'
# www.blender.org
o FJ1360.obj_grp1.102
v -0.078996 -0.759998 7.084424
v -0.079443 -0.762465 7.119112
v -0.077170 -0.768314 7.122513
v -0.078850 -0.758898 7.125646
v -0.077245 -0.761842 7.127565
v -0.077598 -0.756727 7.060734
v -0.075199 -0.765469 7.088917
v -0.079691 -0.754312 7.087350
v -0.079097 -0.755013 7.060502
v -0.077479 -0.754776 7.059175
v -0.079816 -0.753188 7.061179
v -0.078842 -0.753100 7.116652
v -0.077688 -0.751423 7.058683
v -0.079864 -0.752485 7.077622
v -0.078027 -0.751470 7.097826
v -0.075868 -0.751090 7.119833
v -0.077313 -0.753125 7.123468
v -0.077392 -0.749248 7.060481
v -0.079207 -0.749960 7.064775
v -0.075642 -0.747888 7.065214
v -0.078144 -0.749060 7.072261
v -0.076020 -0.750266 7.092974
v -0.073734 -0.771120 7.118902
v -0.074991 -0.769107 7.125382
v -0.070937 -0.770428 7.125263
v -0.073256 -0.761415 7.074664
v -0.071538 -0.768342 7.095554
v -0.073338 -0.764590 7.128968
v -0.075238 -0.757757 7.060608
v -0.072727 -0.757019 7.060241
v -0.074653 -0.756293 7.128676
v -0.074588 -0.751307 7.058241
v -0.075358 -0.753405 7.126328
v -0.071550 -0.751561 7.124283
v -0.070025 -0.754061 7.128148
v -0.074297 -0.750076 7.058527
v -0.072940 -0.748813 7.061422
v -0.071157 -0.752310 7.059489
v -0.072158 -0.748752 7.067342
v -0.070635 -0.751484 7.089755
v -0.070395 -0.771890 7.118308
v -0.067877 -0.771180 7.119762
v -0.068633 -0.768390 7.097084
v -0.070716 -0.767573 7.127928
v -0.067814 -0.768797 7.125966
v -0.069832 -0.760744 7.129547
v -0.071153 -0.755853 7.060883
v -0.069734 -0.759563 7.074753
v -0.069666 -0.755205 7.064890
v -0.070008 -0.751034 7.063869
v -0.066817 -0.754712 7.125152
v -0.069142 -0.752354 7.123838
v -0.066498 -0.757778 7.087494
v -0.066403 -0.766279 7.097517
v -0.065034 -0.767667 7.120108
v -0.065822 -0.766617 7.125270
v -0.064501 -0.760769 7.120846
v -0.067164 -0.764953 7.127647
v -0.066221 -0.758639 7.127079
vn -0.7849 -0.5864 0.2003
vn -0.9841 -0.1611 0.0751
vn -0.9174 -0.3888 -0.0847
vn -0.8893 0.1014 0.4459
vn -0.6960 -0.1708 0.6975
vn -0.5294 -0.6996 -0.4798
vn -0.7954 -0.3914 -0.4627
vn -0.5154 -0.8305 -0.2114
vn -0.9919 0.1214 0.0363
vn -0.3169 -0.3436 -0.8840
vn -0.9374 0.0558 -0.3437
vn -0.8758 0.4729 0.0969
vn -0.4987 0.2338 -0.8347
vn -0.9569 0.2852 0.0539
vn -0.7027 0.7105 0.0376
vn -0.2526 0.9584 0.1330
vn -0.7159 0.6134 0.3335
vn -0.4456 0.7993 -0.4032
vn -0.8170 0.5740 -0.0553
vn -0.1053 0.9927 -0.0583
vn -0.5876 0.8017 0.1095
vn -0.1575 0.9859 0.0566
vn -0.4275 -0.9037 0.0237
vn -0.5136 -0.6737 0.5314
vn 0.0191 -0.8828 0.4693
vn 0.1998 -0.9300 -0.3086
vn -0.1028 -0.9684 -0.2274
vn -0.2277 -0.2715 0.9351
vn -0.0884 -0.8200 -0.5656
vn 0.3775 -0.6513 -0.6583
vn -0.3614 0.3124 0.8785
vn -0.4324 0.6866 0.5844
vn 0.0855 0.0048 -0.9963
vn 0.1092 0.9617 0.2513
vn 0.2618 0.5621 0.7845
vn 0.1887 0.5785 -0.7936
vn 0.3944 0.8653 -0.3093
vn 0.7139 0.0782 -0.6958
vn 0.4356 0.8999 0.0202
vn 0.5755 0.8177 0.0113
vn 0.0355 -0.9992 -0.0156
vn 0.5005 -0.8606 0.0940
vn 0.4405 -0.8688 -0.2260
vn 0.0601 -0.4783 0.8761
vn 0.2163 -0.0080 0.9763
vn 0.7774 -0.4139 -0.4736
vn 0.5594 -0.7727 -0.3000
vn 0.9503 -0.2185 -0.2216
vn 0.8839 0.4375 -0.1652
vn 0.4783 0.8652 0.1505
vn 0.7794 0.5458 0.3078
vn 0.9829 0.1798 -0.0400
vn 0.8948 -0.4192 -0.1535
vn 0.9197 -0.3835 0.0842
vn 0.5196 -0.6575 0.5456
vn 0.8623 -0.3100 0.4003
vn 0.9888 0.1270 0.0788
vn 0.6091 -0.2143 0.7636
vn 0.8058 0.1738 0.5661
s 1
f 3//1 2//2 1//3
f 4//4 2//2 3//1
f 3//1 5//5 4//4
f 6//6 1//3 9//7
f 7//8 1//3 6//6
f 1//3 2//2 8//9
f 9//7 10//10 6//6
f 11//11 1//3 8//9
f 1//3 11//11 9//7
f 2//2 12//12 8//9
f 2//2 4//4 12//12
f 13//13 10//10 9//7
f 11//11 13//13 9//7
f 11//11 8//9 14//14
f 14//14 8//9 15//15
f 12//12 15//15 8//9
f 15//15 12//12 16//16
f 17//17 16//16 12//12
f 4//4 17//17 12//12
f 13//13 11//11 18//18
f 11//11 14//14 19//19
f 18//18 11//11 19//19
f 18//18 19//19 20//20
f 21//21 19//19 14//14
f 20//20 19//19 21//21
f 14//14 22//22 21//21
f 22//22 14//14 15//15
f 3//1 1//3 7//8
f 7//8 23//23 3//1
f 24//24 3//1 23//23
f 24//24 23//23 25//25
f 26//26 27//27 7//8
f 7//8 6//6 26//26
f 24//24 5//5 3//1
f 24//24 28//28 5//5
f 10//10 29//29 6//6
f 30//30 29//29 10//10
f 29//29 26//26 6//6
f 4//4 5//5 31//31
f 33//32 4//4 31//31
f 28//28 31//31 5//5
f 32//33 10//10 13//13
f 30//30 10//10 32//33
f 17//17 33//32 16//16
f 16//16 33//32 34//34
f 4//4 33//32 17//17
f 35//35 33//32 31//31
f 36//36 13//13 18//18
f 32//33 13//13 36//36
f 37//37 18//18 20//20
f 36//36 18//18 37//37
f 37//37 38//38 36//36
f 37//37 20//20 39//39
f 21//21 22//22 20//20
f 20//20 22//22 39//39
f 22//22 40//40 39//39
f 15//15 16//16 22//22
f 41//41 25//25 23//23
f 42//42 25//25 41//41
f 41//41 23//23 27//27
f 23//23 7//8 27//27
f 43//43 41//41 27//27
f 44//44 24//24 25//25
f 24//24 44//44 28//28
f 27//27 26//26 43//43
f 28//28 46//45 31//31
f 30//30 47//46 48//47
f 47//46 49//48 48//47
f 29//29 30//30 26//26
f 30//30 48//47 26//26
f 35//35 31//31 46//45
f 38//38 30//30 32//33
f 47//46 30//30 38//38
f 47//46 38//38 49//48
f 38//38 50//49 49//48
f 40//40 52//50 51//51
f 35//35 52//50 34//34
f 34//34 33//32 35//35
f 38//38 32//33 36//36
f 37//37 50//49 38//38
f 50//49 37//37 39//39
f 53//52 50//49 40//40
f 39//39 40//40 50//49
f 16//16 40//40 22//22
f 40//40 16//16 52//50
f 16//16 34//34 52//50
f 42//42 43//43 54//53
f 54//53 55//54 42//42
f 43//43 42//42 41//41
f 45//55 25//25 42//42
f 42//42 56//56 45//55
f 56//56 42//42 55//54
f 45//55 44//44 25//25
f 26//26 48//47 43//43
f 48//47 54//53 43//43
f 54//53 53//52 57//57
f 44//44 46//45 28//28
f 44//44 58//58 46//45
f 44//44 45//55 58//58
f 45//55 56//56 58//58
f 56//56 59//59 58//58
f 54//53 49//48 53//52
f 49//48 50//49 53//52
f 58//58 59//59 46//45
f 54//53 48//47 49//48
f 57//57 51//51 59//59
f 59//59 35//35 46//45
f 51//51 35//35 59//59
f 40//40 51//51 53//52
f 57//57 53//52 51//51
f 35//35 51//51 52//50
f 55//54 54//53 57//57
f 56//56 55//54 57//57
f 56//56 57//57 59//59
