# Blender v2.78 (sub 0) OBJ File: 'exporter.blend'
# www.blender.org
o FJ1384M.obj_grp1.126
v 0.539662 -0.697496 -0.211806
v 0.537950 -0.694365 -0.211776
v 0.540470 -0.699076 -0.212051
v 0.533297 -0.698154 -0.200554
v 0.537071 -0.690719 -0.208263
v 0.537239 -0.691355 -0.209450
v 0.535818 -0.691252 -0.209029
v 0.535576 -0.685492 -0.206997
v 0.536395 -0.689958 -0.208273
v 0.535394 -0.685686 -0.206958
v 0.535631 -0.685465 -0.207131
v 0.531682 -0.677827 -0.203724
v 0.533662 -0.680550 -0.203885
v 0.533219 -0.680479 -0.203737
v 0.527670 -0.686437 -0.193772
v 0.526960 -0.666960 -0.201045
v 0.530189 -0.677758 -0.203924
v 0.531680 -0.677810 -0.203720
v 0.526549 -0.667468 -0.200689
v 0.530633 -0.675669 -0.201373
v 0.516826 -0.658440 -0.187479
v 0.510685 -0.638989 -0.191685
v 0.523784 -0.673164 -0.189313
v 0.521240 -0.656773 -0.195495
v 0.519337 -0.665219 -0.187686
v 0.521240 -0.656773 -0.195495
v 0.515572 -0.656029 -0.186308
v 0.510490 -0.638835 -0.191532
v 0.513955 -0.665328 -0.207103
v 0.506915 -0.644453 -0.197174
v 0.507480 -0.648725 -0.198859
v 0.502802 -0.632562 -0.192403
v 0.504039 -0.646508 -0.196251
v 0.502399 -0.631925 -0.192919
v 0.501820 -0.638237 -0.185736
v 0.541104 -0.703813 -0.213684
v 0.550097 -0.731205 -0.229979
v 0.534586 -0.707043 -0.220159
v 0.549296 -0.729236 -0.228684
v 0.542970 -0.706089 -0.214221
v 0.528308 -0.707202 -0.221542
v 0.534586 -0.707043 -0.220159
v 0.529479 -0.696339 -0.216720
v 0.525192 -0.687031 -0.214241
v 0.533258 -0.697255 -0.200004
v 0.528253 -0.685876 -0.192959
v 0.533258 -0.697255 -0.200004
v 0.527421 -0.686508 -0.192053
v 0.525272 -0.694715 -0.201312
v 0.525324 -0.687439 -0.213647
v 0.522163 -0.691115 -0.200104
v 0.521470 -0.681537 -0.213058
v 0.523779 -0.673139 -0.189298
v 0.517795 -0.667114 -0.206224
v 0.519513 -0.690930 -0.202693
v 0.516763 -0.671191 -0.193843
v 0.517919 -0.669179 -0.189083
v 0.516747 -0.671200 -0.193821
v 0.519100 -0.665273 -0.188502
v 0.515325 -0.670319 -0.191987
v 0.503016 -0.640415 -0.184991
v 0.503517 -0.650572 -0.195843
v 0.506897 -0.644652 -0.196905
v 0.504485 -0.640347 -0.183770
v 0.503674 -0.640180 -0.184511
v 0.505675 -0.661625 -0.193643
v 0.502283 -0.639275 -0.183993
v 0.502384 -0.638354 -0.184865
v 0.500219 -0.640389 -0.184535
v 0.500381 -0.632014 -0.194449
v 0.496499 -0.632112 -0.188423
v 0.502671 -0.638072 -0.185717
v 0.496011 -0.632925 -0.185569
v 0.496011 -0.632925 -0.185569
v 0.500381 -0.632014 -0.194449
v 0.491741 -0.627603 -0.190035
v 0.494926 -0.629319 -0.191768
v 0.494926 -0.629319 -0.191768
v 0.491954 -0.627850 -0.186900
v 0.617401 -0.855180 -0.293088
v 0.618253 -0.856605 -0.292761
v 0.618492 -0.855348 -0.292385
v 0.618272 -0.856071 -0.292900
v 0.617930 -0.855858 -0.294336
v 0.617960 -0.855832 -0.294405
v 0.617876 -0.856265 -0.292775
v 0.618092 -0.856545 -0.292889
v 0.618217 -0.856337 -0.294897
v 0.617911 -0.855889 -0.294481
v 0.612156 -0.856656 -0.289120
v 0.617709 -0.856633 -0.292010
v 0.611824 -0.856614 -0.289508
v 0.609810 -0.859665 -0.288947
v 0.606819 -0.853246 -0.291651
v 0.553944 -0.748758 -0.240184
v 0.552409 -0.739307 -0.231526
v 0.552434 -0.737391 -0.230690
v 0.536891 -0.727709 -0.232418
v 0.545996 -0.738423 -0.219085
v 0.543938 -0.727765 -0.214852
v 0.530652 -0.744375 -0.224332
v 0.544449 -0.729076 -0.215151
v 0.539882 -0.719028 -0.207706
v 0.529398 -0.715720 -0.224377
v 0.527469 -0.708286 -0.221879
v 0.526587 -0.703048 -0.217912
v 0.529488 -0.696307 -0.216738
v 0.523466 -0.688604 -0.200981
v 0.530652 -0.744375 -0.224332
v 0.525256 -0.694715 -0.201303
v 0.526587 -0.703048 -0.217912
v 0.511094 -0.681336 -0.199057
v 0.514850 -0.671974 -0.207523
v 0.517808 -0.667083 -0.206267
v 0.521470 -0.681537 -0.213058
v 0.516747 -0.671200 -0.193821
v 0.512310 -0.678880 -0.197418
v 0.514850 -0.671974 -0.207523
v 0.503124 -0.655576 -0.194499
v 0.505579 -0.658735 -0.191953
v 0.503517 -0.650572 -0.195843
v 0.502142 -0.644248 -0.195684
v 0.504926 -0.659092 -0.191870
v 0.498902 -0.644915 -0.188916
v 0.491922 -0.627847 -0.186884
v 0.492720 -0.628939 -0.189044
v 0.495462 -0.629009 -0.191485
v 0.496499 -0.632112 -0.188423
v 0.491881 -0.628153 -0.189609
v 0.496499 -0.632112 -0.188423
v 0.493165 -0.628257 -0.188754
v 0.494926 -0.629319 -0.191768
v 0.493793 -0.628024 -0.190299
v 0.491954 -0.627850 -0.186900
v 0.493021 -0.628768 -0.188785
v 0.493029 -0.628701 -0.188840
v 0.492710 -0.627390 -0.188949
v 0.492720 -0.628939 -0.189044
v 0.492692 -0.627380 -0.189230
v 0.493339 -0.628662 -0.188648
v 0.611273 -0.859027 -0.290510
v 0.611273 -0.859027 -0.290510
v 0.609337 -0.854810 -0.293615
v 0.611273 -0.859027 -0.290510
v 0.607128 -0.857994 -0.286904
v 0.607809 -0.853918 -0.290551
v 0.616362 -0.855534 -0.294070
v 0.553782 -0.766037 -0.252726
v 0.551014 -0.764285 -0.254831
v 0.553599 -0.765998 -0.252687
v 0.548777 -0.759974 -0.237843
v 0.544933 -0.771056 -0.239771
v 0.547668 -0.740478 -0.218989
v 0.528499 -0.714062 -0.222021
v 0.527568 -0.713005 -0.223356
v 0.530652 -0.744375 -0.224332
v 0.523690 -0.694128 -0.203281
v 0.521907 -0.702204 -0.206021
v 0.522122 -0.691157 -0.200035
v 0.522009 -0.702034 -0.206786
v 0.523667 -0.694218 -0.203333
v 0.519103 -0.691067 -0.202433
v 0.525715 -0.732507 -0.219426
v 0.523398 -0.730700 -0.220505
v 0.607865 -0.858572 -0.290678
v 0.611273 -0.859027 -0.290510
v 0.608075 -0.858913 -0.288493
v 0.602784 -0.859293 -0.288913
v 0.608951 -0.855165 -0.291642
v 0.596235 -0.851437 -0.291135
v 0.557571 -0.781780 -0.256215
v 0.546176 -0.759255 -0.250234
v 0.542985 -0.751041 -0.244038
v 0.542985 -0.751041 -0.244038
v 0.529591 -0.754783 -0.233607
v 0.523850 -0.732127 -0.221223
v 0.528906 -0.713883 -0.223682
v 0.528065 -0.714909 -0.222554
v 0.529149 -0.713621 -0.221922
v 0.528064 -0.712982 -0.222267
v 0.525324 -0.687439 -0.213647
v 0.523850 -0.732127 -0.221223
v 0.516700 -0.702701 -0.206550
v 0.521161 -0.724714 -0.216808
v 0.592333 -0.859803 -0.285138
v 0.600111 -0.860219 -0.286905
v 0.600081 -0.859596 -0.286948
v 0.597480 -0.849812 -0.287903
v 0.577628 -0.843544 -0.275086
v 0.596217 -0.851426 -0.291063
v 0.597479 -0.849794 -0.287901
v 0.591647 -0.848053 -0.288613
v 0.591732 -0.847859 -0.288571
v 0.590600 -0.848109 -0.283933
v 0.563329 -0.798989 -0.263359
v 0.557774 -0.785821 -0.254875
v 0.552417 -0.768961 -0.254836
v 0.557801 -0.782002 -0.256291
v 0.557357 -0.785245 -0.255235
v 0.555955 -0.779296 -0.251749
v 0.556925 -0.805670 -0.256581
v 0.549158 -0.775618 -0.255484
v 0.516700 -0.702701 -0.206550
v 0.591635 -0.858561 -0.284696
v 0.578894 -0.846505 -0.284349
v 0.590108 -0.847995 -0.287750
v 0.591572 -0.847804 -0.288819
v 0.588304 -0.847531 -0.286842
v 0.575371 -0.828559 -0.277865
v 0.575223 -0.828662 -0.277975
v 0.555745 -0.789223 -0.263113
v 0.555745 -0.789223 -0.263113
v 0.550374 -0.792554 -0.264169
v 0.549187 -0.775636 -0.255458
v 0.543027 -0.751114 -0.244019
v 0.527023 -0.748119 -0.229547
v 0.584767 -0.854598 -0.284607
v 0.575587 -0.844572 -0.276239
v 0.575223 -0.828662 -0.277975
v 0.569148 -0.830545 -0.279493
v 0.569148 -0.830545 -0.279493
v 0.557564 -0.808948 -0.256440
v 0.554811 -0.802837 -0.267971
v 0.545453 -0.789816 -0.251139
v 0.542187 -0.787260 -0.252479
v 0.545135 -0.788223 -0.246943
v 0.557552 -0.813001 -0.260686
v 0.545135 -0.788223 -0.246943
vn 0.8766 0.2288 0.4233
vn 0.9531 0.2677 0.1411
vn 0.8832 0.1072 0.4565
vn 0.5771 0.5945 -0.5600
vn 0.5018 0.4703 -0.7259
vn 0.8425 0.0622 0.5350
vn 0.5153 0.4388 -0.7362
vn 0.8935 0.3171 0.3179
vn 0.7219 0.6126 -0.3219
vn 0.7193 0.3282 0.6123
vn 0.8575 0.2445 0.4527
vn 0.4538 0.4293 -0.7809
vn 0.7348 0.4309 0.5238
vn 0.8946 0.4467 -0.0087
vn 0.8947 0.4465 -0.0067
vn 0.8948 0.4465 -0.0067
vn 0.9394 0.2817 0.1955
vn 0.5711 0.4983 0.6523
vn 0.7315 0.3204 -0.6019
vn 0.8948 0.4464 -0.0047
vn 0.6829 0.3464 0.6432
vn 0.2994 0.4628 -0.8344
vn 0.8340 0.5415 -0.1054
vn -0.1799 0.2610 -0.9484
vn -0.1754 0.6534 -0.7364
vn -0.5427 0.2044 -0.8147
vn 0.5577 0.5583 -0.6142
vn -0.1584 0.0337 -0.9868
vn 0.4169 0.6830 0.5997
vn 0.4606 0.7022 0.5429
vn 0.2613 0.4997 -0.8258
vn 0.5624 0.4048 -0.7210
vn 0.3239 0.4766 -0.8173
vn 0.5708 0.3144 -0.7585
vn 0.0575 0.4123 -0.9092
vn 0.2071 0.4010 -0.8923
vn 0.8181 -0.0335 0.5742
vn 0.3199 0.3459 -0.8820
vn 0.5271 0.3925 -0.7537
vn 0.4421 0.4380 -0.7828
vn -0.3092 -0.5872 0.7481
vn -0.5885 -0.4605 0.6645
vn -0.3892 -0.5719 0.7221
vn -0.6084 -0.3846 0.6942
vn 0.3762 0.4064 -0.8326
vn 0.3539 0.3259 -0.8767
vn -0.5951 -0.3945 0.7002
vn -0.5937 -0.4356 0.6766
vn 0.3614 0.3849 -0.8493
vn -0.6623 -0.3704 0.6513
vn -0.6070 -0.3789 0.6985
vn -0.5218 -0.3558 0.7753
vn -0.3684 -0.3222 0.8720
vn -0.4108 -0.3902 0.8240
vn 0.5555 0.5773 0.5985
vn -0.4446 -0.5650 0.6951
vn -0.2036 -0.3987 0.8942
vn -0.4410 -0.7106 0.5483
vn -0.3862 -0.3890 0.8364
vn 0.2154 -0.2502 0.9439
vn 0.1134 -0.0192 0.9934
vn 0.5888 0.6275 -0.5094
vn 0.5856 0.7017 0.4058
vn 0.1500 0.2964 0.9432
vn -0.4827 -0.2622 0.8356
vn -0.5495 -0.1252 0.8260
vn 0.6823 0.6640 0.3059
vn -0.8578 -0.3809 0.3451
vn -0.4568 -0.0046 -0.8896
vn -0.4655 0.0238 -0.8847
vn 0.3617 0.9142 -0.1830
vn 0.3530 0.7931 0.4963
vn 0.7051 0.6526 0.2774
vn 0.4560 0.4483 0.7688
vn 0.4553 0.4489 0.7689
vn 0.4610 0.5281 0.7131
vn 0.3892 -0.0883 0.9169
vn 0.4352 -0.0596 0.8984
vn 0.4584 -0.3104 0.8328
vn 0.1717 0.9848 -0.0271
vn 0.1366 0.9607 -0.2418
vn 0.3541 0.7685 0.5330
vn 0.8645 0.5023 -0.0185
vn 0.8715 0.3453 -0.3484
vn 0.8861 0.3960 -0.2409
vn 0.8393 -0.1872 0.5103
vn 0.9127 0.1213 0.3901
vn 0.8449 -0.1890 0.5004
vn -0.0094 0.4494 -0.8933
vn 0.9357 0.2012 0.2899
vn -0.5206 0.2655 -0.8115
vn -0.0755 -0.3833 0.9205
vn -0.0882 -0.4676 0.8795
vn -0.9869 -0.0528 -0.1527
vn -0.7782 0.1868 -0.5996
vn -0.6421 0.3911 -0.6593
vn -0.8744 -0.2927 0.3870
vn -0.8774 -0.2770 0.3918
vn -0.8950 -0.2727 0.3531
vn -0.7510 -0.1756 -0.6365
vn -0.2253 0.3672 -0.9024
vn -0.6517 0.0968 -0.7523
vn 0.0367 -0.3055 0.9515
vn 0.3245 -0.0633 0.9438
vn -0.0867 -0.4186 0.9040
vn 0.8662 -0.4997 -0.0012
vn 0.8457 -0.5336 -0.0058
vn 0.8588 -0.5116 -0.0267
vn 0.2634 0.0966 -0.9598
vn -0.9239 -0.3091 -0.2256
vn -0.9183 -0.2839 0.2758
vn -0.6558 0.0126 -0.7548
vn -0.6032 0.2580 -0.7547
vn -0.2995 -0.0570 -0.9524
vn -0.0603 0.2441 -0.9679
vn -0.6630 -0.4120 0.6250
vn -0.8761 -0.3819 0.2944
vn -0.9240 -0.3591 -0.1315
vn -0.9417 -0.3023 0.1476
vn 0.4422 0.6953 0.5667
vn 0.4644 0.7262 0.5070
vn 0.4573 0.6921 0.5584
vn 0.7056 0.6625 0.2513
vn 0.3718 -0.9259 -0.0666
vn 0.3396 -0.9393 -0.0489
vn 0.3166 -0.9453 -0.0783
vn -0.0969 -0.6185 -0.7798
vn -0.0197 0.2851 -0.9583
vn -0.1774 -0.6373 -0.7499
vn 0.2081 0.9585 -0.1948
vn 0.0842 0.9672 -0.2396
vn 0.7309 0.3012 -0.6124
vn 0.7302 0.4111 -0.5457
vn 0.8121 -0.3009 0.4999
vn 0.8193 -0.2971 0.4904
vn 0.1713 -0.3934 0.9033
vn -0.1625 -0.4395 0.8834
vn -0.5395 0.2417 -0.8065
vn -0.9345 -0.0011 -0.3559
vn -0.1632 0.4606 -0.8725
vn -0.2114 -0.4803 0.8513
vn 0.2038 -0.3551 0.9124
vn 0.0283 -0.3738 0.9271
vn -0.0969 0.2144 -0.9719
vn 0.6003 -0.4262 0.6767
vn -0.6683 -0.2279 0.7081
vn -0.7570 -0.0591 -0.6507
vn 0.2220 -0.0761 0.9721
vn -0.9273 -0.3458 0.1431
vn -0.1215 -0.8387 -0.5309
vn -0.1244 -0.9823 -0.1402
vn -0.0367 -0.9870 -0.1565
vn 0.4154 0.0042 0.9096
vn -0.3459 -0.0156 -0.9381
vn -0.4367 -0.3134 -0.8433
vn 0.9430 -0.0408 0.3302
vn 0.9880 0.1318 0.0807
vn 0.9639 0.0128 0.2661
vn -0.2472 0.5455 -0.8008
vn -0.1077 0.5822 -0.8059
vn -0.5678 0.1575 -0.8080
vn -0.1001 0.5453 -0.8322
vn 0.3057 0.4872 -0.8180
vn -0.6826 0.1807 -0.7081
vn -0.7780 0.1343 -0.6138
vn -0.8052 0.0084 -0.5929
vn -0.8156 0.0649 -0.5749
vn -0.9850 -0.0294 0.1701
vn -0.6657 0.1460 -0.7318
vn 0.0997 0.1631 -0.9816
vn -0.2145 -0.3930 0.8942
vn -0.4019 -0.4577 0.7931
vn -0.3655 -0.3959 -0.8424
vn -0.0862 -0.9216 -0.3784
vn 0.1898 -0.6045 0.7737
vn -0.0240 -0.9852 -0.1696
vn 0.4659 0.6731 0.5743
vn 0.3473 0.8490 -0.3983
vn 0.1416 0.8244 -0.5480
vn 0.2159 0.7775 -0.5906
vn 0.4895 0.8710 0.0423
vn 0.6263 0.7030 0.3369
vn 0.8146 0.4575 -0.3565
vn 0.7886 0.4159 -0.4529
vn 0.6932 0.3188 -0.6463
vn 0.4662 0.1399 0.8736
vn 0.6912 -0.0864 0.7175
vn 0.7273 -0.0260 0.6858
vn 0.0574 0.4698 -0.8809
vn 0.6319 0.4823 -0.6067
vn -0.6238 0.1659 -0.7637
vn -0.9210 -0.0152 -0.3893
vn -0.5863 0.1964 -0.7859
vn -0.9325 -0.3146 0.1772
vn 0.0750 -0.4721 0.8783
vn -0.7206 -0.3555 -0.5953
vn 0.2022 -0.2793 0.9387
vn -0.2178 0.4200 -0.8810
vn -0.4712 0.0511 -0.8805
vn 0.7860 0.2162 0.5792
vn 0.6621 0.5276 -0.5323
vn 0.5909 0.4702 -0.6556
vn -0.1062 0.3687 -0.9235
vn -0.4603 -0.4924 0.7387
vn -0.4920 -0.7190 -0.4909
vn -0.7795 -0.5990 0.1831
vn -0.2729 0.1237 -0.9541
vn -0.0037 0.3901 -0.9208
vn 0.1906 0.4969 -0.8466
vn 0.0904 0.4064 -0.9092
vn -0.7428 -0.5686 0.3536
vn -0.3319 -0.4995 0.8002
vn -0.9545 -0.2712 -0.1242
vn -0.4771 -0.5221 0.7070
vn -0.8658 -0.3372 -0.3697
vn -0.8260 -0.5460 0.1400
vn -0.7632 -0.5471 0.3439
vn -0.7777 -0.5427 0.3172
s 1
f 1//1 5//2 4//3
f 1//1 2//4 5//2
f 5//2 2//4 9//5
f 5//2 8//6 4//3
f 11//7 12//8 13//9
f 8//6 14//10 15//11
f 16//12 12//8 11//7
f 14//10 17//13 15//11
f 18//14 19//15 20//16
f 21//17 15//11 22//18
f 21//17 23//19 15//11
f 20//16 19//15 24//20
f 15//11 17//13 22//18
f 23//19 21//17 25//21
f 28//22 26//23 16//12
f 29//24 30//25 16//12
f 31//26 30//25 29//24
f 30//25 28//22 16//12
f 32//27 28//22 33//28
f 22//18 34//29 35//30
f 38//31 3//32 39//33
f 38//31 2//34 3//32
f 41//35 2//4 42//36
f 4//3 40//37 1//1
f 43//38 9//5 2//4
f 10//39 9//5 43//38
f 15//11 4//3 8//6
f 44//40 10//39 43//38
f 47//41 48//42 49//43
f 51//44 49//43 48//42
f 52//45 11//7 50//46
f 11//7 52//45 16//12
f 51//44 48//42 53//47
f 53//47 59//48 51//44
f 52//45 54//49 16//12
f 55//50 51//44 56//51
f 56//51 51//44 59//48
f 60//52 59//53 27//54
f 30//25 33//28 28//22
f 21//17 22//18 65//55
f 27//54 64//56 61//57
f 22//18 35//30 65//55
f 61//57 64//56 67//58
f 66//59 61//57 69//60
f 69//60 61//57 68//61
f 33//28 70//62 32//27
f 71//63 35//30 34//29
f 72//64 73//65 69//66
f 35//30 71//63 74//67
f 69//66 73//65 124//68
f 75//69 33//28 76//70
f 32//27 70//62 77//71
f 34//29 78//72 71//63
f 74//67 71//63 79//73
f 80//74 90//75 81//76
f 91//77 92//78 93//79
f 82//80 85//81 94//82
f 36//83 97//84 37//85
f 40//37 4//3 96//86
f 96//86 100//87 99//88
f 38//31 39//33 98//89
f 4//3 103//90 100//87
f 4//3 100//87 96//86
f 104//91 41//35 42//36
f 102//92 47//41 49//43
f 41//35 43//38 2//4
f 102//92 49//43 101//93
f 105//94 106//95 107//96
f 108//97 109//98 110//99
f 113//100 114//101 115//102
f 112//103 55//104 116//105
f 117//106 58//107 57//108
f 29//24 54//49 118//109
f 29//24 113//100 119//110
f 112//111 60//52 27//54
f 29//24 16//12 54//49
f 112//111 27//54 66//59
f 62//112 31//26 29//24
f 62//112 29//24 119//110
f 27//54 61//57 66//59
f 63//113 31//26 62//112
f 33//28 30//25 121//114
f 33//28 121//114 122//115
f 123//116 69//66 124//68
f 120//117 124//68 119//110
f 76//70 122//115 62//112
f 33//28 122//115 76//70
f 76//70 62//112 119//110
f 119//110 124//68 126//118
f 124//68 125//119 126//118
f 124//68 73//65 125//119
f 128//120 127//121 129//122
f 71//63 140//123 79//73
f 88//124 87//125 142//126
f 144//127 143//128 89//129
f 143//128 146//130 147//131
f 148//132 149//133 97//84
f 151//134 95//135 96//86
f 152//136 151//134 153//137
f 149//133 37//85 97//84
f 151//134 96//86 99//88
f 102//92 101//93 153//137
f 104//138 38//31 98//89
f 154//139 41//35 104//91
f 41//35 105//140 43//38
f 156//141 157//142 158//143
f 111//144 44//40 43//38
f 159//145 160//145 161//145
f 158//146 51//44 55//50
f 115//102 119//110 113//100
f 163//147 119//110 115//102
f 162//148 55//104 112//103
f 112//103 158//143 162//148
f 164//149 112//111 66//59
f 119//110 163//147 120//117
f 165//150 166//151 167//152
f 165//150 143//128 144//127
f 92//78 145//153 93//79
f 167//152 168//154 165//150
f 143//128 170//155 146//130
f 94//82 145//153 82//80
f 200//156 171//157 151//134
f 150//158 151//134 171//157
f 151//134 150//158 95//135
f 172//159 173//160 149//161
f 149//161 173//160 39//162
f 174//163 98//89 39//33
f 101//93 152//136 153//137
f 104//138 98//89 175//164
f 176//165 104//138 175//164
f 177//166 104//138 178//167
f 178//167 104//138 176//165
f 178//167 176//165 106//95
f 155//168 178//167 105//94
f 178//167 106//95 105//94
f 176//165 181//169 106//95
f 182//170 52//45 50//46
f 183//171 156//141 158//143
f 183//171 184//172 156//141
f 158//143 112//103 183//171
f 185//173 165//150 168//154
f 168//174 93//79 186//175
f 187//176 185//173 168//154
f 145//153 186//175 93//79
f 185//173 143//128 165//150
f 94//82 188//177 145//153
f 185//173 170//155 143//128
f 191//178 169//179 190//180
f 190//180 192//181 191//178
f 145//153 188//177 194//182
f 195//183 197//184 171//157
f 148//132 198//185 149//133
f 195//183 171//157 196//186
f 199//187 200//156 201//188
f 196//186 171//157 200//156
f 201//188 200//156 151//134
f 202//189 172//159 149//161
f 214//190 215//191 172//192
f 213//193 175//164 215//191
f 98//89 215//191 175//164
f 164//149 203//194 112//111
f 145//153 204//195 186//175
f 205//196 170//155 185//173
f 145//153 194//182 189//197
f 204//195 145//153 189//197
f 194//182 191//178 192//181
f 206//198 193//199 170//155
f 205//196 206//198 170//155
f 209//200 194//182 192//181
f 195//183 210//201 211//202
f 195//183 196//186 209//200
f 195//183 211//202 197//184
f 201//188 196//186 199//187
f 202//189 149//161 212//203
f 202//189 212//203 213//193
f 201//188 151//134 152//136
f 202//189 215//191 214//190
f 216//204 156//141 184//172
f 185//173 217//205 205//196
f 189//197 218//206 204//195
f 218//206 217//205 204//195
f 205//196 220//207 206//198
f 209//200 189//197 194//182
f 221//208 219//209 208//210
f 201//188 189//197 209//200
f 218//206 189//197 222//211
f 221//208 212//203 219//209
f 221//208 213//193 212//203
f 196//186 201//188 209//200
f 224//212 218//206 222//211
f 152//136 224//212 222//211
f 202//189 213//193 215//191
f 213//193 225//213 175//164
f 152//136 101//93 224//212
f 226//214 156//141 216//204
f 218//206 225//213 217//205
f 217//205 225//213 205//196
f 205//196 225//213 223//215
f 225//213 218//206 227//216
f 213//193 223//215 225//213
f 228//217 225//213 227//216
f 228//217 216//218 225//213
l 83 84
l 207 208
l 134 135
l 86 141
l 136 137
l 138 139
l 130 131
l 45 46
l 6 7
l 132 133
l 179 180
