# Blender v2.78 (sub 0) OBJ File: 'exporter.blend'
# www.blender.org
o FJ1370.obj_grp1.111
v -0.155458 -0.686015 7.146166
v -0.155559 -0.686426 7.147290
v -0.151761 -0.673243 7.146533
v -0.157551 -0.685664 7.146884
v -0.156722 -0.685433 7.148260
v -0.157068 -0.685507 7.148237
v -0.150025 -0.669808 7.148716
v -0.147656 -0.687756 7.145100
v -0.148206 -0.687185 7.144344
v -0.148178 -0.687315 7.146121
v -0.147419 -0.686553 7.144689
v -0.146655 -0.687767 7.145144
v -0.147537 -0.687778 7.144702
v -0.147685 -0.687553 7.144830
v -0.147004 -0.686590 7.145284
v -0.147489 -0.687679 7.145782
v -0.147189 -0.687092 7.144092
v -0.147486 -0.687718 7.145849
v -0.146610 -0.687574 7.145678
v -0.141631 -0.672727 7.147191
v -0.145754 -0.686520 7.144000
v -0.146483 -0.685158 7.144280
v -0.147189 -0.687092 7.144092
v -0.141076 -0.670984 7.147480
v -0.147189 -0.687092 7.144092
v -0.145007 -0.676154 7.145683
v -0.141732 -0.668975 7.149401
v -0.147205 -0.667521 7.148271
v -0.137672 -0.689522 7.143277
v -0.137807 -0.689902 7.144588
v -0.138307 -0.689529 7.144443
v -0.137424 -0.689841 7.144532
v -0.137871 -0.689474 7.143995
v -0.138471 -0.689618 7.144847
v -0.136705 -0.689906 7.144384
v -0.139172 -0.689787 7.144496
v -0.137477 -0.690512 7.145061
v -0.138483 -0.689941 7.143362
v -0.138810 -0.689726 7.143764
v -0.138810 -0.689726 7.143764
v -0.139378 -0.689718 7.143857
v -0.138884 -0.688444 7.144280
v -0.133814 -0.670088 7.147050
v -0.133814 -0.670088 7.147050
v -0.134220 -0.671356 7.148317
v -0.129941 -0.657833 7.151546
v -0.133814 -0.670088 7.147050
v -0.139729 -0.663920 7.149695
v -0.147396 -0.664516 7.148378
v -0.145874 -0.659900 7.147731
v -0.148226 -0.663879 7.147425
v -0.141420 -0.664775 7.148095
v -0.140427 -0.652504 7.148214
v -0.145701 -0.663250 7.148373
v -0.148539 -0.667112 7.146627
v -0.148539 -0.667112 7.146627
v -0.133778 -0.668807 7.148790
v -0.138420 -0.663181 7.149926
v -0.140689 -0.669281 7.148919
v -0.137883 -0.658840 7.148787
v -0.141078 -0.653875 7.150689
v -0.137912 -0.663073 7.149142
v -0.141631 -0.672727 7.147191
v -0.137327 -0.660159 7.148599
v -0.143935 -0.660954 7.148319
v -0.137364 -0.647118 7.151872
v -0.130670 -0.663331 7.148009
v -0.131433 -0.658422 7.149645
v -0.137327 -0.660159 7.148599
v -0.137069 -0.658447 7.150939
v -0.137883 -0.658840 7.148787
v -0.134810 -0.641388 7.153656
v -0.137069 -0.643772 7.151983
v -0.129956 -0.657779 7.151510
v -0.130104 -0.641938 7.154884
v -0.137330 -0.643540 7.151979
v -0.121571 -0.634693 7.154879
v -0.127748 -0.641224 7.155225
v -0.130668 -0.644903 7.152139
v -0.129922 -0.642110 7.154066
v -0.129084 -0.640746 7.154165
v -0.123831 -0.641819 7.153459
v -0.124037 -0.642545 7.154843
v -0.127414 -0.626670 7.155923
v -0.123060 -0.635466 7.155130
v -0.122592 -0.634771 7.157114
v -0.129048 -0.641632 7.155321
v -0.124668 -0.625584 7.158320
v -0.129432 -0.633295 7.155912
v -0.126388 -0.642275 7.154375
v -0.128494 -0.643371 7.153388
v -0.129027 -0.641697 7.155300
v -0.127854 -0.640790 7.153348
v -0.129826 -0.640642 7.155180
v -0.120090 -0.619090 7.159471
v -0.121015 -0.634929 7.157340
v -0.127354 -0.634634 7.154906
v -0.129037 -0.635818 7.155454
v -0.126469 -0.634902 7.156997
v -0.128741 -0.636113 7.156721
v -0.129037 -0.635818 7.155454
v -0.128863 -0.636145 7.156762
v -0.129924 -0.630893 7.156673
v -0.129924 -0.630893 7.156673
v -0.120797 -0.634433 7.156218
v -0.120104 -0.634923 7.156252
v -0.124037 -0.642545 7.154843
v -0.120273 -0.630749 7.158001
v -0.127184 -0.633051 7.158015
v -0.128450 -0.633381 7.156971
v -0.129105 -0.632731 7.156657
v -0.121045 -0.622045 7.159973
v -0.121172 -0.622927 7.161612
v -0.118829 -0.624275 7.159089
v -0.122789 -0.627625 7.158679
v -0.121869 -0.626556 7.160236
v -0.121939 -0.628473 7.159234
v -0.122087 -0.627271 7.157888
v -0.122061 -0.630250 7.159068
v -0.122061 -0.630250 7.159068
v -0.121777 -0.627259 7.158458
v -0.119629 -0.624795 7.161228
v -0.120397 -0.628940 7.157378
v -0.122061 -0.630250 7.159068
v -0.122061 -0.630250 7.159068
v -0.115220 -0.621794 7.162656
v -0.119629 -0.624795 7.161228
v -0.122738 -0.630532 7.157988
v -0.119629 -0.624795 7.161228
v -0.122438 -0.628194 7.158692
v -0.122438 -0.628194 7.158692
v -0.119629 -0.624795 7.161228
v -0.121853 -0.626705 7.160101
v -0.121777 -0.627259 7.158458
v -0.122438 -0.628194 7.158692
v -0.122324 -0.627442 7.158317
v -0.117017 -0.619834 7.160941
v -0.118235 -0.619649 7.162971
v -0.122358 -0.619405 7.160550
v -0.118058 -0.625759 7.159644
v -0.117928 -0.625090 7.161368
v -0.120289 -0.630747 7.157988
v -0.115249 -0.621402 7.161231
v -0.117928 -0.625090 7.161368
v -0.115490 -0.621462 7.162891
v -0.118685 -0.624053 7.159256
v -0.118652 -0.618111 7.161179
v -0.118435 -0.619098 7.162374
v -0.119574 -0.619184 7.159748
v -0.120451 -0.618706 7.159518
v -0.120179 -0.620161 7.161057
v -0.115551 -0.621166 7.160687
v -0.115023 -0.622213 7.161181
v -0.115585 -0.621053 7.160523
v -0.116934 -0.620663 7.162496
v -0.116934 -0.620663 7.162496
v -0.118101 -0.618983 7.161415
v -0.120514 -0.618535 7.160292
v -0.120441 -0.618739 7.159538
v -0.120511 -0.618546 7.160288
v -0.120511 -0.618546 7.160288
v -0.120436 -0.618847 7.161011
v -0.114877 -0.620877 7.161260
v -0.116397 -0.620523 7.161087
v -0.115546 -0.621322 7.161931
v -0.115585 -0.621053 7.160523
v -0.116397 -0.620523 7.161087
v -0.116230 -0.620358 7.162045
v -0.117262 -0.619593 7.160946
v -0.114840 -0.621114 7.161894
v -0.115450 -0.621537 7.161319
v -0.115132 -0.620729 7.162213
v -0.115503 -0.621504 7.162777
v -0.114892 -0.621208 7.162307
v -0.114900 -0.620724 7.161805
v -0.115346 -0.620433 7.161556
v -0.117002 -0.620967 7.162196
v -0.116241 -0.620382 7.162025
v -0.117197 -0.619194 7.161932
v -0.115132 -0.620729 7.162213
v -0.114892 -0.621208 7.162307
v -0.114707 -0.621138 7.161885
v -0.114910 -0.620706 7.161791
v -0.115892 -0.621138 7.162824
v -0.116934 -0.620663 7.162496
v -0.116046 -0.620130 7.162443
v -0.117561 -0.619366 7.162905
v -0.117730 -0.619344 7.162777
v -0.115892 -0.621138 7.162824
v -0.117304 -0.619659 7.162824
v -0.116569 -0.619926 7.162150
v -0.117490 -0.619703 7.162792
v -0.118384 -0.619156 7.162354
v -0.117197 -0.619194 7.161932
v -0.117262 -0.619593 7.160946
v -0.118101 -0.618983 7.161415
v -0.118101 -0.618983 7.161415
vn -0.4977 -0.6327 -0.5933
vn -0.5812 0.2818 -0.7634
vn 0.3071 -0.6078 -0.7323
vn 0.3482 -0.9032 0.2510
vn 0.1181 -0.3699 0.9215
vn -0.8210 0.3999 0.4074
vn -0.8662 0.3982 0.3020
vn -0.8820 0.4028 0.2446
vn -0.5272 -0.8425 -0.1105
vn -0.0323 -0.6138 0.7888
vn -0.7114 -0.3398 0.6152
vn -0.7148 -0.3283 -0.6174
vn 0.4860 -0.0025 -0.8739
vn 0.4504 -0.0116 -0.8928
vn 0.4770 -0.0566 -0.8771
vn 0.8448 -0.4856 -0.2246
vn 0.8501 -0.4620 -0.2526
vn 0.8376 -0.4876 -0.2463
vn -0.0914 -0.8117 -0.5768
vn 0.4804 -0.0411 -0.8761
vn -0.1726 0.1673 -0.9707
vn -0.0151 0.1202 -0.9926
vn -0.1226 0.1416 -0.9823
vn 0.9647 -0.2634 0.0017
vn 0.9499 -0.3123 0.0126
vn 0.9519 -0.3026 0.0484
vn -0.2085 0.1981 -0.9577
vn -0.6988 0.3712 -0.6115
vn 0.0518 -0.2237 -0.9733
vn -0.3118 -0.8845 -0.3471
vn -0.5149 -0.8026 -0.3011
vn -0.2917 -0.8853 -0.3620
vn 0.0054 -0.9897 -0.1432
vn -0.0151 -0.9869 -0.1607
vn 0.8549 -0.5145 -0.0663
vn 0.2773 -0.9608 0.0026
vn -0.6812 0.3075 -0.6643
vn -0.7422 0.2569 -0.6189
vn -0.6305 0.2860 -0.7216
vn -0.6233 0.2827 -0.7291
vn -0.9420 0.2897 -0.1697
vn -0.9532 0.1688 0.2508
vn -0.9282 0.2351 0.2884
vn -0.1797 0.2892 -0.9402
vn 0.6713 0.0368 -0.7402
vn -0.6307 -0.0120 0.7759
vn -0.3446 -0.1051 0.9328
vn 0.3210 -0.3368 0.8852
vn 0.1222 -0.1803 0.9760
vn -0.3124 0.2408 -0.9189
vn -0.0840 -0.1669 0.9824
vn -0.8743 0.2243 0.4305
vn 0.2461 -0.0568 0.9676
vn -0.0043 -0.0327 0.9995
vn -0.0489 0.0471 0.9977
vn -0.6828 0.3942 -0.6152
vn -0.7891 0.2718 0.5509
vn 0.2159 0.1661 -0.9622
vn 0.6283 -0.3936 0.6711
vn -0.0473 0.0453 -0.9979
vn -0.1668 0.1510 -0.9744
vn -0.8629 0.0547 0.5023
vn 0.2214 -0.3050 0.9262
vn -0.1464 -0.1084 0.9833
vn 0.2158 -0.2198 0.9514
vn -0.8896 0.3882 -0.2408
vn -0.6840 0.4639 -0.5630
vn 0.8562 -0.2444 -0.4553
vn 0.8737 -0.2519 -0.4162
vn 0.7894 -0.2481 -0.5616
vn 0.7031 -0.6554 -0.2758
vn -0.3608 -0.1185 0.9251
vn -0.8119 0.3744 -0.4478
vn 0.1998 0.1147 -0.9731
vn 0.0889 0.1634 -0.9825
vn -0.4201 -0.0497 0.9061
vn 0.7987 -0.4189 0.4320
vn -0.7732 0.6054 -0.1888
vn -0.8081 0.5261 -0.2649
vn -0.3262 -0.1195 0.9377
vn -0.5498 0.0565 0.8334
vn -0.3820 -0.1590 0.9104
vn -0.6491 0.1319 0.7492
vn 0.7696 -0.1443 -0.6220
vn 0.4245 0.2321 -0.8752
vn 0.7688 -0.3130 0.5576
vn -0.3121 0.4028 -0.8604
vn -0.9630 0.1677 0.2112
vn -0.5338 0.5554 -0.6376
vn 0.7448 -0.4243 0.5150
vn -0.7242 0.4043 -0.5586
vn -0.9698 0.1466 0.1952
vn 0.1743 -0.3180 0.9319
vn 0.8775 -0.4793 0.0158
vn 0.0752 -0.2708 0.9597
vn -0.1212 -0.3046 0.9447
vn -0.9432 0.3111 0.1168
vn 0.9103 -0.3176 -0.2656
vn -0.2798 -0.1726 0.9444
vn 0.7055 0.0530 -0.7068
vn -0.7689 0.3685 -0.5225
vn -0.6624 0.5209 -0.5384
vn -0.6868 0.4420 -0.5770
vn 0.4704 0.2038 -0.8586
vn 0.2475 0.2601 -0.9333
vn -0.7014 0.3355 -0.6289
vn 0.8629 -0.3447 0.3695
vn -0.4112 -0.2041 0.8884
vn -0.9887 0.0487 0.1417
vn -0.9582 0.0579 0.2801
vn -0.5653 0.0264 0.8245
vn -0.1699 -0.1901 0.9670
vn -0.2316 -0.2973 0.9263
vn 0.8839 -0.2124 -0.4166
vn 0.7744 -0.3096 0.5518
vn 0.7493 -0.3042 0.5882
vn 0.6891 -0.4555 0.5636
vn 0.4265 -0.3355 0.8399
vn 0.2086 -0.4436 0.8716
vn -0.3510 -0.2494 0.9026
vn -0.4125 0.4165 -0.8101
vn -0.7245 0.1239 0.6780
vn -0.5711 0.0979 0.8150
vn 0.5784 0.0286 -0.8153
vn 0.7713 -0.1423 -0.6203
vn 0.1924 -0.3923 0.8995
vn -0.8857 0.0357 0.4628
vn 0.1569 0.4234 -0.8922
vn -0.9622 -0.0828 0.2593
vn -0.1620 -0.3773 0.9118
vn -0.9875 0.1485 0.0525
vn 0.1715 0.2470 -0.9537
vn -0.6298 -0.0260 0.7764
vn 0.0866 0.3631 -0.9277
vn 0.3876 -0.4062 0.8275
vn -0.0828 -0.3334 0.9391
vn 0.6991 -0.4828 0.5274
vn -0.2630 -0.1635 0.9508
vn -0.5331 -0.1786 0.8270
vn 0.2907 -0.7158 0.6350
vn 0.3597 -0.4479 -0.8185
vn -0.2864 0.1408 0.9477
vn -0.6388 0.5600 0.5275
vn 0.5972 -0.0085 -0.8021
vn 0.2979 -0.5786 0.7593
vn 0.7585 -0.5370 0.3692
vn 0.7584 -0.6507 -0.0376
vn 0.7683 -0.5029 0.3960
vn 0.1725 -0.2596 0.9502
vn 0.0395 0.3768 -0.9255
vn -0.0354 0.3095 -0.9502
vn 0.1032 0.2963 -0.9495
vn -0.7246 0.5306 0.4397
vn -0.6640 0.4554 0.5931
vn 0.9353 0.1616 -0.3148
vn -0.2685 0.6802 -0.6821
vn 0.1792 0.5692 0.8024
vn 0.5012 -0.3739 0.7804
vn 0.7394 -0.2223 -0.6355
vn 0.0841 0.3772 -0.9223
vn -0.3193 -0.0806 0.9442
vn -0.3700 -0.0215 0.9288
vn 0.0879 -0.3272 0.9409
vn -0.0313 0.4535 -0.8907
vn 0.4935 0.8204 -0.2887
vn 0.4840 0.8584 -0.1698
vn -0.4626 0.8824 0.0858
vn 0.6296 0.7364 0.2476
vn 0.4586 -0.0016 -0.8887
vn 0.6687 -0.2012 -0.7158
vn 0.6923 0.7216 -0.0073
vn 0.7836 0.6212 -0.0022
vn 0.7236 0.6779 0.1300
vn 0.7444 0.6076 -0.2768
vn 0.7338 0.6233 -0.2702
vn 0.6997 0.6664 -0.2576
vn 0.8388 -0.5443 -0.0134
vn 0.4419 0.3719 0.8163
vn 0.4406 0.3724 0.8168
vn 0.4286 0.3810 0.8192
vn 0.9351 0.3511 0.0490
vn -0.0042 0.8228 0.5683
vn 0.0929 0.7008 0.7073
vn -0.0524 0.9066 0.4187
vn 0.7765 0.5904 -0.2201
vn 0.7509 0.5905 -0.2957
vn 0.7897 0.4687 0.3959
vn 0.7886 0.4760 0.3893
vn 0.7895 0.4688 0.3960
vn 0.7906 0.4615 0.4025
vn 0.2119 -0.2013 0.9563
vn -0.1519 0.6908 0.7069
vn 0.4541 0.3631 0.8136
vn -0.0575 0.9457 0.3198
vn 0.1827 -0.2385 0.9538
vn 0.1372 -0.2053 0.9690
vn 0.1755 -0.2468 0.9531
vn 0.4069 0.8691 0.2812
vn 0.4216 0.8677 0.2633
vn 0.3754 0.8864 0.2708
vn 0.4005 0.8359 -0.3752
vn 0.4071 0.8677 0.2852
s 1
f 4//1 3//2 1//3
f 2//4 4//1 1//3
f 4//1 2//4 5//5
f 7//6 4//7 6//8
f 8//9 18//10 10//11
f 8//9 10//11 9//12
f 11//13 12//14 13//15
f 16//16 14//17 15//18
f 9//12 17//19 8//9
f 11//13 20//20 12//14
f 22//21 21//22 23//23
f 24//24 19//25 12//26
f 22//21 25//27 9//12
f 22//21 9//12 26//28
f 29//29 30//30 31//31
f 32//32 34//33 33//34
f 30//30 29//29 35//35
f 33//34 34//33 40//36
f 38//37 39//38 42//39
f 42//39 43//40 38//37
f 44//41 41//42 36//43
f 38//44 67//45 29//29
f 45//46 36//47 46//48
f 35//35 29//29 67//45
f 36//47 37//49 46//48
f 67//45 38//44 47//50
f 9//12 10//11 26//28
f 10//11 18//10 48//51
f 26//28 21//22 22//21
f 10//11 27//52 26//28
f 28//53 5//5 2//4
f 28//53 49//54 5//5
f 49//54 6//55 5//5
f 50//56 3//2 4//1
f 51//57 4//7 7//6
f 1//3 53//58 2//4
f 53//58 54//59 2//4
f 3//2 55//60 1//3
f 56//61 3//2 50//56
f 56//61 53//58 1//3
f 44//41 36//43 57//62
f 24//24 58//63 19//25
f 59//64 18//10 19//65
f 52//66 26//28 27//52
f 18//10 59//64 48//51
f 46//48 37//49 35//35
f 60//67 26//28 52//66
f 48//51 59//64 58//63
f 62//68 63//69 64//70
f 65//71 49//54 28//53
f 50//56 53//58 56//61
f 53//58 65//71 54//59
f 65//71 66//72 49//54
f 46//48 35//35 67//45
f 44//41 57//62 68//73
f 68//73 67//45 47//50
f 69//74 21//22 26//28
f 26//28 71//75 69//74
f 7//6 72//76 51//57
f 61//77 72//76 7//6
f 50//56 51//78 73//79
f 74//80 57//62 46//48
f 57//62 45//46 46//48
f 70//81 52//66 27//52
f 70//81 75//82 52//66
f 51//57 72//76 76//83
f 68//73 82//84 67//45
f 82//84 68//73 77//85
f 58//63 78//86 48//51
f 79//87 69//74 71//75
f 80//88 79//87 60//67
f 80//88 60//67 52//66
f 67//45 82//84 46//48
f 84//89 50//56 73//79
f 46//48 82//84 83//90
f 68//73 85//91 77//85
f 57//62 74//80 86//92
f 48//51 78//86 87//93
f 24//24 78//86 58//63
f 88//94 66//72 65//71
f 72//76 61//77 89//95
f 84//89 53//58 50//56
f 86//96 46//48 83//90
f 90//97 68//73 57//62
f 85//91 68//73 90//97
f 64//70 91//98 62//68
f 75//82 70//81 92//99
f 93//100 69//74 79//87
f 91//98 64//70 93//100
f 91//98 78//86 24//24
f 86//92 90//97 57//62
f 81//101 52//102 94//103
f 53//58 95//104 65//71
f 65//71 95//104 88//94
f 93//100 78//86 91//98
f 86//92 85//91 90//97
f 79//87 97//105 93//100
f 79//87 80//88 98//106
f 99//107 93//100 97//105
f 78//86 93//100 99//107
f 97//105 79//87 98//106
f 100//108 75//82 92//99
f 95//104 53//58 84//89
f 101//109 81//101 102//110
f 103//111 76//83 72//76
f 89//95 104//112 72//76
f 83//90 96//113 86//96
f 105//114 83//90 82//84
f 106//115 96//116 107//117
f 106//115 108//118 96//116
f 109//119 87//93 78//86
f 94//103 102//110 81//101
f 99//107 109//119 78//86
f 109//120 100//108 92//99
f 97//105 98//106 111//121
f 101//109 102//110 110//122
f 102//110 113//123 110//122
f 105//114 82//84 77//85
f 114//124 105//114 77//85
f 97//105 115//125 99//107
f 115//125 116//126 99//107
f 85//91 86//92 117//127
f 77//85 85//91 118//128
f 117//127 86//92 119//129
f 86//96 96//113 120//130
f 117//127 121//131 85//91
f 115//125 97//105 112//132
f 112//132 97//105 111//121
f 109//119 99//107 113//123
f 113//123 99//107 116//126
f 122//133 117//127 119//129
f 123//134 77//85 118//128
f 124//135 96//116 108//118
f 125//136 126//137 127//138
f 128//139 129//139 130//139
f 131//140 132//140 133//140
f 134//141 135//141 136//141
f 138//142 113//123 116//126
f 139//143 84//89 73//79
f 105//114 114//124 140//144
f 108//118 141//145 124//135
f 142//146 143//147 144//148
f 126//137 145//149 127//138
f 123//134 118//128 146//150
f 137//151 115//125 112//132
f 146//150 118//128 137//152
f 147//153 110//122 113//123
f 113//123 148//154 147//153
f 149//155 88//94 95//104
f 150//156 95//104 84//89
f 162//157 104//112 89//95
f 162//157 139//143 104//112
f 89//95 88//94 151//158
f 89//95 151//158 162//157
f 143//147 126//137 144//148
f 140//144 114//124 154//159
f 137//152 152//160 146//150
f 155//161 116//162 127//138
f 156//163 138//142 116//126
f 145//149 155//161 127//138
f 138//142 148//154 113//123
f 149//155 151//158 88//94
f 137//151 112//132 157//164
f 95//104 159//165 149//155
f 161//166 149//155 159//165
f 150//156 84//89 139//143
f 150//156 139//143 158//167
f 162//157 158//167 139//143
f 151//158 149//155 162//157
f 149//155 160//168 162//157
f 153//169 140//144 163//170
f 163//170 140//144 154//159
f 164//171 165//172 166//173
f 169//174 168//175 167//176
f 143//147 170//177 126//137
f 170//177 145//149 126//137
f 172//178 173//179 174//180
f 166//173 165//172 171//181
f 175//182 176//183 177//184
f 165//172 164//171 178//185
f 169//174 179//186 168//175
f 180//187 181//188 182//189
f 182//189 183//190 180//187
f 187//191 138//142 156//163
f 148//154 138//142 188//192
f 173//179 172//178 189//193
f 175//182 177//184 184//194
f 190//195 185//196 186//197
f 193//198 192//199 191//200
f 194//201 195//201 196//201
f 193//198 191//200 197//202
