# Blender v2.78 (sub 0) OBJ File: 'exporter.blend'
# www.blender.org
o FJ1349.obj_grp1.093
v -0.094756 -0.769229 7.105690
v -0.095355 -0.767746 7.105182
v -0.094332 -0.769116 7.104771
v -0.095780 -0.768246 7.108307
v -0.095090 -0.769293 7.108682
v -0.095553 -0.767276 7.106767
v -0.094430 -0.767009 7.105166
v -0.094934 -0.767295 7.107709
v -0.095249 -0.767642 7.108471
v -0.094653 -0.768112 7.108782
v -0.095237 -0.767600 7.108413
v -0.092638 -0.769401 7.105200
v -0.087861 -0.768906 7.104329
v -0.092838 -0.768283 7.106169
v -0.093180 -0.767458 7.104125
v -0.093842 -0.769276 7.106283
v -0.093757 -0.768834 7.107759
v -0.093134 -0.768284 7.106308
v -0.093205 -0.768306 7.106281
v -0.093993 -0.767483 7.106441
v -0.092604 -0.767267 7.105550
v -0.093993 -0.767483 7.106441
v -0.092424 -0.770891 7.119258
v -0.092343 -0.769967 7.119541
v -0.091978 -0.771389 7.119629
v -0.091773 -0.771427 7.120150
v -0.091782 -0.771431 7.120151
v -0.092419 -0.770988 7.119181
v -0.091363 -0.771447 7.119737
v -0.090879 -0.770967 7.119586
v -0.088524 -0.771243 7.121981
v -0.090302 -0.770328 7.120009
v -0.088524 -0.771243 7.121981
v -0.090132 -0.770019 7.122941
v -0.090384 -0.770834 7.122534
v -0.088514 -0.771205 7.121994
v -0.086876 -0.769187 7.106394
v -0.087861 -0.768906 7.104329
v -0.092381 -0.770359 7.119094
v -0.092376 -0.770366 7.119117
v -0.091638 -0.769606 7.119998
v -0.092325 -0.769976 7.119539
v -0.091748 -0.769441 7.119915
v -0.091757 -0.769633 7.119539
v -0.091748 -0.769441 7.119915
v -0.091190 -0.769347 7.120150
v -0.091190 -0.769347 7.120150
v -0.091748 -0.769441 7.119915
v -0.090607 -0.769280 7.121608
v -0.089415 -0.769150 7.121934
v -0.089415 -0.769150 7.121934
v -0.088668 -0.768066 7.104159
v -0.085746 -0.767774 7.105902
v -0.087881 -0.771359 7.122447
v -0.089111 -0.770375 7.121136
v -0.086405 -0.770735 7.123380
v -0.087790 -0.771319 7.122450
v -0.083773 -0.771630 7.120777
v -0.086876 -0.769187 7.106394
v -0.089111 -0.770375 7.121136
v -0.088524 -0.771243 7.121981
v -0.089111 -0.770375 7.121136
v -0.088171 -0.770643 7.121511
v -0.088171 -0.770643 7.121511
v -0.089111 -0.770375 7.121136
v -0.088178 -0.769788 7.121511
v -0.089415 -0.769150 7.121934
v -0.088178 -0.769788 7.121511
v -0.089111 -0.770375 7.121136
v -0.087877 -0.769309 7.121935
v -0.086917 -0.769401 7.123142
v -0.086876 -0.769187 7.106394
v -0.086883 -0.771031 7.121541
v -0.086663 -0.770107 7.121182
v -0.088178 -0.769788 7.121511
v -0.083074 -0.769334 7.120235
v -0.083076 -0.770416 7.119328
v -0.085388 -0.768309 7.104563
v -0.076067 -0.768890 7.106411
v -0.081995 -0.770313 7.106501
v -0.082101 -0.770262 7.106488
v -0.079252 -0.769458 7.108482
v -0.086876 -0.769187 7.106394
v -0.082131 -0.770709 7.106937
v -0.082652 -0.769183 7.107487
v -0.074486 -0.770400 7.117775
v -0.078363 -0.771307 7.117912
v -0.074692 -0.770424 7.117834
v -0.079312 -0.769502 7.108601
v -0.071436 -0.768406 7.107381
v -0.078709 -0.768303 7.107961
v -0.072411 -0.770251 7.112369
v -0.076458 -0.769206 7.109774
v -0.076458 -0.769206 7.109774
v -0.070423 -0.769471 7.113714
v -0.071768 -0.770425 7.109843
v -0.075817 -0.770136 7.109727
v -0.082101 -0.770262 7.106488
v -0.070051 -0.768704 7.112217
v -0.069836 -0.771080 7.116540
v -0.070235 -0.769003 7.107565
v -0.070218 -0.769791 7.112718
v -0.071909 -0.769518 7.112908
v -0.069438 -0.771334 7.115173
v -0.071450 -0.768925 7.107172
v -0.069298 -0.768960 7.108562
v -0.070957 -0.769997 7.112893
v -0.070353 -0.769596 7.113765
v -0.068415 -0.770770 7.115281
v -0.069037 -0.770461 7.114264
v -0.068452 -0.770718 7.115267
v -0.069082 -0.770728 7.116323
v -0.069459 -0.770791 7.116317
v -0.068677 -0.770555 7.115123
v -0.069570 -0.770019 7.111385
v -0.068889 -0.769004 7.111588
v -0.069815 -0.768038 7.109288
v -0.070344 -0.769868 7.112733
v -0.069914 -0.769538 7.112860
v -0.070106 -0.769824 7.112739
v -0.069340 -0.770117 7.114141
v -0.069154 -0.770401 7.114070
v -0.068400 -0.770316 7.115276
v -0.069340 -0.770117 7.114141
v -0.068843 -0.770694 7.115505
v -0.069101 -0.770389 7.116045
vn -0.5900 -0.7936 -0.1490
vn -0.8346 0.1734 -0.5229
vn -0.4271 -0.6529 -0.6255
vn -0.2199 -0.7117 0.6672
vn -0.9080 0.0392 0.4171
vn -0.1661 0.9445 -0.2834
vn -0.7283 0.6847 0.0273
vn -0.2734 0.7054 0.6540
vn 0.1496 0.9245 0.3506
vn 0.3372 0.2590 0.9051
vn 0.3162 0.7632 0.5636
vn 0.0841 -0.3855 -0.9189
vn -0.1197 0.4717 -0.8736
vn 0.3572 -0.9197 0.1630
vn -0.0084 -0.9955 0.0947
vn 0.8367 -0.3204 0.4441
vn 0.6566 -0.2218 0.7209
vn 0.7149 0.5738 0.3997
vn 0.1392 -0.1064 0.9845
vn 0.5439 0.7813 0.3063
vn 0.1210 0.7742 0.6213
vn 0.4360 0.3548 0.8271
vn -0.3474 -0.9113 -0.2210
vn 0.6680 -0.6888 -0.2817
vn -0.5760 -0.7281 0.3716
vn -0.8980 -0.1046 0.4273
vn 0.0884 -0.9286 -0.3604
vn 0.2679 -0.2922 -0.9181
vn 0.4447 -0.3018 -0.8433
vn 0.3288 0.2213 -0.9181
vn 0.4892 -0.6649 -0.5644
vn 0.5399 0.3426 -0.7688
vn 0.6821 -0.1955 -0.7047
vn -0.5106 -0.5424 0.6672
vn -0.4248 0.2519 0.8696
vn 0.4774 -0.3912 -0.7868
vn -0.1284 -0.6353 0.7615
vn -0.0503 -0.9712 -0.2329
vn -0.8858 0.0455 0.4617
vn -0.9911 0.1329 0.0033
vn 0.3624 0.6340 -0.6832
vn -0.0057 0.8052 -0.5930
vn 0.0446 0.8852 -0.4631
vn -0.4807 0.8188 0.3139
vn -0.7415 0.5108 0.4351
vn -0.1510 0.9884 0.0170
vn -0.1860 0.9821 0.0308
vn 0.5060 0.6189 -0.6008
vn -0.1770 0.8823 0.4361
vn 0.1861 0.4136 -0.8912
vn -0.0336 0.9224 0.3847
vn -0.1049 -0.9693 0.2226
vn 0.6773 -0.2084 -0.7055
vn 0.2235 -0.3724 0.9007
vn 0.3387 -0.9402 0.0371
vn -0.0416 -0.9945 -0.0964
vn -0.0744 -0.9923 -0.0991
vn 0.5948 0.5411 -0.5945
vn -0.0175 -0.5923 -0.8055
vn 0.1156 -0.6378 -0.7615
vn -0.0923 -0.4006 -0.9116
vn 0.3699 0.0174 -0.9289
vn 0.0333 0.5980 -0.8008
vn 0.0002 0.6300 -0.7766
vn -0.0018 0.5517 -0.8340
vn 0.0405 0.9175 -0.3957
vn 0.1040 0.6565 0.7471
vn -0.0024 0.4186 0.9082
vn -0.2874 -0.2648 -0.9205
vn -0.2917 0.0819 -0.9530
vn -0.2276 0.0131 -0.9737
vn -0.0932 0.9714 -0.2182
vn -0.4585 0.4792 -0.7484
vn 0.0986 0.8865 -0.4521
vn 0.1886 -0.2912 -0.9379
vn 0.1302 -0.6353 -0.7612
vn -0.2190 -0.9753 -0.0285
vn -0.3910 -0.1364 0.9102
vn -0.2502 -0.4786 0.8416
vn -0.2300 -0.4772 0.8481
vn -0.1910 0.5134 0.8366
vn 0.2948 0.6522 0.6983
vn 0.0548 -0.9984 -0.0165
vn 0.1992 -0.8121 0.5484
vn 0.2671 0.7124 -0.6490
vn -0.1584 -0.1948 -0.9680
vn -0.1201 0.8609 0.4944
vn -0.3051 0.5213 0.7970
vn -0.3362 0.5922 0.7323
vn -0.4577 -0.0132 0.8890
vn 0.1337 -0.9822 -0.1322
vn -0.1110 -0.9557 0.2727
vn -0.0744 -0.9805 0.1820
vn 0.1107 0.7973 0.5933
vn 0.2593 -0.8916 -0.3712
vn -0.3879 -0.0576 0.9199
vn -0.0011 0.8483 -0.5295
vn 0.1091 0.9837 0.1429
vn 0.2477 -0.9598 -0.1319
vn 0.3086 -0.4250 -0.8510
vn 0.8576 -0.1893 -0.4782
vn 0.4665 0.1208 -0.8762
vn 0.4539 0.6377 -0.6223
vn 0.4400 0.8931 -0.0939
vn 0.3391 -0.7554 -0.5607
vn 0.5319 -0.6790 -0.5059
vn 0.2794 -0.6040 0.7464
vn 0.2782 0.0145 0.9604
vn 0.6926 0.2319 0.6830
vn 0.6355 -0.0571 0.7700
vn 0.5591 0.7284 0.3960
vn 0.5583 -0.8268 0.0690
vn 0.9296 0.2113 0.3019
vn 0.0699 -0.9845 0.1607
vn -0.4321 0.0008 0.9018
vn 0.5552 0.0191 0.8315
vn 0.4384 -0.8587 0.2654
vn 0.6743 0.5970 -0.4347
vn 0.8160 0.4807 -0.3211
vn 0.1799 0.9675 0.1778
vn 0.5803 0.7365 -0.3477
vn 0.7647 0.6431 0.0398
vn 0.5544 0.5817 0.5952
s 1
f 1//1 2//2 3//3
f 1//1 5//4 4//5
f 2//2 1//1 4//5
f 7//6 2//2 6//7
f 2//2 4//5 6//7
f 6//7 9//8 8//9
f 6//7 8//9 7//6
f 10//10 8//9 11//11
f 5//4 9//8 4//5
f 6//7 4//5 9//8
f 10//10 9//8 5//4
f 10//10 11//11 9//8
f 13//12 3//3 15//13
f 1//1 16//14 5//4
f 12//15 16//14 1//1
f 17//16 5//4 16//14
f 16//14 18//17 17//16
f 17//16 19//18 10//10
f 18//17 16//14 12//15
f 14//19 18//17 12//15
f 10//10 5//4 17//16
f 3//3 2//2 15//13
f 15//13 2//2 7//6
f 7//6 20//20 21//21
f 22//22 14//19 21//21
f 8//9 10//10 20//20
f 8//9 20//20 7//6
f 20//20 10//10 19//18
f 14//19 22//22 18//17
f 25//23 26//24 27//25
f 23//26 25//23 27//25
f 29//27 25//23 28//28
f 28//28 30//29 29//27
f 39//30 30//29 28//28
f 29//27 30//29 31//31
f 30//29 32//32 33//33
f 35//34 23//26 27//25
f 35//34 34//35 23//26
f 26//24 25//23 35//34
f 36//36 25//23 29//27
f 37//37 14//19 12//15
f 1//1 3//3 12//15
f 38//38 12//15 3//3
f 23//26 24//39 40//40
f 41//41 39//30 42//42
f 44//43 45//43 46//43
f 24//39 49//44 43//45
f 47//46 48//47 49//44
f 30//29 39//30 32//32
f 32//32 39//30 41//41
f 32//32 41//41 50//48
f 24//39 23//26 34//35
f 51//49 47//46 49//44
f 49//44 24//39 34//35
f 52//50 13//12 15//13
f 53//51 21//21 14//19
f 15//13 7//6 53//51
f 54//52 35//34 25//23
f 55//53 33//33 32//32
f 36//36 54//52 25//23
f 56//54 35//34 54//52
f 35//34 56//54 34//35
f 54//52 57//55 56//54
f 56//54 57//55 58//56
f 38//38 59//57 12//15
f 60//58 32//32 50//48
f 61//59 62//60 63//61
f 64//62 65//62 66//62
f 67//63 68//64 69//65
f 68//64 67//63 70//66
f 34//35 71//67 49//44
f 49//44 71//67 51//49
f 34//35 56//54 71//67
f 14//19 72//68 53//51
f 53//51 7//6 21//21
f 61//59 63//61 73//69
f 54//52 36//36 58//56
f 74//70 63//61 75//71
f 73//69 63//61 74//70
f 68//64 70//66 74//70
f 71//67 70//66 51//49
f 74//70 76//72 77//73
f 76//72 74//70 70//66
f 77//73 73//69 74//70
f 76//72 70//66 71//67
f 78//74 52//50 15//13
f 36//36 73//69 58//56
f 79//75 80//76 13//12
f 79//75 13//12 52//50
f 38//38 81//77 59//57
f 82//78 83//79 84//80
f 85//81 53//51 72//68
f 56//54 86//82 71//67
f 78//74 15//13 53//51
f 73//69 87//83 58//56
f 58//56 88//84 56//54
f 56//54 88//84 86//82
f 79//75 78//74 90//85
f 78//74 53//51 90//85
f 87//83 73//69 92//86
f 58//56 87//83 88//84
f 53//51 85//81 91//87
f 91//87 85//81 89//88
f 93//89 91//87 89//88
f 82//78 84//80 94//90
f 76//72 71//67 86//82
f 90//85 53//51 91//87
f 92//86 73//69 77//73
f 96//91 97//92 98//93
f 99//94 91//87 93//89
f 77//73 76//72 92//86
f 101//95 80//76 79//75
f 80//76 101//95 96//91
f 94//90 84//80 102//96
f 92//86 76//72 103//97
f 103//97 76//72 95//98
f 92//86 104//99 87//83
f 104//99 88//84 87//83
f 90//85 105//100 79//75
f 101//95 79//75 105//100
f 106//101 105//100 90//85
f 107//102 92//86 103//97
f 108//103 107//102 103//97
f 90//85 91//87 117//104
f 104//99 92//86 110//105
f 111//106 104//99 110//105
f 100//107 88//84 104//99
f 112//108 88//84 100//107
f 109//109 100//107 104//99
f 109//109 113//110 100//107
f 114//111 113//110 109//109
f 106//101 90//85 117//104
f 96//91 106//101 115//112
f 101//95 106//101 96//91
f 106//101 117//104 116//113
f 115//112 106//101 116//113
f 115//112 118//114 96//91
f 118//114 97//92 96//91
f 94//90 102//96 119//115
f 99//94 93//89 119//116
f 115//112 120//117 118//114
f 119//116 116//113 99//94
f 120//117 115//112 119//116
f 119//116 115//112 116//113
f 107//102 110//105 92//86
f 107//102 121//118 122//119
f 76//72 123//120 95//98
f 107//102 108//103 121//118
f 95//98 123//120 124//121
f 121//118 125//122 122//119
f 113//110 126//123 86//82
f 86//82 123//120 76//72
f 126//123 123//120 86//82
f 117//104 91//87 99//94
f 99//94 116//113 117//104
f 126//123 113//110 114//111
