# Blender v2.78 (sub 0) OBJ File: 'exporter.blend'
# www.blender.org
o FJ1372.obj_grp1.113
v -0.139018 -0.680457 7.188259
v -0.138017 -0.681384 7.189086
v -0.130188 -0.667359 7.183405
v -0.131455 -0.665786 7.184599
v -0.139440 -0.680163 7.189199
v -0.139343 -0.680251 7.188988
v -0.138105 -0.680839 7.189233
v -0.138185 -0.680451 7.190383
v -0.137986 -0.681133 7.189309
v -0.138497 -0.681061 7.189309
v -0.137999 -0.680220 7.190320
v -0.137525 -0.680679 7.190063
v -0.134948 -0.676886 7.186853
v -0.127320 -0.661998 7.182045
v -0.128141 -0.661150 7.183657
v -0.131430 -0.667611 7.183729
v -0.129111 -0.666766 7.184150
v -0.127204 -0.662232 7.181993
v -0.130167 -0.667267 7.183433
v -0.124630 -0.650362 7.177190
v -0.122591 -0.646298 7.173868
v -0.122763 -0.650911 7.175640
v -0.128272 -0.661462 7.180770
v -0.127943 -0.660543 7.180416
v -0.119960 -0.621386 7.171418
v -0.123929 -0.626860 7.176486
v -0.123603 -0.624228 7.175899
v -0.127695 -0.657695 7.181320
v -0.121811 -0.643412 7.175150
v -0.127695 -0.657695 7.181320
v -0.122544 -0.643531 7.174287
v -0.122446 -0.652977 7.177629
v -0.126786 -0.632164 7.186093
v -0.122613 -0.627311 7.177040
v -0.124285 -0.626817 7.181542
v -0.126521 -0.629644 7.185170
v -0.121087 -0.621725 7.173663
v -0.126521 -0.629644 7.185170
v -0.125164 -0.633543 7.186927
v -0.123735 -0.631814 7.186186
v -0.124284 -0.626785 7.181461
v -0.125124 -0.632162 7.188979
v -0.119608 -0.624223 7.174376
v -0.124984 -0.631604 7.188717
v -0.127091 -0.632623 7.188125
v -0.125835 -0.631659 7.188580
v -0.126521 -0.629644 7.185170
v -0.125948 -0.631398 7.188827
v -0.123262 -0.631586 7.186527
v -0.127132 -0.634790 7.188738
v -0.127252 -0.635066 7.188825
v -0.125184 -0.634939 7.187839
v -0.125219 -0.638038 7.190727
v -0.127249 -0.638198 7.190710
v -0.126590 -0.637179 7.192353
v -0.125871 -0.639470 7.193527
v -0.125614 -0.647413 7.195025
v -0.125930 -0.641147 7.194477
v -0.127544 -0.651114 7.198192
v -0.126207 -0.650925 7.198222
v -0.126124 -0.652611 7.199583
v -0.127103 -0.646644 7.193949
v -0.127103 -0.646644 7.193949
v -0.126324 -0.648869 7.194841
v -0.125610 -0.647442 7.195029
v -0.127974 -0.649378 7.195479
v -0.127478 -0.655492 7.198257
v -0.126537 -0.655605 7.197163
v -0.126324 -0.648869 7.194841
v -0.125021 -0.653616 7.198231
v -0.125263 -0.652516 7.197893
v -0.126147 -0.658423 7.199483
v -0.125220 -0.654555 7.199646
v -0.116034 -0.625770 7.171524
v -0.120682 -0.644160 7.172842
v -0.119621 -0.641260 7.174898
v -0.118887 -0.640848 7.173639
v -0.122763 -0.650911 7.175640
v -0.118503 -0.622189 7.170664
v -0.117163 -0.619452 7.169819
v -0.117440 -0.633045 7.174253
v -0.121821 -0.643296 7.175171
v -0.120031 -0.642352 7.174407
v -0.119416 -0.623555 7.174607
v -0.121049 -0.621790 7.173622
v -0.124110 -0.626724 7.180968
v -0.118503 -0.622189 7.170664
v -0.121395 -0.625037 7.177058
v -0.119416 -0.623555 7.174607
v -0.118503 -0.622189 7.170664
v -0.125238 -0.654356 7.197886
v -0.124027 -0.658330 7.198101
v -0.119212 -0.668460 7.204108
v -0.125985 -0.658249 7.199583
v -0.120084 -0.667530 7.201780
v -0.119346 -0.667896 7.203526
v -0.124356 -0.656850 7.200052
v -0.115343 -0.632405 7.172474
v -0.115671 -0.632780 7.174185
v -0.110166 -0.615619 7.167110
v -0.114555 -0.620740 7.169547
v -0.112424 -0.616664 7.170418
v -0.112434 -0.616668 7.170429
v -0.115626 -0.620126 7.170158
v -0.112434 -0.616668 7.170429
v -0.114778 -0.620372 7.169349
v -0.114863 -0.620959 7.170241
v -0.114533 -0.620282 7.170183
v -0.114659 -0.620722 7.169655
v -0.114863 -0.620959 7.170241
v -0.114748 -0.620919 7.170015
v -0.115299 -0.623696 7.172072
v -0.114619 -0.622446 7.170983
v -0.114586 -0.620814 7.169678
v -0.114650 -0.620834 7.171146
v -0.114863 -0.620959 7.170241
v -0.114387 -0.620936 7.171180
v -0.114863 -0.620959 7.170241
v -0.115299 -0.623696 7.172072
v -0.112434 -0.616668 7.170429
v -0.114618 -0.620818 7.171202
v -0.109358 -0.610619 7.169102
v -0.116313 -0.629250 7.174091
v -0.116313 -0.629250 7.174091
v -0.115707 -0.632658 7.175171
v -0.113082 -0.633907 7.176767
v -0.116130 -0.632278 7.174513
v -0.115671 -0.632780 7.174185
v -0.116130 -0.632278 7.174513
v -0.115769 -0.631925 7.174493
v -0.115671 -0.632780 7.174185
v -0.116130 -0.632278 7.174513
v -0.115707 -0.632658 7.175171
v -0.116313 -0.629250 7.174091
v -0.114217 -0.629348 7.172246
v -0.115671 -0.632780 7.174185
v -0.115309 -0.632424 7.172495
v -0.114646 -0.632729 7.173481
v -0.115309 -0.632424 7.172495
v -0.120170 -0.667712 7.201735
v -0.116313 -0.668971 7.202315
v -0.117999 -0.669973 7.202159
v -0.118017 -0.669831 7.201602
v -0.116486 -0.668693 7.202775
v -0.106966 -0.599319 7.164930
v -0.112749 -0.615925 7.168743
v -0.105568 -0.595150 7.164247
v -0.106688 -0.605395 7.165179
v -0.111577 -0.620546 7.170664
v -0.108714 -0.613037 7.168522
v -0.114009 -0.628776 7.173011
v -0.114127 -0.628928 7.173056
v -0.113948 -0.629421 7.172200
v -0.114009 -0.628776 7.173011
v -0.116313 -0.629250 7.174091
v -0.113082 -0.633907 7.176767
v -0.114646 -0.632729 7.173481
v -0.114646 -0.632729 7.173481
v -0.112427 -0.645242 7.183449
v -0.115671 -0.632780 7.174185
v -0.111539 -0.644205 7.182014
v -0.112159 -0.643861 7.184113
v -0.118146 -0.666018 7.201272
v -0.118159 -0.673752 7.203300
v -0.115671 -0.676576 7.205358
v -0.114889 -0.681668 7.205822
v -0.116566 -0.679088 7.204559
v -0.116566 -0.679088 7.204559
v -0.115671 -0.676576 7.205358
v -0.117781 -0.678966 7.206060
v -0.115127 -0.687135 7.206271
v -0.119346 -0.667896 7.203526
v -0.116495 -0.680402 7.207440
v -0.100859 -0.585553 7.164083
v -0.102688 -0.592641 7.163497
v -0.104350 -0.599378 7.166673
v -0.108544 -0.612974 7.168504
v -0.104237 -0.596139 7.167142
v -0.101840 -0.589511 7.166445
v -0.101484 -0.589148 7.166251
v -0.104350 -0.599378 7.166673
v -0.110067 -0.646885 7.184636
v -0.110572 -0.643428 7.182204
v -0.111088 -0.643720 7.184237
v -0.110465 -0.662234 7.188258
v -0.113494 -0.658092 7.186540
v -0.111846 -0.663760 7.187510
v -0.111648 -0.664523 7.188877
v -0.110181 -0.663395 7.188578
v -0.110745 -0.641689 7.183356
v -0.112168 -0.643939 7.184185
v -0.111585 -0.648376 7.185968
v -0.111567 -0.658150 7.188128
v -0.111585 -0.648376 7.185968
v -0.112669 -0.659028 7.188316
v -0.111567 -0.658150 7.188128
v -0.111116 -0.662838 7.189682
v -0.115317 -0.687358 7.206259
v -0.115595 -0.686003 7.207751
v -0.114382 -0.687171 7.206153
v -0.114467 -0.687211 7.207407
v -0.115081 -0.686773 7.207751
v -0.115075 -0.686779 7.207766
v -0.113700 -0.686223 7.207047
v -0.113687 -0.686226 7.207062
v -0.101803 -0.593913 7.165112
v -0.096657 -0.582623 7.165734
v -0.095577 -0.580927 7.162705
v -0.096545 -0.582479 7.165943
v -0.095568 -0.584065 7.164339
v -0.098920 -0.589093 7.165426
v -0.094538 -0.583731 7.164314
v -0.089130 -0.574235 7.163752
v -0.087083 -0.575266 7.162877
v -0.089292 -0.574431 7.163715
v -0.087803 -0.577486 7.164885
v -0.089089 -0.575120 7.165773
v -0.082137 -0.566356 7.169629
v -0.080984 -0.567804 7.167576
v -0.082828 -0.564617 7.168822
v -0.081578 -0.565122 7.166533
v -0.081181 -0.565891 7.168927
v -0.081128 -0.565894 7.168935
vn -0.5495 -0.4977 -0.6711
vn -0.5389 -0.0587 -0.8403
vn 0.2093 -0.9735 -0.0922
vn -0.2475 -0.1005 -0.9636
vn -0.8878 0.4444 0.1201
vn -0.9597 -0.1398 0.2439
vn -0.6022 -0.6653 0.4412
vn -0.3988 -0.9011 0.1703
vn -0.0713 -0.5064 0.8594
vn 0.7824 -0.5720 0.2464
vn 0.4893 -0.5623 0.6667
vn 0.5275 -0.4536 -0.7184
vn 0.3277 -0.2301 0.9164
vn 0.9834 -0.1763 0.0422
vn 0.0531 0.3791 0.9238
vn 0.8131 -0.1778 0.5543
vn 0.5330 -0.5294 -0.6601
vn 0.8001 -0.4973 -0.3355
vn -0.9296 0.3057 -0.2058
vn -0.5774 -0.0948 -0.8109
vn -0.1489 -0.3552 -0.9229
vn -0.2037 -0.3568 -0.9117
vn -0.0064 -0.4102 -0.9120
vn -0.6710 0.3012 -0.6775
vn -0.6512 -0.4861 -0.5828
vn -0.8506 0.4797 -0.2153
vn -0.9426 0.2939 -0.1582
vn -0.2704 0.4089 0.8716
vn -0.6436 0.5109 0.5699
vn -0.8965 0.4207 -0.1389
vn 0.7121 0.0521 0.7001
vn -0.8121 -0.3877 -0.4360
vn -0.4525 0.8464 0.2808
vn -0.2523 0.8500 0.4625
vn -0.6356 0.7642 -0.1097
vn -0.9638 0.0987 -0.2477
vn -0.0167 -0.6516 -0.7584
vn -0.0204 -0.8274 -0.5613
vn 0.6384 -0.6743 -0.3712
vn 0.5035 0.6159 0.6060
vn 0.7775 0.2445 0.5793
vn 0.8811 -0.3929 0.2633
vn 0.8874 -0.4597 -0.0358
vn 0.8102 -0.5830 0.0613
vn 0.2430 0.7045 0.6668
vn -0.9187 0.3386 0.2033
vn -0.6152 0.5521 0.5628
vn -0.6394 0.6008 0.4799
vn 0.0987 0.7562 0.6468
vn 0.7371 0.4412 0.5119
vn -0.9971 -0.0081 -0.0762
vn -0.4299 -0.3856 -0.8164
vn 0.4821 -0.5797 -0.6569
vn 0.8352 -0.3410 -0.4314
vn 0.9653 0.0303 0.2593
vn 0.6206 -0.3608 -0.6962
vn -0.8808 0.2829 0.3796
vn -0.6072 0.4057 0.6832
vn 0.7762 -0.1603 -0.6097
vn -0.8557 0.1960 0.4789
vn -0.7031 -0.1209 0.7008
vn 0.9743 0.0364 0.2225
vn -0.9885 0.1368 0.0640
vn -0.2895 -0.3834 -0.8770
vn 0.1714 -0.3750 -0.9110
vn 0.2456 -0.3370 -0.9089
vn 0.9765 0.0174 -0.2148
vn -0.8478 -0.5011 -0.1737
vn -0.4376 -0.3616 -0.8233
vn 0.7390 -0.2214 -0.6363
vn 0.9984 0.0503 -0.0257
vn 0.7151 0.2905 0.6358
vn 0.7907 0.3519 0.5009
vn 0.6659 0.2169 0.7138
vn -0.6764 -0.5129 -0.5286
vn 0.9232 0.3618 0.1297
vn 0.4070 -0.2063 -0.8898
vn 0.9281 -0.3722 -0.0117
vn -0.3971 -0.2578 -0.8808
vn -0.2053 -0.3192 -0.9252
vn -0.2740 0.1484 0.9502
vn 0.5649 -0.3167 0.7620
vn 0.2492 -0.0886 0.9644
vn 0.1167 -0.0466 0.9921
vn 0.8426 -0.3054 0.4436
vn 0.9252 -0.3311 0.1852
vn 0.2477 0.6593 0.7099
vn 0.1970 0.6211 0.7586
vn 0.3787 0.6960 0.6100
vn 0.0006 -0.7790 -0.6270
vn 0.8108 -0.3909 0.4356
vn 0.4250 -0.8404 -0.3364
vn 0.6792 -0.2114 -0.7028
vn 0.9939 0.0723 -0.0838
vn 0.5537 -0.1111 -0.8253
vn 0.3963 -0.1129 -0.9111
vn 0.4372 0.3271 0.8378
vn -0.8420 -0.4742 0.2574
vn -0.9109 -0.3058 0.2771
vn -0.9468 -0.2085 0.2450
vn 0.2755 0.4240 0.8627
vn -0.9696 0.1063 -0.2204
vn 0.4533 -0.1672 -0.8755
vn 0.8814 -0.3801 0.2805
vn -0.8020 0.5234 -0.2879
vn -0.5802 0.0340 -0.8137
vn 0.8519 -0.3634 -0.3772
vn -0.3279 -0.4291 -0.8417
vn 0.1493 0.3770 0.9141
vn 0.0119 0.5093 0.8605
vn 0.7334 -0.6704 0.1127
vn 0.7259 -0.6824 0.0863
vn 0.2019 -0.8617 -0.4656
vn 0.1167 -0.8395 -0.5307
vn -0.3400 -0.9376 0.0725
vn -0.7508 0.3730 0.5451
vn -0.7693 0.4080 0.4915
vn -0.8121 0.4070 0.4182
vn -0.4395 0.3318 0.8347
vn -0.0952 0.1572 0.9830
vn -0.4364 0.1940 0.8786
vn -0.4178 0.4052 0.8132
vn -0.1666 0.5036 0.8477
vn -0.2837 0.1125 0.9523
vn 0.0697 -0.2591 0.9633
vn 0.1041 -0.5087 0.8547
vn -0.8304 0.0247 0.5567
vn -0.1040 -0.9671 -0.2321
vn 0.9194 -0.3745 0.1200
vn -0.5489 -0.4820 -0.6830
vn 0.4547 -0.1527 -0.8775
vn 0.1716 -0.1877 -0.9671
vn -0.4110 -0.4126 -0.8129
vn 0.3595 0.4730 0.8044
vn -0.6759 0.0867 -0.7319
vn -0.8176 0.3896 0.4240
vn 0.8886 -0.4107 -0.2043
vn 0.8719 -0.3635 -0.3281
vn 0.5301 0.0539 0.8462
vn 0.8171 -0.1278 0.5622
vn 0.9733 0.0617 0.2212
vn 0.9751 0.1639 0.1495
vn 0.9397 -0.3160 -0.1311
vn 0.8176 -0.4286 -0.3846
vn 0.2398 0.5988 0.7642
vn 0.6269 -0.3450 -0.6986
vn -0.9756 -0.0227 0.2186
vn -0.9772 -0.1678 0.1302
vn -0.8922 -0.2959 -0.3412
vn -0.3985 -0.6130 -0.6823
vn -0.4100 -0.6110 -0.6772
vn 0.2762 -0.6866 -0.6725
vn 0.9391 0.2510 0.2349
vn -0.9444 0.0507 0.3249
vn 0.8437 0.5366 -0.0113
vn 0.8548 0.5170 -0.0454
vn -0.6176 -0.3005 -0.7268
vn 0.6617 0.2961 0.6889
vn 0.2393 -0.1803 -0.9541
vn 0.9799 0.1113 -0.1654
vn 0.4544 -0.1016 -0.8850
vn 0.9619 0.1904 0.1962
vn -0.9779 -0.1100 0.1780
vn 0.0928 -0.1561 -0.9834
vn -0.6903 0.0689 0.7202
vn -0.0467 0.1945 0.9798
vn -0.8238 0.5226 -0.2197
vn 0.0357 -0.1338 -0.9904
vn 0.9102 -0.3419 -0.2339
vn 0.4984 -0.0276 0.8665
vn 0.7016 -0.2342 0.6730
vn -0.7932 0.4714 0.3854
vn 0.7534 -0.1708 0.6349
vn 0.9337 0.0451 0.3553
vn 0.8657 0.3135 0.3904
vn 0.9633 -0.1289 -0.2355
vn -0.2625 -0.6527 -0.7107
vn -0.9321 -0.1278 -0.3390
vn -0.1423 -0.9881 0.0587
vn 0.5144 -0.3346 -0.7896
vn -0.3637 0.5023 0.7845
vn -0.2311 0.4106 0.8820
vn -0.0643 0.3659 0.9284
vn 0.0503 0.2982 0.9532
vn -0.7068 0.2082 0.6761
vn -0.6592 0.0801 0.7477
vn 0.6103 0.1726 0.7732
vn 0.2085 -0.1840 0.9606
vn -0.4605 -0.8687 -0.1823
vn -0.6394 -0.2131 0.7388
vn -0.1905 -0.2004 -0.9610
vn 0.3365 -0.7329 0.5913
vn -0.6248 -0.7340 0.2661
vn -0.0060 -0.4908 0.8713
vn 0.7077 -0.6557 -0.2632
vn 0.8676 0.0414 -0.4956
vn 0.7893 0.2746 0.5492
vn 0.7847 -0.5993 -0.1584
vn -0.5934 0.5799 0.5583
vn -0.4020 0.3602 -0.8418
vn 0.4773 -0.4778 0.7375
vn 0.2575 0.0129 0.9662
vn 0.5570 -0.3555 0.7506
vn 0.3238 0.0357 0.9455
vn 0.7416 -0.6523 -0.1566
vn 0.6756 -0.4197 0.6061
vn -0.6654 0.6032 -0.4398
vn 0.4532 -0.0837 -0.8875
vn 0.6717 -0.6649 0.3266
vn -0.2088 0.3433 -0.9157
vn -0.4713 0.2196 0.8542
vn 0.9426 -0.3334 0.0191
vn 0.0948 -0.0562 0.9939
vn -0.2727 0.8963 0.3498
vn 0.3825 0.7028 -0.5998
vn 0.0353 0.0951 0.9948
vn 0.8611 0.1034 0.4977
s 1
f 1//1 16//2 2//3
f 2//3 16//2 3//4
f 4//5 1//1 5//6
f 1//1 7//7 6//8
f 6//8 8//9 5//6
f 8//9 6//8 7//7
f 7//7 1//1 2//3
f 11//10 8//9 7//7
f 12//11 2//3 13//12
f 13//12 2//3 3//4
f 2//3 12//11 11//13
f 12//11 13//12 14//14
f 4//5 5//6 8//9
f 15//15 4//5 8//9
f 17//16 15//15 11//13
f 18//17 3//4 16//2
f 1//1 4//5 16//2
f 14//14 13//12 19//18
f 11//13 12//11 17//16
f 20//19 21//20 16//2
f 21//20 22//21 23//22
f 24//23 16//2 21//20
f 25//24 26//25 27//26
f 20//19 16//2 28//27
f 15//15 29//28 30//29
f 29//28 31//30 30//29
f 4//5 28//27 16//2
f 4//5 15//15 30//29
f 32//31 15//15 17//16
f 33//32 27//26 26//25
f 35//33 27//26 36//34
f 37//35 27//26 35//33
f 33//32 38//36 27//26
f 26//25 39//37 33//32
f 34//38 39//37 26//25
f 40//39 39//37 34//38
f 41//40 42//41 88//42
f 88//42 34//43 43//44
f 44//45 35//33 36//34
f 45//46 38//36 33//32
f 46//47 47//48 45//46
f 48//49 44//45 36//34
f 34//43 88//42 49//50
f 88//42 42//41 49//50
f 50//51 45//46 33//32
f 33//32 39//37 51//52
f 40//39 52//53 39//37
f 53//54 52//53 40//39
f 49//50 42//41 53//55
f 50//51 54//56 45//46
f 45//46 55//57 46//47
f 56//58 44//45 48//49
f 57//59 53//55 42//41
f 59//60 56//58 48//49
f 59//60 61//61 56//58
f 42//41 58//62 57//59
f 66//63 51//52 62//64
f 51//52 39//37 62//64
f 52//53 53//54 63//65
f 53//54 64//66 63//65
f 57//59 58//62 65//67
f 54//56 66//63 45//46
f 45//46 66//63 67//68
f 45//46 67//68 59//60
f 55//57 45//46 59//60
f 64//66 68//69 63//65
f 53//55 57//59 69//70
f 65//67 58//62 70//71
f 60//72 71//73 58//74
f 62//64 68//69 66//63
f 66//63 72//75 67//68
f 66//63 68//69 72//75
f 73//76 71//73 60//72
f 75//77 21//20 31//30
f 21//20 75//77 22//21
f 31//30 21//20 20//19
f 16//2 78//78 18//17
f 79//79 25//24 80//80
f 79//79 26//25 25//24
f 31//30 29//28 81//81
f 76//82 82//83 29//28
f 81//84 82//83 76//82
f 76//82 29//28 77//85
f 29//28 15//15 77//85
f 32//31 77//85 15//15
f 83//86 18//17 78//78
f 27//26 37//35 25//24
f 84//87 85//88 86//89
f 26//25 87//90 34//38
f 89//91 88//42 43//44
f 34//43 90//92 43//44
f 91//93 69//70 57//59
f 65//67 70//71 91//94
f 64//66 91//95 68//69
f 91//95 92//96 68//69
f 71//73 73//76 70//71
f 67//68 93//97 59//60
f 91//94 70//71 73//76
f 94//98 95//99 96//100
f 61//61 59//60 97//101
f 31//30 74//102 75//77
f 98//103 75//77 74//102
f 98//103 83//86 75//77
f 76//82 77//85 99//104
f 78//78 75//77 83//86
f 146//105 100//106 25//24
f 80//80 100//107 101//108
f 37//35 146//105 25//24
f 146//105 37//35 102//109
f 85//88 84//87 103//110
f 104//111 105//112 89//91
f 106//113 107//114 43//44
f 80//80 108//115 79//79
f 113//116 114//117 74//102
f 117//118 118//118 119//118
f 106//113 43//44 90//92
f 104//111 89//91 43//44
f 113//116 74//102 123//119
f 122//120 113//116 123//119
f 124//121 125//122 126//123
f 74//102 31//30 123//119
f 81//81 127//124 123//119
f 81//84 128//125 129//126
f 132//127 133//127 134//127
f 136//128 137//128 138//128
f 81//81 123//119 31//30
f 77//85 139//129 99//104
f 76//82 128//125 81//84
f 140//130 72//75 68//69
f 91//95 141//131 92//96
f 141//131 142//132 92//96
f 92//96 143//133 68//69
f 97//101 59//60 93//97
f 93//97 144//134 97//101
f 101//108 100//107 98//103
f 145//135 146//105 147//136
f 145//135 100//106 146//105
f 102//109 122//120 146//105
f 80//80 101//108 108//115
f 102//109 113//116 122//120
f 101//108 98//103 74//102
f 100//107 148//137 98//103
f 148//137 135//138 98//103
f 151//139 149//140 122//120
f 152//141 153//142 148//143
f 148//143 150//144 152//141
f 154//145 155//145 156//145
f 123//119 151//139 122//120
f 135//138 157//146 98//103
f 130//147 131//148 159//149
f 158//150 159//149 160//151
f 158//150 161//152 159//149
f 157//146 183//153 161//152
f 183//153 157//146 135//138
f 130//147 159//149 162//154
f 91//94 73//76 144//155
f 91//94 144//155 163//156
f 68//69 143//133 140//130
f 143//133 164//157 140//130
f 144//134 93//97 165//158
f 143//133 167//159 164//157
f 166//160 142//132 141//131
f 166//160 168//161 142//132
f 141//131 169//162 166//160
f 164//157 170//163 95//99
f 167//159 171//164 164//157
f 95//99 170//163 96//100
f 172//165 170//163 173//166
f 174//167 175//168 145//135
f 148//143 176//169 150//144
f 175//168 176//169 148//143
f 145//135 175//168 100//106
f 122//120 177//170 178//171
f 149//140 177//170 122//120
f 147//136 179//172 174//167
f 147//136 146//105 179//172
f 179//172 146//105 122//120
f 177//170 181//173 178//171
f 182//174 183//153 153//142
f 153//142 152//141 182//174
f 184//175 182//174 152//141
f 183//153 159//149 161//152
f 185//176 183//153 182//174
f 185//176 187//177 183//153
f 183//153 186//178 159//149
f 159//149 186//178 162//154
f 183//153 187//177 186//178
f 187//177 188//179 186//178
f 185//176 189//180 187//177
f 187//177 189//180 188//179
f 126//123 125//122 190//181
f 190//181 125//122 191//182
f 192//183 190//181 191//182
f 184//175 193//184 182//174
f 162//154 186//178 194//185
f 194//185 186//178 195//186
f 193//184 184//175 195//186
f 196//187 185//176 182//174
f 193//184 195//186 197//188
f 197//188 186//178 188//179
f 195//186 186//178 197//188
f 197//188 185//176 196//187
f 166//160 165//158 173//166
f 164//157 171//164 198//189
f 198//189 170//163 164//157
f 198//189 199//190 170//163
f 173//166 170//163 199//190
f 167//159 200//191 171//164
f 201//192 202//193 198//189
f 202//193 199//190 198//189
f 203//194 173//166 199//190
f 166//160 200//195 168//161
f 202//193 201//192 203//194
f 166//160 173//166 204//196
f 201//192 205//197 203//194
f 205//197 173//166 203//194
f 204//196 200//195 166//160
f 200//195 204//196 201//192
f 204//196 173//166 205//197
f 198//189 200//195 201//192
f 165//158 93//97 173//166
f 206//198 176//169 175//168
f 207//199 174//167 179//172
f 175//168 174//167 208//200
f 209//201 180//202 210//203
f 178//204 210//203 180//202
f 212//205 206//198 175//168
f 211//206 206//198 212//205
f 178//171 181//173 206//198
f 206//198 211//206 178//171
f 185//176 197//188 188//179
f 174//167 213//207 208//200
f 214//208 212//205 175//168
f 210//203 216//209 209//201
f 208//200 214//208 175//168
f 208//200 215//210 214//208
f 216//209 212//205 214//208
f 174//167 217//211 213//207
f 207//199 217//211 174//167
f 209//201 216//209 217//211
f 214//208 215//210 213//207
f 214//208 219//212 216//209
f 216//209 218//213 217//211
f 213//207 217//211 220//214
f 219//212 214//208 221//215
f 220//214 221//215 213//207
f 213//207 221//215 214//208
f 220//214 217//211 218//213
f 216//209 219//212 218//213
f 222//216 220//214 218//213
f 220//214 223//217 221//215
f 221//215 223//217 219//212
f 220//214 222//216 223//217
f 218//213 219//212 223//217
l 120 121
l 111 112
l 115 116
l 9 10
l 109 110
