# Blender v2.78 (sub 0) OBJ File: 'exporter.blend'
# www.blender.org
o FJ1366.obj_grp1.107
v -0.081098 -0.633128 7.168804
v -0.079592 -0.633615 7.168280
v -0.079124 -0.633323 7.169815
v -0.077366 -0.632146 7.169819
v -0.081164 -0.633391 7.169819
v -0.080250 -0.633898 7.170814
v -0.081323 -0.632635 7.170762
v -0.081094 -0.633118 7.168833
v -0.081049 -0.632513 7.170098
v -0.080181 -0.633834 7.170654
v -0.080237 -0.633865 7.170805
v -0.079292 -0.634076 7.170241
v -0.078748 -0.633344 7.170757
v -0.078764 -0.633832 7.169349
v -0.078748 -0.633344 7.170757
v -0.079292 -0.634076 7.170241
v -0.077366 -0.632146 7.169819
v -0.080564 -0.631068 7.168605
v -0.075731 -0.623709 7.168291
v -0.080237 -0.631588 7.171274
v -0.079219 -0.626034 7.170294
v -0.076738 -0.623691 7.171462
v -0.076738 -0.623691 7.171462
v -0.076738 -0.623691 7.171462
v -0.076216 -0.625682 7.168457
v -0.077366 -0.632146 7.169819
v -0.076738 -0.623691 7.171462
v -0.077366 -0.632146 7.169819
v -0.076216 -0.625682 7.168457
v -0.076738 -0.623691 7.171462
v -0.069295 -0.628682 7.172542
v -0.075778 -0.622956 7.170629
v -0.075261 -0.622889 7.169396
v -0.068658 -0.628267 7.169392
v -0.075735 -0.622748 7.170805
v -0.075162 -0.622661 7.169385
v -0.075735 -0.622748 7.170805
v -0.074066 -0.623917 7.171509
v -0.075713 -0.623710 7.168317
v -0.076738 -0.623691 7.171462
v -0.070666 -0.629482 7.170906
v -0.069295 -0.628682 7.172542
v -0.076216 -0.625682 7.168457
v -0.069494 -0.626836 7.171965
v -0.069053 -0.626451 7.170442
v -0.068762 -0.628206 7.169126
v -0.070773 -0.629475 7.170898
v -0.076216 -0.625682 7.168457
v -0.061381 -0.629977 7.173306
v -0.059012 -0.629506 7.170235
v -0.057921 -0.631896 7.172065
v -0.057892 -0.631916 7.172072
v -0.058536 -0.628281 7.171290
v -0.046279 -0.635110 7.174657
v -0.046157 -0.631928 7.175682
v -0.045960 -0.634773 7.176132
v -0.046473 -0.634185 7.176740
v -0.046433 -0.634181 7.176833
v -0.045353 -0.633677 7.173952
v -0.044975 -0.633669 7.175766
vn 0.5171 -0.8559 -0.0094
vn 0.0853 -0.7124 -0.6965
vn 0.6785 -0.4644 -0.5692
vn -0.7628 -0.6453 -0.0413
vn -0.3382 -0.9410 0.0122
vn -0.9816 0.0212 0.1899
vn -0.9783 0.2006 -0.0516
vn -0.7572 -0.4172 -0.5026
vn 0.2540 -0.6683 0.6992
vn 0.7094 -0.6680 0.2245
vn 0.7094 -0.6681 0.2245
vn 0.7014 -0.6756 0.2272
vn 0.7175 -0.6603 0.2218
vn -0.7200 0.2415 -0.6506
vn -0.4013 0.3970 -0.8255
vn -0.8904 0.4519 0.0541
vn -0.6168 0.2501 0.7463
vn -0.0553 -0.0642 0.9964
vn 0.1452 -0.1269 0.9812
vn -0.4412 0.0192 0.8972
vn -0.5905 0.2432 0.7696
vn 0.3842 -0.2044 0.9003
vn 0.4962 -0.1741 -0.8506
vn 0.9617 -0.1197 0.2467
vn 0.2672 0.5158 0.8140
vn 0.0188 0.2930 0.9559
vn 0.2002 0.6191 0.7593
vn -0.6327 0.7160 -0.2949
vn 0.0559 -0.0919 -0.9942
vn -0.6731 0.7181 -0.1767
vn -0.7204 0.6932 0.0240
vn 0.4966 0.8334 0.2424
vn 0.5594 0.7908 -0.2482
vn 0.4905 0.8145 0.3097
vn 0.4390 0.4900 -0.7531
vn 0.2093 0.5477 -0.8101
vn -0.5613 -0.6424 0.5217
vn -0.3423 -0.6525 0.6761
vn -0.2802 -0.7159 0.6395
vn -0.6281 -0.6943 0.3512
vn 0.1088 0.6685 0.7357
vn 0.3953 0.8785 -0.2682
vn -0.1087 -0.7345 -0.6699
vn -0.1239 -0.7652 -0.6317
vn -0.1733 -0.6928 -0.7000
vn -0.3010 -0.6413 0.7058
vn -0.2955 -0.8570 0.4221
vn 0.0158 -0.5911 -0.8064
vn 0.1750 -0.0088 -0.9845
vn 0.2678 0.9225 -0.2781
vn 0.4812 0.8103 0.3346
vn 0.1955 -0.9428 -0.2701
vn 0.7348 -0.0433 -0.6769
vn 0.3378 -0.8382 0.4281
vn -0.3455 -0.8738 0.3423
vn 0.2328 -0.0755 0.9696
vn 0.9539 0.0216 0.2994
s 1
f 3//1 2//2 4//3
f 5//4 6//5 7//6
f 5//4 7//6 8//7
f 2//2 6//5 1//8
f 1//8 6//5 5//4
f 2//2 3//1 6//5
f 11//9 12//9 13//9
f 14//10 15//11 16//12
f 15//11 14//10 17//13
f 18//14 1//8 8//7
f 2//2 1//8 18//14
f 2//2 18//14 19//15
f 8//7 7//6 18//14
f 7//6 21//16 18//14
f 7//6 20//17 21//16
f 10//18 22//19 9//20
f 21//16 19//15 18//14
f 23//21 21//16 20//17
f 22//19 10//18 26//22
f 2//2 25//23 4//3
f 27//24 28//24 29//24
f 19//15 25//23 2//2
f 30//25 31//26 32//27
f 19//15 21//16 33//28
f 19//15 34//29 25//23
f 33//28 21//16 35//30
f 21//16 24//31 35//30
f 38//32 36//33 37//34
f 39//35 36//33 34//36
f 40//37 41//38 42//39
f 41//38 40//37 43//40
f 31//26 44//41 32//27
f 44//41 36//33 38//32
f 34//36 36//33 45//42
f 46//43 47//44 48//45
f 44//41 45//42 36//33
f 49//46 42//39 41//38
f 44//41 31//26 49//46
f 49//46 41//38 51//47
f 47//44 46//43 52//48
f 50//49 34//36 45//42
f 53//50 50//49 45//42
f 53//50 45//42 44//41
f 44//41 55//51 53//50
f 54//52 52//48 46//43
f 59//53 54//52 46//43
f 46//43 50//49 59//53
f 56//54 49//46 51//47
f 57//55 58//56 49//46
f 50//49 53//50 59//53
f 58//56 44//41 49//46
f 56//54 51//47 54//52
f 57//55 49//46 56//54
f 58//56 55//51 44//41
f 59//53 53//50 55//51
f 56//54 54//52 60//57
f 60//57 58//56 56//54
f 60//57 54//52 59//53
f 60//57 55//51 58//56
f 55//51 60//57 59//53
