# Blender v2.78 (sub 0) OBJ File: 'exporter.blend'
# www.blender.org
o FJ1379.obj_grp1.119
v -0.203384 -0.736266 7.111477
v -0.203063 -0.734530 7.105741
v -0.203289 -0.734267 7.111801
v -0.202918 -0.733016 7.107675
v -0.199254 -0.741618 7.101931
v -0.198671 -0.741186 7.099502
v -0.202429 -0.738078 7.111845
v -0.202810 -0.736514 7.113381
v -0.199786 -0.740585 7.111891
v -0.201966 -0.736709 7.113931
v -0.202234 -0.733826 7.105365
v -0.202752 -0.735527 7.114009
v -0.202244 -0.734123 7.113446
v -0.198955 -0.737020 7.111558
v -0.201561 -0.733763 7.112546
v -0.202663 -0.735571 7.113966
v -0.201641 -0.735730 7.114245
v -0.201182 -0.734902 7.113689
v -0.195010 -0.741391 7.098117
v -0.201803 -0.732968 7.107310
v -0.202446 -0.732791 7.108659
v -0.202587 -0.733349 7.111620
v -0.194420 -0.749490 7.101961
v -0.196463 -0.746459 7.107724
v -0.196666 -0.742931 7.096964
v -0.195803 -0.743357 7.110291
v -0.194418 -0.743287 7.109399
v -0.194245 -0.743382 7.109365
v -0.189818 -0.746697 7.100885
v -0.192229 -0.748138 7.092987
v -0.194724 -0.747350 7.096923
v -0.187330 -0.748723 7.092076
v -0.190435 -0.747296 7.092452
v -0.191001 -0.752612 7.096811
v -0.187293 -0.757004 7.099420
v -0.189554 -0.754419 7.103802
v -0.189144 -0.752376 7.106076
v -0.183579 -0.755792 7.104074
v -0.187267 -0.751925 7.105720
v -0.187194 -0.751184 7.105509
v -0.186642 -0.753036 7.088682
v -0.182230 -0.754075 7.085719
v -0.182930 -0.756788 7.087862
v -0.183219 -0.759602 7.095047
v -0.181571 -0.761433 7.099045
v -0.181498 -0.756405 7.085364
v -0.179353 -0.761967 7.100695
v -0.181302 -0.755957 7.102971
v -0.182418 -0.752283 7.087795
v -0.182752 -0.752541 7.092075
v -0.178790 -0.755306 7.095470
v -0.176029 -0.760330 7.083968
v -0.176735 -0.764275 7.098466
v -0.170373 -0.760318 7.079425
v -0.173773 -0.762571 7.100992
v -0.173150 -0.757789 7.081265
v -0.176789 -0.755289 7.085118
v -0.174683 -0.757561 7.090174
v -0.175073 -0.765369 7.096073
v -0.175772 -0.758989 7.082122
v -0.175676 -0.759515 7.100899
v -0.170261 -0.762729 7.081510
v -0.165391 -0.766232 7.099273
v -0.168781 -0.758202 7.081350
v -0.169730 -0.760103 7.093484
v -0.169736 -0.762112 7.099071
v -0.167003 -0.769000 7.095133
v -0.162532 -0.768679 7.098117
v -0.165224 -0.765134 7.081517
v -0.166473 -0.760969 7.089270
v -0.162944 -0.759801 7.080841
v -0.161861 -0.762438 7.076667
v -0.159676 -0.763748 7.076259
v -0.162321 -0.763281 7.094000
v -0.164147 -0.764677 7.098443
v -0.156397 -0.772355 7.093684
v -0.160879 -0.765615 7.079216
v -0.154208 -0.763196 7.075263
v -0.155111 -0.765779 7.095083
v -0.156158 -0.761267 7.077466
v -0.154804 -0.772572 7.094718
v -0.157700 -0.768385 7.098323
v -0.154060 -0.767593 7.079185
v -0.153240 -0.765111 7.075431
v -0.152965 -0.767656 7.097209
v -0.153034 -0.762399 7.082264
v -0.140952 -0.774610 7.096106
v -0.149293 -0.769854 7.097898
v -0.145810 -0.767896 7.095485
v -0.147698 -0.774004 7.094064
v -0.142258 -0.772866 7.097649
v -0.146421 -0.766448 7.075361
v -0.144270 -0.763342 7.075214
v -0.143853 -0.764620 7.074651
v -0.138153 -0.771595 7.098351
v -0.142015 -0.762984 7.076781
v -0.140793 -0.769998 7.081308
v -0.142521 -0.766308 7.075090
v -0.138099 -0.767753 7.076843
v -0.141649 -0.765887 7.089494
v -0.132760 -0.769694 7.097381
v -0.125616 -0.768145 7.096101
v -0.136174 -0.775171 7.095468
v -0.128921 -0.774181 7.099031
v -0.136841 -0.764109 7.075778
v -0.135951 -0.765770 7.075537
v -0.124426 -0.764311 7.079323
v -0.131609 -0.771069 7.084208
v -0.124240 -0.770051 7.099421
v -0.124753 -0.771945 7.100464
v -0.132710 -0.767458 7.076929
v -0.129945 -0.765020 7.077024
v -0.131905 -0.775222 7.095900
v -0.131597 -0.765577 7.087710
v -0.122787 -0.773201 7.091958
v -0.124551 -0.767218 7.078893
v -0.117973 -0.765643 7.091982
v -0.117036 -0.773591 7.100654
v -0.123151 -0.769510 7.083298
v -0.121088 -0.764110 7.081069
v -0.116729 -0.773958 7.098092
v -0.120028 -0.766015 7.080234
v -0.118632 -0.767058 7.081166
v -0.116438 -0.772015 7.102198
v -0.116708 -0.771971 7.091718
v -0.107095 -0.772231 7.099247
v -0.099957 -0.767782 7.106015
v -0.112399 -0.764444 7.083737
v -0.107641 -0.772544 7.101121
v -0.108701 -0.769627 7.091533
v -0.107062 -0.765328 7.086583
v -0.100795 -0.765272 7.100010
v -0.101583 -0.768619 7.105731
v -0.105452 -0.766369 7.088369
v -0.098409 -0.762769 7.092165
v -0.094495 -0.762733 7.095465
v -0.100050 -0.763678 7.090514
v -0.093352 -0.768483 7.107147
v -0.093427 -0.764879 7.095559
v -0.095492 -0.766666 7.106202
v -0.095380 -0.763460 7.093509
v -0.093781 -0.764789 7.095315
v -0.092298 -0.768908 7.105173
v -0.093124 -0.763183 7.097594
v -0.092453 -0.768184 7.107221
v -0.093160 -0.769143 7.106352
v -0.092042 -0.766838 7.106660
v -0.092142 -0.764334 7.101127
v -0.093740 -0.763126 7.095735
v -0.093530 -0.763652 7.095402
v -0.091728 -0.768248 7.106672
v -0.092466 -0.768173 7.107052
v -0.091288 -0.768130 7.104916
v -0.092681 -0.764932 7.096893
v -0.092141 -0.763985 7.098239
v -0.091217 -0.766530 7.104352
v -0.091557 -0.767442 7.106581
v -0.093165 -0.763366 7.096442
v -0.092442 -0.763610 7.098781
v -0.092477 -0.763648 7.098789
vn -0.9674 -0.2492 0.0444
vn -0.6866 0.7134 -0.1403
vn -0.9060 0.1057 -0.4098
vn -0.9132 0.3470 0.2138
vn -0.7993 -0.5641 0.2072
vn -0.2943 -0.6159 0.7308
vn -0.7870 -0.3862 0.4811
vn -0.8727 -0.4479 -0.1946
vn -0.8369 -0.1055 -0.5371
vn -0.2474 0.7390 -0.6267
vn -0.5498 0.0813 0.8313
vn -0.2150 0.6765 0.7044
vn 0.5707 0.4539 0.6843
vn 0.8118 0.5270 0.2514
vn 0.4658 0.8280 0.3121
vn 0.0821 0.2127 0.9737
vn -0.2615 -0.4739 0.8408
vn 0.1698 0.0924 0.9811
vn 0.3576 0.9178 -0.1726
vn 0.3811 0.7799 -0.4965
vn -0.0907 0.9898 0.1101
vn -0.3375 0.9063 0.2544
vn -0.7859 -0.6167 -0.0449
vn -0.6615 -0.6813 0.3135
vn -0.6050 0.1781 -0.7761
vn 0.3493 -0.1645 0.9225
vn 0.5332 0.0165 0.8459
vn 0.8175 0.5269 0.2324
vn 0.7278 0.6754 0.1187
vn -0.7108 -0.1748 -0.6814
vn -0.8201 -0.4770 -0.3161
vn 0.5635 0.8167 -0.1239
vn 0.0202 0.7132 -0.7006
vn -0.7509 -0.6160 -0.2382
vn -0.6644 -0.7466 -0.0343
vn -0.5396 -0.7444 0.3934
vn -0.0441 -0.4946 0.8680
vn 0.5536 0.1923 0.8103
vn 0.4276 0.0236 0.9036
vn 0.7029 0.3928 0.5930
vn -0.6935 -0.2811 -0.6634
vn -0.3019 0.3895 -0.8702
vn -0.6122 -0.7574 -0.2271
vn -0.5504 -0.8278 0.1092
vn -0.2920 -0.7427 0.6026
vn 0.5910 0.4824 0.6465
vn 0.4021 0.8708 -0.2829
vn 0.5884 0.8070 0.0496
vn -0.6422 -0.6599 -0.3900
vn -0.5933 -0.3702 -0.7149
vn 0.5608 0.8130 0.1568
vn -0.5293 -0.7340 -0.4255
vn -0.3803 -0.8751 0.2994
vn 0.1536 -0.2123 0.9651
vn -0.0941 0.6503 -0.7538
vn 0.4153 0.9097 -0.0020
vn 0.4656 0.8783 0.1087
vn -0.4583 -0.8840 -0.0927
vn -0.5123 -0.2911 -0.8080
vn -0.3302 -0.1333 -0.9345
vn 0.5306 0.5885 0.6100
vn -0.4382 -0.7466 -0.5006
vn 0.4207 0.8922 0.1642
vn 0.4241 0.8688 0.2558
vn -0.3326 -0.9397 0.0800
vn -0.1224 -0.6937 0.7098
vn 0.1568 -0.0761 0.9847
vn 0.2435 0.9630 -0.1155
vn 0.3403 0.9218 0.1860
vn 0.2685 0.9444 0.1895
vn -0.3398 -0.8460 -0.4108
vn -0.2686 0.1129 -0.9566
vn -0.2431 -0.4372 -0.8659
vn 0.3340 0.9047 0.2644
vn 0.3358 0.5875 0.7363
vn -0.2953 -0.8310 -0.4715
vn -0.0755 0.3047 -0.9494
vn 0.2394 0.8894 0.3894
vn 0.1125 0.9446 -0.3084
vn -0.2642 -0.9610 -0.0815
vn -0.1924 -0.9264 0.3238
vn 0.1021 0.0221 0.9945
vn -0.2024 -0.8684 -0.4526
vn -0.1468 -0.5018 -0.8524
vn 0.1540 0.6641 0.7316
vn 0.1648 0.9601 0.2261
vn -0.0996 -0.9070 0.4091
vn 0.0544 0.1997 0.9783
vn 0.1222 0.8607 0.4942
vn -0.1086 -0.4794 0.8709
vn -0.0779 -0.6406 -0.7639
vn 0.0799 0.7276 -0.6813
vn 0.0518 0.0828 -0.9952
vn -0.1439 -0.9868 -0.0736
vn -0.0827 0.2893 0.9536
vn -0.0395 -0.9198 -0.3903
vn 0.0278 -0.5128 -0.8580
vn 0.1188 0.9886 -0.0930
vn 0.0326 -0.8155 -0.5779
vn 0.0487 0.9412 0.3342
vn -0.0742 0.7750 0.6276
vn -0.1146 0.8936 0.4339
vn -0.0262 -0.9994 0.0244
vn -0.0627 -0.7270 0.6838
vn 0.1694 -0.6463 -0.7440
vn 0.1634 0.6382 -0.7524
vn 0.1547 -0.1354 -0.9786
vn 0.1872 0.8520 -0.4889
vn 0.0591 -0.9196 -0.3885
vn -0.1561 0.7022 0.6947
vn -0.1957 0.1272 0.9724
vn 0.2848 0.2376 -0.9287
vn 0.0167 -0.9998 0.0108
vn -0.0030 0.9754 0.2203
vn 0.1267 -0.9381 -0.3224
vn 0.2482 -0.5542 -0.7945
vn -0.1108 0.9611 0.2528
vn 0.0206 -0.8891 0.4572
vn 0.1787 -0.8783 -0.4435
vn 0.0467 0.9900 -0.1334
vn 0.1427 -0.9859 -0.0868
vn 0.3834 0.0277 -0.9232
vn 0.3697 -0.5841 -0.7226
vn -0.1387 -0.3674 0.9197
vn 0.2124 -0.9075 -0.3623
vn 0.2668 -0.9333 -0.2405
vn -0.2202 0.4310 0.8751
vn 0.3788 0.3902 -0.8392
vn 0.1480 -0.9778 0.1484
vn 0.3113 -0.8491 -0.4267
vn 0.4926 -0.2700 -0.8273
vn -0.1708 0.9172 0.3599
vn -0.2081 -0.0662 0.9759
vn 0.4311 -0.6739 -0.5999
vn 0.2127 0.9098 -0.3565
vn 0.2328 0.9561 -0.1779
vn 0.4859 0.1865 -0.8539
vn -0.0355 -0.3498 0.9362
vn 0.4377 -0.7734 -0.4586
vn -0.1047 0.6845 0.7215
vn 0.6043 0.2723 -0.7488
vn 0.6035 -0.1781 -0.7772
vn 0.4693 -0.8755 -0.1150
vn -0.1300 0.9408 0.3130
vn 0.1069 0.3256 0.9395
vn 0.3316 0.6383 0.6947
vn 0.6265 0.7220 -0.2936
vn 0.7922 0.2150 -0.5712
vn 0.2715 -0.8955 0.3526
vn 0.7076 -0.4911 0.5080
vn 0.2837 -0.6833 0.6728
vn 0.8523 -0.5172 -0.0782
vn 0.8636 -0.3119 -0.3961
vn 0.9312 0.3213 -0.1721
vn 0.4634 0.8591 0.2173
vn 0.9311 0.3492 0.1053
vn 0.8185 0.1445 0.5560
vn 0.4976 0.8656 -0.0563
vn 0.7384 0.6743 0.0016
vn 0.2287 0.9410 0.2495
s 1
f 1//1 4//2 2//3
f 1//1 3//4 4//2
f 7//5 9//6 8//7
f 2//3 5//8 1//1
f 6//9 5//8 2//3
f 2//3 11//10 6//9
f 7//5 8//7 1//1
f 1//1 12//11 3//4
f 12//11 13//12 3//4
f 18//13 14//14 15//15
f 1//1 8//7 12//11
f 13//12 12//11 16//16
f 10//17 17//18 16//16
f 8//7 10//17 12//11
f 13//12 16//16 17//18
f 18//13 13//12 17//18
f 8//7 9//6 10//17
f 4//2 11//10 2//3
f 20//19 11//10 4//2
f 20//19 19//20 11//10
f 4//2 21//21 20//19
f 20//19 15//15 14//14
f 14//14 19//20 20//19
f 4//2 3//4 22//22
f 21//21 4//2 22//22
f 3//4 13//12 22//22
f 13//12 15//15 22//22
f 20//19 21//21 15//15
f 15//15 21//21 22//22
f 13//12 18//13 15//15
f 23//23 1//1 5//8
f 7//5 24//24 9//6
f 6//9 11//10 25//25
f 9//6 26//26 10//17
f 26//26 27//27 17//18
f 17//18 28//28 14//14
f 26//26 17//18 10//17
f 19//20 14//14 29//29
f 14//14 18//13 17//18
f 30//30 31//31 25//25
f 25//25 31//31 6//9
f 5//8 6//9 31//31
f 5//8 31//31 23//23
f 7//5 1//1 23//23
f 24//24 7//5 23//23
f 29//29 32//32 19//20
f 19//20 25//25 11//10
f 19//20 33//33 25//25
f 29//29 14//14 28//28
f 34//34 35//35 23//23
f 23//23 35//35 36//36
f 23//23 31//31 34//34
f 24//24 23//23 36//36
f 36//36 9//6 24//24
f 37//37 9//6 36//36
f 9//6 37//37 26//26
f 37//37 38//38 39//39
f 37//37 39//39 26//26
f 39//39 40//40 26//26
f 29//29 28//28 40//40
f 32//32 33//33 19//20
f 27//27 26//26 40//40
f 34//34 31//31 41//41
f 30//30 25//25 42//42
f 30//30 41//41 31//31
f 25//25 33//33 42//42
f 34//34 44//43 35//35
f 36//36 35//35 45//44
f 47//45 37//37 36//36
f 39//39 38//38 48//46
f 30//30 42//42 41//41
f 32//32 49//47 33//33
f 49//47 42//42 33//33
f 49//47 32//32 50//48
f 29//29 50//48 32//32
f 47//45 36//36 45//44
f 44//43 34//34 43//49
f 44//43 45//44 35//35
f 43//49 41//41 46//50
f 46//50 41//41 42//42
f 41//41 43//49 34//34
f 29//29 40//40 48//46
f 48//46 40//40 39//39
f 51//51 50//48 29//29
f 52//52 44//43 43//49
f 53//53 47//45 45//44
f 48//46 38//38 55//54
f 56//55 42//42 49//47
f 57//56 56//55 49//47
f 49//47 50//48 58//57
f 51//51 58//57 50//48
f 44//43 59//58 45//44
f 45//44 59//58 53//53
f 59//58 44//43 52//52
f 55//54 37//37 47//45
f 55//54 38//38 37//37
f 60//59 46//50 42//42
f 42//42 54//60 60//59
f 52//52 46//50 60//59
f 43//49 46//50 52//52
f 48//46 51//51 29//29
f 51//51 48//46 61//61
f 61//61 48//46 55//54
f 57//56 49//47 58//57
f 62//62 59//58 52//52
f 62//62 52//52 60//59
f 54//60 42//42 56//55
f 51//51 65//63 58//57
f 51//51 61//61 66//64
f 67//65 53//53 59//58
f 67//65 59//58 62//62
f 47//45 68//66 55//54
f 55//54 68//66 63//67
f 60//59 54//60 62//62
f 63//67 61//61 55//54
f 56//55 57//56 64//68
f 58//57 64//68 57//56
f 70//69 64//68 58//57
f 64//68 70//69 71//70
f 58//57 65//63 70//69
f 65//63 51//51 66//64
f 62//62 69//71 67//65
f 68//66 47//45 53//53
f 68//66 53//53 67//65
f 56//55 72//72 54//60
f 73//73 62//62 54//60
f 65//63 74//74 70//69
f 75//75 61//61 63//67
f 75//75 66//64 61//61
f 54//60 72//72 73//73
f 77//76 62//62 73//73
f 69//71 62//62 77//76
f 56//55 78//77 72//72
f 66//64 74//74 65//63
f 75//75 74//74 66//64
f 75//75 79//78 74//74
f 78//77 56//55 80//79
f 80//79 64//68 71//70
f 80//79 56//55 64//68
f 76//80 81//81 67//65
f 76//80 67//65 69//71
f 63//67 68//66 82//82
f 63//67 82//82 75//75
f 68//66 67//65 81//81
f 83//83 76//80 69//71
f 77//76 73//73 83//83
f 73//73 84//84 83//83
f 77//76 83//83 69//71
f 75//75 85//85 79//78
f 70//69 79//78 71//70
f 86//86 71//70 79//78
f 70//69 74//74 79//78
f 80//79 71//70 86//86
f 81//81 87//87 68//66
f 88//88 85//85 82//82
f 82//82 85//85 75//75
f 89//89 79//78 85//85
f 78//77 73//73 72//72
f 73//73 78//77 84//84
f 68//66 87//87 91//90
f 91//90 82//82 68//66
f 83//83 84//84 92//91
f 78//77 93//92 94//93
f 93//92 78//77 80//79
f 83//83 90//94 76//80
f 90//94 81//81 76//80
f 90//94 87//87 81//81
f 91//90 88//88 82//82
f 84//84 94//93 92//91
f 88//88 95//95 85//85
f 85//85 95//95 89//89
f 84//84 78//77 94//93
f 83//83 97//96 90//94
f 98//97 92//91 94//93
f 97//96 83//83 92//91
f 79//78 89//89 86//86
f 96//98 93//92 80//79
f 80//79 86//86 96//98
f 98//97 99//99 92//91
f 100//100 101//101 102//102
f 100//100 86//86 89//89
f 89//89 101//101 100//100
f 96//98 86//86 100//100
f 97//96 103//103 90//94
f 103//103 87//87 90//94
f 104//104 91//90 87//87
f 95//95 88//88 91//90
f 101//101 89//89 95//95
f 111//105 99//99 98//97
f 92//91 99//99 97//96
f 105//106 94//93 93//92
f 93//92 96//98 105//106
f 106//107 111//105 98//97
f 106//107 98//97 94//93
f 94//93 105//106 106//107
f 105//106 96//98 107//108
f 108//109 97//96 99//99
f 109//110 101//101 95//95
f 110//111 95//95 91//90
f 112//112 106//107 105//106
f 97//96 108//109 113//113
f 113//113 103//103 97//96
f 87//87 103//103 104//104
f 109//110 95//95 110//111
f 99//99 111//105 108//109
f 114//114 96//98 100//100
f 114//114 100//100 102//102
f 113//113 108//109 115//115
f 112//112 105//106 107//108
f 111//105 106//107 116//116
f 114//114 102//102 117//117
f 103//103 113//113 104//104
f 118//118 104//104 113//113
f 104//104 110//111 91//90
f 111//105 116//116 119//119
f 108//109 111//105 119//119
f 106//107 112//112 116//116
f 107//108 96//98 114//114
f 107//108 114//114 120//120
f 120//120 114//114 117//117
f 115//115 121//121 113//113
f 113//113 121//121 118//118
f 119//119 115//115 108//109
f 109//110 102//102 101//101
f 122//122 116//116 112//112
f 122//122 112//112 107//108
f 116//116 123//123 119//119
f 104//104 118//118 124//124
f 116//116 122//122 123//123
f 125//125 121//121 115//115
f 121//121 125//125 126//126
f 124//124 110//111 104//104
f 125//125 115//115 119//119
f 124//124 127//127 110//111
f 107//108 128//128 122//122
f 128//128 107//108 120//120
f 129//129 118//118 121//121
f 125//125 119//119 130//130
f 119//119 123//123 130//130
f 125//125 130//130 126//126
f 128//128 123//123 122//122
f 123//123 128//128 131//131
f 102//102 109//110 132//132
f 126//126 129//129 121//121
f 127//127 124//124 133//133
f 130//130 123//123 134//134
f 120//120 135//135 128//128
f 136//136 120//120 117//117
f 117//117 102//102 136//136
f 131//131 134//134 123//123
f 109//110 110//111 127//127
f 135//135 137//137 128//128
f 135//135 120//120 136//136
f 102//102 132//132 136//136
f 129//129 138//138 118//118
f 134//134 139//139 130//130
f 132//132 109//110 140//140
f 109//110 127//127 140//140
f 124//124 118//118 138//138
f 138//138 133//133 124//124
f 128//128 137//137 131//131
f 137//137 141//141 131//131
f 142//142 134//134 131//131
f 141//141 142//142 131//131
f 143//143 129//129 126//126
f 126//126 130//130 143//143
f 135//135 141//141 137//137
f 136//136 132//132 144//144
f 145//145 127//127 133//133
f 138//138 145//145 133//133
f 134//134 142//142 139//139
f 130//130 139//139 143//143
f 132//132 140//140 144//144
f 147//146 140//140 127//127
f 145//145 147//146 127//127
f 149//147 141//141 135//135
f 149//147 135//135 136//136
f 149//147 150//148 141//141
f 141//141 150//148 142//142
f 129//129 146//149 138//138
f 129//129 143//143 146//149
f 143//143 151//150 146//149
f 146//149 151//150 152//151
f 146//149 152//151 138//138
f 151//150 143//143 153//152
f 154//153 155//154 153//152
f 144//144 140//140 148//155
f 139//139 153//152 143//143
f 153//152 155//154 156//156
f 147//146 156//156 148//155
f 153//152 139//139 154//153
f 148//155 140//140 147//146
f 157//157 147//146 145//145
f 145//145 151//150 157//157
f 157//157 151//150 153//152
f 153//152 156//156 157//157
f 157//157 156//156 147//146
f 158//158 149//147 136//136
f 158//158 136//136 159//159
f 150//148 154//153 142//142
f 154//153 150//148 155//154
f 149//147 155//154 150//148
f 155//154 158//158 159//159
f 144//144 148//155 160//160
f 156//156 155//154 148//155
f 148//155 155//154 159//159
