# Blender v2.78 (sub 0) OBJ File: 'exporter.blend'
# www.blender.org
o FJ1361.obj_grp1.103
v -0.097498 -0.520709 7.168419
v -0.093790 -0.541268 7.171003
v -0.094678 -0.544543 7.172718
v -0.096911 -0.532817 7.171515
v -0.096295 -0.531812 7.169393
v -0.096344 -0.537118 7.171650
v -0.093766 -0.544761 7.173108
v -0.095528 -0.534934 7.173554
v -0.092646 -0.544864 7.174889
v -0.093910 -0.540526 7.170992
v -0.096244 -0.531700 7.169490
v -0.094256 -0.531299 7.169930
v -0.091936 -0.541351 7.172176
v -0.094060 -0.532090 7.172119
v -0.092596 -0.541623 7.173854
v -0.095718 -0.519571 7.169667
v -0.094060 -0.532090 7.172119
v -0.095852 -0.521594 7.167182
v -0.094356 -0.521586 7.167554
v -0.094324 -0.520133 7.169357
v -0.082502 -0.557040 7.173733
v -0.084711 -0.557969 7.173198
v -0.091787 -0.542814 7.174640
v -0.092646 -0.544864 7.174889
v -0.094060 -0.532090 7.172119
v -0.087244 -0.580361 7.179673
v -0.085421 -0.579469 7.178548
v -0.085508 -0.587702 7.176861
v -0.086821 -0.586346 7.179161
v -0.088555 -0.581290 7.180768
v -0.085775 -0.586795 7.180716
v -0.086683 -0.575975 7.180570
v -0.087105 -0.574867 7.181197
v -0.085990 -0.571323 7.179584
v -0.085149 -0.573412 7.177753
v -0.085669 -0.580370 7.181570
v -0.084356 -0.567032 7.176297
v -0.084651 -0.565060 7.176908
v -0.084899 -0.557863 7.173521
v -0.086261 -0.556250 7.175179
v -0.086095 -0.553916 7.176188
v -0.086381 -0.555990 7.175171
v -0.085021 -0.554399 7.176358
v -0.083404 -0.554516 7.175274
v -0.081143 -0.615969 7.172582
v -0.082949 -0.607427 7.173062
v -0.081960 -0.616714 7.169551
v -0.085538 -0.587380 7.176940
v -0.079355 -0.614806 7.169558
v -0.084666 -0.584349 7.177673
v -0.084115 -0.602284 7.174278
v -0.080353 -0.610864 7.174048
v -0.085202 -0.591322 7.179161
v -0.085202 -0.591322 7.179161
v -0.080005 -0.610240 7.174168
v -0.082855 -0.591984 7.178222
v -0.084200 -0.579877 7.180796
v -0.083704 -0.583206 7.178959
v -0.082855 -0.591984 7.178222
v -0.079451 -0.609469 7.172440
v -0.083700 -0.583352 7.178937
v -0.084668 -0.578388 7.178316
v -0.083736 -0.575805 7.179919
v -0.085406 -0.574395 7.178001
v -0.084451 -0.575809 7.178312
v -0.082448 -0.560515 7.177593
v -0.082057 -0.564575 7.175050
v -0.081639 -0.567685 7.177283
v -0.081554 -0.567654 7.177291
v -0.083609 -0.563957 7.175030
v -0.083610 -0.560335 7.177277
v -0.084268 -0.564749 7.176653
v -0.083609 -0.563957 7.175030
v -0.084660 -0.560816 7.176297
v -0.083665 -0.560014 7.177330
v -0.082181 -0.561901 7.175797
v -0.082006 -0.558511 7.176203
v -0.084865 -0.554681 7.176438
v -0.083407 -0.554540 7.175265
v -0.077586 -0.687277 7.171955
v -0.079865 -0.676320 7.171303
v -0.079115 -0.693620 7.173362
v -0.080777 -0.656559 7.170873
v -0.078597 -0.657169 7.171039
v -0.077998 -0.667108 7.169031
v -0.080908 -0.654038 7.170805
v -0.080475 -0.629234 7.167806
v -0.077823 -0.654807 7.170945
v -0.077827 -0.671293 7.172644
v -0.078252 -0.638118 7.170335
v -0.078252 -0.638118 7.170335
v -0.079624 -0.636668 7.171113
v -0.079793 -0.628817 7.171495
v -0.081462 -0.634766 7.170476
v -0.081462 -0.634766 7.170476
v -0.075584 -0.721989 7.178157
v -0.071432 -0.747294 7.182603
v -0.074675 -0.726912 7.181725
v -0.074034 -0.728208 7.181608
v -0.069358 -0.751504 7.185602
v -0.067435 -0.748616 7.183285
v -0.074870 -0.702376 7.176724
v -0.072710 -0.719452 7.178504
v -0.074757 -0.702538 7.176767
v -0.068705 -0.748489 7.181901
v -0.072710 -0.719452 7.178504
v -0.067455 -0.749848 7.183616
v -0.066236 -0.772518 7.182873
v -0.060030 -0.783061 7.180021
v -0.068601 -0.748894 7.181904
v -0.064495 -0.765441 7.181931
v -0.063908 -0.767507 7.183386
v -0.061077 -0.783728 7.181448
v -0.059438 -0.784139 7.180317
v -0.058889 -0.782657 7.180481
v -0.060312 -0.778607 7.181964
v -0.064495 -0.765441 7.181931
v -0.063908 -0.767507 7.183386
v -0.059210 -0.780273 7.182055
v -0.067582 -0.749690 7.183574
v -0.054199 -0.795099 7.183667
v -0.052694 -0.796736 7.182030
v -0.057293 -0.790055 7.181509
v -0.058436 -0.783202 7.183796
v -0.056779 -0.788792 7.183997
v -0.056734 -0.788843 7.184042
v -0.061122 -0.778434 7.183512
v -0.053808 -0.791937 7.180945
v -0.052725 -0.791345 7.182038
v -0.053808 -0.791937 7.180945
v -0.046062 -0.802715 7.183858
v -0.047360 -0.801904 7.180992
v -0.049311 -0.795884 7.183525
v -0.044876 -0.800904 7.181602
v -0.047360 -0.801904 7.180992
v -0.053808 -0.791937 7.180945
v -0.043670 -0.805903 7.183214
v -0.035034 -0.815215 7.176734
v -0.044876 -0.800904 7.181602
v -0.042552 -0.805259 7.179412
v -0.034625 -0.815867 7.176064
v -0.038393 -0.809403 7.181300
v -0.042876 -0.804899 7.179724
v -0.043159 -0.806040 7.182823
v -0.030578 -0.815253 7.176669
v -0.035976 -0.809740 7.177707
v -0.038346 -0.809503 7.181323
v -0.038369 -0.809420 7.177791
v -0.029775 -0.820594 7.171123
v -0.026973 -0.821874 7.168069
v -0.022555 -0.830238 7.163862
v -0.020643 -0.829551 7.160200
v -0.019959 -0.831057 7.162241
v -0.020163 -0.837366 7.153395
v -0.022657 -0.828259 7.161780
v -0.022833 -0.827896 7.161887
v -0.020567 -0.829678 7.160054
v -0.019774 -0.830770 7.162590
v -0.019656 -0.838795 7.151510
v -0.018052 -0.846611 7.142320
v -0.016928 -0.847813 7.143945
v -0.015757 -0.844422 7.148683
v -0.017008 -0.848103 7.143909
v -0.016162 -0.841040 7.147331
v -0.016031 -0.868631 7.112463
v -0.016544 -0.870181 7.113231
v -0.016027 -0.870648 7.113663
v -0.015056 -0.869204 7.112263
v -0.016447 -0.870183 7.113248
v -0.014923 -0.869202 7.112473
v -0.014050 -0.869291 7.113295
v -0.014534 -0.870432 7.113765
v -0.014460 -0.870472 7.113778
v -0.013752 -0.858338 7.127520
v -0.015421 -0.870794 7.114563
v -0.014977 -0.842599 7.147281
vn -0.1409 -0.1755 -0.9743
vn -0.5200 -0.2962 -0.8012
vn -0.9670 -0.2022 0.1548
vn -0.8882 -0.2051 0.4110
vn -0.8087 -0.2592 0.5280
vn -0.2960 0.1117 0.9486
vn -0.0415 -0.1788 -0.9830
vn -0.0111 -0.2029 -0.9791
vn 0.6814 0.2201 -0.6980
vn -0.7354 -0.3065 0.6043
vn -0.8538 -0.2759 -0.4415
vn 0.8529 0.3367 -0.3991
vn 0.9875 0.1051 -0.1174
vn 0.9829 0.1795 -0.0402
vn -0.1843 0.2686 -0.9455
vn 0.5089 0.2662 0.8186
vn 0.4699 0.1956 0.8608
vn -0.8387 0.5249 -0.1453
vn -0.1386 0.9254 0.3527
vn 0.7133 0.6846 0.1504
vn 0.7973 0.1323 -0.5889
vn 0.1913 -0.1405 -0.9714
vn -0.6286 -0.2909 0.7213
vn 0.2138 0.2926 0.9320
vn 0.8925 0.4057 0.1968
vn 0.9719 0.2232 0.0742
vn -0.6013 0.0948 -0.7934
vn -0.5274 -0.0510 -0.8481
vn -0.8091 0.0450 -0.5859
vn -0.9111 -0.0323 -0.4108
vn -0.5066 -0.2914 0.8114
vn 0.1034 0.1739 0.9793
vn -0.2913 -0.1769 0.9401
vn -0.9885 0.1435 -0.0472
vn -0.9847 0.1279 -0.1181
vn -0.2409 -0.1697 -0.9556
vn -0.6717 -0.1068 -0.7331
vn -0.9461 0.0586 -0.3185
vn -0.8051 -0.4850 0.3415
vn -0.6299 -0.3088 0.7126
vn -0.8046 -0.5831 -0.1122
vn -0.8062 -0.5779 -0.1269
vn -0.1070 0.2094 0.9720
vn -0.1162 0.0625 0.9913
vn -0.8147 -0.0908 0.5727
vn -0.7258 -0.2867 0.6253
vn -0.8627 0.0477 -0.5035
vn -0.0732 0.2201 -0.9727
vn 0.6249 0.2056 -0.7532
vn 0.5632 0.1659 -0.8095
vn -0.9419 -0.2533 0.2208
vn -0.7963 -0.2757 0.5384
vn -0.5825 -0.1420 0.8003
vn -0.6955 -0.3363 0.6350
vn 0.3496 -0.1596 0.9232
vn 0.9157 0.0044 0.4019
vn 0.4834 -0.1215 0.8669
vn 0.7803 -0.0256 0.6249
vn 0.9874 0.0533 0.1490
vn 0.9571 0.0658 0.2821
vn 0.8831 0.2128 -0.4181
vn 0.5815 0.0553 -0.8116
vn 0.8816 0.0294 0.4710
vn -0.0274 0.1909 -0.9812
vn 0.8732 -0.1613 -0.4599
vn -0.0010 -0.0333 0.9994
vn 0.0375 -0.1857 -0.9819
vn 0.6050 -0.1230 -0.7867
vn 0.4180 0.2442 0.8750
vn 0.5845 -0.1727 -0.7928
vn 0.6165 -0.4235 -0.6638
vn -0.0835 -0.2595 -0.9621
vn -0.1541 0.0470 0.9869
vn -0.9853 0.1287 -0.1124
vn -0.8177 -0.0427 -0.5741
vn -0.8954 -0.0459 -0.4429
vn -0.4263 -0.0414 0.9036
vn -0.7590 -0.5925 0.2698
vn 0.9092 0.2412 0.3395
vn 0.9431 -0.1833 0.2775
vn -0.2401 0.0678 0.9684
vn 0.5371 0.3981 0.7437
vn 0.8175 0.4864 0.3084
vn 0.5340 -0.2688 0.8016
vn 0.3268 0.0387 -0.9443
vn 0.0396 -0.1671 -0.9852
vn -0.8405 -0.0815 -0.5356
vn -0.9991 0.0071 -0.0411
vn -0.5735 -0.0442 -0.8180
vn -0.1979 -0.0397 -0.9794
vn 0.8519 0.0810 0.5174
vn 0.9280 0.0485 0.3693
vn 0.7353 0.0448 0.6762
vn 0.9545 0.0282 -0.2970
vn 0.5325 0.0126 0.8463
vn -0.3640 0.0380 0.9306
vn -0.0844 0.0099 0.9964
vn 0.4198 -0.0943 0.9027
vn -0.9996 -0.0269 0.0039
vn -0.2742 -0.1091 0.9554
vn 0.9261 0.0051 0.3773
vn -0.9903 -0.0984 0.0977
vn -0.9085 -0.2170 -0.3572
vn -0.5252 0.0369 0.8502
vn -0.1866 -0.0058 0.9824
vn -0.0995 0.1583 0.9824
vn 0.1056 -0.1580 -0.9818
vn 0.7089 0.0998 -0.6982
vn -0.8734 -0.0024 0.4869
vn 0.9550 0.0869 -0.2835
vn 0.9336 0.0405 -0.3559
vn 0.9309 0.1988 0.3063
vn -0.9439 -0.2974 0.1437
vn 0.9754 0.1613 0.1504
vn 0.6340 0.2700 0.7246
vn -0.2397 -0.1046 -0.9652
vn 0.2801 0.1554 -0.9473
vn 0.9622 0.2585 0.0856
vn 0.8428 0.2444 0.4796
vn 0.4226 0.1348 0.8962
vn 0.7430 0.1973 -0.6396
vn -0.8476 -0.4917 -0.1995
vn -0.5314 -0.4784 -0.6991
vn 0.8304 0.4208 0.3653
vn 0.9590 0.2805 -0.0392
vn 0.9609 0.2770 0.0054
vn 0.8853 0.3608 -0.2934
vn 0.7540 0.4035 -0.5184
vn 0.9738 0.2020 -0.1049
vn -0.6919 -0.6153 -0.3778
vn -0.8543 -0.5174 -0.0500
vn -0.6476 -0.5141 0.5625
vn -0.0187 0.0547 0.9983
vn -0.5705 -0.2369 0.7864
vn -0.3709 -0.1403 0.9180
vn 0.3331 0.1517 -0.9306
vn 0.3283 0.1311 -0.9354
vn 0.7040 0.5348 -0.4673
vn 0.5816 0.4313 -0.6898
vn 0.0345 -0.2001 0.9792
vn 0.6358 0.4113 0.6532
vn 0.5330 0.6379 -0.5559
vn 0.1075 0.3794 -0.9190
vn 0.1260 0.2884 -0.9492
vn 0.1979 0.1247 -0.9722
vn -0.7010 -0.7037 0.1156
vn -0.1470 -0.6849 0.7136
vn 0.3267 0.5407 -0.7752
vn -0.2167 0.0594 -0.9744
vn -0.8495 -0.3817 -0.3642
vn 0.0635 0.4481 -0.8917
vn 0.2563 -0.0858 0.9628
vn 0.6563 0.4571 0.6003
vn 0.7731 0.1198 0.6228
vn -0.1362 0.3160 -0.9389
vn 0.5077 0.7814 -0.3629
vn -0.8633 -0.3640 -0.3495
vn -0.2693 -0.6660 0.6956
vn -0.8851 -0.3633 -0.2909
vn -0.1860 -0.6989 0.6906
vn 0.1346 -0.6447 0.7525
vn 0.6046 0.6436 -0.4693
vn -0.4784 0.3249 -0.8159
vn -0.9663 0.0377 -0.2546
vn -0.1190 0.6566 -0.7448
vn -0.0888 0.7356 -0.6715
vn 0.8615 -0.0419 0.5060
vn -0.9705 0.2069 -0.1241
vn -0.7568 -0.5533 0.3478
vn -0.9397 -0.3134 0.1372
vn -0.7048 -0.5874 0.3977
vn 0.5067 -0.6380 0.5798
vn 0.9568 0.2871 -0.0453
vn 0.3444 0.7390 -0.5790
vn -0.4427 0.4093 -0.7978
vn -0.8768 -0.4254 -0.2241
vn 0.0848 -0.6700 -0.7375
vn 0.0570 -0.7726 -0.6324
vn -0.4073 -0.9081 -0.0975
vn 0.7952 -0.5502 -0.2548
vn 0.0901 -0.5227 -0.8477
vn 0.4413 0.7531 -0.4880
vn 0.7871 -0.5924 -0.1721
vn 0.4708 0.8196 -0.3266
vn 0.5730 0.6435 -0.5076
vn -0.0437 -0.9210 0.3871
s 1
f 2//1 3//2 4//3
f 6//4 7//5 8//6
f 10//7 11//8 19//9
f 7//5 9//10 8//6
f 4//3 5//11 2//1
f 8//6 4//3 6//4
f 13//12 12//13 14//14
f 19//9 11//8 18//15
f 15//16 17//17 8//6
f 4//3 8//6 1//18
f 8//6 17//17 16//19
f 4//3 1//18 5//11
f 5//11 1//18 18//15
f 12//13 19//9 20//20
f 1//18 8//6 16//19
f 12//13 20//20 14//14
f 16//19 17//17 20//20
f 1//18 16//19 18//15
f 19//9 18//15 16//19
f 20//20 19//9 16//19
f 21//21 22//22 2//1
f 22//22 3//2 2//1
f 41//23 9//10 7//5
f 15//16 8//6 24//24
f 2//1 12//13 13//12
f 23//25 13//12 25//26
f 26//27 27//28 28//29
f 29//30 26//27 28//29
f 31//31 33//32 30//33
f 26//27 32//34 34//35
f 35//36 27//28 26//27
f 37//37 35//36 26//27
f 38//38 37//37 26//27
f 26//27 34//35 38//38
f 40//39 41//23 42//40
f 41//23 7//5 42//40
f 39//41 40//39 7//42
f 43//43 15//16 24//24
f 43//43 24//24 41//44
f 45//45 46//46 47//47
f 48//48 49//49 47//47
f 48//48 50//50 49//49
f 51//51 46//52 30//33
f 47//47 46//46 29//30
f 46//46 45//45 52//53
f 29//30 28//29 47//47
f 46//52 31//31 30//33
f 53//54 46//46 52//53
f 54//55 55//56 56//57
f 56//57 57//58 54//55
f 58//59 59//60 60//61
f 58//59 57//58 59//60
f 50//50 48//48 62//62
f 63//63 57//58 58//59
f 61//64 50//50 63//65
f 36//66 54//55 57//58
f 48//48 64//67 62//62
f 50//50 65//68 63//65
f 65//68 62//62 64//67
f 31//31 36//66 33//32
f 57//58 66//69 36//66
f 37//37 67//70 35//36
f 64//67 67//70 65//68
f 57//58 63//63 66//69
f 65//68 67//70 68//71
f 65//68 68//71 63//65
f 70//72 67//70 37//37
f 33//32 71//73 72//74
f 36//66 71//73 33//32
f 66//69 71//73 36//66
f 73//75 37//37 74//76
f 37//37 38//38 74//76
f 21//21 70//72 22//22
f 70//72 21//21 67//70
f 71//73 75//77 72//74
f 40//39 76//78 41//23
f 40//39 39//41 76//78
f 43//43 41//44 75//77
f 75//77 41//44 72//74
f 21//21 77//79 69//80
f 71//73 66//69 43//81
f 69//80 77//79 66//69
f 66//69 77//79 78//82
f 77//79 44//83 78//82
f 21//21 79//84 77//79
f 2//1 13//12 21//21
f 44//83 23//25 78//82
f 23//25 21//21 13//12
f 44//83 21//21 23//25
f 44//83 79//84 21//21
f 85//85 80//86 81//87
f 82//88 86//89 81//87
f 47//47 85//85 81//87
f 87//90 85//85 47//47
f 81//87 86//89 47//47
f 89//91 88//92 90//93
f 91//94 84//95 85//85
f 85//85 49//49 91//94
f 85//85 87//90 49//49
f 92//96 83//97 84//95
f 90//93 93//98 89//91
f 86//89 94//99 47//47
f 83//97 92//96 95//100
f 45//45 95//100 92//96
f 47//47 94//99 45//45
f 60//61 91//94 49//49
f 90//93 60//101 93//98
f 93//98 60//101 55//56
f 87//90 47//47 49//49
f 92//96 52//53 45//45
f 55//56 60//101 56//57
f 49//49 50//50 61//64
f 49//49 58//59 60//61
f 61//64 58//59 49//49
f 68//71 67//70 69//80
f 69//80 67//70 21//21
f 63//63 69//80 66//69
f 96//102 97//103 98//104
f 100//105 83//97 99//106
f 81//87 80//86 96//107
f 96//107 80//86 101//108
f 96//102 98//104 82//109
f 83//97 98//104 99//106
f 103//110 80//86 104//111
f 100//105 102//112 83//97
f 83//97 82//109 98//104
f 80//86 85//85 104//111
f 102//112 85//85 84//95
f 83//97 102//112 84//95
f 97//103 108//113 100//105
f 97//103 100//105 98//104
f 106//114 100//105 107//115
f 106//114 102//112 100//105
f 97//103 109//116 108//113
f 109//116 97//103 110//117
f 111//118 109//116 110//117
f 112//119 100//105 127//120
f 105//121 101//108 110//117
f 100//105 112//119 107//115
f 97//103 96//102 110//117
f 96//107 101//108 105//121
f 113//122 108//113 109//116
f 114//123 113//122 109//116
f 112//119 127//120 116//124
f 127//120 100//105 108//113
f 117//125 118//126 119//127
f 115//128 117//125 119//127
f 101//108 111//118 110//117
f 120//129 118//126 117//125
f 114//123 122//130 113//122
f 123//131 121//132 113//122
f 121//132 108//113 113//122
f 124//133 127//120 108//113
f 125//134 108//113 121//132
f 126//135 124//133 108//113
f 109//116 111//118 115//136
f 128//137 109//116 115//136
f 126//135 125//134 121//132
f 115//128 129//138 130//139
f 119//127 129//138 115//128
f 121//132 131//140 126//135
f 126//135 133//141 124//133
f 123//131 122//130 121//132
f 127//120 129//138 116//124
f 132//142 122//130 114//123
f 134//143 135//144 136//145
f 122//130 137//146 121//132
f 138//147 137//146 122//130
f 138//147 122//130 132//142
f 121//132 137//146 131//140
f 130//139 129//138 139//148
f 133//141 126//135 131//140
f 127//120 133//141 129//138
f 138//147 132//142 140//149
f 138//147 140//149 141//150
f 143//151 135//144 134//143
f 129//138 133//141 139//148
f 144//152 142//153 131//140
f 142//153 133//141 131//140
f 133//141 145//154 139//148
f 134//143 148//155 143//151
f 146//156 139//148 145//154
f 146//156 148//155 134//143
f 142//153 145//154 133//141
f 140//149 148//155 141//150
f 149//157 147//158 138//147
f 149//157 141//150 148//155
f 138//147 147//158 137//146
f 149//157 148//155 150//159
f 151//160 147//158 149//157
f 145//154 151//160 153//161
f 152//162 150//159 148//155
f 146//156 152//162 148//155
f 155//163 154//164 149//157
f 155//163 149//157 150//159
f 154//164 151//160 149//157
f 145//154 147//158 151//160
f 156//165 150//159 152//162
f 157//166 156//165 152//162
f 145//154 153//161 158//167
f 146//156 158//167 152//162
f 158//167 146//156 145//154
f 160//168 159//169 155//163
f 160//168 151//160 154//164
f 160//168 161//170 151//160
f 163//171 162//172 151//160
f 154//164 155//163 159//169
f 158//167 162//172 176//173
f 153//161 151//160 162//172
f 157//166 155//163 156//165
f 164//174 155//163 157//166
f 176//173 164//174 152//162
f 158//167 176//173 152//162
f 160//168 165//175 166//176
f 168//177 169//178 166//176
f 168//177 166//176 165//175
f 169//178 168//177 167//179
f 167//179 168//177 171//180
f 167//179 171//180 172//181
f 171//182 165//175 164//174
f 173//183 172//181 171//180
f 165//175 171//182 170//184
f 171//182 164//174 174//185
f 175//186 166//176 167//179
f 172//181 175//186 167//179
f 166//176 175//186 161//170
f 164//174 165//175 160//168
f 161//170 175//186 163//171
f 175//186 173//183 163//171
f 166//176 161//170 160//168
f 174//185 164//174 176//173
f 155//163 164//174 160//168
f 173//183 171//180 176//173
f 163//171 173//183 162//172
f 173//183 176//173 162//172
