# Blender v2.78 (sub 0) OBJ File: 'exporter.blend'
# www.blender.org
o FJ1328.obj_grp1.072
v 0.085120 -0.768041 7.104891
v 0.085031 -0.766675 7.104311
v 0.085746 -0.767054 7.106672
v 0.086248 -0.763615 7.097987
v 0.086012 -0.764328 7.101049
v 0.086300 -0.765050 7.097457
v 0.088191 -0.764905 7.094874
v 0.086277 -0.768611 7.104004
v 0.100853 -0.769340 7.092358
v 0.086133 -0.768943 7.106261
v 0.100043 -0.771976 7.099109
v 0.085726 -0.768009 7.106951
v 0.086863 -0.768937 7.106752
v 0.087968 -0.768119 7.107231
v 0.101184 -0.772415 7.101678
v 0.087143 -0.763402 7.095857
v 0.085945 -0.764373 7.101587
v 0.087960 -0.766668 7.106421
v 0.086812 -0.763349 7.098189
v 0.089445 -0.763735 7.093282
v 0.090858 -0.763066 7.092617
v 0.088668 -0.762786 7.095372
v 0.092456 -0.767636 7.106293
v 0.102294 -0.766252 7.086195
v 0.113904 -0.769295 7.099963
v 0.101577 -0.763345 7.086964
v 0.107689 -0.766531 7.096945
v 0.110184 -0.772558 7.101937
v 0.104892 -0.764450 7.084329
v 0.107431 -0.773546 7.098856
v 0.110068 -0.773583 7.100507
v 0.112441 -0.772952 7.093154
v 0.110986 -0.766708 7.081612
v 0.108872 -0.769896 7.087969
v 0.114440 -0.764125 7.081140
v 0.118248 -0.765619 7.089212
v 0.120651 -0.774985 7.096564
v 0.111810 -0.770516 7.101810
v 0.117882 -0.764861 7.078933
v 0.119208 -0.767206 7.078655
v 0.118068 -0.769800 7.083415
v 0.121348 -0.771946 7.087237
v 0.122672 -0.773506 7.099494
v 0.121756 -0.770559 7.099191
v 0.122457 -0.765574 7.077324
v 0.119448 -0.767629 7.095127
v 0.124425 -0.763972 7.078440
v 0.123045 -0.774668 7.098205
v 0.122671 -0.772593 7.099708
v 0.130571 -0.765041 7.075344
v 0.131005 -0.763724 7.076174
v 0.126168 -0.775212 7.095937
v 0.130669 -0.769793 7.080700
v 0.128006 -0.767139 7.076413
v 0.133281 -0.766328 7.090481
v 0.137810 -0.774338 7.093481
v 0.136855 -0.774579 7.095377
v 0.130661 -0.770758 7.098056
v 0.133006 -0.769175 7.096444
v 0.133880 -0.767494 7.076438
v 0.137501 -0.764228 7.074804
v 0.138938 -0.762798 7.076546
v 0.138373 -0.771672 7.097889
v 0.140356 -0.772831 7.096987
v 0.136501 -0.766221 7.075037
v 0.139104 -0.763180 7.075315
v 0.140402 -0.763338 7.081677
v 0.142175 -0.768405 7.078763
v 0.141070 -0.769797 7.097790
v 0.140161 -0.765921 7.074910
v 0.147219 -0.771605 7.089854
v 0.146030 -0.766758 7.095717
v 0.151874 -0.762428 7.075967
v 0.151200 -0.767722 7.081267
v 0.147212 -0.764049 7.075106
v 0.152024 -0.760717 7.078487
v 0.149106 -0.772533 7.093337
v 0.147495 -0.772782 7.094865
v 0.148480 -0.769046 7.098094
v 0.148162 -0.765614 7.076115
v 0.153099 -0.765558 7.097325
v 0.151985 -0.769805 7.097867
v 0.154871 -0.763398 7.076546
v 0.158329 -0.759827 7.082390
v 0.163649 -0.767617 7.096810
v 0.156130 -0.765980 7.080879
v 0.157216 -0.766690 7.098930
v 0.160610 -0.763812 7.080291
v 0.156479 -0.761945 7.088233
v 0.158968 -0.761983 7.092793
v 0.159946 -0.758998 7.080235
v 0.158696 -0.769776 7.094001
v 0.160566 -0.760787 7.078191
v 0.159967 -0.763540 7.098520
v 0.172823 -0.760740 7.101815
v 0.171362 -0.756108 7.083325
v 0.169590 -0.764317 7.099201
v 0.169413 -0.760666 7.083825
v 0.169925 -0.759271 7.100812
v 0.168959 -0.761476 7.101266
v 0.164137 -0.760831 7.079542
v 0.164317 -0.759345 7.089250
v 0.165927 -0.758972 7.093484
v 0.171156 -0.755363 7.084505
v 0.168535 -0.765428 7.094966
v 0.172430 -0.754569 7.086546
v 0.172004 -0.763638 7.097620
v 0.170820 -0.758379 7.082621
v 0.174086 -0.757050 7.102688
v 0.175538 -0.754250 7.085478
v 0.172147 -0.755397 7.089718
v 0.176923 -0.756322 7.087419
v 0.176664 -0.755361 7.086044
v 0.175296 -0.753728 7.097662
v 0.180135 -0.753896 7.105136
v 0.178402 -0.752859 7.103531
v 0.177622 -0.759504 7.096284
v 0.177575 -0.759858 7.099255
v 0.177464 -0.759462 7.101305
v 0.183791 -0.749521 7.090972
v 0.182038 -0.748451 7.091709
v 0.184875 -0.753152 7.103716
v 0.180293 -0.753640 7.088928
v 0.189085 -0.746233 7.109125
v 0.182487 -0.750247 7.106246
v 0.182745 -0.747502 7.093396
v 0.184223 -0.746211 7.101573
v 0.186041 -0.751411 7.097484
v 0.184058 -0.754211 7.099846
v 0.186749 -0.749973 7.106733
v 0.186144 -0.745314 7.094303
v 0.184512 -0.747139 7.106674
v 0.186999 -0.747757 7.094076
v 0.192494 -0.740499 7.099367
v 0.189251 -0.743752 7.110056
v 0.187754 -0.742616 7.097287
v 0.187754 -0.742616 7.097287
v 0.190004 -0.740758 7.110250
v 0.190432 -0.746530 7.101810
v 0.195205 -0.739488 7.111647
v 0.191218 -0.742701 7.097895
v 0.195500 -0.733069 7.107763
v 0.194256 -0.736640 7.113507
v 0.196666 -0.737331 7.111244
v 0.196935 -0.734637 7.105891
v 0.195800 -0.736219 7.114142
v 0.195336 -0.733816 7.105568
v 0.196868 -0.735894 7.113555
v 0.196326 -0.733912 7.105289
v 0.195549 -0.735184 7.104188
v 0.196303 -0.734071 7.105455
v 0.196327 -0.733456 7.106253
v 0.194955 -0.734673 7.113319
v 0.197282 -0.735294 7.112142
v 0.196719 -0.733458 7.111328
v 0.195878 -0.735231 7.114143
v 0.195873 -0.733768 7.112975
v 0.196587 -0.734296 7.113257
v 0.196325 -0.733091 7.106919
v 0.196342 -0.732860 7.107693
v 0.196865 -0.733115 7.108304
vn -0.8462 -0.3312 -0.4174
vn -0.5993 -0.5226 -0.6064
vn -0.4552 -0.8452 -0.2801
vn -0.3232 -0.8414 -0.4332
vn -0.5014 -0.8406 0.2050
vn -0.9040 -0.4271 -0.0193
vn -0.6117 -0.1643 0.7738
vn -0.9454 0.3028 0.1205
vn -0.5232 0.5037 0.6875
vn -0.1318 -0.7581 0.6387
vn -0.2676 -0.9343 -0.2353
vn 0.0857 -0.0917 0.9921
vn -0.0936 -0.9572 0.2740
vn -0.8153 0.5602 -0.1468
vn -0.7373 0.4835 -0.4718
vn -0.9213 0.3885 0.0186
vn -0.7050 0.6847 0.1849
vn 0.0803 0.7476 0.6593
vn -0.6281 0.0423 -0.7770
vn -0.3741 0.6972 -0.6115
vn -0.1553 0.9849 -0.0763
vn -0.1686 0.9707 0.1710
vn -0.4052 -0.5633 -0.7201
vn 0.2670 0.4714 0.8405
vn 0.1905 0.8137 0.5492
vn -0.1173 0.9380 -0.3262
vn 0.1547 0.9229 0.3525
vn 0.1222 -0.5081 0.8526
vn -0.3759 0.3280 -0.8667
vn -0.1544 -0.9853 -0.0734
vn -0.2551 -0.8584 -0.4450
vn -0.1705 -0.9331 -0.3165
vn -0.0516 -0.9274 0.3706
vn -0.3534 -0.4448 -0.8230
vn -0.0548 0.9614 -0.2695
vn 0.0654 0.9729 0.2219
vn -0.0711 -0.9961 -0.0531
vn 0.2242 0.3091 0.9242
vn -0.2964 0.4312 -0.8522
vn -0.2525 -0.5377 -0.8044
vn -0.1723 -0.8709 -0.4603
vn 0.1558 0.6379 0.7542
vn -0.2578 0.0823 -0.9627
vn 0.1009 0.8961 0.4322
vn -0.0768 0.9915 -0.1055
vn 0.0476 -0.8893 0.4549
vn -0.0855 -0.9255 -0.3689
vn 0.2051 0.0323 0.9782
vn 0.1213 -0.5301 0.8392
vn -0.1690 0.1291 -0.9771
vn -0.1339 0.8256 -0.5482
vn -0.0018 -0.9998 -0.0174
vn -0.1453 -0.6165 -0.7739
vn -0.0457 0.9441 0.3264
vn -0.0246 -0.9046 -0.4255
vn 0.0908 -0.9691 -0.2294
vn 0.1216 -0.9584 0.2583
vn 0.0835 0.5426 0.8358
vn -0.0228 0.8201 0.5718
vn -0.0169 -0.8054 -0.5925
vn 0.0811 -0.1872 0.9790
vn 0.1471 -0.7014 0.6975
vn -0.0080 -0.4581 -0.8888
vn -0.0313 0.7428 -0.6688
vn -0.1197 0.9902 -0.0718
vn -0.0630 0.2291 -0.9714
vn -0.1231 0.9669 0.2237
vn 0.1185 -0.8782 -0.4634
vn -0.0382 0.4014 0.9151
vn 0.0876 -0.4810 -0.8723
vn 0.1918 -0.9200 -0.3417
vn -0.2033 0.8872 0.4141
vn 0.1081 0.4600 -0.8813
vn 0.2376 -0.8934 -0.3813
vn 0.1229 -0.0210 -0.9922
vn 0.2240 -0.6803 -0.6978
vn -0.0976 0.9651 -0.2429
vn 0.2604 -0.9544 -0.1460
vn 0.2006 -0.9368 0.2867
vn -0.0092 0.0578 0.9983
vn -0.2568 0.7160 0.6492
vn 0.1220 -0.5967 0.7931
vn 0.2970 -0.4012 -0.8665
vn -0.2911 0.9353 0.2013
vn 0.3246 -0.9426 -0.0789
vn 0.3303 -0.8921 0.3084
vn 0.3227 -0.8443 -0.4278
vn -0.2320 0.1895 0.9541
vn 0.4033 -0.7633 -0.5047
vn -0.2928 0.9307 0.2192
vn -0.3325 0.9154 0.2270
vn -0.1851 0.9553 -0.2307
vn 0.2606 0.2648 -0.9284
vn 0.1463 -0.5444 0.8260
vn -0.3638 0.7069 0.6066
vn 0.1472 0.5821 -0.7997
vn 0.3101 -0.8066 0.5033
vn 0.5102 -0.7360 -0.4450
vn -0.2273 0.0635 0.9718
vn 0.4543 -0.2701 -0.8490
vn -0.3995 0.8973 0.1878
vn -0.4604 0.8689 0.1818
vn -0.2185 0.9086 -0.3560
vn -0.5179 0.6231 0.5861
vn 0.5540 -0.2437 -0.7960
vn -0.4959 0.8646 0.0809
vn 0.4671 -0.8718 -0.1476
vn 0.5122 -0.8572 0.0536
vn -0.5164 0.3790 0.7679
vn -0.5242 0.8430 0.1208
vn 0.3098 0.4321 -0.8469
vn 0.6352 -0.6591 -0.4026
vn 0.6216 -0.2692 -0.7356
vn -0.6046 0.7836 0.1428
vn -0.3652 -0.0597 0.9290
vn -0.6769 0.6055 0.4186
vn 0.6298 -0.7511 -0.1979
vn 0.4376 -0.7697 0.4649
vn 0.5787 -0.8139 0.0525
vn 0.5838 0.1023 -0.8054
vn -0.4251 0.8330 -0.3541
vn 0.6398 -0.7315 0.2358
vn 0.7148 -0.4688 -0.5189
vn 0.1668 -0.5291 0.8320
vn -0.6198 0.2599 0.7405
vn -0.6256 0.7764 -0.0757
vn -0.7420 0.6610 0.1118
vn 0.7673 -0.5941 -0.2416
vn 0.7101 -0.7008 -0.0672
vn 0.4799 -0.6624 0.5753
vn 0.0263 0.6966 -0.7170
vn -0.7789 0.5590 0.2843
vn 0.7939 -0.3202 -0.5169
vn 0.6970 0.1727 -0.6960
vn -0.4075 -0.1444 0.9017
vn -0.5134 0.7954 -0.3221
vn -0.2898 0.7782 -0.5571
vn -0.7812 0.3871 0.4898
vn 0.8362 -0.5371 -0.1111
vn 0.6810 -0.6139 0.3992
vn 0.7980 -0.1653 -0.5795
vn -0.4959 0.8682 -0.0157
vn -0.5405 0.0626 0.8390
vn 0.9065 -0.4215 0.0252
vn 0.9355 0.0946 -0.3404
vn 0.1555 -0.2745 0.9489
vn -0.3253 0.8576 -0.3984
vn 0.8156 -0.1628 0.5552
vn -0.0008 0.7903 -0.6128
vn 0.7206 0.2116 -0.6603
vn 0.7184 0.4304 -0.5465
vn 0.7542 0.5719 -0.3226
vn -0.6223 0.5898 0.5147
vn 0.9924 0.0297 0.1193
vn 0.0856 0.2817 0.9557
vn -0.1261 0.8927 0.4327
vn 0.6215 0.5181 0.5877
vn 0.5839 0.7879 0.1955
vn -0.1777 0.9245 -0.3372
vn 0.1911 0.9743 -0.1189
vn 0.7773 0.6291 0.0075
s 1
f 6//1 7//2 8//3
f 9//4 8//3 7//2
f 8//3 10//5 1//6
f 6//1 8//3 1//6
f 1//6 12//7 2//8
f 12//7 3//9 2//8
f 1//6 10//5 12//7
f 12//7 10//5 13//10
f 8//3 11//11 10//5
f 14//12 3//9 12//7
f 15//13 10//5 11//11
f 10//5 15//13 13//10
f 14//12 12//7 13//10
f 4//14 16//15 6//1
f 1//6 2//8 6//1
f 6//1 2//8 4//14
f 2//8 5//16 4//14
f 3//9 5//16 2//8
f 5//16 3//9 17//17
f 18//18 17//17 3//9
f 14//12 18//18 3//9
f 16//15 20//19 7//2
f 20//19 16//15 21//20
f 16//15 22//21 21//20
f 4//14 19//22 16//15
f 22//21 16//15 19//22
f 6//1 16//15 7//2
f 4//14 17//17 19//22
f 11//11 8//3 9//4
f 13//10 15//13 14//12
f 24//23 7//2 20//19
f 18//18 14//12 23//24
f 23//24 25//25 18//18
f 26//26 21//20 22//21
f 25//25 17//17 18//18
f 19//22 17//17 27//27
f 22//21 19//22 27//27
f 23//24 14//12 28//28
f 9//4 7//2 24//23
f 20//19 21//20 29//29
f 20//19 29//29 24//23
f 28//28 14//12 15//13
f 21//20 26//26 29//29
f 30//30 15//13 11//11
f 34//31 11//11 9//4
f 34//31 32//32 11//11
f 32//32 30//30 11//11
f 31//33 28//28 15//13
f 34//31 9//4 24//23
f 33//34 24//23 29//29
f 29//29 26//26 35//35
f 36//36 26//26 27//27
f 27//27 26//26 22//21
f 32//32 37//37 30//30
f 31//33 15//13 30//30
f 33//34 34//31 24//23
f 25//25 27//27 17//17
f 38//38 25//25 23//24
f 39//39 33//34 29//29
f 39//39 29//29 35//35
f 40//40 33//34 39//39
f 30//30 37//37 31//33
f 41//41 32//32 34//31
f 23//24 28//28 38//38
f 40//40 34//31 33//34
f 41//41 34//31 40//40
f 35//35 26//26 36//36
f 44//42 25//25 38//38
f 45//43 40//40 39//39
f 36//36 27//27 46//44
f 39//39 35//35 47//45
f 28//28 31//33 48//46
f 42//47 32//32 41//41
f 42//47 37//37 32//32
f 49//48 38//38 28//28
f 28//28 48//46 43//49
f 43//49 49//48 28//28
f 46//44 27//27 25//25
f 45//43 39//39 50//50
f 35//35 36//36 47//45
f 51//51 39//39 47//45
f 37//37 48//46 31//33
f 37//37 52//52 48//46
f 49//48 44//42 38//38
f 54//53 41//41 40//40
f 25//25 44//42 46//44
f 54//53 40//40 45//43
f 55//54 47//45 36//36
f 55//54 36//36 46//44
f 50//50 39//39 51//51
f 52//52 37//37 42//47
f 42//47 53//55 52//52
f 56//56 52//52 53//55
f 48//46 57//57 43//49
f 49//48 58//58 44//42
f 53//55 41//41 54//53
f 41//41 53//55 42//47
f 46//44 44//42 55//54
f 58//58 59//59 44//42
f 54//53 45//43 50//50
f 59//59 55//54 44//42
f 54//53 60//60 53//55
f 57//57 48//46 52//52
f 43//49 63//61 49//48
f 43//49 57//57 64//62
f 64//62 63//61 43//49
f 49//48 63//61 58//58
f 54//53 50//50 65//63
f 65//63 60//60 54//53
f 50//50 51//51 66//64
f 51//51 47//45 62//65
f 50//50 66//64 61//66
f 67//67 62//65 47//45
f 47//45 55//54 67//67
f 56//56 57//57 52//52
f 68//68 56//56 53//55
f 59//59 58//58 69//69
f 63//61 69//69 58//58
f 60//60 68//68 53//55
f 65//63 50//50 61//66
f 70//70 65//63 61//66
f 68//68 71//71 56//56
f 65//63 70//70 60//60
f 70//70 68//68 60//60
f 72//72 59//59 69//69
f 55//54 59//59 72//72
f 66//64 51//51 62//65
f 61//66 66//64 73//73
f 68//68 74//74 71//71
f 75//75 61//66 73//73
f 70//70 61//66 75//75
f 75//75 80//76 70//70
f 68//68 70//70 80//76
f 76//77 66//64 62//65
f 62//65 67//67 76//77
f 77//78 57//57 56//56
f 77//78 78//79 57//57
f 57//57 78//79 64//62
f 79//80 69//69 63//61
f 68//68 80//76 74//74
f 72//72 69//69 81//81
f 55//54 72//72 67//67
f 71//71 77//78 56//56
f 64//62 82//82 63//61
f 81//81 69//69 79//80
f 82//82 79//80 63//61
f 83//83 80//76 75//75
f 83//83 75//75 73//73
f 67//67 72//72 84//84
f 76//77 67//67 84//84
f 77//78 71//71 92//85
f 78//79 82//82 64//62
f 78//79 85//86 82//82
f 74//74 86//87 71//71
f 86//87 92//85 71//71
f 87//88 79//80 82//82
f 86//87 80//76 88//89
f 80//76 86//87 74//74
f 83//83 88//89 80//76
f 84//84 72//72 89//90
f 90//91 72//72 81//81
f 73//73 66//64 76//77
f 91//92 76//77 84//84
f 77//78 92//85 78//79
f 92//85 85//86 78//79
f 81//81 79//80 87//88
f 83//83 73//73 93//93
f 72//72 90//91 89//90
f 91//92 73//73 76//77
f 95//94 87//88 82//82
f 81//81 94//95 90//91
f 87//88 94//95 81//81
f 93//93 73//73 96//96
f 96//96 73//73 91//92
f 97//97 82//82 85//86
f 86//87 88//89 92//85
f 88//89 98//98 92//85
f 100//99 87//88 95//94
f 88//89 83//83 101//100
f 93//93 101//100 83//83
f 89//90 90//91 102//101
f 103//102 90//91 94//95
f 104//103 91//92 84//84
f 89//90 102//101 84//84
f 88//89 101//100 98//98
f 102//101 90//91 103//102
f 94//95 87//88 99//104
f 87//88 100//99 99//104
f 96//96 91//92 104//103
f 93//93 108//105 101//100
f 108//105 93//93 96//96
f 106//106 104//103 84//84
f 85//86 92//85 105//107
f 98//98 105//107 92//85
f 97//97 85//86 107//108
f 107//108 85//86 105//107
f 97//97 95//94 82//82
f 101//100 108//105 98//98
f 109//109 99//104 100//99
f 103//102 111//110 102//101
f 103//102 94//95 99//104
f 106//106 84//84 102//101
f 108//105 96//96 110//111
f 112//112 98//98 108//105
f 110//111 113//113 108//105
f 113//113 112//112 108//105
f 111//110 103//102 114//114
f 103//102 99//104 114//114
f 100//99 115//115 109//109
f 111//110 106//106 102//101
f 114//114 99//104 116//116
f 98//98 117//117 105//107
f 105//107 117//117 107//108
f 107//108 119//118 97//97
f 97//97 119//118 95//94
f 118//119 119//118 107//108
f 112//112 117//117 98//98
f 99//104 109//109 116//116
f 100//99 95//94 115//115
f 110//111 120//120 113//113
f 104//103 106//106 121//121
f 96//96 104//103 121//121
f 117//117 118//119 107//108
f 118//119 122//122 119//118
f 123//123 112//112 113//113
f 120//120 123//123 113//113
f 115//115 95//94 124//124
f 109//109 115//115 125//125
f 110//111 96//96 121//121
f 106//106 111//110 126//126
f 121//121 106//106 126//126
f 114//114 126//126 111//110
f 127//127 126//126 114//114
f 117//117 112//112 123//123
f 123//123 128//128 117//117
f 129//129 118//119 117//117
f 117//117 128//128 129//129
f 122//122 118//119 129//129
f 122//122 130//130 119//118
f 119//118 130//130 95//94
f 116//116 109//109 125//125
f 95//94 130//130 124//124
f 110//111 121//121 131//131
f 120//120 110//111 131//131
f 116//116 127//127 114//114
f 132//132 127//127 116//116
f 116//116 125//125 132//132
f 133//133 123//123 120//120
f 128//128 123//123 133//133
f 131//131 134//134 120//120
f 115//115 135//135 125//125
f 135//135 115//115 124//124
f 121//121 126//126 136//136
f 131//131 121//121 137//137
f 132//132 125//125 138//138
f 138//138 127//127 132//132
f 129//129 128//128 139//139
f 129//129 139//139 122//122
f 128//128 133//133 139//139
f 140//140 122//122 139//139
f 122//122 140//140 130//130
f 140//140 124//124 130//130
f 141//141 133//133 120//120
f 134//134 141//141 120//120
f 139//139 133//133 141//141
f 138//138 125//125 135//135
f 142//142 126//126 127//127
f 138//138 142//142 127//127
f 138//138 135//135 143//143
f 139//139 144//144 140//140
f 139//139 141//141 145//145
f 124//124 146//146 135//135
f 143//143 135//135 146//146
f 131//131 137//137 147//147
f 136//136 126//126 142//142
f 136//136 142//142 147//147
f 141//141 134//134 145//145
f 140//140 146//146 124//124
f 140//140 148//148 146//146
f 148//148 140//140 144//144
f 149//149 134//134 131//131
f 147//147 149//149 131//131
f 134//134 150//150 145//145
f 151//151 152//152 145//145
f 145//145 150//150 151//151
f 153//153 142//142 138//138
f 139//139 145//145 144//144
f 144//144 154//154 148//148
f 138//138 143//143 153//153
f 153//153 143//143 156//155
f 146//146 156//155 143//143
f 156//155 157//156 153//153
f 156//155 158//157 157//156
f 148//148 156//155 146//146
f 148//148 158//157 156//155
f 148//148 154//154 158//157
f 158//157 154//154 155//158
f 159//159 149//149 147//147
f 142//142 153//153 157//156
f 147//147 142//142 159//159
f 159//159 142//142 160//160
f 145//145 152//152 161//161
f 161//161 152//152 160//160
f 145//145 161//161 154//154
f 142//142 157//156 160//160
f 161//161 160//160 155//158
f 155//158 160//160 157//156
f 155//158 154//154 161//161
f 157//156 158//157 155//158
f 144//144 145//145 154//154
