# Blender v2.78 (sub 0) OBJ File: 'exporter.blend'
# www.blender.org
o FJ1465M.obj_grp1.283
v 0.230570 -0.196855 3.823223
v 0.228038 -0.196051 3.817974
v 0.228295 -0.193589 3.838940
v 0.217311 -0.247412 3.795108
v 0.224266 -0.204138 3.830091
v 0.224663 -0.184090 3.828163
v 0.225078 -0.185644 3.826922
v 0.227825 -0.195463 3.818500
v 0.226636 -0.189848 3.821472
v 0.228406 -0.193639 3.839545
v 0.217653 -0.170172 3.835334
v 0.226636 -0.189848 3.821472
v 0.224138 -0.185523 3.826293
v 0.224929 -0.185189 3.827271
v 0.222665 -0.178614 3.849153
v 0.222933 -0.180385 3.849038
v 0.222950 -0.180480 3.849072
v 0.220676 -0.175456 3.848513
v 0.220415 -0.245433 3.787721
v 0.217435 -0.208271 3.826274
v 0.218354 -0.226346 3.795001
v 0.224353 -0.185850 3.826643
v 0.215646 -0.198544 3.812477
v 0.220783 -0.176827 3.829698
v 0.215657 -0.198019 3.813148
v 0.212405 -0.198247 3.813065
v 0.217687 -0.171516 3.833307
v 0.221232 -0.178373 3.829556
v 0.213386 -0.188557 3.836146
v 0.217687 -0.171516 3.833307
v 0.216978 -0.171507 3.851372
v 0.222933 -0.180385 3.849038
v 0.222539 -0.178677 3.849095
v 0.218712 -0.174415 3.850785
v 0.218712 -0.174415 3.850785
v 0.217204 -0.170180 3.835067
v 0.217687 -0.171516 3.833307
v 0.217176 -0.171396 3.851160
v 0.216582 -0.171415 3.846560
v 0.217176 -0.171396 3.851160
v 0.216366 -0.172382 3.849935
v 0.217176 -0.171396 3.851160
v 0.217509 -0.170386 3.835227
v 0.216582 -0.171415 3.846560
v 0.216109 -0.172905 3.848292
v 0.216366 -0.172382 3.849935
v 0.215304 -0.170766 3.850116
v 0.215097 -0.225619 3.795410
v 0.210542 -0.222417 3.793398
v 0.211757 -0.215783 3.798057
v 0.207174 -0.285086 3.759292
v 0.209494 -0.269122 3.767724
v 0.210199 -0.281333 3.766488
v 0.211603 -0.232384 3.809259
v 0.187271 -0.336921 3.736042
v 0.203689 -0.234824 3.802073
v 0.204147 -0.239530 3.781049
v 0.206341 -0.224194 3.793259
v 0.197947 -0.248853 3.781652
v 0.210199 -0.281333 3.766488
v 0.210199 -0.281333 3.766488
v 0.205991 -0.288621 3.765568
v 0.203425 -0.303640 3.754429
v 0.201428 -0.274436 3.762155
v 0.205991 -0.288621 3.765568
v 0.196836 -0.277252 3.756796
v 0.202641 -0.296503 3.749794
v 0.201537 -0.307097 3.752526
v 0.203154 -0.303649 3.754353
v 0.178404 -0.321289 3.740895
v 0.189049 -0.279699 3.768125
v 0.188908 -0.289927 3.747804
v 0.193478 -0.334109 3.734141
v 0.188803 -0.339616 3.722942
v 0.184538 -0.312331 3.732308
v 0.188599 -0.290788 3.746855
v 0.191755 -0.272776 3.760103
v 0.176027 -0.322218 3.730585
v 0.187661 -0.351128 3.726224
v 0.189552 -0.319212 3.731157
v 0.186795 -0.352250 3.725358
v 0.171515 -0.345038 3.730018
v 0.175676 -0.380740 3.716017
v 0.174687 -0.357949 3.712680
v 0.162397 -0.375402 3.719515
v 0.167814 -0.343012 3.721381
v 0.167935 -0.401997 3.705220
v 0.166676 -0.394692 3.713332
v 0.165163 -0.350324 3.717857
v 0.151002 -0.383795 3.708274
v 0.160499 -0.361347 3.713001
v 0.163481 -0.354773 3.717180
v 0.163291 -0.354679 3.717184
v 0.164500 -0.349748 3.717715
v 0.157299 -0.417261 3.708239
v 0.162532 -0.402152 3.701551
v 0.157648 -0.394779 3.701304
v 0.159318 -0.367041 3.710553
v 0.159724 -0.362504 3.712983
v 0.158491 -0.368839 3.709810
v 0.153504 -0.381152 3.706493
v 0.153844 -0.376711 3.708521
v 0.160293 -0.361345 3.713031
v 0.155207 -0.425998 3.700133
v 0.138760 -0.455643 3.704722
v 0.158587 -0.402080 3.701515
v 0.146219 -0.418479 3.710152
v 0.147067 -0.393583 3.703905
v 0.149908 -0.399630 3.712397
v 0.149882 -0.385813 3.706158
v 0.149882 -0.385813 3.706158
v 0.151236 -0.383851 3.708153
v 0.137555 -0.449552 3.707978
v 0.140710 -0.449698 3.700500
v 0.144093 -0.417493 3.695579
v 0.146219 -0.418479 3.710152
v 0.145822 -0.400108 3.703052
v 0.144237 -0.400511 3.703529
v 0.149882 -0.385813 3.706158
v 0.146804 -0.393276 3.704228
v 0.144237 -0.400511 3.703529
v 0.129329 -0.450625 3.692332
v 0.133570 -0.423701 3.698464
v 0.139595 -0.411325 3.701083
v 0.140810 -0.418732 3.708003
v 0.138861 -0.413970 3.702942
v 0.143497 -0.401410 3.701594
v 0.139595 -0.411325 3.701083
v 0.134911 -0.429067 3.706175
v 0.143497 -0.401410 3.701594
v 0.144237 -0.400511 3.703529
v 0.146088 -0.399305 3.702073
v 0.125807 -0.477240 3.707485
v 0.132629 -0.440658 3.707467
v 0.133718 -0.423590 3.698552
v 0.129617 -0.431449 3.698843
v 0.124795 -0.481251 3.702125
v 0.122095 -0.475973 3.709009
v 0.120776 -0.465800 3.694516
v 0.125173 -0.439868 3.699599
v 0.129119 -0.432257 3.698675
v 0.125608 -0.480707 3.704425
v 0.125608 -0.480707 3.704425
v 0.123816 -0.480294 3.700549
v 0.123585 -0.478261 3.699697
v 0.124750 -0.481012 3.702515
v 0.125451 -0.481022 3.704782
v 0.125531 -0.480623 3.704285
v 0.123585 -0.478261 3.699697
v 0.120537 -0.474624 3.698904
v 0.123679 -0.480255 3.700645
v 0.119927 -0.469084 3.694520
v 0.117191 -0.463904 3.694900
v 0.117191 -0.463904 3.694900
v 0.122163 -0.444255 3.698571
v 0.122181 -0.444355 3.698566
v 0.120997 -0.475907 3.701205
v 0.123585 -0.478261 3.699697
v 0.123759 -0.480172 3.700646
v 0.119965 -0.475445 3.699034
v 0.111449 -0.462509 3.697210
v 0.122137 -0.475801 3.708664
v 0.114452 -0.469560 3.706140
v 0.119987 -0.471572 3.695435
v 0.119946 -0.468853 3.694520
v 0.119946 -0.468853 3.694520
v 0.115144 -0.465092 3.696202
v 0.115807 -0.465878 3.696083
v 0.118862 -0.451044 3.697153
v 0.111412 -0.462571 3.697424
v 0.112260 -0.460472 3.697435
vn 0.9673 0.2493 0.0460
vn 0.6044 -0.5689 0.5577
vn 0.9881 0.1064 -0.1113
vn 0.8304 0.5561 -0.0361
vn 0.5184 0.4778 -0.7092
vn 0.9744 0.0997 0.2015
vn 0.3273 0.7813 -0.5315
vn 0.4357 0.5192 -0.7352
vn 0.5299 0.5631 -0.6341
vn 0.8873 0.4465 -0.1158
vn 0.9299 0.3644 0.0499
vn 0.9350 0.1063 0.3383
vn 0.9424 -0.0108 -0.3343
vn -0.0346 -0.6747 0.7373
vn -0.2471 -0.5181 0.8188
vn 0.2543 0.5077 -0.8231
vn 0.0718 0.7619 -0.6437
vn -0.3690 -0.5884 0.7194
vn 0.5013 0.4183 -0.7574
vn 0.2052 0.5679 -0.7971
vn -0.0316 0.7061 -0.7074
vn -0.6062 0.5601 -0.5647
vn 0.0108 0.6055 -0.7958
vn 0.0229 0.5912 -0.8062
vn 0.8762 0.4816 -0.0177
vn -0.8560 -0.1262 0.5014
vn -0.4606 -0.5683 0.6818
vn 0.7264 0.5780 -0.3718
vn 0.8242 0.5356 0.1839
vn -0.6242 -0.4493 0.6391
vn 0.4751 0.0800 0.8763
vn 0.7709 0.4317 0.4684
vn 0.6770 0.7330 0.0665
vn 0.7835 0.3333 0.5244
vn -0.8197 -0.2991 0.4884
vn -0.4098 0.9109 0.0491
vn -0.9804 0.1496 -0.1283
vn -0.9549 0.2661 -0.1316
vn -0.9888 0.0691 0.1325
vn -0.9648 0.2424 -0.1020
vn -0.9281 -0.0136 -0.3722
vn -0.1659 -0.5494 0.8189
vn 0.1964 0.6128 -0.7654
vn 0.3249 0.5055 -0.7993
vn 0.2135 0.5163 -0.8293
vn -0.5786 0.5497 -0.6025
vn 0.8023 -0.4725 0.3647
vn 0.9372 -0.0416 -0.3464
vn 0.4790 0.3520 -0.8042
vn 0.0406 -0.5194 0.8536
vn -0.8192 -0.1823 0.5437
vn -0.6438 0.5422 -0.5400
vn -0.9241 0.3610 -0.1252
vn 0.9260 -0.0456 -0.3748
vn 0.8667 -0.4865 -0.1107
vn 0.9478 -0.3187 0.0122
vn 0.7233 0.1756 -0.6678
vn 0.9222 -0.1006 -0.3734
vn 0.6438 -0.5439 0.5382
vn 0.4313 0.3980 -0.8097
vn 0.4244 0.3878 -0.8182
vn -0.2663 0.5880 -0.7638
vn 0.8496 -0.4650 0.2488
vn 0.5227 -0.5897 0.6157
vn 0.4538 0.3263 -0.8293
vn -0.7833 -0.1395 0.6058
vn -0.9278 -0.0048 0.3729
vn -0.5492 0.6922 -0.4682
vn 0.9444 -0.3082 -0.1144
vn 0.6771 0.1154 -0.7268
vn -0.0299 0.5214 -0.8528
vn -0.2621 0.5729 -0.7766
vn -0.6610 0.5694 -0.4887
vn -0.8105 0.4837 -0.3304
vn 0.5576 -0.4329 0.7083
vn 0.9050 -0.2278 -0.3592
vn -0.6591 -0.1049 0.7447
vn 0.8373 -0.4088 0.3631
vn -0.4579 -0.0540 0.8874
vn -0.8930 0.1707 0.4165
vn 0.8871 -0.3354 -0.3171
vn 0.1695 -0.3146 0.9340
vn 0.1908 0.2258 -0.9553
vn -0.1947 0.4244 -0.8843
vn -0.2210 0.3368 -0.9153
vn -0.9332 0.3574 0.0368
vn -0.8866 0.0923 0.4533
vn -0.9232 0.3741 -0.0878
vn -0.8716 0.1767 0.4573
vn 0.5565 -0.4107 0.7222
vn 0.3212 -0.0451 -0.9459
vn -0.0018 0.2170 -0.9762
vn 0.1110 0.0139 -0.9937
vn -0.1892 0.3880 -0.9020
vn -0.4998 0.4535 -0.7380
vn -0.1564 0.3280 -0.9317
vn -0.7465 0.5356 -0.3947
vn -0.7999 0.1583 0.5789
vn -0.9098 0.4115 -0.0544
vn 0.7845 -0.3677 -0.4995
vn 0.8653 -0.4150 0.2812
vn 0.2036 -0.2679 0.9417
vn -0.7243 0.1698 0.6682
vn -0.2120 0.2092 -0.9546
vn -0.3239 0.2895 -0.9007
vn -0.7850 0.4266 -0.4491
vn -0.7851 0.6151 -0.0722
vn -0.8041 0.4368 -0.4034
vn 0.2689 -0.1268 0.9548
vn -0.0302 0.1588 -0.9868
vn -0.4053 0.0216 0.9139
vn -0.3589 0.2866 -0.8883
vn -0.3710 0.2161 -0.9032
vn -0.8533 0.1810 0.4890
vn -0.9383 0.3386 0.0708
vn -0.8766 0.3181 0.3612
vn 0.6004 -0.3585 -0.7148
vn 0.1357 -0.0666 -0.9885
vn -0.3973 0.3428 -0.8513
vn -0.4737 0.4389 -0.7635
vn -0.4234 0.0818 0.9022
vn -0.8856 0.3718 0.2783
vn -0.9198 0.3570 0.1630
vn -0.9120 0.3731 0.1706
vn -0.7549 0.3090 0.5784
vn -0.6109 0.7811 -0.1293
vn 0.5035 -0.4980 0.7061
vn -0.2115 0.0517 0.9760
vn -0.8078 0.5003 -0.3118
vn -0.8967 0.4284 0.1115
vn -0.8860 0.4632 0.0228
vn 0.3870 -0.1667 -0.9069
vn 0.8019 -0.3600 -0.4768
vn 0.0789 -0.1645 0.9832
vn 0.2540 -0.1956 -0.9472
vn -0.8151 -0.1714 0.5534
vn -0.8012 0.4697 0.3708
vn 0.8332 -0.5100 -0.2136
vn 0.7981 -0.4239 0.4282
vn 0.7999 -0.1360 -0.5845
vn 0.6442 -0.3467 -0.6818
vn 0.1507 -0.0760 -0.9857
vn -0.8238 -0.5520 0.1289
vn -0.8108 -0.5261 0.2567
vn -0.7861 -0.5618 0.2578
vn 0.8849 -0.2365 -0.4013
vn -0.0968 -0.0804 -0.9921
vn -0.5297 0.0628 -0.8459
vn -0.4457 -0.0727 0.8922
vn -0.8548 0.4823 0.1914
vn -0.7272 -0.4851 -0.4856
vn -0.6957 -0.3691 -0.6162
vn -0.7969 -0.5674 0.2074
vn -0.7666 -0.6420 -0.0153
vn -0.5196 -0.2833 -0.8061
vn 0.0069 -0.6932 0.7208
vn -0.6580 -0.6705 0.3428
vn -0.5400 -0.2147 -0.8138
vn -0.5337 -0.3188 -0.7833
vn -0.0930 0.0244 -0.9954
vn -0.6552 -0.5183 -0.5496
vn -0.3849 -0.0575 -0.9211
vn -0.4306 -0.2224 -0.8747
vn -0.5322 0.3341 -0.7779
vn -0.9738 -0.2242 -0.0384
vn -0.4308 0.2693 -0.8613
s 1
f 3//1 4//2 1//3
f 6//4 1//3 2//5
f 1//3 6//4 3//1
f 7//6 8//6 9//6
f 12//7 13//8 14//9
f 3//1 11//10 15//11
f 3//1 15//11 16//12
f 19//13 1//3 4//2
f 4//2 3//1 5//14
f 20//15 4//2 5//14
f 21//16 22//17 2//5
f 19//13 2//5 1//3
f 10//18 20//15 5//14
f 24//19 13//8 23//20
f 25//21 26//22 24//23
f 27//24 24//23 26//22
f 3//1 28//25 11//10
f 6//4 28//25 3//1
f 14//9 13//8 24//19
f 20//15 10//18 29//26
f 10//18 17//27 29//26
f 30//28 11//10 28//25
f 18//29 15//11 11//10
f 17//27 31//30 29//26
f 32//31 33//31 34//31
f 18//29 35//32 15//11
f 38//33 18//29 11//10
f 18//29 40//34 35//32
f 41//35 29//26 31//30
f 42//36 43//36 44//36
f 29//26 45//37 36//38
f 29//26 46//39 45//37
f 45//37 39//40 36//38
f 47//41 39//40 45//37
f 54//42 4//2 20//15
f 21//16 2//5 19//13
f 50//43 48//44 49//45
f 13//8 21//16 48//44
f 13//8 48//44 23//20
f 48//44 50//43 23//20
f 26//22 23//20 50//43
f 23//20 26//22 25//21
f 36//38 26//22 29//26
f 36//38 37//46 26//22
f 4//2 53//47 19//13
f 19//13 51//48 52//49
f 19//13 52//49 21//16
f 52//49 48//44 21//16
f 4//2 54//42 55//50
f 54//42 20//15 56//51
f 49//45 58//52 50//43
f 58//52 26//22 50//43
f 56//51 20//15 29//26
f 58//52 59//53 26//22
f 26//22 59//53 29//26
f 19//13 60//54 51//48
f 61//55 62//56 51//48
f 51//48 67//57 52//49
f 63//58 51//48 62//56
f 53//47 4//2 65//59
f 55//50 65//59 4//2
f 64//60 48//44 52//49
f 66//61 48//44 64//60
f 48//44 66//61 49//45
f 49//45 66//61 57//62
f 58//52 49//45 57//62
f 67//57 63//58 68//63
f 69//64 65//59 68//63
f 67//57 80//65 64//60
f 51//48 63//58 67//57
f 64//60 52//49 67//57
f 55//50 54//42 70//66
f 54//42 71//67 70//66
f 66//61 72//68 57//62
f 58//52 57//62 59//53
f 56//51 71//67 54//42
f 56//51 29//26 59//53
f 59//53 71//67 56//51
f 73//69 74//70 67//57
f 68//63 73//69 67//57
f 55//50 68//63 65//59
f 64//60 75//71 66//61
f 75//71 76//72 66//61
f 76//72 72//68 66//61
f 77//73 57//62 72//68
f 77//73 59//53 57//62
f 77//73 78//74 59//53
f 59//53 78//74 71//67
f 79//75 73//69 68//63
f 80//65 67//57 74//70
f 80//65 75//71 64//60
f 76//72 78//74 77//73
f 71//67 78//74 70//66
f 81//76 74//70 73//69
f 55//50 79//75 68//63
f 82//77 55//50 70//66
f 74//70 75//71 80//65
f 74//70 81//76 83//78
f 79//75 55//50 83//78
f 85//79 55//50 82//77
f 70//66 78//74 86//80
f 78//74 76//72 75//71
f 87//81 74//70 83//78
f 88//82 83//78 55//50
f 87//81 84//83 74//70
f 74//70 84//83 75//71
f 89//84 78//74 75//71
f 70//66 86//80 82//77
f 55//50 85//79 88//82
f 91//85 89//84 84//83
f 89//84 91//85 92//86
f 93//87 99//88 85//79
f 75//71 84//83 89//84
f 94//89 93//87 82//77
f 93//87 85//79 82//77
f 94//89 82//77 86//80
f 83//78 95//90 87//81
f 95//90 83//78 88//82
f 96//91 84//83 87//81
f 96//91 97//92 84//83
f 106//93 97//92 96//91
f 98//94 91//85 84//83
f 97//92 98//94 84//83
f 100//95 99//88 98//94
f 101//96 98//94 97//92
f 99//88 100//95 102//97
f 99//88 90//98 85//79
f 103//99 99//88 93//87
f 98//94 99//88 91//85
f 95//90 104//100 87//81
f 105//101 104//100 95//90
f 104//100 96//91 87//81
f 104//100 106//93 96//91
f 97//92 106//93 104//100
f 107//102 95//90 88//82
f 88//82 85//79 107//102
f 109//103 85//79 90//98
f 97//92 108//104 110//105
f 110//105 101//96 97//92
f 101//106 111//107 112//108
f 101//106 112//108 102//97
f 101//106 102//97 100//95
f 102//97 90//98 99//88
f 95//90 113//109 105//101
f 97//92 104//100 115//110
f 116//111 85//79 109//103
f 97//92 117//112 108//104
f 108//104 117//112 118//113
f 120//114 109//103 90//98
f 120//114 90//98 119//115
f 120//114 121//116 109//103
f 104//100 105//101 114//117
f 115//110 104//100 122//118
f 115//110 123//119 124//120
f 116//111 109//103 125//121
f 115//110 117//112 97//92
f 115//110 124//120 117//112
f 121//116 126//122 109//103
f 127//123 126//122 121//116
f 128//124 126//122 127//123
f 129//125 109//103 126//122
f 130//126 131//126 132//126
f 105//101 113//109 133//127
f 134//128 113//109 95//90
f 134//128 95//90 107//102
f 123//119 115//110 122//118
f 141//129 129//125 126//122
f 129//125 134//128 125//121
f 135//130 136//131 126//122
f 134//128 116//111 125//121
f 126//122 128//124 135//130
f 150//132 104//100 114//117
f 114//117 105//101 137//133
f 133//127 113//109 138//134
f 139//135 104//100 150//132
f 134//128 138//134 113//109
f 139//135 122//118 104//100
f 129//125 163//136 134//128
f 141//129 140//137 129//125
f 123//119 122//118 141//129
f 137//133 105//101 142//138
f 105//101 133//127 143//139
f 137//133 144//140 145//141
f 114//117 137//133 145//141
f 149//142 150//132 114//117
f 147//143 151//144 146//145
f 152//146 139//135 150//132
f 153//147 122//118 139//135
f 122//118 154//148 141//129
f 138//134 134//128 163//136
f 155//149 129//125 140//137
f 155//149 156//150 129//125
f 140//137 141//129 156//150
f 158//151 159//152 157//153
f 147//143 157//153 151//144
f 157//153 160//154 158//151
f 157//153 161//155 160//154
f 147//143 161//155 157//153
f 148//156 133//127 138//134
f 147//143 162//157 163//136
f 164//158 154//148 165//159
f 153//147 139//135 166//160
f 164//161 161//155 167//162
f 164//158 168//163 154//148
f 164//161 160//154 161//155
f 147//143 163//136 161//155
f 154//148 167//162 169//164
f 168//163 167//162 154//148
f 141//129 154//148 169//164
f 156//150 169//164 170//165
f 129//125 156//150 170//165
f 169//164 156//150 141//129
f 169//164 167//162 161//155
f 169//164 161//155 171//166
f 163//136 170//165 161//155
f 129//125 170//165 163//136
