# Blender v2.78 (sub 0) OBJ File: 'exporter.blend'
# www.blender.org
o FJ1481.obj_grp1.314
v -1.405072 -0.679439 3.570524
v -1.405200 -0.680402 3.570680
v -1.405200 -0.680402 3.570680
v -1.404990 -0.679504 3.571053
v -1.404754 -0.679318 3.569938
v -1.404855 -0.679182 3.570806
v -1.405270 -0.679224 3.570915
v -1.404709 -0.679334 3.571058
v -1.403635 -0.685833 3.566795
v -1.404073 -0.690026 3.567760
v -1.404696 -0.687294 3.569193
v -1.403528 -0.683894 3.567261
v -1.399275 -0.684026 3.570473
v -1.403943 -0.690407 3.568250
v -1.392106 -0.684084 3.574938
v -1.404097 -0.685529 3.566737
v -1.404613 -0.689923 3.568746
v -1.404092 -0.686373 3.571356
v -1.404092 -0.686373 3.571356
v -1.404613 -0.689923 3.568746
v -1.393637 -0.685106 3.587543
v -1.403851 -0.685745 3.567140
v -1.404092 -0.686373 3.571356
v -1.403972 -0.690173 3.568272
v -1.404613 -0.689923 3.568746
v -1.404326 -0.689915 3.568206
v -1.404097 -0.685529 3.566737
v -1.393627 -0.682976 3.589404
v -1.391834 -0.683867 3.575271
v -1.404561 -0.689378 3.577398
v -1.404569 -0.689358 3.577470
v -1.404084 -0.690180 3.568688
v -1.393637 -0.685106 3.587543
v -1.404561 -0.689378 3.577398
v -1.404569 -0.689358 3.577470
v -1.404548 -0.679699 3.570455
v -1.405200 -0.680402 3.570680
v -1.405200 -0.680402 3.570680
v -1.404536 -0.679729 3.570991
v -1.404411 -0.679406 3.570748
v -1.404754 -0.679318 3.569938
v -1.404190 -0.679763 3.570769
v -1.404559 -0.679409 3.571037
v -1.403538 -0.679247 3.570853
v -1.403500 -0.679095 3.570910
v -1.403538 -0.679247 3.570853
v -1.403500 -0.679095 3.570910
v -1.401837 -0.680076 3.571587
v -1.402383 -0.679801 3.571661
v -1.401336 -0.679238 3.571440
v -1.401927 -0.679883 3.571434
v -1.401915 -0.679957 3.571808
v -1.401317 -0.679350 3.572004
v -1.402383 -0.679801 3.571661
v -1.401383 -0.679321 3.571719
v -1.401703 -0.680076 3.571582
v -1.400900 -0.679510 3.571666
v -1.401194 -0.679403 3.571519
v -1.401768 -0.680059 3.571295
v -1.401749 -0.680172 3.571858
v -1.401183 -0.679471 3.571860
v -1.401149 -0.679394 3.571754
v -1.401336 -0.679238 3.571440
v -1.402164 -0.683194 3.571946
v -1.401759 -0.682364 3.572103
v -1.402164 -0.683194 3.571946
v -1.401759 -0.682364 3.572103
v -1.399468 -0.683763 3.570765
v -1.399899 -0.681219 3.572248
v -1.399509 -0.680427 3.572487
v -1.399509 -0.680427 3.572487
v -1.399899 -0.681219 3.572248
v -1.397905 -0.679306 3.573504
v -1.397820 -0.679322 3.573515
v -1.397820 -0.679322 3.573515
v -1.397905 -0.679306 3.573504
v -1.393637 -0.685106 3.587543
v -1.392656 -0.682900 3.584116
v -1.397152 -0.687038 3.584396
v -1.397158 -0.687031 3.584403
v -1.397153 -0.687045 3.584398
v -1.397153 -0.687035 3.584404
v -1.397148 -0.687031 3.584399
v -1.397158 -0.687031 3.584403
v -1.397158 -0.687031 3.584403
v -1.397148 -0.687032 3.584405
v -1.397153 -0.687045 3.584398
v -1.397146 -0.687038 3.584395
v -1.397153 -0.687045 3.584398
v -1.397146 -0.687039 3.584402
v -1.397144 -0.687036 3.584396
v -1.397144 -0.687026 3.584403
v -1.397139 -0.687040 3.584398
v -1.397145 -0.687032 3.584404
v -1.395188 -0.685922 3.585422
v -1.395440 -0.685890 3.584961
v -1.395440 -0.685890 3.584961
v -1.395188 -0.685922 3.585422
v -1.394951 -0.685353 3.586566
v -1.394543 -0.685571 3.586520
v -1.394951 -0.685353 3.586566
v -1.394543 -0.685571 3.586520
v -1.392972 -0.682793 3.583976
v -1.377360 -0.665375 3.587877
v -1.368126 -0.665633 3.594407
v -1.394925 -0.685359 3.588432
v -1.392203 -0.678651 3.593443
v -1.393548 -0.683561 3.590299
v -1.385611 -0.676462 3.598930
v -1.392083 -0.678487 3.593609
v -1.387161 -0.678119 3.596654
v -1.359286 -0.660624 3.628254
v -1.376779 -0.662143 3.611842
v -1.375824 -0.660948 3.612498
v -1.376892 -0.662228 3.611554
v -1.357580 -0.660143 3.628392
v -1.376106 -0.665533 3.589171
v -1.362422 -0.657164 3.597322
v -1.356755 -0.649431 3.629808
v -1.348616 -0.648829 3.636071
v -1.323266 -0.627403 3.651245
v -1.341829 -0.660660 3.616482
v -1.362422 -0.657164 3.597322
v -1.286170 -0.623115 3.678660
v -1.336817 -0.645541 3.602885
v -1.332255 -0.639112 3.612389
v -1.323950 -0.640782 3.610981
v -1.315132 -0.626556 3.626423
v -1.332103 -0.631651 3.632525
v -1.323527 -0.630996 3.651761
v -1.319917 -0.651840 3.628091
v -1.301918 -0.632033 3.622828
v -1.351489 -0.657539 3.632612
v -1.286401 -0.630347 3.674796
v -1.289405 -0.612242 3.652946
v -1.317179 -0.629651 3.658385
v -1.314129 -0.628522 3.660366
v -1.319917 -0.651840 3.628091
v -1.301918 -0.632033 3.622828
v -1.277908 -0.613515 3.653441
v -1.314425 -0.632803 3.658672
v -1.314141 -0.628488 3.660368
v -1.273199 -0.610218 3.681070
v -1.272410 -0.608510 3.683902
v -1.289217 -0.646032 3.650505
v -1.279816 -0.607851 3.677703
v -1.280165 -0.607930 3.677453
v -1.289370 -0.612292 3.652946
v -1.270013 -0.616926 3.669248
v -1.279487 -0.632127 3.632574
v -1.251024 -0.612113 3.646181
v -1.278116 -0.613695 3.653442
v -1.257590 -0.611736 3.694369
v -1.275635 -0.611796 3.681452
v -1.272802 -0.608401 3.684060
v -1.272863 -0.609109 3.682201
v -1.272863 -0.609109 3.682201
v -1.231226 -0.590157 3.699707
v -1.262572 -0.601584 3.684126
v -1.323316 -0.640634 3.611110
v -1.301918 -0.632033 3.622828
v -1.279487 -0.632127 3.632574
v -1.246002 -0.630011 3.672734
v -1.255962 -0.617198 3.689013
v -1.272863 -0.609109 3.682201
v -1.258538 -0.613069 3.681930
v -1.262572 -0.601584 3.684126
v -1.250855 -0.591414 3.685266
v -1.251592 -0.590833 3.685609
v -1.241385 -0.627344 3.662136
v -1.240236 -0.614190 3.640475
v -1.301918 -0.632033 3.622828
v -1.250799 -0.611333 3.646035
v -1.239951 -0.611647 3.693856
v -1.256103 -0.619182 3.653731
v -1.257704 -0.611785 3.694360
v -1.241017 -0.616789 3.668122
v -1.259625 -0.612502 3.681073
v -1.228218 -0.597495 3.703206
v -1.237119 -0.583392 3.687615
v -1.235982 -0.596349 3.688468
v -1.251453 -0.591231 3.685687
v -1.243294 -0.592373 3.688298
v -1.245532 -0.588181 3.689110
v -1.236102 -0.584107 3.687930
v -1.231348 -0.580430 3.694956
v -1.247944 -0.615668 3.640414
v -1.301918 -0.632033 3.622828
v -1.246780 -0.610034 3.647381
v -1.254502 -0.619283 3.654643
v -1.241536 -0.613661 3.659057
v -1.244438 -0.618325 3.684229
v -1.244287 -0.618053 3.684126
v -1.241517 -0.608588 3.700815
v -1.228597 -0.578200 3.691393
v -1.228306 -0.588876 3.678398
v -1.236973 -0.582838 3.687961
v -1.224286 -0.582101 3.683972
v -1.231348 -0.580430 3.694956
v -1.230655 -0.587282 3.698813
v -1.230325 -0.585633 3.699382
v -1.231348 -0.580430 3.694956
v -1.227716 -0.582045 3.688415
v -1.228597 -0.578200 3.691393
v -1.228597 -0.578200 3.691393
v -1.221757 -0.595199 3.648540
v -1.221757 -0.595199 3.648540
v -1.245816 -0.613896 3.637573
v -1.238569 -0.618433 3.680867
v -1.244287 -0.618053 3.684126
v -1.235982 -0.596349 3.688468
v -1.239416 -0.617598 3.678931
v -1.239055 -0.606802 3.654461
v -1.221757 -0.595199 3.648540
v -1.239654 -0.603864 3.652873
v -1.238744 -0.605421 3.653178
v -1.236920 -0.607123 3.667675
v -1.222504 -0.596148 3.654395
v -1.222504 -0.596148 3.654395
v -1.237394 -0.603641 3.670966
v -1.235570 -0.606743 3.667982
v -1.236909 -0.608002 3.668350
v -1.235433 -0.604058 3.670229
v -1.241449 -0.608631 3.700888
v -1.221085 -0.599961 3.706091
v -1.223274 -0.599202 3.707902
v -1.229810 -0.595042 3.675472
v -1.229659 -0.600628 3.673516
v -1.231076 -0.606194 3.681149
v -1.228306 -0.588876 3.678398
v -1.228582 -0.600955 3.672897
v -1.226150 -0.590004 3.683727
v -1.227908 -0.591154 3.682808
v -1.224912 -0.599821 3.706755
v -1.229106 -0.596826 3.700870
v -1.228306 -0.588876 3.678398
v -1.236973 -0.582838 3.687961
v -1.228597 -0.578200 3.691393
v -1.224212 -0.583808 3.684455
v -1.228306 -0.588876 3.678398
v -1.224274 -0.584575 3.684412
v -1.223986 -0.582610 3.684713
v -1.231633 -0.586974 3.698904
v -1.229854 -0.595914 3.701277
v -1.230439 -0.588863 3.699947
v -1.230595 -0.587290 3.699929
v -1.227270 -0.581489 3.687879
v -1.228708 -0.581595 3.687315
v -1.227847 -0.581206 3.688162
v -1.228597 -0.578200 3.691393
v -1.224011 -0.582613 3.684684
v -1.228306 -0.588876 3.678398
v -1.223714 -0.584285 3.683895
v -1.212993 -0.597409 3.660843
v -1.236489 -0.616273 3.676811
v -1.238569 -0.618433 3.680867
v -1.238569 -0.618433 3.680867
v -1.231076 -0.606194 3.681149
v -1.236489 -0.616273 3.676811
v -1.246780 -0.610034 3.647381
v -1.222504 -0.596148 3.654395
v -1.229405 -0.603837 3.671023
v -1.229616 -0.602485 3.672262
v -1.236674 -0.606227 3.670881
v -1.231282 -0.605572 3.671768
v -1.229616 -0.602485 3.672262
v -1.225931 -0.602504 3.667291
v -1.231076 -0.606194 3.681149
v -1.222465 -0.599603 3.703182
v -1.230043 -0.600875 3.672600
v -1.231076 -0.606194 3.681149
v -1.230043 -0.600875 3.672600
v -1.235433 -0.604058 3.670229
v -1.224096 -0.602615 3.673812
v -1.222857 -0.597041 3.674383
v -1.224119 -0.602631 3.673882
v -1.224288 -0.604124 3.670793
v -1.214091 -0.598868 3.679960
v -1.240850 -0.612682 3.693360
v -1.222386 -0.599753 3.703223
v -1.221138 -0.599852 3.706036
v -1.228306 -0.588876 3.678398
v -1.222517 -0.596486 3.681549
v -1.225959 -0.594270 3.677619
v -1.224047 -0.596245 3.682843
v -1.223715 -0.598255 3.676741
v -1.225959 -0.594270 3.677619
v -1.216762 -0.592979 3.683008
v -1.224170 -0.596593 3.682839
v -1.224147 -0.593950 3.682412
v -1.221706 -0.599747 3.702190
v -1.223236 -0.600271 3.702731
v -1.223009 -0.599020 3.706745
v -1.224512 -0.597722 3.707322
v -1.221283 -0.599237 3.706162
v -1.221283 -0.599237 3.706162
v -1.223390 -0.598858 3.707541
v -1.220287 -0.599160 3.705674
v -1.221464 -0.598998 3.702845
v -1.223123 -0.599115 3.707740
v -1.221248 -0.599503 3.706131
v -1.221029 -0.584559 3.683888
v -1.223504 -0.591350 3.683971
v -1.222748 -0.588261 3.682548
v -1.226020 -0.589983 3.683745
v -1.222748 -0.588261 3.682548
v -1.223504 -0.591350 3.683971
v -1.225959 -0.594270 3.677619
v -1.222524 -0.587926 3.682596
v -1.222751 -0.588262 3.682550
v -1.220063 -0.584308 3.683248
v -1.220696 -0.585109 3.683789
v -1.228306 -0.588876 3.678398
v -1.222992 -0.583862 3.683440
v -1.223221 -0.584098 3.683720
v -1.220063 -0.584308 3.683248
v -1.216509 -0.596227 3.648894
v -1.219841 -0.609469 3.670099
v -1.218622 -0.608101 3.696690
v -1.217965 -0.596650 3.649413
v -1.225931 -0.602504 3.667291
v -1.229405 -0.603837 3.671023
v -1.223738 -0.601829 3.670273
v -1.224288 -0.604124 3.670793
v -1.220872 -0.603620 3.671583
v -1.222866 -0.602632 3.671666
v -1.220681 -0.605654 3.666048
v -1.223557 -0.603292 3.669392
v -1.225931 -0.602504 3.667291
v -1.218870 -0.598889 3.670699
v -1.218870 -0.598889 3.670699
v -1.216687 -0.599564 3.670566
v -1.219474 -0.604793 3.671310
v -1.217424 -0.606771 3.671190
v -1.220405 -0.607278 3.668108
v -1.224288 -0.604124 3.670793
v -1.221482 -0.608532 3.670515
v -1.220726 -0.608356 3.671372
v -1.220687 -0.608397 3.670765
v -1.220396 -0.605297 3.672201
v -1.221757 -0.595199 3.648540
v -1.222504 -0.596148 3.654395
v -1.216617 -0.596133 3.649132
v -1.220663 -0.596889 3.647273
v -1.212830 -0.597258 3.660620
v -1.218568 -0.600343 3.670637
v -1.218879 -0.598967 3.670721
v -1.212072 -0.598683 3.667629
v -1.224170 -0.596593 3.682839
v -1.214044 -0.598805 3.679868
v -1.223715 -0.598255 3.676741
v -1.224170 -0.596593 3.682839
v -1.216762 -0.592979 3.683008
v -1.214044 -0.598805 3.679868
v -1.216762 -0.592979 3.683008
v -1.206728 -0.595032 3.690259
v -1.218950 -0.606875 3.697003
v -1.221552 -0.599780 3.701701
v -1.221081 -0.599626 3.701289
v -1.224075 -0.596144 3.686840
v -1.204843 -0.591171 3.688055
v -1.205141 -0.594658 3.694305
v -1.207673 -0.596908 3.704247
v -1.221081 -0.599626 3.701289
v -1.207673 -0.596908 3.704247
v -1.207845 -0.598989 3.681996
v -1.212072 -0.598683 3.667629
v -1.206802 -0.591571 3.689123
v -1.212697 -0.597099 3.660725
v -1.216617 -0.596133 3.649132
v -1.211862 -0.597482 3.661000
v -1.211099 -0.597545 3.660194
v -1.212591 -0.597350 3.661202
v -1.211878 -0.597764 3.661968
v -1.214816 -0.597202 3.660395
v -1.215021 -0.597414 3.661817
v -1.212913 -0.597715 3.660523
v -1.215392 -0.599631 3.657963
v -1.212072 -0.598683 3.667629
v -1.216889 -0.600002 3.671088
v -1.220405 -0.607278 3.668108
v -1.207581 -0.597253 3.704264
v -1.209364 -0.597610 3.702618
v -1.204949 -0.593862 3.690893
v -1.204516 -0.593727 3.689881
v -1.204843 -0.591171 3.688055
vn 0.5708 -0.0138 -0.8210
vn 0.4019 0.4343 -0.8061
vn 0.7089 -0.3965 -0.5833
vn -0.9916 0.1271 0.0237
vn -0.7966 -0.2786 0.5364
vn -0.0025 -0.7323 0.6810
vn -0.4801 0.8708 0.1057
vn -0.5031 0.8466 0.1736
vn -0.4667 0.8669 0.1749
vn -0.5809 0.7499 0.3165
vn -0.5260 0.8128 0.2503
vn 0.7045 0.0201 -0.7094
vn -0.7465 0.6546 0.1193
vn -0.9014 0.4322 -0.0248
vn -0.5436 0.7989 -0.2574
vn -0.5262 -0.3531 0.7736
vn -0.2861 -0.6383 0.7146
vn -0.6262 -0.3307 0.7061
vn -0.7086 0.7047 -0.0359
vn -0.6986 0.6166 0.3629
vn -0.6756 0.0489 0.7356
vn -0.6987 0.6217 0.3540
vn -0.5984 -0.1966 0.7767
vn 0.6755 -0.7373 0.0034
vn 0.5755 -0.8178 0.0007
vn 0.5390 -0.0277 -0.8419
vn -0.6171 0.0152 0.7867
vn -0.7761 0.3344 0.5346
vn -0.3596 0.8669 -0.3452
vn -0.6878 -0.0035 0.7259
vn -0.5440 0.7241 0.4239
vn 0.3986 -0.9049 -0.1492
vn 0.2120 -0.9317 0.2949
vn -0.3901 -0.0777 0.9175
vn 0.5065 -0.5724 -0.6449
vn -0.2137 0.8035 -0.5556
vn 0.0040 0.7369 -0.6760
vn -0.3350 0.8521 -0.4022
vn -0.2019 0.8430 -0.4987
vn -0.4591 0.8841 -0.0871
vn -0.6381 0.3406 0.6906
vn 0.4408 -0.8020 -0.4032
vn 0.0990 0.7095 -0.6977
vn -0.3568 -0.4313 0.8286
vn -0.3850 -0.3484 0.8546
vn -0.5535 0.7502 0.3619
vn -0.5497 0.0405 0.8344
vn 0.0217 0.7916 -0.6107
vn -0.1595 0.9866 0.0356
vn -0.4651 0.7998 0.3796
vn 0.1224 0.9451 -0.3030
vn -0.6152 0.3194 0.7208
vn 0.1916 -0.9815 -0.0027
vn 0.2577 -0.9506 0.1730
vn 0.2864 0.9004 -0.3276
vn -0.5476 0.1034 0.8303
vn 0.0467 -0.8167 0.5752
vn 0.6614 0.6771 -0.3226
vn 0.2488 0.9463 -0.2066
vn 0.4254 -0.6903 -0.5852
vn -0.0047 0.9615 0.2747
vn -0.1855 0.9813 0.0506
vn -0.4048 -0.2183 0.8880
vn -0.5340 0.0633 0.8431
vn -0.4595 0.4973 0.7359
vn -0.4696 0.7787 -0.4161
vn -0.4490 0.7745 -0.4455
vn -0.4974 0.7502 -0.4357
vn 0.3870 0.2474 -0.8883
vn 0.3801 -0.8739 0.3030
vn 0.2381 0.9108 -0.3374
vn -0.0068 0.1858 -0.9826
vn 0.1121 0.1780 -0.9776
vn 0.0396 0.2764 -0.9602
vn -0.5683 0.4982 0.6548
vn 0.1264 0.0834 -0.9885
vn 0.5757 -0.8008 -0.1649
vn 0.5379 -0.6254 -0.5653
vn 0.3600 -0.4210 -0.8326
vn 0.0884 0.9509 0.2967
vn 0.0312 -0.8206 0.5706
vn 0.1162 -0.6403 0.7593
vn -0.2914 0.9489 0.1215
vn 0.3091 0.9503 0.0362
vn -0.4361 0.2986 0.8489
vn 0.1635 -0.0642 -0.9844
vn 0.1693 0.0222 -0.9853
vn -0.5757 0.3371 0.7449
vn 0.0838 -0.8397 0.5365
vn -0.2280 0.7753 -0.5890
vn -0.0328 0.7798 -0.6251
vn -0.7141 0.6141 0.3362
vn -0.4357 0.0557 0.8984
vn -0.3185 0.9291 -0.1881
vn -0.5685 0.8214 -0.0457
vn -0.4681 0.8668 -0.1722
vn -0.6214 0.7834 0.0105
vn -0.2091 0.7023 -0.6805
vn -0.1403 0.8078 -0.5725
vn -0.1994 0.8505 -0.4867
vn -0.5694 0.3588 0.7396
vn -0.0494 0.9308 -0.3621
vn 0.0848 0.6118 -0.7865
vn 0.3532 0.6457 0.6770
vn 0.3660 0.6474 0.6685
vn 0.3529 0.7268 0.5892
vn -0.2789 0.7667 0.5783
vn -0.4263 0.7441 0.5144
vn -0.5479 0.6627 0.5105
vn -0.4144 0.7403 -0.5294
vn 0.2730 0.9560 0.1076
vn 0.0835 0.9936 0.0755
vn -0.6894 0.3864 -0.6127
vn -0.7593 0.2833 -0.5858
vn -0.7668 0.3738 -0.5219
vn 0.2893 0.2840 -0.9141
vn -0.6370 0.6916 0.3406
vn -0.4635 0.6663 0.5841
vn -0.2059 0.9176 -0.3400
vn -0.4561 0.8880 -0.0588
vn -0.3696 0.8750 -0.3125
vn -0.4152 0.9049 0.0939
vn -0.6464 0.4836 -0.5902
vn -0.1183 0.6963 -0.7079
vn -0.5723 0.4358 -0.6947
vn 0.2622 -0.8646 0.4285
vn 0.1640 -0.8330 0.5283
vn -0.9718 0.1339 -0.1942
vn -0.9689 0.1206 -0.2162
vn -0.9762 0.0670 -0.2060
vn -0.8288 0.1130 -0.5481
vn -0.7632 -0.0800 -0.6411
vn 0.2250 -0.1774 0.9581
vn 0.5344 -0.2605 0.8041
vn 0.8346 -0.3819 0.3970
vn 0.9366 -0.0004 0.3505
vn 0.9526 0.1540 0.2622
vn 0.7418 0.6528 0.1535
vn 0.9539 -0.0074 0.3001
vn 0.0435 0.9557 -0.2913
vn 0.0532 0.9542 -0.2945
vn 0.0437 0.9556 -0.2915
vn -0.7009 0.6531 0.2865
vn -0.4868 0.8496 0.2029
vn -0.8409 0.5184 -0.1552
vn -0.4741 0.8239 -0.3106
vn -0.4267 0.6671 0.6107
vn -0.5021 0.8512 0.1528
vn -0.9369 -0.0570 0.3449
vn -0.4251 0.8793 0.2147
vn -0.4233 0.9058 0.0166
vn -0.9125 0.1235 0.3899
vn 0.0138 0.5013 -0.8651
vn 0.0317 0.5161 -0.8559
vn -0.2174 0.5617 -0.7983
vn -0.0417 0.6419 -0.7657
vn -0.5878 0.7170 0.3748
vn 0.4013 0.3564 -0.8438
vn 0.3126 0.3177 -0.8952
vn -0.0673 0.6999 -0.7111
vn 0.1440 0.4435 -0.8846
vn 0.2574 -0.0086 -0.9663
vn -0.2402 0.8791 -0.4118
vn 0.6511 -0.6917 -0.3125
vn 0.1997 -0.8067 0.5562
vn 0.1903 0.5314 -0.8254
vn 0.6915 0.2657 -0.6717
vn 0.8535 0.5058 -0.1249
vn 0.8504 0.5113 -0.1240
vn 0.8534 0.5071 -0.1207
vn 0.1001 -0.1600 -0.9820
vn 0.8228 -0.5661 0.0502
vn 0.2854 0.7808 0.5559
vn 0.3896 0.8441 0.3683
vn -0.4267 0.3904 0.8158
vn 0.4566 0.8225 -0.3391
vn 0.2621 0.8730 -0.4113
vn 0.2821 0.5249 -0.8031
vn 0.1291 0.3891 0.9121
vn 0.9907 0.0451 -0.1282
vn 0.9060 -0.0266 0.4224
vn 0.9052 0.0395 -0.4232
vn 0.4920 -0.4598 0.7393
vn 0.3964 -0.3513 0.8482
vn 0.7768 0.0840 -0.6241
vn 0.3494 0.4603 -0.8161
vn 0.3632 0.4401 -0.8212
vn 0.3437 0.4420 -0.8286
vn 0.6795 -0.5894 -0.4369
vn 0.6843 -0.6919 -0.2303
vn 0.4529 -0.8141 0.3635
vn 0.2790 0.1857 -0.9421
vn 0.4385 0.2911 -0.8503
vn 0.3204 0.0809 -0.9438
vn -0.4153 0.9056 0.0860
vn -0.2243 0.8250 0.5188
vn -0.2271 0.7640 0.6040
vn 0.0554 0.2075 0.9767
vn -0.5496 0.3831 0.7424
vn -0.5539 0.3712 0.7453
vn -0.5485 0.3602 0.7546
vn -0.5352 0.8054 0.2547
vn 0.0241 -0.5903 0.8068
vn 0.2472 -0.6270 0.7387
vn 0.2257 -0.6262 0.7463
vn 0.6822 -0.6250 -0.3794
vn 0.6751 -0.7086 -0.2054
vn 0.5982 0.6201 -0.5076
vn 0.7931 0.5237 -0.3111
vn 0.4326 0.5829 -0.6879
vn 0.1562 0.9717 0.1770
vn 0.0434 0.9843 0.1709
vn 0.1126 0.9853 0.1283
vn 0.3709 -0.0555 -0.9270
vn -0.0714 0.9809 0.1807
vn -0.1074 0.9593 0.2612
vn 0.0694 -0.1984 0.9777
vn 0.0055 0.9821 0.1880
vn 0.1357 0.9583 -0.2515
vn -0.1759 0.4020 -0.8986
vn 0.2434 0.9616 -0.1271
vn 0.5153 0.8417 -0.1615
vn -0.0957 -0.6785 0.7284
vn -0.1508 0.8205 0.5515
vn -0.1083 0.8709 0.4794
vn -0.0256 0.8717 0.4894
vn -0.0065 0.9435 0.3313
vn -0.1356 0.9137 0.3832
vn -0.2750 0.8314 0.4828
vn -0.0840 -0.4727 0.8772
vn -0.0816 -0.4781 0.8745
vn -0.0628 -0.5260 0.8482
vn 0.7627 -0.6160 0.1972
vn 0.7385 -0.6345 -0.2282
vn 0.5848 -0.5330 0.6114
vn 0.7850 -0.6088 0.1145
vn 0.7223 -0.6544 -0.2237
s 1
f 14//1 11//2 15//3
f 16//4 17//4 18//4
f 19//5 20//5 21//5
f 15//3 29//6 14//1
f 22//7 23//8 68//9
f 23//8 77//10 78//11
f 68//9 23//8 78//11
f 105//12 14//1 29//6
f 103//13 106//14 107//15
f 108//16 109//17 110//18
f 103//13 104//19 13//20
f 15//3 11//2 105//12
f 109//17 112//21 110//18
f 107//15 114//22 103//13
f 113//23 110//18 112//21
f 114//22 104//19 103//13
f 28//24 14//1 111//25
f 14//1 105//12 111//25
f 105//12 11//2 117//26
f 113//23 120//27 119//28
f 120//27 113//23 112//21
f 104//19 114//22 118//29
f 119//28 114//22 115//30
f 114//22 119//28 121//31
f 117//26 122//32 105//12
f 111//25 122//32 116//33
f 112//21 124//34 120//27
f 121//31 119//28 120//27
f 105//12 122//32 111//25
f 125//35 122//32 117//26
f 118//29 126//36 127//37
f 123//38 125//35 117//26
f 128//39 126//36 118//29
f 114//22 129//40 118//29
f 130//41 121//31 120//27
f 128//39 118//29 129//40
f 121//31 129//40 114//22
f 125//35 131//42 122//32
f 126//36 128//39 132//43
f 124//34 133//44 134//45
f 130//41 120//27 136//46
f 124//34 137//47 120//27
f 139//48 127//37 126//36
f 132//43 128//39 140//49
f 143//50 130//41 136//46
f 135//51 128//39 129//40
f 124//34 144//52 137//47
f 122//32 138//53 116//33
f 138//53 145//54 116//33
f 147//55 129//40 121//31
f 121//31 130//41 146//56
f 134//57 116//33 145//54
f 129//40 147//55 135//51
f 148//58 135//51 147//55
f 148//58 147//55 149//59
f 131//42 125//35 150//60
f 151//61 132//43 140//49
f 135//51 152//62 128//39
f 152//62 135//51 149//59
f 124//34 153//63 144//52
f 146//56 130//41 156//64
f 158//65 144//52 153//63
f 154//66 155//67 159//68
f 160//69 161//69 162//69
f 134//57 145//54 163//70
f 134//45 153//63 124//34
f 152//62 149//59 140//49
f 149//59 147//55 157//71
f 167//72 166//73 165//74
f 144//52 158//65 168//75
f 169//76 166//73 167//72
f 131//42 150//60 170//77
f 171//78 150//60 172//79
f 151//61 140//49 175//80
f 134//57 164//81 176//82
f 177//83 149//59 157//71
f 177//83 157//71 178//84
f 153//63 179//85 158//65
f 176//82 164//81 153//63
f 180//86 181//87 169//76
f 168//75 158//65 200//88
f 170//77 150//60 171//78
f 134//57 163//70 174//89
f 187//90 188//91 189//90
f 140//49 149//59 175//80
f 177//83 175//80 149//59
f 191//92 175//80 177//83
f 164//81 134//57 174//89
f 164//81 194//93 153//63
f 181//87 166//73 169//76
f 153//63 194//93 179//85
f 184//94 186//95 185//96
f 185//96 186//95 195//97
f 196//98 197//99 198//100
f 199//101 168//75 200//88
f 203//102 198//100 197//99
f 197//99 204//103 203//102
f 205//104 202//105 201//106
f 145//54 131//42 170//77
f 175//107 190//108 173//109
f 191//92 173//109 190//108
f 187//90 189//90 206//110
f 177//83 178//84 192//111
f 192//111 209//112 177//83
f 210//113 211//114 212//115
f 181//87 193//116 166//73
f 213//117 216//118 173//109
f 191//92 217//119 213//117
f 213//117 173//109 191//92
f 214//120 215//121 218//122
f 222//123 223//124 221//125
f 174//89 224//126 164//81
f 225//127 224//126 174//89
f 229//128 230//129 231//130
f 236//131 211//114 237//132
f 241//133 242//134 232//135
f 238//136 243//137 232//135
f 243//137 244//138 232//135
f 249//139 238//136 232//135
f 242//134 249//139 232//135
f 251//140 248//141 247//142
f 163//70 145//54 170//77
f 255//143 191//92 177//83
f 256//144 255//143 177//83
f 257//145 258//145 259//145
f 215//121 214//120 260//146
f 216//118 213//117 219//147
f 261//148 213//117 217//119
f 217//119 191//92 220//149
f 267//150 217//119 262//151
f 220//149 191//92 268//152
f 191//92 255//143 268//152
f 228//153 263//154 264//155
f 267//150 261//148 217//119
f 221//125 223//124 270//156
f 271//157 272//157 273//157
f 274//158 263//154 228//153
f 275//159 274//158 228//153
f 276//160 265//161 266//162
f 277//163 265//161 276//160
f 279//164 280//164 281//164
f 226//165 224//126 225//127
f 282//166 275//159 228//153
f 278//167 274//158 275//159
f 236//131 212//115 211//114
f 285//168 286//169 287//170
f 288//171 289//171 290//171
f 232//135 244//138 233//172
f 233//172 244//138 291//173
f 291//173 244//138 292//174
f 179//85 194//93 293//175
f 244//138 294//176 292//174
f 294//176 295//177 292//174
f 282//166 302//178 275//159
f 303//179 304//179 305//179
f 306//180 307//181 283//182
f 232//135 310//183 311//184
f 284//185 306//180 283//182
f 312//186 313//187 314//188
f 311//184 241//133 232//135
f 171//78 317//189 170//77
f 254//190 170//77 317//189
f 174//89 163//70 319//191
f 320//192 208//193 207//194
f 321//195 322//196 323//197
f 323//197 322//196 324//198
f 329//199 328//200 330//201
f 261//148 267//150 331//202
f 332//203 328//204 327//205
f 170//77 335//206 318//207
f 337//208 336//209 274//158
f 338//210 337//208 274//158
f 278//167 338//210 274//158
f 341//211 342//212 343//213
f 171//78 344//214 317//189
f 345//215 342//212 346//216
f 328//204 332//203 347//217
f 345//215 346//216 348//218
f 349//219 350//219 351//219
f 352//220 353//220 354//220
f 278//167 355//221 356//222
f 174//89 319//191 269//223
f 360//224 356//222 355//221
f 361//225 233//226 362//227
f 233//226 363//228 362//227
f 233//226 364//229 363//228
f 359//230 319//231 365//232
f 163//70 170//77 319//191
f 318//207 366//233 170//77
f 254//190 367//234 335//206
f 170//77 254//190 335//206
f 345//215 343//213 342//212
f 379//235 380//235 381//235
f 278//167 356//222 338//210
f 366//233 319//191 170//77
f 368//236 382//237 319//191
f 366//233 368//236 319//191
l 32 33
l 60 61
l 333 334
l 385 386
l 315 316
l 239 240
l 1 2
l 30 31
l 308 309
l 141 142
l 24 25
l 369 370
l 97 98
l 339 340
l 227 228
l 85 86
l 48 49
l 69 70
l 371 372
l 34 35
l 73 74
l 383 384
l 52 53
l 296 297
l 81 82
l 375 376
l 66 67
l 87 88
l 46 47
l 9 10
l 377 378
l 56 57
l 38 39
l 3 4
l 89 90
l 12 13
l 234 235
l 357 358
l 58 59
l 93 94
l 300 301
l 373 374
l 44 45
l 54 55
l 249 250
l 325 326
l 5 6
l 50 51
l 64 65
l 7 8
l 298 299
l 26 27
l 79 80
l 75 76
l 40 41
l 101 102
l 245 246
l 62 63
l 36 37
l 95 96
l 71 72
l 99 100
l 252 253
l 182 183
l 91 92
l 83 84
l 42 43
