# Blender v2.78 (sub 0) OBJ File: 'exporter.blend'
# www.blender.org
o FJ1466M.obj_grp1.285
v 1.117325 -0.640958 3.714223
v 1.113696 -0.636939 3.711176
v 1.118170 -0.644145 3.722340
v 1.092591 -0.682741 3.563817
v 1.111006 -0.638960 3.711997
v 1.117119 -0.644143 3.722546
v 1.117098 -0.645222 3.723188
v 1.118170 -0.644145 3.722340
v 1.110556 -0.644516 3.720086
v 1.116441 -0.646215 3.723350
v 1.118170 -0.644145 3.722340
v 1.117186 -0.647703 3.724657
v 1.103618 -0.657746 3.690449
v 1.116706 -0.643829 3.722751
v 1.110556 -0.644516 3.720086
v 1.118170 -0.644145 3.722340
v 1.116817 -0.644692 3.723287
v 1.113767 -0.638394 3.711344
v 1.109927 -0.637681 3.710059
v 1.106284 -0.647527 3.675209
v 1.109481 -0.640915 3.694454
v 1.115545 -0.633228 3.708913
v 1.111199 -0.645206 3.684515
v 1.107595 -0.639580 3.701859
v 1.097007 -0.638606 3.722725
v 1.106349 -0.647385 3.675652
v 1.109760 -0.640888 3.710381
v 1.113653 -0.638344 3.711356
v 1.109927 -0.637681 3.710059
v 1.107556 -0.639535 3.701820
v 1.107207 -0.638118 3.710130
v 1.102279 -0.640967 3.700336
v 1.103073 -0.637573 3.709007
v 1.107457 -0.639263 3.710495
v 1.102183 -0.641067 3.700275
v 1.107371 -0.636937 3.710855
v 1.107897 -0.639077 3.710222
v 1.110556 -0.644516 3.720086
v 1.103720 -0.637263 3.713641
v 1.110556 -0.644516 3.720086
v 1.097007 -0.638606 3.722725
v 1.104815 -0.636218 3.713830
v 1.102359 -0.634836 3.714082
v 1.097007 -0.638606 3.722725
v 1.103720 -0.637263 3.713641
v 1.098223 -0.631390 3.712716
v 1.097007 -0.638606 3.722725
v 1.102359 -0.634836 3.714082
v 1.098223 -0.631390 3.712716
v 1.099800 -0.661229 3.621696
v 1.101869 -0.643880 3.702121
v 1.091305 -0.646306 3.670799
v 1.097007 -0.638606 3.722725
v 1.098223 -0.631390 3.712716
v 1.092101 -0.627663 3.727626
v 1.092876 -0.623517 3.707464
v 1.092101 -0.627663 3.727626
v 1.082557 -0.621649 3.708383
v 1.093135 -0.631970 3.730765
v 1.093546 -0.631560 3.730708
v 1.093223 -0.630719 3.729926
v 1.091871 -0.628212 3.729973
v 1.093543 -0.631947 3.730603
v 1.093561 -0.631583 3.729762
v 1.093717 -0.631866 3.730701
v 1.093387 -0.631664 3.730722
v 1.093401 -0.631678 3.730669
v 1.093561 -0.631583 3.729762
v 1.093489 -0.631543 3.730227
v 1.082557 -0.621649 3.708383
v 1.082557 -0.621649 3.708383
v 1.093819 -0.631322 3.730627
v 1.082557 -0.621649 3.708383
v 1.091017 -0.613231 3.716115
v 1.091680 -0.616883 3.710045
v 1.090040 -0.623540 3.726765
v 1.088346 -0.618728 3.723141
v 1.090223 -0.623954 3.725434
v 1.090894 -0.623556 3.726633
v 1.092226 -0.624327 3.725004
v 1.091120 -0.623672 3.726490
v 1.090659 -0.623038 3.727542
v 1.090868 -0.622904 3.727694
v 1.088562 -0.616849 3.722355
v 1.090223 -0.623954 3.725434
v 1.089303 -0.618995 3.722437
v 1.090730 -0.623001 3.727556
v 1.090719 -0.623284 3.728444
v 1.090726 -0.623409 3.728434
v 1.090674 -0.623227 3.728523
v 1.090726 -0.623409 3.728434
v 1.090658 -0.623039 3.727552
v 1.091091 -0.623164 3.728481
v 1.090671 -0.623204 3.728523
v 1.090543 -0.622818 3.727589
v 1.091763 -0.617029 3.709627
v 1.087538 -0.617358 3.705120
v 1.091017 -0.613231 3.716115
v 1.088449 -0.616400 3.720181
v 1.088623 -0.615038 3.716180
v 1.091017 -0.613231 3.716115
v 1.090400 -0.615599 3.715352
v 1.088454 -0.616385 3.720559
v 1.091716 -0.617222 3.710547
v 1.088214 -0.616554 3.720682
v 1.098223 -0.631390 3.712716
v 1.088354 -0.616453 3.720425
v 1.087881 -0.615062 3.718514
v 1.088698 -0.617785 3.722574
v 1.088687 -0.617821 3.722752
v 1.088685 -0.617828 3.722777
v 1.090247 -0.620663 3.725133
v 1.089173 -0.617017 3.722863
v 1.088383 -0.617001 3.721974
v 1.088721 -0.617779 3.722659
v 1.088801 -0.619117 3.722735
v 1.098223 -0.631390 3.712716
v 1.088496 -0.619456 3.722443
v 1.088905 -0.618404 3.722955
v 1.090223 -0.623954 3.725434
v 1.088553 -0.616409 3.721147
v 1.088408 -0.616782 3.722061
v 1.088313 -0.616743 3.721067
v 1.088496 -0.619456 3.722443
v 1.088548 -0.617937 3.722584
v 1.088205 -0.616615 3.721104
v 1.088252 -0.617025 3.723025
v 1.096316 -0.679890 3.601193
v 1.099965 -0.646706 3.690581
v 1.078754 -0.629103 3.673712
v 1.091763 -0.617029 3.709627
v 1.079008 -0.620339 3.694149
v 1.099800 -0.661229 3.621696
v 1.069649 -0.622684 3.670269
v 1.065799 -0.627402 3.655359
v 1.069281 -0.623747 3.669173
v 1.061541 -0.629072 3.645096
v 1.077010 -0.696195 3.490537
v 1.093954 -0.674352 3.578544
v 1.067443 -0.628161 3.676713
v 1.045271 -0.645920 3.555632
v 1.048507 -0.640714 3.588398
v 1.085285 -0.684975 3.598050
v 1.085285 -0.684975 3.598050
v 1.048507 -0.640714 3.588398
v 1.081902 -0.692701 3.560309
v 1.038999 -0.652204 3.529444
v 1.081039 -0.692125 3.505597
v 1.085288 -0.684965 3.598053
v 1.046326 -0.679891 3.524272
v 1.076961 -0.696243 3.490052
v 1.048507 -0.640714 3.588398
v 1.045216 -0.646385 3.555521
v 1.068972 -0.697396 3.463685
v 1.064178 -0.695570 3.528269
v 1.038834 -0.651719 3.528965
v 1.045423 -0.664236 3.464314
v 1.069193 -0.696185 3.463298
v 1.038124 -0.658115 3.497538
v 1.064614 -0.694495 3.449751
v 1.065309 -0.691472 3.446549
v 1.067170 -0.695453 3.459474
v 1.064614 -0.694495 3.449751
v 1.058647 -0.682525 3.430843
v 1.067193 -0.687844 3.431714
v 1.067090 -0.690001 3.433887
v 1.067886 -0.690073 3.440451
v 1.067536 -0.690729 3.441789
v 1.066436 -0.689298 3.432649
v 1.065309 -0.691472 3.446549
v 1.064102 -0.689204 3.430672
v 1.066976 -0.690458 3.432707
v 1.065273 -0.692194 3.447048
v 1.067886 -0.690073 3.440451
v 1.064614 -0.694495 3.449751
v 1.064614 -0.694495 3.449751
v 1.059170 -0.684881 3.455697
v 1.065309 -0.691472 3.446549
v 1.061943 -0.685810 3.452939
v 1.053608 -0.690841 3.444731
v 1.053459 -0.673336 3.452374
v 1.038744 -0.678955 3.479825
v 1.058629 -0.686092 3.427278
v 1.064102 -0.689204 3.430672
v 1.053765 -0.690420 3.444446
v 1.058491 -0.686291 3.427236
v 1.058490 -0.686269 3.427251
v 1.057206 -0.684796 3.429404
v 1.058356 -0.686486 3.427189
v 1.053765 -0.690420 3.444446
v 1.057206 -0.684796 3.429404
v 1.058629 -0.686092 3.427278
v 1.056568 -0.684313 3.432353
v 1.054962 -0.683547 3.425743
v 1.056502 -0.686059 3.429503
v 1.056201 -0.684636 3.428442
v 1.053718 -0.684698 3.426607
v 1.050261 -0.683973 3.436210
v 1.051864 -0.684111 3.432231
v 1.054478 -0.683133 3.427228
v 1.051864 -0.684111 3.432231
v 1.053804 -0.682690 3.427456
v 1.052830 -0.683223 3.427569
v 1.053765 -0.690420 3.444446
v 1.057217 -0.684778 3.429397
v 1.056203 -0.684753 3.431652
v 1.056201 -0.684636 3.428442
v 1.056260 -0.684756 3.431641
v 1.057206 -0.684796 3.429404
v 1.054373 -0.684908 3.436707
v 1.053672 -0.683842 3.439240
v 1.053704 -0.683867 3.436212
v 1.055990 -0.685017 3.431419
v 1.053565 -0.684506 3.436394
v 1.053730 -0.684773 3.438014
v 1.053334 -0.684489 3.436493
v 1.050357 -0.683468 3.436141
v 1.053272 -0.685275 3.436836
v 1.053541 -0.684160 3.436775
v 1.054015 -0.684483 3.436692
v 1.053286 -0.685280 3.436836
v 1.053406 -0.684361 3.437370
v 1.053286 -0.685280 3.436836
v 1.053497 -0.684134 3.437076
v 1.053279 -0.685277 3.436836
v 1.053597 -0.684597 3.437892
v 1.053286 -0.685280 3.436836
v 1.054075 -0.684766 3.437386
v 1.053286 -0.685280 3.436836
v 1.050437 -0.682286 3.435879
v 1.053704 -0.683867 3.436212
v 1.053696 -0.683870 3.436210
v 1.049906 -0.682641 3.436292
v 1.050608 -0.682076 3.435465
v 1.053224 -0.682955 3.439000
v 1.053310 -0.684397 3.437972
v 1.051925 -0.685369 3.439287
v 1.060558 -0.688096 3.440357
v 1.051925 -0.685369 3.439287
v 1.049282 -0.679597 3.429529
v 1.048763 -0.674756 3.426102
v 1.049209 -0.674779 3.427190
v 1.049919 -0.673815 3.426116
v 1.048902 -0.674251 3.427032
v 1.048728 -0.673707 3.427503
v 1.049359 -0.674645 3.427022
v 1.048600 -0.675214 3.427527
v 1.040456 -0.673502 3.452221
v 1.050061 -0.666088 3.451957
v 1.046640 -0.673108 3.435608
v 1.053910 -0.673689 3.451704
v 1.047228 -0.670523 3.437945
v 1.047352 -0.673074 3.435320
v 1.047352 -0.673074 3.435320
v 1.036653 -0.669858 3.463370
v 1.046798 -0.670571 3.437653
v 1.036653 -0.669858 3.463370
v 1.047375 -0.670360 3.438226
v 1.050061 -0.666088 3.451957
v 1.048777 -0.667257 3.442918
v 1.048713 -0.667299 3.442930
v 1.045657 -0.664445 3.462798
v 1.050061 -0.666088 3.451957
v 1.047948 -0.670158 3.438733
v 1.036235 -0.669295 3.462802
v 1.048713 -0.667299 3.442930
v 1.038297 -0.659131 3.489236
v 1.038741 -0.668287 3.466594
v 1.053042 -0.682036 3.426710
v 1.051864 -0.684111 3.432231
v 1.048632 -0.679150 3.426477
v 1.049197 -0.680092 3.430926
v 1.050357 -0.683468 3.436141
v 1.053294 -0.684670 3.436635
v 1.039310 -0.679515 3.476801
v 1.050587 -0.682721 3.435672
v 1.051864 -0.684111 3.432231
v 1.053765 -0.690420 3.444446
v 1.052801 -0.684251 3.438532
v 1.052131 -0.684653 3.439146
v 1.053910 -0.673689 3.451704
v 1.052114 -0.684702 3.439142
v 1.039310 -0.679515 3.476801
v 1.053765 -0.690420 3.444446
v 1.052520 -0.685058 3.438838
v 1.051925 -0.685369 3.439287
v 1.049480 -0.682854 3.436770
v 1.052314 -0.684031 3.438972
v 1.049000 -0.683901 3.436003
v 1.051925 -0.685369 3.439287
v 1.048026 -0.679132 3.428240
v 1.050707 -0.674454 3.426515
v 1.049504 -0.674443 3.426047
v 1.050263 -0.673180 3.427055
v 1.048988 -0.674532 3.425769
v 1.049263 -0.674186 3.427423
v 1.049094 -0.674430 3.428103
v 1.047690 -0.674994 3.429128
v 1.048839 -0.674515 3.427455
v 1.047690 -0.674994 3.429128
v 1.048543 -0.674692 3.428554
v 1.049037 -0.676294 3.426996
v 1.049838 -0.675214 3.429223
v 1.048334 -0.675781 3.427265
v 1.048283 -0.677910 3.431551
v 1.047423 -0.678208 3.434222
v 1.049718 -0.677285 3.433333
v 1.047352 -0.673074 3.435320
v 1.048451 -0.680810 3.433738
v 1.050163 -0.681356 3.434848
v 1.049655 -0.681235 3.434598
v 1.049906 -0.682641 3.436292
v 1.050699 -0.681899 3.435512
v 1.050129 -0.682860 3.436172
v 1.048859 -0.682937 3.435426
v 1.048845 -0.680078 3.436770
v 1.053655 -0.679588 3.432891
v 1.049767 -0.678372 3.432913
v 1.049197 -0.680092 3.430926
v 1.048469 -0.678265 3.431817
v 1.048868 -0.678303 3.433005
v 1.048615 -0.678313 3.432325
v 1.050094 -0.681186 3.434677
v 1.048878 -0.678352 3.433139
v 1.048610 -0.678482 3.433249
v 1.048258 -0.678045 3.431409
v 1.048403 -0.678269 3.432290
v 1.048875 -0.677848 3.432936
v 1.048235 -0.678247 3.432325
v 1.049155 -0.678148 3.432982
v 1.048499 -0.678284 3.432348
v 1.048500 -0.677802 3.432799
v 1.048845 -0.680078 3.436770
v 1.048845 -0.680078 3.436770
v 1.048469 -0.678413 3.432941
v 1.048845 -0.680078 3.436770
v 1.048451 -0.680810 3.433738
v 1.051864 -0.684111 3.432231
v 1.050699 -0.681899 3.435512
v 1.048451 -0.680810 3.433738
v 1.048141 -0.678572 3.433659
v 1.048451 -0.680810 3.433738
v 1.046316 -0.680464 3.432679
v 1.048451 -0.680810 3.433738
vn 0.6318 0.7416 0.2255
vn 0.9499 -0.2780 -0.1428
vn 0.8025 0.4736 -0.3629
vn 0.9432 0.2517 -0.2168
vn -0.3105 0.7080 0.6342
vn -0.2961 0.5894 0.7517
vn -0.2333 0.5772 0.7826
vn 0.9697 -0.1637 0.1811
vn 0.0158 -0.9685 0.2485
vn -0.0063 -0.9181 0.3963
vn -0.1922 -0.8787 0.4371
vn -0.5226 0.8478 -0.0895
vn -0.6400 0.7493 -0.1700
vn -0.6706 0.7241 -0.1613
vn -0.6779 -0.6406 0.3608
vn -0.5249 0.8445 -0.1063
vn -0.6130 0.7860 -0.0805
vn -0.5290 0.8484 0.0175
vn -0.1618 0.9717 -0.1723
vn -0.3483 0.9224 -0.1668
vn -0.1590 0.9694 -0.1872
vn -0.2123 0.9618 -0.1730
vn 0.5449 0.7944 -0.2684
vn 0.4955 0.8639 -0.0898
vn 0.6141 0.6648 -0.4253
vn 0.1621 0.8899 0.4263
vn 0.0829 0.8565 0.5095
vn 0.4898 0.8514 0.1877
vn 0.5200 0.7864 0.3334
vn 0.4299 0.7914 0.4347
vn 0.7426 0.3085 0.5944
vn 0.5984 0.6730 -0.4347
vn 0.7079 0.6101 -0.3559
vn 0.4095 0.7157 0.5657
vn 0.7375 -0.6753 0.0087
vn -0.3567 0.9120 -0.2026
vn -0.5186 0.8119 -0.2681
vn -0.5962 0.7755 -0.2080
vn 0.9122 0.2716 0.3067
vn 0.8808 0.4110 0.2352
vn 0.9412 0.3289 0.0771
vn -0.8324 -0.4895 0.2599
vn -0.8381 -0.4068 0.3636
vn 0.9773 0.0500 -0.2058
vn 0.8698 -0.1367 -0.4741
vn 0.8661 0.2949 -0.4036
vn 0.8352 0.3238 -0.4444
vn 0.8618 0.4569 0.2205
vn 0.8717 0.4396 0.2165
vn -0.9403 -0.0719 0.3327
vn -0.9724 -0.1250 0.1971
vn -0.9253 -0.1396 0.3527
vn -0.8968 0.2537 0.3625
vn -0.6513 0.3249 0.6858
vn -0.8543 0.0782 0.5138
vn -0.8960 -0.1399 0.4215
vn 0.9151 0.3599 0.1817
vn 0.3928 0.8143 -0.4275
vn -0.2317 0.9264 -0.2969
vn 0.3952 0.8119 -0.4298
vn 0.8921 -0.3373 0.3005
vn 0.8896 -0.3283 0.3175
vn 0.9672 -0.1702 0.1888
vn -0.5081 0.8584 -0.0714
vn -0.6009 0.7921 -0.1071
vn 0.8501 0.3693 0.3756
vn 0.8539 0.4471 0.2662
vn 0.9178 0.3069 0.2520
vn 0.8398 0.3389 0.4241
vn 0.5708 -0.8011 0.1800
vn 0.7118 0.6149 -0.3394
vn 0.2762 0.8880 -0.3676
vn 0.6408 0.6717 -0.3718
vn 0.8665 0.2852 -0.4097
vn -0.7533 0.6353 0.1699
vn -0.9116 0.2942 0.2870
vn -0.3890 0.9212 0.0129
vn 0.8911 0.4277 -0.1520
vn 0.8797 0.4025 -0.2533
vn -0.8481 0.5156 0.1222
vn 0.5696 0.7471 -0.3427
vn 0.5325 0.8281 -0.1750
vn 0.6866 0.7044 -0.1800
vn -0.8981 0.0021 0.4397
vn 0.6221 0.7378 -0.2620
vn -0.8113 0.5785 0.0848
vn -0.7776 -0.5895 0.2186
vn 0.3578 -0.9180 0.1711
vn -0.6383 -0.7017 0.3164
vn -0.4634 0.8830 -0.0747
vn 0.7913 0.5067 -0.3423
vn 0.2480 -0.9679 0.0398
vn -0.9295 -0.3142 0.1930
vn -0.8065 -0.5590 0.1923
vn 0.0181 -0.9990 0.0412
vn -0.0972 0.9785 -0.1818
vn -0.4162 0.8982 -0.1419
vn -0.3276 -0.9448 -0.0063
vn -0.2399 -0.9638 0.1160
vn -0.2390 -0.9467 0.2159
vn -0.0745 0.9942 -0.0770
vn 0.2255 0.9709 -0.0806
vn -0.1457 0.9826 -0.1151
vn 0.8568 -0.4388 -0.2708
vn 0.8382 -0.4755 -0.2671
vn 0.8301 -0.4685 -0.3023
vn 0.6972 -0.7108 -0.0927
vn 0.6868 -0.7218 -0.0858
vn 0.7062 -0.6995 -0.1094
vn -0.2295 -0.9395 -0.2544
vn -0.2432 -0.9373 -0.2496
vn -0.2119 -0.9379 -0.2748
vn 0.7727 0.6161 -0.1527
vn 0.8378 0.5445 -0.0411
vn 0.8276 0.5581 0.0606
vn -0.5306 -0.8292 -0.1759
vn -0.8657 -0.4973 0.0568
vn -0.0308 -0.9894 -0.1416
vn -0.3033 -0.8938 -0.3304
vn -0.2890 -0.9176 -0.2731
vn -0.9243 -0.2361 -0.2998
vn 0.5335 0.6084 -0.5876
vn 0.4663 0.5867 -0.6620
vn 0.3586 0.6748 -0.6450
vn 0.4016 0.9069 0.1276
vn 0.4422 0.8932 0.0812
vn 0.1881 0.9799 0.0658
vn 0.5781 0.8159 0.0125
vn 0.5154 0.8321 -0.2050
vn 0.8783 0.1906 0.4385
vn 0.0390 0.9955 -0.0861
vn 0.3606 0.9327 0.0056
vn -0.5661 -0.8018 -0.1914
vn -0.2684 -0.9591 0.0898
vn -0.5444 -0.7869 -0.2905
vn 0.3667 0.9257 0.0933
vn -0.9162 -0.1958 -0.3495
vn -0.8930 -0.3031 -0.3327
vn -0.9341 -0.2611 -0.2434
vn 0.4336 0.8977 0.0785
vn 0.8579 0.5132 -0.0251
vn 0.2932 0.9222 -0.2519
vn 0.2854 0.9313 -0.2263
vn 0.2951 0.9208 -0.2550
vn 0.1426 0.7182 0.6810
vn 0.3451 0.9212 -0.1798
vn 0.8259 0.5116 0.2369
vn -0.9200 0.1383 -0.3668
vn 0.8516 0.4881 -0.1913
vn 0.8641 0.3146 -0.3929
vn 0.9049 0.2384 -0.3526
vn 0.8855 0.2228 -0.4077
vn 0.0310 0.9900 -0.1375
vn -0.6525 0.6764 -0.3418
vn -0.4752 0.8630 -0.1717
vn -0.5655 0.7765 -0.2778
vn -0.9990 -0.0303 0.0333
vn -0.6700 -0.7121 -0.2100
vn -0.7280 -0.5831 -0.3605
vn -0.7434 -0.6464 -0.1721
vn -0.0239 -0.9500 0.3114
vn -0.3771 -0.9261 -0.0124
vn -0.3882 -0.9216 -0.0039
vn -0.3509 -0.9288 0.1192
vn 0.8647 0.3152 -0.3912
vn 0.8856 0.1985 -0.4199
vn 0.7966 0.3486 -0.4939
vn 0.7990 0.3869 -0.4603
vn 0.6420 0.5537 -0.5303
vn -0.8592 -0.4686 -0.2052
vn 0.9265 -0.0044 -0.3762
vn 1.0000 -0.0022 0.0026
vn -0.8766 -0.4763 -0.0689
vn -0.9166 -0.3413 -0.2080
vn -0.9827 -0.1592 -0.0948
vn -0.9456 -0.1450 -0.2912
vn -0.9899 -0.0656 -0.1258
vn 0.9052 0.2905 0.3101
vn 0.8786 0.3314 0.3439
vn 0.9983 0.0348 -0.0461
vn 0.9981 0.0300 -0.0530
vn 0.9988 0.0133 -0.0465
vn 0.8556 0.2734 0.4395
vn -0.5944 -0.7487 0.2936
vn -0.7267 -0.5942 -0.3447
vn -0.7913 0.5622 -0.2403
vn -0.9387 -0.3032 -0.1639
vn -0.9379 -0.2911 -0.1886
s 1
f 1//1 2//1 3//1
f 4//2 5//3 6//4
f 9//5 10//6 11//7
f 4//2 6//4 12//8
f 13//9 14//10 15//11
f 20//12 21//13 22//14
f 13//9 15//11 25//15
f 26//16 27//17 28//18
f 29//19 30//20 31//21
f 32//22 31//21 30//20
f 33//23 34//24 35//25
f 18//26 36//27 11//7
f 36//27 9//5 11//7
f 39//28 40//29 34//24
f 34//24 33//23 39//28
f 41//30 40//29 39//28
f 43//31 44//31 45//31
f 42//32 33//23 46//33
f 47//34 48//34 49//34
f 4//2 12//8 128//35
f 50//36 20//12 22//14
f 51//37 24//38 20//12
f 46//33 33//23 35//25
f 53//39 54//40 55//41
f 25//15 57//42 58//43
f 59//44 71//45 55//41
f 75//46 46//33 56//47
f 76//48 54//40 77//49
f 76//48 55//41 54//40
f 84//50 85//51 83//52
f 73//53 72//54 80//55
f 86//56 73//53 80//55
f 55//41 62//57 59//44
f 55//41 76//48 62//57
f 96//58 97//59 98//60
f 99//61 75//62 74//63
f 97//59 100//64 101//65
f 106//66 104//67 105//68
f 118//69 106//66 105//68
f 23//70 5//3 4//2
f 128//35 14//10 13//9
f 52//71 35//25 129//72
f 46//33 35//25 52//71
f 52//71 56//47 46//33
f 56//47 130//73 131//74
f 96//58 130//73 97//59
f 132//75 73//53 103//76
f 103//76 73//53 86//56
f 103//76 102//77 132//75
f 4//2 139//78 133//79
f 23//70 4//2 133//79
f 97//59 130//73 100//64
f 134//80 73//53 132//75
f 129//72 51//37 20//12
f 52//71 130//73 56//47
f 136//81 100//64 130//73
f 135//82 136//81 130//73
f 138//83 50//36 139//78
f 20//12 50//36 129//72
f 25//15 58//43 140//84
f 141//85 135//82 130//73
f 137//86 142//87 140//84
f 140//84 134//80 137//86
f 134//80 140//84 73//53
f 13//9 143//88 128//35
f 50//36 138//83 129//72
f 25//15 144//89 13//9
f 129//72 138//83 52//71
f 137//86 134//80 145//90
f 139//78 4//2 148//91
f 143//88 146//92 128//35
f 138//83 141//85 52//71
f 130//73 52//71 141//85
f 147//93 140//84 142//87
f 4//2 128//35 146//92
f 150//94 144//89 25//15
f 140//84 150//94 25//15
f 146//92 151//95 148//91
f 4//2 146//92 148//91
f 150//94 140//84 147//93
f 141//85 152//96 135//82
f 147//93 142//87 153//97
f 138//83 139//78 148//91
f 151//95 146//92 154//98
f 146//92 155//99 154//98
f 155//99 146//92 149//100
f 155//99 144//89 150//94
f 156//101 141//85 157//102
f 156//101 157//102 159//103
f 160//104 161//105 162//106
f 175//107 166//108 167//109
f 176//110 171//111 172//112
f 158//113 178//114 179//115
f 154//98 155//99 180//116
f 179//115 157//102 158//113
f 158//113 157//102 138//83
f 155//99 150//94 180//116
f 157//102 141//85 138//83
f 147//93 182//117 150//94
f 163//118 154//98 180//116
f 183//119 184//120 180//116
f 189//121 190//121 191//121
f 192//122 164//123 165//124
f 168//125 169//126 193//127
f 168//128 177//129 170//130
f 184//120 163//118 180//116
f 193//127 196//131 197//132
f 195//133 198//134 194//135
f 193//127 197//132 210//136
f 210//136 168//125 193//127
f 205//137 204//138 211//139
f 210//136 215//140 168//125
f 197//132 234//141 210//136
f 232//142 233//143 235//144
f 236//145 237//145 238//145
f 177//129 168//128 239//146
f 179//115 249//147 157//102
f 254//148 255//148 256//148
f 259//149 251//150 260//151
f 251//150 250//152 260//151
f 261//153 262//153 263//153
f 264//154 265//155 266//156
f 157//102 266//156 265//155
f 157//102 265//155 159//103
f 182//117 147//93 267//157
f 269//158 270//159 272//160
f 195//133 212//161 198//134
f 275//162 273//163 274//164
f 286//165 181//166 177//167
f 287//168 251//150 288//169
f 180//116 182//117 290//170
f 197//132 291//171 234//141
f 291//171 292//172 234//141
f 269//158 272//160 271//173
f 271//173 272//160 305//174
f 271//173 305//174 304//175
f 306//176 304//175 305//174
f 306//176 268//177 304//175
f 234//141 292//172 307//178
f 292//172 308//179 307//178
f 315//180 325//181 316//182
f 287//168 250//152 251//150
f 308//179 336//183 307//178
f 337//184 338//184 339//184
f 272//160 270//159 340//185
f 343//186 306//176 305//174
f 306//176 344//187 268//177
f 289//188 182//117 344//187
f 344//187 182//117 268//177
f 182//117 180//116 150//94
f 267//157 268//177 182//117
l 123 124
l 116 117
l 216 217
l 78 79
l 69 70
l 218 219
l 328 329
l 83 93
l 245 246
l 65 66
l 282 283
l 109 110
l 107 108
l 208 209
l 87 88
l 311 312
l 299 300
l 222 223
l 296 303
l 317 318
l 230 231
l 81 82
l 16 17
l 201 202
l 241 242
l 94 95
l 323 324
l 334 335
l 293 294
l 63 64
l 228 229
l 126 127
l 276 277
l 309 310
l 185 186
l 297 298
l 213 214
l 313 314
l 284 285
l 301 302
l 243 244
l 220 221
l 326 327
l 18 19
l 199 200
l 330 331
l 224 225
l 121 122
l 91 92
l 7 8
l 203 240
l 295 296
l 332 333
l 319 320
l 278 279
l 111 112
l 252 253
l 60 61
l 37 38
l 226 227
l 321 322
l 67 68
l 206 207
l 247 248
l 122 125
l 119 120
l 105 113
l 257 258
l 341 342
l 114 115
l 187 188
l 89 90
l 280 281
l 173 174
