# Blender v2.78 (sub 0) OBJ File: 'exporter.blend'
# www.blender.org
o FJ1493.obj_grp1.338
v -1.433142 -0.762807 3.171472
v -1.415059 -0.716345 3.211177
v -1.429882 -0.755354 3.170809
v -1.412670 -0.710990 3.213913
v -1.414465 -0.714790 3.213012
v -1.435202 -0.768221 3.171683
v -1.414185 -0.714391 3.213180
v -1.414185 -0.714391 3.213180
v -1.412754 -0.718437 3.210015
v -1.397609 -0.686417 3.251618
v -1.392723 -0.695865 3.230579
v -1.393933 -0.694397 3.244601
v -1.365895 -0.642113 3.326755
v -1.345814 -0.611783 3.366956
v -1.363155 -0.633362 3.339348
v -1.363127 -0.650255 3.318302
v -1.339489 -0.599412 3.406428
v -1.339959 -0.614025 3.386186
v -1.339903 -0.608327 3.398645
v -1.341191 -0.605283 3.396472
v -1.363155 -0.633362 3.339348
v -1.313617 -0.575201 3.472826
v -1.308389 -0.568443 3.519882
v -1.305538 -0.566919 3.523428
v -1.292505 -0.570651 3.531977
v -1.285339 -0.555610 3.556714
v -1.314535 -0.579761 3.464231
v -1.283309 -0.548204 3.604107
v -1.292621 -0.555373 3.578978
v -1.280817 -0.545078 3.612918
v -1.281621 -0.549605 3.615846
v -1.279732 -0.559024 3.596938
v -1.275458 -0.547965 3.603654
v -1.266370 -0.539530 3.661023
v -1.249029 -0.522093 3.706774
v -1.266370 -0.539530 3.661023
v -1.238868 -0.511237 3.734338
v -1.248606 -0.521639 3.710735
v -1.442691 -0.794863 3.148756
v -1.443732 -0.802454 3.146919
v -1.443404 -0.797478 3.154050
v -1.405131 -0.721215 3.201619
v -1.432053 -0.764952 3.171252
v -1.424589 -0.766243 3.169900
v -1.419327 -0.761441 3.167129
v -1.403665 -0.717381 3.208687
v -1.433649 -0.796492 3.148890
v -1.417042 -0.755765 3.171619
v -1.403665 -0.717381 3.208687
v -1.372069 -0.666685 3.282894
v -1.393933 -0.694397 3.244601
v -1.357545 -0.641341 3.319412
v -1.343478 -0.625168 3.349592
v -1.372790 -0.664664 3.279750
v -1.344395 -0.624972 3.349615
v -1.336992 -0.609839 3.373839
v -1.334268 -0.607188 3.380841
v -1.331200 -0.607933 3.385211
v -1.327692 -0.605340 3.412828
v -1.324683 -0.599074 3.406596
v -1.327450 -0.605335 3.413736
v -1.315375 -0.596901 3.439306
v -1.291928 -0.568154 3.522344
v -1.297760 -0.570925 3.531327
v -1.297702 -0.570867 3.531358
v -1.297760 -0.570925 3.531327
v -1.297702 -0.570867 3.531358
v -1.275824 -0.554839 3.593721
v -1.291972 -0.568326 3.521832
v -1.291699 -0.571652 3.530957
v -1.279633 -0.558605 3.597101
v -1.269136 -0.549915 3.613039
v -1.283421 -0.555242 3.569960
v -1.269136 -0.549915 3.613039
v -1.241584 -0.531292 3.695606
v -1.259258 -0.544582 3.650503
v -1.252244 -0.527907 3.672174
v -1.252651 -0.528927 3.670099
v -1.240546 -0.527549 3.707443
v -1.238913 -0.524203 3.700827
v -1.248606 -0.521639 3.710735
v -1.221940 -0.521963 3.743593
v -1.238597 -0.511602 3.724133
v -1.251956 -0.519796 3.700657
v -1.227396 -0.504222 3.754076
v -1.443714 -0.802426 3.146727
v -1.443470 -0.798806 3.149602
v -1.445642 -0.806604 3.145461
v -1.444993 -0.809689 3.144621
v -1.444287 -0.809603 3.145314
v -1.430217 -0.802688 3.151096
v -1.443155 -0.798449 3.149905
v -1.440676 -0.813923 3.138103
v -1.440436 -0.795377 3.153295
v -1.430533 -0.798836 3.146897
v -1.440433 -0.795270 3.153210
v -1.259258 -0.544582 3.650503
v -1.246146 -0.534362 3.683121
v -1.269136 -0.549915 3.613039
v -1.236698 -0.523327 3.705187
v -1.208866 -0.507461 3.763920
v -1.235865 -0.523808 3.705359
v -1.208866 -0.507461 3.763920
v -1.227396 -0.504222 3.754076
v -1.207223 -0.502302 3.808735
v -1.215299 -0.506460 3.794956
v -1.182191 -0.481631 3.857094
v -1.434505 -0.814382 3.139827
v -1.439926 -0.814293 3.139732
v -1.433030 -0.808884 3.143910
v -1.444287 -0.809603 3.145314
v -1.430003 -0.795310 3.150930
v -1.439251 -0.796593 3.152564
v -1.431856 -0.798411 3.150858
v -1.429155 -0.800704 3.150275
v -1.431481 -0.798697 3.150786
v -1.429678 -0.798453 3.146797
v -1.430715 -0.800970 3.145195
v -1.429678 -0.798453 3.146797
v -1.430103 -0.798548 3.147231
v -1.430663 -0.800885 3.145563
v -1.221984 -0.522157 3.743359
v -1.209124 -0.514783 3.763273
v -1.175209 -0.494454 3.878499
v -1.173149 -0.473682 3.876745
v -1.196909 -0.488551 3.830584
v -1.176342 -0.489622 3.874483
v -1.434595 -0.814618 3.139710
v -1.439926 -0.814293 3.139732
v -1.434417 -0.814612 3.139802
v -1.432311 -0.807795 3.141854
v -1.433982 -0.814964 3.140239
v -1.430941 -0.801754 3.143911
v -1.433030 -0.808884 3.143910
v -1.433982 -0.814964 3.140239
v -1.433030 -0.808884 3.143910
v -1.430969 -0.801500 3.144197
v -1.444287 -0.809603 3.145314
v -1.444287 -0.809603 3.145314
v -1.430852 -0.801222 3.144857
v -1.209148 -0.514785 3.763239
v -1.221940 -0.521963 3.743593
v -1.209010 -0.513867 3.763652
v -1.161862 -0.500736 3.832085
v -1.200688 -0.513874 3.783802
v -1.173031 -0.493607 3.882442
v -1.170055 -0.473963 3.881449
v -1.227396 -0.504222 3.754076
v -1.178129 -0.508087 3.828857
v -1.174844 -0.504117 3.867165
v -1.144586 -0.475355 3.882594
v -1.158511 -0.477221 3.878289
v -1.161468 -0.484930 3.907245
v -1.161716 -0.484913 3.911963
v -1.161309 -0.486434 3.908303
v -1.130685 -0.461556 3.969985
v -1.156976 -0.507019 3.906141
v -1.146133 -0.486494 3.941759
v -1.146169 -0.482519 3.937940
v -1.146155 -0.486486 3.941799
v -1.146268 -0.482527 3.937826
v -1.131226 -0.469726 3.971479
v -1.121104 -0.455025 3.973026
v -1.141057 -0.490885 3.863869
v -1.157793 -0.507142 3.906468
v -1.141277 -0.520142 3.918486
v -1.129483 -0.477154 3.974711
v -1.139267 -0.463499 3.913492
v -1.158625 -0.476346 3.877025
v -1.133302 -0.477257 3.965912
v -1.134033 -0.479526 3.966823
v -1.132253 -0.475563 3.974682
v -1.146169 -0.482519 3.937940
v -1.133016 -0.477784 3.963910
v -1.110774 -0.459469 3.958212
v -1.118612 -0.463527 3.995543
v -1.118612 -0.463527 3.995543
v -1.117941 -0.457060 3.984511
v -1.125959 -0.454912 3.977452
v -1.119823 -0.457541 3.986835
v -1.141272 -0.520172 3.918503
v -1.133140 -0.504515 3.965017
v -1.119785 -0.494149 4.008431
v -1.110575 -0.484547 4.021129
v -1.098979 -0.461911 4.047328
v -1.106584 -0.474561 4.029580
v -1.109096 -0.457259 4.015186
v -1.094895 -0.451027 4.051602
v -1.109096 -0.457259 4.015186
v -1.127447 -0.506931 3.879999
v -1.135296 -0.516245 3.894759
v -1.123168 -0.511110 3.941395
v -1.133152 -0.504376 3.965704
v -1.118237 -0.494191 4.002826
v -1.113983 -0.501037 3.983162
v -1.116410 -0.496991 4.002781
v -1.116279 -0.495096 4.008097
v -1.118142 -0.493997 4.002839
v -1.104150 -0.485737 4.028581
v -1.108196 -0.491884 4.020520
v -1.107443 -0.486969 4.026110
v -1.104567 -0.478290 4.027928
v -1.113292 -0.502179 3.984199
v -1.135046 -0.516331 3.894704
v -1.103231 -0.478438 4.029670
v -1.105777 -0.480220 4.028409
v -1.105659 -0.478392 4.031030
v -1.106543 -0.480288 4.028327
v -1.106566 -0.480363 4.028430
v -1.105716 -0.480345 4.030547
v -1.105833 -0.480978 4.031016
v -1.110575 -0.484547 4.021129
v -1.110575 -0.484547 4.021129
v -1.105699 -0.480453 4.030959
v -1.104048 -0.453819 3.992071
v -1.107254 -0.477661 4.027171
v -1.106775 -0.474195 4.027534
v -1.106166 -0.474671 4.029313
v -1.098824 -0.461933 4.047236
v -1.105744 -0.474796 4.029021
v -1.106610 -0.477771 4.028195
v -1.106185 -0.477801 4.027336
v -1.106736 -0.478034 4.028062
v -1.105927 -0.478087 4.030152
v -1.098774 -0.462156 4.046744
v -1.106978 -0.480434 4.028659
v -1.105921 -0.478233 4.030508
v -1.105762 -0.478355 4.031044
v -1.106978 -0.480434 4.028659
v -1.105894 -0.478400 4.031039
v -1.106185 -0.477801 4.027336
v -1.104210 -0.457911 4.004692
v -1.096557 -0.453896 3.995811
v -1.098261 -0.452811 4.009654
v -1.117932 -0.496698 3.893737
v -1.100446 -0.454281 4.005900
v -1.084858 -0.449619 4.074554
v -1.091260 -0.455172 4.063916
v -1.085803 -0.450335 4.074941
v -1.097005 -0.452673 4.066586
v -1.127447 -0.506931 3.879999
v -1.125330 -0.516775 3.930725
v -1.127447 -0.506931 3.879999
v -1.118084 -0.497348 3.893833
v -1.123090 -0.511644 3.940593
v -1.114983 -0.502363 3.984023
v -1.116963 -0.498154 4.004482
v -1.104964 -0.488091 4.028791
v -1.108701 -0.492025 4.021064
v -1.111405 -0.498373 3.995426
v -1.106784 -0.491275 4.024381
v -1.107575 -0.492349 4.022420
v -1.105622 -0.489042 4.028702
v -1.105439 -0.489533 4.029204
v -1.105285 -0.489786 4.030059
v -1.105439 -0.489533 4.029204
v -1.105317 -0.489639 4.030107
v -1.105134 -0.489703 4.030079
v -1.105439 -0.489533 4.029204
v -1.105186 -0.489694 4.030114
v -1.105453 -0.489730 4.030124
v -1.104270 -0.486497 4.029102
v -1.109211 -0.482568 4.030588
v -1.104910 -0.488581 4.029732
v -1.105681 -0.482625 4.029733
v -1.110575 -0.484547 4.021129
v -1.110575 -0.484547 4.021129
v -1.105875 -0.482096 4.029621
v -1.110575 -0.484547 4.021129
v -1.105626 -0.483116 4.031130
v -1.105919 -0.481174 4.029297
v -1.105546 -0.480253 4.031111
v -1.105844 -0.487661 4.029002
v -1.107443 -0.486969 4.026110
v -1.105608 -0.485591 4.029062
v -1.110575 -0.484547 4.021129
v -1.105640 -0.486091 4.028134
v -1.105720 -0.483646 4.031383
v -1.110575 -0.484547 4.021129
v -1.110575 -0.484547 4.021129
v -1.105364 -0.485290 4.031283
v -1.104988 -0.487129 4.031621
v -1.105015 -0.487159 4.031692
v -1.105529 -0.485529 4.031205
v -1.105699 -0.484622 4.031220
v -1.105279 -0.485455 4.030335
v -1.105640 -0.486091 4.028134
v -1.105015 -0.487159 4.031692
v -1.104988 -0.487129 4.031621
v -1.105555 -0.480600 4.031424
v -1.105716 -0.480345 4.030547
v -1.082214 -0.449361 4.043304
v -1.082149 -0.449213 4.043344
v -1.077298 -0.451326 4.052361
v -1.081369 -0.448598 4.076153
v -1.085623 -0.452010 4.071043
v -1.089953 -0.455173 4.062984
v -1.084511 -0.449723 4.074226
v -1.079418 -0.449945 4.067907
v -1.082407 -0.447955 4.075901
v -1.078618 -0.448198 4.067587
v -1.081252 -0.447805 4.074487
v -1.078618 -0.448198 4.067587
v -1.081965 -0.448359 4.075914
v -1.084501 -0.449997 4.074371
v -1.081856 -0.448294 4.075867
v -1.081289 -0.447334 4.073826
v -1.080339 -0.447928 4.075525
v -1.080313 -0.447676 4.074639
v -1.080313 -0.447676 4.074639
v -1.080339 -0.447928 4.075525
v -1.125650 -0.516424 3.930833
v -1.118992 -0.508029 3.961564
v -1.113465 -0.502528 3.984700
v -1.114851 -0.503419 3.978633
v -1.101374 -0.481176 3.944129
v -1.090548 -0.466512 3.994143
v -1.090663 -0.466652 3.992828
v -1.083087 -0.459283 4.023439
v -1.101176 -0.479952 3.946136
v -1.100044 -0.479023 3.950540
v -1.094895 -0.472810 3.974793
v -1.099710 -0.478452 3.951865
vn -0.9406 0.3329 -0.0670
vn -0.8789 0.4659 -0.1020
vn -0.5288 0.6449 -0.5518
vn -0.5601 0.7678 -0.3109
vn 0.0386 -0.6768 0.7352
vn -0.3248 -0.7154 0.6186
vn 0.0770 -0.5389 0.8388
vn -0.9325 0.3424 0.1152
vn -0.8948 0.4233 0.1418
vn -0.3460 -0.7478 0.5667
vn -0.3021 -0.7125 0.6333
vn -0.8995 0.4240 0.1056
vn -0.2985 0.8715 -0.3891
vn 0.5471 0.6400 -0.5395
vn 0.2604 -0.8490 0.4597
vn -0.6652 -0.5764 0.4746
vn -0.6610 -0.5725 0.4851
vn -0.2849 0.9262 -0.2471
vn 0.3339 -0.9039 0.2673
vn -0.9398 -0.1517 0.3062
vn -0.9112 -0.1003 0.3997
vn -0.6419 0.7574 -0.1199
vn -0.3760 -0.8641 0.3347
vn -0.6489 0.7608 -0.0059
vn 0.4696 0.8272 -0.3087
vn 0.5112 0.7789 -0.3632
vn -0.0754 0.9821 -0.1725
vn -0.9018 0.3977 0.1691
vn -0.9060 0.3258 0.2701
vn -0.6112 -0.6755 0.4124
vn -0.7359 -0.6020 0.3098
vn -0.2553 -0.8916 0.3739
vn -0.1417 0.9855 -0.0933
vn -0.0853 0.9762 -0.1994
vn -0.9291 0.1094 0.3533
vn -0.9353 0.2547 0.2457
vn -0.7642 0.4313 -0.4797
vn -0.9482 -0.0956 0.3028
vn 0.7062 0.4031 -0.5821
vn 0.0449 -0.5865 0.8087
vn 0.0613 -0.6003 0.7974
vn 0.0002 0.5587 -0.8294
vn 0.1282 -0.7700 0.6250
vn 0.2857 -0.5256 0.8013
vn 0.8470 -0.4983 0.1853
vn 0.5663 -0.7567 0.3267
vn 0.6984 -0.7122 0.0712
vn 0.3615 -0.8127 0.4570
vn 0.9234 -0.1684 -0.3449
vn 0.8415 0.2240 -0.4916
vn 0.8782 -0.4737 -0.0655
vn 0.5874 0.6711 -0.4523
vn -0.8931 0.4480 -0.0406
vn 0.9104 -0.1954 -0.3646
vn 0.1521 0.9293 -0.3365
vn 0.6162 -0.7868 -0.0343
vn 0.6186 0.7077 -0.3412
vn 0.3529 -0.9164 0.1891
vn 0.7008 -0.7096 -0.0735
vn 0.8053 0.4839 -0.3425
vn -0.3230 -0.9060 0.2736
vn 0.9170 -0.2956 -0.2678
vn 0.8364 -0.5242 -0.1601
vn 0.3154 -0.9354 0.1598
vn 0.3092 -0.9422 0.1294
vn 0.3395 -0.9306 0.1368
vn 0.0589 -0.9264 0.3719
vn 0.9549 0.1770 -0.2386
vn 0.7940 0.4535 -0.4048
vn 0.9072 0.2507 -0.3377
vn -0.3830 0.9119 -0.1474
vn 0.1092 -0.9391 0.3258
vn -0.4589 -0.8066 0.3726
vn -0.9469 0.1368 0.2910
vn -0.4221 -0.8427 0.3342
vn -0.4655 0.8840 -0.0437
vn -0.6246 0.7792 0.0529
vn -0.8592 0.4483 0.2465
vn -0.2005 -0.3554 0.9129
vn -0.3062 -0.4226 0.8530
vn -0.2348 -0.5257 0.8176
vn 0.0157 0.4545 -0.8906
vn 0.3903 0.4224 -0.8180
vn 0.0542 -0.5198 0.8525
vn 0.8948 0.2682 -0.3569
vn 0.8981 -0.3660 -0.2438
vn 0.8412 -0.5203 -0.1473
vn 0.7723 -0.6248 -0.1147
vn 0.8599 -0.1993 -0.4699
vn 0.9298 -0.2709 -0.2491
vn 0.9274 -0.2727 -0.2561
vn 0.9290 -0.2499 -0.2731
vn 0.8311 0.1834 -0.5250
vn 0.6903 -0.7187 -0.0841
vn 0.4394 0.7821 -0.4419
vn 0.3953 0.7776 -0.4889
vn -0.9003 0.2245 0.3728
vn -0.4060 -0.8707 0.2775
vn -0.9195 0.1614 0.3583
vn -0.4795 0.3409 -0.8086
vn 0.0016 -0.6124 0.7906
vn 0.1318 -0.7058 0.6960
vn 0.2806 0.3388 -0.8980
vn -0.3096 -0.5849 0.7497
vn 0.0454 -0.5164 0.8551
vn 0.1718 -0.5332 0.8284
vn 0.7415 -0.6284 -0.2353
vn 0.8389 -0.0195 -0.5439
vn -0.7109 0.6926 0.1217
vn -0.6653 0.7395 0.1025
vn -0.9112 0.1512 0.3832
vn 0.9378 -0.2746 0.2123
vn 0.9376 -0.2758 0.2115
vn 0.9377 -0.2754 0.2119
vn -0.1293 -0.4976 0.8577
vn 0.1281 -0.0741 0.9890
vn 0.7230 -0.6520 -0.2282
vn -0.0789 -0.9804 0.1804
vn 0.1867 -0.9469 0.2616
vn 0.0896 -0.9658 0.2432
vn 0.7413 -0.3686 -0.5610
vn -0.6451 -0.6398 0.4178
vn -0.9265 -0.0102 0.3763
vn 0.6586 -0.7164 -0.2301
vn -0.0440 -0.9985 -0.0311
vn -0.8602 -0.4813 0.1686
vn 0.2851 0.9171 -0.2785
vn 0.0398 0.9514 -0.3053
vn 0.0597 0.9681 -0.2435
vn -0.4802 0.8764 0.0355
vn -0.2641 -0.9644 -0.0153
vn -0.9386 -0.0438 0.3423
vn -0.8194 -0.3716 0.4365
vn -0.5708 0.7612 0.3077
vn -0.9023 0.1488 0.4046
vn -0.8274 0.4747 0.3000
vn -0.8718 -0.2802 0.4019
vn -0.9092 -0.1552 0.3863
vn -0.8195 0.3975 0.4128
vn -0.8412 0.4242 0.3354
vn -0.9244 0.1003 0.3679
vn -0.8953 -0.0934 0.4355
vn -0.2477 0.9622 0.1130
vn 0.7761 0.3111 -0.5485
vn 0.3255 0.8729 -0.3634
vn -0.8902 -0.0621 0.4512
vn -0.9238 0.3027 0.2344
vn 0.0209 0.9403 -0.3396
vn 0.0397 0.9757 -0.2156
vn 0.0537 0.9772 -0.2054
vn 0.5405 0.7907 -0.2875
vn -0.8663 -0.1197 0.4850
vn -0.1820 0.9736 0.1376
vn -0.8850 0.2989 0.3570
vn -0.8441 0.3799 0.3784
vn -0.0011 -0.9999 -0.0136
vn -0.7147 -0.5724 0.4018
vn -0.9170 -0.1920 0.3497
vn -0.8714 0.2057 0.4453
vn -0.8863 0.2770 0.3711
vn -0.8337 0.1393 0.5343
vn -0.9155 0.2990 0.2694
vn 0.7915 0.3105 -0.5265
vn -0.9187 0.2093 0.3349
vn -0.9055 -0.1905 0.3793
vn -0.8627 0.4180 0.2845
vn -0.9355 0.2296 0.2685
vn 0.2529 0.9547 -0.1567
vn -0.6779 0.7190 0.1533
vn 0.3728 -0.8600 -0.3485
vn 0.2538 -0.9473 -0.1954
vn -0.6939 -0.6693 0.2656
vn 0.0174 -0.9621 0.2723
vn -0.0544 -0.9626 0.2653
vn -0.1178 -0.9439 0.3084
vn -0.1132 -0.9502 0.2904
vn -0.8080 -0.5478 0.2169
vn -0.3806 -0.8735 0.3035
vn -0.8558 -0.4985 0.1382
vn -0.8089 -0.1195 0.5757
vn -0.6800 -0.4983 0.5379
vn -0.6701 -0.5026 0.5462
vn -0.9271 -0.0654 0.3692
vn 0.9640 0.0441 -0.2623
vn 0.8916 -0.4513 -0.0370
vn 0.9649 0.2628 -0.0037
vn -0.7834 0.5955 0.1781
vn -0.0089 0.9999 0.0083
vn 0.9912 -0.0090 -0.1319
vn 0.4808 -0.8703 0.1065
vn -0.4079 0.8659 0.2894
vn -0.0162 0.9880 -0.1533
vn -0.5830 0.8078 0.0874
vn -0.9449 0.2335 0.2293
vn 0.7496 0.4821 -0.4535
vn 0.7237 -0.6866 0.0698
vn 0.9411 0.2054 -0.2687
vn -0.8621 -0.5007 0.0777
vn -0.6730 -0.5439 0.5012
vn 0.2533 -0.9604 0.1159
vn 0.3269 -0.8987 0.2924
vn 0.3396 -0.9246 0.1725
vn 0.9467 -0.2799 0.1594
vn 0.2179 -0.0965 0.9712
vn 0.9796 -0.2009 -0.0048
vn -0.7351 -0.5498 0.3966
vn 0.5513 0.8227 -0.1388
vn 0.0014 0.9947 -0.1025
vn -0.0470 0.9968 -0.0650
vn -0.0267 0.9941 -0.1055
vn 0.4012 -0.8879 0.2251
vn 0.2564 -0.9616 0.0977
vn 0.6403 -0.7570 0.1299
vn 0.0582 -0.8903 0.4516
vn -0.1277 0.9913 -0.0303
vn -0.0054 -0.9477 0.3190
vn 0.9657 0.0614 -0.2521
vn 0.8422 -0.5335 -0.0784
vn 0.1237 -0.9585 0.2570
vn 0.7952 -0.6062 -0.0140
vn 0.7504 0.5926 -0.2927
vn 0.7957 0.5260 -0.3002
vn 0.6131 0.7861 -0.0784
vn 0.7347 -0.6341 0.2413
vn 0.7931 -0.0964 -0.6014
vn 0.7368 0.5402 -0.4066
s 1
f 1//1 2//2 3//3
f 3//3 2//2 4//4
f 9//5 5//6 6//7
f 8//8 4//4 2//2
f 10//9 4//4 8//8
f 9//5 10//10 5//6
f 9//5 12//11 10//10
f 4//4 13//12 14//13
f 14//13 11//14 4//4
f 10//10 16//15 15//16
f 19//17 15//16 16//15
f 14//13 13//12 17//18
f 16//15 18//19 19//17
f 19//17 20//20 21//21
f 22//22 14//13 17//18
f 19//17 23//23 20//20
f 24//24 22//22 17//18
f 26//25 27//26 28//27
f 22//22 24//24 30//28
f 30//28 24//24 31//29
f 32//30 29//31 23//23
f 29//31 32//30 34//32
f 28//27 35//33 33//34
f 31//29 37//35 30//28
f 38//36 37//35 31//29
f 1//1 39//37 40//38
f 39//37 1//1 3//3
f 42//39 3//3 4//4
f 43//40 44//41 9//5
f 45//42 3//3 42//39
f 44//41 46//43 9//5
f 11//14 42//39 4//4
f 47//44 48//45 49//46
f 9//5 46//43 12//11
f 49//46 42//39 50//47
f 49//46 50//47 51//48
f 50//47 16//15 51//48
f 16//15 10//10 12//11
f 11//14 53//49 50//47
f 11//14 54//50 53//49
f 16//15 50//47 55//51
f 56//52 11//14 14//13
f 52//53 11//14 56//52
f 58//54 18//19 16//15
f 16//15 55//51 58//54
f 56//52 14//13 57//55
f 56//52 58//54 52//53
f 58//54 59//56 18//19
f 58//54 56//52 60//57
f 19//17 18//19 61//58
f 57//55 14//13 27//26
f 62//59 59//56 58//54
f 59//56 62//59 61//58
f 62//59 19//17 61//58
f 27//26 26//25 57//55
f 57//55 26//25 60//57
f 63//60 60//57 26//25
f 19//17 25//61 23//23
f 68//62 63//60 26//25
f 25//61 32//30 23//23
f 26//25 28//27 33//34
f 72//63 68//62 26//25
f 70//64 76//65 71//66
f 32//30 75//67 34//32
f 73//68 78//69 74//70
f 33//34 35//33 77//71
f 75//67 79//72 34//32
f 79//72 81//73 34//32
f 36//74 38//36 31//29
f 79//72 82//75 81//73
f 83//76 84//77 85//78
f 90//79 91//80 92//81
f 93//82 39//37 3//3
f 95//83 93//82 45//42
f 44//41 43//40 96//84
f 45//42 93//82 3//3
f 48//45 42//39 49//46
f 42//39 11//14 50//47
f 58//54 69//85 62//59
f 58//54 60//57 69//85
f 69//85 60//57 63//60
f 19//17 62//59 25//61
f 68//86 62//59 69//85
f 68//62 72//63 97//87
f 97//87 72//63 98//88
f 80//89 74//70 78//69
f 99//90 100//91 75//92
f 101//93 80//89 78//69
f 75//67 102//94 79//72
f 103//95 77//71 35//33
f 103//95 35//33 104//96
f 38//36 105//97 37//35
f 81//73 82//75 106//98
f 37//35 105//97 107//99
f 39//37 93//82 88//100
f 109//101 110//101 111//102
f 108//103 93//82 95//83
f 94//104 92//81 91//80
f 44//41 96//84 114//105
f 117//106 48//45 47//44
f 102//94 122//107 79//72
f 101//93 123//108 80//89
f 85//78 84//77 125//109
f 84//77 126//110 125//109
f 107//99 105//97 127//111
f 132//112 133//113 134//114
f 135//115 110//101 109//101
f 136//116 137//116 138//116
f 102//94 141//117 122//107
f 106//118 142//119 143//120
f 123//108 101//93 144//121
f 143//120 124//122 106//118
f 105//97 146//123 127//111
f 145//124 123//108 149//125
f 124//122 143//120 149//125
f 124//122 149//125 150//126
f 151//127 103//95 104//96
f 152//128 148//129 147//130
f 107//99 127//111 153//131
f 127//111 146//123 154//132
f 150//126 155//133 124//122
f 154//134 107//99 153//131
f 147//130 107//135 156//136
f 144//121 149//125 123//108
f 157//137 158//138 150//126
f 150//126 158//138 155//133
f 148//129 152//128 151//127
f 154//134 159//139 107//99
f 154//134 160//140 159//139
f 107//135 161//141 156//136
f 161//141 162//142 156//136
f 147//130 156//136 163//143
f 164//144 144//121 101//93
f 168//145 152//128 147//130
f 161//141 170//146 162//142
f 160//140 171//147 159//139
f 172//148 174//149 173//150
f 147//130 163//143 168//145
f 168//145 163//143 175//151
f 170//146 177//152 162//142
f 156//136 178//153 163//143
f 176//154 180//155 156//136
f 149//125 181//156 150//126
f 157//137 166//157 182//158
f 182//158 158//138 157//137
f 158//138 182//158 183//159
f 183//159 167//160 158//138
f 183//159 184//161 167//160
f 174//162 167//160 176//154
f 169//163 168//145 175//151
f 176//154 167//160 185//164
f 162//142 176//154 156//136
f 167//160 186//165 185//164
f 187//166 180//155 176//154
f 176//154 188//167 187//166
f 185//164 188//167 176//154
f 179//168 189//169 178//153
f 149//125 144//121 190//170
f 149//125 190//170 191//171
f 149//125 191//171 181//156
f 150//126 181//156 165//172
f 181//156 192//173 193//174
f 164//144 103//95 151//127
f 195//175 194//176 193//174
f 196//177 197//178 198//179
f 152//128 175//151 151//127
f 183//159 199//180 184//161
f 197//178 200//181 201//182
f 197//178 196//177 200//181
f 186//165 167//160 202//183
f 167//160 184//161 202//183
f 203//184 204//185 205//186
f 206//187 202//183 184//161
f 163//143 215//188 175//151
f 220//189 205//186 204//185
f 204//185 225//190 220//189
f 163//143 232//191 215//188
f 178//153 236//192 163//143
f 189//169 237//193 178//153
f 238//194 188//167 185//164
f 193//174 192//173 195//175
f 244//195 164//144 151//127
f 243//196 225//190 204//185
f 204//185 203//184 245//197
f 246//198 196//177 198//179
f 200//181 248//199 201//182
f 247//200 195//201 249//202
f 203//184 205//186 262//203
f 262//203 205//186 263//204
f 203//184 262//203 264//205
f 277//206 278//206 279//206
f 292//207 175//151 215//188
f 293//208 233//209 234//210
f 236//192 178//153 292//207
f 294//211 295//212 235//213
f 295//212 225//190 235//213
f 298//214 225//190 295//212
f 292//207 237//193 300//215
f 237//193 292//207 178//153
f 191//171 312//216 181//156
f 192//173 181//156 312//216
f 242//217 204//185 245//197
f 243//196 235//213 225//190
f 245//197 203//184 313//218
f 175//151 244//195 151//127
f 316//219 317//220 235//213
f 175//151 292//207 318//221
f 318//221 292//207 319//222
f 294//211 235//213 317//220
f 299//223 319//222 292//207
f 299//223 292//207 300//215
f 294//211 301//224 295//212
f 241//225 144//121 244//195
f 164//144 244//195 144//121
f 244//195 175//151 321//226
f 175//151 318//221 321//226
l 296 297
l 115 116
l 6 41
l 54 52
l 286 287
l 306 307
l 252 253
l 207 208
l 216 217
l 112 113
l 290 291
l 256 257
l 218 219
l 308 309
l 118 119
l 228 229
l 284 285
l 304 305
l 269 270
l 275 276
l 128 129
l 322 323
l 139 140
l 260 261
l 267 268
l 282 283
l 86 87
l 221 222
l 2 7
l 250 251
l 223 224
l 258 259
l 211 212
l 213 214
l 280 281
l 239 240
l 120 121
l 288 289
l 310 311
l 235 320
l 271 272
l 273 274
l 302 303
l 64 65
l 66 67
l 314 315
l 130 131
l 254 255
l 230 231
l 209 210
l 88 89
l 265 266
l 226 227
