# Blender v2.78 (sub 0) OBJ File: 'exporter.blend'
# www.blender.org
o FJ1412.obj_grp1.181
v -0.377591 -0.258702 -0.282894
v -0.364136 -0.235569 -0.288515
v -0.378025 -0.259800 -0.282876
v -0.363267 -0.235516 -0.287212
v -0.366443 -0.237840 -0.284987
v -0.350121 -0.241148 -0.292615
v -0.354863 -0.238347 -0.292614
v -0.422162 -0.337612 -0.267926
v -0.424199 -0.340253 -0.271099
v -0.424931 -0.341882 -0.270870
v -0.394482 -0.303104 -0.288676
v -0.371070 -0.301664 -0.290949
v -0.348970 -0.241975 -0.293150
v -0.355191 -0.238400 -0.292814
v -0.355279 -0.238387 -0.292830
v -0.363305 -0.235956 -0.288117
v -0.348970 -0.241975 -0.293150
v -0.481289 -0.451645 -0.266825
v -0.477510 -0.442869 -0.273441
v -0.457816 -0.407818 -0.270240
v -0.448046 -0.404058 -0.274027
v -0.409698 -0.354207 -0.280578
v -0.355081 -0.268336 -0.286864
v -0.346432 -0.252450 -0.288104
v -0.347974 -0.252027 -0.286670
v -0.494804 -0.517501 -0.278365
v -0.498733 -0.497151 -0.270706
v -0.499871 -0.497103 -0.270727
v -0.474020 -0.446180 -0.261278
v -0.423722 -0.386613 -0.275600
v -0.458745 -0.412428 -0.256956
v -0.451195 -0.397525 -0.256643
v -0.428679 -0.362775 -0.259839
v -0.371424 -0.304561 -0.273768
v -0.410706 -0.356791 -0.280110
v -0.381631 -0.331634 -0.282227
v -0.369095 -0.295805 -0.289547
v -0.365967 -0.293160 -0.280296
v -0.358066 -0.273796 -0.284481
v -0.343885 -0.255262 -0.289254
v -0.348823 -0.256368 -0.289470
v -0.503959 -0.533046 -0.273048
v -0.415046 -0.381976 -0.254719
v -0.408330 -0.403279 -0.260120
v -0.385610 -0.341302 -0.282032
v -0.504297 -0.535023 -0.278473
v -0.509869 -0.556646 -0.284013
v -0.512593 -0.558395 -0.282040
v -0.509933 -0.558633 -0.282546
v -0.511803 -0.556576 -0.279436
v -0.503611 -0.553116 -0.282518
v -0.509438 -0.555976 -0.286290
v -0.512470 -0.558397 -0.281871
v -0.509500 -0.556657 -0.283768
v -0.511821 -0.557020 -0.279909
v -0.508653 -0.555468 -0.275676
v -0.507404 -0.555408 -0.276100
v -0.511803 -0.556576 -0.279436
v -0.492369 -0.504827 -0.260008
v -0.478383 -0.497939 -0.255875
v -0.418821 -0.400470 -0.268376
v -0.387498 -0.343667 -0.264189
v -0.383952 -0.340262 -0.268191
v -0.383952 -0.340262 -0.268191
v -0.387448 -0.343303 -0.264921
v -0.503611 -0.553116 -0.282518
v -0.509283 -0.556598 -0.283730
v -0.512470 -0.558397 -0.281871
v -0.505976 -0.555811 -0.273868
v -0.508653 -0.555468 -0.275676
v -0.506284 -0.553306 -0.275345
v -0.506098 -0.554258 -0.272756
v -0.507241 -0.554284 -0.274978
v -0.503053 -0.556383 -0.268363
v -0.508897 -0.556599 -0.283528
v -0.503611 -0.553116 -0.282518
v -0.507763 -0.554766 -0.275338
v -0.505358 -0.543187 -0.273493
v -0.503611 -0.553116 -0.282518
v -0.478644 -0.537436 -0.272112
v -0.430204 -0.420846 -0.266185
v -0.430101 -0.420897 -0.266439
v -0.446190 -0.469289 -0.265394
v -0.418979 -0.400938 -0.268480
v -0.390037 -0.401395 -0.243024
v -0.384679 -0.349629 -0.270960
v -0.385230 -0.358296 -0.267416
v -0.384208 -0.353513 -0.265591
v -0.386709 -0.347279 -0.263461
v -0.384679 -0.349629 -0.270960
v -0.387448 -0.343303 -0.264921
v -0.386709 -0.347279 -0.263461
v -0.383952 -0.340262 -0.268191
v -0.383819 -0.354931 -0.259891
v -0.384208 -0.353513 -0.265591
v -0.493874 -0.552222 -0.263491
v -0.488973 -0.542821 -0.272288
v -0.487785 -0.539861 -0.274247
v -0.503611 -0.553116 -0.282518
v -0.487757 -0.539854 -0.274263
v -0.488973 -0.542821 -0.272288
v -0.488973 -0.542821 -0.272288
v -0.487757 -0.539854 -0.274263
v -0.479246 -0.537215 -0.273222
v -0.480163 -0.520718 -0.255659
v -0.466035 -0.504762 -0.249798
v -0.446190 -0.469289 -0.265394
v -0.442674 -0.485204 -0.262554
v -0.385610 -0.341302 -0.282032
v -0.385230 -0.358296 -0.267416
v -0.408330 -0.403279 -0.260120
v -0.384811 -0.353822 -0.261398
v -0.380362 -0.357723 -0.260771
v -0.384208 -0.353513 -0.265591
v -0.382993 -0.355516 -0.259983
v -0.384811 -0.353822 -0.261398
v -0.379804 -0.356476 -0.260121
v -0.380272 -0.359084 -0.263248
v -0.385230 -0.358296 -0.267416
v -0.379825 -0.356336 -0.261269
v -0.384208 -0.353513 -0.265591
v -0.330442 -0.294076 -0.279088
v -0.339441 -0.308497 -0.275099
v -0.318732 -0.276680 -0.280140
v -0.313133 -0.271768 -0.282211
v -0.502564 -0.556346 -0.268703
v -0.506174 -0.554914 -0.273334
v -0.494058 -0.552203 -0.263933
v -0.502564 -0.556346 -0.268703
v -0.493457 -0.551903 -0.263951
v -0.494175 -0.552037 -0.263291
v -0.493038 -0.551708 -0.263421
v -0.488180 -0.540276 -0.260589
v -0.493307 -0.552120 -0.263790
v -0.493335 -0.551614 -0.263115
v -0.493336 -0.551817 -0.263596
v -0.488180 -0.540276 -0.260589
v -0.492857 -0.552401 -0.263161
v -0.492935 -0.552258 -0.263274
v -0.492799 -0.551463 -0.262831
v -0.493278 -0.552182 -0.263676
v -0.493181 -0.551620 -0.263084
v -0.492811 -0.552087 -0.263112
v -0.493358 -0.552088 -0.264141
v -0.488898 -0.551496 -0.262003
v -0.483923 -0.542806 -0.263380
v -0.489046 -0.551138 -0.261507
v -0.492645 -0.552651 -0.262499
v -0.478821 -0.538469 -0.272924
v -0.480615 -0.536658 -0.267071
v -0.506174 -0.554914 -0.273334
v -0.482349 -0.538746 -0.268191
v -0.482440 -0.537032 -0.266384
v -0.482002 -0.537591 -0.266388
v -0.479145 -0.537314 -0.272668
v -0.478143 -0.537736 -0.272467
v -0.465851 -0.530290 -0.265910
v -0.478608 -0.537495 -0.272349
v -0.475796 -0.535150 -0.269920
v -0.472983 -0.533375 -0.270527
v -0.472983 -0.533375 -0.270527
v -0.482349 -0.538746 -0.268191
v -0.482238 -0.536861 -0.266552
v -0.479462 -0.537365 -0.266683
v -0.466357 -0.529920 -0.266000
v -0.434218 -0.478413 -0.249377
v -0.399602 -0.405013 -0.257581
v -0.385230 -0.358296 -0.267416
v -0.380272 -0.359084 -0.263248
v -0.353481 -0.323471 -0.272006
v -0.380272 -0.359084 -0.263248
v -0.353879 -0.334845 -0.264672
v -0.379867 -0.356309 -0.261319
v -0.380272 -0.359084 -0.263248
v -0.380213 -0.356100 -0.260853
v -0.375078 -0.351170 -0.259049
v -0.374888 -0.351041 -0.258147
v -0.379804 -0.356476 -0.260121
v -0.362631 -0.336520 -0.266926
v -0.349044 -0.320119 -0.271606
v -0.362631 -0.336520 -0.266926
v -0.352127 -0.323287 -0.270499
v -0.335828 -0.302668 -0.276975
v -0.318577 -0.276122 -0.281879
v -0.348196 -0.318844 -0.272560
v -0.353138 -0.324471 -0.269704
v -0.307442 -0.309158 -0.261697
v -0.318751 -0.276769 -0.280311
v -0.310640 -0.275477 -0.281710
v -0.312049 -0.272764 -0.282709
v -0.311979 -0.272512 -0.282705
v -0.310132 -0.275695 -0.280803
v -0.312002 -0.272671 -0.282774
v -0.311979 -0.272512 -0.282705
v -0.313065 -0.273362 -0.282288
v -0.311687 -0.275782 -0.280832
v -0.310266 -0.273547 -0.282394
v -0.310936 -0.273141 -0.282901
v -0.310266 -0.273547 -0.282394
v -0.310936 -0.273141 -0.282901
v -0.310322 -0.275608 -0.281204
v -0.303932 -0.277405 -0.280121
v -0.305923 -0.277288 -0.280699
v -0.488897 -0.550934 -0.261360
v -0.484171 -0.543182 -0.263288
v -0.488959 -0.550534 -0.260757
v -0.480842 -0.545534 -0.258004
v -0.478180 -0.547010 -0.257705
v -0.488959 -0.550534 -0.260757
v -0.479964 -0.545919 -0.258888
v -0.478768 -0.545795 -0.257788
v -0.471166 -0.542552 -0.254735
v -0.454938 -0.525605 -0.255506
v -0.451529 -0.521231 -0.260140
v -0.467279 -0.508231 -0.250008
v -0.477335 -0.516906 -0.253047
v -0.467279 -0.508231 -0.250008
v -0.467272 -0.505644 -0.249274
v -0.463010 -0.500278 -0.250634
v -0.467272 -0.505644 -0.249274
v -0.467279 -0.508231 -0.250008
v -0.422418 -0.457970 -0.258490
v -0.420816 -0.455187 -0.258834
v -0.317035 -0.327300 -0.277760
v -0.300682 -0.279173 -0.278954
v -0.298219 -0.291067 -0.265772
v -0.301362 -0.277997 -0.280508
v -0.472159 -0.541558 -0.255511
v -0.467262 -0.538302 -0.253479
v -0.458066 -0.517744 -0.244933
v -0.468158 -0.540484 -0.252898
v -0.448417 -0.519776 -0.260642
v -0.447347 -0.519315 -0.260195
v -0.408892 -0.458689 -0.261283
v -0.411282 -0.434966 -0.244237
v -0.292824 -0.284103 -0.274758
v -0.300238 -0.278947 -0.281202
v -0.292809 -0.284156 -0.274409
v -0.300668 -0.278470 -0.280922
v -0.292809 -0.284156 -0.274409
v -0.449220 -0.530225 -0.245304
v -0.446655 -0.528949 -0.242447
v -0.440251 -0.515122 -0.259147
v -0.453012 -0.519841 -0.261140
v -0.434673 -0.512518 -0.255295
v -0.440251 -0.515122 -0.259147
v -0.434323 -0.511610 -0.255423
v -0.420648 -0.501986 -0.234949
v -0.350741 -0.384392 -0.264432
v -0.360528 -0.404517 -0.227913
v -0.307088 -0.327393 -0.269955
v -0.283539 -0.284843 -0.269922
v -0.414338 -0.495470 -0.242273
v -0.434765 -0.512695 -0.255299
v -0.434765 -0.512695 -0.255299
v -0.414646 -0.496542 -0.242909
v -0.427852 -0.507855 -0.252207
v -0.400054 -0.486698 -0.241501
v -0.365214 -0.433297 -0.253145
v -0.391825 -0.453911 -0.225437
v -0.330478 -0.354629 -0.244277
v -0.281583 -0.286563 -0.264048
v -0.284549 -0.289229 -0.256804
v -0.283443 -0.284888 -0.270045
v -0.287969 -0.290105 -0.259919
v -0.281968 -0.286304 -0.264349
v -0.446173 -0.528523 -0.242422
v -0.449333 -0.529713 -0.245017
v -0.442271 -0.528497 -0.240719
v -0.446756 -0.529145 -0.242218
v -0.436499 -0.522305 -0.240184
v -0.442916 -0.528334 -0.239333
v -0.442269 -0.527261 -0.241094
v -0.418182 -0.506625 -0.235692
v -0.416899 -0.506573 -0.234344
v -0.409994 -0.495751 -0.246469
v -0.370287 -0.458640 -0.222008
v -0.330478 -0.354629 -0.244277
v -0.309093 -0.318494 -0.252535
v -0.309093 -0.318494 -0.252535
v -0.312261 -0.347962 -0.247886
v -0.284802 -0.289077 -0.259215
v -0.282556 -0.288263 -0.259789
v -0.284761 -0.289631 -0.258103
v -0.285062 -0.288482 -0.256311
v -0.282556 -0.288263 -0.259789
v -0.287969 -0.290105 -0.259919
v -0.285126 -0.288495 -0.256471
v -0.283822 -0.289211 -0.257023
v -0.282557 -0.285565 -0.268148
v -0.281968 -0.286304 -0.264349
v -0.417518 -0.505625 -0.234198
v -0.386563 -0.472101 -0.227698
v -0.405778 -0.499253 -0.230914
v -0.398701 -0.483664 -0.240193
v -0.396753 -0.465234 -0.224820
v -0.396663 -0.482233 -0.241266
v -0.333188 -0.397136 -0.239713
v -0.334258 -0.393142 -0.233971
v -0.313163 -0.352199 -0.246932
v -0.417485 -0.505865 -0.234766
v -0.412066 -0.503789 -0.232891
v -0.412066 -0.503789 -0.232891
v -0.412066 -0.503789 -0.232891
v -0.406231 -0.499295 -0.230977
v -0.406605 -0.499143 -0.231146
v -0.412066 -0.503789 -0.232891
v -0.400316 -0.486649 -0.241384
v -0.375912 -0.459074 -0.231488
v -0.395923 -0.464176 -0.223367
v -0.365628 -0.446161 -0.230174
v -0.397267 -0.466255 -0.224744
v -0.380407 -0.441425 -0.220156
v -0.382716 -0.444987 -0.219771
v -0.379318 -0.449626 -0.217307
v -0.379851 -0.441024 -0.220517
v -0.406355 -0.498900 -0.231427
v -0.405680 -0.499452 -0.230885
v -0.406418 -0.499120 -0.231161
v -0.405680 -0.499452 -0.230885
v -0.392481 -0.485215 -0.226520
v -0.391975 -0.486258 -0.225796
v -0.389826 -0.484685 -0.225445
v -0.397030 -0.490172 -0.228333
v -0.345717 -0.422525 -0.237975
v -0.344563 -0.420667 -0.238115
v -0.373172 -0.456397 -0.222434
v -0.373172 -0.456397 -0.222434
v -0.373172 -0.456397 -0.222434
v -0.363366 -0.445371 -0.229843
vn -0.5628 0.2033 -0.8012
vn -0.8798 0.4730 0.0461
vn -0.8830 0.4340 -0.1787
vn -0.7074 0.5076 0.4918
vn -0.8450 0.4361 -0.3095
vn -0.8894 0.4336 0.1446
vn -0.4403 0.1486 -0.8855
vn 0.1924 0.0781 -0.9782
vn -0.0349 -0.1195 -0.9922
vn 0.3293 0.2161 0.9192
vn 0.5162 0.5183 0.6818
vn 0.5199 0.7830 0.3415
vn -0.6868 0.4004 -0.6066
vn -0.9008 0.2940 0.3197
vn -0.6503 0.3818 -0.6568
vn -0.3045 0.3589 -0.8823
vn 0.1052 -0.1478 -0.9834
vn 0.0872 -0.2116 -0.9735
vn -0.2911 0.2822 0.9141
vn 0.1801 0.1574 0.9710
vn 0.2985 0.0874 0.9504
vn 0.3303 0.0216 0.9436
vn 0.7129 -0.1864 -0.6760
vn 0.0196 0.1637 -0.9863
vn -0.5275 0.2394 -0.8151
vn -0.7850 0.0127 0.6194
vn -0.8494 0.4845 0.2093
vn -0.6765 0.3015 0.6719
vn 0.0336 0.1942 0.9804
vn 0.9323 -0.3204 -0.1680
vn 0.8659 -0.4603 -0.1958
vn 0.8866 -0.4437 -0.1305
vn 0.2405 -0.2195 -0.9455
vn 0.0487 -0.0231 -0.9985
vn -0.4587 0.1906 0.8679
vn -0.1031 0.3135 0.9440
vn 0.4761 -0.3259 -0.8168
vn 0.2484 -0.2319 -0.9405
vn 0.9149 -0.2925 -0.2782
vn -0.6852 0.3414 -0.6434
vn -0.6948 0.2274 -0.6823
vn -0.6867 0.3713 -0.6250
vn -0.8222 0.0514 0.5668
vn -0.7570 0.4171 -0.5029
vn -0.6262 0.3724 -0.6850
vn -0.7683 0.0775 0.6354
vn -0.5926 -0.0236 0.8052
vn -0.5854 0.1227 0.8014
vn 0.4658 0.1008 -0.8791
vn 0.4058 -0.0254 -0.9136
vn -0.2643 0.0957 0.9597
vn 0.4418 -0.2419 -0.8639
vn 0.0062 0.3023 0.9532
vn 0.9696 -0.2181 0.1113
vn 0.7294 -0.1191 0.6737
vn 0.7132 -0.1649 0.6813
vn 0.7322 -0.1209 0.6703
vn 0.3062 -0.9496 0.0665
vn 0.4229 -0.9053 0.0398
vn -0.4800 -0.5447 0.6877
vn 0.4938 -0.8659 -0.0798
vn 0.5863 -0.8050 -0.0910
vn -0.9264 0.3406 0.1605
vn 0.5199 -0.2580 -0.8144
vn -0.2970 0.2759 0.9142
vn 0.9464 -0.2149 -0.2411
vn 0.9731 -0.1375 -0.1850
vn 0.9731 -0.1375 -0.1849
vn 0.9635 0.1650 0.2111
vn 0.9815 0.0186 0.1905
vn 0.4331 0.3807 0.8170
vn -0.0532 0.3140 0.9479
vn 0.9340 0.3218 0.1549
vn 0.5717 -0.8189 0.0505
vn -0.6078 0.0705 0.7910
vn -0.5744 0.6237 0.5301
vn 0.7005 -0.5720 -0.4267
vn 0.2797 -0.6092 -0.7420
vn 0.3569 -0.0310 -0.9336
vn 0.5075 -0.0413 -0.8607
vn 0.2812 -0.0689 -0.9572
vn -0.4050 0.0041 0.9143
vn -0.3367 0.0918 -0.9371
vn -0.3354 0.0912 -0.9377
vn -0.3363 0.0916 -0.9373
vn 0.2655 -0.0429 -0.9632
vn 0.7077 -0.4515 -0.5434
vn 0.9339 0.3207 0.1581
vn 0.6617 0.7420 0.1078
vn 0.6396 0.7612 0.1071
vn 0.7093 0.6995 0.0867
vn 0.6113 0.7779 0.1454
vn 0.1715 0.3247 0.9301
vn 0.6291 0.3842 -0.6757
vn 0.6878 0.2456 -0.6831
vn 0.7309 0.1013 -0.6750
vn -0.8062 0.5644 0.1774
vn -0.7885 0.5893 0.1762
vn -0.6060 0.3284 -0.7245
vn -0.6037 0.3144 -0.7326
vn 0.4049 -0.7583 -0.5109
vn 0.5810 -0.5307 -0.6171
vn 0.5781 -0.5422 -0.6098
vn 0.3107 -0.7151 -0.6261
vn 0.1089 -0.9851 -0.1332
vn 0.4361 -0.5965 -0.6738
vn 0.4309 -0.8598 0.2742
vn 0.3724 -0.8782 0.3003
vn 0.3183 -0.6794 0.6611
vn 0.3204 -0.7059 0.6317
vn 0.3608 -0.6640 0.6549
vn 0.3508 -0.5443 -0.7620
vn 0.5090 -0.8561 0.0894
vn 0.6868 -0.4251 -0.5896
vn -0.0657 -0.6602 0.7482
vn -0.0827 -0.6512 0.7544
vn -0.0943 -0.6676 0.7385
vn 0.5838 -0.6772 -0.4479
vn 0.3899 -0.0935 -0.9161
vn 0.4787 -0.2521 -0.8410
vn -0.3363 0.1353 0.9320
vn 0.4149 -0.1559 -0.8964
vn -0.3720 0.2029 0.9058
vn -0.0440 -0.0865 -0.9953
vn 0.4062 -0.3062 -0.8610
vn -0.4076 0.1001 -0.9077
vn -0.1549 -0.0422 -0.9870
vn 0.5748 -0.3341 -0.7470
vn -0.1134 0.4752 0.8725
vn -0.1095 0.2822 0.9531
vn -0.6809 0.3909 0.6194
vn -0.7130 0.4694 -0.5209
vn -0.6372 0.4907 -0.5943
vn -0.7095 0.4690 -0.5260
vn -0.3806 0.3370 0.8612
vn -0.7026 0.6860 0.1890
vn -0.6266 0.7025 0.3375
vn 0.1555 -0.3188 -0.9350
vn 0.2243 -0.3023 -0.9264
vn 0.0772 -0.2093 -0.9748
vn -0.4756 0.5117 0.7155
vn -0.1759 0.5020 0.8468
vn 0.0445 -0.6914 -0.7211
vn 0.0407 -0.3585 -0.9326
vn -0.1546 0.0569 -0.9863
vn -0.0444 -0.1319 -0.9903
vn 0.0694 0.6463 0.7599
vn -0.0130 0.5294 0.8482
vn 0.5558 -0.5682 -0.6068
vn 0.4606 -0.6981 -0.5482
vn 0.3506 -0.3404 -0.8725
vn 0.3598 -0.3516 -0.8643
vn 0.3126 -0.3840 -0.8688
vn 0.4734 -0.6723 -0.5691
vn -0.3397 -0.0604 0.9386
vn -0.3944 -0.0905 0.9145
vn -0.3821 -0.1304 0.9149
vn 0.5987 -0.6629 -0.4496
vn -0.3305 0.0666 0.9415
vn -0.4874 0.0713 0.8703
vn -0.0554 -0.2723 0.9606
vn 0.5465 -0.2299 0.8053
vn 0.1110 -0.0604 -0.9920
vn -0.3943 0.1773 0.9017
vn -0.2300 0.0574 -0.9715
vn 0.1330 -0.1606 -0.9780
vn -0.1897 0.6639 0.7233
vn 0.1591 0.7715 0.6161
vn -0.2811 -0.1899 0.9407
vn 0.5047 -0.8613 0.0590
vn 0.3663 -0.8600 0.3552
vn 0.3189 -0.0935 -0.9432
vn 0.0893 -0.0373 -0.9953
vn 0.4384 -0.2335 -0.8679
vn 0.5864 -0.1805 -0.7897
vn -0.0613 0.7976 0.6000
vn -0.4579 -0.0206 0.8888
vn 0.4374 -0.3168 -0.8416
vn 0.1491 -0.5671 0.8101
vn 0.2168 -0.7652 0.6062
vn 0.2261 -0.9516 0.2082
vn 0.5703 -0.4278 -0.7012
vn -0.3494 0.0583 0.9352
vn 0.1157 -0.2200 -0.9686
vn 0.7440 -0.3619 -0.5617
vn -0.2692 0.8742 0.4041
vn 0.4861 -0.5766 -0.6567
vn 0.3474 -0.6847 0.6407
vn 0.4824 -0.3381 -0.8080
vn 0.4283 -0.7677 0.4767
vn 0.6139 -0.5855 -0.5295
vn 0.5960 -0.4014 -0.6954
vn 0.5812 -0.4319 -0.6896
vn -0.6324 0.3624 0.6847
vn -0.2148 0.3026 0.9286
vn -0.6595 0.3898 0.6427
vn -0.3051 0.8906 0.3373
vn -0.3168 0.8882 0.3328
vn 0.5611 -0.5763 -0.5942
vn 0.6001 -0.5164 -0.6109
vn -0.5115 -0.3297 0.7935
vn -0.3915 -0.0065 0.9201
vn 0.5438 -0.3326 -0.7705
vn 0.7291 -0.6215 -0.2866
vn 0.4095 -0.7674 0.4934
vn -0.1277 0.3705 0.9200
vn -0.7152 0.5632 0.4139
vn -0.7089 0.5338 0.4610
vn 0.2113 0.1493 0.9660
vn 0.1502 0.1725 0.9735
vn 0.0041 0.2699 0.9629
vn 0.6696 -0.3903 -0.6319
vn 0.8445 -0.5050 -0.1785
vn -0.3102 0.8874 0.3411
vn -0.3132 0.9329 -0.1775
vn -0.3301 0.9319 -0.1506
vn -0.3233 0.9286 -0.1822
vn -0.1835 -0.0528 0.9816
vn 0.6189 -0.2787 -0.7344
vn 0.4395 -0.2937 -0.8489
vn 0.5333 -0.5584 0.6354
vn 0.7872 -0.6154 0.0400
vn -0.5390 0.2249 0.8117
vn 0.9191 -0.3939 -0.0072
vn 0.5526 -0.0615 0.8312
vn 0.9062 -0.3997 0.1376
vn 0.8644 -0.3308 0.3786
vn 0.5536 -0.4558 -0.6970
vn -0.0995 -0.2376 0.9662
vn -0.2307 -0.0565 0.9714
vn 0.6582 -0.5576 0.5058
vn 0.6909 -0.6017 -0.4007
vn -0.6417 0.2216 0.7342
vn 0.7444 -0.5562 0.3694
vn -0.8769 0.4080 0.2542
vn -0.7005 0.6938 -0.1675
vn -0.6217 0.4889 0.6120
vn -0.5610 0.4563 0.6907
vn 0.1142 -0.0795 0.9903
vn 0.6848 -0.3966 -0.6114
vn -0.2314 -0.0836 0.9693
vn 0.8355 -0.5450 0.0694
vn 0.7240 -0.3767 0.5779
vn 0.6773 -0.3631 -0.6399
vn 0.4917 -0.1993 -0.8477
vn 0.5185 -0.3075 -0.7978
vn 0.3416 -0.3216 -0.8831
vn 0.6724 -0.5814 -0.4581
vn 0.5476 -0.1889 0.8152
s 1
f 2//1 1//2 5//3
f 8//4 9//5 10//6
f 2//1 11//7 9//5
f 8//4 1//2 9//5
f 9//5 1//2 2//1
f 6//8 12//9 11//7
f 6//8 11//7 2//1
f 4//10 17//11 7//12
f 19//13 18//14 20//15
f 18//14 8//4 20//15
f 21//16 20//15 30//17
f 11//7 22//18 30//17
f 20//15 8//4 10//6
f 9//5 30//17 20//15
f 9//5 11//7 30//17
f 33//19 3//20 8//4
f 22//18 11//7 12//9
f 23//21 24//22 4//10
f 12//9 6//8 25//23
f 17//11 4//10 24//22
f 19//13 26//24 27//25
f 28//26 18//14 19//13
f 26//24 19//13 21//16
f 19//13 20//15 21//16
f 30//17 26//24 21//16
f 18//14 31//27 8//4
f 8//4 31//27 32//28
f 33//19 8//4 32//28
f 34//29 3//20 33//19
f 34//29 23//21 3//20
f 36//30 37//31 38//32
f 4//10 3//20 23//21
f 37//31 40//33 38//32
f 37//31 41//34 40//33
f 31//27 18//14 29//35
f 32//28 43//36 33//19
f 35//37 22//18 44//38
f 43//36 34//29 33//19
f 22//18 12//9 44//38
f 45//39 37//31 36//30
f 46//40 47//41 48//42
f 42//43 49//44 50//45
f 57//46 42//43 58//47
f 57//46 59//48 42//43
f 27//25 26//24 52//49
f 26//24 51//50 52//49
f 49//44 42//43 28//26
f 59//48 28//26 42//43
f 28//26 59//48 18//14
f 59//48 60//51 29//35
f 59//48 29//35 18//14
f 35//37 61//52 30//17
f 62//53 34//29 43//36
f 63//54 36//30 38//32
f 64//55 39//56 65//57
f 68//58 69//59 70//60
f 69//59 68//58 75//61
f 76//62 69//59 75//61
f 57//46 73//63 59//48
f 26//24 30//17 81//64
f 30//17 61//52 81//64
f 85//65 32//28 29//35
f 61//52 35//37 44//38
f 86//66 87//67 45//39
f 87//67 86//66 88//68
f 45//39 36//30 86//66
f 89//69 90//70 63//54
f 91//71 92//71 93//71
f 62//53 43//36 94//72
f 95//73 90//70 89//69
f 90//70 36//30 63//54
f 76//62 97//74 69//59
f 96//75 73//63 74//76
f 96//75 59//48 73//63
f 99//77 100//77 101//77
f 102//78 103//78 104//78
f 98//79 79//80 26//24
f 26//24 80//81 98//79
f 105//82 60//51 59//48
f 84//83 83//84 82//85
f 108//86 61//52 44//38
f 43//36 32//28 85//65
f 109//87 110//87 111//87
f 89//69 112//88 95//73
f 113//89 114//90 115//91
f 115//91 114//90 116//92
f 117//93 94//72 85//65
f 118//94 119//95 120//95
f 120//95 119//95 121//96
f 122//97 123//98 124//99
f 125//100 122//97 124//99
f 130//101 126//102 127//103
f 130//101 145//104 131//105
f 146//106 130//101 127//103
f 145//104 130//101 146//106
f 97//74 149//107 150//108
f 97//74 150//108 69//59
f 151//109 152//110 153//111
f 127//103 154//112 146//106
f 149//107 157//113 150//108
f 160//114 157//113 149//107
f 162//115 164//116 163//117
f 154//112 157//118 146//106
f 59//48 96//75 105//82
f 161//119 108//86 165//120
f 108//86 161//119 80//81
f 105//82 106//121 60//51
f 80//81 26//24 81//64
f 80//81 81//64 107//122
f 80//81 107//122 108//86
f 106//121 166//123 60//51
f 60//51 166//123 29//35
f 107//122 61//52 108//86
f 167//124 44//38 168//125
f 169//126 170//127 167//124
f 167//124 168//125 171//128
f 43//36 85//65 94//72
f 85//65 172//129 177//130
f 177//130 178//131 85//65
f 174//132 173//133 179//134
f 180//135 175//136 176//137
f 180//135 176//137 172//129
f 170//127 183//138 167//124
f 224//139 167//124 184//140
f 184//140 167//124 183//138
f 180//135 172//129 187//141
f 187//141 188//142 180//135
f 203//143 184//140 189//144
f 191//145 190//146 184//140
f 192//147 193//148 188//142
f 184//140 190//146 189//144
f 206//149 146//106 207//150
f 208//151 209//152 210//153
f 212//154 146//106 157//118
f 211//155 105//156 138//157
f 157//118 213//158 212//154
f 230//159 215//160 105//156
f 216//161 217//161 218//161
f 219//162 220//162 221//162
f 215//160 230//159 106//121
f 108//86 44//38 222//163
f 166//123 235//164 29//35
f 29//35 235//164 85//65
f 44//38 167//124 223//165
f 224//139 184//140 225//166
f 226//167 192//147 188//142
f 184//140 203//143 225//166
f 227//168 192//147 226//167
f 212//154 207//150 146//106
f 230//159 105//156 211//155
f 230//159 211//155 231//169
f 213//158 157//118 214//170
f 233//171 214//170 157//118
f 230//159 166//123 106//121
f 232//172 165//120 108//86
f 234//173 108//86 223//165
f 222//163 44//38 223//165
f 223//165 167//124 234//173
f 85//65 187//141 172//129
f 226//167 188//142 187//141
f 236//174 224//139 237//175
f 240//176 227//168 226//167
f 231//169 242//177 230//159
f 243//178 232//172 234//173
f 245//179 244//180 246//181
f 232//172 108//86 234//173
f 247//182 243//178 234//173
f 248//183 235//164 166//123
f 234//173 167//124 249//184
f 167//124 224//139 249//184
f 224//139 236//174 251//185
f 240//176 226//167 252//186
f 241//187 212//154 213//158
f 244//180 245//179 253//188
f 254//189 243//178 247//182
f 256//190 213//158 214//170
f 230//159 248//183 166//123
f 258//191 257//192 247//182
f 259//193 247//182 234//173
f 235//164 260//194 85//65
f 250//195 187//141 85//65
f 224//139 251//185 249//184
f 187//141 263//196 226//167
f 252//186 226//167 265//197
f 252//186 265//197 266//198
f 269//199 241//187 213//158
f 269//199 213//158 271//200
f 230//159 270//201 272//202
f 271//200 213//158 274//203
f 248//183 230//159 272//202
f 256//190 277//204 213//158
f 253//188 245//179 276//205
f 258//191 247//182 259//193
f 259//193 234//173 249//184
f 251//185 259//193 249//184
f 278//206 187//141 250//195
f 279//207 187//141 261//208
f 280//209 281//210 282//211
f 187//141 279//207 263//196
f 236//174 264//212 251//185
f 251//185 264//212 262//213
f 266//198 265//197 283//214
f 286//215 287//216 288//217
f 292//218 248//183 272//202
f 274//203 213//158 293//219
f 274//203 293//219 294//220
f 295//221 253//188 276//205
f 258//191 259//193 297//222
f 296//223 235//164 248//183
f 260//194 235//164 296//223
f 260//194 250//195 85//65
f 298//224 259//193 251//185
f 299//225 278//206 250//195
f 298//224 251//185 262//213
f 262//213 289//226 300//227
f 294//220 303//228 274//203
f 304//229 305//230 292//218
f 297//222 295//221 308//231
f 305//230 248//183 292//218
f 309//232 277//204 256//190
f 310//233 248//183 305//230
f 311//234 253//188 295//221
f 310//233 260//194 312//235
f 310//233 313//236 260//194
f 310//233 314//237 313//236
f 316//238 260//194 313//236
f 316//238 250//195 260//194
f 315//239 316//238 314//237
f 315//239 250//195 316//238
f 300//227 298//224 262//213
f 281//210 278//206 299//225
f 281//210 280//209 278//206
f 321//240 294//220 293//219
f 310//233 305//230 322//241
f 315//239 310//233 322//241
f 325//242 297//222 259//193
f 311//234 295//221 297//222
f 311//234 297//222 325//242
f 315//239 314//237 310//233
f 315//239 326//243 299//225
f 315//239 299//225 250//195
f 325//242 259//193 298//224
f 298//224 299//225 326//243
f 300//227 299//225 298//224
f 327//244 321//240 293//219
f 328//245 323//246 324//247
f 309//232 330//248 277//204
f 322//241 329//249 315//239
f 311//234 315//239 329//249
f 315//239 311//234 326//243
f 325//242 326//243 311//234
l 201 202
l 139 140
l 284 285
l 273 275
l 13 14
l 143 144
l 190 194
l 195 196
l 267 268
l 181 182
l 319 320
l 317 318
l 77 78
l 158 159
l 53 54
l 197 198
l 247 255
l 15 16
l 71 72
l 55 56
l 301 302
l 147 148
l 204 205
l 132 133
l 238 239
l 228 229
l 141 142
l 134 135
l 306 307
l 66 67
l 290 291
l 128 129
l 96 138
l 185 186
l 155 156
l 136 137
l 199 200
