# Blender v2.78 (sub 0) OBJ File: 'exporter.blend'
# www.blender.org
o FJ1482M.obj_grp1.317
v 1.151289 -0.628174 3.709284
v 1.148663 -0.628800 3.689457
v 1.150704 -0.630296 3.703299
v 1.150741 -0.628319 3.710685
v 1.150704 -0.630296 3.703299
v 1.152150 -0.628202 3.709462
v 1.147994 -0.619283 3.695694
v 1.142020 -0.613899 3.699244
v 1.147709 -0.619680 3.695464
v 1.144629 -0.622306 3.708472
v 1.152150 -0.628202 3.709462
v 1.150545 -0.628221 3.710829
v 1.150795 -0.628100 3.710639
v 1.144629 -0.622306 3.708472
v 1.144651 -0.621149 3.705820
v 1.142667 -0.623597 3.704848
v 1.144629 -0.622306 3.708472
v 1.142725 -0.614097 3.699125
v 1.135008 -0.617799 3.688535
v 1.144320 -0.621057 3.706796
v 1.140165 -0.616466 3.704843
v 1.140090 -0.616445 3.704943
v 1.143985 -0.621224 3.706725
v 1.144629 -0.622306 3.708472
v 1.121377 -0.620578 3.679079
v 1.121377 -0.620578 3.679079
v 1.140165 -0.616466 3.704843
v 1.142024 -0.614504 3.699444
v 1.138256 -0.642057 3.641609
v 1.140723 -0.641498 3.659864
v 1.140723 -0.641498 3.659864
v 1.126296 -0.625668 3.683931
v 1.137667 -0.638836 3.673295
v 1.130089 -0.623171 3.657318
v 1.121271 -0.621071 3.678661
v 1.121255 -0.620549 3.679082
v 1.127856 -0.645663 3.648553
v 1.122114 -0.617166 3.668727
v 1.114804 -0.627483 3.663023
v 1.121790 -0.626987 3.674168
v 1.115460 -0.618267 3.669693
v 1.127439 -0.645971 3.642901
v 1.118466 -0.662544 3.590256
v 1.118466 -0.662544 3.590256
v 1.127610 -0.644943 3.647981
v 1.130808 -0.643061 3.650784
v 1.137667 -0.638836 3.673295
v 1.127250 -0.645704 3.642808
v 1.112774 -0.648202 3.622014
v 1.110829 -0.630825 3.649361
v 1.095482 -0.618641 3.596768
v 1.114485 -0.627522 3.661911
v 1.114147 -0.609395 3.643748
v 1.097307 -0.606256 3.638529
v 1.093360 -0.598817 3.614556
v 1.105589 -0.605847 3.642963
v 1.105589 -0.605847 3.642963
v 1.119215 -0.662507 3.590194
v 1.105308 -0.661919 3.557078
v 1.100225 -0.607688 3.642334
v 1.092212 -0.608676 3.583671
v 1.091084 -0.599485 3.605742
v 1.090886 -0.599341 3.606094
v 1.092559 -0.598696 3.618247
v 1.090398 -0.603701 3.597755
v 1.079051 -0.615167 3.550261
v 1.077676 -0.614686 3.543503
v 1.077164 -0.614560 3.543912
v 1.096445 -0.663056 3.524956
v 1.089630 -0.662841 3.545878
v 1.084195 -0.624099 3.544095
v 1.083895 -0.603781 3.573074
v 1.083889 -0.603762 3.573085
v 1.084195 -0.624099 3.544095
v 1.083895 -0.603781 3.573074
v 1.083889 -0.603762 3.573085
v 1.086482 -0.601631 3.585093
v 1.086356 -0.601466 3.585181
v 1.086482 -0.601631 3.585093
v 1.086356 -0.601466 3.585181
v 1.116557 -0.660359 3.588491
v 1.104918 -0.669327 3.551310
v 1.083197 -0.605550 3.568942
v 1.083346 -0.605753 3.568825
v 1.083197 -0.605550 3.568942
v 1.083346 -0.605753 3.568825
v 1.096601 -0.665787 3.525636
v 1.103861 -0.668421 3.542991
v 1.095308 -0.667421 3.521405
v 1.103861 -0.668421 3.542991
v 1.095556 -0.661794 3.523334
v 1.104889 -0.669417 3.551284
v 1.078483 -0.616959 3.541505
v 1.078304 -0.614203 3.543554
v 1.078611 -0.618051 3.542704
v 1.078341 -0.615562 3.544790
v 1.077848 -0.614476 3.543814
v 1.078102 -0.614414 3.545827
v 1.077035 -0.617846 3.539769
v 1.077763 -0.617316 3.541261
v 1.077322 -0.617471 3.539437
v 1.079745 -0.610757 3.551409
v 1.079638 -0.610678 3.551472
v 1.079638 -0.610678 3.551472
v 1.079745 -0.610757 3.551409
v 1.076917 -0.617267 3.541467
v 1.094815 -0.665506 3.517936
v 1.084787 -0.663260 3.495892
v 1.103861 -0.668421 3.542991
v 1.087383 -0.648375 3.509622
v 1.095549 -0.665600 3.524134
v 1.096707 -0.665731 3.525621
v 1.095660 -0.664779 3.523071
v 1.094551 -0.665973 3.526962
v 1.095320 -0.664275 3.525334
v 1.096431 -0.662518 3.522779
v 1.102772 -0.665389 3.541230
v 1.093356 -0.664570 3.523600
v 1.094815 -0.665506 3.517936
v 1.094195 -0.665220 3.521457
v 1.095918 -0.665792 3.523668
v 1.094815 -0.665506 3.517936
v 1.095359 -0.661750 3.523452
v 1.092695 -0.664504 3.521305
v 1.093174 -0.663586 3.522984
v 1.093358 -0.663927 3.522955
v 1.071928 -0.629324 3.513800
v 1.073172 -0.624860 3.521959
v 1.077623 -0.617724 3.539073
v 1.072488 -0.628553 3.516748
v 1.093055 -0.665288 3.521898
v 1.084580 -0.662426 3.496106
v 1.083452 -0.657488 3.502895
v 1.094635 -0.665300 3.517516
v 1.086749 -0.664623 3.505110
v 1.094815 -0.665506 3.517936
v 1.086900 -0.655827 3.501632
v 1.094195 -0.665220 3.521457
v 1.093267 -0.665930 3.523004
v 1.095918 -0.665792 3.523668
v 1.093719 -0.664248 3.522126
v 1.093901 -0.664922 3.521595
v 1.094599 -0.663961 3.521602
v 1.093446 -0.665127 3.521826
v 1.093181 -0.665961 3.522583
v 1.093035 -0.664825 3.521847
v 1.093019 -0.665622 3.522792
v 1.096268 -0.665614 3.522721
v 1.094933 -0.664431 3.523334
v 1.087549 -0.654043 3.502873
v 1.083343 -0.649642 3.505088
v 1.085918 -0.658103 3.499702
v 1.087383 -0.648375 3.509622
v 1.071928 -0.629324 3.513800
v 1.071710 -0.624670 3.520300
v 1.069991 -0.632173 3.507369
v 1.068774 -0.641315 3.505608
v 1.073187 -0.625203 3.520494
v 1.072908 -0.624802 3.520743
v 1.072908 -0.624802 3.520743
v 1.073187 -0.625203 3.520494
v 1.085918 -0.658103 3.499702
v 1.085551 -0.660790 3.496078
v 1.085933 -0.661219 3.495732
v 1.084734 -0.662132 3.498654
v 1.082538 -0.662567 3.496068
v 1.080482 -0.661722 3.498082
v 1.079890 -0.659760 3.497416
v 1.082538 -0.662567 3.496068
v 1.094815 -0.665506 3.517936
v 1.085918 -0.658103 3.499702
v 1.084989 -0.661145 3.496158
v 1.079890 -0.659760 3.497416
v 1.079890 -0.659760 3.497416
v 1.082538 -0.662567 3.496068
v 1.080482 -0.661722 3.498082
v 1.082538 -0.662567 3.496068
v 1.081296 -0.661643 3.508201
v 1.079790 -0.660020 3.497577
v 1.079959 -0.659609 3.496778
v 1.072561 -0.653241 3.497536
v 1.070273 -0.647108 3.495208
v 1.069994 -0.640695 3.499862
v 1.069442 -0.638952 3.496388
v 1.070075 -0.644407 3.495947
v 1.068322 -0.638909 3.496569
v 1.068890 -0.639938 3.497425
v 1.068105 -0.637922 3.494885
v 1.067979 -0.632626 3.491781
v 1.068459 -0.634061 3.494411
v 1.068182 -0.632522 3.491064
v 1.068192 -0.632526 3.491978
v 1.068200 -0.632537 3.492035
v 1.068459 -0.634061 3.494411
v 1.069011 -0.636186 3.494115
v 1.068459 -0.634061 3.494411
v 1.066959 -0.633562 3.491163
v 1.068446 -0.632616 3.491840
v 1.067933 -0.632652 3.491949
v 1.068182 -0.632522 3.491064
v 1.070364 -0.635029 3.496412
v 1.070276 -0.637310 3.495444
v 1.069783 -0.636155 3.503805
v 1.068537 -0.637060 3.498714
v 1.067399 -0.637856 3.502220
v 1.069135 -0.638047 3.500528
v 1.068797 -0.636370 3.501818
v 1.068375 -0.637179 3.498758
v 1.068363 -0.637045 3.498785
v 1.068244 -0.637197 3.498732
v 1.068072 -0.638227 3.499626
v 1.068943 -0.639056 3.493730
v 1.069155 -0.639293 3.494457
v 1.069143 -0.639319 3.494505
v 1.068658 -0.639101 3.495900
v 1.068085 -0.639157 3.496371
v 1.068589 -0.639841 3.494002
v 1.069994 -0.640695 3.499862
v 1.068572 -0.638690 3.496547
v 1.068628 -0.640146 3.500087
v 1.069060 -0.638108 3.494763
v 1.068481 -0.636443 3.495078
v 1.069138 -0.640237 3.499949
v 1.068375 -0.637179 3.498758
v 1.068628 -0.640146 3.500087
v 1.068407 -0.639615 3.501148
v 1.069351 -0.636955 3.499140
v 1.068407 -0.639615 3.501148
v 1.068836 -0.637957 3.500351
v 1.068540 -0.636210 3.495083
v 1.068459 -0.634061 3.494411
v 1.071101 -0.632975 3.505104
v 1.068973 -0.633284 3.503390
v 1.068975 -0.633277 3.503397
v 1.068975 -0.633291 3.503392
v 1.068974 -0.633283 3.503400
v 1.069769 -0.634129 3.505905
v 1.069731 -0.633282 3.505599
v 1.068972 -0.633286 3.503390
v 1.068961 -0.633287 3.503397
v 1.069667 -0.634357 3.505912
v 1.069783 -0.636155 3.503805
v 1.068975 -0.633291 3.503392
v 1.068967 -0.633287 3.503400
v 1.068774 -0.641315 3.505608
v 1.069173 -0.634409 3.506049
v 1.069783 -0.636155 3.503805
v 1.068694 -0.636362 3.501810
v 1.068774 -0.641315 3.505608
v 1.069783 -0.636155 3.503805
v 1.068774 -0.641315 3.505608
v 1.068774 -0.641315 3.505608
v 1.068774 -0.641315 3.505608
v 1.068690 -0.639075 3.501039
v 1.070088 -0.632315 3.507199
v 1.071928 -0.629324 3.513800
v 1.068774 -0.641315 3.505608
v 1.069570 -0.632848 3.506097
v 1.071928 -0.629324 3.513800
v 1.071928 -0.629324 3.513800
v 1.069452 -0.632626 3.506279
v 1.068774 -0.641315 3.505608
v 1.069173 -0.634409 3.506049
v 1.069581 -0.633190 3.505889
v 1.068774 -0.641315 3.505608
v 1.069911 -0.632187 3.507787
v 1.068971 -0.633282 3.503387
v 1.068971 -0.633278 3.503395
v 1.068971 -0.633278 3.503397
v 1.068971 -0.633287 3.503406
v 1.068965 -0.633281 3.503395
v 1.068971 -0.633282 3.503387
v 1.068964 -0.633283 3.503398
v 1.068971 -0.633287 3.503406
v 1.069722 -0.631939 3.508481
v 1.074225 -0.654731 3.496999
v 1.074939 -0.655436 3.496338
v 1.075305 -0.655842 3.496336
v 1.074845 -0.655770 3.496313
v 1.073979 -0.654135 3.496629
v 1.074338 -0.655945 3.495746
v 1.074490 -0.654075 3.497018
v 1.074347 -0.655038 3.496516
v 1.074675 -0.655835 3.496190
v 1.072390 -0.649227 3.493412
v 1.072256 -0.651611 3.495164
v 1.072417 -0.652361 3.493932
v 1.071946 -0.649871 3.494817
v 1.071346 -0.650779 3.494214
v 1.072299 -0.651630 3.494560
v 1.071586 -0.650683 3.494261
v 1.072510 -0.651399 3.495087
v 1.072510 -0.651399 3.495087
v 1.071640 -0.650690 3.494447
v 1.072149 -0.650784 3.495264
v 1.074003 -0.654070 3.496369
v 1.071534 -0.650633 3.494249
v 1.071205 -0.649812 3.494402
v 1.071355 -0.650097 3.494493
v 1.071121 -0.650145 3.495294
v 1.071589 -0.650668 3.494481
v 1.071121 -0.650145 3.495294
v 1.071249 -0.650064 3.494933
v 1.072590 -0.650939 3.495186
v 1.072417 -0.652361 3.493932
v 1.071829 -0.651793 3.495132
v 1.071520 -0.650751 3.494575
v 1.072016 -0.651519 3.494978
v 1.071454 -0.650789 3.494437
v 1.071745 -0.651784 3.494984
v 1.071720 -0.651569 3.494617
v 1.072417 -0.652361 3.493932
v 1.071893 -0.651749 3.495217
v 1.072510 -0.651399 3.495087
v 1.071121 -0.650145 3.495294
v 1.071442 -0.650744 3.494459
v 1.068101 -0.640627 3.494570
v 1.083313 -0.649727 3.505298
v 1.068164 -0.640738 3.494288
v 1.069966 -0.641610 3.498885
v 1.069543 -0.645629 3.496143
v 1.068827 -0.641536 3.498171
v 1.069758 -0.641983 3.498715
v 1.068774 -0.639793 3.497289
v 1.070044 -0.646461 3.495506
v 1.069553 -0.643976 3.495939
v 1.069346 -0.643682 3.495938
v 1.070168 -0.644150 3.495744
v 1.068515 -0.640437 3.494186
v 1.069211 -0.643568 3.495953
v 1.069605 -0.643699 3.495631
v 1.068515 -0.640437 3.494186
v 1.069966 -0.641610 3.498885
v 1.069121 -0.644576 3.496790
v 1.072648 -0.645165 3.495273
v 1.069379 -0.638394 3.494566
v 1.068977 -0.638797 3.495241
v 1.068700 -0.639223 3.494325
v 1.068548 -0.638531 3.495618
v 1.067148 -0.638995 3.495928
v 1.067608 -0.639670 3.494774
v 1.068489 -0.639574 3.496770
v 1.067804 -0.639712 3.496385
v 1.068774 -0.639793 3.497289
v 1.068424 -0.638782 3.496538
v 1.068572 -0.638690 3.496547
v 1.068429 -0.638755 3.496499
v 1.068548 -0.638531 3.495618
v 1.068515 -0.640437 3.494186
vn 0.2902 -0.9270 0.2378
vn 0.2901 -0.9248 0.2462
vn 0.2876 -0.9098 0.2993
vn 0.7768 0.5261 -0.3462
vn 0.9956 -0.0427 -0.0840
vn 0.9680 -0.0746 -0.2397
vn 0.7421 0.5953 0.3082
vn 0.6057 0.7007 0.3770
vn 0.5216 0.7374 0.4292
vn 0.4660 0.6876 0.5568
vn -0.6545 0.2415 0.7164
vn -0.7265 -0.2228 0.6501
vn -0.7985 0.5544 0.2345
vn -0.6454 -0.4610 0.6090
vn -0.5235 -0.7070 0.4755
vn 0.1550 0.9530 -0.2604
vn 0.3456 0.7684 -0.5385
vn 0.7090 0.6080 0.3572
vn 0.7351 0.5635 0.3770
vn 0.5183 0.6817 0.5163
vn 0.0819 0.9181 -0.3879
vn -0.4314 0.8854 0.1733
vn 0.8745 -0.4797 -0.0718
vn 0.9750 0.0528 -0.2159
vn -0.1809 -0.9396 0.2906
vn 0.0184 -0.9637 0.2662
vn -0.7707 -0.3225 0.5496
vn -0.7159 -0.2359 0.6572
vn -0.1021 -0.9582 0.2671
vn 0.6291 0.7222 -0.2875
vn -0.5363 -0.7344 0.4160
vn 0.2936 0.9527 0.0788
vn -0.4023 0.8390 0.3665
vn -0.7670 -0.4641 0.4430
vn -0.4732 -0.8066 0.3542
vn -0.0361 -0.9855 0.1659
vn -0.3484 -0.8845 0.3104
vn 0.8233 -0.5597 -0.0940
vn 0.4811 -0.8759 0.0348
vn 0.5209 -0.8536 0.0004
vn 0.4676 -0.8821 0.0575
vn 0.4371 -0.8937 0.1011
vn -0.7257 -0.5738 0.3796
vn 0.8970 0.2056 -0.3914
vn -0.6152 -0.6062 0.5040
vn -0.8684 -0.2781 0.4106
vn -0.4313 -0.7818 0.4502
vn -0.9272 -0.1919 0.3216
vn 0.6031 0.7918 -0.0968
vn 0.3475 0.9274 0.1384
vn -0.2090 0.8942 0.3959
vn 0.8927 0.1004 -0.4394
vn 0.6334 0.7089 -0.3103
vn -0.4968 -0.8231 0.2752
vn -0.9224 -0.2821 0.2637
vn 0.6744 0.7245 -0.1424
vn -0.3668 0.8136 0.4511
vn -0.3342 0.8614 0.3825
vn 0.8522 0.4381 -0.2860
vn 0.6794 0.7016 -0.2149
vn 0.7795 0.5307 -0.3328
vn -0.9634 -0.2229 0.1488
vn -0.9827 0.0174 0.1846
vn -0.9861 -0.0205 0.1647
vn 0.8986 0.3071 -0.3133
vn -0.7245 -0.6599 0.1991
vn 0.8694 0.3277 -0.3698
vn 0.7901 0.5449 -0.2808
vn 0.9428 0.0135 -0.3330
vn 0.9236 0.1864 -0.3350
vn 0.9420 0.0061 -0.3355
vn 0.9155 -0.3989 -0.0527
vn 0.8134 -0.5722 -0.1045
vn 0.8715 -0.4632 -0.1611
vn -0.4459 -0.8403 0.3084
vn 0.7236 0.3484 -0.5959
vn 0.7547 0.4220 -0.5024
vn 0.7395 0.4575 -0.4939
vn -0.9968 0.0728 0.0343
vn 0.9590 -0.1674 -0.2286
vn -0.1257 -0.9717 -0.1999
vn 0.0084 -0.9943 -0.1064
vn 0.4981 -0.8039 -0.3250
vn 0.4857 -0.8032 -0.3450
vn 0.5378 -0.7852 -0.3071
vn 0.4236 -0.7574 -0.4968
vn 0.8978 0.3725 -0.2350
vn 0.8917 0.2996 -0.3393
vn 0.3357 0.9418 -0.0175
vn 0.3908 -0.7816 0.4862
vn 0.5250 -0.7667 0.3696
vn 0.4869 -0.7025 0.5191
vn 0.5884 -0.7708 0.2444
vn 0.3072 -0.6288 -0.7143
vn 0.8064 0.5003 -0.3152
vn 0.7712 0.4947 -0.4007
vn -0.4685 0.8335 -0.2929
vn -0.9438 0.3149 0.1005
vn -0.2136 -0.9763 -0.0337
vn 0.9141 0.0959 -0.3941
vn 0.9367 0.2266 -0.2669
vn -0.1299 0.9294 0.3454
vn -0.1420 0.9329 0.3309
vn -0.1347 0.9287 0.3456
vn 0.0866 0.9465 0.3108
vn 0.1160 0.9382 0.3262
vn 0.1082 0.9446 0.3100
vn 0.2357 0.6278 -0.7419
vn 0.2014 0.5210 -0.8294
vn 0.5819 0.5017 -0.6400
vn 0.4760 0.6401 -0.6030
vn 0.7743 0.5045 -0.3819
vn -0.8581 -0.3927 0.3309
vn -0.7190 -0.4079 -0.5627
vn 0.6623 -0.7261 -0.1845
vn 0.5334 -0.8101 -0.2436
vn 0.5800 -0.7505 -0.3167
vn 0.9105 0.2864 -0.2983
vn 0.8656 0.3349 -0.3723
vn 0.8992 0.3028 -0.3158
vn 0.0423 0.7526 -0.6571
vn 0.4789 0.7036 -0.5250
vn 0.4802 0.6975 -0.5319
vn 0.5476 0.6409 -0.5379
vn -0.2993 -0.9511 -0.0769
vn -0.5363 -0.8435 0.0294
vn -0.3989 -0.9167 -0.0227
vn -0.6776 -0.7354 0.0050
vn 0.4019 0.5378 -0.7411
vn -0.8929 -0.4475 -0.0500
vn -0.9943 -0.0203 -0.1050
vn 0.6852 0.7281 -0.0185
vn 0.4265 0.8320 0.3548
vn 0.9722 -0.0489 -0.2292
vn 0.9746 -0.1250 -0.1860
vn 0.9656 -0.1341 -0.2227
vn -0.9894 -0.1256 -0.0726
vn -0.9247 -0.2961 -0.2394
vn -0.9782 -0.1614 -0.1305
vn 0.4505 0.4275 -0.7837
vn 0.7867 0.4120 0.4598
vn 0.4916 0.7249 -0.4825
vn 0.3987 0.8504 0.3433
vn -0.9980 0.0469 -0.0431
vn -0.9703 -0.1372 -0.1991
vn -0.9792 0.0338 -0.1998
vn 0.6529 0.4771 -0.5883
vn -0.9460 0.0748 -0.3155
vn -0.8462 0.3155 0.4293
vn -0.9730 -0.1521 -0.1735
vn -0.9866 -0.0334 -0.1599
vn -0.9894 -0.0834 -0.1193
vn -0.9565 -0.2905 -0.0278
vn 0.9692 -0.1019 -0.2240
vn -0.9551 0.0520 0.2917
vn -0.9307 0.0461 0.3629
vn -0.9314 0.0434 0.3615
vn -0.9481 -0.0016 0.3179
vn 0.5944 0.2382 -0.7681
vn -0.6930 -0.7209 0.0106
vn -0.7206 -0.6905 0.0633
vn 0.6335 0.2540 -0.7308
vn 0.6657 0.3244 -0.6720
vn -0.7836 -0.4573 -0.4205
vn -0.7779 -0.4453 -0.4434
vn 0.6235 -0.0869 -0.7770
vn 0.5365 0.8424 -0.0504
vn 0.5823 0.8122 0.0355
vn 0.6632 0.7438 -0.0836
vn -0.9902 -0.1170 -0.0763
vn -0.9722 -0.2045 -0.1137
vn -0.5255 0.7299 -0.4372
vn -0.9941 -0.1046 -0.0272
vn -0.9290 -0.0304 0.3688
vn -0.9503 0.0539 0.3068
vn -0.9567 0.0857 0.2782
s 1
f 4//1 5//2 6//3
f 7//4 1//5 2//6
f 9//7 10//8 11//9
f 10//8 12//10 11//9
f 15//11 16//12 17//13
f 14//14 16//12 13//15
f 7//4 19//16 8//17
f 9//7 20//18 10//8
f 18//19 20//18 9//7
f 20//18 18//19 21//20
f 19//16 25//21 8//17
f 26//22 27//22 28//22
f 2//6 30//23 29//24
f 1//5 30//23 2//6
f 3//25 13//15 31//26
f 29//24 7//4 2//6
f 13//15 16//12 32//27
f 22//28 16//12 15//11
f 16//12 22//28 32//27
f 33//29 31//26 13//15
f 29//24 34//30 7//4
f 7//4 34//30 19//16
f 37//31 13//15 32//27
f 13//15 37//31 33//29
f 19//16 34//30 38//32
f 38//32 35//33 19//16
f 39//34 40//35 32//27
f 22//28 39//34 32//27
f 31//26 42//36 43//37
f 44//38 29//24 30//23
f 42//36 31//26 33//29
f 46//39 47//40 45//41
f 48//42 46//39 45//41
f 32//27 50//43 37//31
f 34//30 29//24 51//44
f 36//45 41//46 39//34
f 39//34 50//47 40//35
f 39//34 41//46 52//48
f 22//28 36//45 39//34
f 53//49 38//32 34//30
f 38//32 53//49 56//50
f 38//32 57//51 35//33
f 58//52 59//53 29//24
f 49//54 42//36 37//31
f 52//48 41//46 50//43
f 50//43 41//46 54//55
f 55//56 56//50 53//49
f 60//57 35//33 57//51
f 55//58 60//57 57//51
f 49//54 37//31 50//43
f 29//24 59//53 51//44
f 51//44 53//49 34//30
f 61//59 62//60 53//49
f 53//49 62//60 55//56
f 43//37 42//36 49//54
f 61//59 53//49 51//44
f 62//60 61//59 67//61
f 54//55 64//62 63//63
f 63//63 68//64 54//55
f 69//65 59//53 58//52
f 70//66 43//37 49//54
f 51//44 71//67 61//59
f 61//59 74//68 67//61
f 50//43 70//66 49//54
f 87//69 88//70 89//71
f 69//65 88//70 87//69
f 58//52 88//70 69//65
f 81//72 82//73 90//74
f 92//75 43//37 70//66
f 70//66 50//43 54//55
f 59//53 71//67 51//44
f 71//67 93//76 94//77
f 99//78 93//76 71//67
f 68//64 106//79 54//55
f 107//80 87//69 89//71
f 92//75 108//81 109//82
f 115//83 116//84 117//85
f 115//83 118//86 116//84
f 110//87 59//53 91//88
f 119//89 120//89 121//89
f 122//90 123//91 124//92
f 125//93 124//92 123//91
f 126//94 116//84 118//86
f 69//65 91//88 59//53
f 127//95 71//67 59//53
f 99//78 71//67 128//96
f 71//67 127//95 128//96
f 129//97 130//98 106//79
f 135//99 108//81 92//75
f 91//88 136//100 110//87
f 137//101 110//87 136//100
f 138//102 139//103 140//104
f 113//105 141//106 114//107
f 150//108 152//109 151//110
f 153//111 150//108 151//110
f 110//87 127//95 59//53
f 154//112 153//111 151//110
f 157//113 106//79 130//98
f 157//113 54//55 106//79
f 167//114 168//114 169//114
f 131//115 132//116 164//117
f 163//118 162//119 170//120
f 171//121 172//121 173//121
f 174//122 165//123 166//124
f 135//99 175//125 108//81
f 135//99 176//126 177//127
f 176//126 135//99 178//128
f 135//99 92//75 178//128
f 180//129 151//110 152//109
f 178//128 70//66 181//130
f 92//75 70//66 178//128
f 181//130 70//66 182//131
f 54//55 182//131 70//66
f 183//132 151//110 184//133
f 157//113 182//131 54//55
f 190//134 188//135 189//136
f 196//137 198//138 195//139
f 151//110 183//132 203//140
f 204//141 205//142 183//132
f 205//142 203//140 183//132
f 218//143 219//143 220//143
f 225//144 226//145 227//146
f 232//147 154//112 151//110
f 232//147 151//110 203//140
f 245//148 246//148 247//148
f 248//149 249//149 250//149
f 207//150 206//151 251//152
f 225//144 252//153 226//145
f 255//154 256//154 257//154
f 260//155 261//156 262//157
f 157//113 130//98 275//158
f 180//129 277//159 151//110
f 278//160 178//128 181//130
f 178//128 284//161 176//126
f 185//162 151//110 285//163
f 285//163 151//110 277//159
f 181//130 288//164 283//165
f 182//131 288//164 181//130
f 185//162 317//166 151//110
f 318//167 319//168 320//169
f 321//170 252//153 322//171
f 182//131 157//113 335//172
f 322//171 252//153 225//144
f 322//171 225//144 346//173
f 333//174 349//175 334//176
l 191 192
l 340 341
l 133 134
l 77 78
l 289 290
l 301 302
l 237 238
l 186 187
l 325 326
l 286 287
l 230 231
l 309 310
l 281 282
l 104 105
l 111 112
l 83 84
l 338 339
l 195 197
l 297 298
l 241 242
l 97 98
l 267 268
l 95 96
l 144 145
l 329 330
l 347 348
l 155 156
l 179 276
l 253 254
l 271 272
l 228 229
l 331 332
l 313 314
l 148 149
l 212 213
l 142 143
l 214 215
l 23 24
l 303 304
l 193 194
l 323 324
l 158 159
l 65 66
l 279 280
l 293 294
l 344 345
l 235 236
l 221 222
l 327 328
l 336 337
l 72 73
l 315 316
l 263 264
l 160 161
l 239 240
l 278 283
l 146 147
l 100 101
l 291 292
l 199 200
l 311 312
l 210 211
l 342 343
l 223 224
l 295 296
l 79 80
l 258 259
l 216 217
l 233 234
l 75 76
l 273 274
l 208 209
l 299 300
l 307 308
l 85 86
l 269 270
l 102 103
l 305 306
l 243 244
l 201 202
l 265 266
