# Blender v2.78 (sub 0) OBJ File: 'exporter.blend'
# www.blender.org
o FJ1483M.obj_grp1.319
v 1.415735 -0.711597 3.614774
v 1.419640 -0.715048 3.615546
v 1.414617 -0.715926 3.616842
v 1.419725 -0.714968 3.615485
v 1.420307 -0.707908 3.624668
v 1.420307 -0.707908 3.624668
v 1.407857 -0.716300 3.619942
v 1.419791 -0.715605 3.615579
v 1.409843 -0.709739 3.616274
v 1.411713 -0.707439 3.614489
v 1.411641 -0.705438 3.615575
v 1.411911 -0.705763 3.615482
v 1.404636 -0.703561 3.623369
v 1.411523 -0.709593 3.614443
v 1.411693 -0.707368 3.614532
v 1.414218 -0.710429 3.615035
v 1.411523 -0.709593 3.614443
v 1.411487 -0.709598 3.614377
v 1.409843 -0.709739 3.616274
v 1.411641 -0.705438 3.615575
v 1.403644 -0.704087 3.624039
v 1.413246 -0.703551 3.625903
v 1.420307 -0.707908 3.624668
v 1.407524 -0.718335 3.620090
v 1.407005 -0.716300 3.619328
v 1.409825 -0.716852 3.618081
v 1.407626 -0.716108 3.619659
v 1.414617 -0.715926 3.616842
v 1.407773 -0.715922 3.619837
v 1.408167 -0.716758 3.620538
v 1.376862 -0.705609 3.643577
v 1.408703 -0.716875 3.618496
v 1.408325 -0.716337 3.618685
v 1.407651 -0.716071 3.619791
v 1.408186 -0.716757 3.620513
v 1.407397 -0.716730 3.619876
v 1.408186 -0.716757 3.620513
v 1.409516 -0.717336 3.618486
v 1.397949 -0.717584 3.622134
v 1.402599 -0.716400 3.621396
v 1.414617 -0.715926 3.616842
v 1.395196 -0.716870 3.624879
v 1.392465 -0.700320 3.636168
v 1.394338 -0.701598 3.636575
v 1.380900 -0.696917 3.663347
v 1.395608 -0.698027 3.660728
v 1.385854 -0.698471 3.674264
v 1.395942 -0.698204 3.660183
v 1.420307 -0.707908 3.624668
v 1.386725 -0.694121 3.674844
v 1.395942 -0.698204 3.660183
v 1.377231 -0.683171 3.688683
v 1.386506 -0.693894 3.675168
v 1.382106 -0.689082 3.678639
v 1.399120 -0.710520 3.627900
v 1.388737 -0.703379 3.638898
v 1.367419 -0.707253 3.675284
v 1.380697 -0.700229 3.648156
v 1.387582 -0.700160 3.640914
v 1.376727 -0.683637 3.688576
v 1.367873 -0.678792 3.702491
v 1.372652 -0.682463 3.685628
v 1.372342 -0.681981 3.685751
v 1.372342 -0.681981 3.685751
v 1.372652 -0.682463 3.685628
v 1.364216 -0.674394 3.701317
v 1.376727 -0.683637 3.688576
v 1.363657 -0.674557 3.701979
v 1.367873 -0.678792 3.702491
v 1.376727 -0.683637 3.688576
v 1.370763 -0.711159 3.637383
v 1.402599 -0.716400 3.621396
v 1.395196 -0.716870 3.624879
v 1.379755 -0.713105 3.633029
v 1.372272 -0.699138 3.656394
v 1.375020 -0.699345 3.654132
v 1.384818 -0.700486 3.646990
v 1.369268 -0.697552 3.689892
v 1.355038 -0.689668 3.707370
v 1.363788 -0.684765 3.705170
v 1.363718 -0.684679 3.705111
v 1.345017 -0.686168 3.677592
v 1.349700 -0.666065 3.721668
v 1.391984 -0.717779 3.625018
v 1.377260 -0.713472 3.633516
v 1.373563 -0.713922 3.639100
v 1.379389 -0.706340 3.642118
v 1.372854 -0.706180 3.646432
v 1.366670 -0.701569 3.652718
v 1.361981 -0.693481 3.699505
v 1.349357 -0.679178 3.718594
v 1.340694 -0.668450 3.731601
v 1.347550 -0.677806 3.720917
v 1.349700 -0.666065 3.721668
v 1.339368 -0.671908 3.730575
v 1.314837 -0.647545 3.759142
v 1.349700 -0.666065 3.721668
v 1.349700 -0.666065 3.721668
v 1.318330 -0.650375 3.758977
v 1.339452 -0.705363 3.667549
v 1.339452 -0.705363 3.667549
v 1.355995 -0.705418 3.649557
v 1.366263 -0.702509 3.652935
v 1.364610 -0.705504 3.651019
v 1.366263 -0.702509 3.652935
v 1.372854 -0.706180 3.646432
v 1.360765 -0.705781 3.656582
v 1.360761 -0.705713 3.656485
v 1.312315 -0.690755 3.730409
v 1.312642 -0.656714 3.763813
v 1.318330 -0.650375 3.758977
v 1.356428 -0.705226 3.651623
v 1.351348 -0.702794 3.659185
v 1.360844 -0.705538 3.656612
v 1.364610 -0.705504 3.651019
v 1.345386 -0.702044 3.662549
v 1.341900 -0.685606 3.680537
v 1.330232 -0.686715 3.682281
v 1.298421 -0.666088 3.763571
v 1.302019 -0.640478 3.773792
v 1.300164 -0.639246 3.774113
v 1.291205 -0.639451 3.783980
v 1.294705 -0.686109 3.702659
v 1.324582 -0.676821 3.695446
v 1.293166 -0.645976 3.754134
v 1.277690 -0.623125 3.792184
v 1.301702 -0.691420 3.695759
v 1.345935 -0.703870 3.659155
v 1.340714 -0.705702 3.668330
v 1.367361 -0.707114 3.675220
v 1.301702 -0.691420 3.695759
v 1.279701 -0.683046 3.718734
v 1.277674 -0.682484 3.714026
v 1.334307 -0.705773 3.671057
v 1.339606 -0.705142 3.667824
v 1.279510 -0.670635 3.716954
v 1.281731 -0.621888 3.782802
v 1.277558 -0.617851 3.791144
v 1.277558 -0.617851 3.791144
v 1.277684 -0.617800 3.791189
v 1.281731 -0.621888 3.782802
v 1.276740 -0.613017 3.788114
v 1.270397 -0.602225 3.786412
v 1.281731 -0.621888 3.782802
v 1.259602 -0.603901 3.778302
v 1.266864 -0.597309 3.792761
v 1.266863 -0.597608 3.792792
v 1.265910 -0.590279 3.785069
v 1.265787 -0.590281 3.785207
v 1.253358 -0.578037 3.790996
v 1.262577 -0.587026 3.791069
v 1.265451 -0.591291 3.785665
v 1.265253 -0.588669 3.788060
v 1.265253 -0.588669 3.788060
v 1.248784 -0.590912 3.777721
v 1.262577 -0.587026 3.791069
v 1.262577 -0.587026 3.791069
v 1.252897 -0.578166 3.790776
v 1.291205 -0.639451 3.783980
v 1.263468 -0.627104 3.789656
v 1.264746 -0.623818 3.775131
v 1.253075 -0.604912 3.790985
v 1.250317 -0.596228 3.792676
v 1.245212 -0.578396 3.788013
v 1.245831 -0.577670 3.788539
v 1.251611 -0.578025 3.790540
v 1.245281 -0.577876 3.788134
v 1.245438 -0.578083 3.788630
v 1.245240 -0.578424 3.788310
v 1.245831 -0.577670 3.788539
v 1.278079 -0.671459 3.746522
v 1.263397 -0.627360 3.789840
v 1.251474 -0.640775 3.747315
v 1.264746 -0.623818 3.775131
v 1.261817 -0.626325 3.772615
v 1.260905 -0.625007 3.773559
v 1.264746 -0.623818 3.775131
v 1.262829 -0.626168 3.788946
v 1.254873 -0.608114 3.777586
v 1.262155 -0.624671 3.775035
v 1.262975 -0.623500 3.777696
v 1.246111 -0.588290 3.779155
v 1.243298 -0.585387 3.779022
v 1.243662 -0.585148 3.778630
v 1.243599 -0.585098 3.778625
v 1.249608 -0.596610 3.789687
v 1.253075 -0.604912 3.790985
v 1.249136 -0.612186 3.787327
v 1.243503 -0.585120 3.778614
v 1.238514 -0.578460 3.786091
v 1.237782 -0.580575 3.786862
v 1.239091 -0.578266 3.785271
v 1.245212 -0.578416 3.788027
v 1.245130 -0.577536 3.788323
v 1.238246 -0.578424 3.785813
v 1.240522 -0.577547 3.787421
v 1.249019 -0.651244 3.732818
v 1.258277 -0.639146 3.775666
v 1.259549 -0.632919 3.774409
v 1.260589 -0.622627 3.778442
v 1.258598 -0.630208 3.771887
v 1.263996 -0.628918 3.775022
v 1.261817 -0.626325 3.772615
v 1.260560 -0.624131 3.774146
v 1.260737 -0.622888 3.776140
v 1.250812 -0.622249 3.782946
v 1.260975 -0.621813 3.777948
v 1.260717 -0.622776 3.773940
v 1.254814 -0.616835 3.778365
v 1.251317 -0.624334 3.779455
v 1.259939 -0.622855 3.773638
v 1.255037 -0.616428 3.776626
v 1.254501 -0.616860 3.778186
v 1.254821 -0.616387 3.776310
v 1.247963 -0.619076 3.783173
v 1.250446 -0.621175 3.782835
v 1.250446 -0.621175 3.782835
v 1.253357 -0.622339 3.781271
v 1.251114 -0.623365 3.780314
v 1.250446 -0.621175 3.782835
v 1.251812 -0.623586 3.781668
v 1.253286 -0.617100 3.778004
v 1.249890 -0.621787 3.771094
v 1.250507 -0.613339 3.776755
v 1.250634 -0.613429 3.776858
v 1.253083 -0.616749 3.778131
v 1.254827 -0.617372 3.777218
v 1.248738 -0.619892 3.781868
v 1.253286 -0.617100 3.778004
v 1.250507 -0.613339 3.776755
v 1.254948 -0.616292 3.776304
v 1.248286 -0.615517 3.777312
v 1.248424 -0.618493 3.782475
v 1.247963 -0.619076 3.783173
v 1.245831 -0.603556 3.786215
v 1.245831 -0.603556 3.786215
v 1.278083 -0.681965 3.714092
v 1.260958 -0.668647 3.723666
v 1.241072 -0.652988 3.735753
v 1.249019 -0.651244 3.732818
v 1.242737 -0.629493 3.770394
v 1.251474 -0.640775 3.747315
v 1.261817 -0.626325 3.772615
v 1.264746 -0.623818 3.775131
v 1.251474 -0.640775 3.747315
v 1.256202 -0.634061 3.767535
v 1.244985 -0.628755 3.772752
v 1.249917 -0.626142 3.777561
v 1.259141 -0.632000 3.774352
v 1.249743 -0.625782 3.781724
v 1.249315 -0.628170 3.778013
v 1.249175 -0.623629 3.769724
v 1.253965 -0.618140 3.776431
v 1.250000 -0.623038 3.769544
v 1.249306 -0.623604 3.769585
v 1.249562 -0.624085 3.770935
v 1.247845 -0.621151 3.770648
v 1.247886 -0.623563 3.770525
v 1.249203 -0.623769 3.769552
v 1.249453 -0.624627 3.770765
v 1.245061 -0.624003 3.770875
v 1.248572 -0.623059 3.769975
v 1.247918 -0.623504 3.770600
v 1.245338 -0.624696 3.771056
v 1.245708 -0.624726 3.772153
v 1.245338 -0.624696 3.771056
v 1.244988 -0.624043 3.771952
v 1.243885 -0.623811 3.772294
v 1.251806 -0.623282 3.781449
v 1.252555 -0.626944 3.780795
v 1.258277 -0.639146 3.775666
v 1.252164 -0.625972 3.780070
v 1.252622 -0.626906 3.780799
v 1.259141 -0.632000 3.774352
v 1.252479 -0.626474 3.780402
v 1.252093 -0.625869 3.780358
v 1.252709 -0.626897 3.780807
v 1.251621 -0.625079 3.780842
v 1.252709 -0.626897 3.780807
v 1.252171 -0.625975 3.780043
v 1.249658 -0.626944 3.778779
v 1.252179 -0.625977 3.780018
v 1.252239 -0.625943 3.780036
v 1.252601 -0.626913 3.780784
v 1.252629 -0.626931 3.780794
v 1.252179 -0.625977 3.780018
v 1.252035 -0.626582 3.781229
v 1.249658 -0.626944 3.778779
v 1.251377 -0.624835 3.780871
v 1.249610 -0.625325 3.780924
v 1.249610 -0.625325 3.780924
v 1.250477 -0.628107 3.778078
v 1.249745 -0.628136 3.778115
v 1.249318 -0.628002 3.777802
v 1.250226 -0.627785 3.777671
v 1.249257 -0.628015 3.777800
v 1.245296 -0.629404 3.773178
v 1.250850 -0.625869 3.781600
v 1.251672 -0.623292 3.781623
v 1.250381 -0.625469 3.781317
v 1.251672 -0.623292 3.781623
v 1.249120 -0.622651 3.782485
v 1.249132 -0.622635 3.782497
v 1.249132 -0.622635 3.782497
v 1.249120 -0.622651 3.782485
v 1.250507 -0.613339 3.776755
v 1.247442 -0.618494 3.777567
v 1.245122 -0.624001 3.772507
v 1.247768 -0.619082 3.777876
v 1.247578 -0.618062 3.782403
v 1.247820 -0.619066 3.778070
v 1.248146 -0.619588 3.778286
v 1.248011 -0.618439 3.781841
v 1.247868 -0.618395 3.782242
v 1.247963 -0.619076 3.783173
v 1.261342 -0.668905 3.723800
v 1.244807 -0.656685 3.733653
v 1.235898 -0.640627 3.748984
v 1.242449 -0.631387 3.768172
v 1.235907 -0.637545 3.747014
v 1.243085 -0.629877 3.768070
v 1.242700 -0.629193 3.770422
v 1.243150 -0.630755 3.767924
v 1.242700 -0.629193 3.770422
v 1.242700 -0.629193 3.770422
v 1.244992 -0.628844 3.772744
v 1.243298 -0.626697 3.770087
v 1.243207 -0.626498 3.770018
v 1.243296 -0.626752 3.770060
v 1.242921 -0.626836 3.769943
v 1.242921 -0.626836 3.769943
v 1.243240 -0.626673 3.769986
v 1.242921 -0.626836 3.769943
v 1.243220 -0.626612 3.770084
v 1.237251 -0.640787 3.749475
v 1.244489 -0.631492 3.767649
v 1.245181 -0.628981 3.772924
v 1.250404 -0.629390 3.774478
v 1.237741 -0.647185 3.741823
v 1.239447 -0.648737 3.738597
v 1.237918 -0.646771 3.738487
v 1.237810 -0.648432 3.738818
v 1.239804 -0.650993 3.738054
v 1.236339 -0.640413 3.748785
v 1.237541 -0.642103 3.744653
vn -0.3144 -0.4640 -0.8282
vn -0.1655 -0.3900 -0.9058
vn -0.2309 -0.3772 -0.8969
vn 0.3369 -0.7888 0.5140
vn 0.3438 -0.6080 0.7157
vn 0.3771 -0.5739 0.7269
vn -0.3795 -0.6167 -0.6897
vn 0.6610 0.5350 -0.5262
vn 0.6240 0.6000 -0.5006
vn 0.6859 0.4758 -0.5507
vn 0.7239 0.3490 -0.5951
vn 0.2210 0.0223 -0.9750
vn -0.2795 -0.7899 -0.5458
vn 0.2257 0.9516 -0.2088
vn 0.0042 0.9916 -0.1291
vn 0.1430 0.9805 -0.1349
vn 0.5191 0.8536 -0.0446
vn 0.2563 0.0147 0.9665
vn -0.2945 0.6560 -0.6950
vn -0.2420 0.7323 -0.6365
vn -0.3451 0.6020 -0.7201
vn -0.2250 0.7467 -0.6260
vn -0.7246 0.2016 -0.6590
vn -0.7432 0.2845 -0.6056
vn -0.7362 -0.0036 -0.6768
vn -0.7398 0.1677 -0.6516
vn -0.6082 -0.5240 -0.5962
vn -0.5987 0.0570 -0.7990
vn 0.0031 0.9433 -0.3319
vn -0.0003 0.9696 -0.2447
vn 0.5754 -0.5422 0.6123
vn 0.5376 0.8312 0.1418
vn 0.7772 -0.2334 0.5843
vn 0.7359 -0.2270 0.6379
vn 0.8545 0.0960 0.5105
vn 0.8984 0.0454 0.4369
vn 0.8870 0.1631 0.4320
vn -0.4697 0.6106 -0.6376
vn 0.2128 -0.8969 0.3877
vn 0.1074 -0.9599 0.2590
vn -0.5490 0.6034 -0.5784
vn 0.3228 0.9464 -0.0054
vn -0.3136 0.8549 -0.4132
vn -0.4435 -0.7881 -0.4269
vn 0.1127 0.8538 -0.5083
vn 0.0767 0.8628 -0.4997
vn 0.8570 0.1896 0.4792
vn 0.7644 -0.0921 0.6381
vn 0.6842 0.7041 0.1902
vn 0.6849 0.7045 0.1860
vn 0.6849 0.7045 0.1861
vn 0.3570 0.8870 -0.2928
vn -0.1864 0.8019 -0.5676
vn -0.4285 0.1657 -0.8882
vn -0.2602 0.8862 -0.3834
vn -0.0224 0.9978 -0.0630
vn -0.1005 0.9351 -0.3398
vn 0.3855 -0.6848 0.6183
vn 0.7320 -0.2036 0.6501
vn 0.8188 0.1097 0.5635
vn -0.3110 0.6337 -0.7083
vn 0.6858 0.7047 0.1821
vn -0.0639 -0.9833 0.1703
vn -0.5024 0.3832 -0.7751
vn -0.5533 0.3392 -0.7608
vn -0.3593 0.5168 -0.7771
vn 0.1578 -0.8427 0.5147
vn 0.5111 -0.5667 0.6462
vn 0.4364 -0.6646 0.6065
vn 0.6025 -0.2883 0.7443
vn 0.4438 -0.5542 0.7042
vn 0.7519 0.0621 0.6563
vn 0.7200 -0.1273 0.6822
vn 0.4686 0.8726 -0.1379
vn 0.3617 0.9245 -0.1204
vn 0.6218 0.7558 0.2050
vn 0.6236 0.7567 0.1961
vn -0.1110 -0.9805 0.1619
vn -0.6412 -0.3743 -0.6699
vn -0.4775 -0.8045 -0.3532
vn -0.3926 -0.8955 -0.2094
vn -0.1255 0.9455 -0.3003
vn -0.5930 0.1083 -0.7979
vn -0.5066 0.6449 -0.5722
vn -0.3368 0.6316 -0.6983
vn -0.6536 0.6294 -0.4204
vn -0.5525 0.3184 -0.7703
vn 0.5127 -0.3800 0.7699
vn 0.7205 0.0007 0.6935
vn -0.6338 -0.1373 -0.7612
vn 0.1674 0.9825 -0.0821
vn 0.3298 0.9080 0.2583
vn 0.2881 0.9367 0.1992
vn 0.1843 0.9758 0.1173
vn -0.2546 0.7381 -0.6249
vn -0.3374 0.5955 -0.7291
vn 0.1048 -0.6827 0.7231
vn 0.4409 0.8573 -0.2658
vn 0.6820 0.2132 0.6996
vn 0.7235 0.1591 0.6718
vn -0.3884 0.4114 -0.8246
vn -0.4331 0.6813 -0.5902
vn 0.1328 0.8569 -0.4982
vn 0.2455 -0.1715 0.9541
vn -0.6162 0.2383 -0.7507
vn -0.4794 0.3206 -0.8169
vn -0.5715 0.2591 -0.7786
vn -0.6403 -0.3470 -0.6853
vn -0.4206 -0.8903 0.1746
vn -0.5020 -0.8641 0.0373
vn -0.3247 -0.9421 0.0838
vn 0.0754 -0.8708 0.4859
vn -0.1557 -0.9691 0.1913
vn 0.5030 0.7947 -0.3397
vn 0.5465 0.1698 0.8201
vn 0.6697 0.7423 -0.0240
vn 0.8719 0.3548 0.3374
vn 0.8995 0.3477 0.2646
vn 0.8734 0.4576 0.1665
vn 0.7888 0.4492 -0.4195
vn 0.6078 0.4344 -0.6647
vn -0.2540 -0.0901 0.9630
vn 0.8321 0.4121 0.3712
vn 0.4633 0.2309 -0.8556
vn 0.3372 0.2231 -0.9146
vn -0.1757 0.1050 0.9788
vn 0.8567 0.3637 0.3658
vn 0.9355 0.3529 0.0166
vn 0.8859 0.4638 0.0088
vn 0.9421 0.3231 -0.0895
vn 0.7862 0.2285 0.5743
vn -0.3640 -0.1511 -0.9191
vn 0.2403 0.2562 0.9363
vn 0.6585 0.7219 -0.2125
vn 0.3450 0.7180 -0.6046
vn 0.3886 0.6591 -0.6439
vn -0.1658 0.6246 -0.7631
vn -0.0374 -0.5591 0.8283
vn -0.0286 -0.0177 0.9994
vn 0.4212 0.2387 -0.8750
vn -0.3833 -0.2244 0.8960
vn -0.5002 -0.2433 0.8310
vn 0.4186 0.6454 -0.6389
vn 0.1440 0.5122 -0.8467
vn 0.2675 0.1471 -0.9523
vn -0.4046 0.0887 0.9102
vn -0.3670 -0.7926 0.4869
vn -0.4908 -0.2562 0.8327
vn 0.2094 0.8273 -0.5213
vn 0.2058 0.8049 -0.5566
vn 0.1187 0.6312 -0.7665
vn 0.1079 0.4069 -0.9071
vn 0.1791 0.3071 -0.9347
vn -0.0352 0.1169 -0.9925
vn -0.7804 -0.3984 0.4819
vn -0.5095 -0.3267 -0.7960
vn -0.5375 -0.3879 -0.7488
vn 0.0420 0.3732 -0.9268
vn -0.7772 -0.2228 0.5884
vn -0.9105 -0.3410 0.2340
vn -0.5921 -0.2638 0.7615
vn -0.2358 0.7635 -0.6012
vn -0.5238 -0.0558 0.8500
vn 0.0543 0.3359 -0.9403
vn -0.4480 -0.6426 0.6216
vn -0.8570 -0.3315 0.3946
vn -0.8184 -0.3987 0.4139
vn -0.8352 -0.3622 0.4139
vn -0.5076 -0.5396 0.6717
vn -0.4236 0.0958 -0.9008
vn -0.2600 0.1119 -0.9591
vn -0.1737 0.3541 -0.9189
vn -0.4051 0.1630 -0.8996
vn -0.3257 -0.0098 -0.9454
vn -0.6435 -0.7373 0.2057
vn -0.7376 -0.6736 -0.0482
vn -0.6483 -0.7441 0.1614
vn -0.7603 -0.6309 -0.1548
vn -0.8615 -0.2496 -0.4422
vn -0.5126 -0.6892 0.5121
vn -0.1839 0.7378 -0.6495
vn -0.0580 0.7459 -0.6635
vn -0.0775 0.7888 -0.6098
vn -0.0480 0.7683 -0.6383
vn 0.7298 0.3430 -0.5914
vn 0.7321 0.3535 -0.5823
vn 0.7405 0.3383 -0.5808
vn -0.2104 0.1883 -0.9593
vn -0.1941 -0.7821 -0.5922
vn -0.5384 -0.2607 -0.8013
vn 0.5378 -0.8331 -0.1292
vn -0.4433 -0.5602 -0.6998
vn -0.5277 -0.5141 0.6762
vn -0.8726 0.2889 -0.3938
vn -0.6458 -0.1404 0.7505
vn -0.8440 -0.2353 0.4820
vn -0.9853 -0.1394 -0.0988
vn -0.9994 0.0186 -0.0307
vn -0.7830 -0.3564 -0.5098
vn -0.8689 -0.3114 -0.3849
vn -0.5937 -0.1099 -0.7971
vn -0.4291 0.3484 -0.8334
vn -0.3559 0.2044 -0.9119
vn -0.2684 0.3624 -0.8925
vn 0.1196 0.7689 -0.6281
vn -0.4933 -0.6736 0.5505
vn -0.4702 0.8353 -0.2849
vn -0.9075 0.4087 0.0972
vn -0.9098 0.3837 0.1581
vn -0.9017 0.4087 0.1411
vn 0.2536 0.8691 -0.4247
vn 0.1898 0.8714 -0.4524
vn 0.3146 0.8389 -0.4442
vn 0.3148 0.7888 -0.5279
vn -0.6018 -0.6032 0.5235
vn -0.0851 -0.6580 0.7482
vn 0.2005 -0.7760 0.5980
vn -0.7060 0.5079 -0.4936
vn -0.7354 0.4490 -0.5076
vn 0.7185 0.2878 0.6332
vn 0.4783 -0.1078 0.8715
vn 0.4368 -0.1665 0.8840
vn 0.3836 0.8281 -0.4088
vn 0.4586 0.7061 -0.5396
vn 0.4409 0.7209 -0.5347
vn 0.4385 0.7244 -0.5320
vn -0.6295 -0.6185 0.4704
vn 0.3352 -0.1628 0.9280
vn 0.3596 -0.1230 0.9250
vn 0.6002 0.2526 -0.7589
vn 0.6539 0.3151 -0.6879
vn 0.6732 0.3206 -0.6663
vn -0.8633 0.3476 0.3660
vn -0.9234 0.2841 0.2580
vn -0.5863 -0.1613 -0.7939
vn -0.4594 -0.7888 0.4084
vn -0.4866 -0.7259 0.4860
vn -0.3494 -0.7133 0.6076
vn 0.0602 0.8350 -0.5470
vn 0.5498 0.8313 -0.0815
vn 0.2284 0.9038 -0.3618
vn -0.4320 0.3697 -0.8226
vn -0.2866 -0.7370 0.6121
vn -0.0007 0.7246 -0.6891
vn -0.6915 -0.5797 0.4311
vn -0.9645 -0.0535 -0.2587
vn -0.9733 -0.0972 -0.2077
vn -0.6002 -0.5160 0.6111
s 1
f 1//1 2//2 3//3
f 6//4 7//5 8//6
f 3//3 9//7 1//1
f 5//8 4//9 10//10
f 5//8 10//10 11//11
f 14//12 15//12 16//12
f 9//7 17//13 1//1
f 20//14 21//15 22//16
f 23//17 20//14 22//16
f 7//5 24//18 8//6
f 27//19 31//20 28//21
f 40//22 31//20 27//19
f 12//23 18//24 19//25
f 19//25 13//26 12//23
f 41//27 55//28 19//25
f 19//25 55//28 13//26
f 21//15 45//29 22//16
f 46//30 22//16 45//29
f 47//31 7//5 6//4
f 22//16 48//32 23//17
f 49//33 50//34 47//31
f 51//35 52//36 53//37
f 31//20 55//28 28//21
f 13//26 55//28 56//38
f 7//5 57//39 42//40
f 13//26 56//38 44//41
f 45//29 21//15 43//42
f 58//43 44//41 56//38
f 58//43 59//44 44//41
f 47//31 57//39 7//5
f 46//30 45//29 54//45
f 45//29 66//46 54//45
f 60//47 61//48 50//34
f 67//49 68//50 69//51
f 54//45 66//46 70//52
f 31//20 40//22 71//53
f 72//54 73//54 74//54
f 58//43 56//38 75//55
f 56//38 55//28 31//20
f 58//43 75//55 77//56
f 76//57 45//29 43//42
f 47//31 78//58 57//39
f 78//58 47//31 80//59
f 81//60 80//59 47//31
f 66//46 45//29 82//61
f 47//31 50//34 81//60
f 50//34 61//48 81//60
f 69//51 68//50 83//62
f 86//63 42//40 57//39
f 87//64 88//65 89//66
f 89//66 56//38 31//20
f 76//57 56//38 89//66
f 57//39 78//58 90//67
f 91//68 78//58 80//59
f 79//69 78//58 91//68
f 61//48 92//70 81//60
f 80//59 93//71 91//68
f 93//71 80//59 92//70
f 92//70 61//48 94//72
f 95//73 93//71 92//70
f 66//46 96//74 97//75
f 98//76 96//74 99//77
f 100//78 86//63 57//39
f 101//79 85//80 84//81
f 71//53 102//82 31//20
f 89//66 88//65 103//83
f 104//84 105//84 106//85
f 107//86 105//84 104//84
f 108//87 89//66 103//83
f 57//39 90//67 79//69
f 82//61 45//29 76//57
f 76//57 89//66 82//61
f 79//69 91//68 110//88
f 110//88 95//73 92//70
f 95//73 110//88 91//68
f 94//72 111//89 92//70
f 111//89 110//88 92//70
f 101//79 112//90 85//80
f 31//20 102//82 113//91
f 115//92 116//93 114//94
f 82//61 89//66 117//95
f 118//96 117//95 89//66
f 119//97 79//69 110//88
f 96//74 120//98 99//77
f 121//99 110//88 111//89
f 122//100 110//88 121//99
f 113//91 102//82 123//101
f 113//91 123//101 108//87
f 108//87 118//96 89//66
f 82//61 124//102 125//103
f 119//97 57//39 79//69
f 125//103 66//46 82//61
f 96//74 66//46 125//103
f 121//99 126//104 122//100
f 96//74 125//103 120//98
f 127//105 123//106 128//107
f 112//90 101//79 131//108
f 132//109 133//110 134//111
f 57//39 109//112 135//113
f 108//87 123//101 118//96
f 124//102 117//95 118//96
f 119//97 109//112 57//39
f 125//103 137//114 120//98
f 121//99 138//115 126//104
f 120//98 137//114 139//116
f 140//117 141//118 142//119
f 143//120 142//119 144//121
f 126//104 138//115 146//122
f 142//119 147//123 140//117
f 149//124 143//120 145//125
f 126//104 146//122 150//126
f 142//119 151//127 147//123
f 153//128 143//129 148//130
f 143//120 154//131 151//127
f 149//124 145//125 155//132
f 142//119 143//120 151//127
f 146//122 156//133 150//126
f 157//134 152//135 158//136
f 135//113 109//112 132//109
f 125//103 124//102 118//96
f 118//96 136//137 125//103
f 119//97 110//88 159//138
f 126//104 160//139 159//138
f 144//121 145//125 143//120
f 144//121 161//140 145//125
f 162//141 160//139 126//104
f 150//126 163//142 126//104
f 162//141 126//104 163//142
f 152//135 155//143 158//136
f 155//143 164//144 158//136
f 167//145 158//136 164//144
f 150//126 168//146 163//142
f 119//97 171//147 109//112
f 119//97 172//148 171//147
f 119//97 159//138 172//148
f 159//138 160//139 172//148
f 173//149 174//150 125//103
f 125//103 174//150 137//114
f 175//151 176//152 177//153
f 177//153 179//154 145//125
f 176//152 179//154 177//153
f 160//139 162//141 178//155
f 179//154 155//132 145//125
f 179//154 182//156 155//132
f 183//157 184//158 155//143
f 186//159 187//160 163//142
f 162//141 186//159 188//161
f 164//144 155//143 184//158
f 184//158 191//162 164//144
f 192//163 186//159 163//142
f 192//163 163//142 168//146
f 194//164 164//144 191//162
f 171//147 132//109 109//112
f 123//101 136//137 118//96
f 172//148 198//165 171//147
f 181//166 180//167 202//168
f 178//155 206//169 198//165
f 198//165 172//148 178//155
f 211//170 212//171 179//154
f 200//172 210//173 213//174
f 207//175 209//176 208//177
f 214//178 208//177 209//176
f 213//174 210//173 215//179
f 216//180 215//179 210//173
f 200//172 201//181 210//173
f 217//182 218//183 219//184
f 222//185 223//186 224//187
f 225//188 179//154 212//171
f 226//189 227//190 228//191
f 229//192 230//192 231//192
f 234//193 206//169 178//155
f 178//155 188//161 234//193
f 182//156 179//154 225//188
f 232//194 182//156 225//188
f 162//141 188//161 178//155
f 188//161 235//195 233//196
f 236//197 232//194 233//198
f 182//156 236//197 185//199
f 182//156 232//194 236//197
f 186//159 235//195 188//161
f 235//195 186//159 192//163
f 190//200 185//199 236//197
f 127//105 237//201 123//106
f 136//137 239//202 240//203
f 238//204 239//202 136//137
f 173//149 136//137 197//205
f 136//137 173//149 125//103
f 171//147 198//165 241//206
f 242//207 243//207 244//207
f 203//208 245//209 199//210
f 246//211 173//149 247//212
f 246//211 248//213 249//214
f 247//212 248//213 246//211
f 198//165 251//215 241//206
f 260//216 226//189 261//217
f 265//218 232//194 262//219
f 269//220 270//221 271//222
f 282//223 249//214 248//213
f 288//224 291//225 287//226
f 250//227 251//215 198//165
f 271//222 270//221 298//228
f 298//228 270//221 299//229
f 257//230 306//231 256//232
f 232//194 225//188 262//219
f 261//217 226//189 228//191
f 268//233 307//234 232//194
f 233//198 232//194 307//234
f 136//137 123//101 238//204
f 123//106 237//201 316//235
f 132//109 171//147 317//236
f 317//236 171//147 318//237
f 171//147 241//206 319//238
f 318//237 171//147 319//238
f 173//149 320//239 321//240
f 322//241 247//212 173//149
f 321//240 322//241 173//149
f 132//109 317//236 133//110
f 340//242 240//203 239//202
f 339//243 317//236 318//237
f 197//205 341//244 173//149
f 341//244 320//239 173//149
f 343//245 344//246 345//247
f 345//247 342//248 343//245
l 204 205
l 314 315
l 323 324
l 220 221
l 325 326
l 25 26
l 195 196
l 333 334
l 308 309
l 62 63
l 289 290
l 329 330
l 304 305
l 263 264
l 32 33
l 169 170
l 327 328
l 129 130
l 337 338
l 254 255
l 296 297
l 266 267
l 285 286
l 258 259
l 34 35
l 272 273
l 335 336
l 36 37
l 280 281
l 29 30
l 310 311
l 312 313
l 184 189
l 252 253
l 276 277
l 331 332
l 302 303
l 294 295
l 278 279
l 300 301
l 164 193
l 64 65
l 292 293
l 283 284
l 274 275
l 38 39
l 165 166
