# Blender v2.78 (sub 0) OBJ File: 'exporter.blend'
# www.blender.org
o FJ1488.obj_grp1.328
v -0.882430 -0.339519 5.495574
v -0.884047 -0.343958 5.524431
v -0.879014 -0.338524 5.494864
v -0.880630 -0.337212 5.494167
v -0.879655 -0.338374 5.495810
v -0.879655 -0.338374 5.495810
v -0.880712 -0.337455 5.495427
v -0.880458 -0.337930 5.495818
v -0.882430 -0.339519 5.495574
v -0.882128 -0.340932 5.498583
v -0.878730 -0.343388 5.508062
v -0.880314 -0.329915 5.499108
v -0.889849 -0.345320 5.541041
v -0.886700 -0.348016 5.537660
v -0.884162 -0.347244 5.537216
v -0.889284 -0.346890 5.541300
v -0.886699 -0.346336 5.539253
v -0.887137 -0.345427 5.538582
v -0.884368 -0.344695 5.566430
v -0.884120 -0.344674 5.527169
v -0.886882 -0.346149 5.538558
v -0.868412 -0.337267 5.626743
v -0.807344 -0.367385 5.669477
v -0.885014 -0.345366 5.564614
v -0.889284 -0.346890 5.541300
v -0.886593 -0.346501 5.570926
v -0.873130 -0.342440 5.509799
v -0.883195 -0.335746 5.497273
v -0.879615 -0.335410 5.494643
v -0.879496 -0.335197 5.493321
v -0.879496 -0.335197 5.493321
v -0.879615 -0.335410 5.494643
v -0.835263 -0.338423 5.578294
v -0.875602 -0.331321 5.501540
v -0.878730 -0.343388 5.508062
v -0.876914 -0.332839 5.499331
v -0.879402 -0.335425 5.495684
v -0.877397 -0.331718 5.499224
v -0.876073 -0.330178 5.498424
v -0.877213 -0.330865 5.499104
v -0.879331 -0.335172 5.496138
v -0.875744 -0.316814 5.550286
v -0.876712 -0.327127 5.509847
v -0.874886 -0.327864 5.505621
v -0.875545 -0.327797 5.506397
v -0.877388 -0.329985 5.499612
v -0.876561 -0.324415 5.508845
v -0.876712 -0.327127 5.509847
v -0.877468 -0.323114 5.508860
v -0.876929 -0.322271 5.510873
v -0.876870 -0.323017 5.508871
v -0.876148 -0.324661 5.508720
v -0.876953 -0.322787 5.508996
v -0.877416 -0.321684 5.510410
v -0.875116 -0.323130 5.508399
v -0.876790 -0.322160 5.510045
v -0.875740 -0.322570 5.511349
v -0.877416 -0.321684 5.510410
v -0.876695 -0.322603 5.511416
v -0.884395 -0.345381 5.580555
v -0.874886 -0.341506 5.621203
v -0.873366 -0.340988 5.624925
v -0.876476 -0.322708 5.511566
v -0.877815 -0.314289 5.529564
v -0.835263 -0.338423 5.578294
v -0.876422 -0.325913 5.509311
v -0.874886 -0.327864 5.505621
v -0.876712 -0.327127 5.509847
v -0.835263 -0.338423 5.578294
v -0.868447 -0.337195 5.627833
v -0.866130 -0.328035 5.623926
v -0.871771 -0.340241 5.633413
v -0.867252 -0.341074 5.657586
v -0.877815 -0.314289 5.529564
v -0.878073 -0.314314 5.529377
v -0.869105 -0.317831 5.613123
v -0.867369 -0.314988 5.637376
v -0.867252 -0.341074 5.657586
v -0.852079 -0.336468 5.696129
v -0.866286 -0.314025 5.636809
v -0.752049 -0.385987 5.955584
v -0.852079 -0.336468 5.696129
v -0.781736 -0.354633 5.859787
v -0.780654 -0.340339 5.707700
v -0.857459 -0.322504 5.671248
v -0.843943 -0.324215 5.702044
v -0.846768 -0.318734 5.686130
v -0.865388 -0.315042 5.640545
v -0.807716 -0.363182 5.643975
v -0.786764 -0.387217 5.795031
v -0.867252 -0.341074 5.657586
v -0.850844 -0.317329 5.669182
v -0.845795 -0.320093 5.689399
v -0.844184 -0.323644 5.702875
v -0.792647 -0.366546 5.665385
v -0.873130 -0.342440 5.509799
v -0.758926 -0.392822 5.734995
v -0.798099 -0.326947 5.773073
v -0.729275 -0.459970 6.001405
v -0.783833 -0.354070 5.859361
v -0.736779 -0.452138 5.976821
v -0.757513 -0.390722 5.736511
v -0.750146 -0.363096 5.936138
v -0.735811 -0.411830 5.809308
v -0.726534 -0.448340 5.897855
v -0.736502 -0.418376 5.808753
v -0.698943 -0.391806 5.904302
v -0.707879 -0.480956 6.040141
v -0.736056 -0.429334 5.838048
v -0.726586 -0.418266 5.825310
v -0.729293 -0.353655 5.915472
v -0.631272 -0.483383 6.138269
v -0.646342 -0.490228 6.193243
v -0.674902 -0.495506 6.092264
v -0.684012 -0.492148 6.096768
v -0.660577 -0.440795 6.133454
v -0.702630 -0.365515 5.963151
v -0.684012 -0.492148 6.096768
v -0.636455 -0.496960 6.213946
v -0.694648 -0.395234 6.037231
v -0.681548 -0.388857 5.974774
v -0.701573 -0.384896 6.013237
v -0.706816 -0.372264 5.989669
v -0.707543 -0.373504 5.985719
v -0.628587 -0.498453 6.201552
v -0.636455 -0.496960 6.213946
v -0.623979 -0.466004 6.199141
v -0.628587 -0.498453 6.201552
v -0.631272 -0.483383 6.138269
v -0.619283 -0.495115 6.205235
v -0.639558 -0.488542 6.225495
v -0.642394 -0.482976 6.202016
v -0.646342 -0.490228 6.193243
v -0.641276 -0.488754 6.210613
v -0.646342 -0.490228 6.193243
v -0.641278 -0.488816 6.212544
v -0.659121 -0.443596 6.135311
v -0.639539 -0.469151 6.198595
v -0.624296 -0.463926 6.198313
v -0.629549 -0.495467 6.217133
v -0.626554 -0.494988 6.206247
v -0.629357 -0.495969 6.215965
v -0.628587 -0.498453 6.201552
v -0.620775 -0.495833 6.204979
v -0.626554 -0.494988 6.206247
v -0.628587 -0.498453 6.201552
v -0.626554 -0.494988 6.206247
v -0.642074 -0.481580 6.201411
v -0.641276 -0.488754 6.210613
v -0.612466 -0.484664 6.203127
v -0.642074 -0.481580 6.201411
v -0.623197 -0.495633 6.210147
v -0.641276 -0.488754 6.210613
v -0.639558 -0.488542 6.225495
v -0.626554 -0.494988 6.206247
v -0.627537 -0.496158 6.216220
v -0.628671 -0.496237 6.214848
v -0.629638 -0.495603 6.217420
v -0.630130 -0.495349 6.216266
v -0.629673 -0.493230 6.216202
v -0.639558 -0.488542 6.225495
v -0.630848 -0.496474 6.215444
v -0.630356 -0.494643 6.216151
v -0.627879 -0.494859 6.216968
v -0.628731 -0.494297 6.215162
v -0.626521 -0.495725 6.214697
v -0.626376 -0.495591 6.214807
v -0.636568 -0.496980 6.213981
v -0.635896 -0.491987 6.232841
v -0.632662 -0.494148 6.227373
v -0.626070 -0.494345 6.223382
v -0.626070 -0.494345 6.223382
v -0.628934 -0.491617 6.224978
v -0.632662 -0.494148 6.227373
v -0.626794 -0.494566 6.223334
v -0.635554 -0.492016 6.232349
v -0.632662 -0.494148 6.227373
v -0.628934 -0.491617 6.224978
v -0.626434 -0.497497 6.220316
v -0.628911 -0.494101 6.219298
v -0.628668 -0.494767 6.217951
v -0.629465 -0.495721 6.217420
v -0.628354 -0.494289 6.220319
v -0.636455 -0.496960 6.213946
v -0.629357 -0.495969 6.215965
v -0.626386 -0.494579 6.219505
v -0.626535 -0.494570 6.219063
v -0.626469 -0.495778 6.220773
v -0.628211 -0.496854 6.218635
v -0.627943 -0.495054 6.217510
v -0.624664 -0.494359 6.221654
v -0.634289 -0.490871 6.235256
v -0.628348 -0.491217 6.226620
v -0.641276 -0.488754 6.210613
v -0.639539 -0.469151 6.198595
v -0.637209 -0.484160 6.232458
v -0.637394 -0.484270 6.232490
v -0.636441 -0.483935 6.232848
v -0.611834 -0.486605 6.200876
v -0.615280 -0.492894 6.204094
v -0.611421 -0.482178 6.198228
v -0.626521 -0.495725 6.214697
v -0.626376 -0.495591 6.214807
v -0.624601 -0.494026 6.222584
v -0.626304 -0.494023 6.222024
v -0.624601 -0.494026 6.222584
v -0.626901 -0.494678 6.221437
v -0.627399 -0.494265 6.220472
v -0.626773 -0.494386 6.221687
v -0.625725 -0.493766 6.222034
v -0.626535 -0.494570 6.219063
v -0.614606 -0.472083 6.199252
v -0.619690 -0.468936 6.199121
v -0.624244 -0.465574 6.199769
v -0.639539 -0.469151 6.198595
v -0.610901 -0.481448 6.200848
v -0.611207 -0.485898 6.201824
v -0.611010 -0.479702 6.198595
v -0.612509 -0.482341 6.198644
v -0.611010 -0.479702 6.198595
v -0.614606 -0.472083 6.199252
v -0.618702 -0.467167 6.199784
v -0.614606 -0.472083 6.199252
v -0.619732 -0.468806 6.199384
v -0.620902 -0.465957 6.189252
v -0.624104 -0.465042 6.199201
v -0.620028 -0.468126 6.199440
vn -0.2537 0.9579 0.1343
vn -0.9426 0.3106 0.1222
vn -0.8269 0.5614 -0.0334
vn 0.3715 -0.9025 0.2179
vn -0.1584 -0.9695 -0.1869
vn -0.1976 -0.9573 -0.2108
vn 0.0485 -0.9965 -0.0686
vn -0.1974 -0.9803 0.0080
vn -0.2871 0.9578 -0.0126
vn -0.7849 0.6121 0.0958
vn -0.5857 0.8105 -0.0020
vn -0.3007 0.9530 0.0374
vn -0.2869 -0.9557 -0.0659
vn -0.5406 -0.8413 -0.0036
vn -0.5769 0.8158 0.0417
vn -0.5781 0.7993 0.1637
vn 0.5805 -0.6273 -0.5191
vn 0.6766 -0.5087 -0.5323
vn 0.8910 0.0994 -0.4429
vn 0.9099 -0.2701 -0.3148
vn -0.9817 0.1117 -0.1541
vn 0.2729 -0.8737 -0.4028
vn -0.9853 0.0826 0.1496
vn -0.5690 0.8096 -0.1440
vn 0.9900 -0.0263 -0.1389
vn 0.8729 0.2801 -0.3995
vn -0.9489 -0.0911 0.3020
vn -0.9859 -0.1060 0.1296
vn -0.3946 -0.9038 0.1656
vn 0.3104 0.9501 -0.0312
vn -0.8400 0.5398 0.0544
vn -0.9853 0.0457 0.1646
vn -0.5491 0.8225 0.1487
vn -0.9639 -0.2583 0.0646
vn -0.7502 0.6385 0.1718
vn -0.6159 0.7762 0.1349
vn -0.9738 -0.1388 0.1801
vn -0.8629 0.2106 0.4594
vn -0.6095 -0.7868 0.0967
vn -0.9174 0.1948 0.3471
vn -0.7862 0.4772 0.3926
vn 0.6439 0.7383 -0.2008
vn 0.7674 0.5949 -0.2392
vn 0.6569 0.7454 -0.1138
vn -0.8785 0.3524 0.3226
vn -0.9922 -0.0495 0.1148
vn 0.2713 0.9624 -0.0124
vn -0.6561 0.6746 0.3382
vn -0.2563 0.9503 0.1769
vn -0.4290 0.8461 0.3165
vn 0.2542 -0.9154 -0.3122
vn -0.5822 -0.8122 -0.0377
vn -0.9312 0.0249 0.3637
vn 0.0213 -0.9864 -0.1629
vn 0.8529 -0.2576 -0.4541
vn -0.4099 -0.9026 -0.1314
vn -0.0406 0.9857 0.1634
vn -0.3569 0.8817 0.3085
vn -0.8827 -0.4513 0.1310
vn -0.9561 -0.2219 0.1914
vn 0.8947 0.2654 -0.3592
vn -0.4743 0.7543 0.4540
vn -0.4910 0.8046 0.3339
vn 0.6331 -0.6664 -0.3938
vn -0.2012 -0.9551 -0.2175
vn -0.5804 -0.8073 0.1070
vn 0.4999 -0.8035 -0.3233
vn 0.8319 -0.4075 -0.3767
vn 0.1114 -0.9673 -0.2279
vn 0.6103 -0.6862 -0.3958
vn 0.9503 0.2579 -0.1746
vn 0.1611 0.9760 0.1467
vn 0.5896 -0.7612 -0.2701
vn -0.9054 -0.0859 0.4157
vn -0.9097 -0.2499 0.3316
vn -0.5474 0.7080 0.4461
vn -0.3336 -0.9423 0.0280
vn 0.4301 0.8977 0.0954
vn -0.0400 -0.9707 0.2369
vn -0.2936 0.8631 0.4109
vn 0.8420 0.5354 -0.0664
vn -0.0192 -0.9939 0.1084
vn -0.8691 -0.4053 0.2834
vn 0.1217 0.9366 0.3285
vn -0.2286 0.8963 0.3801
vn 0.9406 -0.1528 -0.3032
vn 0.5496 -0.7986 -0.2453
vn 0.4080 -0.8851 -0.2240
vn -0.8000 -0.5664 0.1979
vn -0.9383 0.2143 0.2714
vn -0.9422 0.1511 0.2990
vn -0.9446 0.2024 0.2584
vn -0.9146 0.2033 0.3495
vn -0.7673 0.2752 0.5792
vn 0.4876 0.8577 0.1634
vn -0.0003 -0.8585 0.5129
vn 0.7490 -0.6450 0.1512
vn 0.0128 -0.8075 0.5897
vn 0.4584 0.7194 0.5219
vn 0.2436 0.3041 0.9210
vn -0.0199 0.3541 0.9350
vn 0.2111 0.3611 0.9083
vn 0.3751 0.9253 -0.0564
vn 0.6167 0.7711 0.1583
vn 0.7340 0.6296 0.2547
vn 0.8594 0.3300 0.3906
vn -0.9109 -0.3980 0.1087
vn -0.3327 -0.9330 0.1374
vn -0.0842 -0.9604 0.2656
vn 0.0817 -0.9796 0.1834
vn 0.5208 0.0482 0.8523
vn 0.3852 0.9046 -0.1825
vn 0.4035 0.9142 -0.0381
vn 0.3519 0.8766 -0.3282
vn 0.6797 -0.4417 0.5855
vn -0.0738 -0.8326 0.5489
vn -0.0671 0.0879 0.9939
vn -0.9628 -0.2681 0.0325
vn 0.4007 0.7879 -0.4676
vn 0.7675 0.4019 0.4994
vn 0.7669 0.3501 0.5378
vn 0.7565 0.3786 0.5333
vn 0.6538 -0.7140 -0.2506
vn 0.9554 -0.0872 -0.2821
vn 0.6287 -0.0968 0.7716
vn 0.9479 0.2344 -0.2158
vn 0.0328 0.1627 0.9861
vn 0.0387 -0.1480 0.9882
vn -0.1608 0.7964 0.5830
vn 0.9153 -0.2555 -0.3113
vn 0.7582 0.3070 0.5753
vn 0.3662 0.3297 0.8702
vn 0.7139 0.6971 0.0661
vn 0.7899 0.6128 -0.0228
s 1
f 1//1 2//2 3//3
f 14//4 10//5 11//6
f 15//7 16//8 14//4
f 13//9 19//10 22//11
f 15//7 14//4 11//6
f 13//9 22//11 2//12
f 15//7 23//13 16//8
f 24//14 16//8 23//13
f 25//15 26//16 19//10
f 19//10 26//16 22//11
f 15//7 27//17 23//13
f 27//17 28//18 33//19
f 28//18 34//20 33//19
f 2//2 12//21 3//3
f 35//22 28//18 27//17
f 15//7 35//22 27//17
f 12//21 42//23 43//24
f 39//25 44//26 34//20
f 49//27 43//24 50//28
f 43//24 42//23 50//28
f 33//19 34//20 44//26
f 24//14 23//13 62//29
f 67//30 68//30 69//30
f 42//23 12//21 2//2
f 70//31 71//32 2//2
f 2//2 71//32 42//23
f 22//11 26//16 72//33
f 22//11 72//33 70//31
f 42//23 74//34 50//28
f 70//31 79//35 71//32
f 72//33 73//36 70//31
f 71//32 77//37 42//23
f 62//29 81//38 78//39
f 82//40 81//38 83//41
f 33//19 55//42 84//43
f 84//43 55//42 75//44
f 73//36 79//35 70//31
f 83//41 85//45 82//40
f 76//46 80//47 75//44
f 71//32 85//45 77//37
f 80//47 86//48 87//49
f 82//40 85//45 71//32
f 88//50 85//45 83//41
f 33//19 89//51 27//17
f 90//52 62//29 23//13
f 90//52 81//38 62//29
f 91//53 81//38 82//40
f 75//44 80//47 87//49
f 23//13 96//54 89//51
f 95//55 89//51 33//19
f 95//55 33//19 84//43
f 89//51 97//56 23//13
f 23//13 97//56 90//52
f 87//49 98//57 75//44
f 87//49 94//58 98//57
f 95//55 97//56 89//51
f 97//56 99//59 90//52
f 81//38 90//52 101//60
f 102//61 95//55 84//43
f 83//41 81//38 103//62
f 103//62 98//57 100//63
f 98//57 94//58 100//63
f 84//43 75//44 98//57
f 104//64 105//65 97//56
f 97//56 105//65 99//59
f 99//59 105//65 108//66
f 105//65 109//67 110//68
f 110//68 114//69 105//65
f 101//60 99//59 81//38
f 110//68 109//67 106//70
f 102//61 110//68 106//70
f 110//68 102//61 107//71
f 84//43 107//71 102//61
f 103//62 111//72 98//57
f 112//73 114//69 110//68
f 99//59 113//74 81//38
f 111//72 84//43 98//57
f 108//66 105//65 114//69
f 108//66 115//75 99//59
f 113//74 116//76 81//38
f 118//77 108//66 114//69
f 99//59 115//75 113//74
f 107//71 84//43 117//78
f 84//43 111//72 117//78
f 114//69 119//79 118//77
f 81//38 116//76 120//80
f 107//71 117//78 121//81
f 81//38 120//80 103//62
f 111//72 103//62 120//80
f 119//79 114//69 125//82
f 126//83 113//74 115//75
f 124//84 120//80 117//78
f 120//80 127//85 117//78
f 111//72 124//84 117//78
f 129//86 110//68 107//71
f 116//76 127//85 120//80
f 114//69 112//73 130//87
f 114//69 130//87 128//88
f 126//83 131//89 113//74
f 132//90 133//91 134//92
f 133//91 132//90 137//93
f 132//90 138//94 137//93
f 139//95 121//81 117//78
f 140//96 119//79 125//82
f 141//97 142//97 143//97
f 144//98 145//98 146//98
f 147//99 148//99 149//99
f 150//100 151//101 152//102
f 153//103 154//104 155//105
f 162//106 155//105 154//104
f 169//107 168//108 170//109
f 171//110 170//109 168//108
f 172//111 173//111 174//111
f 175//112 160//113 161//114
f 176//115 177//115 178//115
f 140//96 180//116 119//79
f 151//101 150//100 195//117
f 169//107 196//118 168//108
f 175//112 161//114 197//119
f 192//120 193//121 198//122
f 130//87 112//73 199//123
f 107//71 201//124 129//86
f 200//125 150//100 152//102
f 212//126 107//71 121//81
f 150//100 213//127 195//117
f 214//128 195//117 213//127
f 127//85 116//76 215//129
f 199//130 129//86 201//124
f 201//124 107//71 212//126
f 220//131 221//132 150//100
f 121//81 222//133 223//134
f 150//100 221//132 213//127
f 222//133 121//81 139//95
l 56 57
l 36 37
l 65 66
l 53 54
l 185 186
l 29 30
l 135 136
l 92 93
l 202 203
l 226 227
l 45 46
l 224 225
l 204 205
l 4 5
l 132 194
l 60 61
l 31 32
l 40 41
l 206 207
l 34 38
l 122 123
l 47 48
l 181 182
l 58 59
l 218 219
l 210 211
l 140 179
l 163 164
l 6 7
l 190 191
l 156 157
l 8 9
l 51 52
l 165 187
l 17 18
l 20 21
l 208 209
l 216 217
l 63 64
l 158 159
l 183 184
l 188 189
l 166 167
