# Blender v2.78 (sub 0) OBJ File: 'exporter.blend'
# www.blender.org
o FJ1412M.obj_grp1.182
v 0.377591 -0.258702 -0.282894
v 0.364136 -0.235569 -0.288516
v 0.378025 -0.259799 -0.282875
v 0.363267 -0.235516 -0.287212
v 0.366443 -0.237840 -0.284987
v 0.350120 -0.241149 -0.292616
v 0.354863 -0.238347 -0.292614
v 0.422160 -0.337608 -0.267927
v 0.424931 -0.341882 -0.270870
v 0.424199 -0.340254 -0.271099
v 0.394481 -0.303103 -0.288676
v 0.371070 -0.301664 -0.290949
v 0.348970 -0.241975 -0.293150
v 0.355191 -0.238400 -0.292814
v 0.355279 -0.238387 -0.292830
v 0.363305 -0.235956 -0.288117
v 0.348970 -0.241975 -0.293150
v 0.481290 -0.451648 -0.266825
v 0.477510 -0.442871 -0.273441
v 0.457816 -0.407818 -0.270240
v 0.448046 -0.404059 -0.274027
v 0.409697 -0.354205 -0.280578
v 0.355081 -0.268336 -0.286864
v 0.346432 -0.252450 -0.288104
v 0.347974 -0.252027 -0.286670
v 0.498733 -0.497151 -0.270706
v 0.494803 -0.517502 -0.278365
v 0.499872 -0.497102 -0.270727
v 0.474024 -0.446188 -0.261279
v 0.423723 -0.386615 -0.275600
v 0.458745 -0.412428 -0.256956
v 0.451195 -0.397524 -0.256643
v 0.428682 -0.362779 -0.259839
v 0.371422 -0.304556 -0.273769
v 0.410706 -0.356791 -0.280110
v 0.381631 -0.331634 -0.282227
v 0.365967 -0.293160 -0.280296
v 0.369095 -0.295805 -0.289547
v 0.358066 -0.273796 -0.284482
v 0.343885 -0.255262 -0.289254
v 0.348823 -0.256368 -0.289470
v 0.503959 -0.533046 -0.273048
v 0.415046 -0.381977 -0.254719
v 0.408330 -0.403279 -0.260120
v 0.385610 -0.341302 -0.282032
v 0.504297 -0.535023 -0.278473
v 0.512593 -0.558395 -0.282040
v 0.509869 -0.556646 -0.284013
v 0.509933 -0.558633 -0.282546
v 0.511803 -0.556576 -0.279436
v 0.503611 -0.553116 -0.282518
v 0.509438 -0.555975 -0.286291
v 0.512470 -0.558397 -0.281871
v 0.509500 -0.556657 -0.283768
v 0.511821 -0.557020 -0.279909
v 0.508653 -0.555468 -0.275676
v 0.507407 -0.555408 -0.276098
v 0.511803 -0.556576 -0.279436
v 0.492375 -0.504832 -0.260010
v 0.478383 -0.497939 -0.255876
v 0.418821 -0.400470 -0.268376
v 0.387498 -0.343666 -0.264190
v 0.383952 -0.340262 -0.268191
v 0.383952 -0.340262 -0.268191
v 0.387448 -0.343303 -0.264921
v 0.503611 -0.553116 -0.282518
v 0.509283 -0.556598 -0.283730
v 0.512470 -0.558397 -0.281871
v 0.508653 -0.555468 -0.275676
v 0.505976 -0.555811 -0.273868
v 0.506284 -0.553306 -0.275345
v 0.506098 -0.554258 -0.272756
v 0.507241 -0.554284 -0.274978
v 0.503053 -0.556383 -0.268363
v 0.508897 -0.556599 -0.283528
v 0.503611 -0.553116 -0.282518
v 0.507763 -0.554766 -0.275338
v 0.505358 -0.543187 -0.273493
v 0.503611 -0.553116 -0.282518
v 0.478644 -0.537436 -0.272111
v 0.430204 -0.420846 -0.266185
v 0.430101 -0.420897 -0.266439
v 0.446191 -0.469290 -0.265395
v 0.418979 -0.400938 -0.268480
v 0.390037 -0.401396 -0.243024
v 0.384679 -0.349628 -0.270960
v 0.385230 -0.358296 -0.267416
v 0.384208 -0.353513 -0.265591
v 0.386708 -0.347279 -0.263461
v 0.384679 -0.349628 -0.270960
v 0.387448 -0.343303 -0.264921
v 0.383952 -0.340262 -0.268191
v 0.386708 -0.347279 -0.263461
v 0.383819 -0.354930 -0.259890
v 0.384208 -0.353513 -0.265591
v 0.493874 -0.552222 -0.263491
v 0.488973 -0.542821 -0.272288
v 0.487785 -0.539861 -0.274247
v 0.503611 -0.553116 -0.282518
v 0.488973 -0.542821 -0.272288
v 0.487757 -0.539854 -0.274263
v 0.488973 -0.542821 -0.272288
v 0.479246 -0.537215 -0.273222
v 0.487757 -0.539854 -0.274263
v 0.480167 -0.520727 -0.255661
v 0.466031 -0.504757 -0.249796
v 0.446191 -0.469290 -0.265395
v 0.442674 -0.485204 -0.262554
v 0.385610 -0.341302 -0.282032
v 0.408330 -0.403279 -0.260120
v 0.385230 -0.358296 -0.267416
v 0.384811 -0.353822 -0.261398
v 0.380362 -0.357723 -0.260771
v 0.382993 -0.355516 -0.259983
v 0.384208 -0.353513 -0.265591
v 0.384811 -0.353822 -0.261398
v 0.379804 -0.356476 -0.260121
v 0.380272 -0.359084 -0.263248
v 0.379825 -0.356336 -0.261269
v 0.385230 -0.358296 -0.267416
v 0.384208 -0.353513 -0.265591
v 0.330442 -0.294076 -0.279088
v 0.318732 -0.276680 -0.280140
v 0.339441 -0.308497 -0.275099
v 0.313133 -0.271768 -0.282211
v 0.506174 -0.554914 -0.273334
v 0.502564 -0.556346 -0.268703
v 0.494058 -0.552203 -0.263933
v 0.502564 -0.556346 -0.268703
v 0.493457 -0.551903 -0.263951
v 0.494175 -0.552037 -0.263291
v 0.493038 -0.551708 -0.263421
v 0.488180 -0.540276 -0.260589
v 0.493307 -0.552120 -0.263790
v 0.493335 -0.551614 -0.263115
v 0.493336 -0.551817 -0.263596
v 0.488180 -0.540276 -0.260589
v 0.492856 -0.552401 -0.263162
v 0.492935 -0.552258 -0.263274
v 0.492799 -0.551463 -0.262831
v 0.493278 -0.552182 -0.263676
v 0.493181 -0.551620 -0.263084
v 0.492811 -0.552087 -0.263112
v 0.493358 -0.552088 -0.264141
v 0.488898 -0.551496 -0.262003
v 0.483924 -0.542807 -0.263379
v 0.489046 -0.551138 -0.261507
v 0.492645 -0.552651 -0.262499
v 0.480617 -0.536645 -0.267071
v 0.478821 -0.538468 -0.272925
v 0.506174 -0.554914 -0.273334
v 0.482436 -0.537037 -0.266380
v 0.482349 -0.538746 -0.268191
v 0.482007 -0.537592 -0.266388
v 0.479145 -0.537314 -0.272668
v 0.478143 -0.537736 -0.272467
v 0.465843 -0.530298 -0.265909
v 0.478608 -0.537495 -0.272349
v 0.475796 -0.535150 -0.269920
v 0.472983 -0.533375 -0.270527
v 0.472983 -0.533375 -0.270527
v 0.482349 -0.538746 -0.268191
v 0.482238 -0.536861 -0.266552
v 0.479462 -0.537365 -0.266683
v 0.466357 -0.529920 -0.266000
v 0.434220 -0.478412 -0.249379
v 0.399602 -0.405013 -0.257581
v 0.385230 -0.358296 -0.267416
v 0.380272 -0.359084 -0.263248
v 0.353481 -0.323471 -0.272006
v 0.380272 -0.359084 -0.263248
v 0.353881 -0.334846 -0.264671
v 0.379867 -0.356310 -0.261319
v 0.380272 -0.359084 -0.263248
v 0.380213 -0.356100 -0.260853
v 0.375078 -0.351171 -0.259049
v 0.374888 -0.351041 -0.258147
v 0.379804 -0.356476 -0.260121
v 0.362631 -0.336520 -0.266927
v 0.349042 -0.320116 -0.271608
v 0.362631 -0.336520 -0.266927
v 0.352127 -0.323287 -0.270499
v 0.335829 -0.302669 -0.276975
v 0.318577 -0.276122 -0.281879
v 0.348196 -0.318844 -0.272560
v 0.353138 -0.324471 -0.269704
v 0.307441 -0.309155 -0.261699
v 0.318751 -0.276769 -0.280311
v 0.310640 -0.275477 -0.281710
v 0.312049 -0.272764 -0.282709
v 0.311979 -0.272512 -0.282705
v 0.310132 -0.275695 -0.280803
v 0.312002 -0.272671 -0.282774
v 0.311979 -0.272512 -0.282705
v 0.313065 -0.273362 -0.282288
v 0.311687 -0.275782 -0.280832
v 0.310266 -0.273547 -0.282394
v 0.310936 -0.273141 -0.282901
v 0.310266 -0.273547 -0.282394
v 0.310936 -0.273141 -0.282901
v 0.310322 -0.275608 -0.281204
v 0.303932 -0.277405 -0.280121
v 0.305923 -0.277288 -0.280699
v 0.488897 -0.550934 -0.261360
v 0.484171 -0.543182 -0.263288
v 0.488959 -0.550534 -0.260757
v 0.480841 -0.545534 -0.258004
v 0.478180 -0.547010 -0.257705
v 0.479964 -0.545919 -0.258888
v 0.488959 -0.550534 -0.260757
v 0.478768 -0.545795 -0.257788
v 0.471169 -0.542553 -0.254736
v 0.454938 -0.525605 -0.255506
v 0.451529 -0.521231 -0.260140
v 0.467279 -0.508235 -0.250008
v 0.477335 -0.516911 -0.253047
v 0.467272 -0.505644 -0.249274
v 0.467279 -0.508235 -0.250008
v 0.463010 -0.500278 -0.250634
v 0.467279 -0.508235 -0.250008
v 0.467272 -0.505644 -0.249274
v 0.422418 -0.457970 -0.258490
v 0.420817 -0.455189 -0.258834
v 0.317036 -0.327301 -0.277760
v 0.300682 -0.279173 -0.278954
v 0.298219 -0.291067 -0.265772
v 0.301362 -0.277997 -0.280508
v 0.472201 -0.541550 -0.255549
v 0.467255 -0.538298 -0.253478
v 0.458067 -0.517742 -0.244933
v 0.468158 -0.540480 -0.252901
v 0.448417 -0.519776 -0.260642
v 0.447347 -0.519315 -0.260195
v 0.408896 -0.458694 -0.261283
v 0.411284 -0.434968 -0.244237
v 0.292824 -0.284103 -0.274757
v 0.300238 -0.278947 -0.281202
v 0.292809 -0.284156 -0.274409
v 0.300668 -0.278470 -0.280922
v 0.292809 -0.284156 -0.274409
v 0.449220 -0.530225 -0.245304
v 0.446655 -0.528949 -0.242447
v 0.440251 -0.515122 -0.259147
v 0.453012 -0.519841 -0.261140
v 0.434674 -0.512518 -0.255296
v 0.440251 -0.515122 -0.259147
v 0.434323 -0.511610 -0.255423
v 0.420648 -0.501987 -0.234950
v 0.350741 -0.384392 -0.264432
v 0.360528 -0.404518 -0.227913
v 0.307088 -0.327393 -0.269955
v 0.283539 -0.284843 -0.269922
v 0.414338 -0.495470 -0.242273
v 0.434765 -0.512695 -0.255299
v 0.434765 -0.512695 -0.255299
v 0.414647 -0.496542 -0.242909
v 0.427852 -0.507855 -0.252207
v 0.400054 -0.486698 -0.241501
v 0.365213 -0.433294 -0.253145
v 0.391825 -0.453911 -0.225437
v 0.330478 -0.354629 -0.244277
v 0.281583 -0.286563 -0.264048
v 0.284550 -0.289228 -0.256804
v 0.283443 -0.284888 -0.270045
v 0.287969 -0.290105 -0.259919
v 0.281968 -0.286304 -0.264349
v 0.446173 -0.528523 -0.242422
v 0.449333 -0.529713 -0.245017
v 0.442271 -0.528497 -0.240719
v 0.446756 -0.529145 -0.242218
v 0.436499 -0.522305 -0.240184
v 0.442916 -0.528334 -0.239333
v 0.442269 -0.527261 -0.241094
v 0.418182 -0.506625 -0.235692
v 0.416899 -0.506573 -0.234344
v 0.409997 -0.495751 -0.246471
v 0.370288 -0.458639 -0.222008
v 0.330478 -0.354629 -0.244277
v 0.309093 -0.318494 -0.252535
v 0.309093 -0.318494 -0.252535
v 0.284802 -0.289077 -0.259215
v 0.312261 -0.347962 -0.247886
v 0.282556 -0.288263 -0.259789
v 0.284761 -0.289631 -0.258103
v 0.285062 -0.288482 -0.256311
v 0.282556 -0.288263 -0.259789
v 0.285126 -0.288494 -0.256471
v 0.287969 -0.290105 -0.259919
v 0.283822 -0.289211 -0.257023
v 0.282557 -0.285565 -0.268148
v 0.281968 -0.286304 -0.264349
v 0.417518 -0.505625 -0.234198
v 0.386570 -0.472105 -0.227699
v 0.405778 -0.499253 -0.230914
v 0.398702 -0.483670 -0.240193
v 0.396753 -0.465234 -0.224820
v 0.396663 -0.482233 -0.241266
v 0.333192 -0.397145 -0.239712
v 0.334258 -0.393142 -0.233971
v 0.313163 -0.352199 -0.246932
v 0.417485 -0.505865 -0.234766
v 0.412066 -0.503789 -0.232891
v 0.412066 -0.503789 -0.232891
v 0.412066 -0.503789 -0.232891
v 0.406232 -0.499295 -0.230978
v 0.406605 -0.499143 -0.231146
v 0.412066 -0.503789 -0.232891
v 0.400316 -0.486649 -0.241384
v 0.375912 -0.459074 -0.231488
v 0.395923 -0.464176 -0.223367
v 0.365627 -0.446160 -0.230174
v 0.397267 -0.466255 -0.224744
v 0.380407 -0.441424 -0.220156
v 0.382716 -0.444987 -0.219771
v 0.379320 -0.449628 -0.217307
v 0.379851 -0.441023 -0.220517
v 0.406355 -0.498900 -0.231427
v 0.405680 -0.499452 -0.230885
v 0.406418 -0.499120 -0.231161
v 0.405680 -0.499452 -0.230885
v 0.392482 -0.485216 -0.226520
v 0.391975 -0.486259 -0.225796
v 0.389829 -0.484688 -0.225445
v 0.397023 -0.490167 -0.228331
v 0.345719 -0.422528 -0.237975
v 0.344563 -0.420666 -0.238115
v 0.373172 -0.456397 -0.222434
v 0.373172 -0.456397 -0.222434
v 0.373172 -0.456397 -0.222434
v 0.363366 -0.445371 -0.229843
vn 0.5578 0.1953 -0.8067
vn 0.8830 0.4340 -0.1787
vn 0.8798 0.4730 0.0461
vn 0.6798 0.4283 0.5953
vn 0.8894 0.4336 0.1447
vn 0.9014 0.2211 -0.3722
vn 0.4436 0.1098 -0.8895
vn -0.1924 0.0781 -0.9782
vn -0.0138 -0.0768 -0.9970
vn -0.3276 0.2131 0.9204
vn -0.5199 0.7830 0.3415
vn -0.5161 0.5184 0.6818
vn 0.6873 0.4064 -0.6021
vn 0.6502 0.3820 -0.6568
vn 0.8998 0.3196 0.2971
vn 0.3714 0.3492 -0.8603
vn -0.1069 -0.1479 -0.9832
vn -0.0752 -0.2317 -0.9699
vn 0.2192 0.2838 0.9335
vn -0.1801 0.1573 0.9710
vn -0.2985 0.0874 0.9504
vn -0.3303 0.0216 0.9436
vn -0.7130 -0.1864 -0.6759
vn 0.5272 0.2392 -0.8154
vn 0.0175 0.1610 -0.9868
vn 0.7414 0.3237 0.5878
vn 0.8843 0.4362 0.1668
vn 0.6765 0.3015 0.6719
vn -0.0324 0.1963 0.9800
vn -0.9323 -0.3204 -0.1680
vn -0.8866 -0.4437 -0.1305
vn -0.8659 -0.4603 -0.1957
vn -0.1824 -0.1702 -0.9684
vn -0.0487 -0.0231 -0.9985
vn 0.4760 0.1174 0.8716
vn 0.1039 0.3143 0.9436
vn -0.4712 -0.3156 -0.8236
vn -0.2484 -0.2319 -0.9405
vn -0.9149 -0.2926 -0.2782
vn 0.6852 0.3414 -0.6434
vn 0.6861 0.3707 -0.6260
vn 0.6945 0.2264 -0.6829
vn 0.8223 0.0515 0.5668
vn 0.6267 0.3717 -0.6849
vn 0.7570 0.4175 -0.5026
vn 0.7682 0.0774 0.6355
vn 0.5934 -0.0232 0.8045
vn 0.5768 0.1245 0.8074
vn -0.4659 0.1008 -0.8791
vn -0.4060 -0.0255 -0.9135
vn 0.2603 0.1417 0.9551
vn -0.4326 -0.2531 -0.8654
vn 0.0212 0.2006 0.9794
vn -0.9696 -0.2180 0.1113
vn -0.7294 -0.1191 0.6736
vn -0.7322 -0.1209 0.6702
vn -0.7133 -0.1650 0.6812
vn -0.3064 -0.9496 0.0668
vn 0.4800 -0.5446 0.6877
vn -0.4230 -0.9052 0.0403
vn -0.4939 -0.8659 -0.0796
vn -0.5862 -0.8051 -0.0906
vn 0.9448 0.3032 0.1244
vn -0.5034 -0.3340 -0.7969
vn 0.3159 0.2741 0.9083
vn -0.9464 -0.2149 -0.2411
vn -0.9731 -0.1376 -0.1850
vn -0.9731 -0.1375 -0.1848
vn -0.9634 0.1650 0.2111
vn -0.9815 0.0186 0.1905
vn -0.4331 0.3807 0.8170
vn 0.0517 0.3433 0.9378
vn -0.9341 0.3217 0.1549
vn -0.5715 -0.8189 0.0527
vn 0.6078 0.0704 0.7909
vn 0.5612 0.6298 0.5371
vn -0.7006 -0.5715 -0.4273
vn -0.2795 -0.6088 -0.7425
vn -0.3525 -0.0349 -0.9352
vn -0.5075 -0.0413 -0.8607
vn -0.2779 -0.0707 -0.9580
vn 0.4050 0.0041 0.9143
vn 0.3367 0.0918 -0.9371
vn 0.3364 0.0916 -0.9373
vn 0.3353 0.0912 -0.9377
vn -0.2655 -0.0429 -0.9632
vn -0.7077 -0.4515 -0.5434
vn -0.9339 0.3206 0.1581
vn -0.6618 0.7419 0.1078
vn -0.7094 0.6995 0.0868
vn -0.6396 0.7612 0.1071
vn -0.6113 0.7779 0.1454
vn -0.1715 0.3247 0.9301
vn -0.6291 0.3842 -0.6757
vn -0.6878 0.2455 -0.6831
vn -0.7309 0.1013 -0.6750
vn 0.8062 0.5644 0.1775
vn 0.6060 0.3284 -0.7245
vn 0.7885 0.5892 0.1763
vn 0.6036 0.3145 -0.7326
vn -0.3921 -0.7813 -0.4856
vn -0.5782 -0.5423 -0.6096
vn -0.5809 -0.5310 -0.6169
vn -0.1111 -0.9850 -0.1322
vn -0.3109 -0.7152 -0.6260
vn -0.4551 -0.6411 -0.6179
vn -0.3715 -0.8782 0.3012
vn -0.3511 -0.8768 0.3285
vn -0.3210 -0.6821 0.6571
vn -0.3614 -0.6672 0.6513
vn -0.3228 -0.7070 0.6292
vn -0.3623 -0.5874 -0.7237
vn -0.4819 -0.8756 0.0346
vn -0.6861 -0.4240 -0.5912
vn 0.0669 -0.6597 0.7486
vn 0.0947 -0.6684 0.7378
vn 0.0827 -0.6512 0.7544
vn -0.5760 -0.6961 -0.4285
vn -0.3897 -0.0933 -0.9162
vn -0.4787 -0.2521 -0.8410
vn 0.3501 0.1432 0.9257
vn -0.4149 -0.1559 -0.8964
vn 0.3472 0.2008 0.9161
vn 0.0440 -0.0865 -0.9953
vn -0.4061 -0.3062 -0.8610
vn 0.4075 0.1001 -0.9077
vn 0.1565 -0.0328 -0.9871
vn -0.5748 -0.3341 -0.7470
vn 0.0745 0.3484 0.9344
vn 0.1092 0.4512 0.8857
vn 0.6809 0.3909 0.6194
vn 0.7132 0.4695 -0.5204
vn 0.7097 0.4692 -0.5256
vn 0.6374 0.4909 -0.5939
vn 0.2341 0.5932 0.7703
vn 0.6266 0.7025 0.3373
vn 0.7027 0.6859 0.1889
vn -0.1555 -0.3189 -0.9350
vn -0.2143 -0.2730 -0.9378
vn -0.0418 -0.2154 -0.9756
vn 0.4813 0.5157 0.7089
vn 0.1759 0.5019 0.8468
vn -0.0444 -0.6915 -0.7211
vn -0.0407 -0.3585 -0.9327
vn 0.1547 0.0569 -0.9863
vn 0.0851 -0.0519 -0.9950
vn -0.0694 0.6463 0.7599
vn 0.0130 0.5294 0.8483
vn -0.5558 -0.5681 -0.6069
vn -0.4605 -0.6981 -0.5483
vn -0.3492 -0.3415 -0.8726
vn -0.3124 -0.3832 -0.8692
vn -0.3594 -0.3503 -0.8649
vn -0.4687 -0.6808 -0.5629
vn 0.3217 -0.0666 0.9445
vn 0.3822 -0.1307 0.9148
vn 0.3944 -0.0905 0.9145
vn -0.5987 -0.6630 -0.4494
vn 0.3410 0.0740 0.9371
vn 0.4874 0.0711 0.8703
vn 0.0558 -0.2719 0.9607
vn -0.5461 -0.2296 0.8056
vn -0.1110 -0.0604 -0.9920
vn 0.3927 0.1889 0.9001
vn 0.2300 0.0573 -0.9715
vn -0.1329 -0.1604 -0.9781
vn 0.1892 0.6627 0.7246
vn -0.1442 0.7392 0.6578
vn 0.4022 -0.1460 0.9039
vn -0.5048 -0.8612 0.0600
vn -0.3658 -0.8596 0.3567
vn -0.3166 -0.0917 -0.9441
vn -0.0983 -0.1072 -0.9894
vn -0.4363 -0.2539 -0.8633
vn -0.5864 -0.1806 -0.7897
vn 0.0613 0.7976 0.6000
vn 0.4582 -0.0207 0.8886
vn -0.4375 -0.3171 -0.8414
vn 0.1147 -0.6134 0.7814
vn -0.2260 -0.9516 0.2082
vn -0.1150 -0.7424 0.6600
vn -0.6272 -0.3180 -0.7109
vn 0.3650 0.0640 0.9288
vn -0.1065 -0.2251 -0.9685
vn -0.6436 -0.4185 -0.6407
vn 0.2693 0.8742 0.4041
vn -0.5919 -0.6361 -0.4950
vn -0.3470 -0.6847 0.6409
vn -0.4822 -0.3380 -0.8082
vn -0.4285 -0.7678 0.4764
vn -0.6785 -0.4930 -0.5446
vn -0.5959 -0.4014 -0.6955
vn -0.5791 -0.4397 -0.6865
vn 0.6272 0.3693 0.6858
vn 0.0799 0.3604 0.9294
vn 0.6595 0.3898 0.6427
vn 0.3051 0.8906 0.3373
vn 0.3168 0.8882 0.3328
vn -0.5613 -0.5760 -0.5942
vn -0.6000 -0.5165 -0.6109
vn 0.3994 -0.0720 0.9140
vn 0.5115 -0.3297 0.7935
vn -0.5437 -0.3325 -0.7706
vn -0.7289 -0.6216 -0.2867
vn -0.4079 -0.7654 0.4978
vn 0.1277 0.3705 0.9200
vn 0.7152 0.5632 0.4140
vn 0.7089 0.5338 0.4610
vn -0.2113 0.1493 0.9660
vn -0.0040 0.2701 0.9628
vn -0.1127 0.1838 0.9765
vn -0.6752 -0.3886 -0.6270
vn -0.8477 -0.5022 -0.1711
vn 0.3101 0.8874 0.3412
vn 0.3131 0.9330 -0.1775
vn 0.3231 0.9287 -0.1822
vn 0.3301 0.9318 -0.1507
vn 0.2838 -0.0562 0.9572
vn -0.6187 -0.2785 -0.7346
vn -0.4525 -0.1890 -0.8715
vn -0.3631 -0.4930 0.7906
vn -0.7874 -0.6152 0.0393
vn 0.5390 0.2249 0.8117
vn -0.8955 -0.4348 -0.0949
vn -0.5751 -0.1150 0.8100
vn -0.8645 -0.3308 0.3785
vn -0.9062 -0.3997 0.1376
vn -0.5537 -0.4557 -0.6970
vn 0.0998 -0.2372 0.9663
vn 0.2223 -0.0574 0.9733
vn -0.6583 -0.5581 0.5051
vn -0.6909 -0.6017 -0.4006
vn 0.6348 0.2239 0.7395
vn -0.7444 -0.5562 0.3694
vn 0.8768 0.4082 0.2542
vn 0.7132 0.6821 -0.1614
vn 0.6218 0.4889 0.6119
vn 0.5605 0.4560 0.6914
vn -0.0983 -0.0814 0.9918
vn -0.6848 -0.3966 -0.6114
vn 0.1871 -0.0648 0.9802
vn -0.8773 -0.4774 -0.0494
vn -0.7240 -0.3766 0.5779
vn -0.6770 -0.3629 -0.6402
vn -0.4919 -0.1994 -0.8475
vn -0.3418 -0.3219 -0.8829
vn -0.5188 -0.3077 -0.7976
vn -0.6725 -0.5814 -0.4580
vn -0.5475 -0.1888 0.8152
s 1
f 2//1 5//2 1//3
f 8//4 9//5 10//6
f 2//1 10//6 11//7
f 8//4 10//6 1//3
f 10//6 2//1 1//3
f 6//8 11//7 12//9
f 6//8 2//1 11//7
f 4//10 7//11 17//12
f 19//13 20//14 18//15
f 18//15 20//14 8//4
f 21//16 30//17 20//14
f 11//7 30//17 22//18
f 20//14 9//5 8//4
f 10//6 20//14 30//17
f 10//6 30//17 11//7
f 33//19 8//4 3//20
f 22//18 12//9 11//7
f 23//21 4//10 24//22
f 12//9 25//23 6//8
f 17//12 24//22 4//10
f 19//13 26//24 27//25
f 28//26 19//13 18//15
f 27//25 21//16 19//13
f 19//13 21//16 20//14
f 30//17 21//16 27//25
f 18//15 8//4 31//27
f 8//4 32//28 31//27
f 33//19 32//28 8//4
f 34//29 33//19 3//20
f 34//29 3//20 23//21
f 36//30 37//31 38//32
f 4//10 23//21 3//20
f 38//32 37//31 40//33
f 38//32 40//33 41//34
f 31//27 29//35 18//15
f 32//28 33//19 43//36
f 35//37 44//38 22//18
f 43//36 33//19 34//29
f 22//18 44//38 12//9
f 45//39 36//30 38//32
f 46//40 47//41 48//42
f 42//43 50//44 49//45
f 57//46 58//47 42//43
f 57//46 42//43 59//48
f 26//24 52//49 27//25
f 27//25 52//49 51//50
f 49//45 28//26 42//43
f 59//48 42//43 28//26
f 28//26 18//15 59//48
f 59//48 29//35 60//51
f 59//48 18//15 29//35
f 35//37 30//17 61//52
f 62//53 43//36 34//29
f 63//54 37//31 36//30
f 64//55 65//56 39//57
f 68//58 69//59 70//60
f 70//60 75//61 68//58
f 76//62 75//61 70//60
f 57//46 59//48 73//63
f 27//25 81//64 30//17
f 30//17 81//64 61//52
f 85//65 29//35 32//28
f 61//52 44//38 35//37
f 86//66 45//39 87//67
f 87//67 88//68 86//66
f 45//39 86//66 36//30
f 89//69 63//54 90//70
f 91//71 92//71 93//71
f 62//53 94//72 43//36
f 95//73 89//69 90//70
f 90//70 63//54 36//30
f 76//62 70//60 97//74
f 96//75 74//76 73//63
f 96//75 73//63 59//48
f 99//77 100//77 101//77
f 102//78 103//78 104//78
f 98//79 27//25 79//80
f 27//25 98//79 80//81
f 105//82 59//48 60//51
f 84//83 82//84 83//85
f 108//86 44//38 61//52
f 43//36 85//65 32//28
f 109//87 110//87 111//87
f 89//69 95//73 112//88
f 113//89 114//90 115//91
f 114//90 116//92 115//91
f 117//93 85//65 94//72
f 118//94 119//95 120//95
f 119//95 121//96 120//95
f 122//97 123//98 124//99
f 125//100 123//98 122//97
f 130//101 126//102 127//103
f 130//101 131//104 145//105
f 146//106 126//102 130//101
f 145//105 146//106 130//101
f 97//74 149//107 150//108
f 97//74 70//60 149//107
f 151//109 152//110 153//111
f 126//102 146//106 154//112
f 150//108 149//107 157//113
f 160//114 150//108 157//113
f 162//115 163//116 164//117
f 154//112 146//106 157//118
f 59//48 105//82 96//75
f 161//119 165//120 108//86
f 108//86 80//81 161//119
f 105//82 60//51 106//121
f 80//81 81//64 27//25
f 80//81 107//122 81//64
f 80//81 108//86 107//122
f 106//121 60//51 166//123
f 60//51 29//35 166//123
f 107//122 108//86 61//52
f 167//124 168//125 44//38
f 169//126 167//124 170//127
f 167//124 171//128 168//125
f 43//36 94//72 85//65
f 85//65 177//129 172//130
f 177//129 85//65 178//131
f 174//132 179//133 173//134
f 180//135 176//136 175//137
f 180//135 172//130 176//136
f 170//127 167//124 183//138
f 224//139 184//140 167//124
f 184//140 183//138 167//124
f 180//135 187//141 172//130
f 187//141 180//135 188//142
f 203//143 189//144 184//140
f 191//145 184//140 190//146
f 192//147 188//142 193//148
f 184//140 189//144 190//146
f 206//149 207//150 146//106
f 208//151 209//152 210//153
f 212//154 157//118 146//106
f 211//155 138//156 105//157
f 157//118 212//154 213//158
f 230//159 105//157 215//160
f 216//161 217//161 218//161
f 219//162 220//162 221//162
f 215//160 106//121 230//159
f 108//86 222//163 44//38
f 166//123 29//35 235//164
f 29//35 85//65 235//164
f 44//38 223//165 167//124
f 224//139 225//166 184//140
f 226//167 188//142 192//147
f 184//140 225//166 203//143
f 227//168 226//167 192//147
f 212//154 146//106 207//150
f 230//159 211//155 105//157
f 230//159 231//169 211//155
f 213//158 214//170 157//118
f 233//171 157//118 214//170
f 230//159 106//121 166//123
f 232//172 108//86 165//120
f 234//173 223//165 108//86
f 222//163 223//165 44//38
f 223//165 234//173 167//124
f 85//65 172//130 187//141
f 226//167 187//141 188//142
f 236//174 237//175 224//139
f 240//176 226//167 227//168
f 231//169 230//159 242//177
f 243//178 234//173 232//172
f 245//179 246//180 244//181
f 232//172 234//173 108//86
f 247//182 234//173 243//178
f 248//183 166//123 235//164
f 234//173 249//184 167//124
f 167//124 249//184 224//139
f 224//139 251//185 236//174
f 240//176 252//186 226//167
f 241//187 213//158 212//154
f 244//181 253//188 245//179
f 254//189 247//182 243//178
f 256//190 214//170 213//158
f 230//159 166//123 248//183
f 258//191 247//182 257//192
f 259//193 234//173 247//182
f 235//164 85//65 260//194
f 250//195 85//65 187//141
f 224//139 249//184 251//185
f 187//141 226//167 263//196
f 252//186 265//197 226//167
f 252//186 266//198 265//197
f 269//199 213//158 241//187
f 269//199 271//200 213//158
f 230//159 272//201 270//202
f 271//200 274//203 213//158
f 248//183 272//201 230//159
f 256//190 213//158 277//204
f 253//188 276//205 245//179
f 258//191 259//193 247//182
f 259//193 249//184 234//173
f 251//185 249//184 259//193
f 278//206 250//195 187//141
f 279//207 261//208 187//141
f 280//209 281//210 282//211
f 187//141 263//196 279//207
f 236//174 251//185 264//212
f 251//185 262//213 264//212
f 266//198 283//214 265//197
f 286//215 287//216 288//217
f 292//218 272//201 248//183
f 274//203 293//219 213//158
f 274//203 294//220 293//219
f 295//221 276//205 253//188
f 258//191 297//222 259//193
f 296//223 248//183 235//164
f 260//194 296//223 235//164
f 260//194 85//65 250//195
f 298//224 251//185 259//193
f 299//225 250//195 278//206
f 298//224 262//213 251//185
f 262//213 300//226 289//227
f 294//220 274//203 303//228
f 304//229 292//218 305//230
f 297//222 308//231 295//221
f 305//230 292//218 248//183
f 309//232 256//190 277//204
f 310//233 305//230 248//183
f 311//234 295//221 253//188
f 310//233 312//235 260//194
f 310//233 260//194 313//236
f 310//233 313//236 314//237
f 316//238 313//236 260//194
f 316//238 260//194 250//195
f 315//239 314//237 316//238
f 315//239 316//238 250//195
f 300//226 262//213 298//224
f 282//211 299//225 278//206
f 282//211 278//206 280//209
f 321//240 293//219 294//220
f 310//233 322//241 305//230
f 315//239 322//241 310//233
f 325//242 259//193 297//222
f 311//234 297//222 295//221
f 311//234 325//242 297//222
f 315//239 310//233 314//237
f 315//239 299//225 326//243
f 315//239 250//195 299//225
f 325//242 298//224 259//193
f 298//224 326//243 299//225
f 300//226 298//224 299//225
f 327//244 293//219 321//240
f 328//245 324//246 323//247
f 309//232 277//204 330//248
f 322//241 315//239 329//249
f 311//234 329//249 315//239
f 315//239 326//243 311//234
f 325//242 311//234 326//243
l 155 156
l 201 202
l 284 285
l 195 196
l 273 275
l 317 318
l 13 14
l 190 194
l 267 268
l 181 182
l 319 320
l 143 144
l 197 198
l 77 78
l 15 16
l 53 54
l 247 255
l 301 302
l 55 56
l 71 72
l 147 148
l 204 205
l 238 239
l 132 133
l 306 307
l 141 142
l 228 229
l 290 291
l 66 67
l 134 135
l 128 129
l 96 138
l 185 186
l 158 159
l 199 200
l 139 140
l 136 137
