# Blender v2.78 (sub 0) OBJ File: 'exporter.blend'
# www.blender.org
o FJ1481M.obj_grp1.315
v 1.405072 -0.679439 3.570524
v 1.405200 -0.680402 3.570680
v 1.405200 -0.680402 3.570680
v 1.404990 -0.679504 3.571053
v 1.404754 -0.679318 3.569938
v 1.404855 -0.679182 3.570806
v 1.405270 -0.679224 3.570915
v 1.404709 -0.679334 3.571058
v 1.403635 -0.685833 3.566795
v 1.404073 -0.690026 3.567760
v 1.404695 -0.687293 3.569194
v 1.403532 -0.683897 3.567257
v 1.399276 -0.684026 3.570472
v 1.403943 -0.690406 3.568250
v 1.392109 -0.684087 3.574934
v 1.404097 -0.685529 3.566737
v 1.404092 -0.686373 3.571356
v 1.404613 -0.689923 3.568746
v 1.404092 -0.686373 3.571356
v 1.393637 -0.685106 3.587543
v 1.404613 -0.689923 3.568746
v 1.403854 -0.685742 3.567138
v 1.404092 -0.686373 3.571356
v 1.403972 -0.690173 3.568272
v 1.404613 -0.689923 3.568746
v 1.404326 -0.689915 3.568206
v 1.404097 -0.685529 3.566737
v 1.393627 -0.682976 3.589404
v 1.391834 -0.683867 3.575271
v 1.404561 -0.689378 3.577398
v 1.404569 -0.689358 3.577470
v 1.404084 -0.690180 3.568688
v 1.393637 -0.685106 3.587543
v 1.404561 -0.689378 3.577398
v 1.404569 -0.689358 3.577470
v 1.404548 -0.679699 3.570455
v 1.405200 -0.680402 3.570680
v 1.405200 -0.680402 3.570680
v 1.404536 -0.679729 3.570991
v 1.404411 -0.679406 3.570748
v 1.404754 -0.679318 3.569938
v 1.404190 -0.679763 3.570769
v 1.404560 -0.679409 3.571036
v 1.403538 -0.679247 3.570853
v 1.403500 -0.679095 3.570910
v 1.403538 -0.679247 3.570853
v 1.403500 -0.679095 3.570910
v 1.401837 -0.680076 3.571587
v 1.402383 -0.679801 3.571661
v 1.401336 -0.679238 3.571440
v 1.401927 -0.679883 3.571434
v 1.401915 -0.679957 3.571808
v 1.401317 -0.679350 3.572004
v 1.402383 -0.679801 3.571661
v 1.401383 -0.679321 3.571719
v 1.401703 -0.680076 3.571582
v 1.400900 -0.679510 3.571666
v 1.401194 -0.679403 3.571519
v 1.401768 -0.680059 3.571295
v 1.401749 -0.680172 3.571858
v 1.401183 -0.679471 3.571860
v 1.401149 -0.679394 3.571754
v 1.401336 -0.679238 3.571440
v 1.402164 -0.683194 3.571946
v 1.401759 -0.682364 3.572103
v 1.402164 -0.683194 3.571946
v 1.401759 -0.682364 3.572103
v 1.399468 -0.683763 3.570765
v 1.399899 -0.681219 3.572248
v 1.399509 -0.680427 3.572487
v 1.399509 -0.680427 3.572487
v 1.399899 -0.681219 3.572248
v 1.397905 -0.679306 3.573504
v 1.397820 -0.679322 3.573515
v 1.397820 -0.679322 3.573515
v 1.397905 -0.679306 3.573504
v 1.392656 -0.682900 3.584116
v 1.393637 -0.685106 3.587543
v 1.397151 -0.687038 3.584396
v 1.397158 -0.687031 3.584403
v 1.397153 -0.687045 3.584398
v 1.397153 -0.687035 3.584404
v 1.397148 -0.687031 3.584399
v 1.397158 -0.687031 3.584403
v 1.397158 -0.687031 3.584403
v 1.397148 -0.687032 3.584405
v 1.397153 -0.687045 3.584398
v 1.397146 -0.687038 3.584395
v 1.397153 -0.687045 3.584398
v 1.397146 -0.687039 3.584402
v 1.397144 -0.687036 3.584396
v 1.397144 -0.687026 3.584403
v 1.397139 -0.687040 3.584398
v 1.397145 -0.687032 3.584404
v 1.395188 -0.685922 3.585422
v 1.395440 -0.685890 3.584961
v 1.395440 -0.685890 3.584961
v 1.395188 -0.685922 3.585422
v 1.394951 -0.685353 3.586566
v 1.394543 -0.685571 3.586520
v 1.394951 -0.685353 3.586566
v 1.394543 -0.685571 3.586520
v 1.392972 -0.682794 3.583976
v 1.377362 -0.665376 3.587875
v 1.368126 -0.665633 3.594407
v 1.394925 -0.685359 3.588432
v 1.392203 -0.678651 3.593443
v 1.393548 -0.683561 3.590299
v 1.392083 -0.678487 3.593609
v 1.385611 -0.676462 3.598930
v 1.387161 -0.678117 3.596655
v 1.359299 -0.660629 3.628247
v 1.376781 -0.662143 3.611842
v 1.375826 -0.660949 3.612497
v 1.376892 -0.662228 3.611554
v 1.357593 -0.660146 3.628380
v 1.376106 -0.665533 3.589171
v 1.362422 -0.657164 3.597322
v 1.356763 -0.649434 3.629804
v 1.348614 -0.648830 3.636075
v 1.323266 -0.627404 3.651245
v 1.341833 -0.660661 3.616480
v 1.362422 -0.657164 3.597322
v 1.286173 -0.623117 3.678658
v 1.336947 -0.645590 3.602798
v 1.323954 -0.640787 3.610985
v 1.332253 -0.639112 3.612389
v 1.315107 -0.626545 3.626440
v 1.332106 -0.631653 3.632523
v 1.323527 -0.630996 3.651761
v 1.319917 -0.651840 3.628091
v 1.301918 -0.632033 3.622828
v 1.286402 -0.630347 3.674796
v 1.351489 -0.657539 3.632612
v 1.289400 -0.612243 3.652946
v 1.317176 -0.629647 3.658391
v 1.314129 -0.628522 3.660366
v 1.319917 -0.651840 3.628091
v 1.301918 -0.632033 3.622828
v 1.277908 -0.613514 3.653441
v 1.314434 -0.632808 3.658664
v 1.314141 -0.628488 3.660368
v 1.273199 -0.610218 3.681070
v 1.272410 -0.608511 3.683902
v 1.289106 -0.646030 3.650591
v 1.279816 -0.607851 3.677703
v 1.280165 -0.607932 3.677453
v 1.289366 -0.612292 3.652946
v 1.270013 -0.616926 3.669253
v 1.279487 -0.632127 3.632574
v 1.251024 -0.612114 3.646181
v 1.278116 -0.613695 3.653441
v 1.257590 -0.611736 3.694369
v 1.275637 -0.611798 3.681452
v 1.272802 -0.608401 3.684060
v 1.272863 -0.609109 3.682201
v 1.272863 -0.609109 3.682201
v 1.231226 -0.590157 3.699707
v 1.262577 -0.601584 3.684126
v 1.323316 -0.640634 3.611110
v 1.279487 -0.632127 3.632574
v 1.301918 -0.632033 3.622828
v 1.255962 -0.617198 3.689013
v 1.272863 -0.609109 3.682201
v 1.258538 -0.613069 3.681930
v 1.262577 -0.601584 3.684126
v 1.250861 -0.591408 3.685270
v 1.251592 -0.590833 3.685609
v 1.241383 -0.627340 3.662133
v 1.240236 -0.614190 3.640475
v 1.301918 -0.632033 3.622828
v 1.250798 -0.611333 3.646035
v 1.239942 -0.611639 3.693861
v 1.256112 -0.619186 3.653723
v 1.257704 -0.611785 3.694360
v 1.241013 -0.616792 3.668129
v 1.259619 -0.612502 3.681072
v 1.228218 -0.597495 3.703206
v 1.237119 -0.583392 3.687618
v 1.235982 -0.596349 3.688468
v 1.251444 -0.591250 3.685692
v 1.243301 -0.592362 3.688297
v 1.245532 -0.588180 3.689110
v 1.236104 -0.584105 3.687932
v 1.231348 -0.580430 3.694956
v 1.225908 -0.619314 3.684073
v 1.247944 -0.615668 3.640414
v 1.246780 -0.610034 3.647381
v 1.301918 -0.632033 3.622828
v 1.254502 -0.619283 3.654639
v 1.241537 -0.613662 3.659051
v 1.244437 -0.618326 3.684228
v 1.244287 -0.618053 3.684126
v 1.241517 -0.608588 3.700815
v 1.228597 -0.578200 3.691393
v 1.228306 -0.588876 3.678398
v 1.224286 -0.582101 3.683972
v 1.236973 -0.582838 3.687961
v 1.231348 -0.580430 3.694956
v 1.230655 -0.587282 3.698813
v 1.230325 -0.585633 3.699382
v 1.231348 -0.580430 3.694956
v 1.227716 -0.582045 3.688415
v 1.228597 -0.578200 3.691393
v 1.228597 -0.578200 3.691393
v 1.221757 -0.595199 3.648540
v 1.221757 -0.595199 3.648540
v 1.245816 -0.613896 3.637573
v 1.238569 -0.618433 3.680867
v 1.244287 -0.618053 3.684126
v 1.239416 -0.617598 3.678931
v 1.235982 -0.596349 3.688468
v 1.239055 -0.606802 3.654461
v 1.221757 -0.595199 3.648540
v 1.239654 -0.603864 3.652873
v 1.238741 -0.605419 3.653178
v 1.236920 -0.607123 3.667675
v 1.222504 -0.596148 3.654395
v 1.222504 -0.596148 3.654395
v 1.237393 -0.603642 3.670967
v 1.235570 -0.606743 3.667982
v 1.236909 -0.608002 3.668350
v 1.235433 -0.604058 3.670229
v 1.241449 -0.608631 3.700889
v 1.221085 -0.599961 3.706092
v 1.223273 -0.599203 3.707903
v 1.229810 -0.595049 3.675477
v 1.229659 -0.600628 3.673514
v 1.231076 -0.606194 3.681149
v 1.228582 -0.600955 3.672897
v 1.228306 -0.588876 3.678398
v 1.226150 -0.590004 3.683727
v 1.227909 -0.591157 3.682805
v 1.224918 -0.599797 3.706760
v 1.229110 -0.596795 3.700890
v 1.228306 -0.588876 3.678398
v 1.236973 -0.582838 3.687961
v 1.228597 -0.578200 3.691393
v 1.224212 -0.583808 3.684455
v 1.228306 -0.588876 3.678398
v 1.224274 -0.584575 3.684412
v 1.223986 -0.582610 3.684713
v 1.231633 -0.586973 3.698900
v 1.229852 -0.595913 3.701279
v 1.230426 -0.588856 3.699951
v 1.230589 -0.587286 3.699929
v 1.227270 -0.581489 3.687879
v 1.228708 -0.581595 3.687315
v 1.228104 -0.581131 3.687800
v 1.224011 -0.582613 3.684684
v 1.228306 -0.588876 3.678398
v 1.223714 -0.584285 3.683895
v 1.212993 -0.597409 3.660843
v 1.236489 -0.616273 3.676816
v 1.238569 -0.618433 3.680867
v 1.238569 -0.618433 3.680867
v 1.236489 -0.616273 3.676816
v 1.231076 -0.606194 3.681149
v 1.246780 -0.610034 3.647381
v 1.222504 -0.596148 3.654395
v 1.229405 -0.603837 3.671023
v 1.229616 -0.602485 3.672262
v 1.236674 -0.606227 3.670881
v 1.231282 -0.605573 3.671768
v 1.229616 -0.602485 3.672262
v 1.225931 -0.602504 3.667291
v 1.231076 -0.606194 3.681149
v 1.222465 -0.599603 3.703182
v 1.230043 -0.600875 3.672600
v 1.231076 -0.606194 3.681149
v 1.235433 -0.604058 3.670229
v 1.230043 -0.600875 3.672600
v 1.224096 -0.602615 3.673812
v 1.222856 -0.597042 3.674385
v 1.224119 -0.602631 3.673882
v 1.224288 -0.604124 3.670793
v 1.214091 -0.598868 3.679960
v 1.240850 -0.612682 3.693360
v 1.221138 -0.599852 3.706036
v 1.222386 -0.599753 3.703223
v 1.228306 -0.588876 3.678398
v 1.222517 -0.596486 3.681549
v 1.225959 -0.594270 3.677619
v 1.224047 -0.596245 3.682843
v 1.225959 -0.594270 3.677619
v 1.223715 -0.598255 3.676741
v 1.216758 -0.592974 3.683008
v 1.224147 -0.593950 3.682412
v 1.224170 -0.596593 3.682839
v 1.221707 -0.599747 3.702190
v 1.223236 -0.600271 3.702731
v 1.223009 -0.599020 3.706745
v 1.224513 -0.597723 3.707323
v 1.221283 -0.599237 3.706162
v 1.221283 -0.599237 3.706162
v 1.223390 -0.598858 3.707541
v 1.220287 -0.599160 3.705674
v 1.221464 -0.598998 3.702845
v 1.223123 -0.599115 3.707740
v 1.221248 -0.599503 3.706131
v 1.221028 -0.584559 3.683887
v 1.223504 -0.591350 3.683971
v 1.226020 -0.589983 3.683745
v 1.222748 -0.588261 3.682548
v 1.222748 -0.588261 3.682548
v 1.223504 -0.591350 3.683971
v 1.225959 -0.594270 3.677619
v 1.222524 -0.587926 3.682596
v 1.222751 -0.588262 3.682550
v 1.220063 -0.584308 3.683248
v 1.220696 -0.585109 3.683789
v 1.222992 -0.583862 3.683440
v 1.228306 -0.588876 3.678398
v 1.223221 -0.584098 3.683720
v 1.220063 -0.584308 3.683248
v 1.216509 -0.596227 3.648894
v 1.219834 -0.609472 3.670096
v 1.218690 -0.607607 3.696573
v 1.217965 -0.596650 3.649413
v 1.225931 -0.602504 3.667291
v 1.223738 -0.601829 3.670273
v 1.229405 -0.603837 3.671023
v 1.224288 -0.604124 3.670793
v 1.220872 -0.603620 3.671583
v 1.222866 -0.602632 3.671666
v 1.220681 -0.605654 3.666048
v 1.223557 -0.603292 3.669392
v 1.225931 -0.602504 3.667291
v 1.218870 -0.598889 3.670699
v 1.218870 -0.598889 3.670699
v 1.216687 -0.599564 3.670566
v 1.219474 -0.604793 3.671310
v 1.217424 -0.606771 3.671190
v 1.220405 -0.607278 3.668108
v 1.224288 -0.604124 3.670793
v 1.221483 -0.608531 3.670514
v 1.220714 -0.608351 3.671363
v 1.220685 -0.608396 3.670768
v 1.220401 -0.605297 3.672201
v 1.221757 -0.595199 3.648540
v 1.216617 -0.596133 3.649132
v 1.222504 -0.596148 3.654395
v 1.220663 -0.596889 3.647273
v 1.212830 -0.597258 3.660620
v 1.218568 -0.600343 3.670637
v 1.218879 -0.598967 3.670721
v 1.212072 -0.598683 3.667629
v 1.224170 -0.596593 3.682839
v 1.223715 -0.598255 3.676741
v 1.214044 -0.598805 3.679868
v 1.224170 -0.596593 3.682839
v 1.214044 -0.598805 3.679868
v 1.216758 -0.592974 3.683008
v 1.206732 -0.595038 3.690254
v 1.216758 -0.592974 3.683008
v 1.218950 -0.606875 3.697003
v 1.221552 -0.599780 3.701701
v 1.221081 -0.599626 3.701289
v 1.224073 -0.596141 3.686830
v 1.204843 -0.591171 3.688055
v 1.205140 -0.594661 3.694304
v 1.207673 -0.596908 3.704247
v 1.221081 -0.599626 3.701289
v 1.207673 -0.596908 3.704247
v 1.207844 -0.598989 3.681996
v 1.212072 -0.598683 3.667629
v 1.206802 -0.591571 3.689123
v 1.212697 -0.597099 3.660725
v 1.216617 -0.596133 3.649132
v 1.211862 -0.597482 3.661000
v 1.211099 -0.597545 3.660194
v 1.212590 -0.597350 3.661202
v 1.211878 -0.597764 3.661968
v 1.214816 -0.597202 3.660395
v 1.215021 -0.597414 3.661817
v 1.212913 -0.597715 3.660523
v 1.215392 -0.599631 3.657958
v 1.212072 -0.598683 3.667629
v 1.220405 -0.607278 3.668108
v 1.216889 -0.600002 3.671088
v 1.207580 -0.597254 3.704264
v 1.209360 -0.597610 3.702618
v 1.204931 -0.593863 3.690893
v 1.204516 -0.593727 3.689881
v 1.204843 -0.591171 3.688055
vn -0.5891 -0.0279 -0.8076
vn -0.6380 -0.3602 -0.6806
vn -0.2031 0.3150 -0.9271
vn 0.9915 0.1277 0.0244
vn 0.7970 -0.2775 0.5365
vn 0.0023 -0.7324 0.6809
vn 0.4791 0.8713 0.1067
vn 0.4670 0.8667 0.1754
vn 0.5035 0.8462 0.1744
vn 0.5263 0.8126 0.2504
vn 0.5809 0.7499 0.3165
vn -0.7045 0.0198 -0.7094
vn 0.7561 0.6541 0.0221
vn 0.6279 0.7130 -0.3121
vn 0.9014 0.4322 -0.0250
vn 0.5259 -0.3530 0.7739
vn 0.6260 -0.3308 0.7062
vn 0.4244 -0.6455 0.6350
vn 0.6987 0.6166 0.3629
vn 0.6722 0.7402 0.0174
vn 0.6749 0.0491 0.7363
vn 0.7684 0.5792 0.2721
vn 0.6618 -0.2456 0.7083
vn -0.6792 -0.7338 -0.0148
vn -0.5752 -0.8179 -0.0097
vn -0.5387 -0.0280 -0.8420
vn 0.7723 0.3642 0.5205
vn 0.5805 0.0060 0.8142
vn 0.3598 0.8670 -0.3449
vn 0.6866 -0.0042 0.7271
vn 0.5136 0.6795 0.5240
vn -0.3934 -0.9091 -0.1373
vn -0.2081 -0.9236 0.3219
vn 0.4812 -0.0183 0.8764
vn -0.5063 -0.5727 -0.6447
vn -0.0564 0.7451 -0.6645
vn 0.2172 0.7738 -0.5950
vn 0.3371 0.8526 -0.3993
vn 0.1955 0.8372 -0.5108
vn 0.4714 0.8781 -0.0819
vn 0.6381 0.3414 0.6902
vn -0.4407 -0.8023 -0.4027
vn -0.0989 0.7097 -0.6975
vn 0.3850 -0.3485 0.8546
vn 0.3567 -0.4316 0.8286
vn 0.5529 0.7508 0.3614
vn 0.5496 0.0405 0.8344
vn -0.0220 0.7912 -0.6112
vn 0.1600 0.9863 0.0407
vn 0.4656 0.8002 0.3780
vn -0.1213 0.9459 -0.3008
vn 0.4952 0.3996 0.7714
vn -0.1915 -0.9815 -0.0034
vn -0.2678 -0.9476 0.1741
vn -0.2922 0.9014 -0.3197
vn 0.5476 0.1033 0.8303
vn -0.1061 -0.8293 0.5487
vn -0.6592 0.6790 -0.3230
vn -0.2489 0.9462 -0.2067
vn -0.4254 -0.6903 -0.5853
vn 0.0054 0.9623 0.2720
vn 0.0371 0.9962 0.0793
vn 0.3575 -0.3094 0.8812
vn 0.5340 0.0633 0.8431
vn 0.4594 0.4973 0.7360
vn 0.4703 0.7781 -0.4163
vn 0.4972 0.7499 -0.4365
vn 0.4485 0.7742 -0.4466
vn -0.3870 0.2474 -0.8883
vn -0.2379 0.9109 -0.3373
vn 0.0067 0.1859 -0.9825
vn -0.0396 0.2763 -0.9603
vn -0.1004 0.1792 -0.9787
vn 0.5062 0.6080 0.6116
vn -0.1264 0.0836 -0.9885
vn -0.5456 -0.8193 -0.1761
vn -0.5378 -0.6253 -0.5655
vn -0.3600 -0.4210 -0.8326
vn -0.0863 0.9362 0.3406
vn -0.1166 -0.6407 0.7589
vn -0.0307 -0.8204 0.5709
vn 0.2753 0.9496 0.1498
vn -0.2325 0.9668 0.1056
vn 0.4062 0.3108 0.8593
vn -0.1538 -0.0604 -0.9863
vn -0.1693 0.0224 -0.9853
vn 0.5752 0.3374 0.7452
vn -0.0780 -0.8450 0.5290
vn 0.2281 0.7754 -0.5889
vn 0.0328 0.7798 -0.6251
vn 0.7143 0.6139 0.3361
vn 0.4357 0.0557 0.8984
vn 0.3201 0.9286 -0.1876
vn 0.4686 0.8669 -0.1701
vn 0.5684 0.8215 -0.0454
vn 0.6213 0.7835 0.0107
vn 0.2088 0.7024 -0.6804
vn 0.1989 0.8508 -0.4864
vn 0.1405 0.8081 -0.5720
vn 0.5691 0.3589 0.7398
vn 0.0499 0.9307 -0.3624
vn -0.0840 0.6118 -0.7865
vn -0.3538 0.6453 0.6770
vn -0.3530 0.7262 0.5900
vn -0.3670 0.6470 0.6683
vn 0.2804 0.7663 0.5780
vn 0.5078 0.7182 0.4758
vn 0.4272 0.7437 0.5142
vn -0.5157 -0.8187 0.2525
vn 0.4144 0.7403 -0.5294
vn -0.2046 0.9723 0.1132
vn -0.0834 0.9937 0.0752
vn 0.6894 0.3864 -0.6127
vn 0.7038 0.4158 -0.5760
vn 0.7594 0.2833 -0.5857
vn -0.2890 0.2834 -0.9144
vn 0.6723 0.6084 0.4218
vn 0.4632 0.6664 0.5842
vn 0.1954 0.9180 -0.3451
vn 0.4561 0.8880 -0.0587
vn 0.4154 0.9048 0.0936
vn 0.5710 0.7807 -0.2539
vn 0.6467 0.4838 -0.5897
vn 0.5728 0.4360 -0.6942
vn 0.1194 0.6968 -0.7073
vn -0.2626 -0.8672 0.4231
vn -0.1636 -0.8328 0.5289
vn 0.9718 0.1338 -0.1940
vn 0.9763 0.0671 -0.2058
vn 0.9689 0.1206 -0.2162
vn 0.8289 0.1129 -0.5479
vn 0.7632 -0.0800 -0.6411
vn -0.2247 -0.1773 0.9582
vn -0.8193 -0.4642 0.3366
vn -0.4693 -0.2474 0.8476
vn -0.9624 0.0778 0.2603
vn -0.9544 0.1408 0.2632
vn -0.7416 0.6530 0.1535
vn -0.9674 0.1169 0.2245
vn -0.0437 0.9555 -0.2917
vn -0.0434 0.9556 -0.2915
vn -0.0537 0.9542 -0.2944
vn 0.7010 0.6531 0.2865
vn 0.4869 0.8496 0.2029
vn 0.8411 0.5183 -0.1549
vn 0.4741 0.8239 -0.3106
vn 0.4268 0.6671 0.6105
vn 0.5021 0.8512 0.1528
vn 0.9370 -0.0566 0.3447
vn 0.4251 0.8794 0.2146
vn 0.4237 0.9056 0.0169
vn 0.9124 0.1240 0.3900
vn 0.0435 0.4277 -0.9029
vn 0.2162 0.5621 -0.7983
vn -0.0324 0.5150 -0.8566
vn 0.0430 0.6426 -0.7650
vn 0.5881 0.7166 0.3748
vn -0.4206 0.3286 -0.8456
vn -0.3133 0.3180 -0.8948
vn 0.0672 0.7004 -0.7106
vn -0.2562 -0.0070 -0.9666
vn -0.1447 0.4439 -0.8843
vn 0.2396 0.8792 -0.4118
vn -0.6513 -0.6910 -0.3135
vn -0.2000 -0.8072 0.5553
vn -0.1912 0.5310 -0.8255
vn -0.6532 0.2292 -0.7217
vn -0.8535 0.5058 -0.1252
vn -0.8534 0.5071 -0.1207
vn -0.8506 0.5110 -0.1242
vn -0.1004 -0.1596 -0.9821
vn -0.8233 -0.5653 0.0502
vn -0.2855 0.7809 0.5556
vn -0.3898 0.8439 0.3687
vn 0.4263 0.3896 0.8164
vn -0.4399 0.8305 -0.3417
vn -0.2612 0.8730 -0.4118
vn -0.2813 0.5244 -0.8037
vn -0.1291 0.3885 0.9124
vn -0.9908 0.0455 -0.1276
vn -0.9051 0.0392 -0.4234
vn -0.9052 -0.0261 0.4243
vn -0.3972 -0.3521 0.8475
vn -0.4924 -0.4596 0.7392
vn -0.7762 0.0839 -0.6248
vn -0.3495 0.4609 -0.8157
vn -0.3442 0.4417 -0.8285
vn -0.3638 0.4399 -0.8211
vn -0.6546 -0.6123 -0.4433
vn -0.6888 -0.6753 -0.2638
vn -0.1941 -0.7569 0.6241
vn -0.2794 0.1857 -0.9421
vn -0.3204 0.0805 -0.9439
vn -0.4382 0.2909 -0.8505
vn 0.4155 0.9055 0.0869
vn 0.2268 0.7640 0.6040
vn 0.2240 0.8251 0.5186
vn -0.0556 0.2080 0.9765
vn 0.5497 0.3830 0.7424
vn 0.5485 0.3606 0.7544
vn 0.5540 0.3714 0.7451
vn 0.5352 0.8054 0.2547
vn -0.0241 -0.5902 0.8069
vn -0.2258 -0.6263 0.7462
vn -0.2477 -0.6270 0.7386
vn -0.6816 -0.6868 -0.2525
vn -0.6820 -0.6246 -0.3804
vn -0.5913 0.6206 -0.5149
vn -0.7918 0.5248 -0.3124
vn -0.4261 0.5833 -0.6915
vn -0.1562 0.9717 0.1773
vn -0.1125 0.9853 0.1286
vn -0.0434 0.9843 0.1712
vn -0.3703 -0.0547 -0.9273
vn 0.0683 0.9682 0.2407
vn 0.1196 0.9608 0.2502
vn -0.0697 -0.1977 0.9778
vn -0.0063 0.9822 0.1878
vn -0.1356 0.9584 -0.2511
vn 0.1758 0.4021 -0.8985
vn -0.5155 0.8416 -0.1614
vn -0.2443 0.9614 -0.1269
vn 0.0714 -0.7008 0.7097
vn 0.1501 0.8200 0.5523
vn 0.1089 0.8701 0.4808
vn 0.0065 0.9435 0.3313
vn 0.0259 0.8718 0.4891
vn 0.1356 0.9136 0.3833
vn 0.2751 0.8315 0.4826
vn 0.0739 -0.5032 0.8610
vn 0.0536 -0.5555 0.8298
vn 0.0680 -0.5102 0.8574
vn -0.7159 -0.6068 0.3455
vn -0.7383 -0.6347 -0.2283
vn -0.5850 -0.5331 0.6112
vn -0.7679 -0.6373 0.0652
vn -0.7891 -0.6047 -0.1081
s 1
f 14//1 15//2 11//3
f 16//4 17//4 18//4
f 19//5 20//5 21//5
f 15//2 14//1 29//6
f 22//7 68//8 23//9
f 23//9 77//10 78//11
f 68//8 77//10 23//9
f 105//12 29//6 14//1
f 103//13 107//14 106//15
f 108//16 109//17 110//18
f 103//13 13//19 104//20
f 15//2 105//12 11//3
f 110//18 109//17 112//21
f 107//14 103//13 114//22
f 113//23 112//21 109//17
f 114//22 103//13 104//20
f 28//24 111//25 14//1
f 14//1 111//25 105//12
f 105//12 117//26 11//3
f 113//23 119//27 120//28
f 120//28 112//21 113//23
f 104//20 118//29 114//22
f 119//27 115//30 114//22
f 114//22 121//31 119//27
f 117//26 105//12 122//32
f 111//25 116//33 122//32
f 112//21 120//28 124//34
f 121//31 120//28 119//27
f 105//12 111//25 122//32
f 125//35 117//26 122//32
f 118//29 126//36 127//37
f 123//38 117//26 125//35
f 128//39 118//29 127//37
f 114//22 118//29 129//40
f 130//41 120//28 121//31
f 128//39 129//40 118//29
f 121//31 114//22 129//40
f 125//35 122//32 131//42
f 127//37 132//43 128//39
f 124//34 133//44 134//45
f 130//41 136//46 120//28
f 124//34 120//28 137//47
f 139//48 127//37 126//36
f 132//43 140//49 128//39
f 143//50 136//46 130//41
f 135//51 129//40 128//39
f 124//34 137//47 144//52
f 122//32 116//33 138//53
f 138//53 116//33 145//54
f 147//55 121//31 129//40
f 121//31 146//56 130//41
f 133//57 145//54 116//33
f 129//40 135//51 147//55
f 148//58 147//55 135//51
f 148//58 149//59 147//55
f 131//42 150//60 125//35
f 151//61 140//49 132//43
f 135//51 128//39 152//62
f 152//62 149//59 135//51
f 124//34 144//52 153//63
f 146//56 156//64 130//41
f 158//65 153//63 144//52
f 154//66 159//67 155//68
f 160//69 161//69 162//69
f 133//44 124//34 153//63
f 152//62 140//49 149//59
f 149//59 157//70 147//55
f 166//71 164//72 165//73
f 144//52 167//74 158//65
f 168//75 166//71 165//73
f 131//42 169//76 150//60
f 170//77 171//78 150//60
f 151//61 174//79 140//49
f 133//57 175//80 163//81
f 176//82 157//70 149//59
f 176//82 177//83 157//70
f 153//63 158//65 178//84
f 175//80 153//63 163//81
f 179//85 168//75 180//86
f 167//74 200//87 158//65
f 169//76 170//77 150//60
f 133//57 173//88 145//54
f 187//89 188//89 189//90
f 140//49 174//79 149//59
f 176//82 149//59 174//79
f 191//91 176//82 174//79
f 163//81 173//88 133//57
f 163//81 153//63 194//92
f 180//86 168//75 165//73
f 153//63 178//84 194//92
f 183//93 184//94 185//95
f 184//94 195//96 185//95
f 196//97 197//98 198//99
f 199//100 200//87 167//74
f 203//101 198//99 197//98
f 198//99 203//101 204//102
f 205//103 201//104 202//105
f 145//54 169//76 131//42
f 174//106 172//107 190//108
f 191//91 190//108 172//107
f 145//54 173//88 186//109
f 187//89 206//110 188//89
f 176//82 192//111 177//83
f 192//111 176//82 209//112
f 210//113 211//114 212//115
f 180//86 165//73 193//116
f 213//117 172//107 216//118
f 191//91 213//117 217//119
f 213//117 191//91 172//107
f 214//120 218//121 215//122
f 222//123 221//124 223//125
f 173//88 163//81 224//126
f 225//127 173//88 224//126
f 229//128 230//129 231//130
f 236//131 237//132 212//115
f 241//133 232//134 242//135
f 238//136 232//134 243//137
f 243//137 232//134 244//138
f 249//139 232//134 238//136
f 242//135 232//134 249//139
f 250//140 247//141 248//142
f 186//109 169//76 145//54
f 254//143 176//82 191//91
f 255//144 176//82 254//143
f 256//145 257//145 258//145
f 215//122 259//146 214//120
f 216//118 219//147 213//117
f 260//148 217//119 213//117
f 217//119 220//149 191//91
f 266//150 261//151 217//119
f 220//149 267//152 191//91
f 191//91 267//152 254//143
f 228//153 263//154 262//155
f 266//150 217//119 260//148
f 221//124 269//156 223//125
f 270//157 271//157 272//157
f 273//158 228//153 262//155
f 274//159 228//153 273//158
f 275//160 265//161 264//162
f 276//163 275//160 264//162
f 278//164 279//164 280//164
f 226//165 225//127 224//126
f 281//166 228//153 274//159
f 277//167 274//159 273//158
f 236//131 212//115 211//114
f 284//168 285//169 286//170
f 287//171 288//171 289//171
f 232//134 233//172 244//138
f 233//172 290//173 244//138
f 290//173 291//174 244//138
f 178//84 292//175 194//92
f 244//138 291//174 293//176
f 293//176 291//174 294//177
f 281//166 274//159 301//178
f 302//179 303//179 304//179
f 305//180 282//181 306//182
f 232//134 310//183 309//184
f 283//185 282//181 305//180
f 311//186 312//187 313//188
f 310//183 232//134 241//133
f 170//77 169//76 316//189
f 253//190 316//189 169//76
f 173//88 318//191 186//109
f 319//192 207//193 208//194
f 320//195 321//196 322//197
f 321//196 323//198 322//197
f 328//199 329//200 327//201
f 260//148 330//202 266//150
f 331//203 326//204 327//205
f 169//76 317//206 334//207
f 336//208 273//158 335//209
f 337//210 273//158 336//208
f 277//167 273//158 337//210
f 340//211 341//212 342//213
f 170//77 316//189 343//214
f 344//215 345//216 342//213
f 327//205 346//217 331//203
f 344//215 347//218 345//216
f 348//219 349//219 350//219
f 351//220 352//220 353//220
f 277//167 354//221 355//222
f 173//88 268//223 318//191
f 359//224 355//222 354//221
f 360//225 361//226 233//227
f 233//227 361//226 362//228
f 233//227 362//228 363//229
f 358//230 364//231 318//232
f 317//206 169//76 365//233
f 253//190 334//207 366//234
f 169//76 334//207 253//190
f 344//215 342//213 341//212
f 378//235 379//235 380//235
f 277//167 337//210 354//221
f 365//233 169//76 186//109
f 367//236 186//109 381//237
f 381//237 186//109 318//191
f 365//233 186//109 367//236
l 60 61
l 95 96
l 30 31
l 141 142
l 181 182
l 97 98
l 239 240
l 251 252
l 382 383
l 1 2
l 24 25
l 48 49
l 85 86
l 69 70
l 99 100
l 332 333
l 34 35
l 227 228
l 295 296
l 324 325
l 9 10
l 81 82
l 73 74
l 87 88
l 46 47
l 38 39
l 3 4
l 12 13
l 89 90
l 66 67
l 56 57
l 58 59
l 314 315
l 376 377
l 234 235
l 370 371
l 93 94
l 356 357
l 44 45
l 299 300
l 54 55
l 26 27
l 307 308
l 64 65
l 5 6
l 91 92
l 50 51
l 372 373
l 40 41
l 7 8
l 245 246
l 101 102
l 338 339
l 368 369
l 297 298
l 75 76
l 71 72
l 384 385
l 374 375
l 79 80
l 52 53
l 62 63
l 32 33
l 36 37
l 83 84
l 42 43
