# Blender v2.78 (sub 0) OBJ File: 'exporter.blend'
# www.blender.org
o FJ1450M.obj_grp1.256
v 0.049307 -0.156550 3.578334
v 0.035250 -0.173545 3.558115
v 0.057188 -0.154928 3.568154
v 0.065313 -0.147051 3.575538
v 0.060097 -0.139427 3.567449
v 0.056465 -0.145479 3.563286
v 0.059135 -0.141421 3.566078
v 0.069421 -0.132242 3.585351
v 0.069700 -0.125287 3.597070
v 0.060076 -0.130786 3.594524
v 0.068573 -0.121529 3.590116
v 0.069421 -0.132242 3.585351
v 0.069149 -0.126658 3.594341
v 0.057688 -0.114484 3.585216
v 0.035193 -0.173665 3.557832
v 0.026637 -0.166228 3.547689
v 0.044429 -0.144207 3.561345
v 0.054400 -0.134021 3.569855
v 0.066298 -0.116196 3.602233
v 0.058588 -0.104726 3.602885
v 0.064738 -0.112174 3.605803
v 0.024671 -0.178940 3.540379
v 0.019264 -0.180716 3.541992
v 0.018464 -0.179614 3.548466
v 0.021868 -0.161709 3.572194
v 0.045178 -0.144173 3.578249
v 0.044701 -0.139266 3.574620
v 0.049918 -0.128834 3.580314
v 0.047497 -0.136481 3.576958
v 0.048065 -0.114379 3.588529
v 0.050077 -0.125364 3.587843
v 0.050503 -0.115399 3.606417
v 0.060076 -0.130786 3.594524
v 0.050077 -0.125364 3.587843
v 0.048065 -0.114379 3.588529
v 0.063146 -0.110090 3.598589
v 0.044609 -0.094028 3.619218
v 0.019777 -0.176701 3.538067
v 0.018467 -0.175814 3.538308
v 0.019839 -0.176815 3.537916
v 0.020275 -0.176973 3.536799
v 0.018845 -0.174209 3.537570
v 0.019107 -0.174083 3.538661
v 0.020649 -0.164563 3.548854
v 0.021140 -0.164685 3.549841
v 0.022382 -0.154082 3.553679
v 0.024571 -0.156416 3.572670
v 0.020411 -0.151517 3.563154
v 0.048306 -0.120529 3.589017
v 0.050373 -0.119435 3.590657
v 0.048646 -0.121536 3.591674
v 0.039299 -0.106019 3.596130
v 0.024571 -0.156416 3.572670
v 0.040371 -0.107303 3.596083
v 0.048065 -0.114379 3.588529
v 0.048306 -0.120529 3.589017
v 0.040371 -0.107303 3.596083
v 0.048646 -0.121536 3.591674
v 0.042561 -0.115137 3.596257
v 0.037492 -0.091858 3.624837
v 0.035097 -0.088486 3.616083
v 0.048646 -0.121536 3.591674
v 0.022965 -0.107536 3.609706
v 0.018953 -0.104004 3.626172
v 0.019337 -0.100025 3.631134
v 0.022965 -0.107536 3.609706
v 0.017803 -0.107596 3.619924
v 0.016305 -0.090479 3.620468
v 0.025728 -0.085185 3.635832
v 0.016029 -0.105579 3.623456
v 0.016465 -0.108104 3.619602
v 0.017472 -0.101320 3.627057
v 0.016259 -0.101344 3.628405
v 0.018650 -0.105052 3.626602
v 0.022785 -0.106297 3.624077
v 0.016259 -0.101344 3.628405
v 0.016259 -0.101344 3.628405
v 0.019286 -0.099920 3.631001
v 0.015413 -0.099046 3.628767
v 0.016197 -0.090826 3.637414
v 0.017792 -0.079408 3.631054
v 0.023571 -0.080449 3.629954
v 0.024871 -0.084822 3.635499
v 0.018644 -0.105049 3.626584
v 0.014245 -0.080834 3.631615
v 0.015408 -0.094714 3.634353
v 0.023571 -0.080449 3.629954
v 0.019901 -0.081052 3.636226
v 0.015540 -0.085066 3.635686
v 0.016234 -0.087328 3.637995
v 0.015540 -0.085066 3.635686
v 0.015408 -0.094714 3.634353
v 0.016644 -0.082093 3.631931
v 0.017215 -0.083692 3.637682
v 0.023571 -0.080449 3.629954
v 0.017822 -0.079546 3.631114
v 0.019901 -0.081052 3.636226
v 0.018470 -0.081579 3.630172
v 0.019901 -0.081052 3.636226
v 0.019901 -0.081052 3.636226
vn 0.1232 -0.5930 0.7957
vn 0.0878 -0.7948 0.6005
vn 0.7727 -0.6079 -0.1826
vn 0.8995 -0.4320 -0.0649
vn 0.5555 0.2590 -0.7902
vn 0.5313 0.2353 -0.8139
vn 0.9043 0.1392 -0.4035
vn 0.8647 0.4131 -0.2856
vn 0.9009 -0.3875 0.1954
vn 0.1399 -0.6157 0.7755
vn 0.9894 0.1409 0.0362
vn 0.2036 0.6948 -0.6898
vn 0.5926 -0.5663 -0.5729
vn 0.3906 -0.9205 -0.0100
vn 0.0577 0.5644 -0.8235
vn 0.1475 0.4834 -0.8629
vn 0.0635 0.5248 -0.8489
vn -0.5897 0.1666 0.7903
vn -0.1979 0.6941 -0.6922
vn 0.0593 -0.7635 0.6431
vn 0.8768 0.4792 0.0392
vn 0.6837 0.7128 -0.1565
vn -0.4566 -0.8540 -0.2492
vn -0.6886 -0.6838 0.2413
vn 0.6033 0.4154 -0.6808
vn -0.5941 -0.3597 0.7195
vn -0.7243 0.6477 0.2364
vn -0.9335 0.2681 -0.2383
vn -0.9338 0.0910 -0.3462
vn -0.9142 -0.2155 0.3433
vn -0.9434 0.3099 0.1183
vn -0.1139 -0.7668 0.6316
vn -0.6242 -0.6824 0.3804
vn -0.8308 -0.4820 0.2783
vn -0.2501 0.5373 -0.8054
vn 0.5578 0.6953 -0.4532
vn 0.0113 -0.7116 -0.7025
vn -0.9687 -0.1171 -0.2189
vn -0.5916 -0.5010 -0.6317
vn 0.3706 0.5634 -0.7384
vn -0.9835 0.1573 -0.0889
vn -0.1871 0.4994 -0.8459
vn -0.9006 0.3772 -0.2161
vn -0.5225 0.5431 -0.6573
vn -0.3106 0.0983 0.9454
vn -0.8147 0.5785 0.0414
vn -0.9472 -0.3207 -0.0057
vn -0.9211 -0.3868 0.0445
vn -0.9090 -0.4148 -0.0408
vn -0.4559 0.3230 -0.8294
vn 0.1239 -0.5132 0.8493
vn -0.6784 0.4652 0.5687
vn -0.7355 -0.0819 -0.6726
vn -0.8718 -0.4845 -0.0720
vn -0.7464 -0.2756 -0.6058
vn -0.7327 -0.1953 -0.6519
vn 0.5180 -0.2763 0.8095
vn 0.6266 0.1572 0.7633
vn 0.1859 0.9129 -0.3633
vn 0.5363 0.8395 -0.0874
vn -0.7295 -0.0328 -0.6832
vn 0.2981 -0.6132 0.7316
vn 0.0530 -0.8322 0.5520
vn -0.5390 -0.7962 -0.2749
vn 0.0451 -0.8629 0.5034
vn -0.7465 0.4697 -0.4712
vn 0.3160 -0.2890 0.9036
vn 0.0865 -0.8379 0.5389
vn -0.9315 0.0274 -0.3628
vn -0.1314 -0.6334 0.7626
vn 0.5047 -0.1000 0.8575
vn 0.4979 -0.0967 0.8618
vn 0.4616 -0.1342 0.8769
vn -0.6461 -0.5059 0.5715
vn -0.5225 -0.4541 0.7216
vn -0.6114 -0.4921 0.6197
vn 0.3471 -0.3668 0.8631
vn -0.5451 0.6345 -0.5480
vn 0.1810 0.9111 -0.3703
vn 0.6439 0.6243 0.4423
vn -0.5434 -0.6252 0.5602
vn -0.5592 -0.5582 0.6129
vn -0.9518 -0.2021 0.2307
vn -0.9976 -0.0605 0.0349
vn -0.4927 -0.6189 0.6117
vn -0.9888 -0.1032 -0.1082
vn 0.6087 0.6860 0.3986
vn 0.5885 0.6960 0.4115
vn -0.9601 -0.0192 0.2790
vn -0.8973 0.2453 0.3669
vn -0.0631 0.6614 0.7473
vn -0.9636 -0.0236 0.2664
vn -0.9212 0.3217 -0.2187
vn 0.2262 0.0932 0.9696
vn 0.1921 0.9598 0.2047
vn 0.2487 0.2611 0.9327
vn -0.7612 0.5997 0.2468
vn -0.8109 0.5718 0.1245
s 1
f 1//1 2//2 3//3
f 1//1 3//3 4//4
f 5//5 4//4 6//6
f 6//6 4//4 3//3
f 4//4 5//5 8//7
f 5//5 11//8 8//7
f 12//9 9//10 4//4
f 13//11 8//7 11//8
f 5//5 14//12 11//8
f 22//13 3//3 15//14
f 22//13 6//6 3//3
f 6//6 22//13 16//15
f 7//16 6//6 17//17
f 1//1 9//10 26//18
f 17//17 5//5 7//16
f 17//17 18//19 5//5
f 9//10 1//1 4//4
f 18//19 14//12 5//5
f 10//20 26//18 9//10
f 19//21 13//11 11//8
f 11//8 20//22 19//21
f 22//13 15//14 23//23
f 15//14 2//2 24//24
f 41//25 16//15 22//13
f 25//26 24//24 2//2
f 2//2 1//1 25//26
f 26//18 25//26 1//1
f 16//15 17//17 6//6
f 27//27 28//28 18//19
f 30//29 18//19 28//28
f 31//30 29//31 26//18
f 10//20 31//30 26//18
f 32//32 10//20 9//10
f 33//33 32//32 34//34
f 18//19 35//35 14//12
f 14//12 36//36 11//8
f 23//23 38//37 22//13
f 39//38 23//23 24//24
f 23//23 39//38 40//39
f 24//24 23//23 15//14
f 42//40 16//15 41//25
f 24//24 44//41 39//38
f 16//15 42//40 45//42
f 43//43 39//38 44//41
f 45//42 46//44 16//15
f 46//44 17//17 16//15
f 47//45 25//26 26//18
f 48//46 27//27 18//19
f 46//44 18//19 17//17
f 26//18 29//31 27//27
f 28//28 29//31 31//30
f 49//47 28//28 31//30
f 49//47 30//29 28//28
f 32//32 50//48 34//34
f 51//49 49//47 31//30
f 35//35 52//50 14//12
f 32//32 9//10 21//51
f 24//24 48//46 44//41
f 44//41 48//46 46//44
f 48//46 53//52 26//18
f 48//46 18//19 46//44
f 27//27 48//46 26//18
f 54//53 55//53 56//53
f 49//47 51//49 57//54
f 58//55 59//56 52//50
f 60//57 21//51 37//58
f 14//12 20//22 36//36
f 61//59 20//22 14//12
f 19//21 20//22 37//60
f 24//24 25//26 48//46
f 48//46 25//26 53//52
f 59//56 63//61 52//50
f 32//32 65//62 64//63
f 32//32 64//63 50//48
f 21//51 60//57 32//32
f 61//59 14//12 52//50
f 66//64 50//48 67//65
f 68//66 52//50 63//61
f 67//65 50//48 64//63
f 65//62 60//57 69//67
f 70//68 67//65 64//63
f 60//57 65//62 32//32
f 37//60 20//22 61//59
f 63//61 71//69 68//66
f 73//70 64//63 65//62
f 74//71 75//72 76//73
f 77//74 78//75 79//76
f 69//67 80//77 65//62
f 61//59 52//50 68//66
f 68//66 81//78 61//59
f 61//59 81//78 82//79
f 61//59 82//79 37//60
f 37//58 83//80 60//57
f 84//81 77//74 70//82
f 77//74 79//76 70//82
f 71//69 72//83 85//84
f 80//85 79//76 78//75
f 86//86 85//84 72//83
f 85//84 68//66 71//69
f 87//87 83//80 37//58
f 88//88 83//80 87//87
f 86//86 89//89 85//84
f 90//90 91//91 92//92
f 81//78 68//66 93//93
f 94//94 80//77 69//67
f 95//95 96//95 97//95
f 94//94 69//67 100//96
f 90//90 98//97 91//91
f 98//97 90//90 99//98
l 59 62
