# Blender v2.78 (sub 0) OBJ File: 'exporter.blend'
# www.blender.org
o FJ1466.obj_grp1.284
v -1.117325 -0.640958 3.714223
v -1.118170 -0.644145 3.722340
v -1.113696 -0.636939 3.711176
v -1.092606 -0.682732 3.563916
v -1.117119 -0.644143 3.722546
v -1.111006 -0.638960 3.711997
v -1.117098 -0.645222 3.723188
v -1.118170 -0.644145 3.722340
v -1.110556 -0.644516 3.720086
v -1.118170 -0.644145 3.722340
v -1.116441 -0.646215 3.723350
v -1.117186 -0.647703 3.724657
v -1.103618 -0.657746 3.690448
v -1.110556 -0.644516 3.720086
v -1.116704 -0.643828 3.722748
v -1.118170 -0.644145 3.722340
v -1.116817 -0.644692 3.723287
v -1.113767 -0.638394 3.711344
v -1.109927 -0.637681 3.710059
v -1.106284 -0.647523 3.675208
v -1.115550 -0.633221 3.708904
v -1.109481 -0.640915 3.694454
v -1.111199 -0.645206 3.684515
v -1.107596 -0.639580 3.701859
v -1.097007 -0.638606 3.722725
v -1.106349 -0.647380 3.675652
v -1.113653 -0.638347 3.711357
v -1.109760 -0.640890 3.710381
v -1.109927 -0.637681 3.710059
v -1.107208 -0.638118 3.710131
v -1.107556 -0.639535 3.701820
v -1.102279 -0.640967 3.700336
v -1.103068 -0.637573 3.709012
v -1.102183 -0.641067 3.700275
v -1.107457 -0.639263 3.710495
v -1.107378 -0.636944 3.710850
v -1.107899 -0.639077 3.710222
v -1.110556 -0.644516 3.720086
v -1.103720 -0.637263 3.713641
v -1.110556 -0.644516 3.720086
v -1.097007 -0.638606 3.722725
v -1.104812 -0.636219 3.713829
v -1.102359 -0.634836 3.714082
v -1.103720 -0.637263 3.713641
v -1.097007 -0.638606 3.722725
v -1.098223 -0.631390 3.712716
v -1.097007 -0.638606 3.722725
v -1.098223 -0.631390 3.712716
v -1.102359 -0.634836 3.714082
v -1.099800 -0.661229 3.621696
v -1.101869 -0.643879 3.702120
v -1.091306 -0.646304 3.670805
v -1.097007 -0.638606 3.722725
v -1.092101 -0.627663 3.727626
v -1.098223 -0.631390 3.712716
v -1.092932 -0.623314 3.707521
v -1.082557 -0.621649 3.708383
v -1.092101 -0.627663 3.727626
v -1.093135 -0.631970 3.730765
v -1.093546 -0.631560 3.730708
v -1.093223 -0.630719 3.729926
v -1.091871 -0.628212 3.729973
v -1.093543 -0.631947 3.730603
v -1.093561 -0.631583 3.729762
v -1.093717 -0.631866 3.730701
v -1.093387 -0.631664 3.730722
v -1.093401 -0.631678 3.730669
v -1.093561 -0.631583 3.729762
v -1.093489 -0.631543 3.730227
v -1.082557 -0.621649 3.708383
v -1.082557 -0.621649 3.708383
v -1.093819 -0.631322 3.730627
v -1.082557 -0.621649 3.708383
v -1.091017 -0.613231 3.716115
v -1.091680 -0.616883 3.710045
v -1.090040 -0.623540 3.726765
v -1.088346 -0.618728 3.723141
v -1.090223 -0.623954 3.725434
v -1.090894 -0.623556 3.726633
v -1.092237 -0.624330 3.725002
v -1.091120 -0.623672 3.726490
v -1.090659 -0.623039 3.727542
v -1.090868 -0.622904 3.727694
v -1.088562 -0.616849 3.722355
v -1.090223 -0.623954 3.725434
v -1.090143 -0.618704 3.721844
v -1.090730 -0.623001 3.727556
v -1.090719 -0.623284 3.728444
v -1.090726 -0.623409 3.728434
v -1.090674 -0.623227 3.728523
v -1.090726 -0.623409 3.728434
v -1.090658 -0.623039 3.727552
v -1.091091 -0.623164 3.728481
v -1.090671 -0.623204 3.728523
v -1.090543 -0.622818 3.727589
v -1.091763 -0.617029 3.709627
v -1.091017 -0.613231 3.716115
v -1.076818 -0.630630 3.670591
v -1.088449 -0.616400 3.720181
v -1.091017 -0.613231 3.716115
v -1.088623 -0.615039 3.716180
v -1.089956 -0.617147 3.714758
v -1.088351 -0.617757 3.718935
v -1.091716 -0.617222 3.710547
v -1.088214 -0.616554 3.720682
v -1.098223 -0.631390 3.712716
v -1.088354 -0.616453 3.720425
v -1.087881 -0.615062 3.718514
v -1.088698 -0.617785 3.722574
v -1.088687 -0.617821 3.722752
v -1.088685 -0.617828 3.722777
v -1.090247 -0.620663 3.725133
v -1.089173 -0.617017 3.722863
v -1.088383 -0.617001 3.721974
v -1.088721 -0.617779 3.722659
v -1.088801 -0.619116 3.722735
v -1.098223 -0.631390 3.712716
v -1.088496 -0.619456 3.722443
v -1.088905 -0.618404 3.722955
v -1.090223 -0.623954 3.725434
v -1.088553 -0.616409 3.721147
v -1.088408 -0.616782 3.722061
v -1.088313 -0.616743 3.721067
v -1.088496 -0.619456 3.722443
v -1.088548 -0.617937 3.722584
v -1.088205 -0.616615 3.721104
v -1.088252 -0.617025 3.723025
v -1.096301 -0.679910 3.601116
v -1.099965 -0.646706 3.690581
v -1.073115 -0.630775 3.653914
v -1.091763 -0.617029 3.709627
v -1.079008 -0.620339 3.694149
v -1.088673 -0.613885 3.715888
v -1.099800 -0.661229 3.621696
v -1.069648 -0.622685 3.670267
v -1.065799 -0.627402 3.655360
v -1.069281 -0.623747 3.669173
v -1.061542 -0.629071 3.645100
v -1.077011 -0.696199 3.490532
v -1.093952 -0.674355 3.578531
v -1.067443 -0.628161 3.676713
v -1.045272 -0.645921 3.555633
v -1.048507 -0.640714 3.588398
v -1.085285 -0.684975 3.598050
v -1.085285 -0.684975 3.598050
v -1.048507 -0.640714 3.588398
v -1.081039 -0.692125 3.505595
v -1.081901 -0.692704 3.560290
v -1.038999 -0.652204 3.529445
v -1.085288 -0.684964 3.598053
v -1.046327 -0.679883 3.524295
v -1.076961 -0.696248 3.490053
v -1.048507 -0.640714 3.588398
v -1.045216 -0.646385 3.555521
v -1.068975 -0.697398 3.463697
v -1.064178 -0.695570 3.528264
v -1.038834 -0.651720 3.528964
v -1.045423 -0.664236 3.464314
v -1.069193 -0.696185 3.463297
v -1.038127 -0.658107 3.497552
v -1.064614 -0.694495 3.449751
v -1.067170 -0.695453 3.459474
v -1.065309 -0.691472 3.446549
v -1.064614 -0.694495 3.449751
v -1.058647 -0.682525 3.430843
v -1.067193 -0.687844 3.431714
v -1.067090 -0.690001 3.433887
v -1.067886 -0.690073 3.440451
v -1.067536 -0.690729 3.441789
v -1.066436 -0.689298 3.432649
v -1.065309 -0.691472 3.446549
v -1.064102 -0.689204 3.430672
v -1.066976 -0.690458 3.432707
v -1.065273 -0.692194 3.447048
v -1.067886 -0.690073 3.440451
v -1.064614 -0.694495 3.449751
v -1.064614 -0.694495 3.449751
v -1.061943 -0.685810 3.452939
v -1.054633 -0.685082 3.445549
v -1.061943 -0.685810 3.452939
v -1.065309 -0.691472 3.446549
v -1.053608 -0.690840 3.444731
v -1.053459 -0.673336 3.452374
v -1.038742 -0.678954 3.479833
v -1.058629 -0.686092 3.427278
v -1.064102 -0.689204 3.430672
v -1.053765 -0.690420 3.444446
v -1.058491 -0.686291 3.427236
v -1.058490 -0.686269 3.427251
v -1.057206 -0.684796 3.429404
v -1.058356 -0.686486 3.427189
v -1.057206 -0.684796 3.429404
v -1.053765 -0.690420 3.444446
v -1.058629 -0.686092 3.427278
v -1.056568 -0.684313 3.432353
v -1.054962 -0.683547 3.425743
v -1.056502 -0.686059 3.429503
v -1.053718 -0.684698 3.426607
v -1.056201 -0.684636 3.428442
v -1.050261 -0.683973 3.436210
v -1.051864 -0.684111 3.432231
v -1.054478 -0.683133 3.427228
v -1.051864 -0.684111 3.432231
v -1.053804 -0.682690 3.427456
v -1.052851 -0.683206 3.427555
v -1.053765 -0.690420 3.444446
v -1.057217 -0.684778 3.429397
v -1.056203 -0.684753 3.431652
v -1.056201 -0.684636 3.428442
v -1.056260 -0.684756 3.431641
v -1.057206 -0.684796 3.429404
v -1.054373 -0.684908 3.436707
v -1.053672 -0.683843 3.439240
v -1.053704 -0.683867 3.436212
v -1.055990 -0.685017 3.431419
v -1.053565 -0.684506 3.436394
v -1.053730 -0.684773 3.438014
v -1.053334 -0.684489 3.436493
v -1.050357 -0.683468 3.436141
v -1.053272 -0.685275 3.436836
v -1.053541 -0.684160 3.436775
v -1.054016 -0.684483 3.436692
v -1.053286 -0.685280 3.436836
v -1.053406 -0.684361 3.437370
v -1.053286 -0.685280 3.436836
v -1.053497 -0.684134 3.437076
v -1.053279 -0.685277 3.436836
v -1.053597 -0.684597 3.437892
v -1.053286 -0.685280 3.436836
v -1.054075 -0.684766 3.437386
v -1.053286 -0.685280 3.436836
v -1.050437 -0.682286 3.435878
v -1.053704 -0.683867 3.436212
v -1.053696 -0.683870 3.436210
v -1.049906 -0.682641 3.436292
v -1.050608 -0.682076 3.435465
v -1.053224 -0.682955 3.439000
v -1.053310 -0.684397 3.437972
v -1.060558 -0.688096 3.440357
v -1.051925 -0.685369 3.439287
v -1.051925 -0.685369 3.439287
v -1.049297 -0.679577 3.429518
v -1.048763 -0.674756 3.426102
v -1.049209 -0.674779 3.427190
v -1.049919 -0.673815 3.426116
v -1.048902 -0.674251 3.427032
v -1.048728 -0.673707 3.427503
v -1.049359 -0.674645 3.427022
v -1.048600 -0.675214 3.427527
v -1.040456 -0.673502 3.452221
v -1.050061 -0.666088 3.451957
v -1.046643 -0.673106 3.435607
v -1.053910 -0.673689 3.451704
v -1.047228 -0.670523 3.437945
v -1.047352 -0.673074 3.435320
v -1.047352 -0.673074 3.435320
v -1.046798 -0.670571 3.437653
v -1.036653 -0.669858 3.463370
v -1.036653 -0.669858 3.463370
v -1.047375 -0.670360 3.438226
v -1.050061 -0.666088 3.451957
v -1.048776 -0.667259 3.442918
v -1.048713 -0.667299 3.442930
v -1.050061 -0.666088 3.451957
v -1.045657 -0.664445 3.462798
v -1.047948 -0.670158 3.438733
v -1.048713 -0.667299 3.442930
v -1.036233 -0.669293 3.462801
v -1.038286 -0.659124 3.489236
v -1.038746 -0.668287 3.466595
v -1.053043 -0.682039 3.426711
v -1.051864 -0.684111 3.432231
v -1.048631 -0.679149 3.426474
v -1.049197 -0.680092 3.430926
v -1.050357 -0.683468 3.436141
v -1.052648 -0.685968 3.437061
v -1.053279 -0.685277 3.436836
v -1.052314 -0.684031 3.438972
v -1.039310 -0.679515 3.476801
v -1.050587 -0.682721 3.435672
v -1.051864 -0.684111 3.432231
v -1.053765 -0.690420 3.444446
v -1.052801 -0.684251 3.438532
v -1.052131 -0.684653 3.439146
v -1.053910 -0.673689 3.451704
v -1.052114 -0.684702 3.439142
v -1.039310 -0.679515 3.476801
v -1.053765 -0.690420 3.444446
v -1.052520 -0.685058 3.438838
v -1.051925 -0.685369 3.439287
v -1.049480 -0.682854 3.436770
v -1.052314 -0.684031 3.438972
v -1.049001 -0.683901 3.436003
v -1.051925 -0.685369 3.439287
v -1.048026 -0.679132 3.428240
v -1.050707 -0.674454 3.426515
v -1.049504 -0.674443 3.426047
v -1.050263 -0.673180 3.427055
v -1.048988 -0.674532 3.425769
v -1.049263 -0.674186 3.427423
v -1.049094 -0.674430 3.428103
v -1.047690 -0.674994 3.429128
v -1.048839 -0.674515 3.427455
v -1.047690 -0.674994 3.429128
v -1.048543 -0.674692 3.428554
v -1.049037 -0.676294 3.426996
v -1.049838 -0.675214 3.429223
v -1.048332 -0.675782 3.427263
v -1.048283 -0.677910 3.431551
v -1.047423 -0.678208 3.434222
v -1.049718 -0.677285 3.433333
v -1.047352 -0.673074 3.435320
v -1.048451 -0.680810 3.433738
v -1.050163 -0.681356 3.434848
v -1.049655 -0.681235 3.434598
v -1.049906 -0.682641 3.436292
v -1.050699 -0.681899 3.435512
v -1.050129 -0.682860 3.436172
v -1.048859 -0.682937 3.435426
v -1.048845 -0.680078 3.436770
v -1.053655 -0.679588 3.432891
v -1.049767 -0.678372 3.432913
v -1.049197 -0.680092 3.430926
v -1.048469 -0.678265 3.431817
v -1.048868 -0.678303 3.433005
v -1.048615 -0.678313 3.432325
v -1.050094 -0.681186 3.434677
v -1.048878 -0.678352 3.433139
v -1.048610 -0.678482 3.433249
v -1.048258 -0.678045 3.431409
v -1.048403 -0.678269 3.432290
v -1.048875 -0.677848 3.432936
v -1.048235 -0.678247 3.432325
v -1.049155 -0.678148 3.432982
v -1.048499 -0.678284 3.432348
v -1.048500 -0.677802 3.432799
v -1.048845 -0.680078 3.436770
v -1.048845 -0.680078 3.436770
v -1.048469 -0.678413 3.432941
v -1.048845 -0.680078 3.436770
v -1.048451 -0.680810 3.433738
v -1.050699 -0.681899 3.435512
v -1.051864 -0.684111 3.432231
v -1.048451 -0.680810 3.433738
v -1.048141 -0.678572 3.433659
v -1.048451 -0.680810 3.433738
v -1.046316 -0.680464 3.432679
v -1.048451 -0.680810 3.433738
vn -0.6318 0.7416 0.2255
vn -0.9497 -0.2788 -0.1428
vn -0.9432 0.2518 -0.2168
vn -0.8025 0.4736 -0.3630
vn 0.3105 0.7084 0.6339
vn 0.2341 0.5764 0.7830
vn 0.2967 0.5891 0.7516
vn -0.9697 -0.1638 0.1814
vn 0.0875 -0.9676 0.2369
vn 0.1915 -0.8789 0.4369
vn -0.0293 -0.9430 0.3314
vn 0.5984 0.7971 -0.0805
vn 0.6711 0.7237 -0.1611
vn 0.6414 0.7483 -0.1693
vn 0.6779 -0.6406 0.3607
vn 0.5250 0.8445 -0.1062
vn 0.5290 0.8485 0.0171
vn 0.6127 0.7862 -0.0804
vn 0.1610 0.9718 -0.1724
vn 0.1909 0.9681 -0.1622
vn 0.3484 0.9225 -0.1664
vn 0.2126 0.9618 -0.1726
vn -0.5450 0.7943 -0.2684
vn -0.6774 0.6665 -0.3113
vn -0.4957 0.8638 -0.0900
vn -0.1614 0.8902 0.4260
vn -0.0826 0.8567 0.5092
vn -0.4900 0.8513 0.1877
vn -0.5202 0.7864 0.3333
vn -0.4299 0.7914 0.4347
vn -0.7426 0.3085 0.5944
vn -0.5989 0.6725 -0.4349
vn -0.7117 0.6081 -0.3519
vn -0.4091 0.7160 0.5657
vn -0.6727 -0.7352 0.0831
vn 0.3567 0.9120 -0.2027
vn 0.5128 0.8163 -0.2658
vn 0.5957 0.7759 -0.2078
vn -0.9122 0.2716 0.3067
vn -0.9410 0.3294 0.0771
vn -0.8808 0.4110 0.2351
vn 0.8381 -0.4068 0.3635
vn 0.8324 -0.4895 0.2599
vn -0.9696 0.1198 -0.2132
vn -0.8700 -0.1362 -0.4739
vn -0.8730 0.3020 -0.3830
vn -0.8250 0.4009 -0.3984
vn -0.8617 0.4571 0.2205
vn -0.8712 0.4404 0.2168
vn 0.9414 -0.0640 0.3312
vn 0.9265 -0.1320 0.3524
vn 0.9724 -0.1246 0.1972
vn 0.8768 0.2941 0.3803
vn 0.8453 0.1318 0.5177
vn 0.6501 0.3268 0.6860
vn 0.8543 0.0560 0.5167
vn -0.9143 0.3611 0.1836
vn -0.3884 0.8137 -0.4323
vn -0.3882 0.8140 -0.4321
vn -0.4049 0.8308 -0.3818
vn -0.8920 -0.3377 0.3003
vn -0.9674 -0.1696 0.1882
vn -0.8896 -0.3285 0.3173
vn 0.0014 0.9867 -0.1626
vn 0.5999 0.7917 -0.1153
vn 0.5167 0.8239 -0.2330
vn -0.8501 0.3690 0.3757
vn -0.9172 0.3077 0.2531
vn -0.8539 0.4473 0.2662
vn -0.8398 0.3389 0.4241
vn -0.5715 -0.8006 0.1799
vn -0.6642 0.6872 -0.2941
vn -0.2768 0.8846 -0.3754
vn -0.5604 0.7795 -0.2798
vn -0.8502 0.3025 -0.4309
vn 0.7707 0.6108 0.1814
vn 0.8773 0.3239 0.3542
vn -0.8803 0.4013 -0.2530
vn -0.8705 0.4685 -0.1510
vn 0.8021 0.5482 0.2369
vn -0.4808 0.8314 -0.2787
vn -0.6529 0.6692 -0.3548
vn -0.7026 0.6941 -0.1568
vn 0.9286 -0.1365 0.3450
vn -0.6226 0.7374 -0.2619
vn 0.7860 0.6182 0.0002
vn 0.7775 -0.5896 0.2186
vn -0.3580 -0.9179 0.1711
vn 0.6383 -0.7018 0.3164
vn 0.4636 0.8829 -0.0747
vn -0.7908 0.5072 -0.3425
vn -0.2616 -0.9644 0.0391
vn 0.9335 -0.2524 0.2547
vn 0.8057 -0.5624 0.1861
vn -0.0178 -0.9990 0.0413
vn 0.0968 0.9785 -0.1819
vn 0.4164 0.8980 -0.1419
vn 0.3268 -0.9451 -0.0065
vn 0.2400 -0.9638 0.1160
vn 0.2378 -0.9471 0.2157
vn 0.1498 0.9483 -0.2799
vn -0.2869 0.9459 -0.1513
vn 0.1543 0.9464 -0.2838
vn -0.8577 -0.4371 -0.2707
vn -0.8305 -0.4689 -0.3005
vn -0.8385 -0.4750 -0.2670
vn -0.6971 -0.7110 -0.0927
vn -0.7061 -0.6996 -0.1094
vn -0.6866 -0.7219 -0.0858
vn 0.2299 -0.9394 -0.2543
vn 0.2118 -0.9379 -0.2747
vn 0.2432 -0.9373 -0.2495
vn -0.5153 0.8529 0.0843
vn -0.6080 0.5266 -0.5942
vn -0.6072 0.7220 -0.3317
vn -0.7797 0.6180 -0.1009
vn -0.8276 0.5581 0.0607
vn -0.8378 0.5444 -0.0411
vn 0.5740 -0.7974 -0.1861
vn 0.8615 -0.5051 0.0529
vn 0.0306 -0.9895 -0.1415
vn 0.3033 -0.8938 -0.3304
vn 0.2889 -0.9176 -0.2730
vn 0.9246 -0.2351 -0.2996
vn -0.5357 0.6085 -0.5855
vn -0.3589 0.6747 -0.6450
vn -0.4679 0.5861 -0.6614
vn -0.4014 0.9070 0.1274
vn -0.1878 0.9800 0.0656
vn -0.4422 0.8932 0.0812
vn -0.4294 0.8831 0.1893
vn -0.4038 0.9127 0.0629
vn -0.0390 0.9955 -0.0861
vn 0.5649 -0.8073 -0.1710
vn 0.5444 -0.7871 -0.2901
vn 0.2673 -0.9595 0.0891
vn -0.3663 0.9259 0.0928
vn 0.9162 -0.1959 -0.3497
vn 0.9340 -0.2610 -0.2442
vn 0.8926 -0.3037 -0.3334
vn -0.4358 0.8967 0.0779
vn -0.8088 0.5746 -0.1254
vn -0.2928 0.9223 -0.2521
vn -0.2945 0.9207 -0.2559
vn -0.2848 0.9313 -0.2271
vn -0.1432 0.7183 0.6808
vn -0.3463 0.9184 -0.1914
vn -0.7603 0.2827 -0.5848
vn -0.8259 0.5114 0.2373
vn 0.9202 0.1372 -0.3667
vn -0.8519 0.4877 -0.1908
vn -0.9082 0.2356 -0.3459
vn -0.8642 0.3145 -0.3927
vn -0.8857 0.2225 -0.4074
vn -0.0313 0.9900 -0.1373
vn 0.6523 0.6765 -0.3418
vn 0.5654 0.7766 -0.2779
vn 0.4714 0.8331 -0.2894
vn 0.9988 -0.0351 0.0328
vn 0.6702 -0.7120 -0.2097
vn 0.7431 -0.6468 -0.1715
vn 0.7282 -0.5830 -0.3604
vn 0.0238 -0.9500 0.3112
vn 0.7073 -0.6959 -0.1244
vn 0.7341 -0.6746 -0.0767
vn 0.7168 -0.6877 -0.1151
vn -0.8665 0.3127 -0.3891
vn -0.7999 0.3665 -0.4753
vn -0.6415 0.5542 -0.5304
vn 0.8592 -0.4686 -0.2052
vn -0.9265 -0.0042 -0.3763
vn -1.0000 -0.0022 0.0025
vn 0.8766 -0.4762 -0.0685
vn 0.9163 -0.3425 -0.2078
vn 0.9819 -0.1629 -0.0965
vn 0.9455 -0.1445 -0.2917
vn 0.9899 -0.0654 -0.1261
vn -0.9047 0.2914 0.3108
vn -0.8788 0.3310 0.3438
vn -0.9983 0.0357 -0.0465
vn -0.9989 0.0134 -0.0458
vn -0.9982 0.0302 -0.0522
vn -0.8560 0.2731 0.4390
vn 0.5951 -0.7482 0.2932
vn 0.7267 -0.5942 -0.3447
vn 0.7907 0.5626 -0.2415
vn 0.9388 -0.3030 -0.1638
vn 0.9383 -0.2896 -0.1891
s 1
f 1//1 2//1 3//1
f 4//2 5//3 6//4
f 9//5 10//6 11//7
f 4//2 12//8 5//3
f 13//9 14//10 15//11
f 20//12 21//13 22//14
f 13//9 25//15 14//10
f 26//16 27//17 28//18
f 29//19 30//20 31//21
f 32//22 31//21 30//20
f 33//23 34//24 35//25
f 18//26 10//6 36//27
f 36//27 10//6 9//5
f 39//28 35//25 40//29
f 35//25 39//28 33//23
f 41//30 39//28 40//29
f 43//31 44//31 45//31
f 42//32 46//33 33//23
f 47//34 48//34 49//34
f 4//2 128//35 12//8
f 50//36 21//13 20//12
f 51//37 20//12 24//38
f 46//33 34//24 33//23
f 53//39 54//40 55//41
f 25//15 57//42 58//43
f 59//44 54//40 71//45
f 75//46 56//47 46//33
f 76//48 77//49 55//41
f 76//48 55//41 54//40
f 84//50 83//51 85//52
f 73//53 80//54 72//55
f 86//56 80//54 73//53
f 54//40 59//44 62//57
f 54//40 62//57 76//48
f 96//58 97//59 98//60
f 99//61 74//62 75//63
f 98//64 100//65 101//66
f 106//67 105//68 104//69
f 118//70 105//68 106//67
f 23//71 4//2 6//4
f 128//35 13//9 15//11
f 52//72 129//73 34//24
f 46//33 52//72 34//24
f 52//72 46//33 56//47
f 130//74 56//47 98//64
f 56//47 131//75 98//64
f 132//76 133//77 73//53
f 73//53 133//77 86//56
f 4//2 134//78 140//79
f 23//71 134//78 4//2
f 135//80 132//76 73//53
f 129//73 20//12 51//37
f 52//72 56//47 130//74
f 98//64 136//81 130//74
f 137//82 98//64 101//66
f 136//81 98//64 137//82
f 139//83 140//79 50//36
f 20//12 129//73 50//36
f 25//15 141//84 57//42
f 142//85 130//74 136//81
f 138//86 141//84 143//87
f 141//84 138//86 135//80
f 135//80 73//53 141//84
f 13//9 128//35 144//88
f 50//36 129//73 139//83
f 25//15 13//9 145//89
f 129//73 52//72 139//83
f 138//86 146//90 135//80
f 140//79 147//91 4//2
f 144//88 128//35 148//92
f 139//83 52//72 142//85
f 130//74 142//85 52//72
f 149//93 143//87 141//84
f 4//2 148//92 128//35
f 151//94 25//15 145//89
f 141//84 25//15 151//94
f 148//92 147//91 152//95
f 4//2 147//91 148//92
f 151//94 149//93 141//84
f 142//85 136//81 153//96
f 149//93 154//97 143//87
f 139//83 147//91 140//79
f 152//95 155//98 148//92
f 148//92 155//98 156//99
f 156//99 150//100 148//92
f 156//99 151//94 145//89
f 157//101 158//102 142//85
f 157//101 160//103 158//102
f 161//104 162//105 163//106
f 176//107 168//108 167//109
f 177//110 173//111 172//112
f 171//113 178//114 179//115
f 159//116 180//117 181//118
f 155//98 182//119 156//99
f 180//117 159//116 158//102
f 159//116 139//83 158//102
f 156//99 182//119 151//94
f 158//102 139//83 142//85
f 149//93 151//94 184//120
f 164//121 182//119 155//98
f 185//122 182//119 186//123
f 191//124 192//124 193//124
f 194//125 166//126 165//127
f 169//128 195//129 170//130
f 169//131 171//113 179//115
f 186//123 182//119 164//121
f 195//129 198//132 199//133
f 197//134 196//135 200//136
f 195//129 212//137 198//132
f 212//137 195//129 169//128
f 207//138 213//139 206//140
f 212//137 169//128 217//141
f 198//132 212//137 236//142
f 234//143 237//144 235//145
f 238//146 239//146 240//146
f 179//115 241//147 169//131
f 178//114 183//148 179//115
f 180//117 158//102 251//149
f 256//150 257//150 258//150
f 261//151 262//152 253//153
f 253//153 262//152 252//154
f 263//155 264//155 265//155
f 266//156 267//157 268//158
f 158//102 268//158 267//157
f 158//102 160//103 268//158
f 184//120 269//159 149//93
f 271//160 274//161 272//162
f 197//134 200//136 214//163
f 279//164 276//165 275//166
f 290//167 179//115 183//148
f 291//168 292//169 253//153
f 182//119 294//170 184//120
f 198//132 236//142 295//171
f 295//171 236//142 296//172
f 271//160 273//173 274//161
f 273//173 309//174 274//161
f 273//173 308//175 309//174
f 310//176 309//174 308//175
f 310//176 308//175 270//177
f 236//142 311//178 296//172
f 296//172 311//178 312//179
f 319//180 320//181 329//182
f 291//168 253//153 252//154
f 312//179 311//178 340//183
f 341//184 342//184 343//184
f 274//161 344//185 272//162
f 347//186 309//174 310//176
f 310//176 270//177 348//187
f 293//188 348//187 184//120
f 348//187 270//177 184//120
f 184//120 151//94 182//119
f 269//159 184//120 270//177
l 247 248
l 187 188
l 81 82
l 288 289
l 282 283
l 332 333
l 203 204
l 122 125
l 87 88
l 280 281
l 218 219
l 205 242
l 259 260
l 208 209
l 226 227
l 222 223
l 119 120
l 303 304
l 245 246
l 65 66
l 83 93
l 243 244
l 126 127
l 230 231
l 277 278
l 254 255
l 78 79
l 325 326
l 327 328
l 336 337
l 123 124
l 16 17
l 220 221
l 201 202
l 338 339
l 102 103
l 116 117
l 232 233
l 109 110
l 189 190
l 323 324
l 284 285
l 334 335
l 330 331
l 301 302
l 228 229
l 317 318
l 121 122
l 91 92
l 7 8
l 18 19
l 299 300
l 111 112
l 249 250
l 224 225
l 321 322
l 69 70
l 63 64
l 286 287
l 210 211
l 114 115
l 174 175
l 300 307
l 297 298
l 305 306
l 67 68
l 313 314
l 215 216
l 107 108
l 37 38
l 94 95
l 89 90
l 345 346
l 60 61
l 315 316
l 105 113
