# Blender v2.78 (sub 0) OBJ File: 'exporter.blend'
# www.blender.org
o FJ1580.obj_grp1.477
v -0.038656 -0.625430 6.721632
v -0.039060 -0.607447 6.717420
v -0.038951 -0.593884 6.710451
v -0.034973 -0.609721 6.721162
v -0.034102 -0.672382 6.732043
v -0.034978 -0.652192 6.731195
v -0.035153 -0.655373 6.726387
v -0.029296 -0.660069 6.725582
v -0.028626 -0.676201 6.739003
v -0.035633 -0.616184 6.714911
v -0.032056 -0.613859 6.708992
v -0.036153 -0.593315 6.706045
v -0.031800 -0.596102 6.699006
v -0.035407 -0.598965 6.716252
v -0.031779 -0.587300 6.692056
v -0.035992 -0.579630 6.698463
v -0.035059 -0.582085 6.705588
v -0.036428 -0.578842 6.700669
v -0.028276 -0.588039 6.710083
v -0.033854 -0.571663 6.685200
v -0.032802 -0.571741 6.684845
v -0.032114 -0.572509 6.684472
v -0.032483 -0.572732 6.696677
v -0.033541 -0.569331 6.686549
v -0.032830 -0.571755 6.684817
v -0.033618 -0.571755 6.685099
v -0.034411 -0.570845 6.685925
v -0.032587 -0.568367 6.687584
v -0.033541 -0.569253 6.686575
v -0.029352 -0.696190 6.735435
v -0.026110 -0.696712 6.733418
v -0.022967 -0.740885 6.740252
v -0.026125 -0.655972 6.736387
v -0.028485 -0.630436 6.714163
v -0.016008 -0.629294 6.712956
v -0.019152 -0.651167 6.737418
v -0.022013 -0.595758 6.695052
v -0.024148 -0.580763 6.681071
v -0.025217 -0.595721 6.714159
v -0.031194 -0.577462 6.681901
v -0.024782 -0.579808 6.680620
v -0.027636 -0.578242 6.681026
v -0.032196 -0.573207 6.684240
v -0.032084 -0.572501 6.684488
v -0.031125 -0.572487 6.684394
v -0.032145 -0.573160 6.684249
v -0.032084 -0.573248 6.684348
v -0.014318 -0.575805 6.685803
v -0.028235 -0.568324 6.687897
v -0.017028 -0.577604 6.692770
v -0.022003 -0.744765 6.737044
v -0.019730 -0.743429 6.733992
v -0.018746 -0.747494 6.741525
v -0.023169 -0.724897 6.734794
v -0.016174 -0.743429 6.745278
v -0.023065 -0.713483 6.743204
v -0.017993 -0.711184 6.744844
v -0.013373 -0.708084 6.733672
v -0.008177 -0.684214 6.732656
v -0.020759 -0.661785 6.726570
v -0.017160 -0.610718 6.723398
v -0.020095 -0.581375 6.682003
v -0.025366 -0.579219 6.680827
v -0.024619 -0.579966 6.680686
v -0.019281 -0.580604 6.681531
v -0.019281 -0.580604 6.681531
v -0.017271 -0.574323 6.686808
v -0.013330 -0.751577 6.735164
v -0.015519 -0.750057 6.734345
v -0.019443 -0.748097 6.734980
v -0.014054 -0.751751 6.740272
v -0.015704 -0.750043 6.734190
v -0.009263 -0.749235 6.733381
v -0.012022 -0.749026 6.743395
v -0.008356 -0.737530 6.744646
v -0.017269 -0.666657 6.741340
v -0.011968 -0.645878 6.736639
v -0.009928 -0.594643 6.692585
v -0.017847 -0.586514 6.704350
v -0.018649 -0.581469 6.681286
v -0.006108 -0.589503 6.687347
v -0.020166 -0.581581 6.681813
v -0.019281 -0.580604 6.681531
v -0.018648 -0.581459 6.681296
v -0.020166 -0.581581 6.681813
v -0.018648 -0.581459 6.681296
v -0.017083 -0.581470 6.681595
v -0.012398 -0.583019 6.681665
v -0.005307 -0.580714 6.685230
v -0.014344 -0.575851 6.685892
v -0.008851 -0.752184 6.737180
v -0.007602 -0.749616 6.741859
v -0.006544 -0.718973 6.735051
v -0.012338 -0.681336 6.742641
v -0.008578 -0.703092 6.742617
v -0.007058 -0.639966 6.720949
v -0.007941 -0.628024 6.714174
v -0.005240 -0.605259 6.701896
v -0.008191 -0.603489 6.718767
v -0.009983 -0.589786 6.708004
v -0.010351 -0.583707 6.682089
v -0.009747 -0.581507 6.697189
v -0.004536 -0.593443 6.706059
v -0.011945 -0.582971 6.681923
v -0.010338 -0.583707 6.682094
v -0.006976 -0.580614 6.691670
v -0.005689 -0.749992 6.739004
v -0.006146 -0.748286 6.734409
v -0.004446 -0.739940 6.740513
v -0.005358 -0.730123 6.735238
v -0.005358 -0.730123 6.735238
v -0.004916 -0.714281 6.737329
v -0.004808 -0.683766 6.735638
v -0.007310 -0.676855 6.741057
v -0.004459 -0.662792 6.731861
v -0.006955 -0.656106 6.737459
v -0.004302 -0.659287 6.731404
v -0.004560 -0.643953 6.727077
v -0.003525 -0.629292 6.726460
v -0.007318 -0.643509 6.734213
v -0.004526 -0.614538 6.722577
v -0.004464 -0.600073 6.699010
v -0.004576 -0.614546 6.722515
v -0.004297 -0.606899 6.717398
v -0.005517 -0.598021 6.696131
v -0.003449 -0.585181 6.684343
v -0.004514 -0.587552 6.685615
v -0.003480 -0.585191 6.684348
v -0.005299 -0.585251 6.682963
v -0.007480 -0.583726 6.682563
v -0.005328 -0.584449 6.682704
v -0.004514 -0.585238 6.682940
v -0.004514 -0.585238 6.682940
v -0.004741 -0.585262 6.683334
v -0.004514 -0.585238 6.682940
v -0.007480 -0.583726 6.682563
vn -0.9972 -0.0361 0.0649
vn -0.8957 0.1334 0.4243
vn -0.9740 0.2100 0.0847
vn -0.9847 -0.1665 0.0513
vn -0.7013 -0.2347 -0.6731
vn -0.7593 0.1238 0.6389
vn -0.7691 -0.2149 -0.6019
vn -0.1139 -0.2607 -0.9587
vn -0.3703 0.3508 0.8601
vn -0.8565 -0.2196 -0.4671
vn -0.6215 -0.3991 -0.6741
vn -0.5848 -0.3446 -0.7343
vn -0.2793 0.4348 0.8561
vn -0.7018 -0.4376 -0.5621
vn -0.6814 -0.4817 -0.5510
vn -0.9509 -0.1065 -0.2905
vn -0.3331 0.6249 0.7060
vn -0.8889 0.3890 0.2420
vn 0.1526 0.5730 0.8053
vn -0.5406 -0.6946 -0.4745
vn -0.2275 0.8269 0.5143
vn -0.7901 0.4632 -0.4015
vn -0.1060 0.5096 -0.8539
vn -0.3184 0.4992 -0.8059
vn -0.8710 0.3069 -0.3836
vn -0.3864 0.9196 -0.0710
vn -0.8836 -0.2153 0.4157
vn -0.5633 0.0513 0.8247
vn -0.9749 -0.1726 -0.1409
vn -0.2694 -0.1651 -0.9488
vn -0.3403 0.2069 0.9173
vn -0.1906 -0.3434 -0.9196
vn 0.1033 -0.4527 -0.8856
vn -0.1804 0.2350 0.9551
vn -0.1772 -0.5757 -0.7983
vn -0.0952 -0.5681 -0.8174
vn -0.6305 -0.1174 -0.7673
vn -0.2600 -0.5808 -0.7714
vn -0.0857 0.1042 -0.9908
vn -0.8990 -0.1723 -0.4027
vn -0.0879 0.2542 -0.9631
vn -0.0079 0.4726 -0.8813
vn -0.0878 0.1692 -0.9817
vn -0.2422 0.4662 -0.8509
vn -0.0218 0.5731 -0.8192
vn 0.2441 0.9615 -0.1258
vn 0.1342 0.5806 -0.8031
vn -0.1630 0.3104 -0.9365
vn 0.3233 0.7968 0.5104
vn -0.3566 -0.0366 -0.9335
vn -0.4486 -0.1092 -0.8871
vn -0.8710 -0.4520 -0.1924
vn -0.2215 -0.2302 0.9476
vn -0.5958 0.0069 0.8031
vn -0.1131 0.0858 0.9899
vn 0.0470 -0.0355 -0.9983
vn 0.3796 -0.1236 -0.9169
vn 0.1438 -0.2586 -0.9552
vn 0.0694 0.4379 0.8964
vn 0.0316 0.5685 0.8221
vn -0.0261 -0.7418 -0.6701
vn 0.2039 0.5286 -0.8240
vn 0.2326 0.4575 -0.8582
vn 0.1980 0.4746 -0.8577
vn 0.0970 -0.3586 -0.9285
vn 0.5190 0.8296 0.2059
vn -0.6464 -0.7605 0.0617
vn -0.4552 -0.8332 -0.3139
vn -0.1905 -0.8644 -0.4653
vn -0.2034 -0.3443 -0.9165
vn -0.6084 -0.6043 0.5144
vn 0.2103 -0.3743 -0.9031
vn -0.2538 -0.9070 0.3361
vn 0.0343 -0.4848 0.8740
vn 0.3992 -0.0478 0.9156
vn -0.0641 0.1829 0.9810
vn 0.1677 0.2547 0.9524
vn -0.0365 -0.6214 -0.7826
vn 0.1224 0.7445 0.6563
vn 0.0534 -0.7229 -0.6889
vn 0.0961 -0.3463 -0.9332
vn -0.3243 0.0323 -0.9454
vn -0.0125 -0.9953 0.0961
vn 0.0242 0.0334 -0.9991
vn 0.1810 0.3940 -0.9011
vn 0.0152 -0.1274 -0.9917
vn 0.7382 0.5964 -0.3152
vn 0.4032 0.8573 0.3200
vn 0.3286 -0.9350 -0.1331
vn 0.5055 -0.5169 0.6908
vn 0.4016 0.0364 -0.9151
vn 0.1294 0.0973 0.9868
vn 0.6138 0.0078 0.7894
vn 0.3762 -0.2346 -0.8964
vn 0.6526 0.1604 0.7405
vn 0.6293 0.1084 0.7696
vn 0.5658 -0.3669 -0.7384
vn 0.1459 -0.4583 -0.8767
vn 0.5954 0.2272 0.7706
vn 0.1561 -0.5686 -0.8076
vn 0.3626 0.4984 0.7875
vn 0.3092 0.6819 0.6628
vn -0.0326 -0.6714 -0.7404
vn 0.3814 0.7870 0.4850
vn 0.8530 0.3857 0.3517
vn 0.1987 0.5784 -0.7912
vn 0.6361 0.7110 0.2998
vn 0.8361 -0.5205 0.1732
vn 0.6963 -0.2832 -0.6596
vn 0.9610 -0.0572 0.2707
vn 0.4281 0.0361 -0.9030
vn 0.9624 -0.0203 -0.2708
vn 0.9977 0.0504 -0.0443
vn 0.9772 -0.0281 -0.2106
vn 0.9970 0.0713 0.0316
vn 0.9081 -0.0887 -0.4093
vn 0.9004 0.1461 0.4099
vn 0.9017 -0.3250 -0.2853
vn 0.6919 0.3656 0.6226
vn 0.9974 0.0564 -0.0453
vn 0.8231 0.3520 0.4456
vn 0.6848 -0.4715 -0.5556
vn 0.8969 0.3873 -0.2134
vn 0.3689 -0.6901 -0.6226
vn 0.6636 -0.5556 -0.5009
vn -0.0305 -0.5403 -0.8409
vn 0.1288 -0.0314 -0.9912
vn -0.0230 -0.3108 -0.9502
vn -0.0060 -0.7583 -0.6518
vn -0.0152 -0.3039 -0.9526
vn 0.4921 0.4119 -0.7669
vn 0.6819 -0.5525 -0.4794
vn 0.2857 0.4534 -0.8443
vn 0.1656 0.1599 -0.9731
s 1
f 1//1 2//2 3//3
f 5//4 1//1 7//5
f 5//4 6//6 1//1
f 7//5 10//7 8//8
f 10//7 7//5 1//1
f 6//6 4//9 1//1
f 4//9 2//2 1//1
f 10//7 3//3 12//10
f 10//7 1//1 3//3
f 12//10 13//11 10//7
f 13//11 11//12 10//7
f 2//2 4//9 14//13
f 2//2 14//13 3//3
f 13//11 12//10 15//14
f 21//15 15//14 12//10
f 12//10 3//3 16//16
f 3//3 14//13 17//17
f 12//10 16//16 21//15
f 18//18 16//16 3//3
f 3//3 17//17 18//18
f 14//13 19//19 17//17
f 16//16 18//18 20//20
f 16//16 20//20 21//15
f 18//18 17//17 23//21
f 24//22 25//23 26//24
f 27//25 24//22 26//24
f 20//20 18//18 27//25
f 27//25 23//21 28//26
f 27//25 18//18 23//21
f 24//22 27//25 28//26
f 32//27 9//28 30//29
f 31//30 30//29 7//5
f 30//29 5//4 7//5
f 31//30 7//5 8//8
f 5//4 30//29 9//28
f 6//6 5//4 9//28
f 6//6 9//28 33//31
f 8//8 11//12 34//32
f 35//33 8//8 34//32
f 11//12 8//8 10//7
f 4//9 6//6 33//31
f 4//9 33//31 36//34
f 34//32 11//12 37//35
f 11//12 13//11 37//35
f 19//19 14//13 4//9
f 13//11 15//14 38//36
f 15//14 40//37 41//38
f 40//37 42//39 41//38
f 19//19 23//21 17//17
f 15//14 21//15 43//40
f 44//41 25//23 45//42
f 40//37 15//14 43//40
f 47//43 44//41 45//42
f 46//44 42//39 40//37
f 45//42 42//39 46//44
f 29//45 49//46 45//42
f 48//47 42//39 45//42
f 21//15 22//48 43//40
f 50//49 49//46 23//21
f 45//42 25//23 24//22
f 29//45 45//42 24//22
f 23//21 49//46 28//26
f 49//46 29//45 28//26
f 54//50 52//51 51//52
f 32//27 55//53 56//54
f 30//29 51//52 32//27
f 54//50 30//29 31//30
f 51//52 30//29 54//50
f 57//55 56//54 55//53
f 31//30 58//56 54//50
f 32//27 56//54 9//28
f 59//57 31//30 60//58
f 31//30 59//57 58//56
f 56//54 57//55 9//28
f 60//58 31//30 8//8
f 61//59 4//9 36//34
f 35//33 34//32 37//35
f 39//60 19//19 4//9
f 37//35 13//11 38//36
f 62//61 37//35 38//36
f 38//36 15//14 41//38
f 48//47 63//62 42//39
f 48//47 64//63 63//62
f 65//64 64//63 48//47
f 66//65 38//36 41//38
f 48//47 45//42 49//46
f 50//49 23//21 19//19
f 49//46 67//66 48//47
f 70//67 69//68 68//69
f 52//51 72//70 51//52
f 51//52 70//67 53//71
f 73//72 72//70 52//51
f 32//27 51//52 53//71
f 71//73 53//71 70//67
f 71//73 74//74 53//71
f 55//53 53//71 74//74
f 55//53 32//27 53//71
f 75//75 57//55 55//53
f 76//76 9//28 57//55
f 76//76 33//31 9//28
f 35//33 60//58 8//8
f 76//76 77//77 36//34
f 76//76 36//34 33//31
f 36//34 77//77 61//59
f 61//59 39//60 4//9
f 78//78 37//35 62//61
f 39//60 79//79 19//19
f 78//78 62//61 81//80
f 19//19 79//79 50//49
f 66//65 82//81 38//36
f 83//82 84//82 85//82
f 62//61 80//83 87//84
f 86//85 65//64 87//84
f 81//80 62//61 88//86
f 62//61 87//84 88//86
f 65//64 89//87 87//84
f 49//46 50//49 67//66
f 65//64 48//47 89//87
f 50//49 90//88 67//66
f 68//69 71//73 70//67
f 91//89 71//73 68//69
f 72//70 73//72 68//69
f 68//69 73//72 91//89
f 91//89 92//90 71//73
f 74//74 71//73 92//90
f 74//74 75//75 55//53
f 52//51 54//50 93//91
f 73//72 52//51 93//91
f 93//91 54//50 58//56
f 75//75 94//92 57//55
f 95//93 94//92 75//75
f 94//92 76//76 57//55
f 59//57 60//58 115//94
f 94//92 77//77 76//76
f 94//92 116//95 77//77
f 114//96 116//95 94//92
f 96//97 115//94 60//58
f 35//33 97//98 60//58
f 96//97 60//58 97//98
f 77//77 116//95 120//99
f 35//33 37//35 78//78
f 98//100 35//33 78//78
f 61//59 99//101 39//60
f 39//60 100//102 79//79
f 100//102 39//60 99//101
f 81//80 88//86 101//103
f 100//102 102//104 79//79
f 100//102 103//105 102//104
f 104//106 88//86 87//84
f 87//84 89//87 104//106
f 79//79 102//104 50//49
f 102//104 106//107 50//49
f 106//107 90//88 50//49
f 90//88 106//107 89//87
f 92//90 91//89 107//108
f 73//72 108//109 91//89
f 107//108 91//89 108//109
f 107//108 108//109 109//110
f 92//90 75//75 74//74
f 109//110 92//90 107//108
f 108//109 73//72 110//111
f 75//75 92//90 109//110
f 110//111 73//72 93//91
f 108//109 111//112 109//110
f 109//110 111//112 112//113
f 110//111 93//91 112//113
f 95//93 75//75 109//110
f 93//91 113//114 112//113
f 112//113 95//93 109//110
f 112//113 113//114 114//96
f 114//96 95//93 112//113
f 93//91 58//56 59//57
f 93//91 59//57 113//114
f 114//96 94//92 95//93
f 59//57 115//94 113//114
f 116//95 114//96 113//114
f 113//114 117//115 116//95
f 118//116 115//94 96//97
f 115//94 118//116 117//115
f 117//115 119//117 120//99
f 117//115 118//116 119//117
f 120//99 116//95 117//115
f 120//99 119//117 77//77
f 118//116 122//118 119//117
f 119//117 121//119 77//77
f 119//117 123//120 121//119
f 98//100 97//98 35//33
f 96//97 97//98 98//100
f 96//97 122//118 118//116
f 98//100 122//118 96//97
f 99//101 77//77 121//119
f 119//117 124//121 123//120
f 121//119 124//121 99//101
f 122//118 103//105 119//117
f 124//121 119//117 103//105
f 77//77 99//101 61//59
f 98//100 125//122 122//118
f 122//118 126//123 103//105
f 127//124 128//125 122//118
f 127//124 122//118 81//80
f 98//100 78//78 81//80
f 125//122 81//80 122//118
f 100//102 99//101 103//105
f 124//121 103//105 99//101
f 129//126 81//80 101//103
f 130//127 129//126 101//103
f 131//128 129//126 130//127
f 129//126 132//129 127//124
f 133//130 129//126 131//128
f 134//131 89//87 126//123
f 127//124 81//80 129//126
f 127//124 135//132 128//125
f 106//107 103//105 126//123
f 103//105 106//107 102//104
f 104//106 136//133 105//134
f 136//133 104//106 89//87
f 136//133 89//87 134//131
f 89//87 106//107 126//123
