# Blender v2.78 (sub 0) OBJ File: 'exporter.blend'
# www.blender.org
o FJ1551M.obj_grp1.445
v 0.027975 -0.096238 6.311737
v 0.012432 -0.107907 6.331850
v 0.026071 -0.090623 6.292816
v 0.028373 -0.083417 6.285881
v 0.025113 -0.095580 6.324712
v 0.029231 -0.085232 6.300331
v 0.024551 -0.086053 6.275026
v 0.023314 -0.085234 6.276023
v 0.025136 -0.078180 6.285695
v 0.024191 -0.077594 6.296742
v 0.022643 -0.038696 6.172774
v 0.019040 -0.059600 6.198867
v 0.016115 -0.047784 6.175971
v 0.022839 -0.054679 6.213533
v 0.023560 -0.044840 6.190713
v 0.018376 -0.038067 6.164107
v 0.014535 -0.031147 6.160296
v 0.015520 -0.100426 6.338535
v 0.013376 -0.092617 6.332538
v 0.005161 -0.095527 6.335326
v 0.022432 -0.084621 6.272783
v 0.026071 -0.090623 6.292816
v 0.010472 -0.086273 6.265728
v 0.009669 -0.081310 6.259335
v 0.017241 -0.074047 6.272301
v 0.017175 -0.073971 6.272173
v 0.016797 -0.078154 6.295530
v 0.007079 -0.074421 6.258861
v 0.015556 -0.067142 6.224157
v 0.008778 -0.073325 6.238902
v 0.010882 -0.072190 6.241316
v 0.018480 -0.068034 6.231724
v 0.010932 -0.072417 6.229010
v 0.014633 -0.056918 6.233348
v 0.012224 -0.063160 6.243990
v 0.014839 -0.051279 6.182023
v 0.014668 -0.037638 6.188865
v 0.018005 -0.055328 6.193713
v 0.017262 -0.048784 6.173479
v 0.014839 -0.051279 6.182023
v 0.008300 -0.054925 6.233804
v 0.011235 -0.043870 6.155076
v 0.019240 -0.038272 6.160803
v 0.011712 -0.031374 6.143105
v 0.007583 -0.038315 6.141053
v 0.011712 -0.031374 6.143105
v 0.012252 -0.108323 6.332675
v 0.012960 -0.107477 6.336945
v 0.007736 -0.104490 6.325866
v 0.012960 -0.107477 6.336945
v 0.005008 -0.095253 6.335396
v 0.011883 -0.108018 6.332110
v 0.012960 -0.107477 6.336945
v 0.013375 -0.089425 6.295623
v 0.012960 -0.107477 6.336945
v 0.015233 -0.100388 6.338213
v 0.005008 -0.095253 6.335396
v 0.015233 -0.100388 6.338213
v 0.010591 -0.088373 6.303070
v 0.007153 -0.092571 6.324910
v 0.006502 -0.085258 6.257687
v 0.007332 -0.081945 6.285544
v 0.005552 -0.081625 6.276385
v 0.002460 -0.073291 6.262953
v 0.008470 -0.082214 6.290167
v 0.007025 -0.074467 6.258921
v 0.011352 -0.081512 6.257794
v 0.010079 -0.083284 6.258357
v 0.007025 -0.074467 6.258921
v 0.011065 -0.072150 6.229431
v 0.008469 -0.069736 6.238282
v 0.002086 -0.074069 6.237227
v 0.008327 -0.074217 6.238444
v 0.011438 -0.072245 6.241678
v 0.010894 -0.071994 6.241261
v 0.006376 -0.069802 6.249156
v 0.007646 -0.070580 6.250071
v 0.009229 -0.073761 6.238827
v 0.014508 -0.056541 6.236691
v 0.014402 -0.059974 6.233099
v 0.006782 -0.067654 6.249382
v 0.009124 -0.066287 6.248335
v 0.001170 -0.072457 6.237842
v 0.010236 -0.060086 6.238560
v 0.007969 -0.052924 6.226144
v 0.006635 -0.055968 6.231549
v 0.005436 -0.056849 6.207609
v 0.005404 -0.045503 6.173056
v 0.003720 -0.043269 6.180532
v 0.006511 -0.055397 6.217358
v 0.007557 -0.040243 6.193947
v 0.005404 -0.045503 6.173056
v 0.004091 -0.028835 6.147251
v 0.006486 -0.041022 6.144184
v 0.006592 -0.027323 6.138877
v 0.005373 -0.028387 6.144403
v 0.005712 -0.034922 6.136500
v 0.007250 -0.034819 6.136309
v 0.011712 -0.031374 6.143105
v 0.006471 -0.032609 6.137565
v 0.011712 -0.031374 6.143105
v 0.007269 -0.034647 6.136673
v 0.006471 -0.032609 6.137565
v 0.007319 -0.032032 6.135546
v 0.011712 -0.031374 6.143105
v 0.007141 -0.036222 6.136344
v 0.006860 -0.037694 6.140926
v 0.008864 -0.035347 6.136724
v 0.006450 -0.037359 6.140804
v 0.006450 -0.032618 6.137559
v 0.007027 -0.035273 6.135932
v 0.007141 -0.036222 6.136344
v 0.007765 -0.035448 6.136996
v 0.007583 -0.035652 6.136119
v 0.007064 -0.034774 6.136772
v 0.006471 -0.032609 6.137565
v 0.006989 -0.037916 6.141146
v 0.006486 -0.041022 6.144184
v 0.005993 -0.027820 6.146532
v 0.007376 -0.031339 6.134949
v 0.011712 -0.031374 6.143105
v 0.009476 -0.030324 6.135587
v 0.005799 -0.028034 6.138691
v 0.011712 -0.031374 6.143105
v 0.007292 -0.030372 6.133809
v 0.005847 -0.026666 6.138504
v 0.005811 -0.027771 6.138288
v 0.011712 -0.031374 6.143105
v 0.011712 -0.031374 6.143105
v 0.005830 -0.027053 6.138150
v 0.004409 -0.027588 6.145311
v 0.005805 -0.027011 6.138199
v 0.007736 -0.104490 6.325866
v 0.004259 -0.099655 6.327134
v 0.013267 -0.089752 6.296666
v 0.004259 -0.099655 6.327134
v 0.002906 -0.099621 6.331178
v 0.007736 -0.104490 6.325866
v 0.004259 -0.099655 6.327134
v 0.003497 -0.097100 6.330146
v 0.013267 -0.089752 6.296666
v 0.006626 -0.098708 6.330238
v 0.005008 -0.095253 6.335396
v 0.005008 -0.095253 6.335396
v 0.009910 -0.092827 6.315278
v 0.001488 -0.074095 6.262232
v 0.008503 -0.070157 6.261042
v 0.005552 -0.081625 6.276385
v 0.001932 -0.075461 6.269155
v 0.001932 -0.075461 6.269155
v 0.002332 -0.074683 6.263175
v 0.001932 -0.075461 6.269155
v 0.001542 -0.076133 6.261523
v 0.003458 -0.074486 6.262193
v 0.003106 -0.074188 6.262193
v 0.003383 -0.073488 6.261878
v 0.007025 -0.074467 6.258921
v 0.003458 -0.073957 6.262028
v 0.002668 -0.073826 6.262466
v 0.003383 -0.073488 6.261878
v 0.002253 -0.074058 6.262349
v 0.002597 -0.073483 6.262958
v -0.001784 -0.070450 6.242533
v -0.000853 -0.071351 6.250980
v 0.006872 -0.069457 6.248289
v 0.007319 -0.068624 6.249335
v 0.007335 -0.068934 6.250412
v 0.007378 -0.067921 6.248959
v -0.000688 -0.071287 6.249327
v 0.002969 -0.063139 6.245400
v -0.000139 -0.070059 6.245823
v -0.000635 -0.069923 6.246262
v 0.002879 -0.061427 6.244585
v 0.006769 -0.067640 6.249391
v 0.002969 -0.063139 6.245400
v 0.005393 -0.071203 6.235813
v 0.005548 -0.056760 6.220513
v 0.006397 -0.049374 6.213195
v 0.005283 -0.052022 6.214011
v 0.001170 -0.072457 6.237842
v 0.007557 -0.040243 6.193947
v 0.004858 -0.097978 6.329994
v 0.006666 -0.093832 6.324458
v 0.001932 -0.075461 6.269155
v 0.001617 -0.074529 6.263064
v -0.000430 -0.070367 6.242902
v -0.000989 -0.070698 6.245347
v -0.000864 -0.070326 6.244814
v -0.001149 -0.069645 6.244320
v -0.000948 -0.069949 6.245294
v -0.001149 -0.069645 6.244320
v -0.000897 -0.069853 6.245837
v -0.000139 -0.070059 6.245823
v -0.000692 -0.070108 6.245453
v -0.000139 -0.070059 6.245823
v -0.000543 -0.069888 6.246052
v 0.002214 -0.064775 6.243945
v -0.000941 -0.070180 6.244592
v -0.000139 -0.070059 6.245823
v -0.001617 -0.070729 6.242364
v -0.001110 -0.070383 6.245541
v -0.001809 -0.070394 6.242537
v -0.000994 -0.069989 6.246167
v -0.000049 -0.070173 6.247419
v -0.000466 -0.070583 6.250332
v -0.000072 -0.070897 6.250647
v -0.000113 -0.069233 6.247838
v -0.001485 -0.069923 6.248452
v -0.000964 -0.070452 6.250553
vn 0.1724 -0.9439 -0.2817
vn -0.0367 -0.9690 -0.2442
vn 0.9039 -0.4265 0.0316
vn 0.8700 -0.4828 -0.1003
vn 0.8766 -0.0736 0.4756
vn 0.8592 -0.4638 -0.2160
vn 0.9995 0.0217 0.0218
vn 0.8933 0.2711 -0.3584
vn 0.8077 0.5809 -0.1012
vn 0.9611 0.2603 0.0921
vn 0.5940 -0.7596 -0.2649
vn 0.8989 -0.3935 -0.1926
vn 0.8025 -0.4952 -0.3328
vn 0.8361 -0.4496 0.3144
vn 0.3732 0.9212 0.1099
vn -0.0032 0.8129 0.5823
vn -0.2573 0.9388 0.2291
vn 0.8526 -0.2905 -0.4343
vn 0.3154 -0.8916 -0.3249
vn 0.4061 -0.7535 -0.5171
vn 0.5223 0.8321 -0.1866
vn 0.5555 0.8298 -0.0530
vn -0.3804 0.8665 0.3231
vn 0.4532 0.7938 -0.4057
vn 0.4483 -0.8937 -0.0180
vn 0.4613 -0.8855 -0.0547
vn 0.9013 -0.4295 0.0568
vn 0.5680 -0.8020 -0.1849
vn 0.7481 -0.6635 -0.0001
vn 0.6235 0.5809 0.5233
vn 0.3989 0.4395 0.8048
vn -0.0550 -0.9079 -0.4156
vn 0.6590 0.7374 0.1483
vn 0.2633 0.9324 0.2477
vn 0.4511 0.8920 -0.0309
vn -0.0299 0.8848 0.4650
vn 0.1790 -0.9292 -0.3232
vn 0.1785 -0.9345 -0.3081
vn 0.1013 -0.9391 -0.3284
vn 0.3944 -0.8230 -0.4087
vn 0.1459 -0.9020 -0.4063
vn 0.5929 -0.7479 -0.2985
vn 0.8254 0.5313 -0.1911
vn 0.8573 -0.3298 -0.3954
vn 0.6326 -0.5819 -0.5111
vn 0.6466 0.7616 -0.0434
vn 0.8015 -0.5230 0.2900
vn -0.0592 -0.8858 -0.4604
vn -0.1506 -0.9041 -0.3998
vn -0.8271 -0.5076 0.2411
vn -0.5722 -0.5167 0.6369
vn -0.7684 -0.5671 0.2965
vn -0.4236 -0.8638 -0.2729
vn -0.2993 -0.0742 0.9513
vn 0.3253 0.6071 0.7250
vn -0.9710 0.2382 -0.0200
vn -0.8109 0.5797 0.0792
vn 0.6760 -0.0402 -0.7358
vn -0.9507 -0.3018 0.0715
vn -0.5377 -0.8306 -0.1447
vn -0.8460 -0.5278 0.0760
vn -0.8933 -0.4478 0.0386
vn -0.5702 0.7020 0.4267
vn -0.4065 0.8819 0.2386
vn -0.3372 -0.0566 -0.9397
vn -0.9966 0.0554 -0.0614
vn 0.8016 -0.1993 0.5637
vn 0.6634 -0.1035 0.7411
vn 0.7874 -0.6165 0.0012
vn -0.3325 0.7665 0.5495
vn -0.5058 0.8627 0.0001
vn -0.4081 0.8887 0.2089
vn -0.3281 0.9087 0.2582
vn -0.3124 -0.9134 -0.2612
vn 0.3513 -0.8924 0.2832
vn -0.0736 -0.9927 -0.0957
vn 0.2841 0.7212 0.6318
vn -0.6576 0.7499 0.0718
vn -0.8503 -0.4986 -0.1687
vn -0.9050 -0.4023 -0.1385
vn -0.9983 0.0532 -0.0237
vn -0.9166 0.3985 -0.0335
vn -0.8953 0.4438 0.0395
vn -0.0766 0.8884 0.4526
vn -0.1637 -0.8773 -0.4512
vn -0.2383 -0.9112 -0.3359
vn -0.0480 0.9793 0.1965
vn -0.9955 -0.0912 -0.0263
vn -0.9641 0.0054 -0.2654
vn 0.0314 0.9719 0.2332
vn 0.7784 -0.3207 -0.5397
vn 0.5675 0.5061 -0.6495
vn 0.3463 -0.9304 -0.1204
vn -0.9871 -0.0855 -0.1352
vn -0.9227 -0.0885 -0.3751
vn -0.6834 -0.4163 -0.5997
vn 0.5315 0.8470 0.0083
vn -0.6421 0.1761 -0.7461
vn 0.5888 0.7842 -0.1955
vn 0.5702 0.8145 0.1067
vn -0.7937 -0.4692 -0.3872
vn -0.6879 -0.7126 -0.1377
vn -0.6206 -0.7014 0.3505
vn -0.7772 -0.6046 0.1746
vn -0.9239 -0.1336 -0.3586
vn -0.9971 -0.0151 -0.0751
vn -0.9614 0.0350 -0.2728
vn -0.9766 -0.1030 -0.1887
vn 0.0824 0.6005 0.7954
vn -0.9672 -0.1140 -0.2270
vn -0.7758 0.5536 0.3028
vn -0.9232 -0.3460 0.1673
vn -0.1990 -0.7220 -0.6626
vn -0.0851 -0.7857 -0.6128
vn -0.1189 -0.7842 -0.6090
vn -0.1282 -0.8375 0.5313
vn -0.0612 -0.8022 0.5939
vn -0.0733 -0.9366 0.3427
vn -0.0575 -0.9268 0.3712
vn 0.1027 -0.9817 0.1606
vn -0.0711 -0.9923 -0.1016
vn -0.3241 0.4723 0.8197
vn -0.0693 0.6211 0.7807
vn -0.1948 0.5596 0.8055
vn 0.3814 0.7536 0.5354
vn 0.6688 -0.7415 -0.0531
vn 0.1202 -0.9819 -0.1463
vn -0.8526 0.5141 0.0939
vn -0.8876 0.4366 -0.1469
vn 0.3043 0.7139 0.6306
vn 0.2152 0.7640 0.6082
vn -0.4948 0.8475 0.1924
vn -0.9899 0.1418 0.0062
vn -0.9209 0.3648 0.1375
vn -0.9665 -0.1949 -0.1671
vn -0.9941 0.0880 -0.0631
vn -0.9501 -0.1300 -0.2837
vn -0.9580 -0.1054 -0.2668
vn -0.9552 -0.0427 -0.2929
vn -0.7703 0.6084 0.1913
vn -0.9441 0.3290 0.0183
s 1
f 2//1 3//2 1//3
f 1//3 4//4 5//5
f 7//6 4//4 1//3
f 4//4 6//7 5//5
f 6//7 8//8 9//9
f 14//10 12//11 15//12
f 16//13 15//12 12//11
f 1//3 5//5 18//14
f 10//15 19//16 5//5
f 6//7 10//15 5//5
f 20//17 19//16 10//15
f 21//18 22//19 23//20
f 10//15 6//7 9//9
f 21//18 26//21 8//8
f 26//21 9//9 8//8
f 25//22 10//15 9//9
f 26//21 27//23 10//15
f 21//18 28//24 26//21
f 31//25 30//26 32//27
f 32//27 30//26 29//28
f 32//27 12//11 14//10
f 12//11 32//27 29//28
f 29//28 33//29 12//11
f 14//10 34//30 35//31
f 14//10 35//31 32//27
f 33//29 36//32 12//11
f 34//30 14//10 11//33
f 34//30 11//33 37//34
f 17//35 37//34 11//33
f 41//36 34//30 37//34
f 38//37 42//38 39//39
f 38//40 40//41 13//42
f 13//42 16//13 12//11
f 43//43 17//35 11//33
f 44//44 16//13 45//45
f 46//46 17//35 43//43
f 1//3 48//47 2//1
f 47//48 49//49 2//1
f 50//50 51//51 52//52
f 48//47 1//3 18//14
f 49//49 54//53 2//1
f 55//54 56//54 57//54
f 58//55 5//5 19//16
f 2//1 54//53 3//2
f 27//23 60//56 20//17
f 59//57 60//56 27//23
f 24//58 21//18 23//20
f 61//59 3//2 54//53
f 145//60 62//61 54//53
f 20//17 10//15 27//23
f 61//59 54//53 63//62
f 65//63 59//57 27//23
f 65//63 27//23 64//64
f 66//65 67//65 68//65
f 63//62 69//66 61//59
f 64//64 27//23 26//21
f 24//58 28//24 21//18
f 74//67 35//31 76//68
f 78//69 33//29 29//28
f 74//67 32//27 35//31
f 76//68 35//31 79//70
f 80//71 81//72 82//73
f 70//74 71//75 83//76
f 84//77 34//30 41//36
f 37//34 85//78 41//36
f 70//74 87//79 88//80
f 88//80 87//79 89//81
f 85//78 37//34 86//82
f 37//34 90//83 86//82
f 90//83 37//34 91//84
f 40//41 70//85 92//86
f 40//41 45//45 13//42
f 92//86 45//45 40//41
f 13//42 45//45 16//13
f 37//34 93//87 91//84
f 94//88 89//81 95//89
f 37//34 17//35 96//90
f 97//91 44//44 45//45
f 100//92 101//92 102//92
f 103//93 104//93 105//93
f 109//94 110//95 108//96
f 94//88 95//89 109//94
f 109//94 95//89 110//95
f 17//35 46//46 119//97
f 93//87 37//34 96//90
f 95//89 122//98 110//95
f 123//99 124//99 125//99
f 126//100 119//97 46//46
f 133//101 134//101 135//101
f 136//102 52//52 137//103
f 138//104 52//52 136//102
f 137//103 52//52 51//51
f 139//105 140//106 141//107
f 60//56 59//57 142//108
f 19//16 143//109 58//55
f 60//56 142//108 144//110
f 54//53 62//61 63//62
f 146//111 65//63 64//64
f 63//62 62//61 149//112
f 147//113 148//114 150//115
f 28//24 64//64 26//21
f 72//116 73//117 163//118
f 73//117 75//119 163//118
f 77//120 164//121 75//119
f 169//122 167//123 170//124
f 170//124 167//123 168//125
f 164//121 187//126 171//127
f 171//127 75//119 164//121
f 172//128 173//129 86//82
f 175//130 174//131 84//77
f 41//36 175//130 84//77
f 70//74 83//76 87//79
f 172//128 86//82 90//83
f 173//132 41//36 85//78
f 89//81 176//133 181//134
f 176//133 177//135 181//134
f 177//135 178//136 181//134
f 89//81 94//88 88//80
f 181//134 95//89 89//81
f 75//119 171//127 163//118
f 180//137 186//138 179//139
f 202//140 172//128 90//83
f 173//129 172//128 205//141
l 200 201
l 163 187
l 47 53
l 165 166
l 190 191
l 129 130
l 192 193
l 196 197
l 111 112
l 113 114
l 208 209
l 120 121
l 194 195
l 157 158
l 203 204
l 161 162
l 188 189
l 115 116
l 182 183
l 127 128
l 153 154
l 151 152
l 198 199
l 117 118
l 159 160
l 131 132
l 155 156
l 106 107
l 206 207
l 98 99
l 184 185
