# Blender v2.78 (sub 0) OBJ File: 'exporter.blend'
# www.blender.org
o FJ1515M.obj_grp1.383
v 1.399442 -0.670561 3.548777
v 1.407284 -0.678402 3.566361
v 1.404847 -0.684201 3.552858
v 1.390522 -0.653872 3.559502
v 1.400646 -0.671510 3.574224
v 1.376218 -0.640379 3.600570
v 1.401813 -0.688890 3.565002
v 1.401891 -0.687760 3.574554
v 1.402348 -0.689412 3.572340
v 1.404810 -0.685251 3.552441
v 1.407078 -0.681665 3.554197
v 1.407284 -0.678402 3.566361
v 1.404690 -0.684272 3.552331
v 1.404812 -0.685259 3.552422
v 1.398325 -0.682284 3.558312
v 1.403786 -0.685338 3.553275
v 1.403547 -0.685106 3.553385
v 1.399430 -0.678778 3.551643
v 1.403522 -0.684633 3.554444
v 1.403026 -0.684848 3.556296
v 1.403786 -0.685338 3.553275
v 1.403547 -0.685106 3.553385
v 1.403026 -0.684848 3.556296
v 1.407284 -0.678402 3.566361
v 1.396578 -0.683995 3.574575
v 1.401950 -0.688424 3.576442
v 1.402642 -0.688065 3.576600
v 1.402511 -0.688191 3.576423
v 1.402609 -0.688044 3.574656
v 1.403139 -0.688204 3.575746
v 1.402953 -0.688161 3.575935
v 1.402205 -0.688186 3.574760
v 1.399552 -0.672224 3.550094
v 1.393922 -0.668439 3.585182
v 1.389614 -0.675583 3.588005
v 1.400646 -0.671510 3.574224
v 1.394426 -0.668164 3.585057
v 1.392735 -0.671980 3.591587
v 1.366130 -0.627365 3.554391
v 1.362632 -0.626564 3.593364
v 1.402759 -0.688054 3.576722
v 1.400646 -0.671510 3.574224
v 1.396815 -0.683707 3.574516
v 1.373013 -0.649377 3.529330
v 1.341529 -0.641887 3.604542
v 1.390154 -0.677012 3.583294
v 1.396815 -0.683707 3.574516
v 1.372164 -0.648757 3.529221
v 1.391975 -0.672186 3.591036
v 1.390435 -0.676296 3.587464
v 1.371633 -0.655628 3.609599
v 1.390003 -0.675956 3.588294
v 1.391975 -0.672186 3.591036
v 1.376552 -0.646859 3.531262
v 1.364726 -0.628150 3.541074
v 1.377999 -0.655145 3.607655
v 1.371251 -0.654972 3.609887
v 1.352842 -0.627710 3.519142
v 1.367925 -0.630750 3.544671
v 1.340414 -0.626381 3.630175
v 1.349873 -0.620244 3.594310
v 1.347432 -0.621319 3.617814
v 1.358268 -0.646967 3.544019
v 1.361552 -0.645957 3.616753
v 1.352993 -0.622527 3.535999
v 1.352934 -0.622611 3.536005
v 1.367957 -0.630958 3.544808
v 1.364685 -0.628428 3.541221
v 1.340414 -0.626381 3.630175
v 1.319542 -0.607612 3.596716
v 1.332193 -0.610477 3.610683
v 1.339750 -0.631219 3.513577
v 1.343473 -0.630774 3.512841
v 1.297316 -0.617077 3.608625
v 1.335178 -0.624868 3.508875
v 1.290036 -0.617076 3.580999
v 1.290148 -0.619832 3.644499
v 1.288000 -0.615629 3.646850
v 1.309885 -0.607509 3.607012
v 1.312406 -0.611523 3.636503
v 1.331439 -0.628361 3.506851
v 1.331352 -0.627770 3.507544
v 1.282944 -0.607421 3.571102
v 1.305398 -0.619716 3.643084
v 1.292237 -0.631882 3.495103
v 1.288872 -0.615011 3.612537
v 1.287567 -0.611180 3.643766
v 1.287227 -0.611354 3.643746
v 1.288698 -0.607534 3.603286
v 1.294086 -0.615158 3.609191
v 1.284274 -0.620180 3.639942
v 1.288955 -0.615743 3.610246
v 1.313664 -0.625433 3.605392
v 1.294392 -0.616635 3.609791
v 1.272267 -0.605214 3.621092
v 1.271948 -0.605110 3.621194
v 1.281698 -0.639063 3.493709
v 1.243447 -0.601535 3.596570
v 1.277558 -0.604914 3.603518
v 1.275025 -0.604290 3.604168
v 1.252765 -0.609729 3.645320
v 1.252765 -0.609729 3.645320
v 1.281444 -0.637027 3.489278
v 1.296646 -0.632843 3.492999
v 1.261522 -0.643762 3.486182
v 1.252765 -0.609729 3.645320
v 1.253690 -0.606616 3.642560
v 1.262767 -0.631402 3.478117
v 1.261326 -0.627050 3.497426
v 1.242414 -0.601809 3.622053
v 1.251859 -0.589350 3.610855
v 1.253690 -0.606616 3.642560
v 1.241801 -0.587111 3.621794
v 1.242709 -0.589777 3.633544
v 1.234299 -0.584379 3.615018
v 1.299737 -0.633348 3.496544
v 1.267136 -0.632568 3.481022
v 1.250873 -0.609095 3.571431
v 1.252765 -0.609729 3.645320
v 1.218452 -0.596274 3.643419
v 1.284224 -0.620128 3.639940
v 1.214484 -0.592495 3.641768
v 1.252765 -0.609729 3.645320
v 1.219880 -0.594781 3.645231
v 1.253690 -0.606616 3.642560
v 1.271948 -0.605110 3.621194
v 1.248385 -0.596302 3.635691
v 1.242321 -0.593483 3.547514
v 1.234876 -0.584101 3.608803
v 1.246638 -0.596253 3.642292
v 1.235617 -0.587821 3.637169
v 1.252765 -0.609729 3.645320
v 1.253690 -0.606616 3.642560
v 1.242982 -0.598941 3.646343
v 1.242982 -0.598941 3.646343
v 1.219880 -0.594781 3.645231
v 1.252765 -0.609729 3.645320
v 1.245650 -0.590346 3.633914
v 1.241282 -0.589932 3.633301
v 1.245050 -0.591096 3.632994
v 1.241282 -0.589932 3.633301
v 1.266886 -0.642585 3.486740
v 1.277759 -0.639779 3.492045
v 1.231363 -0.597816 3.627270
v 1.234301 -0.583993 3.608105
v 1.234475 -0.584031 3.614810
v 1.235780 -0.583111 3.609523
v 1.240865 -0.590209 3.559169
v 1.227452 -0.590875 3.589510
v 1.228945 -0.592168 3.645676
v 1.242862 -0.634725 3.493431
v 1.244874 -0.628248 3.514866
v 1.231540 -0.597541 3.564878
v 1.224666 -0.589804 3.602035
v 1.227346 -0.590993 3.589379
v 1.231835 -0.597310 3.564852
v 1.228344 -0.593227 3.608162
v 1.218449 -0.590538 3.618550
v 1.220391 -0.589067 3.622005
v 1.219570 -0.590429 3.623551
v 1.231457 -0.598227 3.627184
v 1.284224 -0.620128 3.639940
v 1.219236 -0.589566 3.626588
v 1.224382 -0.589035 3.629748
v 1.217224 -0.591386 3.636483
v 1.229025 -0.592476 3.645372
v 1.219750 -0.594434 3.645627
v 1.266026 -0.635735 3.479283
v 1.254326 -0.634078 3.468899
v 1.265981 -0.635657 3.479430
v 1.258367 -0.631340 3.472367
v 1.256310 -0.630578 3.469558
v 1.251975 -0.627819 3.477039
v 1.249739 -0.621050 3.491577
v 1.247161 -0.618484 3.495558
v 1.230957 -0.597657 3.562410
v 1.233194 -0.601744 3.550564
v 1.222490 -0.589594 3.606693
v 1.228344 -0.593227 3.608162
v 1.223683 -0.589316 3.608582
v 1.222490 -0.589594 3.606693
v 1.221647 -0.589314 3.610751
v 1.231457 -0.598227 3.627184
v 1.219236 -0.589566 3.626588
v 1.219570 -0.590429 3.623551
v 1.223920 -0.588879 3.604068
v 1.234475 -0.584031 3.614810
v 1.227452 -0.590875 3.589510
v 1.221535 -0.588855 3.607209
v 1.223015 -0.589203 3.608902
v 1.223254 -0.589026 3.605059
v 1.224954 -0.589566 3.601871
v 1.222490 -0.589594 3.606693
v 1.223832 -0.588608 3.608735
v 1.221509 -0.588627 3.610350
v 1.234475 -0.584031 3.614810
v 1.223717 -0.588949 3.608689
v 1.221509 -0.588627 3.610350
v 1.220649 -0.589012 3.618124
v 1.221124 -0.589053 3.611784
v 1.220649 -0.589012 3.618124
v 1.228344 -0.593227 3.608162
v 1.222726 -0.588556 3.611887
v 1.223673 -0.589312 3.608584
v 1.220649 -0.589012 3.618124
v 1.223879 -0.591936 3.617650
v 1.218748 -0.589641 3.618889
v 1.218795 -0.589606 3.618865
v 1.234475 -0.584031 3.614810
v 1.218802 -0.589664 3.618914
v 1.220234 -0.588919 3.620988
v 1.234475 -0.584031 3.614810
v 1.234475 -0.584031 3.614810
v 1.242414 -0.601809 3.622053
v 1.221556 -0.589212 3.623650
v 1.234475 -0.584031 3.614810
v 1.220250 -0.588988 3.620988
v 1.242414 -0.601809 3.622053
v 1.220686 -0.589397 3.621881
v 1.242414 -0.601809 3.622053
v 1.220543 -0.588985 3.621488
v 1.242414 -0.601809 3.622053
v 1.220608 -0.589890 3.621886
v 1.220804 -0.588969 3.621969
v 1.220588 -0.589458 3.621789
v 1.219236 -0.589566 3.626588
v 1.219952 -0.589706 3.621604
v 1.220460 -0.589614 3.621887
v 1.221255 -0.590819 3.622847
v 1.220645 -0.590023 3.621962
v 1.221255 -0.590819 3.622847
v 1.218996 -0.589752 3.618813
v 1.220269 -0.589415 3.621782
v 1.219476 -0.589514 3.620856
v 1.284224 -0.620128 3.639940
v 1.222039 -0.592641 3.627982
v 1.219236 -0.589566 3.626588
v 1.219236 -0.589566 3.626588
v 1.222039 -0.592641 3.627982
v 1.217795 -0.590791 3.629166
v 1.284224 -0.620128 3.639940
v 1.217795 -0.590791 3.629166
v 1.222039 -0.592641 3.627982
v 1.219716 -0.589979 3.623297
v 1.219236 -0.589566 3.626588
v 1.218263 -0.590444 3.629341
v 1.217246 -0.590145 3.630235
v 1.217051 -0.591595 3.636865
v 1.217439 -0.590701 3.629379
v 1.217797 -0.592528 3.630033
v 1.217901 -0.590313 3.629746
v 1.284224 -0.620128 3.639940
v 1.217779 -0.589853 3.629839
v 1.284224 -0.620128 3.639940
v 1.217983 -0.590267 3.629778
v 1.224382 -0.589035 3.629748
v 1.217645 -0.590735 3.631090
v 1.217795 -0.590791 3.629166
v 1.224382 -0.589035 3.629748
v 1.218097 -0.591049 3.629927
v 1.216260 -0.591500 3.639644
v 1.217257 -0.590783 3.636593
v 1.215744 -0.591200 3.635757
v 1.218050 -0.590490 3.636168
v 1.215125 -0.591384 3.637637
v 1.216983 -0.590946 3.636771
v 1.214739 -0.591171 3.638569
v 1.215100 -0.591542 3.637273
v 1.214859 -0.592699 3.643232
v 1.256427 -0.630546 3.469420
v 1.256310 -0.630578 3.469558
v 1.247202 -0.639315 3.467609
v 1.235977 -0.621063 3.503814
v 1.246900 -0.618661 3.495244
v 1.236023 -0.622368 3.505484
v 1.244324 -0.604086 3.524593
v 1.234624 -0.616054 3.511299
v 1.233855 -0.613569 3.517687
v 1.220884 -0.593814 3.636494
v 1.216431 -0.591610 3.636858
v 1.214213 -0.592880 3.642038
v 1.214213 -0.592880 3.642038
v 1.214859 -0.591348 3.638175
v 1.214857 -0.592689 3.643271
v 1.214790 -0.593031 3.641941
v 1.253160 -0.636507 3.467891
v 1.247202 -0.639315 3.467609
v 1.256310 -0.630578 3.469558
v 1.247202 -0.639315 3.467609
v 1.247202 -0.639315 3.467609
v 1.239255 -0.634667 3.478104
v 1.239187 -0.635074 3.478148
v 1.234822 -0.621517 3.500932
v 1.236829 -0.620103 3.503674
v 1.234822 -0.621517 3.500932
v 1.235529 -0.620605 3.503259
v 1.233770 -0.618339 3.508239
v 1.235447 -0.619930 3.504148
v 1.234453 -0.617360 3.512224
v 1.233785 -0.618330 3.508246
v 1.233614 -0.617921 3.509544
v 1.233595 -0.615230 3.513372
v 1.247202 -0.639315 3.467609
v 1.239155 -0.634620 3.478005
v 1.239691 -0.633620 3.478548
vn 0.8612 0.4822 -0.1607
vn 0.9021 0.4245 0.0777
vn 0.8939 0.3394 -0.2929
vn 0.7623 0.6427 -0.0760
vn 0.8463 0.3918 0.3609
vn 0.7841 0.4379 0.4399
vn 0.6631 -0.7116 0.2323
vn 0.8041 -0.5775 0.1413
vn -0.5775 -0.6780 -0.4548
vn -0.7029 -0.5865 -0.4023
vn -0.6073 -0.7528 -0.2540
vn 0.4916 -0.8128 0.3126
vn 0.8908 -0.4543 -0.0024
vn 0.8282 -0.5473 -0.1204
vn 0.8789 -0.4765 -0.0217
vn -0.5719 -0.7883 -0.2269
vn -0.6387 -0.7687 -0.0356
vn 0.7454 -0.6092 -0.2707
vn -0.6518 -0.7519 0.0993
vn -0.7172 -0.6874 -0.1142
vn 0.6535 -0.6682 -0.3555
vn 0.8287 0.1572 0.5372
vn 0.8195 -0.3574 0.4480
vn 0.8478 -0.3796 0.3703
vn 0.7920 -0.2561 0.5542
vn 0.8411 0.3808 0.3842
vn 0.8291 0.2635 0.4931
vn 0.5619 0.8232 -0.0808
vn 0.6172 0.7804 0.1001
vn -0.2749 0.1091 0.9553
vn 0.6206 0.1516 -0.7693
vn 0.6230 0.2672 -0.7352
vn 0.4489 -0.1182 -0.8857
vn -0.4995 -0.8661 0.0185
vn -0.4323 -0.8545 0.2879
vn 0.7915 -0.2351 0.5642
vn -0.4056 -0.8291 -0.3849
vn 0.7820 -0.6224 0.0334
vn -0.4254 -0.8704 0.2478
vn 0.2530 -0.5098 0.8222
vn 0.1692 -0.6361 0.7528
vn 0.2268 -0.5901 0.7748
vn 0.7510 0.2770 -0.5993
vn 0.7093 0.6352 -0.3055
vn 0.3337 -0.3599 0.8713
vn 0.5180 0.6563 -0.5487
vn 0.6975 0.6696 -0.2552
vn 0.5549 0.4822 0.6779
vn 0.5658 0.7497 0.3433
vn -0.4325 -0.8773 -0.2079
vn -0.4460 -0.8137 0.3727
vn 0.3491 -0.3945 0.8500
vn 0.2705 0.8853 0.3782
vn 0.3168 0.9341 -0.1645
vn 0.2627 -0.3730 0.8898
vn 0.2432 0.9644 -0.1041
vn 0.3967 0.9176 -0.0257
vn 0.3082 0.9405 0.1433
vn -0.0489 -0.9882 -0.1448
vn 0.2847 -0.3042 -0.9091
vn 0.1953 0.7154 -0.6709
vn -0.3494 -0.9370 0.0010
vn -0.2316 -0.9568 0.1758
vn 0.0403 -0.7617 0.6466
vn -0.0731 -0.5112 0.8564
vn 0.0506 0.9978 0.0417
vn 0.2739 0.8020 0.5308
vn 0.3221 0.1478 -0.9351
vn 0.2747 0.9439 -0.1834
vn 0.2894 0.3867 0.8756
vn 0.1156 0.9548 -0.2740
vn -0.2321 -0.9580 -0.1687
vn 0.0825 0.1477 0.9856
vn 0.0212 0.9993 -0.0317
vn -0.1197 -0.9927 -0.0134
vn 0.0052 -0.4437 0.8962
vn 0.0027 -0.4426 0.8967
vn 0.0073 -0.4451 0.8955
vn 0.3759 0.9202 0.1088
vn 0.0885 0.9884 0.1236
vn 0.1314 0.9747 0.1810
vn 0.2656 -0.3773 -0.8872
vn -0.4473 -0.8913 0.0748
vn -0.3449 -0.8337 0.4314
vn 0.0601 0.5263 0.8482
vn -0.1255 -0.5323 0.8372
vn 0.2277 0.9692 0.0933
vn 0.2730 -0.7813 -0.5612
vn 0.3528 -0.0321 -0.9352
vn 0.0093 0.9222 -0.3865
vn 0.0304 -0.9975 -0.0632
vn -0.2347 -0.8985 0.3710
vn 0.5179 0.8544 0.0419
vn 0.1249 0.9816 0.1444
vn -0.4166 -0.9071 -0.0598
vn 0.3841 0.9175 0.1036
vn 0.0609 0.6521 0.7557
vn 0.3164 0.9453 0.0795
vn 0.4760 0.8564 0.2000
vn 0.1514 0.9715 0.1825
vn 0.4937 0.4517 -0.7431
vn 0.2927 0.9078 -0.3003
vn -0.4362 -0.8615 0.2599
vn -0.3419 -0.9068 -0.2466
vn -0.3624 -0.8285 -0.4270
vn -0.3500 -0.8834 -0.3115
vn -0.4865 -0.8692 0.0885
vn -0.4135 -0.9095 0.0437
vn -0.4440 -0.8949 0.0444
vn 0.7420 0.5938 0.3112
vn 0.5677 0.5419 0.6197
vn 0.6254 0.6192 0.4748
vn 0.4253 0.8797 -0.2128
vn 0.5248 0.6718 0.5227
vn 0.5678 0.4181 0.7090
vn 0.5984 0.4247 0.6794
vn 0.3882 0.5781 0.7178
vn -0.0559 -0.0438 0.9975
vn -0.0559 -0.0439 0.9975
vn -0.0767 -0.1629 0.9837
vn 0.3507 0.9355 -0.0418
vn 0.1265 0.2952 0.9470
vn -0.1130 0.2360 0.9652
vn 0.3898 -0.6594 -0.6429
vn -0.4353 -0.8019 -0.4092
vn 0.0611 0.9487 0.3101
vn -0.5742 0.8175 -0.0437
vn -0.6383 0.7695 0.0209
vn -0.5253 0.8507 0.0184
vn -0.6494 0.7218 -0.2393
vn -0.6492 0.7450 -0.1532
vn 0.0104 0.9060 0.4231
vn 0.3150 -0.9058 -0.2834
vn -0.5138 -0.8169 0.2621
vn 0.4092 0.8777 -0.2494
vn -0.4944 -0.8010 0.3375
vn -0.5534 -0.8049 0.2144
vn -0.5103 -0.8567 -0.0756
vn -0.5504 -0.8337 0.0450
vn -0.7254 0.6504 -0.2255
vn -0.3099 -0.9032 -0.2971
vn -0.4069 -0.9098 0.0820
vn -0.1995 -0.7018 -0.6839
vn -0.2517 -0.6815 -0.6872
vn -0.3949 -0.5043 0.7679
vn -0.1996 0.9602 0.1954
vn -0.0192 0.9780 0.2079
vn -0.0344 0.0755 0.9966
vn 0.5975 -0.3940 -0.6984
vn 0.2823 -0.6198 -0.7322
vn 0.6003 0.1583 -0.7839
vn 0.5185 -0.6626 -0.5405
vn 0.7393 -0.0513 -0.6714
vn 0.7157 -0.2072 -0.6670
vn 0.4492 0.8640 -0.2274
vn -0.1314 0.8863 -0.4440
vn 0.4268 0.8265 -0.3672
vn 0.2736 0.8748 -0.3999
vn -0.7102 -0.6702 0.2155
vn -0.5731 0.7520 -0.3257
vn -0.4842 -0.8580 -0.1714
vn -0.5484 -0.7006 0.4565
vn -0.5569 -0.7094 0.4320
vn -0.5498 -0.7033 0.4506
vn -0.5301 -0.7697 -0.3559
vn -0.5758 -0.8009 0.1646
vn -0.2668 0.9522 -0.1488
vn -0.2816 0.9494 -0.1391
vn -0.3206 0.9269 -0.1949
vn -0.2215 0.9539 -0.2026
vn -0.2218 0.9250 -0.3084
vn -0.2834 0.9469 -0.1517
vn -0.3369 0.9415 0.0094
vn -0.6427 -0.7660 -0.0081
vn -0.6321 -0.7744 0.0265
vn -0.7218 -0.6919 -0.0184
vn -0.3110 -0.1923 -0.9308
vn -0.3104 0.9458 -0.0955
vn -0.3180 0.9427 -0.1005
vn -0.3572 0.9299 -0.0875
vn -0.4694 -0.2828 -0.8365
vn -0.3536 -0.4840 -0.8004
vn -0.3496 -0.4934 -0.7964
vn 0.2190 0.4504 0.8656
vn -0.2434 0.9687 0.0498
vn -0.2396 0.9427 0.2321
vn -0.4289 -0.7902 0.4377
vn -0.0123 -0.4222 -0.9064
vn -0.4562 -0.6774 -0.5771
vn -0.4023 -0.9154 -0.0120
vn -0.0025 0.9591 0.2832
vn -0.3401 -0.8656 -0.3675
vn -0.3866 -0.9102 -0.1488
vn -0.4004 0.7851 0.4726
vn 0.2533 -0.9662 0.0481
vn -0.2844 0.9587 0.0089
vn -0.2968 -0.8287 -0.4745
vn 0.2365 0.9323 0.2736
vn 0.7346 -0.3807 -0.5616
vn -0.5176 0.6608 -0.5436
vn -0.3928 0.7502 -0.5319
vn -0.5011 0.6776 -0.5382
vn -0.4898 0.6990 -0.5211
vn -0.6813 0.6429 -0.3500
vn -0.2790 0.8715 -0.4032
vn -0.9492 -0.3104 0.0511
vn -0.8610 -0.4722 0.1888
vn 0.3153 0.9020 0.2951
vn -0.5268 -0.7878 -0.3193
vn -0.1070 0.3213 -0.9409
vn 0.5509 -0.6088 -0.5709
vn -0.5015 -0.8596 0.0982
vn -0.3754 -0.9249 0.0604
vn -0.1914 0.8556 -0.4809
vn -0.9404 -0.2893 0.1785
vn -0.7851 0.5182 0.3392
vn -0.7575 -0.6047 0.2462
vn -0.9380 -0.2411 -0.2489
vn -0.2666 0.7456 -0.6107
vn -0.3675 -0.7865 0.4963
s 1
f 1//1 2//2 3//3
f 2//2 1//1 4//4
f 2//2 4//4 5//5
f 4//4 6//6 5//5
f 10//7 11//8 12//7
f 18//9 14//10 15//11
f 10//7 12//7 20//12
f 7//13 23//14 24//15
f 19//16 9//17 15//11
f 7//13 24//15 8//18
f 26//19 25//20 9//17
f 8//18 24//15 27//21
f 28//22 2//2 5//5
f 34//23 35//24 36//25
f 37//26 5//5 6//6
f 38//27 37//26 6//6
f 4//4 39//28 6//6
f 6//6 39//28 40//29
f 9//17 25//20 15//11
f 41//30 42//30 43//30
f 33//31 13//32 44//33
f 45//34 15//11 25//20
f 25//20 46//35 45//34
f 35//24 47//36 36//25
f 18//9 15//11 48//37
f 34//23 49//38 35//24
f 45//34 46//35 50//39
f 51//40 52//41 53//42
f 33//31 44//33 54//43
f 54//43 55//44 1//1
f 56//45 51//40 53//42
f 54//43 58//46 55//44
f 4//4 1//1 59//47
f 59//47 1//1 55//44
f 4//4 59//47 39//28
f 6//6 60//48 38//27
f 62//49 60//48 6//6
f 6//6 40//29 62//49
f 15//11 63//50 48//37
f 50//39 57//51 45//34
f 51//40 56//45 64//52
f 66//53 67//53 68//53
f 55//44 58//46 65//54
f 64//52 56//45 69//55
f 65//54 39//28 59//47
f 70//56 61//57 39//28
f 39//28 61//57 40//29
f 71//58 62//49 40//29
f 63//50 72//59 48//37
f 54//43 44//33 73//60
f 54//43 73//60 58//46
f 65//54 70//56 39//28
f 70//56 71//58 40//29
f 75//61 58//46 73//60
f 72//59 73//60 44//33
f 63//50 45//34 74//62
f 45//34 63//50 15//11
f 63//50 74//62 76//63
f 57//51 77//64 45//34
f 69//55 78//65 64//52
f 64//52 78//65 57//51
f 57//51 78//65 77//64
f 79//66 71//58 70//56
f 62//49 71//58 80//67
f 60//48 62//49 80//67
f 81//68 75//61 73//60
f 58//46 75//61 65//54
f 65//54 83//69 70//56
f 84//70 60//48 80//67
f 71//58 79//66 80//67
f 85//71 65//54 75//61
f 45//34 77//64 74//62
f 86//72 74//62 77//64
f 84//70 80//67 87//73
f 89//74 79//66 70//56
f 75//61 81//68 85//71
f 91//75 86//72 77//64
f 70//56 83//69 89//74
f 92//76 93//77 94//78
f 89//74 95//79 79//66
f 80//67 79//66 88//80
f 88//80 79//66 96//81
f 97//82 73//60 72//59
f 76//63 74//62 98//83
f 74//62 90//84 98//83
f 90//84 86//72 98//83
f 101//85 84//70 87//73
f 77//64 78//65 102//86
f 89//74 99//87 95//79
f 73//60 97//82 103//88
f 73//60 103//88 82//89
f 81//68 104//90 85//71
f 105//91 97//82 72//59
f 76//63 105//91 72//59
f 72//59 63//50 76//63
f 85//71 83//69 65//54
f 77//64 106//92 91//75
f 99//87 100//93 95//79
f 83//69 100//93 89//74
f 88//80 96//81 107//94
f 110//95 98//83 86//72
f 110//95 86//72 91//75
f 100//93 83//69 111//96
f 87//73 112//97 101//85
f 100//93 111//96 95//79
f 95//79 113//98 114//99
f 95//79 111//96 113//98
f 111//96 115//100 113//98
f 104//90 117//101 85//71
f 85//71 109//102 83//69
f 118//103 76//63 98//83
f 119//104 120//105 121//106
f 122//107 123//108 124//109
f 125//110 126//111 127//112
f 128//113 111//96 83//69
f 125//110 127//112 130//114
f 130//114 132//115 133//116
f 132//115 130//114 134//117
f 135//118 136//119 137//120
f 129//121 115//100 111//96
f 138//122 127//112 126//111
f 127//112 138//122 139//123
f 130//114 127//112 114//99
f 143//124 97//82 105//91
f 110//95 91//75 144//125
f 128//113 129//121 111//96
f 134//117 130//114 131//126
f 145//127 146//128 147//129
f 148//130 149//131 145//127
f 145//127 149//131 146//128
f 113//98 115//100 131//126
f 115//100 150//132 131//126
f 131//126 130//114 114//99
f 114//99 113//98 131//126
f 142//133 143//124 105//91
f 105//91 76//63 151//134
f 109//102 85//71 108//135
f 83//69 109//102 128//113
f 151//134 76//63 152//136
f 118//103 153//137 152//136
f 153//137 118//103 98//83
f 98//83 154//138 155//139
f 98//83 110//95 154//138
f 148//130 156//140 149//131
f 157//141 154//138 110//95
f 157//141 110//95 158//142
f 160//143 159//144 144//125
f 161//145 162//145 163//145
f 115//100 164//146 150//132
f 164//146 165//147 150//132
f 134//117 131//126 150//132
f 135//118 166//148 136//119
f 103//88 168//149 116//150
f 97//82 168//149 103//88
f 170//151 117//101 104//90
f 97//82 142//133 169//152
f 169//152 168//149 97//82
f 171//153 170//151 169//154
f 117//101 170//151 171//153
f 171//153 108//135 117//101
f 171//153 172//155 108//135
f 173//156 108//135 172//155
f 173//156 109//102 108//135
f 174//157 128//113 109//102
f 175//158 128//113 174//157
f 76//63 118//103 152//136
f 153//137 176//159 152//136
f 156//140 148//130 177//160
f 155//139 153//137 98//83
f 157//141 178//161 154//138
f 179//162 180//163 181//164
f 158//142 182//165 157//141
f 183//166 184//166 185//166
f 186//167 187//168 188//169
f 187//168 186//167 189//170
f 194//171 195//172 196//172
f 201//173 196//172 195//172
f 202//174 203//175 204//176
f 110//95 144//125 159//144
f 205//177 206//177 207//177
f 210//178 211//179 212//180
f 213//181 214//182 215//183
f 216//184 217//184 218//184
f 225//185 164//146 115//100
f 225//185 226//186 164//146
f 227//187 158//142 110//95
f 235//188 236//188 237//188
f 238//189 239//189 240//189
f 241//190 242//190 243//190
f 165//147 167//191 150//132
f 121//106 248//192 249//193
f 121//106 120//105 248//192
f 226//186 250//194 164//146
f 257//195 258//195 259//195
f 260//196 165//147 164//146
f 268//197 248//192 120//105
f 167//191 165//147 269//198
f 142//133 105//91 169//152
f 270//199 171//153 169//154
f 271//200 272//201 173//156
f 109//102 173//156 174//157
f 273//202 173//156 272//201
f 174//157 173//156 274//203
f 273//202 274//203 173//156
f 276//204 274//203 177//160
f 177//160 274//203 277//205
f 278//206 275//207 176//159
f 275//207 152//136 176//159
f 276//204 177//160 148//130
f 267//208 269//198 165//147
f 120//105 281//209 268//197
f 286//210 287//210 288//210
f 105//91 289//211 169//152
f 291//212 105//91 151//134
f 105//91 291//212 290//213
f 292//214 273//202 272//201
f 293//215 275//207 294//216
f 151//134 275//207 293//215
f 291//212 151//134 293//215
f 275//207 297//217 298//218
f 152//136 275//207 151//134
f 277//205 273//202 300//219
f 299//220 297//217 275//207
f 273//202 277//205 274//203
f 299//220 275//207 278//206
l 253 254
l 265 266
l 233 234
l 284 285
l 246 247
l 261 262
l 225 232
l 31 32
l 199 200
l 279 280
l 251 252
l 191 192
l 304 305
l 221 222
l 303 291
l 282 283
l 295 296
l 228 229
l 263 264
l 197 198
l 223 224
l 208 209
l 230 231
l 140 141
l 255 256
l 16 17
l 219 220
l 190 193
l 21 22
l 29 30
l 301 302
l 244 245
