# Blender v2.78 (sub 0) OBJ File: 'exporter.blend'
# www.blender.org
o FJ1677M.obj_grp1.544
v 0.054043 -0.293666 7.223608
v 0.052626 -0.295250 7.224168
v 0.053561 -0.292181 7.222816
v 0.052451 -0.292844 7.221844
v 0.051545 -0.294388 7.222358
v 0.053425 -0.294061 7.225646
v 0.053767 -0.291791 7.224960
v 0.049076 -0.283809 7.227919
v 0.051150 -0.293294 7.221998
v 0.051540 -0.294295 7.222445
v 0.050059 -0.294450 7.223597
v 0.051011 -0.294913 7.225387
v 0.047336 -0.285793 7.231570
v 0.043952 -0.283629 7.232445
v 0.043036 -0.282217 7.231567
v 0.045466 -0.282571 7.228551
v 0.045964 -0.278824 7.232971
v 0.046964 -0.281207 7.233821
v 0.045039 -0.282425 7.234558
v 0.045039 -0.282425 7.234558
v 0.044217 -0.278481 7.232045
v 0.043291 -0.276604 7.237378
v 0.042094 -0.277787 7.239779
v 0.042985 -0.282185 7.231600
v 0.043627 -0.283267 7.232774
v 0.041565 -0.279898 7.238313
v 0.039569 -0.276413 7.235983
v 0.039879 -0.279809 7.237468
v 0.037608 -0.277130 7.238133
v 0.037894 -0.278712 7.242710
v 0.039879 -0.279809 7.237468
v 0.039850 -0.274790 7.238396
v 0.032477 -0.274970 7.252273
v 0.036375 -0.278261 7.241036
v 0.036375 -0.278261 7.241036
v 0.037858 -0.274039 7.242705
v 0.033221 -0.274384 7.244880
v 0.030493 -0.277020 7.253313
v 0.030488 -0.278238 7.251887
v 0.029044 -0.277854 7.251018
v 0.028293 -0.274946 7.250816
v 0.030433 -0.273705 7.252156
v 0.030548 -0.274876 7.253428
v 0.029511 -0.276490 7.253360
v 0.029532 -0.276471 7.253336
v 0.028110 -0.276975 7.251204
v 0.029133 -0.275164 7.253004
vn 0.7433 0.3698 -0.5575
vn 0.8965 -0.3508 -0.2707
vn 0.2697 0.0250 -0.9626
vn 0.3338 -0.9394 -0.0785
vn 0.1580 -0.7072 -0.6892
vn 0.6572 -0.4508 0.6040
vn 0.9401 0.2924 0.1753
vn 0.5505 0.6910 -0.4685
vn -0.4178 -0.0522 -0.9071
vn -0.7243 -0.6421 -0.2514
vn -0.5009 -0.4922 -0.7119
vn -0.2598 -0.8471 0.4637
vn 0.0598 -0.5558 0.8292
vn -0.6194 -0.7403 0.2613
vn -0.7406 -0.5530 -0.3816
vn 0.6726 0.7320 -0.1081
vn -0.4416 0.4193 -0.7932
vn 0.8161 0.0683 0.5739
vn -0.1730 -0.7838 0.5965
vn 0.4895 -0.4654 0.7374
vn 0.0014 0.7988 -0.6017
vn 0.7049 0.6840 0.1878
vn 0.7388 -0.1672 0.6528
vn -0.7735 -0.0554 -0.6314
vn -0.7764 -0.6209 -0.1078
vn 0.0952 -0.8348 0.5422
vn -0.5308 0.5443 -0.6496
vn -0.7727 -0.5959 -0.2189
vn -0.8083 -0.0761 -0.5839
vn 0.1262 -0.9498 0.2864
vn -0.2714 -0.9395 0.2088
vn 0.0832 0.9590 -0.2708
vn 0.6755 0.2908 0.6776
vn -0.6877 -0.5663 -0.4544
vn -0.3032 -0.9525 -0.0291
vn 0.3111 0.9419 0.1263
vn -0.8997 -0.4348 0.0382
vn -0.5215 0.7434 -0.4187
vn 0.1807 -0.5307 0.8281
vn -0.5629 -0.8256 -0.0402
vn 0.0021 -0.9048 0.4258
vn -0.8902 0.4348 -0.1359
vn -0.1223 0.9359 0.3303
vn 0.1235 0.4153 0.9013
vn -0.6649 -0.4708 0.5799
vn -0.1322 0.0312 0.9907
vn -0.6581 0.3423 0.6706
s 1
f 3//1 1//2 4//3
f 2//4 5//5 1//2
f 5//5 4//3 1//2
f 2//4 1//2 6//6
f 1//2 7//7 6//6
f 3//1 4//3 8//8
f 3//1 7//7 1//2
f 3//1 8//8 7//7
f 4//3 5//5 9//9
f 2//4 11//10 5//5
f 10//11 11//10 9//9
f 2//4 6//6 12//12
f 12//12 6//6 13//13
f 11//10 2//4 12//12
f 13//13 14//14 12//12
f 15//15 11//10 12//12
f 11//10 15//15 9//9
f 15//15 12//12 14//14
f 8//8 17//16 7//7
f 4//3 9//9 16//17
f 16//17 8//8 4//3
f 6//6 7//7 18//18
f 6//6 18//18 13//13
f 9//9 15//15 16//17
f 17//16 18//18 7//7
f 13//13 19//19 14//14
f 18//18 20//20 13//13
f 21//21 17//16 8//8
f 16//17 21//21 8//8
f 18//18 22//22 23//23
f 18//18 17//16 22//22
f 18//18 23//23 20//20
f 24//24 16//17 15//15
f 25//25 15//15 14//14
f 14//14 19//19 26//26
f 16//17 27//27 21//21
f 25//25 28//28 15//15
f 24//24 29//29 16//17
f 27//27 16//17 29//29
f 20//20 23//23 26//26
f 26//26 23//23 30//30
f 14//14 26//26 31//31
f 32//32 21//21 27//27
f 32//32 22//22 17//16
f 21//21 32//32 17//16
f 23//23 22//22 33//33
f 28//28 29//29 15//15
f 29//29 28//28 34//34
f 35//35 31//31 30//30
f 31//31 26//26 30//30
f 32//32 36//36 22//22
f 33//33 22//22 36//36
f 35//35 30//30 46//37
f 27//27 37//38 32//32
f 29//29 37//38 27//27
f 30//30 23//23 38//39
f 23//23 33//33 38//39
f 37//38 36//36 32//32
f 46//37 30//30 40//40
f 30//30 39//41 40//40
f 29//29 41//42 37//38
f 34//34 46//37 29//29
f 36//36 42//43 33//33
f 29//29 46//37 41//42
f 39//41 30//30 38//39
f 43//44 38//39 33//33
f 43//44 33//33 42//43
f 41//42 42//43 37//38
f 37//38 42//43 36//36
f 44//45 39//41 38//39
f 38//39 43//44 45//46
f 40//40 39//41 44//45
f 44//45 47//47 46//37
f 45//46 43//44 47//47
f 46//37 40//40 44//45
f 47//47 42//43 41//42
f 41//42 46//37 47//47
f 47//47 43//44 42//43
