# Blender v2.78 (sub 0) OBJ File: 'exporter.blend'
# www.blender.org
o FJ1684M.obj_grp1.558
v 0.104726 -0.387677 7.115921
v 0.098664 -0.400516 7.112319
v 0.099058 -0.401168 7.112422
v 0.111937 -0.374819 7.120812
v 0.111402 -0.375608 7.117459
v 0.099567 -0.401628 7.111560
v 0.111517 -0.374605 7.120549
v 0.099941 -0.397727 7.114028
v 0.108865 -0.378356 7.118534
v 0.112134 -0.374521 7.120411
v 0.111588 -0.374498 7.118672
v 0.108679 -0.379462 7.118731
v 0.111533 -0.373575 7.119815
v 0.112068 -0.374654 7.119221
v 0.103754 -0.392480 7.114939
v 0.112469 -0.374640 7.119634
v 0.112016 -0.374482 7.119316
v 0.111699 -0.373805 7.119634
v 0.112033 -0.374299 7.119797
v 0.111699 -0.374640 7.120666
v 0.109821 -0.378353 7.119634
v 0.111029 -0.375371 7.120419
v 0.097998 -0.400872 7.112117
v 0.095568 -0.403573 7.111298
v 0.096925 -0.402581 7.111602
v 0.093859 -0.405625 7.109821
v 0.107771 -0.381301 7.116769
v 0.097633 -0.402341 7.111641
v 0.101590 -0.392511 7.114441
v 0.088045 -0.412108 7.107770
v 0.108320 -0.379335 7.118694
v 0.094425 -0.404847 7.110824
v 0.098554 -0.399991 7.113718
v 0.093859 -0.405625 7.109821
v 0.087079 -0.416036 7.108128
v 0.091358 -0.412368 7.108631
v 0.087904 -0.413445 7.108319
v 0.087218 -0.402362 7.085316
v 0.092420 -0.396153 7.086617
v 0.096571 -0.404439 7.111997
v 0.098338 -0.399231 7.112209
v 0.091631 -0.408604 7.111514
v 0.081934 -0.418350 7.109303
v 0.094513 -0.389041 7.087049
v 0.094142 -0.390929 7.086396
v 0.094485 -0.387184 7.087461
v 0.094046 -0.393242 7.085879
v 0.095712 -0.387779 7.086161
v 0.096844 -0.386846 7.087710
v 0.089128 -0.398510 7.084475
v 0.093302 -0.396551 7.088267
v 0.095737 -0.388724 7.088226
v 0.087641 -0.399354 7.087251
v 0.090456 -0.394940 7.084200
v 0.095754 -0.389746 7.087072
v 0.095839 -0.385430 7.087212
v 0.091042 -0.395297 7.087898
v 0.095737 -0.388724 7.088226
v 0.092011 -0.391964 7.086651
v 0.090103 -0.397174 7.085081
v 0.091430 -0.391253 7.086777
v 0.095662 -0.384741 7.087646
v 0.091042 -0.395297 7.087898
v 0.097505 -0.383091 7.087710
v 0.098824 -0.384782 7.088265
v 0.097777 -0.377483 7.089597
v 0.095778 -0.388718 7.088279
v 0.095618 -0.385888 7.088945
v 0.094053 -0.388743 7.087385
v 0.099278 -0.378980 7.088059
v 0.096518 -0.374078 7.088818
v 0.095631 -0.375639 7.090667
v 0.095762 -0.374612 7.089094
v 0.096210 -0.374545 7.088086
v 0.094575 -0.384459 7.087898
v 0.095631 -0.375639 7.090667
v 0.095737 -0.374640 7.089071
v 0.096476 -0.366604 7.090981
v 0.095737 -0.367129 7.093156
v 0.094406 -0.367641 7.091606
v 0.095308 -0.366909 7.093461
v 0.094406 -0.367641 7.091606
v 0.095631 -0.375639 7.090667
v 0.097769 -0.377457 7.089588
v 0.097251 -0.366626 7.091041
v 0.096677 -0.365078 7.092880
v 0.092744 -0.355015 7.094493
v 0.091689 -0.355640 7.095406
v 0.092521 -0.354841 7.094474
v 0.097769 -0.377457 7.089588
v 0.096138 -0.366196 7.092370
v 0.094716 -0.364842 7.093542
v 0.091893 -0.355522 7.095945
v 0.092499 -0.353802 7.097616
v 0.094208 -0.357147 7.095127
v 0.091674 -0.350175 7.096615
v 0.093792 -0.354398 7.095842
v 0.093001 -0.356494 7.096301
v 0.091983 -0.355856 7.096161
v 0.092004 -0.355862 7.096160
v 0.091996 -0.355855 7.096158
v 0.092563 -0.356896 7.097357
v 0.091797 -0.356787 7.095191
v 0.090815 -0.350270 7.096803
v 0.092221 -0.347483 7.098020
v 0.094223 -0.351722 7.095977
v 0.090103 -0.348350 7.096958
v 0.090036 -0.346430 7.096075
v 0.091981 -0.350228 7.097381
v 0.091042 -0.352475 7.097099
v 0.091981 -0.353782 7.097099
v 0.090444 -0.349528 7.094914
v 0.090016 -0.347160 7.098370
v 0.091235 -0.346435 7.100696
v 0.093583 -0.349324 7.098740
v 0.091328 -0.347411 7.098038
v 0.092216 -0.351167 7.096160
v 0.090781 -0.344922 7.097048
v 0.088346 -0.345825 7.099264
v 0.091328 -0.347411 7.098038
v 0.090103 -0.345087 7.098038
v 0.084679 -0.420079 7.109223
v 0.083788 -0.417546 7.109369
v 0.079702 -0.422201 7.108846
v 0.079790 -0.421370 7.107521
v 0.079775 -0.420508 7.109305
v 0.081503 -0.424032 7.107510
v 0.087574 -0.415957 7.107607
v 0.067935 -0.429267 7.108323
v 0.076228 -0.425014 7.109775
v 0.082859 -0.405848 7.085698
v 0.091725 -0.392480 7.086771
v 0.086348 -0.400930 7.088132
v 0.091042 -0.395297 7.087898
v 0.091725 -0.392480 7.086771
v 0.090103 -0.397174 7.085081
v 0.085409 -0.401869 7.085362
v 0.077593 -0.410967 7.088333
v 0.091725 -0.392480 7.086771
v 0.085409 -0.401869 7.085362
v 0.085104 -0.404142 7.088161
v 0.077897 -0.409380 7.089682
v 0.077897 -0.409380 7.089682
v 0.089686 -0.345474 7.098784
v 0.089685 -0.346449 7.096967
v 0.091042 -0.352475 7.097099
v 0.091042 -0.352475 7.097099
v 0.089191 -0.345916 7.099620
v 0.089304 -0.347411 7.098038
v 0.089209 -0.344716 7.098787
v 0.090223 -0.345799 7.097878
v 0.089304 -0.347411 7.098038
v 0.089650 -0.344832 7.099519
v 0.089165 -0.345534 7.097944
v 0.089661 -0.345452 7.097925
v 0.090103 -0.346472 7.097427
v 0.089165 -0.344595 7.099446
v 0.089598 -0.345252 7.098108
v 0.067284 -0.430396 7.107850
v 0.078836 -0.425144 7.108366
v 0.076241 -0.423465 7.109347
v 0.069424 -0.430658 7.110526
v 0.067135 -0.428584 7.106884
v 0.074088 -0.410601 7.086927
v 0.080559 -0.404545 7.087862
v 0.077897 -0.409380 7.089682
v 0.063041 -0.418274 7.093460
v 0.086348 -0.400930 7.088132
v 0.070162 -0.430074 7.107756
v 0.070162 -0.430074 7.107756
v 0.078836 -0.425144 7.108366
v 0.067367 -0.432661 7.109315
v 0.058283 -0.437842 7.109540
v 0.046067 -0.440218 7.112962
v 0.070087 -0.428159 7.110244
v 0.064833 -0.430477 7.109305
v 0.061999 -0.431787 7.110239
v 0.065248 -0.431225 7.109714
v 0.075816 -0.409767 7.085958
v 0.048188 -0.430212 7.099046
v 0.038977 -0.440398 7.111622
v 0.053938 -0.438139 7.110338
v 0.062875 -0.432854 7.111605
v 0.050110 -0.438130 7.113436
v 0.054751 -0.435076 7.109872
v 0.050082 -0.438141 7.113422
v 0.056230 -0.435237 7.112351
v 0.051608 -0.428130 7.098038
v 0.058522 -0.420562 7.092123
v 0.058522 -0.420562 7.092123
v 0.058522 -0.420562 7.092123
v 0.049262 -0.428148 7.098739
v 0.074869 -0.409126 7.089118
v 0.051790 -0.435321 7.111503
v 0.054424 -0.434621 7.111183
v 0.056302 -0.424403 7.093296
v 0.054170 -0.425949 7.094343
v 0.049660 -0.427266 7.095560
v 0.048425 -0.425939 7.098742
v 0.058522 -0.420562 7.092123
v 0.047886 -0.428222 7.100582
v 0.044399 -0.437367 7.110960
v 0.042951 -0.437227 7.111372
v 0.038463 -0.440365 7.115173
v 0.036973 -0.432443 7.103873
v 0.038378 -0.429777 7.101819
v 0.047852 -0.428159 7.100432
v 0.057891 -0.420717 7.096757
v 0.036114 -0.431089 7.100020
v 0.038988 -0.429066 7.101338
v 0.038460 -0.440283 7.114149
v 0.004142 -0.436905 7.120426
v 0.037028 -0.441351 7.115848
v 0.018791 -0.436609 7.117456
v 0.033689 -0.435110 7.101517
v 0.022756 -0.438039 7.112328
v 0.026342 -0.438231 7.113202
v 0.026489 -0.430970 7.101802
v 0.029940 -0.431926 7.100526
v 0.026342 -0.438231 7.113202
v 0.003567 -0.433641 7.118799
v 0.018432 -0.436459 7.117568
v 0.026342 -0.438231 7.113202
v 0.004537 -0.432120 7.101725
v 0.008262 -0.432902 7.104195
v 0.019227 -0.431827 7.100336
v 0.002790 -0.434582 7.116187
v 0.006191 -0.430493 7.104242
v 0.004613 -0.428893 7.101746
v 0.002756 -0.437715 7.118639
v 0.002789 -0.435612 7.119996
v 0.002663 -0.437951 7.118990
v 0.002632 -0.435682 7.120047
v 0.005662 -0.430973 7.099480
v 0.004393 -0.430937 7.100692
v 0.005196 -0.430415 7.101012
v 0.004638 -0.431849 7.101794
vn -0.7936 0.4906 0.3600
vn -0.8411 0.5216 0.1432
vn -0.8155 0.5744 0.0710
vn -0.8226 0.1269 0.5543
vn -0.8498 0.3304 0.4107
vn -0.8497 0.3399 0.4030
vn -0.6933 0.3301 0.6406
vn -0.0636 -0.2956 0.9532
vn 0.8182 -0.4938 0.2946
vn 0.7763 -0.4839 0.4040
vn -0.1296 0.2319 -0.9641
vn -0.0755 0.1774 -0.9812
vn -0.2423 0.2526 -0.9367
vn 0.2492 0.1272 -0.9601
vn 0.4210 0.0186 -0.9069
vn 0.5033 -0.0788 -0.8605
vn -0.6777 0.1469 0.7205
vn -0.5799 0.2790 0.7654
vn -0.7876 0.1900 0.5862
vn -0.8611 0.5058 -0.0519
vn -0.2140 -0.2567 0.9425
vn 0.0137 0.0174 -0.9998
vn 0.0623 -0.0874 -0.9942
vn -0.8009 0.4541 0.3903
vn -0.8956 0.2961 0.3320
vn -0.7598 0.6451 0.0812
vn -0.7458 0.6573 -0.1087
vn 0.8163 -0.2570 0.5173
vn 0.8060 -0.2329 0.5442
vn 0.6106 -0.4321 -0.6637
vn 0.8496 -0.2384 -0.4704
vn 0.8470 -0.1935 -0.4952
vn 0.8469 -0.1935 -0.4953
vn -0.1973 0.1414 0.9701
vn -0.2025 0.0658 0.9771
vn -0.4383 0.5098 0.7403
vn -0.4631 0.2332 0.8551
vn -0.4457 0.2762 0.8515
vn -0.4454 0.3142 0.8384
vn -0.5990 0.3029 0.7413
vn -0.5738 0.2693 0.7734
vn -0.6122 0.2759 0.7410
vn 0.6249 -0.5472 -0.5569
vn 0.8420 -0.1480 -0.5188
vn 0.2359 -0.1567 0.9591
vn 0.4284 -0.2099 0.8789
vn 0.2310 -0.1614 0.9595
vn 0.0512 0.2408 -0.9692
vn -0.0540 0.1074 -0.9928
vn -0.0585 0.0158 -0.9982
vn -0.5639 -0.1366 0.8144
vn -0.5540 -0.1090 0.8254
vn -0.5856 -0.1101 0.8031
vn 0.4684 0.0845 -0.8795
vn -0.9084 0.0442 -0.4157
vn -0.9015 -0.0086 -0.4328
vn 0.3862 0.1314 -0.9130
vn -0.9931 0.1168 0.0070
vn -0.9974 -0.0082 -0.0712
vn -0.9974 -0.0083 -0.0712
vn 0.1536 0.3132 -0.9372
vn 0.5100 -0.1881 0.8393
vn -0.9800 -0.1333 -0.1479
vn -0.7810 -0.2788 0.5589
vn -0.8289 -0.2936 0.4762
vn -0.8551 -0.1861 0.4838
vn 0.9559 0.0061 0.2937
vn 0.9826 0.0816 0.1670
vn 0.9778 0.1688 0.1244
vn 0.5371 0.3987 -0.7433
vn -0.7579 0.0615 -0.6494
vn -0.7043 0.0221 -0.7096
vn 0.5650 -0.1190 0.8165
vn 0.6461 -0.1047 0.7561
vn 0.5159 -0.2354 0.8237
vn -0.5263 -0.4791 0.7025
vn 0.9547 0.2153 0.2056
vn 0.9577 0.2806 0.0633
vn 0.9662 0.2407 0.0924
vn 0.6724 0.3105 -0.6719
vn -0.5499 -0.4900 0.6764
vn -0.9075 -0.1532 0.3911
vn -0.9252 -0.2100 0.3160
vn -0.9092 -0.2641 0.3219
vn -0.9514 -0.2692 0.1497
vn -0.7413 -0.0199 -0.6709
vn 0.7066 0.2182 -0.6731
vn -0.1100 -0.0787 0.9908
vn 0.9819 0.1876 -0.0251
vn 0.9750 0.2215 0.0180
vn 0.9827 0.1826 0.0302
vn 0.4821 0.2498 0.8397
vn 0.4799 0.2530 0.8401
vn 0.4488 0.2708 0.8516
vn 0.6121 -0.5246 -0.5917
vn 0.7807 -0.5075 -0.3646
vn 0.8577 -0.4870 -0.1649
vn -0.0943 -0.0733 0.9928
vn -0.2557 0.0951 0.9621
vn -0.2666 0.0673 0.9615
vn 0.1048 -0.2647 -0.9586
vn -0.5167 0.6468 -0.5609
vn -0.6618 0.6003 0.4492
vn -0.5411 0.8366 -0.0858
vn -0.0002 -0.0423 0.9991
vn -0.0751 0.3267 0.9421
vn 0.4487 -0.5645 -0.6928
vn -0.4701 0.4234 0.7744
vn -0.4852 0.4397 -0.7559
vn 0.5836 -0.8102 -0.0549
vn 0.7291 -0.5833 0.3580
vn 0.7229 -0.5108 0.4653
vn -0.8085 0.4970 0.3152
vn -0.7629 0.5959 0.2508
vn -0.5651 0.6819 0.4644
vn 0.5472 -0.5035 0.6686
vn -0.4207 0.5783 0.6990
vn -0.9550 -0.2482 0.1622
vn -0.9873 -0.1079 0.1170
vn -0.9695 -0.2160 0.1163
vn -0.8926 -0.3577 0.2745
vn -0.8930 -0.3574 0.2735
vn -0.8901 -0.3650 0.2727
vn -0.9471 -0.0545 0.3162
vn -0.9454 -0.0631 0.3197
vn -0.9473 -0.0377 0.3182
vn 0.4770 -0.6428 0.5994
vn -0.3208 0.3884 0.8638
vn 0.1069 -0.0315 0.9938
vn 0.3369 -0.6373 0.6930
vn -0.3468 0.7098 0.6131
vn 0.4006 -0.6904 -0.6024
vn -0.5192 0.8465 0.1178
vn 0.3278 -0.0263 0.9444
vn -0.3000 0.4649 0.8330
vn 0.0645 0.3473 0.9355
vn -0.0367 0.3936 0.9185
vn -0.3314 0.4754 0.8149
vn -0.0200 0.0721 -0.9972
vn -0.0173 0.0463 -0.9988
vn -0.0480 0.0491 -0.9976
vn 0.2017 -0.4193 -0.8851
vn 0.4673 -0.7697 -0.4349
vn 0.1940 -0.6360 -0.7470
vn 0.3511 -0.6404 0.6831
vn 0.0823 -0.9595 0.2695
vn -0.3501 0.6255 0.6973
vn -0.4182 0.8900 0.1817
vn -0.3728 0.8422 0.3894
vn -0.0659 -0.1549 -0.9857
vn -0.0034 0.2623 -0.9650
vn 0.5283 -0.8369 0.1427
vn -0.0406 -0.7232 -0.6895
vn -0.0660 -0.0453 -0.9968
vn -0.2658 0.6828 0.6806
vn 0.4732 -0.8178 0.3276
vn -0.4229 0.7725 -0.4738
vn -0.2631 0.8178 0.5119
vn -0.4449 0.8197 0.3608
vn -0.2956 0.8763 -0.3804
vn -0.0959 0.7249 0.6822
vn -0.5121 0.8531 0.1001
vn -0.5577 0.8037 0.2076
vn -0.5143 0.8397 0.1740
vn -0.5407 0.8210 0.1836
vn -0.1395 0.9776 -0.1576
vn -0.1447 0.8047 0.5758
vn 0.4185 -0.7967 -0.4360
vn -0.3173 0.1598 -0.9348
vn -0.2170 -0.1722 -0.9609
vn 0.2809 -0.6014 -0.7480
vn -0.2331 -0.2662 -0.9353
vn -0.4815 0.7816 -0.3967
vn -0.6388 0.5908 -0.4928
vn 0.4996 -0.5113 0.6993
vn -0.0731 -0.0663 -0.9951
vn -0.1855 0.6934 -0.6962
vn 0.2301 -0.6112 0.7573
vn 0.5157 -0.8531 -0.0791
vn -0.0247 0.5102 0.8597
vn 0.1619 -0.1891 0.9685
vn 0.0576 0.3473 0.9360
vn -0.2826 0.2807 -0.9172
vn -0.3278 0.8044 -0.4956
vn 0.0970 0.3373 0.9364
vn -0.0196 -0.2259 0.9740
vn 0.1107 -0.4842 0.8679
vn 0.1261 0.0707 0.9895
vn -0.0850 -0.9619 -0.2600
vn -0.0032 0.7614 0.6483
vn 0.0216 -0.9860 -0.1653
vn -0.1378 -0.9904 -0.0058
vn -0.1074 0.8508 -0.5145
vn -0.0052 0.9946 -0.1039
vn -0.0459 -0.3232 -0.9452
vn 0.1800 0.9810 -0.0722
vn 0.1927 0.9785 -0.0741
vn 0.1755 0.9840 -0.0299
vn -0.6555 0.2681 -0.7060
vn -0.3434 0.8791 0.3305
vn 0.0960 0.9255 -0.3665
vn -0.0279 0.0420 -0.9987
vn -0.5774 -0.6334 -0.5152
vn -0.1923 -0.7364 0.6487
vn -0.6438 0.7485 -0.1593
vn -0.4475 -0.6456 -0.6188
vn 0.0917 0.5066 0.8573
vn -0.1773 -0.6637 0.7267
vn -0.4045 0.0784 -0.9112
vn -0.6073 0.1423 0.7816
vn -0.1115 -0.8036 -0.5847
vn -0.4777 -0.3894 0.7875
vn -0.9152 0.3069 0.2611
vn -0.8681 0.0568 -0.4932
vn -0.6158 0.4384 -0.6547
vn -0.9301 0.2531 0.2663
s 1
f 10//1 11//2 12//3
f 9//4 7//5 13//6
f 8//7 7//5 9//4
f 3//8 16//9 4//10
f 5//11 6//12 25//13
f 26//14 27//15 28//16
f 31//17 32//18 33//19
f 12//3 11//2 34//20
f 24//21 3//8 4//10
f 28//16 36//22 26//14
f 26//14 36//22 37//23
f 42//24 29//25 30//26
f 43//27 42//24 30//26
f 45//28 46//29 39//30
f 47//31 48//32 49//33
f 51//34 52//35 53//36
f 56//37 57//38 58//39
f 61//40 63//41 62//42
f 39//30 50//43 45//28
f 64//44 49//33 48//32
f 65//45 66//46 67//47
f 71//48 70//49 44//50
f 72//51 69//52 68//53
f 55//54 73//55 74//56
f 54//57 73//55 55//54
f 75//58 76//59 77//60
f 70//49 71//48 78//61
f 79//62 67//47 66//46
f 76//59 80//63 77//60
f 81//64 82//65 83//66
f 84//67 85//68 86//69
f 71//48 87//70 78//61
f 74//56 73//55 88//71
f 89//72 74//56 88//71
f 90//73 91//74 92//75
f 82//65 81//64 93//76
f 92//75 91//74 94//77
f 85//68 95//78 86//69
f 96//79 94//77 91//74
f 87//70 97//80 78//61
f 81//64 98//81 93//76
f 103//82 101//83 104//84
f 104//84 101//83 102//85
f 88//71 107//86 89//72
f 108//87 97//80 87//70
f 109//88 110//88 111//88
f 116//89 117//90 118//91
f 119//92 120//93 121//94
f 122//95 35//96 23//97
f 123//98 40//99 41//100
f 124//101 37//23 36//22
f 125//102 43//27 30//26
f 126//103 42//24 43//27
f 129//104 43//27 125//102
f 123//98 122//105 40//99
f 130//106 42//24 126//103
f 39//30 131//107 50//43
f 132//108 133//108 134//108
f 135//109 136//109 137//109
f 138//110 38//111 39//112
f 139//113 140//114 141//115
f 138//110 39//112 142//116
f 143//117 51//34 53//36
f 144//118 145//119 146//120
f 147//121 148//122 149//123
f 152//124 153//125 154//126
f 160//127 35//96 122//95
f 129//104 161//128 43//27
f 161//128 130//106 126//103
f 123//98 162//129 122//105
f 122//95 130//130 160//127
f 129//104 125//102 163//131
f 179//132 50//43 131//107
f 140//114 164//133 141//115
f 138//110 131//107 38//111
f 142//116 167//134 138//110
f 165//135 167//136 166//137
f 165//135 166//137 168//138
f 128//139 127//140 169//141
f 170//142 171//143 172//144
f 130//130 173//145 160//127
f 130//130 174//146 173//145
f 175//147 176//148 177//149
f 170//142 159//150 124//151
f 175//147 130//106 161//128
f 161//128 129//104 176//148
f 176//148 175//147 161//128
f 138//110 179//132 131//107
f 180//152 138//110 167//134
f 181//153 172//144 182//154
f 181//153 159//150 170//142
f 177//149 183//155 175//147
f 170//142 172//144 181//153
f 174//146 130//130 184//156
f 130//130 178//157 184//156
f 181//153 185//158 159//150
f 163//159 185//160 176//148
f 183//155 177//149 187//161
f 190//162 141//115 164//133
f 191//163 192//164 193//165
f 176//148 185//160 177//149
f 185//160 194//166 177//149
f 187//161 177//149 195//167
f 196//168 179//132 138//110
f 198//169 189//170 197//171
f 189//170 179//172 197//171
f 198//169 199//173 200//174
f 196//168 138//110 197//171
f 180//152 167//134 201//175
f 173//145 174//146 181//153
f 202//176 185//158 181//153
f 194//166 185//160 203//177
f 195//167 194//166 187//161
f 204//178 174//146 184//156
f 188//179 197//171 138//110
f 197//171 188//179 180//152
f 206//180 205//181 207//182
f 199//173 209//183 210//184
f 208//185 206//180 207//182
f 212//186 211//187 186//188
f 181//153 174//146 213//189
f 194//166 214//190 187//161
f 214//190 186//188 187//161
f 203//177 214//190 194//166
f 215//191 197//171 180//152
f 197//171 215//191 198//169
f 198//169 209//183 199//173
f 180//152 201//175 205//181
f 180//152 205//181 215//191
f 202//176 181//153 216//192
f 217//193 214//190 203//177
f 212//186 186//188 214//190
f 209//183 198//169 215//191
f 218//194 210//184 209//183
f 218//194 205//181 206//180
f 219//195 209//183 215//191
f 220//196 221//197 222//198
f 227//199 221//200 223//201
f 226//202 215//191 224//203
f 226//202 219//195 215//191
f 205//181 225//204 215//191
f 209//183 226//202 218//194
f 218//194 229//205 205//181
f 227//199 216//192 181//153
f 230//206 227//199 181//153
f 231//207 212//186 214//190
f 232//208 211//187 212//186
f 213//189 230//206 181//153
f 234//209 226//202 224//203
f 228//210 225//204 205//181
f 228//210 205//181 229//205
f 224//203 215//191 225//204
f 234//209 218//194 226//202
f 229//205 218//194 234//209
f 230//206 213//189 232//211
f 232//208 212//186 233//212
f 233//213 227//199 230//206
f 227//199 233//213 221//200
f 234//209 224//203 236//214
f 235//215 229//205 234//209
f 224//203 237//216 236//214
f 237//216 229//205 236//214
f 225//204 229//205 237//216
f 225//204 228//210 229//205
f 221//200 231//207 214//190
f 231//207 221//200 233//213
l 1 2
l 155 156
l 21 22
l 19 20
l 157 158
l 150 151
l 59 60
l 99 100
l 14 15
l 105 106
l 114 115
l 17 18
l 44 45
l 112 113
