# Blender v2.78 (sub 0) OBJ File: 'exporter.blend'
# www.blender.org
o FJ1674M.obj_grp1.538
v 0.095202 -0.377602 7.368026
v 0.095202 -0.375478 7.368166
v 0.099359 -0.367274 7.359716
v 0.099359 -0.367274 7.359716
v 0.095119 -0.377855 7.369048
v 0.096232 -0.376119 7.368419
v 0.091803 -0.383134 7.372212
v 0.094845 -0.377656 7.368282
v 0.095202 -0.377993 7.369105
v 0.095202 -0.377993 7.369105
v 0.092385 -0.382297 7.371030
v 0.094263 -0.377602 7.368308
v 0.091345 -0.382473 7.371980
v 0.094349 -0.378251 7.369797
v 0.095202 -0.375478 7.368166
v 0.094076 -0.380245 7.371268
v 0.094794 -0.377504 7.368155
v 0.095202 -0.375478 7.368166
v 0.095202 -0.375478 7.368166
v 0.091043 -0.383232 7.372959
v 0.093784 -0.380524 7.370983
v 0.091236 -0.383183 7.372306
v 0.092467 -0.380419 7.370983
v 0.091272 -0.383236 7.371922
v 0.091254 -0.383488 7.372744
v 0.092385 -0.382297 7.371030
v 0.091396 -0.383378 7.372113
v 0.091300 -0.383562 7.372845
v 0.093784 -0.380524 7.370983
v 0.104382 -0.357625 7.348721
v 0.102806 -0.360722 7.352145
v 0.105654 -0.355002 7.343221
v 0.103192 -0.364285 7.355053
v 0.104288 -0.357540 7.349178
v 0.102632 -0.360712 7.352231
v 0.101200 -0.362228 7.355314
v 0.102832 -0.360701 7.352205
v 0.103673 -0.363838 7.353931
v 0.100621 -0.365909 7.357697
v 0.103617 -0.362100 7.353386
v 0.100900 -0.364637 7.357777
v 0.105083 -0.360197 7.352745
v 0.101590 -0.362699 7.354889
v 0.099896 -0.367274 7.361360
v 0.103290 -0.365326 7.356898
v 0.104296 -0.360945 7.353238
v 0.107160 -0.354193 7.344002
v 0.099896 -0.367274 7.361360
v 0.101009 -0.362823 7.356334
v 0.096485 -0.375724 7.367228
v 0.096485 -0.375724 7.367228
v 0.101005 -0.363735 7.355248
v 0.095202 -0.375478 7.368166
v 0.108343 -0.353327 7.340762
v 0.111448 -0.350350 7.334138
v 0.111811 -0.351412 7.332897
v 0.115515 -0.349452 7.323812
v 0.113442 -0.348450 7.325371
v 0.112365 -0.349781 7.333533
v 0.114345 -0.347879 7.325798
v 0.114012 -0.349612 7.328558
v 0.108927 -0.352393 7.341184
v 0.107770 -0.351758 7.340839
v 0.114038 -0.350519 7.326144
v 0.114919 -0.350322 7.323098
v 0.112102 -0.351335 7.333426
v 0.108602 -0.353095 7.339090
v 0.108201 -0.354318 7.341565
v 0.109125 -0.352831 7.338591
v 0.111164 -0.351936 7.332488
v 0.107608 -0.357082 7.341702
v 0.108359 -0.353190 7.338121
v 0.107665 -0.354791 7.341879
v 0.108472 -0.354650 7.342539
v 0.107904 -0.351515 7.342034
v 0.107852 -0.352435 7.344035
v 0.115572 -0.348495 7.319343
v 0.119636 -0.349434 7.309014
v 0.123611 -0.350650 7.304410
v 0.119636 -0.349434 7.309014
v 0.118156 -0.348748 7.318122
v 0.123370 -0.351692 7.300564
v 0.119614 -0.350063 7.313709
v 0.119636 -0.349434 7.309014
v 0.119614 -0.350063 7.313709
v 0.114919 -0.350322 7.323098
v 0.119636 -0.349434 7.309014
v 0.118394 -0.349637 7.324083
v 0.123476 -0.350517 7.306453
v 0.114919 -0.350322 7.323098
v 0.119614 -0.350063 7.313709
v 0.114266 -0.349434 7.327793
v 0.112102 -0.351335 7.333426
v 0.114919 -0.350322 7.323098
v 0.114266 -0.349434 7.327793
v 0.127405 -0.352464 7.288131
v 0.120458 -0.348314 7.310088
v 0.127125 -0.351173 7.289297
v 0.128598 -0.354410 7.286115
v 0.122431 -0.349222 7.303380
v 0.117525 -0.348938 7.306806
v 0.122534 -0.352448 7.292379
v 0.125454 -0.352200 7.291503
v 0.127177 -0.353190 7.292114
v 0.123370 -0.351692 7.300564
v 0.125916 -0.351206 7.299469
v 0.125019 -0.349738 7.300429
v 0.123370 -0.351692 7.300564
v 0.127177 -0.353190 7.292114
v 0.119614 -0.350063 7.313709
v 0.128237 -0.350871 7.291783
v 0.127125 -0.353916 7.287419
v 0.127125 -0.353916 7.287419
v 0.127214 -0.351713 7.289447
v 0.128064 -0.351510 7.287419
v 0.128722 -0.353003 7.279841
v 0.128978 -0.351548 7.280378
v 0.129031 -0.355751 7.267602
v 0.127720 -0.359762 7.263007
v 0.127990 -0.367505 7.252831
v 0.129912 -0.359774 7.261035
v 0.130538 -0.356896 7.267990
v 0.127598 -0.367417 7.251767
v 0.129913 -0.355840 7.267760
v 0.127998 -0.355543 7.273066
v 0.128714 -0.359115 7.267197
v 0.127964 -0.354905 7.274268
v 0.127720 -0.359762 7.263007
v 0.129003 -0.355068 7.280330
v 0.129006 -0.355305 7.274694
v 0.131602 -0.361802 7.261554
v 0.131108 -0.358896 7.265856
v 0.129003 -0.355068 7.280330
v 0.127171 -0.352896 7.292096
v 0.127690 -0.355068 7.274274
v 0.130097 -0.353668 7.284410
v 0.129003 -0.355068 7.280330
v 0.129289 -0.353289 7.284357
v 0.127690 -0.355068 7.274274
v 0.127499 -0.351312 7.293053
v 0.125129 -0.351084 7.298477
v 0.127648 -0.367322 7.252577
v 0.126582 -0.360538 7.262425
v 0.130102 -0.365527 7.254727
v 0.130301 -0.371228 7.250646
v 0.130474 -0.362511 7.259486
v 0.129109 -0.366366 7.257200
v 0.130214 -0.371322 7.250576
v 0.128620 -0.372240 7.249992
v 0.128172 -0.372698 7.251379
v 0.130035 -0.384807 7.239594
v 0.131633 -0.387074 7.239381
v 0.130433 -0.378724 7.245707
v 0.128064 -0.372907 7.247703
v 0.128122 -0.372712 7.251198
v 0.127506 -0.380609 7.243298
v 0.129006 -0.389541 7.240371
v 0.127498 -0.373907 7.246059
v 0.127338 -0.379346 7.243923
v 0.131327 -0.386660 7.239736
v 0.130789 -0.384944 7.242610
v 0.130590 -0.386375 7.240348
v 0.130958 -0.389437 7.240880
v 0.129003 -0.375724 7.249252
v 0.136864 -0.404085 7.230886
v 0.133002 -0.398295 7.232588
v 0.137000 -0.403354 7.230972
v 0.136893 -0.403677 7.232428
v 0.131021 -0.397945 7.233490
v 0.134606 -0.401471 7.234653
v 0.138418 -0.412446 7.225533
v 0.130155 -0.396870 7.234386
v 0.145549 -0.423639 7.223580
v 0.145921 -0.425252 7.224619
v 0.147396 -0.423912 7.224558
v 0.143068 -0.417039 7.228126
v 0.143068 -0.417039 7.228126
v 0.146556 -0.424111 7.224124
v 0.146065 -0.424749 7.224919
v 0.147268 -0.423745 7.224131
v 0.146002 -0.424487 7.223289
v 0.146753 -0.425016 7.225310
v 0.141278 -0.416107 7.225169
v 0.146989 -0.424335 7.221329
v 0.146454 -0.424329 7.220881
v 0.145676 -0.423323 7.224196
v 0.145913 -0.425693 7.224459
v 0.147337 -0.423631 7.224847
v 0.145765 -0.424402 7.225193
v 0.145584 -0.423258 7.224117
vn -0.9075 0.0278 -0.4192
vn 0.3781 -0.5732 -0.7270
vn 0.2056 0.4322 0.8780
vn 0.2106 0.4374 0.8743
vn 0.2065 0.4414 0.8732
vn -0.2132 -0.6922 -0.6895
vn -0.2497 -0.7471 -0.6160
vn -0.3773 -0.6985 -0.6081
vn 0.5050 0.4625 0.7287
vn 0.7776 0.3179 0.5425
vn 0.6518 0.4642 0.5997
vn 0.2534 0.6429 0.7228
vn -0.2750 0.8175 0.5060
vn -0.1722 0.8272 0.5349
vn -0.3203 0.7673 0.5556
vn -0.2166 -0.8100 -0.5449
vn 0.9528 0.1101 0.2829
vn -0.8974 -0.1285 -0.4220
vn -0.8887 -0.0864 -0.4502
vn -0.9078 0.0613 -0.4148
vn -0.5575 -0.4464 -0.7000
vn -0.5562 -0.4723 -0.6838
vn -0.5779 -0.4515 -0.6799
vn -0.4898 0.6984 0.5219
vn -0.4836 0.6994 0.5263
vn -0.4816 0.7064 0.5187
vn 0.8499 0.1251 0.5118
vn 0.8359 -0.0007 0.5489
vn 0.8792 0.2461 0.4080
vn -0.7588 0.6431 0.1033
vn -0.4879 0.8670 0.1016
vn 0.6107 0.7418 0.2771
vn 0.5235 -0.8500 0.0594
vn 0.5476 -0.8344 0.0626
vn -0.0763 -0.9054 -0.4176
vn -0.7295 -0.6234 -0.2815
vn -0.8535 -0.3313 -0.4022
vn -0.9655 -0.1648 -0.2016
vn -0.8338 -0.2780 -0.4770
vn -0.8163 -0.2216 -0.5335
vn -0.7810 -0.3059 -0.5444
vn 0.8175 -0.4622 0.3435
vn 0.8822 -0.3894 0.2649
vn 0.8742 -0.3473 0.3392
vn 0.6039 -0.7593 -0.2424
vn 0.9086 -0.0788 0.4101
vn 0.8912 0.1464 0.4293
vn 0.9804 0.0052 0.1968
vn -0.7993 -0.4908 -0.3467
vn -0.8730 -0.3772 -0.3092
vn 0.5627 0.8220 0.0873
vn 0.3887 0.9170 0.0892
vn 0.7261 0.6346 0.2648
vn 0.7001 0.6425 0.3115
vn 0.7198 0.6199 0.3126
vn -0.6726 -0.7331 -0.1013
vn -0.2080 -0.9693 -0.1308
vn 0.7609 0.5110 0.3998
vn 0.5012 -0.8349 0.2276
vn 0.8880 -0.4133 0.2017
vn -0.9240 -0.2224 -0.3110
vn -0.9710 -0.1023 -0.2161
vn -0.9448 -0.1419 -0.2952
vn -0.5074 -0.8609 0.0371
vn -0.4809 -0.8746 -0.0616
vn 0.7532 -0.5576 0.3490
vn 0.7076 -0.5685 0.4197
vn 0.7016 -0.6204 0.3504
vn 0.4963 0.8681 0.0104
vn 0.7397 -0.6088 0.2868
vn -0.5286 -0.8380 0.1355
vn -0.7408 0.6601 -0.1242
vn -0.7002 0.6968 -0.1556
vn -0.6680 0.7035 -0.2428
vn 0.4458 0.8604 -0.2468
vn 0.9802 -0.1354 0.1448
vn 0.5646 0.7342 -0.3770
vn -0.3952 0.8231 -0.4078
vn -0.4620 0.7371 -0.4932
vn -0.4555 0.6047 -0.6533
vn 0.9016 0.3956 -0.1751
vn 0.3502 0.7041 -0.6177
vn -0.4597 0.7106 -0.5327
vn -0.7786 0.6119 -0.1393
vn -0.7903 -0.5294 0.3084
vn -0.9063 -0.3998 0.1371
vn -0.8662 -0.4050 0.2926
vn -0.8767 -0.4563 0.1522
vn -0.3158 -0.9388 0.1378
vn -0.5004 -0.8423 0.2002
vn -0.4419 -0.8919 0.0958
vn 0.3958 -0.8772 0.2717
vn 0.1987 -0.9458 0.2568
vn 0.7492 0.5696 -0.3381
vn 0.2439 0.9590 -0.1446
vn -0.8961 0.4372 -0.0768
vn -0.8757 0.4808 -0.0445
vn -0.8985 0.4167 -0.1381
vn 0.7921 0.6095 -0.0319
vn 0.7968 -0.4749 0.3737
vn 0.5047 -0.7539 0.4207
vn -0.9301 0.2208 -0.2935
vn -0.9313 -0.2554 0.2597
vn -0.9941 0.0119 0.1075
vn 0.5952 0.5810 -0.5552
vn 0.4374 0.7457 -0.5026
vn 0.8636 0.3098 -0.3978
vn 0.4516 -0.7053 0.5465
vn 0.3509 -0.7587 0.5488
vn 0.9566 -0.1927 0.2186
vn -0.9061 -0.3796 0.1867
vn 0.4904 -0.6642 0.5642
vn 0.6653 0.5051 -0.5497
vn 0.6673 0.4706 -0.5772
vn -0.8556 0.3025 -0.4200
vn -0.4507 -0.6262 0.6362
vn 0.4078 -0.5371 0.7384
vn 0.0529 -0.6530 0.7555
vn -0.4969 -0.4647 0.7329
vn 0.9326 0.0075 0.3609
vn 0.9942 0.0468 0.0964
vn 0.7436 -0.3614 0.5625
vn 0.6769 -0.2842 0.6790
vn 0.2361 0.3404 -0.9102
vn 0.0193 0.3909 -0.9203
vn 0.4163 0.3807 -0.8257
vn 0.9949 0.0440 0.0904
vn 0.9611 0.2756 -0.0189
vn -0.5745 -0.5599 0.5970
vn -0.5000 0.3253 -0.8026
vn -0.5874 0.3062 -0.7492
vn -0.3728 0.2718 -0.8872
vn -0.0037 -0.3461 0.9382
vn 0.9426 -0.0132 0.3337
vn 0.6838 0.0795 0.7253
vn 0.9765 0.2117 -0.0391
vn 0.3894 0.4268 -0.8162
vn 0.4055 0.5139 -0.7560
vn -0.2004 -0.4333 0.8787
vn 0.8931 0.4493 0.0214
vn 0.9168 0.3924 0.0735
vn 0.4793 -0.1950 0.8557
vn 0.5599 -0.1384 0.8169
vn -0.8380 -0.5233 0.1546
vn -0.8935 -0.3970 -0.2098
vn -0.7992 -0.5728 0.1820
vn -0.4409 -0.5376 0.7188
vn -0.8037 -0.5209 0.2875
vn 0.3378 -0.0944 -0.9365
vn 0.3502 -0.0993 -0.9314
vn 0.3545 -0.0612 -0.9331
s 1
f 1//1 2//1 3//1
f 10//2 11//2 12//2
f 19//3 20//4 21//5
f 69//6 41//7 32//8
f 33//9 68//10 34//11
f 33//9 34//11 37//12
f 44//13 42//14 43//15
f 41//7 69//6 40//16
f 43//15 42//14 47//17
f 35//18 50//19 36//20
f 51//21 39//22 38//23
f 48//24 49//25 53//26
f 15//27 16//28 52//29
f 54//30 55//31 58//32
f 65//33 66//34 67//35
f 64//36 68//37 63//38
f 70//39 71//40 72//41
f 73//42 61//43 62//44
f 66//34 74//45 67//35
f 45//46 67//35 74//45
f 74//45 46//47 45//46
f 47//17 42//14 73//48
f 77//49 78//50 64//36
f 79//51 58//32 55//31
f 79//51 80//52 58//32
f 81//53 97//54 60//55
f 82//56 83//56 84//56
f 85//57 86//57 87//57
f 63//38 77//49 64//36
f 81//53 60//55 59//58
f 90//59 91//59 92//59
f 93//60 94//60 95//60
f 98//61 99//62 100//63
f 103//64 104//64 105//65
f 108//66 109//67 107//68
f 106//69 97//54 81//53
f 110//70 108//66 107//68
f 113//71 104//64 103//64
f 114//72 115//73 116//74
f 97//54 106//69 96//75
f 117//76 124//77 118//78
f 118//78 121//79 120//80
f 121//79 118//78 124//77
f 122//81 123//82 124//77
f 118//78 119//83 125//84
f 126//85 127//86 128//87
f 125//84 116//74 118//78
f 126//85 129//88 127//86
f 114//72 116//74 125//84
f 133//89 134//90 135//91
f 136//92 137//93 132//94
f 124//77 138//95 122//81
f 132//94 122//81 136//92
f 139//96 112//97 111//98
f 96//99 124//77 117//76
f 96//99 138//95 124//77
f 140//100 141//101 136//92
f 141//101 137//93 136//92
f 118//78 120//80 119//83
f 142//102 156//103 143//104
f 144//105 146//106 145//107
f 131//108 147//109 148//110
f 149//111 126//85 128//87
f 130//112 147//109 131//108
f 123//82 122//81 144//105
f 144//105 122//81 146//106
f 146//106 122//81 132//94
f 144//105 145//107 151//113
f 151//113 145//107 152//114
f 154//115 156//103 142//102
f 143//104 156//103 150//116
f 153//117 148//110 147//109
f 123//82 144//105 151//113
f 153//117 147//109 155//118
f 156//103 157//119 150//116
f 160//120 153//117 155//118
f 161//121 160//120 155//118
f 164//122 157//119 162//123
f 165//124 166//125 151//126
f 167//127 152//114 168//128
f 156//103 172//129 157//119
f 158//130 166//125 159//131
f 166//125 169//132 159//131
f 170//133 162//123 157//119
f 151//113 152//114 167//127
f 161//121 163//134 160//120
f 172//129 170//133 157//119
f 163//134 170//133 160//120
f 160//120 170//133 168//135
f 167//127 168//128 165//136
f 173//137 169//132 166//125
f 175//138 173//137 166//125
f 175//138 166//125 165//124
f 176//139 168//135 170//133
f 168//128 177//140 165//136
f 165//136 177//140 178//141
f 179//142 176//139 172//129
f 176//139 179//142 180//143
f 176//139 170//133 172//129
f 171//144 181//145 172//146
f 182//147 172//146 174//148
f 174//148 172//146 181//145
f 188//149 187//150 186//151
l 75 76
l 13 14
l 22 23
l 184 185
l 28 29
l 17 18
l 6 7
l 101 102
l 24 25
l 4 5
l 181 183
l 189 190
l 56 57
l 88 89
l 30 31
l 26 27
l 8 9
