# Blender v2.78 (sub 0) OBJ File: 'exporter.blend'
# www.blender.org
o FJ1655.obj_grp1.501
v 0.012039 -0.528780 7.216732
v -0.017829 -0.525490 7.217627
v -0.016272 -0.523602 7.218549
v -0.016467 -0.523752 7.218516
v -0.018754 -0.528134 7.221043
v -0.019633 -0.527125 7.217191
v -0.017680 -0.525705 7.215638
v -0.018978 -0.528544 7.218721
v -0.019363 -0.527114 7.217140
v -0.014561 -0.528508 7.215685
v -0.014561 -0.528508 7.215685
v -0.017680 -0.525705 7.215638
v 0.011895 -0.528576 7.221396
v 0.012044 -0.531917 7.220021
v 0.011466 -0.527399 7.219156
v 0.010488 -0.526114 7.218549
v 0.012196 -0.531313 7.217241
v 0.011307 -0.531095 7.220307
v 0.010115 -0.531408 7.221425
v 0.011875 -0.527208 7.219911
v 0.011169 -0.529135 7.217557
v 0.011788 -0.527024 7.218502
v 0.012983 -0.529194 7.219243
v 0.011951 -0.531231 7.218549
v 0.010488 -0.526114 7.218549
v 0.011875 -0.527208 7.219911
vn 0.0375 0.3427 -0.9387
vn -0.0573 0.4905 -0.8696
vn 0.0220 0.4100 -0.9118
vn -0.4088 0.6587 0.6316
vn -0.6760 0.7115 -0.1916
vn -0.8466 0.5086 0.1571
vn -0.6118 -0.2458 0.7518
vn -0.6072 -0.7946 0.0035
vn 0.0383 0.4287 -0.9026
vn -0.2922 -0.8759 -0.3839
vn -0.3755 -0.6148 -0.6935
vn -0.3758 -0.4378 -0.8168
vn 0.4436 0.1553 0.8827
vn 0.0877 0.9196 -0.3829
vn -0.1424 -0.9757 -0.1664
vn -0.1309 -0.9718 -0.1962
vn 0.4843 -0.4525 0.7488
vn -0.1186 -0.9732 0.1970
vn 0.0186 -0.1620 -0.9866
vn 0.0135 0.7921 0.6102
vn -0.0895 0.7332 0.6741
vn 0.6852 0.0485 -0.7267
vn 0.7979 0.5529 -0.2400
vn 0.9973 -0.0383 -0.0625
vn 0.9038 -0.4017 -0.1473
vn 0.5743 0.8156 0.0706
vn 0.8274 0.5456 0.1333
s 1
f 1//1 2//2 3//3
f 4//4 7//5 6//6
f 5//7 4//4 6//6
f 6//6 8//8 5//7
f 10//9 2//2 1//1
f 11//10 9//11 12//12
f 11//10 8//8 9//11
f 5//7 13//13 4//4
f 15//14 1//1 3//3
f 14//15 5//7 8//8
f 8//8 11//10 17//16
f 17//16 14//15 8//8
f 18//17 13//13 5//7
f 14//15 19//18 5//7
f 1//1 17//19 10//9
f 16//20 4//4 13//13
f 20//21 16//20 13//13
f 21//22 22//23 23//24
f 24//25 21//22 23//24
f 25//26 26//27 22//23
f 22//23 26//27 23//24
f 24//25 23//24 18//17
f 26//27 13//13 23//24
f 13//13 18//17 23//24
