# Blender v2.78 (sub 0) OBJ File: 'exporter.blend'
# www.blender.org
o FJ1656M.obj_grp1.503
v 0.166618 -0.288732 7.083675
v 0.167095 -0.289198 7.084095
v 0.166925 -0.287957 7.083424
v 0.167316 -0.289909 7.084406
v 0.151028 -0.296678 7.077969
v 0.146240 -0.300944 7.074433
v 0.167094 -0.289132 7.083380
v 0.167543 -0.288259 7.083015
v 0.165064 -0.288121 7.082167
v 0.164384 -0.288630 7.082551
v 0.167103 -0.287360 7.083948
v 0.167319 -0.288412 7.083173
v 0.166221 -0.287984 7.084229
v 0.166422 -0.287454 7.084292
v 0.166156 -0.288259 7.084893
v 0.166124 -0.287189 7.084376
v 0.166150 -0.287298 7.084266
v 0.166216 -0.288362 7.084624
v 0.148582 -0.297694 7.075046
v 0.153610 -0.293509 7.077710
v 0.145331 -0.299324 7.073899
v 0.159584 -0.291076 7.081513
v 0.159584 -0.291076 7.081513
v 0.151165 -0.299004 7.076281
v 0.149673 -0.299868 7.076589
v 0.141551 -0.302957 7.077874
v 0.149189 -0.299526 7.076443
v 0.147352 -0.297315 7.074103
v 0.153610 -0.293509 7.077710
v 0.147378 -0.297477 7.074564
v 0.142686 -0.300380 7.077451
v 0.147989 -0.297302 7.078249
v 0.143205 -0.300271 7.073564
v 0.138618 -0.306445 7.075864
v 0.140604 -0.301617 7.075535
v 0.139866 -0.305842 7.078321
v 0.138352 -0.306387 7.081325
v 0.138586 -0.305626 7.079802
v 0.140301 -0.303232 7.079176
v 0.140895 -0.301444 7.076957
v 0.142977 -0.301326 7.073386
v 0.138751 -0.303536 7.078993
v 0.147378 -0.297477 7.074564
v 0.143712 -0.300426 7.074330
v 0.139866 -0.305842 7.078321
v 0.139866 -0.305160 7.076583
v 0.145563 -0.301300 7.074753
v 0.139866 -0.305160 7.076583
v 0.137019 -0.303626 7.079823
v 0.142683 -0.300465 7.077382
v 0.140279 -0.303282 7.079259
v 0.137418 -0.305202 7.082170
v 0.140279 -0.303282 7.079259
v 0.140638 -0.301351 7.077663
v 0.126766 -0.315776 7.094113
v 0.135172 -0.308439 7.081137
v 0.129376 -0.311070 7.091805
v 0.130477 -0.313339 7.090527
v 0.130221 -0.312457 7.092770
v 0.127685 -0.311752 7.094348
v 0.131254 -0.310132 7.091515
v 0.130477 -0.313339 7.090527
v 0.129039 -0.311509 7.088414
v 0.135172 -0.308439 7.081137
v 0.127581 -0.314402 7.091466
v 0.129013 -0.311519 7.088449
v 0.127581 -0.314402 7.091466
v 0.124711 -0.315477 7.092895
v 0.125656 -0.314528 7.095446
v 0.123274 -0.314791 7.097689
v 0.127660 -0.310419 7.091466
v 0.127660 -0.310419 7.091466
v 0.119389 -0.314863 7.096387
v 0.116133 -0.322227 7.093160
v 0.118658 -0.318155 7.092992
v 0.114516 -0.320183 7.090573
v 0.115238 -0.322517 7.095481
v 0.120154 -0.315830 7.094131
v 0.123155 -0.313610 7.094282
v 0.121755 -0.312385 7.093452
v 0.119411 -0.314733 7.095775
v 0.119220 -0.316131 7.094282
v 0.108845 -0.321151 7.092256
v 0.117282 -0.317446 7.093250
v 0.110489 -0.320308 7.090443
v 0.110496 -0.320450 7.090227
v 0.105828 -0.323466 7.082853
v 0.108429 -0.321361 7.084564
v 0.113181 -0.319023 7.092057
v 0.108992 -0.319839 7.090377
v 0.107495 -0.322892 7.089679
v 0.103432 -0.318485 7.077928
v 0.102309 -0.318121 7.081137
v 0.106597 -0.323814 7.086878
v 0.092822 -0.317882 7.066926
v 0.108004 -0.322889 7.090198
v 0.104211 -0.320648 7.085792
v 0.102588 -0.320098 7.084112
v 0.105126 -0.323681 7.084893
v 0.097349 -0.317029 7.066472
v 0.098328 -0.317573 7.067805
v 0.095737 -0.313691 7.068931
v 0.099534 -0.315712 7.070105
v 0.093960 -0.315452 7.069493
v 0.095265 -0.317719 7.065714
v 0.096676 -0.318488 7.067053
v 0.089373 -0.318227 7.062788
v 0.096387 -0.316659 7.067582
v 0.091464 -0.313713 7.063280
v 0.093270 -0.313907 7.063198
v 0.093984 -0.315488 7.069870
v 0.094397 -0.312465 7.068878
v 0.080837 -0.322719 7.057808
v 0.082664 -0.318670 7.062316
v 0.085650 -0.314132 7.058442
v 0.090694 -0.317404 7.060392
v 0.089824 -0.314278 7.064819
v 0.078235 -0.325074 7.057078
v 0.078731 -0.322096 7.056349
v 0.073671 -0.331038 7.059048
v 0.077310 -0.325165 7.057506
v 0.084589 -0.316029 7.058750
v 0.074612 -0.320864 7.057532
v 0.078731 -0.322096 7.056349
v 0.070575 -0.368959 7.057332
v 0.074340 -0.357486 7.060751
v 0.064761 -0.374924 7.060640
v 0.072119 -0.359337 7.064682
v 0.069322 -0.362295 7.057148
v 0.071207 -0.357490 7.057805
v 0.072475 -0.337957 7.061467
v 0.069588 -0.335771 7.062902
v 0.069867 -0.328993 7.056152
v 0.072402 -0.337846 7.061400
v 0.071690 -0.328355 7.061985
v 0.051500 -0.379434 7.051970
v 0.046467 -0.391048 7.053898
v 0.061998 -0.369900 7.055826
v 0.066982 -0.360751 7.059542
v 0.069899 -0.358771 7.055513
v 0.067707 -0.361747 7.062757
v 0.060182 -0.371465 7.058747
v 0.068209 -0.355763 7.059519
v 0.068175 -0.355835 7.059495
v 0.069458 -0.349702 7.058228
v 0.069458 -0.349702 7.058228
v 0.071207 -0.357490 7.057805
v 0.067059 -0.331530 7.061071
v 0.069592 -0.335582 7.062781
v 0.043643 -0.391168 7.052114
v 0.062264 -0.378054 7.055833
v 0.045292 -0.384935 7.057930
v 0.046264 -0.381213 7.053909
v 0.045897 -0.387809 7.058290
v 0.044258 -0.385718 7.059527
v 0.048957 -0.381448 7.051843
v 0.046166 -0.381236 7.053920
v 0.043057 -0.391591 7.052125
v 0.032911 -0.411256 7.064525
v 0.037097 -0.392121 7.053477
v 0.045787 -0.387926 7.058415
v 0.042403 -0.392602 7.059542
v 0.032506 -0.412110 7.071732
v 0.025509 -0.414723 7.078831
v 0.037260 -0.398480 7.064024
v 0.028059 -0.412923 7.066490
v 0.037396 -0.396571 7.054190
v 0.027876 -0.404846 7.066554
v 0.041279 -0.389663 7.059354
v 0.023926 -0.416574 7.070903
v 0.016721 -0.419393 7.078098
v 0.024753 -0.414806 7.078085
v 0.021561 -0.411385 7.078428
v 0.025494 -0.410908 7.067117
v 0.025306 -0.408042 7.068978
v 0.020358 -0.417632 7.079259
v 0.023743 -0.416699 7.070861
v 0.016403 -0.419062 7.078274
v 0.022020 -0.413275 7.070061
v 0.019029 -0.411849 7.073046
v 0.022097 -0.413236 7.069917
v 0.016599 -0.411196 7.074911
v 0.011533 -0.409679 7.078079
v 0.020178 -0.417874 7.079891
v -0.001430 -0.412081 7.074452
v 0.000751 -0.416319 7.079562
v 0.012189 -0.410877 7.075504
v 0.010676 -0.409452 7.078227
v 0.001008 -0.406432 7.078285
v -0.001094 -0.411361 7.082922
v -0.000343 -0.407735 7.081920
v 0.002268 -0.408052 7.075598
v -0.003512 -0.410652 7.078405
vn 0.5636 -0.5308 -0.6329
vn 0.5567 -0.4358 -0.7072
vn 0.6783 -0.4850 -0.5519
vn -0.2346 -0.3368 0.9119
vn -0.2988 -0.0221 0.9540
vn -0.3741 -0.0179 0.9272
vn -0.1298 0.5888 -0.7977
vn -0.0957 0.7820 -0.6159
vn -0.0724 0.6804 -0.7293
vn -0.5056 0.8242 0.2552
vn -0.5629 0.2733 0.7800
vn -0.5398 0.2363 0.8079
vn 0.4759 -0.1371 -0.8688
vn -0.4302 0.8964 0.1070
vn -0.3754 -0.0312 0.9264
vn 0.2098 0.1967 -0.9578
vn -0.1887 -0.2502 0.9496
vn 0.6588 -0.4417 0.6091
vn 0.4867 -0.6722 0.5579
vn 0.4670 -0.2870 0.8364
vn 0.7880 -0.4163 0.4536
vn 0.4162 -0.3593 -0.8353
vn 0.0858 0.6501 -0.7550
vn -0.5321 0.8466 -0.0137
vn -0.5570 0.8305 -0.0028
vn -0.4846 0.8578 0.1710
vn -0.4763 0.8294 0.2919
vn -0.6223 0.1532 -0.7676
vn -0.7951 0.1952 -0.5742
vn -0.6553 0.7174 -0.2366
vn 0.8125 -0.4266 0.3973
vn 0.8114 -0.4887 0.3207
vn -0.5639 0.7411 0.3643
vn 0.3371 -0.5809 -0.7409
vn -0.4743 0.8732 0.1117
vn -0.6152 0.7753 -0.1427
vn -0.5557 0.8291 -0.0607
vn 0.3504 -0.8760 -0.3314
vn 0.3716 -0.8642 -0.3394
vn 0.4566 -0.8281 -0.3252
vn 0.2877 -0.7418 -0.6058
vn -0.2580 0.6008 0.7567
vn 0.7901 -0.4942 0.3627
vn -0.5445 0.7197 0.4307
vn 0.3919 0.5409 0.7442
vn 0.7944 0.0126 0.6073
vn 0.5803 -0.8004 0.1504
vn 0.2954 -0.8956 -0.3327
vn 0.3182 0.6818 0.6586
vn -0.8608 0.2909 -0.4176
vn 0.3079 -0.8979 -0.3147
vn -0.2175 0.8868 0.4078
vn -0.0034 0.8425 0.5387
vn -0.2236 0.9203 0.3211
vn -0.2372 0.8760 0.4199
vn 0.0621 -0.8377 -0.5426
vn -0.0932 -0.7810 -0.6176
vn -0.2387 -0.8069 -0.5404
vn 0.1200 -0.8632 -0.4903
vn 0.1394 -0.5527 -0.8216
vn -0.9040 0.0056 -0.4275
vn -0.9358 -0.0284 -0.3514
vn 0.1450 0.2140 0.9660
vn -0.8667 0.1622 -0.4718
vn -0.2348 0.9007 0.3656
vn -0.3950 0.2221 0.8915
vn 0.4932 -0.8007 -0.3400
vn 0.1543 0.2210 -0.9630
vn 0.6824 -0.2502 -0.6869
vn -0.0102 -0.6513 0.7588
vn -0.2197 0.5246 -0.8225
vn -0.2750 0.4197 -0.8650
vn -0.3770 0.6900 -0.6179
vn -0.6152 0.6012 -0.5101
vn -0.8407 0.4432 -0.3110
vn -0.6930 0.2280 0.6839
vn 0.0410 0.5529 -0.8322
vn -0.0149 0.9817 -0.1898
vn -0.3682 0.9297 0.0046
vn 0.1508 -0.9327 -0.3275
vn 0.6735 -0.4332 -0.5989
vn 0.6327 0.7230 -0.2773
vn -0.6198 -0.5741 0.5350
vn 0.7683 0.6093 -0.1961
vn -0.2630 -0.9532 0.1492
vn -0.6117 -0.6888 0.3890
vn -0.2618 -0.9021 0.3430
vn -0.8355 -0.2661 0.4808
vn -0.1306 0.9649 0.2279
vn -0.7563 -0.4650 0.4602
vn -0.4879 0.7301 0.4785
vn -0.5036 0.6890 0.5212
vn -0.3428 0.8506 0.3987
vn 0.8242 0.0721 -0.5618
vn 0.7731 0.5439 -0.3262
vn 0.2494 0.9663 -0.0633
vn -0.3135 0.8585 0.4057
vn 0.5131 0.8238 -0.2410
vn -0.7681 -0.2332 0.5964
vn 0.4084 -0.8151 -0.4109
vn -0.1504 -0.9884 -0.0201
vn 0.2361 -0.9476 0.2150
vn 0.5736 0.4661 -0.6736
vn -0.0326 0.9924 -0.1190
vn -0.7297 0.2835 0.6222
vn -0.7073 0.3040 0.6382
vn 0.4221 -0.8888 0.1782
vn 0.4451 0.0633 -0.8932
vn 0.3087 -0.9466 -0.0933
vn 0.6697 -0.2205 -0.7092
vn 0.4698 -0.4946 -0.7312
vn -0.6631 0.3161 0.6785
vn -0.4067 0.9053 0.1228
vn 0.6965 -0.6980 -0.1665
vn 0.3585 -0.3650 -0.8592
vn 0.9142 -0.3576 -0.1908
vn 0.1358 -0.2990 -0.9445
vn -0.4622 0.7705 0.4390
vn -0.6120 0.7334 -0.2959
vn 0.3599 -0.6048 0.7104
vn 0.7803 -0.4112 -0.4712
vn 0.3555 -0.1588 0.9211
vn 0.9895 -0.0654 -0.1293
vn 0.2043 0.0434 -0.9779
vn 0.5708 0.0002 -0.8211
vn 0.9825 0.0005 0.1864
vn 0.8158 0.1439 0.5601
vn -0.0074 0.1340 0.9909
vn 0.6960 0.4193 0.5829
vn -0.0090 0.2167 0.9762
vn 0.5429 -0.2924 -0.7872
vn -0.9205 0.2241 0.3201
vn -0.1372 0.3043 -0.9427
vn -0.8407 0.3594 -0.4050
vn -0.1125 0.3506 -0.9297
vn 0.1421 0.1790 -0.9735
vn -0.8927 0.4501 0.0225
vn -0.8594 0.2475 -0.4473
vn -0.7563 0.6444 -0.1132
vn -0.1537 0.4656 -0.8715
vn -0.6574 0.1532 0.7378
vn -0.9558 0.0480 -0.2900
vn -0.8900 0.2668 0.3696
vn -0.6862 0.4619 0.5620
vn -0.5506 -0.0383 -0.8339
vn 0.0420 0.0115 -0.9991
vn -0.0229 0.0462 -0.9987
vn 0.2258 0.4251 0.8765
vn 0.1232 -0.3377 -0.9332
vn 0.3237 -0.1689 -0.9310
vn 0.6577 -0.7202 -0.2207
vn -0.5451 0.6628 0.5134
vn -0.5878 0.8063 0.0665
vn 0.5109 -0.4529 0.7307
vn 0.3923 -0.3013 0.8691
vn -0.4662 0.6215 -0.6296
vn -0.6046 0.7287 -0.3217
vn 0.3578 -0.6258 -0.6931
vn 0.3822 -0.7977 -0.4664
vn -0.7129 0.2915 -0.6378
vn 0.8370 -0.4005 0.3729
vn 0.8092 -0.2303 0.5405
vn 0.7912 -0.4517 0.4123
vn 0.2976 0.3828 0.8746
vn 0.3489 0.4313 0.8320
vn -0.2595 -0.5971 -0.7590
vn -0.2209 -0.4288 -0.8760
vn -0.3205 0.6061 0.7279
vn -0.7718 0.6356 0.0196
vn 0.6251 -0.7362 0.2593
vn -0.0108 -0.9981 0.0600
vn 0.5036 -0.8429 0.1898
vn -0.7676 0.3663 -0.5259
vn -0.6527 0.0015 -0.7576
vn 0.0195 0.6822 0.7309
vn -0.0630 -0.8944 -0.4429
vn 0.4878 -0.8568 -0.1672
vn -0.0761 -0.7224 0.6872
vn -0.6351 -0.4364 -0.6373
vn -0.4784 0.2339 -0.8464
vn -0.6820 0.0633 -0.7286
vn -0.0710 0.9784 -0.1943
vn 0.2074 0.9355 -0.2861
vn 0.2587 -0.4851 0.8353
vn -0.4497 -0.8817 0.1425
vn -0.0252 0.8295 -0.5579
vn -0.5925 -0.1154 -0.7972
vn 0.0555 0.2391 -0.9694
vn -0.2234 0.9677 -0.1170
vn -0.0818 0.6636 -0.7436
vn -0.3364 0.6919 0.6388
vn -0.9890 0.1181 -0.0895
vn -0.4504 -0.1187 0.8849
s 1
f 6//1 3//2 1//3
f 5//4 4//5 13//6
f 19//7 16//8 11//9
f 20//10 18//11 17//12
f 3//2 6//1 21//13
f 22//14 18//11 20//10
f 23//15 5//4 13//6
f 24//16 6//1 1//3
f 4//5 5//4 25//17
f 24//16 26//18 6//1
f 27//19 5//20 38//21
f 21//13 28//22 3//2
f 19//7 11//9 12//23
f 29//24 30//25 31//26
f 32//27 22//14 20//10
f 33//28 34//29 35//30
f 36//31 26//18 37//32
f 31//26 30//25 40//33
f 21//13 6//1 41//34
f 6//1 26//18 36//31
f 42//35 43//36 44//37
f 45//38 46//39 47//40
f 48//41 41//34 6//1
f 42//35 44//37 35//30
f 50//42 38//21 5//20
f 39//43 38//21 50//42
f 51//44 31//26 40//33
f 52//45 53//45 54//45
f 36//31 59//46 55//47
f 46//39 45//38 56//48
f 38//21 39//43 57//49
f 66//50 42//35 35//30
f 35//30 34//29 66//50
f 56//48 45//38 58//51
f 36//31 37//32 59//46
f 59//46 38//21 57//49
f 60//52 61//53 49//54
f 49//54 61//53 40//55
f 62//56 63//57 64//58
f 62//56 65//59 63//57
f 65//59 55//47 68//60
f 62//56 55//47 65//59
f 67//61 69//62 66//50
f 57//49 70//63 59//46
f 69//62 71//64 66//50
f 72//65 73//66 70//63
f 42//35 66//50 71//64
f 60//52 49//54 72//65
f 72//65 70//63 60//52
f 74//67 75//68 55//47
f 74//67 76//69 75//68
f 55//47 59//46 70//63
f 70//63 77//70 55//47
f 75//68 68//60 55//47
f 78//71 79//72 68//60
f 77//70 74//67 55//47
f 78//71 68//60 75//68
f 82//73 81//74 80//75
f 77//70 70//63 83//76
f 83//76 70//63 73//66
f 84//77 78//71 75//68
f 81//74 82//73 84//77
f 75//68 85//78 84//77
f 85//78 81//74 84//77
f 83//76 73//66 86//79
f 87//80 74//67 77//70
f 76//69 74//67 88//81
f 75//68 88//82 85//78
f 83//76 91//83 77//70
f 87//80 88//81 74//67
f 92//84 85//78 88//82
f 87//80 94//85 95//86
f 87//80 77//70 94//85
f 94//85 77//70 96//87
f 83//76 97//88 91//83
f 83//76 86//79 98//89
f 91//83 94//85 96//87
f 99//90 94//85 91//83
f 93//91 98//92 90//93
f 97//88 99//90 91//83
f 95//86 99//90 97//88
f 87//80 100//94 88//81
f 101//95 92//84 88//82
f 102//96 89//97 103//98
f 93//91 89//97 102//96
f 93//91 90//93 89//97
f 95//86 97//88 104//99
f 87//80 105//100 100//94
f 100//94 92//84 101//95
f 106//101 87//80 95//86
f 106//101 95//86 107//102
f 100//94 109//103 92//84
f 110//104 102//96 103//98
f 111//105 93//91 112//106
f 93//91 111//105 98//92
f 104//99 114//107 107//102
f 100//94 115//108 109//103
f 108//109 107//102 116//110
f 116//110 115//108 100//94
f 116//110 100//94 105//100
f 107//102 113//111 116//110
f 117//112 111//105 112//106
f 110//104 117//113 102//96
f 104//99 107//102 95//86
f 104//99 117//113 114//107
f 113//111 107//102 118//114
f 114//107 118//114 107//102
f 113//111 119//115 116//110
f 118//114 114//107 120//116
f 121//117 119//115 113//111
f 115//108 116//110 119//115
f 110//104 122//118 123//119
f 117//113 110//104 123//119
f 127//120 125//121 128//122
f 128//122 125//121 126//123
f 125//121 129//124 130//125
f 125//121 130//125 126//123
f 130//125 120//126 126//123
f 128//122 126//123 131//127
f 126//123 120//126 131//127
f 132//128 128//122 131//127
f 134//129 132//128 131//127
f 121//117 118//114 120//116
f 134//129 120//116 135//130
f 133//131 121//117 120//116
f 132//128 134//129 135//130
f 123//119 148//132 117//113
f 148//132 114//107 117//113
f 133//131 119//115 121//117
f 135//130 120//116 114//107
f 148//132 135//130 114//107
f 123//119 124//133 133//134
f 123//119 115//135 124//133
f 138//136 129//124 125//121
f 139//137 140//138 138//139
f 136//140 138//136 125//121
f 127//120 128//122 141//141
f 143//142 140//138 139//137
f 139//137 141//141 144//143
f 138//139 142//144 139//137
f 141//141 139//137 142//144
f 143//142 145//145 140//138
f 146//146 120//116 147//147
f 144//143 141//141 143//142
f 133//134 145//145 143//142
f 128//122 132//128 148//132
f 128//122 148//132 141//141
f 133//131 120//116 146//146
f 148//132 133//134 143//142
f 143//142 141//141 148//132
f 148//132 132//128 149//148
f 148//132 149//148 135//130
f 133//134 148//132 123//119
f 150//149 136//140 125//121
f 150//149 125//121 151//150
f 125//121 127//120 137//151
f 142//144 127//120 141//141
f 152//152 127//120 142//144
f 153//153 142//144 138//139
f 154//154 137//151 127//120
f 154//154 127//120 155//155
f 156//156 138//136 136//140
f 157//157 138//136 156//156
f 152//152 142//144 157//157
f 150//149 151//150 137//151
f 158//158 150//149 137//151
f 137//151 159//159 158//158
f 150//149 160//160 136//140
f 157//157 156//156 160//160
f 161//161 137//151 154//154
f 161//161 162//162 137//151
f 155//155 162//162 154//154
f 137//151 163//163 159//159
f 163//163 137//151 164//164
f 137//151 162//162 165//165
f 166//166 167//167 159//159
f 164//164 137//151 165//165
f 167//167 158//158 159//159
f 167//167 160//160 150//149
f 165//165 162//162 155//155
f 157//157 169//168 152//152
f 169//168 168//169 165//165
f 168//169 169//168 157//157
f 168//169 157//157 160//160
f 159//159 170//170 166//166
f 159//159 163//163 171//171
f 171//171 163//163 172//172
f 175//173 168//169 174//174
f 165//165 168//169 173//175
f 173//175 164//164 165//165
f 167//167 166//166 160//160
f 174//174 168//169 160//160
f 160//160 166//166 174//174
f 159//159 171//171 170//170
f 170//170 171//171 177//176
f 176//177 171//171 172//172
f 171//171 176//177 178//178
f 166//166 177//176 179//179
f 179//179 174//174 166//166
f 174//174 180//180 175//173
f 174//174 181//181 180//180
f 181//181 179//179 180//180
f 182//182 173//175 168//169
f 183//183 173//175 182//182
f 164//164 173//175 184//184
f 182//182 168//169 180//180
f 176//177 184//184 178//178
f 177//176 171//171 186//185
f 184//184 186//185 178//178
f 179//179 177//176 180//180
f 187//186 182//182 180//180
f 180//180 177//176 185//187
f 180//180 185//187 187//186
f 188//188 173//175 183//183
f 177//176 186//185 185//187
f 188//188 189//189 173//175
f 182//182 192//190 183//183
f 185//187 192//190 187//186
f 192//190 189//189 183//183
f 191//191 184//184 173//175
f 186//185 193//192 185//187
f 190//193 186//185 184//184
f 191//191 190//193 184//184
f 193//192 186//185 190//193
f 192//190 185//187 189//189
f 185//187 193//192 189//189
f 191//191 173//175 189//189
f 191//191 189//189 193//192
f 193//192 190//193 191//191
l 1 2
l 9 10
l 14 15
l 7 8
