# Blender v2.78 (sub 0) OBJ File: 'exporter.blend'
# www.blender.org
o FJ1683M.obj_grp1.556
v 0.219791 -0.131825 7.128642
v 0.216813 -0.146494 7.131589
v 0.217797 -0.147617 7.132778
v 0.219880 -0.136669 7.130356
v 0.210431 -0.155584 7.134785
v 0.219015 -0.137064 7.132541
v 0.218283 -0.125924 7.127197
v 0.218250 -0.125931 7.123394
v 0.211213 -0.156610 7.134945
v 0.209065 -0.158150 7.137908
v 0.217797 -0.147617 7.132778
v 0.210987 -0.156392 7.135768
v 0.212451 -0.153974 7.133869
v 0.209869 -0.154606 7.135431
v 0.213936 -0.151317 7.135413
v 0.213283 -0.152796 7.136449
v 0.211901 -0.155586 7.133881
v 0.212634 -0.153138 7.134067
v 0.216280 -0.147011 7.133211
v 0.215264 -0.153428 7.136791
v 0.213627 -0.147684 7.132079
v 0.217187 -0.146533 7.132295
v 0.208489 -0.158494 7.138227
v 0.213228 -0.152405 7.133204
v 0.211347 -0.153189 7.135621
v 0.216851 -0.138970 7.129961
v 0.215222 -0.152498 7.134073
v 0.214823 -0.145914 7.132748
v 0.216762 -0.140623 7.131405
v 0.217626 -0.141104 7.133295
v 0.215654 -0.125579 7.126639
v 0.217244 -0.139061 7.135354
v 0.216410 -0.139513 7.130456
v 0.217170 -0.135292 7.129056
v 0.217309 -0.127284 7.124694
v 0.215406 -0.122447 7.124827
v 0.215590 -0.122585 7.123067
v 0.215195 -0.117655 7.123541
v 0.212300 -0.117167 7.121470
v 0.212738 -0.115243 7.119933
v 0.214042 -0.117375 7.120290
v 0.214690 -0.120080 7.121258
v 0.207107 -0.110592 7.115063
v 0.211895 -0.112605 7.118547
v 0.208038 -0.108212 7.116467
v 0.215154 -0.118494 7.123931
v 0.211865 -0.112627 7.118553
v 0.206530 -0.109999 7.114939
v 0.205728 -0.105421 7.112070
v 0.204856 -0.107445 7.112524
v 0.199077 -0.164321 7.135595
v 0.202910 -0.160909 7.134952
v 0.203862 -0.158429 7.135367
v 0.204535 -0.159862 7.135630
v 0.204095 -0.159834 7.134609
v 0.199077 -0.164321 7.135595
v 0.195741 -0.165736 7.137767
v 0.175968 -0.171644 7.134926
v 0.203166 -0.159591 7.138914
v 0.203029 -0.160464 7.139528
v 0.204589 -0.106496 7.112541
v 0.206724 -0.110084 7.114928
v 0.206530 -0.109999 7.114939
v 0.200897 -0.106247 7.108366
v 0.209347 -0.111741 7.115126
v 0.209101 -0.110383 7.115836
v 0.202415 -0.106102 7.107967
v 0.200251 -0.162458 7.136422
v 0.190392 -0.166547 7.134937
v 0.205818 -0.160881 7.138977
v 0.196993 -0.165191 7.137473
v 0.191605 -0.165494 7.139069
v 0.189674 -0.099714 7.097572
v 0.192446 -0.100474 7.098508
v 0.188590 -0.101947 7.096910
v 0.204447 -0.105798 7.111870
v 0.203921 -0.106082 7.109601
v 0.187375 -0.099343 7.095029
v 0.192260 -0.099794 7.099330
v 0.187659 -0.100430 7.096152
v 0.190568 -0.100474 7.099587
v 0.189003 -0.165150 7.135047
v 0.176177 -0.170704 7.135407
v 0.177267 -0.166645 7.136313
v 0.185013 -0.165260 7.137473
v 0.189539 -0.164518 7.135116
v 0.188064 -0.100168 7.100545
v 0.183930 -0.097756 7.092552
v 0.192886 -0.099043 7.095909
v 0.185261 -0.096739 7.092089
v 0.190346 -0.102681 7.096706
v 0.184027 -0.100313 7.092425
v 0.169623 -0.174979 7.139141
v 0.178362 -0.168077 7.139210
v 0.183670 -0.099289 7.092060
v 0.189630 -0.100474 7.095973
v 0.183664 -0.098246 7.092044
v 0.189630 -0.100474 7.095973
v 0.183205 -0.097657 7.091466
v 0.183442 -0.098627 7.091466
v 0.183782 -0.098173 7.092678
v 0.183057 -0.098916 7.091466
v 0.183454 -0.098739 7.091540
v 0.183720 -0.098596 7.093343
v 0.183544 -0.098220 7.091595
v 0.183720 -0.098596 7.093343
v 0.182557 -0.097576 7.091459
v 0.182811 -0.099387 7.091622
v 0.181289 -0.097777 7.092146
v 0.176842 -0.096765 7.090125
v 0.182430 -0.098133 7.090695
v 0.182118 -0.098000 7.091466
v 0.182201 -0.097301 7.089692
v 0.182158 -0.097107 7.090772
v 0.182490 -0.098016 7.091141
v 0.183057 -0.098916 7.091466
v 0.183720 -0.098596 7.093343
v 0.182802 -0.097845 7.091569
v 0.182209 -0.097620 7.090636
v 0.177603 -0.095722 7.087537
v 0.182004 -0.097896 7.091455
v 0.183205 -0.097657 7.091466
v 0.187562 -0.100474 7.096160
v 0.183048 -0.097799 7.091142
v 0.183057 -0.098916 7.091466
v 0.182936 -0.097648 7.090903
v 0.178362 -0.096471 7.087710
v 0.181819 -0.097619 7.091317
v 0.178362 -0.096471 7.087710
v 0.154724 -0.184997 7.138975
v 0.174496 -0.168527 7.136373
v 0.170586 -0.169282 7.136472
v 0.168928 -0.172728 7.139295
v 0.170316 -0.172020 7.138643
v 0.177941 -0.097751 7.086240
v 0.178191 -0.097059 7.087077
v 0.178303 -0.097167 7.088340
v 0.181179 -0.097657 7.091419
v 0.176462 -0.096718 7.087710
v 0.178145 -0.097054 7.087710
v 0.177323 -0.096694 7.087940
v 0.178362 -0.096471 7.087710
v 0.158776 -0.179730 7.134901
v 0.165229 -0.177022 7.136535
v 0.160979 -0.174647 7.137500
v 0.161368 -0.179940 7.136583
v 0.154557 -0.186979 7.134716
v 0.158537 -0.180457 7.134726
v 0.152840 -0.184509 7.136547
v 0.159778 -0.179053 7.134831
v 0.161315 -0.174649 7.137473
v 0.158645 -0.180283 7.134703
v 0.158641 -0.179460 7.139505
v 0.156559 -0.184252 7.140497
v 0.158675 -0.179521 7.139256
v 0.149954 -0.189460 7.138412
v 0.145500 -0.206573 7.139961
v 0.147364 -0.199118 7.134445
v 0.140747 -0.209519 7.135387
v 0.153011 -0.187794 7.139163
v 0.133302 -0.227241 7.141223
v 0.137763 -0.224226 7.141334
v 0.146011 -0.212439 7.137796
v 0.141778 -0.210400 7.136754
v 0.130971 -0.220664 7.139060
v 0.139058 -0.218027 7.142836
v 0.145500 -0.206573 7.139961
v 0.141766 -0.206573 7.138412
v 0.137668 -0.224412 7.141229
v 0.130914 -0.229278 7.146627
v 0.130709 -0.225670 7.142027
v 0.134624 -0.225029 7.144830
v 0.137620 -0.224319 7.141226
v 0.131248 -0.230046 7.146862
v 0.127660 -0.229107 7.142637
v 0.131248 -0.230046 7.146862
v 0.133294 -0.227229 7.146298
v 0.129538 -0.227229 7.148693
v 0.102843 -0.244801 7.163956
v 0.133728 -0.222187 7.141822
v 0.133294 -0.227229 7.146298
v 0.133562 -0.222548 7.143501
v 0.141766 -0.206573 7.138412
v 0.131416 -0.224343 7.141229
v 0.134884 -0.219718 7.142168
v 0.133463 -0.221354 7.143047
v 0.132355 -0.221863 7.142168
v 0.133294 -0.227229 7.146298
v 0.131788 -0.221716 7.141973
v 0.132157 -0.222534 7.144984
v 0.132097 -0.221874 7.142333
v 0.132283 -0.221613 7.143784
v 0.128939 -0.221591 7.143544
v 0.130009 -0.204199 7.141914
v 0.132515 -0.221750 7.141361
v 0.130477 -0.224412 7.141463
v 0.128579 -0.212254 7.139445
v 0.128557 -0.212148 7.139355
v 0.128031 -0.227897 7.146935
v 0.127661 -0.216866 7.144740
v 0.128599 -0.220657 7.146298
v 0.132364 -0.208554 7.143154
v 0.131904 -0.202567 7.143850
v 0.126035 -0.187821 7.145020
v 0.130564 -0.191394 7.142169
v 0.128280 -0.192638 7.139095
v 0.105126 -0.244130 7.159303
v 0.127660 -0.229107 7.142637
v 0.124844 -0.228046 7.146862
v 0.129538 -0.227229 7.148693
v 0.127660 -0.229107 7.142637
v 0.124844 -0.228046 7.146862
v 0.126722 -0.217840 7.141181
v 0.124844 -0.228046 7.146862
v 0.126728 -0.217838 7.141184
v 0.130790 -0.232433 7.146580
v 0.093808 -0.249435 7.169424
v 0.102331 -0.243513 7.161750
v 0.127875 -0.230231 7.148964
v 0.122044 -0.182212 7.143030
v 0.125657 -0.186598 7.145424
v 0.121345 -0.180283 7.143106
v 0.121071 -0.174947 7.146182
v 0.117585 -0.162749 7.145710
v 0.120557 -0.166843 7.143719
v 0.113322 -0.163732 7.146779
v 0.105126 -0.244130 7.166533
v 0.088412 -0.254827 7.171159
v 0.104132 -0.150412 7.147086
v 0.105442 -0.149059 7.148591
v 0.108882 -0.244342 7.160007
v 0.131248 -0.230046 7.146862
v 0.105126 -0.244130 7.166533
v 0.102143 -0.252394 7.170791
v 0.100261 -0.250740 7.169115
v 0.096713 -0.253847 7.168384
v 0.094107 -0.255243 7.174372
v 0.096413 -0.249327 7.172220
v 0.129538 -0.227229 7.148693
v 0.099493 -0.243741 7.166580
v 0.093154 -0.139115 7.151270
v 0.093595 -0.141474 7.150624
v 0.097357 -0.143727 7.148568
v 0.091782 -0.136724 7.148942
v 0.097157 -0.357231 7.159621
v 0.099770 -0.355325 7.165890
v 0.098694 -0.355565 7.165715
v 0.095455 -0.356685 7.165283
v 0.098802 -0.340140 7.158797
v 0.091042 -0.322999 7.161275
v 0.103081 -0.246738 7.164262
v 0.105174 -0.149103 7.148646
v 0.095095 -0.355661 7.159822
v 0.093912 -0.356348 7.163721
v 0.093567 -0.353615 7.165312
v 0.092561 -0.354658 7.161515
v 0.092318 -0.354738 7.161933
v 0.091557 -0.322920 7.153810
v 0.093633 -0.349977 7.158880
v 0.093516 -0.343551 7.164608
v 0.093516 -0.343551 7.164608
v 0.090874 -0.313916 7.153587
v 0.088348 -0.316018 7.153906
v 0.086297 -0.313967 7.158353
v 0.087181 -0.317604 7.158504
v 0.091072 -0.313116 7.160617
v 0.086438 -0.308915 7.160007
v 0.086496 -0.309022 7.159840
v 0.088964 -0.307246 7.160393
v 0.092984 -0.301819 7.158047
v 0.090642 -0.303844 7.157436
v 0.087202 -0.300131 7.155082
v 0.087756 -0.263168 7.169084
v 0.088803 -0.266420 7.174931
v 0.082810 -0.270364 7.171183
v 0.089500 -0.262234 7.173381
v 0.096180 -0.249304 7.172153
v 0.094137 -0.255246 7.174426
v 0.089861 -0.267967 7.175862
v 0.091899 -0.255479 7.168744
v 0.105126 -0.244130 7.166533
v 0.099493 -0.243741 7.166580
v 0.092546 -0.249763 7.169396
v 0.089299 -0.254228 7.173897
v 0.091699 -0.137650 7.150174
v 0.086548 -0.134285 7.149675
v 0.081017 -0.122558 7.147739
v 0.086448 -0.134275 7.149679
v 0.097147 -0.145082 7.148868
v 0.088128 -0.133742 7.147839
v 0.083500 -0.294921 7.158397
v 0.083877 -0.295441 7.158274
v 0.081372 -0.266807 7.171171
v 0.082203 -0.270946 7.174710
v 0.086519 -0.287475 7.167988
v 0.083429 -0.270342 7.169289
v 0.087983 -0.272297 7.171274
v 0.088626 -0.270948 7.171722
v 0.083405 -0.270420 7.169396
v 0.085555 -0.268420 7.176537
v 0.087983 -0.272297 7.171274
v 0.087287 -0.263847 7.170757
v 0.081051 -0.268003 7.171121
v 0.092546 -0.249763 7.169396
v 0.092886 -0.138912 7.150899
v 0.088317 -0.134852 7.150229
v 0.074791 -0.118874 7.146118
v 0.073543 -0.119432 7.145283
v 0.073433 -0.119614 7.144831
v 0.085516 -0.130739 7.149303
v 0.073540 -0.119645 7.145880
v 0.073920 -0.119871 7.144996
v 0.074138 -0.119107 7.145006
v 0.074773 -0.119964 7.146935
v 0.075599 -0.119936 7.146418
v 0.073203 -0.119253 7.145970
v 0.074012 -0.118980 7.145640
vn 0.5402 -0.2452 -0.8050
vn 0.9501 -0.0179 0.3114
vn 0.5242 -0.4487 -0.7238
vn 0.9276 0.1348 0.3484
vn 0.7066 0.6411 0.2996
vn 0.8126 -0.0068 0.5827
vn 0.8243 0.5219 0.2196
vn 0.7478 -0.6625 0.0438
vn 0.8004 -0.5105 0.3142
vn 0.5583 -0.8199 0.1267
vn 0.5046 -0.7016 -0.5031
vn 0.6390 -0.6440 -0.4206
vn 0.7944 -0.4777 -0.3751
vn 0.6626 -0.5238 -0.5353
vn -0.1879 0.0559 -0.9806
vn -0.4800 0.2442 -0.8426
vn -0.5762 0.2782 -0.7685
vn 0.3132 -0.6093 -0.7285
vn 0.1364 -0.4558 -0.8795
vn 0.1879 -0.3899 -0.9015
vn 0.1495 -0.2854 -0.9467
vn -0.8698 0.1216 0.4782
vn -0.9054 0.1013 0.4123
vn -0.9812 -0.1279 -0.1446
vn 0.0952 0.2606 0.9607
vn -0.4239 0.2888 0.8584
vn -0.6778 -0.2979 -0.6722
vn -0.7772 -0.5153 -0.3612
vn -0.3633 -0.4561 -0.8124
vn -0.1516 0.5166 0.8427
vn 0.8933 0.1535 -0.4225
vn -0.8708 -0.4390 0.2214
vn 0.0132 0.6309 0.7758
vn 0.9076 0.4159 0.0575
vn 0.4487 -0.3919 -0.8032
vn 0.6649 -0.1399 -0.7337
vn -0.8557 -0.4387 0.2744
vn -0.2570 0.5775 0.7749
vn -0.2167 0.5423 0.8117
vn -0.1953 0.5953 0.7794
vn 0.4760 -0.7033 -0.5280
vn 0.0916 -0.2782 -0.9561
vn 0.1175 -0.3560 -0.9270
vn 0.2415 -0.7091 -0.6625
vn 0.4144 -0.5383 -0.7338
vn -0.6161 0.7800 -0.1098
vn -0.3755 0.9089 -0.1812
vn -0.6403 0.7623 -0.0947
vn 0.3779 -0.7927 0.4783
vn 0.1643 0.1356 0.9770
vn 0.1155 0.2635 0.9577
vn -0.5231 0.7997 -0.2949
vn -0.2985 0.3557 -0.8857
vn -0.5433 0.8296 -0.1286
vn -0.1827 0.2011 -0.9624
vn -0.7560 0.1376 0.6400
vn -0.4297 0.2283 0.8736
vn -0.3255 0.2146 0.9209
vn 0.7089 -0.1735 -0.6836
vn -0.5238 -0.8511 -0.0366
vn -0.5181 0.7687 -0.3751
vn 0.1250 -0.3849 -0.9144
vn 0.1010 -0.3247 0.9404
vn -0.1313 -0.9322 -0.3371
vn -0.1901 -0.9097 -0.3692
vn -0.2352 -0.9221 -0.3071
vn 0.6471 -0.2429 -0.7227
vn -0.6463 0.1170 0.7541
vn 0.2073 -0.4880 -0.8479
vn 0.2195 -0.6002 -0.7691
vn -0.0802 0.1723 -0.9818
vn -0.0714 0.4279 -0.9010
vn -0.2979 0.7646 0.5716
vn -0.1813 0.6691 -0.7207
vn 0.3791 -0.6513 0.6573
vn 0.1582 -0.0546 0.9859
vn 0.3084 -0.8573 0.4123
vn 0.0402 -0.2145 0.9759
vn -0.1750 0.6359 0.7516
vn -0.7256 -0.0306 0.6874
vn -0.6943 -0.0326 0.7189
vn -0.6946 -0.0351 0.7186
vn -0.1128 0.3879 -0.9148
vn -0.2399 0.6374 0.7322
vn 0.0752 -0.0037 0.9972
vn 0.0323 -0.2891 0.9568
vn 0.3121 -0.2602 -0.9137
vn 0.3515 -0.8522 -0.3875
vn 0.7649 -0.6231 0.1633
vn -0.4467 0.6096 0.6549
vn 0.6348 -0.7710 0.0507
vn 0.3267 -0.1249 -0.9368
vn -0.5229 0.5528 -0.6489
vn -0.3858 0.5654 -0.7291
vn -0.5567 0.3942 -0.7313
vn -0.2172 0.2231 0.9503
vn -0.6250 0.5667 0.5368
vn -0.2360 0.3472 0.9076
vn -0.0826 -0.0675 -0.9943
vn -0.5395 0.5237 -0.6594
vn 0.8428 -0.4739 0.2552
vn 0.7754 -0.2466 0.5814
vn -0.6351 0.3775 -0.6739
vn -0.8500 0.5077 0.1405
vn -0.2296 0.1837 0.9558
vn -0.2260 -0.0334 -0.9735
vn 0.3604 -0.3840 -0.8501
vn 0.6289 -0.2092 0.7488
vn 0.7189 -0.4598 -0.5212
vn 0.9054 -0.4175 -0.0773
vn -0.4847 0.4740 0.7351
vn 0.7620 -0.2486 0.5979
vn -0.7901 0.3253 -0.5196
vn -0.7017 0.4011 0.5888
vn 0.7550 -0.3594 0.5484
vn 0.6770 -0.3879 0.6255
vn 0.7156 -0.3256 0.6180
vn -0.2535 -0.1333 -0.9581
vn 0.6742 -0.1993 0.7112
vn -0.1865 -0.0810 -0.9791
vn 0.5820 -0.1645 0.7964
vn 0.5247 -0.2166 0.8233
vn 0.5820 -0.1644 0.7964
vn 0.4545 -0.8657 0.2098
vn 0.2155 -0.8262 -0.5205
vn -0.1130 -0.6056 -0.7877
vn -0.5326 0.5359 0.6551
vn -0.5676 0.5743 0.5900
vn -0.7803 0.5111 0.3604
vn 0.3923 0.3461 0.8522
vn 0.9797 0.1823 -0.0837
vn 0.6841 0.1811 0.7065
vn 0.3829 -0.0073 -0.9238
vn 0.2620 -0.1310 -0.9561
vn 0.0656 -0.0939 -0.9934
vn -0.5907 -0.1703 -0.7887
vn -0.8815 -0.0974 -0.4621
vn 0.2166 0.2026 0.9550
vn 0.9343 0.0391 0.3545
vn 0.7231 0.0017 0.6908
vn -0.7506 0.1576 0.6417
vn -0.4866 0.2156 0.8466
vn 0.7884 0.0528 0.6129
vn -0.5844 -0.1282 0.8013
vn 0.1326 0.0723 -0.9885
vn 0.9524 0.3047 -0.0066
vn 0.6796 -0.1371 -0.7207
vn 0.6421 -0.7324 0.2266
vn 0.3887 -0.8978 -0.2071
vn -0.3903 0.2657 0.8815
vn -0.3929 0.2648 0.8806
vn -0.8398 -0.1378 -0.5252
vn -0.9465 0.2717 0.1743
vn -0.9189 -0.3811 -0.1021
vn -0.7661 -0.3895 0.5113
vn 0.4297 0.1052 0.8968
vn 0.7736 0.4624 -0.4333
vn 0.7259 0.5638 0.3939
vn -0.8183 -0.3006 -0.4899
vn -0.5732 -0.3627 -0.7347
vn 0.6354 -0.1112 0.7642
vn -0.7283 0.3361 -0.5971
vn -0.5949 0.5956 -0.5398
vn -0.4539 0.2870 -0.8436
vn -0.7433 -0.5181 0.4230
vn -0.4868 -0.3904 -0.7814
vn 0.7561 -0.4750 0.4501
vn 0.6481 -0.6515 0.3943
vn 0.7852 -0.1405 0.6031
vn 0.4788 0.1167 0.8701
vn 0.5170 -0.5024 -0.6930
vn 0.6104 -0.6420 -0.4640
vn 0.4117 -0.6732 -0.6143
vn 0.4391 -0.0272 0.8980
vn 0.0394 0.6994 0.7136
vn 0.0414 0.6985 0.7144
vn 0.0414 0.6993 0.7136
vn -0.0194 0.1736 0.9846
vn -0.5927 -0.4915 0.6381
vn -0.5960 -0.4104 -0.6902
vn 0.6133 0.4410 -0.6553
vn 0.6260 0.6013 -0.4966
vn 0.1394 0.0541 0.9888
vn 0.7202 -0.2581 0.6440
vn 0.2827 -0.7144 -0.6401
vn 0.9652 0.0993 -0.2418
vn -0.0674 0.2872 0.9555
vn 0.0606 0.1131 0.9917
vn 0.1090 -0.7409 -0.6627
vn 0.0102 -0.5959 -0.8030
vn -0.1593 -0.4779 -0.8638
vn 0.5833 0.6239 -0.5201
vn -0.3119 -0.8539 0.4167
vn -0.5085 -0.4792 -0.7154
vn -0.7094 -0.6006 0.3688
vn -0.6921 -0.4467 -0.5670
vn -0.7636 -0.1008 0.6378
vn 0.5450 -0.0155 -0.8383
vn -0.1766 -0.1612 -0.9710
vn -0.0666 0.1124 0.9914
vn 0.8946 0.1593 0.4175
vn 0.1388 0.0564 0.9887
vn -0.8030 -0.0450 0.5942
vn 0.4072 0.1448 -0.9018
vn -0.5692 -0.0809 -0.8182
vn -0.7081 -0.1155 0.6966
vn -0.8041 -0.0565 0.5919
vn -0.0454 -0.0095 0.9989
vn -0.7111 -0.1796 0.6797
vn -0.0464 -0.1677 0.9847
vn -0.0591 -0.2286 0.9717
vn 0.5512 0.2150 -0.8062
vn 0.7220 0.2662 0.6387
vn 0.8907 -0.0484 0.4521
vn 0.8144 0.0388 0.5790
vn -0.3201 0.1560 -0.9345
vn -0.2738 0.0414 -0.9609
vn 0.9140 0.1998 -0.3531
vn 0.6809 -0.4236 0.5975
vn 0.2617 0.0182 -0.9650
vn 0.7675 -0.6289 -0.1242
vn -0.8455 0.4369 -0.3070
vn -0.3981 0.4524 0.7980
vn 0.4448 0.1823 0.8769
vn 0.0084 0.5844 0.8114
vn -0.4565 0.7501 0.4784
vn -0.4486 0.7619 0.4671
vn -0.4993 0.5163 0.6958
vn -0.6876 -0.5360 -0.4899
vn -0.6870 -0.6929 0.2191
vn 0.5803 0.5527 0.5982
vn -0.8361 -0.2080 0.5076
vn -0.9324 -0.1264 -0.3387
vn -0.9937 -0.1072 -0.0338
vn -0.1032 0.3106 -0.9449
vn -0.2298 0.2918 -0.9285
vn -0.1317 0.3939 -0.9097
vn -0.7116 -0.2015 0.6730
vn 0.0832 -0.3664 0.9267
vn 0.5325 0.4058 -0.7428
vn 0.4986 0.5044 -0.7050
vn 0.5108 0.4188 -0.7508
vn 0.0729 0.4080 -0.9100
vn 0.2451 -0.1350 0.9600
vn -0.2231 -0.1261 0.9666
vn 0.1812 0.2030 -0.9623
vn -0.2274 0.3246 -0.9181
vn -0.9399 0.3413 0.0061
vn -0.7531 0.6500 0.1015
vn -0.7483 0.1861 -0.6367
vn -0.6785 -0.5924 -0.4345
vn -0.7021 -0.5232 -0.4829
vn -0.6192 -0.5352 -0.5746
vn 0.4428 0.5607 -0.6997
s 1
f 2//1 1//2 3//3
f 4//4 7//5 6//6
f 4//4 1//2 7//5
f 2//1 8//7 1//2
f 9//8 11//9 10//10
f 12//11 13//12 3//3
f 16//13 5//14 4//4
f 17//15 18//16 19//17
f 20//18 21//19 22//20
f 13//12 2//1 3//3
f 21//19 26//21 22//20
f 16//13 4//4 6//6
f 29//22 30//23 31//24
f 28//25 27//26 29//22
f 27//26 30//23 29//22
f 34//27 29//22 31//24
f 37//28 35//29 34//27
f 37//28 34//27 31//24
f 36//30 6//6 7//5
f 38//31 7//5 1//2
f 37//28 31//24 39//32
f 36//30 7//5 40//33
f 41//34 1//2 8//7
f 43//35 44//36 41//34
f 1//2 41//34 44//36
f 38//31 1//2 44//36
f 37//28 39//32 48//37
f 50//38 46//39 47//40
f 51//41 13//12 12//11
f 55//42 17//15 56//43
f 57//44 58//45 9//8
f 9//8 10//10 57//44
f 14//46 59//47 15//48
f 60//49 23//50 15//51
f 24//52 53//53 25//54
f 53//53 24//52 52//55
f 18//16 17//15 55//42
f 61//56 62//57 40//58
f 44//36 43//35 49//59
f 63//60 64//60 65//60
f 59//47 14//46 54//61
f 69//62 55//42 56//43
f 72//63 23//50 60//49
f 67//64 66//65 73//66
f 74//67 49//59 43//35
f 61//56 81//68 62//57
f 82//69 68//70 83//71
f 84//72 53//53 52//55
f 54//61 85//73 59//47
f 86//74 84//72 52//55
f 70//75 93//76 71//77
f 94//78 72//63 60//49
f 134//79 59//47 85//73
f 108//80 123//81 107//82
f 131//83 82//69 83//71
f 134//79 85//73 132//84
f 70//75 133//85 93//76
f 72//63 94//78 134//86
f 58//45 57//44 143//87
f 57//44 144//88 143//87
f 144//88 57//44 130//89
f 134//79 132//84 145//90
f 144//88 130//89 146//91
f 147//92 143//87 144//88
f 131//83 83//71 150//93
f 150//93 151//94 131//83
f 151//94 150//93 149//95
f 93//76 133//85 154//96
f 145//90 153//97 134//79
f 133//85 155//98 154//96
f 158//99 149//95 148//100
f 147//101 146//91 130//89
f 130//89 157//102 147//101
f 145//90 159//103 156//104
f 153//97 145//90 156//104
f 160//105 153//97 156//104
f 150//93 148//100 149//95
f 161//106 158//99 162//107
f 157//102 163//108 147//101
f 162//107 158//99 147//109
f 149//95 158//99 164//110
f 166//111 167//112 160//105
f 166//111 160//105 156//104
f 159//103 165//113 156//104
f 166//111 156//104 168//114
f 169//115 163//116 170//117
f 158//99 161//106 164//110
f 171//118 164//110 161//106
f 172//119 163//108 157//102
f 171//118 161//106 175//120
f 176//121 177//122 178//123
f 179//124 173//125 174//126
f 166//111 180//127 181//128
f 183//129 184//129 185//129
f 166//111 168//114 180//127
f 188//130 189//131 190//132
f 197//133 195//134 196//135
f 175//120 198//136 171//118
f 215//137 198//136 175//120
f 190//132 199//138 188//130
f 190//132 202//139 203//140
f 199//138 190//132 203//140
f 200//141 201//142 203//143
f 204//144 200//141 203//143
f 206//145 205//146 195//134
f 194//147 205//146 203//143
f 197//133 206//145 195//134
f 179//124 207//148 208//149
f 208//149 173//125 179//124
f 209//150 210//151 200//141
f 211//152 212//152 213//152
f 214//153 200//141 215//137
f 200//141 210//151 201//142
f 204//144 220//154 200//141
f 200//141 220//154 215//137
f 215//137 220//154 198//136
f 204//144 221//155 220//154
f 206//145 198//136 220//154
f 223//156 204//144 203//143
f 205//146 206//145 225//157
f 224//158 205//146 225//157
f 220//154 222//159 206//145
f 221//155 226//160 220//154
f 205//146 224//158 203//143
f 227//161 176//121 178//123
f 228//162 217//163 216//164
f 226//165 206//145 222//159
f 223//156 226//160 221//155
f 206//145 229//166 225//157
f 206//145 226//165 229//166
f 223//156 203//143 224//158
f 231//167 232//168 233//169
f 234//170 231//167 233//169
f 179//171 235//172 236//173
f 233//169 237//174 234//170
f 238//175 239//176 240//177
f 223//156 224//158 241//178
f 226//160 223//156 242//179
f 243//180 229//166 226//165
f 223//156 241//178 242//179
f 243//180 244//181 229//166
f 244//182 224//158 225//157
f 230//183 241//178 224//158
f 246//184 245//185 249//186
f 246//184 249//186 247//187
f 247//187 249//186 250//188
f 219//189 251//190 218//191
f 244//182 252//192 224//158
f 246//184 248//193 245//185
f 253//194 245//185 254//195
f 254//195 245//185 248//193
f 256//196 253//194 254//195
f 248//193 257//197 254//195
f 245//185 258//198 249//186
f 259//199 245//185 253//194
f 250//188 248//200 247//187
f 248//200 250//188 260//201
f 255//202 248//200 260//201
f 248//193 261//203 257//197
f 259//199 262//204 245//185
f 256//196 263//205 253//194
f 263//205 262//204 259//199
f 260//201 250//188 264//206
f 257//197 261//203 265//207
f 262//204 249//186 258//198
f 266//208 250//188 249//186
f 264//206 250//188 267//209
f 250//188 266//208 268//210
f 268//210 266//208 269//211
f 249//186 262//204 270//212
f 249//213 271//214 269//215
f 273//216 280//217 236//173
f 298//218 234//170 274//219
f 274//219 234//170 237//174
f 275//220 236//173 276//221
f 280//217 179//171 236//173
f 218//191 251//190 280//217
f 218//191 280//217 228//222
f 276//221 236//173 235//172
f 278//223 281//224 277//225
f 277//225 282//226 283//227
f 277//225 283//227 284//228
f 226//165 285//229 243//180
f 226//160 242//179 286//230
f 230//183 287//231 241//178
f 242//179 241//178 290//232
f 256//196 264//233 263//205
f 263//205 264//233 291//234
f 270//212 262//204 272//235
f 263//205 272//235 262//204
f 263//205 292//236 272//235
f 292//236 263//205 291//234
f 292//236 293//237 272//235
f 294//238 269//211 295//239
f 268//210 269//211 294//238
f 297//240 272//241 296//242
f 298//218 270//212 272//235
f 272//235 293//237 299//243
f 270//212 298//218 274//219
f 279//244 269//215 271//214
f 269//215 279//244 300//245
f 295//239 300//245 294//238
f 301//246 275//220 276//221
f 293//237 302//247 299//243
f 303//248 294//238 228//222
f 300//245 279//244 278//223
f 294//238 300//245 284//228
f 303//248 280//217 273//216
f 280//217 303//248 228//222
f 294//238 284//228 228//222
f 300//245 278//223 277//225
f 300//245 277//225 284//228
f 284//228 304//249 228//222
f 303//248 291//234 264//233
f 264//233 294//238 303//248
f 303//248 293//250 291//234
f 307//251 289//252 288//253
f 244//181 243//180 311//254
l 126 127
l 191 192
l 115 116
l 111 112
l 91 92
l 171 182
l 121 122
l 141 142
l 103 104
l 124 125
l 77 78
l 79 80
l 113 114
l 42 45
l 101 102
l 305 306
l 95 96
l 314 315
l 105 106
l 186 187
l 33 34
l 128 129
l 312 313
l 139 140
l 75 76
l 316 317
l 109 110
l 290 308
l 150 152
l 89 90
l 97 98
l 193 194
l 135 136
l 99 100
l 309 310
l 119 120
l 137 138
l 32 36
l 117 118
l 87 88
