# Blender v2.78 (sub 0) OBJ File: 'exporter.blend'
# www.blender.org
o FJ1670M.obj_grp1.531
v 0.288965 -0.466707 7.410849
v 0.287158 -0.465817 7.407290
v 0.287516 -0.464711 7.410291
v 0.286990 -0.468268 7.407486
v 0.289689 -0.469221 7.414089
v 0.288554 -0.465767 7.415648
v 0.289750 -0.466476 7.414869
v 0.290523 -0.468269 7.416877
v 0.289548 -0.467490 7.422241
v 0.289746 -0.471151 7.419798
v 0.290570 -0.469558 7.421762
v 0.287141 -0.472220 7.416968
v 0.289084 -0.471974 7.425732
v 0.287762 -0.472813 7.423008
v 0.288761 -0.469527 7.428812
v 0.288318 -0.471089 7.430405
v 0.285029 -0.473676 7.434775
v 0.283928 -0.464015 7.404763
v 0.284984 -0.466041 7.404354
v 0.283384 -0.466357 7.403480
v 0.283137 -0.463375 7.405794
v 0.285507 -0.469952 7.407782
v 0.285946 -0.465137 7.411731
v 0.285289 -0.470800 7.410027
v 0.285465 -0.467437 7.415720
v 0.283726 -0.465773 7.410371
v 0.283729 -0.470264 7.411380
v 0.285352 -0.471844 7.418399
v 0.287491 -0.467022 7.420221
v 0.284013 -0.468351 7.413050
v 0.284650 -0.470387 7.417152
v 0.284811 -0.469519 7.418887
v 0.284761 -0.471778 7.421144
v 0.284615 -0.470403 7.417225
v 0.285305 -0.468685 7.423207
v 0.284262 -0.473938 7.431145
v 0.286968 -0.467809 7.425200
v 0.282864 -0.473349 7.430312
v 0.285680 -0.469824 7.434663
v 0.283027 -0.469541 7.436592
v 0.285379 -0.472025 7.436359
v 0.283374 -0.470961 7.438369
v 0.281793 -0.464295 7.404619
v 0.281313 -0.464007 7.406687
v 0.282030 -0.465759 7.403613
v 0.280517 -0.465055 7.405469
v 0.282861 -0.468612 7.404323
v 0.282050 -0.469664 7.406231
v 0.281565 -0.467601 7.403991
v 0.280914 -0.468806 7.405217
v 0.280378 -0.467063 7.404732
v 0.280425 -0.468665 7.406964
v 0.281786 -0.468411 7.409185
v 0.283412 -0.470853 7.426309
v 0.281882 -0.470368 7.431285
v 0.280017 -0.473526 7.434650
v 0.279735 -0.470461 7.437291
v 0.281392 -0.475240 7.436423
v 0.279838 -0.475826 7.442020
v 0.273804 -0.473510 7.445336
v 0.271489 -0.477492 7.451139
v 0.272221 -0.475671 7.449522
v 0.279862 -0.466706 7.406927
v 0.277158 -0.473059 7.438095
v 0.271990 -0.477299 7.443665
v 0.273781 -0.473584 7.443088
v 0.277513 -0.477460 7.443017
v 0.276205 -0.477662 7.441706
v 0.262491 -0.478622 7.453850
v 0.262501 -0.480392 7.460255
v 0.268187 -0.479645 7.448821
v 0.266148 -0.476380 7.450489
v 0.266218 -0.475927 7.454024
v 0.270302 -0.479926 7.449876
v 0.263635 -0.478313 7.459785
v 0.264822 -0.480821 7.454396
v 0.259965 -0.476762 7.458916
v 0.260284 -0.481039 7.459842
v 0.260443 -0.480276 7.457209
v 0.259911 -0.476767 7.462775
v 0.258578 -0.478031 7.466811
v 0.255762 -0.477921 7.463369
v 0.254932 -0.479313 7.464887
v 0.256375 -0.476251 7.466734
v 0.257751 -0.479736 7.467554
v 0.254514 -0.480148 7.468202
v 0.255460 -0.476246 7.471427
v 0.251766 -0.476784 7.471912
v 0.251448 -0.478423 7.480815
v 0.254769 -0.477070 7.475197
v 0.253502 -0.477965 7.478098
v 0.252089 -0.477825 7.470707
v 0.249619 -0.474584 7.481950
v 0.250729 -0.477990 7.475417
v 0.247135 -0.476918 7.492662
v 0.248688 -0.473795 7.493348
v 0.249227 -0.473755 7.489010
v 0.248786 -0.474791 7.495447
v 0.245964 -0.476151 7.503149
v 0.245191 -0.475662 7.495923
v 0.245780 -0.473610 7.498569
v 0.246968 -0.476865 7.497068
v 0.244126 -0.474576 7.499435
v 0.244805 -0.474456 7.504268
v 0.244478 -0.476736 7.499522
v 0.239604 -0.478832 7.514197
v 0.241651 -0.478036 7.508161
v 0.241773 -0.476506 7.504827
v 0.241651 -0.478036 7.508161
v 0.243492 -0.475575 7.507998
v 0.239941 -0.477445 7.514713
v 0.238398 -0.477432 7.511380
v 0.238461 -0.477445 7.511400
v 0.237461 -0.478583 7.513580
v 0.239910 -0.475583 7.511345
v 0.238349 -0.476907 7.515932
v 0.234613 -0.478313 7.518442
v 0.236762 -0.479956 7.516235
v 0.235598 -0.478879 7.516288
v 0.233749 -0.481158 7.519850
v 0.233749 -0.481158 7.519850
v 0.237091 -0.479121 7.519038
v 0.232433 -0.479419 7.522430
v 0.230417 -0.483292 7.524325
v 0.231450 -0.482717 7.525094
v 0.230868 -0.481415 7.522236
v 0.232143 -0.480205 7.523919
v 0.229196 -0.482697 7.527290
v 0.227635 -0.482431 7.525660
v 0.230105 -0.482900 7.523777
v 0.224649 -0.484080 7.529209
v 0.228917 -0.484064 7.525578
v 0.225137 -0.486170 7.529104
v 0.224960 -0.486329 7.528608
v 0.223880 -0.484517 7.528680
v 0.225234 -0.485123 7.529845
v 0.224078 -0.485396 7.529408
v 0.223983 -0.485399 7.528071
vn 0.8356 0.2954 -0.4631
vn 0.4728 0.8809 -0.0233
vn 0.9322 0.1657 -0.3219
vn 0.7533 -0.4121 -0.5125
vn 0.8273 0.5611 -0.0257
vn 0.1993 0.9608 0.1926
vn 0.8463 -0.4451 -0.2928
vn 0.9992 0.0227 -0.0325
vn 0.6039 0.7619 0.2342
vn 0.7655 -0.6333 -0.1134
vn 0.9958 -0.0150 0.0900
vn 0.1272 -0.9746 -0.1843
vn 0.3621 -0.9297 -0.0668
vn 0.7849 -0.6062 0.1286
vn 0.8385 0.4244 0.3418
vn 0.9020 -0.1920 0.3868
vn 0.6109 -0.7685 0.1902
vn 0.6361 0.0320 -0.7710
vn 0.3387 0.6936 -0.6358
vn -0.0511 0.9886 -0.1419
vn -0.2918 0.8935 0.3414
vn -0.6767 0.4483 0.5841
vn -0.7506 0.6047 0.2663
vn 0.3833 -0.8081 -0.4472
vn 0.0255 -0.9826 -0.1839
vn -0.7055 -0.6970 0.1287
vn -0.6607 -0.7501 -0.0306
vn -0.2561 0.9442 0.2069
vn -0.9654 -0.2459 0.0868
vn -0.9727 0.2233 0.0632
vn -0.9187 0.1675 0.3576
vn -0.8397 -0.4949 -0.2235
vn -0.6034 -0.6750 -0.4246
vn -0.6654 0.7451 0.0456
vn 0.0696 -0.9927 -0.0986
vn -0.1991 0.9733 0.1138
vn -0.5180 -0.7851 -0.3395
vn 0.6163 0.6536 0.4393
vn 0.0947 0.9315 0.3512
vn 0.8484 -0.0937 0.5211
vn 0.5412 0.4980 0.6775
vn 0.2627 -0.0284 -0.9645
vn -0.4084 0.6735 -0.6161
vn -0.3178 0.2396 -0.9174
vn -0.6077 0.7647 0.2143
vn -0.8407 0.4723 -0.2646
vn 0.1491 -0.6498 -0.7453
vn -0.2563 -0.9337 -0.2499
vn -0.3377 -0.3581 -0.8705
vn -0.6163 -0.6601 -0.4294
vn -0.8361 -0.1093 -0.5376
vn -0.8412 -0.5222 0.1405
vn -0.8141 -0.0584 0.5778
vn -0.9633 0.1056 0.2468
vn -0.9527 0.1472 -0.2659
vn -0.8298 0.4764 -0.2907
vn -0.6547 -0.5076 -0.5602
vn -0.5074 0.8610 -0.0334
vn 0.0661 -0.9478 -0.3121
vn 0.7311 -0.4841 0.4808
vn 0.7373 -0.0007 0.6755
vn -0.1440 0.9572 0.2512
vn 0.4467 0.6123 0.6523
vn -0.7918 0.3259 -0.5166
vn -0.6006 -0.4284 -0.6751
vn -0.5383 0.8255 -0.1695
vn 0.4729 -0.8656 0.1645
vn -0.0342 -0.9240 -0.3809
vn -0.7903 -0.0355 -0.6117
vn 0.5400 -0.7176 0.4397
vn -0.3639 -0.7896 -0.4941
vn -0.5895 0.7123 -0.3811
vn 0.0505 0.9713 0.2326
vn 0.3547 -0.9259 0.1300
vn 0.7706 0.1493 0.6196
vn -0.0417 -0.9911 -0.1265
vn -0.4561 0.8441 -0.2818
vn -0.1769 -0.9841 -0.0137
vn -0.6147 -0.6348 -0.4681
vn 0.4105 0.8692 0.2756
vn -0.8011 0.3352 -0.4959
vn -0.7953 -0.4627 -0.3917
vn 0.8386 0.1639 0.5194
vn 0.8084 0.4767 0.3452
vn 0.6862 -0.5710 0.4508
vn -0.4232 -0.9048 -0.0472
vn 0.5832 0.7903 0.1880
vn -0.8255 0.4478 -0.3435
vn 0.2556 -0.9489 0.1849
vn 0.9463 0.1025 0.3066
vn 0.7847 -0.5097 0.3529
vn -0.9224 -0.1700 -0.3468
vn -0.5246 0.8242 -0.2134
vn -0.8874 -0.4233 -0.1825
vn -0.5082 -0.8599 -0.0477
vn 0.1317 0.9911 -0.0175
vn 0.5126 0.8439 0.1585
vn 0.9103 0.2470 0.3321
vn 0.8948 -0.2179 0.3898
vn -0.9334 -0.1962 -0.3005
vn -0.0967 0.9946 0.0377
vn 0.0886 -0.9935 0.0709
vn -0.8113 0.5104 -0.2853
vn 0.5061 0.7932 0.3387
vn -0.5176 -0.7997 -0.3043
vn 0.6684 -0.7051 0.2369
vn -0.2301 -0.9457 -0.2294
vn -0.7620 -0.4745 -0.4408
vn -0.5296 -0.7534 -0.3898
vn 0.7410 0.4843 0.4651
vn 0.8415 0.1244 0.5258
vn -0.7697 0.6170 -0.1642
vn -0.8838 -0.1299 -0.4494
vn -0.6536 -0.5273 -0.5429
vn -0.2650 0.9592 0.0988
vn 0.2634 0.8332 0.4862
vn 0.7773 0.0055 0.6291
vn -0.6958 0.6576 -0.2887
vn -0.8383 -0.1524 -0.5235
vn -0.6441 -0.3984 -0.6530
vn -0.1311 -0.9103 -0.3927
vn -0.5355 -0.5484 -0.6422
vn 0.2276 -0.9207 -0.3171
vn 0.7040 -0.4973 0.5070
vn -0.2409 0.9502 0.1975
vn -0.6712 -0.2364 -0.7026
vn 0.3124 0.6283 0.7125
vn 0.4383 0.2981 0.8480
vn -0.7036 0.4068 -0.5826
vn -0.3961 -0.6285 -0.6694
vn -0.3871 0.7164 0.5804
vn 0.4832 -0.8755 0.0098
vn 0.1490 -0.8392 0.5229
vn -0.1520 -0.9843 -0.0896
vn -0.9022 0.4288 0.0468
vn 0.1678 -0.0546 0.9843
vn -0.7552 -0.2494 0.6062
vn -0.8129 -0.3456 -0.4689
s 1
f 2//1 3//2 1//3
f 2//1 1//3 4//4
f 3//2 7//5 1//3
f 7//5 3//2 6//6
f 5//7 1//3 8//8
f 1//3 7//5 8//8
f 5//7 4//4 1//3
f 9//9 7//5 6//6
f 10//10 5//7 11//11
f 5//7 8//8 11//11
f 8//8 7//5 9//9
f 5//7 10//10 12//12
f 8//8 9//9 11//11
f 12//12 10//10 14//13
f 13//14 14//13 10//10
f 15//15 11//11 9//9
f 11//11 13//14 10//10
f 16//16 11//11 15//15
f 13//14 11//11 16//16
f 13//14 16//16 17//17
f 2//1 4//4 19//18
f 18//19 3//2 2//1
f 18//19 2//1 19//18
f 18//19 21//20 3//2
f 21//20 23//21 3//2
f 23//21 6//6 3//2
f 23//21 26//22 25//23
f 5//7 22//24 4//4
f 22//24 5//7 12//12
f 22//24 12//12 24//25
f 27//26 12//12 28//27
f 23//21 29//28 6//6
f 29//28 23//21 25//23
f 31//29 32//30 30//31
f 32//30 25//23 30//31
f 28//27 33//32 34//33
f 29//28 9//9 6//6
f 25//23 35//34 29//28
f 25//23 32//30 35//34
f 12//12 14//13 36//35
f 12//12 33//32 28//27
f 33//32 32//30 31//29
f 29//28 37//36 9//9
f 35//34 37//36 29//28
f 12//12 38//37 33//32
f 12//12 36//35 38//37
f 14//13 13//14 17//17
f 36//35 14//13 17//17
f 39//38 15//15 9//9
f 9//9 40//39 39//38
f 37//36 40//39 9//9
f 17//17 16//16 41//40
f 41//40 15//15 39//38
f 15//15 41//40 16//16
f 39//38 42//41 41//40
f 19//18 20//42 18//19
f 43//43 21//20 18//19
f 18//19 45//44 43//43
f 20//42 45//44 18//19
f 43//43 44//45 21//20
f 44//45 43//43 46//46
f 47//47 19//18 4//4
f 22//24 47//47 4//4
f 20//42 19//18 47//47
f 22//24 24//25 48//48
f 47//47 22//24 48//48
f 45//44 20//42 49//49
f 49//49 20//42 47//47
f 50//50 49//49 47//47
f 50//50 47//47 48//48
f 51//51 45//44 49//49
f 51//51 49//49 50//50
f 48//48 52//52 50//50
f 52//52 48//48 27//26
f 23//21 21//20 44//45
f 26//22 23//21 44//45
f 53//53 30//31 26//22
f 26//22 63//54 53//53
f 30//31 53//53 27//26
f 27//26 48//48 24//25
f 27//26 53//53 52//52
f 30//31 25//23 26//22
f 27//26 28//27 31//29
f 27//26 31//29 30//31
f 27//26 24//25 12//12
f 31//29 28//27 34//33
f 54//55 32//30 33//32
f 32//30 54//55 35//34
f 54//55 55//56 35//34
f 33//32 38//37 54//55
f 54//55 56//57 55//56
f 38//37 56//57 54//55
f 37//36 35//34 55//56
f 55//56 57//58 37//36
f 17//17 58//59 36//35
f 58//59 38//37 36//35
f 42//41 39//38 40//39
f 57//58 40//39 37//36
f 17//17 41//40 59//60
f 38//37 58//59 56//57
f 42//41 61//61 41//40
f 42//41 40//39 60//62
f 42//41 60//62 62//63
f 42//41 62//63 61//61
f 61//61 59//60 41//40
f 45//44 46//46 43//43
f 51//51 46//46 45//44
f 51//51 63//54 46//46
f 44//45 46//46 63//54
f 63//54 51//51 50//50
f 52//52 63//54 50//50
f 26//22 44//45 63//54
f 53//53 63//54 52//52
f 56//57 64//64 55//56
f 55//56 64//64 57//58
f 65//65 64//64 56//57
f 57//58 60//62 40//39
f 66//66 57//58 64//64
f 60//62 57//58 66//66
f 59//60 67//67 17//17
f 17//17 67//67 58//59
f 58//59 67//67 68//68
f 68//68 56//57 58//59
f 68//68 65//65 56//57
f 69//69 64//64 65//65
f 61//61 70//70 59//60
f 65//65 68//68 71//71
f 60//62 66//66 72//72
f 73//73 60//62 72//72
f 73//73 62//63 60//62
f 68//68 67//67 74//74
f 67//67 59//60 74//74
f 71//71 68//68 74//74
f 75//75 61//61 62//63
f 70//70 74//74 59//60
f 72//72 66//66 64//64
f 69//69 65//65 71//71
f 72//72 64//64 69//69
f 75//75 62//63 73//73
f 75//75 70//70 61//61
f 71//71 74//74 76//76
f 76//76 74//74 70//70
f 77//77 73//73 72//72
f 69//69 77//77 72//72
f 78//78 76//76 70//70
f 71//71 76//76 79//79
f 79//79 69//69 71//71
f 75//75 73//73 80//80
f 77//77 80//80 73//73
f 79//79 76//76 78//78
f 82//81 77//77 69//69
f 82//81 69//69 83//82
f 83//82 69//69 79//79
f 81//83 75//75 80//80
f 77//77 84//84 80//80
f 85//85 70//70 75//75
f 81//83 85//85 75//75
f 78//78 86//86 79//79
f 87//87 80//80 84//84
f 77//77 82//81 88//88
f 78//78 70//70 85//85
f 83//82 79//79 86//86
f 81//83 80//80 87//87
f 86//86 78//78 89//89
f 89//89 78//78 85//85
f 81//83 90//90 85//85
f 90//90 81//83 87//87
f 85//85 90//90 91//91
f 83//82 92//92 82//81
f 93//93 77//77 88//88
f 93//93 84//84 77//77
f 92//92 88//88 82//81
f 94//94 92//92 83//82
f 83//82 86//86 94//94
f 85//85 91//91 89//89
f 93//93 87//87 84//84
f 95//95 86//86 89//89
f 86//86 95//95 94//94
f 93//93 97//96 87//87
f 97//96 96//97 87//87
f 87//87 96//97 98//98
f 91//91 90//90 99//99
f 92//92 94//94 88//88
f 88//88 100//100 93//93
f 88//88 94//94 100//100
f 93//93 101//101 97//96
f 102//102 89//89 91//91
f 90//90 87//87 98//98
f 99//99 102//102 91//91
f 94//94 95//95 100//100
f 101//101 96//97 97//96
f 101//101 93//93 103//103
f 90//90 98//98 99//99
f 95//95 89//89 102//102
f 104//104 96//97 101//101
f 98//98 96//97 104//104
f 103//103 93//93 100//100
f 105//105 100//100 95//95
f 105//105 95//95 102//102
f 99//99 98//98 104//104
f 102//102 99//99 106//106
f 107//107 105//105 102//102
f 107//107 102//102 106//106
f 108//108 100//100 105//105
f 105//105 109//109 108//108
f 110//110 99//99 104//104
f 110//110 111//111 99//99
f 108//108 103//103 100//100
f 108//108 112//112 103//103
f 113//113 108//108 114//114
f 108//108 109//109 114//114
f 115//115 101//101 103//103
f 115//115 104//104 101//101
f 110//110 104//104 116//116
f 110//110 116//116 111//111
f 104//104 115//115 116//116
f 111//111 122//117 99//99
f 122//117 106//106 99//99
f 103//103 112//112 115//115
f 115//115 112//112 117//118
f 113//113 114//114 119//119
f 120//120 114//114 118//121
f 114//114 121//122 119//119
f 116//116 122//117 111//111
f 118//121 114//114 109//109
f 106//106 118//121 107//107
f 106//106 124//123 118//121
f 106//106 122//117 125//124
f 123//125 116//116 115//115
f 126//126 119//119 121//122
f 115//115 117//118 123//125
f 124//123 120//120 118//121
f 119//119 117//118 112//112
f 127//127 122//117 116//116
f 116//116 123//125 127//127
f 122//117 128//128 125//124
f 127//127 128//128 122//117
f 106//106 125//124 124//123
f 117//118 119//119 126//126
f 126//126 129//129 117//118
f 124//123 130//130 120//120
f 126//126 121//122 130//130
f 117//118 129//129 123//125
f 123//125 131//131 127//127
f 131//131 128//128 127//127
f 132//132 124//123 125//124
f 133//133 132//132 125//124
f 130//130 124//123 134//134
f 129//129 126//126 130//130
f 135//135 123//125 129//129
f 131//131 123//125 135//135
f 133//133 125//124 136//136
f 125//124 128//128 136//136
f 136//136 128//128 131//131
f 137//137 136//136 131//131
f 133//133 134//134 132//132
f 136//136 137//137 133//133
f 138//138 130//130 134//134
f 134//134 133//133 137//137
f 138//138 129//129 130//130
f 138//138 135//135 129//129
f 137//137 131//131 135//135
f 138//138 134//134 137//137
f 138//138 137//137 135//135
