# Blender v2.78 (sub 0) OBJ File: 'exporter.blend'
# www.blender.org
o FJ1679M.obj_grp1.548
v 0.053370 -0.495615 7.188366
v 0.051816 -0.493226 7.187215
v 0.052576 -0.496694 7.187171
v 0.053060 -0.496744 7.189521
v 0.035805 -0.493392 7.199657
v 0.053058 -0.496149 7.188633
v 0.052581 -0.496631 7.187564
v 0.043993 -0.497197 7.195349
v 0.052939 -0.496714 7.189481
v 0.044412 -0.495856 7.198092
v 0.033975 -0.494137 7.200511
v 0.039521 -0.494761 7.196003
v 0.033853 -0.496298 7.200425
v 0.045010 -0.496635 7.197526
v 0.026309 -0.495890 7.206278
v 0.032184 -0.493949 7.198308
v 0.030015 -0.498663 7.202559
v 0.023938 -0.499440 7.202917
v 0.025351 -0.499016 7.206249
v 0.024754 -0.497612 7.206898
v 0.014929 -0.501183 7.215164
v 0.025351 -0.499016 7.206249
v 0.025704 -0.496650 7.204324
v 0.021595 -0.498570 7.206954
v 0.016901 -0.498533 7.211883
v 0.016901 -0.498533 7.211883
v 0.021595 -0.498570 7.206954
v 0.015962 -0.500997 7.213760
v 0.015962 -0.500997 7.213760
v 0.025351 -0.499016 7.206249
v 0.011679 -0.500211 7.220212
v 0.015962 -0.500997 7.213760
v 0.026290 -0.495923 7.206249
v 0.015368 -0.500448 7.216577
v 0.025351 -0.499016 7.206249
v 0.014084 -0.499326 7.215638
v 0.015368 -0.500448 7.216577
v 0.026290 -0.495923 7.206249
v 0.013145 -0.500448 7.215732
v 0.014214 -0.499588 7.215900
v 0.014824 -0.501467 7.216974
v 0.013790 -0.498251 7.218033
v 0.013145 -0.499613 7.218455
v 0.015368 -0.500448 7.216577
v 0.014187 -0.499470 7.215112
v 0.008385 -0.490219 7.225899
v 0.015124 -0.500352 7.216535
v 0.014548 -0.498968 7.215539
v 0.008953 -0.490362 7.225760
v 0.008657 -0.491322 7.226222
v 0.013790 -0.498251 7.218033
v 0.014289 -0.498107 7.217947
v 0.008729 -0.490901 7.225633
v 0.009573 -0.494815 7.220333
v 0.011267 -0.497631 7.219582
v 0.013790 -0.498251 7.218033
v 0.008450 -0.491998 7.224980
v 0.009573 -0.494815 7.220333
v 0.008450 -0.491059 7.223713
v 0.008450 -0.491059 7.223713
v 0.009573 -0.494815 7.220333
v 0.008106 -0.489844 7.227774
v 0.010629 -0.501387 7.223150
v 0.015368 -0.500448 7.216577
v 0.013145 -0.499613 7.218455
v 0.012424 -0.497816 7.219910
v 0.010115 -0.499821 7.224375
v 0.013145 -0.500448 7.215732
v 0.013145 -0.500448 7.215732
v 0.010328 -0.500716 7.221272
v 0.013145 -0.499613 7.218455
v 0.011267 -0.497631 7.219582
v 0.009573 -0.494815 7.220333
v 0.009880 -0.501681 7.221668
v 0.009714 -0.501336 7.224401
v 0.016704 -0.498712 7.215476
v 0.005949 -0.502906 7.227591
v 0.015962 -0.500997 7.213760
v 0.007522 -0.503228 7.227762
v 0.009957 -0.501033 7.221736
v 0.013145 -0.500448 7.215732
v 0.007323 -0.489061 7.224909
v 0.007193 -0.488883 7.227042
v 0.007511 -0.489181 7.228079
v 0.008451 -0.488895 7.225702
v 0.008020 -0.488923 7.226252
v 0.007634 -0.489222 7.226211
v 0.008692 -0.490120 7.225966
v 0.008366 -0.490216 7.228786
v 0.007511 -0.489181 7.228079
v 0.008692 -0.490120 7.225966
v 0.007511 -0.488529 7.226905
v 0.007654 -0.491228 7.224792
v 0.006759 -0.489776 7.228619
v 0.006765 -0.489181 7.226905
v 0.007511 -0.502326 7.228501
v 0.010585 -0.502345 7.222727
v 0.009389 -0.501101 7.224089
v 0.010585 -0.502345 7.222727
v 0.007540 -0.502835 7.228042
v 0.009389 -0.499617 7.221521
v 0.005512 -0.501258 7.227318
v 0.006881 -0.503487 7.227389
v 0.009389 -0.501101 7.224089
v 0.006492 -0.502326 7.227844
v 0.007333 -0.502661 7.228118
vn 0.7457 0.6234 0.2351
vn 0.1478 0.8338 -0.5320
vn 0.4452 0.6462 0.6199
vn -0.0864 0.9957 0.0324
vn 0.0951 -0.9952 0.0241
vn 0.0379 -0.9976 -0.0582
vn -0.0456 -0.5134 -0.8570
vn 0.4341 0.7847 0.4425
vn -0.1521 0.9819 -0.1132
vn -0.5722 0.1647 -0.8034
vn -0.4577 -0.2537 -0.8522
vn 0.4224 -0.0589 0.9045
vn 0.1586 -0.9683 0.1929
vn -0.0821 0.9958 0.0404
vn 0.0304 -0.7528 -0.6576
vn 0.2137 -0.9699 -0.1165
vn 0.1905 -0.9677 0.1652
vn -0.5373 -0.3972 -0.7440
vn -0.2879 0.9254 0.2466
vn 0.4399 -0.2212 0.8704
vn -0.6198 0.5126 -0.5942
vn -0.6456 -0.2917 -0.7058
vn -0.7037 -0.2411 -0.6684
vn -0.6454 -0.2918 -0.7059
vn 0.1236 -0.9910 -0.0513
vn 0.4981 -0.7570 0.4230
vn 0.5284 -0.7585 0.3815
vn 0.5469 -0.7214 0.4248
vn 0.7167 -0.2175 0.6626
vn 0.2400 0.7698 0.5914
vn -0.5828 -0.3402 -0.7380
vn 0.5849 -0.0120 0.8110
vn 0.6340 -0.0481 0.7719
vn 0.9909 0.1139 0.0720
vn 0.8759 0.4641 0.1323
vn 0.8734 0.4853 0.0417
vn 0.9161 -0.1702 0.3630
vn 0.9539 -0.0937 0.2851
vn 0.8414 -0.0175 0.5401
vn -0.0152 -0.7010 0.7130
vn -0.8978 -0.4191 0.1354
vn -0.2606 -0.7937 0.5497
vn 0.3350 -0.5592 0.7583
vn 0.7152 0.6728 -0.1892
vn -0.2663 0.6382 -0.7223
vn -0.2266 0.6221 -0.7494
vn -0.2426 0.6080 -0.7560
vn -0.8916 -0.4384 0.1134
vn -0.8777 -0.4714 0.0860
vn -0.8980 -0.4046 0.1731
vn 0.6574 0.5173 0.5478
vn -0.5553 0.7950 -0.2440
vn 0.5328 0.0241 0.8459
vn -0.8136 -0.4691 -0.3436
vn -0.8174 -0.4638 -0.3415
vn -0.8413 -0.4330 -0.3237
vn -0.1544 -0.6674 0.7285
vn -0.1708 -0.9517 -0.2550
vn -0.1686 -0.9515 -0.2572
vn -0.1122 -0.9480 -0.2978
vn 0.9991 0.0308 0.0278
vn -0.9116 -0.3979 0.1032
vn 0.9746 -0.2118 0.0728
vn 0.8425 0.4708 0.2617
vn -0.9477 -0.3002 -0.1088
vn -0.9610 -0.2499 -0.1182
vn -0.9431 -0.2986 -0.1460
vn 0.8388 0.3147 0.4443
s 1
f 1//1 2//2 4//3
f 5//4 4//3 2//2
f 9//5 8//6 3//7
f 3//7 2//2 1//1
f 5//4 10//8 4//3
f 11//9 5//4 2//2
f 2//2 12//10 11//9
f 3//7 12//10 2//2
f 13//11 12//10 3//7
f 3//7 8//6 13//11
f 15//12 10//8 5//4
f 9//5 14//13 8//6
f 11//9 12//10 16//14
f 17//15 13//11 8//6
f 18//16 13//11 17//15
f 19//17 8//6 14//13
f 12//10 13//11 20//18
f 21//19 11//9 16//14
f 10//8 15//12 22//20
f 23//21 24//21 25//21
f 26//22 27//23 28//24
f 17//15 29//25 18//16
f 30//26 31//27 32//28
f 33//29 34//29 35//29
f 36//30 37//30 38//30
f 26//22 28//24 39//31
f 42//32 43//32 44//33
f 46//34 47//35 48//36
f 49//37 50//38 51//39
f 52//40 53//41 54//42
f 55//43 56//43 57//43
f 48//36 59//44 46//34
f 45//45 58//46 60//47
f 61//48 62//49 82//50
f 63//51 64//51 65//51
f 69//52 70//52 71//52
f 42//32 72//53 43//32
f 73//54 40//55 41//56
f 68//57 52//40 54//42
f 78//58 79//59 77//60
f 85//61 46//34 59//44
f 53//41 86//62 54//42
f 49//37 89//63 50//38
f 90//64 91//64 92//64
f 93//65 94//66 95//67
f 96//68 97//68 98//68
l 80 81
l 103 104
l 101 102
l 6 7
l 105 106
l 83 84
l 74 75
l 87 88
l 99 100
l 76 77
l 66 67
