# Blender v2.78 (sub 0) OBJ File: 'exporter.blend'
# www.blender.org
o FJ1660.obj_grp1.510
v -0.202860 -0.519875 7.299578
v -0.202590 -0.522160 7.298723
v -0.201897 -0.517417 7.299681
v -0.203070 -0.518298 7.304061
v -0.199397 -0.518169 7.291073
v -0.203164 -0.522210 7.301651
v -0.203540 -0.520384 7.304140
v -0.200113 -0.523613 7.293400
v -0.201778 -0.524541 7.300789
v -0.202613 -0.519053 7.306605
v -0.201783 -0.517204 7.306408
v -0.201361 -0.516094 7.304420
v -0.202987 -0.522994 7.304976
v -0.202965 -0.521309 7.306324
v -0.200495 -0.524420 7.307463
v -0.201401 -0.522616 7.307995
v -0.201410 -0.519873 7.308443
v -0.198314 -0.516376 7.290116
v -0.198424 -0.517039 7.287090
v -0.198520 -0.520344 7.287701
v -0.197545 -0.522912 7.287843
v -0.198161 -0.525041 7.291782
v -0.198254 -0.515743 7.295005
v -0.196908 -0.526290 7.293502
v -0.199972 -0.515306 7.302020
v -0.199351 -0.526070 7.298447
v -0.197764 -0.514767 7.304701
v -0.201059 -0.525377 7.304452
v -0.200095 -0.515549 7.305531
v -0.198787 -0.515791 7.307065
v -0.199623 -0.525578 7.306395
v -0.197999 -0.526337 7.305459
v -0.196435 -0.515159 7.305878
v -0.199257 -0.517252 7.308487
v -0.199021 -0.519053 7.309418
v -0.199404 -0.521134 7.309566
v -0.199733 -0.522438 7.309081
v -0.197270 -0.522634 7.309480
v -0.197297 -0.524699 7.308156
v -0.192850 -0.506372 7.262247
v -0.195411 -0.507002 7.273974
v -0.194638 -0.506023 7.277842
v -0.196323 -0.510471 7.275899
v -0.196242 -0.513887 7.278095
v -0.193048 -0.513472 7.271418
v -0.196822 -0.510019 7.280295
v -0.193322 -0.516141 7.276633
v -0.194455 -0.517797 7.279717
v -0.196321 -0.509405 7.282280
v -0.195332 -0.509769 7.285644
v -0.195041 -0.523543 7.286157
v -0.197145 -0.514429 7.289485
v -0.195178 -0.513847 7.291565
v -0.193409 -0.506125 7.280805
v -0.196484 -0.515029 7.292801
v -0.194990 -0.525654 7.289676
v -0.195602 -0.515017 7.295592
v -0.193142 -0.514569 7.293421
v -0.196120 -0.526780 7.297638
v -0.193931 -0.526517 7.293130
v -0.192732 -0.515496 7.295671
v -0.193936 -0.515495 7.298587
v -0.192849 -0.526309 7.295028
v -0.195673 -0.526102 7.304440
v -0.194334 -0.515996 7.305516
v -0.195383 -0.525360 7.306622
v -0.193716 -0.525223 7.302665
v -0.197315 -0.516721 7.308332
v -0.196510 -0.519006 7.309531
v -0.194592 -0.517091 7.307582
v -0.193729 -0.519362 7.308177
v -0.195930 -0.520613 7.309566
v -0.194349 -0.522117 7.308542
v -0.195995 -0.524259 7.308355
v -0.193550 -0.524474 7.305746
v -0.191700 -0.503874 7.259907
v -0.192285 -0.503173 7.266016
v -0.189065 -0.504369 7.251460
v -0.190992 -0.508099 7.257994
v -0.186962 -0.508485 7.250882
v -0.190224 -0.501676 7.265853
v -0.192791 -0.503982 7.274187
v -0.189884 -0.502403 7.272057
v -0.190790 -0.504178 7.277746
v -0.188795 -0.513879 7.269765
v -0.191518 -0.506603 7.282964
v -0.191981 -0.518415 7.279579
v -0.189357 -0.516807 7.277948
v -0.192016 -0.508128 7.285404
v -0.189001 -0.509143 7.285732
v -0.192096 -0.523926 7.286230
v -0.189761 -0.523190 7.286891
v -0.191282 -0.525422 7.290363
v -0.191125 -0.516311 7.295447
v -0.189685 -0.514424 7.291503
v -0.190750 -0.525273 7.293738
v -0.191823 -0.517882 7.300896
v -0.190221 -0.518537 7.297231
v -0.191055 -0.520903 7.300799
v -0.192140 -0.523295 7.302460
v -0.188309 -0.520767 7.293653
v -0.192639 -0.518260 7.305970
v -0.192791 -0.523041 7.306312
v -0.192445 -0.520212 7.306684
v -0.186756 -0.502567 7.246810
v -0.186302 -0.500206 7.247402
v -0.185838 -0.504915 7.245945
v -0.187821 -0.506736 7.250077
v -0.186018 -0.499218 7.255381
v -0.184919 -0.498307 7.248349
v -0.186910 -0.510477 7.255224
v -0.182528 -0.498931 7.255531
v -0.182081 -0.509703 7.250778
v -0.187849 -0.503095 7.273724
v -0.186759 -0.513776 7.271304
v -0.186031 -0.503939 7.273664
v -0.189151 -0.505984 7.281127
v -0.187450 -0.516104 7.279113
v -0.186314 -0.515081 7.280286
v -0.187306 -0.506883 7.280803
v -0.185963 -0.508244 7.280368
v -0.186535 -0.511985 7.285220
v -0.187687 -0.520570 7.286369
v -0.188573 -0.522966 7.289640
v -0.187371 -0.520548 7.289674
v -0.187113 -0.516995 7.289567
v -0.189404 -0.523838 7.293811
v -0.182967 -0.499591 7.244960
v -0.185337 -0.500191 7.246026
v -0.184307 -0.498767 7.246613
v -0.184824 -0.501966 7.244774
v -0.183493 -0.504263 7.244135
v -0.182700 -0.502511 7.243843
v -0.182790 -0.506034 7.244720
v -0.184293 -0.506861 7.246043
v -0.181271 -0.508088 7.246625
v -0.183124 -0.497311 7.249459
v -0.182725 -0.497540 7.247754
v -0.184016 -0.509632 7.250546
v -0.180773 -0.503011 7.260989
v -0.180555 -0.500674 7.257012
v -0.183831 -0.509029 7.274146
v -0.184914 -0.512282 7.273207
v -0.184665 -0.512131 7.267557
v -0.181352 -0.508210 7.264011
v -0.185544 -0.513248 7.280693
v -0.180721 -0.501135 7.244061
v -0.180289 -0.499236 7.245213
v -0.180285 -0.503626 7.243903
v -0.178754 -0.502263 7.244506
v -0.178350 -0.504111 7.244781
v -0.180771 -0.505959 7.244563
v -0.179472 -0.506666 7.245534
v -0.181145 -0.497334 7.247883
v -0.181079 -0.497176 7.250509
v -0.178505 -0.498463 7.247252
v -0.178773 -0.497773 7.249614
v -0.178984 -0.508125 7.248136
v -0.179167 -0.498113 7.251839
v -0.176916 -0.506545 7.248563
v -0.179181 -0.507823 7.255825
v -0.179688 -0.504236 7.259359
v -0.178462 -0.500381 7.245375
v -0.176731 -0.501577 7.246522
v -0.176459 -0.504079 7.246826
v -0.177640 -0.506048 7.246448
v -0.176578 -0.499845 7.249139
v -0.176050 -0.501678 7.248049
v -0.175717 -0.503534 7.249172
v -0.176221 -0.505508 7.249370
v -0.177452 -0.499263 7.251549
v -0.176069 -0.501086 7.250633
v -0.177911 -0.501870 7.254481
v -0.175932 -0.502734 7.251224
v -0.176120 -0.504294 7.251121
vn -0.7874 0.5826 -0.2015
vn -0.9507 0.1850 -0.2488
vn -0.9088 0.4134 0.0570
vn -0.8796 0.3863 -0.2775
vn -0.9282 -0.2388 -0.2852
vn -0.9556 -0.2656 -0.1274
vn -0.9962 0.0431 0.0750
vn -0.7416 -0.6584 -0.1281
vn -0.6832 0.5680 0.4589
vn -0.8482 0.2583 0.4625
vn -0.6422 0.7629 0.0740
vn -0.8755 -0.4393 0.2014
vn -0.9002 -0.1260 0.4168
vn -0.6515 -0.3313 0.6825
vn -0.6375 0.1276 0.7598
vn -0.4951 -0.6386 0.5891
vn -0.8424 0.5361 0.0554
vn -0.9830 0.1181 -0.1407
vn -0.9247 -0.1425 -0.3531
vn -0.6767 -0.5501 -0.4893
vn -0.5831 -0.7253 -0.3661
vn -0.8223 -0.4715 -0.3186
vn -0.5003 0.8585 -0.1122
vn -0.4495 -0.8865 -0.1101
vn -0.3110 -0.9285 -0.2031
vn -0.4313 0.8982 -0.0851
vn -0.5684 -0.8114 0.1362
vn -0.3919 0.8748 0.2847
vn -0.0317 0.9904 0.1348
vn -0.2124 0.8220 0.5283
vn -0.0662 -0.9583 0.2781
vn -0.3282 -0.8455 0.4213
vn 0.2123 0.9100 0.3562
vn -0.3017 0.5597 0.7718
vn -0.2144 0.2607 0.9413
vn 0.0866 0.6614 0.7450
vn -0.2677 -0.0730 0.9607
vn -0.3501 -0.3870 0.8530
vn 0.0525 -0.3360 0.9404
vn 0.0097 -0.7255 0.6882
vn -0.8849 0.4059 -0.2286
vn -0.9644 0.0179 -0.2637
vn -0.9127 0.4011 -0.0783
vn -0.9704 -0.0261 -0.2400
vn -0.9460 0.3243 -0.0009
vn -0.6911 0.7082 0.1446
vn -0.3766 -0.7813 -0.4978
vn -0.4628 -0.6587 -0.5933
vn -0.8226 -0.4159 -0.3878
vn -0.8106 0.5501 0.2010
vn -0.5759 0.7022 0.4186
vn -0.7062 0.6344 0.3146
vn -0.4257 0.8365 0.3450
vn -0.3192 -0.7437 -0.5874
vn -0.4194 0.8918 0.1697
vn -0.3745 0.7840 0.4951
vn -0.1546 -0.9091 -0.3869
vn -0.0663 0.9955 0.0676
vn 0.1069 0.8886 0.4461
vn 0.1039 -0.9868 -0.1245
vn -0.0363 -0.9993 0.0092
vn 0.3433 0.9027 0.2595
vn 0.4428 0.8862 0.1361
vn 0.3641 -0.9293 0.0624
vn 0.3352 -0.9248 0.1801
vn 0.5641 0.7789 0.2741
vn 0.3759 -0.8083 0.4532
vn 0.1623 0.2801 0.9462
vn 0.5088 0.5913 0.6257
vn 0.6512 0.1908 0.7345
vn 0.2822 -0.0127 0.9593
vn 0.5839 -0.2766 0.7633
vn 0.3167 -0.6173 0.7202
vn 0.6775 -0.6539 0.3369
vn -0.9236 0.0186 -0.3829
vn -0.8370 -0.4022 -0.3711
vn -0.4836 -0.7724 -0.4117
vn -0.5574 -0.7004 -0.4459
vn -0.5431 0.8289 0.1339
vn -0.7546 0.6520 -0.0739
vn -0.4344 0.8972 0.0795
vn -0.1469 0.9638 0.2224
vn -0.0982 0.9354 0.3396
vn 0.0425 -0.9540 -0.2967
vn -0.0574 -0.7831 -0.6193
vn 0.2586 -0.8439 -0.4700
vn -0.0542 0.8647 0.4993
vn -0.0824 0.8159 0.5723
vn 0.4479 0.6808 0.5796
vn 0.1615 -0.8377 -0.5217
vn 0.5565 -0.7363 -0.3849
vn 0.4147 -0.8860 -0.2072
vn 0.5063 0.7862 0.3543
vn 0.5691 0.6092 0.5522
vn 0.6128 -0.7878 0.0623
vn 0.8248 0.5262 0.2070
vn 0.8166 0.4350 0.3793
vn 0.6439 -0.7388 0.1990
vn 0.9529 0.0670 0.2958
vn 0.8604 -0.4450 0.2483
vn 0.9508 -0.1329 0.2797
vn 0.8351 -0.5241 0.1669
vn 0.8427 0.4122 0.3462
vn 0.8029 -0.3809 0.4585
vn 0.8995 0.0153 0.4366
vn -0.8402 0.0746 -0.5371
vn -0.7938 0.4920 -0.3575
vn -0.7869 -0.3812 -0.4853
vn -0.6830 -0.2902 -0.6703
vn -0.2651 0.9538 0.1413
vn -0.5604 0.7954 -0.2309
vn -0.3307 -0.8900 -0.3140
vn 0.1702 0.9266 0.3355
vn 0.2446 0.9082 0.3397
vn 0.2855 0.8403 0.4609
vn 0.5748 0.7274 0.3749
vn 0.4825 -0.8505 -0.2095
vn 0.8765 -0.4635 -0.1299
vn 0.6525 -0.7047 -0.2787
vn 0.5974 0.6645 0.4490
vn 0.8308 0.4039 0.3829
vn 0.8765 0.2774 0.3934
vn 0.8373 -0.5044 -0.2110
vn 0.9383 0.1430 0.3147
vn 0.9588 -0.2676 0.0956
vn 0.7867 -0.6128 -0.0753
vn -0.2082 0.5791 -0.7882
vn -0.6401 0.4596 -0.6156
vn -0.4564 0.7318 -0.5062
vn -0.5564 0.1751 -0.8123
vn -0.3247 -0.2330 -0.9167
vn -0.1666 0.0943 -0.9815
vn -0.1878 -0.5358 -0.8232
vn -0.4134 -0.6593 -0.6280
vn 0.0464 -0.8375 -0.5444
vn -0.1991 0.8961 -0.3968
vn -0.2507 0.9680 0.0127
vn -0.1747 -0.9142 -0.3658
vn 0.1982 -0.9568 -0.2128
vn 0.8196 0.4088 0.4015
vn 0.5550 0.7297 0.3995
vn 0.9702 -0.0848 0.2269
vn 0.8367 -0.5473 0.0193
vn 0.5900 -0.8055 -0.0551
vn 0.9263 -0.3133 0.2093
vn 0.9653 -0.2357 0.1127
vn 0.1777 0.6725 -0.7185
vn 0.1202 0.3009 -0.9461
vn 0.1954 -0.1251 -0.9727
vn 0.5041 0.1445 -0.8515
vn 0.5709 -0.1975 -0.7969
vn 0.1181 -0.4786 -0.8701
vn 0.3585 -0.6478 -0.6722
vn 0.0744 0.9439 -0.3217
vn 0.0841 0.9823 0.1676
vn 0.5340 0.7505 -0.3893
vn 0.4888 0.8724 0.0035
vn 0.4663 -0.8360 -0.2893
vn 0.4274 0.8357 0.3449
vn 0.7606 -0.6256 -0.1734
vn 0.8311 -0.5236 0.1874
vn 0.9105 0.1496 0.3855
vn 0.5532 0.4524 -0.6995
vn 0.8078 0.2525 -0.5326
vn 0.8642 -0.1771 -0.4709
vn 0.6626 -0.5263 -0.5329
vn 0.8244 0.5577 -0.0965
vn 0.9428 0.2284 -0.2428
vn 0.9953 -0.0682 -0.0694
vn 0.9237 0.3172 0.2147
vn 0.9072 -0.4206 0.0045
vn 0.7162 0.6103 0.3385
vn 0.7840 0.3969 0.4773
vn 0.9558 0.0314 0.2924
vn 0.9347 -0.2420 0.2605
s 1
f 3//1 1//2 4//3
f 5//4 1//2 3//1
f 2//5 6//6 1//2
f 6//6 7//7 1//2
f 7//7 4//3 1//2
f 6//6 2//5 9//8
f 11//9 4//3 10//10
f 4//3 12//11 3//1
f 11//9 12//11 4//3
f 13//12 14//13 7//7
f 13//12 7//7 6//6
f 7//7 10//10 4//3
f 6//6 9//8 13//12
f 10//10 7//7 14//13
f 16//14 14//13 13//12
f 10//10 14//13 17//15
f 16//14 17//15 14//13
f 13//12 15//16 16//14
f 18//17 19//18 5//4
f 20//19 1//2 5//4
f 19//18 20//19 5//4
f 21//20 22//21 8//22
f 18//17 5//4 23//23
f 20//19 2//5 1//2
f 5//4 3//1 23//23
f 20//19 8//22 2//5
f 8//22 9//8 2//5
f 9//8 8//22 22//21
f 9//8 22//21 26//24
f 24//25 26//24 22//21
f 3//1 25//26 23//23
f 26//24 28//27 9//8
f 12//11 29//28 25//26
f 29//28 27//29 25//26
f 29//28 30//30 27//29
f 12//11 25//26 3//1
f 9//8 28//27 13//12
f 13//12 28//27 15//16
f 32//31 28//27 26//24
f 31//32 28//27 32//31
f 27//29 30//30 33//33
f 11//9 10//10 17//15
f 12//11 11//9 29//28
f 34//34 11//9 17//15
f 29//28 11//9 30//30
f 30//30 11//9 34//34
f 34//34 17//15 35//35
f 68//36 34//34 35//35
f 16//14 36//37 17//15
f 17//15 36//37 35//35
f 36//37 16//14 37//38
f 31//32 15//16 28//27
f 16//14 15//16 37//38
f 37//38 15//16 38//39
f 15//16 39//40 38//39
f 36//37 37//38 38//39
f 76//41 40//42 41//43
f 40//42 43//44 41//43
f 41//43 46//45 42//46
f 43//44 46//45 41//43
f 47//47 48//48 44//49
f 46//45 49//50 42//46
f 42//46 49//50 50//51
f 46//45 18//17 49//50
f 43//44 20//19 19//18
f 43//44 19//18 46//45
f 46//45 19//18 18//17
f 44//49 20//19 43//44
f 44//49 48//48 21//20
f 18//17 50//51 49//50
f 52//52 50//51 18//17
f 42//46 50//51 54//53
f 44//49 21//20 20//19
f 48//48 51//54 21//20
f 52//52 55//55 53//56
f 18//17 55//55 52//52
f 50//51 52//52 53//56
f 8//22 20//19 21//20
f 21//20 51//54 22//21
f 22//21 51//54 56//57
f 23//23 57//58 55//55
f 53//56 55//55 58//59
f 57//58 58//59 55//55
f 18//17 23//23 55//55
f 22//21 56//57 24//25
f 24//25 60//60 59//61
f 60//60 24//25 56//57
f 57//58 23//23 25//26
f 61//62 58//59 57//58
f 61//62 57//58 62//63
f 24//25 59//61 26//24
f 59//61 32//31 26//24
f 60//60 63//64 59//61
f 57//58 25//26 27//29
f 62//63 57//58 27//29
f 59//61 64//65 32//31
f 64//65 59//61 63//64
f 62//63 27//29 33//33
f 62//63 33//33 65//66
f 64//65 66//67 32//31
f 68//36 30//30 34//34
f 69//68 68//36 35//35
f 68//36 33//33 30//30
f 70//69 33//33 68//36
f 69//68 70//69 68//36
f 33//33 70//69 65//66
f 69//68 71//70 70//69
f 72//71 38//39 73//72
f 72//71 71//70 69//68
f 71//70 72//71 73//72
f 39//40 15//16 31//32
f 32//31 39//40 31//32
f 74//73 38//39 39//40
f 39//40 32//31 74//73
f 32//31 66//67 74//73
f 74//73 73//72 38//39
f 75//74 74//73 66//67
f 35//35 36//37 69//68
f 69//68 36//37 72//71
f 72//71 36//37 38//39
f 76//41 78//75 40//42
f 40//42 79//76 43//44
f 45//77 44//49 79//76
f 79//76 80//78 45//77
f 79//76 44//49 43//44
f 42//46 82//79 77//80
f 77//80 82//79 81//81
f 82//79 83//82 81//81
f 77//80 76//41 41//43
f 42//46 77//80 41//43
f 82//79 84//83 83//82
f 82//79 54//53 84//83
f 47//47 44//49 45//77
f 47//47 45//77 85//84
f 54//53 82//79 42//46
f 47//47 87//85 48//48
f 47//47 88//86 87//85
f 85//84 88//86 47//47
f 54//53 86//87 84//83
f 89//88 86//87 54//53
f 50//51 89//88 54//53
f 89//88 50//51 53//56
f 90//89 86//87 89//88
f 87//85 51//54 48//48
f 51//54 87//85 91//90
f 88//86 91//90 87//85
f 91//90 88//86 92//91
f 58//59 89//88 53//56
f 56//57 51//54 91//90
f 56//57 91//90 93//92
f 91//90 92//91 93//92
f 94//93 95//94 58//59
f 56//57 93//92 60//60
f 93//92 63//64 60//60
f 96//95 63//64 93//92
f 94//93 58//59 61//62
f 61//62 97//96 94//93
f 94//93 97//96 98//97
f 96//95 67//98 63//64
f 62//63 97//96 61//62
f 98//97 97//96 99//99
f 99//99 100//100 101//101
f 67//98 64//65 63//64
f 127//102 67//98 96//95
f 127//102 100//100 67//98
f 65//66 102//103 97//96
f 65//66 97//96 62//63
f 102//103 99//99 97//96
f 103//104 100//100 99//99
f 67//98 75//74 64//65
f 75//74 100//100 103//104
f 100//100 75//74 67//98
f 70//69 71//70 102//103
f 102//103 65//66 70//69
f 73//72 104//105 71//70
f 73//72 103//104 104//105
f 102//103 71//70 104//105
f 99//99 102//103 104//105
f 99//99 104//105 103//104
f 64//65 75//74 66//67
f 103//104 74//73 75//74
f 103//104 73//72 74//73
f 105//106 78//75 106//107
f 76//41 106//107 78//75
f 78//75 79//76 40//42
f 108//108 79//76 78//75
f 105//106 107//109 78//75
f 107//109 108//108 78//75
f 109//110 110//111 81//81
f 80//78 79//76 108//108
f 111//112 45//77 80//78
f 77//80 106//107 76//41
f 110//111 106//107 77//80
f 110//111 77//80 81//81
f 109//110 81//81 83//82
f 109//110 83//82 112//113
f 83//82 114//114 112//113
f 114//114 83//82 84//83
f 114//114 117//115 116//116
f 88//86 85//84 115//117
f 117//115 114//114 84//83
f 119//118 118//119 115//117
f 88//86 115//117 118//119
f 84//83 86//87 117//115
f 88//86 118//119 92//91
f 86//87 90//89 117//115
f 90//89 120//120 117//115
f 121//121 120//120 90//89
f 121//121 90//89 122//122
f 90//89 95//94 122//122
f 118//119 119//118 123//123
f 118//119 123//123 92//91
f 58//59 90//89 89//88
f 90//89 58//59 95//94
f 122//122 95//94 126//124
f 123//123 125//125 124//126
f 93//92 92//91 124//126
f 124//126 92//91 123//123
f 95//94 94//93 98//97
f 95//94 98//97 126//124
f 126//124 101//101 125//125
f 127//102 125//125 101//101
f 124//126 127//102 96//95
f 93//92 124//126 96//95
f 125//125 127//102 124//126
f 126//124 98//97 99//99
f 126//124 99//99 101//101
f 101//101 100//100 127//102
f 128//127 129//128 130//129
f 105//106 131//130 107//109
f 129//128 131//130 105//106
f 132//131 107//109 131//130
f 128//127 131//130 129//128
f 133//132 132//131 131//130
f 133//132 131//130 128//127
f 132//131 134//133 135//134
f 135//134 107//109 132//131
f 134//133 136//135 135//134
f 110//111 130//129 129//128
f 106//107 110//111 129//128
f 138//136 130//129 110//111
f 128//127 130//129 138//136
f 138//136 110//111 137//137
f 106//107 129//128 105//106
f 135//134 80//78 108//108
f 107//109 135//134 108//108
f 80//78 135//134 139//138
f 139//138 135//134 136//135
f 109//110 137//137 110//111
f 80//78 139//138 111//112
f 112//113 137//137 109//110
f 45//77 111//112 85//84
f 139//138 85//84 111//112
f 139//138 113//139 85//84
f 116//116 140//140 141//141
f 116//116 141//141 112//113
f 121//121 142//142 140//140
f 116//116 121//121 140//140
f 143//143 144//144 145//145
f 115//117 85//84 144//144
f 144//144 143//143 115//117
f 112//113 114//114 116//116
f 142//142 121//121 122//122
f 145//145 142//142 143//143
f 143//143 142//142 146//146
f 119//118 115//117 143//143
f 120//120 116//116 117//115
f 121//121 116//116 120//120
f 143//143 146//146 119//118
f 142//142 122//122 146//146
f 146//146 122//122 126//124
f 119//118 146//146 125//125
f 123//123 119//118 125//125
f 146//146 126//124 125//125
f 128//127 148//147 147//148
f 149//149 132//131 133//132
f 147//148 133//132 128//127
f 133//132 147//148 149//149
f 147//148 150//150 149//149
f 150//150 151//151 149//149
f 136//135 134//133 152//152
f 149//149 152//152 132//131
f 132//131 152//152 134//133
f 136//135 152//152 153//153
f 149//149 151//151 152//152
f 151//151 153//153 152//152
f 154//154 128//127 138//136
f 154//154 138//136 137//137
f 154//154 137//137 155//155
f 128//127 154//154 148//147
f 156//156 148//147 154//154
f 156//156 154//154 157//157
f 136//135 158//158 113//139
f 136//135 153//153 158//158
f 155//155 137//137 112//113
f 154//154 155//155 157//157
f 155//155 112//113 159//159
f 157//157 155//155 159//159
f 139//138 136//135 113//139
f 113//139 158//158 144//144
f 144//144 158//158 160//160
f 112//113 141//141 159//159
f 113//139 144//144 85//84
f 144//144 160//160 161//161
f 145//145 144//144 161//161
f 142//142 145//145 162//162
f 140//140 142//142 162//162
f 147//148 148//147 163//163
f 163//163 150//150 147//148
f 164//164 151//151 150//150
f 164//164 150//150 163//163
f 165//165 151//151 164//164
f 166//166 153//153 151//151
f 151//151 165//165 166//166
f 148//147 156//156 163//163
f 164//164 163//163 156//156
f 164//164 156//156 167//167
f 164//164 167//167 168//168
f 165//165 164//164 168//168
f 168//168 169//169 165//165
f 168//168 167//167 172//170
f 153//153 166//166 158//158
f 165//165 160//160 166//166
f 158//158 166//166 160//160
f 165//165 169//169 170//171
f 165//165 170//171 160//160
f 159//159 171//172 157//157
f 157//157 167//167 156//156
f 171//172 167//167 157//157
f 167//167 171//172 172//170
f 172//170 171//172 173//173
f 174//174 172//170 173//173
f 168//168 172//170 169//169
f 172//170 174//174 169//169
f 169//169 174//174 175//175
f 170//171 161//161 160//160
f 175//175 161//161 170//171
f 169//169 175//175 170//171
f 171//172 159//159 141//141
f 141//141 140//140 173//173
f 162//162 173//173 140//140
f 173//173 162//162 174//174
f 173//173 171//172 141//141
f 174//174 162//162 175//175
f 175//175 145//145 161//161
f 162//162 145//145 175//175
