# Blender v2.78 (sub 0) OBJ File: 'exporter.blend'
# www.blender.org
o FJ1657M.obj_grp1.505
v 0.058591 -0.312189 6.997150
v 0.065695 -0.311811 7.001813
v 0.067823 -0.310447 7.004164
v 0.058541 -0.315020 6.998345
v 0.058591 -0.312189 6.997150
v 0.064160 -0.306451 7.007023
v 0.068067 -0.310781 7.004192
v 0.048932 -0.310805 6.998409
v 0.046814 -0.320551 6.997463
v 0.064141 -0.312189 7.008464
v 0.064141 -0.306523 7.007010
v 0.061232 -0.309373 7.009826
v 0.068067 -0.310781 7.004192
v 0.061171 -0.309488 7.009720
v 0.061232 -0.309373 7.009826
v 0.053109 -0.312354 7.004474
v 0.054136 -0.309494 7.005455
v 0.051413 -0.320753 6.991282
v 0.052314 -0.319886 6.990710
v 0.053941 -0.319231 6.994334
v 0.035969 -0.338860 6.985050
v 0.044151 -0.333267 6.988794
v 0.036347 -0.333152 6.988939
v 0.044151 -0.333267 6.988794
v 0.050866 -0.314039 7.000606
v 0.054848 -0.319410 6.995065
v 0.042818 -0.321460 6.998398
v 0.061232 -0.309373 7.009826
v 0.040498 -0.327639 6.992903
v 0.041082 -0.327331 6.995166
v 0.042657 -0.323355 6.995197
v 0.040607 -0.328286 6.995655
v 0.041607 -0.330498 6.994756
v 0.031526 -0.335936 6.985990
v 0.034565 -0.342679 6.987292
v 0.035295 -0.338977 6.985032
v 0.041355 -0.337540 6.991517
v 0.041607 -0.330498 6.994756
v 0.041355 -0.337540 6.991517
v 0.035843 -0.336216 6.992439
v 0.024808 -0.341658 6.978117
v 0.028931 -0.344153 6.983067
v 0.012059 -0.343812 6.972609
v 0.030181 -0.344591 6.984036
v 0.033078 -0.342547 6.990160
v 0.029583 -0.337595 6.987864
v 0.041355 -0.337540 6.991517
v 0.032844 -0.341287 6.988486
v 0.013859 -0.342023 6.977073
v 0.016917 -0.341476 6.971456
v 0.026078 -0.338087 6.982836
v 0.006610 -0.339969 6.965005
v 0.004875 -0.307953 6.881614
v 0.001826 -0.306391 6.881342
v 0.003580 -0.305279 6.881663
v 0.004863 -0.307949 6.881616
v 0.003488 -0.307985 6.880161
v 0.003488 -0.307985 6.880161
v 0.000869 -0.308031 6.880114
v 0.002172 -0.306000 6.880255
v 0.002171 -0.311709 6.884526
v -0.000833 -0.306391 6.881999
v 0.002172 -0.306000 6.880255
v 0.002172 -0.306000 6.880255
v 0.004766 -0.331485 6.945550
v 0.003522 -0.305095 6.881732
v 0.006507 -0.331886 6.959517
v 0.008925 -0.335569 6.959373
v 0.004827 -0.331684 6.946120
v 0.001481 -0.330622 6.933760
v -0.000443 -0.331491 6.946836
v 0.002343 -0.331853 6.943444
v 0.006795 -0.334992 6.968008
v 0.007395 -0.339388 6.968843
v 0.004443 -0.338671 6.966439
v 0.003669 -0.337080 6.957481
v -0.000678 -0.310510 6.884846
v 0.000869 -0.308031 6.880114
v -0.000649 -0.306701 6.881851
v 0.002172 -0.306000 6.880255
v 0.002629 -0.307158 6.881191
v 0.000738 -0.325810 6.927529
v -0.000943 -0.324325 6.942956
vn 0.1544 0.7037 -0.6936
vn -0.0015 0.9580 -0.2866
vn 0.3653 0.7401 -0.5647
vn -0.6535 0.7496 -0.1046
vn 0.6343 0.1922 0.7488
vn 0.6343 0.1923 0.7488
vn 0.5703 0.2043 0.7957
vn 0.6943 0.1790 0.6971
vn 0.1731 -0.8826 0.4372
vn 0.3487 -0.8328 0.4299
vn 0.2066 -0.9184 0.3374
vn 0.3311 -0.5875 0.7384
vn -0.3612 -0.3865 0.8486
vn -0.3393 0.7941 0.5042
vn -0.6004 0.4031 0.6906
vn 0.5239 0.0792 -0.8481
vn 0.6469 0.0422 -0.7614
vn 0.7782 -0.3694 -0.5079
vn 0.6337 -0.7732 -0.0236
vn -0.2634 0.5488 -0.7933
vn 0.5200 -0.2029 -0.8297
vn 0.0908 0.5880 -0.8037
vn -0.3127 0.6634 -0.6798
vn 0.7546 -0.5461 -0.3639
vn 0.2745 -0.6214 0.7338
vn 0.2840 -0.5661 0.7739
vn -0.6835 -0.0589 0.7275
vn -0.4533 -0.4810 0.7505
vn -0.9177 0.3718 0.1397
vn -0.8406 0.4641 0.2794
vn -0.8359 0.5230 0.1665
vn 0.0288 -0.3367 0.9412
vn -0.2736 -0.2787 0.9206
vn 0.0463 -0.3288 0.9433
vn 0.6417 -0.5486 -0.5360
vn 0.5989 -0.4606 -0.6551
vn 0.7682 -0.6150 -0.1778
vn 0.2201 -0.4004 0.8895
vn 0.2299 -0.5031 0.8331
vn 0.2089 0.5968 -0.7748
vn -0.6721 0.0975 0.7340
vn 0.6174 0.0546 -0.7848
vn 0.5776 -0.4560 -0.6770
vn 0.2555 0.8282 -0.4987
vn 0.3232 -0.7908 -0.5197
vn -0.1110 -0.9772 0.1810
vn 0.3520 -0.9250 0.1429
vn -0.5742 0.6634 0.4798
vn 0.5131 -0.8573 0.0419
vn -0.3556 -0.5200 0.7766
vn -0.6079 -0.3569 0.7093
vn 0.5516 0.8307 0.0753
vn 0.5996 -0.4681 -0.6491
vn 0.9439 0.2020 -0.2611
vn -0.6358 -0.6445 0.4248
vn -0.5428 0.6252 0.5608
vn -0.8513 -0.3824 0.3593
vn -0.3912 -0.8928 -0.2233
vn 0.6111 0.3690 -0.7003
vn 0.6769 0.3403 -0.6527
vn 0.6110 0.3690 -0.7004
vn 0.0165 0.0602 -0.9981
vn -0.2293 -0.4338 -0.8713
vn 0.8312 -0.2553 -0.4940
vn 0.1500 -0.8093 -0.5680
vn -0.7943 0.4608 -0.3959
vn 0.1472 0.9848 0.0917
vn -0.2845 0.9129 -0.2928
vn 0.5408 0.3949 -0.7427
vn 0.8737 -0.4418 -0.2038
vn -0.6533 0.7112 0.2596
vn 0.9736 0.0036 -0.2281
vn 0.7292 -0.6223 -0.2848
vn -0.8493 -0.5256 0.0502
vn -0.3134 -0.9043 -0.2899
vn -0.7438 0.0052 0.6684
vn -0.7163 -0.6945 -0.0681
vn -0.7429 -0.4904 -0.4557
vn -0.5269 0.3913 -0.7545
vn -0.4813 -0.8306 -0.2801
vn -0.3147 -0.4828 -0.8172
s 1
f 5//1 6//2 7//3
f 8//4 6//2 5//1
f 10//5 11//6 12//7
f 10//5 13//8 11//6
f 14//9 4//10 3//11
f 9//12 4//10 14//9
f 14//9 16//13 9//12
f 15//14 6//2 17//15
f 1//16 2//17 18//18
f 18//18 2//17 20//19
f 19//20 22//21 21//22
f 21//22 23//23 19//20
f 24//24 18//18 20//19
f 19//20 8//4 5//1
f 9//12 26//25 4//10
f 9//12 16//13 27//26
f 8//4 25//27 17//15
f 17//15 6//2 8//4
f 17//15 25//27 28//28
f 31//29 29//30 30//31
f 32//32 40//33 33//34
f 24//24 35//35 36//36
f 24//24 20//19 37//37
f 24//24 37//37 35//35
f 26//25 38//38 39//39
f 40//33 39//39 38//38
f 23//23 21//22 34//40
f 19//20 23//23 8//4
f 25//27 8//4 31//41
f 23//23 29//30 8//4
f 32//32 9//12 27//26
f 32//32 33//34 9//12
f 9//12 38//38 26//25
f 34//40 21//22 41//42
f 42//43 41//42 36//36
f 34//40 41//42 51//44
f 43//45 44//46 45//47
f 29//30 46//48 30//31
f 29//30 23//23 46//48
f 46//48 23//23 51//44
f 47//49 45//47 44//46
f 48//50 39//39 40//33
f 42//43 36//36 35//35
f 46//48 40//33 32//32
f 49//51 48//50 40//33
f 67//52 50//53 68//54
f 50//53 51//44 41//42
f 49//51 43//55 48//50
f 50//53 41//42 42//43
f 51//44 50//53 67//52
f 46//48 51//44 73//56
f 43//55 49//51 75//57
f 50//53 44//46 43//45
f 49//51 46//48 73//56
f 67//52 73//56 51//44
f 75//57 52//58 43//55
f 40//33 46//48 49//51
f 55//59 56//60 57//61
f 58//62 59//62 60//62
f 54//63 53//64 61//65
f 62//66 66//67 63//68
f 64//69 55//59 57//61
f 53//64 65//70 61//65
f 66//67 67//52 53//64
f 53//64 67//52 65//70
f 66//67 83//71 67//52
f 67//52 68//54 65//70
f 69//72 68//54 43//45
f 70//73 65//70 69//72
f 70//73 69//72 43//45
f 43//55 71//74 72//75
f 67//52 83//71 73//56
f 43//45 68//54 50//53
f 83//71 75//57 73//56
f 75//57 74//76 73//56
f 52//58 71//74 43//55
f 76//77 52//58 75//57
f 73//56 74//76 49//51
f 77//78 54//63 61//65
f 78//79 79//79 80//79
f 61//65 82//80 77//78
f 77//78 62//66 81//81
f 70//73 61//65 65//70
f 77//78 82//80 71//74
f 77//78 83//71 62//66
f 62//66 83//71 66//67
f 71//74 83//71 77//78
f 82//80 72//75 71//74
f 71//74 75//57 83//71
f 71//74 76//77 75//57
