# Blender v2.78 (sub 0) OBJ File: 'exporter.blend'
# www.blender.org
o FJ1676M.obj_grp1.542
v 0.018609 -0.670546 7.325566
v 0.017802 -0.673652 7.348238
v 0.013714 -0.674933 7.344600
v 0.011338 -0.675915 7.356632
v 0.016773 -0.674833 7.373411
v 0.019764 -0.666836 7.389113
v 0.026247 -0.653958 7.308685
v 0.025040 -0.661221 7.317713
v 0.024703 -0.656185 7.304855
v 0.021545 -0.663474 7.329295
v 0.021815 -0.667450 7.321972
v 0.025037 -0.659426 7.307728
v 0.016879 -0.658537 7.309501
v 0.018732 -0.669267 7.345712
v 0.021893 -0.655718 7.317487
v 0.017437 -0.659075 7.321927
v 0.021545 -0.663474 7.329295
v 0.009321 -0.669714 7.343508
v 0.012184 -0.667067 7.354757
v 0.012011 -0.666653 7.355440
v 0.017782 -0.669361 7.351501
v 0.014771 -0.664521 7.379876
v 0.017777 -0.669342 7.362448
v 0.012159 -0.666577 7.370467
v 0.014733 -0.664366 7.381030
v 0.014825 -0.669112 7.400911
v 0.010859 -0.653995 7.413585
v 0.013934 -0.650439 7.431230
v 0.026611 -0.652177 7.307013
v 0.024906 -0.642903 7.297953
v 0.023281 -0.649451 7.309062
v 0.018575 -0.648322 7.295086
v 0.019822 -0.652496 7.311611
v 0.023315 -0.649631 7.308492
v 0.022885 -0.632116 7.287055
v 0.012601 -0.631045 7.287976
v 0.022107 -0.641127 7.301550
v 0.023331 -0.610615 7.271446
v 0.018902 -0.616306 7.272821
v 0.020864 -0.626133 7.291438
v 0.020648 -0.626716 7.292757
v 0.017360 -0.610393 7.281264
v 0.013700 -0.644503 7.436145
v 0.016976 -0.634433 7.459387
v 0.016787 -0.630537 7.457249
v 0.014479 -0.629587 7.454669
v 0.013700 -0.644503 7.436145
v 0.015287 -0.634614 7.461269
v 0.012037 -0.652811 7.435041
v 0.014952 -0.630423 7.459657
v 0.016574 -0.634283 7.459290
v 0.014893 -0.634250 7.460698
v 0.015398 -0.604445 7.271444
v 0.025233 -0.608752 7.279710
v 0.020825 -0.605682 7.279946
v 0.014668 -0.603679 7.275013
v 0.022514 -0.604577 7.270335
v 0.024356 -0.603399 7.277194
v 0.023334 -0.604796 7.269908
v 0.019060 -0.602325 7.267982
v 0.024352 -0.609608 7.279720
v 0.016470 -0.601370 7.278599
v 0.024592 -0.599918 7.270014
v 0.020612 -0.592003 7.272209
v 0.011664 -0.576528 7.278119
v 0.012281 -0.579201 7.280377
v 0.012369 -0.582365 7.273100
v 0.022127 -0.565792 7.264945
v 0.014368 -0.571863 7.275917
v 0.011172 -0.577940 7.275067
v 0.020004 -0.560929 7.261939
v 0.021272 -0.560190 7.269225
v 0.015956 -0.568520 7.263101
v 0.012372 -0.575393 7.273242
v 0.016221 -0.562424 7.260461
v 0.016371 -0.556948 7.266286
v 0.007052 -0.570818 7.282222
v 0.012514 -0.559704 7.263502
v 0.009397 -0.673694 7.346730
v 0.009950 -0.667467 7.388381
v 0.010362 -0.668290 7.373283
v 0.010522 -0.668244 7.373788
v 0.006713 -0.657505 7.427561
v 0.010890 -0.659375 7.401170
v 0.012209 -0.652493 7.417742
v 0.012209 -0.652493 7.417742
v 0.008990 -0.645705 7.428582
v 0.004588 -0.650798 7.432121
v 0.012179 -0.647141 7.429291
v 0.009327 -0.646637 7.428152
v 0.012179 -0.647141 7.429291
v 0.009632 -0.632931 7.459475
v 0.011010 -0.629903 7.457922
v 0.014756 -0.634552 7.460965
v 0.009860 -0.632851 7.459445
v 0.005093 -0.579278 7.283961
v 0.007233 -0.580163 7.272068
v 0.001399 -0.582042 7.276214
v 0.002814 -0.584085 7.281047
v 0.009439 -0.577778 7.272772
v 0.007002 -0.577479 7.272640
v 0.011390 -0.577975 7.274979
v 0.009349 -0.579294 7.272865
v 0.011390 -0.577975 7.274979
v 0.015956 -0.568520 7.263101
v 0.002080 -0.576689 7.273026
v 0.009349 -0.579294 7.272865
v 0.009439 -0.577778 7.272772
v 0.011390 -0.577975 7.274979
v 0.006696 -0.577839 7.271880
v 0.009439 -0.577778 7.272772
v 0.011207 -0.574994 7.280471
v 0.011207 -0.574994 7.280471
v 0.012156 -0.576454 7.277748
v 0.016447 -0.565350 7.260295
v 0.004440 -0.566007 7.273304
v 0.000665 -0.574078 7.279570
vn -0.0165 -0.9497 -0.3128
vn 0.7634 -0.6457 0.0147
vn 0.3295 -0.9424 -0.0577
vn -0.4058 -0.9084 0.1007
vn 0.4084 -0.8985 0.1608
vn 0.9987 0.0421 0.0290
vn 0.9455 -0.2565 -0.2008
vn 0.9829 -0.1831 0.0197
vn 0.6526 -0.4992 -0.5700
vn 0.6817 -0.7056 -0.1933
vn -0.1449 -0.7988 -0.5838
vn -0.7915 -0.6024 -0.1036
vn -0.8448 -0.3441 -0.4098
vn 0.7084 0.5998 0.3721
vn 0.9280 0.2882 0.2361
vn 0.2254 0.8486 0.4786
vn -0.0582 0.8598 0.5073
vn 0.3939 0.8484 0.3535
vn -0.9601 -0.1699 -0.2220
vn -0.5330 0.6946 0.4832
vn 0.3155 0.9488 0.0124
vn -0.6687 0.7435 -0.0032
vn 0.2232 0.9603 -0.1673
vn 0.4722 0.8803 -0.0463
vn 0.8891 0.4521 -0.0711
vn -0.7128 0.6482 -0.2680
vn 0.1716 -0.9293 0.3270
vn 0.1854 0.8844 -0.4283
vn 0.9996 0.0225 -0.0172
vn 0.9958 0.0522 0.0749
vn -0.2197 -0.6239 -0.7500
vn 0.9162 0.1981 0.3483
vn 0.6880 0.5345 0.4908
vn 0.7124 0.5131 0.4787
vn 0.1224 0.6634 0.7382
vn 0.9046 -0.1955 -0.3787
vn -0.9893 -0.0778 -0.1238
vn 0.7588 0.4590 0.4621
vn -0.1937 -0.4674 -0.8626
vn 0.9353 0.1247 0.3312
vn -0.1252 0.5815 0.8038
vn -0.4820 0.3848 0.7871
vn 0.9288 0.2277 -0.2924
vn 0.8674 -0.4696 0.1647
vn 0.9899 -0.0682 -0.1239
vn 0.6309 0.5589 -0.5382
vn 0.1651 0.9166 -0.3641
vn 0.6072 0.7860 0.1167
vn 0.4328 -0.8047 0.4064
vn 0.0750 -0.8310 0.5512
vn 0.2971 0.6751 0.6752
vn 0.6890 0.2283 0.6878
vn 0.6264 0.1945 0.7549
vn 0.6772 -0.2194 -0.7023
vn -0.7979 -0.2504 -0.5484
vn 0.9824 -0.1063 -0.1537
vn 0.1737 0.4672 0.8669
vn 0.9566 0.0782 -0.2805
vn 0.8633 0.2901 0.4130
vn 0.3431 -0.1602 -0.9256
vn -0.1254 -0.1151 -0.9854
vn 0.5129 0.4095 0.7545
vn -0.9539 -0.2150 0.2095
vn -0.2991 -0.1241 0.9461
vn 0.9331 0.3473 0.0932
vn 0.3487 0.1655 -0.9225
vn 0.9420 0.2805 0.1843
vn 0.8233 0.2608 0.5042
vn 0.9692 -0.1457 -0.1985
vn 0.4973 0.5112 -0.7010
vn 0.9191 -0.3140 -0.2383
vn 0.7959 -0.2313 0.5595
vn 0.9906 0.0236 -0.1351
vn 0.7534 0.4768 0.4528
vn 0.5550 0.3921 -0.7336
vn 0.4423 -0.6832 -0.5810
vn 0.4331 -0.7323 -0.5255
vn -0.1461 0.1012 -0.9841
vn 0.0011 0.4726 0.8813
vn -0.0059 0.9998 -0.0206
vn -0.5948 0.5971 -0.5383
vn -0.9556 -0.2868 0.0676
vn -0.7336 0.6782 0.0438
vn -0.6380 0.7700 0.0029
vn -0.5917 0.7993 0.1051
vn -0.7794 0.6186 -0.0992
vn -0.8165 0.5455 -0.1888
vn -0.5468 -0.7645 0.3415
vn 0.2683 0.8755 -0.4020
vn 0.6976 0.6847 -0.2109
vn -0.0079 0.8735 -0.4868
vn -0.9927 -0.0501 0.1099
vn 0.8920 0.3789 -0.2463
vn 0.4926 0.7470 -0.4464
vn 0.3393 0.8590 -0.3835
vn -0.8547 -0.0632 0.5152
vn -0.5114 0.8308 0.2198
vn -0.3979 -0.5221 0.7544
vn -0.1281 0.4853 0.8649
vn 0.0896 0.2091 -0.9738
vn -0.7853 -0.0355 -0.6181
vn -0.9274 -0.2953 -0.2296
vn -0.7462 -0.4000 0.5322
vn -0.2028 0.0083 0.9792
vn 0.2626 -0.0940 -0.9603
vn 0.3307 -0.5377 -0.7756
vn 0.5009 0.4295 -0.7514
vn 0.3669 0.1395 -0.9197
vn 0.5775 -0.5907 -0.5635
vn -0.1285 -0.6690 -0.7320
vn -0.1041 -0.3149 -0.9434
vn 0.7424 -0.0855 -0.6645
vn 0.3278 -0.0379 -0.9440
vn 0.3083 -0.0773 -0.9481
vn 0.6610 0.1051 0.7430
vn 0.9688 0.2465 0.0271
vn 0.8673 -0.2463 0.4326
vn -0.5691 -0.1696 -0.8046
vn -0.7848 0.6193 0.0249
vn -0.9071 0.2516 0.3373
s 1
f 1//1 2//2 3//3
f 4//4 2//2 5//5
f 2//2 4//4 3//3
f 6//6 5//5 2//2
f 7//7 8//8 9//9
f 9//9 8//8 11//10
f 1//1 12//11 11//10
f 79//12 13//13 1//1
f 8//8 10//14 14//15
f 8//8 2//2 11//10
f 2//2 8//8 14//15
f 2//2 1//1 11//10
f 15//16 16//17 17//18
f 13//13 18//19 33//20
f 10//14 19//21 14//15
f 17//18 16//17 20//22
f 19//21 22//23 21//24
f 14//15 19//21 21//24
f 14//15 23//25 2//2
f 21//24 22//23 23//25
f 2//2 23//25 6//6
f 22//23 25//26 23//25
f 5//5 6//6 26//27
f 25//26 27//28 23//25
f 28//29 26//27 6//6
f 7//7 9//9 30//30
f 32//31 9//9 12//11
f 1//1 13//13 12//11
f 32//31 12//11 13//13
f 8//8 29//32 10//14
f 29//33 31//34 15//16
f 15//16 34//35 33//20
f 15//16 33//20 16//17
f 15//16 17//18 29//33
f 27//28 6//6 23//25
f 32//31 35//36 9//9
f 32//31 13//13 36//37
f 29//33 37//38 31//34
f 29//33 30//30 37//38
f 13//13 33//20 36//37
f 32//31 39//39 35//36
f 36//37 39//39 32//31
f 30//30 9//9 35//36
f 30//30 40//40 37//38
f 41//41 42//42 34//35
f 33//20 34//35 42//42
f 42//42 36//37 33//20
f 43//43 44//44 28//29
f 45//45 44//44 43//43
f 47//46 46//47 45//48
f 49//49 44//44 48//50
f 45//48 50//51 51//52
f 50//51 52//53 51//52
f 46//47 50//51 45//48
f 35//36 39//39 38//54
f 36//37 53//55 39//39
f 38//54 54//56 35//36
f 35//36 40//40 30//30
f 42//42 41//41 55//57
f 57//58 54//56 38//54
f 54//56 57//58 58//59
f 59//60 38//54 60//61
f 39//39 60//61 38//54
f 61//62 58//59 55//57
f 35//36 54//56 40//40
f 55//57 41//41 61//62
f 56//63 42//42 62//64
f 57//58 64//65 58//59
f 63//66 59//60 60//61
f 60//61 39//39 53//55
f 58//59 62//64 55//57
f 62//64 42//42 55//57
f 65//67 66//68 58//59
f 65//67 58//59 64//65
f 65//69 63//66 67//70
f 68//71 69//72 70//73
f 70//73 69//72 65//69
f 72//74 68//71 71//75
f 73//76 68//71 74//77
f 73//76 75//78 68//71
f 75//78 71//75 68//71
f 69//72 68//71 72//74
f 69//72 72//74 77//79
f 76//80 71//75 75//78
f 78//81 76//80 75//78
f 76//80 72//74 71//75
f 1//1 4//4 79//12
f 80//82 79//12 4//4
f 4//4 5//5 26//27
f 79//12 18//19 13//13
f 18//83 20//22 16//17
f 19//21 24//84 22//23
f 20//22 18//83 24//84
f 18//83 81//85 24//84
f 82//86 24//84 81//85
f 82//86 18//19 79//12
f 80//82 4//4 26//27
f 24//84 82//86 22//23
f 79//12 80//82 82//86
f 84//87 22//23 82//86
f 83//88 80//82 26//27
f 84//87 82//86 80//82
f 27//28 25//26 84//87
f 27//28 85//89 6//6
f 80//82 27//28 84//87
f 86//90 28//29 6//6
f 87//91 27//28 80//82
f 83//88 88//92 80//82
f 88//92 87//91 80//82
f 26//27 28//29 49//49
f 28//29 86//90 89//93
f 83//88 26//27 49//49
f 89//93 43//43 28//29
f 85//89 90//94 91//95
f 90//94 47//46 91//95
f 27//28 90//94 85//89
f 44//44 49//49 28//29
f 47//46 90//94 46//47
f 88//92 83//88 92//96
f 88//92 93//97 87//91
f 88//92 92//96 93//97
f 93//97 46//47 90//94
f 87//91 93//97 90//94
f 94//98 49//49 48//50
f 50//51 95//99 94//98
f 93//97 50//51 46//47
f 83//88 49//49 94//98
f 94//98 95//99 92//96
f 93//97 95//99 50//51
f 92//96 83//88 94//98
f 56//63 36//37 42//42
f 53//55 36//37 56//63
f 63//66 60//61 97//100
f 63//66 97//100 67//70
f 106//101 97//100 60//61
f 53//55 98//102 60//61
f 56//63 98//102 53//55
f 99//103 98//102 56//63
f 106//101 60//61 98//102
f 58//59 96//104 62//64
f 56//63 62//64 99//103
f 99//103 62//64 96//104
f 96//104 58//59 77//79
f 67//70 70//73 65//69
f 100//105 101//106 74//77
f 73//76 74//77 101//106
f 102//107 67//70 103//108
f 67//70 97//100 103//108
f 104//109 100//105 74//77
f 105//110 101//111 106//101
f 107//112 108//112 109//112
f 110//113 111//114 103//108
f 97//100 110//113 103//108
f 106//101 101//111 97//100
f 77//79 66//68 112//115
f 77//79 58//59 66//68
f 66//68 65//67 113//116
f 114//117 69//72 112//115
f 112//115 69//72 77//79
f 115//118 105//110 106//101
f 115//118 78//81 75//78
f 78//81 115//118 106//101
f 78//81 106//101 116//119
f 77//79 72//74 76//80
f 116//119 77//79 76//80
f 76//80 78//81 116//119
f 106//101 117//120 116//119
f 117//120 96//104 77//79
f 96//104 117//120 99//103
f 98//102 117//120 106//101
f 99//103 117//120 98//102
f 117//120 77//79 116//119
