# Blender v2.78 (sub 0) OBJ File: 'exporter.blend'
# www.blender.org
o FJ1693.obj_grp1.575
v -0.324405 -0.301703 7.224218
v -0.328195 -0.303951 7.233199
v -0.324278 -0.301650 7.224089
v -0.326028 -0.306333 7.230247
v -0.327450 -0.303978 7.237891
v -0.328243 -0.304191 7.233525
v -0.304782 -0.288599 7.201772
v -0.329795 -0.318999 7.261498
v -0.313955 -0.295833 7.215834
v -0.328246 -0.304177 7.242844
v -0.330759 -0.308886 7.249674
v -0.325346 -0.306594 7.239701
v -0.327248 -0.303554 7.239795
v -0.321573 -0.298979 7.226181
v -0.330555 -0.306821 7.240594
v -0.333842 -0.314348 7.254489
v -0.333516 -0.314077 7.257082
v -0.333039 -0.314245 7.256952
v -0.330759 -0.308886 7.249674
v -0.327650 -0.315615 7.263016
v -0.332396 -0.315866 7.265261
v -0.328033 -0.319699 7.282893
v -0.327190 -0.315883 7.264181
v -0.329797 -0.319520 7.263758
v -0.324499 -0.321235 7.285010
v -0.324813 -0.330369 7.293885
v -0.321777 -0.329298 7.294858
v -0.327668 -0.329357 7.296856
v -0.327078 -0.330402 7.298200
v -0.322779 -0.333719 7.312265
v -0.326037 -0.337130 7.313005
v -0.325816 -0.340333 7.311737
v -0.326323 -0.333586 7.304127
v -0.328883 -0.349255 7.324224
v -0.326037 -0.337130 7.313005
v -0.321783 -0.341288 7.311550
v -0.321852 -0.341331 7.311736
v -0.322727 -0.371377 7.338956
v -0.322934 -0.342117 7.320746
v -0.322895 -0.341930 7.320561
v -0.329819 -0.362862 7.333989
v -0.323506 -0.358248 7.328554
v -0.325169 -0.371632 7.347258
v -0.318840 -0.377119 7.352279
v -0.319947 -0.383353 7.348791
v -0.321418 -0.374270 7.341409
v -0.321493 -0.374095 7.341136
v -0.319200 -0.295911 7.215243
v -0.313554 -0.296061 7.208269
v -0.304055 -0.292555 7.198432
v -0.319285 -0.299374 7.224795
v -0.311832 -0.297602 7.210217
v -0.312279 -0.295769 7.216768
v -0.319193 -0.333358 7.308210
v -0.315778 -0.375982 7.349169
v -0.315549 -0.375899 7.349185
v -0.310204 -0.385732 7.346361
v -0.304840 -0.393064 7.347869
v -0.301951 -0.391499 7.352861
v -0.309732 -0.297498 7.207474
v -0.303977 -0.292929 7.198033
v -0.302803 -0.292746 7.199207
v -0.305242 -0.290079 7.204090
v -0.297602 -0.290986 7.190180
v -0.314113 -0.295845 7.215174
v -0.303912 -0.289931 7.203679
v -0.311442 -0.381883 7.347135
v -0.310042 -0.385650 7.346603
v -0.305113 -0.387897 7.345438
v -0.304270 -0.385252 7.347091
v -0.306548 -0.383628 7.350809
v -0.304351 -0.385155 7.347041
v -0.293598 -0.287270 7.183578
v -0.293364 -0.288730 7.184076
v -0.287811 -0.286702 7.181884
v -0.294542 -0.287547 7.185123
v -0.293299 -0.287195 7.184842
v -0.299464 -0.287726 7.198944
v -0.294457 -0.285993 7.190475
v -0.287019 -0.395623 7.336820
v -0.288475 -0.395121 7.336870
v -0.281847 -0.394414 7.342401
v -0.284642 -0.284792 7.169560
v -0.283051 -0.282982 7.171216
v -0.280818 -0.287194 7.165701
v -0.288214 -0.287801 7.179113
v -0.279535 -0.284734 7.161664
v -0.294457 -0.285993 7.190475
v -0.281677 -0.283973 7.172213
v -0.282851 -0.282990 7.171040
v -0.287811 -0.286702 7.181884
v -0.291282 -0.289161 7.184231
v -0.282851 -0.282990 7.171040
v -0.287312 -0.391880 7.340891
v -0.287312 -0.391880 7.340891
v -0.261499 -0.412956 7.322580
v -0.283457 -0.283371 7.167985
v -0.282115 -0.285087 7.165875
v -0.285214 -0.286007 7.171492
v -0.280520 -0.281880 7.167286
v -0.282115 -0.285087 7.165875
v -0.281350 -0.283442 7.165904
v -0.279568 -0.282265 7.167190
v -0.275809 -0.283320 7.158129
v -0.272816 -0.284957 7.151367
v -0.271663 -0.285216 7.151205
v -0.281656 -0.280887 7.168042
v -0.280477 -0.282619 7.167422
v -0.282298 -0.283747 7.171325
v -0.268284 -0.252646 7.150295
v -0.280367 -0.281071 7.170391
v -0.270922 -0.258206 7.153435
v -0.268661 -0.252101 7.149860
v -0.274264 -0.285992 7.157956
v -0.269900 -0.280809 7.152848
v -0.283547 -0.285011 7.170734
v -0.270154 -0.288015 7.150826
v -0.275858 -0.286339 7.157144
v -0.287445 -0.286373 7.174561
v -0.281136 -0.278914 7.167894
v -0.282851 -0.282990 7.171040
v -0.281677 -0.283973 7.172213
v -0.280994 -0.281613 7.169960
v -0.280767 -0.279441 7.167715
v -0.281090 -0.281855 7.170125
v -0.281136 -0.278914 7.167894
v -0.268993 -0.285833 7.149237
v -0.271095 -0.285207 7.155967
v -0.268677 -0.406798 7.324272
v -0.278050 -0.396018 7.333942
v -0.261553 -0.403340 7.323421
v -0.270060 -0.247517 7.146689
v -0.269986 -0.250745 7.151127
v -0.264367 -0.236548 7.142648
v -0.270133 -0.248114 7.146393
v -0.268248 -0.250648 7.150494
v -0.268454 -0.249154 7.149651
v -0.268767 -0.248518 7.146721
v -0.269795 -0.248800 7.148565
v -0.267594 -0.248334 7.148740
v -0.268789 -0.247630 7.149858
v -0.274553 -0.260553 7.153435
v -0.273876 -0.262916 7.154741
v -0.274653 -0.262481 7.153871
v -0.274553 -0.260553 7.153435
v -0.269941 -0.252689 7.152261
v -0.269573 -0.251531 7.150996
v -0.269499 -0.250924 7.151087
v -0.268767 -0.249990 7.151087
v -0.269581 -0.251050 7.151125
v -0.269941 -0.252689 7.152261
v -0.272831 -0.260842 7.154377
v -0.274553 -0.260553 7.153435
v -0.273462 -0.259379 7.154890
v -0.274553 -0.260553 7.153435
v -0.280504 -0.279472 7.168692
v -0.269941 -0.252689 7.152261
v -0.270051 -0.253694 7.151674
v -0.273462 -0.259379 7.154890
v -0.280504 -0.279472 7.168692
v -0.271875 -0.283214 7.155500
v -0.275936 -0.285611 7.161421
v -0.258954 -0.284047 7.142806
v -0.264076 -0.283966 7.149068
v -0.264073 -0.282531 7.146393
v -0.260662 -0.283570 7.144501
v -0.267594 -0.286364 7.148740
v -0.275858 -0.286339 7.157144
v -0.258008 -0.406038 7.320076
v -0.245841 -0.416527 7.317257
v -0.258225 -0.225956 7.144973
v -0.262569 -0.229505 7.145407
v -0.258089 -0.218562 7.144896
v -0.264073 -0.235906 7.143764
v -0.257031 -0.218301 7.145876
v -0.262651 -0.229566 7.145398
v -0.258660 -0.224012 7.145320
v -0.264073 -0.235906 7.143764
v -0.255481 -0.213607 7.148740
v -0.262899 -0.235634 7.145219
v -0.260488 -0.234112 7.142223
v -0.258724 -0.220203 7.147609
v -0.262899 -0.235634 7.145219
v -0.258257 -0.224073 7.146664
v -0.257759 -0.218100 7.146548
v -0.258784 -0.225291 7.145164
v -0.253336 -0.213475 7.149849
v -0.262899 -0.233559 7.146909
v -0.258204 -0.224169 7.146675
v -0.260552 -0.225085 7.146393
v -0.269345 -0.246469 7.146393
v -0.266420 -0.240601 7.147472
v -0.265805 -0.242948 7.147566
v -0.266420 -0.240601 7.147472
v -0.265805 -0.242948 7.147566
v -0.262899 -0.233559 7.146909
v -0.267070 -0.243203 7.145673
v -0.268776 -0.247817 7.149267
v -0.265805 -0.242948 7.147566
v -0.267594 -0.286364 7.148740
v -0.267594 -0.286364 7.148740
v -0.259526 -0.284990 7.141649
v -0.249360 -0.283095 7.140917
v -0.262058 -0.282976 7.144361
v -0.263825 -0.283494 7.146933
v -0.260895 -0.286150 7.146019
v -0.264076 -0.283966 7.149068
v -0.261725 -0.285484 7.146393
v -0.260552 -0.282183 7.145219
v -0.259127 -0.284140 7.142199
v -0.254683 -0.282852 7.143904
v -0.260552 -0.282183 7.145219
v -0.261725 -0.285484 7.146393
v -0.254683 -0.282852 7.143904
v -0.261725 -0.285484 7.146393
v -0.255857 -0.284971 7.142872
v -0.260232 -0.408879 7.317888
v -0.253359 -0.410376 7.315125
v -0.268677 -0.406798 7.324272
v -0.261102 -0.413100 7.319953
v -0.251168 -0.423756 7.311934
v -0.253450 -0.419997 7.319364
v -0.245147 -0.281376 7.138381
v -0.256044 -0.280631 7.142772
v -0.246593 -0.281849 7.139206
v -0.249503 -0.204217 7.152261
v -0.254199 -0.215262 7.147510
v -0.254846 -0.211658 7.148552
v -0.261707 -0.224339 7.148696
v -0.253772 -0.208000 7.150848
v -0.253696 -0.212933 7.150021
v -0.257031 -0.218301 7.145876
v -0.257031 -0.220649 7.148458
v -0.253152 -0.213607 7.149914
v -0.253820 -0.211372 7.149957
v -0.253090 -0.211974 7.150020
v -0.257031 -0.220649 7.148458
v -0.260552 -0.225085 7.146393
v -0.258204 -0.224169 7.146675
v -0.259500 -0.280674 7.146050
v -0.254683 -0.282852 7.143904
v -0.245198 -0.279775 7.141792
v -0.242556 -0.279956 7.141827
v -0.240347 -0.280711 7.141391
v -0.255857 -0.284971 7.142872
v -0.247641 -0.283283 7.140524
v -0.244120 -0.282247 7.141698
v -0.249503 -0.204217 7.152261
v -0.253218 -0.209342 7.150196
v -0.248302 -0.198418 7.155782
v -0.248302 -0.198418 7.155782
v -0.253728 -0.213834 7.148987
v -0.240950 -0.187789 7.161225
v -0.249503 -0.204217 7.152261
v -0.253449 -0.212521 7.150800
v -0.254386 -0.213188 7.149340
v -0.251374 -0.210735 7.152985
v -0.241642 -0.187910 7.162991
v -0.247290 -0.426841 7.307800
v -0.242008 -0.426389 7.307640
v -0.253934 -0.419287 7.319061
v -0.251162 -0.423838 7.311878
v -0.248014 -0.429870 7.310305
v -0.248988 -0.428482 7.312952
v -0.248873 -0.429180 7.313117
v -0.241796 -0.279595 7.138234
v -0.245198 -0.279775 7.141792
v -0.254683 -0.282852 7.143904
v -0.244120 -0.282247 7.141698
v -0.244734 -0.280370 7.139726
v -0.241773 -0.187442 7.160477
v -0.242217 -0.187447 7.161664
v -0.242679 -0.187786 7.161650
v -0.241773 -0.187442 7.160477
v -0.248302 -0.198418 7.155782
v -0.242068 -0.190486 7.160979
v -0.241620 -0.189680 7.161582
v -0.241162 -0.188007 7.161546
v -0.242310 -0.188024 7.162131
v -0.249503 -0.204217 7.152261
v -0.245273 -0.430882 7.313111
v -0.241398 -0.427436 7.314641
v -0.230521 -0.276742 7.143840
v -0.235905 -0.279460 7.142872
v -0.244265 -0.282272 7.141797
v -0.234870 -0.280330 7.141980
v -0.244430 -0.278298 7.144443
v -0.233675 -0.276984 7.141698
v -0.231300 -0.278250 7.141665
v -0.219474 -0.275810 7.146111
v -0.234602 -0.278099 7.140666
v -0.218300 -0.273463 7.146581
v -0.219429 -0.275559 7.146135
v -0.234870 -0.280330 7.141980
v -0.230027 -0.278037 7.141269
v -0.216500 -0.273466 7.150040
v -0.235905 -0.279460 7.142872
v -0.219474 -0.275810 7.146111
v -0.215930 -0.273511 7.144672
v -0.233675 -0.276984 7.141698
v -0.213402 -0.270043 7.147538
v -0.221821 -0.274637 7.143623
v -0.220208 -0.272789 7.142715
v -0.212432 -0.271528 7.147566
v -0.212063 -0.273530 7.146338
v -0.219469 -0.274948 7.145166
v -0.214993 -0.273570 7.147989
v -0.211313 -0.274270 7.146661
v -0.211659 -0.270034 7.150020
v -0.218478 -0.271970 7.148972
v -0.211391 -0.272210 7.148029
v -0.212711 -0.273334 7.147015
v -0.211651 -0.271961 7.146638
v -0.210438 -0.272055 7.147417
v -0.210669 -0.272127 7.147253
v -0.210525 -0.272289 7.147566
v -0.211418 -0.273552 7.147165
v -0.212432 -0.271528 7.147566
v -0.211104 -0.272199 7.148149
v -0.212711 -0.271317 7.146538
v -0.213644 -0.271897 7.146214
vn -0.6461 -0.4407 -0.6232
vn -0.3819 -0.7790 -0.4973
vn -0.8049 -0.2360 -0.5444
vn -0.9125 -0.2016 -0.3558
vn -0.9240 0.3034 -0.2326
vn -0.5552 0.8205 0.1358
vn -0.2127 0.9347 0.2846
vn -0.3703 0.9221 0.1123
vn 0.7376 -0.6476 0.1910
vn 0.2294 -0.9141 -0.3345
vn 0.7887 0.4454 0.4238
vn 0.4234 0.8237 0.3772
vn -0.9672 -0.1978 -0.1592
vn -0.9458 0.3249 0.0036
vn -0.9556 0.2730 -0.1107
vn -0.9050 0.4168 0.0853
vn -0.7097 0.6828 0.1733
vn 0.8718 -0.4835 -0.0789
vn -0.4586 0.8031 0.3804
vn -0.1859 0.9438 0.2732
vn -0.5970 0.7537 0.2746
vn 0.9431 0.3101 0.1201
vn -0.7116 0.6796 0.1784
vn -0.4933 -0.8411 -0.2217
vn 0.7214 0.6795 0.1338
vn -0.0021 -0.9134 -0.4071
vn 0.8519 -0.3365 -0.4013
vn -0.6822 0.6271 0.3760
vn -0.6396 -0.6747 -0.3683
vn 0.0016 0.8100 0.5864
vn 0.9380 0.3122 0.1505
vn -0.6384 0.6179 0.4590
vn -0.3509 -0.7063 -0.6148
vn -0.9511 0.3051 0.0485
vn -0.8579 0.4290 0.2826
vn -0.9079 0.3860 0.1635
vn -0.1365 -0.9168 -0.3752
vn 0.3792 -0.7304 -0.5681
vn -0.2672 -0.6808 -0.6819
vn 0.4594 0.5658 0.6847
vn -0.9594 -0.2118 -0.1863
vn 0.9707 0.1810 0.1577
vn -0.7408 0.1650 0.6512
vn 0.9149 0.1481 0.3756
vn -0.1679 0.2457 0.9547
vn -0.6511 -0.7495 0.1198
vn 0.3313 -0.5427 -0.7718
vn 0.4542 0.6706 0.5865
vn -0.2127 0.9324 0.2922
vn -0.5812 -0.3718 -0.7238
vn -0.7508 -0.1122 -0.6509
vn -0.2627 -0.8388 -0.4768
vn 0.8436 -0.4037 0.3542
vn 0.1222 -0.9377 -0.3252
vn 0.9594 -0.0180 -0.2814
vn 0.4198 0.9060 -0.0536
vn 0.0980 -0.0452 -0.9942
vn -0.4854 -0.8549 -0.1833
vn 0.1415 -0.3012 0.9430
vn 0.6610 -0.6778 0.3220
vn -0.5365 -0.6018 -0.5916
vn 0.4140 0.6627 0.6240
vn 0.5454 0.5421 -0.6393
vn 0.5316 0.2095 -0.8207
vn -0.3110 0.0712 -0.9477
vn 0.2712 0.8272 -0.4921
vn 0.0330 0.3387 -0.9403
vn 0.4335 0.8621 -0.2623
vn 0.6661 0.7459 -0.0012
vn 0.3423 0.4634 0.8173
vn 0.6321 0.6751 0.3803
vn 0.7833 -0.1629 0.5999
vn 0.7740 -0.2840 0.5660
vn -0.7210 -0.2997 -0.6247
vn -0.7221 -0.3776 -0.5796
vn -0.8381 0.1595 -0.5218
vn -0.7288 -0.2160 -0.6497
vn -0.4926 -0.5385 -0.6837
vn -0.2017 -0.8260 -0.5264
vn 0.1206 0.9177 0.3786
vn 0.7778 0.2500 0.5767
vn -0.1266 0.7234 -0.6788
vn -0.2820 0.4835 -0.8287
vn 0.6440 0.4675 0.6056
vn -0.5966 -0.7040 -0.3854
vn 0.2264 -0.9679 0.1096
vn -0.7220 0.6919 -0.0034
vn -0.7240 0.6842 -0.0881
vn 0.4273 0.8990 0.0957
vn 0.3682 0.8602 0.3528
vn 0.6692 -0.6321 0.3907
vn 0.7180 -0.6033 0.3472
vn -0.1070 0.9888 0.1041
vn -0.7137 -0.2100 -0.6682
vn 0.0082 0.7938 -0.6081
vn 0.3779 0.9239 -0.0599
vn -0.3939 -0.8485 0.3533
vn -0.8753 -0.1447 -0.4615
vn -0.7211 -0.5054 -0.4739
vn -0.7767 -0.2042 -0.5959
vn -0.6281 0.5476 -0.5529
vn -0.2788 0.2420 -0.9294
vn -0.3849 -0.0397 -0.9221
vn -0.5859 0.7124 -0.3864
vn -0.4307 0.8155 -0.3865
vn -0.5906 -0.5927 -0.5476
vn 0.9221 -0.0855 0.3773
vn 0.9123 -0.1356 0.3863
vn 0.9334 -0.1134 0.3405
vn 0.7583 -0.1251 0.6397
vn 0.8327 -0.1726 0.5262
vn 0.7612 -0.0237 0.6481
vn -0.5743 -0.6690 -0.4719
vn -0.8304 0.0102 -0.5571
vn -0.1905 0.6502 0.7355
vn 0.3275 -0.8993 0.2897
vn 0.3734 -0.9059 0.1998
vn 0.0722 0.8721 -0.4839
vn 0.4129 0.8776 -0.2435
vn -0.6855 0.4302 0.5874
vn -0.5457 0.6693 0.5042
vn -0.1602 0.6853 0.7104
vn -0.7119 0.4612 0.5296
vn 0.6126 -0.4382 -0.6578
vn 0.0811 -0.6090 -0.7890
vn 0.4747 -0.5052 -0.7207
vn 0.8468 -0.4662 -0.2563
vn 0.9447 -0.2786 -0.1729
vn 0.7103 -0.4796 -0.5152
vn 0.6199 -0.6189 -0.4824
vn -0.0043 -0.4463 -0.8949
vn -0.5259 0.4194 0.7400
vn 0.7032 0.3327 0.6283
vn 0.7030 0.4898 0.5157
vn 0.6205 0.4357 0.6520
vn 0.2593 -0.4067 -0.8760
vn -0.8277 0.5059 0.2429
vn -0.8379 0.4946 0.2307
vn -0.8380 0.4946 0.2307
vn -0.8445 0.4710 0.2548
vn 0.7382 -0.5537 -0.3852
vn -0.8303 0.5177 0.2064
vn -0.3846 0.5321 0.7543
vn -0.2970 0.5566 0.7759
vn -0.3509 0.6111 0.7095
vn 0.6613 0.3652 0.6553
vn -0.3459 0.5200 -0.7810
vn 0.3688 -0.7583 0.5375
vn 0.5560 0.6958 0.4547
vn 0.5567 0.5972 0.5774
vn 0.6149 0.5825 0.5316
vn 0.6327 0.4773 0.6098
vn -0.4990 -0.7149 -0.4898
vn -0.6655 -0.5977 -0.4472
vn -0.6380 -0.1760 -0.7497
vn -0.2574 0.6230 -0.7386
vn -0.2066 0.6735 -0.7097
vn 0.8247 0.4228 0.3756
vn -0.8665 0.4447 -0.2269
vn -0.8519 0.4579 -0.2540
vn -0.8615 0.4400 -0.2535
vn 0.7421 -0.1609 0.6507
vn 0.8203 -0.2224 0.5270
vn 0.0682 -0.3165 0.9462
vn 0.1122 -0.2770 0.9543
vn -0.1569 0.1040 0.9821
vn -0.8500 0.3197 -0.4187
vn -0.8348 0.4364 -0.3356
vn -0.7633 0.3315 -0.5545
vn -0.6805 0.3597 0.6384
vn -0.0485 0.2566 0.9653
vn -0.1712 0.0718 0.9826
vn 0.9112 -0.4104 0.0352
vn 0.9044 -0.4264 -0.0132
vn 0.9283 -0.3718 -0.0097
vn 0.0396 0.0566 0.9976
vn 0.6618 -0.0566 0.7476
vn 0.6678 -0.1317 0.7326
vn 0.6865 -0.0475 0.7255
vn -0.5293 -0.2162 -0.8204
vn 0.1853 -0.9825 0.0212
vn 0.2409 -0.9705 0.0087
vn 0.1531 -0.9511 -0.2684
vn 0.7424 -0.0256 0.6695
vn 0.3976 -0.5611 0.7260
vn 0.2382 0.2491 0.9387
vn 0.3332 -0.5567 0.7609
vn 0.4553 -0.5818 0.6740
vn -0.5322 0.3354 -0.7773
vn 0.1994 0.7226 -0.6618
vn -0.6227 -0.2420 -0.7441
vn -0.7611 -0.5110 -0.3995
vn -0.8435 -0.2095 -0.4945
vn 0.1951 -0.2109 0.9578
vn -0.3165 0.5102 -0.7997
vn -0.3121 0.5032 -0.8058
vn -0.2667 0.3419 -0.9011
vn 0.3489 -0.9011 -0.2574
vn 0.2351 0.2952 -0.9260
vn 0.2037 0.2646 -0.9426
vn 0.2307 0.3842 -0.8940
vn 0.0682 -0.2123 0.9748
vn 0.1643 0.0093 0.9864
vn 0.0717 -0.1699 0.9829
vn 0.2237 0.3035 -0.9262
vn -0.2200 -0.0822 0.9720
vn -0.2201 -0.0694 0.9730
vn -0.2354 -0.1500 0.9603
vn 0.5088 -0.0034 -0.8609
vn 0.4541 0.0899 -0.8864
vn 0.5193 0.0882 -0.8500
vn 0.0786 -0.4683 0.8801
vn -0.4013 0.8863 -0.2313
vn -0.3790 0.9249 -0.0300
vn 0.3208 -0.2765 0.9059
vn 0.3290 -0.2407 0.9131
vn 0.2895 -0.2629 0.9204
vn 0.2276 -0.9174 0.3264
vn 0.2792 -0.9023 0.3286
vn 0.2548 -0.8875 0.3838
vn 0.2035 -0.5188 0.8304
vn -0.3311 0.5393 -0.7743
vn -0.3054 0.5401 -0.7843
vn -0.3312 0.5393 -0.7743
vn -0.1742 -0.3524 0.9195
vn -0.2552 -0.3907 0.8845
vn -0.1665 -0.2511 0.9535
vn 0.8763 -0.4698 0.1068
vn 0.8693 -0.4244 -0.2534
vn 0.8123 -0.3032 -0.4982
vn -0.2546 -0.1563 -0.9543
vn 0.6693 -0.0833 -0.7383
vn -0.9212 -0.3504 -0.1691
vn -0.6155 -0.7466 0.2526
vn -0.4454 -0.8124 -0.3763
vn -0.8253 -0.5645 0.0132
vn 0.7926 -0.3609 0.4915
vn -0.2633 0.5505 -0.7923
vn 0.0464 -0.0230 0.9987
vn 0.2021 0.0457 0.9783
vn -0.0555 0.9692 -0.2398
vn -0.0412 0.9899 -0.1359
vn -0.1492 0.9887 0.0161
vn -0.3566 0.5381 -0.7637
vn 0.9108 -0.4113 0.0346
vn -0.7149 0.5874 -0.3792
vn 0.8495 -0.4082 0.3341
vn 0.8644 -0.4184 0.2787
vn 0.8303 -0.4769 0.2884
vn 0.0821 -0.9166 0.3912
vn -0.0177 -0.4858 0.8739
vn 0.3780 -0.9225 0.0778
vn -0.1107 -0.0911 0.9897
vn -0.2135 0.7392 -0.6387
vn 0.1838 -0.9260 0.3297
vn 0.1998 -0.9253 0.3223
vn 0.1978 -0.9197 0.3391
vn 0.3014 -0.9527 0.0387
vn -0.1653 0.9694 -0.1817
vn -0.1092 0.9884 -0.1053
vn -0.0771 0.9777 -0.1955
vn 0.1246 -0.9862 0.1087
vn 0.3595 -0.8838 -0.2995
vn 0.3277 -0.8558 -0.4002
vn 0.0664 -0.9132 0.4022
vn 0.1109 -0.8908 0.4407
vn 0.0396 -0.8844 0.4650
vn 0.2906 -0.2932 -0.9108
vn -0.0080 0.6576 -0.7533
vn -0.0859 0.6170 -0.7822
vn -0.0803 0.7040 -0.7057
vn 0.3982 0.0549 -0.9157
vn 0.1289 -0.9745 0.1837
vn 0.4213 -0.9062 -0.0353
vn 0.4172 -0.8833 -0.2136
vn 0.3240 -0.9368 -0.1317
vn 0.1206 0.8294 -0.5455
vn 0.1539 0.8691 -0.4702
vn 0.2472 0.8450 -0.4741
vn 0.3854 0.1885 -0.9033
s 1
f 3//1 4//2 1//3
f 1//3 6//4 2//5
f 2//5 5//6 14//7
f 14//7 7//8 2//5
f 4//2 9//9 8//10
f 13//11 12//12 14//7
f 16//13 18//14 15//15
f 6//4 4//2 15//15
f 4//2 16//13 15//15
f 15//15 17//16 19//17
f 1//3 4//2 6//4
f 8//10 16//13 4//2
f 5//6 15//15 19//17
f 2//5 15//15 5//6
f 15//15 18//14 17//16
f 8//10 9//9 20//18
f 12//12 13//11 20//18
f 9//9 12//12 20//18
f 19//17 17//16 22//19
f 22//19 10//20 11//21
f 10//20 22//19 23//22
f 18//14 16//13 21//23
f 8//10 24//24 16//13
f 20//18 25//25 8//10
f 21//23 22//19 17//16
f 24//24 26//26 16//13
f 27//27 8//10 25//25
f 16//13 28//28 21//23
f 26//26 29//29 16//13
f 8//10 27//27 26//26
f 25//25 23//22 22//19
f 30//30 22//19 21//23
f 21//23 28//28 30//30
f 54//31 25//25 22//19
f 31//32 30//30 28//28
f 54//31 22//19 30//30
f 26//26 32//33 29//29
f 33//34 34//35 35//36
f 32//33 26//26 36//37
f 32//33 36//37 37//38
f 38//39 32//33 37//38
f 34//35 30//30 31//32
f 39//40 30//30 34//35
f 32//33 38//39 41//41
f 33//34 41//41 34//35
f 42//42 38//39 37//38
f 39//40 34//35 43//43
f 43//43 34//35 41//41
f 40//44 39//40 42//42
f 39//40 44//45 42//42
f 45//46 41//41 38//39
f 45//46 38//39 46//47
f 41//41 45//46 43//43
f 44//45 39//40 43//43
f 14//7 51//48 7//8
f 48//49 1//3 2//5
f 49//50 4//2 3//1
f 3//1 48//51 49//50
f 2//5 7//8 48//49
f 50//52 4//2 49//50
f 52//53 9//9 4//2
f 14//7 12//12 51//48
f 53//54 12//12 9//9
f 27//27 25//25 54//31
f 54//31 37//38 27//27
f 27//27 36//37 26//26
f 54//31 30//30 40//44
f 42//42 54//31 40//44
f 37//38 54//31 42//42
f 42//42 44//45 47//55
f 47//55 44//45 55//56
f 46//47 47//55 55//56
f 45//46 46//47 57//57
f 43//43 45//46 44//45
f 45//46 57//57 58//58
f 44//45 45//46 59//59
f 9//9 52//53 62//60
f 48//51 64//61 49//50
f 51//48 63//62 7//8
f 67//63 46//47 55//56
f 46//47 67//63 57//57
f 58//58 57//57 68//64
f 69//65 57//57 67//63
f 67//63 70//66 69//65
f 67//63 55//56 56//67
f 67//63 56//67 71//68
f 71//68 72//69 67//63
f 44//45 71//70 55//56
f 59//59 71//70 44//45
f 59//59 45//46 58//58
f 75//71 66//72 65//73
f 73//74 74//75 48//51
f 74//75 64//61 48//51
f 7//8 76//76 48//49
f 77//77 60//78 61//79
f 63//62 78//80 7//8
f 66//72 75//71 79//81
f 71//68 70//66 72//69
f 68//64 69//65 58//58
f 69//65 80//82 81//83
f 70//66 80//82 69//65
f 58//58 69//65 81//83
f 59//59 82//84 71//70
f 73//74 85//85 74//75
f 85//85 86//86 74//75
f 83//87 7//8 84//88
f 75//71 87//89 79//81
f 88//90 89//90 90//90
f 7//8 83//87 76//76
f 91//91 62//60 92//92
f 91//91 9//9 62//60
f 93//93 7//8 78//80
f 86//94 60//78 77//77
f 94//95 70//66 71//68
f 82//84 95//96 71//70
f 70//66 94//95 80//82
f 96//97 59//59 58//58
f 97//98 98//99 99//100
f 101//101 97//102 100//103
f 104//104 105//105 101//101
f 106//106 99//100 98//99
f 100//103 104//104 101//101
f 108//107 112//108 109//109
f 114//110 115//111 116//112
f 85//85 117//113 86//86
f 99//100 106//106 118//114
f 99//100 118//114 85//85
f 120//115 121//115 122//115
f 91//91 127//116 128//117
f 99//100 85//85 73//74
f 127//116 91//91 92//92
f 80//82 94//95 130//118
f 131//119 130//118 95//96
f 58//58 81//83 96//97
f 131//119 95//96 82//84
f 132//120 133//121 136//122
f 142//123 133//121 132//120
f 134//124 143//125 135//126
f 138//127 137//128 113//129
f 144//130 138//127 113//129
f 143//125 145//131 135//126
f 146//132 133//121 142//123
f 110//133 139//134 147//135
f 152//136 100//103 97//102
f 84//88 153//137 83//87
f 154//138 155//139 156//140
f 107//141 144//130 113//129
f 155//139 154//138 157//142
f 158//143 159//144 160//145
f 111//146 110//133 147//135
f 163//147 105//105 104//104
f 164//148 128//117 127//116
f 165//149 161//150 166//151
f 162//152 166//151 161//150
f 106//106 167//153 118//114
f 117//113 85//85 168//154
f 129//155 81//83 169//156
f 130//118 131//119 169//157
f 80//82 130//118 169//157
f 81//83 129//155 96//97
f 59//59 170//158 82//84
f 170//158 59//59 96//97
f 175//159 176//160 179//161
f 180//162 181//163 182//164
f 182//164 181//163 187//165
f 188//166 189//166 190//166
f 191//167 173//168 174//169
f 192//170 172//171 132//120
f 172//171 192//170 171//172
f 137//128 181//163 180//162
f 183//173 184//174 193//175
f 194//176 195//176 196//176
f 132//120 136//122 192//170
f 199//177 141//178 140//179
f 137//128 138//127 181//163
f 105//105 163//147 200//180
f 201//181 202//182 203//183
f 207//184 208//184 209//184
f 206//185 164//148 127//116
f 211//186 212//186 213//186
f 214//187 215//188 216//187
f 217//189 169//156 218//190
f 219//191 217//189 220//192
f 217//189 129//155 169//156
f 82//84 170//158 131//119
f 96//97 129//155 220//192
f 221//193 96//97 220//192
f 222//194 170//158 96//97
f 210//195 224//196 223//197
f 202//182 225//198 203//183
f 226//199 227//200 228//201
f 230//202 229//203 231//204
f 227//200 232//205 228//201
f 233//206 234//207 235//208
f 186//209 185//210 236//211
f 237//212 238//212 239//212
f 224//196 204//213 205//214
f 224//196 210//195 204//213
f 240//215 241//216 242//217
f 244//218 245//219 246//220
f 247//221 214//187 216//187
f 248//222 249//223 250//224
f 251//225 252//226 253//227
f 254//228 255//229 256//230
f 220//192 217//189 259//231
f 221//193 220//192 259//231
f 218//190 260//232 217//189
f 259//231 217//189 260//232
f 262//233 261//234 221//193
f 259//231 263//235 221//193
f 263//235 264//236 262//233
f 262//233 264//236 261//234
f 170//158 218//190 131//119
f 221//193 261//234 96//97
f 282//237 170//158 222//194
f 266//238 223//197 224//196
f 267//239 268//240 269//239
f 270//241 224//242 243//243
f 271//244 248//222 250//224
f 254//228 272//245 255//229
f 273//246 274//246 275//246
f 257//247 278//248 258//249
f 260//232 263//235 259//231
f 263//235 260//232 281//250
f 170//158 260//232 218//190
f 222//194 265//251 282//237
f 260//232 170//158 282//237
f 281//250 264//236 263//235
f 282//237 265//251 281//250
f 281//250 260//232 282//237
f 225//198 283//252 203//183
f 267//239 269//239 284//253
f 289//254 270//241 243//243
f 290//255 285//256 286//257
f 291//258 283//252 225//198
f 292//259 288//260 287//261
f 293//262 294//263 295//264
f 296//265 297//266 298//267
f 299//268 289//254 243//243
f 300//269 301//270 302//271
f 299//268 305//272 289//254
f 308//273 293//262 295//264
f 313//274 307//275 306//276
f 304//277 314//278 303//279
f 299//268 315//280 305//272
l 125 126
l 309 310
l 99 119
l 279 280
l 148 149
l 177 178
l 38 47
l 276 277
l 123 124
l 311 312
l 150 151
l 197 198
l 316 317
l 102 103
l 318 319
l 320 321
