# Blender v2.78 (sub 0) OBJ File: 'exporter.blend'
# www.blender.org
o FJ1679.obj_grp1.547
v -0.053373 -0.495613 7.188362
v -0.051805 -0.493215 7.187225
v -0.052573 -0.496715 7.187275
v -0.053058 -0.496739 7.189460
v -0.035805 -0.493392 7.199657
v -0.053308 -0.495660 7.188456
v -0.052073 -0.496222 7.189437
v -0.051708 -0.497631 7.189349
v -0.044366 -0.495864 7.198117
v -0.033975 -0.494139 7.200511
v -0.039304 -0.494779 7.196096
v -0.040130 -0.496659 7.196165
v -0.038428 -0.496074 7.199188
v -0.045290 -0.496609 7.197387
v -0.042351 -0.496601 7.195818
v -0.026309 -0.495890 7.206278
v -0.030082 -0.496721 7.201460
v -0.015411 -0.501362 7.214674
v -0.023956 -0.499436 7.202894
v -0.025351 -0.499016 7.206249
v -0.025351 -0.499016 7.206249
v -0.024702 -0.497675 7.207114
v -0.025351 -0.499016 7.206249
v -0.025704 -0.496650 7.204324
v -0.016901 -0.498533 7.211883
v -0.021595 -0.498570 7.206954
v -0.016901 -0.498533 7.211883
v -0.015962 -0.500997 7.213760
v -0.021595 -0.498570 7.206954
v -0.015962 -0.500997 7.213760
v -0.025351 -0.499016 7.206249
v -0.015962 -0.500997 7.213760
v -0.011679 -0.500211 7.220212
v -0.026290 -0.495923 7.206249
v -0.025351 -0.499016 7.206249
v -0.015368 -0.500448 7.216577
v -0.014084 -0.499326 7.215638
v -0.026290 -0.495923 7.206249
v -0.015368 -0.500448 7.216577
v -0.013145 -0.500448 7.215732
v -0.014214 -0.499588 7.215900
v -0.014824 -0.501467 7.216974
v -0.016144 -0.499114 7.218758
v -0.013145 -0.499613 7.218455
v -0.014051 -0.499370 7.215529
v -0.013483 -0.499298 7.215873
v -0.008406 -0.490202 7.225911
v -0.014547 -0.498970 7.215540
v -0.014909 -0.500389 7.216564
v -0.008886 -0.490300 7.225820
v -0.014084 -0.498725 7.217516
v -0.008616 -0.491326 7.226149
v -0.014289 -0.498107 7.217947
v -0.009573 -0.494815 7.220333
v -0.008729 -0.490901 7.225633
v -0.011267 -0.497631 7.219582
v -0.008450 -0.491998 7.224980
v -0.014084 -0.498725 7.217516
v -0.014017 -0.499177 7.215430
v -0.009573 -0.494815 7.220333
v -0.008450 -0.491059 7.223713
v -0.008450 -0.491059 7.223713
v -0.009573 -0.494815 7.220333
v -0.010629 -0.501387 7.223150
v -0.012424 -0.497816 7.219910
v -0.010115 -0.499821 7.224375
v -0.013145 -0.500448 7.215732
v -0.013145 -0.500448 7.215732
v -0.013145 -0.499613 7.218455
v -0.010328 -0.500716 7.221272
v -0.011267 -0.497631 7.219582
v -0.009573 -0.494815 7.220333
v -0.009880 -0.501681 7.221668
v -0.009714 -0.501336 7.224401
v -0.016704 -0.498712 7.215476
v -0.005949 -0.502906 7.227591
v -0.015962 -0.500997 7.213760
v -0.007522 -0.503229 7.227762
v -0.009957 -0.501033 7.221736
v -0.013145 -0.500448 7.215732
v -0.007323 -0.489061 7.224909
v -0.008106 -0.489844 7.227774
v -0.007193 -0.488883 7.227042
v -0.007511 -0.489181 7.228079
v -0.008440 -0.488920 7.225703
v -0.008020 -0.488923 7.226252
v -0.007634 -0.489222 7.226211
v -0.008692 -0.490120 7.225966
v -0.008366 -0.490216 7.228786
v -0.007597 -0.488896 7.227291
v -0.008692 -0.490120 7.225966
v -0.007654 -0.491228 7.224792
v -0.006765 -0.489181 7.226905
v -0.006759 -0.489776 7.228619
v -0.007511 -0.502326 7.228501
v -0.009389 -0.501101 7.224089
v -0.010585 -0.502345 7.222727
v -0.010585 -0.502345 7.222727
v -0.007540 -0.502835 7.228042
v -0.009389 -0.499617 7.221521
v -0.005512 -0.501258 7.227318
v -0.006881 -0.503487 7.227389
v -0.009389 -0.501101 7.224089
v -0.006492 -0.502326 7.227844
v -0.007333 -0.502661 7.228118
vn -0.7482 0.6261 0.2195
vn -0.4444 0.6392 0.6276
vn -0.1605 0.8077 -0.5673
vn 0.0875 0.9954 0.0395
vn -0.5864 -0.7513 0.3027
vn -0.2501 -0.6597 -0.7086
vn -0.3318 -0.9073 0.2582
vn -0.4359 0.7822 0.4451
vn 0.7158 0.1155 -0.6887
vn 0.6202 0.0652 -0.7817
vn 0.2241 -0.9170 -0.3301
vn -0.2809 -0.9259 0.2526
vn -0.0359 -0.9980 0.0527
vn -0.3778 -0.8234 0.4235
vn 0.0211 -0.9989 -0.0424
vn -0.4212 -0.0596 0.9050
vn -0.4375 -0.7647 0.4731
vn 0.3516 0.9005 -0.2557
vn 0.6977 0.0237 -0.7160
vn -0.1471 -0.9885 0.0350
vn -0.2333 -0.9712 0.0476
vn -0.0641 -0.9900 -0.1253
vn 0.2650 0.9642 -0.0082
vn -0.4399 -0.2210 0.8704
vn 0.6177 0.5204 -0.5896
vn 0.6478 -0.2899 -0.7045
vn 0.6477 -0.2899 -0.7046
vn 0.7054 -0.2394 -0.6671
vn -0.2297 -0.9728 0.0308
vn -0.4981 -0.7570 0.4230
vn -0.5470 -0.7212 0.4251
vn -0.5282 -0.7585 0.3817
vn -0.7167 -0.2175 0.6626
vn -0.2400 0.7698 0.5914
vn 0.5853 -0.3383 -0.7369
vn -0.9898 0.1322 0.0540
vn -0.9009 0.4163 0.1227
vn -0.8998 0.3837 0.2076
vn -0.9188 -0.1895 0.3463
vn -0.8310 -0.0331 0.5553
vn -0.8667 -0.1300 0.4817
vn 0.0146 -0.7010 0.7130
vn 0.2610 -0.7937 0.5494
vn 0.8984 -0.4177 0.1357
vn -0.3376 -0.5581 0.7580
vn -0.6979 0.6850 -0.2089
vn 0.2649 0.6456 -0.7163
vn 0.2415 0.6090 -0.7555
vn 0.2306 0.6185 -0.7512
vn 0.8927 -0.4367 0.1117
vn 0.8990 -0.4027 0.1723
vn 0.8783 -0.4706 0.0849
vn 0.1836 0.9479 0.2602
vn 0.1381 0.2995 0.9440
vn 0.1801 0.5773 0.7964
vn 0.5572 0.7933 -0.2453
vn 0.0045 -0.4971 0.8677
vn 0.8134 -0.4754 -0.3352
vn 0.8389 -0.4427 -0.3167
vn 0.8202 -0.4654 -0.3327
vn 0.1536 -0.6672 0.7289
vn 0.1740 -0.9507 -0.2567
vn 0.1132 -0.9481 -0.2971
vn 0.1704 -0.9503 -0.2606
vn -0.9984 0.0551 0.0126
vn 0.9116 -0.3979 0.1036
vn -0.9772 -0.2056 0.0535
vn 0.9478 -0.2994 -0.1095
vn 0.9435 -0.2980 -0.1452
vn 0.9610 -0.2493 -0.1195
vn -0.8387 0.3145 0.4446
s 1
f 1//1 4//2 2//3
f 5//4 2//3 4//2
f 6//5 3//6 7//7
f 3//6 1//1 2//3
f 5//4 4//2 9//8
f 10//9 2//3 5//4
f 2//3 10//9 11//10
f 3//6 2//3 11//10
f 12//11 3//6 11//10
f 3//6 13//12 7//7
f 3//6 12//11 13//12
f 14//13 8//14 15//15
f 16//16 5//4 9//8
f 4//17 8//14 14//13
f 11//10 17//18 12//11
f 18//19 11//10 10//9
f 19//20 13//12 12//11
f 19//20 20//21 13//12
f 21//22 14//13 15//15
f 11//10 22//23 17//18
f 9//8 23//24 16//16
f 24//25 25//25 26//25
f 27//26 28//27 29//28
f 20//21 19//20 30//29
f 31//30 32//31 33//32
f 34//33 35//33 36//33
f 37//34 38//34 39//34
f 27//26 40//35 28//27
f 47//36 48//37 49//38
f 50//39 51//40 52//41
f 53//42 54//43 55//44
f 56//45 57//45 58//45
f 48//37 47//36 61//46
f 59//47 62//48 60//49
f 63//50 81//51 82//52
f 64//53 44//54 43//55
f 68//56 69//56 70//56
f 43//55 44//54 71//57
f 72//58 42//59 41//60
f 67//61 54//43 53//42
f 77//62 76//63 78//64
f 85//65 61//46 47//36
f 55//44 54//43 86//66
f 50//39 52//41 89//67
f 92//68 93//69 94//70
f 95//71 96//71 97//71
l 87 88
l 102 103
l 83 84
l 100 101
l 79 80
l 65 66
l 75 76
l 73 74
l 90 91
l 98 99
l 104 105
l 45 46
