# Blender v2.78 (sub 0) OBJ File: 'exporter.blend'
# www.blender.org
o FJ1669M.obj_grp1.529
v 0.273253 -0.524313 7.341884
v 0.273087 -0.528686 7.342219
v 0.273425 -0.529293 7.345331
v 0.272969 -0.534313 7.348182
v 0.270380 -0.514439 7.337621
v 0.270819 -0.516529 7.336581
v 0.270291 -0.517687 7.335882
v 0.269716 -0.514791 7.340109
v 0.272153 -0.519288 7.339166
v 0.272477 -0.521449 7.342014
v 0.272458 -0.523567 7.339238
v 0.271115 -0.525828 7.338908
v 0.270064 -0.531503 7.342085
v 0.272712 -0.532527 7.344100
v 0.270182 -0.522860 7.344365
v 0.270958 -0.530561 7.348660
v 0.267466 -0.516755 7.341669
v 0.271800 -0.534806 7.350911
v 0.268948 -0.530175 7.348215
v 0.272366 -0.537201 7.349082
v 0.270954 -0.536949 7.346473
v 0.268009 -0.534179 7.351088
v 0.270126 -0.542595 7.353374
v 0.268160 -0.540010 7.349448
v 0.269596 -0.538381 7.355693
v 0.269412 -0.544551 7.361190
v 0.268309 -0.548104 7.364801
v 0.268231 -0.544480 7.364376
v 0.267840 -0.510431 7.335737
v 0.267160 -0.511812 7.333602
v 0.264874 -0.508307 7.333052
v 0.264282 -0.506702 7.334630
v 0.265092 -0.507647 7.336549
v 0.262962 -0.508602 7.331583
v 0.268582 -0.516985 7.334721
v 0.266624 -0.517498 7.334857
v 0.260994 -0.509647 7.331216
v 0.265440 -0.518076 7.336069
v 0.268092 -0.511169 7.337953
v 0.266115 -0.510206 7.338709
v 0.267626 -0.525762 7.339999
v 0.265408 -0.519713 7.338891
v 0.261608 -0.506714 7.337631
v 0.261549 -0.509093 7.338406
v 0.268555 -0.524184 7.344513
v 0.265981 -0.518396 7.341032
v 0.267590 -0.524953 7.343857
v 0.267339 -0.527254 7.342239
v 0.263475 -0.515293 7.338511
v 0.267068 -0.525706 7.342672
v 0.267134 -0.534943 7.347281
v 0.267462 -0.531779 7.347475
v 0.266286 -0.541767 7.352765
v 0.268265 -0.537483 7.354972
v 0.266495 -0.537301 7.352743
v 0.265998 -0.542489 7.361942
v 0.268949 -0.542967 7.352944
v 0.264129 -0.544145 7.361086
v 0.266626 -0.545845 7.357378
v 0.264687 -0.546065 7.359640
v 0.267703 -0.542443 7.361802
v 0.266735 -0.548796 7.363319
v 0.265124 -0.546022 7.370657
v 0.268536 -0.547656 7.368384
v 0.266224 -0.546592 7.373143
v 0.266472 -0.551061 7.370728
v 0.267464 -0.547657 7.375096
v 0.268161 -0.550523 7.379242
v 0.267174 -0.552102 7.379306
v 0.265096 -0.551823 7.375228
v 0.267392 -0.550148 7.387157
v 0.265583 -0.548040 7.380941
v 0.267518 -0.551794 7.383730
v 0.265623 -0.552978 7.386293
v 0.266437 -0.552098 7.389790
v 0.265176 -0.548733 7.390646
v 0.264300 -0.550037 7.397286
v 0.264982 -0.551597 7.395405
v 0.262293 -0.505680 7.332822
v 0.258048 -0.505640 7.330244
v 0.259322 -0.503526 7.333991
v 0.262356 -0.512687 7.333005
v 0.262567 -0.514595 7.335539
v 0.262903 -0.512401 7.338890
v 0.259917 -0.511610 7.336683
v 0.260695 -0.512733 7.335938
v 0.263633 -0.546305 7.364105
v 0.264378 -0.545005 7.365866
v 0.264324 -0.549881 7.368176
v 0.263679 -0.548780 7.367819
v 0.263992 -0.548193 7.375651
v 0.263267 -0.551111 7.384926
v 0.263895 -0.549032 7.384877
v 0.262912 -0.549255 7.390165
v 0.261940 -0.551961 7.393135
v 0.262794 -0.552635 7.396853
v 0.260907 -0.549248 7.403833
v 0.260888 -0.548630 7.400842
v 0.260582 -0.549160 7.397743
v 0.254807 -0.551328 7.416149
v 0.256200 -0.502824 7.331379
v 0.258967 -0.503916 7.335547
v 0.258583 -0.510682 7.332317
v 0.257226 -0.510556 7.333567
v 0.252201 -0.502120 7.334974
v 0.256838 -0.508600 7.336828
v 0.258234 -0.551956 7.403818
v 0.257495 -0.550812 7.403514
v 0.256739 -0.552106 7.410275
v 0.255720 -0.548796 7.410003
v 0.252130 -0.503480 7.329237
v 0.248442 -0.505217 7.328500
v 0.252044 -0.507669 7.330020
v 0.253177 -0.509243 7.332751
v 0.252459 -0.501364 7.333016
v 0.255286 -0.509365 7.335097
v 0.243588 -0.502199 7.335099
v 0.251180 -0.505383 7.336339
v 0.252638 -0.550421 7.413355
v 0.253214 -0.549738 7.417370
v 0.252345 -0.551133 7.420761
v 0.250233 -0.552700 7.419460
v 0.251898 -0.549859 7.416839
v 0.252311 -0.553069 7.419180
v 0.246170 -0.502254 7.328579
v 0.246835 -0.500667 7.330889
v 0.248703 -0.508372 7.332783
v 0.246342 -0.507757 7.333718
v 0.250729 -0.553433 7.420356
v 0.248027 -0.553698 7.429856
v 0.241075 -0.507791 7.330810
v 0.241977 -0.500486 7.333347
v 0.242299 -0.505678 7.335257
v 0.244357 -0.553869 7.432914
v 0.245088 -0.553948 7.430097
v 0.245735 -0.556140 7.431683
v 0.246203 -0.554719 7.427998
v 0.246271 -0.554704 7.427835
v 0.247754 -0.554931 7.430091
v 0.245102 -0.556113 7.433609
v 0.245031 -0.555599 7.434213
v 0.240143 -0.501268 7.328898
v 0.238491 -0.500141 7.330956
v 0.235395 -0.504381 7.335488
v 0.245571 -0.555680 7.430089
v 0.245571 -0.555680 7.430089
v 0.240903 -0.556410 7.435861
v 0.242400 -0.555034 7.433610
v 0.242340 -0.554789 7.436687
v 0.242004 -0.555496 7.437196
v 0.236725 -0.503598 7.327609
v 0.234416 -0.507159 7.328734
v 0.239895 -0.507725 7.333004
v 0.234564 -0.506192 7.335104
v 0.241537 -0.554277 7.436355
v 0.241489 -0.556472 7.436616
v 0.240488 -0.555577 7.435641
v 0.240441 -0.555011 7.435977
v 0.241155 -0.555303 7.437179
v 0.240669 -0.556031 7.436435
v 0.230331 -0.505639 7.327881
v 0.232993 -0.501471 7.328986
v 0.229417 -0.501007 7.330705
v 0.223822 -0.509172 7.330617
v 0.230248 -0.508880 7.332253
v 0.228935 -0.501917 7.334776
v 0.226796 -0.503812 7.328424
v 0.228553 -0.503107 7.335775
v 0.222862 -0.501851 7.333880
v 0.230073 -0.507923 7.334567
v 0.228308 -0.505489 7.336454
v 0.225521 -0.502261 7.329939
v 0.222969 -0.509950 7.332223
v 0.224191 -0.509558 7.335714
v 0.222129 -0.507238 7.329739
v 0.222018 -0.503712 7.330400
v 0.223893 -0.510065 7.334345
v 0.223867 -0.503670 7.337067
v 0.223969 -0.507867 7.337263
v 0.223952 -0.505913 7.337665
v 0.221748 -0.506121 7.329796
v 0.221028 -0.503140 7.332045
v 0.220782 -0.505074 7.330739
v 0.220328 -0.507729 7.332107
v 0.222601 -0.502538 7.335626
v 0.222148 -0.504069 7.336783
v 0.221005 -0.502873 7.333464
v 0.220522 -0.503958 7.334910
v 0.219685 -0.505536 7.333487
v 0.221344 -0.509168 7.334320
v 0.221173 -0.507560 7.336225
v 0.220273 -0.507804 7.334282
v 0.221163 -0.505809 7.336709
vn 0.9930 0.1172 -0.0162
vn 0.9700 0.1048 0.2195
vn 0.8697 -0.2332 -0.4350
vn 0.7563 -0.4284 -0.4945
vn 0.9870 -0.0725 0.1432
vn 0.8364 0.3564 0.4164
vn 0.9668 0.2297 -0.1122
vn 0.8918 0.4505 -0.0406
vn 0.8566 0.2024 -0.4746
vn 0.8214 -0.1186 -0.5579
vn 0.6657 -0.0947 -0.7402
vn 0.3350 -0.4117 -0.8475
vn 0.3186 -0.2572 -0.9123
vn 0.5947 0.5255 0.6085
vn -0.0869 -0.5764 -0.8126
vn -0.3175 0.4216 0.8494
vn -0.0109 0.5529 0.8331
vn 0.7360 0.3565 0.5755
vn -0.4656 0.5203 0.7159
vn 0.8949 -0.4196 -0.1518
vn 0.3536 -0.6601 -0.6627
vn 0.6763 -0.6760 -0.2926
vn 0.1354 -0.8218 -0.5535
vn -0.3531 -0.6322 -0.6896
vn 0.3848 0.6561 0.6492
vn 0.9598 0.0697 0.2720
vn 0.8017 -0.5869 -0.1133
vn 0.6871 0.6311 0.3600
vn 0.8136 0.5530 -0.1794
vn 0.6233 0.1552 -0.7664
vn 0.6545 0.4535 -0.6049
vn 0.6349 0.7660 -0.1008
vn 0.5565 0.7506 0.3562
vn -0.1935 -0.5217 -0.8309
vn 0.0756 -0.3148 -0.9462
vn 0.6925 0.6292 0.3529
vn 0.3450 0.5622 0.7516
vn -0.5948 -0.6093 -0.5244
vn -0.7516 -0.4273 -0.5025
vn -0.9336 -0.3495 0.0793
vn 0.1566 0.5899 0.7921
vn -0.1592 0.3091 0.9376
vn -0.2358 0.1309 0.9630
vn -0.5062 0.3124 0.8038
vn -0.7514 -0.0010 0.6598
vn -0.8389 0.1610 0.5200
vn -0.8503 -0.3515 0.3917
vn -0.9779 -0.0616 0.1996
vn -0.9794 -0.1313 -0.1533
vn -0.9474 -0.1435 -0.2862
vn -0.9190 0.2340 0.3174
vn -0.7269 -0.4678 -0.5027
vn -0.5112 0.6250 0.5900
vn -0.2283 0.7515 0.6190
vn -0.7909 0.5436 0.2810
vn -0.3989 0.8283 0.3935
vn -0.9589 0.2836 -0.0016
vn -0.1811 -0.8406 -0.5105
vn -0.7698 -0.5244 -0.3638
vn 0.1652 0.8097 0.5631
vn 0.0870 -0.9237 -0.3730
vn -0.2708 0.9217 0.2778
vn 0.9955 0.0227 0.0919
vn 0.2167 0.9473 0.2358
vn 0.2593 -0.9437 -0.2056
vn 0.6661 0.7195 0.1963
vn 0.9765 -0.2130 0.0317
vn 0.5026 -0.8606 -0.0826
vn 0.9516 0.2434 0.1875
vn -0.1787 0.9762 0.1226
vn 0.8472 -0.5263 0.0726
vn 0.1166 -0.9931 0.0110
vn -0.3684 -0.9226 -0.1143
vn 0.7673 -0.6063 0.2087
vn 0.3028 0.9482 0.0965
vn 0.8374 -0.4405 0.3236
vn 0.8656 0.3647 0.3430
vn 0.4029 0.1244 -0.9067
vn 0.5474 0.6872 -0.4776
vn 0.3220 0.2676 -0.9081
vn 0.4143 0.9101 0.0083
vn -0.3721 -0.6401 -0.6722
vn -0.6927 -0.6893 -0.2123
vn -0.7148 -0.6904 0.1113
vn -0.6361 -0.6238 0.4542
vn -0.6351 -0.1895 0.7488
vn -0.9969 0.0220 -0.0755
vn -0.8012 0.5622 0.2049
vn -0.5547 -0.7977 -0.2363
vn -0.9556 -0.2830 -0.0826
vn -0.8136 0.5707 0.1116
vn -0.9910 0.0669 -0.1158
vn -0.7232 0.6903 0.0218
vn -0.7970 -0.5696 -0.2009
vn -0.7234 0.6727 -0.1556
vn 0.1320 -0.9844 0.1162
vn 0.7234 0.5804 0.3740
vn 0.0958 0.9952 0.0194
vn -0.5394 0.8008 -0.2604
vn 0.8817 -0.2310 0.4115
vn 0.3415 0.8056 -0.4842
vn -0.2510 -0.7872 -0.5634
vn -0.3854 -0.9222 -0.0322
vn 0.2546 0.8187 0.5147
vn 0.0963 0.7843 0.6129
vn -0.4014 -0.4872 0.7756
vn -0.5320 -0.8207 -0.2084
vn -0.8951 -0.2285 -0.3829
vn 0.3357 -0.9224 0.1913
vn -0.1960 0.9805 -0.0152
vn 0.2211 0.4185 -0.8809
vn -0.0344 -0.7329 -0.6795
vn 0.0770 -0.1733 -0.9819
vn -0.2150 -0.9690 -0.1218
vn 0.1946 0.9790 0.0608
vn -0.3044 -0.8566 0.4166
vn -0.0413 0.5134 0.8572
vn -0.3001 -0.4218 0.8556
vn -0.9003 0.2597 -0.3493
vn 0.3121 0.8937 0.3223
vn 0.7269 0.4391 0.5280
vn -0.6646 -0.5939 -0.4533
vn -0.5258 0.8491 -0.0510
vn 0.4701 -0.8798 0.0699
vn 0.1125 0.5112 -0.8521
vn 0.1238 0.9531 -0.2763
vn -0.1202 -0.9924 -0.0255
vn -0.1177 -0.8340 0.5391
vn -0.2475 -0.9117 -0.3280
vn 0.6984 0.4397 0.5647
vn -0.0518 -0.9914 -0.1203
vn 0.0150 0.9124 0.4090
vn -0.2318 0.9695 0.0794
vn -0.8016 0.4419 -0.4027
vn 0.2434 -0.9699 -0.0008
vn -0.7599 -0.4127 -0.5023
vn -0.8806 -0.2105 -0.4245
vn 0.7786 -0.5104 0.3651
vn 0.5421 -0.7639 0.3502
vn 0.7342 -0.1168 0.6689
vn 0.0171 0.7106 -0.7033
vn -0.0308 0.9872 -0.1562
vn 0.0368 -0.0796 0.9961
vn -0.0669 -0.5804 0.8116
vn -0.5158 -0.6892 -0.5089
vn -0.1495 -0.9470 -0.2843
vn -0.6052 -0.7785 -0.1662
vn -0.7598 0.3896 -0.5205
vn 0.4363 0.5383 0.7210
vn 0.3144 -0.0622 0.9472
vn 0.0017 0.1505 -0.9886
vn 0.0523 -0.6767 -0.7344
vn 0.0587 -0.9580 0.2806
vn 0.1041 -0.4336 0.8951
vn -0.1902 0.9245 0.3303
vn -0.0387 -0.8361 0.5472
vn -0.9129 -0.1239 -0.3889
vn -0.8753 0.4831 0.0208
vn -0.4062 0.2042 0.8907
vn -0.8205 -0.4085 0.3998
vn -0.0738 -0.2182 -0.9731
vn -0.0915 0.7062 -0.7021
vn -0.1406 0.9583 -0.2488
vn -0.1539 -0.7686 -0.6209
vn 0.1690 -0.9792 0.1126
vn -0.0107 0.7846 0.6199
vn -0.2182 0.2731 -0.9369
vn 0.0976 0.4212 0.9017
vn -0.3259 0.9417 0.0841
vn 0.1849 -0.7518 0.6330
vn 0.2453 -0.1085 0.9634
vn -0.2737 0.7615 -0.5876
vn -0.2760 -0.9219 -0.2720
vn -0.0070 -0.8232 0.5677
vn -0.4685 0.5140 -0.7186
vn -0.4689 -0.3752 -0.7996
vn -0.0480 -0.9804 0.1911
vn -0.0359 0.4934 0.8690
vn -0.0368 -0.4862 0.8731
vn -0.0384 0.0150 0.9991
vn -0.5587 -0.0094 -0.8293
vn -0.6913 0.6465 -0.3227
vn -0.7846 0.1572 -0.5997
vn -0.8285 -0.4472 -0.3369
vn -0.3295 0.7834 0.5269
vn -0.6963 0.7166 0.0410
vn -0.8174 0.4537 0.3549
vn -0.4380 0.4061 0.8020
vn -0.9969 0.0779 0.0088
vn -0.5883 -0.7773 0.2231
vn -0.8977 -0.3772 0.2279
vn -0.6214 -0.4163 0.6637
vn -0.6828 0.0162 0.7305
s 1
f 1//1 3//2 2//3
f 2//3 3//2 14//4
f 14//4 3//2 4//5
f 10//6 9//7 5//8
f 5//8 9//7 6//9
f 6//9 9//7 11//10
f 7//11 6//9 11//10
f 7//11 11//10 12//12
f 35//13 7//11 12//12
f 5//8 8//14 10//6
f 9//7 1//1 11//10
f 10//6 1//1 9//7
f 11//10 2//3 12//12
f 2//3 11//10 1//1
f 10//6 3//2 1//1
f 12//12 2//3 14//4
f 14//4 13//15 12//12
f 15//16 16//17 8//14
f 10//6 18//18 3//2
f 18//18 10//6 8//14
f 8//14 16//17 18//18
f 19//19 16//17 15//16
f 14//4 4//5 20//20
f 21//21 13//15 14//4
f 21//21 14//4 20//20
f 20//20 23//22 21//21
f 57//23 24//24 21//21
f 23//22 57//23 21//21
f 16//17 25//25 18//18
f 18//18 4//5 3//2
f 4//5 26//26 20//20
f 26//26 4//5 18//18
f 23//22 20//20 27//27
f 20//20 26//26 27//27
f 25//25 26//26 18//18
f 25//25 28//28 26//26
f 29//29 6//9 30//30
f 31//31 29//29 30//30
f 32//32 29//29 31//31
f 32//32 33//33 29//29
f 7//11 30//30 6//9
f 35//13 36//34 37//35
f 30//30 7//11 35//13
f 36//34 35//13 12//12
f 29//29 39//36 5//8
f 29//29 33//33 39//36
f 39//36 33//33 40//37
f 5//8 6//9 29//29
f 8//14 5//8 39//36
f 8//14 39//36 40//37
f 38//38 36//34 41//39
f 41//39 42//40 38//38
f 12//12 13//15 36//34
f 41//39 36//34 13//15
f 40//37 43//41 17//42
f 43//41 44//43 17//42
f 17//42 15//16 8//14
f 17//42 8//14 40//37
f 45//44 17//42 46//45
f 45//44 46//45 47//46
f 49//47 42//40 46//45
f 42//40 47//46 46//45
f 41//39 13//15 24//24
f 50//48 47//46 42//40
f 41//39 48//49 42//40
f 48//49 50//48 42//40
f 51//50 41//39 24//24
f 48//49 41//39 51//50
f 45//44 15//16 17//42
f 45//44 19//19 15//16
f 19//19 45//44 47//46
f 47//46 52//51 19//19
f 50//48 52//51 47//46
f 50//48 48//49 52//51
f 53//52 51//50 24//24
f 24//24 13//15 21//21
f 19//19 22//53 16//17
f 22//53 19//19 52//51
f 51//50 52//51 48//49
f 25//25 16//17 54//54
f 54//54 16//17 22//53
f 55//55 22//53 52//51
f 52//51 51//50 55//55
f 54//54 22//53 55//55
f 55//55 56//56 54//54
f 58//57 56//56 55//55
f 24//24 57//23 59//58
f 53//52 24//24 59//58
f 53//52 59//58 60//59
f 54//54 61//60 25//25
f 61//60 28//28 25//25
f 61//60 54//54 56//56
f 23//22 62//61 57//23
f 59//58 57//23 62//61
f 59//58 62//61 60//59
f 28//28 61//60 63//62
f 61//60 56//56 63//62
f 27//27 26//26 64//63
f 27//27 62//61 23//22
f 26//26 28//28 64//63
f 63//62 65//64 28//28
f 27//27 66//65 62//61
f 67//66 64//63 28//28
f 28//28 65//64 67//66
f 27//27 64//63 68//67
f 69//68 66//65 27//27
f 68//67 69//68 27//27
f 64//63 67//66 71//69
f 65//64 72//70 67//66
f 73//71 69//68 68//67
f 66//65 69//68 74//72
f 70//73 66//65 74//72
f 68//67 64//63 71//69
f 68//67 71//69 73//71
f 71//69 75//74 73//71
f 69//68 73//71 74//72
f 73//71 75//74 74//72
f 71//69 67//66 76//75
f 75//74 71//69 78//76
f 71//69 77//77 78//76
f 77//77 71//69 76//75
f 31//31 34//78 79//79
f 79//79 34//78 80//80
f 32//32 79//79 81//81
f 31//31 30//30 34//78
f 79//79 32//32 31//31
f 34//78 30//30 35//13
f 34//78 35//13 37//35
f 82//82 36//34 38//38
f 37//35 36//34 82//82
f 83//83 82//82 38//38
f 32//32 81//81 33//33
f 43//41 40//37 33//33
f 42//40 49//47 83//83
f 49//47 86//84 83//83
f 85//85 86//84 49//47
f 46//45 84//86 49//47
f 38//38 42//40 83//83
f 84//86 17//42 44//43
f 46//45 17//42 84//86
f 55//55 51//50 58//57
f 53//52 60//59 51//50
f 51//50 60//59 58//57
f 60//59 87//87 58//57
f 56//56 88//88 63//62
f 88//88 56//56 58//57
f 87//87 88//88 58//57
f 62//61 66//65 89//89
f 60//59 62//61 89//89
f 90//90 87//87 60//59
f 89//89 90//90 60//59
f 63//62 88//88 91//91
f 91//91 88//88 87//87
f 89//89 66//65 70//73
f 90//90 89//89 92//92
f 63//62 72//70 65//64
f 63//62 91//91 72//70
f 87//87 90//90 91//91
f 89//89 70//73 92//92
f 93//93 91//91 90//90
f 90//90 92//92 93//93
f 72//70 91//91 93//93
f 72//70 76//75 67//66
f 93//93 76//75 72//70
f 70//73 74//72 95//94
f 70//73 95//94 92//92
f 92//92 94//95 93//93
f 92//92 95//94 94//95
f 94//95 76//75 93//93
f 74//72 75//74 96//96
f 77//77 76//75 97//97
f 76//75 98//98 97//97
f 94//95 98//98 76//75
f 98//98 94//95 99//99
f 96//96 75//74 78//76
f 78//76 77//77 100//100
f 80//80 34//78 37//35
f 80//80 101//101 79//79
f 81//81 79//79 101//101
f 103//102 37//35 82//82
f 86//84 104//103 103//102
f 104//103 86//84 85//85
f 83//83 103//102 82//82
f 103//102 83//83 86//84
f 81//81 102//104 33//33
f 33//33 102//104 43//41
f 43//41 102//104 105//105
f 84//86 106//106 85//85
f 106//106 84//86 44//43
f 84//86 85//85 49//47
f 96//96 95//94 74//72
f 95//94 96//96 107//107
f 108//108 94//95 95//94
f 94//95 108//108 99//99
f 78//76 109//109 96//96
f 78//76 100//100 109//109
f 107//107 108//108 95//94
f 99//99 110//110 98//98
f 110//110 97//97 98//98
f 97//97 100//100 77//77
f 101//101 80//80 111//111
f 37//35 113//112 112//113
f 113//112 37//35 103//102
f 103//102 114//114 113//112
f 115//115 102//104 81//81
f 101//101 115//115 81//81
f 114//114 103//102 104//103
f 104//103 85//85 116//116
f 114//114 104//103 116//116
f 105//105 117//117 43//41
f 117//117 44//43 43//41
f 118//118 44//43 117//117
f 118//118 106//106 44//43
f 116//116 85//85 106//106
f 119//119 99//99 108//108
f 99//99 119//119 110//110
f 107//107 96//96 109//109
f 120//120 97//97 110//110
f 120//120 121//121 97//97
f 121//121 100//100 97//97
f 107//107 109//109 122//122
f 123//123 120//120 110//110
f 109//109 100//100 124//124
f 111//111 125//125 101//101
f 125//125 126//126 101//101
f 126//126 115//115 101//101
f 112//113 111//111 80//80
f 112//113 80//80 37//35
f 114//114 127//127 113//112
f 115//115 105//105 102//104
f 128//128 116//116 106//106
f 127//127 114//114 116//116
f 128//128 106//106 118//118
f 122//122 109//109 129//129
f 129//129 109//109 124//124
f 123//123 110//110 119//119
f 108//108 107//107 122//122
f 119//119 108//108 122//122
f 121//121 130//130 100//100
f 111//111 112//113 125//125
f 131//131 113//112 127//127
f 128//128 131//131 127//127
f 105//105 115//115 132//132
f 117//117 105//105 132//132
f 128//128 127//127 116//116
f 134//133 123//123 135//134
f 119//119 135//134 123//123
f 134//133 120//120 123//123
f 136//135 129//129 124//124
f 137//136 122//122 129//129
f 138//137 119//119 122//122
f 138//137 135//134 119//119
f 130//130 121//121 120//120
f 100//100 130//130 139//138
f 124//124 139//138 136//135
f 100//100 139//138 124//124
f 140//139 136//135 139//138
f 140//139 139//138 141//140
f 125//125 142//141 126//126
f 143//142 132//132 126//126
f 144//143 118//118 117//117
f 118//118 144//143 133//144
f 115//115 126//126 132//132
f 133//144 128//128 118//118
f 135//134 138//137 137//136
f 129//129 145//145 137//136
f 129//129 136//135 146//146
f 130//130 141//140 139//138
f 134//133 130//130 120//120
f 136//135 147//147 146//146
f 137//136 145//145 147//147
f 137//136 148//148 135//134
f 148//148 134//133 135//134
f 149//149 141//140 130//130
f 149//149 150//150 141//140
f 130//130 134//133 149//149
f 151//151 125//125 112//113
f 126//126 142//141 143//142
f 151//151 142//141 125//125
f 152//152 112//113 113//112
f 153//153 131//131 128//128
f 154//154 128//128 133//144
f 144//143 154//154 133//144
f 147//147 148//148 137//136
f 134//133 155//155 149//149
f 147//147 136//135 156//156
f 156//156 136//135 140//139
f 141//140 150//150 140//139
f 157//157 148//148 147//147
f 148//148 158//158 134//133
f 150//150 149//149 155//155
f 140//139 150//150 156//156
f 134//133 158//158 155//155
f 159//159 150//150 155//155
f 159//159 156//156 150//150
f 155//155 158//158 159//159
f 160//160 147//147 156//156
f 156//156 159//159 160//160
f 157//157 158//158 148//148
f 157//157 160//160 158//158
f 147//147 160//160 157//157
f 160//160 159//159 158//158
f 151//151 112//113 161//161
f 112//113 152//152 161//161
f 162//162 142//141 151//151
f 162//162 143//142 142//141
f 163//163 143//142 162//162
f 131//131 152//152 113//112
f 164//164 152//152 131//131
f 165//165 164//164 131//131
f 117//117 132//132 166//166
f 128//128 154//154 153//153
f 153//153 165//165 131//131
f 162//162 151//151 167//167
f 168//168 144//143 117//117
f 117//117 166//166 168//168
f 143//142 169//169 132//132
f 166//166 132//132 169//169
f 170//170 153//153 154//154
f 171//171 144//143 168//168
f 170//170 165//165 153//153
f 167//167 151//151 161//161
f 163//163 162//162 172//172
f 164//164 161//161 152//152
f 173//173 164//164 165//165
f 169//169 143//142 163//163
f 171//171 154//154 144//143
f 154//154 171//171 170//170
f 174//174 165//165 170//170
f 167//167 172//172 162//162
f 172//172 167//167 176//175
f 175//176 161//161 164//164
f 167//167 161//161 175//176
f 174//174 177//177 165//165
f 165//165 177//177 173//173
f 166//166 178//178 168//168
f 170//170 171//171 179//179
f 171//171 180//180 179//179
f 168//168 178//178 171//171
f 178//178 180//180 171//171
f 170//170 179//179 174//174
f 176//175 167//167 181//181
f 182//182 172//172 176//175
f 172//172 182//182 169//169
f 176//175 183//183 182//182
f 181//181 167//167 175//176
f 181//181 183//183 176//175
f 181//181 175//176 184//184
f 184//184 183//183 181//181
f 164//164 173//173 175//176
f 173//173 184//184 175//176
f 185//185 166//166 169//169
f 169//169 163//163 172//172
f 187//186 169//169 182//182
f 169//169 187//186 185//185
f 185//185 188//187 186//188
f 182//182 189//189 187//186
f 187//186 188//187 185//185
f 190//190 173//173 177//177
f 190//190 177//177 174//174
f 184//184 173//173 190//190
f 192//191 190//190 191//192
f 185//185 178//178 166//166
f 186//188 178//178 185//185
f 188//187 193//193 186//188
f 179//179 180//180 193//193
f 180//180 178//178 186//188
f 179//179 193//193 191//192
f 186//188 193//193 180//180
f 191//192 174//174 179//179
f 190//190 174//174 191//192
f 189//189 183//183 184//184
f 183//183 189//189 182//182
f 188//187 187//186 189//189
f 191//192 189//189 192//191
f 184//184 192//191 189//189
f 189//189 191//192 193//193
f 193//193 188//187 189//189
f 184//184 190//190 192//191
