# Blender v2.78 (sub 0) OBJ File: 'exporter.blend'
# www.blender.org
o FJ1726.obj_grp1.641
v -0.095344 -0.391547 7.159925
v -0.086608 -0.407942 7.154199
v -0.095424 -0.391998 7.160001
v -0.099348 -0.370690 7.160002
v -0.098770 -0.367353 7.167003
v -0.100220 -0.351635 7.161077
v -0.098384 -0.351492 7.166136
v -0.094762 -0.350667 7.159330
v -0.096511 -0.348870 7.164030
v -0.086505 -0.413798 7.161893
v -0.088299 -0.411162 7.156580
v -0.084000 -0.408218 7.162701
v -0.086153 -0.402043 7.154142
v -0.093188 -0.368587 7.160288
v -0.091756 -0.374651 7.164832
v -0.095932 -0.366030 7.167775
v -0.092242 -0.352331 7.162144
v -0.093701 -0.351798 7.165855
v -0.083124 -0.424818 7.160946
v -0.082584 -0.421501 7.156179
v -0.086322 -0.408331 7.154420
v -0.067590 -0.441842 7.170405
v -0.081337 -0.407826 7.158766
v -0.078319 -0.433652 7.162889
v -0.073138 -0.439775 7.167285
v -0.068507 -0.445371 7.164000
v -0.078384 -0.433454 7.162824
v -0.080015 -0.428834 7.164561
v -0.080015 -0.428834 7.164561
v -0.071855 -0.427434 7.164386
v -0.072054 -0.428483 7.160148
v -0.058658 -0.452139 7.170212
v -0.047366 -0.456321 7.164741
v -0.060479 -0.443767 7.163462
v -0.072054 -0.428483 7.160148
v -0.057826 -0.442690 7.166210
v -0.059026 -0.442302 7.169169
v -0.053849 -0.450485 7.172481
v -0.045885 -0.451482 7.163612
v -0.058818 -0.442398 7.169255
v -0.050442 -0.446583 7.167471
v -0.039317 -0.454182 7.171831
v -0.040963 -0.458223 7.169605
v -0.050442 -0.446583 7.167471
v -0.038983 -0.450110 7.164702
v -0.037822 -0.449745 7.167075
v -0.021588 -0.457439 7.162492
v -0.024379 -0.456327 7.158504
v -0.024379 -0.456327 7.158504
v -0.026304 -0.450289 7.160052
v -0.029073 -0.450026 7.165640
v -0.029073 -0.450026 7.165640
v -0.007092 -0.447625 7.148081
v -0.003164 -0.452744 7.150233
v -0.007430 -0.446941 7.147677
v -0.006887 -0.451456 7.148997
v -0.021389 -0.457235 7.162448
v -0.009818 -0.451721 7.160007
v -0.007478 -0.444597 7.151556
v -0.006257 -0.453239 7.155500
v -0.007039 -0.447815 7.157378
v 0.003704 -0.446591 7.143935
v -0.001311 -0.449733 7.153340
v -0.003748 -0.443753 7.140034
v -0.004772 -0.441987 7.144427
v -0.001431 -0.447924 7.140739
v 0.000313 -0.444520 7.139353
v -0.007424 -0.444626 7.151521
v -0.001785 -0.440912 7.146184
v -0.001311 -0.449733 7.153340
v -0.001744 -0.440547 7.143247
v -0.001698 -0.440458 7.143191
v 0.002863 -0.442059 7.144776
v 0.002162 -0.445311 7.149228
vn -0.8480 -0.2926 0.4420
vn -0.7803 -0.0170 -0.6251
vn -0.5795 -0.1143 -0.8069
vn -0.1841 -0.1386 -0.9731
vn -0.6789 -0.1404 0.7207
vn -0.8126 0.4376 -0.3849
vn 0.2440 0.5859 -0.7728
vn -0.4934 0.4114 0.7663
vn -0.0065 0.9756 0.2196
vn -0.7146 -0.2714 0.6447
vn -0.8516 -0.3320 -0.4057
vn 0.3854 0.1372 0.9125
vn 0.7873 0.0677 0.6128
vn 0.1481 -0.0488 0.9878
vn 0.2558 0.1711 -0.9515
vn 0.6429 0.1344 -0.7540
vn 0.9166 0.3747 -0.1396
vn 0.6062 0.4308 0.6685
vn -0.9034 -0.4286 -0.0087
vn -0.3335 -0.3597 -0.8714
vn -0.2580 -0.0785 0.9629
vn 0.9193 0.3908 0.0460
vn 0.2140 -0.1189 -0.9696
vn -0.5550 -0.7318 -0.3956
vn -0.6286 -0.5370 -0.5626
vn -0.8013 -0.5354 -0.2671
vn -0.8537 -0.3756 0.3606
vn -0.4645 -0.0543 0.8839
vn -0.7018 -0.4547 0.5484
vn 0.7872 0.5373 0.3028
vn 0.8219 0.5096 -0.2546
vn -0.4479 -0.7888 0.4209
vn -0.3354 -0.7445 -0.5773
vn 0.4118 0.1028 -0.9055
vn 0.5411 0.7939 -0.2775
vn 0.0006 -0.0253 0.9997
vn 0.4939 0.6787 0.5436
vn 0.6994 0.6106 -0.3714
vn -0.0624 0.2683 -0.9613
vn 0.3664 0.9285 0.0599
vn 0.4507 0.8720 0.1910
vn 0.2594 0.0141 0.9657
vn 0.0062 -0.9170 0.3989
vn 0.3712 0.7744 -0.5123
vn 0.0511 0.9352 -0.3505
vn 0.0626 0.9598 0.2735
vn 0.2834 -0.8730 0.3968
vn -0.3076 -0.1230 -0.9435
vn -0.0602 -0.9475 -0.3141
vn -0.3942 0.2113 -0.8944
vn 0.1908 0.6844 0.7037
vn 0.1135 0.9727 0.2023
vn -0.0139 0.9900 0.1406
vn -0.4803 0.7197 -0.5013
vn 0.3499 -0.9233 -0.1585
vn -0.8470 0.0390 -0.5302
vn -0.2997 -0.6395 -0.7080
vn 0.3681 -0.3831 0.8472
vn 0.5442 -0.1553 0.8245
vn -0.5232 0.6864 -0.5051
vn 0.5008 -0.7763 0.3829
vn 0.3235 0.5970 0.7341
vn -0.3252 0.8509 0.4126
vn 0.7553 -0.5547 0.3490
vn -0.5276 0.2488 -0.8122
vn -0.6986 0.6972 -0.1610
vn -0.0475 -0.7025 -0.7101
vn 0.3934 0.1025 -0.9136
vn -0.0119 0.9323 0.3616
vn 0.6050 0.1696 0.7780
vn -0.6704 0.7414 -0.0312
vn -0.0253 0.9536 -0.3001
vn 0.7742 0.6327 0.0165
vn 0.9117 -0.3149 -0.2640
vn 0.7901 0.2571 0.5564
s 1
f 3//1 4//2 1//3
f 4//2 2//4 1//3
f 3//1 5//5 4//2
f 6//6 4//2 5//5
f 4//2 6//6 8//7
f 5//5 7//8 6//6
f 9//9 6//6 7//8
f 8//7 6//6 9//9
f 10//10 3//1 11//11
f 5//5 10//10 12//12
f 12//12 15//13 5//5
f 3//1 10//10 5//5
f 15//13 16//14 5//5
f 2//4 4//2 13//15
f 13//15 4//2 14//16
f 14//16 4//2 8//7
f 8//7 17//17 14//16
f 16//14 7//8 5//5
f 18//18 7//8 16//14
f 15//13 18//18 16//14
f 14//16 17//17 15//13
f 15//13 17//17 18//18
f 7//8 18//18 9//9
f 9//9 17//17 8//7
f 9//9 18//18 17//17
f 19//19 11//11 20//20
f 11//11 19//19 10//10
f 22//21 12//12 10//10
f 1//3 2//4 11//11
f 20//20 11//11 2//4
f 13//15 14//16 23//22
f 21//23 2//4 13//15
f 23//22 14//16 15//13
f 12//12 23//22 15//13
f 20//20 26//24 27//25
f 24//26 27//25 26//24
f 20//20 27//25 19//19
f 24//26 28//27 19//19
f 10//10 29//28 22//21
f 28//27 24//26 25//29
f 29//28 25//29 22//21
f 28//27 10//10 19//19
f 30//30 12//12 22//21
f 20//20 21//23 13//15
f 13//15 23//22 31//31
f 12//12 30//30 23//22
f 25//29 32//32 22//21
f 24//26 26//24 25//29
f 26//24 20//20 33//33
f 13//15 35//34 20//20
f 30//30 36//35 31//31
f 38//36 37//37 30//30
f 38//36 30//30 22//21
f 31//31 23//22 30//30
f 32//32 26//24 33//33
f 34//38 33//33 20//20
f 25//29 26//24 32//32
f 35//34 34//38 20//20
f 34//38 31//31 36//35
f 37//37 36//35 30//30
f 32//32 38//36 22//21
f 34//38 36//35 39//39
f 34//38 39//39 33//33
f 40//40 41//41 36//35
f 40//40 42//42 41//41
f 38//36 42//42 37//37
f 40//40 36//35 37//37
f 32//32 33//33 43//43
f 38//36 32//32 43//43
f 44//44 39//39 36//35
f 45//45 39//39 44//44
f 41//41 42//42 46//46
f 43//43 33//33 47//47
f 48//48 33//33 39//39
f 49//49 47//47 33//33
f 43//43 42//42 38//36
f 45//45 41//41 46//46
f 48//48 39//39 50//50
f 50//50 39//39 45//45
f 46//46 50//50 45//45
f 51//51 46//46 42//42
f 46//52 52//53 53//54
f 49//49 54//55 47//47
f 48//48 50//50 55//56
f 55//56 56//57 48//48
f 57//58 43//43 47//47
f 58//59 43//43 57//58
f 43//43 58//59 42//42
f 59//60 53//54 52//53
f 54//55 48//48 56//57
f 54//55 60//61 47//47
f 60//61 58//59 57//58
f 51//51 61//62 68//63
f 61//62 51//51 42//42
f 63//64 60//61 54//55
f 60//61 63//64 58//59
f 64//65 55//56 65//66
f 66//67 64//65 67//68
f 64//65 56//57 55//56
f 69//69 68//63 61//62
f 66//67 56//57 64//65
f 68//63 65//66 55//56
f 56//57 66//67 54//55
f 58//59 61//62 42//42
f 58//59 70//70 61//62
f 64//65 65//66 71//71
f 71//71 65//66 69//69
f 72//72 64//65 71//71
f 69//69 73//73 72//72
f 65//66 68//63 69//69
f 73//73 69//69 61//62
f 54//55 66//67 62//74
f 66//67 67//68 62//74
f 73//73 62//74 67//68
f 62//74 63//64 54//55
f 62//74 74//75 63//64
f 70//70 74//75 61//62
f 73//73 61//62 74//75
f 73//73 74//75 62//74
f 73//73 67//68 72//72
f 72//72 67//68 64//65
