# Blender v2.78 (sub 0) OBJ File: 'exporter.blend'
# www.blender.org
o FJ1768.obj_grp1.686
v -0.002455 -0.447622 7.235757
v 0.000678 -0.451052 7.236361
v -0.001973 -0.447192 7.229500
v -0.000701 -0.444792 7.241314
v -0.000014 -0.445175 7.224510
v -0.000696 -0.438383 7.225408
v -0.001522 -0.434196 7.233779
v -0.001190 -0.438167 7.240269
v 0.004407 -0.451153 7.228197
v 0.011113 -0.447208 7.245773
v 0.002216 -0.436598 7.241848
v 0.004033 -0.434976 7.225081
v 0.001142 -0.432400 7.229817
v 0.001395 -0.432006 7.236385
v 0.012144 -0.440318 7.242950
v 0.006101 -0.430050 7.233399
v 0.009480 -0.448364 7.224271
v 0.012258 -0.451089 7.242502
v 0.008400 -0.446663 7.222682
v 0.007811 -0.442054 7.221605
v 0.007954 -0.431321 7.237617
v 0.011362 -0.451035 7.231783
v 0.011925 -0.442504 7.223917
v 0.010455 -0.436498 7.225246
v 0.011116 -0.432063 7.234199
v 0.012889 -0.435115 7.238105
v 0.015705 -0.448069 7.239281
v 0.015500 -0.445297 7.229483
v 0.013552 -0.448760 7.244375
v 0.015516 -0.445944 7.242787
v 0.014954 -0.438512 7.229084
v 0.014999 -0.436836 7.233608
vn -0.6222 -0.2667 -0.7360
vn -0.8659 -0.4201 -0.2714
vn -0.7485 0.2747 -0.6036
vn -0.9137 -0.3526 0.2020
vn -0.8753 0.4832 0.0171
vn -0.6737 -0.2084 0.7091
vn -0.7829 0.2524 0.5687
vn -0.4149 -0.8835 0.2175
vn -0.1828 -0.9153 -0.3589
vn 0.0215 -0.1601 0.9869
vn -0.2527 0.4437 0.8598
vn -0.4835 0.8001 -0.3551
vn -0.1044 0.6533 -0.7499
vn -0.4302 0.8276 0.3607
vn 0.1150 -0.4253 -0.8977
vn 0.0814 0.0612 -0.9948
vn 0.3833 0.4558 0.8034
vn 0.1869 0.8412 0.5075
vn 0.0560 0.9938 -0.0956
vn 0.3488 -0.6697 -0.6556
vn 0.4090 -0.8981 -0.1617
vn 0.2359 -0.8769 0.4189
vn 0.6752 0.0144 -0.7375
vn 0.4407 0.6141 -0.6547
vn 0.5989 0.7980 -0.0667
vn 0.6875 0.5694 0.4508
vn 0.9079 -0.4183 0.0258
vn 0.9055 -0.2589 -0.3363
vn 0.5548 -0.4706 0.6861
vn 0.8766 0.0183 0.4808
vn 0.8717 0.3465 -0.3467
vn 0.9075 0.4200 0.0082
s 1
f 5//1 3//2 6//3
f 1//4 7//5 3//2
f 4//6 8//7 1//4
f 6//3 3//2 7//5
f 1//4 8//7 7//5
f 1//4 3//2 2//8
f 3//2 9//9 2//8
f 1//4 2//8 4//6
f 3//2 5//1 9//9
f 4//6 2//8 10//10
f 11//11 8//7 4//6
f 11//11 4//6 10//10
f 13//12 6//3 7//5
f 13//12 12//13 6//3
f 13//12 7//5 14//14
f 14//14 7//5 8//7
f 14//14 8//7 11//11
f 5//1 19//15 9//9
f 6//3 12//13 20//16
f 20//16 5//1 6//3
f 11//11 15//17 21//18
f 16//19 12//13 13//12
f 16//19 13//12 14//14
f 16//19 14//14 21//18
f 21//18 14//14 11//11
f 9//9 17//20 22//21
f 9//9 18//22 2//8
f 22//21 18//22 9//9
f 2//8 18//22 10//10
f 19//15 5//1 20//16
f 17//20 9//9 19//15
f 17//20 19//15 23//23
f 20//16 23//23 19//15
f 10//10 15//17 11//11
f 23//23 20//16 24//24
f 12//13 24//24 20//16
f 16//19 24//24 12//13
f 21//18 25//25 16//19
f 25//25 21//18 26//26
f 27//27 22//21 28//28
f 18//22 22//21 27//27
f 10//10 18//22 29//29
f 22//21 17//20 28//28
f 17//20 23//23 28//28
f 30//30 10//10 29//29
f 30//30 15//17 10//10
f 28//28 23//23 31//31
f 24//24 31//31 23//23
f 16//19 25//25 24//24
f 24//24 25//25 31//31
f 25//25 32//32 31//31
f 32//32 25//25 26//26
f 15//17 26//26 21//18
f 27//27 29//29 18//22
f 30//30 29//29 27//27
f 27//27 28//28 30//30
f 31//31 32//32 28//28
f 28//28 32//32 30//30
f 26//26 15//17 30//30
f 30//30 32//32 26//26
