# Blender v2.78 (sub 0) OBJ File: 'exporter.blend'
# www.blender.org
o FJ1777.obj_grp1.695
v 0.001313 -0.474289 7.285030
v -0.003107 -0.435949 7.312729
v -0.001099 -0.453492 7.282255
v 0.000427 -0.454163 7.291695
v -0.001080 -0.451321 7.296711
v -0.000302 -0.453065 7.299015
v -0.001677 -0.445501 7.303587
v -0.000239 -0.455569 7.276481
v -0.000897 -0.453584 7.282192
v 0.000731 -0.451327 7.283376
v 0.001318 -0.444847 7.301046
v -0.000734 -0.452645 7.269063
v -0.001828 -0.427275 7.313788
v -0.003121 -0.435891 7.312770
v -0.000602 -0.441529 7.311268
v -0.000478 -0.429114 7.320020
v -0.000603 -0.440985 7.310077
v 0.000945 -0.452023 7.254641
v -0.000402 -0.450563 7.255267
v -0.000734 -0.452645 7.269063
v -0.003034 -0.423726 7.319841
v 0.001323 -0.443472 7.302994
v 0.001204 -0.433837 7.310047
v -0.001112 -0.419111 7.323336
v -0.000360 -0.450309 7.256810
v -0.000264 -0.419257 7.316338
v 0.000915 -0.400417 7.320349
v 0.001540 -0.412070 7.318357
v 0.000155 -0.402754 7.327319
v 0.000779 -0.374120 7.322598
v 0.003195 -0.485113 7.265562
v 0.003958 -0.486393 7.266669
v 0.001990 -0.480013 7.277653
v 0.003571 -0.480467 7.279381
v 0.003983 -0.486347 7.266675
v 0.004125 -0.474521 7.288187
v 0.002511 -0.477031 7.284086
v 0.003540 -0.480153 7.279720
v 0.003673 -0.484480 7.265424
v 0.003578 -0.484580 7.265416
v 0.005512 -0.484373 7.265586
v 0.001963 -0.477263 7.279839
v 0.003024 -0.479322 7.274885
v 0.002987 -0.477417 7.278767
v 0.001305 -0.474346 7.284978
v 0.002860 -0.473127 7.283186
v 0.001100 -0.462762 7.296574
v 0.001192 -0.470201 7.287889
v 0.001186 -0.470181 7.287902
v 0.002901 -0.471623 7.285166
v 0.004588 -0.475178 7.282386
v 0.000984 -0.464050 7.292208
v 0.002990 -0.467627 7.288687
v 0.000642 -0.462151 7.293650
v 0.002950 -0.458606 7.294833
v 0.000855 -0.457487 7.294568
v 0.001014 -0.447839 7.306667
v 0.003299 -0.461545 7.285030
v 0.004478 -0.462332 7.280360
v 0.001637 -0.457366 7.294955
v 0.001782 -0.456930 7.294723
v 0.002932 -0.458407 7.294226
v -0.000302 -0.453065 7.299015
v 0.001448 -0.458564 7.294884
v 0.002941 -0.458606 7.294837
v 0.002990 -0.467627 7.288687
v 0.002941 -0.458606 7.294837
v 0.001448 -0.458564 7.294884
v 0.001532 -0.457474 7.294930
v 0.002932 -0.458407 7.294226
v 0.002941 -0.458606 7.294837
v 0.001532 -0.457474 7.294930
v 0.003135 -0.458493 7.294450
v 0.005708 -0.463490 7.283998
v 0.002971 -0.458487 7.294273
v 0.001014 -0.447839 7.306667
v 0.001336 -0.454672 7.291174
v 0.002276 -0.455539 7.282208
v 0.002872 -0.454832 7.290818
v -0.000144 -0.454835 7.286574
v 0.001222 -0.455057 7.291729
v 0.001865 -0.454801 7.291040
v 0.001822 -0.454705 7.290765
v 0.002349 -0.454338 7.290799
v 0.001822 -0.454485 7.290907
v 0.003020 -0.452573 7.288353
v 0.002853 -0.454854 7.290846
v 0.003212 -0.454451 7.290112
v 0.002278 -0.454544 7.290874
v 0.002853 -0.454854 7.290846
v 0.003383 -0.453536 7.290447
v 0.003548 -0.453939 7.290957
v 0.003330 -0.453267 7.292027
v 0.002201 -0.455603 7.274608
v 0.002452 -0.455776 7.274417
v 0.003258 -0.453337 7.275196
v 0.003278 -0.453341 7.275307
v 0.002779 -0.450808 7.291117
v 0.000753 -0.449729 7.290576
v 0.001400 -0.448938 7.293007
v 0.000778 -0.449841 7.290189
v 0.002349 -0.454338 7.290799
v 0.003550 -0.447275 7.300470
v 0.003129 -0.447149 7.302161
v 0.001412 -0.444648 7.301415
v 0.000745 -0.455647 7.273493
v 0.001253 -0.451428 7.271824
v 0.003606 -0.444686 7.304085
v 0.003370 -0.437446 7.310422
v 0.004091 -0.459864 7.296654
v 0.003370 -0.437446 7.310422
v 0.002986 -0.432455 7.315446
v 0.001046 -0.454353 7.264181
v 0.002745 -0.451216 7.255131
v 0.002986 -0.432455 7.315446
v 0.001164 -0.449177 7.255311
v 0.003193 -0.420124 7.317883
v 0.003739 -0.416069 7.321876
v -0.000241 -0.450644 7.255370
v 0.000921 -0.451878 7.254453
v -0.000360 -0.450309 7.256810
v -0.000264 -0.419257 7.316338
v 0.005336 -0.400822 7.324803
v 0.003130 -0.403891 7.327039
v 0.001540 -0.412070 7.318357
v 0.003048 -0.407559 7.319766
v 0.003797 -0.402713 7.320124
v 0.004275 -0.397611 7.321033
v 0.000685 -0.387735 7.327124
v 0.002803 -0.380874 7.319844
v 0.005496 -0.374976 7.327263
v 0.002605 -0.358459 7.316620
v 0.002771 -0.357191 7.316067
v 0.004076 -0.337224 7.308795
v 0.003502 -0.326414 7.257820
v 0.001504 -0.326282 7.261247
v 0.000231 -0.319442 7.262171
v 0.001859 -0.323975 7.257474
v 0.001342 -0.318937 7.260399
v 0.004956 -0.320382 7.280834
v 0.004993 -0.486164 7.265515
v 0.005251 -0.480069 7.275870
v 0.004654 -0.475290 7.282208
v 0.007793 -0.466422 7.272115
v 0.006490 -0.466226 7.267718
v 0.009749 -0.466882 7.257225
v 0.007818 -0.466450 7.272250
v 0.005915 -0.464861 7.272024
v 0.009048 -0.464931 7.275593
v 0.004342 -0.451242 7.299378
v 0.008664 -0.463376 7.275927
v 0.007916 -0.461961 7.284321
v 0.004501 -0.451459 7.299390
v 0.008280 -0.465432 7.256067
v 0.007080 -0.462707 7.276292
v 0.005869 -0.464858 7.272079
v 0.009400 -0.464418 7.270410
v 0.008873 -0.463531 7.275260
v 0.002853 -0.454854 7.290846
v 0.009048 -0.463835 7.256502
v 0.007901 -0.381030 7.324891
v 0.007462 -0.385536 7.322676
v 0.007462 -0.385536 7.322676
v 0.006974 -0.370342 7.317793
v 0.005355 -0.359233 7.323725
v 0.006974 -0.370342 7.317793
v 0.007325 -0.356657 7.313052
v 0.006207 -0.338311 7.313543
v 0.004649 -0.345151 7.308780
v 0.010775 -0.344595 7.307971
v 0.005349 -0.323955 7.294077
v 0.006396 -0.326920 7.290846
v 0.009294 -0.319381 7.295051
v 0.005718 -0.326740 7.268005
v 0.005664 -0.328047 7.261485
v 0.007872 -0.325259 7.273383
v 0.008960 -0.324930 7.276863
v 0.006103 -0.314326 7.277786
v 0.003821 -0.320873 7.258733
v 0.011871 -0.316371 7.273949
v 0.004963 -0.314930 7.265904
v 0.008799 -0.464698 7.275683
v 0.010376 -0.466869 7.257996
v 0.008480 -0.465320 7.255697
v 0.010112 -0.465314 7.255714
v 0.011021 -0.464857 7.256796
v 0.005303 -0.401193 7.324835
v 0.007462 -0.385536 7.322676
v 0.008750 -0.373096 7.320094
v 0.012812 -0.344774 7.314473
v 0.009084 -0.369933 7.319204
v 0.009879 -0.344114 7.317914
v 0.007325 -0.356657 7.313052
v 0.010078 -0.344483 7.307988
v 0.013715 -0.321476 7.296058
v 0.010342 -0.328215 7.305447
v 0.010417 -0.327952 7.305323
v 0.006396 -0.326920 7.290846
v 0.009253 -0.329743 7.291121
v 0.012636 -0.329046 7.291127
v 0.011075 -0.324090 7.275523
v 0.009456 -0.323198 7.265168
v 0.009624 -0.313841 7.275088
v 0.012739 -0.340717 7.305834
v 0.014842 -0.329466 7.296480
v 0.014975 -0.328965 7.295947
v 0.010662 -0.325644 7.281551
vn -0.8887 -0.4557 0.0511
vn -0.7322 -0.6811 -0.0008
vn -0.9576 -0.2569 0.1303
vn -0.9651 -0.2575 -0.0478
vn -0.9547 0.1605 -0.2506
vn -0.5940 -0.4567 0.6623
vn -0.5409 -0.8404 0.0328
vn -0.7915 0.6096 -0.0440
vn -0.5081 0.6906 -0.5147
vn -0.5099 0.8563 -0.0825
vn -0.6134 0.7880 0.0528
vn -0.7057 0.2586 -0.6596
vn -0.9609 0.1285 -0.2454
vn -0.7700 -0.6247 -0.1297
vn -0.8318 -0.5453 -0.1031
vn -0.9623 -0.2647 -0.0619
vn -0.0664 -0.4262 0.9022
vn -0.9438 -0.1519 0.2934
vn -0.7261 -0.4967 0.4755
vn 0.3539 0.5206 -0.7770
vn 0.1956 0.5357 -0.8215
vn -0.3547 -0.2318 0.9058
vn -0.9873 0.1591 -0.0010
vn 0.6326 0.1566 -0.7585
vn -0.0850 0.0916 -0.9922
vn 0.2988 0.1455 -0.9431
vn -0.5302 -0.0404 0.8469
vn -0.9936 0.0747 0.0842
vn -0.5014 -0.8603 -0.0922
vn 0.0946 -0.8895 0.4470
vn -0.9250 -0.3360 0.1776
vn -0.8041 -0.2215 -0.5517
vn 0.6954 -0.6378 0.3312
vn 0.4049 -0.6524 0.6406
vn -0.6245 -0.6329 0.4576
vn -0.8117 -0.4467 0.3762
vn -0.0186 0.3385 -0.9408
vn 0.4535 -0.6734 -0.5838
vn -0.9016 0.2812 -0.3287
vn -0.7932 0.5064 -0.3382
vn -0.5655 0.7093 -0.4209
vn 0.7489 0.3334 -0.5727
vn 0.2773 0.8189 -0.5025
vn -0.9820 0.1005 -0.1598
vn -0.6102 0.5198 -0.5979
vn -0.7852 -0.5027 0.3615
vn -0.4748 -0.4721 0.7427
vn -0.9781 0.1006 -0.1825
vn -0.6944 0.4897 -0.5273
vn 0.0512 0.6483 -0.7596
vn 0.8280 0.4290 -0.3611
vn -0.6459 0.4232 -0.6355
vn -0.2820 0.5664 -0.7744
vn -0.7901 0.1597 -0.5918
vn 0.9652 0.1390 -0.2215
vn -0.2268 0.5802 -0.7823
vn -0.9354 0.0434 -0.3510
vn 0.1147 -0.5572 0.8224
vn -0.0694 -0.9209 0.3835
vn -0.7688 -0.6308 0.1047
vn -0.7530 -0.6420 0.1446
vn -0.9413 0.0845 -0.3269
vn -0.8847 -0.4483 0.1278
vn -0.0127 0.5627 -0.8265
vn -0.0344 0.0171 -0.9993
vn -0.6157 -0.7534 -0.2309
vn -0.4170 -0.5045 0.7560
vn 0.9003 -0.1823 0.3952
vn -0.4202 -0.5561 0.7171
vn -0.4168 -0.8849 -0.2081
vn 0.5066 -0.8577 0.0877
vn 0.4822 -0.8723 -0.0812
vn 0.2509 0.7969 -0.5496
vn -0.7348 0.5758 -0.3584
vn -0.9259 -0.3667 0.0909
vn -0.1566 -0.9868 0.0416
vn -0.7760 0.0336 -0.6298
vn -0.5451 -0.6575 -0.5202
vn -0.6359 0.3421 -0.6918
vn 0.8541 -0.5192 0.0318
vn -0.5275 0.5454 -0.6513
vn 0.9069 -0.3105 0.2849
vn 0.9312 -0.3265 0.1619
vn 0.1386 -0.8082 -0.5724
vn 0.9931 -0.0716 -0.0933
vn 0.9248 -0.2114 -0.3163
vn 0.9945 0.1030 -0.0212
vn -0.1545 -0.9697 -0.1894
vn -0.1585 -0.9837 -0.0849
vn 0.4971 -0.8449 -0.1976
vn 0.9827 0.1847 0.0110
vn 0.7917 0.6070 -0.0692
vn 0.7504 0.6100 -0.2547
vn -0.0781 0.9316 -0.3551
vn 0.5962 0.7419 -0.3068
vn -0.4130 0.8951 -0.1681
vn 0.3307 -0.8058 -0.4912
vn 0.9350 0.2950 -0.1971
vn 0.7900 0.4751 -0.3875
vn 0.8135 0.4267 -0.3951
vn 0.0745 0.9972 -0.0012
vn 0.7069 0.3242 -0.6287
vn 0.9938 0.1072 -0.0295
vn 0.9944 -0.0359 0.0996
vn 0.9779 -0.0294 0.2072
vn 0.7558 0.3166 -0.5732
vn 0.9808 -0.1077 0.1626
vn -0.7346 -0.6602 -0.1567
vn 0.8485 -0.0890 -0.5216
vn 0.5722 -0.4261 0.7007
vn 0.2656 -0.2608 -0.9281
vn 0.1070 0.8690 -0.4830
vn 0.7588 0.1808 -0.6257
vn 0.8869 -0.1713 0.4290
vn 0.9716 -0.1502 0.1826
vn -0.5944 0.5481 -0.5884
vn -0.6165 0.7872 0.0175
vn 0.4686 0.2289 -0.8532
vn 0.9481 -0.1571 0.2764
vn 0.4535 -0.1728 0.8744
vn 0.4002 0.1513 -0.9038
vn 0.3398 0.1492 -0.9286
vn 0.9445 -0.0462 -0.3253
vn 0.2655 -0.0058 -0.9641
vn -0.6552 0.0763 0.7516
vn 0.1561 0.1618 0.9744
vn -0.2327 -0.1129 -0.9660
vn -0.6551 -0.2047 -0.7273
vn -0.4487 -0.3326 -0.8295
vn -0.9179 0.3280 0.2233
vn -0.4640 -0.0404 -0.8849
vn 0.0721 -0.5487 -0.8329
vn -0.7804 -0.6252 -0.0054
vn -0.9502 0.3051 -0.0640
vn -0.4712 0.6520 -0.5941
vn 0.3904 0.4304 -0.8139
vn 0.8504 -0.5262 0.0025
vn 0.1166 0.8529 -0.5088
vn -0.4161 -0.9056 0.0818
vn -0.7687 -0.6368 -0.0590
vn 0.1622 -0.7700 -0.6170
vn -0.0734 -0.9933 0.0889
vn -0.6289 0.6730 -0.3893
vn 0.4541 -0.8493 0.2693
vn 0.8981 -0.3656 0.2444
vn 0.5788 -0.6879 0.4380
vn 0.9880 0.0908 0.1249
vn 0.9364 0.0244 -0.3502
vn 0.8552 -0.3932 0.3377
vn -0.9888 0.0511 -0.1402
vn -0.0799 0.9448 -0.3178
vn -0.7292 0.6784 -0.0902
vn 0.3094 0.9329 -0.1842
vn 0.8138 0.5731 -0.0963
vn -0.1934 0.9026 -0.3846
vn -0.8449 0.4826 -0.2307
vn 0.8913 -0.1180 0.4377
vn 0.9549 -0.1669 -0.2456
vn 0.4767 -0.1766 -0.8611
vn 0.5012 -0.2531 -0.8275
vn -0.2810 0.3183 0.9054
vn -0.3396 -0.3059 -0.8894
vn 0.3546 -0.2880 -0.8896
vn -0.4836 0.5340 0.6935
vn -0.1994 -0.4649 -0.8626
vn -0.1856 -0.4929 -0.8501
vn -0.9664 0.1194 0.2275
vn -0.9345 -0.3532 -0.0448
vn -0.2093 0.8706 0.4452
vn -0.9882 -0.1324 0.0774
vn 0.3346 -0.8882 -0.3148
vn -0.2871 -0.9156 0.2816
vn 0.2760 -0.9472 0.1629
vn -0.5346 0.8181 0.2118
vn -0.0125 0.9280 -0.3723
vn 0.8881 0.4155 -0.1965
vn 0.9940 0.0341 0.1037
vn 0.9449 0.3274 0.0041
vn 0.6051 -0.7777 -0.1704
vn -0.1051 -0.7886 -0.6059
vn -0.5228 0.5802 -0.6246
vn 0.2671 0.6125 -0.7439
vn 0.8192 0.3168 -0.4780
vn 0.9897 -0.1275 0.0654
vn 0.9928 -0.1139 0.0383
vn 0.9844 -0.1440 -0.1012
vn 0.9571 0.0972 0.2728
vn 0.7034 -0.2505 -0.6652
vn 0.2838 0.3913 0.8754
vn 0.1499 -0.4194 -0.8954
vn -0.1075 -0.4291 -0.8968
vn 0.7052 0.6090 0.3632
vn -0.3846 0.6532 0.6522
vn 0.0298 0.6450 0.7636
vn -0.6558 -0.6491 -0.3854
vn -0.2524 -0.7997 -0.5448
vn 0.4156 -0.7980 -0.4365
vn -0.2867 -0.9574 -0.0340
vn 0.7254 -0.6602 -0.1950
vn 0.9137 -0.0614 -0.4017
vn 0.3557 0.9346 -0.0047
vn 0.8127 -0.4552 -0.3637
vn 0.9845 -0.0071 0.1754
vn 0.9879 -0.1365 -0.0731
vn -0.3417 -0.9049 -0.2536
s 1
f 3//1 4//2 5//3
f 6//4 7//5 5//3
f 7//5 6//4 2//6
f 4//2 3//1 8//7
f 5//3 7//5 9//8
f 9//8 7//5 11//9
f 9//8 10//10 12//11
f 13//12 7//5 14//13
f 18//14 8//7 19//15
f 3//1 20//16 8//7
f 19//15 8//7 20//16
f 2//6 16//17 21//18
f 16//17 2//6 15//19
f 22//20 13//12 23//21
f 14//13 21//18 13//12
f 24//22 21//18 16//17
f 25//23 19//15 20//16
f 26//24 23//21 13//12
f 26//24 13//12 27//25
f 27//25 28//26 26//24
f 27//25 13//12 21//18
f 21//18 24//22 29//27
f 21//18 30//28 27//25
f 32//29 34//30 33//31
f 31//32 32//29 33//31
f 32//29 35//33 34//30
f 36//34 37//35 38//36
f 40//37 141//38 31//32
f 31//32 42//39 39//40
f 39//40 42//39 43//41
f 41//42 40//37 44//43
f 31//32 33//31 42//39
f 33//31 45//44 42//39
f 33//31 34//30 37//35
f 43//41 42//39 46//45
f 37//35 1//46 33//31
f 37//35 47//47 1//46
f 47//47 37//35 36//34
f 48//48 42//39 45//44
f 42//39 49//49 46//45
f 50//50 51//51 44//43
f 46//45 49//49 52//52
f 53//53 51//51 50//50
f 53//53 50//50 54//54
f 51//51 53//53 55//55
f 2//6 54//56 1//46
f 53//53 54//54 56//57
f 47//47 2//6 1//46
f 57//58 47//47 36//34
f 74//59 62//60 61//61
f 54//54 63//62 56//57
f 6//4 5//3 60//63
f 64//64 65//64 66//64
f 67//65 68//65 69//65
f 70//66 71//66 72//66
f 6//4 54//56 2//6
f 76//67 2//6 47//47
f 36//34 110//68 17//69
f 77//70 78//71 85//72
f 79//73 59//74 58//75
f 80//76 77//70 4//2
f 4//2 77//70 81//77
f 60//63 5//3 58//75
f 58//75 5//3 81//77
f 81//77 77//70 83//78
f 58//75 81//77 82//79
f 78//71 86//80 85//72
f 87//81 58//75 82//79
f 79//73 88//82 91//83
f 85//72 86//80 84//84
f 58//75 87//81 79//73
f 93//85 79//73 91//83
f 4//2 81//77 5//3
f 92//86 86//87 93//85
f 106//88 94//89 78//71
f 106//88 80//76 8//7
f 106//88 78//71 77//70
f 106//88 77//70 80//76
f 78//71 95//90 96//91
f 96//91 86//80 78//71
f 97//92 98//93 86//87
f 10//10 9//8 99//94
f 100//95 10//10 101//96
f 102//97 86//87 92//86
f 100//95 98//93 10//10
f 101//96 99//94 100//95
f 86//87 103//98 93//85
f 86//87 98//93 103//98
f 104//99 98//93 100//95
f 105//100 104//99 100//95
f 11//9 99//94 9//8
f 99//94 11//9 100//95
f 16//17 17//69 110//68
f 15//19 2//6 76//67
f 107//101 97//92 96//91
f 12//11 10//10 107//101
f 107//101 98//93 97//92
f 107//101 10//10 98//93
f 13//12 11//9 7//5
f 23//102 104//99 105//100
f 108//103 109//104 110//105
f 104//99 23//102 111//106
f 110//105 109//104 112//107
f 8//7 113//108 106//88
f 94//89 106//88 114//109
f 96//91 114//109 107//101
f 114//109 96//91 95//90
f 115//110 16//17 110//68
f 113//108 8//7 18//14
f 120//111 114//109 106//88
f 107//101 114//109 116//112
f 94//89 114//109 95//90
f 23//102 117//113 111//106
f 117//113 118//114 111//106
f 109//104 118//115 112//107
f 118//114 16//17 115//110
f 116//112 120//111 119//116
f 114//109 120//111 116//112
f 107//101 121//117 12//11
f 121//117 107//101 116//112
f 121//117 116//112 119//116
f 117//113 23//102 122//118
f 117//113 123//119 118//114
f 24//22 16//17 124//120
f 16//17 118//114 124//120
f 125//121 117//113 122//118
f 117//113 125//121 126//122
f 127//123 123//119 117//113
f 27//25 126//122 125//121
f 124//120 29//27 24//22
f 126//122 27//25 128//124
f 29//27 129//125 21//18
f 129//125 29//27 131//126
f 30//28 21//18 129//125
f 27//25 30//28 130//127
f 130//127 30//28 132//128
f 133//129 30//28 134//130
f 138//131 135//132 136//133
f 137//134 138//131 136//133
f 137//134 139//135 138//131
f 138//131 139//135 179//136
f 141//38 32//29 31//32
f 141//38 34//30 35//33
f 34//30 36//34 38//36
f 36//34 34//30 141//38
f 41//42 36//34 141//38
f 141//38 40//37 41//42
f 41//42 142//137 36//34
f 36//34 142//137 51//51
f 142//137 41//42 44//43
f 143//138 142//137 44//43
f 143//138 44//43 51//51
f 110//68 36//34 51//51
f 51//51 55//55 110//68
f 144//139 145//140 146//141
f 74//59 58//75 145//140
f 144//139 74//59 145//140
f 74//59 144//139 147//142
f 58//75 148//143 145//140
f 59//74 148//143 58//75
f 61//61 58//75 74//59
f 147//142 149//144 74//59
f 152//145 74//59 149//144
f 152//145 75//146 74//59
f 152//145 150//147 75//146
f 55//55 153//148 110//68
f 73//149 153//148 55//55
f 145//140 148//143 154//150
f 59//74 155//151 156//152
f 158//153 155//151 151//154
f 59//74 79//73 155//151
f 151//154 155//151 79//73
f 79//73 150//147 151//154
f 150//147 93//85 103//98
f 150//147 79//73 93//85
f 160//155 154//156 156//152
f 156//152 155//151 160//155
f 108//103 150//147 103//98
f 108//103 110//105 150//147
f 123//119 124//120 118//114
f 124//120 131//126 29//27
f 123//119 161//157 124//120
f 124//120 161//157 131//126
f 130//127 128//124 27//25
f 123//119 127//123 162//158
f 128//124 130//127 163//159
f 163//159 130//127 164//160
f 131//126 165//161 129//125
f 129//125 165//161 30//28
f 130//127 132//128 167//162
f 166//163 130//127 167//162
f 168//164 30//28 165//161
f 168//164 134//130 30//28
f 132//128 169//165 167//162
f 170//166 167//162 169//165
f 133//129 134//130 171//167
f 171//167 170//166 169//165
f 170//166 171//167 172//168
f 168//164 173//169 134//130
f 172//168 171//167 140//170
f 134//130 173//169 171//167
f 136//133 175//171 174//172
f 136//133 135//132 175//171
f 175//171 176//173 174//172
f 171//167 178//174 140//170
f 135//132 138//131 179//136
f 174//172 140//170 136//133
f 140//170 137//134 136//133
f 181//175 180//176 179//136
f 140//170 178//174 137//134
f 181//175 139//135 137//134
f 181//175 179//136 139//135
f 137//134 178//174 181//175
f 182//177 151//154 152//145
f 151//154 150//147 152//145
f 155//151 157//178 160//155
f 147//142 146//141 183//179
f 149//144 147//142 183//179
f 183//179 157//178 182//177
f 157//178 151//154 182//177
f 155//151 158//153 157//178
f 145//140 184//180 146//141
f 160//155 184//181 154//156
f 185//182 184//181 160//155
f 186//183 185//182 160//155
f 146//141 184//180 183//179
f 186//183 183//179 184//180
f 157//178 186//183 160//155
f 157//178 183//179 186//183
f 187//184 188//185 161//157
f 188//185 189//186 161//157
f 161//157 189//186 190//187
f 164//160 191//188 163//159
f 189//186 191//188 190//187
f 131//126 192//189 165//161
f 161//157 192//189 131//126
f 191//188 164//160 193//190
f 191//188 193//190 194//191
f 192//189 168//164 165//161
f 190//187 195//192 192//189
f 192//189 196//193 168//164
f 195//192 197//194 192//189
f 194//191 198//195 199//196
f 200//197 194//191 199//196
f 196//193 173//169 168//164
f 199//196 198//195 177//198
f 177//198 201//199 199//196
f 177//198 198//195 140//170
f 175//171 201//199 176//173
f 201//199 177//198 176//173
f 174//172 177//198 140//170
f 175//171 135//132 202//200
f 135//132 179//136 202//200
f 178//174 171//167 173//169
f 202//200 179//136 180//176
f 180//176 181//175 203//201
f 181//175 178//174 203//201
f 190//187 192//189 161//157
f 191//188 194//191 204//202
f 191//188 204//202 190//187
f 204//202 194//191 200//197
f 190//187 204//202 205//203
f 206//204 204//202 200//197
f 197//194 173//169 196//193
f 199//196 207//205 200//197
f 207//205 201//199 200//197
f 195//192 173//169 197//194
f 175//171 202//200 201//199
f 203//201 195//192 180//176
f 206//204 180//176 195//192
f 195//192 203//201 173//169
f 201//199 202//200 180//176
f 173//169 203//201 178//174
f 195//192 190//187 205//203
f 205//203 206//204 195//192
f 201//199 206//204 200//197
f 206//204 201//199 180//176
l 89 90
l 79 159
