# Blender v2.78 (sub 0) OBJ File: 'exporter.blend'
# www.blender.org
o FJ1707M.obj_grp1.604
v 0.074584 -0.178982 6.998817
v 0.074922 -0.177907 6.999704
v 0.075482 -0.179319 6.999986
v 0.075050 -0.179392 6.998016
v 0.076052 -0.178776 6.998566
v 0.076570 -0.178405 6.999451
v 0.072266 -0.173340 7.002270
v 0.075852 -0.178927 6.999273
v 0.075563 -0.178382 6.998925
v 0.075223 -0.178131 7.000183
v 0.075586 -0.178961 6.998812
v 0.075301 -0.180192 6.999821
v 0.068487 -0.171731 7.006891
v 0.075432 -0.179362 6.998905
v 0.074914 -0.179476 7.000503
v 0.075010 -0.179381 6.998023
v 0.074142 -0.179622 6.999451
v 0.065166 -0.166360 7.008372
v 0.065574 -0.169091 7.006056
v 0.066026 -0.169517 7.006409
v 0.064602 -0.166847 7.007294
v 0.069322 -0.175285 7.002759
v 0.069176 -0.169955 7.006962
v 0.069176 -0.169955 7.006962
v 0.067569 -0.171589 7.006023
v 0.072100 -0.176302 7.002690
v 0.068463 -0.171710 7.006916
v 0.067569 -0.171589 7.006023
v 0.062875 -0.168627 7.010718
v 0.064559 -0.168162 7.011094
v 0.064615 -0.168397 7.011215
v 0.062861 -0.168614 7.010736
v 0.068463 -0.171710 7.006916
v 0.064752 -0.167178 7.008840
v 0.062933 -0.166199 7.011657
v 0.069176 -0.169955 7.006962
v 0.067943 -0.168514 7.009323
v 0.062342 -0.166126 7.011763
v 0.050338 -0.165283 7.021257
v 0.064412 -0.168823 7.009920
v 0.059902 -0.165778 7.012737
v 0.058202 -0.166630 7.015878
v 0.057241 -0.166199 7.014239
v 0.060804 -0.167700 7.011720
v 0.050532 -0.167319 7.020700
v 0.046954 -0.166103 7.024385
v 0.059741 -0.166474 7.013519
v 0.050883 -0.164788 7.020576
v 0.046130 -0.166249 7.022850
v 0.047154 -0.167003 7.022971
v 0.046770 -0.166601 7.023639
v 0.046962 -0.165261 7.023014
v 0.047138 -0.166430 7.024693
v 0.046774 -0.166692 7.023450
v 0.058040 -0.167143 7.015741
v 0.046983 -0.166918 7.023235
v 0.048791 -0.167072 7.021985
v 0.046817 -0.166817 7.023229
v 0.046196 -0.166199 7.022924
v 0.046864 -0.166546 7.023982
v 0.046196 -0.166199 7.022924
v 0.046581 -0.165839 7.023071
v 0.046913 -0.166199 7.024333
vn 0.8524 0.2679 0.4491
vn 0.6366 -0.2428 0.7320
vn 0.8425 0.1590 0.5147
vn 0.7435 0.5976 -0.3001
vn -0.0756 0.4874 -0.8699
vn 0.8157 0.5428 -0.2000
vn 0.0787 0.9474 -0.3101
vn -0.7992 -0.3009 -0.5203
vn -0.5297 0.1464 -0.8355
vn -0.7125 -0.3005 -0.6341
vn -0.7623 -0.5507 -0.3400
vn -0.7372 -0.5057 -0.4482
vn -0.7700 -0.5019 -0.3940
vn -0.7142 0.1262 -0.6885
vn 0.6164 -0.2011 0.7613
vn 0.6296 0.7660 -0.1301
vn -0.7630 -0.5906 -0.2628
vn -0.5061 -0.7657 0.3969
vn -0.4322 -0.8456 0.3132
vn -0.3502 -0.9096 0.2237
vn 0.0140 -0.9615 0.2743
vn 0.5880 -0.2533 0.7682
vn -0.1044 -0.8689 0.4839
vn -0.0556 -0.8131 0.5795
vn 0.5507 0.8321 0.0664
vn -0.8309 -0.2706 -0.4863
vn -0.7312 -0.3241 -0.6003
vn 0.1350 -0.9400 0.3135
vn 0.3930 0.6317 0.6682
vn 0.4863 0.5833 0.6506
vn 0.4755 0.6853 0.5516
vn -0.5829 -0.1601 -0.7966
vn -0.5758 -0.2702 -0.7717
vn -0.5285 -0.6748 -0.5150
vn -0.4569 -0.7193 -0.5233
vn -0.5957 0.0463 -0.8018
vn -0.5877 0.1117 -0.8013
vn -0.6310 0.1595 -0.7592
vn 0.2765 0.8128 0.5127
vn 0.0371 -0.9765 0.2122
vn 0.1050 -0.9785 0.1775
vn 0.0857 -0.9793 0.1835
s 1
f 11//1 13//2 12//3
f 4//4 7//5 3//6
f 7//5 4//4 18//7
f 17//8 19//9 16//10
f 15//11 20//12 14//13
f 19//9 21//14 16//10
f 11//1 23//15 13//2
f 18//7 24//16 7//5
f 25//17 20//12 15//11
f 26//18 27//19 28//19
f 28//19 27//19 29//20
f 25//17 32//21 20//12
f 13//2 23//15 30//22
f 31//23 32//21 33//24
f 34//25 35//25 36//25
f 21//14 19//9 41//26
f 19//9 42//27 41//26
f 20//12 32//21 45//28
f 45//28 32//21 31//23
f 46//29 37//30 38//31
f 43//32 44//33 49//34
f 44//33 50//35 49//34
f 47//36 51//37 48//38
f 46//29 38//31 52//39
f 53//40 54//41 55//42
l 5 6
l 39 40
l 58 59
l 9 10
l 1 2
l 8 22
l 56 57
l 60 61
l 62 63
