# Blender v2.78 (sub 0) OBJ File: 'exporter.blend'
# www.blender.org
o FJ1710M.obj_grp1.610
v 0.239561 -0.163020 7.089135
v 0.236837 -0.162905 7.081358
v 0.240800 -0.162762 7.089910
v 0.241535 -0.160151 7.093120
v 0.242308 -0.161504 7.099916
v 0.241588 -0.162419 7.091537
v 0.242131 -0.164212 7.093062
v 0.241150 -0.164617 7.092003
v 0.241253 -0.164641 7.093992
v 0.239444 -0.163382 7.087710
v 0.240350 -0.163516 7.092433
v 0.239915 -0.162400 7.094337
v 0.241770 -0.161727 7.101394
v 0.240523 -0.161406 7.100247
v 0.240331 -0.161504 7.091747
v 0.238959 -0.161989 7.092529
v 0.237269 -0.164848 7.083210
v 0.243097 -0.162443 7.100855
v 0.242174 -0.162252 7.103724
v 0.243109 -0.163981 7.098027
v 0.243097 -0.162443 7.100855
v 0.242633 -0.159517 7.105526
v 0.240331 -0.161504 7.091747
v 0.241412 -0.162083 7.102583
v 0.242188 -0.160455 7.101593
v 0.239233 -0.161942 7.100096
v 0.239294 -0.161884 7.102303
v 0.240816 -0.159626 7.105550
v 0.241901 -0.157644 7.109270
v 0.242209 -0.162593 7.103509
v 0.241292 -0.161632 7.104944
v 0.240816 -0.159626 7.105550
v 0.242554 -0.159626 7.105550
v 0.242209 -0.160675 7.102732
v 0.241923 -0.157749 7.109305
v 0.241302 -0.157742 7.107474
v 0.243764 -0.157649 7.105498
v 0.242730 -0.154690 7.111769
v 0.242093 -0.160506 7.104542
v 0.239708 -0.160780 7.104426
v 0.239695 -0.158589 7.107380
v 0.241595 -0.160464 7.106193
v 0.241302 -0.157742 7.107474
v 0.240505 -0.154685 7.111915
v 0.241042 -0.156507 7.108121
v 0.241038 -0.154490 7.110694
v 0.240670 -0.154687 7.112513
v 0.241369 -0.153351 7.111907
v 0.239150 -0.154932 7.112122
v 0.241923 -0.157749 7.109305
v 0.240789 -0.154989 7.112494
v 0.240331 -0.154932 7.113248
v 0.240675 -0.154552 7.112309
v 0.240331 -0.154932 7.113248
v 0.239150 -0.154932 7.112122
v 0.240331 -0.154932 7.113248
v 0.240331 -0.153853 7.112122
v 0.231967 -0.163599 7.078191
v 0.228466 -0.167720 7.075560
v 0.229057 -0.166193 7.076005
v 0.227142 -0.165956 7.073106
v 0.233819 -0.163454 7.079343
v 0.228899 -0.166532 7.076471
v 0.223551 -0.168472 7.069985
v 0.234322 -0.162481 7.080629
v 0.233777 -0.164321 7.080433
v 0.234025 -0.164653 7.077953
v 0.236269 -0.164870 7.080438
v 0.231460 -0.167352 7.080083
v 0.232895 -0.163382 7.082077
v 0.232895 -0.164146 7.080950
v 0.234990 -0.163838 7.082164
v 0.227354 -0.166251 7.072989
v 0.224381 -0.166062 7.070949
v 0.234011 -0.164782 7.080554
v 0.235710 -0.163648 7.084095
v 0.238658 -0.162443 7.091043
v 0.232395 -0.163714 7.082776
v 0.235710 -0.163648 7.084095
v 0.223304 -0.167960 7.065866
v 0.223131 -0.168679 7.067843
v 0.222525 -0.169023 7.066086
v 0.222282 -0.168474 7.065335
v 0.220167 -0.169029 7.061560
v 0.223382 -0.168805 7.067821
v 0.221008 -0.167851 7.066263
v 0.224685 -0.166199 7.072687
v 0.224685 -0.166199 7.072687
v 0.224570 -0.166194 7.070696
v 0.225930 -0.166542 7.072366
v 0.223305 -0.168306 7.069869
v 0.220614 -0.167703 7.061420
v 0.221506 -0.169016 7.061420
v 0.220174 -0.169442 7.061420
v 0.219130 -0.170258 7.062901
v 0.220722 -0.167272 7.062844
v 0.220739 -0.167491 7.063191
v 0.219598 -0.168265 7.061528
v 0.219782 -0.169124 7.061792
v 0.220025 -0.168107 7.062453
v 0.220614 -0.168090 7.065176
v 0.220614 -0.167703 7.061420
vn 0.9673 0.1120 -0.2276
vn 0.8302 0.5168 -0.2090
vn 0.7518 0.4087 -0.5175
vn 0.9319 -0.0277 -0.3616
vn 0.9625 0.0828 -0.2585
vn 0.8785 -0.1273 -0.4606
vn -0.9902 -0.0673 0.1223
vn -0.6361 -0.7403 0.2174
vn -0.5513 -0.7939 0.2564
vn -0.3375 0.9402 -0.0467
vn -0.3978 0.9166 -0.0396
vn -0.2956 0.9545 -0.0401
vn -0.2822 -0.9441 0.1703
vn 0.9741 0.1622 -0.1576
vn 0.8095 0.5287 -0.2553
vn 0.8442 0.4397 -0.3066
vn -0.2271 -0.9257 0.3025
vn 0.2349 -0.6753 0.6992
vn -0.8690 0.4819 0.1125
vn -0.9255 0.3498 -0.1455
vn -0.9027 0.4225 -0.0810
vn -0.9082 0.2141 -0.3596
vn 0.9536 -0.2085 0.2171
vn -0.0000 0.8440 -0.5363
vn 0.0000 0.9372 -0.3488
vn 0.2557 -0.7413 0.6206
vn 0.1734 -0.7798 0.6015
vn 0.2618 -0.7307 0.6305
vn 0.0000 0.7139 -0.7002
vn -0.9772 -0.0876 0.1935
vn -0.0426 0.9338 -0.3553
vn -0.0976 0.9147 -0.3923
vn -0.0576 0.9199 -0.3879
vn -0.9950 -0.0562 -0.0820
vn -0.8777 0.2566 -0.4048
vn -0.0559 0.7781 -0.6257
vn -0.0130 0.7115 -0.7026
vn 0.2390 -0.7420 0.6263
vn -0.5510 0.6029 0.5770
vn 0.7033 -0.5433 -0.4585
vn 0.7860 0.2896 -0.5462
vn 0.7469 -0.5848 -0.3166
vn -0.6438 0.0762 0.7614
vn -0.1109 -0.9740 0.1977
vn -0.6902 0.5444 0.4767
vn 0.7712 -0.2486 -0.5861
vn 0.7300 -0.2031 -0.6526
vn 0.7124 -0.1444 -0.6868
vn 0.4239 0.7370 -0.5264
vn 0.2199 0.9473 -0.2330
vn -0.3129 -0.9254 0.2138
vn -0.0442 -0.9631 0.2653
vn -0.0581 -0.9793 0.1941
vn -0.0148 -0.9769 0.2134
vn -0.3633 0.9127 -0.1871
vn -0.5434 -0.1896 0.8178
vn -0.5654 -0.1422 0.8124
vn -0.5846 -0.1829 0.7904
vn 0.7553 -0.6102 -0.2393
vn 0.6394 -0.7433 -0.1967
vn 0.1593 -0.9843 0.0763
vn -0.0687 -0.9956 -0.0643
vn -0.3678 -0.8933 0.2583
vn -0.5462 -0.7920 0.2729
vn 0.8376 -0.0475 -0.5443
vn 0.8384 0.2244 -0.4967
vn -0.3351 -0.6027 0.7242
vn -0.2229 0.9747 -0.0157
vn -0.2509 0.9678 -0.0202
vn -0.1011 0.9938 -0.0453
vn 0.0367 0.9821 -0.1847
vn -0.0007 -0.0002 -1.0000
vn -0.0010 -0.0001 -1.0000
vn -0.7214 0.5189 0.4587
vn -0.8569 0.3727 0.3560
vn -0.6747 0.7362 0.0527
vn -0.7079 0.5517 0.4410
vn -0.9729 0.1003 0.2083
vn -0.9727 0.0975 0.2104
vn -0.9722 0.0994 0.2121
vn -0.4691 0.8816 -0.0529
s 1
f 4//1 5//2 3//3
f 6//4 7//5 10//6
f 13//7 12//8 11//9
f 14//10 15//11 16//12
f 11//9 12//8 17//13
f 7//5 6//4 18//14
f 3//3 5//2 21//15
f 5//2 22//16 21//15
f 20//17 19//18 11//9
f 11//9 19//18 13//7
f 23//19 24//20 25//21
f 25//21 24//20 28//22
f 29//23 19//18 20//17
f 32//24 33//24 34//25
f 35//26 31//27 30//28
f 32//24 36//29 33//24
f 39//30 13//7 19//18
f 37//31 44//32 38//33
f 43//34 42//35 47//36
f 42//35 49//37 47//36
f 35//26 52//38 31//27
f 55//39 56//39 57//39
f 60//40 61//41 62//42
f 65//43 64//44 63//45
f 58//46 66//47 59//48
f 73//49 4//1 3//3
f 73//49 74//50 4//1
f 75//51 17//13 12//8
f 76//52 77//53 78//54
f 72//55 16//12 15//11
f 70//56 69//57 79//58
f 80//59 81//60 82//61
f 84//62 80//59 82//61
f 81//60 80//59 60//40
f 80//59 61//41 60//40
f 85//63 63//45 64//44
f 86//64 85//63 64//44
f 83//65 96//66 73//49
f 96//66 74//50 73//49
f 82//61 85//63 86//64
f 65//43 87//67 64//44
f 89//68 88//69 71//70
f 71//70 72//71 89//68
f 92//72 93//73 94//72
f 90//74 97//75 98//76
f 98//76 91//77 90//74
f 86//64 84//62 82//61
f 99//78 101//79 100//80
f 97//75 102//81 98//76
l 1 2
l 45 46
l 8 9
l 53 54
l 40 41
l 26 27
l 83 95
l 67 68
l 50 51
l 39 48
