# Blender v2.78 (sub 0) OBJ File: 'exporter.blend'
# www.blender.org
o FJ1753.obj_grp1.672
v 0.086075 -0.468342 7.200620
v 0.085873 -0.461680 7.209164
v 0.109420 -0.456256 7.219797
v 0.098851 -0.474760 7.197666
v 0.091540 -0.483687 7.195642
v 0.084362 -0.484588 7.199636
v 0.076779 -0.472543 7.208078
v 0.080175 -0.487405 7.211283
v 0.086768 -0.456243 7.227832
v 0.078701 -0.464387 7.225972
v 0.075881 -0.478206 7.220552
v 0.120234 -0.423738 7.229934
v 0.124668 -0.418920 7.232548
v 0.122778 -0.419903 7.232111
v 0.124396 -0.419186 7.234558
v 0.122781 -0.426057 7.227531
v 0.131476 -0.435219 7.231009
v 0.129990 -0.439340 7.222075
v 0.121081 -0.421189 7.232117
v 0.124399 -0.419121 7.234751
v 0.122832 -0.419280 7.232211
v 0.109945 -0.438245 7.237515
v 0.112780 -0.434868 7.232211
v 0.114966 -0.431372 7.231382
v 0.095831 -0.451080 7.232305
v 0.105158 -0.450044 7.224471
v 0.122886 -0.488140 7.191905
v 0.090780 -0.499196 7.209340
v 0.107654 -0.444840 7.243637
v 0.080565 -0.475183 7.236726
v 0.080643 -0.488628 7.222733
v 0.142915 -0.448923 7.212618
v 0.149204 -0.456782 7.204915
v 0.122129 -0.453112 7.219120
v 0.130915 -0.436743 7.240472
v 0.123627 -0.446017 7.248769
v 0.126590 -0.501080 7.195156
v 0.099481 -0.498458 7.200428
v 0.083682 -0.470715 7.240349
v 0.151166 -0.453984 7.212434
v 0.144184 -0.450224 7.210896
v 0.138803 -0.487261 7.193216
v 0.153999 -0.468921 7.202721
v 0.120027 -0.504100 7.202472
v 0.095417 -0.502076 7.223822
v 0.096703 -0.500435 7.232419
v 0.103060 -0.476768 7.252071
v 0.089494 -0.482778 7.244770
v 0.157104 -0.469112 7.218548
v 0.152898 -0.481251 7.202850
v 0.149297 -0.457199 7.232541
v 0.139105 -0.499278 7.198861
v 0.133307 -0.505189 7.214184
v 0.140861 -0.460755 7.245729
v 0.093728 -0.492198 7.243133
v 0.149480 -0.470794 7.238743
v 0.152121 -0.489811 7.221198
v 0.141248 -0.497769 7.232547
v 0.129260 -0.473963 7.250574
v 0.132538 -0.501530 7.234942
v 0.125786 -0.488055 7.247396
v 0.151052 -0.483021 7.233873
v 0.141018 -0.483439 7.243525
vn -0.3318 0.5025 -0.7984
vn -0.3832 0.8172 -0.4304
vn 0.0051 0.6262 -0.7797
vn 0.0539 0.4743 -0.8787
vn -0.2556 -0.0919 -0.9624
vn -0.6637 -0.2891 -0.6899
vn -0.8954 0.1897 -0.4027
vn -0.8506 -0.4849 -0.2032
vn -0.5944 0.7967 0.1093
vn -0.8755 0.4668 0.1247
vn 0.4002 0.8611 -0.3136
vn -0.6064 0.5807 -0.5432
vn -0.3523 0.7122 -0.6072
vn -0.4703 0.8810 0.0521
vn 0.7996 0.5932 -0.0937
vn 0.0156 0.3702 -0.9288
vn -0.6940 0.5917 0.4101
vn 0.2761 0.7253 0.6306
vn -0.6897 0.6133 0.3850
vn -0.6634 0.7155 0.2191
vn -0.7718 0.6358 -0.0076
vn -0.3768 0.3320 -0.8648
vn 0.0389 0.6366 -0.7703
vn -0.5518 0.8003 -0.2345
vn -0.2213 0.6680 -0.7105
vn 0.0256 0.1538 -0.9878
vn -0.5098 -0.8199 -0.2605
vn -0.4518 0.5055 0.7351
vn -0.9840 -0.1494 0.0972
vn -0.8715 -0.0768 0.4843
vn -0.8100 -0.5589 0.1777
vn 0.0247 0.7745 -0.6321
vn 0.3296 0.5634 -0.7576
vn -0.2862 0.4853 -0.8262
vn 0.6771 0.4097 0.6113
vn 0.1103 0.3212 0.9406
vn 0.0942 -0.6799 -0.7272
vn -0.3128 -0.7232 -0.6157
vn -0.6952 0.2559 0.6717
vn 0.7822 0.6087 -0.1327
vn 0.5019 0.7942 -0.3426
vn 0.7665 0.1776 -0.6172
vn 0.2973 -0.0562 -0.9531
vn -0.0374 -0.9669 -0.2523
vn -0.3685 -0.9232 0.1093
vn -0.3376 -0.8687 0.3625
vn -0.4031 -0.6122 0.6802
vn -0.2302 -0.0677 0.9708
vn -0.5971 -0.2311 0.7681
vn 0.9935 0.0961 0.0611
vn 0.8485 -0.2623 -0.4596
vn 0.8292 0.4169 0.3722
vn 0.5339 -0.6929 -0.4847
vn 0.3052 -0.9522 0.0102
vn 0.5681 0.1840 0.8021
vn 0.7917 0.0254 0.6104
vn 0.8602 -0.5071 0.0540
vn 0.5777 -0.6964 0.4258
vn 0.2135 -0.8314 0.5130
vn 0.2262 -0.0919 0.9697
vn 0.1191 -0.5018 0.8567
vn 0.8253 -0.3076 0.4736
vn 0.4938 -0.3329 0.8033
s 1
f 1//1 2//2 3//3
f 1//1 3//3 4//4
f 5//5 1//1 4//4
f 6//6 1//1 5//5
f 2//2 1//1 7//7
f 1//1 6//6 7//7
f 7//7 6//6 8//8
f 9//9 2//2 10//10
f 2//2 7//7 10//10
f 13//11 12//12 14//13
f 14//13 15//14 13//11
f 13//11 17//15 16//16
f 13//11 16//16 12//12
f 19//17 20//18 21//19
f 14//13 12//12 22//20
f 20//18 19//17 22//20
f 23//21 22//20 12//12
f 12//12 16//16 24//22
f 18//23 24//22 16//16
f 25//24 24//22 26//25
f 5//5 4//4 27//26
f 25//24 22//20 23//21
f 3//3 2//2 26//25
f 26//25 9//9 25//24
f 2//2 9//9 26//25
f 8//8 6//6 28//27
f 25//24 9//9 29//28
f 11//29 7//7 8//8
f 7//7 11//29 10//10
f 30//30 10//10 11//29
f 11//29 8//8 31//31
f 32//32 33//33 18//23
f 32//32 18//23 17//15
f 18//23 33//33 34//34
f 33//33 27//26 34//34
f 17//15 13//11 20//18
f 35//35 17//15 20//18
f 17//15 18//23 16//16
f 24//22 18//23 34//34
f 3//3 34//34 27//26
f 36//36 20//18 29//28
f 34//34 26//25 24//22
f 34//34 3//3 26//25
f 4//4 3//3 27//26
f 27//26 37//37 5//5
f 29//28 20//18 22//20
f 6//6 5//5 38//38
f 38//38 28//27 6//6
f 5//5 37//37 38//38
f 25//24 29//28 22//20
f 8//8 28//27 31//31
f 29//28 9//9 39//39
f 39//39 9//9 10//10
f 30//30 39//39 10//10
f 40//40 33//33 41//41
f 43//42 42//43 33//33
f 43//42 33//33 40//40
f 40//40 41//41 17//15
f 40//40 17//15 35//35
f 42//43 27//26 33//33
f 17//15 41//41 32//32
f 42//43 37//37 27//26
f 44//44 38//38 37//37
f 36//36 35//35 20//18
f 44//44 28//27 38//38
f 45//45 28//27 44//44
f 46//46 55//47 31//31
f 31//31 28//27 45//45
f 45//45 46//46 31//31
f 39//39 47//48 29//28
f 39//39 30//30 48//49
f 30//30 11//29 31//31
f 55//47 30//30 31//31
f 43//42 40//40 49//50
f 42//43 43//42 50//51
f 40//40 35//35 51//52
f 52//53 42//43 50//51
f 52//53 37//37 42//43
f 52//53 53//54 37//37
f 54//55 51//52 35//35
f 53//54 44//44 37//37
f 53//54 45//45 44//44
f 29//28 47//48 36//36
f 48//49 47//48 39//39
f 55//47 47//48 48//49
f 48//49 30//30 55//47
f 43//42 49//50 50//51
f 40//40 51//52 49//50
f 51//52 56//56 49//50
f 52//53 50//51 57//57
f 56//56 51//52 54//55
f 53//54 52//53 57//57
f 57//57 58//58 53//54
f 60//59 53//54 58//58
f 35//35 36//36 54//55
f 46//46 45//45 53//54
f 36//36 47//48 59//60
f 59//60 47//48 61//61
f 61//61 47//48 55//47
f 55//47 46//46 60//59
f 55//47 60//59 61//61
f 62//62 49//50 56//56
f 49//50 57//57 50//51
f 57//57 49//50 62//62
f 62//62 56//56 63//63
f 62//62 58//58 57//57
f 56//56 54//55 63//63
f 54//55 59//60 63//63
f 36//36 59//60 54//55
f 63//63 59//60 61//61
f 63//63 61//61 60//59
f 46//46 53//54 60//59
f 58//58 62//62 63//63
f 58//58 63//63 60//59
