# Blender v2.78 (sub 0) OBJ File: 'exporter.blend'
# www.blender.org
o FJ1714M.obj_grp1.618
v 0.082336 -0.406651 7.185369
v 0.078527 -0.421511 7.187805
v 0.075442 -0.429041 7.181615
v 0.082793 -0.396198 7.188823
v 0.079278 -0.407332 7.190750
v 0.079558 -0.400585 7.182819
v 0.081165 -0.381683 7.190656
v 0.080211 -0.380443 7.185338
v 0.079642 -0.370593 7.189667
v 0.073903 -0.357566 7.195109
v 0.075294 -0.355838 7.190698
v 0.073382 -0.421010 7.180701
v 0.072656 -0.436249 7.185407
v 0.068607 -0.433717 7.188404
v 0.074841 -0.409885 7.189707
v 0.074770 -0.397592 7.188848
v 0.070707 -0.419171 7.184499
v 0.074836 -0.402796 7.183905
v 0.074384 -0.393419 7.186297
v 0.076197 -0.383585 7.184095
v 0.076709 -0.390998 7.191743
v 0.076709 -0.390998 7.191743
v 0.070878 -0.369946 7.189114
v 0.071749 -0.370779 7.192045
v 0.070022 -0.366826 7.189618
v 0.072007 -0.371823 7.191930
v 0.073854 -0.368926 7.193848
v 0.068059 -0.348874 7.189734
v 0.074275 -0.358905 7.187705
v 0.069977 -0.357382 7.195764
v 0.066741 -0.330841 7.200148
v 0.067764 -0.335751 7.201136
v 0.066836 -0.335522 7.195037
v 0.066913 -0.445517 7.185440
v 0.066575 -0.442516 7.180315
v 0.058045 -0.447005 7.180614
v 0.063602 -0.443192 7.188832
v 0.057397 -0.453062 7.190182
v 0.067445 -0.428500 7.186661
v 0.059811 -0.440636 7.186200
v 0.064752 -0.433059 7.182290
v 0.063353 -0.342256 7.193647
v 0.068508 -0.344595 7.199301
v 0.062841 -0.339783 7.200392
v 0.060616 -0.337180 7.198910
v 0.061140 -0.329178 7.198077
v 0.066713 -0.332935 7.202493
v 0.063984 -0.334221 7.204230
v 0.063927 -0.334061 7.204290
v 0.060530 -0.314038 7.213854
v 0.054416 -0.454302 7.183100
v 0.061905 -0.449668 7.182286
v 0.054957 -0.456695 7.187181
v 0.054058 -0.450310 7.191510
v 0.058154 -0.442733 7.182635
v 0.055965 -0.444919 7.187668
v 0.050197 -0.448970 7.186820
v 0.056869 -0.324269 7.203760
v 0.050843 -0.289852 7.222097
v 0.052116 -0.309416 7.216413
v 0.061392 -0.314501 7.211601
v 0.053494 -0.289869 7.222651
v 0.048601 -0.291850 7.222497
v 0.061392 -0.314501 7.211601
v 0.054879 -0.291396 7.225061
v 0.051766 -0.295084 7.227611
v 0.045175 -0.460915 7.191344
v 0.047266 -0.456958 7.186081
v 0.044730 -0.459298 7.197429
v 0.048901 -0.450011 7.190533
v 0.035495 -0.456599 7.202406
v 0.043932 -0.452307 7.194859
v 0.048496 -0.292190 7.226060
v 0.053557 -0.291261 7.227103
v 0.051394 -0.289102 7.224989
v 0.050657 -0.291396 7.227336
v 0.032508 -0.458146 7.193847
v 0.037511 -0.462614 7.197381
v 0.038824 -0.454198 7.191930
v 0.032572 -0.453712 7.197578
v 0.032052 -0.462114 7.197227
v 0.035011 -0.459789 7.202384
v 0.030725 -0.460150 7.195626
v 0.030515 -0.456134 7.195949
v 0.032936 -0.454612 7.200783
v 0.032038 -0.458301 7.202178
v 0.032123 -0.461642 7.200335
v 0.030096 -0.456809 7.198974
vn 0.7965 -0.3338 0.5041
vn 0.9560 -0.1177 -0.2689
vn 0.9560 0.0229 0.2926
vn 0.4181 -0.1268 0.8995
vn 0.7330 -0.2973 -0.6118
vn 0.3122 0.1059 -0.9441
vn 0.8750 0.0806 0.4774
vn 0.6920 0.1691 -0.7018
vn 0.9643 0.2648 0.0052
vn 0.3961 -0.0662 0.9158
vn 0.8867 0.3536 -0.2978
vn 0.8284 -0.5002 0.2521
vn -0.1840 0.0824 0.9795
vn -0.2079 0.1436 -0.9676
vn -0.5940 0.0545 0.8026
vn -0.9214 0.2867 -0.2626
vn -0.9493 -0.0400 0.3118
vn -0.6714 0.1456 -0.7266
vn -0.9897 -0.0538 -0.1324
vn -0.3107 0.0889 -0.9463
vn -0.6665 -0.1091 0.7375
vn -0.4704 -0.1155 0.8748
vn -0.8129 -0.0964 -0.5744
vn -0.8925 -0.1770 0.4148
vn -0.8836 -0.3017 0.3581
vn -0.6036 -0.2035 0.7708
vn -0.2930 -0.1857 0.9379
vn 0.3816 0.2622 -0.8864
vn -0.3386 -0.3360 0.8789
vn -0.2220 0.2166 -0.9507
vn 0.8711 0.4367 -0.2248
vn 0.8228 0.0728 0.5636
vn 0.4455 0.5323 -0.7199
vn 0.4449 -0.3459 -0.8260
vn 0.7954 -0.5472 0.2607
vn -0.3017 0.0167 -0.9532
vn 0.1922 -0.0015 0.9814
vn 0.5788 -0.4455 0.6830
vn -0.8067 0.3153 0.4998
vn -0.7449 0.6303 0.2188
vn -0.8235 0.4474 -0.3489
vn -0.7545 0.0252 -0.6558
vn 0.2158 -0.2491 0.9441
vn -0.5190 -0.4824 0.7056
vn -0.9526 -0.3017 0.0389
vn -0.3354 0.3803 -0.8619
vn 0.9461 0.1869 0.2645
vn -0.4006 -0.4656 0.7892
vn 0.2088 -0.4124 0.8868
vn 0.8113 -0.0932 0.5772
vn 0.5064 -0.6360 -0.5823
vn 0.0169 -0.5679 -0.8229
vn 0.4497 -0.8879 -0.0970
vn 0.1469 0.3418 0.9282
vn -0.4375 0.6263 0.6452
vn -0.5937 0.7885 -0.1605
vn -0.7045 0.5488 -0.4500
vn -0.9036 0.0031 -0.4285
vn -0.8884 -0.3636 0.2802
vn 0.9503 0.1202 0.2873
vn -0.3291 0.7670 -0.5508
vn 0.4504 0.8123 -0.3706
vn -0.8920 0.3139 -0.3254
vn 0.8976 0.3979 -0.1899
vn 0.8638 0.4491 0.2285
vn -0.0220 -0.3355 0.9418
vn 0.5197 -0.4988 0.6937
vn 0.1380 -0.9600 -0.2437
vn -0.2851 -0.4728 -0.8338
vn -0.2852 0.9010 0.3269
vn 0.1551 0.3191 0.9350
vn -0.1791 0.9484 0.2615
vn -0.8656 0.1778 0.4681
vn 0.5393 0.4158 0.7323
vn -0.1625 0.9592 0.2313
vn -0.3055 0.4497 0.8393
vn 0.1270 -0.9831 0.1319
vn -0.5585 -0.0044 -0.8295
vn -0.4205 0.8494 -0.3190
vn -0.4558 0.8889 -0.0464
vn -0.4699 -0.8657 -0.1726
vn -0.4965 -0.7128 0.4954
vn 0.1310 -0.4159 0.8999
vn -0.7905 -0.4455 -0.4203
vn -0.8258 0.3997 -0.3978
vn -0.3505 0.7551 0.5541
vn -0.5550 -0.0105 0.8318
vn -0.9555 0.1723 0.2393
s 1
f 2//1 1//2 4//3
f 4//3 5//4 2//1
f 3//5 6//6 1//2
f 7//7 5//4 4//3
f 8//8 4//3 1//2
f 4//3 8//8 9//9
f 8//8 1//2 6//6
f 4//3 9//9 7//7
f 10//10 5//4 7//7
f 9//9 8//8 11//11
f 1//2 2//1 3//5
f 13//12 3//5 2//1
f 14//13 2//1 5//4
f 6//6 3//5 12//14
f 5//4 15//15 14//13
f 17//16 15//15 16//17
f 18//18 12//14 17//16
f 12//14 18//18 6//6
f 17//16 16//17 18//18
f 18//18 16//17 19//19
f 6//6 18//18 20//20
f 15//15 21//21 16//17
f 5//4 22//22 15//15
f 6//6 20//20 8//8
f 18//18 19//19 20//20
f 19//19 23//23 20//20
f 24//24 25//25 19//19
f 19//19 16//17 24//24
f 5//4 10//10 22//22
f 16//17 21//21 26//26
f 27//27 26//26 21//21
f 10//10 27//27 22//22
f 11//11 8//8 29//28
f 20//20 29//28 8//8
f 7//7 9//9 10//10
f 30//29 26//26 27//27
f 26//26 30//29 24//24
f 28//30 29//28 20//20
f 10//10 30//29 27//27
f 9//9 11//11 31//31
f 10//10 9//9 32//32
f 9//9 31//31 32//32
f 29//28 28//30 33//33
f 33//33 11//11 29//28
f 35//34 3//5 34//35
f 36//36 12//14 35//34
f 3//5 13//12 34//35
f 2//1 14//13 37//37
f 34//35 2//1 37//37
f 13//12 2//1 34//35
f 34//35 37//37 38//38
f 35//34 12//14 3//5
f 14//13 39//39 40//40
f 12//14 36//36 41//41
f 39//39 14//13 15//15
f 39//39 17//16 41//41
f 41//41 40//40 39//39
f 12//14 41//41 17//16
f 39//39 15//15 17//16
f 25//25 24//24 30//29
f 28//30 20//20 42//42
f 30//29 10//10 43//43
f 20//20 23//23 42//42
f 25//25 30//29 44//44
f 45//45 25//25 44//44
f 25//25 45//45 42//42
f 32//32 43//43 10//10
f 43//43 44//44 30//29
f 31//31 11//11 33//33
f 46//46 33//33 28//30
f 46//46 28//30 42//42
f 32//32 31//31 47//47
f 43//43 48//48 44//44
f 43//43 32//32 49//49
f 32//32 50//50 49//49
f 52//51 36//36 35//34
f 51//52 36//36 52//51
f 35//34 34//35 52//51
f 52//51 34//35 53//53
f 54//54 38//38 37//37
f 52//51 53//53 51//52
f 34//35 38//38 53//53
f 37//37 14//13 56//55
f 54//54 37//37 56//55
f 57//56 40//40 55//57
f 41//41 36//36 55//57
f 40//40 56//55 14//13
f 40//40 41//41 55//57
f 45//45 58//58 42//42
f 45//45 44//44 60//59
f 46//46 42//42 58//58
f 47//47 31//31 61//60
f 47//47 61//60 50//50
f 49//49 44//44 48//48
f 46//46 59//61 62//62
f 62//62 33//33 46//46
f 59//61 46//46 63//63
f 33//33 64//64 31//31
f 64//64 33//33 65//65
f 61//60 65//65 50//50
f 33//33 62//62 65//65
f 50//50 66//66 49//49
f 53//53 38//38 69//67
f 67//68 53//53 69//67
f 51//52 67//68 68//69
f 53//53 67//68 51//52
f 38//38 54//54 69//67
f 55//57 36//36 57//56
f 54//54 56//55 70//70
f 68//69 36//36 51//52
f 70//70 56//55 57//56
f 54//54 71//71 69//67
f 72//72 54//54 70//70
f 40//40 57//56 56//55
f 58//58 63//63 46//46
f 58//58 45//45 60//59
f 49//49 66//66 44//44
f 44//44 66//66 60//59
f 60//59 66//66 73//73
f 74//74 66//66 50//50
f 50//50 65//65 74//74
f 62//62 75//75 65//65
f 65//65 75//75 74//74
f 76//76 66//66 74//74
f 59//61 75//75 62//62
f 76//76 74//74 75//75
f 76//76 75//75 73//73
f 66//66 76//76 73//73
f 78//77 67//68 69//67
f 77//78 36//36 68//69
f 57//56 36//36 79//79
f 72//72 71//71 54//54
f 70//70 57//56 79//79
f 79//79 72//72 70//70
f 80//80 72//72 79//79
f 58//58 60//59 63//63
f 60//59 73//73 63//63
f 75//75 59//61 63//63
f 63//63 73//73 75//75
f 67//68 78//77 81//81
f 87//82 78//77 82//83
f 81//81 78//77 87//82
f 77//78 79//79 36//36
f 67//68 83//84 68//69
f 83//84 77//78 68//69
f 83//84 67//68 81//81
f 79//79 77//78 84//85
f 82//83 78//77 69//67
f 72//72 85//86 71//71
f 69//67 71//71 82//83
f 86//87 82//83 71//71
f 80//80 79//79 84//85
f 72//72 80//80 85//86
f 84//85 77//78 83//84
f 83//84 88//88 84//85
f 87//82 82//83 86//87
f 86//87 71//71 85//86
f 86//87 85//86 88//88
f 88//88 85//86 80//80
f 81//81 87//82 83//84
f 88//88 83//84 87//82
f 87//82 86//87 88//88
f 80//80 84//85 88//88
