# Blender v2.78 (sub 0) OBJ File: 'exporter.blend'
# www.blender.org
o FJ1722M.obj_grp1.634
v 0.102410 -0.490994 7.616853
v 0.102865 -0.490965 7.618426
v 0.104431 -0.491987 7.617587
v 0.104165 -0.492974 7.616106
v 0.076121 -0.491651 7.628294
v 0.103688 -0.490617 7.618632
v 0.102288 -0.490618 7.615393
v 0.068222 -0.489137 7.633534
v 0.102014 -0.491792 7.618742
v 0.100804 -0.491805 7.617668
v 0.103525 -0.491952 7.619288
v 0.104161 -0.490568 7.618733
v 0.103978 -0.491362 7.618275
v 0.102309 -0.490599 7.615433
v 0.100818 -0.489825 7.618564
v 0.102359 -0.490777 7.615544
v 0.101107 -0.489186 7.617827
v 0.055690 -0.486595 7.635551
v 0.071325 -0.487374 7.629939
v 0.081268 -0.490876 7.629602
v 0.065184 -0.491671 7.633741
v 0.065657 -0.492075 7.633730
v 0.071778 -0.489017 7.633446
v 0.081636 -0.491036 7.629282
v 0.073945 -0.491128 7.630559
v 0.056758 -0.489345 7.637273
v 0.060058 -0.487782 7.636559
v 0.040487 -0.487723 7.635747
v 0.041454 -0.490758 7.637222
v 0.050199 -0.489223 7.632756
v 0.054437 -0.485676 7.634192
v 0.043157 -0.490280 7.634164
v 0.042133 -0.490476 7.633948
v 0.050300 -0.487740 7.637864
v 0.041036 -0.486421 7.635056
v 0.054424 -0.485965 7.634164
v 0.033073 -0.487998 7.631933
v 0.026218 -0.483864 7.633772
v 0.034311 -0.488836 7.626044
v 0.038793 -0.487796 7.637418
v 0.043274 -0.485111 7.634164
v 0.020982 -0.486122 7.630295
v 0.029161 -0.487684 7.634117
v 0.030595 -0.485741 7.634884
v 0.022885 -0.486379 7.623072
v 0.022945 -0.483401 7.626976
v 0.017651 -0.632972 7.455151
v 0.015011 -0.632940 7.452140
v 0.017324 -0.632785 7.455392
v 0.013531 -0.629635 7.454360
v 0.013598 -0.623877 7.464625
v 0.014987 -0.632931 7.452200
v 0.012237 -0.620098 7.482948
v 0.011865 -0.606519 7.484529
v 0.016456 -0.540834 7.537545
v 0.015223 -0.537474 7.547878
v 0.014576 -0.534399 7.551430
v 0.023241 -0.488308 7.629564
v 0.017716 -0.487401 7.622892
v 0.018623 -0.486322 7.621207
v 0.015191 -0.486716 7.622038
v 0.018058 -0.482332 7.624352
v 0.010930 -0.482211 7.610750
v 0.014175 -0.485374 7.613850
v 0.014194 -0.485472 7.615942
v 0.018009 -0.482205 7.624314
v 0.011387 -0.483582 7.620221
v 0.013812 -0.487524 7.621254
v 0.012735 -0.486618 7.614176
v 0.023241 -0.488308 7.629564
v 0.034811 -0.489505 7.633976
v 0.021673 -0.483693 7.629704
v 0.013812 -0.487524 7.621254
v 0.012231 -0.633015 7.451919
v 0.012620 -0.638133 7.454174
v 0.014378 -0.632403 7.452007
v 0.011514 -0.633038 7.452109
v 0.009631 -0.635663 7.453890
v 0.009502 -0.635683 7.453866
v 0.008057 -0.632161 7.462904
v 0.007122 -0.611614 7.478590
v 0.003844 -0.612027 7.489565
v 0.006499 -0.586955 7.493441
v 0.009343 -0.594640 7.491084
v 0.009890 -0.551661 7.514343
v 0.006383 -0.598959 7.494479
v 0.006502 -0.586637 7.493513
v 0.000079 -0.600883 7.490138
v 0.004997 -0.560697 7.506664
v 0.007744 -0.556233 7.510789
v 0.009919 -0.568389 7.507597
v 0.009919 -0.568389 7.507597
v 0.008511 -0.554667 7.519043
v 0.006778 -0.566237 7.509115
v 0.002970 -0.567295 7.509991
v 0.004212 -0.566196 7.510744
v 0.003353 -0.560528 7.505466
v 0.004420 -0.555228 7.512547
v 0.005757 -0.554225 7.513729
v 0.009954 -0.536021 7.543224
v 0.013390 -0.541005 7.531998
v 0.010375 -0.539295 7.547076
v 0.008230 -0.527170 7.562947
v 0.009237 -0.521592 7.560116
v 0.005436 -0.520247 7.563652
v 0.007846 -0.514187 7.574213
v 0.005798 -0.520004 7.566978
v 0.005310 -0.522261 7.560284
v 0.005088 -0.525748 7.561961
v 0.006579 -0.513165 7.571592
v 0.005500 -0.513388 7.568856
v 0.009309 -0.509372 7.573498
v 0.010401 -0.539179 7.547266
v 0.008230 -0.527170 7.562947
v 0.003233 -0.514569 7.569283
v 0.005402 -0.515490 7.573275
v 0.008230 -0.527170 7.562947
v 0.005126 -0.511942 7.567986
v 0.014963 -0.493703 7.583827
v 0.011706 -0.498985 7.583788
v 0.012132 -0.496664 7.584959
v 0.010623 -0.499523 7.576514
v 0.012525 -0.489160 7.585428
v 0.009140 -0.494870 7.587549
v 0.009460 -0.486393 7.593882
v 0.014664 -0.490443 7.587586
v 0.013581 -0.491862 7.593321
v 0.013581 -0.491862 7.593321
v 0.008487 -0.490599 7.593321
v 0.013664 -0.486478 7.605896
v 0.008487 -0.490599 7.593321
v 0.013814 -0.486547 7.605972
v 0.013487 -0.484815 7.602517
v 0.013544 -0.484965 7.601771
v 0.010764 -0.489575 7.603180
v 0.010843 -0.489186 7.603186
v 0.010948 -0.482590 7.609705
v 0.008885 -0.484361 7.611835
v 0.009590 -0.485542 7.618289
v 0.009335 -0.483693 7.614493
vn -0.0623 -0.9823 -0.1764
vn 0.2560 -0.8335 0.4896
vn 0.2520 -0.8180 0.5172
vn -0.1185 -0.9873 0.1062
vn -0.0292 -0.9990 0.0344
vn -0.0556 -0.9980 0.0293
vn 0.4363 0.8997 -0.0146
vn 0.4394 0.8981 -0.0170
vn 0.4410 0.8966 -0.0410
vn -0.0230 0.6419 -0.7665
vn -0.2004 0.7448 -0.6366
vn -0.1949 0.5858 -0.7867
vn 0.0571 -0.9983 0.0087
vn 0.0962 -0.9455 0.3110
vn 0.0103 -0.9999 -0.0086
vn -0.1417 -0.9431 -0.3010
vn 0.2419 -0.4612 0.8537
vn 0.2123 0.0464 0.9761
vn 0.3280 0.4290 0.8416
vn 0.2162 0.9108 0.3519
vn 0.4270 0.0854 0.9002
vn 0.4490 0.0735 0.8905
vn -0.4193 -0.5981 -0.6830
vn 0.1824 0.9365 0.2994
vn 0.1839 -0.3101 0.9327
vn 0.2610 -0.0825 0.9618
vn 0.0639 0.6446 -0.7618
vn -0.0947 -0.1686 0.9811
vn -0.0545 -0.7285 -0.6829
vn 0.1394 0.7948 0.5907
vn 0.1245 -0.9422 -0.3110
vn -0.0237 -0.9831 -0.1817
vn -0.0658 -0.9933 -0.0954
vn -0.0658 -0.9895 -0.1287
vn 0.1238 0.2492 0.9605
vn 0.1118 0.9112 -0.3964
vn -0.0540 0.9392 -0.3391
vn 0.3207 -0.6679 -0.6717
vn -0.0386 0.5611 0.8269
vn 0.1828 -0.9643 -0.1914
vn -0.2223 0.1272 0.9666
vn 0.0723 0.9969 0.0321
vn 0.3791 0.8896 -0.2548
vn 0.0729 0.9969 0.0306
vn -0.5428 -0.1813 0.8200
vn -0.3816 -0.1147 0.9172
vn -0.3811 -0.2025 0.9021
vn 0.3771 0.6570 -0.6528
vn 0.6421 0.6320 -0.4340
vn 0.6435 0.6436 -0.4143
vn 0.6531 0.6370 -0.4096
vn 0.6313 0.6005 -0.4907
vn 0.7490 -0.6564 0.0902
vn 0.6584 0.6630 -0.3563
vn 0.5524 -0.5636 0.6142
vn 0.9566 0.2545 -0.1420
vn 0.7916 -0.4903 0.3648
vn 0.9973 0.0709 -0.0210
vn 0.7175 0.6332 -0.2903
vn 0.0958 -0.9588 -0.2675
vn 0.1451 -0.9520 -0.2695
vn 0.4038 0.8976 -0.1769
vn -0.2264 0.9156 0.3324
vn 0.9928 0.0871 -0.0826
vn 0.4131 -0.9052 -0.0995
vn -0.5774 0.2607 0.7737
vn -0.6613 0.6409 0.3897
vn 0.1146 -0.9724 -0.2031
vn 0.1746 -0.9731 -0.1505
vn 0.1208 -0.9921 -0.0338
vn -0.4004 -0.7032 0.5876
vn -0.0749 -0.9945 -0.0733
vn -0.0615 -0.9953 -0.0747
vn -0.5047 0.5620 0.6553
vn -0.5939 -0.6605 0.4593
vn 0.4024 -0.8432 -0.3566
vn 0.4149 -0.5153 -0.7499
vn -0.0351 -0.4100 -0.9114
vn -0.2519 -0.4056 -0.8787
vn -0.9546 -0.2969 0.0241
vn -0.5420 0.5323 -0.6503
vn -0.5171 0.6629 -0.5414
vn -0.1553 0.7929 -0.5892
vn -0.1928 -0.8215 0.5366
vn -0.5779 -0.7471 0.3286
vn -0.5616 -0.5795 0.5906
vn -0.2708 0.4281 -0.8622
vn 0.6949 0.4924 -0.5241
vn 0.5231 -0.3651 0.7701
vn 0.9932 -0.0932 -0.0701
vn 0.4605 0.3400 -0.8200
vn -0.9904 -0.0006 -0.1385
vn 0.2655 0.5036 -0.8221
vn 0.4140 0.4202 -0.8075
vn 0.4006 0.4409 -0.8032
vn -0.1095 0.7162 -0.6892
vn 0.4519 0.3751 -0.8094
vn 0.8444 -0.2614 0.4676
vn 0.8418 -0.2892 0.4559
vn 0.8567 -0.3051 0.4159
vn 0.4790 -0.4822 0.7335
vn 0.2345 -0.4713 0.8502
vn -0.5063 -0.6718 0.5408
vn -0.1086 0.8369 -0.5364
vn -0.9936 0.0566 0.0975
vn 0.2698 0.8205 -0.5039
vn -0.5654 -0.7071 0.4246
vn -0.9457 0.2648 -0.1884
vn 0.3812 -0.6662 0.6410
vn -0.5642 0.6291 -0.5347
vn 0.3815 0.7072 -0.5953
vn 0.5786 -0.5853 0.5680
vn -0.6980 0.5868 -0.4105
vn -0.9450 0.0829 -0.3163
vn 0.8192 -0.5238 0.2334
vn 0.7723 0.5956 -0.2211
vn 0.8536 0.3562 -0.3802
vn 0.7413 -0.4977 0.4503
vn 0.9474 -0.3184 -0.0334
vn -0.8567 -0.4599 0.2337
vn -0.8524 -0.4587 0.2511
vn -0.9939 0.0071 -0.1100
vn -0.4715 -0.5128 0.7174
vn 0.0599 -0.6544 0.7538
vn -0.2505 0.5677 -0.7842
vn 0.8129 -0.4762 0.3354
vn 0.8098 -0.5309 0.2497
vn 0.8054 -0.5191 0.2861
vn 0.2913 -0.6604 0.6920
vn 0.6704 0.4583 -0.5836
vn 0.6998 0.2872 -0.6541
vn -0.5814 0.6407 -0.5015
vn 0.5095 0.4709 -0.7202
vn -0.2482 -0.6719 0.6978
vn 0.6046 0.6785 -0.4173
vn -0.5121 0.8360 -0.1972
vn 0.7279 -0.6291 0.2727
vn 0.9065 0.3902 -0.1612
vn -0.2250 -0.9091 0.3506
vn -0.2622 -0.8901 0.3728
vn 0.9996 -0.0089 -0.0280
vn -0.9762 0.1345 -0.1699
vn 0.7623 -0.6410 0.0897
vn 0.9877 0.1560 -0.0023
vn 0.5675 -0.7907 0.2298
vn 0.6122 0.7259 -0.3136
vn -0.2676 -0.9272 0.2620
vn 0.1841 0.9517 -0.2457
vn -0.7213 0.6658 0.1908
vn -0.9228 0.3482 0.1647
vn -0.8578 -0.2954 0.4207
vn -0.9436 0.2773 0.1810
vn -0.9825 0.0341 0.1833
vn -0.9913 0.1006 0.0851
vn -0.9695 -0.1662 -0.1802
s 1
f 5//1 4//2 3//3
f 8//4 7//5 6//6
f 14//7 15//8 13//9
f 18//10 17//11 16//12
f 2//13 20//14 1//15
f 5//1 3//3 21//16
f 20//14 22//17 1//15
f 23//18 12//19 15//20
f 24//21 11//22 12//19
f 25//23 18//10 16//12
f 12//19 23//18 24//21
f 15//20 19//24 23//18
f 20//14 26//25 22//17
f 24//21 23//18 27//26
f 24//21 27//26 26//25
f 28//27 18//10 25//23
f 22//17 26//25 29//28
f 5//1 21//16 30//29
f 19//24 31//30 23//18
f 21//16 32//31 30//29
f 33//32 21//33 29//34
f 34//35 26//25 27//26
f 31//30 34//35 23//18
f 35//36 36//37 37//38
f 38//39 34//35 31//30
f 32//31 39//40 30//29
f 40//41 29//28 26//25
f 41//42 46//43 38//44
f 40//41 34//35 38//39
f 40//41 26//25 34//35
f 40//41 42//45 29//28
f 43//46 40//41 44//47
f 44//47 40//41 38//39
f 37//38 45//48 35//36
f 45//48 46//43 35//36
f 49//49 50//50 51//51
f 52//52 50//50 49//49
f 47//53 51//54 53//55
f 51//54 54//56 53//55
f 56//57 55//58 57//59
f 60//60 33//32 61//61
f 46//43 63//62 62//63
f 64//64 60//60 61//61
f 46//43 45//48 65//65
f 66//66 67//67 62//63
f 59//68 68//69 69//70
f 33//32 29//34 61//61
f 42//45 70//71 29//28
f 62//63 38//44 46//43
f 59//68 71//72 58//73
f 43//46 44//47 42//45
f 72//74 42//45 44//47
f 72//74 62//63 67//67
f 72//74 38//44 62//63
f 68//69 59//68 58//73
f 42//45 72//74 67//67
f 73//75 70//71 42//45
f 47//53 75//76 48//77
f 75//76 74//78 48//77
f 74//78 75//76 78//79
f 47//53 53//55 75//76
f 79//80 81//81 77//82
f 76//83 77//82 51//54
f 81//81 54//56 51//54
f 81//81 51//54 77//82
f 80//84 75//76 53//55
f 79//80 75//85 82//86
f 82//86 80//84 53//55
f 79//80 82//86 81//81
f 83//87 54//56 81//81
f 83//87 84//88 54//56
f 82//86 53//55 86//89
f 53//55 54//56 86//89
f 86//89 54//56 85//90
f 83//87 87//91 84//88
f 88//92 83//87 81//81
f 88//92 89//93 83//87
f 84//88 87//91 85//94
f 85//94 87//91 90//95
f 89//93 90//96 83//87
f 85//90 91//97 86//89
f 86//98 92//99 93//100
f 82//86 86//89 94//101
f 94//101 95//102 82//86
f 94//101 96//103 95//102
f 91//97 85//90 94//101
f 99//104 90//96 89//93
f 56//57 96//103 94//101
f 94//101 55//58 56//57
f 94//101 85//90 55//58
f 99//104 98//105 101//106
f 101//106 55//58 85//90
f 99//104 101//106 90//96
f 102//107 96//103 56//57
f 96//103 102//107 98//105
f 102//107 100//108 98//105
f 100//108 101//106 98//105
f 102//107 56//57 103//109
f 55//58 101//106 104//110
f 55//58 105//111 57//59
f 103//109 56//57 106//112
f 107//113 101//106 100//108
f 100//108 102//107 108//114
f 107//113 104//110 101//106
f 110//115 57//59 105//111
f 57//116 111//117 106//118
f 106//118 111//117 112//119
f 113//120 114//121 115//122
f 106//118 116//123 117//124
f 115//122 118//125 108//114
f 112//126 119//127 120//128
f 106//118 112//119 121//129
f 119//130 110//115 105//111
f 105//111 122//131 119//130
f 118//125 123//132 105//133
f 106//118 124//134 116//123
f 116//123 124//134 115//122
f 123//135 119//130 122//131
f 115//122 125//136 118//125
f 115//122 124//134 125//136
f 119//127 127//137 120//128
f 119//130 123//135 126//138
f 128//139 129//140 121//129
f 106//118 121//129 124//134
f 123//132 118//125 125//136
f 121//129 129//140 124//134
f 119//130 126//138 130//141
f 124//134 131//142 125//136
f 127//137 119//127 132//143
f 126//138 134//144 130//141
f 135//145 127//137 132//143
f 123//135 133//146 126//138
f 123//135 63//62 133//146
f 129//140 128//139 136//147
f 137//148 123//132 125//136
f 63//149 125//136 138//150
f 138//150 125//136 131//142
f 132//143 64//64 61//61
f 130//141 134//144 65//65
f 134//144 133//146 65//65
f 135//145 132//143 61//61
f 63//62 46//43 133//146
f 73//75 139//151 136//147
f 139//151 129//140 136//147
f 131//142 139//151 138//150
f 138//150 139//151 140//152
f 138//150 66//66 63//149
f 65//65 133//146 46//43
f 139//151 73//75 42//45
f 42//45 67//67 139//151
f 140//152 139//151 67//67
f 138//150 67//67 66//66
f 81//81 82//86 88//92
f 88//92 82//86 95//102
f 88//153 96//103 98//105
f 97//154 88//153 98//105
f 102//107 109//155 108//114
f 109//155 115//122 108//114
f 114//121 116//123 115//122
l 9 10
