# Blender v2.78 (sub 0) OBJ File: 'exporter.blend'
# www.blender.org
o FJ1708M.obj_grp1.606
v 0.143641 -0.277929 7.028338
v 0.143336 -0.282626 7.031374
v 0.142759 -0.282504 7.031433
v 0.141010 -0.273835 7.026434
v 0.141762 -0.283577 7.033132
v 0.143336 -0.282626 7.031374
v 0.143622 -0.279809 7.030764
v 0.141832 -0.283568 7.032928
v 0.143622 -0.279809 7.030764
v 0.141907 -0.281667 7.030910
v 0.142683 -0.274841 7.028558
v 0.142683 -0.274841 7.028558
v 0.139579 -0.268500 7.023921
v 0.142257 -0.271076 7.025958
v 0.143622 -0.277931 7.028370
v 0.141905 -0.282196 7.031096
v 0.134808 -0.287213 7.033202
v 0.139866 -0.286338 7.033252
v 0.134653 -0.288504 7.035389
v 0.131490 -0.287458 7.038283
v 0.135172 -0.288259 7.035459
v 0.138928 -0.285390 7.034191
v 0.139866 -0.286338 7.033252
v 0.130327 -0.287646 7.037437
v 0.137328 -0.286796 7.032823
v 0.138518 -0.285137 7.031678
v 0.128459 -0.287740 7.035267
v 0.140270 -0.286689 7.032938
v 0.139116 -0.285377 7.032311
v 0.143639 -0.277596 7.027884
v 0.141744 -0.283564 7.030952
v 0.142300 -0.279782 7.029618
v 0.140828 -0.282938 7.032214
v 0.140532 -0.278036 7.028797
v 0.141744 -0.283564 7.030952
v 0.138928 -0.285390 7.034191
v 0.140805 -0.283146 7.032313
v 0.139077 -0.285442 7.032313
v 0.138928 -0.285390 7.034191
v 0.133406 -0.287320 7.035130
v 0.138928 -0.285390 7.034191
v 0.139077 -0.285442 7.032313
v 0.141442 -0.279396 7.030852
v 0.140764 -0.273156 7.029457
v 0.142683 -0.273236 7.026915
v 0.142611 -0.274494 7.028751
v 0.140950 -0.271508 7.026255
v 0.139780 -0.276347 7.029061
v 0.138781 -0.271615 7.025898
v 0.139866 -0.270848 7.025741
v 0.141403 -0.272928 7.027774
v 0.140468 -0.269780 7.024858
v 0.139115 -0.266498 7.023390
v 0.140883 -0.269438 7.025177
v 0.137853 -0.266753 7.024860
v 0.138114 -0.266302 7.022865
v 0.138045 -0.266647 7.023897
v 0.139861 -0.268268 7.023305
v 0.138922 -0.267011 7.022836
v 0.138017 -0.266664 7.023870
v 0.138889 -0.266664 7.024802
v 0.138580 -0.266378 7.023445
v 0.138928 -0.265512 7.023863
v 0.138519 -0.266479 7.024256
v 0.138928 -0.265512 7.023863
v 0.142504 -0.268746 7.025861
v 0.141475 -0.268508 7.024817
v 0.135172 -0.288259 7.035459
v 0.130477 -0.289198 7.036867
v 0.130477 -0.290350 7.036069
v 0.130218 -0.289198 7.035130
v 0.130074 -0.289145 7.036499
v 0.133406 -0.287320 7.035130
v 0.130275 -0.289610 7.036448
v 0.129267 -0.289198 7.036069
v 0.129894 -0.289371 7.035629
v 0.130477 -0.290350 7.036069
vn 0.7183 0.0651 0.6926
vn 0.7170 0.0855 0.6919
vn 0.7125 0.0785 0.6972
vn -0.2251 0.7173 0.6594
vn -0.3600 0.3946 0.8454
vn -0.5067 0.5824 0.6357
vn 0.6909 -0.2468 -0.6795
vn 0.7975 -0.2617 -0.5436
vn 0.6275 -0.2590 -0.7343
vn -0.2942 0.3410 0.8928
vn 0.7057 0.6284 -0.3271
vn 0.4845 -0.1880 -0.8544
vn 0.4463 -0.2165 -0.8683
vn 0.5597 -0.3465 0.7528
vn 0.5539 -0.3029 0.7755
vn 0.5241 -0.3415 0.7802
vn 0.2447 -0.8384 -0.4870
vn 0.1944 -0.9647 0.1775
vn 0.2590 -0.9630 -0.0740
vn 0.3345 -0.5416 -0.7712
vn 0.2550 -0.5050 -0.8246
vn 0.2711 -0.5270 -0.8054
vn -0.1081 -0.1532 -0.9823
vn -0.4859 -0.4099 -0.7719
vn -0.1862 -0.3136 -0.9311
vn -0.9023 0.3496 -0.2524
vn 0.2399 -0.7110 -0.6610
vn -0.7964 0.5994 -0.0799
vn -0.1597 0.7216 0.6737
vn -0.3374 0.9399 -0.0529
vn -0.8313 -0.4489 -0.3279
vn 0.5820 0.6559 0.4807
vn 0.5865 0.6256 0.5145
vn 0.6101 0.6363 0.4720
vn -0.3029 -0.5294 -0.7924
vn 0.7833 0.4854 -0.3884
vn 0.6546 0.7403 -0.1531
vn -0.3333 -0.5280 -0.7811
vn 0.5711 0.6474 0.5047
vn -0.7518 0.0088 0.6593
vn -0.8605 -0.1628 0.4827
vn -0.8187 -0.0865 0.5677
vn -0.7266 0.0310 0.6864
vn 0.3391 -0.5359 0.7732
vn -0.2360 -0.2860 -0.9287
vn -0.2245 -0.2662 -0.9374
vn -0.3666 -0.2697 -0.8904
s 1
f 5//1 6//2 7//3
f 8//4 9//5 10//6
f 11//7 3//8 4//9
f 12//10 10//6 9//5
f 13//11 14//12 15//13
f 20//14 21//15 22//16
f 23//17 24//18 25//19
f 2//20 28//21 1//22
f 29//23 30//24 31//25
f 32//26 30//24 29//23
f 25//19 35//27 23//17
f 36//28 37//28 38//28
f 39//29 8//4 10//6
f 40//30 41//30 42//30
f 30//24 32//26 47//31
f 52//32 46//33 45//34
f 47//31 53//35 30//24
f 54//36 13//11 55//37
f 53//35 47//31 57//38
f 13//11 54//36 14//12
f 52//32 56//39 46//33
f 60//40 50//41 51//42
f 51//42 61//43 60//40
f 68//44 69//44 70//44
f 71//45 27//46 26//47
l 76 77
l 74 75
l 33 34
l 18 19
l 43 44
l 58 59
l 72 73
l 16 17
l 64 65
l 48 49
l 66 67
l 62 63
