# Blender v2.78 (sub 0) OBJ File: 'exporter.blend'
# www.blender.org
o FJ1722.obj_grp1.633
v -0.102407 -0.490990 7.616857
v -0.102874 -0.490941 7.618437
v -0.104413 -0.491953 7.617587
v -0.104165 -0.492974 7.616106
v -0.076125 -0.491653 7.628292
v -0.103688 -0.490617 7.618632
v -0.102288 -0.490618 7.615393
v -0.068222 -0.489137 7.633534
v -0.102014 -0.491792 7.618742
v -0.100804 -0.491805 7.617668
v -0.103300 -0.491329 7.617978
v -0.103961 -0.491419 7.618289
v -0.102309 -0.490599 7.615433
v -0.100790 -0.489837 7.618601
v -0.102359 -0.490777 7.615544
v -0.101107 -0.489186 7.617827
v -0.055690 -0.486595 7.635551
v -0.071325 -0.487374 7.629939
v -0.081238 -0.490768 7.629513
v -0.065336 -0.491688 7.633717
v -0.065993 -0.492083 7.633639
v -0.071754 -0.489011 7.633453
v -0.081639 -0.491036 7.629279
v -0.073945 -0.491128 7.630559
v -0.056735 -0.489343 7.637271
v -0.060058 -0.487782 7.636559
v -0.040487 -0.487723 7.635747
v -0.041470 -0.490772 7.637219
v -0.050199 -0.489223 7.632756
v -0.054437 -0.485676 7.634192
v -0.043157 -0.490280 7.634164
v -0.042137 -0.490476 7.633948
v -0.050301 -0.487741 7.637864
v -0.041007 -0.486437 7.635059
v -0.033073 -0.487998 7.631933
v -0.054424 -0.485965 7.634164
v -0.043235 -0.485109 7.634163
v -0.034311 -0.488836 7.626044
v -0.035330 -0.487640 7.636483
v -0.020900 -0.486102 7.630250
v -0.029161 -0.487684 7.634117
v -0.030695 -0.485763 7.634931
v -0.022839 -0.486376 7.623042
v -0.022950 -0.483420 7.627026
v -0.017648 -0.632972 7.455153
v -0.015011 -0.632940 7.452140
v -0.017324 -0.632785 7.455392
v -0.013598 -0.623871 7.464629
v -0.013531 -0.629635 7.454407
v -0.014987 -0.632931 7.452200
v -0.012262 -0.620076 7.482952
v -0.016449 -0.540809 7.537620
v -0.015195 -0.539440 7.545340
v -0.009938 -0.518787 7.565142
v -0.023241 -0.488308 7.629611
v -0.017739 -0.487400 7.622910
v -0.018623 -0.486317 7.621207
v -0.015163 -0.486722 7.622000
v -0.018058 -0.482332 7.624352
v -0.010929 -0.482215 7.610751
v -0.014190 -0.485398 7.613840
v -0.014183 -0.485470 7.615997
v -0.018009 -0.482204 7.624315
v -0.011381 -0.483579 7.620252
v -0.012772 -0.486637 7.614320
v -0.013812 -0.487524 7.621254
v -0.023241 -0.488308 7.629611
v -0.034811 -0.489510 7.633976
v -0.021673 -0.483693 7.629704
v -0.013812 -0.487524 7.621254
v -0.012231 -0.633015 7.451919
v -0.012603 -0.638134 7.454182
v -0.014382 -0.632378 7.451975
v -0.011531 -0.633044 7.452117
v -0.009631 -0.635663 7.453890
v -0.009501 -0.635684 7.453866
v -0.008057 -0.632161 7.462904
v -0.006281 -0.613751 7.478004
v -0.011894 -0.606596 7.484511
v -0.003836 -0.612018 7.489583
v -0.006499 -0.586941 7.493491
v -0.009347 -0.594621 7.491078
v -0.009895 -0.551683 7.514336
v -0.006383 -0.598959 7.494477
v -0.006501 -0.586632 7.493560
v -0.000065 -0.601098 7.490148
v -0.004991 -0.560713 7.506630
v -0.007737 -0.556246 7.510774
v -0.009919 -0.568384 7.507597
v -0.008529 -0.554641 7.519117
v -0.009919 -0.568384 7.507597
v -0.006779 -0.566328 7.509021
v -0.002970 -0.567295 7.509991
v -0.004214 -0.566194 7.510739
v -0.003334 -0.560511 7.505443
v -0.004416 -0.555228 7.512587
v -0.005747 -0.554264 7.513754
v -0.010379 -0.539303 7.547067
v -0.009957 -0.536018 7.543221
v -0.013408 -0.540951 7.532115
v -0.015155 -0.537076 7.548253
v -0.008230 -0.527175 7.562947
v -0.009272 -0.521595 7.560005
v -0.005109 -0.519951 7.564033
v -0.007856 -0.514148 7.574267
v -0.005797 -0.520006 7.566979
v -0.005310 -0.522261 7.560284
v -0.005088 -0.525748 7.562008
v -0.007782 -0.512840 7.568360
v -0.004729 -0.512741 7.569582
v -0.010401 -0.539179 7.547266
v -0.003239 -0.514563 7.569288
v -0.008230 -0.527175 7.562947
v -0.008230 -0.527175 7.562947
v -0.005402 -0.515490 7.573275
v -0.010178 -0.509068 7.573462
v -0.005126 -0.511942 7.567986
v -0.014961 -0.493718 7.583776
v -0.012044 -0.499852 7.583421
v -0.010623 -0.499523 7.576514
v -0.012522 -0.489178 7.585434
v -0.009141 -0.494870 7.587547
v -0.009465 -0.486395 7.593858
v -0.014670 -0.490444 7.587640
v -0.013581 -0.491862 7.593321
v -0.012788 -0.494296 7.593486
v -0.008487 -0.490599 7.593321
v -0.013669 -0.486474 7.605929
v -0.008487 -0.490599 7.593321
v -0.013810 -0.486536 7.606025
v -0.013488 -0.484817 7.602504
v -0.013544 -0.484965 7.601771
v -0.010764 -0.489575 7.603180
v -0.010843 -0.489186 7.603186
v -0.010948 -0.482595 7.609705
v -0.008883 -0.484366 7.611817
v -0.009588 -0.485547 7.618271
v -0.009335 -0.483693 7.614493
vn 0.0593 -0.9826 -0.1757
vn -0.2572 -0.8081 0.5299
vn -0.2629 -0.8234 0.5029
vn 0.1181 -0.9871 0.1081
vn 0.0516 -0.9981 0.0336
vn 0.0286 -0.9990 0.0352
vn -0.4462 0.8950 -0.0000
vn -0.4511 0.8920 -0.0272
vn -0.4502 0.8929 -0.0038
vn 0.0226 0.6445 -0.7643
vn 0.1957 0.5858 -0.7865
vn 0.2004 0.7452 -0.6360
vn -0.0618 -0.9979 0.0201
vn -0.0135 -0.9999 0.0057
vn -0.2257 -0.9216 0.3157
vn 0.1323 -0.9422 -0.3078
vn -0.2510 -0.4405 0.8620
vn -0.2165 0.0385 0.9755
vn -0.4419 0.3674 0.8184
vn -0.3746 0.4004 0.8363
vn 0.2742 -0.6039 -0.7484
vn -0.4366 0.2977 0.8490
vn -0.1826 0.9363 0.3000
vn -0.1793 -0.3120 0.9330
vn -0.2606 -0.0772 0.9624
vn -0.0647 0.6403 -0.7654
vn 0.0690 0.0665 0.9954
vn 0.0553 -0.7273 -0.6841
vn -0.1393 0.7969 0.5878
vn -0.1235 -0.9441 -0.3058
vn 0.1529 -0.9791 -0.1339
vn 0.0649 -0.9890 -0.1332
vn 0.0656 -0.9929 -0.0997
vn -0.0925 0.1704 0.9810
vn 0.0800 0.9193 -0.3854
vn -0.4495 -0.6644 -0.5971
vn 0.0543 0.9438 -0.3261
vn 0.0129 0.8026 0.5964
vn -0.1875 -0.9640 -0.1884
vn 0.2893 0.1629 0.9433
vn 0.5487 -0.1786 0.8167
vn 0.3926 -0.1131 0.9127
vn 0.3487 -0.0239 0.9369
vn 0.3846 -0.1063 0.9169
vn -0.5754 0.5731 -0.5835
vn -0.2697 0.9625 0.0296
vn -0.6423 0.6326 -0.4328
vn -0.6502 0.6373 -0.4136
vn -0.6436 0.6440 -0.4136
vn -0.6319 0.6018 -0.4885
vn -0.7478 -0.6537 0.1159
vn -0.5604 -0.5605 0.6098
vn -0.7404 0.5891 -0.3237
vn -0.9324 0.2975 -0.2052
vn -0.7116 -0.4370 0.5501
vn -0.7071 0.6104 -0.3570
vn -0.9857 0.0462 -0.1622
vn -0.1015 -0.9568 -0.2725
vn -0.2337 -0.9443 -0.2318
vn 0.2130 0.9160 0.3400
vn -0.4051 0.8971 -0.1765
vn -0.9880 0.0800 -0.1318
vn -0.4139 -0.9047 -0.1013
vn 0.5755 0.2599 0.7754
vn 0.6698 0.6311 0.3911
vn -0.1081 -0.9705 -0.2157
vn -0.1202 -0.9921 -0.0368
vn -0.1764 -0.9727 -0.1506
vn 0.3996 -0.6970 0.5954
vn 0.0618 -0.9953 -0.0744
vn 0.0757 -0.9945 -0.0728
vn 0.2606 0.7664 0.5871
vn 0.5948 -0.6600 0.4590
vn -0.4159 -0.5179 -0.7475
vn -0.4014 -0.8435 -0.3570
vn 0.0389 -0.4106 -0.9110
vn 0.2539 -0.4085 -0.8767
vn 0.9550 -0.2961 0.0188
vn 0.5180 0.6645 -0.5386
vn 0.7039 0.4641 -0.5377
vn 0.1771 0.7917 -0.5846
vn 0.1925 -0.8211 0.5373
vn 0.5230 -0.5830 0.6217
vn 0.5802 -0.7457 0.3276
vn 0.3391 0.4028 -0.8501
vn -0.6870 0.4934 -0.5335
vn -0.5134 -0.3499 0.7836
vn -0.9711 -0.2051 -0.1222
vn -0.4569 0.3403 -0.8219
vn 0.9951 0.0197 -0.0968
vn -0.2687 0.5033 -0.8213
vn -0.4150 0.4200 -0.8071
vn -0.4049 0.4387 -0.8022
vn 0.1028 0.7580 -0.6441
vn -0.4491 0.3772 -0.8100
vn -0.8481 -0.2571 0.4632
vn -0.8628 -0.2976 0.4087
vn -0.8452 -0.2867 0.4510
vn -0.3566 -0.6261 0.6935
vn -0.2411 -0.4740 0.8469
vn 0.4650 -0.6866 0.5589
vn 0.0614 0.8243 -0.5628
vn 0.5116 -0.7294 0.4541
vn -0.2641 0.8188 -0.5098
vn 0.9835 0.0980 0.1520
vn 0.9433 0.2705 -0.1923
vn -0.3381 -0.7057 0.6226
vn -0.3799 -0.6675 0.6404
vn 0.5733 0.6221 -0.5332
vn 0.0205 0.6591 -0.7517
vn -0.5785 -0.5855 0.5679
vn -0.7951 -0.3755 0.4763
vn 0.7029 0.5828 -0.4077
vn 0.9455 0.0823 -0.3152
vn -0.1858 0.5221 -0.8324
vn -0.7894 0.4273 -0.4407
vn 0.8603 -0.4553 0.2294
vn 0.9946 -0.0738 -0.0731
vn 0.8565 -0.4534 0.2467
vn -0.0456 -0.6555 0.7538
vn 0.4764 -0.5100 0.7162
vn 0.3889 0.5202 -0.7604
vn -0.8834 -0.4372 0.1688
vn -0.5610 -0.5813 0.5894
vn -0.6436 0.4737 -0.6012
vn -0.8689 0.1428 -0.4740
vn -0.8784 0.1344 -0.4586
vn -0.6686 0.3232 -0.6697
vn 0.5782 0.6403 -0.5057
vn 0.5642 -0.5860 0.5816
vn -0.6016 0.6764 -0.4249
vn 0.5902 0.7480 -0.3036
vn -0.7381 -0.6177 0.2716
vn -0.9082 0.3898 -0.1526
vn 0.5965 -0.7252 0.3439
vn 0.6442 -0.6865 0.3371
vn -0.9996 -0.0032 -0.0275
vn 0.9763 0.1345 -0.1695
vn -0.7651 -0.6433 -0.0270
vn -0.9873 0.1590 -0.0028
vn -0.5666 -0.7909 0.2310
vn -0.5203 0.8002 -0.2983
vn 0.3075 -0.9358 0.1726
vn -0.1841 0.9517 -0.2459
vn 0.7215 0.6653 0.1918
vn 0.9203 0.3555 0.1632
vn 0.8645 -0.3249 0.3836
vn 0.9440 0.2755 0.1814
vn 0.9821 0.0326 0.1853
vn 0.9912 0.0985 0.0881
vn 0.9697 -0.1665 -0.1789
s 1
f 5//1 3//2 4//3
f 8//4 6//5 7//6
f 13//7 12//8 14//9
f 17//10 15//11 16//12
f 2//13 1//14 19//15
f 5//1 20//16 3//2
f 19//15 1//14 21//17
f 22//18 14//19 11//20
f 24//21 15//11 17//10
f 11//20 23//22 22//18
f 14//19 22//18 18//23
f 19//15 21//17 25//24
f 23//22 26//25 22//18
f 23//22 25//24 26//25
f 27//26 24//21 17//10
f 21//17 28//27 25//24
f 5//1 29//28 20//16
f 18//23 22//18 30//29
f 20//16 29//28 31//30
f 32//31 28//32 20//33
f 33//34 26//25 25//24
f 30//29 22//18 33//34
f 34//35 35//36 36//37
f 37//38 30//29 33//34
f 31//30 29//28 38//39
f 39//40 25//24 28//27
f 37//38 33//34 39//40
f 39//40 33//34 25//24
f 39//40 28//27 40//41
f 41//42 42//43 39//44
f 35//36 34//35 43//45
f 43//45 34//35 44//46
f 47//47 48//48 49//49
f 50//50 47//47 49//49
f 45//51 51//52 48//53
f 48//53 51//52 79//54
f 53//55 54//56 52//57
f 57//58 58//59 32//31
f 44//46 59//60 60//61
f 61//62 58//59 57//58
f 44//46 62//63 43//45
f 63//64 59//60 64//65
f 56//66 65//67 66//68
f 32//31 58//59 28//32
f 40//41 28//27 67//69
f 59//60 44//46 39//40
f 44//46 37//38 39//40
f 56//66 55//70 68//71
f 41//42 40//41 42//43
f 69//72 42//43 40//41
f 69//72 64//65 59//60
f 69//72 59//60 39//40
f 66//68 55//70 56//66
f 40//41 64//65 69//72
f 70//73 40//41 67//69
f 45//51 46//74 72//75
f 72//75 46//74 71//76
f 71//76 75//77 72//75
f 45//51 72//75 51//52
f 76//78 74//79 78//80
f 73//81 48//53 74//79
f 79//54 78//80 74//79
f 79//54 74//79 48//53
f 77//82 51//52 72//75
f 76//78 80//83 72//84
f 80//83 51//52 77//82
f 76//78 78//80 80//83
f 81//85 78//80 79//54
f 81//85 79//54 82//86
f 80//83 84//87 51//52
f 51//52 84//87 79//54
f 84//87 83//88 79//54
f 81//85 82//86 85//89
f 86//90 78//80 81//85
f 86//90 81//85 87//91
f 82//86 83//92 85//89
f 83//92 88//93 85//89
f 87//91 81//85 88//94
f 83//88 84//87 89//95
f 84//96 90//97 91//98
f 80//83 92//99 84//87
f 92//99 80//83 93//100
f 92//99 93//100 94//101
f 89//95 92//99 83//88
f 97//102 87//91 88//94
f 98//103 92//99 94//101
f 92//99 53//55 52//57
f 92//99 52//57 83//88
f 97//102 100//104 96//105
f 100//104 83//88 52//57
f 98//103 53//55 92//99
f 97//102 88//94 100//104
f 94//101 96//105 98//103
f 98//103 96//105 99//106
f 99//106 96//105 100//104
f 98//103 101//107 53//55
f 101//107 98//103 102//108
f 52//57 103//109 100//104
f 52//57 54//56 104//110
f 102//108 105//111 101//107
f 105//112 54//56 53//55
f 106//113 99//106 100//104
f 99//106 107//114 98//103
f 106//113 100//104 103//109
f 104//110 54//56 109//115
f 110//116 54//56 105//112
f 111//117 112//118 113//119
f 105//112 114//120 115//121
f 104//110 109//115 117//122
f 112//118 107//114 117//122
f 110//116 105//112 118//123
f 118//123 105//112 119//124
f 118//125 109//126 116//127
f 109//126 118//125 120//128
f 117//122 109//115 121//129
f 105//112 115//121 122//130
f 115//121 112//118 122//130
f 121//131 120//128 118//125
f 112//118 117//122 123//132
f 112//118 123//132 122//130
f 118//123 119//124 125//133
f 118//125 124//134 121//131
f 119//124 122//130 126//135
f 105//112 122//130 119//124
f 121//129 123//132 117//122
f 126//135 122//130 127//136
f 118//125 128//137 124//134
f 122//130 123//132 129//138
f 125//133 130//139 118//123
f 124//134 128//137 132//140
f 133//141 130//139 125//133
f 121//131 124//134 131//142
f 121//131 131//142 60//61
f 127//136 134//143 126//135
f 135//144 123//132 121//129
f 60//145 136//146 123//132
f 136//146 129//138 123//132
f 130//139 58//59 61//62
f 128//137 62//63 132//140
f 132//140 62//63 131//142
f 133//141 58//59 130//139
f 60//61 131//142 44//46
f 70//73 134//143 137//147
f 137//147 134//143 127//136
f 129//138 136//146 137//147
f 136//146 138//148 137//147
f 136//146 60//145 63//64
f 62//63 44//46 131//142
f 137//147 40//41 70//73
f 40//41 137//147 64//65
f 138//148 64//65 137//147
f 136//146 63//64 64//65
f 78//80 86//90 80//83
f 86//90 93//100 80//83
f 86//149 96//105 94//101
f 95//150 96//105 86//149
f 98//103 107//114 108//151
f 108//151 107//114 112//118
f 113//119 112//118 115//121
l 9 10
