# Blender v2.78 (sub 0) OBJ File: 'exporter.blend'
# www.blender.org
o FJ1737.obj_grp1.656
v -0.006290 -0.284060 6.973757
v -0.004611 -0.303345 7.009657
v -0.007409 -0.301240 7.012126
v -0.007812 -0.300424 7.012701
v -0.005837 -0.302488 7.012174
v -0.007750 -0.300420 7.012690
v -0.007409 -0.301240 7.012126
v -0.007357 -0.281820 6.972942
v -0.008306 -0.294192 7.003171
v -0.008184 -0.297767 7.012972
v -0.007750 -0.300420 7.012690
v -0.007454 -0.296392 7.013606
v -0.008101 -0.298731 7.012878
v -0.008136 -0.297761 7.012971
v 0.001111 -0.297840 7.013311
v -0.007784 -0.292948 7.005142
v -0.007423 -0.296381 7.013636
v -0.004873 -0.294177 7.014239
v -0.004873 -0.294177 7.014239
v -0.007364 -0.281220 6.977519
v -0.003060 -0.284963 6.998747
v -0.006232 -0.280667 6.980907
v -0.006233 -0.273657 6.947066
v -0.003151 -0.278417 6.951731
v -0.006935 -0.271237 6.948372
v -0.002984 -0.278593 6.983785
v -0.006456 -0.267475 6.932175
v -0.005938 -0.270768 6.953929
v -0.005896 -0.260116 6.909750
v -0.005521 -0.265397 6.920379
v -0.005663 -0.260697 6.916300
v -0.004753 -0.256517 6.906500
v -0.003811 -0.249341 6.854697
v -0.004934 -0.249278 6.862696
v -0.005179 -0.253233 6.882660
v -0.004819 -0.254418 6.881951
v -0.004894 -0.251579 6.883995
v -0.004211 -0.246174 6.848263
v -0.004719 -0.245721 6.849362
v -0.004578 -0.247035 6.849785
v -0.004291 -0.244542 6.849328
v -0.004441 -0.246714 6.862247
v -0.003947 -0.244246 6.852119
v -0.004577 -0.303364 7.009685
v -0.003552 -0.304633 7.010577
v -0.003064 -0.305134 7.011281
v -0.003545 -0.304668 7.010586
v -0.003332 -0.289046 6.978400
v -0.003071 -0.305192 7.011265
v -0.002949 -0.292655 6.985944
v -0.002039 -0.304582 7.011367
v -0.003064 -0.305134 7.011281
v -0.005384 -0.303397 7.011939
v -0.005384 -0.303397 7.011939
v -0.003045 -0.305232 7.011370
v -0.002035 -0.304551 7.011375
v -0.003301 -0.283070 6.963972
v -0.002754 -0.284406 6.967561
v -0.002801 -0.287597 6.974890
v 0.001103 -0.282618 6.972649
v -0.003147 -0.291881 7.014183
v -0.003734 -0.292497 7.014435
v -0.003171 -0.291886 7.014175
v -0.002742 -0.292381 7.014708
v -0.002338 -0.293109 7.014709
v -0.003176 -0.291816 7.014242
v -0.002911 -0.271995 6.933209
v -0.003127 -0.278292 6.951447
v -0.003366 -0.271411 6.964413
v -0.003060 -0.284963 6.998747
v 0.001695 -0.281992 6.980049
v -0.003161 -0.273433 6.970551
v -0.003499 -0.268091 6.921674
v -0.002960 -0.272254 6.934000
v -0.002726 -0.265107 6.911970
v -0.003157 -0.270983 6.963012
v -0.002804 -0.258589 6.889597
v -0.003117 -0.264167 6.908716
v 0.000262 -0.270131 6.949947
v -0.003063 -0.266997 6.950345
v -0.003068 -0.266934 6.950172
v -0.004068 -0.255417 6.881613
v -0.003248 -0.255890 6.880837
v -0.003176 -0.255277 6.877484
v -0.002777 -0.255915 6.880551
v -0.000420 -0.253872 6.883646
v -0.000542 -0.259914 6.902248
v -0.002804 -0.258589 6.889597
v -0.002891 -0.262409 6.933820
v -0.002891 -0.262409 6.933820
v -0.003153 -0.247967 6.848474
v -0.003148 -0.248658 6.849512
v -0.003743 -0.249280 6.854715
v -0.002837 -0.249064 6.852696
v -0.000771 -0.246169 6.848547
v -0.002875 -0.249686 6.855299
v -0.001983 -0.249017 6.854950
v -0.002866 -0.249516 6.854715
v -0.003022 -0.253154 6.868310
v -0.003337 -0.250286 6.856875
v -0.003337 -0.250286 6.856875
v -0.003009 -0.252460 6.865847
v -0.000836 -0.248078 6.858108
v -0.003167 -0.249085 6.882932
v -0.002602 -0.252658 6.895660
v -0.003256 -0.252552 6.895799
v -0.003048 -0.257658 6.916850
v -0.000538 -0.254803 6.896034
v -0.000088 -0.262450 6.923623
v -0.003216 -0.244662 6.847988
v -0.003063 -0.246794 6.847693
v -0.001215 -0.245868 6.847663
v -0.001753 -0.244964 6.847709
v -0.001085 -0.244701 6.848428
v -0.002505 -0.243569 6.850497
v -0.000717 -0.245311 6.848671
v -0.003020 -0.243994 6.853322
v -0.003086 -0.244675 6.856564
v -0.002198 -0.246057 6.862637
v -0.000510 -0.249201 6.867517
v -0.003286 -0.245973 6.865462
v -0.003162 -0.245808 6.862367
v -0.003112 -0.249109 6.882789
v -0.001179 -0.248876 6.872975
v -0.002793 -0.246397 6.867975
v -0.003182 -0.250960 6.890630
v -0.003191 -0.250945 6.890472
v -0.003109 -0.243717 6.849060
v -0.003043 -0.243544 6.851410
v -0.003337 -0.246923 6.871288
v -0.003112 -0.249109 6.882789
v -0.000047 -0.302419 7.012152
v 0.000764 -0.300235 7.008821
v 0.000181 -0.301853 7.012192
v 0.000802 -0.300712 7.012362
v 0.001735 -0.297430 7.007306
v 0.000206 -0.301921 7.012280
v 0.000356 -0.301427 7.012403
v 0.000362 -0.301423 7.012408
v 0.000786 -0.300709 7.012361
v 0.001165 -0.299207 7.013018
v 0.001373 -0.297997 7.013494
v 0.001250 -0.296977 7.013253
v 0.000571 -0.295693 7.013864
v 0.000547 -0.295616 7.013906
v -0.002224 -0.293201 7.014521
v 0.001345 -0.296918 7.013294
v 0.000379 -0.274089 6.949005
v 0.000700 -0.266241 6.930429
v 0.001224 -0.273618 6.956438
v 0.001694 -0.280558 6.974411
v 0.000073 -0.258549 6.903693
v 0.002193 -0.283725 6.980149
vn -0.6589 -0.6869 -0.3065
vn -0.8524 -0.4719 -0.2252
vn -0.7581 -0.5945 -0.2682
vn 0.0046 -0.2020 0.9794
vn -0.5070 -0.6239 0.5947
vn -0.4159 -0.5044 0.7567
vn -0.9680 -0.2257 -0.1099
vn -0.9992 -0.0198 -0.0348
vn -0.9595 -0.2501 -0.1293
vn -0.9953 0.0892 0.0367
vn -0.0765 -0.2293 0.9703
vn -0.0167 -0.2255 0.9741
vn -0.4294 -0.1596 0.8889
vn -0.5256 -0.1643 0.8347
vn 0.0860 -0.2065 0.9746
vn -0.8601 0.4699 0.1985
vn -0.8020 0.5389 0.2576
vn -0.0955 -0.1544 0.9834
vn -0.9466 0.3103 0.0880
vn -0.6783 0.6743 0.2919
vn -0.7596 0.6007 0.2492
vn -0.8661 -0.4703 -0.1694
vn -0.6708 -0.7018 -0.2399
vn -0.9875 0.1558 0.0254
vn -0.9903 -0.1184 -0.0722
vn -0.8025 0.5689 0.1799
vn -0.9978 0.0653 -0.0143
vn -0.8508 -0.4937 -0.1801
vn -0.9209 0.3776 0.0972
vn -0.9050 -0.4060 -0.1273
vn -0.8961 -0.3756 -0.2367
vn -0.8350 -0.5380 -0.1152
vn -0.9763 -0.2123 -0.0416
vn -0.9975 -0.0563 -0.0422
vn -0.9127 0.4000 0.0839
vn -0.7863 0.6009 0.1433
vn -0.9659 0.1282 -0.2248
vn -0.7316 -0.0711 -0.6780
vn -0.8459 0.5282 0.0743
vn -0.7846 0.5586 -0.2691
vn -0.7104 0.6962 0.1030
vn -0.8278 -0.5182 0.2150
vn -0.8278 -0.5182 0.2151
vn -0.4929 -0.7912 -0.3621
vn -0.3905 -0.8183 -0.4217
vn 0.3564 -0.8453 -0.3981
vn 0.2917 -0.8182 -0.4955
vn -0.6247 -0.7467 -0.2283
vn -0.6800 -0.6899 -0.2484
vn 0.6060 -0.7179 -0.3426
vn -0.0489 -0.3060 0.9508
vn 0.0315 -0.2590 0.9654
vn -0.6704 -0.6874 -0.2792
vn 0.6657 -0.6983 -0.2632
vn 0.5740 -0.7523 -0.3234
vn 0.8529 -0.4649 -0.2374
vn 0.6921 -0.6617 -0.2885
vn -0.7017 0.6692 0.2444
vn -0.7103 0.7025 0.0449
vn -0.3215 0.1813 0.9294
vn -0.1112 -0.0866 0.9900
vn -0.1706 0.1434 0.9748
vn -0.7075 0.6653 0.2386
vn -0.6892 0.6770 0.2583
vn 0.6661 0.6833 0.2989
vn 0.8498 0.4930 0.1866
vn 0.6498 0.7224 0.2362
vn -0.4495 -0.8463 -0.2860
vn 0.4110 -0.8580 -0.3081
vn 0.1469 -0.9296 -0.3380
vn -0.3006 -0.9130 -0.2759
vn 0.7957 0.5778 0.1818
vn 0.6419 0.7332 0.2244
vn 0.7221 0.6599 0.2075
vn -0.6744 0.7168 0.1771
vn -0.7319 -0.6651 -0.1481
vn -0.6962 -0.6940 -0.1836
vn -0.4212 -0.8668 -0.2670
vn 0.3064 -0.9230 -0.2327
vn 0.9573 -0.2768 -0.0838
vn 0.8396 -0.5221 -0.1498
vn -0.2778 -0.9191 -0.2796
vn 0.6479 -0.7294 -0.2198
vn 0.6950 0.6924 0.1940
vn -0.1019 -0.8988 -0.4264
vn -0.1429 -0.7325 -0.6656
vn 0.1686 -0.9478 -0.2705
vn -0.2350 -0.9464 -0.2217
vn 0.5670 -0.7990 -0.2003
vn 0.6763 -0.7169 -0.1690
vn 0.5274 -0.8246 -0.2046
vn 0.5324 -0.8211 -0.2058
vn 0.8628 -0.3770 -0.3369
vn 0.0740 -0.9411 -0.3299
vn -0.7055 -0.6960 -0.1334
vn -0.7340 -0.6718 -0.0995
vn 0.9911 -0.1263 -0.0416
vn 0.4958 0.8480 0.1873
vn -0.0364 0.9465 0.3207
vn 0.0066 0.9416 0.3367
vn 0.8737 0.4802 0.0776
vn 0.0862 0.9611 0.2624
vn 0.8400 0.5232 0.1435
vn -0.3255 0.4981 -0.8037
vn -0.1869 -0.2925 -0.9378
vn 0.5001 -0.1442 -0.8539
vn 0.2238 0.4478 -0.8657
vn -0.2103 0.9076 -0.3634
vn 0.6588 0.6831 -0.3151
vn 0.9579 0.2364 -0.1632
vn 0.6495 0.7401 0.1743
vn 0.3824 0.9229 0.0452
vn 0.5796 0.8071 0.1124
vn 0.9828 0.1842 -0.0098
vn -0.6896 0.7159 0.1092
vn -0.2129 0.9624 0.1688
vn 0.6684 0.7262 0.1606
vn 0.7927 0.5958 0.1292
vn 0.2695 0.9439 0.1910
vn -0.7987 0.5914 0.1111
vn 0.5687 0.7826 0.2533
vn -0.6415 0.7425 0.1930
vn -0.1153 0.9836 0.1389
vn -0.2160 0.9545 0.2054
vn 0.0696 0.9839 0.1646
vn 0.1585 0.9706 0.1812
vn 0.8417 -0.5026 -0.1974
vn 0.8213 -0.5435 -0.1733
vn 0.9201 -0.3903 -0.0326
vn 0.9282 -0.3718 -0.0176
vn 0.9805 -0.1857 -0.0642
vn 0.3893 -0.6041 0.6953
vn 0.0618 -0.2546 0.9651
vn 0.0328 -0.2697 0.9624
vn 0.8239 -0.4885 0.2872
vn 0.0084 -0.2858 0.9582
vn 0.7653 -0.4044 0.5008
vn 0.9935 -0.1069 0.0398
vn 0.1943 -0.2176 0.9565
vn 0.7952 0.5565 0.2408
vn 0.6469 0.6573 0.3865
vn 0.0263 -0.1758 0.9841
vn 0.6229 -0.0528 0.7805
vn 0.9719 0.2054 0.1150
vn 0.4556 0.8156 0.3566
vn 0.7278 -0.6395 -0.2478
vn 0.9984 0.0540 -0.0157
vn 0.9994 0.0332 -0.0137
vn 0.9356 0.3421 0.0875
vn 0.6577 -0.7235 -0.2097
vn 1.0000 -0.0017 -0.0013
vn 0.9986 -0.0324 -0.0412
s 1
f 2//1 3//2 1//3
f 5//4 6//5 7//6
f 8//7 1//3 9//8
f 3//2 9//8 1//3
f 9//8 4//9 10//10
f 3//2 4//9 9//8
f 11//11 12//12 13//13
f 13//13 12//12 14//14
f 15//15 12//12 11//11
f 9//8 10//10 16//16
f 17//17 16//16 10//10
f 12//12 15//15 18//18
f 20//19 9//8 16//16
f 21//20 16//16 17//17
f 8//7 9//8 20//19
f 22//21 20//19 16//16
f 16//16 21//20 22//21
f 1//3 23//22 24//23
f 25//24 23//22 8//7
f 8//7 23//22 1//3
f 25//24 8//7 20//19
f 23//22 25//24 27//25
f 28//26 25//24 20//19
f 20//19 22//21 28//26
f 27//25 29//27 30//28
f 30//28 23//22 27//25
f 27//25 25//24 31//29
f 30//28 29//27 36//30
f 29//27 27//25 31//29
f 25//24 28//26 31//29
f 40//31 33//32 34//33
f 34//33 36//30 35//34
f 35//34 36//30 29//27
f 35//34 29//27 37//35
f 37//35 29//27 32//36
f 32//36 29//27 31//29
f 40//31 34//33 39//37
f 40//31 39//37 38//38
f 42//39 41//40 39//37
f 42//39 43//41 41//40
f 34//33 42//39 39//37
f 35//34 42//39 34//33
f 37//35 42//39 35//34
f 44//42 45//43 46//43
f 2//1 48//44 47//45
f 50//46 49//47 47//45
f 2//1 52//48 53//49
f 48//44 50//46 47//45
f 1//3 48//44 2//1
f 50//46 51//50 49//47
f 3//2 2//1 53//49
f 7//6 54//51 5//4
f 55//52 11//11 5//4
f 55//52 5//4 54//51
f 55//52 15//15 11//11
f 57//53 48//44 1//3
f 48//44 68//54 58//55
f 58//55 60//56 59//57
f 50//46 48//44 58//55
f 21//20 17//17 61//58
f 17//17 62//59 61//58
f 17//17 19//60 62//59
f 65//61 66//62 18//18
f 24//23 57//53 1//3
f 69//63 22//21 26//64
f 70//65 71//66 72//67
f 22//21 21//20 26//64
f 73//68 75//69 74//70
f 30//28 73//68 23//22
f 73//68 74//70 24//23
f 73//68 24//23 23//22
f 28//26 22//21 69//63
f 78//71 73//68 30//28
f 78//71 75//69 73//68
f 79//72 80//73 76//74
f 81//75 28//26 69//63
f 82//76 84//77 83//78
f 85//79 86//80 87//81
f 77//82 83//78 85//79
f 82//76 83//78 78//71
f 83//78 77//82 78//71
f 88//83 85//79 87//81
f 75//69 88//83 87//81
f 82//76 30//28 36//30
f 82//76 78//71 30//28
f 88//83 75//69 78//71
f 31//29 28//26 32//36
f 80//73 79//72 90//84
f 92//85 33//32 40//31
f 91//86 92//85 40//31
f 92//85 96//87 93//88
f 96//87 92//85 94//89
f 92//85 97//90 94//89
f 98//91 94//89 97//90
f 97//90 96//87 98//91
f 97//90 99//92 96//87
f 95//93 97//90 92//85
f 93//88 96//87 100//94
f 101//95 102//96 33//32
f 99//92 100//94 96//87
f 85//79 99//92 97//90
f 33//32 102//96 34//33
f 103//97 85//79 97//90
f 34//33 102//96 82//76
f 36//30 34//33 82//76
f 102//96 84//77 82//76
f 99//92 85//79 83//78
f 86//80 85//79 103//97
f 105//98 106//99 107//100
f 108//101 105//98 107//100
f 106//99 32//36 107//100
f 32//36 28//26 107//100
f 107//100 28//26 81//75
f 107//100 81//75 89//102
f 107//100 90//84 109//103
f 38//38 41//40 110//104
f 38//38 39//37 41//40
f 111//105 91//86 38//38
f 110//104 111//105 38//38
f 91//86 111//105 112//106
f 111//105 110//104 113//107
f 113//107 112//106 111//105
f 113//107 110//104 128//108
f 112//106 95//93 91//86
f 92//85 91//86 95//93
f 114//109 113//107 128//108
f 112//106 113//107 114//109
f 112//106 116//110 95//93
f 114//109 116//110 112//106
f 40//31 38//38 91//86
f 117//111 114//109 115//112
f 103//97 97//90 95//93
f 103//97 95//93 116//110
f 117//111 119//113 114//109
f 103//97 119//113 120//114
f 116//110 119//113 103//97
f 119//113 116//110 114//109
f 121//115 122//116 42//39
f 123//117 124//118 125//119
f 120//114 119//113 124//118
f 125//119 124//118 119//113
f 42//39 37//35 121//115
f 121//115 37//35 104//120
f 124//118 123//117 108//101
f 123//117 127//121 105//98
f 105//98 108//101 123//117
f 32//36 104//120 37//35
f 126//122 104//120 32//36
f 32//36 106//99 126//122
f 127//121 106//99 105//98
f 110//104 41//40 128//108
f 115//112 114//109 128//108
f 128//108 41//40 43//41
f 43//41 129//123 128//108
f 115//112 128//108 129//123
f 115//112 129//123 117//111
f 129//123 43//41 118//124
f 43//41 42//39 118//124
f 42//39 122//116 118//124
f 117//111 118//124 119//113
f 118//124 122//116 119//113
f 119//113 122//116 125//119
f 122//116 130//125 125//119
f 125//119 130//125 131//126
f 51//50 133//127 132//128
f 132//128 133//127 134//129
f 134//129 133//127 135//130
f 133//127 136//131 135//130
f 56//132 137//133 55//52
f 137//133 138//134 55//52
f 135//130 139//135 134//129
f 60//56 133//127 50//46
f 133//127 51//50 50//46
f 15//15 55//52 138//134
f 141//136 15//15 138//134
f 140//137 141//136 138//134
f 142//138 135//130 136//131
f 65//61 18//18 15//15
f 144//139 65//61 15//15
f 145//140 64//141 146//142
f 143//143 144//139 15//15
f 60//56 50//46 59//57
f 71//66 145//140 147//144
f 70//65 145//140 71//66
f 64//141 145//140 70//65
f 63//145 64//141 70//65
f 60//56 58//55 68//54
f 60//56 68//54 148//146
f 148//146 149//147 60//56
f 151//148 149//147 150//149
f 71//66 151//148 150//149
f 148//146 67//150 75//69
f 67//150 148//146 68//54
f 79//72 76//74 71//66
f 150//149 79//72 71//66
f 72//67 71//66 76//74
f 75//69 87//81 148//146
f 150//149 149//147 109//103
f 79//72 150//149 109//103
f 87//81 86//80 152//151
f 87//81 152//151 148//146
f 149//147 148//146 152//151
f 149//147 152//151 109//103
f 79//72 109//103 90//84
f 86//80 103//97 120//114
f 86//80 108//101 152//151
f 152//151 108//101 109//103
f 109//103 108//101 107//100
f 86//80 120//114 108//101
f 124//118 108//101 120//114
f 136//131 147//144 142//138
f 133//127 153//152 136//131
f 136//131 153//152 147//144
f 153//152 71//66 147//144
f 60//56 149//147 151//148
f 60//56 151//148 153//152
f 133//127 60//56 153//152
f 151//148 71//66 153//152
