# Blender v2.78 (sub 0) OBJ File: 'exporter.blend'
# www.blender.org
o FJ1728M.obj_grp1.646
v 0.064686 -0.319469 7.172128
v 0.064214 -0.319099 7.174685
v 0.068524 -0.315364 7.171884
v 0.063873 -0.319063 7.169809
v 0.063647 -0.317409 7.169348
v 0.063566 -0.313716 7.169427
v 0.067453 -0.317059 7.175029
v 0.051834 -0.305281 7.184400
v 0.033237 -0.281949 7.196369
v 0.039330 -0.294584 7.185483
v 0.051935 -0.305407 7.184137
v 0.039402 -0.293728 7.193808
v 0.039402 -0.293728 7.193808
v 0.043041 -0.292117 7.191039
v 0.041600 -0.291310 7.191860
v 0.027582 -0.284469 7.199994
v 0.029522 -0.279720 7.205010
v 0.032805 -0.286345 7.200305
v 0.025554 -0.270990 7.204713
v 0.024149 -0.263158 7.215191
v 0.023181 -0.274239 7.204177
v 0.025458 -0.271913 7.205149
v 0.023106 -0.259160 7.218174
v 0.020473 -0.270594 7.211569
v 0.021614 -0.261939 7.218505
v 0.022467 -0.263511 7.218267
v 0.018019 -0.255526 7.224911
v 0.017502 -0.259331 7.218596
v 0.019701 -0.246700 7.228656
v 0.019603 -0.240415 7.230587
v 0.018745 -0.248490 7.221976
v 0.017874 -0.225346 7.232627
v 0.017666 -0.229241 7.232903
v 0.016033 -0.236553 7.228295
v 0.017371 -0.259150 7.218794
v 0.015928 -0.236618 7.228079
v 0.016669 -0.231011 7.235149
v 0.015786 -0.228867 7.230324
v 0.012228 -0.214253 7.235818
v 0.013194 -0.205486 7.232604
v 0.018951 -0.232948 7.232117
v 0.016860 -0.214084 7.234182
v 0.017683 -0.225351 7.235121
v 0.014997 -0.204089 7.232657
v 0.015972 -0.212959 7.236771
v 0.017263 -0.205733 7.233688
v 0.011889 -0.196095 7.232146
v 0.013459 -0.197395 7.236403
v 0.014592 -0.201052 7.233664
v 0.014000 -0.192062 7.230567
v 0.013070 -0.181653 7.227657
v 0.014067 -0.186111 7.229006
v 0.011425 -0.189629 7.232781
v 0.013070 -0.181653 7.227657
v 0.015860 -0.189166 7.231099
v 0.015657 -0.173710 7.227610
v 0.011873 -0.181139 7.230357
v 0.011920 -0.181230 7.230380
v 0.017133 -0.188576 7.230604
v 0.015657 -0.173710 7.227610
v 0.013226 -0.174714 7.224980
v 0.013226 -0.174714 7.224980
v 0.014112 -0.186462 7.229206
v 0.013092 -0.165685 7.221694
v 0.013390 -0.165788 7.221513
v 0.016116 -0.167489 7.222613
v 0.014930 -0.177537 7.226499
v 0.015019 -0.163390 7.222697
v 0.014032 -0.169468 7.222249
v 0.016551 -0.157188 7.217670
v 0.014987 -0.163766 7.223776
v 0.014088 -0.159837 7.215920
v 0.013192 -0.160761 7.219112
v 0.014999 -0.148270 7.202641
v 0.017168 -0.145124 7.199734
v 0.016972 -0.143998 7.200342
v 0.014268 -0.152170 7.210824
v 0.014085 -0.148844 7.204883
v 0.014113 -0.149782 7.206061
v 0.014074 -0.151588 7.210662
v 0.014113 -0.149782 7.206061
v 0.013192 -0.160761 7.219112
v 0.016347 -0.124269 7.172644
v 0.017135 -0.131930 7.180570
v 0.017135 -0.131930 7.180570
v 0.016007 -0.125240 7.171683
v 0.015928 -0.126764 7.170992
v 0.014673 -0.126069 7.170991
v 0.016799 -0.125858 7.170969
v 0.014942 -0.133762 7.182998
v 0.014910 -0.125844 7.171227
v 0.014995 -0.143108 7.199489
v 0.016052 -0.124964 7.172194
v 0.015487 -0.126157 7.171376
v 0.014718 -0.133336 7.182541
v 0.014990 -0.125825 7.172354
v 0.014995 -0.143108 7.199489
v 0.014990 -0.125781 7.171274
v 0.016867 -0.125825 7.170992
v 0.015928 -0.126764 7.170992
v 0.014990 -0.125781 7.171274
v 0.015928 -0.124820 7.172213
v 0.016867 -0.125825 7.170992
v 0.016867 -0.125396 7.172213
v 0.016590 -0.125271 7.172082
v 0.016867 -0.125825 7.170992
v 0.016867 -0.125396 7.172213
vn 0.7004 -0.3843 -0.6015
vn -0.1022 -0.3980 -0.9117
vn 0.9479 0.1109 -0.2985
vn 0.0599 0.4101 -0.9101
vn 0.8001 -0.2651 0.5382
vn 0.1330 -0.9510 -0.2792
vn -0.1393 -0.9173 0.3730
vn -0.6345 0.0039 -0.7729
vn 0.5926 0.0184 0.8053
vn 0.5554 -0.0380 0.8307
vn -0.1196 -0.6779 0.7254
vn 0.3849 0.7667 -0.5137
vn 0.6628 0.0109 0.7487
vn 0.5456 -0.1755 0.8195
vn 0.7744 0.4620 0.4323
vn -0.7857 -0.6109 0.0972
vn 0.0781 -0.6511 0.7550
vn 0.8899 0.4535 -0.0490
vn -0.3082 0.5246 -0.7936
vn 0.6007 -0.2494 0.7596
vn 0.8746 0.4024 -0.2704
vn -0.8113 0.0807 -0.5791
vn 0.3585 0.7171 -0.5976
vn -0.2444 -0.4103 0.8786
vn 0.8858 -0.0942 0.4545
vn -0.7781 -0.5474 0.3082
vn 0.9167 0.0812 0.3913
vn 0.8488 -0.1166 0.5156
vn -0.8940 0.0724 -0.4422
vn 0.8573 -0.1310 0.4978
vn 0.9666 0.2171 -0.1361
vn 0.3521 0.5882 -0.7281
vn 0.5254 -0.0947 0.8455
vn 0.6791 0.1482 -0.7189
vn 0.8318 -0.0848 0.5486
vn -0.9806 -0.1157 0.1580
vn -0.9647 -0.1973 -0.1745
vn -0.2267 0.3368 -0.9139
vn 0.0618 -0.2728 0.9601
vn 0.7268 0.1586 -0.6683
vn -0.8579 -0.0332 0.5127
vn -0.4477 -0.0393 -0.8933
vn 0.9775 0.0874 0.1920
vn 0.9645 0.1213 0.2344
vn 0.9637 0.0913 0.2508
vn 0.3293 -0.0484 0.9430
vn 0.2512 -0.0279 -0.9675
vn 0.4335 -0.0228 -0.9009
vn 0.1175 0.1971 0.9733
vn -0.8405 -0.0267 -0.5411
vn 0.9875 0.0935 0.1271
vn 0.1608 -0.1565 -0.9745
vn -0.9226 0.1294 0.3633
vn -0.0126 -0.2938 -0.9558
vn -0.1054 -0.3039 -0.9469
vn -0.6368 -0.2555 -0.7275
vn 0.6384 -0.1865 -0.7468
vn 0.5316 -0.2282 -0.8157
vn 0.1755 0.3303 0.9274
vn -0.0908 0.3220 0.9424
vn 0.2579 -0.4120 -0.8739
vn 0.1762 -0.3845 -0.9062
vn 0.0703 0.6258 0.7768
vn -0.3905 -0.3265 -0.8608
vn -0.2621 -0.3421 -0.9024
vn -0.8433 -0.2783 -0.4598
vn -0.6335 -0.3359 -0.6970
vn -0.9854 0.0334 -0.1669
vn -0.8027 0.2449 0.5438
vn 0.9412 0.2225 0.2541
vn 0.9658 -0.1085 -0.2354
vn 0.9448 0.1873 0.2687
vn 0.7938 0.2966 0.5309
vn -0.6796 -0.3100 -0.6648
vn 0.5134 0.6320 0.5805
vn -0.4820 -0.6029 -0.6358
vn -0.9326 0.2580 0.2522
vn 0.6836 0.2983 0.6661
vn -0.2386 -0.7056 -0.6673
vn 0.9089 -0.3349 -0.2487
vn -0.2279 0.7712 0.5944
vn 0.3575 0.8175 0.4516
vn -0.7432 -0.4847 -0.4612
vn -0.9778 -0.1212 -0.1712
vn -0.9733 0.2060 0.1010
vn -0.9911 0.1267 0.0413
vn -0.9896 0.1367 0.0452
vn 0.8260 0.5213 0.2144
vn 0.9301 0.3197 0.1808
vn 0.8942 -0.3653 -0.2588
vn 0.2582 -0.7625 -0.5932
vn -0.4104 -0.7510 -0.5172
vn -0.4677 -0.6648 -0.5825
vn 0.9904 -0.0254 -0.1361
vn -0.9242 0.3434 0.1669
vn -0.9268 0.3276 0.1837
vn -0.8118 0.4965 0.3075
vn -0.9929 0.0970 0.0695
vn -0.9929 0.0970 0.0690
vn -0.9898 0.0406 0.1362
vn -0.8080 0.5046 0.3041
vn -0.9290 0.3640 0.0666
vn -0.9146 0.3479 0.2059
vn -0.1436 0.1436 -0.9792
vn -0.0833 0.7368 -0.6710
vn 0.9993 -0.0196 -0.0322
vn 0.9452 0.2663 0.1892
s 1
f 4//1 5//2 3//3
f 3//3 5//2 6//4
f 4//1 7//5 1//6
f 7//5 4//1 3//3
f 2//7 1//6 7//5
f 5//2 1//6 2//7
f 2//7 10//8 5//2
f 3//3 8//9 7//5
f 7//5 8//9 2//7
f 6//4 5//2 10//8
f 2//7 11//10 12//11
f 3//3 6//4 9//12
f 10//8 9//12 6//4
f 8//9 3//3 14//13
f 8//9 14//13 13//14
f 3//3 9//12 15//15
f 16//16 10//8 2//7
f 16//16 2//7 12//11
f 12//11 18//17 16//16
f 13//14 17//18 18//17
f 13//14 14//13 17//18
f 19//19 9//12 10//8
f 17//20 15//15 20//21
f 21//22 10//8 16//16
f 15//15 9//12 20//21
f 22//23 20//21 9//12
f 18//17 27//24 16//16
f 17//18 27//24 18//17
f 21//22 19//19 10//8
f 23//25 17//20 20//21
f 24//26 21//22 16//16
f 16//16 27//24 24//26
f 17//18 25//27 27//24
f 23//25 26//28 17//20
f 21//22 24//26 28//29
f 26//28 23//25 29//30
f 22//23 30//31 20//21
f 31//32 19//19 21//22
f 23//25 30//33 29//30
f 19//19 31//32 30//33
f 31//32 32//34 30//33
f 30//33 33//35 29//30
f 32//34 33//35 30//33
f 34//36 21//22 28//29
f 27//24 35//37 24//26
f 35//37 34//36 28//29
f 36//38 32//34 31//32
f 34//36 35//37 27//24
f 27//24 25//27 37//39
f 27//24 37//39 34//36
f 36//38 38//40 32//34
f 29//30 33//35 37//39
f 37//39 39//41 34//36
f 38//40 34//36 40//42
f 34//36 39//41 40//42
f 41//43 42//44 43//45
f 37//39 33//35 45//46
f 32//34 44//47 46//48
f 32//34 38//40 44//47
f 40//42 44//47 38//40
f 39//41 37//39 48//49
f 47//50 40//42 39//41
f 43//45 42//44 45//46
f 37//39 45//46 48//49
f 42//44 49//51 45//46
f 50//52 44//47 40//42
f 53//53 39//41 48//49
f 51//54 52//55 47//50
f 53//53 54//56 47//50
f 44//47 55//57 46//48
f 44//47 52//58 55//57
f 40//42 47//50 52//55
f 53//53 47//50 39//41
f 45//46 49//51 48//49
f 49//51 56//59 48//49
f 53//53 48//49 58//60
f 67//61 55//57 52//58
f 61//62 67//61 52//58
f 48//49 56//59 71//63
f 54//56 62//64 63//65
f 64//66 54//56 53//53
f 62//64 54//56 64//66
f 71//63 58//60 48//49
f 65//67 53//68 57//69
f 58//60 71//63 57//69
f 59//70 66//71 60//72
f 68//73 71//63 56//59
f 61//62 69//74 67//61
f 62//64 64//66 69//74
f 60//72 66//71 70//75
f 69//74 72//76 67//61
f 72//76 66//71 67//61
f 72//76 69//74 64//66
f 65//67 57//69 73//77
f 57//69 71//63 73//77
f 70//78 68//73 56//59
f 74//79 75//80 66//71
f 72//76 74//79 66//71
f 77//81 73//77 70//75
f 73//77 71//63 70//75
f 70//75 66//71 75//80
f 70//75 75//80 76//82
f 74//79 72//76 78//83
f 65//67 73//77 79//84
f 80//85 81//86 82//87
f 83//88 76//82 84//89
f 76//82 75//80 85//90
f 76//82 83//88 70//75
f 77//81 70//75 83//88
f 75//80 74//79 86//91
f 87//92 74//79 88//93
f 89//94 85//90 75//80
f 74//79 78//83 88//93
f 93//95 94//96 95//97
f 96//98 91//99 90//100
f 95//97 97//101 93//95
f 81//86 80//85 90//102
f 92//103 90//102 80//85
f 98//104 99//104 100//104
f 101//105 102//105 103//105
f 104//106 85//90 89//94
f 107//107 83//88 84//89
l 105 106
