# Blender v2.78 (sub 0) OBJ File: 'exporter.blend'
# www.blender.org
o FJ1728.obj_grp1.645
v -0.064706 -0.319383 7.172119
v -0.064506 -0.319765 7.172170
v -0.064638 -0.319574 7.174612
v -0.067636 -0.315753 7.170145
v -0.064766 -0.314500 7.169075
v -0.068479 -0.314949 7.172451
v -0.051772 -0.305220 7.184461
v -0.033239 -0.281950 7.196368
v -0.063696 -0.318274 7.169981
v -0.040559 -0.295727 7.184380
v -0.051935 -0.305407 7.184137
v -0.039402 -0.293728 7.193808
v -0.039402 -0.293728 7.193808
v -0.043041 -0.292117 7.191085
v -0.041573 -0.291288 7.191928
v -0.027588 -0.284478 7.199993
v -0.032805 -0.286345 7.200305
v -0.029515 -0.279707 7.205016
v -0.025550 -0.270999 7.204703
v -0.023543 -0.261367 7.216541
v -0.023182 -0.274253 7.204192
v -0.025474 -0.271887 7.205139
v -0.020470 -0.270583 7.211638
v -0.022467 -0.263511 7.218267
v -0.022467 -0.263511 7.218267
v -0.019345 -0.260055 7.221748
v -0.017502 -0.259331 7.218596
v -0.017340 -0.237108 7.233984
v -0.019923 -0.242197 7.229273
v -0.018745 -0.248490 7.221976
v -0.019995 -0.242912 7.229018
v -0.017896 -0.225519 7.232627
v -0.018951 -0.232947 7.232117
v -0.017655 -0.229072 7.232887
v -0.016017 -0.236527 7.228292
v -0.017372 -0.259159 7.218787
v -0.015928 -0.236618 7.228079
v -0.015784 -0.228843 7.230372
v -0.012148 -0.215836 7.235318
v -0.013194 -0.205381 7.232589
v -0.018951 -0.232947 7.232117
v -0.017683 -0.225351 7.235121
v -0.016860 -0.214084 7.234182
v -0.014995 -0.204058 7.232703
v -0.015971 -0.212962 7.236770
v -0.017221 -0.205833 7.233706
v -0.013948 -0.200993 7.236849
v -0.014667 -0.201003 7.233714
v -0.014000 -0.192062 7.230567
v -0.011334 -0.190290 7.233058
v -0.013070 -0.181653 7.227657
v -0.011880 -0.196007 7.232163
v -0.014057 -0.186064 7.228997
v -0.011880 -0.196007 7.232163
v -0.013070 -0.181653 7.227657
v -0.015778 -0.189011 7.231153
v -0.014163 -0.184224 7.232445
v -0.015657 -0.173710 7.227610
v -0.014037 -0.170449 7.227478
v -0.011873 -0.181129 7.230353
v -0.011920 -0.181230 7.230380
v -0.014930 -0.177537 7.226499
v -0.017133 -0.188576 7.230604
v -0.015657 -0.173710 7.227610
v -0.013226 -0.174714 7.225028
v -0.014112 -0.186462 7.229206
v -0.013226 -0.174714 7.225028
v -0.013094 -0.165684 7.221697
v -0.013397 -0.165780 7.221509
v -0.016111 -0.167527 7.222628
v -0.015019 -0.163391 7.222697
v -0.014032 -0.169469 7.222250
v -0.016359 -0.157890 7.218054
v -0.014998 -0.163361 7.222633
v -0.014088 -0.159837 7.215920
v -0.013192 -0.160761 7.219112
v -0.014999 -0.148225 7.202562
v -0.017196 -0.145711 7.200679
v -0.016660 -0.147929 7.206850
v -0.014290 -0.152195 7.210854
v -0.014047 -0.148407 7.204215
v -0.014113 -0.149782 7.206061
v -0.014074 -0.151588 7.210709
v -0.013192 -0.160761 7.219112
v -0.014113 -0.149782 7.206061
v -0.016330 -0.124290 7.172627
v -0.017135 -0.131930 7.180616
v -0.017135 -0.131930 7.180616
v -0.016010 -0.125245 7.171679
v -0.015928 -0.126764 7.170992
v -0.014664 -0.126072 7.170985
v -0.016797 -0.125859 7.170969
v -0.014925 -0.133816 7.183106
v -0.014895 -0.125843 7.171227
v -0.014995 -0.143108 7.199489
v -0.016052 -0.124964 7.172194
v -0.014718 -0.133336 7.182541
v -0.015487 -0.126157 7.171376
v -0.014990 -0.125825 7.172354
v -0.014995 -0.143108 7.199489
v -0.014990 -0.125781 7.171274
v -0.015928 -0.126764 7.170992
v -0.016867 -0.125825 7.170992
v -0.014990 -0.125781 7.171274
v -0.016867 -0.125825 7.170992
v -0.015928 -0.124820 7.172213
v -0.016867 -0.125396 7.172213
v -0.016590 -0.125271 7.172082
v -0.016867 -0.125825 7.170992
v -0.016867 -0.125396 7.172213
vn -0.7724 -0.5985 -0.2124
vn 0.1109 -0.9937 0.0183
vn -0.1834 -0.8479 0.4975
vn -0.8108 -0.0388 -0.5840
vn -0.0759 0.3588 -0.9303
vn 0.3198 -0.5889 -0.7423
vn -0.9776 0.1973 0.0732
vn -0.5735 -0.0173 0.8190
vn -0.3940 0.7587 -0.5188
vn 0.6234 0.0334 -0.7812
vn 0.1173 -0.6750 0.7284
vn 0.2204 -0.7432 0.6318
vn -0.6603 0.0100 0.7510
vn -0.5430 -0.1779 0.8207
vn -0.7497 0.4309 0.5023
vn 0.7892 -0.6087 0.0813
vn 0.0446 -0.6207 0.7827
vn -0.9342 0.2716 0.2314
vn 0.3087 0.5235 -0.7941
vn -0.5965 -0.2710 0.7555
vn -0.9676 0.0644 0.2441
vn 0.8122 0.0758 -0.5784
vn -0.3199 0.7159 -0.6206
vn 0.2707 -0.5028 0.8209
vn 0.8047 -0.5307 0.2661
vn -0.4398 -0.4539 0.7750
vn -0.8900 -0.0640 0.4515
vn 0.8960 0.0668 -0.4390
vn 0.0404 -0.2796 0.9593
vn -0.9872 0.1534 -0.0428
vn -0.3768 0.5818 -0.7208
vn -0.6241 -0.3406 0.7032
vn -0.8942 0.2677 -0.3589
vn -0.6164 0.1454 -0.7739
vn -0.9519 0.0169 0.3060
vn -0.9768 0.1491 -0.1538
vn 0.9790 -0.1458 0.1425
vn 0.9935 -0.0489 -0.1025
vn 0.2155 0.3434 -0.9142
vn -0.7285 0.1455 -0.6695
vn 0.8470 -0.1705 0.5036
vn 0.3998 -0.0190 -0.9164
vn -0.9775 0.0874 0.1919
vn -0.9637 0.0913 0.2510
vn -0.9645 0.1188 0.2361
vn -0.3182 -0.0684 0.9455
vn -0.4581 0.0121 -0.8888
vn -0.2517 -0.0325 -0.9673
vn -0.0754 0.1015 0.9920
vn -0.9052 -0.0273 -0.4242
vn -0.1739 -0.1572 -0.9721
vn 0.8497 0.1643 0.5011
vn 0.0083 -0.2943 -0.9557
vn 0.5838 -0.1740 -0.7930
vn 0.1126 -0.3038 -0.9461
vn 0.9433 -0.0578 -0.3268
vn 0.6280 -0.2566 -0.7347
vn -0.6776 -0.0977 -0.7289
vn -0.8558 0.1267 0.5015
vn -0.5725 -0.2213 -0.7895
vn -0.7058 0.2388 0.6669
vn 0.1735 0.4815 0.8591
vn -0.2569 -0.4168 -0.8719
vn -0.1759 -0.3847 -0.9061
vn 0.2475 -0.3411 -0.9069
vn 0.2242 -0.3464 -0.9109
vn 0.8462 -0.2714 -0.4587
vn 0.2482 0.2625 0.9325
vn 0.6089 -0.3301 -0.7213
vn 0.8432 0.1790 0.5070
vn 0.9870 0.0449 -0.1542
vn -0.9417 0.2226 0.2524
vn -0.9443 0.1889 0.2695
vn -0.9590 -0.1140 -0.2593
vn -0.0653 0.5618 0.8247
vn 0.6627 -0.3729 -0.6494
vn -0.5112 0.5939 0.6213
vn 0.4854 -0.6025 -0.6336
vn 0.9156 -0.1125 -0.3861
vn 0.8985 0.2776 0.3400
vn -0.7201 0.2806 0.6346
vn 0.2380 -0.6770 -0.6964
vn -0.9092 -0.2673 -0.3192
vn 0.4391 0.6734 0.5947
vn -0.4917 0.6780 0.5464
vn 0.6786 -0.5406 -0.4972
vn 0.9785 -0.1183 -0.1688
vn 0.9733 0.2061 0.1012
vn 0.9896 0.1366 0.0452
vn 0.9914 0.1245 0.0403
vn -0.8213 0.5229 0.2281
vn -0.9192 0.3385 0.2012
vn -0.9080 -0.3417 -0.2426
vn -0.2938 -0.7560 -0.5849
vn 0.4087 -0.7518 -0.5175
vn 0.4634 -0.6643 -0.5865
vn -0.9902 -0.0279 -0.1369
vn 0.9251 0.3408 0.1674
vn 0.8118 0.4966 0.3072
vn 0.9273 0.3272 0.1817
vn 0.9896 0.1176 0.0831
vn 0.9871 0.0624 0.1476
vn 0.9897 0.1173 0.0826
vn 0.8080 0.5046 0.3041
vn 0.9271 0.3701 0.0593
vn 0.9130 0.3509 0.2083
vn 0.1410 0.1579 -0.9773
vn 0.0822 0.7364 -0.6716
vn -0.9992 -0.0217 -0.0336
vn -0.9384 0.2815 0.2003
s 1
f 1//1 2//2 3//3
f 4//4 5//5 9//6
f 4//4 9//6 1//1
f 3//3 6//7 4//4
f 3//3 4//4 1//1
f 7//8 6//7 3//3
f 4//4 6//7 8//9
f 9//6 5//5 10//10
f 2//2 9//6 10//10
f 11//11 3//3 2//2
f 2//2 12//12 11//11
f 4//4 8//9 5//5
f 10//10 5//5 8//9
f 7//8 14//13 6//7
f 7//8 13//14 14//13
f 6//7 15//15 8//9
f 16//16 2//2 10//10
f 16//16 12//12 2//2
f 12//12 16//16 17//17
f 13//14 17//17 18//18
f 13//14 18//18 14//13
f 19//19 10//10 8//9
f 18//20 20//21 15//15
f 21//22 16//16 10//10
f 15//15 20//21 8//9
f 22//23 8//9 20//21
f 17//17 16//16 26//24
f 18//18 17//17 26//24
f 21//22 10//10 19//19
f 23//25 16//16 21//22
f 16//16 23//25 26//24
f 18//18 26//24 24//26
f 20//21 18//20 25//27
f 21//22 27//28 23//25
f 25//27 28//29 20//21
f 24//26 26//24 28//29
f 22//23 20//21 29//30
f 30//31 21//22 19//19
f 20//21 28//29 31//32
f 19//19 29//33 30//31
f 30//31 29//33 32//34
f 31//32 28//29 34//35
f 32//34 29//33 33//36
f 35//37 27//28 21//22
f 26//24 23//25 36//38
f 36//38 27//28 35//37
f 37//39 30//31 32//34
f 26//24 36//38 28//29
f 35//37 28//29 36//38
f 37//39 32//34 38//40
f 28//29 35//37 39//41
f 38//40 40//42 35//37
f 35//37 40//42 39//41
f 41//43 42//44 43//45
f 28//29 45//46 34//35
f 32//34 46//47 44//48
f 32//34 44//48 38//40
f 40//42 38//40 44//48
f 39//41 47//49 28//29
f 42//44 45//46 43//45
f 28//29 47//49 45//46
f 43//45 45//46 48//50
f 49//51 40//42 44//48
f 50//52 47//49 39//41
f 51//53 52//54 53//55
f 50//52 54//56 55//57
f 44//48 46//47 56//58
f 45//46 47//49 57//59
f 44//48 56//58 53//60
f 40//42 53//55 52//54
f 39//41 40//42 52//54
f 50//52 39//41 54//56
f 45//46 57//59 48//50
f 48//50 57//59 58//61
f 50//52 59//62 47//49
f 62//63 53//60 56//58
f 65//64 53//60 62//63
f 57//59 59//62 58//61
f 55//57 66//65 67//66
f 68//67 50//52 55//57
f 67//66 68//67 55//57
f 59//62 50//52 61//68
f 69//69 60//70 50//71
f 61//68 60//70 59//62
f 63//72 64//73 70//74
f 71//75 58//61 59//62
f 65//64 62//63 72//76
f 67//66 72//76 68//67
f 64//73 73//77 70//74
f 72//76 62//63 75//78
f 75//78 62//63 70//74
f 59//62 73//77 74//79
f 75//78 68//67 72//76
f 69//69 76//80 60//70
f 60//70 76//80 59//62
f 73//81 58//61 71//75
f 59//62 74//79 71//75
f 77//82 70//74 78//83
f 75//78 70//74 77//82
f 80//84 73//77 76//80
f 76//80 73//77 59//62
f 80//84 79//85 73//77
f 73//77 78//83 70//74
f 73//77 79//85 78//83
f 77//82 81//86 75//78
f 69//69 82//87 76//80
f 83//88 84//89 85//90
f 86//91 87//92 79//85
f 79//85 88//93 78//83
f 80//84 86//91 79//85
f 78//83 89//94 77//82
f 90//95 91//96 77//82
f 92//97 78//83 88//93
f 77//82 91//96 81//86
f 96//98 97//99 98//100
f 99//101 93//102 94//103
f 97//99 96//98 100//104
f 85//90 93//105 83//88
f 95//106 83//88 93//105
f 101//107 102//107 103//107
f 104//108 105//108 106//108
f 107//109 92//97 88//93
f 110//110 87//92 86//91
l 108 109
