# Blender v2.78 (sub 0) OBJ File: 'exporter.blend'
# www.blender.org
o FJ1780.obj_grp1.698
v -0.002602 -0.484876 7.193855
v -0.003053 -0.484430 7.193761
v -0.001684 -0.485095 7.193771
v -0.002174 -0.481808 7.192803
v -0.003148 -0.484540 7.193760
v -0.002969 -0.483425 7.197235
v -0.002591 -0.483144 7.198409
v -0.002969 -0.483425 7.197235
v -0.003059 -0.482543 7.198456
v -0.003053 -0.484430 7.193761
v -0.003049 -0.481285 7.194982
v 0.000300 -0.480572 7.206076
v -0.002806 -0.481063 7.201796
v -0.002965 -0.481998 7.200758
v -0.003056 -0.481097 7.201789
v -0.002924 -0.480967 7.202963
v -0.003057 -0.479410 7.205044
v -0.002955 -0.476099 7.211219
v -0.003078 -0.482134 7.193104
v -0.003062 -0.482055 7.193527
v -0.003078 -0.482134 7.193104
v -0.002938 -0.481512 7.193735
v -0.003078 -0.482134 7.193104
v -0.002572 -0.481693 7.193010
v -0.002640 -0.481584 7.192941
v -0.003060 -0.481268 7.194988
v -0.002891 -0.477751 7.201386
v -0.001901 -0.478085 7.199872
v -0.003078 -0.477477 7.202118
v -0.002974 -0.477684 7.208643
v -0.003061 -0.476318 7.210052
v -0.002974 -0.477684 7.208643
v -0.003061 -0.476318 7.210052
v -0.003102 -0.473854 7.208528
v -0.003034 -0.475188 7.212585
v -0.003061 -0.475355 7.211601
v -0.002965 -0.476107 7.211226
v -0.003061 -0.475355 7.211601
v -0.002982 -0.475172 7.212540
v -0.002814 -0.464801 7.224562
v -0.003078 -0.470604 7.212915
v 0.001987 -0.473299 7.217536
v -0.002557 -0.470074 7.213118
v -0.003078 -0.470604 7.212915
v -0.002574 -0.464537 7.224541
v -0.002975 -0.459739 7.228780
v -0.003069 -0.467378 7.216500
v -0.002651 -0.463356 7.220119
v -0.002701 -0.464222 7.218948
v -0.003053 -0.463145 7.220301
v -0.002435 -0.456664 7.225283
v -0.003078 -0.458753 7.224089
v -0.003218 -0.458274 7.224081
v -0.002289 -0.456856 7.225374
v -0.003032 -0.456097 7.225883
v -0.003071 -0.457637 7.224979
v -0.003085 -0.456193 7.231597
v 0.001010 -0.451303 7.237725
v -0.002863 -0.449608 7.236705
v 0.000917 -0.450883 7.229614
v -0.002221 -0.449522 7.237170
v -0.002204 -0.450032 7.237140
v -0.002603 -0.449017 7.231212
v -0.002602 -0.449055 7.231224
v -0.002701 -0.449252 7.231218
v -0.002625 -0.449948 7.234509
v -0.003078 -0.450157 7.235262
v -0.003073 -0.449667 7.232633
v -0.003078 -0.450157 7.235262
v -0.002602 -0.449886 7.234792
v -0.003073 -0.449667 7.232633
v -0.002630 -0.449068 7.231303
v -0.001885 -0.450170 7.236825
v -0.003000 -0.450696 7.236295
v -0.003000 -0.449627 7.236764
v -0.003092 -0.450142 7.235258
v -0.003000 -0.449627 7.236764
v -0.002602 -0.449886 7.234792
v -0.002597 -0.449460 7.236706
v -0.002255 -0.450103 7.237128
v -0.002609 -0.449126 7.237465
v -0.002602 -0.449126 7.237422
v -0.002598 -0.449429 7.236734
v -0.002204 -0.449581 7.237280
v -0.002609 -0.449126 7.237465
v -0.002602 -0.449126 7.237422
v -0.002204 -0.449581 7.237280
v -0.002204 -0.450032 7.237140
v -0.001806 -0.449931 7.236858
v -0.001806 -0.449931 7.236858
v -0.002204 -0.450032 7.237140
v -0.001806 -0.449909 7.237280
v 0.000111 -0.485722 7.194132
v 0.002170 -0.486357 7.196027
v 0.001698 -0.486830 7.194336
v 0.001765 -0.486797 7.194208
v 0.002852 -0.485299 7.194087
v 0.001709 -0.483087 7.193151
v 0.000704 -0.482277 7.192840
v 0.003422 -0.484092 7.193557
v 0.002268 -0.451790 7.233783
v -0.001803 -0.449903 7.237267
v -0.002204 -0.450032 7.237140
v -0.001811 -0.449923 7.237277
v 0.001453 -0.451139 7.237609
v 0.001453 -0.451139 7.237609
v 0.004527 -0.451491 7.229681
v -0.001408 -0.442880 7.241882
v -0.001411 -0.442878 7.241881
v -0.001408 -0.442881 7.241881
v -0.001409 -0.442878 7.241882
v -0.001409 -0.442878 7.241882
v -0.001408 -0.442875 7.241881
v -0.001411 -0.442878 7.241881
v -0.001408 -0.442876 7.241882
v -0.001408 -0.442880 7.241882
v -0.001405 -0.442878 7.241881
v -0.001408 -0.442881 7.241881
v -0.001407 -0.442878 7.241882
v -0.001407 -0.442878 7.241882
v -0.001408 -0.442875 7.241881
v -0.001405 -0.442878 7.241881
v -0.001408 -0.442876 7.241882
v 0.001708 -0.486536 7.194386
v 0.002203 -0.486651 7.194841
v 0.002189 -0.486322 7.196014
v 0.002557 -0.485689 7.193932
v 0.001777 -0.486749 7.194324
v 0.002196 -0.486641 7.194847
v 0.002977 -0.485276 7.193995
v 0.003589 -0.484087 7.193447
v 0.002557 -0.485093 7.199055
v 0.002193 -0.486324 7.196020
v 0.002512 -0.485472 7.198319
v 0.002513 -0.485295 7.199204
v 0.003370 -0.484338 7.201637
v 0.003371 -0.484172 7.202772
v 0.003370 -0.484482 7.201632
v 0.004159 -0.483131 7.197127
v 0.003750 -0.483931 7.203969
v 0.003706 -0.482431 7.207643
v 0.003368 -0.484186 7.202775
v 0.003958 -0.483996 7.204273
v 0.004231 -0.483228 7.205497
v 0.003782 -0.483726 7.204418
v 0.004282 -0.482398 7.205799
v 0.007780 -0.479080 7.209003
v 0.004239 -0.482857 7.207005
v 0.005162 -0.481441 7.210092
v 0.005549 -0.481018 7.210583
v 0.003402 -0.484119 7.193631
v 0.006120 -0.478478 7.205577
v 0.008390 -0.479521 7.216140
v 0.008409 -0.458175 7.234642
v 0.008568 -0.472609 7.213934
v 0.004567 -0.451611 7.237757
v 0.007072 -0.452079 7.233013
v 0.001770 -0.451047 7.237998
v 0.001724 -0.451030 7.237985
v 0.001770 -0.451047 7.237998
v 0.001724 -0.451030 7.237985
v 0.003959 -0.451564 7.237646
v 0.003369 -0.451314 7.238079
v 0.004564 -0.451571 7.237750
v 0.003369 -0.451314 7.238079
v 0.004166 -0.451828 7.238126
v 0.007951 -0.451531 7.229427
v 0.009344 -0.479475 7.216345
v 0.012504 -0.459630 7.235614
v 0.011730 -0.450885 7.230521
v 0.007193 -0.451824 7.238257
v 0.011345 -0.451739 7.238670
v 0.004564 -0.451571 7.237750
v 0.004166 -0.451828 7.238126
v 0.008236 -0.452235 7.238219
v 0.006952 -0.451760 7.238360
v 0.008200 -0.452177 7.238232
v 0.008137 -0.451545 7.229425
v 0.010771 -0.475743 7.213409
v 0.020609 -0.449161 7.236044
v 0.014054 -0.448855 7.232623
v 0.011694 -0.452071 7.238867
v 0.011629 -0.450815 7.230490
v 0.010535 -0.452110 7.238595
v 0.021080 -0.475628 7.231311
v 0.024040 -0.454791 7.235457
v 0.013009 -0.451442 7.239442
v 0.012907 -0.451431 7.239404
v 0.011229 -0.451682 7.238760
v 0.011331 -0.451671 7.238642
v 0.010535 -0.452110 7.238595
v 0.011716 -0.452051 7.238830
v 0.014795 -0.449944 7.240661
v 0.015698 -0.447221 7.234787
v 0.015697 -0.448034 7.241662
v 0.017245 -0.477001 7.226990
v 0.025220 -0.472067 7.231002
v 0.022575 -0.465768 7.238331
v 0.014914 -0.449845 7.240707
v 0.016575 -0.447031 7.242507
v 0.017644 -0.448155 7.242397
v 0.016075 -0.446467 7.235300
v 0.015967 -0.447030 7.242090
v 0.016186 -0.445674 7.236475
v 0.015659 -0.446355 7.242414
v 0.015554 -0.446477 7.242690
v 0.016154 -0.446409 7.242557
v 0.015608 -0.446432 7.242491
v 0.016247 -0.445933 7.242351
v 0.015608 -0.446432 7.242491
v 0.016144 -0.446424 7.242632
v 0.016144 -0.446421 7.242627
v 0.016939 -0.447338 7.242625
v 0.019545 -0.445069 7.239117
v 0.016111 -0.444240 7.241322
v 0.015711 -0.447137 7.234839
v 0.016197 -0.445672 7.236482
v 0.016117 -0.446372 7.235497
v 0.016309 -0.445307 7.236930
v 0.016141 -0.443574 7.238547
v 0.016507 -0.444638 7.237186
v 0.016011 -0.441911 7.239617
v 0.016518 -0.443534 7.238344
v 0.016109 -0.442203 7.239910
v 0.016058 -0.442405 7.240417
v 0.015678 -0.442198 7.239909
v 0.015757 -0.442442 7.240520
v 0.015711 -0.442198 7.239910
v 0.015757 -0.442442 7.240520
v 0.016109 -0.442203 7.239910
v 0.015711 -0.442198 7.239910
v 0.020705 -0.451215 7.242204
v 0.019575 -0.449703 7.242351
v 0.019575 -0.449703 7.242351
v 0.018788 -0.448208 7.242163
v 0.018788 -0.448208 7.242163
v 0.016109 -0.442203 7.239910
v 0.027757 -0.472262 7.238132
v 0.023023 -0.453610 7.242400
v 0.022814 -0.453326 7.242357
v 0.020703 -0.451215 7.242210
v 0.019509 -0.449526 7.242301
v 0.020703 -0.451215 7.242210
v 0.022567 -0.447913 7.239207
v 0.025733 -0.473410 7.236178
v 0.034676 -0.467302 7.244456
v 0.024445 -0.455433 7.242421
v 0.024435 -0.455527 7.242398
v 0.030285 -0.457425 7.240238
v 0.025246 -0.450832 7.238869
v 0.025374 -0.450712 7.239077
v 0.037333 -0.465733 7.241679
v 0.034960 -0.468084 7.244217
v 0.034820 -0.468175 7.244182
v 0.035830 -0.464315 7.241489
v 0.027770 -0.458762 7.242860
v 0.027798 -0.458787 7.242820
v 0.034840 -0.467125 7.244889
v 0.034716 -0.467332 7.244370
v 0.034820 -0.468175 7.244182
v 0.035227 -0.467921 7.244088
v 0.037315 -0.465634 7.241724
v 0.036905 -0.465712 7.241649
v 0.035396 -0.467446 7.244330
v 0.035227 -0.467921 7.244088
v 0.035263 -0.467423 7.244195
v 0.037356 -0.465625 7.241786
v 0.035233 -0.467429 7.244182
vn -0.1451 -0.3816 -0.9129
vn -0.1140 -0.2890 -0.9505
vn -0.0208 -0.2702 -0.9626
vn -0.0376 0.2326 -0.9718
vn -0.2547 -0.8794 0.4022
vn -0.3122 -0.8707 0.3801
vn -0.5164 -0.7978 0.3112
vn -0.9728 -0.2154 0.0848
vn -0.9554 -0.2411 0.1705
vn -0.9980 -0.0543 0.0326
vn -0.9983 -0.0531 0.0247
vn -0.4275 -0.7976 0.4256
vn -0.9920 -0.0778 0.0990
vn -0.3089 -0.8736 0.3762
vn -0.9578 -0.2526 0.1370
vn -0.8156 -0.5596 0.1472
vn -0.9787 -0.1888 0.0805
vn -0.4370 -0.7879 0.4338
vn -0.9993 -0.0002 0.0368
vn -0.9879 0.1453 -0.0544
vn -0.8567 0.4486 -0.2547
vn -0.8236 0.4999 -0.2681
vn -0.2328 -0.1456 -0.9616
vn -0.3996 0.2840 -0.8716
vn -0.2996 0.8301 -0.4703
vn -0.8030 0.5473 -0.2362
vn -0.9980 -0.0353 0.0525
vn -0.0366 0.8916 -0.4514
vn -0.4234 0.7774 -0.4652
vn 0.7589 -0.5449 0.3566
vn -0.9695 -0.2173 0.1133
vn -0.9800 -0.1702 0.1033
vn -0.9972 -0.0676 0.0318
vn -0.9972 -0.0405 0.0623
vn -0.3430 -0.7719 0.5353
vn -0.9824 -0.1707 0.0761
vn -0.9757 -0.1856 0.1165
vn -0.9960 -0.0699 0.0558
vn -0.9892 -0.1038 0.1037
vn -0.9891 -0.1123 0.0948
vn -0.9996 -0.0135 0.0256
vn -0.3750 -0.6879 0.6214
vn -0.7069 0.6019 -0.3716
vn -0.1396 0.7481 -0.6488
vn -0.5311 0.6670 -0.5225
vn -0.2602 -0.6774 0.6881
vn -0.9202 0.2628 -0.2902
vn -0.9645 0.2028 -0.1691
vn -0.8435 -0.3503 0.4072
vn 0.0681 0.6385 -0.7666
vn -0.5965 0.5226 -0.6091
vn -0.5281 0.6836 -0.5038
vn -0.9922 0.1222 -0.0248
vn -0.0266 0.6175 -0.7861
vn -0.9672 -0.0735 -0.2432
vn -0.9455 -0.2109 -0.2483
vn -0.8222 -0.3579 0.4426
vn -0.0912 -0.1766 0.9801
vn -0.4974 -0.5382 0.6804
vn -0.4060 0.6802 -0.6103
vn 0.0513 0.7287 -0.6829
vn -0.5994 -0.0782 0.7966
vn -0.5072 -0.8585 -0.0760
vn -0.0424 0.6014 -0.7978
vn -0.9990 -0.0202 0.0395
vn -0.9883 0.1188 -0.0956
vn -0.9434 0.2202 -0.2479
vn -0.3452 0.9227 0.1715
vn -0.3541 0.9190 0.1731
vn -0.4957 0.8514 0.1716
vn -0.5246 0.8232 0.2170
vn -0.9977 -0.0314 0.0600
vn -0.9977 -0.0286 0.0616
vn -0.5796 0.7965 -0.1724
vn -0.5290 0.8262 -0.1937
vn -0.3541 0.8762 0.3270
vn -0.4279 0.8807 0.2031
vn -0.1517 0.4766 0.8659
vn 0.4845 0.8478 -0.2156
vn 0.7230 0.6529 -0.2259
vn 0.7016 0.6325 -0.3281
vn 0.6111 -0.2154 0.7617
vn -0.2813 0.9583 -0.0513
vn -0.2115 0.9637 0.1629
vn -0.4441 -0.8039 0.3956
vn -0.5644 -0.7361 0.3737
vn -0.5694 -0.7262 0.3853
vn 0.0342 -0.3361 -0.9412
vn 0.1947 0.3263 -0.9250
vn 0.6875 0.5268 -0.4999
vn -0.1893 -0.0937 0.9774
vn -0.2334 -0.0777 0.9693
vn 0.3432 0.8079 -0.4790
vn 0.2443 0.9584 -0.1475
vn 0.2451 0.9681 0.0518
vn 0.0510 0.4017 0.9144
vn 0.3496 0.9295 0.1172
vn 0.0482 0.9246 -0.3778
vn -0.4194 -0.8738 0.2462
vn -0.4230 -0.8705 0.2515
vn -0.4272 -0.8767 0.2213
vn 0.6161 -0.5941 -0.5171
vn 0.6747 -0.6368 -0.3731
vn 0.8267 -0.5492 -0.1220
vn 0.8988 -0.3818 0.2155
vn 0.8632 -0.5009 0.0628
vn -0.6230 -0.6725 0.3996
vn 0.8256 -0.5640 0.0158
vn 0.6105 -0.7763 0.1570
vn -0.5109 -0.8050 0.3014
vn -0.6661 -0.7235 0.1810
vn 0.7963 -0.6038 0.0363
vn 0.3880 -0.9129 0.1270
vn 0.9268 -0.3526 -0.1296
vn -0.5558 -0.7661 0.3228
vn -0.0717 -0.9154 0.3960
vn 0.9758 -0.0829 -0.2026
vn -0.2846 -0.9250 0.2516
vn 0.7936 -0.5590 0.2400
vn 0.7448 -0.5967 0.2988
vn 0.7283 -0.6844 0.0341
vn 0.8295 -0.4981 -0.2527
vn 0.8305 -0.5052 -0.2348
vn 0.0451 -0.2913 -0.9556
vn 0.0221 -0.0917 -0.9955
vn 0.0268 -0.3790 -0.9250
vn 0.6195 0.6587 -0.4270
vn -0.3176 -0.8195 0.4770
vn -0.3116 -0.5488 0.7757
vn 0.4141 0.6164 -0.6698
vn 0.1222 0.9834 -0.1339
vn -0.0749 -0.3637 0.9285
vn 0.1562 0.9460 -0.2841
vn 0.3367 0.5524 0.7625
vn 0.3367 0.5525 0.7625
vn -0.0897 0.9881 0.1251
vn -0.0430 0.9965 0.0716
vn 0.6801 -0.7155 0.1599
vn 0.6479 -0.7616 -0.0118
vn 0.2762 -0.9609 0.0174
vn -0.4065 -0.4269 0.8078
vn 0.1288 0.6180 -0.7755
vn 0.0101 0.9997 0.0203
vn -0.1919 0.9687 0.1571
vn -0.0229 0.8265 0.5625
vn -0.0271 0.8673 0.4970
vn -0.0503 0.8377 0.5437
vn -0.1915 -0.5180 0.8337
vn -0.2094 -0.7012 0.6815
vn 0.0547 0.6144 -0.7871
vn 0.6705 0.3437 -0.6575
vn 0.5115 0.5279 -0.6780
vn 0.4008 0.5126 -0.7593
vn -0.2424 -0.3605 0.9007
vn -0.3997 0.9072 0.1313
vn -0.1114 -0.3479 0.9309
vn -0.2421 0.1783 0.9537
vn -0.5683 -0.4549 0.6857
vn 0.6150 0.3558 -0.7037
vn -0.2360 -0.3795 0.8946
vn -0.5466 0.8283 0.1233
vn -0.2190 0.2077 0.9534
vn -0.8238 0.5572 0.1047
vn -0.8688 0.4892 0.0764
vn -0.3053 -0.1632 0.9382
vn 0.5277 -0.8259 -0.1986
vn 0.7406 -0.3383 -0.5806
vn -0.4656 -0.3619 0.8076
vn -0.3028 -0.3818 0.8732
vn -0.4605 -0.4045 0.7901
vn -0.8540 0.0841 0.5134
vn -0.2883 -0.3600 0.8873
vn -0.2619 -0.4561 0.8505
vn 0.4739 0.5525 -0.6857
vn -0.9860 0.0635 -0.1544
vn -0.9784 0.2052 -0.0243
vn -0.3530 -0.4072 0.8424
vn 0.3180 0.4498 0.8346
vn -0.2180 0.5052 0.8350
vn -0.2281 0.5171 0.8250
vn 0.2998 0.2097 0.9306
vn 0.4195 0.3864 0.8214
vn 0.1914 0.2267 0.9550
vn 0.6095 0.7922 0.0291
vn 0.5370 0.4337 0.7236
vn 0.5515 0.4177 0.7221
vn -0.5790 0.6868 -0.4393
vn 0.4731 0.6024 -0.6428
vn -0.9537 0.0703 -0.2924
vn -0.5802 0.5660 -0.5857
vn -0.8633 0.1866 -0.4689
vn -0.7507 0.1864 0.6338
vn -0.8565 -0.1594 -0.4910
vn -0.9816 0.0243 0.1895
vn -0.8137 0.2662 -0.5168
vn 0.0324 0.9252 0.3782
vn -0.3476 -0.3215 0.8808
vn -0.1294 -0.1969 0.9719
vn 0.3890 0.3303 0.8600
vn 0.3944 0.2817 0.8747
vn 0.4501 0.4611 0.7648
vn 0.4853 0.6389 -0.5969
vn 0.6562 0.6264 0.4206
vn 0.5449 0.4621 0.6997
vn 0.4782 0.7192 -0.5041
vn -0.4881 -0.4093 0.7709
vn -0.3923 -0.2908 0.8727
vn 0.6405 0.4086 -0.6503
vn 0.6741 0.7339 0.0839
vn 0.5992 -0.7392 -0.3074
vn -0.3934 -0.2617 0.8813
vn 0.3993 0.3803 0.8342
vn 0.5096 0.5388 0.6708
vn 0.4832 0.3988 0.7794
vn -0.0577 0.0477 0.9972
vn 0.5523 0.5361 0.6384
vn 0.5621 -0.7993 -0.2124
vn 0.5744 -0.7896 -0.2158
vn -0.4878 -0.3204 0.8120
vn -0.4820 -0.4088 0.7749
vn 0.4902 0.3119 -0.8139
vn 0.4355 0.5460 0.7158
vn 0.3102 0.4415 0.8419
vn 0.6330 0.3005 0.7134
vn 0.2823 -0.1967 0.9389
vn 0.2884 -0.1911 0.9383
vn 0.4658 0.3935 -0.7926
vn 0.8752 -0.4365 0.2085
vn 0.8467 -0.4092 0.3400
vn 0.8762 -0.4624 0.1355
vn 0.2763 -0.2023 0.9395
vn 0.5261 0.5147 0.6769
vn 0.8154 -0.1571 0.5572
s 1
f 1//1 2//2 3//3
f 4//4 3//3 2//2
f 5//5 7//6 6//7
f 8//8 9//9 10//10
f 9//9 11//11 10//10
f 7//6 9//9 6//7
f 5//5 12//12 7//6
f 9//9 7//6 13//13
f 12//12 14//14 7//6
f 15//15 14//14 16//16
f 14//14 12//12 16//16
f 16//16 17//17 13//13
f 12//12 18//18 16//16
f 19//19 10//10 20//20
f 10//10 11//11 20//20
f 21//21 20//20 22//22
f 20//20 11//11 22//22
f 4//4 2//2 23//23
f 23//23 24//24 4//4
f 25//25 21//21 22//22
f 11//11 27//26 26//27
f 11//11 9//9 27//26
f 26//27 27//26 22//22
f 13//13 27//26 9//9
f 22//22 27//26 28//28
f 27//26 29//29 28//28
f 13//13 17//17 27//26
f 30//30 18//18 31//31
f 32//32 33//33 17//17
f 17//17 33//33 27//26
f 27//26 33//33 34//34
f 16//16 30//30 17//17
f 16//16 18//18 30//30
f 18//18 35//35 36//36
f 37//37 38//38 33//33
f 39//39 40//40 38//38
f 33//33 38//38 34//34
f 38//38 41//41 34//34
f 38//38 40//40 41//41
f 42//42 35//35 18//18
f 28//28 29//29 34//43
f 28//28 34//43 43//44
f 34//43 44//45 43//44
f 45//46 35//35 42//42
f 41//41 40//40 47//47
f 43//44 44//45 47//47
f 43//44 47//47 48//48
f 40//40 46//49 47//47
f 46//49 48//48 47//47
f 49//50 50//51 51//52
f 46//49 52//53 48//48
f 50//51 53//54 51//52
f 52//53 46//49 54//55
f 55//56 54//55 46//49
f 46//49 57//57 55//56
f 58//58 46//49 45//46
f 58//58 57//57 46//49
f 58//58 59//59 57//57
f 51//52 56//60 60//61
f 61//62 59//59 62//63
f 58//58 62//63 59//59
f 60//61 56//60 63//64
f 67//65 68//66 57//57
f 57//57 68//66 55//56
f 64//67 55//56 68//66
f 69//68 70//69 71//70
f 70//69 72//71 71//70
f 57//57 74//72 67//65
f 74//72 75//73 67//65
f 78//74 76//75 79//76
f 76//75 77//77 79//76
f 77//77 80//78 79//76
f 73//79 83//80 84//81
f 87//82 88//82 89//82
f 90//83 91//83 92//83
f 83//80 73//79 66//84
f 93//85 95//86 94//87
f 93//85 12//12 5//5
f 98//88 4//4 99//89
f 98//88 3//3 4//4
f 42//42 18//18 12//12
f 99//89 4//4 25//25
f 28//28 25//25 22//22
f 25//25 28//28 99//89
f 152//90 99//89 28//28
f 51//52 60//61 49//50
f 102//91 103//92 58//58
f 73//79 104//93 105//94
f 101//95 73//79 105//94
f 102//91 58//58 106//96
f 60//61 65//97 107//98
f 107//98 65//97 101//95
f 65//97 66//84 73//79
f 73//79 101//95 65//97
f 126//99 124//100 125//101
f 128//102 127//103 129//104
f 129//104 127//103 130//105
f 129//104 130//105 131//106
f 132//107 93//85 94//87
f 134//108 133//109 129//104
f 129//104 131//106 134//108
f 136//110 137//111 12//12
f 136//110 93//85 132//107
f 12//12 93//85 136//110
f 134//108 138//112 135//113
f 139//114 138//112 134//108
f 140//115 12//12 137//111
f 141//116 12//12 140//115
f 138//112 143//117 142//118
f 145//119 146//120 141//116
f 138//112 144//121 143//117
f 147//122 144//121 138//112
f 146//120 150//123 141//116
f 97//124 96//125 3//3
f 97//124 3//3 98//88
f 151//126 97//124 98//88
f 134//108 131//106 139//114
f 139//114 100//127 152//90
f 12//12 141//116 153//128
f 42//42 12//12 153//128
f 99//89 152//90 100//127
f 42//42 153//128 154//129
f 155//130 28//28 43//44
f 154//129 45//46 42//42
f 49//50 155//130 43//44
f 45//46 154//129 58//58
f 156//131 101//95 105//94
f 106//96 58//58 162//132
f 156//131 105//94 163//133
f 58//58 154//129 162//132
f 164//134 165//135 166//134
f 60//61 107//98 49//50
f 107//98 101//95 167//136
f 157//137 167//136 101//95
f 147//122 138//112 139//114
f 148//138 147//122 149//139
f 141//116 150//123 153//128
f 150//123 168//140 153//128
f 144//121 147//122 148//138
f 147//122 139//114 152//90
f 155//130 152//90 28//28
f 153//128 169//141 154//129
f 170//142 155//130 49//50
f 157//137 101//95 171//143
f 172//144 157//137 171//143
f 101//95 156//131 171//143
f 173//145 174//146 171//147
f 175//148 162//132 154//129
f 162//132 175//148 176//149
f 178//150 49//50 107//98
f 149//139 147//122 168//140
f 147//122 152//90 179//151
f 179//151 152//90 155//130
f 155//130 180//152 179//151
f 181//153 155//130 170//142
f 175//148 154//129 182//154
f 157//137 183//155 167//136
f 157//137 172//144 183//155
f 171//143 177//156 172//144
f 172//144 177//156 184//157
f 169//141 153//128 185//158
f 179//151 180//152 186//159
f 181//153 180//152 155//130
f 169//141 182//154 154//129
f 169//141 187//160 182//154
f 172//144 188//161 183//155
f 190//162 191//162 192//162
f 188//161 193//163 183//155
f 194//164 183//155 193//163
f 182//154 187//160 189//165
f 49//50 178//150 170//142
f 153//128 168//140 196//166
f 179//151 197//167 147//122
f 147//122 197//167 168//140
f 197//167 179//151 186//159
f 198//168 169//141 185//158
f 187//160 169//141 199//169
f 200//170 195//171 193//163
f 199//169 201//172 200//173
f 181//153 202//174 180//152
f 193//163 195//171 194//164
f 203//175 194//164 195//171
f 203//175 204//176 194//164
f 205//177 195//171 200//170
f 209//178 210//179 211//180
f 206//181 213//182 207//183
f 214//184 209//178 212//185
f 209//178 214//184 215//186
f 216//187 217//187 218//187
f 202//174 219//188 180//152
f 204//176 220//189 221//190
f 204//176 203//175 220//189
f 221//190 220//189 222//191
f 210//179 209//178 215//186
f 225//192 203//175 208//193
f 203//175 225//192 226//194
f 203//175 226//194 220//189
f 220//189 228//195 222//191
f 229//196 230//196 231//196
f 196//166 168//140 197//167
f 232//197 199//169 169//141
f 232//197 201//172 199//169
f 201//172 232//197 233//198
f 234//199 235//200 213//182
f 235//200 207//183 213//182
f 236//201 214//184 212//185
f 214//184 180//152 219//188
f 214//184 219//188 223//202
f 237//203 227//204 214//184
f 214//184 223//202 224//205
f 214//184 227//204 215//186
f 198//168 185//158 238//206
f 232//197 169//141 239//207
f 250//208 180//152 244//209
f 244//209 180//152 214//184
f 236//201 244//209 214//184
f 245//210 196//166 197//167
f 198//168 239//207 169//141
f 198//168 247//211 239//207
f 248//212 249//213 240//214
f 240//214 236//201 241//215
f 249//213 244//209 240//214
f 249//213 251//216 244//209
f 250//208 186//159 180//152
f 236//201 240//214 244//209
f 245//210 197//167 252//217
f 245//210 252//217 253//218
f 238//206 246//219 198//168
f 254//220 246//219 238//206
f 198//168 246//219 247//211
f 197//167 186//159 255//221
f 186//159 250//208 255//221
f 249//213 248//212 257//222
f 247//211 246//219 256//223
f 258//224 249//213 257//222
f 259//225 260//226 261//225
f 262//227 197//167 255//221
f 263//228 264//229 265//230
f 259//225 261//225 268//231
f 267//232 258//224 266//233
f 267//232 249//213 258//224
l 242 243
l 114 115
l 116 117
l 122 123
l 108 109
l 158 159
l 120 121
l 85 86
l 81 82
l 160 161
l 118 119
l 112 113
l 110 111
