# Blender v2.78 (sub 0) OBJ File: 'exporter.blend'
# www.blender.org
o FJ1725M.obj_grp1.640
v 0.149551 -0.348994 6.910945
v 0.158397 -0.339954 6.935369
v 0.153224 -0.348024 6.929975
v 0.143768 -0.348053 6.925948
v 0.156048 -0.339432 6.925651
v 0.150195 -0.336874 6.921520
v 0.151739 -0.334969 6.945864
v 0.152818 -0.319357 6.944201
v 0.152613 -0.328733 6.933451
v 0.152717 -0.329241 6.933166
v 0.150091 -0.331284 6.932011
v 0.138608 -0.298798 6.938413
v 0.108800 -0.344125 6.827940
v 0.139215 -0.352203 6.905652
v 0.144796 -0.336540 6.937466
v 0.140425 -0.341017 6.893634
v 0.140425 -0.341017 6.893634
v 0.150195 -0.336874 6.921520
v 0.142465 -0.340757 6.924196
v 0.150195 -0.336874 6.921520
v 0.142465 -0.340757 6.924196
v 0.150195 -0.336874 6.921520
v 0.135964 -0.338442 6.900178
v 0.142465 -0.340757 6.924196
v 0.134314 -0.342285 6.906920
v 0.147273 -0.332912 6.932647
v 0.143337 -0.328588 6.937746
v 0.136847 -0.303554 6.932985
v 0.134333 -0.314142 6.939375
v 0.128634 -0.298990 6.945087
v 0.132493 -0.309031 6.944107
v 0.127624 -0.286099 6.935638
v 0.108451 -0.347342 6.835455
v 0.100334 -0.346849 6.831552
v 0.102329 -0.334339 6.820148
v 0.094418 -0.339012 6.824367
v 0.129868 -0.308582 6.938487
v 0.120195 -0.285905 6.931892
v 0.118397 -0.295340 6.937341
v 0.126258 -0.286042 6.935358
v 0.105774 -0.347276 6.829599
v 0.096515 -0.335282 6.814462
v 0.120040 -0.288911 6.944802
v 0.121030 -0.289789 6.944712
v 0.116639 -0.290928 6.943188
v 0.119210 -0.293423 6.943115
v 0.120495 -0.282020 6.935745
v 0.104984 -0.281651 6.934581
v 0.113608 -0.277729 6.937059
v 0.107347 -0.276000 6.947001
v 0.091996 -0.338982 6.823735
v 0.103003 -0.344125 6.808849
v 0.102438 -0.286921 6.943977
v 0.107924 -0.282459 6.948373
v 0.107933 -0.286452 6.945148
v 0.107924 -0.282459 6.948373
v 0.108143 -0.286420 6.945818
v 0.103053 -0.280910 6.952440
v 0.102859 -0.274919 6.939576
v 0.082225 -0.367527 6.690032
v 0.089634 -0.351180 6.746880
v 0.100734 -0.344581 6.799558
v 0.094569 -0.354795 6.780560
v 0.096797 -0.349245 6.810219
v 0.081541 -0.361143 6.695782
v 0.079657 -0.352478 6.733336
v 0.085444 -0.340594 6.792170
v 0.090903 -0.346399 6.811334
v 0.082178 -0.290161 6.961457
v 0.082882 -0.289623 6.961377
v 0.102404 -0.289196 6.943702
v 0.093258 -0.275826 6.948758
v 0.102872 -0.280497 6.952022
v 0.095551 -0.289028 6.956777
v 0.085836 -0.285329 6.974782
v 0.095551 -0.289028 6.956777
v 0.081141 -0.297206 6.983865
v 0.081141 -0.297206 6.983865
v 0.080393 -0.369220 6.616119
v 0.083595 -0.378884 6.619892
v 0.074946 -0.371906 6.707669
v 0.091086 -0.346317 6.811431
v 0.073554 -0.358784 6.693840
v 0.086278 -0.341308 6.791948
v 0.086278 -0.341308 6.791948
v 0.086278 -0.341308 6.791948
v 0.068223 -0.367149 6.697320
v 0.076344 -0.299738 6.982503
v 0.076344 -0.299738 6.982503
v 0.095551 -0.289028 6.956777
v 0.081141 -0.297206 6.983865
v 0.068427 -0.291747 6.985673
v 0.071468 -0.391800 6.569667
v 0.077406 -0.387386 6.568001
v 0.065640 -0.382053 6.566368
v 0.071379 -0.391881 6.569480
v 0.069919 -0.378254 6.567708
v 0.077030 -0.382059 6.567039
v 0.072454 -0.384298 6.612754
v 0.080425 -0.373701 6.673644
v 0.080203 -0.372349 6.689468
v 0.070904 -0.342235 7.024661
v 0.071801 -0.349091 7.032595
v 0.065795 -0.359445 7.034050
v 0.075458 -0.332205 7.023710
v 0.075685 -0.303117 6.998844
v 0.071801 -0.349091 7.032595
v 0.070636 -0.342472 7.036906
v 0.076305 -0.294902 6.996368
v 0.067077 -0.316393 7.007226
v 0.067155 -0.320610 7.024350
v 0.072609 -0.306734 6.997112
v 0.067100 -0.303763 6.993348
v 0.067100 -0.303763 6.993348
v 0.076221 -0.294832 6.996165
v 0.069789 -0.297346 7.005105
v 0.064310 -0.388510 6.571343
v 0.067558 -0.376176 6.605545
v 0.065795 -0.359445 7.034050
v 0.071801 -0.349091 7.032595
v 0.065141 -0.360374 7.040669
v 0.057957 -0.372293 7.039825
v 0.065795 -0.359445 7.034050
v 0.060058 -0.361026 7.032454
v 0.064861 -0.350453 7.028771
v 0.052818 -0.372198 7.034567
v 0.058194 -0.374067 7.039402
v 0.065210 -0.360432 7.040771
v 0.057957 -0.372293 7.039825
v 0.062503 -0.345777 7.028605
v 0.064043 -0.353958 7.030040
v 0.062503 -0.345777 7.028605
v 0.063062 -0.339672 7.031813
v 0.063216 -0.335675 7.025741
v 0.063216 -0.335675 7.025741
v 0.065027 -0.345640 7.038463
v 0.065027 -0.345640 7.038463
v 0.062856 -0.312167 7.008810
v 0.063622 -0.300958 7.004409
v 0.038797 -0.387738 7.034734
v 0.050896 -0.367370 7.034660
v 0.052818 -0.372198 7.034567
v 0.048175 -0.382152 7.041233
v 0.053803 -0.368325 7.045911
v 0.034707 -0.390602 7.043205
v 0.056610 -0.356731 7.034332
v 0.056547 -0.356959 7.034445
v 0.050896 -0.367370 7.034660
v 0.051828 -0.359073 7.044094
v 0.053245 -0.360771 7.044480
v 0.057241 -0.355359 7.041233
v 0.022763 -0.390743 7.034715
v 0.031759 -0.392047 7.043803
v 0.034395 -0.385052 7.044144
v 0.034707 -0.390602 7.043205
v 0.034519 -0.384908 7.044212
v 0.033466 -0.380077 7.040059
v 0.033466 -0.380077 7.040059
v 0.023641 -0.398509 7.041431
v 0.021305 -0.396761 7.049548
v 0.026275 -0.388596 7.045184
v 0.023725 -0.386477 7.042467
v 0.016089 -0.393072 7.038620
v 0.001709 -0.407937 7.063385
v 0.002964 -0.397329 7.067487
v -0.000123 -0.397459 7.056127
v 0.011349 -0.399700 7.060036
v 0.012173 -0.399052 7.058415
v 0.004247 -0.406899 7.069233
v 0.007025 -0.402062 7.069672
v -0.002270 -0.402519 7.067586
vn 0.7592 -0.5747 -0.3053
vn 0.9332 -0.2670 0.2405
vn 0.4185 -0.8553 0.3054
vn 0.8885 0.2432 -0.3891
vn 0.1226 -0.3630 0.9237
vn 0.7615 0.4168 0.4964
vn 0.4877 0.5158 -0.7043
vn -0.5738 -0.6816 0.4541
vn 0.4778 0.8101 -0.3398
vn -0.2137 0.5480 -0.8087
vn -0.0346 0.5006 -0.8650
vn 0.6814 0.7112 0.1726
vn -0.1721 -0.9817 0.0809
vn 0.8759 0.1696 -0.4517
vn 0.3460 0.9197 -0.1858
vn -0.1543 0.9813 0.1153
vn 0.2254 0.9491 -0.2200
vn -0.5397 0.7505 -0.3815
vn -0.5185 0.7525 -0.4061
vn -0.5229 0.8233 0.2207
vn -0.3867 0.9021 0.1916
vn -0.9436 -0.2186 0.2487
vn -0.9779 0.0135 0.2088
vn -0.8269 0.3994 0.3957
vn -0.6806 0.5642 -0.4674
vn -0.5205 -0.1151 -0.8461
vn 0.1846 0.1148 -0.9761
vn -0.0404 0.0490 0.9980
vn -0.8569 -0.4274 0.2881
vn -0.5925 -0.4706 0.6538
vn 0.5256 0.6023 0.6008
vn 0.9032 -0.3083 -0.2985
vn 0.2617 -0.9438 -0.2021
vn -0.5613 -0.8041 0.1959
vn 0.9001 0.3026 -0.3134
vn -0.4418 0.8703 0.2177
vn -0.4374 -0.3877 -0.8114
vn -0.4691 -0.0114 -0.8831
vn 0.0952 0.2693 -0.9583
vn -0.6519 -0.6076 0.4537
vn 0.4882 0.5115 -0.7072
vn 0.6139 -0.7581 -0.2202
vn -0.3908 0.8887 0.2396
vn -0.3587 0.9330 -0.0292
vn -0.2402 -0.4376 0.8665
vn 0.4973 0.4228 0.7576
vn -0.2069 -0.6805 0.7029
vn -0.3159 -0.2825 0.9057
vn 0.0702 0.6056 -0.7926
vn 0.3737 0.7848 0.4944
vn -0.8918 -0.3117 0.3278
vn 0.9324 0.2494 -0.2617
vn -0.1847 -0.9409 -0.2838
vn -0.2009 0.8382 -0.5070
vn 0.3330 -0.1107 0.9364
vn -0.1203 -0.7704 0.6261
vn 0.8017 -0.0275 0.5970
vn 0.4591 0.8867 0.0550
vn 0.9894 -0.1223 -0.0789
vn 0.9021 0.3762 -0.2116
vn 0.9842 -0.1467 -0.0994
vn 0.6335 -0.7730 0.0344
vn 0.1331 -0.9762 0.1714
vn 0.7217 0.6601 -0.2085
vn 0.1082 0.9720 -0.2084
vn -0.6043 0.7965 -0.0224
vn -0.6820 -0.6537 0.3280
vn -0.8888 0.1277 -0.4402
vn -0.5510 0.8062 -0.2155
vn 0.5750 -0.3049 0.7592
vn 0.3787 -0.4820 0.7901
vn 0.6716 -0.2769 0.6872
vn 0.1069 -0.9887 -0.1052
vn 0.7903 -0.4809 0.3798
vn 0.4592 0.7375 0.4953
vn 0.7997 -0.5400 0.2624
vn 0.9197 -0.1057 0.3780
vn 0.6258 -0.7794 0.0298
vn -0.3249 -0.9267 0.1888
vn -0.3016 -0.9117 0.2790
vn -0.4001 0.8847 -0.2390
vn -0.9933 -0.0398 0.1085
vn -0.9757 -0.0642 0.2095
vn -0.8408 0.5412 0.0127
vn -0.1823 0.9703 -0.1593
vn -0.1796 -0.8662 -0.4663
vn -0.4112 -0.7947 -0.4465
vn -0.4992 -0.7580 -0.4198
vn 0.4930 -0.8584 -0.1418
vn 0.4703 -0.8823 -0.0162
vn 0.5764 -0.8110 -0.1004
vn 0.0633 0.7614 0.6451
vn 0.0247 -0.9590 0.2823
vn 0.6528 -0.4207 -0.6299
vn 0.8849 -0.4614 0.0636
vn -0.6476 0.2036 -0.7342
vn 0.5997 0.3120 -0.7369
vn -0.3477 -0.8199 -0.4548
vn -0.1464 0.8288 -0.5400
vn 0.4427 0.8776 -0.1838
vn -0.4371 -0.8880 0.1429
vn 0.3829 -0.9175 0.1077
vn 0.4403 -0.5231 -0.7297
vn 0.7586 -0.4475 -0.4735
vn 0.7149 -0.4865 -0.5023
vn 0.9987 -0.0202 0.0472
vn 0.9149 -0.3906 -0.1015
vn 0.5916 0.2481 0.7671
vn 0.9368 -0.0998 0.3353
vn 0.5073 0.0180 0.8616
vn 0.7202 0.5072 0.4734
vn -0.2846 -0.5880 -0.7572
vn 0.4619 -0.7816 -0.4193
vn -0.1007 -0.8420 -0.5301
vn -0.8271 0.5496 -0.1178
vn -0.8720 -0.2662 -0.4108
vn 0.4066 0.7721 0.4884
vn -0.8477 -0.4963 -0.1873
vn -0.9190 0.3914 0.0474
vn 0.8610 -0.5084 0.0139
vn 0.8659 -0.5000 0.0154
vn 0.8560 -0.5168 0.0121
vn 0.3569 -0.4640 -0.8107
vn 0.3505 -0.4261 -0.8340
vn -0.1665 -0.4460 -0.8794
vn 0.4107 -0.4327 -0.8025
vn 0.5445 -0.5981 -0.5880
vn -0.4295 -0.2080 -0.8788
vn -0.3799 -0.2148 -0.8997
vn -0.9527 0.1935 -0.2346
vn -0.8586 0.3532 -0.3717
vn -0.8922 0.3557 0.2784
vn -0.9561 -0.1823 -0.2296
vn -0.9965 -0.0123 -0.0826
vn -0.9880 -0.0720 -0.1370
vn -0.8581 0.4600 0.2283
vn -0.0250 0.3132 0.9494
vn -0.1358 0.5247 0.8404
vn -0.5949 0.4789 0.6455
vn 0.5257 -0.5253 -0.6691
vn -0.2573 0.0894 -0.9622
vn -0.0456 -0.0894 -0.9950
vn 0.4799 -0.4576 0.7485
vn 0.2511 -0.1035 0.9624
vn 0.3908 -0.4333 0.8121
vn -0.5125 0.1899 -0.8374
vn 0.0833 0.2158 0.9729
vn -0.7161 0.6488 -0.2574
vn -0.4829 0.5755 0.6600
vn -0.3769 0.0481 -0.9250
vn 0.4873 -0.3429 0.8031
vn 0.5703 -0.5468 0.6130
vn -0.0965 -0.1523 0.9836
vn 0.0932 -0.1405 0.9857
vn -0.1714 0.2026 0.9641
vn -0.4220 0.5335 0.7330
vn -0.6854 0.7262 0.0537
vn 0.2439 -0.9395 -0.2407
vn 0.6849 -0.4553 0.5689
vn 0.1585 0.4704 0.8681
vn -0.6498 0.0087 -0.7601
vn -0.4361 0.8829 0.1742
vn 0.0340 0.0404 -0.9986
vn -0.0771 0.7566 0.6493
vn -0.2576 -0.9580 -0.1259
vn 0.8348 -0.0464 0.5486
vn 0.6889 0.0164 0.7246
vn -0.8766 0.3059 -0.3714
vn 0.1355 -0.7172 0.6836
vn 0.5750 0.1066 0.8112
vn -0.8943 0.0142 0.4472
s 1
f 1//1 2//2 3//3
f 5//4 2//2 1//1
f 2//2 7//5 3//3
f 5//4 8//6 2//2
f 9//7 8//6 5//4
f 2//2 8//6 7//5
f 7//5 4//8 3//3
f 5//4 6//9 11//10
f 11//10 10//11 5//4
f 12//12 8//6 9//7
f 14//13 1//1 3//3
f 14//13 3//3 4//8
f 5//4 1//1 16//14
f 6//9 5//4 16//14
f 17//15 23//16 18//17
f 19//18 11//10 20//19
f 21//20 22//21 23//16
f 4//8 15//22 24//23
f 23//16 25//24 21//20
f 4//8 24//23 25//24
f 26//25 11//10 19//18
f 15//22 26//25 24//23
f 4//8 7//5 15//22
f 11//10 9//7 10//11
f 26//25 27//26 11//10
f 11//10 28//27 9//7
f 27//26 26//25 15//22
f 27//26 28//27 11//10
f 30//28 7//5 8//6
f 27//26 15//22 29//29
f 31//30 29//29 15//22
f 31//30 15//22 7//5
f 28//27 12//12 9//7
f 32//31 8//6 12//12
f 13//32 1//1 33//33
f 1//1 14//13 33//33
f 14//13 34//34 33//33
f 35//35 1//1 13//32
f 4//8 25//24 36//36
f 29//29 37//37 27//26
f 37//37 28//27 27//26
f 28//27 37//37 48//38
f 48//38 38//39 28//27
f 37//37 39//40 48//38
f 30//28 31//30 7//5
f 31//30 39//40 29//29
f 28//27 40//41 12//12
f 41//42 13//32 33//33
f 17//15 35//43 42//44
f 16//14 1//1 35//35
f 23//16 17//15 42//44
f 31//30 30//28 43//45
f 44//46 30//28 8//6
f 39//40 31//30 45//47
f 31//30 43//45 46//48
f 43//45 45//47 46//48
f 28//27 38//39 40//41
f 38//39 49//49 40//41
f 32//31 44//46 8//6
f 50//50 44//46 32//31
f 4//8 51//51 14//13
f 51//51 34//34 14//13
f 13//32 52//52 35//35
f 23//16 36//36 25//24
f 39//40 45//47 53//53
f 49//49 38//39 48//38
f 49//49 48//38 59//54
f 43//45 44//46 50//50
f 43//45 54//55 45//47
f 50//50 54//55 43//45
f 48//38 39//40 53//53
f 55//56 45//47 54//55
f 53//53 45//47 55//56
f 50//50 58//57 54//55
f 47//58 50//50 32//31
f 59//54 50//50 47//58
f 60//59 61//60 62//61
f 35//35 62//61 61//60
f 63//62 62//61 64//63
f 64//63 62//61 41//42
f 64//63 33//33 34//34
f 65//64 66//65 35//43
f 35//35 52//52 62//61
f 66//65 42//44 35//43
f 62//61 13//32 41//42
f 36//36 23//16 42//44
f 42//44 67//66 36//36
f 68//67 34//34 51//51
f 48//38 53//53 69//68
f 59//54 48//38 72//69
f 57//70 56//71 73//72
f 53//53 55//56 74//73
f 57//70 73//72 76//74
f 58//57 50//50 75//75
f 73//72 77//76 76//74
f 75//75 78//77 58//57
f 59//54 72//69 50//50
f 50//50 72//69 75//75
f 101//78 60//59 63//62
f 63//62 64//63 81//79
f 81//79 64//63 82//80
f 83//81 66//65 65//64
f 60//59 62//61 63//62
f 87//82 68//67 84//83
f 82//80 64//63 34//34
f 86//84 83//81 87//82
f 66//65 85//85 42//44
f 84//83 68//67 51//51
f 88//86 70//87 71//88
f 89//89 90//90 91//91
f 48//38 69//68 72//69
f 75//75 72//69 116//92
f 93//93 94//94 80//95
f 95//96 98//97 96//98
f 95//96 97//99 98//97
f 94//94 98//97 80//95
f 98//97 79//100 80//95
f 98//97 94//94 96//98
f 93//93 80//95 99//101
f 80//95 81//79 99//101
f 98//97 97//99 79//100
f 100//102 81//79 80//95
f 80//95 60//59 101//78
f 80//95 79//100 60//59
f 81//79 100//102 101//78
f 63//62 81//79 101//78
f 79//100 65//64 60//59
f 79//100 83//81 65//64
f 60//59 65//64 61//60
f 87//82 81//79 68//67
f 68//67 81//79 82//80
f 102//103 103//104 104//105
f 105//106 102//103 106//107
f 102//103 105//106 103//104
f 108//108 107//109 105//106
f 107//109 108//108 128//110
f 105//106 109//111 108//108
f 102//103 110//112 106//107
f 112//113 106//107 110//112
f 91//91 112//113 89//89
f 113//114 112//113 110//112
f 88//86 112//113 113//114
f 105//106 106//107 109//111
f 88//86 113//114 70//87
f 69//68 92//115 72//69
f 114//116 92//115 69//68
f 91//91 106//107 112//113
f 106//107 78//77 75//75
f 75//75 116//92 115//117
f 109//111 106//107 75//75
f 109//111 115//117 116//92
f 72//69 92//115 116//92
f 96//98 93//93 117//118
f 99//101 117//118 93//93
f 117//118 95//96 96//98
f 117//118 118//119 95//96
f 118//119 117//118 99//101
f 118//119 97//99 95//96
f 97//99 118//119 79//100
f 118//119 99//101 87//82
f 81//79 87//82 99//101
f 83//81 79//100 118//119
f 118//119 87//82 83//81
f 119//120 120//121 121//120
f 119//120 121//120 122//122
f 123//123 124//124 125//125
f 126//126 123//123 127//127
f 125//125 102//103 123//123
f 131//128 130//129 125//125
f 132//130 147//131 133//132
f 134//133 125//125 130//129
f 132//130 133//132 135//134
f 125//125 110//112 102//103
f 110//112 125//125 138//135
f 135//134 133//132 139//136
f 134//133 138//135 125//125
f 136//137 108//108 111//138
f 133//132 137//139 111//138
f 138//135 135//134 139//136
f 108//108 116//92 111//138
f 133//132 111//138 139//136
f 114//116 138//135 92//115
f 110//112 138//135 114//116
f 109//111 116//92 108//108
f 138//135 139//136 92//115
f 92//115 139//136 116//92
f 139//136 111//138 116//92
f 124//124 123//123 126//126
f 127//127 140//140 126//126
f 141//141 131//128 142//142
f 143//143 128//110 144//144
f 144//144 145//145 143//143
f 141//141 146//146 131//128
f 144//144 128//110 108//108
f 144//144 108//108 136//137
f 150//147 144//144 136//137
f 130//129 131//128 146//146
f 147//131 149//148 133//132
f 151//149 137//139 133//132
f 142//142 152//150 141//141
f 142//142 140//140 152//150
f 143//143 129//151 128//110
f 153//152 140//140 127//127
f 154//153 155//154 156//155
f 156//155 155//154 144//144
f 156//155 150//147 157//156
f 156//155 144//144 150//147
f 158//157 149//148 147//131
f 140//140 159//158 152//150
f 140//140 153//152 159//158
f 160//159 153//152 161//160
f 152//150 163//161 158//157
f 153//152 155//154 154//153
f 156//155 157//156 161//160
f 161//160 153//152 154//153
f 161//160 157//156 162//162
f 147//131 148//163 152//150
f 152//150 158//157 147//131
f 159//158 163//161 152//150
f 159//158 153//152 160//159
f 160//159 161//160 165//164
f 159//158 164//165 163//161
f 160//159 167//166 159//158
f 165//164 168//167 160//159
f 163//161 162//162 158//157
f 161//160 162//162 165//164
f 163//161 166//168 162//162
f 165//164 162//162 166//168
f 169//169 167//166 170//170
f 169//169 164//165 167//166
f 163//161 164//165 166//168
f 167//166 164//165 159//158
f 165//164 167//166 168//167
f 170//170 167//166 165//164
f 171//171 169//169 170//170
f 171//171 164//165 169//169
f 164//165 171//171 166//168
f 166//168 171//171 165//164
f 170//170 165//164 171//171
