# Blender v2.78 (sub 0) OBJ File: 'exporter.blend'
# www.blender.org
o FJ1761.obj_grp1.680
v 0.015256 -0.329108 7.197494
v 0.019750 -0.333219 7.195007
v 0.015970 -0.337355 7.202724
v 0.012202 -0.331569 7.203419
v 0.011049 -0.326837 7.207747
v 0.012475 -0.325560 7.202508
v 0.014966 -0.335639 7.211773
v 0.013010 -0.327858 7.212809
v 0.013634 -0.322507 7.206390
v 0.017327 -0.324689 7.197650
v 0.024099 -0.341241 7.200526
v 0.024954 -0.336572 7.195110
v 0.020058 -0.340982 7.210288
v 0.039442 -0.349197 7.221558
v 0.023868 -0.328505 7.192800
v 0.025480 -0.332139 7.192660
v 0.025236 -0.333559 7.218314
v 0.019962 -0.320712 7.202127
v 0.017568 -0.322107 7.211319
v 0.024369 -0.320622 7.208649
v 0.027589 -0.321069 7.203739
v 0.033651 -0.329146 7.219492
v 0.032881 -0.337029 7.197608
v 0.037315 -0.343236 7.225166
v 0.031241 -0.331467 7.194751
v 0.027773 -0.325477 7.194591
v 0.041338 -0.335682 7.227669
v 0.028982 -0.323380 7.198281
v 0.041520 -0.329661 7.213150
v 0.041176 -0.329926 7.219164
v 0.044216 -0.333807 7.209289
v 0.059915 -0.336859 7.231146
v 0.057230 -0.355426 7.231666
v 0.054999 -0.355169 7.239296
v 0.051787 -0.351599 7.240972
v 0.056128 -0.345464 7.244223
v 0.057866 -0.350918 7.244668
v 0.055804 -0.337767 7.236670
v 0.061628 -0.338925 7.227941
v 0.060902 -0.354926 7.237741
v 0.064046 -0.351891 7.231491
v 0.066081 -0.346546 7.230601
v 0.061506 -0.352490 7.242792
v 0.062777 -0.349769 7.244327
v 0.065588 -0.342757 7.233154
v 0.062767 -0.344235 7.242859
v 0.065535 -0.350778 7.237019
v 0.066102 -0.346278 7.238966
vn -0.7034 -0.0052 -0.7108
vn -0.5030 -0.3353 -0.7966
vn -0.6970 -0.6621 -0.2753
vn -0.9215 -0.3108 -0.2327
vn -0.8241 0.4008 -0.4003
vn -0.9796 0.1365 0.1478
vn -0.7263 -0.5034 0.4681
vn -0.6965 0.1628 0.6989
vn -0.5973 0.8015 0.0280
vn -0.4500 0.6013 -0.6602
vn -0.1867 -0.8549 -0.4840
vn -0.0571 -0.6122 -0.7887
vn -0.5371 -0.8348 0.1212
vn -0.4648 -0.8706 0.1615
vn -0.1246 0.2625 -0.9568
vn 0.0661 -0.1786 -0.9817
vn 0.3111 0.5803 -0.7526
vn -0.2018 0.9387 -0.2795
vn -0.3130 0.7827 0.5379
vn 0.1174 0.9538 0.2767
vn -0.0804 0.7094 0.7002
vn -0.4258 0.1111 0.8980
vn 0.4738 -0.4867 -0.7339
vn 0.5677 0.0719 -0.8201
vn -0.6793 -0.2647 0.6845
vn -0.4284 0.4685 0.7726
vn 0.4333 0.7877 -0.4379
vn 0.3707 0.9240 -0.0941
vn 0.5562 0.8225 -0.1190
vn 0.2390 0.9155 0.3237
vn 0.7025 0.5240 -0.4816
vn 0.5176 0.8414 0.1556
vn 0.1537 -0.9382 -0.3101
vn -0.2326 -0.8960 0.3782
vn -0.6231 -0.3678 0.6902
vn 0.9083 -0.0796 -0.4106
vn -0.2700 0.3223 0.9073
vn 0.0544 0.8356 0.5466
vn 0.7432 0.5503 -0.3805
vn 0.4147 -0.8981 0.1466
vn 0.6914 -0.6176 -0.3749
vn -0.1434 -0.3395 0.9296
vn 0.4018 -0.7289 0.5543
vn 0.5380 -0.2173 0.8145
vn 0.8757 0.4828 0.0097
vn 0.4771 0.5041 0.7199
vn 0.8756 -0.4665 0.1249
vn 0.9432 0.1802 0.2792
s 1
f 1//1 2//2 3//3
f 1//1 4//4 6//5
f 4//4 5//6 6//5
f 1//1 3//3 4//4
f 7//7 5//6 4//4
f 7//7 8//8 5//6
f 9//9 6//5 5//6
f 10//10 6//5 9//9
f 5//6 8//8 9//9
f 11//11 2//2 12//12
f 7//7 4//4 3//3
f 3//3 13//13 7//7
f 13//13 3//3 11//11
f 11//11 14//14 13//13
f 10//10 15//15 1//1
f 2//2 11//11 3//3
f 2//2 1//1 15//15
f 16//16 2//2 15//15
f 12//12 2//2 16//16
f 1//1 6//5 10//10
f 15//15 10//10 26//17
f 26//17 10//10 18//18
f 18//18 10//10 9//9
f 18//18 9//9 19//19
f 20//20 18//18 19//19
f 9//9 8//8 19//19
f 8//8 22//21 19//19
f 17//22 22//21 8//8
f 12//12 23//23 11//11
f 12//12 16//16 23//23
f 14//14 7//7 13//13
f 15//15 25//24 16//16
f 25//24 15//15 26//17
f 25//24 23//23 16//16
f 17//22 8//8 7//7
f 7//7 24//25 17//22
f 24//25 27//26 17//22
f 17//22 27//26 22//21
f 28//27 26//17 18//18
f 21//28 28//27 18//18
f 18//18 20//20 21//28
f 29//29 28//27 21//28
f 22//21 30//30 20//20
f 20//20 19//19 22//21
f 24//25 7//7 14//14
f 26//17 28//27 31//31
f 31//31 25//24 26//17
f 29//29 31//31 28//27
f 21//28 20//20 30//30
f 31//31 29//29 32//32
f 29//29 21//28 30//30
f 32//32 29//29 30//30
f 33//33 34//34 14//14
f 24//25 35//35 27//26
f 27//26 30//30 22//21
f 14//14 35//35 24//25
f 35//35 14//14 34//34
f 14//14 11//11 33//33
f 23//23 25//24 42//36
f 27//26 35//35 36//37
f 27//26 36//37 38//38
f 39//39 31//31 32//32
f 25//24 39//39 42//36
f 31//31 39//39 25//24
f 38//38 30//30 27//26
f 34//34 33//33 40//40
f 23//23 33//33 11//11
f 33//33 23//23 41//41
f 33//33 41//41 40//40
f 37//42 36//37 35//35
f 34//34 37//42 35//35
f 43//43 34//34 40//40
f 34//34 43//43 37//42
f 44//44 36//37 37//42
f 43//43 44//44 37//42
f 41//41 23//23 42//36
f 42//36 39//39 45//45
f 46//46 38//38 36//37
f 44//44 46//46 36//37
f 32//32 45//45 39//39
f 30//30 38//38 32//32
f 38//38 46//46 32//32
f 47//47 41//41 42//36
f 40//40 41//41 47//47
f 43//43 40//40 47//47
f 47//47 44//44 43//43
f 47//47 48//48 44//44
f 46//46 48//48 45//45
f 46//46 45//45 32//32
f 42//36 45//45 48//48
f 48//48 47//47 42//36
f 48//48 46//46 44//44
