# Blender v2.78 (sub 0) OBJ File: 'exporter.blend'
# www.blender.org
o FJ1712M.obj_grp1.614
v 0.235894 -0.565741 7.272016
v 0.241543 -0.559403 7.284060
v 0.240874 -0.542801 7.289927
v 0.242053 -0.560317 7.280624
v 0.241138 -0.550464 7.291318
v 0.240318 -0.555906 7.281879
v 0.240506 -0.552122 7.284790
v 0.238419 -0.563475 7.283019
v 0.241680 -0.558324 7.285025
v 0.238092 -0.557221 7.280911
v 0.229882 -0.528891 7.292266
v 0.237402 -0.548262 7.294078
v 0.236163 -0.571764 7.269533
v 0.234674 -0.571384 7.273969
v 0.229280 -0.581093 7.257574
v 0.236931 -0.570495 7.271432
v 0.235918 -0.565768 7.272058
v 0.233719 -0.569654 7.274120
v 0.233701 -0.572794 7.271208
v 0.235928 -0.564231 7.281207
v 0.236737 -0.554708 7.285055
v 0.233104 -0.569330 7.272793
v 0.235500 -0.552425 7.288456
v 0.229266 -0.514639 7.281854
v 0.235568 -0.539871 7.287809
v 0.233074 -0.538856 7.290446
v 0.235829 -0.541085 7.287982
v 0.237061 -0.545897 7.287560
v 0.234369 -0.546622 7.290816
v 0.234481 -0.547038 7.290705
v 0.215061 -0.594853 7.239874
v 0.219229 -0.590002 7.241235
v 0.202535 -0.596459 7.224642
v 0.222766 -0.580961 7.253195
v 0.220858 -0.585224 7.252304
v 0.232118 -0.569224 7.273148
v 0.222766 -0.580961 7.253195
v 0.220858 -0.585224 7.252304
v 0.220192 -0.588881 7.248078
v 0.225066 -0.494703 7.273567
v 0.225273 -0.491658 7.270827
v 0.221753 -0.494136 7.267347
v 0.222160 -0.492357 7.270434
v 0.225166 -0.491693 7.270847
v 0.222368 -0.490659 7.272098
v 0.224026 -0.492958 7.270843
v 0.226246 -0.515111 7.279979
v 0.219200 -0.493300 7.270002
v 0.225036 -0.512628 7.278339
v 0.226501 -0.520554 7.290468
v 0.224696 -0.519997 7.285835
v 0.225726 -0.519355 7.289174
v 0.224940 -0.520297 7.286011
v 0.191453 -0.603291 7.211507
v 0.210972 -0.595749 7.235403
v 0.208156 -0.595829 7.234892
v 0.192276 -0.602864 7.210884
v 0.220858 -0.585224 7.252304
v 0.200070 -0.597906 7.225915
v 0.201132 -0.596853 7.228246
v 0.208251 -0.593125 7.235919
v 0.192066 -0.601698 7.211986
v 0.200506 -0.601020 7.224849
v 0.184360 -0.605473 7.207539
v 0.180301 -0.601499 7.204757
v 0.201869 -0.596758 7.223854
v 0.191463 -0.602203 7.212367
v 0.181642 -0.604582 7.207386
v 0.186693 -0.600602 7.211936
v 0.180637 -0.604321 7.201460
v 0.173459 -0.602314 7.196301
v 0.175173 -0.605586 7.194997
v 0.172527 -0.604664 7.196860
v 0.176851 -0.601705 7.201129
v 0.172516 -0.604199 7.196970
v 0.178794 -0.604415 7.204450
v 0.172142 -0.604306 7.195908
v 0.172527 -0.602087 7.193433
v 0.180417 -0.602054 7.202520
v 0.169737 -0.603260 7.190991
v 0.146799 -0.595514 7.171307
v 0.147205 -0.593525 7.171912
v 0.169006 -0.600594 7.192165
v 0.147070 -0.594851 7.171712
v 0.154924 -0.597711 7.176250
v 0.158581 -0.599669 7.184043
v 0.146791 -0.596235 7.170154
v 0.154924 -0.597711 7.176250
v 0.147881 -0.596219 7.169678
v 0.146570 -0.595038 7.170274
v 0.146332 -0.594663 7.171051
v 0.158581 -0.599669 7.184043
v 0.146352 -0.594697 7.170899
v 0.146707 -0.595045 7.169490
v 0.148650 -0.595627 7.170635
v 0.148222 -0.595640 7.171689
v 0.158581 -0.599669 7.184043
v 0.145995 -0.595646 7.171052
v 0.154924 -0.597711 7.176250
v 0.147868 -0.595630 7.169960
v 0.146716 -0.595764 7.169694
v 0.147881 -0.596219 7.169678
v 0.146619 -0.595149 7.170373
vn 0.8249 -0.4115 0.3875
vn 0.8680 -0.4855 -0.1049
vn 0.9561 -0.0811 -0.2817
vn 0.9105 0.4117 -0.0390
vn 0.7575 -0.2098 0.6182
vn 0.3632 0.5517 -0.7508
vn 0.1548 0.4703 -0.8688
vn 0.2306 -0.7643 0.6022
vn 0.4532 -0.5546 0.6979
vn -0.3822 0.6906 -0.6139
vn -0.0683 -0.1751 0.9822
vn -0.2659 0.0956 0.9593
vn 0.8683 -0.4898 -0.0783
vn 0.6205 -0.7581 0.2006
vn 0.5905 -0.7531 0.2902
vn -0.0278 0.8710 -0.4905
vn -0.9267 0.3597 0.1091
vn -0.8540 0.5156 -0.0695
vn -0.6314 0.4866 -0.6038
vn -0.9285 -0.2306 0.2912
vn -0.5791 -0.5767 0.5762
vn -0.9866 -0.1384 0.0865
vn 0.5975 0.5075 0.6209
vn 0.0201 -0.4134 -0.9103
vn -0.2579 -0.1925 -0.9468
vn 0.6218 0.4634 0.6314
vn -0.7661 -0.2319 -0.5995
vn -0.7295 -0.1516 -0.6669
vn -0.9852 -0.1271 0.1149
vn -0.0692 0.1432 -0.9873
vn -0.2264 -0.7241 0.6514
vn -0.7931 -0.3512 0.4977
vn 0.8274 -0.0669 -0.5576
vn 0.0011 0.9459 -0.3243
vn -0.8031 -0.0932 0.5886
vn 0.7228 -0.5252 -0.4491
vn -0.8760 0.3170 0.3636
vn -0.9076 0.3622 0.2123
vn -0.8760 0.3170 0.3635
vn -0.4152 -0.6056 0.6789
vn -0.2450 -0.7537 0.6099
vn -0.0001 0.3175 -0.9482
vn -0.1482 0.8548 -0.4973
vn 0.7563 0.2234 -0.6149
vn -0.0595 0.9283 0.3670
vn 0.5172 0.5555 0.6511
vn 0.5098 -0.2617 -0.8195
vn 0.0192 0.7839 -0.6206
vn -0.8747 0.3959 -0.2796
vn -0.3140 -0.5269 -0.7898
vn -0.9459 -0.3203 -0.0514
vn -0.8317 0.0946 0.5471
vn -0.7671 -0.4145 -0.4895
vn -0.8717 -0.4352 0.2254
vn 0.0724 -0.9355 0.3458
vn 0.4380 -0.8844 -0.1613
vn -0.0624 -0.8630 0.5014
vn -0.3504 -0.5988 0.7202
vn 0.4295 0.6296 -0.6474
vn -0.6726 -0.3024 0.6753
vn -0.7033 0.4826 0.5221
vn -0.4084 0.9086 0.0878
vn -0.8217 0.2635 0.5054
vn 0.4419 0.6959 -0.5661
vn 0.1865 0.9824 0.0083
vn 0.5070 0.5056 -0.6980
vn 0.4858 0.5232 -0.7002
vn -0.0444 -0.9984 0.0342
vn -0.2738 -0.8971 0.3469
vn -0.7096 0.4111 0.5722
vn -0.7015 0.2424 0.6702
vn 0.6100 0.2115 -0.7637
vn 0.5840 0.6620 -0.4698
vn -0.2421 -0.9677 0.0697
vn -0.3136 -0.9078 0.2786
vn -0.5439 0.4909 0.6806
vn -0.4065 -0.9042 0.1312
vn 0.7066 0.4194 -0.5699
vn 0.4553 0.7600 -0.4639
vn 0.5327 0.6002 -0.5967
vn 0.6467 0.5833 -0.4915
vn -0.5272 0.1682 0.8329
vn 0.0362 0.9986 0.0394
vn -0.4173 -0.9057 -0.0749
vn -0.3094 -0.9501 -0.0394
vn -0.5938 0.3267 0.7353
vn 0.5875 0.7063 -0.3950
vn 0.7183 0.3933 -0.5739
vn 0.5179 0.7659 -0.3809
vn 0.5174 0.7666 -0.3803
vn 0.4548 0.7891 -0.4129
vn -0.6945 -0.4825 0.5337
vn -0.3652 -0.9212 -0.1340
vn -0.7315 -0.3496 0.5854
vn -0.4604 -0.8694 0.1794
s 1
f 2//1 16//2 4//3
f 4//3 3//4 5//5
f 4//3 6//6 7//7
f 7//7 3//4 4//3
f 2//1 4//3 5//5
f 5//5 8//8 9//9
f 6//6 10//10 3//4
f 8//8 5//5 12//11
f 9//9 8//8 2//1
f 11//12 12//11 3//4
f 12//11 5//5 3//4
f 15//13 13//14 14//15
f 15//13 4//3 16//2
f 4//3 1//16 6//6
f 1//16 10//10 6//6
f 10//10 17//17 18//18
f 21//19 10//10 18//18
f 22//20 20//21 23//22
f 14//15 13//14 16//2
f 40//23 3//4 24//24
f 40//23 11//12 3//4
f 24//24 3//4 25//25
f 11//12 40//23 50//26
f 24//24 25//25 26//27
f 27//28 26//27 25//25
f 26//27 27//28 29//29
f 23//22 29//29 27//28
f 28//30 3//4 21//19
f 3//4 10//10 21//19
f 3//4 28//30 25//25
f 28//30 21//19 23//22
f 28//30 23//22 27//28
f 8//8 12//11 20//21
f 16//2 8//8 14//15
f 16//2 2//1 8//8
f 19//31 8//8 20//21
f 21//19 22//20 23//22
f 29//29 11//12 26//27
f 30//32 12//11 29//29
f 11//12 29//29 12//11
f 23//22 20//21 12//11
f 12//11 30//32 23//22
f 32//33 1//16 4//3
f 33//34 1//16 32//33
f 33//34 17//17 1//16
f 34//35 18//18 17//17
f 14//15 31//36 15//13
f 32//33 4//3 15//13
f 35//37 36//38 37//39
f 17//17 33//34 34//35
f 38//40 39//41 19//31
f 42//42 43//43 41//44
f 45//45 40//23 44//46
f 41//44 24//24 42//42
f 42//42 24//24 47//47
f 46//48 42//42 48//49
f 48//49 42//42 49//50
f 20//21 38//40 19//31
f 40//23 24//24 41//44
f 47//47 49//50 42//42
f 48//49 49//50 51//51
f 45//45 50//26 40//23
f 52//52 50//26 45//45
f 26//27 47//47 24//24
f 51//51 49//50 26//53
f 51//51 53//54 52//52
f 52//52 53//54 11//12
f 26//27 11//12 53//54
f 32//33 63//55 54//56
f 32//33 15//13 31//36
f 55//57 39//41 56//58
f 32//33 57//59 33//34
f 56//58 58//60 59//61
f 32//33 31//36 63//55
f 34//35 33//34 60//62
f 56//58 39//41 38//40
f 35//37 37//39 61//63
f 45//45 46//48 48//49
f 45//45 48//49 52//52
f 51//51 52//52 48//49
f 62//64 33//34 57//59
f 63//55 55//57 56//58
f 65//65 66//66 67//67
f 64//68 63//55 56//58
f 64//68 54//56 63//55
f 68//69 64//68 56//58
f 60//62 33//34 69//70
f 56//58 59//61 68//69
f 69//70 68//71 60//62
f 70//72 71//73 62//64
f 57//59 70//72 62//64
f 54//56 64//68 72//74
f 73//75 64//68 68//69
f 74//76 68//71 69//70
f 75//77 72//74 64//68
f 71//73 70//72 80//78
f 81//79 79//80 78//81
f 68//71 74//76 82//82
f 65//65 67//67 83//83
f 72//74 84//84 85//85
f 84//84 72//74 75//77
f 86//86 68//71 82//82
f 78//81 87//87 81//79
f 71//73 80//78 88//88
f 90//89 99//90 89//91
f 76//92 100//93 77//94
f 103//95 100//93 76//92
l 101 102
l 93 94
l 91 92
l 95 96
l 97 98
