# Blender v2.78 (sub 0) OBJ File: 'exporter.blend'
# www.blender.org
o FJ1704.obj_grp1.597
v -0.166057 -0.271311 7.033053
v -0.166451 -0.271395 7.034452
v -0.166300 -0.271647 7.034479
v -0.166912 -0.271358 7.034191
v -0.166000 -0.270481 7.033727
v -0.166430 -0.271200 7.034554
v -0.166156 -0.270420 7.034379
v -0.166121 -0.272221 7.034215
v -0.166115 -0.271272 7.035101
v -0.166154 -0.270461 7.034368
v -0.166183 -0.270452 7.034149
v -0.166912 -0.271358 7.034191
v -0.166196 -0.270374 7.034370
v -0.164654 -0.270353 7.033299
v -0.160877 -0.272087 7.032229
v -0.163163 -0.269860 7.032622
v -0.167702 -0.271117 7.033482
v -0.161605 -0.271180 7.032291
v -0.160124 -0.272297 7.032313
v -0.153192 -0.271328 7.027781
v -0.157626 -0.271899 7.030569
v -0.166149 -0.271309 7.034905
v -0.160778 -0.271968 7.031870
v -0.158645 -0.272583 7.031374
v -0.157616 -0.272333 7.030659
v -0.157479 -0.271311 7.031078
v -0.151016 -0.271379 7.029446
v -0.159507 -0.269881 7.032054
v -0.157592 -0.272379 7.030489
v -0.158779 -0.271473 7.031227
v -0.156955 -0.272493 7.032181
v -0.152788 -0.271213 7.027553
v -0.157706 -0.270503 7.030436
v -0.153583 -0.271928 7.029169
v -0.154889 -0.272642 7.029496
v -0.153081 -0.271662 7.029331
v -0.154417 -0.274256 7.028789
v -0.152526 -0.274185 7.028785
v -0.152048 -0.272560 7.028520
v -0.152117 -0.272316 7.028409
v -0.150997 -0.271358 7.029496
v -0.148140 -0.269368 7.028244
v -0.157628 -0.270604 7.030362
v -0.141141 -0.266456 7.025145
v -0.139068 -0.266887 7.022288
v -0.142617 -0.271320 7.026311
v -0.144561 -0.269481 7.024379
v -0.144347 -0.269487 7.023768
v -0.141728 -0.269729 7.025824
v -0.141755 -0.267449 7.023324
v -0.140805 -0.266216 7.024802
v -0.141596 -0.267444 7.023394
v -0.146200 -0.268955 7.025741
v -0.141813 -0.268572 7.026322
v -0.146200 -0.268955 7.025741
v -0.139036 -0.267568 7.025240
v -0.137183 -0.264027 7.023575
v -0.133519 -0.264277 7.023475
v -0.133279 -0.259994 7.019900
v -0.136666 -0.261749 7.021814
v -0.133123 -0.259750 7.019779
v -0.136621 -0.261689 7.022126
v -0.141380 -0.268159 7.024863
v -0.128231 -0.252460 7.018769
v -0.137803 -0.266705 7.023689
v -0.133294 -0.262908 7.022877
v -0.134233 -0.261030 7.023394
v -0.137989 -0.266810 7.024802
v -0.134230 -0.259446 7.021984
v -0.127660 -0.253519 7.020999
v -0.133095 -0.259619 7.022215
v -0.130799 -0.254231 7.020390
v -0.132439 -0.257492 7.020370
v -0.130152 -0.253098 7.019966
v -0.121803 -0.242139 7.012679
v -0.127989 -0.253282 7.021372
v -0.124719 -0.249793 7.018171
v -0.131417 -0.259962 7.020154
v -0.126722 -0.250702 7.016680
v -0.119368 -0.240911 7.012634
v -0.123108 -0.246560 7.019165
v -0.122934 -0.245086 7.017948
v -0.123256 -0.242798 7.018161
v -0.127660 -0.253519 7.020999
v -0.121270 -0.237599 7.011919
v -0.122748 -0.239829 7.015653
v -0.126722 -0.250702 7.016680
v -0.118342 -0.239074 7.013679
v -0.117515 -0.238687 7.013628
v -0.116697 -0.234655 7.011540
v -0.112612 -0.238599 7.005978
v -0.117178 -0.234793 7.011424
v -0.114153 -0.236823 7.005030
v -0.108828 -0.234249 7.005187
v -0.110277 -0.238091 7.004469
v -0.111808 -0.237614 7.008418
v -0.102895 -0.237799 7.002007
v -0.106270 -0.238439 6.999888
v -0.106098 -0.240843 6.999584
v -0.105117 -0.238465 6.998625
v -0.105548 -0.241124 7.000850
v -0.105405 -0.239207 7.000229
v -0.106288 -0.236838 6.999686
v -0.105039 -0.236958 6.999475
v -0.105071 -0.237042 6.999497
v -0.114555 -0.239968 7.008037
vn -0.2295 -0.8496 -0.4749
vn -0.1535 -0.9733 -0.1706
vn -0.2559 -0.7359 -0.6268
vn 0.2999 -0.6259 0.7200
vn -0.2927 -0.8702 -0.3962
vn -0.0681 -0.9805 0.1846
vn -0.3963 -0.5911 -0.7025
vn -0.4045 -0.5607 -0.7225
vn -0.4407 -0.5275 -0.7263
vn -0.4230 -0.4824 -0.7670
vn -0.2281 0.7931 -0.5647
vn -0.2344 0.1588 -0.9591
vn -0.0308 0.9957 -0.0879
vn 0.3843 0.0580 0.9214
vn 0.2295 0.6119 0.7569
vn 0.2935 0.4797 0.8269
vn 0.1965 0.6363 0.7460
vn -0.2099 -0.9767 -0.0445
vn 0.3632 -0.5453 0.7555
vn 0.2420 0.3843 0.8909
vn -0.2830 0.9287 -0.2397
vn -0.3036 0.8695 -0.3897
vn 0.0625 0.9928 -0.1026
vn -0.2036 -0.8974 -0.3913
vn 0.2529 -0.3862 0.8871
vn 0.2915 -0.3732 0.8807
vn 0.3017 -0.3525 0.8858
vn 0.2750 -0.3942 0.8769
vn -0.2783 -0.6966 -0.6613
vn 0.3576 -0.8266 0.4345
vn 0.3882 -0.7246 0.5695
vn 0.1887 0.2509 0.9494
vn 0.0469 -0.7149 -0.6977
vn 0.1243 -0.5790 -0.8058
vn -0.4300 0.3275 -0.8413
vn 0.4790 -0.8770 0.0377
vn 0.3923 -0.3457 0.8524
vn -0.6426 0.7210 -0.2594
vn -0.6489 0.6764 -0.3486
vn -0.4666 0.7832 -0.4110
vn -0.5453 0.1791 -0.8189
vn 0.2870 0.2478 0.9253
vn -0.4091 0.5894 -0.6966
vn -0.2161 0.6134 -0.7596
vn -0.3232 0.5298 -0.7841
vn 0.3912 -0.2539 0.8846
vn 0.1369 0.2232 0.9651
vn 0.3704 -0.7075 -0.6019
vn -0.7308 0.6565 -0.1868
vn -0.6396 0.4708 -0.6077
vn -0.1779 -0.1941 -0.9647
vn 0.2171 -0.5394 -0.8136
vn 0.4022 -0.0468 0.9144
vn 0.4020 -0.0468 0.9145
vn 0.4110 -0.0414 0.9107
vn -0.6088 0.6319 0.4796
vn 0.1822 0.2152 0.9594
vn 0.2192 0.1332 0.9666
vn 0.2369 0.0561 0.9699
vn 0.3931 -0.0520 0.9180
vn -0.6552 0.7515 -0.0767
vn -0.7136 0.6113 0.3421
vn -0.8403 0.4400 -0.3167
vn -0.8947 0.4444 -0.0449
vn 0.8327 -0.5361 -0.1388
vn -0.2628 -0.3440 -0.9015
vn -0.2819 0.4826 0.8293
vn 0.6517 -0.5342 -0.5385
vn 0.6405 -0.5904 -0.4911
vn 0.8236 -0.5362 0.1849
vn 0.8436 -0.5070 0.1768
vn 0.6015 -0.0391 0.7979
vn 0.5391 0.1023 0.8360
vn 0.5362 0.0029 0.8441
vn -0.7960 0.5219 -0.3067
vn -0.3645 0.6320 0.6839
vn 0.4181 -0.9066 -0.0572
vn 0.2454 -0.5207 -0.8177
vn -0.4800 0.8100 -0.3369
vn 0.5168 0.2479 0.8194
vn 0.5689 0.3403 0.7487
vn 0.6781 -0.6722 0.2973
vn -0.5731 0.1481 -0.8060
vn -0.4836 -0.7036 -0.5208
vn 0.5862 0.2676 0.7647
vn 0.1039 -0.9932 0.0518
vn 0.5896 0.1546 0.7927
vn 0.1992 0.9755 0.0936
vn 0.5984 0.2489 0.7616
vn 0.9708 0.0249 0.2386
vn -0.5992 0.0464 -0.7992
vn 0.0551 -0.6882 -0.7234
vn 0.5828 -0.1571 -0.7973
vn -0.2979 0.3692 -0.8803
vn -0.4302 -0.3794 -0.8192
vn 0.5554 0.7230 -0.4108
vn -0.1867 -0.2867 -0.9396
vn 0.3714 -0.9249 0.0810
vn -0.1668 -0.9716 -0.1681
s 1
f 15//1 1//2 20//3
f 22//4 23//5 24//6
f 21//7 19//8 18//9
f 25//10 15//1 20//3
f 17//11 16//12 26//13
f 22//4 24//6 31//14
f 9//15 28//16 10//17
f 15//1 2//18 1//2
f 8//19 23//5 22//4
f 27//20 28//16 9//15
f 16//12 17//11 5//21
f 32//22 17//11 26//13
f 33//23 28//16 27//20
f 20//3 34//24 25//10
f 29//25 35//26 36//27
f 29//25 36//27 30//28
f 39//29 34//24 20//3
f 31//14 40//30 41//31
f 31//14 41//31 22//4
f 42//32 33//23 27//20
f 46//33 39//29 45//34
f 32//22 26//13 47//35
f 20//3 48//36 39//29
f 41//31 40//30 49//37
f 45//34 39//29 48//36
f 51//38 52//39 53//40
f 47//35 26//13 50//41
f 54//42 42//32 27//20
f 55//43 43//44 44//45
f 49//37 56//46 41//31
f 54//42 57//47 42//32
f 45//34 58//48 46//33
f 59//49 52//39 60//50
f 52//39 51//38 60//50
f 48//36 61//51 45//34
f 45//34 64//52 58//48
f 66//53 67//54 68//55
f 62//56 63//57 69//58
f 69//58 63//57 65//59
f 66//53 70//60 67//54
f 59//49 60//50 71//61
f 69//58 72//62 73//63
f 72//62 69//58 65//59
f 73//63 72//62 74//64
f 77//65 58//48 64//52
f 75//66 59//49 71//61
f 76//67 72//62 65//59
f 77//65 78//68 79//69
f 80//70 77//65 79//69
f 58//48 77//65 81//71
f 82//72 83//73 84//74
f 85//75 73//63 74//64
f 85//75 74//64 86//76
f 85//75 75//66 71//61
f 80//77 87//78 75//66
f 72//62 76//67 86//76
f 92//79 86//76 76//67
f 89//80 83//73 82//72
f 89//80 90//81 83//73
f 81//71 77//65 88//82
f 77//65 80//70 88//82
f 85//75 93//83 75//66
f 93//83 85//75 92//79
f 91//84 75//66 93//83
f 75//66 91//84 80//77
f 86//76 92//79 85//75
f 94//85 90//81 89//80
f 88//82 80//70 95//86
f 96//87 94//88 88//89
f 97//90 88//82 95//86
f 98//91 99//92 93//83
f 100//93 99//92 98//91
f 103//94 102//95 93//83
f 103//94 93//83 94//88
f 103//94 94//88 104//96
f 103//94 105//97 102//95
f 92//79 94//88 93//83
f 91//84 93//83 99//92
f 97//90 95//86 101//98
f 96//87 97//90 94//88
f 106//99 99//92 101//98
f 97//90 104//96 94//88
f 97//90 99//92 100//93
f 99//92 97//90 101//98
f 97//90 100//93 104//96
l 3 4
l 6 7
l 11 12
l 13 14
l 37 38
