# Blender v2.78 (sub 0) OBJ File: 'exporter.blend'
# www.blender.org
o FJ1812.obj_grp1.730
v -0.003702 -0.511727 7.229196
v -0.003946 -0.514499 7.227563
v -0.009161 -0.514613 7.227593
v -0.003236 -0.514679 7.228168
v -0.009423 -0.513874 7.228293
v -0.009320 -0.514678 7.227610
v -0.003946 -0.514499 7.227563
v -0.003451 -0.514398 7.228134
v -0.009320 -0.514678 7.227610
v -0.009213 -0.514756 7.227731
v -0.009490 -0.513823 7.228938
v -0.009064 -0.514393 7.227942
v -0.009506 -0.512346 7.231859
v -0.009667 -0.511133 7.229863
v -0.003531 -0.499799 7.233013
v -0.009546 -0.496537 7.235233
v -0.009320 -0.500110 7.233243
v -0.009317 -0.497589 7.234582
v -0.003077 -0.497025 7.235130
v -0.003498 -0.494735 7.236811
v -0.003378 -0.491656 7.239537
v -0.009471 -0.491561 7.239628
v -0.009155 -0.492054 7.239551
v -0.009320 -0.495153 7.236482
v -0.009559 -0.491891 7.239454
v -0.009471 -0.491561 7.239628
v -0.009667 -0.492425 7.239863
v -0.009157 -0.492284 7.240238
v -0.009667 -0.493239 7.241365
v -0.009171 -0.492846 7.239825
v -0.002908 -0.492997 7.240451
v -0.009471 -0.491561 7.239628
v -0.009391 -0.492697 7.242209
v -0.009448 -0.491145 7.247448
v -0.002830 -0.493623 7.243023
v -0.009285 -0.495961 7.265312
v -0.009320 -0.484641 7.263289
v -0.009248 -0.481581 7.272100
v -0.009531 -0.481105 7.275205
v -0.009459 -0.493291 7.272387
v -0.009164 -0.494388 7.270711
v -0.003800 -0.497307 7.262209
v -0.003542 -0.485751 7.261577
v -0.009450 -0.493358 7.277043
v -0.009095 -0.492452 7.279958
v -0.009649 -0.490557 7.280330
v -0.009331 -0.480927 7.282362
v -0.003491 -0.492355 7.279604
v -0.009033 -0.480548 7.278265
v -0.009636 -0.481105 7.278071
v -0.003293 -0.482050 7.273006
v -0.008983 -0.492078 7.279861
v -0.009649 -0.490557 7.280330
v -0.008983 -0.492078 7.279861
v -0.009762 -0.490435 7.281214
v -0.009511 -0.481143 7.282715
v -0.008886 -0.480836 7.282164
v -0.003491 -0.480771 7.282576
v -0.008984 -0.480408 7.282558
v -0.009746 -0.489625 7.282063
v -0.009078 -0.482822 7.282972
v -0.009747 -0.490606 7.281190
v -0.009597 -0.489671 7.282029
v -0.009294 -0.482888 7.283351
v -0.003377 -0.480455 7.282807
v -0.003087 -0.511921 7.229557
v -0.003046 -0.513979 7.226702
v -0.003846 -0.514292 7.227994
v -0.003106 -0.510942 7.229753
v -0.004225 -0.509622 7.237234
v -0.003809 -0.500273 7.233259
v -0.003007 -0.497159 7.235013
v -0.003072 -0.510152 7.230051
v -0.003083 -0.497119 7.235097
v -0.003498 -0.494735 7.236811
v -0.003075 -0.494458 7.237656
v -0.003082 -0.497040 7.235168
v -0.003075 -0.494458 7.237656
v -0.003642 -0.493392 7.237985
v -0.003467 -0.491890 7.239937
v -0.003138 -0.494026 7.237563
v -0.003498 -0.494735 7.236811
v -0.003388 -0.493965 7.237891
v -0.002857 -0.493735 7.237463
v -0.003539 -0.491651 7.239625
v -0.002834 -0.493064 7.240172
v -0.002756 -0.493930 7.243110
v -0.003131 -0.496646 7.262537
v -0.002818 -0.494292 7.269907
v -0.003276 -0.488615 7.255126
v -0.002984 -0.479974 7.279959
v -0.003075 -0.493622 7.271458
v -0.003501 -0.480789 7.282716
v -0.003269 -0.492496 7.279342
v -0.003520 -0.490365 7.281718
v -0.003527 -0.486843 7.283019
vn 0.3440 0.4689 -0.8135
vn -0.0166 0.5054 -0.8627
vn 0.0422 0.4034 -0.9140
vn -0.2089 -0.8779 0.4308
vn -0.1342 -0.7689 0.6251
vn -0.0695 -0.6484 0.7581
vn 0.0718 -0.9882 0.1352
vn 0.0172 -0.9909 0.1333
vn 0.0336 -0.9913 0.1269
vn -0.9816 -0.1781 -0.0686
vn -0.9999 -0.0130 0.0084
vn -0.9959 -0.0872 0.0221
vn -0.9549 0.1843 -0.2330
vn -0.9398 0.1491 -0.3075
vn -0.9479 0.0659 -0.3117
vn -0.9996 -0.0113 0.0267
vn 0.0571 0.4591 -0.8865
vn -0.9074 0.1258 -0.4010
vn -0.0343 0.5401 -0.8409
vn 0.0505 0.6356 -0.7704
vn 0.0101 0.5968 -0.8023
vn -0.6130 0.3434 0.7115
vn -0.9804 0.1778 -0.0843
vn -0.9608 0.2236 -0.1636
vn 0.0334 0.2403 0.9701
vn -0.0782 0.7775 0.6240
vn -0.0712 0.4455 0.8925
vn 0.0164 0.8731 0.4873
vn 0.0024 0.6819 -0.7314
vn -0.3600 0.9205 -0.1516
vn -0.9999 -0.0085 0.0144
vn 0.0719 0.9948 -0.0716
vn -1.0000 -0.0004 0.0043
vn 0.0123 0.9709 -0.2392
vn -0.9997 -0.0207 -0.0143
vn -0.9649 0.2431 -0.0996
vn -0.9993 -0.0044 -0.0366
vn 0.0494 -0.9197 0.3895
vn -0.0415 -0.9484 0.3142
vn -0.0823 -0.9753 0.2048
vn -0.0569 -0.8486 0.5260
vn -0.9944 -0.0959 -0.0445
vn -0.9963 -0.0386 0.0773
vn -0.9989 -0.0037 -0.0462
vn 0.0348 -0.8989 0.4368
vn -0.2872 0.9534 -0.0921
vn -0.6146 0.7888 -0.0026
vn 0.1209 0.9714 -0.2043
vn -0.8118 -0.4672 0.3502
vn -0.8100 -0.4711 0.3493
vn -0.8146 -0.4590 0.3546
vn -0.9224 -0.3794 -0.0722
vn -0.9884 0.0835 -0.1265
vn -0.2082 0.6251 0.7523
vn -0.2920 0.9242 0.2463
vn 0.0713 0.9926 -0.0985
vn 0.0472 0.9966 -0.0670
vn -0.9991 0.0335 -0.0262
vn 0.6273 -0.1321 0.7675
vn -0.0193 0.0077 0.9998
vn -0.0339 -0.4453 0.8948
vn -0.9720 0.1347 0.1924
vn -0.0229 0.1067 0.9940
vn 0.5321 0.4889 -0.6913
vn 0.4924 0.7606 -0.4231
vn 0.1042 -0.8927 0.4385
vn 0.5384 0.2934 -0.7900
vn 0.5542 0.2642 -0.7893
vn 0.5441 0.2955 -0.7853
vn 0.7032 0.4951 -0.5102
vn 1.0000 -0.0008 -0.0034
vn 0.7237 0.0262 0.6897
vn 0.9974 0.0391 0.0604
vn 0.0779 0.7691 -0.6343
vn 0.1097 0.7795 -0.6167
vn 0.1992 0.6519 -0.7317
vn 0.6216 0.6006 -0.5029
vn 0.9834 0.0409 0.1767
vn -0.1029 0.8138 -0.5720
vn 0.9048 0.1924 -0.3799
vn 0.9577 0.1499 -0.2455
vn 0.9994 -0.0267 0.0241
vn 0.9999 0.0079 0.0066
vn 0.9160 -0.3677 0.1602
vn 0.9493 -0.2760 0.1506
vn 0.4922 0.8245 -0.2793
vn 0.9933 0.1050 -0.0482
vn 0.9965 -0.0271 0.0794
vn 0.9962 -0.0824 0.0266
vn 0.6313 -0.3721 0.6805
vn 0.9980 -0.0091 0.0620
vn 0.9873 -0.0206 0.1574
vn -0.0408 -0.6041 0.7959
s 1
f 1//1 2//2 3//3
f 4//4 5//5 6//6
f 7//7 8//8 9//9
f 12//10 13//11 14//12
f 10//13 11//14 16//15
f 16//16 14//12 13//11
f 15//17 1//1 3//3
f 17//18 10//13 16//15
f 3//3 18//19 15//17
f 20//20 19//21 18//19
f 26//22 27//22 28//22
f 16//16 29//23 23//24
f 22//25 30//26 21//27
f 21//27 30//26 31//28
f 32//29 20//20 18//19
f 33//30 30//26 29//23
f 34//31 33//30 29//23
f 31//28 30//26 33//30
f 31//28 33//30 35//32
f 13//11 36//33 16//16
f 29//23 16//16 34//31
f 16//16 36//33 34//31
f 35//32 33//30 38//34
f 36//33 39//35 34//31
f 34//31 39//35 37//36
f 36//33 41//37 39//35
f 42//38 89//39 40//40
f 40//40 89//39 45//41
f 39//35 46//42 47//43
f 41//37 44//44 39//35
f 39//35 44//44 46//42
f 48//45 45//41 89//39
f 49//46 38//34 50//47
f 49//46 51//48 38//34
f 52//49 53//50 44//51
f 54//52 55//53 46//42
f 49//46 50//47 56//54
f 57//55 49//46 56//54
f 58//56 49//46 59//57
f 51//48 49//46 58//56
f 55//53 60//58 46//42
f 46//42 60//58 47//43
f 96//59 61//60 63//61
f 47//43 60//58 64//62
f 61//60 96//59 65//63
f 1//1 66//64 67//65
f 1//1 15//17 66//64
f 4//4 70//66 5//5
f 71//67 72//68 73//69
f 75//70 76//70 77//70
f 74//71 78//72 69//73
f 19//21 15//17 18//19
f 79//74 20//20 32//29
f 79//74 32//29 80//75
f 20//20 79//74 81//76
f 82//77 83//78 78//72
f 78//72 83//78 69//73
f 79//74 80//75 84//79
f 83//78 85//80 69//73
f 85//80 86//81 69//73
f 69//73 86//81 87//82
f 69//73 87//82 88//83
f 69//84 89//39 42//38
f 69//84 42//38 68//85
f 70//66 40//40 5//5
f 42//38 40//40 70//66
f 35//32 38//34 43//86
f 43//86 90//87 35//32
f 90//87 88//83 87//82
f 91//88 90//87 43//86
f 90//87 91//88 88//83
f 88//83 91//88 92//89
f 43//86 38//34 51//48
f 48//45 95//90 45//41
f 92//89 91//88 94//91
f 93//92 96//59 95//90
f 63//61 95//90 96//59
f 62//93 95//90 63//61
f 93//92 95//90 91//88
f 91//88 95//90 94//91
f 95//90 62//93 45//41
f 56//54 61//60 65//63
f 65//63 57//55 56//54
l 24 25
