# Blender v2.78 (sub 0) OBJ File: 'exporter.blend'
# www.blender.org
o FJ1813.obj_grp1.731
v -0.093237 -0.324550 7.236710
v -0.097833 -0.327186 7.239657
v -0.094434 -0.326857 7.241851
v -0.089535 -0.324502 7.240029
v -0.085957 -0.324110 7.238148
v -0.092755 -0.326576 7.230172
v -0.084376 -0.326306 7.242104
v -0.093212 -0.330399 7.244182
v -0.084256 -0.325655 7.233495
v -0.081027 -0.325826 7.236326
v -0.083264 -0.325475 7.240592
v -0.077272 -0.328539 7.237655
v -0.077045 -0.329384 7.239934
v -0.099805 -0.328095 7.232407
v -0.101429 -0.330222 7.238590
v -0.097968 -0.329904 7.242898
v -0.101792 -0.333107 7.240931
v -0.097829 -0.333801 7.244316
v -0.079992 -0.329194 7.231090
v -0.086404 -0.329255 7.227253
v -0.076786 -0.331773 7.233367
v -0.077742 -0.332286 7.241900
v -0.075443 -0.332716 7.236582
v -0.075854 -0.334668 7.240376
v -0.099337 -0.330278 7.226160
v -0.093845 -0.330395 7.224096
v -0.103450 -0.331805 7.234742
v -0.099145 -0.336558 7.243845
v -0.093210 -0.336778 7.245641
v -0.084987 -0.345767 7.245421
v -0.078305 -0.338397 7.229171
v -0.081527 -0.333907 7.226583
v -0.075398 -0.336314 7.236817
v -0.077279 -0.341561 7.240284
v -0.080183 -0.343831 7.243581
v -0.102760 -0.335464 7.222307
v -0.104062 -0.334467 7.225749
v -0.108825 -0.342445 7.227059
v -0.097360 -0.334428 7.220497
v -0.088831 -0.333742 7.222136
v -0.086931 -0.347560 7.245001
v -0.095812 -0.341840 7.243646
v -0.081145 -0.349342 7.227290
v -0.105367 -0.342494 7.234038
v -0.090716 -0.338695 7.218708
v -0.083914 -0.342263 7.221714
v -0.082485 -0.351361 7.233384
v -0.081844 -0.348358 7.241458
v -0.084339 -0.349070 7.243357
v -0.108217 -0.343817 7.221583
v -0.103712 -0.340785 7.218982
v -0.099527 -0.341595 7.217369
v -0.093018 -0.345730 7.216459
v -0.096318 -0.349532 7.235043
v -0.101202 -0.351621 7.231188
v -0.090549 -0.352595 7.238688
v -0.111232 -0.350546 7.222030
v -0.108325 -0.355362 7.229159
v -0.089160 -0.348247 7.217379
v -0.085296 -0.349460 7.219930
v -0.089762 -0.355971 7.236248
v -0.090615 -0.361577 7.229641
v -0.109339 -0.350948 7.219078
v -0.110875 -0.353425 7.227642
v -0.093510 -0.360031 7.232742
v -0.086083 -0.355165 7.221313
v -0.104470 -0.352713 7.216352
v -0.115112 -0.368633 7.226779
v -0.100631 -0.355251 7.215269
v -0.094149 -0.354921 7.215685
v -0.089225 -0.356474 7.218162
v -0.099104 -0.364977 7.229920
v -0.107752 -0.357816 7.217508
v -0.112063 -0.360584 7.220905
v -0.096226 -0.370399 7.222526
v -0.098439 -0.364755 7.216986
v -0.094640 -0.365806 7.219182
v -0.095831 -0.366106 7.229691
v -0.106082 -0.363584 7.217514
v -0.114358 -0.371589 7.225132
v -0.102767 -0.374101 7.229340
v -0.114366 -0.372812 7.229164
v -0.112439 -0.373726 7.229888
v -0.106087 -0.378183 7.224509
v -0.101234 -0.376538 7.226808
v -0.114543 -0.374886 7.226713
v -0.102158 -0.376714 7.223813
v -0.109731 -0.378061 7.229167
v -0.113369 -0.376968 7.228261
v -0.111129 -0.378478 7.226207
v -0.110432 -0.378949 7.227449
v -0.105986 -0.379072 7.226613
v -0.106926 -0.379186 7.226859
vn -0.2320 0.9721 -0.0340
vn -0.5284 0.7945 0.2993
vn -0.2557 0.7289 0.6351
vn -0.0985 0.9024 0.4195
vn 0.1301 0.9908 0.0384
vn 0.1940 0.5562 0.8081
vn -0.0510 0.3534 0.9341
vn 0.4912 0.8626 -0.1211
vn 0.2119 0.8859 -0.4128
vn 0.3490 0.8259 0.4428
vn 0.7540 0.6562 -0.0314
vn 0.7382 0.5048 0.4475
vn -0.5530 0.8203 -0.1459
vn -0.0721 0.9107 -0.4068
vn -0.7615 0.5825 0.2843
vn -0.4729 0.4934 0.7300
vn -0.8086 0.2038 0.5520
vn -0.3950 0.1735 0.9022
vn 0.5813 0.6057 -0.5433
vn 0.2489 0.7345 -0.6314
vn 0.8498 0.3086 -0.4273
vn 0.9787 0.1841 -0.0910
vn 0.4967 0.1994 0.8447
vn 0.8731 0.0092 0.4875
vn -0.3943 0.7953 -0.4604
vn -0.0030 0.7554 -0.6552
vn -0.8610 0.4958 0.1134
vn -0.5635 -0.1632 0.8098
vn -0.0721 0.0410 0.9966
vn 0.2450 -0.1898 0.9508
vn 0.6122 0.3653 -0.7012
vn 0.8752 -0.0053 -0.4837
vn 0.9892 -0.1337 -0.0604
vn 0.8920 -0.3488 0.2874
vn 0.6249 -0.2600 0.7361
vn -0.7571 0.5902 -0.2802
vn -0.9360 0.3359 0.1050
vn -0.1208 0.5874 -0.8003
vn 0.3173 0.5373 -0.7814
vn -0.1312 -0.4865 0.8638
vn -0.4867 -0.4055 0.7737
vn 0.8818 -0.4070 -0.2383
vn -0.5518 0.5931 -0.5863
vn -0.7232 -0.2430 0.6465
vn 0.2713 0.3672 -0.8897
vn 0.6460 0.1466 -0.7491
vn 0.8016 -0.5875 0.1107
vn 0.6947 -0.6128 0.3765
vn 0.3776 -0.6285 0.6800
vn -0.7885 0.4089 -0.4595
vn -0.4785 0.4001 -0.7816
vn -0.1344 0.3004 -0.9443
vn -0.5616 -0.4664 0.6834
vn -0.3050 -0.3119 0.8998
vn -0.5103 -0.5241 0.6818
vn -0.9285 0.2452 -0.2788
vn 0.1607 0.1640 -0.9733
vn -0.3430 -0.0788 0.9360
vn 0.4317 0.0667 -0.8995
vn 0.7188 -0.0869 -0.6898
vn -0.0307 -0.6623 0.7486
vn 0.6370 -0.6746 0.3731
vn -0.6568 0.1900 -0.7297
vn -0.6680 0.1059 0.7365
vn -0.0621 -0.5369 0.8414
vn 0.8162 -0.4278 -0.3882
vn -0.3226 0.1213 -0.9387
vn -0.9932 0.0557 0.1021
vn -0.0960 -0.0334 -0.9948
vn 0.2414 -0.1027 -0.9650
vn 0.5754 -0.3124 -0.7558
vn -0.0851 -0.1410 0.9863
vn -0.4721 -0.0414 -0.8806
vn -0.7731 -0.0155 -0.6341
vn 0.6969 -0.6585 -0.2840
vn -0.3056 -0.2639 -0.9149
vn -0.7703 -0.0733 0.6335
vn 0.1351 -0.3781 -0.9159
vn 0.5489 -0.4884 -0.6783
vn 0.1977 -0.3505 0.9155
vn 0.2429 -0.3565 0.9022
vn -0.7600 -0.1849 -0.6231
vn -0.0250 -0.7326 -0.6802
vn -0.2165 -0.1323 0.9673
vn 0.5703 -0.7487 0.3380
vn -0.4272 -0.7481 -0.5078
vn -0.8774 -0.3841 -0.2876
vn 0.4075 -0.7338 -0.5435
vn -0.6908 -0.6222 0.3683
vn -0.0272 -0.5961 0.8025
vn -0.2262 -0.9627 0.1487
vn -0.0661 -0.9358 -0.3462
vn 0.2002 -0.9693 0.1430
s 1
f 1//1 2//2 3//3
f 1//1 4//4 5//5
f 4//4 1//1 3//3
f 7//6 4//4 3//3
f 7//6 3//3 8//7
f 10//8 9//9 5//5
f 4//4 11//10 5//5
f 5//5 9//9 1//1
f 4//4 7//6 11//10
f 5//5 11//10 10//8
f 11//10 12//11 10//8
f 7//6 13//12 11//10
f 13//12 12//11 11//10
f 14//13 1//1 6//14
f 1//1 14//13 2//2
f 15//15 2//2 14//13
f 2//2 16//16 3//3
f 15//15 16//16 2//2
f 15//15 17//17 16//16
f 9//9 6//14 1//1
f 8//7 3//3 16//16
f 18//18 8//7 16//16
f 9//9 19//19 20//20
f 10//8 19//19 9//9
f 10//8 12//11 19//19
f 19//19 12//11 21//21
f 12//11 13//12 23//22
f 7//6 22//23 13//12
f 23//22 13//12 24//24
f 22//23 24//24 13//12
f 14//13 6//14 25//25
f 25//25 6//14 26//26
f 27//27 15//15 14//13
f 16//16 17//17 18//18
f 18//18 17//17 28//28
f 20//20 26//26 6//14
f 6//14 9//9 20//20
f 8//7 18//18 29//29
f 28//28 29//29 18//18
f 7//6 8//7 29//29
f 29//29 30//30 7//6
f 30//30 22//23 7//6
f 19//19 21//21 32//31
f 32//31 21//21 31//32
f 23//22 21//21 12//11
f 23//22 31//32 21//21
f 33//33 31//32 23//22
f 33//33 23//22 24//24
f 33//33 24//24 34//34
f 24//24 22//23 35//35
f 27//27 14//13 37//36
f 14//13 25//25 37//36
f 27//27 37//36 38//37
f 39//38 25//25 26//26
f 17//17 15//15 27//27
f 20//20 19//19 40//39
f 40//39 26//26 20//20
f 41//40 29//29 28//28
f 42//41 41//40 28//28
f 19//19 32//31 40//39
f 22//23 30//30 35//35
f 31//32 33//33 43//42
f 24//24 35//35 34//34
f 36//43 25//25 39//38
f 25//25 36//43 37//36
f 38//37 17//17 27//27
f 44//44 17//17 38//37
f 44//44 28//28 17//17
f 39//38 26//26 40//39
f 45//45 39//38 40//39
f 44//44 42//41 28//28
f 46//46 32//31 31//32
f 29//29 41//40 30//30
f 33//33 34//34 43//42
f 47//47 43//42 34//34
f 48//48 34//34 35//35
f 47//47 34//34 48//48
f 48//48 35//35 49//49
f 49//49 35//35 30//30
f 38//37 37//36 50//50
f 36//43 39//38 51//51
f 52//52 39//38 45//45
f 51//51 39//38 52//52
f 54//53 42//41 44//44
f 55//54 54//53 44//44
f 42//41 54//53 56//55
f 45//45 40//39 32//31
f 46//46 45//45 32//31
f 56//55 41//40 42//41
f 30//30 41//40 49//49
f 37//36 36//43 50//50
f 51//51 50//50 36//43
f 50//50 57//56 38//37
f 53//57 52//52 45//45
f 58//58 55//54 44//44
f 59//59 53//57 45//45
f 59//59 45//45 46//46
f 60//60 46//46 31//32
f 31//32 43//42 60//60
f 61//61 41//40 56//55
f 61//61 49//49 41//40
f 62//62 48//48 49//49
f 61//61 62//62 49//49
f 51//51 63//63 50//50
f 64//64 44//44 38//37
f 58//58 44//44 64//64
f 59//59 46//46 60//60
f 65//65 56//55 54//53
f 66//66 60//60 43//42
f 65//65 61//61 56//55
f 62//62 47//47 48//48
f 50//50 63//63 57//56
f 51//51 67//67 63//63
f 38//37 68//68 64//64
f 51//51 52//52 67//67
f 52//52 53//57 69//69
f 69//69 53//57 70//70
f 65//65 54//53 55//54
f 60//60 71//71 59//59
f 72//72 65//65 55//54
f 71//71 60//60 66//66
f 67//67 73//73 63//63
f 63//63 73//73 74//74
f 68//68 38//37 57//56
f 52//52 69//69 67//67
f 70//70 53//57 59//59
f 70//70 59//59 71//71
f 75//75 66//66 43//42
f 47//47 62//62 43//42
f 61//61 65//65 62//62
f 74//74 57//56 63//63
f 67//67 69//69 73//73
f 69//69 79//76 73//73
f 58//58 64//64 82//77
f 70//70 76//78 69//69
f 70//70 71//71 76//78
f 72//72 55//54 58//58
f 71//71 66//66 77//79
f 78//80 62//62 65//65
f 78//80 65//65 72//72
f 75//75 77//79 66//66
f 73//73 79//76 74//74
f 74//74 68//68 57//56
f 76//78 79//76 69//69
f 77//79 76//78 71//71
f 81//81 78//80 72//72
f 74//74 80//82 68//68
f 79//76 80//82 74//74
f 64//64 68//68 82//77
f 76//78 84//83 79//76
f 82//77 83//84 58//58
f 85//85 43//42 62//62
f 62//62 78//80 85//85
f 80//82 79//76 90//86
f 86//87 80//82 90//86
f 86//87 68//68 80//82
f 86//87 82//77 68//68
f 79//76 84//83 90//86
f 72//72 58//58 83//84
f 81//81 72//72 83//84
f 87//88 84//83 76//78
f 76//78 77//79 87//88
f 87//88 77//79 75//75
f 78//80 81//81 85//85
f 43//42 85//85 75//75
f 86//87 89//89 82//77
f 89//89 86//87 90//86
f 89//89 83//84 82//77
f 88//90 83//84 89//89
f 90//86 91//91 89//89
f 89//89 91//91 88//90
f 93//92 91//91 90//86
f 88//90 91//91 92//93
f 93//92 84//83 92//93
f 84//83 87//88 92//93
f 90//86 84//83 93//92
f 88//90 81//81 83//84
f 87//88 75//75 85//85
f 85//85 81//81 88//90
f 88//90 92//93 85//85
f 92//93 87//88 85//85
