# Blender v2.78 (sub 0) OBJ File: 'exporter.blend'
# www.blender.org
o FJ2049.obj_grp1.821
v 0.226173 -0.417305 4.894428
v 0.230164 -0.426517 4.897704
v 0.224023 -0.420468 4.898888
v 0.230712 -0.428286 4.901858
v 0.224878 -0.419750 4.906088
v 0.234498 -0.428410 4.906558
v 0.234338 -0.422904 4.911031
v 0.260608 -0.424670 4.896068
v 0.233484 -0.415594 4.911065
v 0.250942 -0.423741 4.906081
v 0.250587 -0.415627 4.908367
v 0.225471 -0.411297 4.902269
v 0.254619 -0.414896 4.886742
v 0.254086 -0.409427 4.890390
v 0.238720 -0.409918 4.905903
v 0.266693 -0.407250 4.891158
v 0.255894 -0.422494 4.889921
v 0.256098 -0.422390 4.889910
v 0.267816 -0.418778 4.899107
v 0.319029 -0.408131 4.822546
v 0.267532 -0.413398 4.875931
v 0.267532 -0.413398 4.875931
v 0.268833 -0.408255 4.894451
v 0.268570 -0.412869 4.899017
v 0.291721 -0.423450 4.855514
v 0.319945 -0.422103 4.831207
v 0.332605 -0.417494 4.823880
v 0.308978 -0.417215 4.828595
v 0.319397 -0.411971 4.839849
v 0.312027 -0.407102 4.836684
v 0.312027 -0.407102 4.836684
v 0.330656 -0.417310 4.810871
v 0.330876 -0.416591 4.810921
v 0.337451 -0.405653 4.800926
v 0.320064 -0.411913 4.839172
v 0.362079 -0.403283 4.794919
v 0.343281 -0.409301 4.815500
v 0.331978 -0.406566 4.823319
v 0.338659 -0.400856 4.803399
v 0.338128 -0.400098 4.803326
v 0.361185 -0.400237 4.788676
v 0.360964 -0.400391 4.801536
v 0.382848 -0.388121 4.789028
v 0.358518 -0.395919 4.787462
v 0.347712 -0.396973 4.805559
v 0.347712 -0.396973 4.805559
v 0.352105 -0.392781 4.795370
v 0.376365 -0.377718 4.787470
v 0.364681 -0.388067 4.798639
v 0.379299 -0.380099 4.795493
v 0.378954 -0.385183 4.783906
v 0.383068 -0.381281 4.790483
v 0.381289 -0.387820 4.794618
vn -0.6072 0.1597 -0.7783
vn -0.4260 -0.7029 -0.5696
vn -0.9330 -0.2971 -0.2031
vn -0.3932 -0.9195 -0.0035
vn -0.8155 -0.1775 0.5509
vn -0.1200 -0.8902 0.4394
vn -0.1169 -0.3597 0.9257
vn 0.1990 -0.9743 0.1056
vn -0.2027 0.3547 0.9128
vn 0.3651 -0.6110 0.7024
vn 0.3079 0.2782 0.9098
vn -0.6774 0.7295 0.0941
vn -0.4559 -0.0056 -0.8900
vn -0.2653 0.7938 -0.5473
vn 0.0146 0.8905 0.4547
vn -0.0123 0.9963 0.0851
vn 0.2191 -0.8396 -0.4971
vn -0.1630 -0.7114 -0.6836
vn 0.5964 -0.4203 0.6839
vn 0.5485 0.3126 0.7755
vn -0.5585 0.7600 -0.3324
vn -0.7047 0.0589 -0.7071
vn -0.7227 -0.1162 -0.6813
vn 0.3758 0.8082 0.4535
vn -0.2435 -0.9315 -0.2701
vn 0.1745 -0.9847 0.0010
vn 0.6573 -0.6631 0.3581
vn -0.2753 -0.8677 -0.4139
vn 0.6703 0.4577 0.5841
vn -0.7225 0.3375 -0.6034
vn -0.1513 0.9767 -0.1521
vn 0.3480 0.8589 0.3757
vn -0.6295 -0.0877 -0.7721
vn -0.5772 -0.0209 -0.8163
vn 0.0976 -0.9257 -0.3656
vn 0.6859 -0.2731 0.6745
vn 0.6329 0.1600 0.7575
vn 0.5542 0.5514 0.6236
vn 0.4815 -0.8709 -0.0983
vn -0.6656 0.4834 -0.5685
vn -0.2884 0.9219 0.2586
vn -0.1786 0.9704 0.1627
vn 0.0457 -0.6368 -0.7697
vn 0.6182 -0.3422 0.7076
vn 0.8692 -0.4205 -0.2601
vn -0.3871 0.0521 -0.9205
vn 0.0517 0.5818 0.8117
vn -0.3268 0.9297 0.1700
vn -0.5558 0.7692 -0.3152
vn -0.0346 0.9094 -0.4145
vn -0.0972 0.6945 0.7129
vn 0.3006 0.6829 0.6658
vn 0.3341 0.0273 -0.9421
vn 0.8833 0.4678 -0.0314
vn 0.7318 -0.3486 0.5856
s 1
f 1//1 2//2 3//3
f 3//3 4//4 5//5
f 3//3 2//2 4//4
f 6//6 5//5 4//4
f 7//7 5//5 6//6
f 6//6 4//4 8//8
f 5//5 7//7 9//9
f 10//10 7//7 6//6
f 7//7 10//10 11//11
f 11//11 9//9 7//7
f 1//1 3//3 12//12
f 2//2 1//1 13//13
f 14//14 1//1 12//12
f 14//14 13//13 1//1
f 12//12 3//3 5//5
f 9//9 12//12 5//5
f 15//15 12//12 9//9
f 12//12 16//16 14//14
f 12//12 15//15 16//16
f 8//8 4//4 17//17
f 2//2 13//13 18//18
f 4//4 2//2 17//17
f 8//8 10//10 6//6
f 10//10 19//19 11//11
f 19//19 24//20 11//11
f 11//11 15//15 9//9
f 20//21 21//22 14//14
f 20//21 14//14 16//16
f 18//18 8//8 17//17
f 22//23 18//18 13//13
f 8//8 19//19 10//10
f 11//11 23//24 15//15
f 23//24 11//11 24//20
f 21//22 13//13 14//14
f 23//24 16//16 15//15
f 25//25 26//26 8//8
f 26//26 19//19 8//8
f 26//26 27//27 19//19
f 22//23 28//28 18//18
f 28//28 25//25 18//18
f 25//25 8//8 18//18
f 27//27 29//29 24//20
f 29//29 23//24 24//20
f 24//20 19//19 27//27
f 26//26 25//25 28//28
f 20//21 28//30 21//22
f 16//16 30//31 20//21
f 23//24 31//32 16//16
f 29//29 31//32 23//24
f 33//33 28//30 34//34
f 32//35 26//26 28//28
f 27//27 35//36 29//29
f 32//35 27//27 26//26
f 37//37 38//38 29//29
f 36//39 27//27 32//35
f 27//27 37//37 35//36
f 39//40 34//34 20//21
f 34//34 28//30 20//21
f 40//41 20//21 38//42
f 31//32 29//29 38//38
f 38//42 20//21 30//31
f 36//39 32//35 41//43
f 32//35 33//33 41//43
f 27//27 42//44 37//37
f 36//39 42//44 27//27
f 36//39 43//45 42//44
f 41//43 33//33 44//46
f 44//46 33//33 34//34
f 37//37 46//47 38//38
f 45//48 40//41 38//42
f 47//49 44//46 34//34
f 44//46 47//49 48//50
f 40//41 45//48 49//51
f 47//49 34//34 39//40
f 37//37 49//51 46//47
f 49//51 37//37 42//44
f 49//51 47//49 40//41
f 42//44 50//52 49//51
f 48//50 47//49 50//52
f 50//52 47//49 49//51
f 51//53 41//43 44//46
f 36//39 41//43 43//45
f 43//45 41//43 51//53
f 48//50 51//53 44//46
f 51//53 48//50 52//54
f 43//45 53//55 42//44
f 50//52 42//44 53//55
f 43//45 52//54 53//55
f 50//52 53//55 52//54
f 52//54 48//50 50//52
f 51//53 52//54 43//45
