# Blender v2.78 (sub 0) OBJ File: 'exporter.blend'
# www.blender.org
o FJ2078.obj_grp1.845
v 0.359381 -0.564332 3.632476
v 0.356677 -0.581132 3.645110
v 0.357069 -0.582870 3.643189
v 0.360756 -0.560752 3.628661
v 0.364913 -0.540199 3.620560
v 0.362386 -0.561888 3.627687
v 0.364184 -0.566946 3.629931
v 0.361436 -0.557261 3.631991
v 0.365177 -0.536135 3.622162
v 0.361897 -0.568090 3.640154
v 0.364127 -0.556364 3.633295
v 0.360479 -0.575163 3.635309
v 0.359692 -0.584225 3.641669
v 0.358609 -0.580324 3.647772
v 0.359209 -0.584984 3.644161
v 0.357931 -0.582866 3.646516
v 0.359979 -0.583633 3.647350
v 0.361715 -0.579966 3.648107
v 0.370220 -0.523124 3.615270
v 0.365550 -0.547849 3.621396
v 0.367660 -0.556718 3.625663
v 0.368706 -0.526103 3.621362
v 0.367267 -0.540609 3.626622
v 0.365687 -0.564569 3.636668
v 0.363306 -0.583396 3.641952
v 0.363401 -0.581593 3.647408
v 0.362132 -0.585025 3.643973
v 0.362302 -0.584030 3.646563
v 0.364583 -0.582770 3.644600
v 0.371478 -0.513704 3.615106
v 0.377070 -0.500565 3.611678
v 0.371064 -0.527131 3.615253
v 0.370084 -0.540093 3.618867
v 0.378674 -0.513968 3.614908
v 0.373826 -0.513034 3.619588
v 0.370573 -0.538734 3.625452
v 0.373691 -0.524029 3.621800
v 0.369070 -0.550930 3.628780
v 0.371909 -0.541104 3.622941
v 0.367575 -0.563128 3.632732
v 0.378060 -0.506150 3.611631
v 0.378848 -0.490965 3.615102
v 0.380495 -0.491051 3.617286
v 0.377092 -0.518713 3.618474
v 0.378014 -0.507921 3.619061
v 0.382905 -0.489105 3.610567
v 0.386227 -0.487140 3.611401
v 0.389331 -0.460856 3.614358
v 0.383232 -0.479072 3.612220
v 0.383120 -0.489534 3.617610
v 0.384496 -0.492145 3.616677
v 0.388795 -0.476072 3.610911
v 0.388887 -0.467148 3.617263
v 0.386659 -0.488652 3.614341
v 0.384286 -0.486035 3.617528
v 0.393746 -0.455510 3.611939
v 0.392855 -0.468038 3.616782
v 0.390611 -0.467035 3.617717
v 0.415905 -0.402822 3.615967
v 0.418819 -0.382528 3.619218
v 0.415737 -0.391822 3.617563
v 0.414611 -0.406783 3.621078
v 0.414667 -0.395285 3.620689
v 0.413209 -0.403026 3.615884
v 0.417197 -0.404100 3.618869
v 0.415823 -0.396848 3.621829
v 0.430111 -0.351432 3.617657
v 0.420331 -0.384421 3.615981
v 0.424065 -0.377232 3.615720
v 0.426350 -0.376469 3.617038
v 0.423481 -0.382387 3.621286
v 0.423319 -0.374943 3.621219
v 0.425869 -0.365252 3.615911
v 0.430153 -0.359691 3.614452
v 0.429962 -0.360624 3.620116
v 0.428571 -0.371677 3.619044
v 0.433278 -0.342917 3.613712
v 0.441245 -0.328513 3.615486
v 0.438665 -0.340570 3.616262
v 0.438137 -0.334151 3.611164
v 0.440223 -0.326957 3.612052
v 0.439196 -0.328561 3.613610
v 0.438743 -0.342547 3.614185
v 0.441560 -0.332390 3.611135
v 0.442636 -0.331381 3.615063
v 0.444319 -0.327941 3.614661
v 0.444530 -0.321456 3.610775
v 0.443970 -0.325013 3.610215
v 0.445227 -0.328166 3.612517
v 0.449174 -0.316195 3.610732
v 0.448552 -0.314652 3.613216
v 0.446725 -0.320405 3.615357
v 0.447615 -0.323079 3.614345
v 0.454775 -0.309161 3.613456
v 0.456138 -0.311477 3.611882
v 0.451982 -0.317190 3.611296
v 0.451909 -0.318157 3.614175
v 0.454557 -0.310065 3.616282
v 0.453768 -0.314068 3.616058
v 0.453714 -0.316190 3.614274
v 0.461311 -0.310058 3.615448
v 0.463907 -0.303078 3.618248
v 0.463437 -0.304530 3.615588
v 0.463518 -0.308258 3.618293
v 0.462711 -0.307152 3.619394
v 0.468697 -0.302083 3.622443
v 0.472607 -0.301279 3.619446
v 0.470162 -0.304764 3.618959
v 0.470162 -0.304764 3.618959
v 0.472370 -0.304130 3.622157
v 0.474384 -0.298445 3.623969
v 0.476143 -0.298225 3.622907
v 0.472664 -0.302902 3.624030
v 0.486906 -0.296222 3.628189
v 0.487912 -0.297941 3.630250
v 0.482434 -0.296887 3.630480
v 0.484232 -0.297805 3.631480
v 0.487912 -0.297941 3.630250
v 0.493790 -0.291762 3.635257
v 0.487804 -0.297812 3.632532
v 0.498353 -0.293799 3.641348
v 0.493776 -0.292667 3.638330
v 0.487804 -0.297812 3.632532
v 0.496020 -0.295204 3.636611
v 0.501000 -0.292509 3.639029
v 0.493776 -0.292667 3.638330
v 0.499206 -0.293587 3.642047
v 0.503706 -0.289194 3.645645
v 0.496020 -0.295204 3.636611
v 0.502522 -0.293485 3.643358
v 0.501979 -0.290073 3.640843
v 0.508843 -0.291541 3.646703
v 0.502522 -0.293485 3.643358
v 0.504726 -0.291429 3.647873
v 0.510360 -0.288679 3.650121
v 0.511600 -0.292240 3.650425
v 0.512819 -0.290380 3.650507
v 0.508278 -0.292402 3.650381
v 0.508278 -0.292402 3.650381
v 0.513724 -0.289167 3.655373
v 0.515613 -0.291515 3.659825
v 0.518982 -0.290621 3.658593
v 0.519962 -0.294540 3.661691
v 0.522357 -0.292181 3.666745
v 0.515553 -0.292799 3.659218
v 0.517273 -0.292914 3.656657
v 0.517257 -0.292895 3.656658
v 0.526180 -0.293308 3.669376
v 0.526189 -0.297273 3.669792
v 0.530117 -0.298905 3.678908
v 0.530519 -0.296649 3.672911
v 0.526947 -0.298104 3.673584
v 0.526192 -0.297343 3.669741
v 0.530666 -0.298056 3.673472
v 0.532385 -0.301434 3.681027
v 0.538082 -0.301236 3.686425
v 0.535119 -0.303280 3.683212
v 0.541384 -0.307524 3.695590
v 0.549713 -0.311996 3.702241
v 0.542262 -0.309030 3.695190
v 0.563243 -0.322444 3.724970
v 0.555078 -0.318313 3.712290
v 0.559438 -0.321169 3.724043
v 0.559717 -0.319914 3.722691
v 0.555379 -0.319398 3.717674
v 0.562485 -0.320949 3.725438
v 0.560464 -0.323362 3.724288
v 0.561928 -0.323555 3.724688
v 0.562401 -0.322789 3.729171
v 0.562181 -0.321896 3.728692
v 0.562181 -0.321896 3.728692
v 0.563058 -0.321023 3.728431
v 0.565437 -0.322211 3.728616
v 0.564257 -0.323597 3.729521
v 0.563833 -0.321972 3.731210
v 0.563850 -0.320989 3.731197
v 0.565139 -0.320091 3.730448
v 0.564994 -0.320256 3.730483
v 0.564885 -0.320640 3.731182
v 0.565116 -0.322223 3.731107
v 0.566017 -0.321146 3.730044
vn -0.9826 0.0585 -0.1764
vn -0.8541 -0.4646 -0.2336
vn -0.9623 -0.0155 0.2714
vn -0.8019 0.0311 -0.5966
vn -0.8278 -0.1150 -0.5492
vn -0.9492 0.3103 0.0518
vn -0.8132 0.3264 0.4819
vn -0.0317 0.5505 0.8342
vn -0.0729 0.4528 0.8886
vn -0.3549 -0.3201 -0.8784
vn -0.3905 -0.4736 -0.7895
vn -0.4832 0.1686 0.8591
vn -0.3549 -0.9331 0.0582
vn -0.2147 -0.7396 -0.6379
vn -0.6835 -0.4636 0.5638
vn -0.1640 -0.5985 0.7842
vn 0.3355 -0.9407 -0.0502
vn 0.1900 0.1992 0.9614
vn -0.2763 -0.3114 -0.9092
vn 0.2534 -0.5176 -0.8173
vn 0.6141 -0.4029 -0.6786
vn 0.3740 -0.3290 -0.8671
vn -0.6565 0.3646 0.6603
vn -0.0004 0.3181 0.9480
vn 0.6637 0.2759 0.6953
vn 0.5838 -0.6361 -0.5045
vn 0.9015 -0.4077 0.1450
vn 0.6367 -0.1525 0.7559
vn 0.3674 -0.7316 0.5743
vn -0.9093 0.2041 -0.3626
vn -0.5922 0.1448 -0.7927
vn -0.6387 0.0237 -0.7691
vn -0.0555 -0.1864 -0.9809
vn 0.8500 -0.3076 -0.4277
vn -0.2430 0.2482 0.9377
vn 0.4331 0.1274 0.8923
vn 0.5771 0.1103 0.8092
vn 0.9716 -0.1553 0.1783
vn 0.9854 -0.1350 0.1035
vn 0.7007 0.1491 0.6977
vn 0.1424 -0.1699 -0.9751
vn -0.9091 0.3171 0.2701
vn -0.4790 0.2183 0.8502
vn 0.9089 -0.1703 0.3806
vn 0.2985 0.0085 0.9544
vn -0.0970 0.0265 -0.9949
vn 0.7005 -0.2247 -0.6773
vn -0.9142 0.3696 -0.1661
vn -0.7552 0.3108 -0.5771
vn 0.1318 -0.0357 0.9906
vn 0.7199 -0.1322 0.6813
vn 0.2778 -0.0517 -0.9592
vn -0.4182 0.1559 0.8949
vn 0.9690 -0.2464 0.0195
vn 0.3614 -0.1162 0.9252
vn -0.3120 0.2100 -0.9266
vn 0.5362 -0.1984 0.8204
vn 0.0805 -0.0426 0.9958
vn 0.5014 -0.1397 -0.8539
vn -0.9107 0.3841 0.1517
vn -0.7870 0.3153 -0.5303
vn 0.4728 -0.2102 0.8557
vn -0.7784 0.2923 0.5555
vn -0.2123 0.1819 -0.9601
vn 0.9547 -0.2973 0.0075
vn -0.1673 0.0578 0.9842
vn -0.7707 0.3622 0.5242
vn 0.1951 -0.0722 -0.9781
vn -0.3212 0.0854 -0.9432
vn 0.7395 -0.2789 -0.6127
vn 0.4929 -0.1466 0.8576
vn -0.3607 0.1904 0.9130
vn -0.5903 0.1577 -0.7916
vn 0.0880 -0.1144 -0.9895
vn 0.1414 0.0470 0.9888
vn 0.9068 -0.2806 0.3146
vn -0.8790 0.3183 -0.3549
vn -0.2250 0.2569 0.9399
vn 0.7293 -0.2153 0.6494
vn -0.7956 0.4265 -0.4303
vn -0.4412 0.1064 -0.8911
vn -0.8447 0.4544 0.2826
vn 0.9240 -0.3552 -0.1414
vn 0.4415 -0.3012 -0.8452
vn 0.2973 0.0240 0.9545
vn 0.8024 -0.4446 0.3980
vn -0.5627 0.4339 -0.7036
vn -0.0742 -0.0019 -0.9972
vn 0.8601 -0.5081 -0.0454
vn -0.7358 0.6742 0.0639
vn -0.2680 0.3594 -0.8938
vn -0.2319 0.0850 0.9690
vn 0.3312 -0.1932 0.9236
vn 0.2889 0.0888 -0.9532
vn -0.4572 0.7947 -0.3993
vn 0.5646 -0.4250 -0.7075
vn 0.7983 -0.5808 -0.1592
vn -0.5802 0.4509 0.6783
vn 0.0714 -0.4037 0.9121
vn 0.6200 -0.7346 0.2756
vn 0.6073 -0.7419 -0.2841
vn -0.4385 0.8985 0.0210
vn 0.0294 0.6128 -0.7897
vn 0.2410 -0.8095 0.5354
vn -0.1330 -0.4396 0.8883
vn 0.5599 -0.3784 -0.7371
vn 0.5144 -0.8451 -0.1459
vn 0.2671 -0.9311 0.2486
vn -0.5294 0.2864 0.7986
vn -0.4486 0.8781 0.1661
vn 0.3634 0.3080 -0.8792
vn 0.0240 0.8530 -0.5213
vn -0.1884 -0.6173 0.7638
vn 0.5114 0.2302 -0.8279
vn 0.6092 -0.4700 -0.6387
vn -0.3919 -0.4082 0.8245
vn -0.5883 0.1642 0.7918
vn 0.3387 -0.9407 0.0198
vn 0.0011 0.9314 -0.3641
vn -0.1384 -0.7634 0.6309
vn -0.1694 -0.8048 0.5689
vn -0.6003 -0.0178 0.7996
vn 0.2767 -0.9554 0.1034
vn 0.1545 -0.9737 0.1672
vn 0.6613 -0.1561 -0.7337
vn -0.5846 -0.1983 0.7867
vn -0.2782 -0.7615 0.5855
vn -0.3660 0.8803 0.3019
vn 0.5509 -0.7426 -0.3807
vn -0.1233 -0.9608 0.2484
vn 0.3183 0.7871 -0.5284
vn 0.6560 -0.4220 -0.6258
vn 0.2512 -0.9677 -0.0221
vn -0.6808 -0.0710 0.7291
vn 0.2081 0.9602 -0.1862
vn 0.2201 -0.9228 -0.3163
vn 0.7403 0.2225 -0.6343
vn 0.0072 -0.9995 0.0296
vn -0.5752 -0.6513 0.4950
vn -0.1501 0.9421 0.2998
vn 0.6417 0.7017 -0.3096
vn -0.2105 -0.9654 -0.1541
vn -0.2205 0.8629 0.4547
vn -0.6916 0.2982 0.6578
vn -0.6623 -0.5433 0.5159
vn 0.8090 0.4266 -0.4045
vn 0.6982 -0.3715 -0.6120
vn 0.4458 0.8934 0.0554
vn 0.1294 -0.8833 -0.4505
vn -0.7754 0.1244 0.6190
vn 0.8466 0.3175 -0.4271
vn -0.6270 -0.7682 0.1293
vn -0.2815 -0.9536 -0.1069
vn 0.6155 -0.4936 -0.6144
vn -0.8234 -0.4289 0.3717
vn 0.4524 0.8758 0.1684
vn -0.1027 -0.9128 -0.3953
vn -0.8431 -0.4212 0.3342
vn 0.8535 -0.0137 -0.5208
vn -0.5404 -0.8371 -0.0845
vn 0.8682 -0.0931 -0.4874
vn 0.3078 -0.7730 -0.5547
vn -0.5126 0.7126 0.4790
vn 0.0167 0.9341 0.3566
vn -0.8493 -0.4068 0.3364
vn 0.5530 0.7628 -0.3352
vn -0.4610 -0.8857 0.0543
vn 0.2835 -0.9154 -0.2856
vn -0.7232 -0.4202 0.5481
vn -0.6001 0.7062 0.3757
vn -0.8473 0.0656 0.5271
vn -0.5121 0.8240 0.2426
vn 0.9218 -0.0975 -0.3752
vn 0.1982 -0.9443 0.2627
vn -0.3679 -0.3014 0.8796
vn -0.4876 0.4933 0.7203
vn 0.4925 0.8607 0.1291
vn -0.5867 0.7431 0.3219
vn 0.2424 0.5204 0.8188
vn 0.4704 -0.4884 0.7350
vn 0.9684 0.2383 -0.0736
s 1
f 1//1 3//2 2//3
f 5//4 4//5 1//1
f 1//1 9//6 5//4
f 8//7 10//8 11//9
f 1//1 8//7 9//6
f 6//10 12//11 4//5
f 12//11 3//2 4//5
f 2//3 8//7 1//1
f 4//5 3//2 1//1
f 8//7 2//3 14//12
f 14//12 10//8 8//7
f 15//13 3//2 13//14
f 13//14 3//2 12//11
f 16//15 2//3 3//2
f 3//2 15//13 16//15
f 16//15 14//12 2//3
f 15//13 17//16 16//15
f 27//17 17//16 15//13
f 10//8 14//12 18//18
f 16//15 17//16 14//12
f 18//18 14//12 17//16
f 20//19 4//5 5//4
f 6//10 4//5 20//19
f 6//10 20//19 7//20
f 21//21 7//20 20//19
f 21//21 20//19 33//22
f 9//6 8//7 22//23
f 22//23 8//7 23//24
f 8//7 11//9 23//24
f 12//11 6//10 7//20
f 24//25 11//9 10//8
f 12//11 7//20 13//14
f 13//14 7//20 25//26
f 21//21 25//26 7//20
f 29//27 25//26 21//21
f 24//25 10//8 18//18
f 25//26 29//27 27//17
f 25//26 27//17 13//14
f 27//17 15//13 13//14
f 24//25 18//18 26//28
f 27//17 29//27 28//29
f 29//27 26//28 28//29
f 28//29 17//16 27//17
f 18//18 17//16 26//28
f 26//28 17//16 28//29
f 30//30 31//31 19//32
f 30//30 5//4 9//6
f 19//32 5//4 30//30
f 5//4 19//32 32//33
f 20//19 5//4 32//33
f 32//33 33//22 20//19
f 21//21 33//22 34//34
f 22//23 23//24 35//35
f 37//36 23//24 36//37
f 39//38 21//21 34//34
f 40//39 21//21 39//38
f 39//38 38//40 40//39
f 36//37 23//24 11//9
f 38//40 36//37 11//9
f 38//40 11//9 24//25
f 38//40 24//25 40//39
f 40//39 29//27 21//21
f 24//25 26//28 40//39
f 40//39 26//28 29//27
f 41//41 32//33 31//31
f 30//30 9//6 42//42
f 19//32 31//31 32//33
f 32//33 41//41 33//22
f 41//41 34//34 33//22
f 42//42 35//35 43//43
f 22//23 42//42 9//6
f 35//35 42//42 22//23
f 34//34 44//44 39//38
f 35//35 37//36 45//45
f 37//36 35//35 23//24
f 36//37 44//44 37//36
f 37//36 44//44 45//45
f 44//44 36//37 39//38
f 39//38 36//37 38//40
f 31//31 46//46 41//41
f 46//46 47//47 41//41
f 34//34 41//41 47//47
f 48//48 49//49 42//42
f 31//31 30//30 49//49
f 42//42 49//49 30//30
f 43//43 45//45 50//50
f 50//50 45//45 51//51
f 43//43 35//35 45//45
f 46//46 52//52 47//47
f 43//43 53//53 42//42
f 44//44 54//54 51//51
f 44//44 34//34 54//54
f 50//50 51//51 55//55
f 45//45 44//44 51//51
f 56//56 46//46 49//49
f 56//56 52//52 46//46
f 49//49 46//46 31//31
f 57//57 51//51 54//54
f 34//34 47//47 54//54
f 53//53 43//43 50//50
f 49//49 48//48 56//56
f 51//51 57//57 58//58
f 53//53 50//50 58//58
f 58//58 55//55 51//51
f 47//47 52//52 59//59
f 60//60 61//61 48//48
f 48//48 61//61 56//56
f 62//62 58//58 57//57
f 56//56 59//59 52//52
f 48//48 42//42 63//63
f 42//42 53//53 63//63
f 64//64 59//59 56//56
f 56//56 61//61 64//64
f 59//59 65//65 47//47
f 66//66 53//53 58//58
f 62//62 66//66 58//58
f 54//54 47//47 65//65
f 63//63 60//60 48//48
f 66//66 63//63 53//53
f 63//63 67//67 60//60
f 54//54 65//65 57//57
f 62//62 57//57 65//65
f 69//68 59//59 68//69
f 59//59 64//64 68//69
f 65//65 59//59 70//70
f 71//71 62//62 65//65
f 66//66 72//72 63//63
f 71//71 66//66 62//62
f 61//61 73//73 68//69
f 73//73 69//68 68//69
f 68//69 64//64 61//61
f 70//70 59//59 69//68
f 73//73 61//61 60//60
f 63//63 72//72 67//67
f 72//72 66//66 71//71
f 74//74 69//68 73//73
f 67//67 72//72 75//75
f 76//76 71//71 65//65
f 76//76 65//65 70//70
f 72//72 71//71 75//75
f 60//60 67//67 77//77
f 77//77 73//73 60//60
f 70//70 69//68 74//74
f 67//67 75//75 78//78
f 76//76 79//79 75//75
f 75//75 71//71 76//76
f 77//77 81//80 80//81
f 73//73 80//81 74//74
f 81//80 77//77 82//82
f 82//82 77//77 67//67
f 77//77 80//81 73//73
f 76//76 70//70 83//83
f 83//83 79//79 76//76
f 80//81 84//84 74//74
f 82//82 67//67 78//78
f 78//78 79//79 85//85
f 79//79 83//83 86//86
f 70//70 74//74 83//83
f 79//79 78//78 75//75
f 80//81 87//87 88//88
f 87//87 80//81 81//80
f 88//88 84//84 80//81
f 89//89 83//83 84//84
f 84//84 83//83 74//74
f 86//86 83//83 89//89
f 87//87 81//80 91//90
f 87//87 90//91 88//88
f 92//92 91//90 78//78
f 82//82 91//90 81//80
f 91//90 82//82 78//78
f 85//85 93//93 78//78
f 93//93 92//92 78//78
f 95//94 90//91 94//95
f 90//91 91//90 94//95
f 95//94 96//96 90//91
f 90//91 87//87 91//90
f 96//96 88//88 90//91
f 96//96 89//89 84//84
f 96//96 84//84 88//88
f 97//97 89//89 96//96
f 89//89 97//97 86//86
f 98//98 91//90 92//92
f 98//98 92//92 99//99
f 100//100 92//92 93//93
f 98//98 94//95 91//90
f 100//100 99//99 92//92
f 96//96 100//100 97//97
f 100//100 96//96 101//101
f 94//95 98//98 102//102
f 103//103 95//94 94//95
f 96//96 95//94 101//101
f 102//102 103//103 94//95
f 104//104 99//99 100//100
f 98//98 99//99 105//105
f 105//105 99//99 104//104
f 101//101 104//104 100//100
f 95//94 108//106 101//101
f 101//101 109//107 110//108
f 101//101 110//108 104//104
f 106//109 102//102 98//98
f 106//109 111//110 102//102
f 105//105 106//109 98//98
f 103//103 107//111 95//94
f 112//112 103//103 102//102
f 112//112 102//102 111//110
f 107//111 103//103 112//112
f 113//113 104//104 110//108
f 113//113 105//105 104//104
f 106//109 105//105 113//113
f 107//111 108//106 95//94
f 107//111 114//114 108//106
f 108//106 114//114 115//115
f 117//116 106//109 113//113
f 116//117 106//109 117//116
f 110//108 109//107 118//118
f 114//114 107//111 112//112
f 112//112 119//119 114//114
f 116//117 111//110 106//109
f 112//112 111//110 119//119
f 120//120 113//113 110//108
f 113//113 120//120 117//116
f 120//120 121//121 117//116
f 122//122 111//110 116//117
f 118//118 123//123 110//108
f 124//124 123//123 118//118
f 114//114 125//125 115//115
f 126//126 116//117 127//127
f 128//128 119//119 111//110
f 127//127 123//123 124//124
f 125//125 129//129 115//115
f 124//124 130//130 127//127
f 116//117 117//116 127//127
f 114//114 119//119 131//131
f 119//119 128//128 131//131
f 111//110 122//122 128//128
f 132//132 133//133 129//129
f 131//131 125//125 114//114
f 125//125 132//132 129//129
f 122//122 134//134 128//128
f 134//134 126//126 127//127
f 135//135 131//131 128//128
f 136//136 133//133 132//132
f 137//137 125//125 131//131
f 132//132 125//125 137//137
f 131//131 135//135 137//137
f 136//136 138//138 133//133
f 139//139 127//127 130//130
f 140//140 135//135 128//128
f 127//127 139//139 134//134
f 137//137 135//135 142//141
f 143//142 138//138 136//136
f 140//140 128//128 144//143
f 134//134 139//139 141//144
f 141//144 139//139 145//145
f 128//128 134//134 141//144
f 128//128 141//144 144//143
f 145//145 138//138 143//142
f 142//141 135//135 140//140
f 136//136 132//132 146//146
f 147//147 143//142 136//136
f 132//132 137//137 146//146
f 148//148 142//141 140//140
f 144//143 148//148 140//140
f 143//142 147//147 149//149
f 137//137 147//147 146//146
f 144//143 141//144 150//150
f 150//150 141//144 145//145
f 151//151 137//137 142//141
f 151//151 142//141 148//148
f 145//145 152//152 150//150
f 145//145 143//142 153//153
f 137//137 154//154 147//147
f 147//147 154//154 149//149
f 152//152 155//155 150//150
f 151//151 154//154 137//137
f 156//156 148//148 144//143
f 152//152 145//145 153//153
f 149//149 154//154 157//157
f 156//156 151//151 148//148
f 153//153 157//157 152//152
f 158//158 144//143 150//150
f 151//151 156//156 159//159
f 155//155 160//160 150//150
f 152//152 157//157 160//160
f 156//156 161//161 159//159
f 151//151 159//159 154//154
f 157//157 154//154 162//162
f 159//159 162//162 154//154
f 144//143 163//163 156//156
f 156//156 163//163 164//164
f 162//162 160//160 157//157
f 156//156 164//164 161//161
f 144//143 158//158 163//163
f 163//163 158//158 165//165
f 165//165 150//150 160//160
f 162//162 159//159 161//161
f 166//166 161//161 164//164
f 162//162 167//167 160//160
f 168//168 167//167 162//162
f 165//165 160//160 167//167
f 163//163 165//165 169//169
f 165//165 167//167 169//169
f 161//161 168//168 162//162
f 164//164 163//163 170//170
f 171//171 163//163 169//169
f 172//172 166//166 164//164
f 172//172 164//164 170//170
f 166//166 173//173 161//161
f 174//174 167//167 168//168
f 168//168 161//161 174//174
f 171//171 169//169 175//175
f 176//176 172//172 170//170
f 175//175 176//176 171//171
f 169//169 167//167 174//174
f 166//166 172//172 177//177
f 177//177 173//173 166//166
f 178//178 177//177 172//172
f 176//176 178//178 172//172
f 179//179 176//176 175//175
f 179//179 178//178 176//176
f 179//179 175//175 180//180
f 181//181 179//179 180//180
f 177//177 181//181 173//173
f 181//181 180//180 174//174
f 177//177 179//179 181//181
f 175//175 169//169 174//174
f 174//174 180//180 175//175
f 161//161 173//173 174//174
f 173//173 181//181 174//174
