# Blender v2.78 (sub 0) OBJ File: 'exporter.blend'
# www.blender.org
o FJ2058.obj_grp1.828
v -0.651809 -0.712932 -0.278325
v -0.651836 -0.712034 -0.276724
v -0.623009 -0.697151 -0.298995
v -0.650635 -0.714909 -0.279694
v -0.629462 -0.697780 -0.293543
v -0.633272 -0.705249 -0.291021
v -0.650038 -0.711823 -0.274332
v -0.627694 -0.696112 -0.292460
v -0.621567 -0.693673 -0.294766
v -0.621801 -0.694798 -0.298800
v -0.619331 -0.698012 -0.299967
v -0.618969 -0.693782 -0.297392
v -0.617289 -0.696053 -0.299019
v -0.618535 -0.693938 -0.294801
v -0.652136 -0.714925 -0.276432
v -0.650856 -0.716539 -0.277537
v -0.647779 -0.716844 -0.278118
v -0.651158 -0.714346 -0.274402
v -0.650176 -0.716126 -0.274740
v -0.630456 -0.700031 -0.286433
v -0.630044 -0.705749 -0.289335
v -0.618090 -0.698751 -0.299260
v -0.645744 -0.713144 -0.274776
v -0.618892 -0.696325 -0.293492
v -0.617166 -0.698355 -0.297697
v -0.617078 -0.697229 -0.295769
v -0.616656 -0.695831 -0.297426
v -0.647902 -0.717055 -0.276009
v -0.648777 -0.715619 -0.273962
v -0.600136 -0.735631 -0.281534
v -0.601907 -0.736622 -0.281375
v -0.602269 -0.733563 -0.280225
v -0.598835 -0.733969 -0.280304
v -0.602419 -0.739533 -0.278813
v -0.604442 -0.737253 -0.277547
v -0.602711 -0.733076 -0.278586
v -0.610187 -0.751633 -0.248101
v -0.601046 -0.732461 -0.278073
v -0.610944 -0.755557 -0.251837
v -0.599229 -0.738100 -0.280333
v -0.608081 -0.755326 -0.254421
v -0.597538 -0.736449 -0.279769
v -0.597570 -0.735196 -0.279259
v -0.598015 -0.734136 -0.277974
v -0.599306 -0.732954 -0.277556
v -0.597903 -0.734074 -0.277919
v -0.607229 -0.757540 -0.248691
v -0.605253 -0.754297 -0.249545
v -0.607095 -0.751868 -0.248312
v -0.611937 -0.753941 -0.249592
v -0.610376 -0.757733 -0.247510
v -0.610980 -0.756696 -0.245332
v -0.610099 -0.754191 -0.245542
v -0.610132 -0.754707 -0.245226
v -0.608966 -0.757962 -0.245739
v -0.607892 -0.757049 -0.245003
v -0.609625 -0.756744 -0.244368
v -0.608716 -0.756057 -0.244291
v -0.562318 -0.775730 -0.264913
v -0.562741 -0.777280 -0.264353
v -0.560060 -0.776661 -0.265262
v -0.561463 -0.792196 -0.248937
v -0.564621 -0.775513 -0.262098
v -0.562871 -0.773332 -0.263017
v -0.564303 -0.774843 -0.259539
v -0.563887 -0.790020 -0.248786
v -0.564570 -0.781165 -0.252977
v -0.560175 -0.773938 -0.264652
v -0.558288 -0.775539 -0.264223
v -0.559531 -0.772835 -0.262582
v -0.562508 -0.772869 -0.260207
v -0.559682 -0.773070 -0.260064
v -0.559519 -0.791116 -0.249735
v -0.557839 -0.775622 -0.260850
v -0.558167 -0.783617 -0.254902
v -0.562511 -0.774691 -0.257190
v -0.559249 -0.792170 -0.239541
v -0.558529 -0.781801 -0.252006
v -0.562696 -0.794106 -0.242159
v -0.561508 -0.792314 -0.240554
v -0.555981 -0.797161 -0.235876
v -0.556487 -0.791893 -0.243188
v -0.556853 -0.794330 -0.245038
v -0.558727 -0.797772 -0.236059
v -0.555098 -0.801516 -0.240668
v -0.556172 -0.801880 -0.240691
v -0.559212 -0.800609 -0.240252
v -0.559144 -0.800446 -0.237986
v -0.557250 -0.801863 -0.238601
v -0.553488 -0.800422 -0.238534
v -0.556724 -0.800554 -0.236474
v -0.555927 -0.799177 -0.235555
v -0.553942 -0.798777 -0.236667
v -0.554555 -0.801778 -0.238096
v -0.487733 -0.795230 -0.282913
v -0.486335 -0.794045 -0.284385
v -0.487402 -0.792196 -0.281749
v -0.485172 -0.791380 -0.283247
v -0.483903 -0.795503 -0.284541
v -0.486750 -0.797443 -0.281799
v -0.488476 -0.794041 -0.280349
v -0.486971 -0.791609 -0.279745
v -0.483421 -0.792437 -0.284322
v -0.484071 -0.807911 -0.268496
v -0.487251 -0.803278 -0.271639
v -0.481956 -0.793244 -0.283263
v -0.482044 -0.803677 -0.273043
v -0.481137 -0.800527 -0.273451
v -0.487753 -0.800108 -0.270835
v -0.486238 -0.799551 -0.268899
v -0.483871 -0.796847 -0.271518
v -0.483450 -0.791150 -0.280559
v -0.481438 -0.799233 -0.271755
v -0.474516 -0.833044 -0.232017
v -0.474064 -0.831082 -0.230818
v -0.472463 -0.829393 -0.230620
v -0.469957 -0.834447 -0.233408
v -0.469250 -0.831038 -0.236321
v -0.468216 -0.830898 -0.232194
v -0.473325 -0.834601 -0.233179
v -0.471824 -0.834822 -0.232852
v -0.471824 -0.834822 -0.232852
v -0.472236 -0.834347 -0.231158
v -0.469949 -0.834426 -0.233357
v -0.469849 -0.833141 -0.230616
v -0.468196 -0.831800 -0.233022
v -0.472876 -0.832038 -0.229921
v -0.470552 -0.830134 -0.230115
v -0.468225 -0.831775 -0.233022
vn -0.4216 -0.0020 -0.9068
vn -0.5438 -0.3959 -0.7400
vn -0.8754 0.2360 -0.4218
vn -0.8403 0.5264 0.1297
vn -0.6750 0.5645 -0.4751
vn -0.3293 0.5371 0.7766
vn -0.4070 0.9100 0.0792
vn 0.0600 -0.1884 -0.9803
vn -0.1078 -0.7187 -0.6869
vn -0.2703 0.6589 -0.7020
vn 0.6508 0.3018 -0.6967
vn 0.2536 0.9154 -0.3126
vn -0.1687 0.9647 0.2021
vn 0.5098 0.7253 0.4626
vn -0.9430 -0.3042 0.1347
vn -0.5869 -0.7790 -0.2209
vn 0.1643 -0.9241 -0.3450
vn -0.4060 -0.7037 0.5831
vn -0.6243 -0.0755 0.7775
vn 0.4911 -0.6071 -0.6247
vn 0.4195 -0.8802 -0.2218
vn 0.5007 -0.0642 0.8633
vn 0.6413 0.0960 0.7613
vn 0.1108 0.6528 0.7494
vn 0.8194 -0.5665 -0.0874
vn 0.8778 -0.2193 0.4260
vn 0.9539 0.2906 -0.0745
vn 0.2473 -0.9123 0.3264
vn 0.1401 -0.4142 0.8993
vn 0.1863 0.0801 -0.9792
vn -0.4854 0.5939 -0.6416
vn 0.5032 0.6160 -0.6061
vn -0.3879 -0.2032 -0.8990
vn -0.3361 -0.6974 -0.6330
vn -0.9306 -0.0405 -0.3639
vn -0.6957 0.7159 -0.0596
vn -0.0328 0.9980 0.0539
vn -0.7272 -0.5818 -0.3642
vn 0.4236 -0.6440 -0.6370
vn 0.9018 -0.1794 -0.3931
vn -0.0165 -0.8667 -0.4985
vn -0.4588 0.6983 0.5494
vn 0.7016 0.6814 -0.2083
vn 0.9646 0.2178 -0.1484
vn 0.4356 0.8783 0.1972
vn 0.4696 -0.8753 -0.1152
vn 0.8427 0.2712 0.4652
vn 0.9493 -0.1607 0.2701
vn 0.4240 0.6468 0.6340
vn -0.9933 0.0811 0.0821
vn -0.4862 -0.8696 -0.0863
vn -0.8108 -0.3020 0.5014
vn -0.8522 0.3516 0.3875
vn -0.4302 0.5435 0.7208
vn 0.0523 -0.9507 0.3057
vn 0.6558 -0.3869 0.6482
vn -0.2539 -0.3395 0.9057
vn 0.3112 0.1528 0.9380
vn 0.2822 -0.3258 -0.9023
vn -0.5443 -0.4210 -0.7256
vn -0.4659 0.1455 -0.8728
vn -0.2807 -0.6936 -0.6635
vn -0.9444 0.1093 -0.3102
vn -0.5269 0.7495 -0.4007
vn -0.8511 0.4887 0.1921
vn -0.9226 -0.3437 -0.1750
vn -0.8809 0.3063 0.3610
vn 0.1717 0.6125 -0.7716
vn 0.7988 0.0911 -0.5947
vn 0.4295 0.8813 -0.1970
vn -0.3123 0.9246 0.2183
vn 0.4612 0.8128 0.3558
vn 0.3151 -0.6610 -0.6811
vn 0.9511 -0.1807 -0.2505
vn 0.9691 0.2381 0.0651
vn -0.2554 0.7341 0.6292
vn -0.0525 0.6476 0.7602
vn 0.8638 0.3958 0.3116
vn -0.9579 -0.2035 0.2025
vn -0.6412 0.3755 0.6692
vn 0.3131 0.4521 0.8352
vn 0.9771 0.2128 -0.0066
vn 0.9011 -0.0513 -0.4306
vn -0.5216 0.0140 0.8531
vn 0.5959 -0.6343 -0.4925
vn -0.6707 -0.7101 -0.2145
vn -0.6991 -0.5921 0.4007
vn -0.0111 -0.9086 -0.4175
vn -0.2740 -0.9338 0.2302
vn 0.9686 -0.2484 0.0071
vn -0.1777 -0.6543 0.7351
vn 0.1424 -0.2690 0.9525
vn 0.8384 0.0802 0.5391
vn 0.4805 -0.8140 0.3264
vn -0.4995 0.0363 -0.8656
vn -0.7514 0.5758 -0.3224
vn -0.1401 0.8888 -0.4364
vn 0.2825 -0.4304 -0.8573
vn -0.7950 -0.2173 -0.5664
vn -0.4656 -0.6776 -0.5693
vn -0.9882 0.1520 -0.0210
vn -0.4868 0.8279 0.2785
vn 0.3587 0.5019 -0.7870
vn -0.8948 -0.4229 -0.1430
vn 0.6336 -0.5426 -0.5515
vn 0.8765 0.2431 -0.4155
vn 0.9823 -0.0216 -0.1859
vn -0.9397 0.1867 0.2866
vn -0.5079 0.6102 0.6081
vn 0.2490 0.7695 0.5881
vn 0.4285 0.8828 0.1924
vn 0.8676 0.4641 0.1785
vn -0.2721 -0.7941 -0.5435
vn -0.8226 -0.4409 0.3591
vn -0.7268 0.1185 0.6765
vn -0.2448 0.5782 0.7783
vn 0.5844 -0.6509 -0.4845
vn 0.8125 -0.3542 -0.4630
vn 0.9105 0.2069 0.3581
vn -0.4453 -0.8794 -0.1683
vn 0.3578 0.3744 0.8555
vn 0.0066 -0.8271 -0.5621
vn 0.1151 -0.9499 0.2905
vn -0.1154 -0.8047 0.5824
vn 0.7980 -0.6002 0.0547
vn 0.5332 -0.4535 0.7142
vn -0.3001 -0.1774 0.9373
vn 0.7635 0.4185 -0.4919
vn 0.9459 -0.3015 -0.1202
s 1
f 3//1 4//2 1//3
f 1//3 2//4 5//5
f 2//4 7//6 8//7
f 8//7 5//5 2//4
f 11//8 6//9 3//1
f 3//1 1//3 5//5
f 3//1 5//5 10//10
f 5//5 8//7 10//10
f 10//10 11//8 3//1
f 11//8 10//10 13//11
f 13//11 10//10 12//12
f 12//12 10//10 9//13
f 10//10 8//7 9//13
f 12//12 9//13 14//14
f 15//15 4//2 16//16
f 4//2 6//9 17//17
f 4//2 17//17 16//16
f 4//2 15//15 1//3
f 16//16 19//18 15//15
f 15//15 19//18 18//19
f 15//15 2//4 1//3
f 18//19 7//6 2//4
f 18//19 2//4 15//15
f 4//2 3//1 6//9
f 6//9 22//20 21//21
f 23//22 24//23 20//24
f 22//20 6//9 11//8
f 8//7 7//6 20//24
f 20//24 9//13 8//7
f 13//11 22//20 11//8
f 25//25 21//21 22//20
f 26//26 21//21 25//25
f 9//13 20//24 14//14
f 20//24 24//23 14//14
f 14//14 27//27 12//12
f 13//11 12//12 27//27
f 22//20 13//11 25//25
f 27//27 25//25 13//11
f 27//27 14//14 26//26
f 14//14 24//23 26//26
f 27//27 26//26 25//25
f 17//17 28//28 16//16
f 17//17 21//21 28//28
f 19//18 16//16 28//28
f 28//28 29//29 19//18
f 6//9 21//21 17//17
f 21//21 26//26 28//28
f 29//29 7//6 18//19
f 29//29 18//19 19//18
f 29//29 23//22 7//6
f 28//28 23//22 29//29
f 28//28 26//26 23//22
f 23//22 20//24 7//6
f 23//22 26//26 24//23
f 30//30 32//31 33//32
f 31//33 34//34 35//35
f 31//33 35//35 32//31
f 35//35 36//36 32//31
f 31//33 32//31 30//30
f 33//32 32//31 38//37
f 38//37 32//31 36//36
f 34//34 39//38 35//35
f 40//39 31//33 30//30
f 40//39 34//34 31//33
f 30//30 42//40 40//39
f 30//30 33//32 42//40
f 41//41 34//34 40//39
f 37//42 38//37 36//36
f 44//43 43//44 33//32
f 43//44 42//40 33//32
f 33//32 38//37 45//45
f 33//32 45//45 44//43
f 47//46 40//39 42//40
f 43//44 46//47 48//48
f 42//40 43//44 48//48
f 41//41 40//39 47//46
f 49//49 48//48 46//47
f 45//45 49//49 46//47
f 45//45 38//37 37//42
f 39//38 34//34 41//41
f 39//38 50//50 35//35
f 51//51 50//50 39//38
f 36//36 35//35 50//50
f 50//50 37//42 36//36
f 48//48 47//46 42//40
f 49//49 45//45 37//42
f 41//41 51//51 39//38
f 41//41 47//46 51//51
f 52//52 50//50 51//51
f 50//50 52//52 37//42
f 53//53 37//42 52//52
f 54//54 53//53 52//52
f 54//54 49//49 37//42
f 51//51 47//46 55//55
f 56//56 55//55 47//46
f 52//52 57//57 54//54
f 57//57 58//58 54//54
f 55//55 52//52 51//51
f 52//52 55//55 57//57
f 57//57 55//55 56//56
f 57//57 56//56 58//58
f 47//46 48//48 56//56
f 48//48 58//58 56//56
f 54//54 58//58 49//49
f 48//48 49//49 58//58
f 61//59 60//60 59//61
f 62//62 60//60 61//59
f 63//63 64//64 59//61
f 59//61 60//60 63//63
f 63//63 65//65 64//64
f 66//66 67//67 63//63
f 67//67 65//65 63//63
f 59//61 64//64 68//68
f 59//61 68//68 61//59
f 68//68 69//69 61//59
f 69//69 68//68 70//70
f 70//70 68//68 64//64
f 70//70 64//64 71//71
f 71//71 72//72 70//70
f 64//64 65//65 71//71
f 69//69 73//73 61//59
f 75//74 69//69 74//75
f 74//75 69//69 70//70
f 70//70 72//72 74//75
f 76//76 71//71 65//65
f 71//71 76//76 72//72
f 62//62 61//59 73//73
f 60//60 66//66 63//63
f 66//66 60//60 62//62
f 76//76 65//65 67//67
f 77//77 72//72 76//76
f 72//72 78//78 74//75
f 78//78 75//74 74//75
f 77//77 78//78 72//72
f 79//79 80//80 67//67
f 75//74 73//73 69//69
f 80//80 76//76 67//67
f 77//77 81//81 78//78
f 82//82 78//78 81//81
f 67//67 66//66 79//79
f 82//82 75//74 78//78
f 73//73 75//74 83//83
f 77//77 80//80 84//84
f 83//83 85//85 73//73
f 83//83 75//74 82//82
f 80//80 77//77 76//76
f 66//66 62//62 87//86
f 87//86 79//79 66//66
f 79//79 87//86 88//87
f 86//88 73//73 85//85
f 86//88 62//62 73//73
f 80//80 79//79 84//84
f 81//81 77//77 84//84
f 62//62 86//88 87//86
f 86//88 89//89 87//86
f 79//79 88//87 84//84
f 87//86 89//89 88//87
f 90//90 83//83 82//82
f 90//90 85//85 83//83
f 88//87 91//91 84//84
f 84//84 91//91 92//92
f 84//84 92//92 81//81
f 93//93 82//82 81//81
f 85//85 94//94 86//88
f 94//94 89//89 86//88
f 88//87 89//89 91//91
f 91//91 89//89 94//94
f 94//94 85//85 90//90
f 90//90 82//82 93//93
f 90//90 93//93 94//94
f 81//81 92//92 93//93
f 94//94 92//92 91//91
f 92//92 94//94 93//93
f 96//95 97//96 98//97
f 96//95 99//98 95//99
f 99//98 100//100 95//99
f 97//96 96//95 95//99
f 101//101 97//96 95//99
f 101//101 102//102 97//96
f 96//95 98//97 103//103
f 103//103 99//98 96//95
f 102//102 98//97 97//96
f 105//104 95//99 100//100
f 107//105 99//98 106//106
f 107//105 106//106 108//107
f 101//101 95//99 105//104
f 105//104 109//108 101//101
f 109//108 102//102 101//101
f 110//109 102//102 109//108
f 102//102 110//109 111//110
f 99//98 103//103 106//106
f 103//103 98//97 112//111
f 103//103 112//111 106//106
f 112//111 113//112 106//106
f 102//102 112//111 98//97
f 112//111 102//102 111//110
f 105//104 100//100 104//113
f 107//105 104//113 99//98
f 106//106 113//112 108//107
f 111//110 113//112 112//111
f 100//100 99//98 104//113
f 105//104 114//114 109//108
f 109//108 114//114 115//115
f 116//116 111//110 110//109
f 104//113 107//105 117//117
f 110//109 109//108 115//115
f 115//115 116//116 110//109
f 107//105 118//118 117//117
f 119//119 108//107 113//112
f 104//113 120//120 105//104
f 120//120 114//114 105//104
f 107//105 108//107 118//118
f 108//107 119//119 118//118
f 111//110 116//116 128//121
f 120//120 117//117 121//122
f 122//123 123//124 120//120
f 124//125 117//117 118//118
f 117//117 120//120 104//113
f 124//125 123//124 122//123
f 123//124 124//125 125//126
f 127//127 115//115 114//114
f 127//127 116//116 115//115
f 114//114 120//120 123//124
f 114//114 123//124 127//127
f 127//127 123//124 125//126
f 111//110 128//121 119//119
f 113//112 111//110 119//119
f 118//118 119//119 129//128
f 129//128 119//119 126//129
f 118//118 126//129 124//125
f 125//126 126//129 119//119
f 125//126 119//119 128//121
f 128//121 116//116 127//127
f 128//121 127//127 125//126
f 125//126 124//125 126//129
