# Blender v2.78 (sub 0) OBJ File: 'exporter.blend'
# www.blender.org
o FJ2011.obj_grp1.810
v -0.286258 -0.562738 4.337261
v -0.284745 -0.574127 4.346432
v -0.284395 -0.571858 4.354656
v -0.284507 -0.575332 4.347628
v -0.282128 -0.562607 4.327397
v -0.275048 -0.576196 4.352821
v -0.273964 -0.561502 4.331676
v -0.283312 -0.564036 4.346640
v -0.282736 -0.575906 4.355353
v -0.279928 -0.573280 4.367921
v -0.280127 -0.573506 4.370563
v -0.272377 -0.576538 4.380255
v -0.280256 -0.556979 4.338843
v -0.276102 -0.565909 4.350485
v -0.275100 -0.555764 4.334824
v -0.277503 -0.563290 4.346392
v -0.250214 -0.571523 4.402719
v -0.266297 -0.533366 4.297857
v -0.265805 -0.539697 4.305484
v -0.280076 -0.541231 4.317783
v -0.270885 -0.533366 4.315917
v -0.264314 -0.580331 4.382663
v -0.273583 -0.568693 4.346683
v -0.273583 -0.568693 4.346683
v -0.270585 -0.571675 4.357926
v -0.270585 -0.571675 4.357926
v -0.263317 -0.571914 4.372978
v -0.259284 -0.576689 4.379246
v -0.261773 -0.576031 4.375860
v -0.273583 -0.568693 4.346683
v -0.268356 -0.567698 4.369696
v -0.258402 -0.568722 4.387578
v -0.243597 -0.573301 4.396969
v -0.243984 -0.573668 4.397192
v -0.263929 -0.538477 4.310534
v -0.261114 -0.531689 4.309112
v -0.261858 -0.525331 4.299600
v -0.249285 -0.583918 4.402619
v -0.264291 -0.580355 4.382686
v -0.244470 -0.583094 4.397908
v -0.248943 -0.582629 4.402267
v -0.244684 -0.583513 4.396694
v -0.247876 -0.570740 4.399802
v -0.250449 -0.578885 4.406154
v -0.255235 -0.536219 4.287966
v -0.243749 -0.541313 4.284371
v -0.242239 -0.536366 4.290436
v -0.248272 -0.531266 4.281373
v -0.246776 -0.531169 4.293811
v -0.242351 -0.584316 4.397292
v -0.241661 -0.579599 4.395729
v -0.249285 -0.581665 4.404263
v -0.244586 -0.583073 4.398394
v -0.243008 -0.578768 4.395564
v -0.249909 -0.584361 4.404679
v -0.250693 -0.580256 4.405910
v -0.247876 -0.570740 4.399802
v -0.250634 -0.574590 4.405442
v -0.243596 -0.573214 4.396986
v -0.250693 -0.580256 4.405910
v -0.250106 -0.571806 4.402619
v -0.247876 -0.570740 4.399802
v -0.224716 -0.544930 4.268999
v -0.226513 -0.534965 4.275180
v -0.246532 -0.531259 4.293577
v -0.230067 -0.538003 4.271824
v -0.222253 -0.551183 4.273355
v -0.232384 -0.545892 4.280089
v -0.232384 -0.545892 4.280089
v -0.229567 -0.538005 4.283160
v -0.229567 -0.538005 4.283160
v -0.215480 -0.550586 4.280169
v -0.215480 -0.550586 4.280169
v -0.229567 -0.538005 4.283160
v -0.232384 -0.545892 4.280089
v -0.215394 -0.544892 4.280259
v -0.215394 -0.544892 4.280259
v -0.193045 -0.563349 4.274213
v -0.191483 -0.555471 4.273699
v -0.195069 -0.557787 4.284224
v -0.192854 -0.565623 4.284080
v -0.200643 -0.559994 4.281258
v -0.196503 -0.552586 4.281451
v -0.196503 -0.552586 4.281451
v -0.192739 -0.562674 4.274847
v -0.178784 -0.570600 4.296988
v -0.184382 -0.559991 4.288672
v -0.175777 -0.561986 4.289059
v -0.147712 -0.589272 4.329948
v -0.183813 -0.567633 4.279218
v -0.162088 -0.572321 4.298794
v -0.151681 -0.583976 4.328015
v -0.111106 -0.595142 4.367861
v -0.109503 -0.595387 4.369977
v -0.094031 -0.602466 4.380881
v -0.098460 -0.613709 4.377376
v -0.116418 -0.604240 4.369712
v -0.133496 -0.586204 4.330111
v -0.132603 -0.586482 4.330935
v -0.093296 -0.604241 4.394098
v -0.091271 -0.610033 4.379460
v -0.082012 -0.626395 4.418172
v -0.044050 -0.631275 4.478461
v -0.038932 -0.652082 4.487937
v -0.082012 -0.626395 4.418172
v -0.035414 -0.647690 4.480667
v -0.052766 -0.641319 4.481262
v -0.047902 -0.648469 4.480201
v -0.036503 -0.637929 4.472217
v -0.044727 -0.636248 4.495939
v -0.037548 -0.702323 4.651315
v -0.047150 -0.704788 4.696012
v -0.033771 -0.711311 4.693516
v -0.041746 -0.698590 4.749225
v -0.043466 -0.662577 4.549419
v -0.044736 -0.689843 4.669917
v -0.044904 -0.691172 4.688164
v -0.049516 -0.686297 4.726745
v -0.044685 -0.689825 4.669628
v -0.045951 -0.651221 4.534136
v -0.038114 -0.685530 4.675384
v -0.039295 -0.668024 4.785975
v -0.039168 -0.678219 4.788524
v -0.030878 -0.685054 4.790153
v -0.032969 -0.666661 4.551415
v -0.042588 -0.654530 4.501905
v -0.040497 -0.658169 4.589614
v -0.033878 -0.668152 4.766027
v -0.043077 -0.654875 4.501571
v -0.024482 -0.704370 4.675513
v -0.028385 -0.700545 4.730368
v -0.021939 -0.689055 4.777688
v -0.033816 -0.682670 4.600718
v -0.027336 -0.668200 4.569112
v -0.027420 -0.689304 4.689112
v -0.038183 -0.685454 4.675696
v -0.032327 -0.665171 4.614138
v -0.036184 -0.686808 4.693377
v -0.025738 -0.689364 4.711239
v -0.024450 -0.672942 4.759689
v -0.032969 -0.666661 4.551415
v -0.021007 -0.637462 4.835583
v -0.032481 -0.654577 4.580954
v -0.022628 -0.676537 4.620760
v -0.032408 -0.664375 4.612760
v -0.037827 -0.667342 4.774386
v -0.036009 -0.660001 4.785776
v -0.025645 -0.653951 4.784874
v -0.028392 -0.644868 4.506127
v -0.030996 -0.626369 4.821141
v -0.021739 -0.613701 4.853195
v -0.020135 -0.615331 4.817474
v -0.017733 -0.675909 4.769883
v -0.014058 -0.665428 4.808486
v -0.012018 -0.671360 4.790801
v -0.010239 -0.634658 4.838489
v -0.012585 -0.618050 4.865499
v -0.011165 -0.593481 4.854771
v -0.003782 -0.634822 4.822805
v -0.003627 -0.617307 4.821917
v -0.009850 -0.633892 4.839642
v 0.002515 -0.620090 4.863396
v 0.003341 -0.593694 4.854717
v -0.001428 -0.595669 4.923840
v 0.002147 -0.583415 4.909811
v 0.010964 -0.609490 4.852836
v 0.004070 -0.612558 4.909598
v 0.013889 -0.568351 4.949028
v 0.013762 -0.583801 4.900860
v 0.012178 -0.560171 4.939425
v 0.025527 -0.604962 4.919488
v 0.015335 -0.603674 4.931140
v 0.028186 -0.590874 4.912907
v 0.017901 -0.577614 4.950144
v 0.013789 -0.584123 4.901615
v 0.026711 -0.558504 4.925647
v 0.038670 -0.577648 4.940729
v 0.028658 -0.578848 4.916399
v 0.031216 -0.577681 4.949780
v 0.033304 -0.567024 4.948225
v 0.027090 -0.555866 4.933658
v 0.029756 -0.558986 4.944650
v 0.040349 -0.568033 4.932062
vn -0.9954 0.0881 -0.0378
vn -0.9002 -0.3791 -0.2143
vn -0.9680 0.0256 0.2498
vn -0.4258 -0.6261 -0.6532
vn 0.0639 -0.9159 -0.3964
vn 0.4674 -0.7800 -0.4161
vn 0.8490 -0.4725 -0.2366
vn -0.5645 0.6759 0.4739
vn -0.6396 -0.7638 0.0872
vn -0.7977 -0.5319 0.2842
vn -0.5139 0.7611 0.3958
vn -0.7846 -0.4264 0.4501
vn 0.5015 0.8635 0.0532
vn 0.7304 0.4009 0.5529
vn 0.7471 0.3484 0.5660
vn 0.6526 0.6485 0.3918
vn -0.5123 0.6998 0.4978
vn -0.9252 0.3704 -0.0822
vn -0.7571 -0.0858 -0.6477
vn 0.2660 -0.9039 -0.3349
vn -0.1514 0.8505 0.5036
vn -0.1920 -0.9814 0.0007
vn 0.9233 -0.3178 -0.2157
vn 0.8082 -0.4128 -0.4201
vn 0.8713 0.3725 -0.3197
vn 0.7729 0.6180 0.1439
vn 0.8332 0.1396 -0.5350
vn 0.5614 -0.5851 -0.5852
vn 0.8192 -0.1148 -0.5619
vn 0.9848 0.1653 0.0541
vn 0.5447 0.8064 -0.2303
vn -0.3659 0.9021 0.2289
vn 0.7725 -0.0047 -0.6350
vn 0.4293 0.8648 -0.2603
vn 0.8425 -0.5021 0.1954
vn 0.5888 0.4123 0.6953
vn -0.1555 0.9866 -0.0499
vn 0.0594 -0.9896 -0.1311
vn -0.0020 -0.9846 -0.1747
vn -0.0008 -0.9888 -0.1494
vn -0.5944 -0.6700 0.4447
vn 0.6943 -0.1699 -0.6994
vn -0.0606 0.9751 0.2132
vn -0.7355 -0.2033 0.6463
vn -0.6028 -0.4471 -0.6608
vn -0.1117 -0.9558 0.2722
vn 0.6067 -0.3059 0.7337
vn -0.3764 0.5198 -0.7669
vn 0.6534 0.4841 0.5820
vn 0.8063 0.0705 0.5874
vn 0.7678 -0.0762 0.6362
vn 0.7847 0.0128 0.6197
vn 0.7496 -0.1406 0.6468
vn 0.7305 -0.0643 0.6799
vn 0.4635 0.8473 -0.2592
vn 0.7601 0.1470 0.6330
vn 0.7726 0.0746 0.6306
vn 0.7573 0.0597 0.6504
vn 0.6283 0.4596 0.6277
vn 0.5535 0.5444 0.6302
vn -0.1353 -0.0547 -0.9893
vn 0.1725 0.7164 -0.6761
vn 0.6983 0.1157 0.7064
vn 0.4337 0.7037 0.5627
vn -0.4186 -0.8544 -0.3080
vn -0.1632 0.4296 -0.8881
vn -0.1775 -0.8710 0.4582
vn 0.1956 -0.6170 0.7623
vn 0.4355 0.7641 0.4759
vn 0.3992 -0.4529 0.7972
vn -0.4071 -0.7738 0.4852
vn -0.0950 -0.1554 0.9833
vn 0.0491 -0.1786 0.9827
vn -0.0963 -0.3310 0.9387
vn 0.2829 0.5719 0.7700
vn -0.0026 -0.0153 0.9999
vn -0.0841 -0.6475 -0.7574
vn 0.5075 0.4704 -0.7219
vn -0.2561 0.1690 0.9518
vn -0.3507 -0.9078 -0.2299
vn -0.4795 -0.6940 0.5371
vn 0.1068 0.5539 0.8257
vn 0.4424 0.8938 0.0738
vn 0.3069 0.0378 -0.9510
vn -0.5724 -0.1468 0.8067
vn -0.6693 0.1139 0.7342
vn -0.1060 0.7234 0.6823
vn 0.5620 0.8119 -0.1578
vn -0.6252 -0.7751 0.0917
vn 0.3270 -0.6147 -0.7178
vn 0.7579 -0.0009 -0.6523
vn -0.6901 -0.0338 0.7229
vn 0.6287 0.7526 -0.1957
vn -0.3395 0.7484 0.5698
vn -0.7145 0.2249 0.6624
vn 0.5377 -0.4847 -0.6899
vn 0.7324 0.0450 -0.6794
vn -0.2204 0.8728 0.4355
vn 0.6609 0.7290 -0.1782
vn 0.1033 -0.8880 -0.4481
vn 0.7982 -0.1811 -0.5745
vn -0.3279 -0.9341 -0.1413
vn 0.0958 0.9588 0.2675
vn 0.2466 -0.9261 -0.2855
vn 0.7088 -0.5971 -0.3757
vn -0.6194 -0.7783 0.1028
vn -0.9470 -0.0001 0.3212
vn -0.1508 -0.9564 -0.2499
vn -0.8287 -0.5482 0.1126
vn 0.8930 0.2321 -0.3855
vn -0.5446 0.7948 0.2678
vn -0.8597 -0.5101 0.0262
vn -0.2086 -0.9215 -0.3277
vn 0.1443 -0.9895 0.0081
vn -0.5562 -0.7782 0.2915
vn -0.6627 -0.7147 -0.2235
vn -0.9883 -0.0684 -0.1363
vn -0.7993 0.5991 -0.0472
vn -0.9425 0.3269 -0.0698
vn -0.8461 0.5165 0.1320
vn -0.9986 0.0256 0.0461
vn -0.2750 0.9418 0.1934
vn -0.8547 -0.3233 0.4062
vn -0.9706 0.2261 0.0825
vn -0.1754 -0.7999 0.5740
vn -0.2488 -0.9383 -0.2401
vn -0.2151 -0.9564 -0.1974
vn -0.5220 0.8179 0.2419
vn -0.0873 0.9028 -0.4210
vn -0.8491 -0.5279 -0.0182
vn 0.8453 -0.5228 -0.1105
vn 0.6927 -0.7166 0.0817
vn 0.5074 -0.8258 0.2464
vn 0.2373 -0.9119 -0.3348
vn 0.7877 -0.5715 -0.2302
vn 0.6737 0.7355 0.0719
vn 0.4523 0.8843 -0.1164
vn 0.2799 0.9157 0.2883
vn 0.0199 0.9960 -0.0873
vn 0.9341 0.3482 -0.0793
vn 0.4710 0.8120 -0.3447
vn 0.4756 -0.8440 -0.2481
vn -0.3226 -0.6398 0.6976
vn 0.3719 0.8830 0.2862
vn 0.9682 0.2419 0.0645
vn 0.6626 0.7062 0.2497
vn -0.8256 0.5575 -0.0865
vn -0.7377 0.5681 -0.3648
vn -0.0497 0.7319 -0.6795
vn -0.9355 0.3473 -0.0643
vn -0.9460 0.0037 0.3242
vn 0.9608 0.2766 -0.0186
vn -0.2772 0.7745 -0.5686
vn 0.9031 0.2815 -0.3244
vn 0.5424 -0.6463 0.5368
vn 0.9518 -0.3047 -0.0344
vn 0.3747 -0.7861 0.4915
vn -0.4930 0.8475 -0.1969
vn 0.9423 -0.3348 -0.0009
vn 0.6720 0.4545 -0.5846
vn 0.1057 -0.8508 0.5148
vn -0.5099 -0.7384 0.4413
vn 0.4351 -0.8790 0.1948
vn 0.4558 0.7885 -0.4129
vn -0.8662 -0.1504 0.4765
vn -0.6729 0.7279 -0.1319
vn 0.9617 -0.0479 -0.2699
vn -0.2609 -0.8906 0.3727
vn 0.3821 0.9040 -0.1918
vn -0.6228 0.7601 0.1854
vn -0.5381 0.2343 0.8096
vn 0.7169 -0.6851 0.1294
vn -0.0387 -0.7573 0.6519
vn 0.9312 -0.0107 -0.3643
vn -0.2746 -0.2439 0.9301
vn 0.1102 0.9732 -0.2016
vn 0.1760 0.8137 -0.5540
vn 0.3963 -0.2927 0.8702
vn 0.9096 -0.2822 0.3050
vn 0.6448 0.3356 -0.6868
vn 0.5620 0.2854 0.7763
vn 0.3556 0.7639 0.5386
vn 0.1499 0.9864 -0.0677
vn 0.9338 0.3133 -0.1729
s 1
f 1//1 2//2 3//3
f 2//2 5//4 4//5
f 5//4 6//6 4//5
f 5//4 7//7 6//6
f 8//8 1//1 3//3
f 9//9 3//3 2//2
f 3//3 9//9 10//10
f 11//11 8//8 3//3
f 9//9 12//12 10//10
f 1//1 5//4 2//2
f 14//13 13//14 8//8
f 15//15 13//14 16//16
f 11//11 17//17 8//8
f 20//18 18//19 5//4
f 19//20 5//4 18//19
f 1//1 20//18 5//4
f 1//1 8//8 20//18
f 8//8 21//21 20//18
f 13//14 21//21 8//8
f 4//5 6//6 22//22
f 6//6 7//7 23//23
f 4//5 22//22 9//9
f 6//6 23//23 25//24
f 14//13 26//25 24//26
f 26//25 14//13 27//27
f 6//6 25//24 27//27
f 22//22 12//12 9//9
f 22//22 6//6 28//28
f 27//27 29//29 6//6
f 7//7 15//15 30//30
f 16//16 24//26 15//15
f 14//13 24//26 16//16
f 14//13 8//8 31//31
f 8//8 17//17 31//31
f 17//17 32//32 31//31
f 31//31 27//27 14//13
f 27//27 31//31 33//33
f 31//31 32//32 34//34
f 5//4 19//20 7//7
f 19//20 35//35 7//7
f 35//35 15//15 7//7
f 13//14 15//15 21//21
f 36//36 21//21 15//15
f 15//15 35//35 36//36
f 18//19 20//18 37//37
f 37//37 20//18 21//21
f 38//38 39//39 40//40
f 41//41 12//12 22//22
f 29//29 27//27 28//28
f 22//22 28//28 42//42
f 32//32 17//17 43//43
f 12//12 44//44 11//11
f 18//19 45//45 19//20
f 19//20 45//45 46//46
f 46//46 47//47 19//20
f 19//20 47//47 35//35
f 48//48 45//45 18//19
f 37//37 48//48 18//19
f 21//21 36//36 37//37
f 36//36 49//49 37//37
f 36//36 35//35 49//49
f 52//50 53//51 54//52
f 41//41 44//44 12//12
f 55//53 52//50 56//54
f 53//51 52//50 55//53
f 32//32 57//55 34//34
f 27//27 42//42 28//28
f 33//33 42//42 27//27
f 58//56 52//50 54//52
f 54//52 59//57 58//56
f 11//11 44//44 17//17
f 58//56 60//58 52//50
f 58//56 62//59 61//60
f 58//56 59//57 62//59
f 45//45 48//48 63//61
f 48//48 37//37 64//62
f 49//49 35//35 65//63
f 35//35 47//47 65//63
f 64//62 37//37 49//49
f 47//47 64//64 65//63
f 45//45 67//65 46//46
f 45//45 63//61 67//65
f 66//66 63//61 48//48
f 46//46 67//65 68//67
f 46//46 69//68 47//47
f 70//69 64//64 47//47
f 47//47 69//68 71//70
f 64//62 66//66 48//48
f 67//65 72//71 68//67
f 73//72 74//73 75//74
f 76//75 64//64 70//69
f 73//72 77//76 74//73
f 78//77 67//65 63//61
f 63//61 66//66 79//78
f 80//79 77//76 73//72
f 67//65 78//77 81//80
f 67//65 82//81 72//71
f 64//62 79//78 66//66
f 76//75 83//82 64//64
f 76//75 80//79 83//82
f 84//83 79//78 64//62
f 79//78 85//84 63//61
f 85//84 78//77 63//61
f 81//85 80//79 73//72
f 81//85 86//86 80//79
f 80//79 87//87 83//82
f 87//87 88//88 84//83
f 84//83 88//88 79//78
f 81//80 78//77 89//89
f 79//78 90//90 85//84
f 91//91 90//90 79//78
f 91//91 79//78 88//88
f 86//86 87//87 80//79
f 90//90 89//89 78//77
f 89//89 92//92 81//80
f 86//86 92//92 87//87
f 88//88 87//87 93//93
f 87//87 94//94 93//93
f 87//87 92//92 94//94
f 92//92 89//89 97//95
f 90//90 91//91 98//96
f 91//91 88//88 99//97
f 92//92 100//98 94//94
f 88//88 93//93 95//99
f 92//92 97//95 100//98
f 90//90 96//100 89//89
f 90//90 98//96 101//101
f 101//101 96//100 90//90
f 99//97 88//88 95//99
f 89//89 96//100 102//102
f 99//97 101//101 98//96
f 97//95 103//103 100//98
f 101//101 99//97 95//99
f 102//102 96//100 104//104
f 93//93 100//98 95//99
f 96//100 106//105 104//104
f 106//105 96//100 101//101
f 105//106 107//107 97//95
f 102//102 104//104 108//108
f 108//109 107//107 105//106
f 107//107 103//103 97//95
f 109//110 106//105 101//101
f 103//103 107//107 110//111
f 95//99 100//98 103//103
f 112//112 111//113 113//114
f 114//115 112//112 113//114
f 115//116 111//113 112//112
f 116//117 112//112 117//118
f 112//112 118//119 117//118
f 112//112 119//120 120//121
f 112//112 116//117 119//120
f 119//120 117//118 121//122
f 112//112 114//115 118//119
f 114//115 123//123 118//119
f 118//119 123//123 122//124
f 114//115 124//125 123//123
f 125//126 115//116 126//127
f 120//121 115//116 112//112
f 119//120 121//122 127//128
f 117//118 118//119 128//129
f 119//120 127//128 120//121
f 108//109 129//130 107//107
f 104//104 126//127 108//108
f 129//130 120//121 107//107
f 107//107 120//121 110//111
f 129//130 115//116 120//121
f 110//111 120//121 127//128
f 101//101 95//99 109//110
f 103//103 109//110 95//99
f 111//113 130//131 113//114
f 131//132 114//115 113//114
f 114//115 131//132 132//133
f 132//133 124//125 114//115
f 133//134 134//135 111//113
f 133//134 111//113 115//116
f 135//136 121//122 136//137
f 121//122 135//136 137//138
f 121//122 117//118 138//139
f 135//136 136//137 138//139
f 138//139 139//140 135//136
f 139//140 138//139 140//141
f 141//142 134//135 133//134
f 125//126 133//134 115//116
f 117//118 128//129 138//139
f 138//139 128//129 140//141
f 142//143 123//123 124//125
f 126//127 104//104 125//126
f 137//138 143//144 127//128
f 144//145 143//144 145//146
f 121//122 137//138 127//128
f 118//119 122//124 146//147
f 147//148 128//129 118//119
f 147//148 146//147 122//124
f 148//149 128//129 147//148
f 106//105 141//142 104//104
f 134//135 141//142 106//105
f 123//123 150//150 122//124
f 151//151 123//123 142//143
f 109//110 149//152 106//105
f 103//103 149//152 109//110
f 103//103 143//144 149//152
f 143//144 103//103 110//111
f 143//144 110//111 127//128
f 148//149 147//148 152//153
f 151//151 150//150 123//123
f 122//124 150//150 147//148
f 147//148 150//150 152//153
f 131//132 113//114 130//131
f 130//131 144//145 135//136
f 130//131 135//136 139//140
f 130//131 139//140 131//132
f 135//136 144//145 137//138
f 153//154 131//132 139//140
f 153//154 139//140 140//141
f 132//133 154//155 124//125
f 130//131 134//135 144//145
f 111//113 134//135 130//131
f 145//146 137//138 144//145
f 155//156 154//155 132//133
f 142//143 124//125 154//155
f 140//141 128//129 148//149
f 148//149 153//154 140//141
f 142//143 154//155 156//157
f 134//135 106//105 149//152
f 149//152 144//145 134//135
f 144//145 149//152 143//144
f 150//150 151//151 158//158
f 150//150 158//158 152//153
f 132//133 131//132 155//156
f 131//132 153//154 155//156
f 155//156 159//159 154//155
f 154//155 159//159 156//157
f 148//149 160//160 153//154
f 155//156 153//154 160//160
f 160//160 159//159 155//156
f 156//157 161//161 142//143
f 160//160 148//149 152//153
f 151//151 142//143 157//162
f 142//143 161//161 157//162
f 161//161 162//163 157//162
f 160//160 152//153 163//164
f 157//162 164//165 151//151
f 165//166 158//158 151//151
f 164//165 165//166 151//151
f 159//159 162//163 156//157
f 160//160 166//167 159//159
f 166//167 162//163 159//159
f 162//163 167//168 157//162
f 163//164 166//167 160//160
f 167//168 164//165 157//162
f 163//164 152//153 158//158
f 163//164 158//158 169//169
f 158//158 165//166 169//169
f 164//165 170//170 165//166
f 164//165 168//171 170//170
f 162//163 166//167 171//172
f 167//168 162//163 171//172
f 167//168 171//172 172//173
f 164//165 167//168 172//173
f 173//174 166//167 163//164
f 164//165 172//173 174//175
f 165//166 175//176 169//169
f 168//171 164//165 174//175
f 165//166 170//170 176//177
f 171//172 166//167 173//174
f 179//178 172//173 171//172
f 171//172 177//179 179//178
f 163//164 169//169 173//174
f 173//174 169//169 178//180
f 179//178 168//171 174//175
f 179//178 174//175 172//173
f 180//181 168//171 179//178
f 176//177 175//176 165//166
f 170//170 168//171 182//182
f 176//177 170//170 181//183
f 181//183 170//170 182//182
f 183//184 173//174 178//180
f 171//172 183//184 177//179
f 180//181 179//178 177//179
f 183//184 180//181 177//179
f 176//177 178//180 175//176
f 178//180 176//177 183//184
f 183//184 176//177 181//183
f 182//182 183//184 181//183
f 180//181 182//182 168//171
f 182//182 180//181 183//184
f 171//172 173//174 183//184
l 50 51
