# Blender v2.78 (sub 0) OBJ File: 'exporter.blend'
# www.blender.org
o FJ2054.obj_grp1.824
v 0.202598 -0.448787 4.872172
v 0.203487 -0.444665 4.881846
v 0.210945 -0.449490 4.874998
v 0.198001 -0.438840 4.875739
v 0.205957 -0.436643 4.857900
v 0.210781 -0.444542 4.857975
v 0.201784 -0.435329 4.878368
v 0.211652 -0.443111 4.882100
v 0.222542 -0.439499 4.849030
v 0.229133 -0.433841 4.855911
v 0.223282 -0.429427 4.839915
v 0.218195 -0.425034 4.844618
v 0.217029 -0.425249 4.857668
v 0.211538 -0.435611 4.878154
v 0.221875 -0.422573 4.853679
v 0.218195 -0.425034 4.844618
v 0.219217 -0.434082 4.843961
v 0.242993 -0.424778 4.839180
v 0.230496 -0.423822 4.853346
v 0.232580 -0.415606 4.834379
v 0.229328 -0.415348 4.846064
v 0.241964 -0.421363 4.832355
v 0.242038 -0.419553 4.847922
v 0.255702 -0.390633 4.838760
v 0.270247 -0.400191 4.837634
v 0.263017 -0.397162 4.830299
v 0.263017 -0.397162 4.830299
v 0.265493 -0.394705 4.845698
v 0.285981 -0.376764 4.846280
v 0.275357 -0.374036 4.844155
v 0.277049 -0.366850 4.838121
v 0.287574 -0.364799 4.833689
v 0.283294 -0.380227 4.833173
v 0.285779 -0.376614 4.845980
v 0.283410 -0.357604 4.845885
v 0.291991 -0.359647 4.854195
v 0.288677 -0.352142 4.854182
v 0.286060 -0.352229 4.849520
v 0.300151 -0.353915 4.843548
v 0.300174 -0.357469 4.851142
v 0.291991 -0.359647 4.854195
v 0.293788 -0.342359 4.846470
v 0.288991 -0.351845 4.854105
v 0.299838 -0.348269 4.863021
v 0.309379 -0.302578 4.891451
v 0.303593 -0.321464 4.885002
v 0.312243 -0.317665 4.871885
v 0.313134 -0.302689 4.881681
v 0.314985 -0.311444 4.876989
v 0.313293 -0.321950 4.872880
v 0.313293 -0.321950 4.872880
v 0.314272 -0.311937 4.893976
v 0.318701 -0.294951 4.897595
v 0.320525 -0.310272 4.892138
v 0.317937 -0.315739 4.880579
v 0.317937 -0.315739 4.880579
v 0.328552 -0.301218 4.888365
v 0.324460 -0.299079 4.883111
v 0.350311 -0.271637 4.904496
v 0.382086 -0.251617 4.898105
v 0.325806 -0.284819 4.894240
v 0.352557 -0.263664 4.890777
v 0.365478 -0.247713 4.899456
v 0.371904 -0.258130 4.892765
v 0.365624 -0.252359 4.904266
v 0.379637 -0.245199 4.887252
v 0.368785 -0.247812 4.892457
v 0.368785 -0.247812 4.892457
v 0.389950 -0.235596 4.884353
v 0.387698 -0.241581 4.898113
v 0.386727 -0.248362 4.885598
v 0.400416 -0.246401 4.879335
v 0.397126 -0.241860 4.870656
v 0.404230 -0.250503 4.870792
v 0.400236 -0.235603 4.878672
v 0.404855 -0.247722 4.877950
v 0.396472 -0.247389 4.885367
v 0.409379 -0.243008 4.874489
v 0.415194 -0.251816 4.864993
v 0.415194 -0.251816 4.864993
v 0.426357 -0.254966 4.850111
v 0.409365 -0.243048 4.874053
v 0.417688 -0.251924 4.843767
v 0.430020 -0.262794 4.831757
v 0.436519 -0.266020 4.835833
v 0.438868 -0.262238 4.827691
v 0.437660 -0.264597 4.829407
v 0.437660 -0.264597 4.829407
v 0.439647 -0.259063 4.828009
v 0.439900 -0.264223 4.832036
v 0.440030 -0.264333 4.832101
v 0.439900 -0.264223 4.832036
v 0.437660 -0.264597 4.829407
v 0.438908 -0.262200 4.827952
v 0.441043 -0.260682 4.830863
v 0.441239 -0.260665 4.830935
v 0.439544 -0.259552 4.828750
v 0.440102 -0.258696 4.827950
vn -0.5838 -0.8015 -0.1296
vn 0.3643 -0.9037 0.2251
vn -0.3693 -0.3751 0.8502
vn -0.9744 0.1754 0.1407
vn -0.8138 0.0552 -0.5785
vn -0.2061 -0.8394 -0.5030
vn -0.4235 0.7034 0.5708
vn 0.4685 -0.1556 0.8697
vn 0.2646 -0.8638 -0.4288
vn -0.4172 -0.3225 -0.8497
vn -0.6812 0.0523 -0.7303
vn -0.4308 0.8841 0.1811
vn 0.3290 0.5981 0.7307
vn 0.0413 0.8097 0.5854
vn 0.8001 -0.1414 0.5830
vn -0.6833 0.7069 -0.1827
vn -0.0599 -0.6315 -0.7731
vn 0.6455 -0.7631 -0.0317
vn 0.3518 0.4978 0.7927
vn -0.5913 0.3324 -0.7347
vn -0.3762 0.8296 0.4126
vn 0.1698 -0.4839 -0.8585
vn 0.4303 -0.1023 0.8969
vn 0.7386 -0.6589 -0.1423
vn -0.1940 0.2119 -0.9578
vn 0.5109 -0.4904 -0.7060
vn -0.6509 0.6218 0.4355
vn 0.8366 -0.5459 0.0462
vn -0.2954 0.3026 0.9062
vn -0.5229 0.3334 0.7845
vn 0.1709 0.2400 -0.9556
vn -0.7249 0.5819 -0.3686
vn 0.6396 -0.3473 -0.6858
vn -0.2080 -0.1667 0.9638
vn -0.8810 0.3669 0.2988
vn -0.4195 -0.2022 0.8850
vn -0.5468 0.0443 0.8361
vn 0.7663 -0.0215 -0.6421
vn 0.7928 -0.5752 0.2013
vn 0.4113 -0.5992 0.6869
vn -0.9434 0.2792 0.1793
vn -0.2175 0.6969 -0.6834
vn -0.3463 -0.2117 0.9139
vn 0.0042 -0.7378 0.6750
vn -0.8466 0.3427 0.4073
vn -0.6640 -0.2560 0.7025
vn 0.7311 0.1880 -0.6559
vn 0.2572 0.5152 -0.8175
vn -0.4281 0.6694 -0.6072
vn 0.8520 0.0707 -0.5188
vn 0.9522 -0.2374 -0.1920
vn -0.1202 -0.4015 0.9079
vn -0.5230 0.3145 0.7922
vn 0.6093 -0.6432 0.4637
vn 0.6527 -0.7424 0.1511
vn 0.8027 -0.2376 -0.5469
vn 0.7231 -0.5711 -0.3886
vn 0.3915 -0.0524 -0.9187
vn 0.0565 -0.1352 0.9892
vn 0.5963 -0.6042 0.5286
vn -0.6322 0.6928 -0.3468
vn -0.3825 0.4405 -0.8122
vn -0.5062 0.8271 0.2442
vn 0.4330 -0.5682 -0.6998
vn -0.0632 0.2757 0.9592
vn -0.4166 0.0220 -0.9088
vn -0.5836 0.7340 -0.3474
vn -0.4675 0.5227 -0.7129
vn -0.2339 0.9576 -0.1681
vn 0.3871 0.4333 0.8139
vn -0.1101 -0.8611 -0.4963
vn 0.3716 -0.7963 0.4772
vn -0.6345 0.1710 -0.7538
vn 0.3005 0.9503 0.0815
vn -0.2977 -0.9546 -0.0098
vn 0.1887 -0.8955 0.4031
vn 0.2560 -0.9086 0.3300
vn 0.1854 -0.8158 0.5479
vn 0.8157 0.2487 0.5223
vn 0.7477 -0.1753 0.6405
vn 0.8196 0.1456 0.5542
vn 0.7464 0.6340 0.2023
vn -0.6170 0.3299 -0.7145
vn -0.6315 -0.3660 -0.6835
vn -0.5010 0.0724 -0.8624
vn -0.2706 -0.9552 -0.1195
vn 0.7748 -0.0852 0.6265
vn 0.2058 0.9393 -0.2746
vn -0.1087 -0.9578 -0.2661
vn -0.3531 -0.4154 -0.8383
vn 0.3299 -0.9324 -0.1476
vn 0.7442 -0.5110 -0.4303
vn 0.6449 -0.6130 -0.4565
vn 0.7918 -0.3572 -0.4954
vn 0.8400 -0.2142 -0.4985
vn 0.8147 -0.0207 -0.5795
vn 0.7509 0.4387 0.4936
vn -0.5219 0.3054 -0.7964
vn 0.7281 0.0035 0.6854
s 1
f 1//1 3//2 2//3
f 1//1 2//3 4//4
f 4//4 5//5 1//1
f 5//5 6//6 1//1
f 2//3 7//7 4//4
f 8//8 2//3 3//2
f 9//9 3//2 1//1
f 9//9 1//1 6//6
f 11//10 5//5 12//11
f 6//6 5//5 11//10
f 13//12 4//4 7//7
f 14//13 13//12 7//7
f 15//14 13//12 14//13
f 14//13 8//8 10//15
f 8//8 7//7 2//3
f 14//13 7//7 8//8
f 16//16 4//4 13//12
f 17//17 9//9 6//6
f 18//18 3//2 9//9
f 10//15 3//2 18//18
f 14//13 10//15 19//19
f 8//8 3//2 10//15
f 12//11 20//20 11//10
f 16//16 5//5 4//4
f 20//20 16//16 21//21
f 19//19 15//14 14//13
f 17//17 22//22 9//9
f 9//9 22//22 18//18
f 18//18 23//23 10//15
f 19//19 10//15 23//23
f 18//18 25//24 23//23
f 22//22 17//17 11//10
f 22//22 11//10 20//20
f 21//21 15//14 19//19
f 21//21 16//16 13//12
f 23//23 21//21 19//19
f 25//24 18//18 22//22
f 26//25 22//22 20//20
f 27//26 25//24 22//22
f 24//27 21//21 23//23
f 23//23 25//24 29//28
f 29//28 28//29 23//23
f 20//20 21//21 24//27
f 23//23 30//30 24//27
f 28//29 30//30 23//23
f 32//31 26//25 20//20
f 31//32 24//27 30//30
f 20//20 31//32 32//31
f 24//27 31//32 20//20
f 32//31 33//33 26//25
f 33//33 29//28 25//24
f 33//33 25//24 27//26
f 34//34 30//30 28//29
f 31//32 30//30 35//35
f 30//30 36//36 37//37
f 36//36 30//30 34//34
f 37//37 35//35 30//30
f 33//33 39//38 29//28
f 33//33 32//31 39//38
f 40//39 29//28 39//38
f 41//40 29//28 40//39
f 31//32 38//41 42//42
f 43//43 37//37 36//36
f 41//40 40//39 44//44
f 43//43 36//36 44//44
f 37//37 38//41 35//35
f 45//45 42//42 38//41
f 38//41 37//37 46//46
f 42//42 39//38 32//31
f 31//32 42//42 32//31
f 42//42 47//47 39//38
f 47//47 42//42 49//48
f 49//48 42//42 48//49
f 39//38 47//47 50//50
f 39//38 51//51 40//39
f 44//44 46//46 43//43
f 52//52 46//46 44//44
f 38//41 46//46 45//45
f 46//46 53//53 45//45
f 46//46 52//52 53//53
f 54//54 40//39 51//51
f 40//39 54//54 44//44
f 44//44 54//54 52//52
f 55//55 54//54 51//51
f 50//50 47//47 56//56
f 48//49 42//42 45//45
f 57//57 54//54 55//55
f 48//49 58//58 49//48
f 56//56 47//47 58//58
f 56//56 58//58 57//57
f 52//52 59//59 53//53
f 57//57 60//60 54//54
f 48//49 45//45 61//61
f 48//49 62//62 58//58
f 48//49 61//61 63//63
f 52//52 54//54 59//59
f 63//63 62//62 48//49
f 58//58 64//64 57//57
f 57//57 64//64 60//60
f 64//64 58//58 62//62
f 65//65 53//53 59//59
f 45//45 53//53 63//63
f 63//63 53//53 65//65
f 60//60 59//59 54//54
f 62//62 66//66 64//64
f 62//62 63//63 67//67
f 62//62 68//68 66//66
f 67//67 63//63 69//69
f 60//60 70//70 59//59
f 70//70 65//65 59//59
f 66//66 71//71 64//64
f 72//72 60//60 71//71
f 71//71 66//66 73//73
f 73//73 66//66 69//69
f 71//71 60//60 64//64
f 70//70 63//63 65//65
f 69//69 63//63 70//70
f 66//66 68//68 69//69
f 73//73 69//69 75//74
f 74//75 71//71 73//73
f 72//72 71//71 74//75
f 74//75 76//76 77//77
f 79//78 76//76 74//75
f 78//79 72//72 80//80
f 78//79 80//80 81//81
f 60//60 78//79 70//70
f 78//79 75//74 70//70
f 78//79 60//60 72//72
f 75//74 69//69 70//70
f 78//79 82//82 75//74
f 73//73 83//83 74//75
f 83//83 84//84 74//75
f 84//84 83//83 86//85
f 85//86 79//78 74//75
f 84//84 85//86 74//75
f 85//87 81//81 80//80
f 83//83 73//73 75//74
f 82//82 81//81 98//88
f 98//88 83//83 75//74
f 75//74 82//82 98//88
f 84//84 87//89 85//86
f 86//85 88//90 84//84
f 85//86 87//89 90//91
f 92//92 93//93 94//94
f 94//94 95//95 92//92
f 97//96 95//95 94//94
f 85//87 96//97 81//81
f 89//98 86//85 83//83
f 85//87 91//99 96//97
f 98//88 89//98 83//83
f 96//97 98//88 81//81
