# Blender v2.78 (sub 0) OBJ File: 'exporter.blend'
# www.blender.org
o FJ2013.obj_grp1.811
v 0.009182 -0.613086 5.073127
v 0.005736 -0.607998 5.082126
v 0.005806 -0.604974 5.071389
v 0.013359 -0.609507 5.065509
v 0.012402 -0.613175 5.083225
v 0.040792 -0.614017 5.076555
v 0.037530 -0.609336 5.086734
v 0.008624 -0.579618 5.081264
v 0.013826 -0.602612 5.092135
v 0.032873 -0.601253 5.058638
v 0.047949 -0.607139 5.063558
v 0.039221 -0.580157 5.061353
v 0.018868 -0.572755 5.065671
v 0.014731 -0.507436 5.079548
v 0.010430 -0.506287 5.086197
v 0.029888 -0.507488 5.072820
v 0.008571 -0.507482 5.094541
v 0.050148 -0.609542 5.073904
v 0.049196 -0.609387 5.078642
v 0.042882 -0.580595 5.094082
v 0.042907 -0.532848 5.114448
v 0.044750 -0.603158 5.060534
v 0.051168 -0.603189 5.066243
v 0.049330 -0.572369 5.072079
v 0.052784 -0.602567 5.075656
v 0.049005 -0.579237 5.085351
v 0.015927 -0.520362 5.111667
v 0.011245 -0.507427 5.105256
v 0.016391 -0.508386 5.109911
v 0.008608 -0.506932 5.093808
v 0.019416 -0.506498 5.076192
v 0.014834 -0.507494 5.079772
v 0.009878 -0.506316 5.103091
v 0.029931 -0.507767 5.073388
v 0.032860 -0.506743 5.073591
v 0.032740 -0.506298 5.073906
v 0.038107 -0.507518 5.075124
v 0.048155 -0.508935 5.079882
v 0.057362 -0.532358 5.101415
v 0.026808 -0.515182 5.116860
v 0.039569 -0.508104 5.114985
v 0.051287 -0.507481 5.083711
v 0.056638 -0.508463 5.097941
v 0.048626 -0.508147 5.079894
v 0.055786 -0.508094 5.096395
v 0.049976 -0.511481 5.112901
v 0.055546 -0.510199 5.104946
vn -0.5135 -0.8126 -0.2755
vn -0.8664 -0.3568 0.3494
vn -0.8928 -0.0609 -0.4462
vn -0.3531 -0.4709 -0.8084
vn -0.2644 -0.8546 0.4469
vn 0.2114 -0.9773 0.0115
vn -0.8816 0.1018 -0.4610
vn -0.2939 -0.3830 0.8757
vn 0.2791 -0.5770 0.7676
vn -0.0909 -0.1935 -0.9769
vn 0.5041 -0.6311 -0.5895
vn -0.5337 0.1612 -0.8302
vn 0.3086 0.1281 -0.9425
vn -0.9270 0.0465 -0.3722
vn -0.6740 0.1082 -0.7307
vn -0.9994 0.0150 0.0310
vn 0.4019 -0.9114 -0.0881
vn 0.6858 -0.6377 0.3507
vn 0.5469 -0.2951 0.7834
vn 0.2813 -0.2280 0.9321
vn 0.3767 -0.1700 -0.9106
vn 0.8991 -0.1345 -0.4166
vn 0.9113 0.1033 -0.3986
vn 0.9621 -0.1955 0.1903
vn 0.9396 -0.1268 0.3180
vn -0.6456 -0.0525 0.7619
vn -0.8888 -0.0049 0.4583
vn -0.3898 0.5279 0.7546
vn -0.0855 0.1566 -0.9839
vn -0.1978 0.9780 -0.0656
vn -0.0889 0.9935 -0.0706
vn -0.3418 0.9108 -0.2314
vn 0.0111 0.9994 0.0324
vn 0.0088 0.9849 -0.1727
vn -0.1470 0.5678 -0.8099
vn 0.2975 0.1667 -0.9401
vn 0.9546 -0.1303 0.2678
vn -0.1669 0.1663 0.9719
vn 0.1501 0.6598 0.7363
vn 0.6204 0.1172 -0.7755
vn 0.8858 0.0391 -0.4625
vn 0.9916 0.0270 -0.1267
vn 0.1669 0.9826 -0.0811
vn 0.2942 0.7716 -0.5639
vn 0.1015 0.9908 0.0899
vn 0.5402 0.4244 0.7267
vn 0.7318 0.5476 0.4057
s 1
f 1//1 2//2 3//3
f 1//1 3//3 4//4
f 1//1 5//5 2//2
f 6//6 1//1 4//4
f 6//6 5//5 1//1
f 2//2 8//7 3//3
f 2//2 5//5 9//8
f 7//9 9//8 5//5
f 4//4 10//10 11//11
f 6//6 4//4 11//11
f 3//3 13//12 4//4
f 10//10 4//4 13//12
f 8//7 13//12 3//3
f 12//13 10//10 13//12
f 8//7 15//14 13//12
f 13//12 15//14 14//15
f 8//7 17//16 15//14
f 18//17 19//18 6//6
f 6//6 7//9 5//5
f 7//9 20//19 9//8
f 20//19 21//20 9//8
f 22//21 11//11 10//10
f 10//10 12//13 22//21
f 23//22 22//21 12//13
f 11//11 18//17 6//6
f 22//21 23//22 11//11
f 24//23 23//22 12//13
f 23//22 19//18 11//11
f 23//22 24//23 25//24
f 24//23 26//25 25//24
f 2//2 9//8 27//26
f 2//2 17//16 8//7
f 2//2 28//27 17//16
f 27//26 28//27 2//2
f 27//26 29//28 28//27
f 16//29 13//12 14//15
f 30//30 31//31 32//32
f 30//30 33//33 31//31
f 12//13 13//12 16//29
f 31//31 36//34 34//35
f 35//36 12//13 16//29
f 33//33 36//34 31//31
f 7//9 6//6 19//18
f 23//22 25//24 19//18
f 20//19 7//9 19//18
f 19//18 25//24 20//19
f 25//24 26//25 20//19
f 20//19 39//37 21//20
f 27//26 9//8 40//38
f 9//8 21//20 40//38
f 27//26 40//38 29//28
f 29//28 40//38 41//39
f 40//38 21//20 41//39
f 38//40 12//13 35//36
f 42//41 12//13 38//40
f 24//23 12//13 42//41
f 41//39 36//34 33//33
f 29//28 41//39 33//33
f 24//23 42//41 43//42
f 44//43 37//44 36//34
f 41//39 45//45 36//34
f 45//45 44//43 36//34
f 20//19 26//25 39//37
f 24//23 39//37 26//25
f 46//46 21//20 39//37
f 46//46 39//37 47//47
f 41//39 21//20 46//46
f 39//37 24//23 43//42
f 41//39 46//46 45//45
f 39//37 43//42 47//47
f 47//47 45//45 46//46
