# Blender v2.78 (sub 0) OBJ File: 'exporter.blend'
# www.blender.org
o FJ2090.obj_grp1.856
v 0.436628 -0.469287 3.324207
v 0.433899 -0.469994 3.321054
v 0.432820 -0.473834 3.323555
v 0.428715 -0.487603 3.338146
v 0.432147 -0.466844 3.321845
v 0.432255 -0.464851 3.325821
v 0.432940 -0.480573 3.338859
v 0.436040 -0.467671 3.326274
v 0.432820 -0.473834 3.323555
v 0.430242 -0.470601 3.321603
v 0.428775 -0.466916 3.323547
v 0.420565 -0.488097 3.338725
v 0.428715 -0.487603 3.338146
v 0.421236 -0.498722 3.344954
v 0.419858 -0.489697 3.339887
v 0.426765 -0.477664 3.344105
v 0.423910 -0.499414 3.347939
v 0.425539 -0.488823 3.353029
v 0.421883 -0.502791 3.357883
v 0.418857 -0.510845 3.358063
v 0.425131 -0.451008 3.073121
v 0.418593 -0.474176 3.091599
v 0.422117 -0.447320 3.072442
v 0.424072 -0.448372 3.076771
v 0.420895 -0.470515 3.094527
v 0.419815 -0.480826 3.343610
v 0.418892 -0.484317 3.340437
v 0.418892 -0.484317 3.340437
v 0.409558 -0.501940 3.349152
v 0.413515 -0.493481 3.357291
v 0.410481 -0.504464 3.365113
v 0.406249 -0.523100 3.353684
v 0.415098 -0.510628 3.364931
v 0.415563 -0.471949 3.086804
v 0.417182 -0.453668 3.072868
v 0.421430 -0.452497 3.071043
v 0.418097 -0.448009 3.073234
v 0.419526 -0.446392 3.076515
v 0.412196 -0.463339 3.095909
v 0.415328 -0.476413 3.110276
v 0.405243 -0.494237 3.108481
v 0.414626 -0.485152 3.109377
v 0.407018 -0.495800 3.115326
v 0.410559 -0.486586 3.118102
v 0.411996 -0.505308 3.348264
v 0.408769 -0.497201 3.353451
v 0.401031 -0.523601 3.372853
v 0.416655 -0.449585 3.077871
v 0.416000 -0.450420 3.075486
v 0.404709 -0.473411 3.098016
v 0.418140 -0.448052 3.073270
v 0.406444 -0.469275 3.098226
v 0.409494 -0.464141 3.092650
v 0.402522 -0.483848 3.102058
v 0.400011 -0.480033 3.104358
v 0.402447 -0.489351 3.104202
v 0.405392 -0.480424 3.119554
v 0.405641 -0.492408 3.121615
v 0.377345 -0.547224 3.359980
v 0.378527 -0.537037 3.371683
v 0.392911 -0.555993 3.368953
v 0.391212 -0.552893 3.376961
v 0.396376 -0.520244 3.371502
v 0.402273 -0.489565 3.104222
v 0.396982 -0.480270 3.113039
v 0.402673 -0.477495 3.115413
v 0.382221 -0.513160 3.114404
v 0.395659 -0.504390 3.120647
v 0.395589 -0.491765 3.126344
v 0.394933 -0.497909 3.126389
v 0.390997 -0.553463 3.360845
v 0.387801 -0.556628 3.375540
v 0.386224 -0.547134 3.380087
v 0.392432 -0.498772 3.107405
v 0.393980 -0.488580 3.107156
v 0.393303 -0.484669 3.110143
v 0.375993 -0.508743 3.107111
v 0.380942 -0.558310 3.365008
v 0.385055 -0.554271 3.358680
v 0.388124 -0.559232 3.367217
v 0.382715 -0.558454 3.373016
v 0.383500 -0.552491 3.379487
v 0.378695 -0.514371 3.120786
v 0.378751 -0.509717 3.127159
v 0.370913 -0.502196 3.128324
v 0.374525 -0.494747 3.124415
v 0.373040 -0.506336 3.129179
v 0.379665 -0.552166 3.358503
v 0.377782 -0.556828 3.371738
v 0.378037 -0.543275 3.377093
v 0.378107 -0.550664 3.377914
v 0.383520 -0.488049 2.697587
v 0.381020 -0.486499 2.694664
v 0.381406 -0.484078 2.695127
v 0.379463 -0.490119 2.696831
v 0.383163 -0.483144 2.698463
v 0.378865 -0.488234 2.728619
v 0.377126 -0.491931 2.727920
v 0.378054 -0.484528 2.729031
v 0.374449 -0.493020 2.721987
v 0.374999 -0.513512 3.124050
v 0.375789 -0.554745 3.365193
v 0.373234 -0.547384 3.364446
v 0.374426 -0.550973 3.374051
v 0.376681 -0.488225 2.696280
v 0.376238 -0.484572 2.695722
v 0.378877 -0.481551 2.697072
v 0.374204 -0.480126 2.721430
v 0.368021 -0.485863 2.718670
v 0.373696 -0.482458 2.733736
v 0.373781 -0.500208 2.742091
v 0.374110 -0.500614 2.747120
v 0.371522 -0.496922 2.732569
v 0.374323 -0.489091 2.743150
v 0.373430 -0.511958 3.109206
v 0.372264 -0.515106 3.116576
v 0.373661 -0.544624 3.371421
v 0.370100 -0.491377 2.720908
v 0.365866 -0.484215 2.736423
v 0.366999 -0.496202 2.732095
v 0.370958 -0.503302 2.739614
v 0.364129 -0.504755 2.738212
v 0.365507 -0.515536 2.741828
v 0.365334 -0.489920 2.748182
v 0.360886 -0.543175 2.748823
v 0.370703 -0.494464 2.750359
v 0.359990 -0.546244 2.755744
v 0.366766 -0.517370 2.758225
v 0.362665 -0.503929 2.757561
v 0.356682 -0.548770 2.753287
v 0.369803 -0.502736 3.108735
v 0.368219 -0.510309 3.110630
v 0.368999 -0.496804 3.115339
v 0.367388 -0.511922 3.121605
v 0.366970 -0.506776 3.125583
v 0.363241 -0.491989 2.731965
v 0.359803 -0.499282 2.738956
v 0.360779 -0.490001 2.739973
v 0.360614 -0.493792 2.749758
v 0.354680 -0.543590 2.743892
v 0.354022 -0.527646 2.743120
v 0.352386 -0.547107 2.748153
v 0.353384 -0.548794 2.757293
v 0.358993 -0.520817 2.761322
v 0.356854 -0.543025 2.761360
v 0.353838 -0.547167 2.760449
v 0.364777 -0.508058 3.115742
v 0.365630 -0.503499 3.113424
v 0.364624 -0.506004 3.120887
v 0.365395 -0.501208 3.120954
v 0.361019 -0.474119 2.549367
v 0.358942 -0.471185 2.549611
v 0.353546 -0.494945 2.557664
v 0.356810 -0.474579 2.548133
v 0.362092 -0.473841 2.552754
v 0.360920 -0.472970 2.555801
v 0.355643 -0.504747 2.564382
v 0.359223 -0.470096 2.553553
v 0.361052 -0.491568 2.562949
v 0.359027 -0.495395 2.569320
v 0.356042 -0.491519 2.571245
v 0.356308 -0.505265 2.568167
v 0.350789 -0.512567 2.574949
v 0.351317 -0.542678 2.743809
v 0.347646 -0.543194 2.748386
v 0.349236 -0.540056 2.744790
v 0.349813 -0.546781 2.757579
v 0.352896 -0.541417 2.761608
v 0.348892 -0.543373 2.758712
v 0.354345 -0.515838 2.758879
v 0.354924 -0.472603 2.549420
v 0.347780 -0.500057 2.560566
v 0.355089 -0.472526 2.549289
v 0.356971 -0.471020 2.555633
v 0.351930 -0.490256 2.571003
v 0.354632 -0.470953 2.552773
v 0.349250 -0.487417 2.566480
v 0.347501 -0.512153 2.563371
v 0.342756 -0.526363 2.571608
v 0.349200 -0.506419 2.577997
v 0.349851 -0.521641 2.749610
v 0.351498 -0.512795 2.753597
v 0.349701 -0.484007 2.560289
v 0.339150 -0.515494 2.563849
v 0.338658 -0.508551 2.567335
v 0.336077 -0.530311 2.566854
v 0.332431 -0.529490 2.564331
v 0.338858 -0.530034 2.573900
v 0.342491 -0.505264 2.576775
v 0.335921 -0.528375 2.579004
v 0.334540 -0.524571 2.580550
v 0.328918 -0.523468 2.574474
v 0.331428 -0.531648 2.569761
v 0.330637 -0.530596 2.575810
v 0.331602 -0.528490 2.578893
v 0.329594 -0.525479 2.578319
v 0.330572 -0.527916 2.563962
v 0.328666 -0.525168 2.567284
v 0.327961 -0.528228 2.570419
vn 0.7374 -0.5569 -0.3823
vn 0.4313 -0.0667 -0.8998
vn 0.9336 0.1253 -0.3357
vn 0.7975 -0.5440 -0.2609
vn 0.0690 0.6176 -0.7835
vn 0.0626 0.9960 0.0646
vn 0.9431 -0.0350 0.3305
vn 0.8227 0.5482 0.1505
vn -0.4670 -0.2022 -0.8608
vn -0.1528 -0.6454 -0.7484
vn -0.6939 0.5839 -0.4214
vn -0.8469 0.0033 -0.5318
vn 0.3796 -0.6898 -0.6165
vn -0.7493 0.6273 0.2123
vn 0.2278 -0.6020 -0.7654
vn -0.3460 -0.4428 -0.8272
vn 0.1690 0.7068 0.6870
vn 0.7405 -0.5790 -0.3412
vn 0.5673 0.3221 0.7579
vn 0.8729 -0.1347 0.4690
vn 0.8685 -0.4922 0.0584
vn 0.8851 0.0236 -0.4649
vn 0.7465 0.6021 0.2832
vn 0.9816 -0.1372 0.1331
vn -0.7658 -0.0362 -0.6421
vn -0.8962 0.3920 -0.2077
vn -0.6561 0.1236 -0.7445
vn -0.3933 0.7001 0.5960
vn 0.0370 0.4612 0.8865
vn 0.3321 -0.4543 -0.8266
vn 0.6391 -0.0230 0.7688
vn 0.1043 -0.6672 -0.7375
vn -0.6344 -0.1983 -0.7472
vn 0.1055 -0.1943 -0.9753
vn 0.2434 0.7451 -0.6209
vn -0.4806 0.5458 -0.6864
vn -0.1363 0.9619 0.2369
vn 0.6522 -0.6380 -0.4094
vn -0.4145 0.7926 0.4472
vn 0.4165 -0.7118 -0.5657
vn 0.9094 -0.4058 0.0917
vn 0.7348 -0.6722 0.0905
vn 0.7367 0.3151 0.5984
vn 0.7475 -0.0684 0.6607
vn -0.2644 -0.2337 -0.9357
vn -0.8426 0.5245 -0.1223
vn 0.2459 0.1854 0.9514
vn -0.7509 0.6429 0.1509
vn -0.8154 0.5784 0.0217
vn -0.8937 0.4332 -0.1170
vn -0.7455 0.6662 -0.0184
vn -0.8482 0.5295 -0.0115
vn -0.6455 0.6801 0.3475
vn -0.8115 0.2022 -0.5482
vn -0.1325 -0.4552 -0.8805
vn -0.6965 -0.1390 -0.7039
vn 0.1910 0.5304 0.8260
vn 0.6268 -0.2521 0.7373
vn -0.5954 0.0928 -0.7981
vn 0.5854 -0.4351 0.6841
vn -0.3263 0.5559 0.7645
vn 0.4182 -0.4640 -0.7809
vn -0.6231 0.7800 -0.0578
vn -0.2867 0.8039 0.5211
vn 0.3650 -0.8785 -0.3081
vn 0.5726 -0.7410 0.3507
vn 0.3872 -0.2546 0.8862
vn 0.1173 0.2950 0.9483
vn -0.9337 0.0360 -0.3562
vn -0.7676 0.5881 0.2549
vn 0.5188 -0.5904 -0.6183
vn 0.7421 -0.6680 0.0550
vn 0.2956 -0.9465 -0.1293
vn 0.2602 -0.7823 0.5660
vn 0.1211 0.0281 0.9922
vn 0.0765 -0.1574 -0.9846
vn -0.4682 0.1925 -0.8624
vn -0.5386 0.6264 -0.5635
vn -0.0140 -0.3491 -0.9370
vn -0.2787 -0.9081 -0.3125
vn 0.0582 -0.5437 -0.8373
vn -0.1702 -0.8965 0.4091
vn -0.1034 -0.3822 0.9183
vn 0.2696 -0.9270 0.2608
vn 0.2406 -0.5650 0.7892
vn -0.3951 0.7258 0.5632
vn -0.4398 0.2579 0.8603
vn -0.1996 -0.2650 0.9433
vn -0.4184 -0.3197 -0.8502
vn -0.5753 -0.7601 0.3022
vn -0.5343 0.3434 0.7724
vn 0.8601 -0.4344 -0.2674
vn 0.2484 -0.1493 -0.9571
vn 0.4055 0.4034 -0.8203
vn 0.0341 -0.8861 -0.4623
vn 0.9717 -0.1042 0.2120
vn 0.7303 -0.6788 -0.0763
vn 0.8121 0.5692 -0.1287
vn 0.1148 -0.9773 -0.1779
vn -0.0831 -0.8291 0.5529
vn -0.7656 -0.5870 -0.2631
vn -0.8662 -0.2468 0.4346
vn -0.5343 -0.2066 0.8197
vn -0.6160 -0.4731 -0.6298
vn -0.6607 0.2892 -0.6927
vn -0.1424 0.8921 -0.4288
vn -0.0432 0.9989 0.0176
vn -0.9385 0.2023 -0.2796
vn 0.8039 0.5366 0.2565
vn 0.3003 0.8778 0.3733
vn 0.8459 -0.4924 -0.2051
vn 0.9384 -0.1147 0.3260
vn 0.2384 -0.8344 -0.4970
vn 0.6959 0.4898 0.5252
vn -0.2579 -0.9611 -0.0986
vn -0.1138 -0.6981 -0.7069
vn -0.9349 0.3013 0.1878
vn -0.5631 -0.7349 -0.3779
vn -0.4825 0.8618 0.1565
vn -0.3910 -0.6522 -0.6494
vn 0.6079 -0.5383 -0.5838
vn 0.3972 -0.3160 -0.8616
vn -0.0966 -0.3459 -0.9333
vn -0.1391 0.7996 0.5842
vn 0.7744 -0.5112 -0.3727
vn 0.5094 0.4132 0.7548
vn 0.7804 -0.5742 0.2475
vn 0.7091 -0.0709 0.7015
vn -0.0085 0.3927 0.9196
vn 0.3077 -0.9448 -0.1130
vn -0.6431 -0.4883 -0.5898
vn -0.5336 0.2446 -0.8096
vn -0.6561 0.7097 -0.2566
vn -0.6452 -0.6922 0.3234
vn -0.7068 -0.2160 0.6736
vn -0.8507 -0.2385 -0.4685
vn -0.7197 -0.0980 -0.6873
vn -0.6033 0.5878 0.5390
vn -0.8475 0.5300 -0.0293
vn 0.1980 -0.5175 -0.8325
vn -0.4490 0.0375 -0.8928
vn -0.2085 -0.8793 -0.4282
vn 0.0014 0.0896 0.9960
vn -0.0152 -0.6269 0.7789
vn 0.4246 -0.2464 0.8712
vn -0.1015 -0.9679 0.2299
vn -0.9303 -0.3148 -0.1883
vn -0.8717 0.2461 -0.4237
vn -0.9767 -0.0810 0.1989
vn -0.8543 0.4421 0.2733
vn 0.1341 -0.4303 -0.8926
vn -0.1382 -0.0925 -0.9861
vn 0.7076 0.0980 -0.6998
vn 0.2781 0.7554 -0.5933
vn 0.7265 -0.4885 -0.4833
vn 0.9694 0.2359 -0.0679
vn 0.3511 0.9331 0.0782
vn 0.6944 0.4836 0.5328
vn 0.9831 -0.1792 -0.0363
vn 0.8738 -0.0317 0.4852
vn 0.4144 0.3868 0.8238
vn 0.9087 -0.4104 0.0767
vn 0.7740 -0.4101 0.4824
vn -0.3655 -0.3704 -0.8539
vn -0.9049 -0.3556 -0.2340
vn -0.7523 -0.0355 -0.6578
vn -0.9046 0.3121 0.2904
vn -0.7001 -0.6466 0.3030
vn -0.2969 -0.0688 0.9524
vn -0.8448 -0.1090 0.5239
vn -0.5832 0.2622 0.7689
vn -0.4940 -0.1112 -0.8623
vn -0.8255 0.3333 -0.4555
vn -0.3217 0.7268 -0.6069
vn -0.1769 0.7884 0.5892
vn -0.6670 0.7446 -0.0251
vn -0.7045 0.5673 0.4265
vn -0.1830 0.5645 0.8049
vn 0.2639 -0.3475 -0.8998
vn 0.7603 -0.6479 -0.0453
vn 0.3140 0.0975 0.9444
vn -0.9689 0.1444 -0.2010
vn -0.9334 0.3125 -0.1764
vn -0.3465 0.1405 -0.9275
vn -0.8161 0.3149 -0.4846
vn 0.3934 -0.7881 -0.4734
vn -0.1145 -0.6323 -0.7662
vn -0.4777 0.4381 0.7615
vn 0.4952 -0.8392 0.2248
vn 0.3008 -0.6238 0.7214
vn -0.0952 -0.0353 0.9948
vn -0.9195 0.3517 0.1757
vn -0.4800 -0.7994 0.3613
vn -0.2911 -0.9522 -0.0925
vn -0.3640 -0.5025 0.7842
vn -0.5476 -0.2454 -0.7999
vn -0.9047 0.2453 -0.3485
vn -0.9460 -0.3212 -0.0429
vn -0.7735 0.0539 0.6314
s 1
f 3//1 2//2 1//3
f 4//4 3//1 1//3
f 2//2 5//5 1//3
f 5//5 6//6 1//3
f 7//7 4//4 1//3
f 8//8 7//7 1//3
f 8//8 1//3 6//6
f 10//9 5//5 2//2
f 2//2 9//10 10//9
f 10//9 11//11 5//5
f 12//12 11//11 10//9
f 5//5 11//11 6//6
f 10//9 9//10 13//13
f 11//11 26//14 6//6
f 10//9 13//13 14//15
f 15//16 10//9 14//15
f 16//17 8//8 6//6
f 17//18 4//4 7//7
f 14//15 13//13 17//18
f 16//17 7//7 8//8
f 7//7 16//17 18//19
f 7//7 19//20 20//21
f 19//20 7//7 18//19
f 21//22 24//23 25//24
f 10//9 15//16 12//12
f 12//12 27//25 11//11
f 11//11 28//26 26//14
f 27//25 12//12 29//27
f 6//6 26//14 16//17
f 17//18 7//7 20//21
f 30//28 31//29 18//19
f 16//17 30//28 18//19
f 20//21 32//30 17//18
f 18//19 33//31 19//20
f 18//19 31//29 33//31
f 34//32 35//33 36//34
f 23//35 21//22 36//34
f 35//33 37//36 36//34
f 24//23 21//22 23//35
f 38//37 24//23 23//35
f 36//34 37//36 23//35
f 38//37 23//35 37//36
f 36//34 21//22 22//38
f 36//34 22//38 34//32
f 22//38 21//22 25//24
f 39//39 24//23 38//37
f 41//40 34//32 22//38
f 42//41 22//38 25//24
f 42//41 43//42 22//38
f 22//38 43//42 41//40
f 25//24 40//43 42//41
f 24//23 40//43 25//24
f 42//41 44//44 43//42
f 40//43 44//44 42//41
f 14//15 45//45 15//16
f 45//45 29//27 12//12
f 28//26 46//46 26//14
f 14//15 17//18 32//30
f 45//45 14//15 32//30
f 26//14 30//28 16//17
f 33//31 31//29 47//47
f 33//31 20//21 19//20
f 48//48 49//49 50//50
f 48//48 51//51 49//49
f 51//51 48//48 38//37
f 48//48 39//39 38//37
f 50//50 52//52 48//48
f 53//53 39//39 48//48
f 35//33 55//54 37//36
f 34//32 56//55 35//33
f 54//56 35//33 56//55
f 34//32 41//40 56//55
f 39//39 57//57 24//23
f 40//43 24//23 57//57
f 44//44 58//58 43//42
f 40//43 57//57 44//44
f 58//58 44//44 57//57
f 28//26 29//27 46//46
f 45//45 59//59 29//27
f 32//30 59//59 45//45
f 26//14 46//46 30//28
f 33//31 62//60 20//21
f 31//29 63//61 47//47
f 54//56 55//54 35//33
f 53//53 52//52 39//39
f 56//55 41//40 64//62
f 39//39 52//52 65//63
f 66//64 39//39 65//63
f 41//40 43//42 67//65
f 39//39 66//64 57//57
f 58//58 68//66 43//42
f 68//66 58//58 70//67
f 70//67 58//58 69//68
f 69//68 58//58 57//57
f 29//27 59//59 103//69
f 29//27 103//69 46//46
f 60//70 30//28 46//46
f 20//21 71//71 32//30
f 30//28 63//61 31//29
f 61//72 71//71 20//21
f 61//72 80//73 71//71
f 20//21 62//60 61//72
f 72//74 61//72 62//60
f 33//31 47//47 73//75
f 55//54 52//52 50//50
f 65//63 52//52 55//54
f 41//40 74//76 64//62
f 74//76 75//77 56//55
f 56//55 75//77 54//56
f 75//77 55//54 54//56
f 55//54 76//78 65//63
f 74//76 41//40 77//79
f 68//66 67//65 43//42
f 78//80 79//81 80//73
f 79//81 32//30 71//71
f 71//71 80//73 79//81
f 30//28 60//70 63//61
f 80//73 61//72 72//74
f 72//74 81//82 80//73
f 47//47 63//61 73//75
f 73//75 62//60 33//31
f 82//83 72//74 62//60
f 75//77 76//78 55//54
f 67//65 68//66 83//84
f 84//85 68//66 70//67
f 86//86 69//68 57//57
f 86//86 85//87 69//68
f 66//64 86//86 57//57
f 87//88 70//67 69//68
f 84//85 70//67 87//88
f 88//89 32//30 79//81
f 88//89 59//59 32//30
f 78//80 88//89 79//81
f 81//82 78//80 80//73
f 89//90 78//80 81//82
f 72//74 82//83 81//82
f 62//60 73//75 82//83
f 63//61 90//91 73//75
f 92//92 93//93 94//94
f 93//93 92//92 95//95
f 92//92 97//96 98//97
f 94//94 96//98 92//92
f 92//92 98//97 100//99
f 97//96 92//92 96//98
f 77//79 41//40 67//65
f 84//85 83//84 68//66
f 83//84 84//85 101//100
f 87//88 69//68 85//87
f 78//80 102//101 88//89
f 88//89 102//101 103//69
f 103//69 59//59 88//89
f 102//101 78//80 89//90
f 89//90 104//102 102//101
f 60//70 90//91 63//61
f 82//83 89//90 81//82
f 89//90 82//83 91//103
f 91//103 104//102 89//90
f 73//75 90//91 91//103
f 82//83 73//75 91//103
f 91//103 90//91 104//102
f 93//93 95//95 105//104
f 105//104 106//105 93//93
f 93//93 106//105 94//94
f 96//98 94//94 107//106
f 106//105 107//106 94//94
f 95//95 92//92 100//99
f 108//107 96//98 107//106
f 108//107 107//106 109//108
f 108//107 99//109 96//98
f 96//98 99//109 97//96
f 99//109 108//107 110//110
f 111//111 98//97 97//96
f 97//96 112//112 111//111
f 113//113 98//97 111//111
f 114//114 112//112 97//96
f 97//96 99//109 114//114
f 77//79 75//77 74//76
f 67//65 116//115 115//116
f 77//79 67//65 115//116
f 83//84 116//115 67//65
f 104//102 103//69 102//101
f 46//46 103//69 60//70
f 60//70 103//69 117//117
f 104//102 90//91 117//117
f 103//69 104//102 117//117
f 90//91 60//70 117//117
f 106//105 105//104 109//108
f 118//118 105//104 95//95
f 118//118 95//95 100//99
f 109//108 107//106 106//105
f 109//108 105//104 118//118
f 108//107 109//108 119//119
f 120//120 118//118 100//99
f 120//120 100//99 113//113
f 113//113 100//99 98//97
f 121//121 113//113 111//111
f 110//110 114//114 99//109
f 123//122 122//123 121//121
f 111//111 123//122 121//121
f 124//124 114//114 110//110
f 111//111 125//125 123//122
f 126//126 112//112 114//114
f 126//126 114//114 124//124
f 125//125 111//111 112//112
f 125//125 112//112 127//127
f 112//112 126//126 128//128
f 128//128 126//126 129//129
f 127//127 130//130 125//125
f 127//127 112//112 128//128
f 77//79 132//131 131//132
f 77//79 131//132 75//77
f 131//132 76//78 75//77
f 115//116 116//115 132//131
f 115//116 132//131 77//79
f 131//132 133//133 76//78
f 134//134 132//131 116//115
f 65//63 86//86 66//64
f 116//115 83//84 101//100
f 134//134 116//115 101//100
f 134//134 101//100 87//88
f 87//88 101//100 84//85
f 85//87 135//135 87//88
f 135//135 134//134 87//88
f 118//118 120//120 136//136
f 118//118 136//136 109//108
f 121//121 122//123 113//113
f 120//120 113//113 122//123
f 137//137 136//136 120//120
f 119//119 110//110 108//107
f 122//123 137//137 120//120
f 119//119 124//124 110//110
f 139//138 119//119 138//139
f 140//140 141//141 123//122
f 139//138 124//124 119//119
f 123//122 125//125 140//140
f 140//140 125//125 130//130
f 140//140 130//130 142//142
f 124//124 129//129 126//126
f 128//128 129//129 144//143
f 146//144 130//130 127//127
f 146//144 127//127 145//145
f 143//146 130//130 146//144
f 128//128 145//145 127//127
f 145//145 128//128 144//143
f 132//131 147//147 148//148
f 133//133 131//132 148//148
f 131//132 132//131 148//148
f 133//133 65//63 76//78
f 147//147 132//131 134//134
f 149//149 150//150 147//147
f 147//147 150//150 148//148
f 133//133 148//148 150//150
f 134//134 135//135 149//149
f 147//147 134//134 149//149
f 150//150 85//87 86//86
f 150//150 135//135 85//87
f 150//150 149//149 135//135
f 133//133 86//86 65//63
f 150//150 86//86 133//133
f 153//151 154//152 151//153
f 154//152 152//154 151//153
f 153//151 151//153 157//155
f 155//156 158//157 156//158
f 151//153 158//157 155//156
f 158//157 151//153 152//154
f 155//156 159//159 151//153
f 151//153 159//159 157//155
f 155//156 156//158 159//159
f 160//160 156//158 161//161
f 157//155 159//159 162//162
f 159//159 156//158 160//160
f 159//159 160//160 162//162
f 160//160 163//163 162//162
f 109//108 136//136 138//139
f 109//108 138//139 119//119
f 136//136 137//137 138//139
f 141//141 122//123 123//122
f 141//141 137//137 122//123
f 142//142 164//164 140//140
f 142//142 165//165 164//164
f 164//164 141//141 140//140
f 164//164 166//166 141//141
f 139//138 138//139 182//167
f 142//142 167//168 165//165
f 124//124 139//138 129//129
f 143//146 142//142 130//130
f 167//168 142//142 143//146
f 145//145 168//169 146//144
f 143//146 146//144 167//168
f 169//170 146//144 168//169
f 167//168 146//144 169//170
f 145//145 144//143 168//169
f 168//169 170//171 169//170
f 129//129 170//171 144//143
f 144//143 170//171 168//169
f 172//172 171//173 154//152
f 154//152 173//174 152//154
f 154//152 153//151 172//172
f 174//175 156//158 158//157
f 174//175 161//161 156//158
f 152//154 176//176 158//157
f 152//154 173//174 176//176
f 176//176 174//175 158//157
f 176//176 173//174 171//173
f 176//176 177//177 174//175
f 177//177 175//178 174//175
f 178//179 153//151 157//155
f 153//151 178//179 172//172
f 175//178 161//161 174//175
f 157//155 162//162 179//180
f 180//181 163//163 160//160
f 180//181 160//160 161//161
f 161//161 175//178 180//181
f 162//162 163//163 179//180
f 164//164 165//165 166//166
f 141//141 166//166 181//182
f 141//141 181//182 137//137
f 181//182 138//139 137//137
f 181//182 182//167 138//139
f 165//165 181//182 166//166
f 181//182 165//165 182//167
f 169//170 165//165 167//168
f 169//170 182//167 165//165
f 182//167 169//170 170//171
f 139//138 182//167 170//171
f 129//129 139//138 170//171
f 171//173 183//183 176//176
f 171//173 172//172 183//183
f 183//183 177//177 176//176
f 172//172 178//179 184//184
f 172//172 185//185 183//183
f 178//179 157//155 186//186
f 184//184 178//179 187//187
f 186//186 157//155 179//180
f 189//188 175//178 177//177
f 188//189 163//163 190//190
f 163//163 188//189 179//180
f 189//188 191//191 180//181
f 175//178 189//188 180//181
f 178//179 186//186 187//187
f 172//172 184//184 185//185
f 192//192 177//177 185//185
f 185//185 177//177 183//183
f 188//189 186//186 179//180
f 189//188 177//177 192//192
f 188//189 190//190 194//193
f 193//194 186//186 188//189
f 193//194 188//189 194//193
f 190//190 195//195 194//193
f 180//181 191//191 190//190
f 180//181 190//190 163//163
f 197//196 184//184 187//187
f 184//184 197//196 185//185
f 185//185 197//196 198//197
f 186//186 193//194 187//187
f 193//194 197//196 187//187
f 199//198 197//196 193//194
f 199//198 198//197 197//196
f 192//192 185//185 198//197
f 199//198 193//194 194//193
f 199//198 194//193 196//199
f 196//199 192//192 199//198
f 196//199 189//188 192//192
f 195//195 190//190 191//191
f 191//191 196//199 195//195
f 195//195 196//199 194//193
f 189//188 196//199 191//191
f 198//197 199//198 192//192
