# Blender v2.78 (sub 0) OBJ File: 'exporter.blend'
# www.blender.org
o FJ2062.obj_grp1.832
v -0.434765 -0.694708 -0.176514
v -0.433304 -0.703217 -0.140116
v -0.433428 -0.719105 -0.116547
v -0.434388 -0.715840 -0.114679
v -0.436331 -0.707156 -0.146497
v -0.437134 -0.721019 -0.116680
v -0.435577 -0.718449 -0.114132
v -0.439206 -0.696970 -0.187973
v -0.437183 -0.690997 -0.182963
v -0.436066 -0.693846 -0.160861
v -0.437461 -0.698568 -0.172458
v -0.439913 -0.700726 -0.158556
v -0.436350 -0.702085 -0.139249
v -0.436832 -0.714031 -0.115314
v -0.438533 -0.715925 -0.114245
v -0.439215 -0.719728 -0.115555
v -0.439811 -0.705606 -0.144225
v -0.438316 -0.716118 -0.114487
v -0.439702 -0.717165 -0.115560
v -0.441290 -0.698223 -0.196167
v -0.441144 -0.697470 -0.188175
v -0.441486 -0.698066 -0.196141
v -0.439583 -0.693826 -0.194066
v -0.440120 -0.689928 -0.186271
v -0.443648 -0.691724 -0.194948
v -0.445182 -0.697441 -0.191785
v -0.436264 -0.692541 -0.170928
v -0.438516 -0.692326 -0.167730
v -0.440452 -0.697912 -0.168539
v -0.441714 -0.694017 -0.172810
v -0.439712 -0.699501 -0.150258
v -0.440396 -0.716015 -0.118757
v -0.439702 -0.717165 -0.115560
v -0.439702 -0.717165 -0.115560
v -0.445293 -0.695568 -0.201198
v -0.449361 -0.705623 -0.203967
v -0.445220 -0.699964 -0.195186
v -0.440371 -0.697799 -0.168915
v -0.445568 -0.693373 -0.191283
v -0.449198 -0.701882 -0.204998
v -0.452120 -0.701299 -0.204574
v -0.447045 -0.703826 -0.200239
v -0.453750 -0.710536 -0.201922
v -0.449131 -0.695863 -0.198355
v -0.448224 -0.697992 -0.195410
v -0.449543 -0.702785 -0.197798
v -0.445220 -0.699964 -0.195186
v -0.448224 -0.697992 -0.195410
v -0.445220 -0.699964 -0.195186
v -0.448933 -0.696006 -0.198316
v -0.448224 -0.697992 -0.195410
v -0.457967 -0.710210 -0.204123
v -0.457976 -0.712023 -0.197415
v -0.453832 -0.707597 -0.198479
v -0.451045 -0.700614 -0.198125
v -0.455392 -0.704585 -0.199205
v -0.454846 -0.702288 -0.201630
v -0.461594 -0.712527 -0.199892
v -0.460317 -0.709598 -0.194739
v -0.453832 -0.707597 -0.198479
v -0.457368 -0.707630 -0.197490
v -0.457227 -0.705518 -0.199264
v -0.455413 -0.704569 -0.199171
v -0.463760 -0.708121 -0.200432
v -0.461629 -0.712419 -0.199848
v -0.460945 -0.706898 -0.200649
v -0.459614 -0.706338 -0.199018
v -0.463062 -0.711926 -0.197339
v -0.459346 -0.707043 -0.196794
v -0.458761 -0.706813 -0.197779
v -0.458761 -0.706813 -0.197779
v -0.460503 -0.705893 -0.198038
v -0.459653 -0.706250 -0.199084
v -0.460689 -0.706044 -0.197976
v -0.461033 -0.704770 -0.195480
v -0.459341 -0.707034 -0.196788
v -0.466123 -0.708362 -0.198445
v -0.466266 -0.707817 -0.193663
v -0.464218 -0.690861 -0.190669
v -0.468453 -0.681633 -0.185854
v -0.467084 -0.698477 -0.189570
v -0.466482 -0.688724 -0.193785
v -0.464304 -0.690279 -0.190543
v -0.471688 -0.683336 -0.188216
v -0.470807 -0.690979 -0.191177
v -0.465932 -0.668425 -0.187979
v -0.467131 -0.670388 -0.190414
v -0.468405 -0.649364 -0.182921
v -0.468452 -0.680542 -0.186500
v -0.469669 -0.682350 -0.192408
v -0.472406 -0.648661 -0.187021
v -0.470402 -0.652027 -0.189198
v -0.467040 -0.633399 -0.187347
v -0.471062 -0.659774 -0.184053
v -0.470517 -0.629866 -0.189407
v -0.470209 -0.660515 -0.189789
v -0.472162 -0.648454 -0.184550
v -0.468578 -0.649609 -0.183278
v -0.470623 -0.633831 -0.183001
v -0.468286 -0.612926 -0.194538
v -0.467837 -0.611560 -0.192781
v -0.467833 -0.617075 -0.191037
v -0.469838 -0.617972 -0.191961
v -0.469236 -0.613349 -0.187828
v -0.467961 -0.625929 -0.184543
v -0.471551 -0.616977 -0.186308
v -0.472321 -0.647974 -0.184513
v -0.470665 -0.612937 -0.195991
v -0.468970 -0.611504 -0.195071
v -0.473283 -0.613184 -0.194472
v -0.472534 -0.616486 -0.191471
v -0.470966 -0.609617 -0.193823
v -0.471864 -0.610430 -0.191102
v -0.473487 -0.611658 -0.192165
vn 0.9889 -0.0759 -0.1274
vn 0.8637 0.4707 0.1804
vn 0.8450 -0.5026 0.1826
vn -0.2067 -0.9765 0.0616
vn -0.1946 -0.8947 -0.4020
vn 0.6017 0.3689 0.7085
vn 0.1412 -0.3640 0.9206
vn 0.7103 0.6988 -0.0841
vn 0.8627 0.4936 0.1098
vn 0.1857 -0.9702 -0.1556
vn 0.2421 -0.9668 0.0820
vn -0.8578 -0.5059 -0.0904
vn -0.0716 0.8939 0.4424
vn -0.7342 0.5978 0.3219
vn -0.0584 0.7884 0.6124
vn -0.8062 -0.5423 -0.2363
vn -0.8772 -0.4194 -0.2336
vn -0.1822 -0.0375 0.9826
vn 0.7721 -0.1513 -0.6172
vn 0.1318 -0.9864 0.0980
vn 0.4976 -0.8530 0.1573
vn 0.8157 0.3158 -0.4846
vn 0.0185 0.9925 -0.1211
vn -0.0725 0.9534 -0.2930
vn -0.6229 -0.5992 0.5029
vn 0.3505 0.9306 0.1050
vn -0.1849 0.9459 0.2667
vn -0.4941 -0.8411 -0.2200
vn -0.8146 0.5386 0.2153
vn -0.9904 0.1031 0.0916
vn -0.4110 -0.4115 0.8134
vn -0.9803 -0.1434 0.1362
vn -0.8419 0.4288 0.3277
vn 0.2674 0.5604 -0.7839
vn 0.3894 -0.8741 0.2905
vn -0.7769 -0.6195 -0.1124
vn -0.9009 0.3446 0.2638
vn -0.8951 0.3738 0.2430
vn 0.3591 0.0997 -0.9280
vn -0.3758 0.4544 -0.8076
vn 0.5662 -0.5122 -0.6458
vn 0.6099 -0.7623 0.2167
vn 0.4862 -0.8481 -0.2106
vn -0.4365 0.8120 -0.3875
vn 0.0459 -0.3881 0.9205
vn -0.4248 -0.3077 0.8514
vn -0.3008 -0.3577 0.8841
vn -0.4531 -0.7412 0.4952
vn -0.4921 -0.6895 0.5314
vn -0.7900 0.3671 0.4911
vn -0.8488 0.1532 0.5060
vn -0.2220 -0.4380 -0.8711
vn 0.3181 -0.7953 0.5161
vn -0.7327 0.6250 0.2694
vn -0.4808 0.0689 0.8741
vn -0.4503 0.4720 0.7579
vn -0.7015 0.7126 -0.0115
vn -0.3028 -0.8987 -0.3173
vn 0.2643 0.1628 0.9506
vn 0.2909 0.3750 0.8802
vn 0.3958 -0.3090 0.8648
vn -0.2895 0.7275 0.6220
vn 0.2505 0.3382 0.9071
vn -0.7062 -0.3507 -0.6151
vn -0.5233 0.1592 -0.8371
vn -0.4055 0.9024 0.1457
vn -0.4351 -0.8486 0.3008
vn 0.5247 0.5596 0.6415
vn 0.3908 0.8089 0.4393
vn -0.1941 0.9798 0.0471
vn -0.2560 0.8384 0.4812
vn 0.4243 0.8717 0.2451
vn 0.4581 0.8862 0.0690
vn 0.4672 0.6990 -0.5414
vn 0.9558 0.2631 0.1310
vn 0.7040 0.6674 -0.2428
vn -0.8595 -0.3125 -0.4046
vn -0.6172 -0.5346 0.5772
vn 0.9830 0.1296 0.1299
vn 0.7028 -0.0974 0.7047
vn -0.2471 -0.3328 0.9100
vn 0.4811 0.2804 -0.8306
vn 0.7696 -0.0307 0.6378
vn -0.8764 -0.1431 0.4599
vn -0.9892 -0.1426 -0.0335
vn 0.9832 0.0617 -0.1719
vn 0.9114 0.0207 0.4110
vn 0.7206 0.1070 -0.6850
vn -0.2558 -0.1584 0.9537
vn -0.5512 0.0604 -0.8322
vn -0.9130 0.0213 -0.4075
vn -0.3046 0.1058 -0.9466
vn 0.9149 0.0147 -0.4033
vn -0.4907 -0.0765 0.8679
vn -0.1129 -0.1935 -0.9746
vn -0.6489 0.0571 -0.7587
vn -0.6186 -0.0471 0.7843
vn -0.1335 -0.0438 0.9901
vn -0.3384 0.0871 0.9370
vn 0.9424 0.0927 -0.3213
vn 0.8608 0.5088 0.0124
vn -0.1885 -0.3831 -0.9043
vn 0.0749 -0.3709 -0.9257
vn 0.4193 0.5708 0.7059
vn 0.6694 0.1481 0.7280
vn -0.4960 0.2922 0.8177
vn -0.7324 -0.0290 0.6802
vn 0.0155 -0.0492 -0.9987
vn 0.6189 0.3897 -0.6820
vn -0.8217 -0.1038 -0.5604
vn -0.5277 -0.3425 -0.7773
vn -0.1340 0.9479 -0.2892
vn -0.2684 0.8365 0.4777
vn -0.9009 0.4328 0.0319
s 1
f 1//1 2//2 3//3
f 6//4 5//5 3//3
f 2//2 4//6 3//3
f 6//4 3//3 7//7
f 4//6 7//7 3//3
f 9//8 10//9 1//1
f 10//9 2//2 1//1
f 1//1 11//10 8//11
f 11//10 5//5 12//12
f 2//2 10//9 13//13
f 1//1 5//5 11//10
f 1//1 3//3 5//5
f 15//14 14//15 13//13
f 13//13 14//15 2//2
f 16//16 17//17 6//4
f 4//6 2//2 14//15
f 4//6 14//15 18//18
f 7//7 4//6 18//18
f 1//1 8//11 20//19
f 21//20 22//21 8//11
f 23//22 24//23 9//8
f 23//22 9//8 1//1
f 24//23 23//22 25//24
f 26//25 21//20 11//10
f 21//20 8//11 11//10
f 24//23 27//26 9//8
f 28//27 27//26 24//23
f 29//28 11//10 12//12
f 28//27 13//13 27//26
f 31//29 13//13 28//27
f 5//5 17//17 12//12
f 17//17 5//5 6//4
f 32//30 31//29 17//17
f 31//29 32//30 15//14
f 31//29 15//14 13//13
f 17//17 16//16 32//30
f 7//7 33//31 6//4
f 18//18 33//31 7//7
f 16//16 34//32 32//30
f 32//30 19//33 15//14
f 35//34 23//22 20//19
f 1//1 20//19 23//22
f 35//34 25//24 23//22
f 37//35 22//21 21//20
f 26//25 11//10 38//36
f 39//37 26//25 30//38
f 26//25 38//36 30//38
f 39//37 30//38 24//23
f 29//28 38//36 11//10
f 24//23 30//38 28//27
f 30//38 31//29 28//27
f 30//38 38//36 12//12
f 12//12 31//29 30//38
f 12//12 17//17 31//29
f 40//39 41//40 35//34
f 36//41 42//42 43//43
f 20//19 42//42 36//41
f 22//21 37//35 42//42
f 20//19 40//39 35//34
f 36//41 40//39 20//19
f 35//34 44//44 25//24
f 46//45 42//42 37//35
f 45//46 46//45 47//47
f 48//48 49//49 21//20
f 26//25 48//48 21//20
f 50//50 51//51 39//37
f 26//25 39//37 51//51
f 24//23 25//24 39//37
f 52//52 36//41 43//43
f 52//52 40//39 36//41
f 41//40 44//44 35//34
f 46//45 53//53 42//42
f 54//54 53//53 46//45
f 46//45 45//46 55//55
f 55//55 50//50 56//56
f 55//55 51//51 50//50
f 25//24 44//44 39//37
f 52//52 41//40 40//39
f 44//44 41//40 57//57
f 58//58 52//52 43//43
f 53//53 58//58 43//43
f 56//56 50//50 57//57
f 42//42 53//53 43//43
f 46//45 55//55 54//54
f 60//59 61//60 53//53
f 59//61 53//53 61//60
f 56//56 54//54 55//55
f 57//57 62//62 56//56
f 62//62 61//60 56//56
f 61//60 60//59 63//63
f 52//52 58//58 65//64
f 64//65 41//40 52//52
f 64//65 66//66 41//40
f 66//66 57//57 41//40
f 66//66 62//62 57//57
f 58//58 53//53 68//67
f 61//60 69//68 59//61
f 61//60 70//69 69//68
f 67//70 71//71 62//62
f 72//72 69//68 70//69
f 70//69 73//73 72//72
f 70//69 61//60 62//62
f 66//66 67//70 62//62
f 74//74 75//75 76//76
f 69//68 75//75 59//61
f 65//64 77//77 64//65
f 52//52 65//64 64//65
f 68//67 77//77 65//64
f 66//66 74//74 67//70
f 74//74 66//66 64//65
f 59//61 68//67 53//53
f 59//61 78//78 68//67
f 59//61 75//75 79//79
f 74//74 79//79 75//75
f 79//79 80//80 59//61
f 81//81 59//61 80//80
f 74//74 64//65 82//82
f 77//77 68//67 78//78
f 59//61 81//81 78//78
f 74//74 82//82 79//79
f 79//79 83//83 80//80
f 82//82 64//65 77//77
f 78//78 81//81 84//84
f 78//78 84//84 85//85
f 78//78 85//85 77//77
f 82//82 86//86 79//79
f 83//83 86//86 88//87
f 82//82 87//88 86//86
f 81//81 89//89 84//84
f 83//83 88//87 80//80
f 90//90 77//77 85//85
f 90//90 82//82 77//77
f 90//90 85//85 91//91
f 92//92 87//88 82//82
f 92//92 82//82 90//90
f 87//88 93//93 86//86
f 93//93 88//87 86//86
f 94//94 84//84 89//89
f 87//88 92//92 93//93
f 93//93 92//92 95//95
f 90//90 91//91 96//96
f 84//84 94//94 97//97
f 89//89 98//98 94//94
f 94//94 98//98 99//99
f 100//100 101//101 102//102
f 93//93 95//95 103//103
f 103//103 102//102 93//93
f 95//95 92//92 91//91
f 102//102 101//101 93//93
f 104//104 105//105 101//101
f 91//91 85//85 84//84
f 96//96 91//91 92//92
f 88//87 105//105 99//99
f 93//93 101//101 105//105
f 93//93 105//105 88//87
f 104//104 106//106 105//105
f 84//84 107//107 91//91
f 102//102 108//108 109//109
f 108//108 102//102 103//103
f 110//110 108//108 103//103
f 111//111 110//110 103//103
f 101//101 100//100 109//109
f 101//101 109//109 112//112
f 103//103 95//95 111//111
f 101//101 112//112 104//104
f 113//113 104//104 112//112
f 106//106 104//104 113//113
f 111//111 95//95 107//107
f 111//111 107//107 114//114
f 107//107 106//106 114//114
f 99//99 97//97 94//94
f 107//107 97//97 99//99
f 95//95 91//91 107//107
f 107//107 99//99 106//106
f 105//105 106//106 99//99
f 110//110 111//111 114//114
f 108//108 112//112 109//109
f 112//112 108//108 110//110
f 114//114 112//112 110//110
f 113//113 112//112 114//114
f 106//106 113//113 114//114
