# Blender v2.78 (sub 0) OBJ File: 'exporter.blend'
# www.blender.org
o FJ2064.obj_grp1.834
v 0.482188 -0.793660 -0.283759
v 0.483850 -0.792205 -0.284557
v 0.483127 -0.794667 -0.284533
v 0.484036 -0.791055 -0.280739
v 0.482171 -0.792287 -0.281883
v 0.481204 -0.801348 -0.273109
v 0.482579 -0.802898 -0.274232
v 0.485027 -0.795251 -0.284746
v 0.480670 -0.800836 -0.269453
v 0.486225 -0.792512 -0.284006
v 0.485830 -0.791177 -0.280777
v 0.487778 -0.795363 -0.282800
v 0.487887 -0.792807 -0.279866
v 0.485804 -0.791274 -0.280165
v 0.485468 -0.792839 -0.277005
v 0.484562 -0.804508 -0.273216
v 0.488415 -0.794448 -0.280058
v 0.488020 -0.800128 -0.273258
v 0.487792 -0.800933 -0.272464
v 0.468566 -0.833454 -0.233442
v 0.484321 -0.801555 -0.265797
v 0.486288 -0.803100 -0.266526
v 0.473838 -0.828155 -0.232869
v 0.473031 -0.834431 -0.234524
v 0.618339 -0.697066 -0.299859
v 0.616743 -0.697020 -0.298459
v 0.619178 -0.694286 -0.298906
v 0.618094 -0.698979 -0.298937
v 0.620855 -0.696557 -0.299877
v 0.625615 -0.700216 -0.296833
v 0.617478 -0.694415 -0.296437
v 0.617522 -0.696819 -0.294954
v 0.620134 -0.693294 -0.296148
v 0.623137 -0.694270 -0.296967
v 0.618495 -0.694536 -0.294423
v 0.470930 -0.832899 -0.236876
v 0.475810 -0.829526 -0.235068
v 0.630320 -0.706124 -0.288935
v 0.627737 -0.698443 -0.295577
v 0.629725 -0.701898 -0.285849
v 0.626068 -0.695720 -0.291910
v 0.469438 -0.833779 -0.234568
v 0.468072 -0.832086 -0.232894
v 0.471269 -0.834246 -0.231295
v 0.468398 -0.832193 -0.232887
v 0.468786 -0.833376 -0.233355
v 0.470815 -0.827155 -0.233946
v 0.469143 -0.831710 -0.230965
v 0.652421 -0.713447 -0.277468
v 0.471589 -0.834723 -0.234413
v 0.473366 -0.834549 -0.232485
v 0.470308 -0.834610 -0.233037
v 0.469438 -0.833779 -0.234568
v 0.470308 -0.834610 -0.233037
v 0.471589 -0.834723 -0.234413
v 0.469189 -0.831747 -0.231016
v 0.469840 -0.830735 -0.230252
v 0.472749 -0.833164 -0.230600
v 0.472749 -0.833164 -0.230600
v 0.474110 -0.832240 -0.231252
v 0.471385 -0.829917 -0.230332
v 0.474110 -0.832240 -0.231252
v 0.475810 -0.829526 -0.235068
v 0.600373 -0.734682 -0.281395
v 0.597875 -0.735066 -0.279864
v 0.599593 -0.736558 -0.281207
v 0.598430 -0.737434 -0.280077
v 0.602290 -0.739771 -0.278612
v 0.599593 -0.736558 -0.281207
v 0.597337 -0.736313 -0.278342
v 0.598345 -0.733637 -0.277194
v 0.607157 -0.757661 -0.247907
v 0.606594 -0.751657 -0.248625
v 0.599520 -0.732895 -0.279421
v 0.601382 -0.736455 -0.281404
v 0.601495 -0.732725 -0.277438
v 0.603669 -0.734685 -0.279504
v 0.651538 -0.711808 -0.276351
v 0.560913 -0.775927 -0.265364
v 0.561483 -0.777566 -0.264721
v 0.557817 -0.776262 -0.263570
v 0.558951 -0.773993 -0.264177
v 0.559522 -0.773220 -0.260245
v 0.558294 -0.782392 -0.251972
v 0.558106 -0.785786 -0.252942
v 0.562193 -0.773772 -0.264018
v 0.561284 -0.772528 -0.261959
v 0.607227 -0.756411 -0.252133
v 0.609145 -0.756790 -0.251656
v 0.606284 -0.756270 -0.247518
v 0.611735 -0.754459 -0.251366
v 0.650062 -0.715726 -0.279775
v 0.650022 -0.711908 -0.274223
v 0.559867 -0.784805 -0.256355
v 0.562449 -0.791934 -0.248873
v 0.564318 -0.776019 -0.262846
v 0.564690 -0.784414 -0.253662
v 0.562074 -0.772925 -0.259519
v 0.563879 -0.773478 -0.260182
v 0.561259 -0.781117 -0.250314
v 0.647845 -0.716776 -0.275063
v 0.648113 -0.717432 -0.277173
v 0.648085 -0.714237 -0.273371
v 0.563365 -0.786289 -0.246525
v 0.556896 -0.793909 -0.245273
v 0.556265 -0.792446 -0.241807
v 0.559134 -0.794011 -0.247325
v 0.563155 -0.793077 -0.243088
v 0.559501 -0.793710 -0.238505
v 0.559134 -0.794011 -0.247325
v 0.557442 -0.802089 -0.240017
v 0.553578 -0.799033 -0.237564
v 0.651305 -0.716352 -0.276984
v 0.651980 -0.714289 -0.277778
v 0.554326 -0.801203 -0.240118
v 0.555303 -0.802018 -0.240095
v 0.560068 -0.799858 -0.239275
v 0.555510 -0.797165 -0.236084
v 0.611488 -0.752451 -0.248698
v 0.651343 -0.714688 -0.274660
v 0.558660 -0.800961 -0.238165
v 0.554515 -0.801681 -0.238088
v 0.554682 -0.799802 -0.236214
v 0.556634 -0.800719 -0.236380
v 0.558152 -0.797812 -0.235713
v 0.610847 -0.757278 -0.246110
v 0.609299 -0.757956 -0.245400
v 0.607292 -0.757459 -0.248095
v 0.608311 -0.757036 -0.245127
v 0.609159 -0.754825 -0.244939
v 0.608052 -0.757600 -0.245885
v 0.608311 -0.757036 -0.245127
v 0.608052 -0.757600 -0.245885
v 0.609306 -0.757755 -0.245446
v 0.607963 -0.757910 -0.245573
v 0.609151 -0.754849 -0.244955
v 0.610062 -0.756698 -0.244781
v 0.610086 -0.756690 -0.244753
v 0.609306 -0.757755 -0.245446
vn -0.4731 -0.3114 -0.8241
vn -0.8607 0.0583 -0.5058
vn -0.1965 0.6315 -0.7501
vn -0.8243 0.5642 -0.0471
vn -0.2939 0.9473 0.1272
vn -0.9355 -0.1666 -0.3117
vn -0.5432 -0.6271 -0.5582
vn 0.1599 -0.3881 -0.9076
vn -0.8889 0.4410 0.1239
vn 0.3686 0.9295 0.0144
vn 0.5577 0.5027 -0.6604
vn 0.8135 -0.2398 -0.5298
vn 0.7992 0.5945 0.0882
vn 0.5380 0.7804 0.3186
vn 0.1075 0.8076 0.5799
vn 0.3436 -0.7883 -0.5105
vn 0.9881 0.1433 -0.0554
vn 0.9120 -0.3544 -0.2067
vn 0.9824 -0.1848 -0.0276
vn -0.8455 -0.2190 -0.4869
vn 0.8734 0.2428 0.4221
vn 0.3117 0.7068 0.6350
vn 0.5194 0.5248 0.6744
vn -0.0265 0.4071 0.9130
vn -0.3203 -0.0351 -0.9467
vn -0.9510 -0.0844 -0.2973
vn -0.1993 0.7434 -0.6384
vn -0.4643 -0.7377 -0.4901
vn 0.2367 0.0744 -0.9687
vn 0.3375 -0.4515 -0.8260
vn -0.7990 0.6011 0.0185
vn -0.8243 -0.2463 0.5097
vn 0.4858 0.7742 -0.4058
vn -0.0201 0.9978 0.0628
vn -0.5139 0.5498 0.6585
vn 0.4498 -0.8393 -0.3053
vn -0.3847 -0.6851 -0.6186
vn 0.9184 -0.3945 0.0293
vn -0.4514 -0.8829 -0.1294
vn 0.6444 0.2798 -0.7116
vn -0.4230 0.2752 0.8634
vn 0.2276 0.8949 0.3839
vn -0.5744 -0.5185 -0.6334
vn -0.2425 -0.7431 0.6237
vn -0.6694 -0.5297 0.5208
vn -0.6640 -0.6502 0.3694
vn -0.9738 0.2101 -0.0871
vn -0.5010 0.7272 0.4692
vn -0.7176 0.5538 0.4224
vn 0.6964 0.3522 -0.6252
vn 0.0702 -0.9598 -0.2719
vn 0.5747 -0.7925 0.2041
vn -0.3434 -0.8358 -0.4285
vn -0.6197 -0.7816 -0.0716
vn -0.4062 -0.8715 0.2746
vn -0.5151 -0.7486 -0.4174
vn -0.5294 -0.4822 0.6981
vn -0.1299 -0.2530 0.9587
vn 0.0858 -0.1179 0.9893
vn 0.4475 -0.6445 0.6200
vn 0.8509 -0.4167 0.3200
vn 0.5733 0.2201 0.7892
vn 0.7950 0.2879 0.5340
vn -0.0153 0.4598 -0.8879
vn -0.4734 0.0107 -0.8808
vn -0.8290 0.2628 -0.4936
vn -0.6352 -0.5272 -0.5645
vn -0.1103 -0.6780 -0.7267
vn 0.3328 -0.7066 -0.6245
vn 0.3607 -0.2361 -0.9023
vn -0.9951 -0.0961 -0.0247
vn -0.8197 -0.5557 0.1387
vn -0.6724 0.6890 0.2705
vn -0.4946 0.5860 0.6418
vn -0.2865 0.8716 -0.3979
vn 0.8203 0.3812 -0.4264
vn 0.2377 0.9542 0.1818
vn 0.7991 0.5871 0.1297
vn 0.0269 0.0079 -0.9996
vn -0.8850 -0.1041 -0.4539
vn -0.5669 0.6119 -0.5515
vn -0.5928 0.7589 0.2696
vn 0.1754 -0.5360 -0.8258
vn -0.8756 0.3841 0.2930
vn -0.9115 -0.2129 -0.3518
vn 0.4219 0.6246 -0.6572
vn 0.0643 0.9842 -0.1651
vn -0.3830 -0.8533 -0.3537
vn 0.3096 -0.8692 -0.3856
vn 0.9198 -0.3188 -0.2286
vn 0.4668 -0.5339 -0.7050
vn 0.3247 0.5294 0.7838
vn -0.4534 -0.6313 -0.6292
vn 0.5824 -0.6486 -0.4900
vn 0.8956 0.0062 -0.4449
vn 0.9722 -0.1851 -0.1434
vn 0.1241 0.8810 0.4565
vn 0.7569 0.6363 0.1491
vn -0.0570 0.7229 0.6886
vn -0.8690 -0.2361 0.4348
vn -0.1893 -0.7717 0.6072
vn -0.1153 -0.9918 -0.0555
vn -0.8718 -0.1705 -0.4592
vn -0.8406 0.5072 0.1901
vn 0.7271 0.4135 0.5480
vn 0.0793 -0.6872 -0.7221
vn 0.9512 -0.1200 0.2842
vn 0.2944 0.5467 0.7838
vn -0.1504 -0.1523 0.9768
vn -0.6080 -0.4720 -0.6384
vn 0.2454 -0.9382 -0.2439
vn 0.7070 -0.7067 0.0271
vn 0.9349 -0.1884 -0.3007
vn -0.7822 -0.4357 -0.4453
vn -0.3046 -0.8697 -0.3883
vn -0.9643 0.0885 0.2497
vn 0.8430 -0.5222 0.1291
vn -0.4295 0.4149 0.8021
vn 0.7619 0.5126 0.3960
vn 0.7167 -0.2905 0.6340
vn 0.5685 -0.7016 0.4296
vn -0.5097 -0.8017 0.3122
vn -0.4721 -0.2663 0.8404
vn 0.1682 -0.6269 0.7607
vn 0.4224 0.0509 0.9050
vn 0.8191 -0.5465 0.1744
vn 0.1183 -0.9802 -0.1585
vn 0.0012 -0.9893 -0.1456
vn -0.7125 0.2072 0.6703
vn 0.0702 0.5533 0.8300
vn -0.7574 -0.5064 0.4122
vn -0.7649 -0.3637 0.5317
vn -0.2820 -0.9584 0.0435
vn -0.3181 -0.0676 0.9456
vn -0.1939 -0.2377 0.9518
vn -0.2494 -0.2310 0.9404
vn 0.7690 -0.1570 0.6197
vn 0.4534 -0.6963 0.5564
vn -0.0533 -0.5612 0.8259
s 1
f 3//1 1//2 2//3
f 1//2 5//4 2//3
f 2//3 5//4 4//5
f 1//2 3//1 6//6
f 7//7 6//6 3//1
f 7//7 3//1 8//8
f 9//9 1//2 6//6
f 8//8 3//1 2//3
f 11//10 10//11 2//3
f 4//5 11//10 2//3
f 10//11 8//8 2//3
f 12//12 8//8 10//11
f 1//2 9//9 5//4
f 5//4 9//9 4//5
f 11//10 13//13 10//11
f 13//13 11//10 14//14
f 14//14 15//15 13//13
f 4//5 15//15 11//10
f 7//7 8//8 16//16
f 12//12 16//16 8//8
f 12//12 10//11 13//13
f 12//12 13//13 17//17
f 18//18 12//12 17//17
f 19//19 17//17 13//13
f 20//20 6//6 7//7
f 16//16 12//12 19//19
f 12//12 18//18 19//19
f 13//13 22//21 19//19
f 21//22 23//23 22//21
f 22//21 13//13 21//22
f 15//15 4//5 9//9
f 21//22 13//13 15//15
f 61//24 23//23 21//22
f 25//25 26//26 27//27
f 25//25 28//28 26//26
f 29//29 28//28 25//25
f 30//30 28//28 29//29
f 26//26 31//31 27//27
f 26//26 28//28 32//32
f 25//25 27//27 29//29
f 29//29 27//27 34//33
f 27//27 31//31 33//34
f 26//26 32//32 31//31
f 31//31 32//32 35//35
f 27//27 33//34 34//33
f 16//16 24//36 36//37
f 19//19 22//21 37//38
f 38//39 32//32 28//28
f 29//29 39//40 30//30
f 31//31 35//35 33//34
f 32//32 40//41 35//35
f 39//40 29//29 34//33
f 34//33 33//34 41//42
f 16//16 19//19 24//36
f 30//30 38//39 28//28
f 33//34 35//35 41//42
f 7//7 16//16 36//37
f 20//20 7//7 36//37
f 36//37 42//43 20//20
f 44//44 45//45 46//46
f 6//6 20//20 43//47
f 6//6 43//47 9//9
f 9//9 43//47 47//48
f 15//15 9//9 47//48
f 61//24 15//15 47//48
f 48//49 47//48 43//47
f 61//24 21//22 15//15
f 49//50 39//40 34//33
f 40//41 41//42 35//35
f 24//36 50//51 36//37
f 50//51 24//36 51//52
f 36//37 52//53 42//43
f 53//54 54//55 46//46
f 36//37 55//56 52//53
f 54//55 44//44 46//46
f 50//51 51//52 54//55
f 54//55 51//52 44//44
f 45//45 44//44 56//57
f 56//57 44//44 57//58
f 19//19 51//52 24//36
f 57//58 44//44 58//59
f 19//19 37//38 51//52
f 51//52 59//60 44//44
f 37//38 60//61 51//52
f 61//24 62//62 23//23
f 61//24 47//48 48//49
f 61//24 57//58 58//59
f 22//21 23//23 63//63
f 23//23 62//62 63//63
f 59//60 51//52 60//61
f 62//62 61//24 58//59
f 64//64 66//65 65//66
f 65//66 66//65 67//67
f 67//67 69//68 68//69
f 68//69 69//68 75//70
f 67//67 70//71 65//66
f 72//72 70//71 67//67
f 71//73 70//71 73//74
f 65//66 74//75 64//64
f 64//64 75//70 66//65
f 77//76 64//64 74//75
f 74//75 76//77 77//76
f 64//64 77//76 75//70
f 70//71 71//73 65//66
f 65//66 71//73 74//75
f 74//75 71//73 76//77
f 49//50 34//33 78//78
f 78//78 34//33 41//42
f 79//79 81//80 82//81
f 81//80 83//82 82//81
f 81//80 79//79 80//83
f 81//80 84//84 83//82
f 85//85 84//84 81//80
f 79//79 82//81 86//86
f 86//86 82//81 87//87
f 82//81 83//82 87//87
f 68//69 88//88 67//67
f 68//69 89//89 88//88
f 68//69 75//70 77//76
f 68//69 77//76 91//90
f 92//91 39//40 49//50
f 78//78 41//42 93//92
f 94//93 85//85 81//80
f 81//80 80//83 94//93
f 94//93 80//83 95//94
f 80//83 79//79 96//95
f 96//95 79//79 86//86
f 95//94 80//83 96//95
f 96//95 97//96 95//94
f 87//87 83//82 98//97
f 96//95 86//86 99//98
f 99//98 86//86 87//87
f 83//82 84//84 100//99
f 99//98 87//87 98//97
f 90//100 70//71 72//72
f 38//39 30//30 92//91
f 32//32 38//39 101//101
f 30//30 39//40 92//91
f 41//42 40//41 93//92
f 100//99 98//97 83//82
f 97//96 96//95 99//98
f 90//100 73//74 70//71
f 76//77 71//73 73//74
f 92//91 102//102 38//39
f 85//85 94//93 105//103
f 85//85 105//103 106//104
f 106//104 84//84 85//85
f 104//105 99//98 100//99
f 100//99 99//98 98//97
f 94//93 95//94 107//106
f 97//96 104//105 108//107
f 97//96 108//107 95//94
f 104//105 97//96 99//98
f 109//108 104//105 100//99
f 101//101 103//109 32//32
f 32//32 103//109 40//41
f 105//103 94//93 110//110
f 111//111 107//106 95//94
f 100//99 84//84 106//104
f 102//102 92//91 113//112
f 38//39 102//102 101//101
f 114//113 113//112 92//91
f 49//50 114//113 92//91
f 103//109 93//92 40//41
f 115//114 105//103 116//115
f 105//103 115//114 112//116
f 105//103 112//116 106//104
f 116//115 105//103 110//110
f 116//115 107//106 111//111
f 95//94 108//107 117//117
f 106//104 112//116 118//118
f 104//105 109//108 108//107
f 106//104 109//108 100//99
f 76//77 73//74 119//119
f 101//101 102//102 113//112
f 78//78 120//120 114//113
f 93//92 120//120 78//78
f 113//112 120//120 101//101
f 120//120 113//112 114//113
f 101//101 120//120 103//109
f 93//92 103//109 120//120
f 111//111 95//94 117//117
f 117//117 121//121 111//111
f 112//116 115//114 122//122
f 116//115 122//122 115//114
f 112//116 122//122 123//123
f 116//115 111//111 122//122
f 124//124 122//122 111//111
f 124//124 123//123 122//122
f 111//111 121//121 124//124
f 112//116 123//123 118//118
f 123//123 124//124 125//125
f 123//123 125//125 118//118
f 106//104 118//118 109//108
f 118//118 125//125 109//108
f 117//117 108//107 125//125
f 125//125 108//107 109//108
f 124//124 121//121 125//125
f 121//121 117//117 125//125
f 91//90 89//89 68//69
f 91//90 126//126 89//89
f 88//88 72//72 67//67
f 89//89 127//127 88//88
f 127//127 128//128 88//88
f 73//74 90//100 129//129
f 130//130 73//74 129//129
f 73//74 130//130 119//119
f 119//119 91//90 77//76
f 119//119 77//76 76//77
f 89//89 126//126 127//127
f 72//72 131//131 90//100
f 90//100 131//131 132//132
f 127//127 133//133 128//128
f 136//134 135//135 137//136
f 138//137 139//138 126//126
f 135//135 134//139 137//136
f 138//137 119//119 130//130
f 91//90 119//119 126//126
f 119//119 138//137 126//126
