# Blender v2.78 (sub 0) OBJ File: 'exporter.blend'
# www.blender.org
o FJ2089.obj_grp1.855
v 0.388855 -0.841829 -0.293885
v 0.386422 -0.843139 -0.294330
v 0.388128 -0.838529 -0.293426
v 0.388948 -0.838073 -0.291721
v 0.389385 -0.842764 -0.291587
v 0.389798 -0.841233 -0.291816
v 0.389368 -0.842097 -0.290197
v 0.388611 -0.843112 -0.289864
v 0.387533 -0.844293 -0.291561
v 0.384749 -0.822923 -0.278135
v 0.387078 -0.840237 -0.294842
v 0.383998 -0.841417 -0.294164
v 0.384417 -0.843372 -0.293128
v 0.384790 -0.839215 -0.294149
v 0.382481 -0.822884 -0.284518
v 0.381274 -0.826116 -0.286052
v 0.386677 -0.844205 -0.292924
v 0.386033 -0.844251 -0.290177
v 0.384320 -0.843881 -0.291410
v 0.386145 -0.842509 -0.288273
v 0.382847 -0.824029 -0.276828
v 0.383738 -0.842845 -0.289968
v 0.382997 -0.842043 -0.291902
v 0.383488 -0.819596 -0.281347
v 0.378761 -0.823795 -0.282381
v 0.379246 -0.824930 -0.278643
v 0.378705 -0.813949 -0.269596
v 0.373752 -0.776378 -0.250452
v 0.365718 -0.772535 -0.244330
v 0.372416 -0.784667 -0.257721
v 0.370374 -0.783094 -0.247961
v 0.372237 -0.775928 -0.251423
v 0.374666 -0.777666 -0.248668
v 0.375315 -0.783675 -0.250124
v 0.371879 -0.780351 -0.245803
v 0.367249 -0.775567 -0.249062
v 0.367684 -0.771651 -0.248080
v 0.366834 -0.772897 -0.241975
v 0.368929 -0.769314 -0.247479
v 0.368495 -0.753389 -0.236240
v 0.370385 -0.765415 -0.237798
v 0.367614 -0.750677 -0.230843
v 0.367941 -0.756609 -0.239579
v 0.364331 -0.746868 -0.235014
v 0.366449 -0.762300 -0.234610
v 0.361978 -0.747996 -0.234955
v 0.361093 -0.753102 -0.234590
v 0.359923 -0.748824 -0.230165
v 0.362567 -0.729573 -0.224552
v 0.363161 -0.734945 -0.228326
v 0.365395 -0.751632 -0.229149
v 0.360784 -0.746945 -0.227193
v 0.362969 -0.730471 -0.223181
v 0.363251 -0.733711 -0.222967
v 0.361890 -0.738747 -0.222936
v 0.358193 -0.730249 -0.227450
v 0.354840 -0.726657 -0.224191
v 0.359539 -0.723929 -0.224527
v 0.357068 -0.729909 -0.219335
v 0.358922 -0.721108 -0.216761
v 0.353569 -0.721348 -0.217024
v 0.350312 -0.683433 -0.209216
v 0.356915 -0.720198 -0.215555
v 0.354903 -0.714138 -0.221556
v 0.353172 -0.713917 -0.221159
v 0.353575 -0.724799 -0.220334
v 0.352013 -0.690362 -0.212717
v 0.351772 -0.710687 -0.212806
v 0.354670 -0.709374 -0.212297
v 0.349157 -0.704679 -0.217291
v 0.353459 -0.699343 -0.216456
v 0.345748 -0.693559 -0.209389
v 0.355549 -0.704638 -0.212593
v 0.349094 -0.695960 -0.208349
v 0.349903 -0.695490 -0.216559
v 0.344757 -0.692179 -0.212981
v 0.351514 -0.696227 -0.208984
v 0.347899 -0.688949 -0.206907
v 0.347256 -0.677749 -0.205907
v 0.338775 -0.671683 -0.206989
v 0.347858 -0.680476 -0.212784
v 0.345442 -0.681509 -0.213664
v 0.342731 -0.658668 -0.209055
v 0.342705 -0.679510 -0.205901
v 0.342529 -0.672072 -0.204229
v 0.343753 -0.682855 -0.213049
v 0.339862 -0.675127 -0.209803
v 0.342652 -0.662797 -0.210667
v 0.339772 -0.660379 -0.211133
v 0.339155 -0.666639 -0.211097
v 0.336657 -0.660654 -0.204175
v 0.334940 -0.630605 -0.203145
v 0.338842 -0.656938 -0.202820
v 0.340033 -0.646961 -0.206969
v 0.329194 -0.614757 -0.200920
v 0.335930 -0.642498 -0.210056
v 0.334251 -0.628148 -0.208381
v 0.333317 -0.644683 -0.202624
v 0.328818 -0.621002 -0.209449
v 0.328872 -0.636279 -0.206785
v 0.329804 -0.635905 -0.208661
v 0.334558 -0.624836 -0.206191
v 0.333545 -0.620709 -0.203898
v 0.330115 -0.640794 -0.204805
v 0.330430 -0.608789 -0.207774
v 0.327234 -0.598922 -0.207899
v 0.331867 -0.607678 -0.205316
v 0.325282 -0.618853 -0.206574
v 0.330731 -0.605652 -0.201637
v 0.328067 -0.627733 -0.202715
v 0.324152 -0.603384 -0.201172
v 0.326052 -0.603946 -0.200202
v 0.330508 -0.611663 -0.201342
v 0.326096 -0.617436 -0.208153
v 0.331051 -0.597287 -0.204101
v 0.328182 -0.588531 -0.206184
v 0.324873 -0.617168 -0.203937
v 0.330770 -0.594706 -0.201637
v 0.328369 -0.596545 -0.199310
v 0.326074 -0.605713 -0.208349
v 0.329738 -0.586713 -0.204726
v 0.331018 -0.587478 -0.202625
v 0.328365 -0.585176 -0.204327
v 0.329488 -0.585098 -0.202372
v 0.327732 -0.586026 -0.205389
v 0.329670 -0.587523 -0.198937
v 0.330577 -0.586895 -0.200575
v 0.327579 -0.586123 -0.198661
v 0.328056 -0.584928 -0.200174
v 0.324493 -0.588561 -0.198627
v 0.327203 -0.587791 -0.197833
v 0.323453 -0.602476 -0.205975
v 0.324676 -0.593309 -0.206565
v 0.322698 -0.598685 -0.203483
v 0.323047 -0.587726 -0.203801
v 0.325777 -0.586775 -0.205810
v 0.324325 -0.586193 -0.204615
v 0.325937 -0.584788 -0.203815
v 0.326945 -0.584296 -0.202201
v 0.324215 -0.585177 -0.202323
v 0.322785 -0.587484 -0.201247
v 0.326357 -0.584822 -0.200092
v 0.325069 -0.585976 -0.199171
v 0.323750 -0.586618 -0.199916
vn 0.6954 -0.2532 -0.6726
vn 0.5785 0.4187 -0.7000
vn 0.8934 0.3423 -0.2911
vn 0.8834 -0.2069 0.4205
vn 0.8134 -0.5747 -0.0904
vn 0.9948 0.0204 -0.0997
vn 0.5655 -0.6417 0.5181
vn 0.3908 -0.9197 -0.0375
vn 0.1277 -0.9181 -0.3753
vn 0.7425 -0.2142 0.6347
vn 0.1725 0.1698 -0.9703
vn 0.0453 -0.5567 -0.8295
vn -0.6286 -0.1516 -0.7628
vn -0.5703 -0.6743 -0.4690
vn -0.3873 0.3097 -0.8684
vn 0.0539 0.5631 -0.8246
vn -0.5195 0.3556 -0.7770
vn -0.1024 -0.9279 0.3584
vn -0.5422 -0.8400 0.0214
vn -0.0271 -0.6147 0.7883
vn 0.3732 -0.4559 0.8080
vn -0.6819 -0.5867 0.4369
vn -0.9200 -0.3510 -0.1744
vn 0.6226 0.5347 -0.5713
vn -0.9104 0.0704 -0.4077
vn -0.7251 -0.5010 0.4725
vn -0.1844 -0.5960 0.7815
vn -0.9611 -0.2694 0.0616
vn -0.1139 0.5573 -0.8225
vn -0.3500 -0.5864 0.7305
vn 0.7544 0.4946 -0.4315
vn 0.3685 0.5717 -0.7331
vn 0.9680 0.2421 0.0665
vn 0.2374 -0.4815 0.8437
vn 0.8242 -0.1709 0.5399
vn -0.8592 0.1184 -0.4978
vn -0.5468 0.3401 -0.7650
vn -0.6047 -0.5128 0.6093
vn -0.1250 0.4914 -0.8619
vn 0.8101 0.4181 -0.4110
vn 0.6949 -0.2355 0.6794
vn 0.8745 -0.0219 0.4846
vn 0.4968 0.5047 -0.7060
vn 0.0656 0.4567 -0.8872
vn -0.0398 -0.4903 0.8707
vn -0.4995 0.2833 -0.8187
vn -0.9607 -0.0287 -0.2762
vn 0.6514 0.4722 -0.5939
vn 0.8730 0.3589 -0.3302
vn 0.2983 -0.3426 0.8909
vn -0.4770 -0.4593 0.7493
vn 0.9642 0.2174 0.1517
vn -0.9220 -0.3136 0.2271
vn 0.8200 -0.0220 0.5720
vn 0.2749 -0.3312 0.9026
vn -0.2815 0.3615 -0.8889
vn -0.7122 0.0759 -0.6978
vn 0.4763 0.4087 -0.7785
vn -0.3276 -0.4197 0.8465
vn 0.6707 -0.0844 0.7369
vn -0.6892 -0.3795 0.6172
vn 0.9525 0.2269 0.2031
vn 0.1572 -0.2728 0.9491
vn -0.0442 0.3148 -0.9481
vn -0.3763 0.2004 -0.9046
vn -0.9473 -0.2997 0.1134
vn 0.8950 0.3137 -0.3172
vn -0.3802 -0.3533 0.8548
vn 0.8426 0.0854 0.5318
vn 0.3311 -0.1954 0.9231
vn -0.6935 0.0451 -0.7190
vn 0.5222 0.3719 -0.7675
vn -0.7276 -0.3268 0.6031
vn -0.1410 -0.2520 0.9574
vn 0.0175 0.2098 -0.9776
vn 0.4916 -0.0612 0.8687
vn 0.0645 -0.1488 0.9868
vn 0.6086 0.0860 0.7888
vn -0.8683 -0.1275 -0.4794
vn -0.9173 -0.2818 0.2812
vn 0.4425 0.2525 -0.8605
vn -0.0653 0.1144 -0.9913
vn 0.7876 0.2924 -0.5423
vn -0.5148 -0.2693 0.8139
vn -0.0374 -0.1191 0.9922
vn -0.5596 -0.0130 -0.8286
vn 0.4765 0.2102 -0.8537
vn 0.0973 0.0862 -0.9915
vn -0.9107 -0.2151 -0.3527
vn -0.5395 -0.0576 -0.8400
vn -0.6323 -0.2211 0.7424
vn 0.7970 0.1484 0.5855
vn 0.0946 -0.0380 0.9948
vn 0.9627 0.2612 -0.0700
vn 0.2086 0.0042 0.9780
vn 0.3936 0.1394 -0.9087
vn 0.8110 0.1925 -0.5525
vn -0.4493 -0.1363 0.8829
vn -0.1958 0.0145 -0.9805
vn -0.9611 -0.2062 -0.1840
vn -0.7006 -0.1371 -0.7002
vn 0.9653 0.2076 -0.1586
vn 0.9392 0.1732 0.2966
vn -0.9007 -0.2506 0.3550
vn 0.6879 0.1186 -0.7161
vn 0.0953 0.1297 -0.9870
vn 0.9704 0.1635 -0.1777
vn 0.8280 0.0383 0.5594
vn -0.6777 -0.1477 0.7203
vn -0.7601 -0.1068 0.6409
vn -0.2609 -0.1525 0.9533
vn 0.5266 -0.0056 0.8501
vn -0.9405 -0.1462 -0.3068
vn -0.6825 -0.0529 -0.7289
vn 0.9884 0.0642 -0.1377
vn -0.9462 -0.1514 0.2858
vn 0.9425 -0.0321 0.3326
vn 0.4313 -0.0806 0.8986
vn -0.3696 0.0469 -0.9280
vn 0.2976 0.2121 -0.9308
vn 0.6892 0.4102 -0.5972
vn 0.9591 0.2531 -0.1268
vn 0.3177 0.8138 -0.4866
vn 0.5901 0.8065 -0.0374
vn 0.1387 0.5593 -0.8173
vn 0.6363 0.2295 0.7365
vn 0.8571 0.3806 0.3473
vn 0.3166 0.8450 0.4310
vn -0.5777 0.0477 0.8149
vn 0.0388 0.1552 0.9871
vn 0.1823 0.5832 0.7916
vn -0.8768 -0.0199 -0.4804
vn -0.5308 0.1160 -0.8395
vn -0.9975 -0.0353 0.0612
vn -0.8865 0.2518 -0.3881
vn -0.2649 0.4128 -0.8714
vn -0.6140 0.5312 -0.5839
vn -0.2356 0.8752 -0.4226
vn 0.0011 1.0000 -0.0067
vn -0.6350 0.7715 -0.0395
vn -0.9516 0.2440 0.1872
vn -0.1538 0.8867 0.4361
vn -0.4221 0.5958 0.6832
vn -0.7388 0.4543 0.4977
s 1
f 1//1 3//2 4//3
f 7//4 5//5 6//6
f 5//5 1//1 6//6
f 8//7 5//5 7//4
f 9//8 17//9 1//1
f 5//5 9//8 1//1
f 9//8 5//5 8//7
f 1//1 4//3 6//6
f 7//4 10//10 8//7
f 6//6 10//10 7//4
f 11//11 1//1 2//12
f 11//11 2//12 12//13
f 13//14 12//13 2//12
f 1//1 11//11 3//2
f 14//15 15//16 11//11
f 3//2 11//11 15//16
f 12//13 14//15 11//11
f 16//17 15//16 14//15
f 9//8 18//18 17//9
f 8//7 18//18 9//8
f 2//12 1//1 17//9
f 13//14 2//12 17//9
f 19//19 13//14 17//9
f 19//19 17//9 18//18
f 18//18 8//7 20//20
f 21//21 20//20 8//7
f 18//18 20//20 22//22
f 18//18 22//22 19//19
f 23//23 12//13 13//14
f 19//19 23//23 13//14
f 22//22 23//23 19//19
f 3//2 15//16 24//24
f 3//2 24//24 4//3
f 8//7 10//10 21//21
f 14//15 25//25 16//17
f 25//25 14//15 12//13
f 12//13 23//23 25//25
f 22//22 26//26 23//23
f 22//22 20//20 21//21
f 27//27 26//26 22//22
f 22//22 21//21 27//27
f 25//25 23//23 29//28
f 15//16 16//17 30//29
f 31//30 26//26 27//27
f 28//31 4//3 24//24
f 28//31 24//24 32//32
f 15//16 32//32 24//24
f 4//3 33//33 6//6
f 4//3 28//31 33//33
f 26//26 29//28 23//23
f 27//27 21//21 35//34
f 27//27 35//34 31//30
f 21//21 10//10 34//35
f 25//25 29//28 36//36
f 25//25 37//37 16//17
f 15//16 30//29 32//32
f 35//34 21//21 34//35
f 33//33 10//10 6//6
f 10//10 33//33 34//35
f 37//37 25//25 36//36
f 30//29 16//17 37//37
f 38//38 26//26 31//30
f 30//29 39//39 32//32
f 26//26 38//38 29//28
f 28//31 32//32 40//40
f 35//34 34//35 41//41
f 28//31 40//40 33//33
f 33//33 42//42 34//35
f 34//35 42//42 41//41
f 37//37 39//39 30//29
f 40//40 32//32 43//43
f 43//43 32//32 39//39
f 44//44 43//43 39//39
f 45//45 31//30 35//34
f 38//38 31//30 45//45
f 35//34 41//41 45//45
f 37//37 36//36 46//46
f 36//36 47//47 46//46
f 44//44 39//39 37//37
f 43//43 50//48 40//40
f 50//48 49//49 40//40
f 51//50 45//45 41//41
f 52//51 38//38 45//45
f 41//41 42//42 51//50
f 40//40 53//52 33//33
f 49//49 53//52 40//40
f 42//42 33//33 53//52
f 37//37 46//46 44//44
f 29//28 38//38 48//53
f 36//36 29//28 47//47
f 29//28 48//53 47//47
f 48//53 38//38 52//51
f 52//51 45//45 51//50
f 53//52 54//54 42//42
f 51//50 42//42 55//55
f 56//56 44//44 46//46
f 46//46 47//47 57//57
f 44//44 50//48 43//43
f 56//56 46//46 57//57
f 58//58 50//48 44//44
f 44//44 56//56 58//58
f 51//50 55//55 52//51
f 55//55 59//59 52//51
f 42//42 54//54 55//55
f 54//54 60//60 55//55
f 50//48 58//58 49//49
f 61//61 52//51 59//59
f 53//52 49//49 62//62
f 59//59 55//55 63//63
f 55//55 60//60 63//63
f 48//53 57//57 47//47
f 58//58 56//56 64//64
f 56//56 65//65 64//64
f 57//57 65//65 56//56
f 52//51 66//66 48//53
f 66//66 52//51 61//61
f 67//67 62//62 49//49
f 68//68 61//61 59//59
f 59//59 63//63 68//68
f 62//62 73//69 53//52
f 53//52 73//69 54//54
f 73//69 60//60 54//54
f 63//63 60//60 69//70
f 70//71 65//65 57//57
f 70//71 57//57 48//53
f 70//71 48//53 66//66
f 71//72 58//58 64//64
f 58//58 71//72 49//49
f 67//67 49//49 71//72
f 66//66 61//61 72//73
f 63//63 69//70 74//74
f 68//68 63//63 74//74
f 60//60 73//69 69//70
f 65//65 70//71 75//75
f 64//64 75//75 71//72
f 65//65 75//75 64//64
f 68//68 72//73 61//61
f 73//69 77//76 69//70
f 69//70 77//76 74//74
f 74//74 77//76 78//77
f 62//62 79//78 73//69
f 70//71 66//66 76//79
f 66//66 80//80 76//79
f 81//81 71//72 75//75
f 72//73 80//80 66//66
f 74//74 72//73 68//68
f 73//69 79//78 77//76
f 75//75 82//82 81//81
f 67//67 71//72 81//81
f 67//67 81//81 83//83
f 72//73 74//74 84//84
f 74//74 78//77 85//85
f 77//76 79//78 78//77
f 86//86 70//71 76//79
f 75//75 86//86 82//82
f 70//71 86//86 75//75
f 88//87 83//83 81//81
f 88//87 81//81 89//88
f 83//83 62//62 67//67
f 74//74 85//85 84//84
f 76//79 87//89 86//86
f 90//90 82//82 86//86
f 90//90 86//86 87//89
f 81//81 82//82 89//88
f 82//82 90//90 89//88
f 80//80 72//73 84//84
f 76//79 80//80 87//89
f 84//84 91//91 80//80
f 79//78 62//62 92//92
f 78//77 79//78 85//85
f 79//78 93//93 85//85
f 83//83 94//94 62//62
f 95//95 79//78 92//92
f 91//91 84//84 85//85
f 96//96 88//87 89//88
f 83//83 88//87 96//96
f 83//83 97//97 94//94
f 79//78 95//95 93//93
f 94//94 92//92 62//62
f 91//91 85//85 93//93
f 91//91 93//93 98//98
f 90//90 99//99 89//88
f 96//96 89//88 99//99
f 97//97 83//83 96//96
f 87//89 80//80 100//100
f 101//101 90//90 87//89
f 101//101 87//89 100//100
f 97//97 102//102 94//94
f 103//103 92//92 94//94
f 80//80 91//91 104//104
f 80//80 104//104 100//100
f 96//96 105//105 97//97
f 106//106 105//105 96//96
f 106//106 96//96 99//99
f 103//103 94//94 102//102
f 104//104 91//91 98//98
f 90//90 101//101 99//99
f 105//105 107//107 97//97
f 97//97 107//107 102//102
f 103//103 102//102 109//108
f 110//109 104//104 98//98
f 98//98 111//110 110//109
f 98//98 93//93 95//95
f 111//110 98//98 112//111
f 98//98 95//95 112//111
f 92//92 103//103 113//112
f 92//92 113//112 95//95
f 101//101 100//100 108//113
f 114//114 99//99 101//101
f 114//114 101//101 108//113
f 107//107 105//105 115//115
f 104//104 117//116 100//100
f 100//100 117//116 108//113
f 109//108 113//112 103//103
f 107//107 109//108 102//102
f 107//107 118//117 109//108
f 118//117 119//118 109//108
f 115//115 118//117 107//107
f 117//116 104//104 110//109
f 109//108 119//118 113//112
f 113//112 119//118 95//95
f 99//99 114//114 120//119
f 99//99 120//119 106//106
f 106//106 116//120 105//105
f 105//105 116//120 121//121
f 115//115 105//105 122//122
f 121//121 122//122 105//105
f 123//123 124//124 121//121
f 125//125 121//121 116//120
f 125//125 123//123 121//121
f 122//122 121//121 124//124
f 117//116 110//109 111//110
f 118//117 126//126 119//118
f 115//115 122//122 118//117
f 118//117 122//122 127//127
f 127//127 126//126 118//117
f 124//124 127//127 122//122
f 129//128 127//127 124//124
f 127//127 129//128 126//126
f 111//110 112//111 130//129
f 112//111 95//95 119//118
f 126//126 131//130 119//118
f 128//131 131//130 126//126
f 132//132 120//119 114//114
f 114//114 108//113 132//132
f 132//132 133//133 120//119
f 132//132 108//113 134//134
f 135//135 133//133 132//132
f 120//119 133//133 106//106
f 106//106 136//136 116//120
f 133//133 136//136 106//106
f 133//133 137//137 136//136
f 135//135 137//137 133//133
f 136//136 125//125 116//120
f 137//137 138//138 136//136
f 123//123 139//139 124//124
f 123//123 125//125 138//138
f 138//138 139//139 123//123
f 125//125 136//136 138//138
f 139//139 138//138 140//140
f 117//116 134//134 108//113
f 134//134 117//116 111//110
f 111//110 130//129 141//141
f 128//131 142//142 143//143
f 128//131 126//126 129//128
f 139//139 129//128 124//124
f 139//139 142//142 129//128
f 142//142 128//131 129//128
f 142//142 139//139 140//140
f 140//140 143//143 142//142
f 112//111 119//118 131//130
f 143//143 131//130 128//131
f 130//129 112//111 131//130
f 130//129 131//130 143//143
f 130//129 143//143 144//144
f 135//135 132//132 134//134
f 135//135 134//134 141//141
f 135//135 140//140 137//137
f 137//137 140//140 138//138
f 111//110 141//141 134//134
f 140//140 141//141 144//144
f 144//144 141//141 130//129
f 140//140 135//135 141//141
f 140//140 144//144 143//143
