# Blender v2.78 (sub 0) OBJ File: 'exporter.blend'
# www.blender.org
o FJ2159.obj_grp1.900
v -0.314777 -0.408089 -0.190644
v -0.315389 -0.406935 -0.192007
v -0.314160 -0.405189 -0.190616
v -0.313904 -0.407041 -0.189201
v -0.314152 -0.404275 -0.187782
v -0.315417 -0.404254 -0.191856
v -0.315205 -0.402731 -0.189307
v -0.315210 -0.409285 -0.188605
v -0.314364 -0.406743 -0.186842
v -0.315781 -0.407661 -0.185665
v -0.315770 -0.404925 -0.185338
v -0.341739 -0.413104 -0.208860
v -0.316946 -0.402149 -0.190446
v -0.350775 -0.410322 -0.212790
v -0.336982 -0.409493 -0.205961
v -0.317490 -0.401709 -0.188554
v -0.351067 -0.409485 -0.211141
v -0.355831 -0.418198 -0.216027
v -0.316688 -0.409663 -0.187311
v -0.345198 -0.415326 -0.203188
v -0.317620 -0.408532 -0.185581
v -0.317008 -0.403101 -0.185765
v -0.318425 -0.402152 -0.186992
v -0.318427 -0.406910 -0.184719
v -0.318982 -0.404924 -0.184797
v -0.319147 -0.403004 -0.185989
v -0.362312 -0.411899 -0.215275
v -0.353336 -0.412439 -0.206457
v -0.354867 -0.415308 -0.207499
v -0.359455 -0.419882 -0.214977
v -0.361402 -0.414527 -0.220284
v -0.373599 -0.423067 -0.221244
v -0.367426 -0.413940 -0.216137
v -0.360373 -0.416853 -0.220168
v -0.379557 -0.416404 -0.226737
v -0.378618 -0.418124 -0.220770
v -0.377711 -0.422224 -0.228974
v -0.379157 -0.416974 -0.227722
v -0.378820 -0.423363 -0.222089
v -0.383722 -0.422075 -0.223021
v -0.389431 -0.427046 -0.232846
v -0.377046 -0.419092 -0.228811
v -0.394203 -0.422983 -0.227730
v -0.396757 -0.426878 -0.237503
v -0.398651 -0.430153 -0.233409
v -0.411075 -0.425004 -0.237825
v -0.392036 -0.421523 -0.234721
v -0.411040 -0.433565 -0.240204
v -0.397818 -0.427944 -0.229949
v -0.396046 -0.421528 -0.229700
v -0.399313 -0.425790 -0.238529
v -0.407682 -0.431976 -0.234762
v -0.402354 -0.423123 -0.237196
v -0.408663 -0.427367 -0.232988
v -0.409589 -0.426160 -0.240868
v -0.418276 -0.435490 -0.238226
v -0.418374 -0.433459 -0.236286
v -0.418266 -0.430850 -0.235838
v -0.419635 -0.434063 -0.244561
v -0.414297 -0.429956 -0.243357
v -0.425477 -0.430013 -0.243541
v -0.412518 -0.426202 -0.235735
v -0.434850 -0.441517 -0.244312
v -0.428120 -0.431086 -0.239771
v -0.429724 -0.435188 -0.246887
v -0.428434 -0.432602 -0.245849
v -0.432048 -0.439407 -0.240325
v -0.438975 -0.435446 -0.240793
v -0.433804 -0.439887 -0.246468
v -0.442039 -0.444014 -0.244014
v -0.435773 -0.438057 -0.239466
v -0.436144 -0.436597 -0.239475
v -0.438730 -0.439594 -0.248101
v -0.441519 -0.436969 -0.247779
v -0.446121 -0.436950 -0.246425
v -0.451438 -0.438416 -0.245700
v -0.468666 -0.445389 -0.244877
v -0.441742 -0.442510 -0.241207
v -0.469932 -0.453523 -0.249476
v -0.468984 -0.447088 -0.242978
v -0.473348 -0.453275 -0.250944
v -0.477905 -0.452275 -0.251636
v -0.478580 -0.458054 -0.249130
v -0.474828 -0.456614 -0.246696
v -0.480891 -0.451450 -0.250804
v -0.485126 -0.451976 -0.248688
v -0.483446 -0.458788 -0.245341
v -0.476168 -0.453876 -0.243311
v -0.477501 -0.452053 -0.243296
v -0.497773 -0.466466 -0.250687
v -0.482494 -0.451607 -0.245501
v -0.483725 -0.457807 -0.252727
v -0.491636 -0.456159 -0.253060
v -0.494432 -0.462647 -0.255595
v -0.499320 -0.467977 -0.253545
v -0.489713 -0.459086 -0.245542
v -0.491508 -0.459275 -0.254786
v -0.489495 -0.456620 -0.245761
v -0.493809 -0.464227 -0.254453
v -0.498732 -0.458275 -0.251316
v -0.496601 -0.458363 -0.248733
v -0.499543 -0.465874 -0.249818
v -0.506617 -0.471932 -0.259204
v -0.503509 -0.461872 -0.257670
v -0.497950 -0.462006 -0.248034
v -0.502995 -0.468374 -0.259432
v -0.502490 -0.464229 -0.259145
v -0.511172 -0.473073 -0.257560
v -0.505999 -0.466964 -0.251885
v -0.507420 -0.464381 -0.253054
v -0.510060 -0.471435 -0.264621
v -0.508062 -0.466609 -0.262381
v -0.512859 -0.475582 -0.262609
v -0.514192 -0.468166 -0.265091
v -0.512540 -0.470325 -0.256154
v -0.511743 -0.465697 -0.257013
v -0.515473 -0.471395 -0.268509
v -0.516080 -0.476781 -0.268608
v -0.513637 -0.466189 -0.260883
v -0.519304 -0.475750 -0.262415
v -0.519788 -0.476391 -0.273530
v -0.522594 -0.472670 -0.265155
v -0.517990 -0.471670 -0.260152
v -0.528808 -0.484918 -0.276524
v -0.530599 -0.484580 -0.275913
v -0.531589 -0.477363 -0.277577
v -0.527115 -0.483279 -0.279463
v -0.527191 -0.484271 -0.277847
v -0.526744 -0.481026 -0.280357
v -0.530358 -0.482155 -0.272885
v -0.529232 -0.484369 -0.278900
v -0.529316 -0.482089 -0.280941
v -0.531645 -0.483473 -0.278828
v -0.528721 -0.479523 -0.281015
v -0.530842 -0.478330 -0.280013
v -0.529852 -0.477484 -0.279611
v -0.531804 -0.483644 -0.275442
v -0.533168 -0.479404 -0.275930
v -0.532727 -0.481338 -0.278926
v -0.531560 -0.480344 -0.280317
v -0.533056 -0.479728 -0.278218
v -0.533125 -0.481593 -0.275423
vn 0.7263 -0.5461 -0.4175
vn 0.6468 -0.2091 -0.7334
vn 0.9083 0.1798 -0.3777
vn 0.9720 -0.2319 -0.0383
vn 0.8672 0.4222 0.2641
vn 0.5926 0.4271 -0.6829
vn 0.6543 0.7509 -0.0901
vn 0.6280 -0.7756 0.0638
vn 0.8562 -0.1968 0.4778
vn 0.5313 -0.3798 0.7572
vn 0.5092 0.2338 0.8283
vn 0.5411 -0.3197 -0.7778
vn 0.4484 0.3159 -0.8361
vn 0.2613 0.8727 -0.4124
vn 0.2018 0.7268 -0.6566
vn 0.1166 0.9878 0.1030
vn -0.0718 0.9623 -0.2624
vn 0.4536 -0.7225 -0.5217
vn 0.2604 -0.8925 0.3682
vn -0.1946 -0.7874 0.5849
vn 0.0453 -0.6559 0.7535
vn 0.2981 0.6728 0.6771
vn -0.1324 0.9089 0.3955
vn -0.0990 -0.2227 0.9698
vn -0.2516 0.2370 0.9384
vn -0.3228 0.6749 0.6636
vn -0.2942 0.9534 0.0670
vn -0.5636 0.1761 0.8071
vn -0.4413 -0.2991 0.8460
vn 0.2005 -0.9784 0.0511
vn -0.4503 0.7193 0.5291
vn 0.0563 -0.9434 0.3268
vn 0.5113 -0.1559 -0.8452
vn 0.3434 0.4560 -0.8211
vn -0.1316 0.9544 -0.2678
vn 0.1105 0.7505 -0.6515
vn -0.1751 -0.7184 0.6732
vn -0.3647 -0.1885 0.9119
vn -0.5128 0.3248 0.7947
vn 0.4700 -0.3807 -0.7963
vn 0.4107 -0.7875 -0.4596
vn 0.3589 0.2874 -0.8880
vn -0.4828 0.3799 0.7890
vn 0.4052 -0.3065 -0.8613
vn 0.1832 -0.9641 0.1922
vn -0.2839 0.9583 -0.0336
vn 0.1646 0.5950 -0.7867
vn 0.3499 -0.8494 -0.3950
vn -0.4412 0.6521 0.6166
vn -0.1012 -0.6276 0.7719
vn 0.2811 0.2088 -0.9367
vn 0.0255 -0.7903 0.6122
vn -0.0856 0.8769 -0.4730
vn -0.3631 0.2374 0.9010
vn 0.0105 0.6557 -0.7549
vn 0.1735 -0.8785 0.4452
vn -0.0536 -0.4726 0.8797
vn -0.3066 0.0529 0.9504
vn 0.3132 -0.3613 -0.8783
vn 0.2030 0.1803 -0.9624
vn -0.2021 0.8812 -0.4273
vn -0.3982 0.7584 0.5160
vn 0.3286 -0.9154 -0.2324
vn -0.3585 0.7502 0.5555
vn 0.1436 0.0831 -0.9861
vn -0.0539 0.5435 -0.8377
vn 0.0796 -0.6913 0.7182
vn -0.2661 0.4380 0.8587
vn 0.3051 -0.9199 0.2463
vn -0.0423 -0.2210 0.9744
vn -0.1655 0.1400 0.9762
vn 0.3078 -0.6325 -0.7107
vn 0.1638 -0.1678 -0.9721
vn -0.0814 0.5109 -0.8558
vn -0.2395 0.8503 -0.4686
vn -0.3530 0.9301 -0.1015
vn -0.3799 0.8603 0.3398
vn 0.1658 -0.7060 0.6885
vn 0.3134 -0.6784 -0.6645
vn -0.2882 0.5113 0.8097
vn 0.2530 -0.2517 -0.9342
vn 0.0345 0.2305 -0.9725
vn 0.4171 -0.8139 -0.4044
vn 0.3037 -0.3435 -0.8887
vn 0.3437 -0.9136 0.2172
vn -0.3943 0.9165 -0.0673
vn 0.1213 -0.6580 0.7432
vn 0.0043 -0.3051 0.9523
vn -0.2178 0.1997 0.9554
vn 0.2157 -0.8391 0.4994
vn 0.3520 -0.3170 -0.8807
vn -0.1845 0.7009 -0.6890
vn -0.4147 0.7038 0.5768
vn 0.4346 -0.9003 0.0239
vn -0.1703 -0.2023 0.9644
vn 0.4296 -0.2517 -0.8672
vn 0.1949 0.2230 -0.9551
vn -0.3586 0.3562 0.8629
vn 0.5309 -0.5827 -0.6153
vn -0.4922 0.8582 0.1456
vn -0.4984 0.5630 0.6593
vn -0.0878 -0.5611 0.8231
vn 0.5946 -0.7489 -0.2925
vn -0.0568 0.7660 -0.6403
vn -0.3698 -0.0031 0.9291
vn 0.5956 -0.3567 -0.7197
vn 0.3064 0.3250 -0.8947
vn -0.0250 -0.7781 0.6277
vn -0.3606 -0.2676 0.8935
vn -0.6036 0.4262 0.6738
vn 0.6736 -0.1760 -0.7178
vn 0.3516 0.4058 -0.8436
vn 0.4057 -0.9034 0.1387
vn -0.6714 0.6323 0.3866
vn 0.4033 0.4755 -0.7818
vn -0.0077 0.8040 -0.5946
vn 0.7243 -0.5269 -0.4447
vn -0.4663 0.8790 -0.1000
vn -0.4574 -0.2273 0.8597
vn -0.3530 -0.5735 0.7392
vn 0.6747 0.0148 -0.7379
vn -0.7523 0.4703 0.4613
vn -0.6622 0.0812 0.7449
vn -0.3244 -0.9198 0.2206
vn 0.0780 -0.9929 0.0899
vn 0.4962 -0.5785 -0.6474
vn 0.4556 -0.8578 -0.2379
vn 0.5500 -0.0730 -0.8319
vn -0.4842 -0.4774 0.7332
vn -0.0779 -0.8705 -0.4859
vn -0.0875 -0.3441 -0.9348
vn -0.6092 -0.6648 -0.4324
vn 0.1102 0.2825 -0.9529
vn -0.1389 0.7616 -0.6330
vn -0.4686 0.5182 -0.7155
vn -0.6530 -0.6762 0.3412
vn -0.6228 0.7594 -0.1883
vn -0.9229 0.3028 0.2379
vn -0.9128 -0.2543 0.3195
vn -0.8553 -0.2378 -0.4602
vn -0.5762 0.0024 -0.8173
vn -0.9244 0.2276 -0.3060
s 1
f 1//1 2//2 3//3
f 3//3 4//4 1//1
f 3//3 5//5 4//4
f 3//3 2//2 6//6
f 5//5 3//3 7//7
f 1//1 4//4 8//8
f 4//4 9//9 8//8
f 10//10 8//8 9//9
f 5//5 9//9 4//4
f 5//5 11//11 9//9
f 2//2 12//12 15//13
f 2//2 15//13 6//6
f 3//3 6//6 7//7
f 7//7 6//6 13//14
f 14//15 6//6 15//13
f 14//15 13//14 6//6
f 13//14 16//16 7//7
f 13//14 17//17 16//16
f 18//18 1//1 8//8
f 19//19 8//8 10//10
f 20//20 19//19 21//21
f 5//5 22//22 11//11
f 7//7 22//22 5//5
f 22//22 7//7 16//16
f 23//23 22//22 16//16
f 19//19 10//10 21//21
f 21//21 10//10 24//24
f 10//10 9//9 11//11
f 24//24 10//10 11//11
f 24//24 11//11 25//25
f 22//22 25//25 11//11
f 26//26 25//25 22//22
f 2//2 1//1 12//12
f 17//17 27//27 16//16
f 26//26 22//22 23//23
f 28//28 25//25 26//26
f 16//16 27//27 23//23
f 29//29 24//24 25//25
f 8//8 30//30 18//18
f 21//21 24//24 20//20
f 30//30 8//8 19//19
f 12//12 1//1 18//18
f 17//17 13//14 14//15
f 25//25 28//28 29//29
f 29//29 20//20 24//24
f 20//20 30//30 19//19
f 26//26 23//23 33//31
f 33//31 28//28 26//26
f 20//20 32//32 30//30
f 12//12 34//33 15//13
f 15//13 34//33 31//34
f 31//34 14//15 15//13
f 14//15 35//35 17//17
f 33//31 23//23 27//27
f 34//33 12//12 18//18
f 20//20 29//29 32//32
f 38//36 35//35 14//15
f 35//35 27//27 17//17
f 29//29 39//37 32//32
f 28//28 40//38 29//29
f 40//38 28//28 36//39
f 33//31 36//39 28//28
f 37//40 18//18 41//41
f 31//34 34//33 42//42
f 40//38 39//37 29//29
f 36//39 43//43 40//38
f 37//40 34//33 18//18
f 38//36 14//15 31//34
f 38//36 31//34 42//42
f 37//40 42//42 34//33
f 41//41 18//18 30//30
f 41//41 30//30 32//32
f 37//40 44//44 42//42
f 32//32 45//45 41//41
f 35//35 46//46 27//27
f 41//41 44//44 37//40
f 47//47 38//36 42//42
f 41//41 45//45 48//48
f 27//27 50//49 33//31
f 33//31 50//49 36//39
f 45//45 32//32 39//37
f 45//45 39//37 49//50
f 36//39 50//49 43//43
f 44//44 51//51 42//42
f 52//52 45//45 49//50
f 27//27 46//46 50//49
f 47//47 42//42 51//51
f 47//47 53//53 38//36
f 38//36 53//53 35//35
f 49//50 39//37 40//38
f 54//54 49//50 40//38
f 54//54 40//38 43//43
f 51//51 55//55 47//47
f 44//44 41//41 48//48
f 53//53 47//47 55//55
f 53//53 46//46 35//35
f 50//49 54//54 43//43
f 45//45 56//56 48//48
f 56//56 45//45 52//52
f 57//57 52//52 49//50
f 54//54 58//58 49//50
f 44//44 48//48 59//59
f 44//44 59//59 60//60
f 60//60 55//55 51//51
f 60//60 51//51 44//44
f 55//55 61//61 53//53
f 53//53 61//61 46//46
f 62//62 54//54 50//49
f 63//63 48//48 56//56
f 62//62 50//49 46//46
f 58//58 57//57 49//50
f 64//64 54//54 62//62
f 56//56 52//52 57//57
f 58//58 54//54 64//64
f 65//65 60//60 59//59
f 65//65 66//66 60//60
f 60//60 66//66 55//55
f 56//56 57//57 67//67
f 64//64 68//68 58//58
f 66//66 61//61 55//55
f 70//69 63//63 56//56
f 71//70 67//67 57//57
f 46//46 64//64 62//62
f 58//58 72//71 57//57
f 58//58 68//68 72//71
f 69//72 48//48 63//63
f 69//72 59//59 48//48
f 73//73 59//59 69//72
f 73//73 65//65 59//59
f 70//69 56//56 67//67
f 71//70 57//57 72//71
f 74//74 66//66 65//65
f 73//73 74//74 65//65
f 75//75 76//76 61//61
f 74//74 61//61 66//66
f 61//61 74//74 75//75
f 61//61 76//76 46//46
f 64//64 46//46 76//76
f 76//76 77//77 64//64
f 67//67 71//70 78//78
f 63//63 70//69 79//79
f 69//72 63//63 79//79
f 70//69 67//67 78//78
f 68//68 80//80 72//71
f 81//81 82//82 73//73
f 82//82 74//74 73//73
f 81//81 73//73 69//72
f 77//77 68//68 64//64
f 83//83 79//79 70//69
f 81//81 69//72 79//79
f 85//84 75//75 74//74
f 82//82 85//84 74//74
f 84//85 70//69 78//78
f 76//76 86//86 77//77
f 84//85 83//83 70//69
f 84//85 78//78 87//87
f 77//77 80//80 68//68
f 88//88 78//78 71//70
f 89//89 72//71 80//80
f 85//84 76//76 75//75
f 84//85 87//87 90//90
f 87//87 78//78 88//88
f 92//91 81//81 79//79
f 79//79 83//83 92//91
f 93//92 76//76 85//84
f 91//93 80//80 77//77
f 80//80 91//93 89//89
f 88//88 71//70 89//89
f 89//89 71//70 72//71
f 76//76 93//92 86//86
f 86//86 91//93 77//77
f 82//82 81//81 92//91
f 95//94 83//83 84//85
f 87//87 88//88 96//95
f 94//96 97//97 92//91
f 97//97 82//82 92//91
f 93//92 85//84 82//82
f 89//89 98//98 96//95
f 96//95 88//88 89//89
f 91//93 98//98 89//89
f 99//99 92//91 83//83
f 94//96 92//91 99//99
f 83//83 95//94 99//99
f 84//85 90//90 95//94
f 100//100 101//101 91//93
f 100//100 91//93 86//86
f 87//87 102//102 90//90
f 87//87 96//95 102//102
f 101//101 98//98 91//93
f 103//103 99//99 95//94
f 82//82 97//97 93//92
f 93//92 97//97 104//104
f 105//105 102//102 96//95
f 96//95 98//98 105//105
f 99//99 103//103 106//106
f 94//96 99//99 106//106
f 107//107 97//97 94//96
f 104//104 97//97 107//107
f 93//92 104//104 86//86
f 101//101 105//105 98//98
f 106//106 107//107 94//96
f 100//100 86//86 104//104
f 108//108 90//90 102//102
f 108//108 102//102 109//109
f 105//105 109//109 102//102
f 105//105 110//110 109//109
f 101//101 110//110 105//105
f 110//110 101//101 100//100
f 107//107 106//106 111//111
f 112//112 107//107 111//111
f 107//107 112//112 104//104
f 95//94 90//90 113//113
f 103//103 111//111 106//106
f 103//103 95//94 113//113
f 110//110 100//100 116//114
f 111//111 117//115 112//112
f 114//116 112//112 117//115
f 111//111 103//103 118//117
f 114//116 104//104 112//112
f 119//118 100//100 104//104
f 114//116 119//118 104//104
f 113//113 90//90 108//108
f 109//109 115//119 108//108
f 115//119 120//120 108//108
f 100//100 119//118 116//114
f 118//117 121//121 111//111
f 113//113 118//117 103//103
f 117//115 111//111 121//121
f 119//118 122//122 116//114
f 115//119 123//123 120//120
f 123//123 115//119 110//110
f 122//122 123//123 116//114
f 123//123 110//110 116//114
f 115//119 109//109 110//110
f 120//120 125//124 108//108
f 113//113 108//108 124//125
f 125//124 124//125 108//108
f 127//126 118//117 128//127
f 118//117 127//126 121//121
f 127//126 129//128 121//121
f 113//113 128//127 118//117
f 130//129 125//124 120//120
f 123//123 130//129 120//120
f 127//126 128//127 131//130
f 131//130 128//127 124//125
f 129//128 127//126 132//131
f 132//131 127//126 131//130
f 131//130 133//132 132//131
f 132//131 134//133 129//128
f 134//133 121//121 129//128
f 117//115 121//121 134//133
f 117//115 134//133 114//116
f 114//116 134//133 136//134
f 136//134 134//133 135//135
f 113//113 124//125 128//127
f 130//129 137//136 125//124
f 125//124 131//130 124//125
f 136//134 126//137 119//118
f 123//123 122//122 138//138
f 123//123 142//139 130//129
f 133//132 139//140 132//131
f 132//131 140//141 134//133
f 140//141 135//135 134//133
f 132//131 139//140 140//141
f 135//135 140//141 141//142
f 126//137 135//135 141//142
f 141//142 140//141 139//140
f 138//138 126//137 141//142
f 119//118 114//116 136//134
f 135//135 126//137 136//134
f 133//132 131//130 125//124
f 125//124 137//136 133//132
f 137//136 142//139 133//132
f 139//140 133//132 142//139
f 123//123 138//138 142//139
f 139//140 142//139 141//142
f 141//142 142//139 138//138
f 126//137 122//122 119//118
f 126//137 138//138 122//122
f 142//139 137//136 130//129
