# Blender v2.78 (sub 0) OBJ File: 'exporter.blend'
# www.blender.org
o FJ2143.obj_grp1.892
v -0.268590 -0.493038 2.392349
v -0.304776 -0.443784 2.230617
v -0.285604 -0.450663 2.224957
v -0.311363 -0.428096 2.230293
v -0.303451 -0.429948 2.214319
v -0.277318 -0.458760 2.347741
v -0.308997 -0.413888 2.235914
v -0.306668 -0.416109 2.222601
v -0.295531 -0.402428 2.227391
v -0.290127 -0.401517 2.239664
v -0.288221 -0.439089 2.211527
v -0.273803 -0.448182 2.223932
v -0.284728 -0.426156 2.207353
v -0.290207 -0.411927 2.211746
v -0.256703 -0.496426 2.334277
v -0.261281 -0.442527 2.337373
v -0.240453 -0.477287 2.310295
v -0.275686 -0.402427 2.232407
v -0.268588 -0.431447 2.214406
v -0.268800 -0.419794 2.214438
v -0.270054 -0.407570 2.222231
v -0.257354 -0.428258 2.235825
v -0.269497 -0.494225 2.342505
v -0.238075 -0.506702 2.369696
v -0.242258 -0.445025 2.318731
v -0.232546 -0.533428 2.465312
v -0.231336 -0.545680 2.614069
v -0.248585 -0.509503 2.500248
v -0.251385 -0.470920 2.415632
v -0.210472 -0.518731 2.446772
v -0.219388 -0.489470 2.381247
v -0.211368 -0.488412 2.468205
v -0.196085 -0.511237 2.508190
v -0.230924 -0.501233 2.552385
v -0.212633 -0.536475 2.494505
v -0.223935 -0.482098 2.471509
v -0.202565 -0.570454 2.693172
v -0.220524 -0.579557 2.776427
v -0.227479 -0.570010 2.806859
v -0.229837 -0.538427 2.697381
v -0.202955 -0.516598 2.684763
v -0.187170 -0.543200 2.607586
v -0.190383 -0.514896 2.626531
v -0.205342 -0.644438 3.051241
v -0.225121 -0.603142 3.054973
v -0.217894 -0.598149 3.069658
v -0.183017 -0.530996 2.631669
v -0.223314 -0.645856 3.086735
v -0.239836 -0.654423 3.245298
v -0.233480 -0.621794 3.104743
v -0.175870 -0.572807 2.825140
v -0.178670 -0.547798 2.765777
v -0.185579 -0.539560 2.765860
v -0.201183 -0.593044 3.049572
v -0.219165 -0.603898 3.099424
v -0.189413 -0.638544 3.052995
v -0.228058 -0.666596 3.227173
v -0.237868 -0.631958 3.213668
v -0.237868 -0.631958 3.213668
v -0.228064 -0.619649 3.200635
v -0.199283 -0.662872 3.198036
v -0.208747 -0.615001 3.195223
v -0.185473 -0.643227 3.129657
v -0.191058 -0.621529 3.164187
v -0.260773 -0.650067 3.638617
v -0.216069 -0.671416 3.276561
v -0.253733 -0.639752 3.458126
v -0.240584 -0.627703 3.336168
v -0.223778 -0.620494 3.305171
v -0.189368 -0.635157 3.213544
v -0.204647 -0.624353 3.291960
v -0.246111 -0.618644 3.649655
v -0.218961 -0.660179 3.666108
v -0.228431 -0.669238 3.602709
v -0.251622 -0.663258 3.647790
v -0.257429 -0.628219 3.651535
v -0.232039 -0.617950 3.619680
v -0.261696 -0.632482 3.717922
v -0.206209 -0.636772 3.525393
v -0.257000 -0.645606 3.728365
v -0.250516 -0.559153 3.876879
v -0.243810 -0.654813 3.727557
v -0.245545 -0.584491 3.869841
v -0.233983 -0.662830 3.699274
v -0.256921 -0.614193 3.725817
v -0.245130 -0.606292 3.723943
v -0.224000 -0.618022 3.668275
v -0.212325 -0.629302 3.674536
v -0.241957 -0.614730 3.826352
v -0.230667 -0.642539 3.768728
v -0.213702 -0.642276 3.737125
v -0.251209 -0.570931 3.837668
v -0.228675 -0.602574 3.729938
v -0.216182 -0.609851 3.733045
v -0.236465 -0.555164 3.839133
v -0.219642 -0.607828 3.844264
v -0.206501 -0.587796 3.860836
v -0.199526 -0.553839 3.881307
v -0.208916 -0.620261 3.747923
v -0.231004 -0.569946 3.894256
v -0.243751 -0.558650 3.889466
v -0.230058 -0.554724 3.898060
v -0.240216 -0.541823 3.888286
v -0.224100 -0.591918 3.874544
v -0.245899 -0.540737 3.871105
v -0.229729 -0.530394 3.879535
v -0.233245 -0.534198 3.862072
v -0.213914 -0.556597 3.840514
v -0.202930 -0.571721 3.843916
v -0.216470 -0.562056 3.897619
v -0.225447 -0.540775 3.894399
v -0.206155 -0.561199 3.890533
v -0.210521 -0.545950 3.892859
v -0.210292 -0.536211 3.883540
v -0.218314 -0.531050 3.867149
v -0.204900 -0.540380 3.868307
vn -0.6114 -0.7807 -0.1290
vn -0.9583 -0.2570 0.1246
vn -0.7268 -0.6317 -0.2698
vn -0.1484 -0.8521 -0.5019
vn -0.9898 -0.1044 -0.0972
vn -0.6612 -0.1627 -0.7324
vn -0.7654 0.5267 0.3697
vn -0.8496 0.5036 0.1567
vn -0.7792 0.4279 -0.4580
vn -0.3599 0.9010 -0.2423
vn -0.1974 0.9509 0.2383
vn -0.1188 -0.5494 -0.8271
vn 0.0193 0.0126 -0.9997
vn -0.1484 0.5578 -0.8166
vn -0.0019 -0.9308 -0.3654
vn -0.1355 0.9219 0.3630
vn 0.4348 -0.6812 -0.5890
vn 0.6503 -0.2491 -0.7177
vn 0.6257 0.2849 -0.7262
vn 0.5683 0.7180 -0.4019
vn 0.7357 -0.5438 -0.4037
vn 0.9481 0.1236 -0.2929
vn 0.3923 0.9179 -0.0588
vn 0.3694 -0.8714 -0.3228
vn 0.7437 0.6631 0.0852
vn -0.7968 -0.6041 0.0089
vn -0.2016 -0.9665 -0.1589
vn -0.9350 0.2765 0.2220
vn -0.4600 0.8151 0.3522
vn 0.7763 -0.5691 -0.2712
vn 0.9627 -0.1015 -0.2508
vn 0.7043 0.7081 0.0505
vn 0.9875 0.1193 -0.1035
vn -0.5997 0.7801 0.1787
vn 0.4593 -0.8609 -0.2191
vn 0.1939 0.9594 0.2047
vn 0.0903 -0.9880 -0.1256
vn -0.6720 -0.7275 -0.1387
vn -0.9784 -0.2050 -0.0267
vn -0.9981 -0.0581 0.0184
vn 0.0862 0.9749 0.2053
vn 0.8513 -0.5062 -0.1380
vn 0.6876 0.7239 0.0556
vn 0.0096 -0.9850 -0.1724
vn -0.7624 0.6361 0.1192
vn -0.3533 0.9267 0.1280
vn 0.9887 0.1436 -0.0431
vn -0.5918 -0.7893 -0.1636
vn -0.9407 -0.3369 -0.0404
vn -0.8739 0.4841 0.0438
vn 0.5739 0.8048 0.1516
vn 0.9901 -0.1399 -0.0080
vn 0.9346 0.3527 0.0459
vn 0.2087 0.9480 0.2405
vn -0.1560 0.9757 0.1540
vn 0.6626 -0.7406 -0.1115
vn -0.8022 0.5971 -0.0042
vn -0.5328 0.8450 0.0457
vn -0.4346 -0.8958 -0.0926
vn 0.5281 -0.8480 -0.0438
vn -0.9965 0.0764 -0.0339
vn 0.1530 0.9834 0.0973
vn 0.6795 0.7206 0.1379
vn 0.9180 -0.3965 0.0063
vn -0.9754 0.2160 -0.0434
vn -0.7010 0.7121 -0.0400
vn -0.0858 0.9962 0.0146
vn 0.1227 -0.9923 0.0193
vn 0.5416 0.8387 0.0562
vn 0.9837 0.1720 0.0520
vn -0.8279 0.5582 -0.0550
vn -0.9601 -0.2795 0.0067
vn 0.6989 -0.7071 0.1078
vn 0.2217 -0.9749 0.0187
vn -0.5376 -0.8414 0.0553
vn -0.3539 0.9332 -0.0615
vn 0.1764 0.9840 -0.0234
vn -0.8045 -0.5526 0.2176
vn -0.9989 -0.0123 0.0444
vn 0.9578 0.2836 0.0462
vn -0.9636 0.0410 0.2641
vn -0.7215 -0.5382 0.4357
vn -0.2910 -0.9203 0.2614
vn -0.7837 0.6021 -0.1528
vn -0.3428 0.9128 -0.2219
vn 0.0944 -0.9856 0.1405
vn 0.4437 0.8888 -0.1142
vn 0.9220 0.3867 -0.0178
vn 0.8173 -0.5581 0.1437
vn -0.4725 -0.7894 0.3918
vn 0.1215 -0.9272 0.3543
vn -0.8460 0.4931 -0.2028
vn 0.2519 0.9221 -0.2937
vn 0.7481 0.6344 -0.1947
vn -0.2943 0.8097 -0.5077
vn 0.3429 -0.8403 0.4200
vn 0.9574 0.0970 0.2719
vn 0.8082 -0.5052 0.3027
vn 0.9905 0.0975 -0.0967
vn -0.2695 -0.5024 0.8216
vn -0.7310 -0.0828 0.6774
vn -0.2591 0.0894 0.9617
vn -0.6309 0.5189 0.5768
vn 0.1176 -0.7827 0.6113
vn -0.7897 0.6124 -0.0352
vn -0.1993 0.9444 0.2614
vn -0.3015 0.8436 -0.4444
vn 0.4888 0.7154 -0.4992
vn 0.7108 0.6074 -0.3546
vn 0.3071 -0.2607 0.9153
vn -0.0140 0.5652 0.8248
vn 0.7155 -0.2645 0.6467
vn 0.5347 0.3663 0.7615
vn 0.5590 0.7476 0.3587
vn 0.2774 0.9161 -0.2897
vn 0.7958 0.5686 -0.2085
s 1
f 23//1 1//2 2//3
f 3//4 23//1 2//3
f 4//5 5//6 2//3
f 1//2 4//5 2//3
f 1//2 6//7 4//5
f 7//8 8//9 4//5
f 4//5 8//9 5//6
f 7//8 4//5 6//7
f 9//10 8//9 7//8
f 10//11 7//8 6//7
f 9//10 7//8 10//11
f 11//12 3//4 2//3
f 5//6 11//12 2//3
f 11//12 5//6 13//13
f 8//9 14//14 5//6
f 9//10 14//14 8//9
f 13//13 5//6 14//14
f 15//15 23//1 3//4
f 6//7 16//16 10//11
f 15//15 3//4 12//17
f 3//4 11//12 12//17
f 19//18 12//17 11//12
f 13//13 19//18 11//12
f 13//13 20//19 19//18
f 20//19 13//13 14//14
f 14//14 21//20 20//19
f 17//21 12//17 19//18
f 17//21 19//18 22//22
f 20//19 22//22 19//18
f 21//20 22//22 20//19
f 18//23 9//10 10//11
f 21//20 14//14 9//10
f 18//23 21//20 9//10
f 24//24 15//15 12//17
f 12//17 17//21 24//24
f 18//23 10//11 16//16
f 21//20 25//25 22//22
f 21//20 18//23 25//25
f 27//26 1//2 23//1
f 26//27 23//1 15//15
f 15//15 24//24 26//27
f 1//2 28//28 6//7
f 28//28 29//29 6//7
f 16//16 6//7 29//29
f 30//30 24//24 17//21
f 31//31 30//30 17//21
f 25//25 18//23 16//16
f 17//21 22//22 31//31
f 32//32 33//33 25//25
f 25//25 33//33 22//22
f 27//26 23//1 26//27
f 28//28 1//2 27//26
f 34//34 29//29 28//28
f 35//35 26//27 24//24
f 30//30 35//35 24//24
f 29//29 36//36 16//16
f 36//36 25//25 16//16
f 36//36 32//32 25//25
f 31//31 22//22 33//33
f 37//37 27//26 26//27
f 34//34 36//36 29//29
f 30//30 31//31 33//33
f 27//26 38//38 39//39
f 39//39 40//40 27//26
f 27//26 37//37 38//38
f 27//26 40//40 28//28
f 28//28 40//40 34//34
f 37//37 26//27 35//35
f 34//34 41//41 36//36
f 42//42 35//35 30//30
f 30//30 33//33 42//42
f 33//33 32//32 43//43
f 37//37 44//44 38//38
f 45//45 40//40 39//39
f 34//34 45//45 46//46
f 40//40 45//45 34//34
f 41//41 34//34 46//46
f 35//35 42//42 37//37
f 41//41 32//32 36//36
f 43//43 32//32 41//41
f 42//42 33//33 47//47
f 33//33 43//43 47//47
f 48//48 49//49 38//38
f 49//49 39//39 38//38
f 49//49 50//50 39//39
f 39//39 50//50 45//45
f 53//51 43//43 41//41
f 47//47 51//52 42//42
f 52//53 43//43 53//51
f 52//53 47//47 43//43
f 52//53 51//52 47//47
f 38//38 44//44 48//48
f 54//54 46//46 55//55
f 44//44 37//37 56//56
f 54//54 41//41 46//46
f 56//56 37//37 42//42
f 42//42 51//52 56//56
f 59//57 45//45 50//50
f 45//45 59//57 60//58
f 48//48 44//44 57//59
f 57//59 44//44 61//60
f 57//59 49//49 48//48
f 49//49 58//61 50//50
f 60//58 46//46 45//45
f 62//62 55//55 60//58
f 54//54 55//55 62//62
f 61//60 44//44 56//56
f 53//51 64//63 52//53
f 53//51 54//54 64//63
f 63//64 56//56 51//52
f 53//51 41//41 54//54
f 49//49 67//65 58//61
f 67//65 68//66 59//57
f 68//66 60//58 59//57
f 60//58 68//66 69//67
f 66//68 57//59 61//60
f 63//64 61//60 56//56
f 71//69 64//63 62//62
f 54//54 62//62 64//63
f 70//70 51//52 52//53
f 70//70 52//53 64//63
f 51//52 70//70 63//64
f 76//71 68//66 67//65
f 67//65 49//49 65//72
f 73//73 74//74 66//68
f 73//73 66//68 61//60
f 73//73 61//60 63//64
f 69//67 62//62 60//58
f 69//67 71//69 62//62
f 75//75 65//72 49//49
f 49//49 57//59 75//75
f 76//71 72//76 68//66
f 77//77 69//67 72//76
f 77//77 71//69 69//67
f 72//76 69//67 68//66
f 70//70 64//63 71//69
f 65//72 75//75 80//78
f 57//59 66//68 75//75
f 74//74 75//75 66//68
f 65//72 78//79 67//65
f 67//65 78//79 76//71
f 73//73 63//64 79//80
f 79//80 71//69 77//77
f 79//80 63//64 70//70
f 79//80 70//70 71//69
f 81//81 78//79 80//78
f 83//82 81//81 80//78
f 75//75 82//83 80//78
f 65//72 80//78 78//79
f 76//71 78//79 85//84
f 86//85 72//76 85//84
f 82//83 75//75 84//86
f 84//86 75//75 74//74
f 73//73 84//86 74//74
f 76//71 85//84 72//76
f 72//76 87//87 77//77
f 79//80 87//87 88//88
f 77//77 87//87 79//80
f 79//80 91//89 73//73
f 91//89 79//80 88//88
f 80//78 89//90 83//82
f 90//91 89//90 82//83
f 90//91 82//83 84//86
f 82//83 89//90 80//78
f 81//81 92//92 78//79
f 92//92 85//84 78//79
f 84//86 91//89 90//91
f 91//89 84//86 73//73
f 86//85 93//93 72//76
f 87//87 72//76 93//93
f 94//94 87//87 93//93
f 94//94 88//88 87//87
f 85//84 92//92 95//95
f 96//96 90//91 91//89
f 86//85 85//84 95//95
f 86//85 95//95 93//93
f 91//89 98//97 97//98
f 98//97 91//89 99//99
f 91//89 88//88 99//99
f 94//94 99//99 88//88
f 83//82 100//100 101//101
f 100//100 102//102 101//101
f 103//103 101//101 102//102
f 104//104 83//82 89//90
f 104//104 89//90 96//96
f 83//82 104//104 100//100
f 83//82 101//101 81//81
f 101//101 103//103 81//81
f 103//103 105//105 81//81
f 105//105 103//103 106//106
f 96//96 89//90 90//91
f 104//104 96//96 97//98
f 97//98 96//96 91//89
f 81//81 105//105 92//92
f 92//92 105//105 95//95
f 107//107 95//95 105//105
f 95//95 108//108 93//93
f 94//94 109//109 99//99
f 94//94 93//93 108//108
f 102//102 100//100 110//110
f 110//110 111//111 102//102
f 100//100 104//104 110//110
f 112//112 110//110 104//104
f 97//98 112//112 104//104
f 97//98 98//97 112//112
f 111//111 103//103 102//102
f 110//110 113//113 111//111
f 114//114 111//111 113//113
f 113//113 110//110 112//112
f 98//97 114//114 113//113
f 111//111 114//114 106//106
f 106//106 107//107 105//105
f 103//103 111//111 106//106
f 106//106 114//114 115//115
f 98//97 99//99 109//109
f 108//108 95//95 115//115
f 115//115 116//116 108//108
f 108//108 116//116 109//109
f 98//97 109//109 116//116
f 115//115 95//95 107//107
f 107//107 106//106 115//115
f 114//114 116//116 115//115
f 108//108 109//109 94//94
f 113//113 112//112 98//97
f 98//97 116//116 114//114
