# Blender v2.78 (sub 0) OBJ File: 'exporter.blend'
# www.blender.org
o FJ2128.obj_grp1.881
v 0.532815 -0.481684 -0.298518
v 0.532843 -0.479431 -0.298387
v 0.533306 -0.480552 -0.296214
v 0.530683 -0.480370 -0.300682
v 0.522736 -0.513099 -0.273692
v 0.530262 -0.482798 -0.300156
v 0.531329 -0.478772 -0.299742
v 0.531480 -0.477282 -0.297663
v 0.524629 -0.509936 -0.273431
v 0.525739 -0.504681 -0.274360
v 0.532719 -0.478580 -0.295498
v 0.530794 -0.477240 -0.294611
v 0.525423 -0.497629 -0.287451
v 0.527971 -0.481821 -0.300647
v 0.529100 -0.478516 -0.300355
v 0.528617 -0.476987 -0.298836
v 0.529919 -0.476500 -0.296100
v 0.527496 -0.476681 -0.296297
v 0.527694 -0.477215 -0.294578
v 0.525811 -0.499374 -0.276300
v 0.525062 -0.491332 -0.281681
v 0.516665 -0.531413 -0.261816
v 0.520785 -0.500156 -0.283610
v 0.525747 -0.479023 -0.298995
v 0.525803 -0.480344 -0.299422
v 0.519282 -0.499050 -0.280866
v 0.525267 -0.479706 -0.294959
v 0.521621 -0.495161 -0.279462
v 0.520878 -0.512281 -0.275930
v 0.518372 -0.509932 -0.276931
v 0.520270 -0.507451 -0.269013
v 0.516717 -0.525854 -0.267657
v 0.517534 -0.528601 -0.260815
v 0.520680 -0.515473 -0.265355
v 0.516493 -0.521173 -0.261014
v 0.507323 -0.551716 -0.255251
v 0.516987 -0.525571 -0.259979
v 0.516889 -0.508370 -0.275521
v 0.514940 -0.513517 -0.266721
v 0.514798 -0.520877 -0.269941
v 0.512601 -0.518808 -0.266611
v 0.511948 -0.521782 -0.262340
v 0.512221 -0.522434 -0.267350
v 0.513262 -0.528841 -0.266529
v 0.513276 -0.523957 -0.259706
v 0.502420 -0.559325 -0.245156
v 0.503251 -0.551162 -0.247650
v 0.502737 -0.562859 -0.246554
v 0.509364 -0.532389 -0.263908
v 0.502048 -0.545401 -0.252049
v 0.503774 -0.552430 -0.256455
v 0.501105 -0.564368 -0.249126
v 0.500356 -0.554767 -0.254791
v 0.504667 -0.538696 -0.258410
v 0.499332 -0.565337 -0.249583
v 0.496894 -0.566020 -0.249372
v 0.497799 -0.557679 -0.244873
v 0.493999 -0.579431 -0.237061
v 0.498523 -0.564108 -0.241197
v 0.494519 -0.577925 -0.235362
v 0.490661 -0.568320 -0.243056
v 0.494321 -0.564498 -0.248598
v 0.491594 -0.581770 -0.237361
v 0.492311 -0.577506 -0.241337
v 0.495640 -0.567247 -0.238673
v 0.492269 -0.567768 -0.238770
v 0.490997 -0.581786 -0.229348
v 0.493103 -0.563366 -0.244138
v 0.490769 -0.573739 -0.243335
v 0.481978 -0.585313 -0.230634
v 0.492269 -0.567768 -0.238770
v 0.485403 -0.578040 -0.232379
v 0.487671 -0.582961 -0.236743
v 0.488669 -0.580385 -0.228279
v 0.483921 -0.593636 -0.226219
v 0.486665 -0.592721 -0.224078
v 0.486188 -0.591347 -0.220340
v 0.483430 -0.591058 -0.217177
v 0.487377 -0.577049 -0.231325
v 0.483270 -0.587215 -0.231549
v 0.481228 -0.586277 -0.223150
v 0.481222 -0.593634 -0.225763
v 0.482448 -0.587963 -0.220009
v 0.479551 -0.603654 -0.211739
v 0.474272 -0.613045 -0.195466
v 0.478040 -0.602664 -0.214937
v 0.476689 -0.598078 -0.218943
v 0.471998 -0.601544 -0.209109
v 0.469441 -0.605387 -0.202222
v 0.471173 -0.613744 -0.198682
v 0.472185 -0.606708 -0.194710
v 0.472822 -0.614327 -0.195590
v 0.474447 -0.610975 -0.194099
v 0.473645 -0.609612 -0.193240
v 0.472739 -0.612802 -0.193314
v 0.471101 -0.614687 -0.195803
v 0.470462 -0.604639 -0.198613
v 0.469865 -0.608192 -0.203333
v 0.471263 -0.610810 -0.202310
v 0.468491 -0.609344 -0.202545
v 0.469131 -0.611540 -0.201436
v 0.470130 -0.613556 -0.193529
v 0.470462 -0.611973 -0.192461
v 0.467926 -0.606596 -0.195278
v 0.471458 -0.609508 -0.192644
v 0.468505 -0.609534 -0.193079
v 0.468222 -0.607799 -0.202667
v 0.466732 -0.607963 -0.203322
v 0.468436 -0.606555 -0.202052
v 0.467462 -0.605843 -0.200822
v 0.467214 -0.606844 -0.202300
v 0.468222 -0.607799 -0.202667
v 0.468415 -0.606527 -0.202078
v 0.467205 -0.605536 -0.198509
v 0.437010 -0.606879 -0.214201
v 0.451367 -0.603035 -0.212358
v 0.432860 -0.605876 -0.220447
v 0.446311 -0.602574 -0.207403
v 0.441220 -0.605240 -0.209570
v 0.448009 -0.607363 -0.214384
v 0.428399 -0.596976 -0.220208
v 0.453896 -0.606198 -0.211787
v 0.440914 -0.602417 -0.219222
v 0.433847 -0.603644 -0.222423
v 0.431002 -0.601048 -0.214929
v 0.427614 -0.598545 -0.217449
v 0.437093 -0.598791 -0.218590
v 0.414591 -0.602766 -0.226080
v 0.424378 -0.603939 -0.219495
v 0.426310 -0.598194 -0.225433
v 0.421787 -0.599800 -0.227907
v 0.414627 -0.601382 -0.229086
v 0.424941 -0.601843 -0.217646
v 0.420508 -0.595495 -0.225159
v 0.412399 -0.601666 -0.223294
v 0.415850 -0.596261 -0.228983
v 0.412918 -0.594678 -0.224153
v 0.412343 -0.597762 -0.221901
v 0.406001 -0.598616 -0.231869
v 0.406669 -0.595850 -0.231705
v 0.405868 -0.593425 -0.229954
v 0.393907 -0.599738 -0.229761
v 0.402161 -0.598060 -0.224198
v 0.398582 -0.594280 -0.225238
v 0.402977 -0.592615 -0.227374
v 0.395561 -0.593579 -0.232855
v 0.396249 -0.599051 -0.226384
v 0.392588 -0.596109 -0.225163
v 0.394569 -0.595856 -0.233423
v 0.390938 -0.598063 -0.232381
v 0.389970 -0.590997 -0.230975
v 0.383547 -0.598293 -0.228442
v 0.379017 -0.594636 -0.225163
v 0.381027 -0.594143 -0.233748
v 0.372240 -0.590111 -0.225916
v 0.374270 -0.597088 -0.230694
v 0.383278 -0.591807 -0.233042
v 0.379451 -0.589450 -0.228822
v 0.366887 -0.588192 -0.229804
v 0.367729 -0.595428 -0.231740
v 0.371226 -0.590011 -0.232211
v 0.357997 -0.589786 -0.223459
v 0.366344 -0.592688 -0.232664
v 0.356151 -0.595084 -0.225448
v 0.359842 -0.593490 -0.223874
v 0.350487 -0.592216 -0.230313
v 0.350126 -0.588762 -0.230115
v 0.326219 -0.584418 -0.220796
v 0.325369 -0.592414 -0.221192
v 0.325943 -0.585228 -0.219223
v 0.325704 -0.592202 -0.223554
v 0.326488 -0.585000 -0.224202
v 0.325496 -0.589239 -0.225814
v 0.324917 -0.587333 -0.225412
v 0.325643 -0.591874 -0.219533
v 0.326961 -0.586559 -0.218202
v 0.323883 -0.589863 -0.224631
v 0.323520 -0.586622 -0.223796
v 0.325366 -0.584608 -0.222128
v 0.325725 -0.590781 -0.218531
v 0.323104 -0.590627 -0.221492
v 0.323654 -0.589368 -0.219299
v 0.325487 -0.588053 -0.217808
v 0.322955 -0.587079 -0.220964
v 0.322879 -0.587985 -0.223129
vn 0.8455 -0.2902 -0.4482
vn 0.8604 0.2896 -0.4193
vn 0.9944 0.0046 0.1052
vn 0.3435 0.0457 -0.9380
vn 0.6619 -0.5577 -0.5008
vn 0.2933 -0.5146 -0.8057
vn 0.9524 -0.3044 0.0174
vn 0.8237 0.4937 0.2789
vn 0.8923 0.0347 0.4501
vn 0.5359 0.4652 -0.7045
vn -0.2866 -0.2326 -0.9294
vn -0.0515 0.5077 -0.8600
vn 0.5502 0.7987 -0.2438
vn -0.1182 0.8439 -0.5234
vn 0.1706 0.9789 0.1121
vn -0.4729 0.8801 0.0419
vn 0.3755 0.7688 0.5177
vn -0.3350 0.7873 0.5176
vn -0.0906 -0.6262 -0.7744
vn 0.5933 0.4019 0.6975
vn -0.7650 0.4278 -0.4815
vn -0.6922 0.0304 -0.7210
vn -0.6940 -0.3147 -0.6476
vn -0.9731 0.1254 -0.1935
vn -0.8541 0.5004 0.1417
vn -0.5381 0.6199 0.5711
vn 0.0195 0.6453 0.7637
vn -0.4893 -0.3935 -0.7783
vn 0.2023 -0.6108 -0.7655
vn 0.0228 0.5553 0.8314
vn 0.8996 -0.4277 -0.0879
vn 0.1353 -0.4909 -0.8607
vn 0.9029 -0.1732 0.3934
vn 0.6755 0.1861 0.7135
vn 0.2112 0.3755 0.9024
vn 0.6720 -0.5554 -0.4898
vn 0.6229 0.1406 0.7695
vn -0.6885 0.5171 0.5084
vn -0.8141 -0.1174 -0.5688
vn -0.5390 -0.2697 -0.7980
vn -0.9498 0.2944 -0.1057
vn -0.7202 0.5082 0.4723
vn -0.8095 0.0107 -0.5871
vn -0.1592 -0.3894 -0.9072
vn -0.2490 0.4798 0.8413
vn 0.7167 0.0211 0.6971
vn 0.0311 0.4294 0.9026
vn 0.9145 -0.3785 0.1432
vn -0.6172 -0.1165 -0.7781
vn -0.6861 0.5209 0.5079
vn 0.0555 -0.4467 -0.8929
vn 0.6654 -0.5862 -0.4621
vn -0.4845 -0.2181 -0.8472
vn -0.9199 0.2681 -0.2861
vn 0.2777 -0.5919 -0.7567
vn -0.1851 -0.4658 -0.8653
vn -0.2941 0.5556 0.7777
vn 0.8078 -0.5694 -0.1524
vn 0.3963 0.3319 0.8561
vn 0.9070 -0.2695 0.3236
vn -0.6956 -0.0818 -0.7138
vn -0.9241 0.2859 -0.2537
vn 0.4187 -0.7281 -0.5428
vn 0.1061 -0.6336 -0.7664
vn 0.1221 0.5257 0.8418
vn -0.1099 0.6230 0.7745
vn 0.6716 0.2511 0.6970
vn -0.8260 0.5222 0.2121
vn -0.9009 0.0569 -0.4302
vn -0.5668 0.6622 0.4902
vn -0.5367 -0.3081 -0.7855
vn -0.6676 0.6736 0.3170
vn -0.2352 -0.5996 -0.7649
vn 0.2811 0.5839 0.7616
vn 0.2131 -0.7801 -0.5882
vn 0.7983 -0.5975 -0.0758
vn 0.8892 -0.0016 0.4575
vn 0.5129 0.5425 0.6653
vn -0.3777 0.7141 0.5894
vn -0.5825 -0.4105 -0.7015
vn -0.5341 0.7337 0.4200
vn -0.3739 -0.6143 -0.6949
vn -0.0325 0.7555 0.6543
vn 0.7818 -0.5839 0.2188
vn 0.5586 -0.7722 -0.3029
vn -0.6977 -0.3942 -0.5981
vn -0.0012 -0.8129 -0.5824
vn -0.9392 0.1700 -0.2983
vn -0.7955 0.4961 -0.3480
vn 0.1006 0.7096 0.6974
vn 0.1603 -0.9047 -0.3947
vn 0.4282 -0.8931 0.1379
vn 0.8118 -0.1254 0.5703
vn 0.5185 0.2316 0.8231
vn 0.4233 -0.4852 0.7651
vn -0.0054 -0.9943 0.1069
vn -0.3009 0.8703 0.3899
vn -0.2674 -0.6828 -0.6799
vn -0.5945 -0.2367 -0.7685
vn 0.1512 -0.6131 -0.7754
vn 0.1257 -0.2673 -0.9554
vn -0.2552 -0.7108 0.6555
vn 0.0846 0.2831 0.9554
vn -0.1356 0.7763 0.6156
vn -0.3663 0.2201 0.9041
vn -0.1271 -0.2453 0.9611
vn -0.1239 0.1733 -0.9770
vn 0.4894 0.3433 -0.8016
vn -0.4141 0.4875 -0.7687
vn -0.0317 0.9462 -0.3220
vn 0.2986 0.6329 -0.7143
vn 0.1512 0.4952 -0.8555
vn 0.0602 0.4127 -0.9089
vn -0.0181 0.9903 0.1376
vn -0.3760 -0.8522 0.3638
vn 0.5017 0.6083 -0.6150
vn 0.3554 0.8615 -0.3626
vn 0.0104 -0.9024 -0.4307
vn -0.5051 -0.2337 0.8308
vn -0.3386 0.5271 0.7794
vn 0.3107 -0.5650 -0.7644
vn 0.0666 0.9743 0.2151
vn 0.5144 -0.0134 -0.8574
vn 0.4840 0.2264 -0.8453
vn 0.3266 -0.3739 -0.8681
vn -0.4146 0.1815 0.8917
vn -0.1454 -0.9810 -0.1287
vn -0.4164 -0.7151 0.5614
vn -0.2233 0.6120 0.7587
vn 0.3225 -0.0754 -0.9436
vn 0.3988 0.5214 -0.7544
vn 0.0888 -0.6519 -0.7531
vn -0.4402 -0.1657 0.8825
vn 0.2533 0.9202 -0.2985
vn -0.3163 -0.6877 0.6535
vn 0.3106 0.5522 -0.7737
vn -0.0795 0.6631 0.7443
vn -0.2584 0.2048 0.9441
vn 0.1094 -0.3607 -0.9262
vn 0.2126 0.3258 -0.9212
vn 0.1985 0.8556 -0.4781
vn -0.1445 -0.9790 -0.1439
vn -0.2276 -0.1998 0.9530
vn -0.0378 0.4967 0.8671
vn 0.0899 0.9495 0.3006
vn 0.1254 0.5066 -0.8530
vn -0.1744 -0.8008 0.5730
vn -0.0410 -0.2058 0.9777
vn -0.0679 -0.6648 -0.7439
vn 0.0358 -0.1018 -0.9942
vn 0.1104 0.9161 -0.3855
vn -0.1337 -0.9211 0.3656
vn -0.0076 -0.2533 0.9674
vn -0.0437 -0.0889 -0.9951
vn 0.1229 0.6120 0.7813
vn -0.1274 -0.9392 -0.3190
vn 0.0380 0.5530 -0.8323
vn 0.1365 0.9798 0.1464
vn 0.0471 0.9459 -0.3209
vn -0.1578 -0.6664 -0.7287
vn 0.0135 0.6080 -0.7938
vn 0.1470 0.1630 0.9756
vn -0.1050 -0.0445 -0.9935
vn 0.0267 -0.4198 0.9072
vn -0.1952 -0.3418 -0.9193
vn -0.0170 -0.9003 0.4349
vn -0.1054 0.4678 -0.8775
vn -0.1949 0.9570 0.2146
vn -0.3865 -0.9132 0.1289
vn -0.3026 0.7343 0.6076
vn -0.3673 -0.8300 -0.4197
vn -0.1946 0.8188 -0.5401
vn -0.3444 -0.2168 -0.9134
vn -0.3121 -0.7736 0.5515
vn -0.4443 0.3047 -0.8425
vn 0.0480 0.4433 0.8951
vn -0.3273 0.1002 0.9396
vn -0.7070 -0.3680 -0.6039
vn -0.7497 0.4811 -0.4545
vn -0.8747 -0.4785 0.0771
vn -0.7758 -0.1621 0.6098
vn -0.1926 -0.4706 0.8611
vn -0.4236 0.9011 -0.0927
vn -0.8940 0.3555 0.2728
vn -0.9531 0.0848 -0.2905
s 1
f 1//1 2//2 3//3
f 1//1 4//4 2//2
f 5//5 6//6 1//1
f 5//5 1//1 9//7
f 3//3 11//8 10//9
f 2//2 11//8 3//3
f 1//1 6//6 4//4
f 7//10 2//2 4//4
f 14//11 4//4 6//6
f 14//11 15//12 4//4
f 7//10 8//13 2//2
f 11//8 2//2 8//13
f 7//10 4//4 15//12
f 16//14 8//13 7//10
f 16//14 7//10 15//12
f 16//14 17//15 8//13
f 16//14 18//16 17//15
f 11//8 8//13 12//17
f 8//13 17//15 12//17
f 18//16 19//18 17//15
f 19//18 12//17 17//15
f 6//6 5//5 13//19
f 10//9 11//8 20//20
f 11//8 12//17 20//20
f 9//7 1//1 3//3
f 9//7 3//3 10//9
f 24//21 15//12 14//11
f 24//21 14//11 25//22
f 14//11 23//23 25//22
f 26//24 25//22 23//23
f 25//22 26//24 24//21
f 24//21 26//24 27//25
f 15//12 24//21 16//14
f 24//21 27//25 18//16
f 16//14 24//21 18//16
f 19//18 18//16 27//25
f 28//26 19//18 27//25
f 6//6 13//19 14//11
f 12//17 19//18 21//27
f 13//19 23//23 14//11
f 23//23 13//19 30//28
f 13//19 29//29 30//28
f 12//17 21//27 20//20
f 31//30 20//20 21//27
f 28//26 21//27 19//18
f 29//29 13//19 5//5
f 22//31 5//5 9//7
f 5//5 32//32 29//29
f 9//7 33//33 22//31
f 9//7 10//9 33//33
f 34//34 10//9 20//20
f 31//30 35//35 34//34
f 20//20 31//30 34//34
f 36//36 32//32 5//5
f 34//34 37//37 33//33
f 10//9 34//34 33//33
f 27//25 26//24 39//38
f 39//38 28//26 27//25
f 23//23 38//39 26//24
f 29//29 40//40 30//28
f 30//28 38//39 23//23
f 26//24 41//41 39//38
f 39//38 41//41 42//42
f 38//39 41//41 26//24
f 28//26 31//30 21//27
f 40//40 43//43 30//28
f 38//39 30//28 43//43
f 31//30 28//26 39//38
f 44//44 40//40 29//29
f 44//44 29//29 32//32
f 39//38 45//45 31//30
f 36//36 5//5 22//31
f 34//34 35//35 37//37
f 45//45 35//35 31//30
f 42//42 45//45 39//38
f 46//46 33//33 37//37
f 47//47 46//46 37//37
f 36//36 22//31 48//48
f 48//48 22//31 33//33
f 41//41 38//39 43//43
f 44//44 49//49 40//40
f 40//40 49//49 43//43
f 42//42 50//50 45//45
f 32//32 36//36 51//51
f 44//44 32//32 51//51
f 50//50 47//47 45//45
f 35//35 47//47 37//37
f 47//47 35//35 45//45
f 52//52 36//36 48//48
f 33//33 46//46 48//48
f 44//44 53//53 49//49
f 54//54 43//43 49//49
f 54//54 41//41 43//43
f 50//50 42//42 41//41
f 51//51 36//36 55//55
f 55//55 56//56 51//51
f 51//51 56//56 53//53
f 51//51 53//53 44//44
f 36//36 52//52 55//55
f 47//47 50//50 57//57
f 58//58 52//52 48//48
f 59//59 46//46 47//47
f 48//48 46//46 60//60
f 53//53 62//61 49//49
f 62//61 54//54 49//49
f 54//54 62//61 61//62
f 41//41 54//54 50//50
f 53//53 56//56 62//61
f 55//55 63//63 64//64
f 56//56 55//55 64//64
f 60//60 58//58 48//48
f 63//63 55//55 52//52
f 59//59 57//57 65//65
f 66//66 65//65 57//57
f 57//57 59//59 47//47
f 52//52 58//58 63//63
f 60//60 46//46 59//59
f 59//59 65//65 67//67
f 60//60 59//59 67//67
f 68//68 50//50 54//54
f 61//62 68//68 54//54
f 61//62 62//61 70//69
f 57//57 50//50 68//68
f 71//70 57//57 68//68
f 56//56 64//64 69//71
f 56//56 69//71 62//61
f 68//68 72//72 71//70
f 64//64 63//63 73//73
f 74//74 67//67 65//65
f 65//65 66//66 74//74
f 63//63 75//75 73//73
f 76//76 63//63 58//58
f 58//58 60//60 76//76
f 77//77 76//76 60//60
f 67//67 77//77 60//60
f 78//78 67//67 74//74
f 69//71 64//64 73//73
f 69//71 70//69 62//61
f 71//70 72//72 79//79
f 68//68 61//62 72//72
f 73//73 80//80 69//71
f 70//69 69//71 80//80
f 79//79 74//74 66//66
f 72//72 81//81 79//79
f 75//75 82//82 73//73
f 63//63 76//76 75//75
f 79//79 83//83 74//74
f 77//77 67//67 78//78
f 77//77 85//84 76//76
f 76//76 84//85 75//75
f 80//80 73//73 82//82
f 80//80 82//82 87//86
f 86//87 82//82 75//75
f 81//81 83//83 79//79
f 83//83 78//78 74//74
f 86//87 75//75 84//85
f 70//69 88//88 61//62
f 61//62 88//88 72//72
f 87//86 70//69 80//80
f 88//88 81//81 72//72
f 86//87 87//86 82//82
f 70//69 87//86 88//88
f 88//88 89//89 81//81
f 91//90 78//78 83//83
f 76//76 85//84 84//85
f 86//87 84//85 90//91
f 90//91 84//85 92//92
f 85//84 77//77 93//93
f 84//85 85//84 92//92
f 77//77 78//78 94//94
f 92//92 85//84 95//95
f 90//91 92//92 96//96
f 95//95 85//84 93//93
f 95//95 93//93 94//94
f 77//77 94//94 93//93
f 97//97 81//81 89//89
f 86//87 99//98 87//86
f 87//86 99//98 98//99
f 87//86 98//99 88//88
f 88//88 98//99 89//89
f 99//98 86//87 90//91
f 99//98 90//91 101//100
f 100//101 99//98 101//100
f 99//98 100//101 98//99
f 97//97 83//83 81//81
f 97//97 91//90 83//83
f 102//102 92//92 95//95
f 92//92 102//102 96//96
f 91//90 94//94 78//78
f 105//103 94//94 91//90
f 104//104 105//103 91//90
f 106//105 105//103 104//104
f 103//106 95//95 94//94
f 95//95 103//106 102//102
f 103//106 94//94 105//103
f 106//105 103//106 105//103
f 98//99 100//101 107//107
f 100//101 108//108 107//107
f 98//99 109//109 89//89
f 107//107 109//109 98//99
f 110//110 89//89 109//109
f 97//97 89//89 110//110
f 108//108 111//111 112//112
f 111//111 113//113 112//112
f 110//110 109//109 111//111
f 97//97 110//110 114//114
f 114//114 91//90 97//97
f 114//114 104//104 91//90
f 102//102 115//115 96//96
f 108//108 116//116 111//111
f 116//116 108//108 100//101
f 110//110 111//111 116//116
f 114//114 110//110 127//117
f 117//118 96//96 115//115
f 119//119 102//102 103//106
f 106//105 119//119 103//106
f 106//105 104//104 118//120
f 120//121 101//100 90//91
f 121//122 104//104 114//114
f 115//115 102//102 119//119
f 122//123 100//101 101//100
f 116//116 100//101 122//123
f 101//100 120//121 122//123
f 121//122 114//114 127//117
f 116//116 122//123 123//124
f 120//121 90//91 117//118
f 127//117 110//110 116//116
f 118//120 119//119 106//105
f 122//123 120//121 123//124
f 90//91 96//96 117//118
f 118//120 104//104 121//122
f 120//121 117//118 124//125
f 118//120 125//126 119//119
f 120//121 124//125 123//124
f 127//117 116//116 123//124
f 128//127 117//118 115//115
f 119//119 129//128 115//115
f 125//126 118//120 126//129
f 123//124 124//125 131//130
f 127//117 123//124 130//131
f 132//132 124//125 117//118
f 131//130 130//131 123//124
f 133//133 129//128 119//119
f 126//129 118//120 121//122
f 133//133 119//119 125//126
f 134//134 127//117 130//131
f 134//134 121//122 127//117
f 129//128 128//127 115//115
f 133//133 125//126 126//129
f 124//125 132//132 131//130
f 132//132 117//118 128//127
f 128//127 129//128 135//135
f 133//133 135//135 129//128
f 130//131 131//130 136//136
f 126//129 121//122 137//137
f 126//129 138//138 133//133
f 139//139 131//130 132//132
f 140//140 136//136 131//130
f 139//139 140//140 131//130
f 134//134 130//131 136//136
f 141//141 134//134 136//136
f 133//133 138//138 135//135
f 142//142 128//127 135//135
f 135//135 138//138 143//143
f 137//137 138//138 126//129
f 144//144 138//138 137//137
f 140//140 141//141 136//136
f 145//145 121//122 134//134
f 138//138 144//144 143//143
f 141//141 140//140 146//146
f 128//127 142//142 132//132
f 134//134 141//141 145//145
f 145//145 137//137 121//122
f 147//147 142//142 135//135
f 147//147 135//135 143//143
f 148//148 143//143 144//144
f 150//149 139//139 132//132
f 149//150 139//139 150//149
f 146//146 140//140 149//150
f 139//139 149//150 140//140
f 132//132 142//142 150//149
f 148//148 147//147 143//143
f 146//146 151//151 141//141
f 145//145 141//141 151//151
f 152//152 142//142 147//147
f 148//148 144//144 153//153
f 154//154 146//146 149//150
f 155//155 144//144 145//145
f 144//144 137//137 145//145
f 147//147 148//148 153//153
f 150//149 142//142 156//156
f 151//151 146//146 157//157
f 158//158 155//155 145//145
f 154//154 149//150 150//149
f 154//154 157//157 146//146
f 145//145 151//151 158//158
f 151//151 159//159 158//158
f 150//149 156//156 160//160
f 160//160 154//154 150//149
f 157//157 154//154 161//161
f 151//151 161//161 159//159
f 152//152 156//156 142//142
f 152//152 147//147 153//153
f 161//161 151//151 157//157
f 153//153 144//144 155//155
f 155//155 162//162 153//153
f 154//154 160//160 163//163
f 165//164 152//152 153//153
f 163//163 161//161 154//154
f 160//160 166//165 163//163
f 156//156 152//152 164//166
f 165//164 153//153 162//162
f 167//167 161//161 163//163
f 159//159 168//168 158//158
f 152//152 165//164 164//166
f 166//165 167//167 163//163
f 167//167 159//159 161//161
f 169//169 156//156 164//166
f 170//170 155//155 158//158
f 170//170 158//158 168//168
f 160//160 156//156 171//171
f 170//170 162//162 155//155
f 167//167 172//172 159//159
f 168//168 159//159 172//172
f 173//173 167//167 166//165
f 175//174 164//166 165//164
f 174//175 172//172 167//167
f 171//171 166//165 160//160
f 173//173 166//165 171//171
f 164//166 175//174 169//169
f 170//170 176//176 162//162
f 183//177 165//164 162//162
f 171//171 177//178 173//173
f 173//173 177//178 174//175
f 173//173 174//175 167//167
f 178//179 172//172 174//175
f 171//171 156//156 169//169
f 171//171 169//169 181//180
f 175//174 181//180 169//169
f 181//180 175//174 182//181
f 182//181 175//174 180//182
f 179//183 168//168 172//172
f 179//183 184//184 168//168
f 168//168 184//184 170//170
f 180//182 175//174 165//164
f 180//182 165//164 183//177
f 176//176 183//177 162//162
f 170//170 183//177 176//176
f 182//181 180//182 183//177
f 171//171 181//180 177//178
f 181//180 185//185 177//178
f 174//175 177//178 178//179
f 178//179 177//178 185//185
f 185//185 184//184 178//179
f 172//172 178//179 179//183
f 184//184 185//185 181//180
f 183//177 170//170 184//184
f 179//183 178//179 184//184
f 184//184 181//180 182//181
f 182//181 183//177 184//184
