# Blender v2.78 (sub 0) OBJ File: 'exporter.blend'
# www.blender.org
o FJ2102.obj_grp1.866
v 0.154061 -0.709672 3.534771
v 0.165747 -0.723772 3.582149
v 0.167903 -0.713857 3.500905
v 0.152506 -0.691176 3.672933
v 0.153317 -0.696350 3.605326
v 0.157779 -0.708802 3.669061
v 0.170529 -0.724013 3.637002
v 0.168387 -0.705697 3.703316
v 0.163138 -0.661638 3.298074
v 0.150478 -0.664844 3.372091
v 0.150918 -0.651341 3.396684
v 0.153428 -0.686615 3.551345
v 0.160771 -0.670856 3.518747
v 0.170891 -0.676172 3.577806
v 0.162636 -0.680960 3.620331
v 0.177216 -0.674037 3.632253
v 0.158254 -0.672588 3.676728
v 0.172382 -0.659867 3.684117
v 0.157219 -0.665021 3.776356
v 0.170544 -0.671980 3.779456
v 0.163579 -0.602627 3.117718
v 0.162922 -0.579861 3.098572
v 0.150549 -0.650558 3.770329
v 0.153255 -0.639856 3.766344
v 0.166770 -0.627518 3.763491
v 0.158983 -0.653620 3.782479
v 0.162500 -0.638854 3.781016
v 0.175039 -0.658231 3.788590
v 0.174883 -0.646945 3.788301
v 0.180876 -0.719088 3.521500
v 0.188014 -0.725780 3.590917
v 0.189437 -0.723445 3.635115
v 0.191234 -0.679956 3.383008
v 0.197274 -0.712864 3.540655
v 0.184279 -0.710961 3.693366
v 0.196884 -0.571311 2.938980
v 0.177983 -0.669074 3.531245
v 0.192856 -0.668373 3.496734
v 0.191589 -0.677285 3.560640
v 0.191572 -0.678045 3.624578
v 0.187678 -0.663169 3.680797
v 0.200933 -0.678921 3.668543
v 0.187008 -0.671044 3.776898
v 0.182428 -0.604903 3.270135
v 0.188866 -0.662508 3.783561
v 0.191199 -0.642657 3.781470
v 0.201134 -0.613142 3.119278
v 0.194736 -0.616369 3.287505
v 0.179193 -0.626956 3.762205
v 0.181619 -0.632583 3.779228
v 0.195860 -0.635922 3.765498
v 0.179280 -0.555797 2.941276
v 0.176586 -0.551681 3.047975
v 0.194676 -0.522544 2.950466
v 0.232250 -0.481840 2.574727
v 0.184174 -0.529798 2.914863
v 0.200459 -0.661147 3.364061
v 0.202690 -0.710915 3.600408
v 0.201996 -0.693490 3.584532
v 0.204321 -0.697417 3.659055
v 0.199425 -0.706451 3.676507
v 0.200626 -0.654998 3.771851
v 0.201134 -0.613142 3.119278
v 0.199337 -0.656966 3.394042
v 0.216822 -0.582405 3.086378
v 0.226670 -0.557434 2.920534
v 0.215555 -0.513817 2.910473
v 0.232283 -0.542107 2.935589
v 0.223544 -0.545453 2.791920
v 0.236309 -0.504307 2.830417
v 0.214079 -0.495376 2.789370
v 0.262173 -0.449166 2.509579
v 0.268359 -0.512839 2.616476
v 0.251548 -0.479577 2.476125
v 0.251688 -0.497536 2.516979
v 0.264076 -0.458758 2.566650
v 0.257788 -0.449895 2.445430
v 0.256280 -0.513095 2.580435
v 0.300431 -0.465027 2.481508
v 0.266381 -0.489836 2.467326
v 0.298484 -0.477402 2.422401
v 0.287896 -0.449743 2.491127
v 0.287356 -0.442233 2.340794
v 0.299846 -0.464525 2.367240
v 0.300576 -0.450677 2.332972
v 0.305922 -0.407016 2.289852
v 0.310443 -0.397324 2.297688
v 0.305517 -0.420135 2.381788
v 0.325396 -0.442548 2.368675
v 0.315953 -0.424786 2.280738
v 0.331591 -0.429470 2.279749
v 0.320720 -0.433348 2.379921
v 0.319223 -0.411832 2.272709
v 0.327950 -0.416744 2.269571
v 0.334375 -0.397071 2.307814
v 0.324257 -0.406326 2.272646
v 0.330593 -0.394048 2.295163
v 0.339421 -0.430154 2.300047
v 0.335160 -0.416080 2.273434
v 0.344828 -0.401084 2.296817
v 0.347916 -0.413556 2.294913
vn -0.3439 -0.9115 -0.2257
vn -0.4961 -0.8682 -0.0131
vn -0.8809 -0.4718 -0.0381
vn -0.9996 0.0164 -0.0218
vn -0.9532 0.3025 -0.0024
vn -0.7613 -0.6293 0.1561
vn -0.3266 -0.9390 0.1082
vn -0.3739 -0.8583 0.3514
vn -0.9518 -0.2980 -0.0727
vn -0.5074 -0.8236 -0.2533
vn -0.9034 0.4183 0.0945
vn -0.9294 0.3580 0.0899
vn -0.2711 0.9612 0.0501
vn -0.5270 0.8303 0.1815
vn -0.6012 0.7951 -0.0803
vn -0.0495 0.9839 -0.1717
vn -0.7939 0.5849 -0.1660
vn -0.2203 0.9204 -0.3229
vn -0.7031 -0.4821 0.5227
vn -0.8780 -0.4442 -0.1782
vn -0.9727 0.2316 -0.0149
vn -0.8389 0.5335 0.1078
vn -0.9561 0.0331 0.2911
vn -0.3773 0.9258 0.0254
vn -0.6371 -0.0333 0.7700
vn -0.5093 0.5483 0.6633
vn -0.0332 -0.2599 0.9651
vn 0.0041 0.2192 0.9757
vn 0.1914 -0.9636 -0.1867
vn 0.3605 -0.9320 -0.0378
vn 0.4399 -0.8916 0.1073
vn 0.6723 -0.7178 -0.1813
vn 0.7624 -0.6377 -0.1105
vn 0.2358 -0.9107 0.3391
vn -0.1791 -0.9452 -0.2732
vn 0.0484 0.9764 0.2103
vn 0.5254 0.8444 0.1045
vn 0.4980 0.8561 0.1383
vn 0.4676 0.8797 -0.0866
vn 0.3792 0.8757 -0.2989
vn 0.8718 0.4805 -0.0958
vn -0.2063 -0.7339 0.6471
vn 0.4613 -0.7187 0.5202
vn 0.5173 -0.3365 0.7869
vn 0.5848 0.3546 0.7296
vn 0.1845 0.9492 0.2550
vn 0.6803 0.6954 0.2314
vn 0.2082 0.9770 -0.0462
vn 0.7663 0.6372 0.0823
vn 0.1724 0.7785 0.6035
vn -0.8973 -0.3961 -0.1950
vn -0.6377 0.7602 0.1245
vn -0.3541 0.9222 0.1554
vn -0.9097 0.4129 -0.0442
vn -0.9830 0.1005 -0.1535
vn 0.9658 -0.2573 -0.0325
vn 0.9170 -0.3988 -0.0092
vn 0.9549 0.2927 -0.0508
vn 0.9956 -0.0925 0.0173
vn 0.7814 -0.5896 0.2042
vn 0.9633 0.2652 0.0417
vn 0.9306 -0.0746 0.3584
vn 0.8720 -0.4850 -0.0654
vn 0.2834 -0.9354 -0.2114
vn 0.9812 -0.1901 0.0336
vn 0.7224 -0.6902 -0.0420
vn 0.3192 0.9196 0.2289
vn 0.9633 0.1811 0.1981
vn -0.0796 -0.9815 -0.1741
vn 0.6303 0.7524 0.1913
vn -0.4478 0.8910 0.0747
vn -0.9122 0.3828 -0.1459
vn -0.8818 -0.3627 -0.3013
vn 0.6858 -0.7276 -0.0158
vn -0.5671 -0.7856 -0.2474
vn -0.2553 0.9561 0.1441
vn 0.1077 0.9799 0.1682
vn -0.0202 -0.9811 -0.1926
vn -0.3061 -0.9044 -0.2971
vn 0.9612 0.2013 0.1887
vn 0.5590 0.7892 0.2542
vn -0.8696 -0.3146 -0.3805
vn -0.0016 -0.9528 -0.3035
vn 0.4984 -0.8588 -0.1190
vn -0.4033 -0.8078 -0.4300
vn -0.8264 0.2824 -0.4872
vn -0.4658 0.8735 -0.1416
vn -0.5754 -0.5219 -0.6297
vn 0.3841 0.8449 0.3724
vn 0.9627 -0.1994 0.1830
vn 0.2838 -0.7569 -0.5887
vn 0.8502 0.4241 0.3120
vn -0.5738 0.1111 -0.8114
vn 0.3628 0.8658 0.3447
vn -0.0098 0.6334 -0.7737
vn 0.7455 -0.6556 -0.1202
vn 0.9857 -0.0407 -0.1637
vn 0.0849 -0.1426 -0.9861
vn 0.6937 0.0441 -0.7189
vn 0.7986 0.5979 -0.0692
vn 0.1427 0.9774 -0.1559
s 1
f 3//1 2//2 1//3
f 1//3 4//4 5//5
f 2//2 6//6 1//3
f 1//3 6//6 4//4
f 6//6 7//7 8//8
f 10//9 9//10 1//3
f 1//3 9//10 3//1
f 1//3 11//11 10//9
f 1//3 12//12 11//11
f 5//5 12//12 1//3
f 14//13 13//14 12//12
f 12//12 5//5 15//15
f 12//12 15//15 14//13
f 15//15 16//16 14//13
f 15//15 5//5 17//17
f 5//5 4//4 17//17
f 18//18 15//15 17//17
f 8//8 19//19 6//6
f 21//20 9//10 10//9
f 10//9 11//11 22//21
f 11//11 12//12 13//14
f 24//22 17//17 4//4
f 4//4 23//23 24//22
f 19//19 23//23 6//6
f 6//6 23//23 4//4
f 25//24 17//17 24//22
f 19//19 26//25 23//23
f 23//23 26//25 27//26
f 26//25 19//19 28//27
f 26//25 29//28 27//26
f 22//21 21//20 10//9
f 18//18 17//17 25//24
f 24//22 23//23 27//26
f 24//22 27//26 25//24
f 3//1 30//29 2//2
f 30//29 31//30 2//2
f 2//2 31//30 7//7
f 2//2 7//7 6//6
f 31//30 32//31 7//7
f 3//1 9//10 30//29
f 33//32 34//33 30//29
f 34//33 31//30 30//29
f 32//31 35//34 7//7
f 8//8 7//7 35//34
f 30//29 9//10 36//35
f 36//35 33//32 30//29
f 13//14 14//13 37//36
f 37//36 14//13 39//37
f 39//37 38//38 37//36
f 14//13 16//16 39//37
f 39//37 16//16 40//39
f 18//18 16//16 15//15
f 16//16 41//40 40//39
f 40//39 41//40 42//41
f 8//8 35//34 20//42
f 20//42 19//19 8//8
f 35//34 43//43 20//42
f 20//42 28//27 19//19
f 16//16 18//18 41//40
f 29//28 26//25 28//27
f 20//42 43//43 45//44
f 28//27 20//42 45//44
f 45//44 46//45 28//27
f 28//27 46//45 29//28
f 44//46 13//14 37//36
f 48//47 44//46 37//36
f 37//36 38//38 48//47
f 49//48 18//18 25//24
f 49//48 41//40 18//18
f 51//49 41//40 49//48
f 50//50 51//49 49//48
f 29//28 50//50 27//26
f 27//26 50//50 25//24
f 49//48 25//24 50//50
f 46//45 50//50 29//28
f 51//49 50//50 46//45
f 21//20 36//35 9//10
f 52//51 21//20 22//21
f 53//52 22//21 11//11
f 53//52 11//11 13//14
f 13//14 44//46 54//53
f 53//52 13//14 54//53
f 21//20 52//51 36//35
f 52//51 22//21 56//54
f 22//21 53//52 56//54
f 55//55 52//51 56//54
f 53//52 54//53 56//54
f 34//33 33//32 57//56
f 58//57 34//33 57//56
f 58//57 31//30 34//33
f 32//31 31//30 58//57
f 58//57 59//58 60//59
f 59//58 42//41 60//59
f 58//57 61//60 32//31
f 60//59 61//60 58//57
f 35//34 32//31 61//60
f 58//57 57//56 64//61
f 58//57 64//61 59//58
f 59//58 64//61 39//37
f 40//39 59//58 39//37
f 42//41 59//58 40//39
f 60//59 42//41 62//62
f 60//59 62//62 61//60
f 43//43 35//34 61//60
f 61//60 62//62 43//43
f 57//56 33//32 63//63
f 38//38 64//61 48//47
f 64//61 38//38 39//37
f 51//49 42//41 41//40
f 62//62 42//41 51//49
f 45//44 43//43 62//62
f 46//45 45//44 62//62
f 36//35 47//64 33//32
f 63//63 65//65 57//56
f 57//56 65//65 64//61
f 65//65 48//47 64//61
f 51//49 46//45 62//62
f 36//35 66//66 47//64
f 63//63 66//66 65//65
f 67//67 48//47 68//68
f 65//65 68//68 48//47
f 44//46 48//47 67//67
f 52//51 69//69 36//35
f 69//69 66//66 36//35
f 67//67 54//53 44//46
f 70//70 67//67 68//68
f 56//54 54//53 71//71
f 55//55 56//54 77//72
f 56//54 71//71 77//72
f 66//66 68//68 65//65
f 55//55 74//73 52//51
f 73//74 68//68 66//66
f 74//73 75//75 52//51
f 52//51 75//75 69//69
f 71//71 72//76 77//72
f 54//53 67//67 71//71
f 67//67 76//77 71//71
f 67//67 70//70 76//77
f 74//73 55//55 77//72
f 72//76 71//71 76//77
f 78//78 73//74 69//69
f 69//69 73//74 66//66
f 80//79 78//78 75//75
f 69//69 75//75 78//78
f 68//68 79//80 70//70
f 74//73 80//79 75//75
f 82//81 76//77 70//70
f 83//82 74//73 77//72
f 84//83 81//84 80//79
f 80//79 81//84 78//78
f 78//78 81//84 73//74
f 73//74 79//80 68//68
f 85//85 80//79 83//82
f 74//73 83//82 80//79
f 70//70 79//80 82//81
f 84//83 80//79 85//85
f 83//82 77//72 86//86
f 86//86 77//72 87//87
f 76//77 82//81 72//76
f 90//88 83//82 86//86
f 87//87 77//72 72//76
f 88//89 87//87 72//76
f 72//76 82//81 88//89
f 81//84 89//90 73//74
f 73//74 89//90 79//80
f 84//83 85//85 91//91
f 85//85 90//88 91//91
f 90//88 85//85 83//82
f 91//91 81//84 84//83
f 79//80 89//90 92//92
f 79//80 92//92 82//81
f 82//81 92//92 88//89
f 93//93 90//88 86//86
f 88//89 95//94 87//87
f 93//93 86//86 96//95
f 86//86 87//87 96//95
f 98//96 81//84 91//91
f 81//84 98//96 89//90
f 101//97 89//90 98//96
f 90//88 93//93 94//98
f 94//98 93//93 96//95
f 94//98 91//91 90//88
f 94//98 99//99 91//91
f 99//99 94//98 96//95
f 99//99 96//95 100//100
f 98//96 91//91 101//97
f 101//97 91//91 99//99
f 101//97 99//99 100//100
f 101//97 100//100 92//92
f 92//92 89//90 101//97
f 92//92 100//100 88//89
f 97//101 96//95 87//87
f 100//100 96//95 97//101
f 95//94 97//101 87//87
f 95//94 100//100 97//101
f 95//94 88//89 100//100
