# Blender v2.78 (sub 0) OBJ File: 'exporter.blend'
# www.blender.org
o FJ2196.obj_grp1.933
v -0.481412 -0.793564 -0.282427
v -0.490244 -0.820124 -0.303789
v -0.488598 -0.815768 -0.296372
v -0.482454 -0.795103 -0.279456
v -0.484724 -0.792335 -0.284698
v -0.482944 -0.791745 -0.280421
v -0.491672 -0.815313 -0.294150
v -0.484256 -0.795094 -0.278289
v -0.498583 -0.872139 -0.319106
v -0.497499 -0.871383 -0.318050
v -0.498020 -0.871135 -0.316523
v -0.502453 -0.872473 -0.319805
v -0.498583 -0.872139 -0.319106
v -0.502411 -0.872206 -0.319829
v -0.500475 -0.872017 -0.320064
v -0.500496 -0.857087 -0.321034
v -0.497499 -0.871383 -0.318050
v -0.498583 -0.872139 -0.319106
v -0.496951 -0.850644 -0.317961
v -0.497480 -0.860952 -0.316283
v -0.497499 -0.871383 -0.318050
v -0.498020 -0.871135 -0.316523
v -0.497499 -0.871383 -0.318050
v -0.497353 -0.870144 -0.316461
v -0.498625 -0.869707 -0.313818
v -0.498611 -0.869761 -0.313776
v -0.497353 -0.870144 -0.316461
v -0.498878 -0.858602 -0.314274
v -0.497235 -0.870143 -0.316428
v -0.496580 -0.849576 -0.314853
v -0.496626 -0.843976 -0.311327
v -0.493365 -0.833268 -0.308004
v -0.498625 -0.869707 -0.313818
v -0.495808 -0.830889 -0.304495
v -0.491990 -0.816031 -0.303517
v -0.486522 -0.791328 -0.282474
v -0.487437 -0.793233 -0.279655
v -0.484918 -0.791735 -0.279689
v -0.503286 -0.861822 -0.319987
v -0.501259 -0.847218 -0.318679
v -0.495960 -0.835271 -0.314268
v -0.500475 -0.872017 -0.320064
v -0.504761 -0.871228 -0.317192
v -0.504159 -0.857214 -0.318498
v -0.502400 -0.872158 -0.319801
v -0.503949 -0.871566 -0.318639
v -0.503949 -0.871566 -0.318639
v -0.502400 -0.872158 -0.319801
v -0.501954 -0.869729 -0.313039
v -0.501873 -0.869772 -0.313498
v -0.503391 -0.859464 -0.315055
v -0.502790 -0.868998 -0.313917
v -0.501954 -0.869731 -0.313038
v -0.504339 -0.870022 -0.315142
v -0.503564 -0.869858 -0.313691
v -0.502790 -0.868998 -0.313917
v -0.498625 -0.869707 -0.313818
v -0.499034 -0.863003 -0.314433
v -0.500996 -0.849247 -0.312485
v -0.498713 -0.856216 -0.313839
v -0.504494 -0.870599 -0.315216
v -0.503564 -0.869858 -0.313691
v -0.502790 -0.868998 -0.313917
v -0.503564 -0.869858 -0.313691
v -0.501954 -0.869731 -0.313038
v -0.498266 -0.830647 -0.305325
v -0.499242 -0.830731 -0.311122
v -0.495280 -0.813720 -0.298841
v -0.492072 -0.816545 -0.295127
v -0.504593 -0.870650 -0.315346
v -0.502488 -0.842854 -0.314212
v -0.504184 -0.871527 -0.318694
v -0.504339 -0.870022 -0.315142
v -0.503564 -0.869858 -0.313691
v -0.568264 -0.827698 -0.305057
v -0.563984 -0.815044 -0.300755
v -0.566306 -0.815566 -0.302853
v -0.565068 -0.819573 -0.299299
v -0.571957 -0.831786 -0.307660
v -0.562681 -0.809780 -0.292061
v -0.564859 -0.806322 -0.296569
v -0.568613 -0.825033 -0.299410
v -0.566522 -0.818831 -0.296886
v -0.562961 -0.808621 -0.296249
v -0.562961 -0.808621 -0.296249
v -0.567432 -0.812072 -0.292526
v -0.568613 -0.825033 -0.299410
v -0.562266 -0.804161 -0.290559
v -0.561632 -0.794540 -0.276242
v -0.562956 -0.789944 -0.276824
v -0.564548 -0.794137 -0.271690
v -0.559057 -0.777088 -0.264475
v -0.559128 -0.779387 -0.262255
v -0.561953 -0.775753 -0.265932
v -0.562142 -0.780836 -0.260952
v -0.561647 -0.777566 -0.260985
v -0.575660 -0.841230 -0.308150
v -0.574946 -0.842437 -0.307037
v -0.578887 -0.840369 -0.308526
v -0.569510 -0.814730 -0.302100
v -0.574984 -0.842835 -0.303818
v -0.574952 -0.842521 -0.307086
v -0.574514 -0.842727 -0.305690
v -0.574984 -0.842835 -0.303818
v -0.576420 -0.841840 -0.307794
v -0.572863 -0.821530 -0.301553
v -0.574984 -0.842835 -0.303818
v -0.576803 -0.842223 -0.302475
v -0.571663 -0.823729 -0.299694
v -0.569159 -0.808636 -0.293692
v -0.569242 -0.808377 -0.293491
v -0.566862 -0.795467 -0.283175
v -0.568496 -0.791625 -0.274686
v -0.566061 -0.790881 -0.278296
v -0.566153 -0.791091 -0.278574
v -0.567659 -0.790451 -0.270756
v -0.565074 -0.777098 -0.265073
v -0.562821 -0.775505 -0.263288
v -0.564721 -0.778080 -0.261533
v -0.575660 -0.841230 -0.308150
v -0.576420 -0.841840 -0.307794
v -0.577547 -0.840817 -0.308798
v -0.579796 -0.840075 -0.307882
v -0.577547 -0.840817 -0.308798
v -0.580763 -0.840281 -0.304973
v -0.574955 -0.842469 -0.307084
v -0.580387 -0.839986 -0.304017
v -0.576336 -0.842356 -0.302832
v -0.578128 -0.841642 -0.302295
v -0.578157 -0.841590 -0.302349
v -0.580387 -0.839986 -0.304017
v -0.578148 -0.841646 -0.302294
v -0.578140 -0.841614 -0.302327
v -0.580769 -0.840279 -0.304973
v -0.580763 -0.840281 -0.304973
v -0.601191 -0.766056 -0.307351
v -0.595796 -0.735664 -0.279305
v -0.596118 -0.733352 -0.281783
v -0.610936 -0.789037 -0.314893
v -0.607350 -0.779629 -0.316028
v -0.608366 -0.784462 -0.312665
v -0.604546 -0.770969 -0.312565
v -0.604635 -0.771120 -0.312609
v -0.604344 -0.761883 -0.308081
v -0.600654 -0.757184 -0.303037
v -0.603931 -0.769928 -0.305151
v -0.600884 -0.760163 -0.298661
v -0.603931 -0.769928 -0.305151
v -0.605443 -0.765517 -0.302277
v -0.605830 -0.759382 -0.298998
v -0.597982 -0.732536 -0.283090
v -0.598560 -0.736380 -0.277833
v -0.601247 -0.733016 -0.282184
v -0.599051 -0.731900 -0.280853
v -0.598092 -0.733260 -0.278588
v -0.611987 -0.780152 -0.316856
v -0.614404 -0.790435 -0.317224
v -0.608029 -0.768180 -0.310896
v -0.616755 -0.793781 -0.309717
v -0.608362 -0.779556 -0.309513
v -0.613788 -0.786660 -0.310613
v -0.610957 -0.777271 -0.309856
v -0.608119 -0.764949 -0.306184
v -0.601802 -0.734909 -0.279187
v -0.621757 -0.794363 -0.315233
v -0.612543 -0.777839 -0.314058
v -0.616103 -0.784755 -0.312271
v -0.626914 -0.806404 -0.308259
v -0.627465 -0.806661 -0.304393
v -0.623609 -0.793375 -0.310905
v -0.622033 -0.794795 -0.308143
v -0.629212 -0.805220 -0.309918
v -0.631850 -0.804189 -0.302744
v -0.632224 -0.803475 -0.308019
v -0.631851 -0.804187 -0.302741
v -0.632281 -0.802504 -0.306330
v -0.628436 -0.806646 -0.303309
v -0.630164 -0.805508 -0.302086
v -0.629847 -0.805273 -0.302321
v -0.630167 -0.805624 -0.302263
v -0.628545 -0.806574 -0.303419
v -0.631111 -0.805091 -0.303002
v -0.615037 -0.697803 -0.297300
v -0.630129 -0.716814 -0.301732
v -0.615137 -0.697734 -0.299974
v -0.634160 -0.720048 -0.306353
v -0.616665 -0.696052 -0.301644
v -0.616390 -0.694514 -0.298256
v -0.617427 -0.696829 -0.295366
v -0.633188 -0.803541 -0.306068
v -0.633188 -0.803541 -0.306068
v -0.633188 -0.803541 -0.306068
v -0.632915 -0.803898 -0.303624
v -0.632915 -0.803898 -0.303624
v -0.630227 -0.805740 -0.302462
v -0.630159 -0.805513 -0.302094
v -0.631850 -0.804189 -0.302744
v -0.632915 -0.803898 -0.303624
v -0.619486 -0.693782 -0.298750
v -0.619687 -0.695002 -0.296205
v -0.634166 -0.717336 -0.307131
v -0.637072 -0.714630 -0.305422
v -0.634577 -0.718236 -0.300468
v -0.636714 -0.716066 -0.300797
v -0.646792 -0.730420 -0.305384
v -0.659619 -0.745377 -0.317579
v -0.643069 -0.722739 -0.309407
v -0.646480 -0.723848 -0.307795
v -0.643342 -0.725995 -0.310826
v -0.662781 -0.748048 -0.315558
v -0.656988 -0.739298 -0.317410
v -0.664125 -0.746441 -0.314172
v -0.664895 -0.743943 -0.314024
v -0.666238 -0.746255 -0.320677
v -0.666473 -0.748543 -0.313753
v -0.663266 -0.749431 -0.317661
v -0.664012 -0.748112 -0.320347
v -0.664012 -0.741061 -0.314348
v -0.663266 -0.749431 -0.317661
v -0.663914 -0.750497 -0.316856
v -0.663754 -0.749947 -0.316245
v -0.663914 -0.750497 -0.316856
v -0.663914 -0.750497 -0.316856
v -0.666224 -0.746281 -0.320625
v -0.664012 -0.748112 -0.320347
v -0.668397 -0.744323 -0.318049
v -0.664796 -0.750159 -0.314638
v -0.664407 -0.748530 -0.314803
v -0.664407 -0.748530 -0.314803
v -0.663754 -0.749947 -0.316245
v -0.664795 -0.750157 -0.314673
v -0.664125 -0.746441 -0.314172
v -0.664796 -0.750159 -0.314638
v -0.664125 -0.746441 -0.314172
v -0.666430 -0.748563 -0.313685
v -0.664943 -0.749667 -0.315104
v -0.666933 -0.747716 -0.313921
v -0.668576 -0.746065 -0.315429
v -0.669072 -0.745523 -0.315374
v -0.668397 -0.744323 -0.318049
v -0.668881 -0.746126 -0.314563
v -0.667555 -0.747735 -0.313837
v -0.667280 -0.747962 -0.313520
v -0.668881 -0.746126 -0.314563
v -0.667414 -0.747616 -0.313637
v -0.668881 -0.746126 -0.314563
v -0.667463 -0.747431 -0.313689
v -0.667285 -0.744891 -0.315227
v -0.667285 -0.744891 -0.315227
v -0.668543 -0.745657 -0.314904
v -0.669052 -0.745505 -0.315362
v -0.668881 -0.746126 -0.314563
v -0.668543 -0.745657 -0.314904
v -0.668576 -0.746065 -0.315429
v -0.668397 -0.744323 -0.318049
v -0.669045 -0.745516 -0.315367
v -0.668576 -0.746065 -0.315429
v -0.668543 -0.745657 -0.314904
vn 0.9529 0.2642 -0.1487
vn 0.1578 0.7420 -0.6516
vn 0.5494 0.7822 0.2938
vn -0.3204 -0.4862 0.8130
vn 0.7921 -0.5131 0.3307
vn 0.0672 -0.1611 0.9847
vn 0.7535 -0.1747 0.6338
vn 0.1987 -0.9274 0.3169
vn 0.3627 -0.8924 0.2684
vn 0.0618 -0.9233 0.3791
vn -0.1169 -0.9344 0.3364
vn 0.0626 -0.9667 -0.2481
vn 0.0746 -0.9736 -0.2156
vn 0.0287 -0.9608 -0.2758
vn 0.0494 0.0904 -0.9947
vn 0.7381 0.0051 -0.6747
vn 0.5846 -0.0300 -0.8107
vn 0.8285 0.0808 -0.5542
vn 0.9996 -0.0273 0.0042
vn 0.9998 -0.0049 0.0178
vn 0.7516 -0.5293 0.3937
vn 0.7681 -0.5375 0.3481
vn 0.7516 -0.5293 0.3936
vn 0.7333 -0.5199 0.4383
vn 0.9945 0.0157 -0.1034
vn 0.8515 0.0359 0.5231
vn 0.9764 -0.1441 0.1609
vn 0.6482 -0.1062 0.7541
vn 0.5542 -0.3821 0.7395
vn 0.8357 -0.3542 0.4198
vn 0.8235 0.0724 0.5627
vn 0.8894 0.0678 -0.4520
vn 0.3473 0.3013 -0.8880
vn 0.1156 0.5611 -0.8197
vn 0.0830 -0.5153 0.8530
vn -0.4490 0.8756 -0.1783
vn -0.7155 0.2843 0.6382
vn -0.0327 0.7734 0.6331
vn -0.4048 0.3053 -0.8619
vn 0.1801 -0.0544 -0.9821
vn -0.9218 0.1185 -0.3691
vn -0.7165 -0.0348 -0.6968
vn -0.6001 -0.0009 -0.8000
vn -0.5985 -0.7868 -0.1508
vn -0.0641 -0.9502 0.3049
vn -0.2535 -0.0470 -0.9662
vn -0.6944 -0.0152 -0.7195
vn 0.0689 -0.8875 0.4557
vn -0.0179 -0.9157 0.4014
vn -0.8634 -0.0058 0.5044
vn -0.6744 0.0455 0.7369
vn -0.7074 0.0396 0.7057
vn -0.6740 0.6829 0.2817
vn 0.0942 0.0960 0.9909
vn 0.4643 -0.0772 0.8823
vn 0.1001 0.0798 0.9918
vn -0.3745 -0.1459 0.9157
vn 0.3115 -0.1086 0.9440
vn -0.0536 -0.9323 0.3577
vn -0.1364 -0.8616 0.4888
vn -0.3552 0.5244 0.7738
vn -0.6372 -0.1871 0.7477
vn -0.6796 0.4746 -0.5594
vn -0.9259 0.3744 -0.0511
vn 0.3346 -0.6526 0.6798
vn -0.9778 0.2094 0.0035
vn -0.9844 0.0833 0.1551
vn -0.8725 0.2073 0.4424
vn -0.7525 0.0956 0.6516
vn -0.9964 0.0189 -0.0821
vn 0.2894 0.3306 -0.8983
vn 0.8642 0.0812 -0.4965
vn 0.8453 -0.2126 -0.4901
vn 0.8672 -0.4209 0.2662
vn 0.2529 0.0393 -0.9667
vn 0.5486 -0.3932 0.7378
vn 0.3313 -0.5027 0.7984
vn 0.8387 -0.3883 0.3818
vn 0.1440 0.6868 -0.7125
vn 0.6550 0.4468 -0.6094
vn 0.9936 -0.0732 -0.0858
vn -0.3266 -0.4765 0.8163
vn 0.9126 0.2763 -0.3014
vn 0.9654 -0.1854 0.1832
vn 0.5725 0.4850 -0.6611
vn 0.0738 -0.7031 0.7072
vn 0.8278 0.5592 -0.0441
vn 0.8294 -0.0635 0.5550
vn 0.0928 0.8886 -0.4492
vn 0.0452 -0.3855 0.9216
vn 0.1953 0.4262 0.8833
vn 0.8984 -0.3003 -0.3203
vn 0.4343 -0.1133 -0.8936
vn -0.5267 0.5154 -0.6760
vn -0.4727 0.3499 -0.8088
vn 0.9218 -0.3860 -0.0362
vn -0.3325 -0.9374 -0.1036
vn -0.3786 -0.9220 -0.0810
vn -0.0931 -0.9863 -0.1359
vn 0.4902 -0.3671 0.7905
vn 0.4767 -0.3574 0.8031
vn 0.0067 -0.1204 0.9927
vn -0.1998 -0.1786 0.9634
vn -0.4734 -0.0424 0.8798
vn -0.9803 0.1971 0.0133
vn -0.9686 -0.0807 0.2351
vn -0.9173 -0.3374 0.2113
vn -0.4665 0.6824 -0.5627
vn -0.9841 0.1670 -0.0601
vn -0.3766 0.6731 -0.6365
vn 0.0807 0.7248 -0.6842
vn -0.8112 -0.2790 0.5139
vn -0.7942 0.5803 -0.1803
vn -0.1247 0.9424 0.3105
vn -0.7021 0.2281 0.6745
vn 0.1246 -0.6135 -0.7798
vn 0.1305 -0.6182 -0.7751
vn -0.3956 -0.8994 -0.1857
vn -0.4371 -0.8510 -0.2911
vn -0.4228 -0.8275 -0.3696
vn -0.4077 -0.9040 -0.1291
vn 0.1187 -0.6088 -0.7844
vn -0.3894 -0.9167 -0.0898
vn -0.3891 -0.9169 -0.0890
vn 0.0203 -0.1542 0.9878
vn -0.5631 0.0831 0.8222
vn -0.7835 0.2216 0.5806
vn -0.8914 0.4194 -0.1719
vn -0.7286 -0.4845 0.4841
vn -0.7291 -0.5170 0.4485
vn -0.7045 -0.5467 0.4524
vn 0.8465 -0.0419 0.5307
vn 0.9525 -0.1268 -0.2767
vn 0.8189 0.5603 -0.1242
vn 0.6458 -0.0667 -0.7606
vn 0.8550 -0.4268 0.2946
vn 0.7926 -0.5643 -0.2310
vn 0.4125 0.2469 -0.8768
vn 0.0010 0.4130 -0.9107
vn -0.0149 0.5904 -0.8070
vn 0.7102 0.3773 -0.5944
vn 0.7997 -0.4704 0.3732
vn 0.5748 -0.6006 0.5557
vn 0.2625 -0.5388 0.8005
vn -0.4567 -0.3893 0.7999
vn 0.2309 0.8263 -0.5137
vn 0.0492 -0.2717 0.9611
vn 0.1999 0.6320 0.7487
vn -0.0897 0.9832 0.1588
vn 0.1792 -0.3740 -0.9100
vn -0.3444 0.2950 -0.8913
vn -0.4957 0.5210 -0.6949
vn -0.0079 0.0598 0.9982
vn -0.0269 -0.3569 0.9338
vn 0.5651 -0.2295 0.7925
vn -0.6931 0.0700 0.7174
vn -0.9726 0.2274 0.0486
vn -0.7866 -0.2957 0.5421
vn -0.6588 0.7274 -0.1919
vn -0.7690 0.2095 0.6039
vn -0.4976 0.0386 -0.8665
vn -0.7472 0.5151 0.4199
vn -0.8483 0.4907 -0.1989
vn 0.2626 -0.8900 0.3728
vn 0.2176 -0.9303 -0.2952
vn -0.1384 0.5453 0.8267
vn -0.3364 -0.6938 -0.6368
vn -0.8447 -0.0627 -0.5315
vn -0.7279 0.6820 0.0710
vn 0.1048 0.4484 0.8877
vn -0.3264 0.7189 0.6137
vn -0.7507 0.6542 -0.0920
vn 0.6002 -0.1428 0.7870
vn 0.3648 0.2665 0.8921
vn -0.2666 -0.9628 -0.0432
vn -0.3071 -0.9496 -0.0631
vn 0.9016 -0.1323 0.4118
vn 0.6622 -0.6767 0.3217
vn 0.9270 -0.0954 -0.3627
vn 0.6913 -0.4640 -0.5539
vn 0.3751 0.4305 -0.8210
vn 0.5908 0.7963 0.1302
vn -0.5545 -0.8132 -0.1767
vn -0.7482 0.5636 -0.3500
vn -0.7195 0.6715 0.1773
vn -0.5174 0.7376 0.4340
vn -0.5340 -0.8436 -0.0565
vn -0.6637 -0.5424 0.5152
vn -0.6421 -0.6048 0.4712
vn -0.6431 -0.5512 0.5316
vn -0.6178 -0.5389 0.5726
vn -0.3233 0.9387 -0.1197
vn 0.2713 0.1230 0.9546
vn -0.3319 0.6352 0.6974
vn 0.2490 0.1245 -0.9605
vn -0.3991 0.5876 -0.7038
vn 0.0770 -0.4185 0.9049
vn -0.4921 0.2256 0.8408
vn 0.1156 -0.5010 0.8577
vn 0.6898 -0.6268 -0.3623
vn -0.2971 0.5320 -0.7929
vn -0.6799 0.7188 -0.1452
vn 0.1882 0.2323 -0.9543
vn 0.0843 0.3687 -0.9257
vn 0.6050 -0.6029 0.5201
vn 0.1799 -0.5418 0.8210
vn -0.4791 0.2534 0.8404
vn -0.0117 0.4647 -0.8854
vn -0.2250 0.1853 0.9566
vn 0.8189 -0.5407 0.1926
vn 0.5686 -0.3417 -0.7483
vn -0.6819 0.4544 0.5731
vn 0.5989 -0.6402 -0.4811
vn 0.5315 -0.6923 -0.4880
vn 0.8494 -0.4333 0.3013
vn 0.8053 -0.5306 0.2646
vn -0.6617 -0.7097 -0.2416
vn -0.7080 -0.6239 -0.3309
vn -0.5274 -0.7084 -0.4690
vn 0.8578 -0.3327 0.3917
vn 0.9054 -0.1759 0.3865
vn 0.4662 -0.3810 0.7985
vn 0.4816 -0.5055 0.7159
vn -0.7029 -0.6804 -0.2070
vn 0.9500 -0.2017 0.2383
vn 0.3591 -0.1796 0.9159
vn -0.5614 0.8034 -0.1984
vn -0.7175 -0.6306 -0.2957
vn -0.7515 -0.5477 -0.3678
vn -0.8662 -0.3514 -0.3554
vn -0.6911 -0.6880 -0.2217
vn -0.6949 -0.6999 -0.1651
vn -0.1427 0.6065 0.7822
vn -0.3026 0.5091 0.8058
vn -0.3499 0.6275 0.6955
vn -0.0152 0.1028 0.9946
vn -0.7403 0.5397 0.4008
vn -0.2879 0.7245 0.6262
vn -0.3075 0.8431 0.4411
vn -0.8623 0.4247 -0.2756
vn -0.3794 0.8756 0.2990
vn -0.6308 -0.5923 0.5012
s 1
f 1//1 5//2 6//3
f 7//4 3//5 8//6
f 3//5 1//1 4//7
f 8//6 3//5 4//7
f 6//3 4//7 1//1
f 8//6 4//7 6//3
f 9//8 10//9 11//10
f 9//8 11//10 12//11
f 13//12 14//13 15//14
f 16//15 17//16 18//17
f 19//18 20//19 21//20
f 22//21 23//22 24//23
f 24//23 25//24 22//21
f 21//20 20//19 27//25
f 29//26 30//27 28//28
f 20//19 19//18 30//27
f 31//29 30//27 32//30
f 19//18 32//30 30//27
f 29//26 28//28 33//31
f 19//18 2//32 32//30
f 41//33 35//34 2//32
f 3//5 34//35 32//30
f 32//30 2//32 3//5
f 7//4 34//35 3//5
f 2//32 1//1 3//5
f 1//1 2//32 35//34
f 35//34 5//2 1//1
f 5//2 36//36 6//3
f 37//37 7//4 8//6
f 8//6 6//3 38//38
f 37//37 8//6 38//38
f 36//36 38//38 6//3
f 16//15 40//39 41//33
f 16//15 18//17 42//40
f 44//41 45//42 46//43
f 47//44 12//11 43//45
f 48//46 16//15 42//40
f 44//41 39//47 45//42
f 16//15 48//46 39//47
f 16//15 19//18 17//16
f 41//33 19//18 16//15
f 43//45 12//11 11//10
f 26//48 49//49 11//10
f 51//50 52//51 53//52
f 54//53 55//53 56//53
f 57//54 58//55 50//56
f 50//56 59//57 51//50
f 58//55 60//58 50//56
f 50//56 60//58 59//57
f 28//28 30//27 31//29
f 31//29 59//57 60//58
f 41//33 2//32 19//18
f 11//10 49//49 61//59
f 61//59 49//49 62//60
f 63//61 64//61 65//61
f 59//57 31//29 34//35
f 31//29 32//30 34//35
f 34//35 66//62 59//57
f 67//63 68//64 35//34
f 34//35 69//65 66//62
f 7//4 66//62 69//65
f 68//64 5//2 35//34
f 68//64 37//37 36//36
f 68//64 36//36 5//2
f 38//38 36//36 37//37
f 37//37 68//64 7//4
f 16//15 39//47 40//39
f 39//47 44//41 40//39
f 44//41 71//66 40//39
f 71//66 67//63 40//39
f 61//59 43//45 11//10
f 70//67 74//68 73//69
f 73//69 51//50 70//67
f 44//41 72//70 70//67
f 52//51 51//50 73//69
f 70//67 51//50 44//41
f 71//66 51//50 59//57
f 71//66 44//41 51//50
f 71//66 68//64 67//63
f 41//33 40//39 67//63
f 35//34 41//33 67//63
f 59//57 66//62 71//66
f 66//62 68//64 71//66
f 68//64 66//62 7//4
f 77//71 76//72 75//73
f 75//73 76//72 78//74
f 75//73 79//75 77//71
f 82//76 78//74 83//77
f 76//72 80//78 78//74
f 76//72 81//79 84//80
f 85//81 80//78 76//72
f 76//72 77//71 81//79
f 83//77 78//74 80//78
f 83//77 80//78 86//82
f 85//81 88//83 80//78
f 84//80 81//79 88//83
f 88//83 89//84 80//78
f 89//84 88//83 90//85
f 81//79 90//85 88//83
f 91//86 86//82 80//78
f 91//86 80//78 89//84
f 89//84 92//87 93//88
f 89//84 90//85 92//87
f 93//88 91//86 89//84
f 92//87 90//85 94//89
f 95//90 91//86 93//88
f 92//87 96//91 93//88
f 95//90 93//88 96//91
f 98//92 97//93 79//75
f 100//94 79//75 99//95
f 98//92 75//73 78//74
f 98//92 78//74 101//96
f 104//97 102//98 103//99
f 98//92 79//75 75//73
f 79//75 100//94 77//71
f 100//94 81//79 77//71
f 107//100 78//74 82//76
f 107//100 82//76 108//101
f 108//102 87//103 109//104
f 109//104 87//103 83//77
f 106//105 109//104 110//106
f 106//105 110//106 100//94
f 86//82 109//104 83//77
f 109//104 86//82 110//106
f 110//106 86//82 111//107
f 100//94 112//108 81//79
f 113//109 112//108 100//94
f 110//106 113//109 100//94
f 112//108 90//85 81//79
f 113//109 114//110 112//108
f 90//85 112//108 115//111
f 115//111 114//110 90//85
f 90//85 114//110 94//89
f 116//112 91//86 95//90
f 114//110 117//113 94//89
f 94//89 118//114 92//87
f 92//87 118//114 96//91
f 94//89 117//113 118//114
f 96//91 119//115 95//90
f 119//115 116//112 95//90
f 96//91 118//114 119//115
f 120//116 121//116 122//117
f 99//95 79//75 97//93
f 105//118 123//119 124//120
f 123//119 105//118 125//121
f 121//116 120//116 126//122
f 125//121 105//118 102//98
f 102//98 104//97 128//123
f 129//124 102//98 128//123
f 125//121 102//98 129//124
f 108//102 109//104 130//125
f 133//126 109//104 127//127
f 127//127 109//104 106//105
f 91//86 116//112 86//82
f 86//82 116//112 111//107
f 111//107 116//112 113//109
f 113//109 117//113 114//110
f 113//109 116//112 119//115
f 113//109 119//115 117//113
f 117//113 119//115 118//114
f 100//94 99//95 106//105
f 99//95 134//128 106//105
f 134//128 127//127 106//105
f 131//129 135//130 132//131
f 137//132 136//133 138//134
f 140//135 141//136 139//137
f 140//135 136//133 141//136
f 142//138 136//133 140//135
f 143//139 144//140 142//138
f 136//133 142//138 145//141
f 145//141 142//138 144//140
f 146//142 141//136 136//133
f 136//133 147//143 146//142
f 148//144 147//143 149//145
f 151//146 145//141 144//140
f 136//133 137//132 147//143
f 147//143 152//147 149//145
f 136//133 145//141 138//134
f 151//146 138//134 145//141
f 137//132 138//134 155//148
f 155//148 138//134 154//149
f 151//146 154//149 138//134
f 152//147 147//143 137//132
f 137//132 155//148 152//147
f 139//137 157//150 140//135
f 143//139 140//135 156//151
f 143//139 156//151 144//140
f 144//140 156//151 158//152
f 161//153 141//136 160//154
f 159//155 141//136 161//153
f 146//142 160//154 141//136
f 161//153 160//154 162//156
f 160//154 149//145 162//156
f 160//154 148//144 149//145
f 163//157 149//145 150//158
f 158//152 153//159 144//140
f 158//152 163//157 164//160
f 163//157 150//158 164//160
f 164//160 153//159 158//152
f 150//158 149//145 152//147
f 144//140 153//159 151//146
f 151//146 153//159 154//149
f 164//160 154//149 153//159
f 150//158 152//147 164//160
f 152//147 155//148 164//160
f 155//148 154//149 164//160
f 165//161 156//151 157//150
f 157//150 156//151 140//135
f 167//162 166//163 156//151
f 167//162 162//156 166//163
f 166//163 158//152 156//151
f 141//136 159//155 139//137
f 162//156 167//162 161//153
f 163//157 158//152 166//163
f 166//163 162//156 163//157
f 163//157 162//156 149//145
f 169//164 168//165 139//137
f 139//137 168//165 157//150
f 167//162 171//166 161//153
f 157//150 172//167 165//161
f 157//150 168//165 172//167
f 174//168 170//169 165//161
f 156//151 165//161 170//169
f 156//151 170//169 167//162
f 139//137 159//155 169//164
f 159//155 161//153 171//166
f 167//162 170//169 171//166
f 173//170 159//155 171//166
f 174//168 165//161 172//167
f 175//171 171//166 170//169
f 176//172 170//169 174//168
f 169//164 159//155 177//173
f 159//155 173//170 178//174
f 169//164 179//175 168//165
f 168//165 179//175 172//167
f 178//174 177//173 159//155
f 182//176 172//167 179//175
f 183//177 184//178 185//179
f 186//180 185//179 184//178
f 187//181 188//182 185//179
f 183//177 185//179 188//182
f 172//167 190//183 174//168
f 176//172 174//168 191//184
f 182//176 190//183 172//167
f 176//172 192//185 193//186
f 194//187 190//183 182//176
f 170//169 193//186 175//171
f 176//172 193//186 170//169
f 195//188 196//189 197//190
f 198//191 195//188 197//190
f 185//179 186//180 187//181
f 188//182 187//181 199//192
f 183//177 188//182 189//193
f 200//194 189//193 188//182
f 188//182 199//192 200//194
f 201//195 187//181 186//180
f 202//196 199//192 187//181
f 199//192 202//196 200//194
f 203//197 184//178 189//193
f 184//178 183//177 189//193
f 203//197 189//193 200//194
f 201//195 202//196 187//181
f 204//198 203//197 200//194
f 205//199 203//197 204//198
f 206//200 186//180 184//178
f 202//196 201//195 207//201
f 202//196 208//202 200//194
f 200//194 208//202 204//198
f 186//180 211//203 201//195
f 209//204 207//201 201//195
f 205//199 210//205 203//197
f 184//178 203//197 210//205
f 209//204 211//203 207//201
f 208//202 202//196 207//201
f 206//200 184//178 210//205
f 208//202 207//201 211//203
f 212//206 210//205 205//199
f 213//207 205//199 204//198
f 214//208 208//202 211//203
f 213//207 215//209 205//199
f 210//205 216//210 206//200
f 186//180 206//200 217//211
f 204//198 208//202 218//212
f 211//203 217//211 214//208
f 217//211 211//203 186//180
f 206//200 219//213 217//211
f 220//214 217//211 219//213
f 221//215 222//216 216//210
f 223//217 224//218 225//219
f 216//210 210//205 221//215
f 222//216 221//215 227//220
f 221//215 228//221 227//220
f 229//222 230//223 210//205
f 229//222 210//205 212//206
f 231//224 224//218 223//217
f 228//221 232//225 227//220
f 233//226 234//226 235//226
f 204//198 218//212 213//207
f 208//202 226//227 218//212
f 214//208 226//227 208//202
f 224//218 238//228 239//229
f 240//230 224//218 239//229
f 241//231 238//228 224//218
f 231//224 241//231 224//218
f 241//231 231//224 243//232
f 246//233 247//234 248//235
f 242//236 215//209 213//207
f 249//237 218//212 226//227
f 248//235 247//234 213//207
f 218//212 248//235 213//207
f 250//238 248//235 251//239
f 252//240 253//240 254//240
f 251//239 248//235 255//241
f 256//242 257//242 258//242
f 246//233 248//235 250//238
l 244 245
l 180 181
l 236 237
