# Blender v2.78 (sub 0) OBJ File: 'exporter.blend'
# www.blender.org
o FJ2133.obj_grp1.886
v -0.544990 -0.471849 -0.200249
v -0.547116 -0.470746 -0.197825
v -0.542888 -0.467530 -0.199902
v -0.545930 -0.467934 -0.198348
v -0.540119 -0.467939 -0.200069
v -0.540979 -0.473595 -0.199894
v -0.547141 -0.468410 -0.192704
v -0.543640 -0.465022 -0.196133
v -0.547453 -0.512516 -0.156869
v -0.549767 -0.496254 -0.166098
v -0.538136 -0.470979 -0.199426
v -0.536751 -0.472899 -0.194403
v -0.547019 -0.488936 -0.167264
v -0.542266 -0.466117 -0.191429
v -0.537614 -0.467383 -0.197382
v -0.537215 -0.467348 -0.194844
v -0.537797 -0.467541 -0.197295
v -0.538752 -0.465823 -0.193742
v -0.542504 -0.511461 -0.142724
v -0.541615 -0.502658 -0.168228
v -0.538453 -0.510971 -0.153865
v -0.538605 -0.508940 -0.150408
v -0.549248 -0.519548 -0.143846
v -0.547474 -0.516226 -0.140208
v -0.540724 -0.521874 -0.148362
v -0.538867 -0.517376 -0.139661
v -0.546202 -0.535597 -0.131219
v -0.541092 -0.533745 -0.138196
v -0.536825 -0.532102 -0.136267
v -0.535054 -0.532816 -0.130163
v -0.539148 -0.532073 -0.123804
v -0.538300 -0.548989 -0.125530
v -0.544839 -0.538065 -0.124011
v -0.542208 -0.537476 -0.120731
v -0.541457 -0.549887 -0.117592
v -0.532379 -0.545882 -0.124574
v -0.534107 -0.537593 -0.122755
v -0.534948 -0.552297 -0.109443
v -0.529698 -0.569077 -0.111524
v -0.538471 -0.552154 -0.112162
v -0.529694 -0.555230 -0.119507
v -0.528443 -0.565361 -0.114795
v -0.529930 -0.548890 -0.113644
v -0.536229 -0.560466 -0.114039
v -0.523786 -0.564642 -0.102037
v -0.525249 -0.558197 -0.114190
v -0.531313 -0.565961 -0.104740
v -0.524853 -0.563689 -0.114454
v -0.521003 -0.563053 -0.108415
v -0.518833 -0.566780 -0.103743
v -0.526330 -0.575005 -0.104703
v -0.518681 -0.575340 -0.110168
v -0.518681 -0.575340 -0.110168
v -0.513991 -0.583817 -0.107218
v -0.515297 -0.586613 -0.103859
v -0.522364 -0.575432 -0.099203
v -0.508212 -0.581430 -0.106172
v -0.499750 -0.590802 -0.104636
v -0.507486 -0.579160 -0.103411
v -0.496368 -0.602132 -0.101155
v -0.507511 -0.589623 -0.094633
v -0.510730 -0.591258 -0.098320
v -0.504568 -0.587287 -0.094362
v -0.497778 -0.587869 -0.096654
v -0.467727 -0.618264 -0.099083
v -0.495740 -0.601709 -0.093623
v -0.488402 -0.609211 -0.096255
v -0.487199 -0.595936 -0.099227
v -0.471839 -0.617979 -0.098125
v -0.469387 -0.611748 -0.099875
v -0.479725 -0.604729 -0.090487
v -0.475607 -0.603869 -0.094141
v -0.462885 -0.620597 -0.087239
v -0.462781 -0.624797 -0.091737
v -0.464546 -0.622875 -0.089785
v -0.452779 -0.618116 -0.094751
v -0.448325 -0.618999 -0.091596
v -0.448209 -0.631318 -0.090950
v -0.439920 -0.628311 -0.093039
v -0.450029 -0.623256 -0.084303
v -0.452281 -0.617962 -0.087666
v -0.447294 -0.628844 -0.093895
v -0.443705 -0.629390 -0.081958
v -0.438244 -0.623014 -0.086823
v -0.443705 -0.629390 -0.081958
v -0.425412 -0.628804 -0.078363
v -0.428312 -0.637216 -0.086562
v -0.407523 -0.637190 -0.079338
v -0.414995 -0.639513 -0.071062
v -0.410168 -0.634596 -0.072318
v -0.409495 -0.633726 -0.076932
v -0.411658 -0.644353 -0.078114
v -0.409012 -0.641201 -0.080449
v -0.412708 -0.644370 -0.074141
v -0.406795 -0.637785 -0.075081
v -0.408344 -0.636190 -0.072787
v -0.411881 -0.638133 -0.070518
v -0.408065 -0.642506 -0.075795
v -0.411396 -0.642372 -0.071818
v -0.408796 -0.640872 -0.072080
vn -0.4561 -0.2545 -0.8528
vn -0.6978 0.5172 -0.4956
vn -0.1437 0.5441 -0.8266
vn -0.9072 -0.0397 -0.4187
vn -0.8270 0.5210 0.2114
vn -0.2342 0.9606 -0.1493
vn 0.2923 0.4485 -0.8446
vn 0.1957 -0.4844 -0.8527
vn -0.5645 -0.5966 -0.5704
vn -0.9983 0.0280 0.0512
vn 0.7160 -0.1529 -0.6811
vn 0.4483 0.7723 -0.4500
vn 0.9696 -0.1423 -0.1992
vn 0.9684 0.0576 -0.2425
vn 0.8941 0.4423 0.0700
vn -0.0860 0.8533 0.5142
vn 0.4997 0.8381 0.2189
vn 0.1611 0.6958 0.7000
vn 0.3218 -0.6978 -0.6399
vn 0.9497 -0.2064 -0.2354
vn -0.5359 0.6172 0.5761
vn 0.8910 0.3345 0.3070
vn -0.9887 -0.1495 -0.0086
vn -0.6645 0.4761 0.5759
vn 0.7148 0.5310 0.4551
vn 0.4007 -0.5994 -0.6930
vn 0.4376 -0.5620 -0.7019
vn 0.7810 -0.3488 -0.5180
vn 0.1435 0.6487 0.7474
vn 0.9865 0.1192 -0.1124
vn -0.9199 -0.3571 -0.1622
vn -0.2171 -0.6362 -0.7403
vn -0.9232 0.0520 0.3807
vn -0.5170 0.3951 0.7593
vn 0.7791 -0.1104 -0.6171
vn 0.8482 0.4517 0.2768
vn -0.9421 -0.2821 0.1810
vn 0.5433 -0.2438 -0.8034
vn 0.0534 -0.4655 -0.8835
vn -0.7713 0.0126 0.6364
vn -0.3105 0.3870 0.8683
vn 0.7323 0.5769 0.3620
vn -0.8261 -0.5486 -0.1289
vn -0.5278 -0.6653 -0.5280
vn 0.0908 0.4673 0.8794
vn 0.8763 0.2527 -0.4102
vn -0.7204 -0.1546 0.6761
vn 0.5360 -0.0845 -0.8400
vn 0.6327 0.6601 0.4050
vn 0.2163 -0.1857 -0.9585
vn -0.7820 -0.5949 0.1862
vn 0.8508 0.4769 -0.2208
vn -0.1375 -0.4096 -0.9019
vn -0.6216 -0.7216 -0.3048
vn -0.4858 -0.1369 0.8633
vn 0.5855 0.3818 -0.7152
vn 0.3350 -0.1240 -0.9340
vn 0.3704 0.1630 -0.9145
vn 0.7403 0.5940 -0.3148
vn -0.4399 -0.7208 -0.5356
vn -0.6617 -0.6801 0.3156
vn 0.0846 0.2988 0.9505
vn -0.3990 -0.2000 0.8949
vn 0.5127 0.7376 0.4393
vn -0.0022 -0.4359 -0.9000
vn -0.4971 -0.5380 0.6808
vn 0.5834 0.7453 -0.3227
vn -0.5501 -0.8335 0.0513
vn -0.3623 -0.7322 -0.5767
vn 0.3194 0.2254 -0.9204
vn 0.1922 0.4500 0.8721
vn 0.4693 0.8131 0.3444
vn -0.3358 -0.2728 0.9016
vn -0.4456 -0.8952 -0.0117
vn -0.4897 -0.6696 0.5584
vn 0.4867 0.6232 -0.6121
vn 0.4587 0.8698 -0.1819
vn -0.2730 -0.9139 -0.3005
vn -0.1069 0.3284 0.9385
vn 0.2972 0.8017 0.5186
vn 0.3130 -0.0297 -0.9493
vn 0.0099 -0.5421 -0.8402
vn -0.3165 0.0406 0.9477
vn 0.3282 0.9326 0.1502
vn -0.3367 0.0856 0.9377
vn 0.1692 0.8590 0.4832
vn 0.0304 -0.6907 -0.7225
vn 0.8179 0.2229 -0.5304
vn -0.2916 -0.2469 0.9241
vn 0.3594 0.6474 0.6721
vn 0.5870 0.8026 -0.1061
vn 0.1756 -0.9326 -0.3153
vn -0.0315 -0.9259 0.3764
vn 0.5966 -0.3901 -0.7013
vn 0.9783 0.1248 0.1654
vn 0.6880 0.3630 0.6284
vn 0.1103 0.1038 0.9885
vn 0.7843 -0.6172 0.0632
vn 0.6318 -0.3340 0.6995
vn 0.1545 -0.6356 0.7564
s 1
f 1//1 4//2 3//3
f 4//2 1//1 2//4
f 4//2 2//4 7//5
f 7//5 8//6 4//2
f 5//7 3//3 8//6
f 4//2 8//6 3//3
f 6//8 9//9 1//1
f 2//4 10//10 7//5
f 3//3 5//7 1//1
f 6//8 1//1 5//7
f 11//11 6//8 5//7
f 5//7 8//6 15//12
f 15//12 11//11 5//7
f 12//13 11//11 17//14
f 12//13 17//14 16//15
f 7//5 14//16 8//6
f 15//12 8//6 18//17
f 8//6 14//16 18//17
f 16//15 15//12 18//17
f 14//16 19//18 18//17
f 9//9 2//4 1//1
f 20//19 6//8 11//11
f 20//19 11//11 21//20
f 21//20 11//11 12//13
f 13//21 14//16 7//5
f 19//18 14//16 13//21
f 16//15 22//22 12//13
f 18//17 22//22 16//15
f 2//4 9//9 10//10
f 9//9 6//8 20//19
f 10//10 13//21 7//5
f 9//9 23//23 10//10
f 10//10 24//24 13//21
f 21//20 12//13 22//22
f 22//22 18//17 19//18
f 10//10 23//23 24//24
f 19//18 13//21 24//24
f 22//22 19//18 26//25
f 25//26 9//9 20//19
f 9//9 25//26 28//27
f 20//19 21//20 25//26
f 29//28 25//26 21//20
f 24//24 31//29 19//18
f 22//22 30//30 21//20
f 26//25 30//30 22//22
f 19//18 31//29 26//25
f 23//23 9//9 27//31
f 29//28 28//27 25//26
f 30//30 29//28 21//20
f 32//32 9//9 28//27
f 24//24 23//23 33//33
f 34//34 24//24 33//33
f 33//33 23//23 27//31
f 34//34 31//29 24//24
f 27//31 9//9 32//32
f 36//35 32//32 28//27
f 36//35 28//27 29//28
f 26//25 31//29 37//36
f 37//36 30//30 26//25
f 35//37 33//33 27//31
f 29//28 30//30 36//35
f 41//38 32//32 36//35
f 41//38 42//39 32//32
f 34//34 33//33 40//40
f 40//40 33//33 35//37
f 38//41 34//34 40//40
f 37//36 31//29 43//42
f 37//36 36//35 30//30
f 31//29 34//34 38//41
f 44//43 27//31 32//32
f 42//39 39//44 32//32
f 39//44 44//43 32//32
f 44//43 35//37 27//31
f 38//41 45//45 31//29
f 37//36 46//46 36//35
f 46//46 37//36 43//42
f 35//37 44//43 47//47
f 47//47 40//40 35//37
f 46//46 41//38 36//35
f 31//29 45//45 43//42
f 48//48 42//39 41//38
f 45//45 50//49 43//42
f 52//50 42//39 48//48
f 39//44 51//51 44//43
f 51//51 47//47 44//43
f 40//40 47//47 38//41
f 46//46 48//48 41//38
f 43//42 49//52 46//46
f 50//49 49//52 43//42
f 39//44 42//39 54//53
f 55//54 51//51 39//44
f 47//47 51//51 56//55
f 54//53 42//39 52//50
f 45//45 38//41 47//47
f 45//45 47//47 56//55
f 57//56 53//57 48//48
f 46//46 49//52 48//48
f 57//56 58//58 53//57
f 59//59 57//56 48//48
f 49//52 59//59 48//48
f 54//53 52//50 58//58
f 60//60 39//44 54//53
f 62//61 56//55 51//51
f 63//62 45//45 56//55
f 55//54 39//44 60//60
f 51//51 55//54 62//61
f 56//55 62//61 61//63
f 50//49 59//59 49//52
f 64//64 59//59 50//49
f 55//54 60//60 62//61
f 65//65 60//60 54//53
f 66//66 61//63 62//61
f 64//64 45//45 63//62
f 45//45 64//64 50//49
f 63//62 56//55 61//63
f 68//67 57//56 59//59
f 59//59 64//64 68//67
f 67//68 62//61 60//60
f 58//58 57//56 68//67
f 69//69 60//60 65//65
f 70//70 54//53 58//58
f 71//71 63//62 61//63
f 71//71 64//64 63//62
f 69//69 67//68 60//60
f 62//61 67//68 66//66
f 70//70 65//65 54//53
f 58//58 68//67 70//70
f 68//67 64//64 72//72
f 71//71 72//72 64//64
f 61//63 66//66 73//73
f 74//74 67//68 69//69
f 75//75 66//66 67//68
f 71//71 61//63 73//73
f 76//76 68//67 72//72
f 77//77 76//76 72//72
f 76//76 70//70 68//67
f 78//78 74//74 69//69
f 74//74 75//75 67//68
f 73//73 66//66 75//75
f 71//71 80//79 81//80
f 81//80 72//72 71//71
f 79//81 65//65 70//70
f 82//82 69//69 65//65
f 80//79 71//71 73//73
f 73//73 83//83 80//79
f 77//77 72//72 81//80
f 82//82 78//78 69//69
f 79//81 70//70 76//76
f 81//80 84//84 77//77
f 82//82 65//65 79//81
f 73//73 75//75 85//85
f 81//80 86//86 84//84
f 87//87 78//78 82//82
f 86//86 81//80 80//79
f 88//88 79//81 76//76
f 88//88 76//76 77//77
f 79//81 87//87 82//82
f 80//79 83//83 89//89
f 90//90 86//86 80//79
f 91//91 77//77 84//84
f 87//87 92//92 78//78
f 91//91 84//84 86//86
f 74//74 78//78 94//93
f 78//78 92//92 94//93
f 87//87 79//81 93//94
f 92//92 87//87 93//94
f 89//89 85//85 75//75
f 74//74 94//93 75//75
f 94//93 89//89 75//75
f 88//88 93//94 79//81
f 91//91 88//88 77//77
f 91//91 86//86 90//90
f 95//95 88//88 91//91
f 95//95 91//91 96//96
f 91//91 90//90 96//96
f 80//79 97//97 90//90
f 80//79 89//89 97//97
f 93//94 98//98 92//92
f 92//92 98//98 94//93
f 94//93 98//98 100//99
f 99//100 94//93 100//99
f 94//93 99//100 89//89
f 99//100 97//97 89//89
f 100//99 97//97 99//100
f 98//98 88//88 95//95
f 93//94 88//88 98//98
f 100//99 98//98 95//95
f 100//99 95//95 96//96
f 90//90 97//97 100//99
f 96//96 90//90 100//99
