# Blender v2.78 (sub 0) OBJ File: 'exporter.blend'
# www.blender.org
o FJ2215.obj_grp1.952
v 0.889122 -0.402958 5.078949
v 0.883336 -0.401152 5.061409
v 0.890151 -0.405723 5.079690
v 0.882808 -0.403857 5.058877
v 0.879145 -0.399136 5.045611
v 0.878960 -0.402516 5.044915
v 0.876604 -0.399177 5.034816
v 0.875422 -0.401165 5.027284
v 0.877075 -0.403132 5.032115
v 0.900883 -0.405828 5.108478
v 0.903389 -0.406536 5.110217
v 0.901305 -0.402864 5.108798
v 0.901105 -0.407720 5.107321
v 0.902361 -0.409360 5.106567
v 0.901849 -0.400926 5.107437
v 0.891089 -0.400741 5.082315
v 0.892072 -0.407837 5.079821
v 0.884897 -0.398482 5.062083
v 0.887092 -0.407353 5.059199
v 0.882500 -0.405408 5.052948
v 0.886252 -0.396632 5.057349
v 0.880372 -0.405280 5.038207
v 0.876801 -0.396064 5.028090
v 0.877314 -0.403531 5.016922
v 0.873933 -0.396882 5.014371
v 0.874485 -0.401230 5.011054
v 0.873328 -0.398636 5.008861
v 0.904407 -0.409682 5.108048
v 0.908047 -0.409289 5.107781
v 0.905843 -0.406733 5.110600
v 0.908219 -0.406423 5.109910
v 0.905035 -0.402618 5.110461
v 0.907916 -0.401162 5.109112
v 0.904163 -0.400587 5.108979
v 0.907183 -0.399653 5.107321
v 0.907327 -0.410300 5.105350
v 0.903853 -0.410376 5.102590
v 0.904026 -0.399332 5.106800
v 0.907185 -0.399209 5.104167
v 0.890108 -0.407100 5.059472
v 0.889275 -0.396862 5.058272
v 0.879669 -0.394635 5.025831
v 0.882242 -0.404274 5.026770
v 0.882891 -0.395421 5.030449
v 0.875398 -0.393451 5.003186
v 0.875563 -0.401038 4.996913
v 0.873675 -0.398995 4.997651
v 0.873986 -0.394091 4.989910
v 0.910236 -0.406456 5.108022
v 0.910318 -0.408042 5.106079
v 0.908831 -0.403984 5.109813
v 0.910455 -0.403712 5.107964
v 0.909928 -0.401114 5.106503
v 0.909278 -0.408446 5.102141
v 0.893387 -0.406270 5.063524
v 0.895321 -0.398406 5.069819
v 0.897284 -0.403627 5.069115
v 0.890925 -0.403064 5.050675
v 0.895830 -0.400723 5.066035
v 0.890677 -0.399771 5.050142
v 0.884374 -0.403071 5.028658
v 0.887544 -0.397610 5.042608
v 0.886816 -0.400393 5.034155
v 0.883672 -0.396285 5.023493
v 0.881050 -0.401313 5.004048
v 0.879824 -0.392934 5.001371
v 0.878050 -0.401471 4.996583
v 0.876641 -0.391236 4.983135
v 0.874140 -0.395785 4.984129
v 0.875760 -0.397305 4.977971
v 0.911467 -0.404295 5.104889
v 0.910728 -0.401874 5.105133
v 0.884234 -0.399460 5.019570
v 0.882486 -0.395822 5.007522
v 0.883043 -0.399268 5.009314
v 0.882659 -0.397358 4.991493
v 0.880221 -0.390301 4.979410
v 0.878994 -0.398125 4.971991
v 0.884530 -0.395918 4.957559
v 0.882575 -0.394699 4.991372
v 0.882921 -0.397209 4.983855
v 0.880834 -0.399419 4.983908
v 0.877177 -0.393684 4.967166
v 0.877405 -0.391761 4.967438
v 0.884601 -0.393277 4.974078
v 0.883420 -0.390250 4.972294
v 0.886195 -0.395383 4.959417
v 0.879189 -0.389372 4.967296
v 0.880257 -0.394597 4.959385
v 0.887191 -0.393824 4.962057
v 0.884031 -0.387752 4.960670
v 0.884446 -0.394029 4.950994
v 0.881615 -0.389429 4.954134
v 0.883118 -0.391280 4.949697
v 0.889335 -0.391332 4.956767
v 0.888465 -0.388377 4.956316
v 0.885236 -0.386820 4.948654
v 0.889965 -0.391967 4.939887
v 0.885792 -0.387658 4.944496
v 0.888647 -0.389191 4.938525
v 0.893195 -0.391570 4.946213
v 0.904222 -0.378988 4.915763
v 0.890864 -0.385669 4.947315
v 0.897228 -0.383039 4.935096
v 0.895211 -0.387209 4.943228
v 0.897539 -0.390086 4.930865
v 0.900419 -0.383392 4.918497
v 0.904968 -0.384115 4.912428
v 0.909621 -0.381404 4.917735
v 0.909136 -0.383254 4.906476
v 0.906825 -0.386144 4.916786
v 0.910373 -0.383716 4.915162
v 0.909866 -0.378081 4.913433
v 0.914372 -0.373934 4.898252
v 0.907812 -0.379931 4.904304
v 0.907105 -0.378718 4.906258
v 0.910136 -0.375768 4.903694
v 0.909870 -0.379897 4.899497
v 0.914273 -0.379362 4.907626
v 0.912629 -0.382928 4.905300
v 0.914974 -0.380506 4.904840
v 0.914477 -0.376752 4.904777
v 0.910429 -0.375816 4.897152
v 0.911524 -0.378745 4.893263
v 0.913271 -0.378664 4.889626
v 0.913209 -0.372283 4.890152
v 0.911954 -0.372280 4.886259
v 0.911233 -0.374414 4.887237
v 0.916307 -0.379621 4.895466
v 0.917910 -0.376534 4.893582
v 0.917165 -0.375855 4.896667
v 0.916317 -0.373169 4.893111
v 0.915202 -0.378401 4.887377
v 0.911379 -0.375215 4.883840
v 0.910585 -0.370675 4.875656
v 0.917957 -0.373315 4.886772
v 0.917511 -0.376654 4.886312
v 0.913433 -0.366830 4.870201
v 0.913440 -0.364738 4.862424
v 0.911731 -0.368607 4.874730
v 0.911984 -0.371790 4.864335
v 0.909701 -0.369970 4.862425
v 0.908147 -0.364933 4.856472
v 0.917856 -0.374592 4.883156
v 0.915670 -0.373253 4.871874
v 0.914318 -0.364631 4.855264
v 0.910988 -0.364725 4.863122
v 0.908035 -0.364713 4.851211
v 0.908924 -0.364587 4.847746
v 0.911086 -0.358637 4.848018
v 0.907831 -0.353709 4.835178
v 0.907213 -0.356585 4.835675
v 0.912371 -0.360903 4.840833
v 0.914526 -0.365322 4.859360
v 0.911080 -0.364589 4.846529
v 0.908534 -0.359016 4.836327
v 0.910127 -0.354089 4.838637
v 0.907578 -0.344762 4.815643
v 0.913114 -0.357698 4.839783
v 0.911637 -0.351372 4.831933
v 0.910859 -0.353400 4.825228
v 0.909947 -0.348145 4.816473
v 0.908689 -0.348831 4.827670
v 0.910645 -0.344789 4.821142
v 0.908521 -0.346803 4.815513
v 0.909441 -0.328065 4.791073
v 0.912549 -0.344916 4.818554
v 0.912823 -0.347873 4.821145
v 0.912823 -0.347873 4.821145
v 0.910476 -0.326849 4.791520
v 0.909543 -0.329585 4.790346
v 0.912726 -0.328018 4.793603
v 0.911573 -0.330390 4.789455
v 0.909965 -0.328195 4.789873
v 0.911487 -0.327732 4.789455
v 0.913090 -0.329575 4.789676
v 0.912176 -0.326819 4.790829
v 0.913799 -0.328698 4.791279
v 0.913334 -0.327648 4.790756
vn -0.8520 -0.4327 0.2948
vn -0.9396 0.0130 0.3422
vn -0.8983 -0.3668 0.2421
vn -0.9342 0.1792 0.3084
vn -0.9000 0.3592 0.2470
vn -0.9334 -0.2918 0.2087
vn -0.9659 0.1862 0.1800
vn -0.9614 -0.2528 0.1084
vn -0.7707 -0.6338 0.0662
vn -0.7896 -0.1711 0.5893
vn -0.3731 -0.2923 0.8805
vn -0.6912 0.3012 0.6569
vn -0.7280 -0.5333 0.4309
vn -0.4940 -0.8180 0.2946
vn -0.6156 0.6573 0.4347
vn -0.8069 0.4919 0.3269
vn -0.5608 -0.8155 0.1432
vn -0.6720 -0.7300 0.1247
vn -0.2116 -0.9766 -0.0384
vn -0.6955 0.6733 0.2508
vn -0.3806 -0.9247 -0.0004
vn -0.6856 0.7138 0.1431
vn -0.2147 0.9636 0.1592
vn -0.3124 -0.9469 -0.0762
vn -0.9292 0.3509 0.1164
vn -0.7814 -0.6239 -0.0145
vn -0.9951 -0.0976 0.0125
vn -0.1934 -0.8342 0.5165
vn 0.0834 -0.3350 0.9385
vn 0.4160 -0.7622 0.4960
vn -0.0775 0.3020 0.9501
vn -0.2166 0.7062 0.6741
vn 0.4133 0.5844 0.6983
vn 0.2911 0.8904 0.3498
vn -0.1376 -0.9904 0.0122
vn 0.3051 -0.9510 0.0501
vn -0.1893 0.9338 0.3035
vn 0.3830 0.9228 -0.0412
vn 0.2776 -0.9511 -0.1358
vn 0.2636 0.9646 -0.0110
vn -0.0461 0.9957 0.0802
vn 0.4064 -0.9024 -0.1431
vn 0.3837 0.9234 -0.0116
vn -0.5639 0.8232 0.0661
vn -0.5025 -0.8541 -0.1342
vn -0.9302 -0.3605 -0.0694
vn -0.9115 0.4111 -0.0105
vn 0.4647 -0.3140 0.8279
vn 0.8156 -0.2793 0.5067
vn 0.8289 -0.5500 0.1019
vn 0.5344 0.1180 0.8370
vn 0.8529 0.1688 0.4939
vn 0.7218 0.6473 0.2450
vn 0.7629 -0.5895 -0.2654
vn 0.6819 -0.6800 -0.2695
vn 0.6447 0.7380 -0.1993
vn 0.9073 -0.1778 -0.3810
vn 0.9427 -0.1675 -0.2886
vn 0.8887 0.3668 -0.2750
vn 0.9334 0.2652 -0.2419
vn 0.7795 -0.5777 -0.2424
vn 0.7798 0.6021 -0.1714
vn 0.9717 0.0156 -0.2357
vn 0.8389 0.5316 -0.1164
vn 0.7091 -0.6982 -0.0987
vn 0.3558 0.9320 0.0690
vn 0.0886 -0.9886 -0.1221
vn -0.5143 0.8573 0.0222
vn -0.8044 -0.5589 -0.2012
vn -0.9916 -0.0548 -0.1173
vn 0.9977 0.0103 -0.0674
vn 0.8596 0.5093 -0.0417
vn 0.9942 -0.0179 -0.1057
vn 0.8938 0.4482 -0.0138
vn 0.9611 -0.2405 -0.1355
vn 0.9907 -0.1341 0.0216
vn 0.2058 0.9612 0.1837
vn -0.3248 -0.9246 -0.1988
vn 0.0009 -0.9829 -0.1840
vn -0.5306 0.8470 -0.0332
vn 0.9580 0.2755 0.0801
vn 0.8585 -0.5128 -0.0035
vn 0.5636 -0.8245 -0.0515
vn -0.9479 -0.1790 -0.2634
vn -0.9136 0.3651 -0.1789
vn 0.9517 0.2520 0.1754
vn 0.6644 0.7112 0.2297
vn 0.5522 -0.8337 -0.0045
vn -0.7382 -0.5815 -0.3420
vn 0.8831 -0.4572 0.1056
vn 0.0551 0.9903 0.1279
vn -0.5092 -0.7782 -0.3675
vn -0.8866 0.3779 -0.2666
vn -0.8746 -0.2299 -0.4270
vn 0.9312 0.0731 0.3572
vn 0.7052 0.6196 0.3448
vn -0.5681 0.8097 -0.1473
vn -0.3873 -0.8375 -0.3855
vn -0.8458 0.3993 -0.3538
vn -0.8213 -0.2231 -0.5251
vn 0.8976 -0.3261 0.2965
vn -0.5799 0.8084 -0.1007
vn 0.5103 0.7749 0.3729
vn 0.8093 0.3567 0.4666
vn 0.3566 0.8611 0.3623
vn 0.0853 -0.9737 -0.2111
vn -0.8589 0.1053 -0.5011
vn -0.6655 -0.5452 -0.5098
vn 0.8465 0.2370 0.4768
vn -0.4462 -0.8059 -0.3891
vn 0.3482 -0.9311 -0.1084
vn 0.2146 0.9461 0.2426
vn 0.8284 -0.4990 0.2546
vn 0.4698 0.7860 0.4018
vn -0.8606 0.4103 -0.3016
vn -0.9218 -0.0492 -0.3845
vn -0.5018 0.8640 0.0410
vn -0.9088 -0.2829 -0.3068
vn 0.4186 -0.9002 -0.1198
vn 0.9222 0.1191 0.3680
vn 0.7112 0.5999 0.3664
vn 0.9058 -0.3894 0.1669
vn -0.9304 0.3524 -0.1010
vn -0.7618 -0.5656 -0.3159
vn -0.4009 -0.8758 -0.2687
vn -0.5801 0.7953 0.1763
vn -0.8148 0.5566 0.1624
vn -0.9982 0.0599 -0.0047
vn 0.6864 -0.7234 -0.0744
vn 0.9929 -0.0832 0.0846
vn 0.9167 0.3140 0.2471
vn 0.5634 0.7964 0.2201
vn 0.2246 -0.9391 -0.2602
vn -0.9259 -0.3690 -0.0810
vn -0.9216 0.3645 0.1332
vn 0.9097 0.4113 0.0578
vn 0.7988 -0.5728 -0.1841
vn -0.0308 0.9680 0.2490
vn 0.4302 0.8815 0.1945
vn -0.6019 0.7705 0.2100
vn -0.0501 -0.9415 -0.3333
vn -0.7575 -0.6309 -0.1677
vn -0.9890 0.0741 0.1282
vn 0.9665 -0.2053 -0.1539
vn 0.6691 -0.6799 -0.3000
vn 0.9771 0.1874 -0.1009
vn -0.1817 0.9174 0.3542
vn -0.9175 -0.3835 -0.1055
vn -0.5567 -0.7618 -0.3313
vn 0.3084 0.8827 0.3547
vn -0.7915 0.5492 0.2680
vn -0.9809 -0.1691 -0.0958
vn 0.8056 0.5887 0.0665
vn 0.7732 -0.5321 -0.3449
vn 0.1659 -0.8831 -0.4389
vn -0.4890 -0.7688 -0.4121
vn -0.1248 0.8783 0.4616
vn -0.9985 -0.0105 -0.0537
vn 0.9994 0.0264 -0.0229
vn 0.6340 0.6909 0.3473
vn 0.2816 -0.8310 -0.4798
vn -0.0816 -0.8350 -0.5442
vn -0.3929 0.8085 0.4382
vn 0.2455 0.8378 0.4876
vn -0.6991 -0.6066 -0.3784
vn -0.8950 0.4278 -0.1267
vn 0.8370 0.4759 0.2702
vn 0.8944 0.3657 0.2573
vn 0.9667 0.2180 0.1337
vn -0.3812 0.9239 0.0343
vn -0.8026 -0.2519 -0.5408
vn 0.6168 -0.2251 -0.7542
vn 0.4812 0.7833 0.3936
vn -0.0130 -0.5325 -0.8464
vn -0.6110 0.3463 -0.7119
vn 0.0049 0.5153 -0.8570
vn 0.2743 0.9375 -0.2143
vn 0.9849 0.0976 -0.1430
vn 0.7486 0.6020 -0.2779
s 1
f 3//1 1//2 4//3
f 4//3 1//2 2//4
f 2//4 5//5 4//3
f 5//5 6//6 4//3
f 5//5 7//7 6//6
f 6//6 8//8 9//9
f 7//7 8//8 6//6
f 10//10 11//11 12//12
f 13//13 11//11 10//10
f 3//1 14//14 13//13
f 10//10 12//12 1//2
f 12//12 15//15 16//16
f 10//10 1//2 13//13
f 17//17 14//14 3//1
f 3//1 13//13 1//2
f 12//12 16//16 1//2
f 17//17 3//1 4//3
f 17//17 4//3 20//18
f 19//19 17//17 20//18
f 2//4 1//2 16//16
f 2//4 16//16 18//20
f 22//21 19//19 20//18
f 2//4 18//20 5//5
f 4//3 6//6 20//18
f 18//20 23//22 5//5
f 18//20 21//23 23//22
f 22//21 20//18 9//9
f 9//9 20//18 6//6
f 22//21 9//9 24//24
f 5//5 23//22 7//7
f 7//7 25//25 8//8
f 7//7 23//22 25//25
f 9//9 8//8 26//26
f 8//8 25//25 27//27
f 27//27 26//26 8//8
f 11//11 28//28 30//29
f 29//30 30//29 28//28
f 12//12 11//11 32//31
f 11//11 30//29 32//31
f 34//32 12//12 32//31
f 34//32 32//31 33//33
f 35//34 34//32 33//33
f 37//35 14//14 17//17
f 36//36 28//28 37//35
f 37//35 28//28 14//14
f 29//30 28//28 36//36
f 13//13 28//28 11//11
f 13//13 14//14 28//28
f 12//12 34//32 15//15
f 18//20 16//16 15//15
f 38//37 18//20 15//15
f 34//32 38//37 15//15
f 21//23 18//20 38//37
f 38//37 34//32 35//34
f 38//37 35//34 39//38
f 19//19 37//35 17//17
f 36//36 37//35 19//19
f 19//19 24//24 40//39
f 41//40 42//41 21//23
f 43//42 40//39 24//24
f 44//43 42//41 41//40
f 19//19 22//21 24//24
f 42//41 23//22 21//23
f 42//41 45//44 23//22
f 9//9 26//26 24//24
f 25//25 23//22 45//44
f 24//24 26//26 46//45
f 47//46 26//26 27//27
f 26//26 47//46 46//45
f 25//25 48//47 27//27
f 30//29 29//30 31//48
f 29//30 49//49 31//48
f 50//50 49//49 29//30
f 31//48 49//49 51//51
f 30//29 51//51 32//31
f 51//51 33//33 32//31
f 31//48 51//51 30//29
f 33//33 51//51 52//52
f 52//52 53//53 33//33
f 33//33 53//53 35//34
f 39//38 35//34 53//53
f 36//36 50//50 29//30
f 54//54 50//50 36//36
f 21//23 38//37 39//38
f 36//36 40//39 54//54
f 54//54 40//39 55//55
f 40//39 36//36 19//19
f 41//40 21//23 39//38
f 39//38 56//56 41//40
f 55//55 57//57 54//54
f 57//57 58//58 59//59
f 60//60 56//56 59//59
f 58//58 57//57 55//55
f 43//42 55//55 40//39
f 55//55 61//61 58//58
f 62//62 41//40 56//56
f 56//56 60//60 62//62
f 43//42 61//61 55//55
f 59//59 58//58 60//60
f 61//61 63//63 58//58
f 58//58 63//63 60//60
f 41//40 62//62 44//43
f 60//60 63//63 62//62
f 62//62 63//63 64//64
f 44//43 62//62 64//64
f 65//65 61//61 43//42
f 66//66 42//41 44//43
f 67//67 43//42 24//24
f 66//66 44//43 64//64
f 68//68 45//44 42//41
f 66//66 68//68 42//41
f 24//24 46//45 67//67
f 45//44 48//47 25//25
f 70//69 46//45 47//46
f 69//70 70//69 47//46
f 27//27 48//47 69//70
f 27//27 69//70 47//46
f 48//47 45//44 68//68
f 49//49 50//50 71//71
f 52//52 51//51 49//49
f 52//52 49//49 71//71
f 52//52 72//72 53//53
f 71//71 72//72 52//52
f 71//71 50//50 54//54
f 72//72 39//38 53//53
f 72//72 56//56 39//38
f 56//56 72//72 59//59
f 72//72 71//71 59//59
f 71//71 54//54 57//57
f 71//71 57//57 59//59
f 64//64 63//63 73//73
f 73//73 63//63 61//61
f 64//64 73//73 74//74
f 73//73 61//61 75//75
f 73//73 75//75 74//74
f 61//61 65//65 75//75
f 74//74 66//66 64//64
f 65//65 43//42 67//67
f 75//75 65//65 76//76
f 77//77 68//68 66//66
f 78//78 79//79 67//67
f 78//78 67//67 46//45
f 68//68 88//80 48//47
f 80//81 75//75 76//76
f 75//75 80//81 74//74
f 74//74 77//77 66//66
f 76//76 65//65 81//82
f 80//81 77//77 74//74
f 67//67 82//83 65//65
f 79//79 82//83 67//67
f 46//45 70//69 78//78
f 83//84 70//69 69//70
f 48//47 88//80 84//85
f 48//47 84//85 69//70
f 69//70 84//85 83//84
f 82//83 81//82 65//65
f 85//86 80//81 76//76
f 86//87 80//81 85//86
f 86//87 77//77 80//81
f 81//82 82//83 87//88
f 87//88 82//83 79//79
f 77//77 88//80 68//68
f 89//89 70//69 83//84
f 70//69 89//89 78//78
f 76//76 81//82 85//86
f 90//90 85//86 81//82
f 86//87 91//91 77//77
f 78//78 89//89 92//92
f 78//78 92//92 79//79
f 93//93 83//84 84//85
f 93//93 84//85 88//80
f 83//84 94//94 89//89
f 87//88 90//90 81//82
f 90//90 95//95 85//86
f 85//86 95//95 96//96
f 96//96 86//87 85//86
f 88//80 77//77 91//91
f 83//84 93//93 94//94
f 97//97 93//93 88//80
f 96//96 91//91 86//87
f 79//79 92//92 98//98
f 97//97 99//99 93//93
f 94//94 93//93 99//99
f 94//94 99//99 100//100
f 92//92 89//89 94//94
f 95//95 90//90 101//101
f 88//80 102//102 97//97
f 90//90 87//88 101//101
f 96//96 103//103 91//91
f 91//91 103//103 88//80
f 92//92 94//94 98//98
f 98//98 94//94 100//100
f 101//101 105//104 95//95
f 105//104 96//96 95//95
f 103//103 96//96 105//104
f 88//80 103//103 104//105
f 88//80 104//105 102//102
f 79//79 98//98 106//106
f 97//97 102//102 99//99
f 107//107 108//108 100//100
f 105//104 104//105 103//103
f 105//104 101//101 109//109
f 98//98 100//100 108//108
f 98//98 108//108 110//110
f 107//107 99//99 102//102
f 99//99 107//107 100//100
f 106//106 87//88 79//79
f 98//98 110//110 106//106
f 111//111 87//88 106//106
f 87//88 111//111 101//101
f 102//102 104//105 114//112
f 101//101 111//111 112//113
f 112//113 109//109 101//101
f 114//112 104//105 113//114
f 102//102 116//115 107//107
f 109//109 104//105 105//104
f 115//116 108//108 107//107
f 107//107 116//115 115//116
f 113//114 104//105 109//109
f 114//112 117//117 102//102
f 118//118 110//110 108//108
f 110//110 111//111 106//106
f 118//118 108//108 115//116
f 116//115 102//102 117//117
f 112//113 111//111 120//119
f 109//109 112//113 119//120
f 119//120 122//121 109//109
f 119//120 112//113 121//122
f 122//121 113//114 109//109
f 123//123 116//115 117//117
f 110//110 118//118 124//124
f 115//116 116//115 123//123
f 120//119 121//122 112//113
f 122//121 114//112 113//114
f 125//125 111//111 110//110
f 117//117 126//126 123//123
f 125//125 110//110 124//124
f 115//116 123//123 118//118
f 126//126 127//127 123//123
f 118//118 123//123 128//128
f 123//123 127//127 128//128
f 120//119 129//129 121//122
f 119//120 121//122 130//130
f 131//131 122//121 119//120
f 130//130 131//131 119//120
f 125//125 120//119 111//111
f 121//122 129//129 130//130
f 114//112 122//121 132//132
f 133//133 129//129 120//119
f 114//112 126//126 117//117
f 124//124 118//118 128//128
f 120//119 125//125 133//133
f 124//124 128//128 134//134
f 125//125 124//124 134//134
f 127//127 135//135 128//128
f 128//128 135//135 134//134
f 122//121 131//131 132//132
f 131//131 130//130 136//136
f 130//130 129//129 137//137
f 136//136 132//132 131//131
f 133//133 137//137 129//129
f 132//132 138//138 114//112
f 132//132 139//139 138//138
f 132//132 136//136 139//139
f 114//112 140//140 126//126
f 140//140 127//127 126//126
f 140//140 114//112 138//138
f 133//133 125//125 141//141
f 127//127 140//140 135//135
f 125//125 134//134 142//142
f 125//125 142//142 141//141
f 135//135 143//143 134//134
f 130//130 137//137 144//144
f 130//130 144//144 136//136
f 145//145 133//133 141//141
f 145//145 137//137 133//133
f 137//137 145//145 144//144
f 136//136 144//144 146//146
f 144//144 145//145 146//146
f 138//138 147//147 140//140
f 143//143 142//142 134//134
f 147//147 138//138 139//139
f 142//142 143//143 148//148
f 149//149 142//142 148//148
f 142//142 149//149 141//141
f 135//135 140//140 147//147
f 139//139 150//150 147//147
f 147//147 151//151 135//135
f 135//135 151//151 143//143
f 149//149 148//148 152//152
f 154//153 139//139 136//136
f 136//136 146//146 154//153
f 146//146 145//145 153//154
f 145//145 141//141 155//155
f 145//145 155//155 153//154
f 155//155 141//141 149//149
f 139//139 154//153 150//150
f 147//147 150//150 151//151
f 155//155 149//149 156//156
f 157//157 151//151 150//150
f 149//149 152//152 156//156
f 152//152 148//148 143//143
f 143//143 151//151 152//152
f 151//151 158//158 152//152
f 154//153 146//146 150//150
f 146//146 153//154 159//159
f 160//160 157//157 150//150
f 146//146 160//160 150//150
f 153//154 155//155 161//161
f 160//160 146//146 159//159
f 161//161 155//155 156//156
f 161//161 156//156 162//162
f 163//163 151//151 157//157
f 164//164 157//157 160//160
f 156//156 165//165 162//162
f 165//165 156//156 152//152
f 158//158 165//165 152//152
f 151//151 166//166 158//158
f 163//163 157//157 164//164
f 159//159 167//167 160//160
f 159//159 153//154 168//168
f 164//164 160//160 167//167
f 167//167 159//159 169//169
f 151//151 163//163 170//170
f 164//164 170//170 163//163
f 165//165 158//158 171//171
f 153//154 161//161 176//172
f 169//169 172//173 167//167
f 165//165 173//174 162//162
f 172//173 170//170 164//164
f 167//167 172//173 164//164
f 166//166 171//171 158//158
f 173//174 171//171 174//175
f 171//171 166//166 174//175
f 173//174 165//165 171//171
f 161//161 162//162 173//174
f 173//174 174//175 175//176
f 176//172 173//174 175//176
f 166//166 151//151 170//170
f 166//166 170//170 174//175
f 175//176 174//175 170//170
f 172//173 177//177 170//170
f 177//177 175//176 170//170
f 168//168 153//154 178//178
f 172//173 169//169 178//178
f 161//161 173//174 176//172
f 178//178 179//179 172//173
f 153//154 176//172 178//178
f 176//172 179//179 178//178
f 172//173 179//179 177//177
f 179//179 175//176 177//177
f 179//179 176//172 175//176
