# Blender v2.78 (sub 0) OBJ File: 'exporter.blend'
# www.blender.org
o FJ2245.obj_grp1.982
v 1.035363 -0.257388 4.917883
v 1.034825 -0.253996 4.919193
v 1.034388 -0.255649 4.917076
v 1.039618 -0.257142 4.921718
v 1.037497 -0.258274 4.919960
v 1.040955 -0.258834 4.920250
v 1.038553 -0.259614 4.918057
v 1.039196 -0.255343 4.922332
v 1.036535 -0.255706 4.920975
v 1.037025 -0.254108 4.921599
v 1.038698 -0.251906 4.921932
v 1.041679 -0.253303 4.922440
v 1.036255 -0.251915 4.920524
v 1.037234 -0.249373 4.918955
v 1.038635 -0.250080 4.920758
v 1.040313 -0.248973 4.919960
v 1.037042 -0.258900 4.918239
v 1.034191 -0.253342 4.916553
v 1.035282 -0.251463 4.918767
v 1.035657 -0.250114 4.917267
v 1.035071 -0.251094 4.915239
v 1.037457 -0.248699 4.915823
v 1.039225 -0.248102 4.917373
v 1.042513 -0.262555 4.890619
v 1.042427 -0.259118 4.887506
v 1.047142 -0.257779 4.877634
v 1.041194 -0.255583 4.922321
v 1.043880 -0.255193 4.921319
v 1.042902 -0.256823 4.921247
v 1.042698 -0.260366 4.915534
v 1.043650 -0.258103 4.919554
v 1.040670 -0.251529 4.921985
v 1.041557 -0.248545 4.918830
v 1.043095 -0.250520 4.920676
v 1.040668 -0.247931 4.916113
v 1.048324 -0.255987 4.880842
v 1.042315 -0.248314 4.917064
v 1.045331 -0.255751 4.919618
v 1.053939 -0.264182 4.886448
v 1.044826 -0.252286 4.920249
v 1.046231 -0.252696 4.917289
v 1.044779 -0.250379 4.918431
v 1.044437 -0.249590 4.917219
v 1.051526 -0.256356 4.898392
v 1.050694 -0.254556 4.889102
v 1.051525 -0.258880 4.899238
v 1.050509 -0.269826 4.864847
v 1.047853 -0.266344 4.866942
v 1.047902 -0.264489 4.865314
v 1.056595 -0.259903 4.875919
v 1.056193 -0.263280 4.880717
v 1.048765 -0.262666 4.863922
v 1.055282 -0.269158 4.871306
v 1.060419 -0.277813 4.828457
v 1.053461 -0.258957 4.865861
v 1.059693 -0.263020 4.852089
v 1.059436 -0.269002 4.861681
v 1.061048 -0.267197 4.857777
v 1.052695 -0.262799 4.852145
v 1.059670 -0.265589 4.833604
v 1.055547 -0.275565 4.833183
v 1.052709 -0.271616 4.841050
v 1.052855 -0.269843 4.837693
v 1.063222 -0.267916 4.842025
v 1.053300 -0.267174 4.839126
v 1.065939 -0.281281 4.806669
v 1.059842 -0.279047 4.822404
v 1.058468 -0.272320 4.809098
v 1.055787 -0.276535 4.820534
v 1.064634 -0.272929 4.832094
v 1.058758 -0.279645 4.817833
v 1.059832 -0.270478 4.812531
v 1.063952 -0.268684 4.831508
v 1.063179 -0.268364 4.825463
v 1.058407 -0.281408 4.807294
v 1.056906 -0.277626 4.803835
v 1.056824 -0.278852 4.807085
v 1.058165 -0.276750 4.798620
v 1.067828 -0.282528 4.796668
v 1.062698 -0.270369 4.813205
v 1.065477 -0.283590 4.801626
v 1.058756 -0.286078 4.784580
v 1.066739 -0.274800 4.810982
v 1.065510 -0.274876 4.799994
v 1.064460 -0.286895 4.793790
v 1.062322 -0.286497 4.795250
v 1.063281 -0.277125 4.790303
v 1.060930 -0.277706 4.790344
v 1.059942 -0.286827 4.790815
v 1.066231 -0.274157 4.807283
v 1.062347 -0.292342 4.779316
v 1.065934 -0.294623 4.774776
v 1.060520 -0.294013 4.760715
v 1.060091 -0.290351 4.779590
v 1.060382 -0.282634 4.780736
v 1.061918 -0.297215 4.749842
v 1.059989 -0.293619 4.768435
v 1.068602 -0.282461 4.790517
v 1.067159 -0.287426 4.788722
v 1.066695 -0.280144 4.785214
v 1.067860 -0.279627 4.791850
v 1.063113 -0.284994 4.772086
v 1.062230 -0.301068 4.758813
v 1.060581 -0.301971 4.751758
v 1.066853 -0.285435 4.771848
v 1.064381 -0.304136 4.754952
v 1.066355 -0.290709 4.760008
v 1.044250 -0.338315 4.681324
v 1.035631 -0.354147 4.661953
v 1.037104 -0.355996 4.663137
v 1.038976 -0.344348 4.669690
v 1.035987 -0.355295 4.661099
v 1.037573 -0.356971 4.661909
v 1.036021 -0.352123 4.659701
v 1.039896 -0.342887 4.667142
v 1.036669 -0.355539 4.659166
v 1.038110 -0.357289 4.660378
v 1.036092 -0.353442 4.659066
v 1.069017 -0.287381 4.771935
v 1.069154 -0.305098 4.749228
v 1.063246 -0.303944 4.734215
v 1.060499 -0.313764 4.732141
v 1.061640 -0.317215 4.728014
v 1.059966 -0.308356 4.738097
v 1.060493 -0.304760 4.738544
v 1.046624 -0.332779 4.687837
v 1.050704 -0.325396 4.698276
v 1.047304 -0.339428 4.682694
v 1.043750 -0.334493 4.678790
v 1.048219 -0.327695 4.689357
v 1.042505 -0.347221 4.672993
v 1.046111 -0.332055 4.679245
v 1.046376 -0.344287 4.676269
v 1.041321 -0.341816 4.666849
v 1.040798 -0.356991 4.663230
v 1.042237 -0.356597 4.662556
v 1.039188 -0.357507 4.662243
v 1.040837 -0.357590 4.660493
v 1.043949 -0.340630 4.667530
v 1.038728 -0.350937 4.657892
v 1.038498 -0.356206 4.658115
v 1.037229 -0.353185 4.657691
v 1.041079 -0.355956 4.657897
v 1.039691 -0.354470 4.657045
v 1.042074 -0.356357 4.659111
v 1.038869 -0.352758 4.657071
v 1.070265 -0.295027 4.762691
v 1.068642 -0.295815 4.752388
v 1.069921 -0.299917 4.748485
v 1.067587 -0.310789 4.740000
v 1.064697 -0.316584 4.729792
v 1.066044 -0.307159 4.728357
v 1.058413 -0.314480 4.725382
v 1.058783 -0.311661 4.722522
v 1.055859 -0.321384 4.712633
v 1.056948 -0.323512 4.711796
v 1.055482 -0.319454 4.712630
v 1.056279 -0.327132 4.705023
v 1.055774 -0.317567 4.712194
v 1.056572 -0.316512 4.710164
v 1.057136 -0.318527 4.702333
v 1.051752 -0.329279 4.698072
v 1.051718 -0.332067 4.694437
v 1.051430 -0.324109 4.691946
v 1.052005 -0.336089 4.686977
v 1.050809 -0.339531 4.679750
v 1.052330 -0.325751 4.687771
v 1.047770 -0.331644 4.678560
v 1.044973 -0.351109 4.666755
v 1.048466 -0.344109 4.671367
v 1.047089 -0.337192 4.671858
v 1.043405 -0.345363 4.663148
v 1.047906 -0.341237 4.669569
v 1.042185 -0.353161 4.657592
v 1.043115 -0.356006 4.660880
v 1.043030 -0.355133 4.658970
v 1.040366 -0.352186 4.657197
v 1.069952 -0.305287 4.744017
v 1.067995 -0.306948 4.731787
v 1.068018 -0.313507 4.731259
v 1.064588 -0.319998 4.720203
v 1.061532 -0.311863 4.717306
v 1.056505 -0.329915 4.698820
v 1.058269 -0.320381 4.698798
v 1.055275 -0.332744 4.691233
v 1.054403 -0.334121 4.685266
v 1.052481 -0.328674 4.683697
v 1.053061 -0.331154 4.681872
v 1.058338 -0.323839 4.694665
v 1.060760 -0.325092 4.699427
v 1.068925 -0.310517 4.730699
v 1.067494 -0.312860 4.723130
v 1.064605 -0.315541 4.713326
v 1.065764 -0.319069 4.718816
v 1.065930 -0.317722 4.715620
v 1.062313 -0.324161 4.706518
v 1.059590 -0.324612 4.696116
vn -0.8159 -0.5395 0.2079
vn -0.8903 0.0006 0.4554
vn -0.9670 -0.2471 0.0624
vn -0.2609 -0.9181 0.2983
vn 0.1111 -0.8037 0.5846
vn -0.4543 -0.6611 0.5971
vn -0.1145 -0.5227 0.8448
vn -0.6235 -0.2968 0.7233
vn -0.5180 0.0134 0.8553
vn -0.2041 -0.1745 0.9633
vn -0.2734 0.3361 0.9013
vn 0.2345 0.1163 0.9651
vn -0.6569 0.3484 0.6686
vn -0.2916 0.6354 0.7151
vn -0.4815 0.7787 0.4023
vn -0.0001 0.8019 0.5975
vn -0.5455 -0.8080 0.2226
vn -0.9915 0.1275 -0.0267
vn -0.8322 0.4189 0.3634
vn -0.7554 0.6468 0.1045
vn -0.8431 0.5004 -0.1970
vn -0.4543 0.8838 -0.1115
vn -0.1773 0.9701 0.1655
vn -0.8809 -0.4541 -0.1336
vn -0.9508 0.1067 -0.2910
vn -0.6567 0.6900 -0.3044
vn 0.5785 -0.1517 0.8015
vn 0.1526 -0.2606 0.9533
vn 0.4152 -0.4735 0.7768
vn 0.5624 -0.6725 0.4810
vn 0.2465 -0.9294 0.2748
vn 0.0814 0.4400 0.8943
vn 0.4511 0.5720 0.6850
vn 0.2541 0.8902 0.3782
vn 0.0436 0.9977 -0.0511
vn 0.3556 0.9290 0.1029
vn 0.8331 -0.2692 0.4832
vn 0.7685 -0.5574 0.3142
vn 0.7441 0.2672 0.6123
vn 0.9335 0.2143 0.2875
vn 0.7342 0.5920 0.3323
vn 0.6439 0.7502 0.1505
vn 0.4900 0.8691 -0.0671
vn -0.3013 0.9040 -0.3035
vn 0.9481 -0.1522 0.2792
vn 0.9185 0.3593 0.1649
vn -0.6689 -0.7431 -0.0194
vn -0.9077 -0.3892 -0.1568
vn 0.8709 0.4837 0.0869
vn 0.9593 -0.1439 0.2430
vn -0.8724 0.4096 -0.2668
vn -0.9730 0.0343 -0.2281
vn 0.0081 -0.9764 0.2157
vn 0.3834 -0.8886 0.2518
vn 0.0495 0.9729 -0.2259
vn 0.6316 0.7737 -0.0504
vn 0.8032 -0.5485 0.2324
vn -0.5535 0.7936 -0.2526
vn -0.5881 -0.8038 0.0899
vn -0.9210 -0.3794 -0.0879
vn -0.9843 0.0741 -0.1602
vn 0.9828 -0.0477 0.1784
vn -0.8690 0.4429 -0.2207
vn 0.9508 0.3008 0.0740
vn 0.7005 -0.6713 0.2422
vn -0.1555 -0.9687 0.1936
vn -0.8893 -0.4572 -0.0066
vn 0.9660 -0.2046 0.1584
vn 0.1473 0.9683 -0.2020
vn -0.3365 -0.9255 0.1737
vn -0.5982 0.7465 -0.2914
vn -0.2282 0.9284 -0.2933
vn 0.8570 0.5152 -0.0101
vn 0.5816 0.8043 -0.1219
vn -0.7152 -0.6910 0.1048
vn -0.9362 -0.3513 -0.0127
vn -0.9886 0.0804 -0.1273
vn -0.8104 0.5234 -0.2633
vn 0.9232 -0.3375 0.1839
vn 0.3007 0.9272 -0.2233
vn 0.5014 -0.8159 0.2880
vn -0.9444 -0.3264 0.0391
vn 0.9705 0.2395 0.0274
vn 0.5324 0.8138 -0.2331
vn 0.2124 -0.9184 0.3338
vn -0.1742 -0.9414 0.2890
vn 0.0571 0.9352 -0.3496
vn -0.4761 0.8094 -0.3438
vn -0.6562 -0.7286 0.1962
vn 0.7915 0.6037 -0.0949
vn -0.4322 -0.8457 0.3131
vn 0.2121 -0.8985 0.3843
vn -0.9688 0.2074 -0.1359
vn -0.8072 -0.5638 0.1750
vn -0.7013 0.6333 -0.3273
vn -0.7176 0.6096 -0.3367
vn -0.9678 -0.2506 0.0252
vn 0.9958 0.0823 0.0392
vn 0.6452 -0.6949 0.3176
vn 0.5631 0.7757 -0.2848
vn 0.8735 0.4743 -0.1094
vn -0.2591 0.8674 -0.4249
vn -0.6650 -0.6899 0.2861
vn 0.3879 0.8459 -0.3662
vn -0.2864 -0.8592 0.4239
vn -0.9420 -0.2901 0.1686
vn -0.6886 -0.3938 0.6089
vn -0.9740 -0.1372 0.1803
vn -0.5871 -0.6108 0.5312
vn -0.9513 0.2458 0.1862
vn -0.8856 -0.4626 -0.0422
vn -0.5389 -0.8184 0.1996
vn -0.8693 0.3649 -0.3335
vn -0.7427 -0.4900 -0.4563
vn -0.3952 -0.8875 -0.2370
vn -0.8707 -0.0386 -0.4904
vn -0.7685 0.5850 -0.2590
vn 0.8576 0.4759 -0.1950
vn 0.7795 -0.5698 0.2601
vn 0.2284 0.8682 -0.4405
vn -0.3100 0.8532 -0.4194
vn -0.7711 -0.5519 0.3174
vn -0.3280 -0.8415 0.4293
vn -0.9927 -0.0585 0.1059
vn -0.8867 0.4153 -0.2033
vn -0.8148 -0.3034 0.4940
vn -0.9432 0.0124 0.3320
vn -0.8531 0.5214 -0.0206
vn -0.1607 -0.7096 0.6860
vn -0.2072 -0.7355 0.6451
vn -0.5343 0.7822 -0.3206
vn -0.3969 0.7342 -0.5509
vn 0.1714 -0.8419 0.5118
vn 0.5614 -0.7731 0.2953
vn -0.1342 -0.9329 0.3342
vn 0.2268 -0.9575 -0.1784
vn 0.0395 0.7366 -0.6751
vn -0.2818 0.5805 -0.7640
vn -0.2941 -0.6387 -0.7110
vn -0.6027 0.0574 -0.7959
vn 0.2857 -0.5762 -0.7657
vn -0.0082 -0.2387 -0.9711
vn 0.5312 -0.7127 -0.4581
vn -0.2100 0.1620 -0.9642
vn 0.9990 -0.0366 0.0239
vn 0.6563 0.6717 -0.3436
vn 0.9313 0.3068 -0.1962
vn 0.5732 -0.7517 0.3262
vn 0.2880 -0.8920 0.3485
vn 0.4070 0.7905 -0.4578
vn -0.9864 -0.0214 0.1628
vn -0.8025 0.5819 -0.1315
vn -0.8500 -0.3535 0.3906
vn -0.6183 -0.6481 0.4446
vn -0.9623 0.0128 0.2718
vn -0.2025 -0.8743 0.4411
vn -0.9198 0.3892 0.0502
vn -0.6816 0.7165 -0.1487
vn -0.1943 0.9133 -0.3579
vn -0.6853 -0.5297 0.4999
vn -0.4532 0.8513 -0.2643
vn -0.3226 -0.7687 0.5522
vn -0.8265 0.5627 -0.0191
vn 0.3035 -0.8770 0.3724
vn -0.0886 0.8190 -0.5669
vn 0.3218 -0.7741 0.5451
vn 0.6902 -0.6993 0.1860
vn 0.7712 -0.5845 0.2523
vn 0.9543 -0.2696 -0.1289
vn 0.3323 0.6650 -0.6689
vn 0.3443 0.5638 -0.7507
vn 0.7932 0.2550 -0.5530
vn 0.5720 0.0576 -0.8182
vn 0.8023 -0.5921 -0.0764
vn 0.8005 -0.3167 -0.5089
vn 0.1653 0.3464 -0.9234
vn 0.9852 -0.1706 0.0179
vn 0.7934 0.5082 -0.3350
vn 0.8200 -0.5577 0.1284
vn 0.2334 -0.9055 0.3544
vn -0.1580 0.9192 -0.3608
vn 0.5327 -0.8119 0.2389
vn 0.0009 0.8630 -0.5052
vn 0.3780 0.7748 -0.5068
vn 0.6305 -0.7645 0.1338
vn 0.8936 -0.4332 -0.1172
vn 0.3731 0.7000 -0.6090
vn 0.7129 0.3731 -0.5937
vn 0.6736 0.5098 -0.5352
vn 0.9550 -0.1782 -0.2369
vn 0.8815 0.1597 -0.4444
vn 0.9906 0.0096 -0.1367
vn 0.9350 0.2061 -0.2886
vn 0.7600 0.4881 -0.4290
vn 0.8556 -0.5176 0.0014
vn 0.9683 -0.0777 -0.2372
vn 0.8399 -0.5413 -0.0407
s 1
f 1//1 2//2 3//3
f 7//4 6//5 5//6
f 4//7 5//6 6//5
f 9//8 10//9 2//2
f 9//8 8//10 10//9
f 8//10 11//11 10//9
f 9//8 5//6 4//7
f 9//8 4//7 8//10
f 8//10 12//12 11//11
f 10//9 11//11 13//13
f 11//11 15//14 13//13
f 15//14 14//15 13//13
f 15//14 16//16 14//15
f 17//17 5//6 1//1
f 7//4 5//6 17//17
f 5//6 9//8 1//1
f 9//8 2//2 1//1
f 18//18 3//3 2//2
f 10//9 13//13 2//2
f 13//13 19//19 2//2
f 2//2 19//19 18//18
f 18//18 19//19 20//20
f 21//21 18//18 20//20
f 19//19 13//13 14//15
f 14//15 20//20 19//19
f 21//21 20//20 22//22
f 14//15 22//22 20//20
f 23//23 22//22 14//15
f 3//3 24//24 1//1
f 21//21 25//25 18//18
f 22//22 26//26 21//21
f 28//27 12//12 27//28
f 4//7 6//5 29//29
f 29//29 27//28 4//7
f 6//5 31//30 29//29
f 30//31 31//30 6//5
f 8//10 27//28 12//12
f 8//10 4//7 27//28
f 29//29 28//27 27//28
f 11//11 32//32 15//14
f 12//12 32//32 11//11
f 15//14 32//32 16//16
f 32//32 34//33 16//16
f 32//32 12//12 34//33
f 34//33 33//34 16//16
f 30//31 6//5 7//4
f 16//16 23//23 14//15
f 23//23 16//16 33//34
f 35//35 22//22 23//23
f 23//23 33//34 37//36
f 37//36 35//35 23//23
f 25//25 3//3 18//18
f 24//24 3//3 25//25
f 31//30 38//37 29//29
f 29//29 38//37 28//27
f 38//37 31//30 39//38
f 28//27 40//39 12//12
f 28//27 38//37 40//39
f 41//40 40//39 38//37
f 40//39 34//33 12//12
f 40//39 42//41 34//33
f 42//41 40//39 41//40
f 33//34 34//33 42//41
f 42//41 43//42 33//34
f 45//43 37//36 43//42
f 33//34 43//42 37//36
f 37//36 45//43 35//35
f 1//1 24//24 17//17
f 26//26 22//22 36//44
f 41//40 38//37 46//45
f 44//46 42//41 41//40
f 43//42 42//41 44//46
f 39//38 31//30 30//31
f 46//45 44//46 41//40
f 35//35 36//44 22//22
f 17//17 24//24 47//47
f 48//48 24//24 25//25
f 21//21 26//26 25//25
f 39//38 46//45 38//37
f 45//43 43//42 50//49
f 43//42 44//46 50//49
f 44//46 46//45 51//50
f 25//25 26//26 52//51
f 25//25 52//51 49//52
f 48//48 25//25 49//52
f 48//48 47//47 24//24
f 47//47 54//53 7//4
f 54//53 30//31 7//4
f 47//47 7//4 17//17
f 39//38 51//50 46//45
f 50//49 44//46 51//50
f 39//38 30//31 53//54
f 45//43 55//55 35//35
f 45//43 56//56 55//55
f 53//54 30//31 54//53
f 57//57 39//38 53//54
f 35//35 55//55 36//44
f 36//44 55//55 59//58
f 61//59 54//53 47//47
f 36//44 59//58 26//26
f 26//26 59//58 52//51
f 47//47 48//48 62//60
f 52//51 63//61 49//52
f 48//48 49//52 62//60
f 51//50 39//38 57//57
f 58//62 50//49 51//50
f 45//43 50//49 56//56
f 63//61 52//51 65//63
f 63//61 62//60 49//52
f 51//50 57//57 58//62
f 58//62 64//64 50//49
f 56//56 50//49 64//64
f 53//54 66//65 57//57
f 67//66 54//53 61//59
f 65//63 52//51 59//58
f 62//60 61//59 47//47
f 62//60 69//67 61//59
f 63//61 69//67 62//60
f 57//57 70//68 58//62
f 56//56 60//69 55//55
f 67//66 61//59 71//70
f 59//58 68//71 65//63
f 60//69 72//72 55//55
f 73//73 56//56 64//64
f 64//64 58//62 70//68
f 66//65 53//54 54//53
f 56//56 74//74 60//69
f 72//72 59//58 55//55
f 68//71 59//58 72//72
f 61//59 69//67 75//75
f 71//70 61//59 75//75
f 69//67 63//61 77//76
f 77//76 63//61 76//77
f 65//63 68//71 78//78
f 56//56 73//73 74//74
f 57//57 66//65 70//68
f 66//65 79//79 70//68
f 74//74 80//80 60//69
f 66//65 54//53 81//81
f 60//69 80//80 72//72
f 63//61 65//63 78//78
f 63//61 78//78 76//77
f 69//67 77//76 75//75
f 82//82 77//76 76//77
f 73//73 64//64 83//83
f 64//64 70//68 83//83
f 74//74 84//84 80//80
f 81//81 54//53 67//66
f 85//85 81//81 67//66
f 85//85 67//66 71//70
f 75//75 86//86 71//70
f 85//85 71//70 86//86
f 80//80 87//87 72//72
f 68//71 88//88 78//78
f 89//89 86//86 75//75
f 82//82 75//75 77//76
f 82//82 89//89 75//75
f 83//83 90//90 73//73
f 73//73 90//90 74//74
f 74//74 90//90 84//84
f 84//84 87//87 80//80
f 68//71 72//72 88//88
f 87//87 88//88 72//72
f 91//91 86//86 89//89
f 86//86 91//91 92//92
f 76//77 78//78 93//93
f 93//93 82//82 76//77
f 94//94 91//91 89//89
f 89//89 82//82 94//94
f 78//78 88//88 95//95
f 78//78 96//96 93//93
f 82//82 93//93 97//97
f 95//95 96//96 78//78
f 98//98 83//83 70//68
f 70//68 79//79 98//98
f 99//99 79//79 66//65
f 81//81 99//99 66//65
f 84//84 100//100 87//87
f 83//83 101//101 90//90
f 85//85 99//99 81//81
f 85//85 86//86 92//92
f 95//95 88//88 102//102
f 87//87 102//102 88//88
f 97//97 94//94 82//82
f 94//94 103//103 91//91
f 94//94 97//97 103//103
f 101//101 83//83 98//98
f 101//101 84//84 90//90
f 99//99 85//85 92//92
f 84//84 101//101 100//100
f 100//100 105//104 87//87
f 105//104 102//102 87//87
f 106//105 92//92 91//91
f 91//91 103//103 106//105
f 96//96 95//95 102//102
f 97//97 104//106 103//103
f 97//97 93//93 104//106
f 108//107 109//108 110//109
f 109//108 108//107 111//110
f 112//111 110//109 109//108
f 110//109 112//111 113//112
f 109//108 111//110 114//113
f 116//114 117//115 112//111
f 112//111 109//108 118//116
f 116//114 112//111 118//116
f 113//112 112//111 117//115
f 109//108 114//113 118//116
f 114//113 111//110 115//117
f 119//118 101//101 98//98
f 101//101 119//118 100//100
f 99//99 92//92 120//119
f 105//104 100//100 119//118
f 120//119 79//79 99//99
f 105//104 107//120 102//102
f 102//102 107//120 121//121
f 104//106 122//122 103//103
f 122//122 123//123 103//103
f 104//106 124//124 122//122
f 104//106 93//93 124//124
f 96//96 125//125 93//93
f 123//123 106//105 103//103
f 124//124 93//93 125//125
f 111//110 126//126 127//127
f 127//127 129//128 111//110
f 131//129 128//130 108//107
f 108//107 126//126 111//110
f 108//107 110//109 131//129
f 132//131 115//117 129//128
f 134//132 115//117 132//131
f 135//133 131//129 110//109
f 136//134 131//129 135//133
f 115//117 111//110 129//128
f 117//115 137//135 113//112
f 135//133 110//109 137//135
f 110//109 113//112 137//135
f 137//135 138//136 135//133
f 138//136 136//134 135//133
f 139//137 140//138 134//132
f 137//135 117//115 138//136
f 141//139 117//115 116//114
f 142//140 116//114 118//116
f 141//139 116//114 142//140
f 117//115 141//139 138//136
f 141//139 143//141 138//136
f 141//139 142//140 144//142
f 145//143 138//136 143//141
f 143//141 141//139 144//142
f 118//116 114//113 142//140
f 134//132 114//113 115//117
f 114//113 134//132 140//138
f 114//113 140//138 142//140
f 140//138 146//144 142//140
f 144//142 142//140 146//144
f 120//119 147//145 79//79
f 98//98 147//145 119//118
f 79//79 147//145 98//98
f 119//118 148//146 105//104
f 149//147 119//118 147//145
f 149//147 148//146 119//118
f 150//148 120//119 92//92
f 148//146 107//120 105//104
f 106//105 151//149 92//92
f 151//149 150//148 92//92
f 148//146 152//150 107//120
f 102//102 121//121 96//96
f 151//149 106//105 123//123
f 96//96 121//121 125//125
f 124//124 125//125 153//151
f 153//151 125//125 154//152
f 124//124 153//151 122//122
f 125//125 121//121 154//152
f 155//153 122//122 153//151
f 155//153 156//154 122//122
f 155//153 153//151 157//155
f 156//154 123//123 122//122
f 158//156 123//123 156//154
f 153//151 159//157 157//155
f 159//157 153//151 154//152
f 154//152 160//158 159//157
f 161//159 160//158 154//152
f 157//155 159//157 127//127
f 155//153 162//160 156//154
f 158//156 156//154 162//160
f 155//153 127//127 162//160
f 155//153 157//155 127//127
f 164//161 160//158 161//159
f 158//156 162//160 163//162
f 130//163 159//157 160//158
f 162//160 127//127 126//126
f 127//127 159//157 130//163
f 160//158 164//161 130//163
f 108//107 162//160 126//126
f 163//162 162//160 108//107
f 163//162 128//130 165//164
f 127//127 130//163 129//128
f 108//107 128//130 163//162
f 129//128 130//163 164//161
f 132//131 129//128 164//161
f 168//165 132//131 164//161
f 133//166 128//130 131//129
f 128//130 133//166 165//164
f 165//164 133//166 166//167
f 166//167 133//166 169//168
f 169//168 170//169 166//167
f 132//131 168//165 134//132
f 133//166 136//134 169//168
f 171//170 139//137 168//165
f 131//129 136//134 133//166
f 134//132 168//165 139//137
f 171//170 172//171 139//137
f 173//172 174//173 172//171
f 175//174 136//134 138//136
f 175//174 169//168 136//134
f 169//168 175//174 170//169
f 140//138 139//137 172//171
f 175//174 138//136 145//143
f 143//141 176//175 145//143
f 144//142 174//173 143//141
f 175//174 145//143 176//175
f 143//141 174//173 176//175
f 175//174 176//175 170//169
f 140//138 177//176 146//144
f 144//142 146//144 177//176
f 144//142 177//176 174//173
f 170//169 176//175 173//172
f 173//172 176//175 174//173
f 172//171 177//176 140//138
f 172//171 174//173 177//176
f 147//145 120//119 178//177
f 147//145 178//177 149//147
f 179//178 148//146 149//147
f 120//119 150//148 180//179
f 152//150 148//146 179//178
f 121//121 107//120 152//150
f 123//123 158//156 151//149
f 151//149 158//156 183//180
f 161//159 154//152 182//181
f 182//181 154//152 121//121
f 181//182 151//149 183//180
f 158//156 165//164 183//180
f 158//156 163//162 165//164
f 161//159 167//183 164//161
f 161//159 184//184 167//183
f 185//185 183//180 165//164
f 185//185 166//167 186//186
f 184//184 187//187 167//183
f 188//188 187//187 189//189
f 165//164 166//167 185//185
f 167//183 168//165 164//161
f 166//167 170//169 186//186
f 190//190 186//186 197//191
f 187//187 168//165 167//183
f 187//187 171//170 168//165
f 197//191 173//172 188//188
f 188//188 171//170 187//187
f 188//188 173//172 171//170
f 173//172 172//171 171//170
f 186//186 170//169 197//191
f 197//191 170//169 173//172
f 149//147 178//177 191//192
f 180//179 178//177 120//119
f 191//192 179//178 149//147
f 191//192 178//177 180//179
f 191//192 192//193 179//178
f 152//150 179//178 193//194
f 151//149 181//182 150//148
f 181//182 180//179 150//148
f 194//195 180//179 181//182
f 192//193 193//194 179//178
f 152//150 182//181 121//121
f 191//192 194//195 195//196
f 191//192 180//179 194//195
f 192//193 191//192 195//196
f 152//150 184//184 182//181
f 181//182 196//197 194//195
f 194//195 196//197 195//196
f 184//184 161//159 182//181
f 195//196 190//190 197//191
f 192//193 195//196 193//194
f 195//196 197//191 193//194
f 193//194 184//184 152//150
f 181//182 185//185 196//197
f 186//186 196//197 185//185
f 196//197 190//190 195//196
f 185//185 181//182 183//180
f 196//197 186//186 190//190
f 193//194 189//189 184//184
f 189//189 193//194 197//191
f 189//189 187//187 184//184
f 188//188 189//189 197//191
