# Blender v2.78 (sub 0) OBJ File: 'exporter.blend'
# www.blender.org
o FJ2246.obj_grp1.983
v 0.608252 -0.425546 6.024517
v 0.605502 -0.422265 6.011412
v 0.609802 -0.421999 6.030340
v 0.606411 -0.425767 6.009678
v 0.609563 -0.428493 6.024730
v 0.606001 -0.424847 6.010669
v 0.607773 -0.416434 6.011689
v 0.606625 -0.419570 6.011045
v 0.606317 -0.425734 6.009630
v 0.606625 -0.419570 6.011045
v 0.620108 -0.425673 6.006585
v 0.606276 -0.423526 6.010024
v 0.608141 -0.427665 6.008499
v 0.606001 -0.424847 6.010669
v 0.606452 -0.425739 6.009683
v 0.608222 -0.427615 6.008510
v 0.609794 -0.428861 6.008064
v 0.617083 -0.419632 6.047870
v 0.614780 -0.416553 6.031654
v 0.610032 -0.414418 6.011936
v 0.607743 -0.416626 6.011655
v 0.610034 -0.414433 6.011936
v 0.611827 -0.414763 6.011279
v 0.613125 -0.431393 6.018643
v 0.612686 -0.429560 6.007289
v 0.612686 -0.429560 6.007289
v 0.609785 -0.428786 6.008087
v 0.617374 -0.428330 6.006382
v 0.613033 -0.426385 6.040381
v 0.616268 -0.423719 6.048981
v 0.615185 -0.429464 6.042449
v 0.616056 -0.432464 6.033391
v 0.620198 -0.416799 6.049420
v 0.617294 -0.415468 6.027484
v 0.611827 -0.414763 6.011279
v 0.614521 -0.413665 6.011044
v 0.614465 -0.413861 6.011139
v 0.616570 -0.414516 6.010836
v 0.614563 -0.429651 6.007182
v 0.614573 -0.429578 6.007195
v 0.617385 -0.428376 6.006383
v 0.619696 -0.431911 6.045142
v 0.623119 -0.415241 6.045677
v 0.619580 -0.432804 6.029756
v 0.619387 -0.415504 6.011422
v 0.621971 -0.430576 6.022885
v 0.620174 -0.425663 6.006563
v 0.620498 -0.427028 6.055231
v 0.623578 -0.422563 6.061776
v 0.622899 -0.418962 6.059738
v 0.623227 -0.429903 6.055217
v 0.622926 -0.432839 6.045341
v 0.627321 -0.431832 6.052923
v 0.621991 -0.416124 6.031560
v 0.626682 -0.432293 6.042420
v 0.621049 -0.417782 6.010124
v 0.626408 -0.427147 6.028086
v 0.621762 -0.421603 6.008299
v 0.621643 -0.421694 6.008321
v 0.627145 -0.425946 6.064000
v 0.630058 -0.412841 6.065860
v 0.628517 -0.429857 6.059413
v 0.628907 -0.417018 6.041758
v 0.626285 -0.419249 6.031291
v 0.629716 -0.424486 6.035816
v 0.629906 -0.417121 6.069049
v 0.629021 -0.422310 6.067698
v 0.634387 -0.427153 6.066376
v 0.630328 -0.411798 6.059647
v 0.631853 -0.413525 6.052708
v 0.634600 -0.428850 6.051003
v 0.633972 -0.427113 6.046654
v 0.634593 -0.421843 6.046252
v 0.635348 -0.418620 6.073298
v 0.633488 -0.422752 6.070453
v 0.636417 -0.429027 6.060568
v 0.634319 -0.410549 6.059335
v 0.637616 -0.413632 6.074867
v 0.634997 -0.411292 6.071702
v 0.639222 -0.422262 6.072589
v 0.636980 -0.407314 6.064824
v 0.639550 -0.411807 6.057487
v 0.635171 -0.416497 6.050474
v 0.640973 -0.408119 6.075565
v 0.642572 -0.402771 6.071370
v 0.640928 -0.418543 6.075346
v 0.642019 -0.424201 6.069768
v 0.641042 -0.406651 6.062356
v 0.639893 -0.415697 6.054888
v 0.649509 -0.420362 6.065184
v 0.642207 -0.422924 6.057366
v 0.641005 -0.420372 6.054740
v 0.643712 -0.413874 6.077378
v 0.647532 -0.420139 6.073228
v 0.644596 -0.402304 6.065136
v 0.649790 -0.420474 6.070151
v 0.646966 -0.404534 6.061804
v 0.644767 -0.414725 6.058091
v 0.647559 -0.409365 6.078699
v 0.646694 -0.403151 6.076635
v 0.651586 -0.413201 6.077629
v 0.653068 -0.393575 6.069781
v 0.649903 -0.407418 6.060521
v 0.649426 -0.416756 6.061363
v 0.653344 -0.394462 6.073683
v 0.652785 -0.394126 6.066734
v 0.654603 -0.395311 6.063314
v 0.652003 -0.411629 6.060967
v 0.652265 -0.402434 6.078577
v 0.654866 -0.396863 6.076975
v 0.657811 -0.413057 6.073756
v 0.658780 -0.400410 6.078706
v 0.659294 -0.395711 6.076209
v 0.662129 -0.404482 6.077237
v 0.657245 -0.393114 6.072505
v 0.657090 -0.392623 6.069193
v 0.658999 -0.393415 6.065877
v 0.664542 -0.408010 6.069232
v 0.656925 -0.399601 6.060266
v 0.661435 -0.396088 6.063306
v 0.663994 -0.407226 6.065382
v 0.659921 -0.400896 6.060331
v 0.661904 -0.398648 6.076888
v 0.660476 -0.393804 6.072827
v 0.662036 -0.393907 6.069677
v 0.664229 -0.406122 6.074401
v 0.661305 -0.405106 6.061597
v 0.664034 -0.402402 6.062777
v 0.664940 -0.400846 6.074778
v 0.664181 -0.396328 6.072344
v 0.666185 -0.401244 6.072456
v 0.664740 -0.396967 6.066320
v 0.666173 -0.405142 6.070116
v 0.665452 -0.405825 6.066702
v 0.666143 -0.399038 6.069601
v 0.666023 -0.401644 6.066255
vn -0.7803 -0.6221 0.0632
vn -0.7757 -0.6154 0.1400
vn -0.9588 -0.1842 0.2161
vn -0.9015 -0.4150 0.1225
vn -0.9779 0.0801 -0.1932
vn -0.7978 0.5475 0.2524
vn -0.9239 0.2928 -0.2463
vn -0.8852 0.0496 -0.4625
vn -0.9179 0.2736 0.2875
vn -0.2043 0.2636 -0.9428
vn -0.1209 0.3001 -0.9462
vn -0.2452 0.2649 -0.9326
vn -0.6616 -0.7495 0.0211
vn -0.4928 0.0898 -0.8655
vn -0.2839 0.1479 -0.9474
vn -0.9709 -0.1381 -0.1956
vn -0.8285 0.4555 0.3258
vn -0.2127 0.9722 0.0980
vn -0.4410 0.8915 0.1039
vn -0.2357 0.3205 -0.9174
vn -0.2540 0.3670 -0.8949
vn -0.2058 0.2976 -0.9322
vn -0.3192 -0.9449 -0.0724
vn -0.4455 -0.8935 -0.0562
vn -0.1967 0.0880 -0.9765
vn -0.2149 0.0490 -0.9754
vn -0.2229 0.2290 -0.9476
vn -0.9231 -0.2056 0.3251
vn -0.9068 -0.0193 0.4210
vn -0.7412 -0.5881 0.3236
vn -0.5784 0.7991 0.1640
vn -0.4012 -0.9123 0.0815
vn -0.0337 0.9965 0.0759
vn 0.0712 0.9974 0.0140
vn -0.2461 0.4123 -0.8772
vn -0.0833 0.3241 -0.9423
vn 0.2555 0.7498 -0.6104
vn -0.1639 -0.9742 -0.1551
vn 0.1315 -0.9737 -0.1860
vn -0.0418 -0.3974 -0.9167
vn -0.4450 -0.8573 0.2588
vn -0.1377 0.9891 -0.0516
vn 0.1205 -0.9871 -0.1053
vn 0.5228 0.7911 -0.3176
vn 0.5358 -0.8088 -0.2425
vn 0.5232 -0.8160 -0.2459
vn -0.8180 0.3423 0.4624
vn -0.7611 -0.4115 0.5013
vn -0.4650 -0.7869 0.4056
vn -0.7958 -0.0918 0.5986
vn -0.0758 -0.9901 0.1183
vn 0.0014 -0.9849 0.1731
vn 0.3812 0.9199 -0.0920
vn 0.8997 -0.3732 -0.2266
vn 0.8257 -0.4965 -0.2677
vn 0.6825 0.5336 -0.4995
vn 0.9650 -0.0399 -0.2592
vn 0.1904 0.4102 -0.8919
vn -0.5297 -0.5744 0.6241
vn -0.6869 0.6424 0.3398
vn -0.1753 -0.8928 0.4150
vn 0.5184 0.8017 -0.2976
vn 0.3664 -0.9242 -0.1081
vn 0.7481 0.6199 -0.2368
vn 0.9147 0.1169 -0.3869
vn -0.7280 0.1480 0.6694
vn -0.6222 -0.2680 0.7356
vn -0.4158 0.9045 -0.0952
vn 0.1314 0.9184 -0.3731
vn 0.6585 -0.7173 -0.2278
vn 0.8494 -0.3673 -0.3789
vn 0.8476 0.1360 -0.5130
vn -0.4638 -0.2167 0.8590
vn -0.3689 -0.5267 0.7658
vn -0.0720 -0.8458 0.5286
vn 0.3304 -0.9364 0.1179
vn -0.1776 0.8993 -0.3996
vn -0.5212 0.0978 0.8478
vn -0.6829 0.4483 0.5767
vn -0.0600 -0.6556 0.7527
vn -0.5088 0.8339 -0.2138
vn 0.1779 0.6157 -0.7676
vn 0.4874 0.6444 -0.5892
vn -0.5402 0.3831 0.7493
vn -0.6418 0.7380 0.2085
vn -0.1409 -0.4488 0.8825
vn 0.2604 -0.8529 0.4525
vn -0.2832 0.7347 -0.6164
vn 0.5495 0.3983 -0.7345
vn 0.6470 -0.7104 -0.2770
vn 0.7596 -0.3211 -0.5656
vn 0.7411 -0.0791 -0.6667
vn -0.1939 -0.1997 0.9605
vn -0.5247 0.7306 -0.4370
vn 0.3041 -0.7295 0.6126
vn 0.5472 -0.8152 0.1898
vn -0.2651 0.5379 -0.8003
vn 0.4397 0.1502 -0.8855
vn -0.1622 0.0100 0.9867
vn -0.4964 0.4653 0.7329
vn 0.2474 -0.4429 0.8618
vn 0.0589 0.1650 -0.9845
vn 0.5952 -0.3878 -0.7038
vn -0.3854 0.7961 0.4666
vn -0.4455 0.8486 -0.2853
vn -0.2325 0.7051 -0.6699
vn 0.3242 -0.1570 -0.9329
vn -0.2000 0.2399 0.9500
vn -0.2006 0.5719 0.7954
vn 0.1641 0.1819 0.9695
vn -0.4361 0.8980 0.0586
vn 0.5714 -0.6881 0.4473
vn 0.2200 0.6627 0.7159
vn 0.5148 -0.2310 0.8256
vn -0.0057 0.9343 0.3565
vn -0.0188 0.9994 -0.0284
vn 0.1863 0.9049 -0.3826
vn 0.7697 -0.6384 0.0042
vn -0.0624 0.3273 -0.9428
vn 0.4208 0.6245 -0.6580
vn 0.6995 -0.5342 -0.4747
vn 0.3185 0.1395 -0.9376
vn 0.5298 0.3465 0.7741
vn 0.3589 0.8572 0.3693
vn 0.5158 0.8565 -0.0198
vn 0.7576 -0.4285 0.4924
vn 0.4304 -0.3428 -0.8350
vn 0.7276 -0.0098 -0.6859
vn 0.7937 0.1262 0.5950
vn 0.7433 0.5898 0.3156
vn 0.7819 0.5281 -0.3311
vn 0.8851 -0.3439 -0.3135
vn 0.9541 -0.2885 0.0804
vn 0.9566 0.0837 0.2792
vn 0.9537 0.3008 -0.0001
vn 0.9365 0.0618 -0.3450
s 1
f 4//1 5//2 1//3
f 6//4 1//3 2//5
f 7//6 8//7 2//5
f 8//7 9//8 2//5
f 7//6 2//5 3//9
f 10//10 11//11 12//12
f 5//2 4//1 13//13
f 1//3 6//4 4//1
f 15//14 12//12 16//15
f 16//15 12//12 11//11
f 14//16 2//5 9//8
f 2//5 1//3 3//9
f 18//17 7//6 3//9
f 19//18 20//19 7//6
f 21//20 22//21 23//22
f 24//23 5//2 13//13
f 23//22 10//10 21//20
f 17//24 24//23 13//13
f 26//25 27//26 28//27
f 27//26 16//15 28//27
f 28//27 16//15 11//11
f 5//2 29//28 1//3
f 29//28 30//29 3//9
f 1//3 29//28 3//9
f 30//29 18//17 3//9
f 29//28 5//2 31//30
f 7//6 18//17 33//31
f 7//6 33//31 19//18
f 31//30 5//2 32//32
f 34//33 20//19 19//18
f 5//2 24//23 32//32
f 36//34 35//35 20//19
f 36//34 20//19 34//33
f 11//11 10//10 23//22
f 11//11 23//22 37//36
f 38//37 11//11 37//36
f 17//24 25//38 24//23
f 25//38 39//39 24//23
f 40//40 26//25 28//27
f 31//30 30//29 29//28
f 31//30 32//32 42//41
f 34//33 19//18 43//42
f 44//43 32//32 24//23
f 34//33 45//44 36//34
f 46//45 44//43 39//39
f 39//39 44//43 24//23
f 46//45 39//39 41//46
f 36//34 45//44 38//37
f 18//17 30//29 50//47
f 48//48 30//29 31//30
f 51//49 48//48 31//30
f 30//29 48//48 49//50
f 42//41 51//49 31//30
f 52//51 53//52 51//49
f 42//41 52//51 51//49
f 43//42 19//18 33//31
f 32//32 52//51 42//41
f 44//43 52//51 32//32
f 54//53 45//44 34//33
f 57//54 46//45 47//55
f 45//44 56//56 38//37
f 57//54 47//55 58//57
f 11//11 38//37 59//58
f 56//56 59//58 38//37
f 46//45 41//46 47//55
f 60//59 49//50 48//48
f 51//49 60//59 48//48
f 49//50 50//47 30//29
f 18//17 61//60 33//31
f 62//61 51//49 53//52
f 54//53 43//42 63//62
f 34//33 43//42 54//53
f 55//63 52//51 44//43
f 44//43 46//45 55//63
f 64//64 56//56 45//44
f 45//44 54//53 64//64
f 65//65 58//57 56//56
f 65//65 57//54 58//57
f 49//50 66//66 50//47
f 66//66 61//60 50//47
f 49//50 60//59 67//67
f 49//50 67//67 66//66
f 50//47 61//60 18//17
f 33//31 61//60 69//68
f 62//61 60//59 51//49
f 69//68 43//42 33//31
f 70//69 43//42 69//68
f 63//62 43//42 70//69
f 55//63 53//52 52//51
f 64//64 54//53 63//62
f 46//45 71//70 55//63
f 46//45 57//54 72//71
f 65//65 64//64 73//72
f 56//56 64//64 65//65
f 74//73 66//66 67//67
f 74//73 67//67 75//74
f 68//75 75//74 60//59
f 75//74 67//67 60//59
f 68//75 60//59 62//61
f 76//76 68//75 62//61
f 77//77 70//69 69//68
f 76//76 62//61 53//52
f 55//63 76//76 53//52
f 73//72 64//64 63//62
f 72//71 71//70 46//45
f 57//54 65//65 72//71
f 66//66 74//73 78//78
f 66//66 79//79 61//60
f 78//78 79//79 66//66
f 80//80 75//74 68//75
f 61//60 81//81 69//68
f 76//76 55//63 71//70
f 82//82 83//83 70//69
f 83//83 63//62 70//69
f 83//83 73//72 63//62
f 65//65 73//72 72//71
f 78//78 84//84 79//79
f 85//85 79//79 84//84
f 74//73 75//74 86//86
f 86//86 75//74 80//80
f 61//60 79//79 85//85
f 61//60 85//85 81//81
f 68//75 87//87 80//80
f 87//87 68//75 76//76
f 77//77 69//68 81//81
f 70//69 77//77 82//82
f 82//82 77//77 88//88
f 89//89 83//83 82//82
f 76//76 71//70 90//90
f 91//91 71//70 72//71
f 89//89 92//92 73//72
f 89//89 73//72 83//83
f 91//91 72//71 73//72
f 91//91 73//72 92//92
f 74//73 86//86 93//93
f 93//93 78//78 74//73
f 81//81 85//85 95//94
f 87//87 94//95 80//80
f 81//81 95//94 88//88
f 76//76 96//96 87//87
f 77//77 81//81 88//88
f 88//88 97//97 82//82
f 89//89 98//98 92//92
f 93//93 99//99 78//78
f 84//84 78//78 99//99
f 84//84 99//99 100//100
f 100//100 85//85 84//84
f 101//101 93//93 86//86
f 80//80 94//95 86//86
f 101//101 86//86 94//95
f 95//94 97//97 88//88
f 96//96 94//95 87//87
f 96//96 76//76 90//90
f 82//82 98//98 89//89
f 103//102 82//82 97//97
f 90//90 71//70 91//91
f 92//92 104//103 91//91
f 98//98 104//103 92//92
f 93//93 101//101 99//99
f 105//104 85//85 100//100
f 95//94 85//85 106//105
f 95//94 107//106 97//97
f 104//103 90//90 91//91
f 103//102 108//107 98//98
f 104//103 98//98 108//107
f 103//102 98//98 82//82
f 99//99 109//108 100//100
f 100//100 109//108 110//109
f 99//99 101//101 112//110
f 110//109 105//104 100//100
f 105//104 102//111 85//85
f 85//85 102//111 106//105
f 111//112 101//101 94//95
f 111//112 94//95 96//96
f 107//106 95//94 106//105
f 109//108 112//110 110//109
f 105//104 110//109 113//113
f 112//110 101//101 114//114
f 99//99 112//110 109//108
f 115//115 105//104 113//113
f 105//104 115//115 102//111
f 102//111 115//115 116//116
f 114//114 101//101 111//112
f 106//105 102//111 116//116
f 117//117 106//105 116//116
f 117//117 107//106 106//105
f 118//118 96//96 90//90
f 97//97 119//119 103//102
f 107//106 119//119 97//97
f 120//120 119//119 107//106
f 104//103 108//107 121//121
f 108//107 103//102 122//122
f 112//110 113//113 110//109
f 123//123 113//113 112//110
f 124//124 115//115 113//113
f 124//124 116//116 115//115
f 116//116 124//124 125//125
f 114//114 111//112 126//126
f 117//117 116//116 125//125
f 117//117 120//120 107//106
f 118//118 90//90 121//121
f 122//122 119//119 120//120
f 104//103 121//121 90//90
f 121//121 108//107 127//127
f 122//122 103//102 119//119
f 122//122 127//127 108//107
f 122//122 128//128 127//127
f 114//114 123//123 112//110
f 114//114 129//129 123//123
f 130//130 113//113 123//123
f 130//130 124//124 113//113
f 125//125 124//124 130//130
f 125//125 130//130 132//131
f 117//117 125//125 132//131
f 118//118 111//112 96//96
f 111//112 118//118 126//126
f 132//131 120//120 117//117
f 118//118 121//121 134//132
f 118//118 134//132 133//133
f 134//132 121//121 128//128
f 127//127 128//128 121//121
f 120//120 128//128 122//122
f 132//131 128//128 120//120
f 130//130 123//123 129//129
f 114//114 126//126 129//129
f 129//129 126//126 131//134
f 131//134 126//126 133//133
f 129//129 131//134 130//130
f 135//135 130//130 131//134
f 130//130 135//135 132//131
f 118//118 133//133 126//126
f 134//132 136//136 133//133
f 135//135 133//133 136//136
f 135//135 136//136 132//131
f 133//133 135//135 131//134
f 134//132 128//128 136//136
f 128//128 132//131 136//136
