# Blender v2.78 (sub 0) OBJ File: 'exporter.blend'
# www.blender.org
o FJ2236.obj_grp1.973
v 1.084607 -0.581401 3.754696
v 1.080930 -0.575095 3.746444
v 1.088690 -0.580585 3.757877
v 1.083405 -0.579870 3.747938
v 1.082975 -0.572940 3.748538
v 1.080886 -0.570934 3.743307
v 1.084488 -0.574824 3.740415
v 1.081447 -0.569525 3.737347
v 1.085894 -0.569395 3.743782
v 1.083789 -0.565559 3.739120
v 1.082683 -0.565203 3.736011
v 1.091049 -0.588166 3.757165
v 1.092735 -0.588380 3.761780
v 1.093886 -0.586228 3.763101
v 1.089520 -0.579530 3.756582
v 1.089515 -0.577792 3.752307
v 1.086781 -0.577582 3.744790
v 1.090015 -0.582088 3.751145
v 1.086759 -0.577524 3.744785
v 1.088514 -0.577792 3.747428
v 1.087982 -0.574739 3.744250
v 1.087576 -0.571627 3.738536
v 1.087829 -0.564501 3.736757
v 1.087559 -0.570919 3.738048
v 1.089665 -0.562112 3.723315
v 1.084462 -0.566119 3.730672
v 1.085722 -0.560826 3.728006
v 1.088026 -0.558195 3.727521
v 1.090802 -0.580758 3.752100
v 1.098177 -0.590242 3.758642
v 1.088514 -0.577792 3.747428
v 1.089590 -0.578240 3.752576
v 1.093547 -0.582202 3.756410
v 1.088642 -0.567311 3.737132
v 1.091232 -0.563763 3.730376
v 1.096726 -0.551150 3.718537
v 1.095791 -0.559165 3.719269
v 1.091315 -0.557662 3.719274
v 1.096979 -0.550716 3.712663
v 1.131927 -0.610943 3.786485
v 1.131667 -0.614400 3.782385
v 1.130888 -0.613968 3.784474
v 1.131698 -0.612836 3.786308
v 1.101779 -0.589093 3.760973
v 1.095797 -0.558379 3.724033
v 1.094641 -0.556750 3.725082
v 1.094641 -0.556750 3.725082
v 1.096580 -0.557576 3.722936
v 1.103650 -0.548722 3.713528
v 1.106716 -0.549403 3.710406
v 1.133148 -0.608902 3.785167
v 1.104823 -0.552139 3.710855
v 1.108650 -0.545688 3.699590
v 1.109194 -0.548816 3.705866
v 1.103650 -0.548722 3.713528
v 1.115656 -0.538012 3.698608
v 1.110139 -0.540568 3.699557
v 1.127517 -0.607887 3.775931
v 1.109100 -0.548413 3.702801
v 1.119511 -0.539564 3.697944
v 1.118762 -0.543000 3.696336
v 1.109100 -0.548413 3.702801
v 1.132600 -0.613933 3.781208
v 1.122876 -0.540419 3.690239
v 1.122439 -0.534457 3.689417
v 1.118305 -0.538199 3.690527
v 1.124969 -0.537490 3.686523
v 1.125546 -0.540211 3.691125
v 1.133488 -0.614442 3.783599
v 1.134117 -0.612715 3.785676
v 1.134602 -0.610757 3.785511
v 1.134920 -0.612176 3.781437
v 1.135422 -0.612268 3.783570
v 1.134999 -0.609484 3.782403
v 1.127977 -0.538363 3.691468
v 1.130254 -0.534014 3.690229
v 1.136972 -0.531343 3.684590
v 1.132947 -0.532945 3.682940
v 1.130489 -0.536446 3.690797
v 1.130254 -0.534014 3.690229
v 1.130540 -0.538926 3.687739
v 1.130419 -0.538990 3.687806
v 1.138057 -0.534826 3.687670
v 1.137251 -0.535437 3.681081
v 1.137965 -0.536822 3.686770
v 1.142937 -0.532140 3.685218
v 1.146049 -0.536567 3.680257
v 1.147525 -0.536331 3.684206
v 1.138296 -0.534803 3.687490
v 1.156896 -0.529404 3.680030
v 1.151379 -0.531954 3.678026
v 1.153244 -0.533943 3.677701
v 1.167482 -0.534124 3.680787
v 1.164019 -0.528315 3.681681
v 1.162158 -0.535086 3.678971
v 1.174128 -0.529385 3.683674
v 1.165525 -0.530343 3.683431
v 1.165525 -0.530343 3.683431
v 1.170597 -0.531373 3.677472
v 1.173420 -0.528675 3.677140
v 1.178185 -0.524509 3.678575
v 1.184655 -0.521076 3.681516
v 1.192890 -0.524851 3.681636
v 1.183629 -0.523118 3.684700
v 1.188023 -0.526234 3.683194
v 1.190519 -0.521413 3.679698
v 1.198997 -0.521351 3.687189
v 1.202134 -0.517801 3.686419
v 1.203313 -0.517858 3.683340
v 1.202430 -0.522126 3.681872
v 1.204101 -0.523100 3.686117
v 1.208025 -0.519018 3.682980
v 1.221721 -0.520025 3.692463
v 1.221680 -0.518279 3.690213
v 1.222239 -0.521871 3.686540
v 1.222621 -0.518634 3.687568
v 1.221607 -0.522325 3.692126
v 1.221966 -0.523586 3.689418
v 1.223782 -0.519469 3.690050
v 1.223803 -0.521400 3.690516
v 1.223840 -0.521327 3.688123
vn -0.4792 0.6228 0.6185
vn -0.9868 -0.1038 0.1239
vn -0.8543 -0.2193 0.4712
vn -0.3272 0.4990 0.8025
vn -0.5829 -0.7201 -0.3763
vn -0.9078 0.3524 0.2275
vn -0.9120 -0.1913 -0.3630
vn -0.3129 0.8033 0.5067
vn -0.1157 -0.7552 -0.6452
vn -0.8506 0.5216 0.0662
vn -0.5046 -0.8187 -0.2739
vn -0.7064 -0.4536 0.5434
vn -0.3792 0.3028 0.8744
vn 0.3166 0.7994 0.5105
vn 0.0321 -0.8120 -0.5827
vn 0.6627 -0.3296 -0.6725
vn 0.8129 -0.3583 -0.4590
vn 0.8034 -0.2573 -0.5369
vn 0.9037 0.4279 0.0120
vn 0.4158 0.7333 0.5380
vn 0.9813 -0.0474 -0.1864
vn 0.9283 -0.3365 -0.1581
vn 0.5650 0.5495 0.6154
vn 0.5353 -0.7404 -0.4066
vn -0.7068 -0.3666 -0.6050
vn -0.2864 -0.6969 -0.6575
vn -0.5655 0.8071 0.1695
vn -0.8943 0.3529 -0.2751
vn 0.8545 0.2445 -0.4583
vn 0.2964 -0.4850 -0.8227
vn 0.9762 -0.0184 -0.2162
vn 0.7228 0.6574 -0.2128
vn 0.9078 0.4011 0.1226
vn 0.9361 0.0561 0.3472
vn 0.8907 -0.4421 0.1060
vn -0.1891 0.8884 0.4184
vn 0.2940 -0.9105 -0.2908
vn -0.7547 -0.1033 -0.6478
vn -0.8008 0.4536 -0.3910
vn -0.2044 -0.9583 -0.1999
vn -0.3926 -0.8356 0.3841
vn -0.1761 -0.4751 0.8621
vn -0.0430 0.1922 0.9804
vn 0.6019 0.1912 -0.7753
vn 0.7304 0.1780 0.6594
vn 0.7996 0.1452 0.5827
vn 0.4182 0.6323 0.6522
vn 0.7573 0.1035 0.6448
vn 0.3490 0.5916 0.7268
vn 0.7981 -0.3049 0.5198
vn 0.3361 0.7024 0.6274
vn 0.7469 -0.6201 0.2401
vn -0.5384 -0.3380 -0.7719
vn 0.5011 -0.8582 -0.1113
vn 0.7193 0.0643 0.6918
vn 0.4668 -0.1648 -0.8689
vn 0.5233 0.0307 0.8516
vn -0.0679 0.8745 0.4803
vn -0.1186 -0.7730 -0.6232
vn -0.6757 0.6988 -0.2346
vn 0.6210 -0.7549 0.2111
vn 0.4579 -0.8807 -0.1208
vn 0.8421 0.5014 -0.1988
vn 0.2354 -0.7518 -0.6160
vn 0.0086 -0.8866 -0.4625
vn -0.4275 0.8390 -0.3365
vn -0.6293 0.1249 -0.7671
vn -0.4094 -0.2431 -0.8794
vn 0.3543 -0.9302 0.0963
vn 0.4039 -0.9103 0.0905
vn 0.5532 -0.4467 0.7032
vn 0.7195 0.2240 0.6573
vn 0.7850 -0.2466 -0.5683
vn 0.9621 -0.2613 0.0782
vn 0.5274 -0.6532 0.5433
vn 0.3966 0.2921 0.8703
vn -0.0768 0.9958 0.0489
vn -0.3758 0.5799 -0.7228
vn 0.4314 0.0204 0.9019
vn 0.2758 -0.9065 0.3196
vn 0.6070 -0.6186 0.4988
vn 0.5341 -0.4068 0.7411
vn -0.2639 -0.2745 -0.9246
vn 0.3378 -0.4802 0.8095
vn 0.0141 0.8884 0.4588
vn 0.1084 0.7497 0.6529
vn 0.0150 -0.8616 -0.5074
vn 0.1745 -0.8108 0.5587
vn 0.3541 -0.0889 0.9310
vn -0.1975 0.9689 -0.1492
vn -0.1809 0.4332 -0.8830
vn -0.0248 -0.3089 -0.9508
vn -0.1538 0.8108 0.5647
vn 0.1315 -0.8821 -0.4523
vn 0.3144 -0.9398 0.1342
vn 0.1435 -0.3976 0.9063
vn -0.2248 0.4779 0.8491
vn 0.0043 0.2014 0.9795
vn 0.1023 -0.0040 -0.9947
vn 0.2179 -0.5696 -0.7926
vn -0.1513 0.6788 -0.7186
vn -0.2520 0.9646 -0.0775
vn 0.2669 -0.9286 -0.2579
vn -0.2191 0.4617 0.8596
vn 0.2555 -0.9124 0.3196
vn 0.0564 0.4967 -0.8661
vn -0.1050 -0.1171 0.9875
vn -0.1412 0.8763 0.4606
vn 0.0416 0.8850 -0.4638
vn 0.2458 -0.5836 -0.7740
vn -0.0115 -0.9754 0.2201
vn 0.2589 0.3848 -0.8859
vn 0.2495 0.3370 0.9079
vn 0.1871 0.9279 0.3225
vn 0.5261 0.7106 -0.4673
vn 0.4827 -0.3735 -0.7922
vn 0.2081 -0.5412 0.8148
vn 0.3296 -0.9440 0.0158
vn 0.8756 -0.3040 0.3752
vn 0.8419 0.4989 0.2055
vn 0.9071 -0.2252 -0.3557
s 1
f 5//1 2//2 1//3
f 5//1 1//3 3//4
f 4//5 1//3 2//2
f 5//1 6//6 2//2
f 8//7 4//5 2//2
f 5//1 10//8 6//6
f 4//5 8//7 7//9
f 2//2 6//6 8//7
f 11//10 8//7 6//6
f 10//8 11//10 6//6
f 1//3 12//11 13//12
f 13//12 14//13 1//3
f 1//3 14//13 3//4
f 4//5 12//11 1//3
f 5//1 3//4 15//14
f 17//15 12//11 4//5
f 12//11 17//15 18//16
f 18//16 19//17 20//18
f 16//19 9//20 15//14
f 21//21 9//20 16//19
f 15//14 9//20 5//1
f 17//15 4//5 7//9
f 20//18 19//17 21//21
f 19//17 22//22 21//21
f 10//8 5//1 9//20
f 9//20 23//23 10//8
f 24//24 17//15 7//9
f 26//25 7//9 8//7
f 7//9 26//25 25//26
f 7//9 25//26 24//24
f 11//10 10//8 28//27
f 8//7 27//28 26//25
f 8//7 11//10 27//28
f 27//28 11//10 28//27
f 29//29 30//30 18//16
f 29//29 31//31 16//19
f 33//32 29//29 16//19
f 20//18 29//29 18//16
f 16//19 15//14 32//33
f 31//31 21//21 16//19
f 34//34 21//21 22//22
f 23//23 9//20 21//21
f 23//23 21//21 34//34
f 22//22 35//35 34//34
f 36//36 28//27 10//8
f 24//24 25//26 37//37
f 25//26 26//25 38//38
f 26//25 27//28 38//38
f 27//28 39//39 38//38
f 12//11 41//40 42//41
f 14//13 43//42 40//43
f 43//42 14//13 13//12
f 13//12 12//11 42//41
f 33//32 32//33 15//14
f 30//30 12//11 18//16
f 30//30 33//32 44//44
f 30//30 29//29 33//32
f 45//45 34//34 35//35
f 37//37 35//35 24//24
f 45//45 46//46 34//34
f 34//34 46//46 23//23
f 23//23 36//36 10//8
f 23//23 47//47 36//36
f 27//28 28//27 39//39
f 28//27 36//36 39//39
f 42//41 43//42 13//12
f 3//4 14//13 15//14
f 48//48 46//46 45//45
f 47//47 49//49 36//36
f 50//50 46//46 48//48
f 51//51 15//14 14//13
f 30//30 41//40 12//11
f 45//45 35//35 50//50
f 35//35 52//52 50//50
f 37//37 52//52 35//35
f 25//26 38//38 53//53
f 15//14 51//51 33//32
f 37//37 54//54 52//52
f 50//50 55//55 46//46
f 38//38 39//39 53//53
f 58//56 30//30 44//44
f 50//50 60//57 55//55
f 36//36 49//49 56//58
f 59//59 37//37 25//26
f 57//60 39//39 36//36
f 56//58 57//60 36//36
f 14//13 40//43 51//51
f 56//58 49//49 60//57
f 52//52 61//61 50//50
f 37//37 62//62 54//54
f 25//26 53//53 59//59
f 53//53 39//39 57//60
f 51//51 74//63 33//32
f 63//64 41//40 30//30
f 50//50 61//61 60//57
f 54//54 62//62 61//61
f 63//64 30//30 58//56
f 62//62 64//65 61//61
f 56//58 65//66 57//60
f 53//53 64//65 59//59
f 53//53 57//60 66//67
f 67//68 53//53 66//67
f 66//67 57//60 65//66
f 33//32 74//63 44//44
f 58//56 44//44 74//63
f 64//65 68//69 61//61
f 69//70 43//42 42//41
f 69//70 42//41 41//40
f 43//42 70//71 40//43
f 70//71 43//42 69//70
f 70//71 71//72 40//43
f 40//43 71//72 51//51
f 41//40 63//64 69//70
f 63//64 58//56 72//73
f 53//53 67//68 64//65
f 69//70 73//74 70//71
f 73//74 71//72 70//71
f 51//51 71//72 74//63
f 74//63 71//72 73//74
f 69//70 63//64 72//73
f 69//70 72//73 73//74
f 74//63 73//74 72//73
f 58//56 74//63 72//73
f 61//61 75//75 60//57
f 68//69 75//75 61//61
f 60//57 76//76 56//58
f 65//66 56//58 77//77
f 66//67 65//66 78//78
f 66//67 78//78 67//68
f 75//75 79//79 60//57
f 79//79 76//76 60//57
f 81//80 68//69 64//65
f 82//81 75//75 68//69
f 75//75 83//82 79//79
f 64//65 67//68 84//83
f 81//80 75//75 82//81
f 85//84 83//82 75//75
f 85//84 75//75 81//80
f 77//77 56//58 80//85
f 79//79 86//86 76//76
f 80//85 86//86 77//77
f 84//83 87//87 64//65
f 64//65 87//87 81//80
f 77//77 78//78 65//66
f 67//68 78//78 84//83
f 81//80 88//88 85//84
f 89//89 86//86 79//79
f 87//87 88//88 81//80
f 77//77 86//86 90//90
f 84//83 78//78 91//91
f 83//82 85//84 89//89
f 85//84 88//88 89//89
f 87//87 84//83 92//92
f 84//83 91//91 92//92
f 90//90 78//78 77//77
f 90//90 91//91 78//78
f 94//93 86//86 89//89
f 90//90 86//86 94//93
f 89//89 88//88 94//93
f 95//94 88//88 87//87
f 93//95 96//96 88//88
f 97//97 94//93 88//88
f 87//87 92//92 95//94
f 95//94 93//95 88//88
f 88//88 96//96 98//98
f 92//92 91//91 100//99
f 95//94 92//92 99//100
f 101//101 91//91 90//90
f 101//101 90//90 94//93
f 100//99 99//100 92//92
f 102//102 101//101 94//93
f 99//100 93//95 95//94
f 99//100 103//103 93//95
f 101//101 100//99 91//91
f 104//104 94//93 97//97
f 104//104 98//98 96//96
f 105//105 93//95 103//103
f 96//96 93//95 105//105
f 106//106 100//99 101//101
f 102//102 94//93 104//104
f 106//106 101//101 102//102
f 107//107 104//104 96//96
f 96//96 105//105 107//107
f 102//102 104//104 108//108
f 109//109 102//102 108//108
f 100//99 103//103 99//100
f 106//106 102//102 109//109
f 110//110 103//103 100//99
f 105//105 111//111 107//107
f 107//107 108//108 104//104
f 100//99 106//106 110//110
f 111//111 105//105 103//103
f 111//111 103//103 110//110
f 112//112 110//110 106//106
f 112//112 106//106 109//109
f 107//107 113//113 108//108
f 108//108 113//113 114//114
f 109//109 116//115 112//112
f 116//115 108//108 114//114
f 116//115 109//109 108//108
f 110//110 112//112 115//116
f 117//117 107//107 111//111
f 107//107 117//117 113//113
f 118//118 117//117 111//111
f 118//118 111//111 110//110
f 115//116 118//118 110//110
f 112//112 116//115 115//116
f 120//119 113//113 117//117
f 120//119 119//120 113//113
f 119//120 114//114 113//113
f 118//118 120//119 117//117
f 118//118 115//116 121//121
f 118//118 121//121 120//119
f 116//115 121//121 115//116
f 120//119 121//121 119//120
f 119//120 121//121 116//115
f 116//115 114//114 119//120
