# Blender v2.78 (sub 0) OBJ File: 'exporter.blend'
# www.blender.org
o FJ2211.obj_grp1.948
v 0.442524 -0.481799 6.204382
v 0.441929 -0.477736 6.203348
v 0.443222 -0.476491 6.206496
v 0.444942 -0.484649 6.204795
v 0.444218 -0.483796 6.200110
v 0.447316 -0.486051 6.201098
v 0.448621 -0.485215 6.206975
v 0.444586 -0.482055 6.207745
v 0.448530 -0.486280 6.204205
v 0.445737 -0.483412 6.197654
v 0.442302 -0.481202 6.201451
v 0.442780 -0.478771 6.198796
v 0.447177 -0.481156 6.209591
v 0.445393 -0.477692 6.209028
v 0.447931 -0.476981 6.209951
v 0.445674 -0.479344 6.196056
v 0.443091 -0.474817 6.201331
v 0.445055 -0.475125 6.207665
v 0.445201 -0.475762 6.197208
v 0.444210 -0.473507 6.204160
v 0.448162 -0.472446 6.206431
v 0.446243 -0.473629 6.198315
v 0.447038 -0.471863 6.201836
v 0.473964 -0.483406 6.194349
v 0.473846 -0.481885 6.190787
v 0.449152 -0.481884 6.209661
v 0.477373 -0.480861 6.199743
v 0.462979 -0.481329 6.191991
v 0.452636 -0.478409 6.209519
v 0.473136 -0.478187 6.188384
v 0.450096 -0.474901 6.208628
v 0.472688 -0.473553 6.201928
v 0.474233 -0.473537 6.188413
v 0.474477 -0.469933 6.191833
v 0.478262 -0.476156 6.201114
v 0.481026 -0.468933 6.194601
v 0.491543 -0.480123 6.194556
v 0.485209 -0.469672 6.196558
v 0.489530 -0.477694 6.197907
v 0.489330 -0.471184 6.197846
v 0.482570 -0.474250 6.186504
v 0.487585 -0.480206 6.188779
v 0.490780 -0.470151 6.186587
v 0.493850 -0.480076 6.191000
v 0.490474 -0.476434 6.185748
v 0.497151 -0.472734 6.197783
v 0.497042 -0.472228 6.185062
v 0.501676 -0.477242 6.187871
v 0.505155 -0.473859 6.197082
v 0.506083 -0.473913 6.186021
v 0.503632 -0.468248 6.196851
v 0.505412 -0.464987 6.189745
v 0.497451 -0.466725 6.193821
v 0.510972 -0.475525 6.194210
v 0.511812 -0.469841 6.198410
v 0.510376 -0.465017 6.188122
v 0.515242 -0.474146 6.190405
v 0.508095 -0.467440 6.186494
v 0.511531 -0.463157 6.193693
v 0.512381 -0.469070 6.186395
v 0.520303 -0.469957 6.189218
v 0.522550 -0.467283 6.201174
v 0.511770 -0.464250 6.196342
v 0.520987 -0.464313 6.200757
v 0.523998 -0.460077 6.199578
v 0.530946 -0.457569 6.198123
v 0.528323 -0.469293 6.199807
v 0.527624 -0.467538 6.202209
v 0.525677 -0.461726 6.191835
v 0.531146 -0.467655 6.194568
v 0.524873 -0.465490 6.190138
v 0.540617 -0.465565 6.202594
v 0.538781 -0.457845 6.209423
v 0.536373 -0.463430 6.196041
v 0.538562 -0.462949 6.208827
v 0.541972 -0.464959 6.206869
v 0.538598 -0.459395 6.197648
v 0.543117 -0.454425 6.209197
v 0.547193 -0.461453 6.203628
v 0.544750 -0.458435 6.213946
v 0.540437 -0.455511 6.202000
v 0.546886 -0.462501 6.212772
v 0.552017 -0.459338 6.219072
v 0.550025 -0.457195 6.205253
v 0.557785 -0.453111 6.221898
v 0.554775 -0.462133 6.214356
v 0.555517 -0.461803 6.217766
v 0.554415 -0.455444 6.221284
v 0.550515 -0.454064 6.208252
v 0.551976 -0.452644 6.213450
v 0.560533 -0.460367 6.216213
v 0.561446 -0.457142 6.215017
v 0.563338 -0.460915 6.227345
v 0.557725 -0.452936 6.215183
v 0.562468 -0.452498 6.221620
v 0.564660 -0.461985 6.224932
v 0.567542 -0.461524 6.224679
v 0.562702 -0.459072 6.228828
v 0.562280 -0.454580 6.216780
v 0.571368 -0.455289 6.234812
v 0.564788 -0.461918 6.225063
v 0.587815 -0.466129 6.251345
v 0.569503 -0.454566 6.225043
v 0.584308 -0.463182 6.249489
v 0.576044 -0.458384 6.241356
v 0.575395 -0.457998 6.229687
v 0.571755 -0.454263 6.230657
v 0.578048 -0.463793 6.235200
v 0.590270 -0.467993 6.250440
v 0.583951 -0.463180 6.238840
v 0.592018 -0.460978 6.248262
v 0.591502 -0.460638 6.250513
v 0.596300 -0.467951 6.256489
v 0.599343 -0.465543 6.259239
v 0.603635 -0.468933 6.255669
v 0.597658 -0.463215 6.257216
v 0.592571 -0.462413 6.246905
v 0.594948 -0.465253 6.248075
v 0.602496 -0.468889 6.258644
v 0.605678 -0.462842 6.259375
v 0.604386 -0.467693 6.260628
v 0.603670 -0.462988 6.255577
v 0.601225 -0.463561 6.253195
v 0.606305 -0.467588 6.255379
v 0.607218 -0.465680 6.255279
v 0.610942 -0.465914 6.263248
v 0.614597 -0.468366 6.260782
v 0.612969 -0.467742 6.262700
v 0.612849 -0.462422 6.259589
v 0.620617 -0.462761 6.264998
v 0.625462 -0.465746 6.264597
v 0.622077 -0.465609 6.260024
v 0.616763 -0.463648 6.258657
v 0.636250 -0.463440 6.264111
v 0.627315 -0.463435 6.266108
v 0.624612 -0.460609 6.263084
v 0.628531 -0.462108 6.260752
v 0.627669 -0.460635 6.261608
v 0.648161 -0.459759 6.265716
v 0.647367 -0.455761 6.265920
v 0.647385 -0.457388 6.267215
v 0.647265 -0.456169 6.263483
v 0.648377 -0.458905 6.263389
v 0.648110 -0.458623 6.266968
v 0.648279 -0.457371 6.263040
v 0.648591 -0.456651 6.266000
v 0.649279 -0.457859 6.264889
v 0.647915 -0.456014 6.264413
v 0.647915 -0.456014 6.264413
vn -0.8929 -0.3720 0.2535
vn -0.8409 0.2411 0.4845
vn -0.9857 0.1484 0.0802
vn -0.5725 -0.7746 0.2687
vn -0.7150 -0.6349 -0.2928
vn -0.2438 -0.9363 -0.2529
vn -0.0480 -0.8089 0.5860
vn -0.6311 -0.3948 0.6677
vn -0.0747 -0.9833 0.1663
vn -0.8676 0.0165 -0.4971
vn -0.9367 -0.3042 -0.1732
vn -0.2975 -0.2862 0.9108
vn -0.5641 0.1218 0.8167
vn -0.1375 0.2679 0.9536
vn 0.0325 -0.4201 0.9069
vn -0.4353 -0.5928 -0.6776
vn -0.4860 -0.0713 -0.8711
vn -0.8207 0.5404 -0.1857
vn -0.4912 0.5474 0.6775
vn -0.5500 0.4109 -0.7271
vn -0.6601 0.7317 0.1697
vn -0.1404 0.8447 0.5166
vn -0.4222 0.7208 -0.5498
vn -0.3077 0.9486 -0.0748
vn 0.1055 -0.9848 -0.1377
vn -0.0312 -0.7658 -0.6424
vn 0.3095 -0.5539 0.7729
vn 0.2675 0.0445 0.9625
vn -0.1904 -0.5408 -0.8193
vn -0.1679 -0.2634 -0.9500
vn 0.0539 0.5814 0.8118
vn 0.2339 0.4051 0.8838
vn -0.2487 0.3817 -0.8902
vn 0.2822 -0.0514 0.9580
vn -0.0750 0.9731 0.2178
vn -0.2011 0.8939 -0.4007
vn 0.2479 -0.8904 0.3818
vn -0.0365 0.7866 0.6164
vn 0.0496 0.4638 0.8845
vn -0.1605 0.1061 -0.9813
vn 0.0667 -0.8210 -0.5670
vn 0.2411 -0.4984 0.8327
vn -0.1360 0.5824 -0.8015
vn 0.1965 -0.9727 -0.1233
vn -0.0068 -0.3769 -0.9262
vn 0.0879 0.0576 0.9945
vn -0.0229 0.0914 -0.9955
vn 0.1958 -0.8082 -0.5555
vn 0.1108 -0.5011 0.8583
vn 0.2225 -0.4204 -0.8796
vn -0.0986 0.5343 0.8395
vn -0.1960 0.9378 -0.2867
vn -0.1250 0.8987 0.4204
vn 0.2627 -0.9015 0.3439
vn -0.1880 0.0473 0.9810
vn -0.0244 0.7207 -0.6928
vn 0.3558 -0.8427 -0.4041
vn 0.0023 0.4310 -0.9023
vn -0.2670 0.9387 0.2178
vn 0.2088 0.0406 -0.9771
vn 0.3935 -0.4327 -0.8111
vn -0.2191 -0.3161 0.9231
vn -0.4425 0.7417 0.5040
vn -0.3833 0.2897 0.8770
vn -0.4270 0.8033 0.4153
vn -0.1374 0.9486 -0.2852
vn -0.0743 -0.6942 0.7160
vn 0.1293 -0.8221 0.5545
vn 0.1419 0.6257 -0.7670
vn 0.5072 -0.6332 -0.5846
vn 0.3660 0.0435 -0.9296
vn 0.4028 -0.8963 -0.1857
vn -0.5357 0.3423 0.7720
vn 0.5400 -0.1710 -0.8241
vn -0.3277 -0.5088 0.7961
vn 0.0898 0.8898 -0.4474
vn 0.0453 -0.9389 0.3412
vn 0.4080 0.3918 -0.8247
vn -0.3533 0.9024 0.2465
vn -0.5902 -0.1170 0.7987
vn 0.6089 -0.4104 -0.6788
vn -0.2471 -0.7840 0.5695
vn -0.5130 -0.4559 0.7273
vn 0.5659 0.2608 -0.7822
vn -0.3367 0.8435 0.4186
vn 0.2342 -0.9720 -0.0207
vn -0.1660 -0.9528 0.2543
vn -0.6152 0.3280 0.7169
vn 0.2814 0.8174 -0.5027
vn -0.0848 0.9963 -0.0112
vn 0.5168 -0.6695 -0.5335
vn -0.4519 -0.8128 0.3676
vn 0.6932 -0.0696 -0.7174
vn 0.3025 0.8854 -0.3529
vn 0.1545 0.9865 -0.0539
vn -0.1572 -0.9103 0.3829
vn -0.1970 -0.9804 -0.0018
vn -0.6537 -0.4550 0.6047
vn -0.4858 0.5032 0.7147
vn 0.5999 0.5544 -0.5768
vn -0.2512 0.8368 0.4865
vn -0.0729 -0.9973 0.0036
vn -0.5628 -0.5170 0.6450
vn 0.5931 0.6765 -0.4366
vn -0.6114 0.0704 0.7882
vn 0.3104 -0.8180 -0.4842
vn 0.7349 0.1948 -0.6496
vn 0.2524 0.9676 -0.0012
vn -0.2293 -0.9694 0.0877
vn 0.6350 -0.2896 -0.7162
vn 0.4468 0.8512 -0.2755
vn 0.0806 0.9752 0.2063
vn -0.4108 -0.6840 0.6028
vn -0.4002 0.0478 0.9152
vn 0.1670 -0.9252 -0.3407
vn -0.2904 0.6489 0.7033
vn 0.5915 0.4704 -0.6549
vn 0.6504 0.0336 -0.7589
vn -0.1573 -0.9093 0.3852
vn -0.0450 0.9912 0.1247
vn -0.2680 -0.5003 0.8233
vn 0.3562 0.8443 -0.4003
vn 0.5308 0.4812 -0.6976
vn 0.3626 0.1258 -0.9234
vn 0.3774 -0.4863 -0.7881
vn -0.2280 -0.0372 0.9730
vn 0.1861 -0.9820 -0.0307
vn -0.0591 -0.7461 0.6632
vn 0.0632 0.9105 -0.4087
vn -0.1949 0.4611 0.8657
vn 0.1165 -0.8444 0.5229
vn 0.2766 -0.4998 -0.8208
vn 0.2161 0.4419 -0.8706
vn 0.2722 -0.9621 -0.0148
vn -0.0290 -0.2055 0.9782
vn -0.1946 0.9752 0.1058
vn -0.0378 0.7798 -0.6249
vn 0.0848 0.2568 -0.9627
vn 0.1011 0.9244 0.3677
vn 0.1935 0.3062 0.9321
vn 0.0808 0.7897 -0.6082
vn 0.6164 -0.5153 -0.5955
vn 0.5592 -0.7924 0.2436
vn 0.5371 -0.3280 0.7771
vn 0.5560 0.2143 -0.8031
vn 0.7703 0.5108 0.3816
vn 0.9995 0.0278 -0.0154
vn 0.7244 0.6527 -0.2218
vn 0.0020 0.9853 -0.1708
s 1
f 1//1 3//2 2//3
f 4//4 5//5 6//6
f 7//7 8//8 4//4
f 6//6 9//9 4//4
f 7//7 4//4 9//9
f 12//10 5//5 11//11
f 11//11 5//5 1//1
f 4//4 8//8 1//1
f 4//4 1//1 5//5
f 7//7 13//12 8//8
f 14//13 8//8 13//12
f 13//12 15//14 14//13
f 26//15 15//14 13//12
f 10//16 5//5 12//10
f 16//17 10//16 12//10
f 2//3 12//10 11//11
f 11//11 1//1 2//3
f 12//10 2//3 17//18
f 1//1 8//8 3//2
f 14//13 3//2 8//8
f 14//13 18//19 3//2
f 15//14 18//19 14//13
f 12//10 19//20 16//17
f 19//20 12//10 17//18
f 2//3 3//2 20//21
f 2//3 20//21 17//18
f 3//2 18//19 20//21
f 21//22 20//21 18//19
f 22//23 17//18 23//24
f 23//24 17//18 20//21
f 24//25 6//6 25//26
f 7//7 27//27 26//15
f 6//6 5//5 10//16
f 7//7 26//15 13//12
f 26//15 29//28 15//14
f 16//17 28//29 10//16
f 30//30 28//29 16//17
f 29//28 31//31 15//14
f 32//32 31//31 29//28
f 33//33 16//17 19//20
f 19//20 17//18 22//23
f 18//19 31//31 21//22
f 31//31 18//19 15//14
f 20//21 21//22 23//24
f 6//6 10//16 25//26
f 35//34 32//32 29//28
f 31//31 36//35 21//22
f 23//24 21//22 36//35
f 29//28 26//15 35//34
f 19//20 22//23 33//33
f 34//36 33//33 22//23
f 34//36 23//24 36//35
f 30//30 16//17 33//33
f 24//25 9//9 6//6
f 28//29 25//26 10//16
f 24//25 37//37 9//9
f 26//15 27//27 35//34
f 31//31 38//38 36//35
f 9//9 37//37 7//7
f 37//37 27//27 7//7
f 38//38 31//31 32//32
f 34//36 22//23 23//24
f 28//29 30//30 25//26
f 38//38 32//32 40//39
f 41//40 30//30 33//33
f 24//25 25//26 42//41
f 27//27 37//37 39//42
f 35//34 27//27 39//42
f 35//34 40//39 32//32
f 34//36 43//43 33//33
f 24//25 42//41 44//44
f 44//44 37//37 24//25
f 45//45 25//26 30//30
f 45//45 42//41 25//26
f 43//43 41//40 33//33
f 35//34 39//42 46//46
f 46//46 40//39 35//34
f 41//40 45//45 30//30
f 47//47 41//40 43//43
f 48//48 42//41 45//45
f 46//46 39//42 49//49
f 37//37 49//49 39//42
f 47//47 45//45 41//40
f 42//41 48//48 44//44
f 50//50 48//48 45//45
f 50//50 45//45 47//47
f 40//39 46//46 51//51
f 38//38 40//39 51//51
f 34//36 36//35 52//52
f 36//35 53//53 52//52
f 37//37 44//44 54//54
f 46//46 49//49 55//55
f 36//35 38//38 53//53
f 53//53 38//38 51//51
f 34//36 56//56 43//43
f 48//48 57//57 44//44
f 57//57 54//54 44//44
f 37//37 54//54 49//49
f 46//46 55//55 51//51
f 43//43 56//56 58//58
f 58//58 47//47 43//43
f 34//36 52//52 56//56
f 52//52 53//53 59//59
f 57//57 48//48 50//50
f 60//60 47//47 58//58
f 60//60 50//50 47//47
f 59//59 53//53 51//51
f 57//57 50//50 61//61
f 54//54 62//62 49//49
f 62//62 55//55 49//49
f 50//50 60//60 61//61
f 51//51 63//63 59//59
f 64//64 51//51 55//55
f 64//64 63//63 51//51
f 59//59 65//65 66//66
f 56//56 52//52 66//66
f 66//66 52//52 59//59
f 63//63 65//65 59//59
f 54//54 68//67 62//62
f 67//68 68//67 54//54
f 55//55 62//62 64//64
f 56//56 69//69 58//58
f 61//61 70//70 57//57
f 61//61 60//60 71//71
f 60//60 58//58 69//69
f 71//71 60//60 69//69
f 65//65 63//63 64//64
f 57//57 72//72 54//54
f 72//72 67//68 54//54
f 62//62 73//73 64//64
f 69//69 56//56 66//66
f 65//65 64//64 73//73
f 72//72 57//57 70//70
f 61//61 71//71 70//70
f 71//71 74//74 70//70
f 62//62 68//67 75//75
f 81//76 69//69 66//66
f 75//75 67//68 76//77
f 75//75 68//67 67//68
f 62//62 75//75 73//73
f 74//74 71//71 77//78
f 71//71 69//69 77//78
f 65//65 73//73 78//79
f 72//72 76//77 67//68
f 75//75 80//80 73//73
f 81//76 77//78 69//69
f 66//66 65//65 78//79
f 78//79 81//76 66//66
f 70//70 79//81 72//72
f 79//81 70//70 74//74
f 82//82 75//75 76//77
f 83//83 75//75 82//82
f 83//83 80//80 75//75
f 77//78 84//84 74//74
f 84//84 79//81 74//74
f 73//73 85//85 78//79
f 86//86 76//77 72//72
f 76//77 87//87 82//82
f 73//73 80//80 88//88
f 85//85 73//73 88//88
f 89//89 77//78 81//76
f 81//76 78//79 90//90
f 76//77 86//86 87//87
f 87//87 83//83 82//82
f 86//86 72//72 91//91
f 72//72 79//81 91//91
f 83//83 88//88 80//80
f 77//78 89//89 84//84
f 90//90 89//89 81//76
f 90//90 78//79 85//85
f 93//92 83//83 87//87
f 84//84 92//93 79//81
f 90//90 94//94 89//89
f 85//85 95//95 90//90
f 90//90 95//95 94//94
f 93//92 87//87 96//96
f 87//87 86//86 97//97
f 86//86 91//91 97//97
f 83//83 98//98 88//88
f 98//98 83//83 93//92
f 79//81 92//93 91//91
f 85//85 88//88 105//99
f 89//89 99//100 84//84
f 94//94 99//100 89//89
f 95//95 99//100 94//94
f 92//93 84//84 99//100
f 100//101 95//95 85//85
f 97//97 101//102 87//87
f 102//103 98//98 93//92
f 105//99 100//101 85//85
f 95//95 103//104 99//100
f 93//92 96//96 101//102
f 104//105 98//98 102//103
f 108//106 97//97 91//91
f 98//98 104//105 88//88
f 104//105 105//99 88//88
f 108//106 91//91 92//93
f 92//93 99//100 106//107
f 106//107 99//100 103//104
f 95//95 100//101 107//108
f 107//108 103//104 95//95
f 108//106 109//109 101//102
f 97//97 108//106 101//102
f 108//106 92//93 110//110
f 107//108 111//111 103//104
f 93//92 101//102 109//109
f 102//103 93//92 109//109
f 92//93 106//107 110//110
f 107//108 100//101 112//112
f 109//109 113//113 102//103
f 102//103 114//114 104//105
f 110//110 115//115 108//106
f 116//116 105//99 104//105
f 110//110 117//117 118//118
f 110//110 106//107 117//117
f 116//116 112//112 100//101
f 105//99 116//116 100//101
f 106//107 103//104 117//117
f 111//111 117//117 103//104
f 112//112 111//111 107//108
f 119//119 113//113 109//109
f 115//115 109//109 108//106
f 113//113 114//114 102//103
f 118//118 115//115 110//110
f 116//116 104//105 114//114
f 120//120 112//112 116//116
f 119//119 109//109 115//115
f 119//119 121//121 113//113
f 121//121 114//114 113//113
f 122//122 117//117 111//111
f 123//123 117//117 122//122
f 118//118 117//117 123//123
f 122//122 111//111 120//120
f 112//112 120//120 111//111
f 125//124 118//118 123//123
f 118//118 124//125 115//115
f 125//124 124//125 118//118
f 114//114 121//121 126//126
f 127//127 119//119 115//115
f 128//128 126//126 121//121
f 122//122 125//124 123//123
f 122//122 120//120 129//129
f 128//128 121//121 119//119
f 119//119 127//127 128//128
f 130//130 114//114 126//126
f 130//130 116//116 114//114
f 120//120 116//116 130//130
f 131//131 128//128 127//127
f 115//115 124//125 132//132
f 125//124 132//132 124//125
f 129//129 133//133 122//122
f 122//122 133//133 125//124
f 134//134 131//131 127//127
f 132//132 127//127 115//115
f 126//126 128//128 135//135
f 130//130 126//126 135//135
f 133//133 132//132 125//124
f 136//136 129//129 120//120
f 120//120 130//130 136//136
f 132//132 134//134 127//127
f 135//135 128//128 131//131
f 129//129 136//136 138//137
f 129//129 138//137 133//133
f 133//133 137//138 132//132
f 133//133 138//137 137//138
f 140//139 136//136 130//130
f 141//140 130//130 135//135
f 138//137 136//136 142//141
f 141//140 140//139 130//130
f 132//132 143//142 134//134
f 143//142 139//143 134//134
f 144//144 141//140 135//135
f 145//145 132//132 137//138
f 135//135 131//131 144//144
f 131//131 134//134 139//143
f 131//131 139//143 144//144
f 143//142 132//132 145//145
f 137//138 142//141 145//145
f 138//137 142//141 137//138
f 140//139 142//141 136//136
f 144//144 146//146 141//140
f 146//146 140//139 141//140
f 147//147 139//143 143//142
f 147//147 144//144 139//143
f 144//144 147//147 146//146
f 148//148 145//145 142//141
f 143//142 145//145 147//147
f 147//147 145//145 148//148
f 140//139 149//149 142//141
f 146//146 148//148 140//139
f 147//147 148//148 146//146
