# Blender v2.78 (sub 0) OBJ File: 'exporter.blend'
# www.blender.org
o FJ2263.obj_grp1.1000
v -0.648335 -0.459719 6.264351
v -0.648039 -0.459390 6.266383
v -0.622010 -0.466961 6.261770
v -0.647893 -0.458575 6.262957
v -0.647810 -0.456976 6.262956
v -0.621047 -0.465863 6.259859
v -0.649212 -0.458058 6.264318
v -0.649074 -0.457840 6.265856
v -0.647847 -0.457998 6.267094
v -0.648671 -0.456339 6.264718
v -0.647669 -0.456608 6.266723
v -0.647971 -0.456068 6.265634
v -0.647404 -0.455877 6.263802
v -0.647957 -0.455969 6.265668
v -0.635534 -0.461005 6.266735
v -0.633605 -0.464010 6.264961
v -0.623922 -0.461203 6.261420
v -0.625418 -0.462756 6.260313
v -0.621779 -0.461379 6.263968
v -0.622562 -0.465535 6.264980
v -0.618339 -0.464210 6.264885
v -0.614518 -0.467780 6.262874
v -0.610746 -0.465098 6.256632
v -0.611958 -0.463076 6.258170
v -0.607823 -0.462591 6.260003
v -0.607101 -0.469149 6.259285
v -0.610381 -0.463150 6.257737
v -0.605636 -0.469044 6.256832
v -0.608098 -0.464737 6.262463
v -0.603773 -0.467691 6.254239
v -0.605432 -0.467871 6.260891
v -0.596499 -0.466299 6.257705
v -0.597838 -0.466535 6.250458
v -0.589708 -0.462696 6.253110
v -0.601903 -0.464476 6.252865
v -0.599061 -0.462912 6.252402
v -0.594260 -0.462023 6.254477
v -0.596674 -0.461888 6.253563
v -0.597392 -0.468339 6.256599
v -0.596917 -0.469002 6.254296
v -0.594795 -0.463755 6.248076
v -0.594795 -0.463755 6.248076
v -0.585991 -0.466735 6.244682
v -0.584627 -0.463776 6.239684
v -0.587442 -0.466613 6.250365
v -0.580729 -0.462710 6.246322
v -0.589039 -0.460110 6.245415
v -0.584030 -0.460765 6.238546
v -0.565113 -0.461868 6.226779
v -0.561069 -0.459684 6.226535
v -0.569776 -0.454013 6.226560
v -0.569881 -0.456400 6.223824
v -0.572148 -0.457544 6.237653
v -0.570416 -0.455100 6.233869
v -0.566262 -0.461455 6.223614
v -0.567450 -0.459438 6.221779
v -0.569142 -0.453753 6.230360
v -0.556453 -0.457834 6.223200
v -0.556689 -0.455298 6.223292
v -0.555595 -0.462099 6.215448
v -0.562418 -0.454579 6.216959
v -0.549916 -0.459371 6.205127
v -0.563582 -0.452764 6.221309
v -0.556794 -0.453302 6.221297
v -0.551952 -0.461959 6.208935
v -0.552594 -0.461007 6.217881
v -0.556369 -0.456612 6.210467
v -0.555726 -0.452273 6.216473
v -0.552600 -0.453504 6.210383
v -0.548251 -0.463016 6.212235
v -0.546477 -0.453621 6.211074
v -0.536515 -0.465598 6.197268
v -0.541015 -0.458668 6.211388
v -0.545503 -0.456536 6.202810
v -0.541906 -0.455284 6.202714
v -0.534770 -0.467537 6.201832
v -0.523276 -0.471396 6.193243
v -0.531136 -0.465018 6.204744
v -0.538592 -0.461502 6.209551
v -0.540133 -0.461351 6.198183
v -0.532822 -0.457740 6.204426
v -0.534172 -0.456476 6.200761
v -0.529941 -0.463437 6.192512
v -0.527468 -0.463082 6.203673
v -0.530619 -0.459484 6.194832
v -0.523817 -0.470527 6.198837
v -0.525570 -0.466293 6.190422
v -0.517420 -0.462356 6.190900
v -0.516868 -0.468987 6.199600
v -0.520871 -0.462171 6.199545
v -0.520795 -0.470615 6.189883
v -0.520575 -0.464015 6.189525
v -0.515991 -0.465580 6.199142
v -0.512759 -0.474467 6.189379
v -0.511188 -0.475728 6.193067
v -0.514119 -0.469005 6.186861
v -0.507472 -0.464234 6.192108
v -0.509484 -0.473533 6.186785
v -0.505240 -0.472835 6.197470
v -0.510523 -0.468067 6.198284
v -0.505738 -0.465669 6.195088
v -0.503894 -0.476237 6.195504
v -0.504214 -0.472603 6.185282
v -0.492861 -0.468134 6.188019
v -0.498411 -0.478909 6.189567
v -0.506158 -0.468167 6.186075
v -0.500166 -0.468987 6.196941
v -0.486154 -0.478335 6.198437
v -0.496290 -0.471113 6.185241
v -0.499228 -0.477056 6.186906
v -0.486098 -0.480224 6.196671
v -0.493195 -0.472899 6.198147
v -0.485543 -0.468246 6.192671
v -0.480417 -0.482485 6.194681
v -0.492167 -0.467806 6.194318
v -0.487704 -0.479531 6.187905
v -0.490143 -0.476105 6.185730
v -0.485275 -0.471677 6.198503
v -0.484115 -0.475037 6.199718
v -0.473127 -0.481047 6.189941
v -0.481701 -0.475330 6.186515
v -0.472330 -0.471361 6.200218
v -0.474102 -0.483032 6.192974
v -0.477883 -0.472925 6.187808
v -0.467820 -0.477099 6.204441
v -0.463200 -0.478309 6.190711
v -0.449469 -0.472779 6.197728
v -0.445774 -0.476255 6.196543
v -0.447837 -0.472687 6.206784
v -0.447078 -0.485520 6.199811
v -0.449612 -0.485728 6.205745
v -0.446771 -0.483568 6.197361
v -0.449259 -0.475093 6.209215
v -0.448352 -0.486313 6.201904
v -0.449789 -0.482618 6.209360
v -0.449179 -0.477862 6.210180
v -0.444468 -0.484782 6.202854
v -0.447066 -0.485115 6.206521
v -0.446762 -0.480542 6.209653
v -0.443852 -0.482193 6.206848
v -0.445403 -0.477687 6.208997
v -0.445356 -0.480197 6.196403
v -0.445958 -0.472233 6.204123
v -0.444781 -0.475520 6.207737
v -0.444137 -0.482959 6.198997
v -0.442983 -0.479492 6.198594
v -0.442064 -0.481183 6.202773
v -0.442205 -0.479130 6.205391
v -0.443274 -0.475308 6.205382
v -0.445969 -0.472432 6.200600
v -0.443234 -0.474465 6.202151
v -0.443528 -0.475860 6.199072
v -0.442104 -0.477024 6.201627
vn -0.6306 -0.7518 -0.1927
vn -0.2289 -0.9622 -0.1478
vn -0.2004 -0.8873 0.4155
vn -0.2634 -0.5336 -0.8037
vn -0.4585 -0.3115 -0.8323
vn -0.4292 0.3496 -0.8328
vn -0.5148 -0.6277 0.5840
vn -0.9661 -0.0776 -0.2461
vn -0.9060 -0.0057 0.4232
vn -0.3524 -0.0027 0.9358
vn -0.7488 0.6556 -0.0978
vn -0.1995 0.6084 0.7682
vn -0.8085 0.1667 0.5644
vn -0.1110 0.9206 -0.3743
vn -0.1995 0.9236 0.3273
vn 0.0464 -0.0518 0.9976
vn 0.0391 0.8911 -0.4521
vn -0.1132 0.2848 -0.9519
vn 0.1983 0.8542 0.4807
vn -0.0039 -0.5867 0.8098
vn 0.1915 0.0780 0.9784
vn 0.0490 -0.7855 0.6169
vn -0.3186 0.3007 -0.8989
vn -0.1192 0.5179 -0.8471
vn 0.1695 0.9440 0.2830
vn -0.0010 -0.9778 0.2097
vn 0.3035 0.2297 0.9248
vn -0.1155 0.8026 -0.5852
vn -0.1651 -0.9181 -0.3602
vn -0.2997 -0.6170 -0.7277
vn 0.2726 -0.5681 0.7765
vn -0.5695 -0.0699 -0.8190
vn 0.4896 -0.1482 0.8592
vn 0.5193 0.3698 0.7705
vn -0.4134 0.3810 -0.8270
vn -0.3274 0.8067 -0.4920
vn 0.1823 0.8036 0.5666
vn -0.1343 0.9907 -0.0236
vn 0.3534 -0.7773 0.5205
vn 0.1435 -0.9894 0.0210
vn -0.6294 0.0092 -0.7770
vn -0.5921 0.4905 -0.6394
vn 0.0153 -0.9571 -0.2892
vn -0.5461 -0.4711 -0.6927
vn 0.5097 -0.7105 0.4852
vn 0.6894 -0.1266 0.7133
vn -0.5196 0.7617 -0.3871
vn -0.7169 0.1179 -0.6871
vn 0.2857 -0.9555 0.0728
vn 0.5437 -0.6723 0.5024
vn -0.6969 0.2836 -0.6587
vn -0.4689 0.8402 -0.2723
vn 0.5500 0.4194 0.7222
vn 0.2899 0.7973 0.5294
vn -0.6165 -0.4170 -0.6679
vn 0.0070 0.9784 0.2067
vn -0.2480 -0.8955 -0.3696
vn 0.6604 -0.1713 0.7311
vn 0.6335 0.3534 0.6884
vn -0.0388 -0.9959 0.0813
vn -0.5906 0.5271 -0.6111
vn -0.2656 0.9473 -0.1792
vn 0.3782 0.8159 0.4374
vn -0.4717 -0.7729 -0.4244
vn 0.3677 -0.7529 0.5458
vn -0.6273 0.2283 -0.7446
vn -0.6201 -0.1272 -0.7742
vn 0.0314 0.9990 -0.0332
vn -0.2505 0.8487 -0.4658
vn 0.0202 -0.9494 0.3134
vn 0.2643 0.9566 0.1225
vn 0.5821 0.0952 0.8075
vn -0.4104 0.5024 -0.7610
vn -0.0692 0.8909 -0.4489
vn -0.1311 -0.9515 0.2784
vn -0.5297 -0.5863 -0.6129
vn -0.4057 -0.8772 -0.2568
vn 0.2844 -0.5091 0.8124
vn 0.4200 -0.3424 0.8405
vn -0.5038 -0.0116 -0.8638
vn 0.4814 0.6963 0.5323
vn 0.2051 0.9675 -0.1480
vn 0.4375 0.1264 0.8903
vn -0.3926 0.1624 -0.9053
vn -0.1423 0.7062 -0.6936
vn -0.0227 -0.7550 0.6553
vn -0.4012 -0.1251 -0.9074
vn 0.1032 0.8518 -0.5136
vn 0.1766 -0.2255 0.9581
vn -0.4039 -0.5649 -0.7195
vn -0.1362 0.4402 -0.8875
vn 0.4697 0.5083 0.7218
vn 0.3260 0.2752 0.9044
vn -0.3287 -0.8193 -0.4698
vn -0.2361 -0.9668 0.0981
vn -0.2403 -0.0191 -0.9705
vn 0.2501 0.9652 0.0762
vn -0.2653 -0.5085 -0.8192
vn 0.0233 -0.2568 0.9662
vn 0.2638 0.2517 0.9312
vn 0.2155 0.7709 0.5994
vn -0.1718 -0.7364 0.6544
vn -0.1058 -0.1933 -0.9754
vn -0.1951 -0.9482 -0.2507
vn 0.0096 0.4768 -0.8790
vn -0.1958 -0.4718 0.8597
vn 0.1996 0.7962 -0.5712
vn 0.0871 0.4710 0.8778
vn -0.1477 -0.6563 -0.7399
vn -0.2209 -0.7730 0.5948
vn -0.0919 0.0685 0.9934
vn 0.0922 0.2853 -0.9540
vn 0.1355 0.9898 0.0436
vn -0.1499 -0.9841 0.0949
vn 0.1352 0.8605 0.4911
vn -0.0216 -0.7545 -0.6559
vn 0.0401 -0.3002 -0.9530
vn -0.2364 0.0029 0.9716
vn -0.1371 0.4643 0.8750
vn 0.1611 -0.0553 -0.9854
vn -0.0829 0.7257 0.6830
vn -0.0356 -0.9487 -0.3141
vn 0.1068 -0.6052 -0.7889
vn 0.2474 0.4496 -0.8583
vn -0.2878 0.0746 0.9548
vn 0.2630 -0.1144 -0.9580
vn 0.4259 0.8624 -0.2738
vn 0.2658 0.7662 -0.5850
vn 0.1803 0.8161 0.5491
vn 0.3077 -0.8654 -0.3956
vn 0.4956 0.3473 -0.7961
vn -0.0621 -0.9087 0.4129
vn 0.3283 -0.6117 -0.7198
vn 0.0113 0.5186 0.8549
vn 0.1042 -0.9937 -0.0411
vn -0.0688 -0.4936 0.8670
vn 0.0064 0.1143 0.9934
vn 0.6448 -0.7627 0.0507
vn 0.3252 -0.8071 0.4927
vn 0.3619 -0.2511 0.8978
vn 0.7177 -0.4323 0.5460
vn 0.5216 -0.1625 -0.8376
vn 0.5513 0.1278 0.8244
vn 0.5988 0.4472 0.6644
vn 0.3932 0.8985 0.1951
vn 0.6929 -0.5369 -0.4812
vn 0.9531 -0.3024 -0.0092
vn 0.8381 -0.0876 -0.5384
vn 0.9304 -0.0060 0.3665
vn 0.8116 0.4778 0.3361
vn 0.7954 0.6033 -0.0578
vn 0.7577 0.4391 -0.4828
vn 0.9635 0.2295 -0.1380
s 1
f 1//1 3//2 16//3
f 6//4 4//5 5//6
f 1//1 2//7 7//8
f 2//7 8//9 7//8
f 2//7 9//10 8//9
f 8//9 10//11 7//8
f 8//9 11//12 10//11
f 7//8 4//5 1//1
f 8//9 9//10 11//12
f 5//6 4//5 7//8
f 10//11 5//6 7//8
f 11//12 12//13 10//11
f 13//14 5//6 10//11
f 13//14 10//11 14//15
f 10//11 12//13 14//15
f 11//12 9//10 15//16
f 1//1 4//5 6//4
f 17//17 5//6 13//14
f 17//17 13//14 14//15
f 5//6 18//18 6//4
f 15//16 2//7 16//3
f 1//1 16//3 2//7
f 9//10 2//7 15//16
f 6//4 3//2 1//1
f 5//6 17//17 18//18
f 14//15 11//12 19//19
f 19//19 11//12 15//16
f 19//19 17//17 14//15
f 16//3 20//20 15//16
f 19//19 15//16 21//21
f 22//22 20//20 16//3
f 3//2 22//22 16//3
f 21//21 15//16 20//20
f 23//23 6//4 18//18
f 18//18 17//17 24//24
f 19//19 25//25 17//17
f 3//2 26//26 22//22
f 22//22 21//21 20//20
f 29//27 19//19 21//21
f 29//27 25//25 19//19
f 23//23 18//18 24//24
f 25//25 27//28 17//17
f 3//2 28//29 26//26
f 28//29 3//2 6//4
f 29//27 21//21 22//22
f 6//4 23//23 30//30
f 28//29 6//4 30//30
f 31//31 22//22 26//26
f 29//27 22//22 31//31
f 27//28 23//23 24//24
f 30//30 23//23 33//32
f 29//27 31//31 32//33
f 32//33 34//34 29//27
f 35//35 33//32 23//23
f 35//35 23//23 27//28
f 35//35 27//28 36//36
f 37//37 38//38 25//25
f 39//39 31//31 26//26
f 40//40 39//39 26//26
f 32//33 31//31 39//39
f 38//38 27//28 25//25
f 36//36 27//28 38//38
f 29//27 34//34 25//25
f 34//34 37//37 25//25
f 26//26 28//29 40//40
f 35//35 41//41 33//32
f 42//42 35//35 36//36
f 28//29 30//30 33//32
f 43//43 28//29 44//44
f 28//29 33//32 44//44
f 28//29 43//43 40//40
f 40//40 45//45 39//39
f 45//45 40//40 43//43
f 32//33 39//39 45//45
f 46//46 32//33 45//45
f 32//33 46//46 34//34
f 33//32 41//41 44//44
f 42//42 36//36 47//47
f 47//47 36//36 38//38
f 44//44 41//41 48//48
f 48//48 42//42 47//47
f 49//49 45//45 43//43
f 50//50 46//46 45//45
f 48//48 47//47 52//51
f 52//51 47//47 51//52
f 34//34 53//53 54//54
f 34//34 54//54 37//37
f 48//48 52//51 44//44
f 56//55 44//44 52//51
f 47//47 38//38 57//56
f 34//34 46//46 53//53
f 51//52 47//47 57//56
f 57//56 37//37 54//54
f 57//56 38//38 37//37
f 55//57 49//49 43//43
f 45//45 49//49 50//50
f 55//57 43//43 44//44
f 55//57 44//44 56//55
f 58//58 46//46 50//50
f 53//53 46//46 58//58
f 54//54 53//53 59//59
f 49//49 55//57 60//60
f 53//53 58//58 59//59
f 52//51 51//52 61//61
f 51//52 57//56 63//62
f 54//54 64//63 57//56
f 59//59 64//63 54//54
f 55//57 56//55 65//64
f 49//49 66//65 50//50
f 67//66 62//67 56//55
f 52//51 61//61 67//66
f 67//66 56//55 52//51
f 61//61 51//52 63//62
f 60//60 55//57 65//64
f 60//60 66//65 49//49
f 57//56 68//68 63//62
f 64//63 68//68 57//56
f 66//65 58//58 50//50
f 56//55 62//67 65//64
f 61//61 63//62 69//69
f 69//69 63//62 68//68
f 70//70 66//65 60//60
f 69//69 67//66 61//61
f 71//71 68//68 64//63
f 73//72 58//58 66//65
f 62//67 67//66 74//73
f 74//73 67//66 69//69
f 75//74 69//69 68//68
f 75//74 68//68 71//71
f 60//60 65//64 70//70
f 76//75 70//70 65//64
f 58//58 73//72 59//59
f 59//59 73//72 64//63
f 74//73 69//69 75//74
f 65//64 72//76 77//77
f 76//75 65//64 77//77
f 78//78 79//79 70//70
f 62//67 72//76 65//64
f 79//79 66//65 70//70
f 66//65 79//79 73//72
f 62//67 74//73 80//80
f 81//81 71//71 64//63
f 81//81 64//63 73//72
f 81//81 82//82 71//71
f 71//71 82//82 75//74
f 70//70 76//75 78//78
f 80//80 72//76 62//67
f 79//79 84//83 73//72
f 81//81 73//72 84//83
f 83//84 80//80 74//73
f 85//85 74//73 75//74
f 85//85 75//74 82//82
f 78//78 76//75 86//86
f 79//79 78//78 84//83
f 87//87 72//76 80//80
f 83//84 74//73 85//85
f 88//88 85//85 82//82
f 89//89 78//78 86//86
f 83//84 87//87 80//80
f 77//77 72//76 91//90
f 91//90 72//76 87//87
f 89//89 84//83 78//78
f 83//84 85//85 92//91
f 90//92 81//81 84//83
f 93//93 90//92 84//83
f 88//88 92//91 85//85
f 94//94 77//77 91//90
f 86//86 76//75 95//95
f 96//96 91//90 87//87
f 92//91 87//87 83//84
f 81//81 90//92 97//97
f 81//81 97//97 82//82
f 76//75 77//77 95//95
f 98//98 94//94 91//90
f 95//95 77//77 94//94
f 89//89 86//86 99//99
f 89//89 93//93 84//83
f 100//100 93//93 89//89
f 92//91 96//96 87//87
f 101//101 97//97 90//92
f 102//102 86//86 95//95
f 98//98 91//90 96//96
f 100//100 89//89 99//99
f 98//98 96//96 103//103
f 93//93 101//101 90//92
f 97//97 88//88 82//82
f 95//95 94//94 105//104
f 102//102 99//99 86//86
f 106//105 96//96 92//91
f 92//91 88//88 106//105
f 102//102 108//106 99//99
f 106//105 103//103 96//96
f 104//107 106//105 88//88
f 101//101 93//93 100//100
f 107//108 101//101 100//100
f 97//97 104//107 88//88
f 94//94 110//109 105//104
f 95//95 111//110 102//102
f 98//98 103//103 110//109
f 94//94 98//98 110//109
f 99//99 107//108 100//100
f 112//111 107//108 99//99
f 106//105 109//112 103//103
f 104//107 97//97 113//113
f 114//114 95//95 105//104
f 112//111 99//99 108//106
f 109//112 106//105 104//107
f 97//97 101//101 115//115
f 97//97 115//115 113//113
f 111//110 95//95 114//114
f 102//102 111//110 108//106
f 116//116 105//104 110//109
f 117//117 110//109 103//103
f 117//117 103//103 109//112
f 107//108 115//115 101//101
f 116//116 110//109 117//117
f 108//106 119//118 112//111
f 107//108 112//111 118//119
f 118//119 115//115 107//108
f 121//120 117//117 109//112
f 118//119 122//121 115//115
f 122//121 113//113 115//115
f 105//104 116//116 123//122
f 116//116 120//123 123//122
f 114//114 105//104 123//122
f 120//123 116//116 117//117
f 118//119 112//111 119//118
f 121//120 109//112 124//124
f 109//112 104//107 124//124
f 121//120 120//123 117//117
f 108//106 125//125 119//118
f 121//120 124//124 126//126
f 113//113 150//127 104//107
f 127//128 124//124 104//107
f 121//120 126//126 120//123
f 118//119 119//118 125//125
f 129//129 113//113 122//121
f 127//128 104//107 150//127
f 130//130 123//122 120//123
f 108//106 111//110 125//125
f 128//131 124//124 127//128
f 124//124 128//131 126//126
f 125//125 122//121 118//119
f 131//132 111//110 114//114
f 132//133 120//123 126//126
f 120//123 132//133 130//130
f 133//134 122//121 125//125
f 134//135 123//122 130//130
f 123//122 134//135 114//114
f 135//136 111//110 131//132
f 125//125 111//110 135//136
f 135//136 136//137 125//125
f 136//137 133//134 125//125
f 134//135 130//130 137//138
f 134//135 131//132 114//114
f 134//135 138//139 131//132
f 134//135 137//138 138//139
f 135//136 138//139 139//140
f 138//139 135//136 131//132
f 140//141 139//140 138//139
f 139//140 136//137 135//136
f 142//142 132//133 126//126
f 126//126 128//131 142//142
f 136//137 141//143 133//134
f 129//129 122//121 133//134
f 144//144 129//129 133//134
f 113//113 143//145 150//127
f 113//113 129//129 143//145
f 130//130 145//146 137//138
f 138//139 137//138 140//141
f 132//133 142//142 145//146
f 145//146 130//130 132//133
f 147//147 137//138 145//146
f 145//146 142//142 146//148
f 147//147 140//141 137//138
f 140//141 141//143 139//140
f 147//147 148//149 140//141
f 128//131 146//148 142//142
f 148//149 141//143 140//141
f 149//150 144//144 148//149
f 139//140 141//143 136//137
f 141//143 144//144 133//134
f 141//143 148//149 144//144
f 144//144 143//145 129//129
f 149//150 143//145 144//144
f 151//151 150//127 143//145
f 149//150 151//151 143//145
f 150//127 152//152 128//131
f 127//128 150//127 128//131
f 147//147 145//146 146//148
f 146//148 153//153 147//147
f 152//152 146//148 128//131
f 146//148 152//152 153//153
f 148//149 147//147 153//153
f 153//153 151//151 149//150
f 149//150 148//149 153//153
f 151//151 152//152 150//127
f 151//151 153//153 152//152
