# Blender v2.78 (sub 0) OBJ File: 'exporter.blend'
# www.blender.org
o FJ2278.obj_grp1.1015
v -0.228259 -0.381711 6.394273
v -0.225389 -0.373050 6.396878
v -0.224534 -0.379362 6.399101
v -0.228222 -0.391855 6.389818
v -0.227006 -0.378991 6.391128
v -0.225075 -0.392066 6.391074
v -0.229193 -0.390605 6.386709
v -0.228360 -0.392053 6.384266
v -0.226792 -0.391039 6.383071
v -0.225222 -0.382137 6.387839
v -0.223534 -0.394653 6.380558
v -0.219558 -0.427642 6.369796
v -0.220547 -0.424349 6.368876
v -0.223265 -0.370623 6.401580
v -0.220387 -0.369634 6.404841
v -0.221674 -0.381151 6.397555
v -0.222948 -0.391677 6.390479
v -0.221974 -0.377510 6.391696
v -0.221156 -0.388703 6.389138
v -0.221959 -0.384658 6.388160
v -0.223534 -0.394653 6.380558
v -0.220708 -0.395005 6.382109
v -0.215268 -0.418451 6.376172
v -0.215512 -0.428352 6.371273
v -0.218927 -0.424030 6.365225
v -0.221200 -0.433121 6.360534
v -0.220822 -0.436032 6.363235
v -0.219521 -0.427321 6.370090
v -0.221294 -0.435179 6.362860
v -0.220822 -0.436032 6.363235
v -0.217393 -0.437694 6.364127
v -0.217393 -0.437694 6.364127
v -0.220822 -0.436032 6.363235
v -0.216896 -0.438004 6.363752
v -0.216896 -0.438004 6.363752
v -0.220507 -0.436284 6.363302
v -0.213976 -0.433917 6.358212
v -0.221306 -0.435174 6.362855
v -0.220103 -0.432132 6.359123
v -0.221166 -0.433129 6.360559
v -0.220128 -0.432180 6.359245
v -0.215168 -0.368547 6.406747
v -0.217760 -0.363411 6.405767
v -0.216251 -0.361782 6.403230
v -0.214174 -0.370368 6.403108
v -0.219935 -0.380184 6.394920
v -0.217858 -0.373642 6.396494
v -0.216491 -0.365183 6.399790
v -0.219826 -0.397137 6.384324
v -0.212889 -0.426272 6.363547
v -0.216519 -0.419749 6.366864
v -0.217815 -0.431413 6.357977
v -0.216896 -0.438004 6.363752
v -0.213628 -0.436663 6.361387
v -0.214523 -0.437286 6.363107
v -0.216896 -0.438004 6.363752
v -0.217777 -0.431227 6.357783
v -0.213523 -0.436920 6.361269
v -0.215903 -0.432152 6.357639
v -0.217815 -0.431413 6.357977
v -0.208018 -0.356324 6.412121
v -0.211750 -0.366720 6.403054
v -0.212879 -0.418796 6.371349
v -0.212009 -0.427757 6.368495
v -0.212687 -0.434200 6.361271
v -0.214048 -0.433760 6.358096
v -0.192349 -0.348319 6.419310
v -0.207813 -0.354233 6.410191
v -0.199406 -0.348403 6.411100
v -0.210616 -0.362656 6.402437
v -0.192822 -0.346259 6.412040
v -0.189122 -0.342506 6.420821
v -0.204371 -0.360709 6.410135
v -0.204371 -0.360709 6.410135
v -0.189600 -0.349707 6.418068
v -0.186292 -0.342252 6.423586
v -0.183938 -0.339225 6.418891
v -0.179988 -0.335891 6.425488
v -0.190640 -0.347581 6.412341
v -0.185353 -0.345960 6.422200
v -0.181858 -0.343706 6.418231
v -0.185390 -0.347562 6.418663
v -0.183108 -0.342179 6.425769
v -0.180417 -0.336299 6.428207
v -0.173999 -0.339446 6.427465
v -0.179163 -0.339751 6.420427
v -0.178930 -0.336966 6.432473
v -0.178019 -0.338809 6.433125
v -0.182475 -0.339658 6.427176
v -0.175539 -0.332194 6.436547
v -0.179392 -0.342456 6.427129
v -0.176753 -0.335270 6.426172
v -0.177697 -0.341011 6.430087
v -0.179392 -0.342456 6.427129
v -0.172884 -0.335312 6.430070
v -0.179064 -0.286773 6.497424
v -0.178469 -0.264256 6.507860
v -0.177803 -0.267361 6.509551
v -0.176263 -0.263897 6.505917
v -0.177090 -0.295024 6.490135
v -0.177915 -0.309995 6.483520
v -0.177974 -0.300563 6.492232
v -0.175720 -0.313024 6.484474
v -0.176636 -0.308518 6.481340
v -0.174958 -0.298089 6.488158
v -0.176991 -0.316844 6.475460
v -0.175809 -0.319897 6.477185
v -0.175128 -0.313362 6.476067
v -0.176024 -0.327799 6.462844
v -0.175206 -0.321443 6.466760
v -0.174892 -0.329553 6.463201
v -0.175509 -0.326335 6.459650
v -0.172896 -0.321750 6.465213
v -0.174503 -0.328546 6.451313
v -0.175388 -0.337903 6.438625
v -0.176376 -0.332925 6.444135
v -0.172341 -0.330821 6.441281
v -0.174209 -0.340090 6.430923
v -0.177670 -0.256287 6.516075
v -0.176415 -0.255159 6.520364
v -0.174712 -0.246010 6.536019
v -0.176648 -0.260854 6.514452
v -0.174130 -0.255899 6.520364
v -0.176415 -0.255159 6.520364
v -0.177020 -0.254806 6.514968
v -0.175653 -0.249129 6.522413
v -0.174217 -0.253952 6.514494
v -0.174650 -0.260989 6.514778
v -0.174578 -0.269243 6.508538
v -0.174103 -0.261807 6.508024
v -0.175501 -0.301473 6.493024
v -0.173704 -0.300744 6.492354
v -0.172877 -0.300038 6.489110
v -0.172767 -0.316122 6.481414
v -0.171736 -0.311252 6.483003
v -0.172693 -0.312700 6.477310
v -0.171889 -0.309927 6.481821
v -0.173189 -0.324451 6.472520
v -0.170417 -0.326729 6.466656
v -0.171314 -0.323839 6.462750
v -0.172226 -0.332740 6.457792
v -0.170387 -0.333041 6.454007
v -0.170274 -0.333162 6.439436
v -0.169551 -0.334221 6.445134
v -0.169997 -0.325321 6.462799
v -0.172146 -0.245488 6.553796
v -0.174034 -0.247811 6.540082
v -0.172696 -0.247690 6.546663
v -0.174919 -0.251493 6.528345
v -0.174919 -0.251493 6.528345
v -0.171917 -0.251955 6.526286
v -0.172862 -0.246501 6.528774
v -0.171942 -0.247580 6.526464
v -0.172493 -0.255560 6.518345
v -0.173286 -0.261896 6.512073
v -0.172493 -0.255560 6.518345
v -0.173113 -0.260849 6.510474
v -0.171802 -0.251414 6.522336
v -0.171802 -0.251414 6.522336
v -0.174650 -0.260989 6.514778
v -0.173499 -0.280979 6.500200
v -0.172828 -0.300085 6.489051
v -0.158436 -0.245208 6.622007
v -0.170500 -0.243397 6.552714
v -0.170764 -0.248396 6.546410
v -0.171039 -0.244152 6.540980
v -0.174034 -0.247811 6.540082
v -0.171080 -0.248790 6.538119
v -0.168264 -0.246249 6.549190
v -0.170520 -0.248266 6.532524
v -0.172008 -0.251827 6.526186
v -0.170520 -0.248266 6.532524
v -0.158328 -0.244443 6.608903
v -0.167827 -0.248092 6.561415
v -0.157869 -0.247133 6.624635
v -0.158547 -0.248255 6.613153
v -0.155579 -0.247538 6.621282
v -0.155520 -0.244445 6.648148
v -0.155402 -0.242105 6.652224
v -0.155694 -0.243748 6.631833
v -0.154753 -0.246912 6.635543
v -0.153521 -0.244376 6.634309
v -0.156011 -0.233908 6.690082
v -0.155682 -0.234217 6.690890
v -0.154611 -0.233287 6.691240
v -0.155670 -0.234257 6.690804
v -0.155234 -0.232747 6.689963
v -0.154216 -0.234822 6.690958
v -0.154107 -0.232641 6.690220
v -0.153887 -0.234216 6.690785
v -0.154026 -0.241275 6.667234
v -0.152486 -0.242152 6.660262
v -0.152683 -0.240017 6.660159
v -0.152616 -0.244452 6.646393
v -0.153614 -0.233264 6.690498
v -0.153658 -0.234051 6.690876
v -0.153223 -0.233786 6.688935
v -0.153614 -0.233264 6.690498
vn -0.3730 -0.3994 0.8375
vn -0.9446 0.0338 0.3264
vn -0.7314 -0.4024 0.5505
vn 0.0101 -0.5214 0.8533
vn -0.9893 0.0178 -0.1449
vn -0.6791 0.5410 -0.4962
vn -0.8128 0.5602 -0.1595
vn -0.8533 0.1368 -0.5032
vn -0.4537 0.4197 -0.7861
vn -0.0412 0.5479 -0.8355
vn -0.1685 0.4416 -0.8813
vn -0.7949 -0.3765 0.4758
vn -0.9836 -0.1079 -0.1445
vn -0.5677 -0.0837 0.8190
vn -0.8596 0.2965 0.4162
vn 0.4946 -0.5765 0.6504
vn 0.6177 -0.3747 0.6914
vn 0.5621 0.3390 -0.7544
vn 0.7610 0.3088 -0.5705
vn 0.4464 0.5091 -0.7359
vn 0.7777 0.4410 -0.4481
vn 0.6207 -0.2850 0.7304
vn 0.1591 -0.5590 0.8138
vn -0.6777 0.4622 -0.5719
vn -0.9612 0.2367 -0.1420
vn -0.8390 -0.2539 0.4813
vn -0.4376 -0.5124 0.7389
vn -0.2111 -0.5730 0.7919
vn -0.4584 -0.8795 0.1279
vn -0.4584 -0.8795 0.1278
vn -0.2527 -0.7113 -0.6559
vn -0.2616 -0.6398 -0.7227
vn -0.2293 -0.6903 -0.6862
vn -0.8272 -0.3655 -0.4268
vn -0.7261 0.4800 -0.4923
vn -0.5666 -0.5669 -0.5980
vn -0.2750 -0.6638 -0.6955
vn -0.2915 -0.5875 -0.7549
vn -0.7670 0.4814 0.4241
vn -0.5330 0.7759 -0.3374
vn 0.0387 -0.5412 0.8400
vn 0.6582 -0.7029 0.2698
vn 0.9217 -0.3831 0.0603
vn 0.7566 0.0134 -0.6537
vn -0.0240 0.5523 -0.8333
vn 0.9832 -0.1024 0.1513
vn 0.9728 0.1485 0.1780
vn 0.7568 0.3714 -0.5379
vn 0.1789 0.4968 -0.8492
vn -0.2688 0.4701 -0.8407
vn -0.5427 0.5091 -0.6680
vn 0.3089 -0.6108 0.7290
vn 0.8526 -0.5206 -0.0456
vn 0.5488 -0.7617 0.3444
vn 0.2258 -0.9476 -0.2258
vn -0.1911 -0.6766 -0.7111
vn -0.3054 -0.6121 -0.7295
vn -0.3098 -0.4130 -0.8564
vn -0.5842 0.2084 0.7844
vn 0.8132 -0.4448 -0.3753
vn 0.9756 0.2176 0.0302
vn 0.9419 -0.1930 0.2750
vn 0.3847 0.5418 -0.7473
vn 0.9647 -0.2126 -0.1555
vn 0.7515 0.1610 -0.6398
vn -0.1846 -0.3870 0.9034
vn -0.6522 0.7386 0.1708
vn 0.5151 0.0113 -0.8570
vn -0.3616 0.8265 -0.4314
vn 0.1032 0.5888 -0.8016
vn -0.6348 0.3497 0.6890
vn 0.3223 -0.7565 0.5690
vn 0.4875 -0.8250 0.2858
vn 0.2020 -0.7891 0.5800
vn -0.6621 0.0336 0.7487
vn -0.3763 0.9105 -0.1716
vn 0.5096 0.0208 -0.8602
vn -0.0275 0.7956 -0.6052
vn -0.0062 -0.7782 0.6279
vn 0.7086 -0.2989 -0.6392
vn 0.5849 -0.8089 0.0593
vn -0.3780 -0.5550 0.7410
vn -0.7561 0.5938 0.2753
vn 0.8659 -0.3215 -0.3831
vn 0.6221 0.2831 -0.7299
vn -0.8936 0.0268 0.4481
vn -0.6947 -0.5451 0.4694
vn -0.8164 0.2881 0.5004
vn -0.4671 0.8705 -0.1551
vn -0.2817 -0.7597 0.5861
vn 0.5287 -0.8309 0.1733
vn -0.0652 -0.9084 0.4129
vn 0.2805 0.8178 -0.5026
vn -0.2599 -0.6345 0.7279
vn 0.8128 0.4358 -0.3866
vn -0.1648 0.5443 -0.8225
vn -0.4498 0.3900 -0.8034
vn -0.9354 0.2435 -0.2562
vn -0.9881 -0.1518 0.0264
vn -0.7700 -0.3591 0.5274
vn -0.6144 -0.3724 0.6955
vn -0.9999 0.0041 -0.0144
vn -0.3579 -0.6108 0.7063
vn 0.0332 -0.5191 0.8541
vn -0.7507 0.3954 -0.5292
vn 0.3588 0.5108 -0.7812
vn -0.9643 0.1281 -0.2318
vn -0.5937 -0.6336 0.4960
vn -0.2893 0.6681 -0.6855
vn -0.9628 -0.2657 0.0492
vn -0.4095 0.7160 -0.5654
vn -0.8306 0.5144 -0.2135
vn -0.0508 0.8242 -0.5640
vn -0.5164 0.8100 -0.2778
vn 0.1213 -0.9288 0.3501
vn -0.5025 -0.7676 0.3979
vn -0.4044 -0.8476 0.3435
vn -0.9936 0.0967 0.0588
vn 0.3039 0.9005 -0.3110
vn -0.9954 -0.0119 0.0954
vn -0.7746 -0.5025 0.3840
vn -0.8501 0.5259 0.0266
vn -0.5349 0.7848 -0.3131
vn -0.4224 -0.5306 0.7348
vn 0.2283 -0.8072 0.5444
vn -0.2508 -0.7837 0.5683
vn -0.7140 0.5627 -0.4166
vn 0.3114 0.7209 -0.6191
vn 0.3824 -0.4678 0.7968
vn 0.7052 -0.3122 0.6365
vn 0.5567 0.5021 -0.6618
vn 0.6678 0.4409 -0.5997
vn 0.4959 -0.6069 0.6211
vn 0.9784 -0.1267 0.1634
vn 0.6193 0.5764 -0.5331
vn 0.9393 0.2254 -0.2588
vn 0.1024 -0.8120 0.5747
vn 0.7931 -0.5057 0.3395
vn 0.5538 0.7230 -0.4129
vn 0.9170 0.2884 -0.2756
vn 0.9222 -0.3832 0.0522
vn 0.9548 0.2865 -0.0795
vn 0.7177 -0.6640 0.2096
vn -0.9737 0.1311 0.1862
vn -0.9806 -0.1310 0.1460
vn -0.5714 -0.8056 0.1566
vn -0.8588 -0.4207 0.2924
vn -0.0593 -0.9362 0.3463
vn 0.1487 -0.9117 0.3831
vn -0.0121 0.9759 -0.2179
vn 0.6310 -0.6659 0.3979
vn 0.6533 0.6515 -0.3857
vn 0.8986 -0.3318 0.2870
vn -0.1275 -0.6782 0.7237
vn 0.9785 -0.2000 0.0507
vn 0.9677 0.1241 -0.2193
vn 0.9586 -0.2813 0.0440
vn 0.8676 0.3675 -0.3349
vn 0.6442 -0.5541 0.5273
vn 0.8694 -0.2505 0.4259
vn 0.5505 -0.3674 0.7496
vn -0.1816 0.9822 0.0472
vn 0.2823 0.9473 -0.1513
vn -0.2823 -0.9582 0.0462
vn 0.5592 -0.8141 0.1564
vn -0.8960 -0.3998 0.1934
vn 0.8871 -0.4605 0.0311
vn 0.9873 -0.0264 -0.1570
vn 0.9343 -0.3552 0.0317
vn 0.9198 0.3569 -0.1634
vn -0.8898 0.4218 0.1743
vn 0.6837 -0.7130 -0.1555
vn -0.7766 -0.5994 0.1940
vn -0.0913 -0.9955 0.0266
vn 0.7693 -0.6352 -0.0687
vn 0.2719 0.9607 -0.0557
vn -0.7221 -0.6512 0.2337
vn 0.0572 0.9960 -0.0692
vn -0.8514 0.5208 -0.0622
vn 0.2201 -0.9723 0.0786
vn 0.9301 0.3482 -0.1170
vn -0.5397 -0.0936 0.8366
vn -0.0453 0.3931 0.9184
vn -0.9651 0.1495 0.2152
vn -0.5095 0.8534 0.1099
vn -0.4660 -0.8375 0.2853
vn 0.2350 -0.6284 0.7415
vn 0.3558 0.9169 0.1808
vn 0.2691 -0.0534 0.9616
vn -0.0338 -0.9730 0.2283
vn 0.8100 -0.5825 0.0671
vn 0.6636 0.7371 -0.1275
vn 0.8770 -0.4789 0.0382
vn 0.7200 0.4940 0.4875
vn 0.9039 -0.3804 0.1956
vn 0.9873 0.1574 -0.0190
vn 0.9728 0.0428 0.2276
s 1
f 3//1 1//2 4//3
f 4//3 6//4 3//1
f 1//2 7//5 4//3
f 1//2 5//6 7//5
f 2//7 5//6 1//2
f 7//5 5//6 8//8
f 8//8 5//6 9//9
f 5//6 10//10 9//9
f 10//10 11//11 9//9
f 12//12 4//3 7//5
f 7//5 8//8 13//13
f 7//5 13//13 12//12
f 15//14 14//15 3//1
f 16//16 3//1 6//4
f 3//1 14//15 1//2
f 2//7 1//2 14//15
f 16//16 6//4 17//17
f 18//18 20//19 10//10
f 20//19 21//20 10//10
f 21//20 20//19 22//21
f 17//17 6//4 23//22
f 24//23 4//3 12//12
f 8//8 25//24 13//13
f 8//8 9//9 25//24
f 13//13 26//25 12//12
f 25//24 26//25 13//13
f 27//26 28//26 29//26
f 12//12 30//27 31//28
f 24//23 12//12 31//28
f 32//29 33//30 34//29
f 35//31 36//32 37//33
f 12//12 26//25 38//34
f 25//24 39//35 26//25
f 36//36 38//34 26//25
f 36//32 40//37 41//38
f 43//39 14//15 15//14
f 14//15 43//39 2//7
f 43//39 44//40 2//7
f 42//41 3//1 16//16
f 45//42 42//41 16//16
f 44//40 5//6 2//7
f 45//42 16//16 46//43
f 47//44 18//18 48//45
f 20//19 18//18 47//44
f 10//10 5//6 48//45
f 10//10 48//45 18//18
f 16//16 17//17 46//43
f 46//43 17//17 19//46
f 46//43 19//46 20//19
f 19//46 22//21 20//19
f 19//46 17//17 49//47
f 19//46 49//47 22//21
f 22//21 50//48 21//20
f 4//3 24//23 6//4
f 23//22 6//4 24//23
f 21//20 50//48 51//49
f 51//50 9//9 11//11
f 25//24 9//9 51//50
f 52//51 25//24 51//50
f 53//52 24//23 31//28
f 54//53 55//54 56//55
f 52//51 39//35 25//24
f 35//31 37//33 58//56
f 36//32 41//38 59//57
f 59//57 41//38 60//58
f 15//14 42//41 61//59
f 15//14 61//59 43//39
f 3//1 42//41 15//14
f 48//45 5//6 44//40
f 62//60 46//43 47//44
f 45//42 46//43 62//60
f 47//44 46//43 20//19
f 17//17 23//22 49//47
f 22//21 63//61 50//48
f 22//21 49//47 63//61
f 23//22 64//62 63//61
f 49//47 23//22 63//61
f 64//62 24//23 55//54
f 24//23 64//62 23//22
f 55//54 24//23 53//52
f 50//48 57//63 51//49
f 64//62 65//64 50//48
f 66//65 57//63 50//48
f 64//62 55//54 54//53
f 64//62 54//53 65//64
f 54//53 66//65 65//64
f 50//48 65//64 66//65
f 37//33 36//32 59//57
f 42//41 67//66 61//59
f 68//67 44//40 43//39
f 62//60 47//44 70//68
f 63//61 64//62 50//48
f 68//67 43//39 61//59
f 69//69 44//40 68//67
f 69//69 48//45 44//40
f 70//68 48//45 71//70
f 47//44 48//45 70//68
f 61//59 67//66 72//71
f 73//72 42//41 45//42
f 71//70 48//45 69//69
f 72//71 68//67 61//59
f 67//66 42//41 73//72
f 45//42 62//60 74//73
f 75//74 67//66 73//72
f 72//71 67//66 76//75
f 68//67 72//71 78//76
f 78//76 69//69 68//67
f 70//68 71//70 79//77
f 69//69 78//76 77//78
f 75//74 80//79 67//66
f 77//78 71//70 69//69
f 70//68 79//77 62//60
f 81//80 62//60 79//77
f 74//73 62//60 82//81
f 75//74 74//73 82//81
f 83//82 76//75 67//66
f 83//82 67//66 80//79
f 72//71 76//75 84//83
f 75//74 82//81 80//79
f 82//81 62//60 81//80
f 85//84 82//81 81//80
f 79//77 86//85 81//80
f 86//85 71//70 77//78
f 79//77 71//70 86//85
f 76//75 83//82 87//86
f 83//82 88//87 87//86
f 84//83 76//75 89//88
f 84//83 90//89 78//76
f 91//90 83//82 80//79
f 88//87 83//82 91//90
f 84//83 78//76 72//71
f 118//91 80//79 82//81
f 87//86 90//89 84//83
f 87//86 84//83 89//88
f 93//92 88//87 91//90
f 78//76 90//89 92//93
f 118//91 94//94 80//79
f 118//91 82//81 85//84
f 94//94 118//91 93//92
f 95//95 86//85 92//93
f 78//76 92//93 77//78
f 86//85 77//78 92//93
f 99//96 100//97 97//98
f 101//99 97//98 100//97
f 102//100 98//101 96//102
f 97//98 101//99 96//102
f 96//102 101//99 102//100
f 101//99 103//103 102//100
f 131//104 102//100 103//103
f 101//99 100//97 104//105
f 104//105 100//97 105//106
f 104//105 106//107 101//99
f 103//103 101//99 107//108
f 106//107 104//105 108//109
f 101//99 106//107 107//108
f 109//110 107//108 106//107
f 106//107 108//109 110//111
f 106//107 110//111 112//112
f 106//107 112//112 109//110
f 113//113 112//112 110//111
f 113//113 114//114 112//112
f 141//115 111//116 115//117
f 116//118 109//110 112//112
f 116//118 112//112 114//114
f 116//118 111//116 109//110
f 115//117 111//116 116//118
f 116//118 114//114 90//89
f 114//114 117//119 90//89
f 115//117 116//118 88//87
f 116//118 87//86 88//87
f 116//118 90//89 87//86
f 118//91 115//117 93//92
f 115//117 88//87 93//92
f 117//119 95//95 92//93
f 81//80 86//85 85//84
f 86//85 95//95 85//84
f 119//120 120//121 121//122
f 121//122 126//123 119//120
f 120//121 119//120 122//124
f 123//125 124//126 122//124
f 119//120 125//127 97//98
f 119//120 126//123 125//127
f 126//123 127//128 125//127
f 122//124 119//120 98//101
f 127//128 99//96 125//127
f 98//101 119//120 97//98
f 125//127 99//96 97//98
f 98//101 129//129 122//124
f 98//101 97//98 96//102
f 129//129 98//101 131//104
f 131//104 98//101 102//100
f 132//130 129//129 131//104
f 105//106 100//97 99//96
f 130//131 105//106 99//96
f 133//132 105//106 130//131
f 132//130 131//104 134//133
f 103//103 134//133 131//104
f 135//134 132//130 134//133
f 105//106 108//109 104//105
f 136//135 108//109 105//106
f 133//132 136//135 105//106
f 137//136 136//135 133//132
f 134//133 103//103 107//108
f 134//133 107//108 138//137
f 139//138 134//133 138//137
f 111//116 107//108 109//110
f 138//137 107//108 111//116
f 110//111 108//109 113//113
f 136//135 113//113 108//109
f 136//135 140//139 113//113
f 141//115 138//137 111//116
f 138//137 141//115 139//138
f 140//139 114//114 113//113
f 117//119 114//114 140//139
f 140//139 143//140 117//119
f 144//141 143//140 145//142
f 142//143 141//115 118//91
f 118//91 144//141 142//143
f 141//115 115//117 118//91
f 92//93 90//89 117//119
f 144//141 118//91 85//84
f 144//141 85//84 143//140
f 143//140 95//95 117//119
f 143//140 85//84 95//95
f 146//144 147//145 148//146
f 146//144 121//122 147//145
f 147//145 121//122 149//147
f 148//146 150//148 151//149
f 152//150 126//123 121//122
f 121//122 120//121 149//147
f 150//148 123//125 151//149
f 123//125 154//151 151//149
f 152//150 153//152 126//123
f 123//125 150//148 124//126
f 155//153 154//151 123//125
f 153//152 127//128 126//123
f 123//125 122//124 128//154
f 156//155 155//153 157//156
f 158//157 156//155 157//156
f 153//152 159//158 127//128
f 127//128 159//158 157//156
f 155//153 123//125 160//159
f 127//128 157//156 130//131
f 128//154 122//124 129//129
f 129//129 155//153 160//159
f 127//128 130//131 99//96
f 129//129 161//160 155//153
f 155//153 161//160 157//156
f 132//130 161//160 129//129
f 130//131 157//156 133//132
f 133//132 157//156 161//160
f 135//134 133//132 161//160
f 132//130 135//134 161//160
f 162//161 133//132 135//134
f 162//161 135//134 137//136
f 137//136 135//134 136//135
f 139//138 135//134 134//133
f 135//134 140//139 136//135
f 135//134 139//138 145//142
f 140//139 135//134 145//142
f 142//143 139//138 141//115
f 139//138 144//141 145//142
f 139//138 142//143 144//141
f 140//139 145//142 143//140
f 164//162 121//122 146//144
f 166//163 121//122 164//162
f 165//164 148//146 168//165
f 148//146 167//166 150//148
f 168//165 170//167 169//168
f 121//122 166//163 152//150
f 153//152 152//150 166//163
f 151//149 168//165 148//146
f 171//169 170//167 168//165
f 171//169 158//157 170//167
f 153//152 172//170 159//158
f 156//155 158//157 171//169
f 164//162 146//144 163//171
f 169//168 153//152 166//163
f 165//164 168//165 174//172
f 168//165 169//168 174//172
f 153//152 169//168 172//170
f 175//173 163//171 146//144
f 175//173 146//144 148//146
f 176//174 148//146 165//164
f 177//175 176//174 174//172
f 164//162 173//176 166//163
f 176//174 175//173 148//146
f 173//176 164//162 163//171
f 169//168 166//163 173//176
f 169//168 177//175 174//172
f 178//177 163//171 175//173
f 173//176 163//171 180//178
f 180//178 163//171 179//179
f 178//177 175//173 181//180
f 178//177 179//179 163//171
f 176//174 181//180 175//173
f 177//175 181//180 176//174
f 180//178 182//181 173//176
f 177//175 169//168 182//181
f 173//176 182//181 169//168
f 184//182 185//183 183//184
f 185//183 187//185 183//184
f 184//182 186//186 188//187
f 189//188 187//185 185//183
f 190//189 184//182 188//187
f 184//182 190//189 185//183
f 183//184 179//179 178//177
f 179//179 183//184 187//185
f 183//184 178//177 186//186
f 188//187 186//186 191//190
f 188//187 191//190 192//191
f 186//186 178//177 191//190
f 187//185 189//188 179//179
f 193//192 179//179 189//188
f 192//191 194//193 193//192
f 194//193 182//181 193//192
f 192//191 191//190 181//180
f 181//180 194//193 192//191
f 180//178 179//179 193//192
f 191//190 178//177 181//180
f 181//180 177//175 194//193
f 182//181 180//178 193//192
f 194//193 177//175 182//181
f 189//188 185//183 195//194
f 195//194 185//183 190//189
f 196//195 197//196 198//197
f 189//188 195//194 197//196
f 192//191 196//195 188//187
f 196//195 192//191 197//196
f 197//196 193//192 189//188
f 197//196 192//191 193//192
