# Blender v2.78 (sub 0) OBJ File: 'exporter.blend'
# www.blender.org
o FJ2202.obj_grp1.939
v -0.482418 -0.322588 3.696714
v -0.486081 -0.324348 3.702907
v -0.486036 -0.325697 3.704202
v -0.481017 -0.323486 3.695111
v -0.484386 -0.322888 3.702997
v -0.482139 -0.325284 3.699597
v -0.484776 -0.322759 3.704978
v -0.486293 -0.322165 3.705327
v -0.487534 -0.323856 3.705841
v -0.487407 -0.322741 3.705696
v -0.485853 -0.323238 3.703551
v -0.485409 -0.324634 3.706529
v -0.483311 -0.324643 3.703884
v -0.482630 -0.323509 3.702424
v -0.486423 -0.322204 3.706236
v -0.485898 -0.322082 3.705848
v -0.485898 -0.322082 3.705848
v -0.485898 -0.322082 3.705848
v -0.485348 -0.322581 3.706626
v -0.485898 -0.322082 3.705848
v -0.486645 -0.323954 3.707016
v -0.480167 -0.320947 3.696574
v -0.478256 -0.322818 3.693143
v -0.480225 -0.321054 3.696696
v -0.478936 -0.321628 3.696496
v -0.478936 -0.321628 3.696496
v -0.483201 -0.325717 3.702758
v -0.453164 -0.302636 3.653239
v -0.447968 -0.297186 3.643067
v -0.477986 -0.322617 3.692822
v -0.461380 -0.305399 3.662404
v -0.473852 -0.316152 3.686614
v -0.472053 -0.315725 3.685033
v -0.462029 -0.305082 3.665778
v -0.455758 -0.304752 3.658445
v -0.457976 -0.305897 3.663336
v -0.452990 -0.300414 3.655946
v -0.452594 -0.298242 3.650340
v -0.447997 -0.296135 3.647587
v -0.439023 -0.295187 3.632830
v -0.450453 -0.301232 3.651216
v -0.442154 -0.296471 3.641033
v -0.439404 -0.292706 3.632366
v -0.440520 -0.292343 3.637153
v -0.444518 -0.297858 3.641583
v -0.444518 -0.297858 3.641583
v -0.435646 -0.292964 3.633781
v -0.433593 -0.290938 3.629600
v -0.433688 -0.291247 3.626596
v -0.436440 -0.295240 3.631875
v -0.439031 -0.295173 3.632907
v -0.436394 -0.295179 3.631776
v -0.440404 -0.292526 3.637010
v -0.431028 -0.292975 3.622835
v -0.431081 -0.294150 3.623795
v -0.431081 -0.294150 3.623795
v -0.430794 -0.294599 3.626230
v -0.429656 -0.291305 3.626457
v -0.424221 -0.292364 3.616619
v -0.426975 -0.290858 3.620845
v -0.426319 -0.293570 3.623475
v -0.412785 -0.297960 3.607102
v -0.419792 -0.296218 3.616143
v -0.412744 -0.295016 3.611706
v -0.419725 -0.296475 3.614275
v -0.411856 -0.295985 3.606831
v -0.415414 -0.293371 3.611698
v -0.412286 -0.297379 3.611648
v -0.393733 -0.301312 3.598520
v -0.404884 -0.299240 3.606880
v -0.401344 -0.302401 3.603368
v -0.394481 -0.305926 3.597443
v -0.398518 -0.301859 3.597565
v -0.401866 -0.300466 3.604866
v -0.400256 -0.299072 3.600402
v -0.384756 -0.305886 3.594980
v -0.389537 -0.303800 3.593804
v -0.382210 -0.309287 3.589392
v -0.392513 -0.304564 3.599209
v -0.379875 -0.313278 3.588858
v -0.379722 -0.314247 3.590442
v -0.380870 -0.307851 3.590945
v -0.380565 -0.310316 3.593760
v -0.381072 -0.312180 3.593162
v -0.383434 -0.310385 3.594270
v -0.371541 -0.319496 3.586147
v -0.374064 -0.312722 3.589426
v -0.373282 -0.320243 3.588567
v -0.374800 -0.317463 3.591252
v -0.379607 -0.314414 3.590374
v -0.374008 -0.313858 3.587614
v -0.368580 -0.325764 3.586755
v -0.367016 -0.320281 3.588939
v -0.367766 -0.320159 3.586819
v -0.371552 -0.317410 3.591121
v -0.370636 -0.322853 3.590203
v -0.360718 -0.334881 3.586456
v -0.361424 -0.329577 3.589815
v -0.363876 -0.335137 3.589766
v -0.363863 -0.329356 3.591017
v -0.355873 -0.352492 3.589188
v -0.361155 -0.331406 3.586882
v -0.364311 -0.332866 3.590577
v -0.355410 -0.342430 3.589691
v -0.352002 -0.353561 3.593793
v -0.347548 -0.368412 3.591254
v -0.355256 -0.358107 3.591449
v -0.355256 -0.358107 3.591449
v -0.347305 -0.369689 3.596425
v -0.344622 -0.372835 3.593161
v -0.346008 -0.379485 3.591543
v -0.345058 -0.388103 3.594361
v -0.347933 -0.377322 3.596246
v -0.347010 -0.376889 3.597001
v -0.338593 -0.404379 3.592601
v -0.335837 -0.398135 3.596504
v -0.340205 -0.387773 3.592271
v -0.340205 -0.387773 3.592271
v -0.336832 -0.404362 3.591495
v -0.331976 -0.410080 3.591660
v -0.335345 -0.406627 3.597302
v -0.339610 -0.401196 3.596396
v -0.311101 -0.482528 3.589522
v -0.332764 -0.404715 3.593811
v -0.317722 -0.458969 3.593519
v -0.309158 -0.476797 3.593155
v -0.306311 -0.476633 3.591632
v -0.309621 -0.471739 3.586890
v -0.311479 -0.461625 3.589287
v -0.310557 -0.476723 3.586421
v -0.308027 -0.489936 3.591594
v -0.301345 -0.507500 3.587615
v -0.302716 -0.493019 3.586422
v -0.308027 -0.489936 3.591594
v -0.304709 -0.496046 3.592899
v -0.302159 -0.488050 3.588176
v -0.301542 -0.510969 3.589734
v -0.301260 -0.496992 3.593341
v -0.301260 -0.496992 3.593341
v -0.301893 -0.509884 3.592463
v -0.296667 -0.512160 3.587824
v -0.296503 -0.506393 3.588592
v -0.294997 -0.508511 3.591649
v -0.301893 -0.509884 3.592463
v -0.293046 -0.543091 3.596647
v -0.297643 -0.502579 3.592465
v -0.304670 -0.496293 3.592961
v -0.297183 -0.512161 3.595186
v -0.298820 -0.512517 3.595017
v -0.291957 -0.534795 3.592115
v -0.293580 -0.536488 3.599293
v -0.296177 -0.531329 3.595641
v -0.292614 -0.527682 3.598346
v -0.290214 -0.525279 3.592717
v -0.288425 -0.538541 3.593974
v -0.289732 -0.551283 3.597776
v -0.289153 -0.545579 3.603423
v -0.292358 -0.547818 3.600718
v -0.289322 -0.557786 3.606833
v -0.285360 -0.544887 3.598131
v -0.285777 -0.543706 3.600693
v -0.285756 -0.558292 3.600311
v -0.286070 -0.568844 3.605774
v -0.284162 -0.558055 3.608257
v -0.289632 -0.562114 3.606921
v -0.287358 -0.571619 3.608834
v -0.286823 -0.561742 3.610346
v -0.282208 -0.561325 3.603997
v -0.281834 -0.561002 3.607069
v -0.281841 -0.575038 3.609819
v -0.283332 -0.570874 3.616416
v -0.286259 -0.583073 3.619406
v -0.284907 -0.584587 3.616987
v -0.285350 -0.584100 3.622398
v -0.283175 -0.581456 3.623650
v -0.280055 -0.581961 3.623302
v -0.284594 -0.586548 3.620014
v -0.281993 -0.586486 3.617527
v -0.281232 -0.586949 3.619693
v -0.283323 -0.585416 3.622993
v -0.280699 -0.586508 3.621551
v -0.281785 -0.583775 3.623955
v -0.278406 -0.582455 3.618283
v -0.279320 -0.585637 3.618717
v -0.278391 -0.583454 3.621603
vn -0.8479 0.3154 -0.4261
vn -0.4187 -0.9078 -0.0237
vn -0.8144 -0.0555 -0.5776
vn -0.5185 -0.6383 -0.5691
vn -0.1307 0.9908 -0.0361
vn 0.1369 -0.9727 -0.1874
vn 0.5064 -0.8336 0.2206
vn -0.9419 -0.2912 0.1676
vn -0.8511 0.5235 0.0390
vn -0.3930 0.6996 -0.5967
vn -0.1783 0.9178 -0.3547
vn 0.3048 0.9442 -0.1249
vn 0.8403 -0.1971 0.5050
vn 0.3359 -0.5471 0.7667
vn 0.6558 0.5787 0.4848
vn -0.3138 0.8061 0.5017
vn 0.2700 0.8979 -0.3476
vn -0.2187 0.9757 0.0109
vn 0.5766 0.8090 0.1147
vn 0.4869 0.4645 0.7397
vn 0.1391 0.8746 0.4645
vn -0.3386 -0.2957 0.8933
vn 0.3903 0.7285 0.5630
vn 0.6150 0.5513 0.5638
vn 0.8693 -0.3881 0.3060
vn -0.1286 -0.8469 -0.5159
vn -0.5605 0.8273 0.0376
vn 0.1251 -0.9223 -0.3658
vn -0.7610 -0.0899 -0.6425
vn 0.7774 -0.6243 0.0766
vn -0.8603 0.1203 -0.4954
vn 0.7325 0.2836 0.6189
vn 0.4936 0.6162 0.6137
vn -0.3863 0.9021 0.1925
vn 0.5993 -0.7974 0.0697
vn 0.8703 -0.2817 0.4041
vn 0.5230 0.5730 0.6310
vn 0.0664 0.9038 0.4228
vn -0.6863 0.7062 -0.1737
vn -0.6904 -0.2284 -0.6864
vn 0.3599 -0.9195 -0.1582
vn 0.6249 -0.7324 0.2703
vn -0.7100 0.4736 -0.5212
vn -0.5636 0.8056 -0.1825
vn 0.4194 -0.9076 -0.0209
vn 0.5926 -0.7879 0.1674
vn 0.7656 0.0789 0.6384
vn -0.4951 0.7536 -0.4324
vn 0.2783 -0.9605 -0.0062
vn -0.1616 -0.9165 -0.3661
vn -0.1226 -0.9514 -0.2826
vn 0.4410 0.7024 0.5587
vn 0.1227 0.9613 0.2467
vn -0.6617 -0.0381 -0.7488
vn -0.2151 -0.9705 -0.1090
vn 0.0979 -0.9927 0.0706
vn 0.5789 0.6533 0.4879
vn -0.4615 0.5143 -0.7228
vn -0.6300 -0.4693 -0.6188
vn -0.0684 0.9757 -0.2083
vn 0.6527 -0.2713 0.7074
vn -0.6212 -0.3735 -0.6889
vn 0.1469 0.9762 -0.1597
vn 0.0218 -0.9574 0.2878
vn 0.6189 0.4858 0.6172
vn -0.2854 -0.9506 -0.1217
vn -0.3382 0.5663 -0.7516
vn 0.5244 -0.2072 0.8259
vn 0.4459 0.8930 0.0618
vn 0.1559 -0.7354 0.6595
vn 0.5525 -0.0741 0.8302
vn -0.3824 -0.9235 -0.0293
vn -0.4657 0.0654 -0.8825
vn 0.4458 -0.2229 0.8670
vn 0.0328 0.8732 -0.4863
vn 0.5728 0.6841 0.4516
vn 0.0820 0.7728 -0.6293
vn -0.1683 0.2947 -0.9407
vn 0.4761 -0.1437 0.8676
vn -0.0610 -0.7762 0.6275
vn -0.5303 -0.4346 -0.7279
vn -0.6796 -0.7192 -0.1445
vn 0.4139 0.8403 -0.3501
vn 0.2323 -0.2068 0.9504
vn -0.1534 -0.6089 0.7783
vn 0.1626 -0.4591 0.8734
vn 0.6535 0.7561 0.0357
vn -0.7075 -0.6786 0.1977
vn -0.3364 -0.5542 0.7614
vn -0.6204 -0.7277 0.2926
vn 0.3124 0.5257 -0.7913
vn -0.1265 -0.0118 -0.9919
vn -0.5767 -0.4071 -0.7083
vn 0.7966 0.5677 0.2077
vn 0.5693 0.4314 -0.6999
vn 0.3438 0.1435 0.9280
vn -0.5641 -0.3886 0.7286
vn 0.2259 -0.0357 -0.9735
vn -0.9082 -0.3822 0.1708
vn 0.8044 0.4422 0.3967
vn 0.1518 0.1635 0.9748
vn -0.5494 -0.3239 0.7702
vn -0.4166 -0.2711 -0.8677
vn 0.6817 0.3457 -0.6448
vn 0.9235 0.3178 -0.2149
vn 0.6741 0.3339 0.6589
vn 0.5188 0.1149 -0.8471
vn -0.7825 -0.3406 -0.5213
vn -0.9380 -0.3429 -0.0505
vn 0.3947 0.2204 0.8920
vn 0.9369 0.3191 -0.1430
vn -0.3044 -0.1917 -0.9330
vn -0.9324 -0.3546 -0.0693
vn -0.7742 -0.2557 0.5790
vn -0.2206 -0.0485 0.9742
vn -0.6602 -0.2252 -0.7165
vn 0.7098 0.2354 0.6639
vn 0.7552 0.2805 -0.5924
vn 0.3076 0.1213 -0.9438
vn 0.4423 0.2243 -0.8684
vn -0.1936 -0.0713 -0.9785
vn -0.0036 -0.0680 0.9977
vn -0.7023 -0.2794 0.6547
vn -0.9419 -0.3032 -0.1446
vn 0.9265 0.3404 -0.1604
vn -0.5455 -0.2327 0.8051
vn 0.8086 0.2621 0.5267
vn 0.2287 0.0693 0.9710
vn 0.4121 0.1845 -0.8923
vn 0.8815 0.3409 -0.3267
vn -0.3538 -0.0982 -0.9301
vn -0.8808 -0.2911 0.3733
vn -0.4465 -0.2331 -0.8639
vn 0.2523 0.0432 -0.9667
vn -0.6576 -0.2479 0.7114
vn -0.3596 -0.0824 0.9295
vn 0.8474 0.2877 -0.4463
vn -0.8721 -0.3427 -0.3492
vn 0.4402 0.1888 0.8779
vn -0.1146 0.0106 0.9934
vn -0.7178 -0.1212 0.6856
vn 0.3195 -0.0682 -0.9451
vn 0.9551 0.2915 0.0525
vn 0.7841 0.1745 -0.5957
vn -0.9566 -0.2876 0.0469
vn -0.8251 -0.3441 -0.4480
vn 0.6797 0.2828 0.6768
vn -0.0657 0.2281 0.9714
vn 0.0759 0.1898 0.9789
vn -0.3994 0.0365 0.9160
vn -0.1132 -0.2685 -0.9566
vn -0.6921 0.0436 0.7205
vn 0.8214 0.3379 0.4595
vn -0.9609 -0.2144 0.1755
vn 0.0588 0.2159 0.9746
vn 0.9102 0.1510 -0.3857
vn 0.5606 -0.1224 -0.8190
vn -0.3755 -0.3933 -0.8392
vn 0.0451 0.3330 0.9418
vn -0.9771 -0.1403 0.1598
vn -0.7550 0.1216 0.6444
vn 0.9282 0.0715 -0.3650
vn 0.2298 -0.3683 -0.9008
vn 0.4455 0.4280 0.7863
vn -0.9620 -0.0690 0.2643
vn -0.7767 -0.4227 -0.4669
vn -0.2680 -0.4954 -0.8263
vn -0.4544 0.3851 0.8033
vn 0.8558 -0.1114 -0.5051
vn 0.9454 0.2524 0.2064
vn 0.4664 -0.4486 -0.7623
vn 0.2879 0.5379 0.7923
vn -0.9669 -0.2520 0.0399
vn -0.6079 -0.5907 -0.5305
vn -0.2595 0.3076 0.9155
vn -0.7835 -0.2266 0.5786
vn 0.5299 0.2137 0.8207
vn 0.0983 -0.8167 -0.5687
vn -0.5531 -0.8312 0.0564
vn 0.3818 -0.8171 0.4320
vn -0.2419 -0.6042 0.7592
vn 0.2156 -0.9752 -0.0495
vn 0.1285 -0.2441 0.9612
vn 0.9654 -0.1079 -0.2372
vn 0.7307 -0.6211 -0.2834
vn 0.9017 -0.1351 0.4108
s 1
f 1//1 3//2 2//3
f 4//4 3//2 1//1
f 1//1 2//3 5//5
f 3//2 4//4 6//6
f 27//7 3//2 6//6
f 9//8 10//9 2//3
f 11//10 10//9 8//11
f 2//3 10//9 11//10
f 2//3 3//2 9//8
f 7//12 11//10 8//11
f 2//3 11//10 5//5
f 5//5 11//10 7//12
f 13//13 12//14 27//7
f 7//12 14//15 5//5
f 15//16 8//11 10//9
f 7//12 8//11 16//17
f 17//18 8//11 15//16
f 7//12 18//19 19//20
f 19//20 20//21 15//16
f 9//8 21//22 10//9
f 15//16 10//9 21//22
f 3//2 21//22 9//8
f 27//7 12//14 3//2
f 12//14 21//22 3//2
f 15//16 21//22 19//20
f 19//20 21//22 12//14
f 19//20 14//15 7//12
f 14//15 19//20 13//13
f 13//13 19//20 12//14
f 25//23 24//24 14//15
f 26//25 14//15 13//13
f 4//4 23//26 6//6
f 13//13 27//7 26//25
f 22//27 1//1 5//5
f 24//24 22//27 5//5
f 5//5 14//15 24//24
f 28//28 23//26 29//29
f 23//26 28//28 30//30
f 31//31 4//4 1//1
f 31//31 29//29 4//4
f 29//29 23//26 4//4
f 30//30 33//32 27//7
f 33//32 26//25 27//7
f 33//32 32//33 25//23
f 27//7 6//6 30//30
f 32//33 24//24 25//23
f 22//27 32//33 34//34
f 31//31 1//1 34//34
f 34//34 1//1 22//27
f 35//35 30//30 28//28
f 35//35 36//36 30//30
f 36//36 33//32 30//30
f 37//37 33//32 36//36
f 39//38 34//34 37//37
f 31//31 34//34 38//39
f 37//37 34//34 32//33
f 33//32 37//37 32//33
f 38//39 29//29 31//31
f 39//38 38//39 34//34
f 40//40 28//28 29//29
f 35//35 28//28 41//41
f 42//42 36//36 35//35
f 42//42 41//41 28//28
f 42//42 37//37 36//36
f 43//43 40//40 29//29
f 44//44 43//43 38//39
f 29//29 38//39 43//43
f 44//44 38//39 39//38
f 42//42 28//28 45//45
f 40//40 46//46 28//28
f 37//37 47//47 39//38
f 49//48 43//43 44//44
f 50//49 42//42 45//45
f 50//49 45//45 51//50
f 52//51 50//49 51//50
f 53//52 39//38 47//47
f 47//47 48//53 53//52
f 47//47 37//37 42//42
f 43//43 54//54 40//40
f 56//55 57//56 51//50
f 49//48 44//44 48//53
f 57//56 52//51 51//50
f 47//47 58//57 48//53
f 50//49 47//47 42//42
f 49//48 59//58 54//54
f 40//40 54//54 55//59
f 43//43 49//48 54//54
f 60//60 49//48 48//53
f 60//60 48//53 58//57
f 57//56 61//61 50//49
f 61//61 47//47 50//49
f 59//58 62//62 54//54
f 60//60 59//58 49//48
f 60//60 58//57 67//63
f 63//64 61//61 57//56
f 61//61 64//65 58//57
f 61//61 58//57 47//47
f 65//66 54//54 62//62
f 58//57 64//65 67//63
f 57//56 56//55 65//66
f 55//59 54//54 65//66
f 65//66 63//64 57//56
f 67//63 66//67 59//58
f 67//63 59//58 60//60
f 62//62 59//58 66//67
f 68//68 61//61 63//64
f 64//65 69//69 67//63
f 71//70 63//64 65//66
f 68//68 70//71 64//65
f 64//65 61//61 68//68
f 72//72 71//70 65//66
f 62//62 72//72 65//66
f 71//70 68//68 63//64
f 62//62 66//67 73//73
f 74//74 64//65 70//71
f 75//75 66//67 67//63
f 74//74 76//76 64//65
f 68//68 71//70 70//71
f 66//67 75//75 73//73
f 73//73 75//75 77//77
f 73//73 72//72 62//62
f 77//77 78//78 73//73
f 69//69 75//75 67//63
f 76//76 74//74 79//79
f 71//70 79//80 70//71
f 64//65 76//76 69//69
f 80//81 73//73 78//78
f 77//77 75//75 69//69
f 77//77 69//69 76//76
f 80//81 72//72 73//73
f 72//72 80//81 81//82
f 82//83 77//77 76//76
f 79//80 71//70 72//72
f 83//84 76//76 79//79
f 84//85 79//80 72//72
f 84//85 72//72 81//82
f 82//83 78//78 77//77
f 83//84 79//79 85//86
f 82//83 76//76 87//87
f 81//82 80//81 88//88
f 88//88 89//89 90//90
f 83//84 85//86 84//85
f 84//85 81//82 90//90
f 89//89 84//85 90//90
f 78//78 82//83 91//91
f 80//81 78//78 86//92
f 86//92 92//93 80//81
f 78//78 91//91 86//92
f 92//93 88//88 80//81
f 91//91 82//83 87//87
f 93//94 87//87 76//76
f 84//85 89//89 83//84
f 91//91 87//87 94//95
f 91//91 94//95 86//92
f 93//94 94//95 87//87
f 76//76 83//84 95//96
f 95//96 83//84 89//89
f 93//94 76//76 95//96
f 95//96 89//89 96//97
f 88//88 96//97 89//89
f 86//92 94//95 97//98
f 88//88 99//99 96//97
f 88//88 92//93 99//99
f 93//94 95//96 98//100
f 100//101 98//100 95//96
f 96//97 99//99 103//102
f 95//96 96//97 103//102
f 97//98 92//93 86//92
f 97//98 101//103 92//93
f 94//95 102//104 97//98
f 93//94 98//100 102//104
f 94//95 93//94 102//104
f 92//93 101//103 99//99
f 100//101 95//96 103//102
f 102//104 98//100 104//105
f 98//100 100//101 105//106
f 97//98 102//104 104//105
f 97//98 106//107 101//103
f 101//103 107//108 99//99
f 99//99 108//109 103//102
f 105//106 100//101 109//110
f 104//105 106//107 97//98
f 106//107 104//105 110//111
f 111//112 107//108 101//103
f 98//100 105//106 104//105
f 112//113 113//114 103//102
f 112//113 103//102 108//109
f 106//107 111//112 101//103
f 100//101 103//102 114//115
f 103//102 113//114 114//115
f 109//110 100//101 114//115
f 107//108 111//112 112//113
f 115//116 112//113 111//112
f 105//106 116//117 104//105
f 116//117 105//106 109//110
f 110//111 104//105 116//117
f 106//107 110//111 117//118
f 106//107 118//119 111//112
f 118//119 120//120 111//112
f 115//116 111//112 119//121
f 121//122 109//110 114//115
f 113//114 122//123 114//115
f 114//115 122//123 121//122
f 122//123 113//114 112//113
f 111//112 120//120 119//121
f 121//122 116//117 109//110
f 123//124 122//123 112//113
f 110//111 116//117 124//125
f 117//118 110//111 124//125
f 125//126 122//123 123//124
f 122//123 125//126 121//122
f 124//125 116//117 127//127
f 124//125 120//120 117//118
f 121//122 125//126 126//128
f 126//128 116//117 121//122
f 127//127 116//117 126//128
f 120//120 128//129 119//121
f 129//130 120//120 124//125
f 128//129 130//131 119//121
f 115//116 123//124 112//113
f 119//121 130//131 115//116
f 129//130 124//125 127//127
f 120//120 129//130 128//129
f 130//131 123//124 115//116
f 131//132 125//126 123//124
f 130//131 132//133 123//124
f 130//131 128//129 133//134
f 125//126 134//135 135//136
f 126//128 125//126 135//136
f 130//131 133//134 132//133
f 129//130 136//137 128//129
f 128//129 136//137 133//134
f 132//133 137//138 123//124
f 127//127 126//128 138//139
f 126//128 135//136 139//140
f 135//136 134//135 140//141
f 133//134 141//142 132//133
f 136//137 129//130 143//143
f 129//130 127//127 143//143
f 136//137 142//144 133//134
f 137//138 144//145 123//124
f 137//138 145//146 144//145
f 146//147 127//127 138//139
f 135//136 147//148 139//140
f 139//140 147//148 148//149
f 123//124 144//145 131//132
f 135//136 140//141 149//150
f 142//144 141//142 133//134
f 141//142 150//151 132//133
f 137//138 132//133 145//146
f 146//147 138//139 148//149
f 143//143 127//127 146//147
f 147//148 149//150 148//149
f 149//150 140//141 151//152
f 136//137 143//143 142//144
f 146//147 161//153 143//143
f 145//146 152//154 144//145
f 152//154 151//152 140//141
f 148//149 149//150 153//155
f 149//150 151//152 153//155
f 154//156 141//142 142//144
f 142//144 143//143 154//156
f 141//142 155//157 150//151
f 155//157 141//142 154//156
f 153//155 161//153 146//147
f 150//151 145//146 132//133
f 150//151 156//158 145//146
f 153//155 146//147 148//149
f 153//155 151//152 157//159
f 151//152 152//154 158//160
f 145//146 158//160 152//154
f 159//161 157//159 151//152
f 158//160 159//161 151//152
f 161//153 154//156 143//143
f 154//156 161//153 160//162
f 154//156 160//162 155//157
f 156//158 150//151 162//163
f 155//157 162//163 150//151
f 153//155 157//159 161//153
f 164//164 161//153 157//159
f 158//160 165//165 159//161
f 158//160 145//146 165//165
f 156//158 166//166 145//146
f 145//146 166//166 165//165
f 156//158 163//167 166//166
f 157//159 159//161 167//168
f 160//162 168//169 155//157
f 162//163 155//157 168//169
f 160//162 161//153 169//170
f 162//163 163//167 156//158
f 168//169 170//171 162//163
f 170//171 163//167 162//163
f 157//159 167//168 164//164
f 164//164 167//168 171//172
f 159//161 165//165 167//168
f 165//165 166//166 172//173
f 166//166 173//174 172//173
f 175//175 165//165 174//176
f 168//169 160//162 169//170
f 161//153 164//164 169//170
f 164//164 171//172 169//170
f 163//167 173//174 166//166
f 171//172 175//175 176//177
f 175//175 171//172 167//168
f 173//174 163//167 178//178
f 178//178 177//179 173//174
f 167//168 165//165 175//175
f 165//165 172//173 174//176
f 174//176 172//173 177//179
f 173//174 177//179 172//173
f 177//179 181//180 180//181
f 177//179 178//178 179//182
f 179//182 181//180 177//179
f 174//176 180//181 182//183
f 175//175 174//176 182//183
f 174//176 177//179 180//181
f 169//170 171//172 176//177
f 170//171 168//169 183//184
f 183//184 168//169 169//170
f 183//184 184//185 170//171
f 163//167 170//171 178//178
f 170//171 184//185 178//178
f 178//178 184//185 179//182
f 181//180 179//182 184//185
f 176//177 175//175 182//183
f 181//180 182//183 180//181
f 181//180 185//186 182//183
f 185//186 176//177 182//183
f 169//170 185//186 183//184
f 169//170 176//177 185//186
f 183//184 185//186 184//185
f 184//185 185//186 181//180
