# Blender v2.78 (sub 0) OBJ File: 'exporter.blend'
# www.blender.org
o FJ2230.obj_grp1.967
v 0.526977 -0.467479 6.195989
v 0.527916 -0.468061 6.198204
v 0.527030 -0.466053 6.194156
v 0.527665 -0.464281 6.193269
v 0.526175 -0.464536 6.200073
v 0.528678 -0.466715 6.201076
v 0.528939 -0.464196 6.202328
v 0.525338 -0.463746 6.197492
v 0.525524 -0.462067 6.196627
v 0.528160 -0.462055 6.193487
v 0.526030 -0.461825 6.199994
v 0.528693 -0.460954 6.201821
v 0.527487 -0.459513 6.199316
v 0.527714 -0.459787 6.196078
v 0.546993 -0.475809 6.188646
v 0.546393 -0.476927 6.191577
v 0.554820 -0.478959 6.193480
v 0.560754 -0.477295 6.193659
v 0.532207 -0.462609 6.201913
v 0.557050 -0.473581 6.194533
v 0.542461 -0.470609 6.188557
v 0.548045 -0.469731 6.187902
v 0.530521 -0.460037 6.201007
v 0.558657 -0.472060 6.192442
v 0.531233 -0.459922 6.195062
v 0.531008 -0.459098 6.199057
v 0.531292 -0.459236 6.196907
v 0.553644 -0.470186 6.188347
v 0.557131 -0.470682 6.189871
v 0.555492 -0.479136 6.186513
v 0.558935 -0.481390 6.188607
v 0.568830 -0.479384 6.181758
v 0.571806 -0.483376 6.187678
v 0.561431 -0.474762 6.184292
v 0.564579 -0.473457 6.185748
v 0.583245 -0.484019 6.178849
v 0.578387 -0.482323 6.187764
v 0.577159 -0.475305 6.184626
v 0.570729 -0.483597 6.185297
v 0.579149 -0.476601 6.186925
v 0.579492 -0.480330 6.188041
v 0.577228 -0.476432 6.180723
v 0.588336 -0.485188 6.180044
v 0.597551 -0.476795 6.178765
v 0.588031 -0.484122 6.183024
v 0.586391 -0.479112 6.176128
v 0.591513 -0.476651 6.177141
v 0.631202 -0.484369 6.163057
v 0.629520 -0.484334 6.166286
v 0.612164 -0.482933 6.167365
v 0.626190 -0.481462 6.161840
v 0.621005 -0.481346 6.172114
v 0.628527 -0.477727 6.162200
v 0.624468 -0.479418 6.162481
v 0.634150 -0.477058 6.164618
v 0.637111 -0.482676 6.166266
v 0.633460 -0.476879 6.162753
v 0.643271 -0.480752 6.165049
v 0.645153 -0.478985 6.163503
v 0.647692 -0.485950 6.160316
v 0.660570 -0.485884 6.155637
v 0.651395 -0.485038 6.162177
v 0.644720 -0.481843 6.157140
v 0.649577 -0.479716 6.157229
v 0.658545 -0.483915 6.162073
v 0.662771 -0.480220 6.159137
v 0.680169 -0.487462 6.158506
v 0.668732 -0.484079 6.153939
v 0.674478 -0.487720 6.156382
v 0.669462 -0.482144 6.160263
v 0.679179 -0.483326 6.160118
v 0.685692 -0.482426 6.154168
v 0.680031 -0.481252 6.155696
v 0.685637 -0.484862 6.160072
v 0.683935 -0.486782 6.154627
v 0.680745 -0.481338 6.158127
v 0.691340 -0.481486 6.159348
v 0.691340 -0.481486 6.159348
v 0.694887 -0.480263 6.156446
v 0.698898 -0.482887 6.154295
v 0.697218 -0.486271 6.157740
v 0.701526 -0.485308 6.156407
v 0.699513 -0.484302 6.154827
v 0.708115 -0.482838 6.161383
v 0.704590 -0.481432 6.161207
v 0.715951 -0.478204 6.157586
v 0.725455 -0.480185 6.164113
v 0.704428 -0.479768 6.160428
v 0.721314 -0.481477 6.160686
v 0.715070 -0.481621 6.157444
v 0.705846 -0.478717 6.159301
v 0.719980 -0.475794 6.161890
v 0.715960 -0.478785 6.163310
v 0.725529 -0.477011 6.166220
v 0.725418 -0.478787 6.165733
v 0.726083 -0.478685 6.160601
v 0.732966 -0.475060 6.163503
v 0.728130 -0.474245 6.165704
v 0.735420 -0.472670 6.169678
v 0.741201 -0.471000 6.170851
v 0.739118 -0.475460 6.167041
v 0.735064 -0.476293 6.170295
v 0.743494 -0.475680 6.172990
v 0.734836 -0.473315 6.165351
v 0.737987 -0.473044 6.172203
v 0.741935 -0.474598 6.174901
v 0.745506 -0.471431 6.178408
v 0.746343 -0.471893 6.172464
v 0.747217 -0.470647 6.174149
v 0.747032 -0.469792 6.178126
v 0.750154 -0.472256 6.182826
v 0.750081 -0.472678 6.176085
v 0.756869 -0.468655 6.189923
v 0.759642 -0.470273 6.186991
v 0.757662 -0.471224 6.189716
v 0.756583 -0.470012 6.189972
v 0.759238 -0.471534 6.188360
v 0.758161 -0.467526 6.187952
v 0.759444 -0.468301 6.187447
v 0.757467 -0.467768 6.189145
v 0.759397 -0.469002 6.189119
vn -0.7449 -0.6382 -0.1945
vn -0.5479 -0.7924 0.2682
vn -0.8161 -0.2558 0.5181
vn -0.3406 -0.5862 0.7351
vn -0.2457 -0.1572 0.9565
vn -0.7061 -0.3553 -0.6125
vn -0.9918 -0.1278 -0.0036
vn -0.9131 0.3199 -0.2529
vn -0.5610 0.0515 -0.8262
vn -0.3776 0.4521 -0.8081
vn -0.8335 0.2961 0.4664
vn -0.2791 0.4400 0.8535
vn -0.4624 0.8538 0.2391
vn -0.4414 0.8222 -0.3595
vn -0.4216 -0.6088 -0.6720
vn -0.3970 -0.9158 -0.0608
vn -0.1004 -0.7720 0.6276
vn 0.2213 -0.2540 0.9415
vn 0.2706 0.2458 0.9308
vn 0.4176 0.3402 0.8425
vn -0.2942 -0.0513 -0.9544
vn 0.1590 0.7361 0.6579
vn 0.3857 0.7946 0.4689
vn 0.0599 0.8321 -0.5514
vn 0.0114 0.4922 -0.8704
vn 0.2052 0.9545 0.2162
vn 0.1408 0.9717 -0.1897
vn 0.2030 0.8605 -0.4674
vn 0.3118 0.9490 -0.0474
vn -0.3570 -0.6541 -0.6668
vn -0.2364 -0.9709 -0.0374
vn -0.2811 -0.0569 -0.9580
vn 0.0099 -0.8941 0.4477
vn -0.1172 0.5363 -0.8358
vn 0.0653 0.8335 -0.5486
vn -0.2472 -0.7720 -0.5855
vn 0.2395 -0.5569 0.7953
vn 0.1878 0.9822 -0.0029
vn -0.2223 -0.9567 -0.1878
vn 0.3310 -0.0326 0.9431
vn 0.2930 0.7054 0.6454
vn -0.1251 0.7546 -0.6442
vn -0.0097 -0.9997 0.0209
vn 0.2166 -0.7701 0.6000
vn -0.2327 0.5742 -0.7850
vn 0.2023 0.8660 0.4574
vn -0.0880 0.9249 -0.3699
vn -0.1203 -0.9518 -0.2823
vn 0.1369 -0.9246 0.3554
vn -0.2686 -0.5864 -0.7642
vn -0.2631 -0.2821 -0.9226
vn 0.3399 -0.2510 0.9063
vn -0.1716 0.6853 -0.7078
vn -0.2826 0.2791 -0.9177
vn 0.0386 0.9567 -0.2886
vn 0.2408 0.1760 0.9545
vn 0.1420 0.9489 0.2819
vn 0.1744 -0.4936 0.8520
vn 0.2425 0.6727 0.6991
vn -0.0661 -0.9968 -0.0453
vn -0.1306 -0.6696 -0.7311
vn 0.0820 -0.7755 0.6260
vn -0.1994 -0.0685 -0.9775
vn -0.0213 0.7083 -0.7056
vn 0.1445 -0.1482 0.9783
vn 0.1352 0.9748 0.1772
vn 0.0662 -0.9158 0.3961
vn -0.0474 -0.0118 -0.9988
vn -0.0217 -0.9634 -0.2674
vn 0.1062 0.6006 0.7925
vn 0.0544 0.4686 0.8817
vn -0.0011 0.4605 -0.8877
vn 0.0064 0.9561 -0.2930
vn 0.0144 -0.2170 0.9761
vn 0.0661 -0.7340 -0.6759
vn -0.0129 0.9015 0.4326
vn -0.0871 0.3745 0.9231
vn -0.0729 0.8937 0.4428
vn -0.0940 0.9691 -0.2279
vn 0.0774 0.0682 -0.9947
vn 0.1460 -0.9818 0.1213
vn 0.2337 -0.8757 -0.4226
vn 0.1598 -0.5150 -0.8422
vn -0.0597 -0.4733 0.8789
vn -0.0907 0.1670 0.9818
vn 0.1320 0.4997 -0.8561
vn 0.0560 -0.8793 0.4730
vn -0.1972 0.5635 0.8022
vn 0.3130 -0.8976 -0.3102
vn 0.2942 -0.4793 -0.8269
vn -0.2320 0.8175 0.5271
vn -0.2645 0.9609 0.0816
vn -0.2524 0.3559 0.8998
vn -0.2045 -0.4956 0.8441
vn 0.4208 -0.3246 -0.8471
vn -0.3516 0.1437 0.9251
vn -0.4117 0.6589 0.6296
vn 0.3504 0.2817 -0.8932
vn -0.4391 0.7733 0.4575
vn 0.0203 0.9560 -0.2926
vn 0.5790 -0.3620 -0.7306
vn -0.2849 -0.4715 0.8346
vn 0.2000 0.7531 -0.6268
vn 0.2243 -0.9737 0.0401
vn -0.6005 0.1951 0.7754
vn -0.4057 -0.6267 0.6654
vn -0.5893 0.6025 0.5383
vn 0.5753 0.2373 -0.7828
vn 0.3921 0.7417 -0.5442
vn -0.4078 0.8836 0.2301
vn -0.5431 -0.5060 0.6701
vn 0.7357 -0.3579 -0.5750
vn -0.2391 0.3601 0.9018
vn 0.0994 -0.5840 0.8056
vn -0.3705 -0.1257 0.9203
vn 0.6806 -0.6863 0.2565
vn 0.2675 0.9595 0.0883
vn 0.8050 0.5648 -0.1818
vn -0.0166 0.8429 0.5379
vn 0.9306 -0.1711 -0.3236
vn 0.7422 0.2911 0.6037
s 1
f 1//1 2//2 5//3
f 6//4 5//3 2//2
f 6//4 7//5 5//3
f 3//6 1//1 8//7
f 3//6 9//8 4//9
f 3//6 8//7 9//8
f 4//9 9//8 10//10
f 1//1 5//3 8//7
f 8//7 5//3 11//11
f 8//7 11//11 9//8
f 11//11 5//3 7//5
f 12//12 13//13 11//11
f 11//11 7//5 12//12
f 9//8 11//11 13//13
f 14//14 10//10 9//8
f 13//13 14//14 9//8
f 15//15 1//1 3//6
f 15//15 16//16 1//1
f 2//2 1//1 16//16
f 17//17 7//5 6//4
f 18//18 19//19 7//5
f 18//18 20//20 19//19
f 3//6 4//9 21//21
f 10//10 21//21 4//9
f 12//12 7//5 19//19
f 12//12 19//19 23//22
f 20//20 23//22 19//19
f 20//20 24//23 23//22
f 25//24 10//10 14//14
f 25//24 22//25 10//10
f 26//26 27//27 13//13
f 13//13 27//27 14//14
f 25//24 14//14 27//27
f 23//22 13//13 12//12
f 13//13 23//22 26//26
f 23//22 24//23 26//26
f 21//21 15//15 3//6
f 21//21 10//10 22//25
f 16//16 17//17 2//2
f 17//17 6//4 2//2
f 17//17 18//18 7//5
f 28//28 22//25 25//24
f 25//24 27//27 29//29
f 26//26 24//23 29//29
f 26//26 29//29 27//27
f 15//15 30//30 16//16
f 29//29 28//28 25//24
f 16//16 31//31 17//17
f 32//32 30//30 21//21
f 16//16 30//30 31//31
f 30//30 15//15 21//21
f 17//17 31//31 33//33
f 34//34 32//32 21//21
f 22//25 34//34 21//21
f 28//28 29//29 35//35
f 30//30 36//36 31//31
f 17//17 37//37 18//18
f 35//35 22//25 28//28
f 35//35 34//34 22//25
f 38//38 29//29 24//23
f 39//39 33//33 31//31
f 17//17 33//33 37//37
f 39//39 31//31 36//36
f 18//18 37//37 41//40
f 20//20 40//41 24//23
f 41//40 20//20 18//18
f 38//38 35//35 29//29
f 41//40 40//41 20//20
f 35//35 42//42 34//34
f 40//41 38//38 24//23
f 36//36 43//43 39//39
f 43//43 33//33 39//39
f 42//42 32//32 34//34
f 45//44 33//33 43//43
f 45//44 37//37 33//33
f 42//42 35//35 38//38
f 36//36 30//30 32//32
f 32//32 42//42 46//45
f 40//41 44//46 38//38
f 46//45 42//42 47//47
f 47//47 42//42 38//38
f 48//48 43//43 36//36
f 49//49 45//44 43//43
f 50//50 32//32 51//51
f 40//41 41//40 52//52
f 41//40 37//37 52//52
f 36//36 32//32 50//50
f 47//47 38//38 44//46
f 43//43 48//48 49//49
f 52//52 37//37 45//44
f 51//51 32//32 46//45
f 52//52 44//46 40//41
f 48//48 36//36 50//50
f 47//47 53//53 46//45
f 54//54 46//45 53//53
f 52//52 45//44 49//49
f 57//55 47//47 44//46
f 58//56 44//46 52//52
f 51//51 46//45 54//54
f 57//55 44//46 55//57
f 53//53 47//47 57//55
f 56//58 58//56 52//52
f 44//46 59//59 55//57
f 59//59 44//46 58//56
f 48//48 60//60 49//49
f 49//49 56//58 52//52
f 61//61 50//50 51//51
f 60//60 62//62 49//49
f 63//63 51//51 54//54
f 61//61 51//51 63//63
f 54//54 53//53 63//63
f 63//63 53//53 64//64
f 53//53 57//55 64//64
f 48//48 50//50 61//61
f 56//58 49//49 62//62
f 56//58 62//62 65//65
f 60//60 48//48 61//61
f 58//56 56//58 65//65
f 59//59 66//66 55//57
f 60//60 67//67 62//62
f 61//61 63//63 68//68
f 66//66 57//55 55//57
f 61//61 69//69 60//60
f 64//64 68//68 63//63
f 69//69 67//67 60//60
f 65//65 70//70 58//56
f 59//59 58//56 70//70
f 64//64 57//55 66//66
f 71//71 70//70 65//65
f 72//72 68//68 64//64
f 66//66 73//73 64//64
f 66//66 59//59 70//70
f 74//74 65//65 62//62
f 67//67 74//74 62//62
f 75//75 61//61 68//68
f 75//75 69//69 61//61
f 74//74 71//71 65//65
f 72//72 64//64 73//73
f 73//73 66//66 76//76
f 76//76 66//66 70//70
f 75//75 67//67 69//69
f 76//76 70//70 71//71
f 77//77 71//71 74//74
f 76//76 71//71 78//78
f 78//78 79//79 76//76
f 80//80 75//75 68//68
f 81//81 67//67 75//75
f 72//72 80//80 68//68
f 81//81 75//75 82//82
f 73//73 76//76 79//79
f 72//72 73//73 79//79
f 80//80 83//83 75//75
f 84//84 67//67 81//81
f 83//83 82//82 75//75
f 74//74 84//84 85//85
f 79//79 86//86 72//72
f 67//67 84//84 74//74
f 84//84 81//81 87//87
f 88//88 77//77 74//74
f 88//88 74//74 85//85
f 72//72 86//86 80//80
f 81//81 89//89 87//87
f 82//82 89//89 81//81
f 90//90 82//82 83//83
f 80//80 90//90 83//83
f 91//91 79//79 78//78
f 86//86 79//79 92//92
f 91//91 78//78 88//88
f 91//91 88//88 92//92
f 82//82 90//90 89//89
f 80//80 86//86 90//90
f 93//93 88//88 85//85
f 93//93 92//92 88//88
f 85//85 84//84 93//93
f 79//79 91//91 92//92
f 84//84 87//87 95//94
f 95//94 93//93 84//84
f 90//90 86//86 96//95
f 94//96 93//93 95//94
f 98//97 92//92 93//93
f 90//90 96//95 89//89
f 97//98 96//95 86//86
f 98//97 93//93 94//96
f 94//96 99//99 98//97
f 92//92 98//97 100//100
f 96//95 101//101 89//89
f 95//94 87//87 102//102
f 94//96 95//94 102//102
f 86//86 92//92 104//103
f 97//98 86//86 104//103
f 100//100 104//103 92//92
f 101//101 103//104 89//89
f 89//89 103//104 87//87
f 103//104 102//102 87//87
f 97//98 101//101 96//95
f 105//105 94//96 102//102
f 99//99 94//96 105//105
f 98//97 99//99 100//100
f 102//102 106//106 105//105
f 105//105 107//107 99//99
f 103//104 106//106 102//102
f 97//98 104//103 108//108
f 104//103 109//109 108//108
f 99//99 107//107 110//110
f 109//109 104//103 100//100
f 100//100 99//99 110//110
f 106//106 103//104 111//111
f 101//101 97//98 108//108
f 101//101 112//112 103//104
f 101//101 108//108 112//112
f 106//106 113//113 105//105
f 107//107 113//113 110//110
f 111//111 113//113 106//106
f 111//111 103//104 115//114
f 115//114 116//115 111//111
f 111//111 116//115 113//113
f 103//104 112//112 117//116
f 117//116 115//114 103//104
f 113//113 116//115 115//114
f 100//100 118//117 109//109
f 119//118 108//108 109//109
f 112//112 108//108 119//118
f 100//100 110//110 118//117
f 110//110 120//119 118//117
f 113//113 120//119 110//110
f 114//120 117//116 112//112
f 114//120 112//112 119//118
f 115//114 117//116 121//121
f 115//114 121//121 113//113
f 117//116 114//120 121//121
f 118//117 119//118 109//109
f 121//121 120//119 113//113
f 120//119 121//121 119//118
f 119//118 118//117 120//119
f 119//118 121//121 114//120
