# Blender v2.78 (sub 0) OBJ File: 'exporter.blend'
# www.blender.org
o FJ2290.obj_grp1.1027
v -1.347034 -0.622175 3.481776
v -1.339267 -0.608186 3.516213
v -1.344423 -0.625095 3.481351
v -1.342506 -0.625413 3.481469
v -1.346387 -0.624121 3.482136
v -1.339156 -0.616086 3.505579
v -1.340106 -0.612350 3.511335
v -1.344657 -0.622362 3.478564
v -1.346397 -0.620683 3.480723
v -1.343664 -0.624035 3.479109
v -1.341092 -0.621293 3.479594
v -1.345023 -0.619692 3.479981
v -1.337579 -0.605539 3.518579
v -1.345039 -0.619573 3.479995
v -1.342553 -0.625154 3.481404
v -1.334540 -0.612632 3.513694
v -1.339925 -0.622727 3.483671
v -1.330944 -0.607500 3.523279
v -1.335208 -0.609031 3.506914
v -1.337151 -0.612921 3.514927
v -1.337151 -0.612921 3.514927
v -1.336267 -0.610145 3.526118
v -1.335606 -0.607780 3.539558
v -1.336133 -0.606385 3.512627
v -1.334140 -0.610398 3.541789
v -1.333391 -0.610865 3.525060
v -1.331944 -0.611317 3.542230
v -1.333732 -0.610391 3.552327
v -1.333814 -0.604356 3.538701
v -1.331415 -0.605370 3.524931
v -1.331705 -0.603826 3.534184
v -1.331971 -0.613256 3.554274
v -1.332453 -0.608399 3.558243
v -1.330995 -0.618443 3.572953
v -1.331020 -0.609331 3.528646
v -1.327958 -0.607042 3.542956
v -1.329607 -0.605882 3.550757
v -1.330821 -0.621313 3.585658
v -1.329473 -0.616831 3.565072
v -1.329580 -0.614566 3.577806
v -1.327078 -0.616824 3.566539
v -1.326202 -0.613169 3.560474
v -1.328423 -0.609797 3.566237
v -1.325994 -0.611131 3.564677
v -1.328421 -0.627572 3.603658
v -1.327766 -0.649047 3.633947
v -1.329179 -0.628737 3.595193
v -1.326539 -0.625648 3.586305
v -1.325780 -0.626280 3.602368
v -1.325111 -0.618567 3.585858
v -1.326287 -0.651213 3.633493
v -1.327018 -0.646590 3.634784
v -1.323832 -0.630511 3.598526
v -1.323279 -0.625944 3.595543
v -1.326563 -0.649461 3.635413
v -1.325237 -0.637434 3.608276
v -1.323020 -0.631287 3.608350
v -1.321480 -0.644357 3.630736
v -1.320468 -0.647481 3.631143
v -1.320736 -0.645923 3.631449
v -1.324253 -0.651537 3.632591
v -1.320829 -0.649854 3.632502
v -1.323073 -0.648320 3.637582
v -1.320317 -0.649522 3.636745
v -1.324494 -0.645982 3.636857
v -1.324429 -0.643967 3.633954
v -1.324429 -0.643967 3.633954
v -1.322842 -0.642915 3.630086
v -1.322058 -0.644066 3.632579
v -1.321985 -0.644004 3.632592
v -1.314819 -0.646820 3.646166
v -1.319184 -0.645203 3.644542
v -1.320833 -0.644617 3.631714
v -1.322058 -0.644066 3.632579
v -1.313033 -0.640334 3.644520
v -1.318154 -0.641438 3.643819
v -1.313899 -0.646706 3.642448
v -1.312644 -0.644610 3.641237
v -1.316857 -0.643032 3.647083
v -1.309492 -0.647082 3.647245
v -1.311256 -0.644236 3.650107
v -1.312777 -0.642080 3.641893
v -1.312777 -0.642080 3.641893
v -1.311415 -0.644493 3.642423
v -1.311002 -0.640352 3.647503
v -1.310827 -0.641454 3.649742
v -1.308187 -0.645974 3.644984
v -1.307706 -0.642094 3.644559
v -1.307500 -0.644070 3.644179
v -1.300339 -0.644969 3.653100
v -1.299068 -0.642546 3.652712
v -1.297437 -0.642985 3.647587
v -1.298597 -0.641157 3.649955
v -1.300891 -0.647682 3.650489
v -1.298129 -0.645991 3.647058
v -1.298095 -0.647376 3.648973
v -1.298128 -0.645209 3.652659
v -1.296735 -0.645550 3.650706
v -1.296854 -0.642699 3.650678
v -1.296541 -0.644805 3.648623
vn -0.3545 -0.9350 -0.0049
vn 0.5940 -0.7783 0.2035
vn -0.7365 -0.6764 -0.0015
vn -0.2644 -0.8784 0.3982
vn -0.8253 -0.4378 0.3566
vn -0.2977 -0.0466 -0.9535
vn -0.9860 -0.0764 -0.1483
vn 0.0829 -0.6172 -0.7825
vn -0.9511 0.2561 0.1729
vn 0.6560 0.2362 -0.7168
vn -0.1787 0.2489 -0.9519
vn -0.8453 0.3876 -0.3677
vn -0.5000 0.8658 -0.0211
vn -0.2035 0.8085 -0.5523
vn 0.7544 -0.4903 -0.4365
vn 0.4895 -0.8540 0.1764
vn 0.8955 -0.4269 -0.1258
vn 0.9864 0.0021 -0.1645
vn 0.6475 0.6639 -0.3742
vn 0.1520 -0.9664 0.2070
vn -0.4422 -0.8606 0.2526
vn -0.5691 -0.8073 0.1560
vn -0.9817 0.0374 0.1867
vn 0.0809 0.9584 -0.2739
vn 0.1522 -0.9816 0.1157
vn 0.7967 -0.5905 -0.1286
vn -0.0894 -0.9910 -0.0999
vn -0.6933 -0.7207 0.0062
vn -0.9746 -0.2026 0.0956
vn -0.4674 0.8741 0.1323
vn 0.6527 0.7385 -0.1695
vn 0.2790 0.9598 -0.0296
vn -0.6742 0.6908 0.2611
vn -0.6557 -0.7305 -0.1912
vn -0.5972 -0.7899 -0.1395
vn 0.9444 0.3218 -0.0673
vn 0.2602 0.9512 0.1657
vn 0.4283 -0.8260 -0.3665
vn -0.0199 -0.9543 -0.2983
vn -0.9851 0.0845 0.1500
vn 0.9354 -0.3208 -0.1487
vn -0.3530 0.8377 0.4168
vn 0.1394 0.9316 0.3357
vn 0.8693 0.4855 0.0923
vn -0.9290 -0.2655 0.2578
vn -0.6148 0.6828 0.3948
vn -0.6897 -0.6542 -0.3103
vn 0.0138 -0.9038 -0.4277
vn 0.1850 0.8614 0.4731
vn 0.5103 0.7958 0.3260
vn -0.4207 -0.9003 0.1121
vn 0.7930 -0.5229 -0.3127
vn 0.9857 0.1385 0.0964
vn -0.5524 -0.3892 0.7371
vn -0.7742 0.3414 0.5330
vn 0.2865 -0.8139 -0.5054
vn 0.5366 0.7456 0.3951
vn 0.7876 0.5945 0.1622
vn 0.9299 -0.1568 -0.3327
vn 0.9383 0.3425 0.0479
vn 0.0920 -0.9869 -0.1324
vn 0.6283 -0.7269 -0.2772
vn -0.4394 -0.5583 0.7037
vn 0.0944 -0.9342 0.3440
vn -0.7181 0.2719 0.6406
vn -0.5078 0.8212 0.2604
vn 0.3664 0.8486 0.3815
vn 0.5166 0.7900 0.3301
vn 0.2357 0.9088 0.3442
vn 0.8008 0.5911 0.0966
vn -0.2391 -0.8110 0.5339
vn -0.7071 -0.2158 0.6734
vn 0.0419 0.9768 -0.2100
vn 0.0597 0.9414 -0.3318
vn 0.1604 0.9119 -0.3777
vn -0.5370 0.7971 0.2763
vn 0.4486 -0.8546 -0.2617
vn 0.6983 -0.2620 -0.6661
vn 0.3512 0.7932 -0.4975
vn 0.5901 0.2445 -0.7694
vn 0.7487 0.2036 -0.6308
vn -0.6176 0.2127 0.7572
vn 0.4998 -0.5123 -0.6984
vn 0.0648 -0.9734 -0.2196
vn -0.3651 -0.2542 0.8956
vn -0.0965 0.9612 0.2583
vn -0.2505 0.5902 0.7674
vn 0.2200 -0.7209 -0.6572
vn 0.3246 0.5012 -0.8021
vn 0.3374 -0.1514 -0.9291
vn -0.0727 -0.2426 0.9674
vn 0.3596 0.9327 0.0254
vn 0.6371 0.4389 -0.6336
vn 0.0197 -0.9181 0.3958
vn 0.2134 0.5251 0.8239
vn 0.4649 -0.8732 -0.1462
vn 0.4836 -0.4035 -0.7767
vn 0.4983 -0.3163 0.8072
vn 0.8612 -0.3958 0.3189
vn 0.9372 -0.1221 -0.3268
vn 0.8471 0.4478 0.2862
s 1
f 3//1 4//2 5//3
f 4//2 6//4 5//3
f 5//3 6//4 7//5
f 8//6 5//3 1//7
f 5//3 10//8 3//1
f 10//8 5//3 8//6
f 5//3 7//5 1//7
f 7//5 2//9 1//7
f 11//10 8//6 12//11
f 2//9 9//12 1//7
f 2//9 13//13 9//12
f 8//6 9//12 12//11
f 1//7 9//12 8//6
f 11//10 12//11 14//14
f 15//15 16//16 4//2
f 15//15 3//1 10//8
f 15//15 10//8 11//10
f 11//10 10//8 8//6
f 15//15 11//10 17//17
f 11//10 18//18 17//17
f 17//17 16//16 15//15
f 14//14 9//12 13//13
f 19//19 18//18 11//10
f 6//4 4//2 16//16
f 16//16 20//20 6//4
f 21//21 7//5 6//4
f 22//22 7//5 21//21
f 7//5 22//22 2//9
f 2//9 22//22 23//23
f 11//10 14//14 19//19
f 14//14 24//24 19//19
f 13//13 24//24 14//14
f 2//9 23//23 13//13
f 17//17 18//18 16//16
f 16//16 26//25 20//20
f 16//16 35//26 26//25
f 21//21 26//25 22//22
f 22//22 26//25 27//27
f 22//22 25//28 23//23
f 22//22 27//27 25//28
f 28//29 23//23 25//28
f 29//30 13//13 23//23
f 30//31 19//19 24//24
f 19//19 30//31 18//18
f 13//13 29//30 31//32
f 24//24 13//13 31//32
f 24//24 31//32 30//31
f 28//29 33//33 23//23
f 34//34 28//29 32//35
f 25//28 32//35 28//29
f 32//35 25//28 27//27
f 26//25 35//26 27//27
f 33//33 29//30 23//23
f 35//26 16//16 18//18
f 35//26 18//18 36//36
f 30//31 36//36 18//18
f 31//32 36//36 30//31
f 29//30 33//33 37//37
f 41//38 39//39 32//35
f 34//34 32//35 39//39
f 28//29 38//40 33//33
f 34//34 38//40 28//29
f 35//26 42//41 27//27
f 32//35 27//27 41//38
f 33//33 40//42 43//43
f 37//37 43//43 44//44
f 31//32 29//30 37//37
f 37//37 44//44 36//36
f 33//33 43//43 37//37
f 31//32 37//37 36//36
f 46//45 45//46 38//40
f 34//34 47//47 38//40
f 48//48 47//47 34//34
f 40//42 38//40 45//46
f 41//38 48//48 39//39
f 48//48 34//34 39//39
f 38//40 40//42 33//33
f 45//46 49//49 40//42
f 44//44 43//43 50//50
f 40//42 49//49 43//43
f 43//43 49//49 50//50
f 42//41 41//38 27//27
f 36//36 42//41 35//26
f 48//48 51//51 47//47
f 41//38 42//41 53//52
f 54//53 53//52 42//41
f 48//48 41//38 53//52
f 50//50 54//53 44//44
f 42//41 44//44 54//53
f 42//41 36//36 44//44
f 46//45 51//51 55//54
f 52//55 45//46 46//45
f 46//45 38//40 47//47
f 47//47 51//51 46//45
f 56//56 51//51 48//48
f 48//48 53//52 56//56
f 49//49 57//57 50//50
f 58//58 54//53 50//50
f 59//59 54//53 60//60
f 54//53 58//58 60//60
f 51//51 56//56 61//61
f 56//56 62//62 61//61
f 55//54 51//51 63//63
f 61//61 64//64 51//51
f 63//63 51//51 64//64
f 46//45 55//54 52//55
f 65//65 52//55 55//54
f 55//54 63//63 65//65
f 62//62 53//52 59//59
f 52//55 66//66 45//46
f 66//66 49//49 45//46
f 49//49 67//67 68//68
f 68//68 67//67 69//69
f 58//58 68//68 70//70
f 52//55 65//65 66//66
f 56//56 53//52 62//62
f 68//68 57//57 49//49
f 68//68 58//58 57//57
f 54//53 59//59 53//52
f 62//62 64//64 61//61
f 64//64 71//71 63//63
f 63//63 72//72 65//65
f 70//70 60//60 58//58
f 75//73 74//74 66//66
f 75//73 73//75 74//74
f 66//66 65//65 76//76
f 65//65 72//72 76//76
f 62//62 77//77 64//64
f 62//62 78//78 77//77
f 78//78 62//62 59//59
f 77//77 71//71 64//64
f 63//63 71//71 72//72
f 73//75 75//73 82//79
f 83//80 59//59 73//81
f 59//59 83//80 78//78
f 66//66 76//76 75//73
f 76//76 72//72 79//82
f 77//77 78//78 84//83
f 71//71 77//77 80//84
f 71//71 79//82 72//72
f 79//82 71//71 81//85
f 76//76 85//86 75//73
f 86//87 76//76 79//82
f 76//76 86//87 85//86
f 81//85 86//87 79//82
f 87//88 80//84 77//77
f 87//88 77//77 84//83
f 75//73 88//89 82//79
f 84//83 89//90 87//88
f 88//89 89//90 83//80
f 89//90 78//78 83//80
f 90//91 86//87 81//85
f 93//92 85//86 86//87
f 88//89 75//73 92//93
f 75//73 93//92 92//93
f 85//86 93//92 75//73
f 80//84 94//94 71//71
f 81//85 71//71 94//94
f 93//92 86//87 91//95
f 87//88 96//96 80//84
f 95//97 96//96 87//88
f 80//84 96//96 94//94
f 96//96 97//98 94//94
f 97//98 96//96 98//99
f 94//94 90//91 81//85
f 90//91 94//94 97//98
f 89//90 95//97 87//88
f 88//89 92//93 89//90
f 89//90 92//93 95//97
f 95//97 100//100 96//96
f 92//93 100//100 95//97
f 91//95 86//87 90//91
f 97//98 91//95 90//91
f 99//101 93//92 91//95
f 99//101 97//98 98//99
f 97//98 99//101 91//95
f 99//101 92//93 93//92
f 96//96 100//100 98//99
f 100//100 99//101 98//99
f 100//100 92//93 99//101
