# Blender v2.78 (sub 0) OBJ File: 'exporter.blend'
# www.blender.org
o FJ2252.obj_grp1.989
v 0.437970 -0.480793 6.196653
v 0.439875 -0.480691 6.193562
v 0.443566 -0.483083 6.198075
v 0.442727 -0.482308 6.194906
v 0.439272 -0.476797 6.190665
v 0.436487 -0.477658 6.194141
v 0.435320 -0.475333 6.194468
v 0.436443 -0.477585 6.241167
v 0.441478 -0.473012 6.189217
v 0.437729 -0.471576 6.191551
v 0.436626 -0.470281 6.193219
v 0.434727 -0.470751 6.199187
v 0.431720 -0.473985 6.239854
v 0.430287 -0.469533 6.236293
v 0.434055 -0.476498 6.240107
v 0.437866 -0.467005 6.195301
v 0.430401 -0.466443 6.239015
v 0.436310 -0.475383 6.244764
v 0.432850 -0.473526 6.243379
v 0.430507 -0.469942 6.241216
v 0.432043 -0.469073 6.244484
v 0.434499 -0.472529 6.245826
v 0.432317 -0.465210 6.243821
v 0.432595 -0.462570 6.241143
v 0.443654 -0.480380 6.191853
v 0.447184 -0.478801 6.191136
v 0.446964 -0.481634 6.194530
v 0.443702 -0.475828 6.189105
v 0.440334 -0.478016 6.242151
v 0.440933 -0.468684 6.190850
v 0.441243 -0.474568 6.246237
v 0.438158 -0.473017 6.247149
v 0.432929 -0.461813 6.238582
v 0.436759 -0.468244 6.247830
v 0.449867 -0.478230 6.192728
v 0.449963 -0.480797 6.197456
v 0.447603 -0.482178 6.198075
v 0.444913 -0.476912 6.240661
v 0.444749 -0.470916 6.189332
v 0.448948 -0.473530 6.190333
v 0.445846 -0.468726 6.190567
v 0.445385 -0.474584 6.244372
v 0.442617 -0.465233 6.194166
v 0.438219 -0.459472 6.235567
v 0.441191 -0.467903 6.248114
v 0.437237 -0.465245 6.247271
v 0.435323 -0.461284 6.243061
v 0.438603 -0.460995 6.244395
v 0.439574 -0.464341 6.247184
v 0.436289 -0.459863 6.240605
v 0.452121 -0.478020 6.197094
v 0.448018 -0.473619 6.240907
v 0.451635 -0.476551 6.193911
v 0.449604 -0.470732 6.191509
v 0.449376 -0.466799 6.194780
v 0.445239 -0.466456 6.192515
v 0.445688 -0.464356 6.198937
v 0.442532 -0.470778 6.247805
v 0.447319 -0.469035 6.244833
v 0.444846 -0.466406 6.246643
v 0.440742 -0.459672 6.241645
v 0.452299 -0.473127 6.194301
v 0.453188 -0.474323 6.197727
v 0.449493 -0.468170 6.240623
v 0.452779 -0.470674 6.198048
v 0.451513 -0.469660 6.194470
v 0.448060 -0.463479 6.239719
v 0.447932 -0.471648 6.243227
v 0.444232 -0.460147 6.236792
v 0.444956 -0.460856 6.241416
v 0.443166 -0.461848 6.244730
v 0.447094 -0.464285 6.243352
vn -0.1376 -0.9280 -0.3462
vn -0.0520 -0.9977 -0.0430
vn -0.6519 -0.7467 -0.1321
vn -0.4197 -0.7291 -0.5405
vn -0.8015 -0.4633 -0.3782
vn -0.4834 -0.3309 -0.8104
vn -0.9169 -0.1606 -0.3653
vn -0.3333 -0.8951 0.2962
vn -0.2804 0.0884 -0.9558
vn -0.6377 0.1797 -0.7490
vn -0.7848 0.3764 -0.4923
vn -0.9482 0.2727 -0.1629
vn -0.8530 -0.4982 0.1558
vn -0.9931 -0.1088 -0.0440
vn -0.6147 -0.7609 0.2076
vn -0.6212 0.7117 -0.3280
vn -0.9620 0.2611 0.0801
vn -0.3383 -0.7074 0.6206
vn -0.7164 -0.4940 0.4927
vn -0.9590 -0.1274 0.2531
vn -0.7697 -0.0051 0.6384
vn -0.5356 -0.3570 0.7653
vn -0.7333 0.3672 0.5723
vn -0.7416 0.6163 0.2650
vn -0.0615 -0.7016 -0.7099
vn 0.3418 -0.5160 -0.7854
vn 0.3434 -0.8513 -0.3967
vn 0.0113 -0.2361 -0.9717
vn 0.0723 -0.9221 0.3802
vn 0.1464 -0.6264 0.7656
vn -0.3104 0.5521 -0.7738
vn -0.1566 -0.4173 0.8952
vn -0.7011 0.7129 -0.0155
vn -0.3294 0.0217 0.9439
vn 0.6319 -0.4895 -0.6010
vn 0.6648 -0.7395 -0.1055
vn 0.3730 -0.9277 -0.0164
vn 0.4938 -0.8266 0.2699
vn 0.1098 0.2765 -0.9547
vn 0.5265 -0.0098 -0.8501
vn 0.5555 -0.5679 0.6074
vn -0.1354 0.9052 -0.4027
vn 0.2519 0.5388 -0.8039
vn -0.1571 0.9839 -0.0857
vn 0.2953 -0.1996 0.9343
vn 0.1320 0.0983 0.9864
vn -0.4543 0.7377 0.4994
vn -0.3096 0.3723 0.8750
vn -0.1120 0.7924 0.5996
vn 0.0304 0.4544 0.8903
vn -0.3173 0.9313 0.1791
vn 0.8833 -0.4531 -0.1204
vn 0.8422 -0.4776 0.2501
vn 0.8279 -0.2727 -0.4902
vn 0.6074 0.3370 -0.7194
vn 0.5756 0.7433 -0.3408
vn 0.1552 0.8001 -0.5794
vn 0.2290 0.9623 -0.1470
vn 0.7660 -0.0390 0.6417
vn 0.5060 0.2301 0.8312
vn 0.1029 0.9639 0.2455
vn 0.3225 0.6797 0.6589
vn 0.8957 0.0641 -0.4399
vn 0.9946 -0.0864 -0.0570
vn 0.9639 0.0510 0.2613
vn 0.8016 0.4493 -0.3945
vn 0.9319 0.3586 -0.0552
vn 0.8199 0.5552 0.1397
vn 0.8289 -0.2960 0.4746
vn 0.4127 0.9106 -0.0198
vn 0.5191 0.8135 0.2621
vn 0.7365 0.4296 0.5225
s 1
f 4//1 3//2 1//3
f 1//3 2//4 4//1
f 6//5 5//6 2//4
f 7//7 5//6 6//5
f 6//5 1//3 7//7
f 2//4 1//3 6//5
f 1//3 3//2 8//8
f 9//9 5//6 10//10
f 7//7 10//10 5//6
f 11//11 10//10 7//7
f 7//7 12//12 11//11
f 1//3 13//13 7//7
f 12//12 7//7 14//14
f 1//3 8//8 15//15
f 11//11 12//12 16//16
f 17//17 12//12 14//14
f 1//3 15//15 13//13
f 8//8 18//18 15//15
f 19//19 13//13 15//15
f 13//13 14//14 7//7
f 13//13 19//19 20//20
f 19//19 21//21 20//20
f 19//19 22//22 21//21
f 14//14 13//13 20//20
f 21//21 23//23 20//20
f 17//17 14//14 20//20
f 23//23 17//17 20//20
f 23//23 24//24 17//17
f 25//25 26//26 27//27
f 4//1 27//27 3//2
f 25//25 27//27 4//1
f 4//1 2//4 25//25
f 25//25 2//4 5//6
f 25//25 5//6 28//28
f 26//26 25//25 28//28
f 5//6 9//9 28//28
f 29//29 8//8 3//2
f 29//29 18//18 8//8
f 29//29 31//30 18//18
f 10//10 30//31 9//9
f 30//31 10//10 11//11
f 30//31 11//11 16//16
f 18//18 19//19 15//15
f 18//18 22//22 19//19
f 18//18 32//32 22//22
f 32//32 18//18 31//30
f 12//12 33//33 16//16
f 22//22 34//34 21//21
f 12//12 17//17 33//33
f 33//33 17//17 24//24
f 35//35 27//27 26//26
f 35//35 36//36 27//27
f 37//37 27//27 36//36
f 37//37 29//29 3//2
f 27//27 37//37 3//2
f 36//36 38//38 37//37
f 28//28 9//9 39//39
f 40//40 28//28 39//39
f 40//40 26//26 28//28
f 38//38 29//29 37//37
f 39//39 9//9 30//31
f 42//41 29//29 38//38
f 29//29 42//41 31//30
f 16//16 43//42 30//31
f 30//31 41//43 39//39
f 43//42 16//16 44//44
f 32//32 34//34 22//22
f 58//45 34//34 32//32
f 45//46 34//34 58//45
f 23//23 21//21 34//34
f 47//47 33//33 24//24
f 34//34 46//48 23//23
f 23//23 46//48 47//47
f 24//24 23//23 47//47
f 46//48 48//49 47//47
f 49//50 48//49 46//48
f 44//44 16//16 33//33
f 44//44 33//33 50//51
f 33//33 47//47 50//51
f 35//35 51//52 36//36
f 52//53 36//36 51//52
f 26//26 40//40 35//35
f 35//35 40//40 53//54
f 53//54 51//52 35//35
f 41//43 40//40 39//39
f 54//55 40//40 41//43
f 55//56 54//55 41//43
f 52//53 38//38 36//36
f 52//53 42//41 38//38
f 56//57 41//43 30//31
f 30//31 43//42 56//57
f 41//43 56//57 55//56
f 56//57 43//42 57//58
f 42//41 59//59 58//45
f 58//45 32//32 31//30
f 31//30 42//41 58//45
f 57//58 43//42 44//44
f 45//46 46//48 34//34
f 45//46 49//50 46//48
f 60//60 49//50 45//46
f 48//49 61//61 50//51
f 48//49 71//62 61//61
f 48//49 49//50 71//62
f 48//49 50//51 47//47
f 40//40 62//63 53//54
f 53//54 63//64 51//52
f 62//63 63//64 53//54
f 63//64 64//65 51//52
f 52//53 51//52 64//65
f 54//55 62//63 40//40
f 62//63 54//55 66//66
f 62//63 66//66 65//67
f 62//63 65//67 63//64
f 64//65 63//64 65//67
f 65//67 67//68 64//65
f 54//55 55//56 66//66
f 66//66 55//56 65//67
f 65//67 55//56 67//68
f 42//41 52//53 68//69
f 56//57 57//58 55//56
f 57//58 69//70 55//56
f 64//65 68//69 52//53
f 59//59 42//41 68//69
f 58//45 59//59 60//60
f 58//45 60//60 45//46
f 70//71 71//62 72//72
f 60//60 71//62 49//50
f 71//62 60//60 72//72
f 44//44 69//70 57//58
f 50//51 61//61 44//44
f 44//44 61//61 69//70
f 61//61 71//62 70//71
f 61//61 70//71 69//70
f 59//59 68//69 64//65
f 59//59 64//65 72//72
f 64//65 67//68 72//72
f 60//60 59//59 72//72
f 69//70 70//71 67//68
f 69//70 67//68 55//56
f 70//71 72//72 67//68
