# Blender v2.78 (sub 0) OBJ File: 'exporter.blend'
# www.blender.org
o FJ2224.obj_grp1.961
v 0.213488 -0.436661 6.360618
v 0.213531 -0.434495 6.358472
v 0.214644 -0.437205 6.361558
v 0.215241 -0.440533 6.357331
v 0.214296 -0.437255 6.362012
v 0.214987 -0.438211 6.362108
v 0.216832 -0.439258 6.362698
v 0.216886 -0.439072 6.362578
v 0.218151 -0.438082 6.363470
v 0.213435 -0.434845 6.358955
v 0.213571 -0.436657 6.360606
v 0.214201 -0.433746 6.358024
v 0.214365 -0.437209 6.361733
v 0.215425 -0.432601 6.357625
v 0.216341 -0.437380 6.362719
v 0.215292 -0.432651 6.357617
v 0.219901 -0.431969 6.358700
v 0.222999 -0.449997 6.344713
v 0.223918 -0.443512 6.345659
v 0.223825 -0.446106 6.355704
v 0.218562 -0.437391 6.363517
v 0.218662 -0.437337 6.363607
v 0.218562 -0.437391 6.363517
v 0.221072 -0.435377 6.362536
v 0.224738 -0.441370 6.357449
v 0.220208 -0.432780 6.359715
v 0.219927 -0.431996 6.358634
v 0.220589 -0.435321 6.354456
v 0.221735 -0.434263 6.361183
v 0.220208 -0.432780 6.359715
v 0.221037 -0.433052 6.358681
v 0.219927 -0.431996 6.358634
v 0.221037 -0.433052 6.358681
v 0.219927 -0.431996 6.358634
v 0.225004 -0.452708 6.346434
v 0.224505 -0.438144 6.353280
v 0.229301 -0.463570 6.330934
v 0.243090 -0.457061 6.329728
v 0.231759 -0.465311 6.326345
v 0.234107 -0.464294 6.324896
v 0.233010 -0.468602 6.327283
v 0.244872 -0.457995 6.333403
v 0.242899 -0.462022 6.334805
v 0.244628 -0.457316 6.331599
v 0.239469 -0.466144 6.332396
v 0.240000 -0.458891 6.326950
v 0.237708 -0.467987 6.329858
v 0.233745 -0.467780 6.325480
v 0.244161 -0.459129 6.334853
v 0.237302 -0.467378 6.326319
v 0.237482 -0.464620 6.325144
v 0.243363 -0.461965 6.328741
v 0.244258 -0.461998 6.332520
vn -0.8534 -0.5177 -0.0613
vn -0.6888 -0.5990 0.4083
vn -0.8857 -0.4597 0.0641
vn -0.3878 -0.1354 0.9117
vn -0.2656 -0.1508 0.9522
vn -0.3659 -0.2839 0.8863
vn -0.3682 -0.0743 0.9268
vn -0.8237 0.0127 -0.5668
vn -0.3211 0.6770 0.6622
vn -0.5623 0.5423 0.6243
vn -0.3948 0.6404 0.6588
vn -0.2659 0.6762 0.6870
vn -0.3347 0.6793 0.6531
vn -0.5670 0.7263 0.3886
vn -0.2820 -0.7570 0.5895
vn -0.9201 -0.2272 -0.3190
vn -0.3954 0.5279 -0.7517
vn -0.3868 0.5137 -0.7658
vn -0.3300 0.0929 0.9394
vn 0.4052 -0.4480 0.7969
vn 0.1635 -0.6694 0.7247
vn -0.2502 0.6686 0.7002
vn 0.3810 0.3723 0.8463
vn 0.8136 -0.0354 0.5803
vn -0.1911 0.7182 0.6691
vn -0.2434 0.7532 0.6110
vn 0.2113 0.7827 -0.5855
vn -0.0063 0.8116 -0.5842
vn 0.6757 0.5826 0.4518
vn 0.5993 0.7476 0.2863
vn 0.7311 0.6619 0.1652
vn 0.6411 0.6904 0.3351
vn 0.6395 0.6526 -0.4064
vn 0.5715 0.6894 -0.4450
vn -0.6115 -0.7197 0.3289
vn 0.7779 0.6258 -0.0578
vn -0.9165 -0.3734 -0.1435
vn 0.5212 0.5744 -0.6312
vn -0.7651 -0.0810 -0.6388
vn -0.4126 -0.9053 -0.1014
vn -0.2418 0.1977 -0.9500
vn 0.9712 0.1740 0.1625
vn 0.5953 -0.5394 0.5956
vn 0.8732 0.4034 -0.2735
vn -0.2126 -0.5830 -0.7842
vn 0.8241 -0.0785 0.5610
vn 0.3192 -0.9323 0.1702
vn 0.3666 -0.8103 0.4573
vn 0.2072 0.4615 -0.8626
vn 0.4654 -0.6870 -0.5580
vn 0.3206 -0.0886 -0.9431
vn 0.7962 -0.2771 -0.5379
vn 0.8819 -0.4579 0.1123
s 1
f 4//1 3//2 1//3
f 5//4 6//5 8//6
f 5//4 8//6 9//7
f 2//8 4//1 1//3
f 10//9 11//10 13//11
f 15//12 14//13 10//9
f 10//9 13//11 15//12
f 14//13 12//14 10//9
f 7//15 3//2 4//1
f 18//16 4//1 2//8
f 19//17 2//8 16//18
f 9//7 21//19 5//4
f 22//20 7//15 20//21
f 23//22 24//23 15//12
f 24//23 22//20 25//24
f 20//21 25//24 22//20
f 26//25 15//12 24//23
f 27//26 14//13 26//25
f 26//25 14//13 15//12
f 28//27 16//18 17//28
f 24//23 29//29 26//25
f 30//30 29//29 31//31
f 32//32 30//30 31//31
f 28//27 19//17 16//18
f 34//33 33//34 28//27
f 7//15 4//1 35//35
f 4//1 18//16 35//35
f 18//16 2//8 19//17
f 36//36 31//31 29//29
f 29//29 24//23 25//24
f 25//24 36//36 29//29
f 33//34 36//36 28//27
f 20//21 7//15 35//35
f 37//37 35//35 18//16
f 28//27 38//38 19//17
f 19//17 39//39 18//16
f 41//40 20//21 35//35
f 39//39 19//17 40//41
f 37//37 41//40 35//35
f 18//16 39//39 37//37
f 42//42 36//36 25//24
f 25//24 20//21 43//43
f 36//36 44//44 28//27
f 38//38 28//27 44//44
f 48//45 41//40 39//39
f 39//39 41//40 37//37
f 48//45 39//39 40//41
f 43//43 49//46 25//24
f 42//42 25//24 49//46
f 42//42 44//44 36//36
f 20//21 47//47 45//48
f 20//21 41//40 47//47
f 40//41 19//17 46//49
f 48//45 50//50 41//40
f 41//40 50//50 47//47
f 50//50 48//45 51//51
f 48//45 40//41 51//51
f 46//49 51//51 40//41
f 45//48 43//43 20//21
f 38//38 46//49 19//17
f 38//38 52//52 46//49
f 52//52 47//47 50//50
f 52//52 50//50 51//51
f 51//51 46//49 52//52
f 47//47 53//53 45//48
f 53//53 43//43 45//48
f 47//47 52//52 53//53
f 53//53 49//46 43//43
f 42//42 49//46 53//53
f 52//52 44//44 53//53
f 44//44 42//42 53//53
f 44//44 52//52 38//38
