# Blender v2.78 (sub 0) OBJ File: 'exporter.blend'
# www.blender.org
o FJ2267.obj_grp1.1004
v -0.910213 -0.405096 5.108641
v -0.907903 -0.407985 5.109251
v -0.907267 -0.405220 5.110609
v -0.908447 -0.402357 5.109457
v -0.909565 -0.401495 5.107801
v -0.906662 -0.401252 5.109633
v -0.909343 -0.408682 5.107286
v -0.910136 -0.408471 5.105398
v -0.906913 -0.410475 5.104726
v -0.911386 -0.403840 5.105291
v -0.910514 -0.401580 5.104467
v -0.907308 -0.399275 5.104458
v -0.910655 -0.405137 5.102419
v -0.896810 -0.403774 5.067988
v -0.900748 -0.400022 5.081227
v -0.906067 -0.407358 5.110251
v -0.905222 -0.409798 5.107979
v -0.903651 -0.407868 5.109563
v -0.904280 -0.404753 5.110736
v -0.901341 -0.405489 5.109045
v -0.903422 -0.402527 5.110134
v -0.901888 -0.401169 5.108060
v -0.905918 -0.399098 5.106841
v -0.904614 -0.399454 5.107593
v -0.903602 -0.410097 5.106310
v -0.889801 -0.407552 5.073288
v -0.884976 -0.396249 5.050182
v -0.892466 -0.397577 5.065044
v -0.901177 -0.407738 5.107615
v -0.900620 -0.403573 5.108078
v -0.888219 -0.397847 5.068660
v -0.891364 -0.406638 5.059557
v -0.890721 -0.405003 5.082735
v -0.890817 -0.401528 5.082595
v -0.885947 -0.406869 5.052382
v -0.891284 -0.398850 5.053964
v -0.883722 -0.403239 5.062686
v -0.883522 -0.399961 5.061030
v -0.890557 -0.402294 5.048602
v -0.880905 -0.404447 5.049876
v -0.879471 -0.397611 5.043578
v -0.883145 -0.404659 5.031540
v -0.884316 -0.395950 5.034716
v -0.886423 -0.402195 5.033701
v -0.887204 -0.399106 5.036957
v -0.878869 -0.400092 5.045264
v -0.880291 -0.405186 5.041112
v -0.877898 -0.402050 5.040857
v -0.879320 -0.404701 5.027633
v -0.876363 -0.395424 5.022743
v -0.883449 -0.396247 5.021934
v -0.883412 -0.397668 5.013905
v -0.884129 -0.400846 5.021183
v -0.874748 -0.397869 5.023058
v -0.878188 -0.394167 5.019667
v -0.880833 -0.393936 5.006789
v -0.881898 -0.402357 5.015259
v -0.875431 -0.401439 5.027088
v -0.875912 -0.402779 5.017198
v -0.879105 -0.402359 5.004784
v -0.878649 -0.392055 4.996044
v -0.882299 -0.399314 5.002276
v -0.882538 -0.395725 5.000228
v -0.914356 -0.379966 4.907638
v -0.912520 -0.383017 4.908640
v -0.916635 -0.379297 4.897346
v -0.914369 -0.377325 4.905961
v -0.917123 -0.376063 4.897182
v -0.881761 -0.399286 4.992482
v -0.883289 -0.395463 4.985070
v -0.909300 -0.383491 4.918202
v -0.897912 -0.387334 4.938637
v -0.909137 -0.380389 4.917823
v -0.898030 -0.384241 4.936210
v -0.905857 -0.386711 4.920063
v -0.891019 -0.393005 4.948368
v -0.913755 -0.375979 4.904670
v -0.890212 -0.385099 4.945539
v -0.908755 -0.384285 4.908921
v -0.910245 -0.376426 4.908039
v -0.915139 -0.380072 4.894008
v -0.911923 -0.380395 4.896555
v -0.915783 -0.373046 4.893420
v -0.914271 -0.371995 4.890208
v -0.917717 -0.376829 4.893619
v -0.914590 -0.378280 4.886958
v -0.917358 -0.372725 4.888169
v -0.917590 -0.376843 4.887815
v -0.917999 -0.373268 4.883871
v -0.916700 -0.373190 4.874614
v -0.873778 -0.400147 5.010099
v -0.873163 -0.396579 5.001680
v -0.874733 -0.393922 5.003314
v -0.877434 -0.401381 4.994861
v -0.881879 -0.392083 4.984240
v -0.881645 -0.398966 4.983732
v -0.884899 -0.391995 4.971446
v -0.885206 -0.395045 4.970931
v -0.891439 -0.391540 4.950810
v -0.891194 -0.392651 4.941021
v -0.904499 -0.378941 4.915051
v -0.907301 -0.382923 4.907808
v -0.903172 -0.380672 4.914592
v -0.905544 -0.381909 4.909557
v -0.909313 -0.376312 4.904317
v -0.906430 -0.379822 4.907487
v -0.910170 -0.378372 4.896682
v -0.909405 -0.376847 4.900297
v -0.912806 -0.372749 4.891360
v -0.911083 -0.374860 4.890773
v -0.911761 -0.376448 4.886242
v -0.913090 -0.377527 4.885601
v -0.915406 -0.375386 4.877320
v -0.914316 -0.366673 4.868279
v -0.915189 -0.367119 4.863725
v -0.913520 -0.364581 4.850756
v -0.873324 -0.397909 4.996799
v -0.874582 -0.400099 4.996480
v -0.876911 -0.399058 4.980533
v -0.882081 -0.389152 4.969716
v -0.882523 -0.397018 4.963483
v -0.884674 -0.396343 4.966090
v -0.887132 -0.393886 4.962707
v -0.885533 -0.389488 4.964685
v -0.890088 -0.390405 4.954764
v -0.891791 -0.386404 4.947524
v -0.891791 -0.386404 4.947524
v -0.888350 -0.390156 4.939676
v -0.911101 -0.373039 4.882509
v -0.911287 -0.370450 4.878083
v -0.911931 -0.366427 4.868894
v -0.910530 -0.370226 4.860653
v -0.912399 -0.372014 4.865209
v -0.912847 -0.368422 4.856214
v -0.875378 -0.392292 4.982601
v -0.874332 -0.394709 4.982997
v -0.878400 -0.390070 4.974952
v -0.875420 -0.397543 4.980543
v -0.875537 -0.394835 4.974862
v -0.879377 -0.395714 4.963329
v -0.882452 -0.387842 4.956472
v -0.888646 -0.392735 4.942866
v -0.884960 -0.393077 4.948173
v -0.886479 -0.386978 4.943987
v -0.886742 -0.388205 4.941944
v -0.913172 -0.362455 4.855747
v -0.913264 -0.359728 4.844210
v -0.912878 -0.360688 4.850633
v -0.877756 -0.390855 4.967406
v -0.878698 -0.393155 4.962001
v -0.880543 -0.390492 4.956491
v -0.883404 -0.391385 4.949123
v -0.907328 -0.360526 4.845396
v -0.908769 -0.367946 4.859291
v -0.910017 -0.363432 4.859148
v -0.911334 -0.356187 4.830544
v -0.911952 -0.356007 4.840808
v -0.909631 -0.358667 4.848002
v -0.907999 -0.361502 4.842539
v -0.910031 -0.364024 4.845337
v -0.910216 -0.354795 4.840071
v -0.907548 -0.357796 4.841971
v -0.909522 -0.357570 4.832688
v -0.912568 -0.349716 4.822336
v -0.911790 -0.348527 4.826638
v -0.912792 -0.344432 4.816322
v -0.907348 -0.349381 4.824338
v -0.909484 -0.346467 4.824128
v -0.910132 -0.346357 4.813487
v -0.907849 -0.351266 4.823415
v -0.911784 -0.337848 4.809426
v -0.910468 -0.327465 4.793024
v -0.909105 -0.329850 4.792263
v -0.909957 -0.329667 4.789772
v -0.912753 -0.326965 4.791719
v -0.913207 -0.330223 4.790468
v -0.911308 -0.330438 4.789550
v -0.913705 -0.328110 4.791177
v -0.913229 -0.328612 4.789927
v -0.911892 -0.328517 4.789179
v -0.910048 -0.328534 4.789832
v -0.910072 -0.327657 4.790442
v -0.909971 -0.328541 4.789814
v -0.911728 -0.326973 4.790106
v -0.910613 -0.326946 4.791050
vn -0.4115 -0.5634 0.7164
vn -0.3026 -0.0252 0.9528
vn -0.8050 -0.0619 0.5900
vn -0.6323 -0.6671 0.3939
vn -0.0572 -0.4470 0.8927
vn -0.4896 0.3564 0.7958
vn -0.6796 0.6002 0.4218
vn -0.8231 -0.5678 -0.0078
vn -0.2570 -0.9664 -0.0107
vn -0.9960 0.0858 0.0260
vn -0.8156 0.5695 -0.1021
vn -0.9235 -0.0844 -0.3742
vn -0.8991 -0.2648 -0.3485
vn -0.7406 0.6268 -0.2421
vn 0.0491 -0.8699 0.4908
vn 0.3739 -0.5325 0.7594
vn 0.2032 0.0070 0.9791
vn 0.7148 -0.1566 0.6815
vn -0.1692 0.5732 0.8017
vn 0.3077 0.3642 0.8790
vn -0.1363 0.9470 0.2908
vn 0.2059 0.8592 0.4684
vn 0.6029 0.6127 0.5109
vn 0.3502 -0.9042 0.2446
vn 0.5317 -0.8392 0.1140
vn -0.4030 0.9150 0.0183
vn 0.0483 0.9965 0.0679
vn -0.4456 0.8861 -0.1279
vn 0.7334 -0.4979 0.4628
vn 0.8370 0.1647 0.5218
vn 0.4893 0.8423 0.2260
vn 0.9050 -0.3029 0.2986
vn 0.8734 0.3514 0.3371
vn -0.5431 -0.8114 -0.2161
vn 0.0390 -0.9970 -0.0674
vn -0.8539 0.4641 -0.2353
vn 0.8790 0.3860 0.2798
vn -0.9569 -0.1276 -0.2608
vn 0.9285 -0.2435 0.2804
vn 0.7939 -0.5836 0.1707
vn 0.7293 0.6583 0.1865
vn -0.4312 -0.8900 -0.1485
vn -0.6641 0.7431 -0.0818
vn -0.9368 0.2839 -0.2042
vn 0.9582 0.1585 0.2382
vn 0.5371 -0.8418 0.0537
vn -0.8872 -0.3927 -0.2423
vn 0.9556 -0.2507 0.1551
vn 0.6373 0.7574 0.1420
vn 0.2107 -0.9755 -0.0639
vn -0.8313 0.5516 -0.0686
vn -0.9648 0.2402 -0.1070
vn -0.9506 -0.2496 -0.1845
vn 0.9242 -0.3658 0.1096
vn 0.9550 0.2650 0.1333
vn 0.1591 0.9836 0.0855
vn -0.5901 0.8070 0.0220
vn -0.6770 -0.7178 -0.1623
vn 0.5924 -0.8052 -0.0279
vn -0.2526 -0.9597 -0.1229
vn -0.0361 0.9957 0.0854
vn -0.9700 -0.2316 -0.0742
vn -0.6448 -0.7629 0.0482
vn -0.9367 -0.0953 0.3370
vn -0.8597 -0.5089 0.0437
vn -0.7935 0.4685 0.3883
vn -0.9199 0.3026 0.2496
vn -0.9632 0.2628 0.0565
vn -0.8037 -0.5924 -0.0562
vn -0.9983 -0.0085 0.0585
vn -0.8884 -0.2826 0.3619
vn -0.8803 -0.0186 0.4740
vn -0.6989 0.5253 0.4853
vn -0.6224 0.6127 0.4870
vn -0.4953 -0.8675 0.0462
vn -0.6230 -0.7724 0.1237
vn -0.4394 0.8368 0.3268
vn -0.0706 0.9685 0.2388
vn 0.0423 -0.9520 -0.3032
vn -0.3093 -0.9242 -0.2242
vn 0.4687 -0.8179 -0.3336
vn -0.4270 0.8700 0.2465
vn 0.0965 0.9703 0.2218
vn 0.0506 0.9577 0.2833
vn -0.9924 -0.1122 0.0498
vn -0.7709 0.6147 0.1670
vn -0.8371 -0.5274 -0.1453
vn -0.9857 0.1608 -0.0500
vn -0.8745 -0.4120 -0.2558
vn 0.9268 -0.3755 0.0102
vn 0.9817 0.1906 0.0052
vn 0.6610 0.7475 0.0656
vn 0.1215 -0.9845 -0.1262
vn -0.7767 0.6086 0.1620
vn -0.6725 -0.7367 -0.0707
vn -0.9578 0.2187 0.1866
vn -0.9516 -0.2871 0.1093
vn -0.8717 -0.3576 0.3351
vn -0.0316 -0.9779 -0.2065
vn 0.5951 0.7979 -0.0962
vn 0.6279 0.7781 -0.0175
vn 0.9152 0.2453 -0.3196
vn 0.8595 -0.2086 -0.4666
vn 0.8992 -0.3088 -0.3098
vn 0.8343 0.4243 -0.3521
vn 0.6248 -0.6805 -0.3829
vn 0.9093 0.4038 -0.1010
vn 0.6025 0.7933 0.0870
vn -0.0222 -0.9576 -0.2872
vn 0.9625 0.2656 -0.0555
vn 0.8643 -0.4760 -0.1623
vn 0.4664 -0.8473 -0.2543
vn -0.3957 -0.8605 -0.3208
vn -0.9454 0.3257 -0.0131
vn -0.5047 0.8403 0.1979
vn -0.8956 -0.3693 -0.2481
vn 0.9711 -0.2300 -0.0635
vn 0.6905 -0.7158 -0.1038
vn 0.4629 -0.8668 -0.1854
vn 0.0181 -0.9826 -0.1850
vn -0.1025 0.9861 0.1307
vn -0.6049 -0.7959 0.0249
vn -0.6797 0.6438 0.3515
vn -0.9144 -0.3464 0.2093
vn -0.9279 0.1591 0.3373
vn -0.3941 0.8716 0.2916
vn -0.7740 0.4501 0.4453
vn 0.7531 -0.4133 -0.5119
vn 0.4014 -0.8378 -0.3700
vn 0.9850 0.1510 0.0831
vn 0.7731 0.5822 0.2518
vn 0.1615 0.9333 0.3207
vn 0.4050 -0.8654 -0.2950
vn -0.0182 -0.9507 -0.3097
vn -0.4030 -0.8294 -0.3869
vn 0.7579 0.6521 -0.0188
vn 0.9904 0.0865 -0.1081
vn 0.3861 0.9224 -0.0065
vn 0.8539 -0.4898 -0.1760
vn 0.9691 -0.1154 -0.2180
vn 0.6583 -0.6841 -0.3140
vn 0.8561 0.4963 -0.1442
vn 0.5500 0.8307 -0.0863
vn 0.5725 -0.7204 -0.3915
vn 0.7621 0.6062 -0.2274
vn 0.8894 0.1478 -0.4327
vn -0.1113 0.9396 0.3236
vn -0.9586 0.2718 0.0848
vn -0.8693 0.4913 0.0537
vn 0.9479 -0.1105 -0.2989
vn 0.9166 0.2683 -0.2965
vn 0.8887 -0.1922 -0.4163
vn 0.9173 -0.3886 -0.0868
vn 0.4074 0.8431 0.3511
vn 0.9971 0.0238 0.0722
vn 0.2557 0.8847 0.3898
vn -0.6357 0.6966 0.3327
vn -0.4484 -0.7732 -0.4485
vn 0.7690 -0.5788 -0.2715
vn 0.1351 -0.8977 -0.4193
vn 0.8534 0.4695 0.2265
vn 0.2518 -0.8446 -0.4724
vn -0.3121 0.8627 0.3978
vn -0.9106 -0.3404 -0.2346
vn -0.5458 0.7335 0.4050
vn -0.9648 0.2239 0.1384
vn 0.7670 -0.5395 -0.3474
vn 0.9904 0.1360 0.0259
vn 0.0534 0.8637 0.5011
vn 0.0892 -0.8240 -0.5595
vn 0.0073 -0.5559 -0.8312
vn -0.5276 0.7235 0.4452
vn 0.4528 0.8352 0.3121
vn 0.9859 0.0637 -0.1548
vn 0.7043 -0.2509 -0.6641
vn -0.7252 -0.4321 -0.5361
vn -0.9236 0.3545 -0.1459
vn -0.7189 0.1742 -0.6729
vn -0.4423 0.8857 0.1410
vn -0.1508 0.1887 -0.9704
vn -0.0749 0.8370 -0.5421
vn 0.3575 0.2999 -0.8844
vn 0.3928 0.6456 -0.6549
vn 0.9359 0.3157 -0.1566
vn 0.5343 0.8385 -0.1070
s 1
f 2//1 3//2 1//3
f 7//4 2//1 1//3
f 16//5 3//2 2//1
f 3//2 4//6 1//3
f 5//7 1//3 4//6
f 7//4 8//8 9//9
f 7//4 1//3 8//8
f 1//3 10//10 8//8
f 1//3 5//7 10//10
f 10//10 5//7 11//11
f 8//8 10//10 13//12
f 13//12 14//13 8//8
f 10//10 11//11 13//12
f 11//11 15//14 13//12
f 16//5 2//1 17//15
f 18//16 16//5 17//15
f 19//17 3//2 16//5
f 18//16 19//17 16//5
f 20//18 19//17 18//16
f 3//2 6//19 4//6
f 6//19 5//7 4//6
f 19//17 6//19 3//2
f 21//20 6//19 19//17
f 6//19 23//21 5//7
f 6//19 24//22 23//21
f 6//19 21//20 24//22
f 22//23 24//22 21//20
f 9//9 17//15 7//4
f 17//15 2//1 7//4
f 17//15 9//9 25//24
f 25//24 9//9 26//25
f 11//11 5//7 12//26
f 5//7 23//21 12//26
f 12//26 23//21 27//27
f 28//28 11//11 12//26
f 28//28 15//14 11//11
f 29//29 18//16 17//15
f 25//24 29//29 17//15
f 20//18 21//20 19//17
f 20//18 18//16 29//29
f 30//30 21//20 20//18
f 22//23 21//20 30//30
f 31//31 27//27 23//21
f 24//22 31//31 23//21
f 31//31 24//22 22//23
f 30//30 20//18 29//29
f 33//32 30//30 29//29
f 22//23 30//30 34//33
f 29//29 25//24 26//25
f 9//9 32//34 35//35
f 12//26 27//27 28//28
f 14//13 32//34 8//8
f 26//25 33//32 29//29
f 33//32 34//33 30//30
f 9//9 35//35 26//25
f 9//9 8//8 32//34
f 15//14 36//36 13//12
f 34//33 31//31 22//23
f 34//33 38//37 31//31
f 28//28 36//36 15//14
f 14//13 13//12 36//36
f 39//38 14//13 36//36
f 37//39 34//33 33//32
f 26//25 40//40 33//32
f 38//37 34//33 37//39
f 33//32 40//40 37//39
f 41//41 31//31 38//37
f 39//38 32//34 14//13
f 32//34 42//42 35//35
f 43//43 36//36 28//28
f 39//38 36//36 45//44
f 38//37 37//39 46//45
f 40//40 26//25 47//46
f 47//46 26//25 35//35
f 27//27 43//43 28//28
f 43//43 45//44 36//36
f 32//34 39//38 44//47
f 44//47 42//42 32//34
f 39//38 45//44 44//47
f 46//45 37//39 48//48
f 48//48 37//39 40//40
f 38//37 46//45 41//41
f 31//31 41//41 50//49
f 47//46 35//35 49//50
f 43//43 51//51 45//44
f 52//52 53//53 45//44
f 53//53 44//47 45//44
f 45//44 51//51 52//52
f 48//48 58//54 46//45
f 54//55 41//41 46//45
f 31//31 55//56 27//27
f 31//31 50//49 55//56
f 49//50 35//35 42//42
f 43//43 56//57 51//51
f 56//57 43//43 27//27
f 42//42 44//47 57//58
f 53//53 57//58 44//47
f 54//55 46//45 58//54
f 40//40 58//54 48//48
f 47//46 58//54 40//40
f 59//59 47//46 49//50
f 59//59 58//54 47//46
f 55//56 56//57 27//27
f 49//50 42//42 60//60
f 55//56 61//61 56//57
f 62//62 57//58 53//53
f 42//42 57//58 60//60
f 53//53 52//52 62//62
f 65//63 64//64 66//65
f 67//66 68//67 64//64
f 64//64 68//67 66//65
f 50//49 41//41 54//55
f 51//51 56//57 52//52
f 52//52 56//57 63//68
f 63//68 62//62 52//52
f 69//69 57//58 62//62
f 63//68 70//70 62//62
f 71//71 72//72 73//73
f 72//72 74//74 73//73
f 75//75 76//76 71//71
f 71//71 65//63 75//75
f 73//73 67//66 64//64
f 73//73 77//77 67//66
f 73//73 78//78 77//77
f 65//63 79//79 75//75
f 73//73 64//64 71//71
f 64//64 65//63 71//71
f 65//63 81//80 79//79
f 65//63 66//65 81//80
f 82//81 79//79 81//80
f 68//67 67//66 77//77
f 77//77 83//82 68//67
f 84//83 77//77 80//84
f 68//67 85//85 66//65
f 84//83 83//82 77//77
f 87//86 68//67 83//82
f 88//87 81//80 66//65
f 88//87 66//65 85//85
f 68//67 89//88 85//85
f 68//67 87//86 89//88
f 88//87 85//85 89//88
f 90//89 88//87 89//88
f 58//54 91//90 54//55
f 91//90 58//54 59//59
f 92//91 54//55 91//90
f 93//92 50//49 54//55
f 49//50 60//60 94//93
f 94//93 59//59 49//50
f 57//58 69//69 60//60
f 63//68 56//57 95//94
f 61//61 95//94 56//57
f 96//95 94//93 60//60
f 69//69 96//95 60//60
f 63//68 95//94 70//70
f 69//69 62//62 70//70
f 95//94 97//96 70//70
f 69//69 70//70 96//95
f 70//70 97//96 98//97
f 99//98 72//72 76//76
f 72//72 71//71 76//76
f 79//79 100//99 75//75
f 74//74 78//78 73//73
f 80//84 77//77 78//78
f 101//100 105//101 80//84
f 106//102 104//103 107//104
f 103//105 105//101 101//100
f 103//105 106//102 105//101
f 79//79 82//81 102//106
f 102//106 107//104 104//103
f 106//102 108//107 105//101
f 105//101 108//107 109//108
f 108//107 106//102 107//104
f 105//101 109//108 80//84
f 82//81 81//80 86//109
f 107//104 102//106 82//81
f 109//108 84//83 80//84
f 110//110 108//107 107//104
f 110//110 107//104 111//111
f 109//108 108//107 110//110
f 82//81 86//109 112//112
f 111//111 107//104 82//81
f 82//81 112//112 111//111
f 113//113 81//80 88//87
f 88//87 90//89 113//113
f 113//113 86//109 81//80
f 87//86 115//114 89//88
f 87//86 114//115 115//114
f 83//82 114//115 87//86
f 89//88 116//116 90//89
f 54//55 92//91 93//92
f 91//90 117//117 92//91
f 91//90 59//59 118//118
f 117//117 91//90 118//118
f 55//56 50//49 93//92
f 118//118 59//59 94//93
f 118//118 94//93 119//119
f 55//56 93//92 61//61
f 96//95 121//120 94//93
f 120//121 95//94 61//61
f 70//70 98//97 96//95
f 96//95 98//97 122//122
f 122//122 121//120 96//95
f 121//120 122//122 100//99
f 124//123 97//96 95//94
f 95//94 120//121 124//123
f 98//97 97//96 123//124
f 97//96 125//125 123//124
f 98//97 123//124 122//122
f 123//124 76//76 122//122
f 97//96 124//123 125//125
f 124//123 120//121 126//126
f 76//76 100//99 122//122
f 125//125 99//98 123//124
f 127//127 125//125 124//123
f 125//125 127//127 72//72
f 126//126 120//121 78//78
f 76//76 123//124 99//98
f 125//125 72//72 99//98
f 72//72 127//127 74//74
f 126//126 78//78 74//74
f 76//76 75//75 100//99
f 78//78 101//100 80//84
f 128//128 102//106 104//103
f 100//99 79//79 142//129
f 79//79 102//106 142//129
f 142//129 102//106 128//128
f 103//105 104//103 106//102
f 109//108 110//110 129//130
f 110//110 111//111 129//130
f 109//108 130//131 84//83
f 130//131 109//108 129//130
f 114//115 83//82 131//132
f 112//112 86//109 132//133
f 84//83 131//132 83//82
f 84//83 130//131 131//132
f 86//109 113//113 133//134
f 113//113 90//89 134//135
f 133//134 113//113 134//135
f 115//114 116//116 89//88
f 93//92 92//91 135//136
f 117//117 136//137 92//91
f 93//92 137//138 61//61
f 118//118 119//119 138//139
f 118//118 138//139 117//117
f 92//91 136//137 135//136
f 136//137 138//139 139//140
f 136//137 117//117 138//139
f 120//121 61//61 137//138
f 137//138 93//92 135//136
f 119//119 94//93 121//120
f 138//139 119//119 140//141
f 137//138 135//136 149//142
f 119//119 121//120 140//141
f 141//143 120//121 137//138
f 121//120 100//99 142//129
f 140//141 121//120 142//129
f 140//141 142//129 143//144
f 120//121 141//143 78//78
f 144//145 101//100 141//143
f 145//146 103//105 144//145
f 78//78 141//143 101//100
f 142//129 128//128 143//144
f 145//146 128//128 104//103
f 104//103 103//105 145//146
f 103//105 101//100 144//145
f 132//133 86//109 133//134
f 111//111 112//112 132//133
f 146//147 114//115 131//132
f 134//135 90//89 116//116
f 115//114 147//148 116//116
f 115//114 114//115 147//148
f 147//148 114//115 148//149
f 136//137 149//142 135//136
f 136//137 139//140 149//142
f 140//141 139//140 138//139
f 150//150 139//140 140//141
f 139//140 150//150 149//142
f 149//142 150//150 151//151
f 151//151 141//143 149//142
f 137//138 149//142 141//143
f 150//150 152//152 151//151
f 150//150 140//141 152//152
f 140//141 143//144 152//152
f 128//128 152//152 143//144
f 141//143 151//151 144//145
f 151//151 152//152 145//146
f 151//151 145//146 144//145
f 152//152 128//128 145//146
f 129//130 111//111 154//153
f 154//153 111//111 132//133
f 131//132 155//154 146//147
f 153//155 130//131 129//130
f 133//134 134//135 132//133
f 146//147 155//154 158//156
f 146//147 157//157 148//149
f 158//156 157//157 146//147
f 156//158 134//135 116//116
f 153//155 129//130 154//153
f 131//132 130//131 155//154
f 153//155 155//154 130//131
f 132//133 159//159 154//153
f 132//133 134//135 160//160
f 159//159 132//133 160//160
f 156//158 160//160 134//135
f 148//149 157//157 147//148
f 153//155 154//153 159//159
f 158//156 155//154 162//161
f 162//161 155//154 153//155
f 163//162 160//160 156//158
f 160//160 163//162 159//159
f 158//156 161//163 157//157
f 116//116 147//148 164//164
f 165//165 147//148 157//157
f 157//157 161//163 165//165
f 164//164 156//158 116//116
f 147//148 166//166 164//164
f 170//167 153//155 159//159
f 162//161 153//155 167//168
f 167//168 153//155 170//167
f 170//167 159//159 163//162
f 168//169 161//163 158//156
f 162//161 168//169 158//156
f 169//170 170//167 163//162
f 165//165 161//163 168//169
f 147//148 165//165 166//166
f 169//170 163//162 156//158
f 169//170 177//171 170//167
f 165//165 171//172 166//166
f 171//172 165//165 168//169
f 162//161 172//173 168//169
f 172//173 162//161 167//168
f 167//168 170//167 173//174
f 177//171 174//175 170//167
f 170//167 174//175 173//174
f 156//158 164//164 176//176
f 176//176 169//170 156//158
f 177//171 169//170 176//176
f 166//166 171//172 178//177
f 166//166 178//177 164//164
f 176//176 164//164 178//177
f 176//176 178//177 179//178
f 171//172 175//179 178//177
f 167//168 173//174 172//173
f 172//173 175//179 171//172
f 168//169 172//173 171//172
f 177//171 176//176 179//178
f 180//180 177//171 179//178
f 184//181 181//182 180//180
f 182//183 181//182 184//181
f 180//180 174//175 177//171
f 181//182 174//175 180//180
f 173//174 183//184 172//173
f 173//174 174//175 183//184
f 178//177 175//179 184//181
f 178//177 184//181 179//178
f 184//181 180//180 179//178
f 172//173 185//185 175//179
f 185//185 184//181 175//179
f 185//185 182//183 184//181
f 185//185 172//173 183//184
