# Blender v2.78 (sub 0) OBJ File: 'exporter.blend'
# www.blender.org
o FJ2345.obj_grp1.1082
v -1.150568 -0.624844 3.566860
v -1.151270 -0.622451 3.566099
v -1.151581 -0.623074 3.564439
v -1.149612 -0.622445 3.567874
v -1.148092 -0.625043 3.568103
v -1.142462 -0.646835 3.545133
v -1.149994 -0.620447 3.565006
v -1.149020 -0.620940 3.567139
v -1.137943 -0.661881 3.525309
v -1.149668 -0.620711 3.563104
v -1.146940 -0.621874 3.567894
v -1.145992 -0.624208 3.567522
v -1.135059 -0.651708 3.537745
v -1.147175 -0.620006 3.564097
v -1.145639 -0.621417 3.566155
v -1.146033 -0.620629 3.564245
v -1.141140 -0.641525 3.541438
v -1.137715 -0.647126 3.535611
v -1.145435 -0.621156 3.565916
v -1.134573 -0.650570 3.534715
v -1.141427 -0.644271 3.548853
v -1.136527 -0.652141 3.539371
v -1.142866 -0.646399 3.539321
v -1.136186 -0.660506 3.530382
v -1.139273 -0.649021 3.533467
v -1.136061 -0.665805 3.516204
v -1.137296 -0.659614 3.522250
v -1.134570 -0.667361 3.520970
v -1.132527 -0.657145 3.525330
v -1.132177 -0.666386 3.522313
v -1.133026 -0.666515 3.510639
v -1.132914 -0.674641 3.508454
v -1.131254 -0.681239 3.493392
v -1.133367 -0.674656 3.503598
v -1.128511 -0.669203 3.514183
v -1.131502 -0.664513 3.513413
v -1.128934 -0.673282 3.511100
v -1.128507 -0.668737 3.508496
v -1.129040 -0.679372 3.501920
v -1.129175 -0.684402 3.490217
v -1.129574 -0.673393 3.497984
v -1.130177 -0.677331 3.491627
v -1.129558 -0.683993 3.479625
v -1.125624 -0.675880 3.498497
v -1.126590 -0.679299 3.499981
v -1.129574 -0.673393 3.497984
v -1.125814 -0.681694 3.479671
v -1.125324 -0.690253 3.476771
v -1.127148 -0.692874 3.457410
v -1.124948 -0.690878 3.455748
v -1.123687 -0.683587 3.487046
v -1.124171 -0.686593 3.483569
v -1.120671 -0.691653 3.457388
v -1.123933 -0.697059 3.457834
v -1.120897 -0.695774 3.457540
v -1.125875 -0.695917 3.456253
v -1.126183 -0.693694 3.455178
v -1.123497 -0.696231 3.455532
v -1.123738 -0.694428 3.454315
v -1.123469 -0.692412 3.454313
v -1.120107 -0.694054 3.457592
v -1.122179 -0.696629 3.457158
v -1.120926 -0.694727 3.455854
v -1.120921 -0.693049 3.455428
v -1.122427 -0.690799 3.455678
vn -0.7159 -0.4362 0.5452
vn -0.8822 0.2668 0.3880
vn -0.9832 0.1095 -0.1459
vn -0.4122 0.2296 0.8817
vn -0.0511 -0.4293 0.9017
vn -0.5905 -0.6841 0.4282
vn -0.5375 0.8419 0.0472
vn -0.2012 0.7665 0.6099
vn -0.8730 -0.4752 0.1100
vn -0.4458 0.7393 -0.5046
vn -0.8270 0.2401 -0.5084
vn 0.3542 0.4538 0.8177
vn 0.6606 -0.1857 0.7274
vn 0.2266 0.9589 -0.1710
vn 0.5007 0.5801 0.6425
vn 0.6455 0.7485 -0.1516
vn -0.2687 0.6409 -0.7190
vn 0.3424 0.7379 -0.5816
vn 0.9102 -0.1853 0.3705
vn 0.9526 0.2504 0.1728
vn 0.0729 -0.6925 0.7177
vn 0.4822 -0.5969 0.6412
vn 0.8793 0.4634 -0.1100
vn -0.1296 -0.7907 0.5983
vn -0.3617 0.6424 -0.6757
vn -0.6947 0.4565 -0.5559
vn -0.3570 -0.8154 0.4557
vn -0.9182 0.1824 -0.3517
vn 0.0104 0.8061 -0.5917
vn 0.4417 -0.6666 0.6004
vn -0.4018 0.7280 -0.5555
vn -0.5720 -0.7495 0.3332
vn -0.8950 -0.4436 0.0475
vn -0.9458 0.1929 -0.2611
vn 0.9408 -0.1449 0.3064
vn 0.1895 0.8220 -0.5370
vn 0.3496 0.8070 -0.4759
vn -0.4356 -0.8487 0.3000
vn 0.0243 -0.8930 0.4495
vn -0.2100 0.8521 -0.4794
vn -0.6058 0.6751 -0.4210
vn -0.9344 0.2757 -0.2255
vn 0.5404 -0.6674 0.5125
vn 0.9512 0.3086 0.0042
vn 0.7040 -0.5941 0.3891
vn 0.1580 0.9036 -0.3983
vn 0.2230 0.9105 -0.3483
vn 0.0928 -0.9297 0.3564
vn -0.4132 0.6826 -0.6027
vn 0.9463 -0.2234 0.2336
vn 0.6221 -0.6972 0.3563
vn 0.8425 0.4923 -0.2188
vn -0.1008 -0.9928 0.0650
vn 0.7172 -0.6969 -0.0034
vn -0.9627 0.0685 -0.2619
vn -0.6309 -0.6904 -0.3539
vn -0.6962 -0.0220 -0.7175
vn 0.0575 -0.7501 -0.6588
vn -0.0366 -0.2925 -0.9556
vn 0.0161 0.2878 -0.9576
vn 0.9892 -0.1283 -0.0712
vn 0.4420 -0.8958 -0.0457
vn 0.6906 -0.3755 -0.6181
vn 0.3731 0.7387 -0.5614
vn 0.7355 0.1363 -0.6636
s 1
f 1//1 2//2 3//3
f 2//2 1//1 4//4
f 4//4 1//1 5//5
f 5//5 1//1 6//6
f 2//2 7//7 3//3
f 4//4 8//8 2//2
f 8//8 7//7 2//2
f 1//1 3//3 9//9
f 10//10 3//3 7//7
f 3//3 10//10 23//11
f 8//8 4//4 11//12
f 11//12 4//4 5//5
f 5//5 12//13 11//12
f 8//8 14//14 7//7
f 14//14 10//10 7//7
f 12//13 15//15 11//12
f 8//8 11//12 14//14
f 15//15 14//14 11//12
f 14//14 15//15 16//16
f 17//17 10//10 14//14
f 16//16 18//18 14//14
f 18//18 17//17 14//14
f 12//13 13//19 19//20
f 15//15 12//13 19//20
f 21//21 22//22 12//13
f 12//13 22//22 13//19
f 12//13 5//5 21//21
f 21//21 5//5 6//6
f 10//10 17//17 23//11
f 6//6 1//1 9//9
f 9//9 3//3 23//11
f 20//23 16//16 19//20
f 16//16 20//23 18//18
f 24//24 21//21 6//6
f 23//11 17//17 25//25
f 27//26 23//11 25//25
f 28//27 6//6 9//9
f 28//27 24//24 6//6
f 26//28 23//11 27//26
f 23//11 26//28 9//9
f 19//20 13//19 20//23
f 29//29 18//18 20//23
f 24//24 30//30 22//22
f 21//21 24//24 22//22
f 13//19 22//22 30//30
f 25//25 17//17 18//18
f 31//31 25//25 18//18
f 28//27 9//9 32//32
f 27//26 25//25 31//31
f 32//32 9//9 33//33
f 9//9 34//34 33//33
f 24//24 28//27 30//30
f 30//30 35//35 13//19
f 29//29 36//36 18//18
f 36//36 31//31 18//18
f 29//29 38//37 36//36
f 40//38 32//32 33//33
f 30//30 28//27 39//39
f 39//39 28//27 32//32
f 27//26 31//31 26//28
f 36//36 41//40 31//31
f 39//39 32//32 40//38
f 42//41 26//28 31//31
f 41//40 42//41 31//31
f 9//9 26//28 34//34
f 26//28 42//41 34//34
f 42//41 43//42 34//34
f 20//23 13//19 35//35
f 37//43 35//35 30//30
f 29//29 20//23 38//37
f 20//23 44//44 38//37
f 37//43 45//45 35//35
f 20//23 35//35 44//44
f 30//30 39//39 37//43
f 39//39 45//45 37//43
f 36//36 38//37 46//46
f 47//47 46//46 38//37
f 39//39 40//38 48//48
f 34//34 43//42 33//33
f 50//49 43//42 42//41
f 45//45 51//50 35//35
f 44//44 35//35 51//50
f 52//51 51//50 45//45
f 38//37 44//44 47//47
f 52//51 45//45 39//39
f 47//47 44//44 53//52
f 52//51 39//39 48//48
f 47//47 42//41 41//40
f 48//48 40//38 54//53
f 52//51 48//48 55//54
f 50//49 42//41 47//47
f 49//55 43//42 50//49
f 55//54 48//48 54//53
f 33//33 43//42 49//55
f 40//38 33//33 56//56
f 56//56 33//33 49//55
f 57//57 56//56 49//55
f 56//56 54//53 40//38
f 56//56 58//58 54//53
f 50//49 57//57 49//55
f 59//59 56//56 57//57
f 57//57 60//60 59//59
f 51//50 52//51 55//54
f 61//61 44//44 51//50
f 53//52 44//44 61//61
f 51//50 55//54 61//61
f 58//58 62//62 54//53
f 63//63 62//62 58//58
f 63//63 58//58 59//59
f 55//54 54//53 62//62
f 55//54 62//62 63//63
f 60//60 57//57 50//49
f 65//64 60//60 50//49
f 47//47 65//64 50//49
f 65//64 64//65 60//60
f 47//47 53//52 65//64
f 64//65 65//64 53//52
f 58//58 56//56 59//59
f 59//59 60//60 64//65
f 63//63 59//59 64//65
f 61//61 55//54 63//63
f 53//52 61//61 64//65
f 64//65 61//61 63//63
