# Blender v2.78 (sub 0) OBJ File: 'exporter.blend'
# www.blender.org
o FJ2366.obj_grp1.1103
v -1.202774 -0.680333 3.423979
v -1.201520 -0.678854 3.429490
v -1.202894 -0.676952 3.429798
v -1.203268 -0.674965 3.428889
v -1.203874 -0.675917 3.426238
v -1.202529 -0.673525 3.427629
v -1.202607 -0.689217 3.392664
v -1.200596 -0.676792 3.430797
v -1.199962 -0.679964 3.427986
v -1.199771 -0.678412 3.430012
v -1.198209 -0.678037 3.429501
v -1.200563 -0.674545 3.430293
v -1.199458 -0.676334 3.430620
v -1.200403 -0.672859 3.426984
v -1.199826 -0.673297 3.428796
v -1.200455 -0.682534 3.402256
v -1.200445 -0.690205 3.398970
v -1.201782 -0.689769 3.383928
v -1.201169 -0.703866 3.354086
v -1.198697 -0.688570 3.404099
v -1.202490 -0.705325 3.343662
v -1.203176 -0.720144 3.299275
v -1.202837 -0.718294 3.308618
v -1.197300 -0.675248 3.428466
v -1.197082 -0.677455 3.427774
v -1.197910 -0.674019 3.427591
v -1.197196 -0.685148 3.410709
v -1.196649 -0.695368 3.367565
v -1.196010 -0.691484 3.385759
v -1.198181 -0.685266 3.394200
v -1.196957 -0.693561 3.386190
v -1.199414 -0.712638 3.328843
v -1.198536 -0.699184 3.351430
v -1.202001 -0.712217 3.315625
v -1.199764 -0.708149 3.324555
v -1.199330 -0.719726 3.308557
v -1.201810 -0.721654 3.303424
v -1.199971 -0.718286 3.298790
v -1.201962 -0.721407 3.292418
v -1.201236 -0.731149 3.282595
v -1.202868 -0.730783 3.281423
v -1.202905 -0.730512 3.274945
v -1.201220 -0.732005 3.270403
v -1.198993 -0.728271 3.279203
v -1.200177 -0.737639 3.260983
v -1.203381 -0.745850 3.250667
v -1.202387 -0.741592 3.262473
v -1.203248 -0.748705 3.248580
v -1.202238 -0.742684 3.252935
v -1.199754 -0.734014 3.275934
v -1.202073 -0.753018 3.245094
v -1.202034 -0.753311 3.244621
v -1.200468 -0.752099 3.246428
v -1.200451 -0.747738 3.245431
v -1.201857 -0.754940 3.235699
v -1.202859 -0.766571 3.224111
v -1.201715 -0.772374 3.220777
v -1.201358 -0.772776 3.215156
v -1.199669 -0.764437 3.224347
v -1.200798 -0.781975 3.210786
v -1.200546 -0.793333 3.195133
v -1.200189 -0.796254 3.197146
v -1.200999 -0.803033 3.188834
v -1.197343 -0.711692 3.321583
v -1.197872 -0.716851 3.312454
v -1.198164 -0.711922 3.316564
v -1.198818 -0.732605 3.276609
v -1.198979 -0.747169 3.250516
v -1.199608 -0.762786 3.231745
v -1.198979 -0.747169 3.250516
v -1.199172 -0.744304 3.252280
v -1.198730 -0.771011 3.218458
v -1.198607 -0.775085 3.216188
v -1.199260 -0.782438 3.210031
v -1.198070 -0.789183 3.201688
v -1.198067 -0.789281 3.201594
v -1.198833 -0.786096 3.201976
v -1.200080 -0.796826 3.196563
v -1.197624 -0.814043 3.181565
v -1.197988 -0.809279 3.181852
v -1.196296 -0.830367 3.167186
v -1.199365 -0.817195 3.175803
v -1.198200 -0.822253 3.175682
v -1.198522 -0.841999 3.159659
v -1.196664 -0.834435 3.166631
v -1.198519 -0.840393 3.162130
v -1.197597 -0.835836 3.162420
v -1.197691 -0.839967 3.163190
v -1.197698 -0.840409 3.162907
v -1.198524 -0.840751 3.161919
v -1.195531 -0.847355 3.156955
v -1.197549 -0.858340 3.151112
v -1.194853 -0.867777 3.146201
v -1.196109 -0.844847 3.157240
v -1.197053 -0.859305 3.150991
v -1.197340 -0.860439 3.148629
v -1.196950 -0.859539 3.150995
v -1.195787 -0.868147 3.143911
v -1.194712 -0.868468 3.144514
v -1.194660 -0.885064 3.138558
v -1.195628 -0.884253 3.138789
v -1.194661 -0.885138 3.138522
v -1.196244 -0.883749 3.138165
v -1.195471 -0.885377 3.136121
v -1.193402 -0.903526 3.130263
v -1.194851 -0.904931 3.130298
v -1.194242 -0.904693 3.130823
v -1.193800 -0.904439 3.130745
v -1.194713 -0.904551 3.130775
v -1.194404 -0.904726 3.129863
v -1.194851 -0.904566 3.129767
v -1.194286 -0.903767 3.129267
v -1.194252 -0.904655 3.130770
v -1.194707 -0.904547 3.130765
v -1.194247 -0.904810 3.130338
v -1.194716 -0.904758 3.130319
v -1.194247 -0.904810 3.130338
v -1.194313 -0.904739 3.129859
v -1.193824 -0.904429 3.130718
v -1.194252 -0.904655 3.130770
v -1.193862 -0.904533 3.129808
v -1.193862 -0.904533 3.129808
v -1.193559 -0.904422 3.130261
v -1.193627 -0.904406 3.130244
v -1.193661 -0.904037 3.129659
v -1.193627 -0.904406 3.130244
v -1.193862 -0.904533 3.129808
v -1.193477 -0.903570 3.130249
v -1.193679 -0.904026 3.129690
v -1.194848 -0.867793 3.146192
vn -0.9792 0.2024 -0.0122
vn -0.7190 -0.1952 0.6670
vn -0.7822 0.3558 0.5115
vn -0.7350 -0.6448 0.2098
vn -0.3638 -0.6836 0.6327
vn -0.5520 0.8285 0.0942
vn -0.9993 -0.0349 -0.0141
vn 0.1844 -0.5991 0.7791
vn -0.1400 -0.1075 0.9843
vn 0.1574 -0.8965 0.4142
vn 0.6397 -0.4551 0.6194
vn -0.0404 0.5567 0.8297
vn 0.4045 0.0983 0.9092
vn 0.2003 0.8442 0.4972
vn 0.0376 0.9939 -0.1033
vn -0.3268 0.8759 -0.3551
vn -0.3136 -0.9118 0.2653
vn -0.8306 0.5230 -0.1911
vn -0.6591 -0.7100 0.2481
vn -0.9702 -0.2241 0.0922
vn -0.9634 0.2426 -0.1138
vn 0.8680 0.3054 0.3916
vn 0.6632 0.7472 0.0439
vn 0.9419 -0.2379 0.2370
vn 0.7785 -0.5823 0.2341
vn 0.8523 0.4936 -0.1733
vn 0.9990 -0.0447 0.0007
vn 0.2601 -0.9127 0.3153
vn 0.2481 0.9159 -0.3155
vn 0.6667 -0.7141 0.2136
vn 0.1154 -0.9556 0.2711
vn 0.3560 0.8808 -0.3121
vn -0.6113 0.7365 -0.2897
vn 0.0342 0.9460 -0.3223
vn -0.8819 -0.4343 0.1834
vn -0.4386 -0.8201 0.3675
vn -0.4705 0.8028 -0.3663
vn 0.3263 -0.8834 0.3365
vn -0.2446 -0.9150 0.3208
vn 0.2354 0.8988 -0.3699
vn -0.6336 -0.7293 0.2582
vn 0.4766 -0.7874 0.3911
vn -0.7691 0.5739 -0.2813
vn -0.0338 0.8746 -0.4836
vn 0.7551 0.5910 -0.2838
vn 0.3929 0.7781 -0.4901
vn -0.9524 0.2267 -0.2037
vn -0.4147 -0.7885 0.4542
vn -0.9525 -0.2684 0.1439
vn -0.4132 0.7690 -0.4878
vn 0.0907 -0.8599 0.5024
vn -0.4242 -0.6997 0.5748
vn 0.3286 -0.7545 0.5682
vn 0.3476 0.7543 -0.5569
vn -0.3739 0.7200 -0.5846
vn -0.9782 0.1138 -0.1737
vn -0.6229 -0.6047 0.4964
vn -0.4410 0.6345 -0.6348
vn 0.4444 0.6971 -0.5627
vn -0.2447 -0.6760 0.6951
vn -0.4892 0.5571 -0.6711
vn -0.9980 -0.0432 -0.0463
vn -0.7094 -0.5240 0.4713
vn 0.9861 0.1437 -0.0839
vn 0.8417 -0.4966 0.2118
vn 0.6891 0.6613 -0.2965
vn 0.9417 -0.2913 0.1684
vn 0.8617 0.3853 -0.3302
vn 0.8506 -0.4466 0.2777
vn 0.6567 -0.5861 0.4746
vn 0.9896 0.1194 -0.0799
vn 0.9303 0.2606 -0.2580
vn 0.9615 -0.1954 0.1930
vn 0.4858 -0.6395 0.5959
vn 0.6477 -0.5281 0.5491
vn 0.9855 0.1654 -0.0372
vn 0.5286 0.5907 -0.6097
vn 0.6172 -0.5071 0.6016
vn 0.6001 -0.5119 0.6146
vn 0.5113 0.5380 -0.6702
vn 0.9066 0.2539 -0.3372
vn -0.5062 0.4901 -0.7096
vn -0.1105 -0.5752 0.8105
vn 0.6719 -0.4231 0.6080
vn -0.8995 0.1739 -0.4009
vn -0.8500 -0.2936 0.4374
vn -0.0935 0.5381 -0.8377
vn -0.6525 -0.4378 0.6185
vn -0.0453 -0.5515 0.8330
vn -0.9999 0.0007 -0.0169
vn 0.9971 0.0704 -0.0293
vn -0.9286 -0.2671 0.2576
vn 0.5185 0.4381 -0.7343
vn 0.3758 -0.3592 0.8542
vn -0.2589 -0.5115 0.8194
vn -0.7688 0.2803 -0.5748
vn -0.5628 -0.4091 0.7182
vn -0.0127 0.4317 -0.9019
vn 0.9042 0.2154 -0.3688
vn 0.4143 -0.3641 0.8341
vn -0.5120 -0.4251 0.7464
vn -0.9983 -0.0393 -0.0431
vn -0.1388 0.3223 -0.9364
vn 0.3653 -0.3266 0.8717
vn 0.9877 0.1253 -0.0934
vn -0.6541 -0.2929 0.6974
vn -0.7296 -0.6450 -0.2275
vn 0.0710 -0.3598 0.9303
vn 0.6959 -0.2037 0.6887
vn -0.0442 0.0589 -0.9973
vn -0.6729 -0.4049 -0.6191
vn 0.0730 -0.9316 -0.3561
vn -0.2148 -0.9180 0.3333
vn -0.1667 -0.9100 0.3797
vn -0.1666 -0.9101 0.3795
vn -0.1179 -0.8978 0.4244
vn 0.4685 -0.8832 -0.0235
vn 0.0531 -0.5191 -0.8531
vn 0.5156 -0.8205 0.2468
vn 0.4707 -0.8277 0.3055
vn 0.4370 -0.8874 -0.1471
vn 0.2180 -0.4819 -0.8487
vn 0.5543 -0.8292 0.0722
vn 0.8914 -0.1590 -0.4243
vn 0.9345 -0.2589 -0.2443
vn 0.9345 -0.2589 -0.2442
vn 0.9363 -0.3472 -0.0534
vn 0.5610 0.0097 -0.8277
vn 0.8833 -0.1402 0.4473
vn 0.9860 -0.0502 0.1587
s 1
f 5//1 3//2 4//3
f 1//4 3//2 5//1
f 3//2 1//4 2//5
f 5//1 4//3 6//6
f 7//7 1//4 5//1
f 10//8 8//9 2//5
f 10//8 2//5 9//10
f 11//11 10//8 9//10
f 4//3 3//2 12//12
f 12//12 3//2 8//9
f 8//9 3//2 2//5
f 10//8 13//13 8//9
f 13//13 12//12 8//9
f 12//12 6//6 4//3
f 6//6 12//12 15//14
f 14//15 6//6 15//14
f 5//1 6//6 16//16
f 6//6 14//15 16//16
f 2//5 1//4 17//17
f 9//10 2//5 17//17
f 7//7 5//1 18//18
f 19//19 17//17 1//4
f 5//1 16//16 18//18
f 7//7 19//19 1//4
f 7//7 18//18 21//20
f 7//7 21//20 19//19
f 21//20 18//18 22//21
f 10//8 11//11 13//13
f 12//12 13//13 24//22
f 11//11 24//22 13//13
f 24//22 15//14 12//12
f 24//22 26//23 15//14
f 24//22 11//11 25//24
f 15//14 26//23 14//15
f 11//11 27//25 25//24
f 24//22 28//26 26//23
f 27//25 11//11 9//10
f 24//22 25//24 29//27
f 27//25 9//10 20//28
f 28//26 24//22 29//27
f 14//15 26//23 30//29
f 20//28 9//10 17//17
f 30//29 16//16 14//15
f 26//23 28//26 30//29
f 25//24 27//25 29//27
f 27//25 31//30 29//27
f 31//30 27//25 20//28
f 32//31 20//28 17//17
f 31//30 20//28 32//31
f 30//29 33//32 16//16
f 28//26 33//32 30//29
f 16//16 34//33 18//18
f 32//31 17//17 19//19
f 35//34 34//33 16//16
f 33//32 35//34 16//16
f 23//35 19//19 21//20
f 19//19 23//35 32//31
f 32//31 23//35 37//36
f 22//21 18//18 34//33
f 35//34 39//37 34//33
f 21//20 22//21 23//35
f 36//38 32//31 37//36
f 36//38 37//36 40//39
f 38//40 39//37 35//34
f 41//41 37//36 23//35
f 40//39 37//36 41//41
f 34//33 39//37 22//21
f 22//21 41//41 23//35
f 50//42 36//38 40//39
f 39//37 42//43 22//21
f 43//44 39//37 38//40
f 38//40 44//45 43//44
f 42//43 39//37 43//44
f 44//45 45//46 43//44
f 42//43 46//47 22//21
f 40//39 41//41 47//48
f 22//21 48//49 41//41
f 42//43 49//50 46//47
f 43//44 49//50 42//43
f 47//48 41//41 48//49
f 40//39 47//48 50//42
f 50//42 47//48 51//51
f 22//21 46//47 48//49
f 48//49 52//52 47//48
f 53//53 50//42 51//51
f 45//46 49//50 43//44
f 45//46 54//54 49//50
f 46//47 49//50 55//55
f 53//53 51//51 52//52
f 54//54 55//55 49//50
f 46//47 55//55 56//56
f 57//57 52//52 48//49
f 52//52 57//57 53//53
f 46//47 56//56 48//49
f 56//56 55//55 58//58
f 59//59 58//58 55//55
f 48//49 56//56 57//57
f 60//60 57//57 56//56
f 56//56 58//58 61//61
f 56//56 61//61 63//62
f 62//63 60//60 56//56
f 62//63 56//56 63//62
f 29//27 64//64 28//26
f 31//30 32//31 65//65
f 65//65 29//27 31//30
f 29//27 65//65 64//64
f 28//26 66//66 33//32
f 28//26 64//64 66//66
f 66//66 35//34 33//32
f 32//31 36//38 65//65
f 66//66 38//40 35//34
f 65//65 67//67 64//64
f 65//65 36//38 50//42
f 66//66 44//45 38//40
f 50//42 67//67 65//65
f 66//66 64//64 44//45
f 67//67 44//45 64//64
f 67//67 50//42 53//53
f 71//68 45//46 44//45
f 68//69 67//67 53//53
f 53//53 69//70 68//69
f 67//67 70//71 44//45
f 71//68 54//54 45//46
f 71//68 44//45 70//71
f 54//54 71//68 59//59
f 72//72 68//69 69//70
f 70//71 72//72 71//68
f 59//59 55//55 54//54
f 71//68 72//72 59//59
f 73//73 72//72 69//70
f 69//70 53//53 57//57
f 69//70 57//57 60//60
f 74//74 69//70 60//60
f 74//74 73//73 69//70
f 73//73 74//74 75//75
f 73//73 76//76 72//72
f 72//72 77//77 59//59
f 74//74 60//60 78//78
f 74//74 78//78 75//75
f 58//58 77//77 61//61
f 58//58 59//59 77//77
f 78//78 79//79 75//75
f 76//76 77//77 72//72
f 77//77 76//76 80//80
f 79//79 76//76 75//75
f 79//79 81//81 76//76
f 61//61 77//77 80//80
f 61//61 80//80 82//82
f 62//63 63//62 83//83
f 78//78 62//63 83//83
f 61//61 82//82 63//62
f 76//76 81//81 80//80
f 78//78 83//83 79//79
f 85//84 81//81 79//79
f 63//62 82//82 84//85
f 63//62 84//85 86//86
f 86//86 83//83 63//62
f 79//79 83//83 85//84
f 80//80 87//87 82//82
f 81//81 87//87 80//80
f 83//83 86//86 88//88
f 85//84 83//83 89//89
f 90//90 86//86 84//85
f 81//81 85//84 91//91
f 90//90 84//85 92//92
f 84//85 82//82 87//87
f 81//81 94//93 87//87
f 88//88 86//86 92//92
f 93//94 85//84 89//89
f 89//89 95//95 93//94
f 92//92 84//85 96//96
f 88//88 92//92 97//97
f 87//87 96//96 84//85
f 87//87 98//98 96//96
f 94//93 98//98 87//87
f 99//99 98//98 94//93
f 95//95 100//100 93//94
f 92//92 101//101 97//97
f 101//101 92//92 103//102
f 92//92 96//96 103//102
f 103//102 96//96 104//103
f 102//104 97//97 101//101
f 96//96 98//98 104//103
f 99//99 104//103 98//98
f 105//105 104//103 99//99
f 109//106 101//101 106//107
f 106//107 101//101 103//102
f 107//108 102//104 101//101
f 107//108 101//101 109//106
f 102//104 107//108 108//109
f 105//105 102//104 108//109
f 105//105 112//110 104//103
f 111//111 110//112 106//107
f 113//113 114//114 115//115
f 115//115 114//114 116//116
f 117//117 106//107 110//112
f 118//118 111//111 112//110
f 119//119 120//120 117//117
f 121//121 117//117 110//112
f 112//110 122//122 118//118
f 117//117 124//123 119//119
f 121//121 124//123 117//117
f 126//124 127//125 128//126
f 128//126 127//125 129//127
f 125//128 122//122 112//110
f 103//102 104//103 111//111
f 106//107 103//102 111//111
f 112//110 111//111 104//103
f 108//109 123//129 105//105
f 112//110 105//105 125//128
f 91//91 99//99 94//93
f 91//91 94//93 81//81
f 85//84 93//94 91//91
f 91//91 130//130 99//99
f 102//104 99//99 130//130
f 105//105 99//99 102//104
