# Blender v2.78 (sub 0) OBJ File: 'exporter.blend'
# www.blender.org
o FJ2367.obj_grp1.1104
v -1.289153 -0.908504 3.081786
v -1.285344 -0.895765 3.089144
v -1.287435 -0.902359 3.084565
v -1.288391 -0.909181 3.082361
v -1.289097 -0.908439 3.081782
v -1.287435 -0.902359 3.084565
v -1.288914 -0.908908 3.081833
v -1.288383 -0.909284 3.081875
v -1.288523 -0.908628 3.080928
v -1.287930 -0.909255 3.081928
v -1.287949 -0.909158 3.082412
v -1.287914 -0.909119 3.082345
v -1.288369 -0.909157 3.082326
v -1.287919 -0.909255 3.081899
v -1.288383 -0.909284 3.081875
v -1.288494 -0.908584 3.081175
v -1.288028 -0.908594 3.080998
v -1.288031 -0.908593 3.081007
v -1.285359 -0.894854 3.088906
v -1.285318 -0.895524 3.089321
v -1.284205 -0.895009 3.090245
v -1.285894 -0.897218 3.086631
v -1.285379 -0.894819 3.088931
v -1.285020 -0.899032 3.087299
v -1.286078 -0.902505 3.085640
v -1.285380 -0.902081 3.084462
v -1.284215 -0.896754 3.088945
v -1.287813 -0.909192 3.081234
v -1.288017 -0.909148 3.082123
v -1.287806 -0.908467 3.082810
v -1.282802 -0.885017 3.095664
v -1.283195 -0.893411 3.091090
v -1.281313 -0.884632 3.097710
v -1.281313 -0.884632 3.097710
v -1.279215 -0.875295 3.104734
v -1.283492 -0.889115 3.093889
v -1.284890 -0.896252 3.086803
v -1.282802 -0.885017 3.095664
v -1.281748 -0.888327 3.092852
v -1.273843 -0.858912 3.115706
v -1.271504 -0.844714 3.124307
v -1.272417 -0.843299 3.128038
v -1.273220 -0.851981 3.122155
v -1.279215 -0.875295 3.104734
v -1.273220 -0.851981 3.122155
v -1.269237 -0.840159 3.128793
v -1.272184 -0.843126 3.125886
v -1.270591 -0.846225 3.124967
v -1.270591 -0.846225 3.124967
v -1.270829 -0.836154 3.132581
v -1.267144 -0.825080 3.145612
v -1.271314 -0.842634 3.129615
v -1.267924 -0.832644 3.139032
v -1.271314 -0.842634 3.129615
v -1.266397 -0.830062 3.141201
v -1.268816 -0.833218 3.134229
v -1.270145 -0.843155 3.128967
v -1.270145 -0.843155 3.128967
v -1.266140 -0.830721 3.139691
v -1.262925 -0.814230 3.158861
v -1.265356 -0.819131 3.149021
v -1.259499 -0.808844 3.161293
v -1.264815 -0.823217 3.144569
v -1.256052 -0.788620 3.188314
v -1.260721 -0.807194 3.162238
v -1.257615 -0.798442 3.178686
v -1.260081 -0.810370 3.163520
v -1.260129 -0.812582 3.159897
v -1.247697 -0.762971 3.219099
v -1.251414 -0.786791 3.191894
v -1.254240 -0.791589 3.182434
v -1.245757 -0.756654 3.233564
v -1.246126 -0.763964 3.224768
v -1.244206 -0.756540 3.227694
v -1.239150 -0.743132 3.246557
v -1.244318 -0.745095 3.243887
v -1.244357 -0.746723 3.244289
v -1.235901 -0.721717 3.277988
v -1.237512 -0.731386 3.265933
v -1.235736 -0.730929 3.265365
v -1.234641 -0.712634 3.287658
v -1.236763 -0.718804 3.276435
v -1.240165 -0.732328 3.257484
v -1.235530 -0.721242 3.270872
v -1.231198 -0.709490 3.296974
v -1.231655 -0.703635 3.302668
v -1.231778 -0.703922 3.298077
v -1.231198 -0.709490 3.296974
v -1.232827 -0.718241 3.283792
v -1.229277 -0.711501 3.292570
v -1.232827 -0.718241 3.283792
v -1.231889 -0.720624 3.277267
v -1.231233 -0.716027 3.279757
v -1.229421 -0.696183 3.316844
v -1.227393 -0.690486 3.323600
v -1.228886 -0.700504 3.312378
v -1.228935 -0.707081 3.301298
v -1.227667 -0.696314 3.309439
v -1.232001 -0.709214 3.287591
v -1.228118 -0.703717 3.297092
v -1.221630 -0.681346 3.365487
v -1.223017 -0.680500 3.359039
v -1.224020 -0.681945 3.348853
v -1.219224 -0.682472 3.368703
v -1.224529 -0.688107 3.343492
v -1.225489 -0.685159 3.345001
v -1.220971 -0.685941 3.353395
v -1.224724 -0.685142 3.336080
v -1.224921 -0.694167 3.327880
v -1.226908 -0.697881 3.318867
v -1.224309 -0.687750 3.328125
v -1.226577 -0.704402 3.304379
v -1.222806 -0.693109 3.328298
v -1.222777 -0.690489 3.324865
v -1.225448 -0.696035 3.311252
v -1.225728 -0.701889 3.303878
v -1.228935 -0.707081 3.301298
v -1.203408 -0.674783 3.427512
v -1.219255 -0.677563 3.375111
v -1.216649 -0.675403 3.376312
v -1.213208 -0.674492 3.390085
v -1.219729 -0.677377 3.363643
v -1.215800 -0.681688 3.376656
v -1.215084 -0.676061 3.372478
v -1.220995 -0.680599 3.349881
v -1.216929 -0.682631 3.361750
v -1.220864 -0.688019 3.344184
v -1.218905 -0.684195 3.348049
v -1.201990 -0.673145 3.426508
v -1.209804 -0.678750 3.403915
v -1.211770 -0.680736 3.388474
v -1.207902 -0.673558 3.397787
v -1.216703 -0.678567 3.362497
v -1.213549 -0.679613 3.372658
v -1.206035 -0.679960 3.402532
v -1.202344 -0.675677 3.407337
v -1.203269 -0.676995 3.428911
v -1.202465 -0.675265 3.429662
v -1.201182 -0.678562 3.429693
v -1.201635 -0.679498 3.427320
v -1.198999 -0.679499 3.428154
v -1.198866 -0.673087 3.427027
v -1.201192 -0.676770 3.430442
v -1.198706 -0.677679 3.429832
v -1.199767 -0.675488 3.430478
v -1.200677 -0.673327 3.429036
v -1.197638 -0.674741 3.428888
v -1.197199 -0.674748 3.426739
v -1.197780 -0.678390 3.425576
v -1.196871 -0.677099 3.427747
vn -0.7140 -0.2264 0.6626
vn -0.9727 0.1589 0.1689
vn -0.7416 -0.3402 0.5782
vn -0.4930 -0.5335 -0.6872
vn -0.5840 -0.6667 -0.4631
vn -0.7977 0.1404 -0.5865
vn -0.5911 -0.3989 0.7010
vn -0.7110 -0.6912 0.1294
vn -0.7420 0.4378 -0.5077
vn -0.1700 -0.8593 -0.4824
vn 0.0602 -0.9556 0.2885
vn 0.0503 -0.9591 0.2787
vn 0.0502 -0.9591 0.2787
vn 0.0402 -0.9624 0.2688
vn 0.1518 -0.7962 -0.5856
vn -0.9521 0.0479 0.3021
vn -0.4036 -0.5196 0.7531
vn -0.0801 -0.5619 0.8233
vn 0.1741 -0.5058 0.8449
vn -0.6957 0.4802 -0.5342
vn -0.9310 0.3357 -0.1432
vn 0.8295 -0.4533 0.3262
vn 0.8974 -0.1249 -0.4232
vn 0.8280 -0.4559 0.3263
vn 0.2007 0.4941 -0.8459
vn -0.4005 0.4220 -0.8133
vn 0.3574 0.3130 -0.8800
vn 0.9169 -0.3617 0.1689
vn 0.9642 -0.2626 -0.0358
vn -0.0794 -0.4033 0.9116
vn 0.9602 -0.2168 -0.1763
vn -0.9203 0.3501 -0.1745
vn -0.8687 0.4459 -0.2157
vn -0.4261 -0.4551 0.7819
vn -0.4883 -0.4408 0.7532
vn -0.8163 -0.1657 0.5534
vn -0.6911 0.5300 -0.4914
vn 0.0946 -0.6106 0.7863
vn 0.6622 -0.5322 0.5275
vn 0.7992 0.2164 -0.5607
vn -0.9045 -0.1488 0.3996
vn -0.4201 -0.4917 0.7628
vn 0.1258 -0.6154 0.7781
vn 0.3014 -0.6360 0.7104
vn 0.9182 -0.3689 0.1443
vn 0.7869 0.3186 -0.5285
vn 0.2099 0.5690 -0.7951
vn -0.5860 0.5997 -0.5450
vn 0.9747 -0.1206 -0.1884
vn -0.8550 -0.2155 0.4718
vn -0.5202 -0.5035 0.6898
vn -0.0356 -0.6912 0.7218
vn 0.1526 -0.6809 0.7163
vn 0.3468 -0.7086 0.6144
vn -0.0202 0.7110 -0.7030
vn 0.2149 -0.6647 0.7156
vn 0.8226 -0.4884 0.2911
vn 0.8436 -0.4756 0.2494
vn 0.8740 -0.4251 0.2354
vn 0.9182 -0.3473 0.1905
vn -0.2200 -0.6878 0.6918
vn -0.6157 0.6679 -0.4182
vn 0.5173 0.5497 -0.6559
vn -0.1827 0.7928 -0.5814
vn -0.9695 0.2369 0.0630
vn 0.3331 -0.7948 0.5073
vn -0.5792 -0.5581 0.5941
vn 0.8972 -0.4394 0.0447
vn 0.7781 0.3417 -0.5271
vn 0.5979 0.5587 -0.5748
vn 0.9628 -0.2699 -0.0084
vn -0.5162 -0.6207 0.5901
vn -0.9150 -0.1966 0.3524
vn 0.2850 -0.7745 0.5647
vn 0.4994 0.6407 -0.5832
vn -0.2838 0.7809 -0.5565
vn 0.9791 0.0012 -0.2032
vn -0.9284 0.3642 -0.0738
vn -0.5587 -0.6019 0.5706
vn 0.1476 -0.7994 0.5824
vn 0.6384 -0.6742 0.3715
vn -0.9758 -0.0065 0.2185
vn -0.8326 0.5236 -0.1808
vn -0.5700 0.7001 -0.4300
vn -0.0024 0.8077 -0.5896
vn -0.6953 -0.5400 0.4743
vn -0.9658 -0.0029 0.2594
vn -0.7834 0.5916 -0.1906
vn -0.1451 -0.8264 0.5441
vn -0.1849 -0.7970 0.5750
vn 0.2923 -0.8272 0.4798
vn 0.3308 -0.8031 0.4956
vn -0.1030 0.8432 -0.5276
vn 0.9616 -0.2664 -0.0658
vn 0.7808 0.4252 -0.4578
vn -0.9724 -0.1182 0.2014
vn -0.6891 0.7025 -0.1780
vn -0.6615 -0.6136 0.4312
vn -0.2682 -0.8214 0.5034
vn -0.1559 0.8906 -0.4272
vn 0.7691 -0.5953 0.2325
vn 0.5103 0.7007 -0.4986
vn -0.5238 -0.8091 0.2664
vn -0.9146 -0.2983 0.2728
vn -0.6550 -0.6784 0.3328
vn -0.9172 0.3837 0.1075
vn -0.9896 0.0196 0.1425
vn -0.6974 0.7128 -0.0746
vn -0.3920 0.8879 -0.2409
vn 0.1184 -0.9642 0.2374
vn 0.1681 -0.9313 0.3231
vn -0.4284 -0.7855 0.4466
vn 0.1525 0.9219 -0.3563
vn 0.6269 -0.7596 0.1735
vn 0.8153 0.4881 -0.3116
vn 0.5979 0.6720 -0.4370
vn 0.9729 0.0637 -0.2221
vn 0.4319 -0.8072 0.4023
vn -0.8077 0.4756 0.3484
vn -0.9085 0.3628 0.2073
vn -0.3054 0.9521 -0.0141
vn -0.5137 0.8502 0.1152
vn -0.2889 0.9493 -0.1239
vn 0.0831 -0.9936 0.0763
vn 0.4098 0.8871 -0.2124
vn 0.1590 0.9374 -0.3099
vn 0.7613 -0.6373 0.1194
vn 0.6958 -0.7166 -0.0486
vn 0.9811 -0.1202 -0.1515
vn 0.7268 0.6286 -0.2768
vn -0.3832 0.9091 0.1632
vn -0.7847 -0.5735 0.2353
vn 0.0773 -0.9970 0.0052
vn 0.3021 0.9453 -0.1232
vn 0.9556 -0.2429 -0.1667
vn 0.4327 -0.8968 -0.0924
vn 0.9199 0.2823 -0.2723
vn -0.5940 0.3431 0.7276
vn -0.8341 -0.2656 0.4835
vn -0.3769 -0.8939 0.2427
vn 0.4026 -0.8614 0.3098
vn -0.2407 -0.6574 0.7141
vn 0.5058 -0.3663 0.7810
vn -0.2231 -0.1317 0.9659
vn 0.1824 0.2623 0.9476
vn -0.0758 0.8384 0.5398
vn 0.4122 0.9077 0.0783
vn 0.7305 0.4092 0.5467
vn 0.9118 0.4051 -0.0674
vn 0.8165 -0.5583 -0.1470
vn 0.9597 -0.2119 0.1847
s 1
f 2//1 3//2 1//3
f 9//4 7//5 5//6
f 2//1 1//3 4//7
f 8//8 4//7 1//3
f 5//6 6//9 9//4
f 7//5 9//4 10//10
f 12//11 13//12 14//13
f 14//13 13//12 15//14
f 10//10 9//4 18//15
f 2//1 19//16 3//2
f 20//17 2//1 21//18
f 21//18 2//1 24//19
f 22//20 6//9 23//21
f 25//22 26//23 27//24
f 2//1 4//7 24//19
f 22//20 9//4 6//9
f 22//20 37//25 16//26
f 37//25 17//27 16//26
f 29//28 25//22 30//29
f 11//30 24//19 4//7
f 25//22 29//28 26//23
f 29//28 28//31 26//23
f 26//23 28//31 17//27
f 37//25 26//23 17//27
f 31//32 19//16 50//33
f 34//34 35//35 36//36
f 36//36 35//35 19//16
f 37//25 22//20 38//37
f 34//34 20//17 21//18
f 33//38 21//18 32//39
f 19//16 2//1 36//36
f 22//20 23//21 38//37
f 20//17 34//34 36//36
f 24//19 32//39 21//18
f 27//24 26//23 32//39
f 26//23 37//25 39//40
f 19//16 42//41 50//33
f 35//35 42//41 19//16
f 42//41 35//35 43//42
f 44//43 32//39 45//44
f 32//39 44//43 33//38
f 40//45 39//40 46//46
f 39//40 37//25 41//47
f 39//40 41//47 46//46
f 26//23 40//45 32//39
f 40//45 26//23 39//40
f 38//37 50//33 47//48
f 49//49 40//45 46//46
f 38//37 47//48 37//25
f 41//47 37//25 47//48
f 45//44 32//39 40//45
f 51//50 50//33 42//41
f 52//51 51//50 42//41
f 53//52 51//50 52//51
f 53//52 54//53 55//54
f 50//33 56//55 47//48
f 57//56 54//53 45//44
f 54//53 57//56 55//54
f 55//54 58//57 59//58
f 52//51 42//41 43//42
f 47//48 56//55 41//47
f 45//44 40//45 57//56
f 48//59 58//57 40//60
f 55//54 60//61 51//50
f 51//50 53//52 55//54
f 61//62 56//55 50//33
f 63//63 56//55 61//62
f 46//46 59//58 49//49
f 41//47 56//55 46//46
f 56//55 63//63 46//46
f 58//57 48//59 59//58
f 65//64 61//62 64//65
f 64//65 61//62 51//50
f 64//65 51//50 60//61
f 67//66 66//67 60//61
f 51//50 61//62 50//33
f 67//66 60//61 55//54
f 68//68 67//66 55//54
f 68//68 46//46 62//69
f 62//69 63//63 65//64
f 63//63 61//62 65//64
f 55//54 59//58 68//68
f 46//46 68//68 59//58
f 63//63 62//69 46//46
f 60//61 66//67 64//65
f 71//70 62//69 65//64
f 68//68 62//69 70//71
f 72//72 77//73 66//67
f 73//74 66//67 67//66
f 74//75 71//70 69//76
f 77//73 64//65 66//67
f 65//64 64//65 69//76
f 71//70 74//75 75//77
f 75//77 70//71 71//70
f 71//70 65//64 69//76
f 70//71 62//69 71//70
f 72//72 66//67 73//74
f 76//78 69//76 64//65
f 77//73 76//78 64//65
f 68//68 73//74 67//66
f 73//74 68//68 70//71
f 78//79 72//72 73//74
f 79//80 78//79 73//74
f 77//73 72//72 78//79
f 80//81 79//80 73//74
f 75//77 80//81 70//71
f 80//81 73//74 70//71
f 77//73 78//79 81//82
f 77//73 81//82 82//83
f 82//83 76//78 77//73
f 83//84 76//78 82//83
f 69//76 76//78 83//84
f 84//85 69//76 83//84
f 74//75 69//76 84//85
f 78//79 85//86 81//82
f 86//87 87//88 81//82
f 87//88 82//83 81//82
f 88//89 78//79 89//90
f 90//91 91//92 80//81
f 84//85 82//83 99//93
f 78//79 79//80 89//90
f 92//94 90//91 80//81
f 84//85 83//84 82//83
f 80//81 91//92 79//80
f 92//94 80//81 75//77
f 93//95 74//75 84//85
f 94//96 95//97 87//88
f 94//96 87//88 86//87
f 96//98 94//96 86//87
f 88//89 97//99 96//98
f 98//100 87//88 95//97
f 98//100 99//93 87//88
f 96//98 86//87 81//82
f 96//98 81//82 85//86
f 88//89 89//90 97//99
f 87//88 99//93 82//83
f 92//94 112//101 90//91
f 93//95 99//93 100//102
f 93//95 84//85 99//93
f 75//77 93//95 92//94
f 74//75 93//95 75//77
f 104//103 101//104 105//105
f 101//104 102//106 106//107
f 102//106 103//108 106//107
f 106//107 103//108 95//97
f 103//108 108//109 95//97
f 106//107 105//105 101//104
f 106//107 95//97 94//96
f 107//110 105//105 109//111
f 105//105 110//112 109//111
f 110//112 105//105 94//96
f 94//96 105//105 106//107
f 111//113 95//97 108//109
f 94//96 96//98 110//112
f 109//111 112//101 113//114
f 111//113 114//115 115//116
f 109//111 110//112 112//101
f 96//98 97//99 110//112
f 112//101 116//117 113//114
f 111//113 115//116 98//100
f 110//112 117//118 112//101
f 111//113 98//100 95//97
f 90//91 112//101 117//118
f 100//102 99//93 98//100
f 115//116 100//102 98//100
f 115//116 116//117 100//102
f 90//91 117//118 91//92
f 100//102 116//117 93//95
f 92//94 116//117 112//101
f 116//117 92//94 93//95
f 118//119 119//120 101//104
f 120//121 119//120 121//122
f 120//121 122//123 119//120
f 119//120 102//106 101//104
f 102//106 119//120 122//123
f 123//124 104//103 107//110
f 124//125 125//126 122//123
f 104//103 105//105 107//110
f 107//110 127//127 126//128
f 122//123 103//108 102//106
f 122//123 125//126 103//108
f 125//126 108//109 103//108
f 128//129 127//127 113//114
f 125//126 111//113 108//109
f 125//126 133//130 111//113
f 111//113 133//130 114//115
f 127//127 107//110 113//114
f 107//110 109//111 113//114
f 116//117 128//129 113//114
f 116//117 115//116 114//115
f 128//129 116//117 114//115
f 118//119 129//131 121//122
f 118//119 121//122 119//120
f 101//104 130//132 118//119
f 123//124 131//133 130//132
f 120//121 121//122 132//134
f 104//103 130//132 101//104
f 123//124 130//132 104//103
f 132//134 124//125 120//121
f 131//133 123//124 126//128
f 122//123 120//121 124//125
f 123//124 107//110 126//128
f 124//125 133//130 125//126
f 133//130 134//135 128//129
f 134//135 126//128 128//129
f 128//129 126//128 127//127
f 133//130 128//129 114//115
f 129//131 132//134 121//122
f 135//136 131//133 134//135
f 133//130 124//125 136//137
f 131//133 126//128 134//135
f 138//138 118//119 137//139
f 130//132 137//139 118//119
f 140//140 130//132 131//133
f 140//140 131//133 141//141
f 141//141 131//133 135//136
f 136//137 124//125 132//134
f 139//142 137//139 140//140
f 141//141 139//142 140//140
f 144//143 139//142 141//141
f 137//139 143//144 138//138
f 143//144 137//139 139//142
f 143//144 145//145 138//138
f 146//146 118//119 138//138
f 138//138 145//145 146//146
f 144//143 143//144 139//142
f 144//143 145//145 143//144
f 118//119 146//146 129//131
f 129//131 146//146 142//147
f 147//148 146//146 145//145
f 146//146 147//148 142//147
f 140//140 137//139 130//132
f 142//147 132//134 129//131
f 136//137 142//147 148//149
f 142//147 136//137 132//134
f 141//141 135//136 149//150
f 134//135 149//150 135//136
f 149//150 134//135 136//137
f 136//137 134//135 133//130
f 141//141 150//151 144//143
f 144//143 147//148 145//145
f 147//148 144//143 150//151
f 142//147 147//148 148//149
f 150//151 148//149 147//148
f 150//151 141//141 149//150
f 148//149 150//151 136//137
f 150//151 149//150 136//137
