# Blender v2.78 (sub 0) OBJ File: 'exporter.blend'
# www.blender.org
o FJ2374.obj_grp1.1111
v 0.875356 -0.391358 5.268120
v 0.877714 -0.393569 5.269406
v 0.877171 -0.390793 5.270820
v 0.879474 -0.392481 5.271135
v 0.875623 -0.390131 5.269116
v 0.876529 -0.388205 5.270050
v 0.879469 -0.387711 5.271591
v 0.872747 -0.370744 5.255184
v 0.875635 -0.392744 5.266026
v 0.877007 -0.394156 5.267078
v 0.869163 -0.370488 5.245211
v 0.876983 -0.393926 5.264577
v 0.870417 -0.374778 5.252986
v 0.868097 -0.361672 5.244002
v 0.880134 -0.389586 5.271964
v 0.882603 -0.389037 5.271654
v 0.881710 -0.391504 5.271565
v 0.883062 -0.386710 5.270694
v 0.879880 -0.385977 5.270678
v 0.880779 -0.394447 5.269552
v 0.881839 -0.395454 5.266332
v 0.879206 -0.395215 5.267462
v 0.882672 -0.393219 5.270372
v 0.875501 -0.370890 5.256527
v 0.878788 -0.395159 5.264978
v 0.881522 -0.394948 5.263651
v 0.879579 -0.393761 5.262237
v 0.868889 -0.364552 5.236057
v 0.872144 -0.371308 5.241759
v 0.865757 -0.356835 5.229035
v 0.868207 -0.355267 5.239498
v 0.871176 -0.357436 5.243061
v 0.875785 -0.365049 5.250630
v 0.863567 -0.351418 5.224566
v 0.863839 -0.350772 5.229625
v 0.861660 -0.345454 5.219980
v 0.864877 -0.345285 5.227707
v 0.867395 -0.345615 5.229603
v 0.863567 -0.344509 5.225253
v 0.857555 -0.331557 5.199374
v 0.860766 -0.339119 5.215578
v 0.862128 -0.336896 5.215877
v 0.860062 -0.336585 5.199916
v 0.863371 -0.343021 5.209027
v 0.883710 -0.391399 5.270764
v 0.884952 -0.389542 5.270109
v 0.885742 -0.387908 5.268457
v 0.884008 -0.394024 5.268210
v 0.885036 -0.392033 5.269148
v 0.885151 -0.393333 5.265264
v 0.884249 -0.384198 5.266708
v 0.886191 -0.391002 5.267756
v 0.876192 -0.361735 5.246507
v 0.883728 -0.394240 5.264187
v 0.884439 -0.391986 5.262623
v 0.881787 -0.392835 5.261368
v 0.873879 -0.371313 5.241331
v 0.876953 -0.371197 5.242058
v 0.871001 -0.348719 5.233160
v 0.873157 -0.359919 5.230543
v 0.867966 -0.355873 5.225430
v 0.869290 -0.350987 5.219588
v 0.863859 -0.335148 5.215110
v 0.866550 -0.337403 5.218835
v 0.870346 -0.342822 5.224827
v 0.865357 -0.343572 5.209319
v 0.858785 -0.330830 5.203153
v 0.860646 -0.329365 5.204295
v 0.856315 -0.327909 5.185805
v 0.855896 -0.323553 5.185309
v 0.858526 -0.324761 5.193882
v 0.853784 -0.320599 5.167903
v 0.856534 -0.321951 5.184793
v 0.886469 -0.389020 5.266312
v 0.874542 -0.351429 5.232647
v 0.875432 -0.354698 5.230892
v 0.886186 -0.390991 5.264740
v 0.879041 -0.367849 5.242928
v 0.873007 -0.352769 5.224696
v 0.867971 -0.333660 5.210828
v 0.867662 -0.342441 5.208766
v 0.864784 -0.329870 5.206397
v 0.861435 -0.335999 5.196668
v 0.865942 -0.334279 5.195875
v 0.861784 -0.326842 5.200603
v 0.863426 -0.334087 5.192913
v 0.860604 -0.321715 5.189218
v 0.863386 -0.323093 5.191659
v 0.857488 -0.327406 5.178189
v 0.859999 -0.328989 5.180538
v 0.858209 -0.320768 5.185248
v 0.853963 -0.316142 5.164362
v 0.869451 -0.335382 5.208917
v 0.869950 -0.343026 5.212469
v 0.871665 -0.343423 5.216753
v 0.867835 -0.331819 5.198880
v 0.866197 -0.330560 5.191556
v 0.865992 -0.326591 5.195996
v 0.863148 -0.318582 5.174437
v 0.862174 -0.327818 5.179151
v 0.860699 -0.317121 5.175498
v 0.857227 -0.316213 5.172523
v 0.863276 -0.325359 5.175683
v 0.855380 -0.321428 5.158660
v 0.857397 -0.322611 5.160946
v 0.857780 -0.312491 5.159204
v 0.854030 -0.319012 5.151102
v 0.851712 -0.313944 5.136237
v 0.853331 -0.312045 5.149411
v 0.854552 -0.311542 5.151598
v 0.863837 -0.322621 5.173487
v 0.863828 -0.320524 5.172209
v 0.860265 -0.311279 5.143422
v 0.858895 -0.321032 5.155598
v 0.861659 -0.319968 5.158784
v 0.860418 -0.313677 5.160841
v 0.855573 -0.318065 5.140913
v 0.851950 -0.312728 5.142210
v 0.851473 -0.307420 5.117735
v 0.861465 -0.314378 5.148482
v 0.859837 -0.317968 5.146244
v 0.857703 -0.308685 5.138912
v 0.855635 -0.308166 5.136621
v 0.857680 -0.316104 5.131788
v 0.854023 -0.309269 5.139928
v 0.850747 -0.308780 5.095207
v 0.850536 -0.307757 5.104912
v 0.852947 -0.305460 5.113627
v 0.859787 -0.311417 5.124341
v 0.858750 -0.311839 5.114804
v 0.853913 -0.315299 5.126009
v 0.851522 -0.307333 5.072813
v 0.855705 -0.313699 5.113811
v 0.859036 -0.307549 5.108451
v 0.857205 -0.313010 5.112873
v 0.854899 -0.304277 5.107885
v 0.856760 -0.300934 5.069024
v 0.854271 -0.298302 5.052302
v 0.850822 -0.302527 5.064912
v 0.857974 -0.302816 5.073684
v 0.855825 -0.298452 5.052508
v 0.857429 -0.306224 5.063379
v 0.853658 -0.306770 5.059019
v 0.852818 -0.295123 5.020080
v 0.851012 -0.303281 5.053839
v 0.858539 -0.306081 5.078723
v 0.852930 -0.298478 5.050283
v 0.855870 -0.305709 5.052059
v 0.852224 -0.303424 5.044069
v 0.854701 -0.303126 5.034973
v 0.852166 -0.298478 5.024627
v 0.853503 -0.301426 5.028730
v 0.858586 -0.302127 5.047238
v 0.857597 -0.297652 5.040849
v 0.858533 -0.298703 5.039798
v 0.858276 -0.298764 5.015382
v 0.854843 -0.291149 5.005513
v 0.853635 -0.293428 5.003349
v 0.859431 -0.296369 5.021418
v 0.857322 -0.297896 5.008215
v 0.857412 -0.291633 5.011040
v 0.855910 -0.291221 5.009072
v 0.855691 -0.296672 5.003673
v 0.854550 -0.294785 5.000497
v 0.859956 -0.295432 5.010417
v 0.858529 -0.293214 5.015605
v 0.860811 -0.292721 4.993682
v 0.860762 -0.289503 4.994674
v 0.861668 -0.288903 4.974163
v 0.860335 -0.285737 4.984119
v 0.858603 -0.283011 4.972859
v 0.858924 -0.285127 4.983010
v 0.856407 -0.288735 4.979288
v 0.856825 -0.291434 4.984346
v 0.859938 -0.289318 4.973820
v 0.861972 -0.288130 4.985550
v 0.863180 -0.281970 4.967829
v 0.859445 -0.286581 4.966253
v 0.859484 -0.280117 4.958904
v 0.863938 -0.283951 4.968884
v 0.861846 -0.277660 4.956198
v 0.857683 -0.285104 4.968524
v 0.861848 -0.277033 4.944269
v 0.865685 -0.281234 4.954851
v 0.863269 -0.277928 4.957294
v 0.866700 -0.277809 4.949695
v 0.863893 -0.281399 4.949082
v 0.861055 -0.281378 4.952102
v 0.868749 -0.272713 4.937705
v 0.867418 -0.271265 4.937530
v 0.864710 -0.275980 4.936167
v 0.872141 -0.268954 4.918107
v 0.869719 -0.264100 4.917680
v 0.871365 -0.268207 4.914568
v 0.865250 -0.271958 4.929343
v 0.870590 -0.271690 4.929966
v 0.867305 -0.267205 4.921857
v 0.871453 -0.263233 4.906184
v 0.874462 -0.264824 4.914534
v 0.871990 -0.261134 4.906249
v 0.874097 -0.262461 4.899809
v 0.875229 -0.265051 4.909326
v 0.873752 -0.260366 4.907607
v 0.877028 -0.258570 4.900733
v 0.878362 -0.261702 4.899448
v 0.879064 -0.258956 4.897758
v 0.876463 -0.263223 4.900307
v 0.875511 -0.262709 4.898473
v 0.876884 -0.257041 4.894854
v 0.878170 -0.256055 4.887539
v 0.881594 -0.259451 4.886197
v 0.882585 -0.257389 4.887020
v 0.881822 -0.256035 4.886945
v 0.877980 -0.257677 4.886242
v 0.882044 -0.259072 4.887307
v 0.878744 -0.256207 4.885855
v 0.880529 -0.255396 4.886827
v 0.878568 -0.258135 4.885305
v 0.879819 -0.259533 4.885608
v 0.879597 -0.258478 4.884946
v 0.880916 -0.256192 4.885432
v 0.880831 -0.257897 4.884778
v 0.881811 -0.257277 4.885467
vn -0.8969 -0.3041 0.3210
vn -0.5109 -0.6612 0.5494
vn -0.5571 -0.1807 0.8106
vn -0.1811 -0.4862 0.8549
vn -0.6487 0.2642 0.7137
vn -0.8607 -0.0433 0.5072
vn -0.2315 0.3373 0.9125
vn -0.6179 -0.7652 0.1807
vn -0.8576 -0.5143 -0.0107
vn -0.6230 -0.7221 -0.3006
vn -0.8878 -0.4253 -0.1759
vn -0.9764 -0.0916 0.1958
vn -0.5416 0.4993 0.6763
vn -0.8286 0.2766 0.4867
vn -0.0938 -0.0175 0.9954
vn 0.3450 0.1048 0.9327
vn 0.1661 -0.3335 0.9280
vn 0.4292 0.4927 0.7570
vn -0.1171 0.5914 0.7978
vn 0.0342 -0.8136 0.5804
vn -0.2336 -0.9395 0.2507
vn 0.2195 -0.9746 0.0447
vn 0.3407 -0.6233 0.7039
vn -0.0774 0.6703 0.7380
vn -0.3186 -0.9190 -0.2324
vn 0.1509 -0.8817 -0.4470
vn -0.2233 -0.7417 -0.6325
vn -0.5886 -0.6615 -0.4648
vn -0.2770 -0.7098 -0.6477
vn -0.6630 -0.6259 -0.4106
vn -0.5574 0.5482 0.6235
vn -0.1193 0.7027 0.7014
vn 0.2184 0.7089 0.6707
vn -0.8841 -0.4333 -0.1751
vn -0.9437 0.0769 0.3217
vn -0.9845 -0.1558 0.0801
vn -0.5974 0.5532 0.5807
vn -0.1719 0.7491 0.6398
vn -0.8008 0.3817 0.4615
vn -0.9089 0.2461 0.3366
vn -0.6373 0.5797 0.5078
vn -0.3176 -0.8185 -0.4787
vn -0.5926 -0.7348 -0.3301
vn -0.9894 -0.0011 0.1454
vn 0.5374 -0.2821 0.7947
vn 0.7400 0.0452 0.6710
vn 0.5834 -0.7492 0.3136
vn 0.7556 -0.4146 0.5070
vn 0.8642 0.2948 0.4076
vn 0.7163 0.5764 0.3932
vn 0.9353 -0.2493 0.2511
vn 0.5195 0.6940 0.4984
vn 0.5248 -0.7752 -0.3516
vn 0.7751 -0.6161 -0.1404
vn 0.2675 -0.6713 -0.6913
vn 0.6873 -0.4375 -0.5798
vn 0.0444 -0.6942 -0.7184
vn 0.5025 -0.4994 -0.7057
vn 0.3029 0.7649 0.5685
vn 0.2937 -0.6293 -0.7195
vn -0.1927 -0.7813 -0.5937
vn 0.3467 -0.6882 -0.6373
vn -0.2609 0.7898 0.5551
vn 0.1356 0.8282 0.5437
vn 0.5157 0.7396 0.4325
vn 0.0813 -0.8442 -0.5299
vn -0.8538 0.3879 0.3472
vn -0.4595 0.7372 0.4954
vn -0.8524 -0.5119 -0.1068
vn -0.6163 0.6745 0.4066
vn -0.9443 0.2436 0.2213
vn -0.9843 -0.1706 0.0444
vn -0.7488 0.5860 0.3095
vn 0.9351 -0.2294 -0.2700
vn 0.9927 0.1199 0.0118
vn 0.8228 0.5239 0.2202
vn 0.9739 0.0616 -0.2183
vn 0.8545 -0.2106 -0.4749
vn 0.7492 -0.3913 -0.5344
vn 0.6180 0.7222 0.3107
vn 0.4509 -0.6931 -0.5623
vn 0.2123 0.8705 0.4440
vn -0.2491 -0.8901 -0.3816
vn 0.6052 -0.6467 -0.4642
vn -0.1330 0.8910 0.4341
vn 0.2083 -0.8799 -0.4270
vn -0.0713 0.9325 0.3541
vn 0.4163 0.8564 0.3054
vn -0.5056 -0.8350 -0.2172
vn -0.0056 -0.9133 -0.4072
vn -0.4291 0.8314 0.3531
vn -0.3608 0.8862 0.2908
vn -0.8619 0.4734 0.1815
vn 0.9278 0.3731 0.0033
vn 0.8166 -0.3388 -0.4673
vn 0.9539 -0.0632 -0.2935
vn 0.9625 -0.1324 -0.2368
vn 0.8487 -0.4101 -0.3338
vn 0.7589 0.6271 0.1759
vn 0.7896 0.6082 0.0812
vn 0.3915 -0.8497 -0.3532
vn 0.2882 0.9238 0.2520
vn -0.1172 -0.9489 -0.2932
vn -0.4110 -0.8885 -0.2039
vn -0.6930 -0.7121 -0.1128
vn -0.4553 0.8641 0.2146
vn -0.7855 0.5959 0.1669
vn 0.9531 -0.2252 -0.2020
vn 0.7853 -0.5534 -0.2776
vn 0.9816 0.1660 -0.0939
vn 0.3650 -0.8971 -0.2490
vn 0.7946 -0.5619 -0.2298
vn 0.5255 0.8359 0.1584
vn 0.0070 0.9767 0.2146
vn -0.1533 -0.9707 -0.1850
vn -0.9654 -0.2603 -0.0150
vn -0.9698 0.2304 0.0802
vn -0.8494 0.5188 0.0966
vn 0.8095 0.5848 0.0516
vn 0.9955 0.0948 -0.0038
vn 0.6246 -0.7520 -0.2105
vn 0.3495 0.9264 0.1401
vn -0.1360 0.9775 0.1610
vn 0.2775 -0.9436 -0.1806
vn -0.5110 0.8452 0.1566
vn -0.9876 0.1558 0.0186
vn -0.9181 -0.3927 -0.0541
vn -0.4570 0.8819 0.1159
vn 0.9594 -0.2638 -0.0998
vn 0.8007 -0.5808 -0.1471
vn -0.3506 -0.9255 -0.1432
vn -0.7503 -0.6535 -0.0998
vn 0.1745 -0.9718 -0.1585
vn 0.9991 0.0010 -0.0421
vn 0.5164 -0.8450 -0.1391
vn 0.0470 0.9938 0.1008
vn -0.1101 0.9872 0.1152
vn -0.9577 0.2875 0.0127
vn 0.6256 0.7759 0.0813
vn 0.8863 0.4612 0.0408
vn 0.7584 -0.6449 -0.0949
vn -0.2508 -0.9598 -0.1259
vn -0.8946 0.4460 0.0264
vn -0.9646 -0.2536 -0.0727
vn 0.9988 -0.0419 -0.0239
vn -0.0284 0.9913 0.1287
vn 0.2532 0.9557 0.1502
vn 0.2869 -0.9476 -0.1405
vn -0.7102 -0.6878 -0.1500
vn -0.1328 -0.9734 -0.1864
vn -0.9685 -0.2221 -0.1124
vn 0.9774 -0.2109 -0.0125
vn 0.7247 0.6808 0.1060
vn 0.8945 0.4353 0.1017
vn -0.5820 -0.7920 -0.1845
vn 0.5828 -0.8008 -0.1381
vn -0.5424 0.8292 0.1348
vn -0.9949 0.0118 -0.0999
vn 0.9452 0.3124 0.0949
vn 0.1866 -0.9600 -0.2089
vn 0.2672 0.9462 0.1828
vn -0.2038 0.9689 0.1400
vn -0.3691 -0.8976 -0.2411
vn -0.8077 -0.5489 -0.2154
vn 0.9963 0.0691 0.0511
vn 0.6695 0.7272 0.1514
vn 0.8938 -0.4468 -0.0388
vn 0.8136 0.5555 0.1715
vn 0.5274 -0.8294 -0.1841
vn 0.4611 0.8459 0.2681
vn -0.4960 0.8574 0.1373
vn -0.0042 0.9735 0.2285
vn -0.9209 -0.3226 -0.2186
vn -0.5636 -0.7768 -0.2810
vn -0.0486 -0.9575 -0.2842
vn 0.9433 0.2955 0.1515
vn 0.7539 0.6112 0.2409
vn -0.5401 -0.7769 -0.3236
vn -0.8838 0.4670 -0.0275
vn -0.9694 -0.1646 -0.1820
vn -0.3579 0.9143 0.1897
vn -0.9675 -0.0859 -0.2377
vn 0.9636 -0.2664 0.0235
vn 0.9437 0.2890 0.1606
vn 0.1796 0.9148 0.3617
vn 0.0370 -0.9437 -0.3286
vn -0.7111 -0.6169 -0.3374
vn 0.9827 0.0832 0.1653
vn 0.8283 0.4627 0.3159
vn 0.3913 0.8546 0.3414
vn -0.5493 -0.7324 -0.4023
vn 0.5431 -0.8175 -0.1915
vn -0.4750 0.8603 0.1853
vn 0.0546 -0.9476 -0.3149
vn -0.9233 -0.2328 -0.3054
vn 0.9708 -0.1933 0.1422
vn -0.9187 0.3853 -0.0863
vn -0.9417 -0.0873 -0.3249
vn -0.7801 0.6232 -0.0562
vn -0.6418 -0.6513 -0.4048
vn 0.9574 0.1174 0.2637
vn 0.8473 -0.5300 0.0351
vn -0.0885 0.9633 0.2535
vn 0.3850 0.8592 0.3370
vn 0.8760 -0.4686 0.1142
vn 0.8802 0.3473 0.3236
vn 0.3676 -0.9106 -0.1889
vn -0.2201 -0.9060 -0.3616
vn -0.3027 0.9476 0.1017
vn -0.8988 0.0248 -0.4377
vn -0.6621 0.7328 -0.1572
vn 0.5483 -0.6999 -0.4577
vn 0.9902 0.1126 -0.0823
vn 0.7059 0.7073 -0.0370
vn 0.8435 -0.5362 0.0317
vn 0.1348 0.9832 -0.1229
vn -0.5254 0.6253 -0.5770
vn -0.6280 -0.1466 -0.7643
vn -0.1518 -0.7822 -0.6042
vn -0.2025 -0.2270 -0.9526
vn 0.2478 0.6321 -0.7342
vn 0.2292 -0.0426 -0.9725
vn 0.7713 0.1297 -0.6231
s 1
f 1//1 2//2 3//3
f 4//4 3//3 2//2
f 3//3 6//5 5//6
f 5//6 1//1 3//3
f 3//3 7//7 6//5
f 10//8 2//2 1//1
f 1//1 9//9 10//8
f 12//10 9//9 11//11
f 13//12 9//9 1//1
f 11//11 9//9 13//12
f 1//1 5//6 13//12
f 8//13 14//14 6//5
f 5//6 6//5 14//14
f 13//12 5//6 14//14
f 4//4 15//15 3//3
f 15//15 16//16 7//7
f 17//17 16//16 15//15
f 16//16 18//18 7//7
f 7//7 18//18 19//19
f 20//20 22//21 21//22
f 22//21 20//20 2//2
f 20//20 4//4 2//2
f 15//15 4//4 17//17
f 17//17 4//4 23//23
f 23//23 4//4 20//20
f 3//3 15//15 7//7
f 7//7 19//19 6//5
f 19//19 8//13 6//5
f 8//13 19//19 24//24
f 21//22 22//21 25//25
f 26//26 21//22 25//25
f 10//8 22//21 2//2
f 10//8 25//25 22//21
f 9//9 12//10 10//8
f 10//8 12//10 25//25
f 27//27 26//26 25//25
f 12//10 11//11 28//28
f 12//10 27//27 25//25
f 29//29 27//27 12//10
f 12//10 28//28 29//29
f 28//28 11//11 30//30
f 31//31 14//14 8//13
f 8//13 32//32 31//31
f 24//24 32//32 8//13
f 32//32 24//24 33//33
f 30//30 11//11 34//34
f 11//11 13//12 34//34
f 13//12 35//35 36//36
f 14//14 31//31 37//37
f 31//31 32//32 38//38
f 13//12 36//36 34//34
f 13//12 14//14 35//35
f 39//39 35//35 14//14
f 37//37 39//39 14//14
f 37//37 31//31 38//38
f 39//39 41//40 35//35
f 35//35 41//40 36//36
f 42//41 39//39 37//37
f 30//30 34//34 44//42
f 43//43 44//42 34//34
f 36//36 41//40 40//44
f 41//40 39//39 42//41
f 23//23 45//45 17//17
f 45//45 16//16 17//17
f 46//46 16//16 45//45
f 16//16 46//46 18//18
f 20//20 48//47 23//23
f 48//47 20//20 21//22
f 23//23 49//48 45//45
f 49//48 23//23 48//47
f 45//45 49//48 46//46
f 47//49 18//18 46//46
f 51//50 18//18 47//49
f 49//48 52//51 46//46
f 53//52 18//18 51//50
f 54//53 50//54 21//22
f 21//22 26//26 54//53
f 48//47 21//22 50//54
f 26//26 56//55 54//53
f 54//53 56//55 55//56
f 19//19 18//18 33//33
f 27//27 29//29 57//57
f 56//55 26//26 27//27
f 27//27 57//57 56//55
f 57//57 58//58 56//55
f 18//18 53//52 33//33
f 19//19 33//33 24//24
f 32//32 33//33 59//59
f 53//52 59//59 33//33
f 58//58 57//57 60//60
f 61//61 29//29 28//28
f 57//57 29//29 61//61
f 60//60 57//57 61//61
f 38//38 32//32 59//59
f 60//60 61//61 62//62
f 61//61 28//28 30//30
f 63//63 37//37 38//38
f 38//38 59//59 64//64
f 65//65 64//64 59//59
f 63//63 38//38 64//64
f 61//61 30//30 44//42
f 37//37 63//63 42//41
f 66//66 61//61 44//42
f 41//40 42//41 67//67
f 68//68 67//67 42//41
f 42//41 63//63 68//68
f 43//43 34//34 36//36
f 69//69 43//43 36//36
f 41//40 67//67 40//44
f 69//69 36//36 40//44
f 67//67 71//70 70//71
f 67//67 70//71 40//44
f 67//67 68//68 71//70
f 72//72 69//69 40//44
f 73//73 70//71 71//70
f 70//71 72//72 40//44
f 48//47 52//51 49//48
f 50//54 52//51 48//47
f 52//51 50//54 77//74
f 47//49 46//46 52//51
f 47//49 52//51 74//75
f 52//51 77//74 74//75
f 74//75 75//76 47//49
f 55//56 50//54 54//53
f 55//56 58//58 77//74
f 50//54 55//56 77//74
f 74//75 76//77 75//76
f 74//75 77//74 78//78
f 74//75 78//78 76//77
f 47//49 75//76 51//50
f 58//58 55//56 56//55
f 77//74 58//58 78//78
f 78//78 79//79 76//77
f 51//50 75//76 53//52
f 78//78 58//58 79//79
f 60//60 79//79 58//58
f 53//52 75//76 59//59
f 75//76 65//65 59//59
f 62//62 79//79 60//60
f 75//76 80//80 65//65
f 66//66 62//62 61//61
f 79//79 62//62 81//81
f 64//64 65//65 80//80
f 82//82 64//64 80//80
f 66//66 81//81 62//62
f 64//64 82//82 63//63
f 66//66 44//42 83//83
f 66//66 84//84 81//81
f 82//82 68//68 63//63
f 68//68 82//82 85//85
f 43//43 83//83 44//42
f 83//83 86//86 66//66
f 85//85 71//70 68//68
f 71//70 85//85 87//87
f 85//85 82//82 88//88
f 43//43 89//89 83//83
f 43//43 69//69 89//89
f 83//83 89//89 90//90
f 86//86 83//83 90//90
f 85//85 88//88 87//87
f 87//87 91//91 71//70
f 71//70 91//91 73//73
f 91//91 102//92 73//73
f 70//71 73//73 92//93
f 73//73 102//92 92//93
f 70//71 92//93 72//72
f 93//94 75//76 76//77
f 79//79 94//95 76//77
f 76//77 95//96 93//94
f 79//79 81//81 94//95
f 76//77 94//95 95//96
f 80//80 75//76 93//94
f 93//94 95//96 96//97
f 94//95 81//81 97//98
f 97//98 96//97 94//95
f 94//95 96//97 95//96
f 93//94 98//99 80//80
f 88//88 82//82 80//80
f 80//80 98//99 88//88
f 84//84 97//98 81//81
f 66//66 86//86 84//84
f 99//100 98//99 93//94
f 86//86 90//90 100//101
f 84//84 86//86 100//101
f 87//87 88//88 101//102
f 101//102 102//92 87//87
f 87//87 102//92 91//91
f 90//90 105//103 100//101
f 105//103 90//90 89//89
f 89//89 104//104 105//103
f 89//89 69//69 104//104
f 107//105 104//104 69//69
f 69//69 72//72 107//105
f 92//93 110//106 109//107
f 100//101 97//98 84//84
f 97//98 111//108 96//97
f 97//98 100//101 103//109
f 103//109 111//108 97//98
f 96//97 112//110 93//94
f 96//97 111//108 112//110
f 88//88 98//99 99//100
f 112//110 99//100 93//94
f 100//101 114//111 103//109
f 103//109 114//111 115//112
f 101//102 99//100 116//113
f 101//102 88//88 99//100
f 102//92 101//102 106//114
f 100//101 105//103 114//111
f 106//114 110//106 102//92
f 101//102 116//113 106//114
f 102//92 110//106 92//93
f 117//115 105//103 104//104
f 104//104 107//105 117//115
f 108//116 107//105 72//72
f 92//93 118//117 72//72
f 72//72 118//117 108//116
f 92//93 109//107 118//117
f 118//117 109//107 119//118
f 103//109 115//112 111//108
f 116//113 99//100 113//119
f 112//110 113//119 99//100
f 112//110 120//120 113//119
f 111//108 120//120 112//110
f 114//111 121//121 115//112
f 120//120 111//108 115//112
f 116//113 122//122 106//114
f 114//111 105//103 117//115
f 106//114 122//122 123//123
f 114//111 124//124 121//121
f 123//123 125//125 110//106
f 106//114 123//123 110//106
f 109//107 110//106 125//125
f 109//107 125//125 119//118
f 119//118 127//126 118//117
f 118//117 127//126 108//116
f 107//105 108//116 126//127
f 125//125 128//128 119//118
f 113//119 122//122 116//113
f 115//112 121//121 129//129
f 115//112 129//129 120//120
f 129//129 121//121 130//130
f 124//124 114//111 117//115
f 128//128 125//125 123//123
f 107//105 131//131 117//115
f 107//105 126//127 131//131
f 132//132 131//131 126//127
f 117//115 131//131 133//133
f 120//120 129//129 134//134
f 113//119 120//120 134//134
f 130//130 121//121 135//135
f 135//135 121//121 124//124
f 136//136 123//123 122//122
f 124//124 117//115 133//133
f 124//124 133//133 135//135
f 123//123 136//136 128//128
f 127//126 126//127 108//116
f 128//128 136//136 138//137
f 127//126 119//118 139//138
f 122//122 113//119 137//139
f 140//140 113//119 134//134
f 136//136 122//122 137//139
f 129//129 130//130 142//141
f 133//133 131//131 143//142
f 119//118 144//143 139//138
f 119//118 128//128 144//143
f 127//126 139//138 145//144
f 127//126 145//144 126//127
f 137//139 113//119 140//140
f 135//135 142//141 130//130
f 129//129 142//141 146//145
f 129//129 146//145 134//134
f 143//142 131//131 132//132
f 147//146 144//143 128//128
f 147//146 128//128 138//137
f 126//127 145//144 132//132
f 141//147 138//137 136//136
f 136//136 137//139 141//147
f 143//142 148//148 133//133
f 149//149 132//132 145//144
f 134//134 146//145 140//140
f 135//135 133//133 148//148
f 142//141 135//135 148//148
f 148//148 143//142 150//150
f 139//138 151//151 145//144
f 143//142 132//132 149//149
f 153//152 146//145 142//141
f 137//139 140//140 154//153
f 155//154 140//140 146//145
f 141//147 137//139 154//153
f 149//149 152//155 143//142
f 143//142 152//155 150//150
f 149//149 145//144 151//151
f 139//138 144//143 151//151
f 154//153 140//140 155//154
f 142//141 148//148 156//156
f 147//146 157//157 144//143
f 138//137 157//157 147//146
f 149//149 151//151 152//155
f 144//143 158//158 151//151
f 146//145 153//152 155//154
f 159//159 155//154 153//152
f 150//150 160//160 148//148
f 154//153 161//161 141//147
f 148//148 160//160 156//156
f 141//147 162//162 138//137
f 162//162 157//157 138//137
f 141//147 161//161 162//162
f 150//150 152//155 163//163
f 160//160 150//150 163//163
f 164//164 163//163 152//155
f 151//151 164//164 152//155
f 151//151 158//158 164//164
f 159//159 153//152 165//165
f 165//165 153//152 142//141
f 166//166 155//154 159//159
f 154//153 166//166 161//161
f 154//153 155//154 166//166
f 156//156 167//167 142//141
f 165//165 142//141 167//167
f 168//168 166//166 159//159
f 166//166 168//168 161//161
f 165//165 168//168 159//159
f 167//167 156//156 169//169
f 161//161 168//168 170//170
f 156//156 160//160 169//169
f 162//162 171//171 157//157
f 161//161 172//172 162//162
f 170//170 172//172 161//161
f 173//173 164//164 158//158
f 174//174 163//163 164//164
f 172//172 171//171 162//162
f 175//175 163//163 174//174
f 176//176 168//168 165//165
f 175//175 160//160 163//163
f 175//175 169//169 160//160
f 168//168 176//176 170//170
f 177//177 170//170 176//176
f 174//174 164//164 173//173
f 174//174 178//178 175//175
f 158//158 144//143 179//179
f 173//173 158//158 182//180
f 158//158 179//179 182//180
f 178//178 174//174 173//173
f 179//179 157//157 171//171
f 179//179 144//143 157//157
f 171//171 172//172 181//181
f 170//170 181//181 172//172
f 182//180 178//178 173//173
f 183//182 182//180 179//179
f 176//176 165//165 167//167
f 184//183 167//167 169//169
f 167//167 184//183 176//176
f 180//184 176//176 184//183
f 177//177 176//176 180//184
f 185//185 181//181 170//170
f 185//185 170//170 177//177
f 175//175 178//178 187//186
f 188//187 178//178 182//180
f 177//177 180//184 186//188
f 169//169 175//175 187//186
f 178//178 188//187 187//186
f 188//187 182//180 183//182
f 184//183 186//188 180//184
f 186//188 189//189 177//177
f 189//189 185//185 177//177
f 190//190 181//181 185//185
f 187//186 188//187 191//191
f 179//179 171//171 181//181
f 188//187 183//182 191//191
f 192//192 184//183 169//169
f 169//169 187//186 192//192
f 189//189 190//190 185//185
f 190//190 193//193 181//181
f 194//194 187//186 191//191
f 183//182 195//195 191//191
f 186//188 184//183 196//196
f 186//188 196//196 189//189
f 184//183 192//192 196//196
f 193//193 179//179 181//181
f 197//197 195//195 183//182
f 179//179 197//197 183//182
f 179//179 193//193 197//197
f 194//194 192//192 187//186
f 198//198 195//195 197//197
f 200//199 197//197 193//193
f 200//199 198//198 197//197
f 195//195 201//200 191//191
f 195//195 198//198 201//200
f 199//201 189//189 196//196
f 196//196 192//192 202//202
f 196//196 202//202 199//201
f 191//191 201//200 194//194
f 193//193 190//190 203//203
f 189//189 204//204 190//190
f 204//204 203//203 190//190
f 199//201 204//204 189//189
f 199//201 202//202 205//205
f 199//201 206//206 204//204
f 192//192 194//194 207//207
f 194//194 208//208 207//207
f 208//208 194//194 201//200
f 200//199 193//193 203//203
f 206//206 199//201 205//205
f 207//207 202//202 192//192
f 200//199 203//203 209//209
f 201//200 198//198 214//210
f 210//211 200//199 209//209
f 202//202 207//207 205//205
f 207//207 208//208 211//212
f 207//207 211//212 205//205
f 209//209 203//203 204//204
f 206//206 205//205 212//213
f 204//204 206//206 213//214
f 200//199 210//211 198//198
f 198//198 210//211 214//210
f 205//205 215//215 212//213
f 215//215 205//205 211//212
f 213//214 217//216 204//204
f 217//216 209//209 204//204
f 209//209 217//216 210//211
f 210//211 216//217 214//210
f 218//218 201//200 214//210
f 201//200 219//219 208//208
f 219//219 201//200 218//218
f 220//220 219//219 218//218
f 214//210 216//217 218//218
f 216//217 217//216 221//221
f 217//216 216//217 210//211
f 206//206 212//213 213//214
f 219//219 211//212 208//208
f 220//220 218//218 222//222
f 218//218 216//217 222//222
f 221//221 222//222 216//217
f 222//222 211//212 219//219
f 222//222 219//219 220//220
f 222//222 221//221 223//223
f 215//215 211//212 212//213
f 212//213 211//212 223//223
f 223//223 213//214 212//213
f 211//212 222//222 223//223
f 217//216 213//214 221//221
f 213//214 223//223 221//221
