# Blender v2.78 (sub 0) OBJ File: 'exporter.blend'
# www.blender.org
o FJ2353.obj_grp1.1090
v -1.495668 -0.795097 3.376846
v -1.495876 -0.794847 3.377388
v -1.495824 -0.795368 3.377979
v -1.495698 -0.795247 3.377933
v -1.494941 -0.793501 3.379593
v -1.495876 -0.794847 3.377388
v -1.495373 -0.794157 3.376766
v -1.494961 -0.794735 3.376548
v -1.495576 -0.795007 3.376932
v -1.495876 -0.794847 3.377388
v -1.495504 -0.793666 3.377887
v -1.494884 -0.794765 3.376303
v -1.494625 -0.795788 3.377725
v -1.493933 -0.795190 3.377320
v -1.488628 -0.789815 3.384960
v -1.479476 -0.779360 3.397825
v -1.472438 -0.768830 3.410952
v -1.480662 -0.781222 3.398476
v -1.479837 -0.776745 3.402157
v -1.477090 -0.777809 3.402312
v -1.475809 -0.771894 3.407459
v -1.477732 -0.776661 3.404922
v -1.477732 -0.776661 3.404922
v -1.479450 -0.776276 3.402795
v -1.469318 -0.766326 3.420059
v -1.469215 -0.767844 3.414939
v -1.469347 -0.766407 3.419602
v -1.471910 -0.766774 3.416105
v -1.460849 -0.751912 3.435374
v -1.455436 -0.744424 3.448973
v -1.466460 -0.762849 3.420341
v -1.452595 -0.746316 3.449661
v -1.453538 -0.743599 3.447513
v -1.451605 -0.745250 3.449036
v -1.456843 -0.749326 3.444750
v -1.428146 -0.717125 3.491976
v -1.450325 -0.738526 3.457037
v -1.436659 -0.725508 3.483665
v -1.433602 -0.720165 3.487486
v -1.436053 -0.723081 3.484557
v -1.436053 -0.723081 3.484557
v -1.433602 -0.720165 3.487486
v -1.428755 -0.720594 3.489745
v -1.424582 -0.710373 3.502412
v -1.426906 -0.718753 3.496420
v -1.427490 -0.713191 3.502085
v -1.421225 -0.709552 3.512364
v -1.425145 -0.711643 3.507156
v -1.424555 -0.708540 3.506363
v -1.421483 -0.710815 3.504646
v -1.419189 -0.708602 3.511646
v -1.401917 -0.676106 3.563864
v -1.403347 -0.680390 3.550851
v -1.399123 -0.670815 3.562684
v -1.405879 -0.685384 3.547582
v -1.407840 -0.679256 3.554475
v -1.412142 -0.685891 3.540780
v -1.405666 -0.677204 3.551956
v -1.404569 -0.673667 3.559819
v -1.403444 -0.680449 3.550822
v -1.398410 -0.667799 3.566947
v -1.397691 -0.672985 3.563326
v -1.399576 -0.676205 3.561924
v -1.398288 -0.667379 3.574190
v -1.395009 -0.663072 3.576198
v -1.393668 -0.669736 3.573366
v -1.388161 -0.664772 3.583150
v -1.385628 -0.659437 3.592916
v -1.388054 -0.662906 3.587610
v -1.391102 -0.661251 3.585526
v -1.386219 -0.662458 3.582462
v -1.385512 -0.658786 3.584314
v -1.384317 -0.655241 3.593147
v -1.380279 -0.652826 3.596052
v -1.381130 -0.654782 3.599018
v -1.375059 -0.657008 3.600813
v -1.377763 -0.657559 3.593553
v -1.370955 -0.649615 3.603626
v -1.374825 -0.650853 3.605390
v -1.366898 -0.653469 3.611060
v -1.373531 -0.652655 3.598851
v -1.368906 -0.650814 3.612129
v -1.363234 -0.651426 3.616080
v -1.369787 -0.648281 3.607252
v -1.365550 -0.653287 3.608144
v -1.364104 -0.650946 3.607955
v -1.360654 -0.646456 3.617970
v -1.355965 -0.651069 3.615807
v -1.358132 -0.649126 3.621073
v -1.356126 -0.645121 3.618749
v -1.355085 -0.651578 3.619006
v -1.358202 -0.648164 3.613001
v -1.351386 -0.645228 3.619585
v -1.350375 -0.650765 3.624190
v -1.347008 -0.649646 3.620631
v -1.346637 -0.647162 3.628047
v -1.343391 -0.646175 3.622549
v -1.344359 -0.644556 3.626081
v -1.348370 -0.645387 3.626019
v -1.343140 -0.651257 3.625045
v -1.340560 -0.649218 3.630643
v -1.340023 -0.649397 3.623988
v -1.336291 -0.647454 3.625365
v -1.328351 -0.645113 3.630979
v -1.327924 -0.646292 3.629225
v -1.328267 -0.645275 3.633537
v -1.324073 -0.646458 3.636564
v -1.329414 -0.651840 3.632848
v -1.324687 -0.648457 3.636762
v -1.324408 -0.651119 3.631287
v -1.323313 -0.648842 3.630026
v -1.322369 -0.646714 3.630574
v -1.324241 -0.644693 3.634881
v -1.323903 -0.651136 3.633719
v -1.323805 -0.649866 3.635938
v -1.321758 -0.647943 3.635385
v -1.321690 -0.645992 3.634035
v -1.323868 -0.644799 3.631537
v -1.322893 -0.644753 3.632661
v -1.321196 -0.649171 3.632700
v -1.321722 -0.649405 3.634574
vn -0.3707 -0.8252 -0.4262
vn -0.4486 -0.8721 0.1957
vn -0.9319 -0.3223 -0.1664
vn -0.9332 0.0682 0.3528
vn -0.8914 0.3801 0.2467
vn -0.9376 0.1131 0.3288
vn -0.4261 0.5710 -0.7017
vn -0.5130 -0.0440 -0.8573
vn -0.6848 0.0219 -0.7284
vn -0.8687 0.2451 -0.4303
vn -0.7697 0.6304 -0.1005
vn 0.1740 -0.9845 -0.0238
vn 0.4212 -0.1384 -0.8963
vn 0.7127 -0.4980 -0.4940
vn 0.6646 -0.7434 0.0749
vn 0.7499 0.2186 -0.6243
vn 0.1782 0.7565 -0.6292
vn 0.2361 -0.8659 0.4410
vn -0.6454 -0.2928 0.7055
vn 0.7903 -0.6126 -0.0106
vn -0.6566 -0.3193 0.6833
vn -0.1658 -0.7603 0.6281
vn -0.7136 -0.2951 0.6353
vn -0.8624 0.4567 0.2184
vn -0.5875 0.7710 -0.2458
vn -0.8071 -0.1850 0.5608
vn 0.9156 -0.2161 -0.3391
vn -0.0042 -0.8278 0.5610
vn -0.9198 0.2315 0.3168
vn -0.4117 0.8441 -0.3434
vn -0.9150 0.3282 0.2345
vn 0.6809 0.4020 -0.6121
vn 0.4026 -0.8523 0.3337
vn 0.0832 0.8287 -0.5535
vn 0.8009 -0.5986 -0.0175
vn -0.4846 -0.5934 0.6427
vn 0.5717 0.5881 -0.5721
vn -0.6412 0.7585 -0.1164
vn -0.8509 -0.1157 0.5125
vn -0.5151 0.8283 -0.2205
vn -0.8010 0.5942 0.0734
vn -0.9024 0.0697 0.4252
vn -0.8520 0.5110 0.1138
vn -0.3474 0.8565 -0.3816
vn 0.9020 -0.2313 -0.3646
vn 0.5717 -0.7885 0.2266
vn -0.9170 0.2793 0.2850
vn 0.0186 -0.8508 0.5252
vn -0.7991 -0.2511 0.5462
vn -0.7679 0.6302 -0.1146
vn 0.8985 0.0772 -0.4320
vn 0.8014 -0.5977 0.0227
vn 0.8070 0.2946 -0.5118
vn 0.5388 0.5668 -0.6232
vn -0.2260 -0.7644 0.6038
vn 0.7827 -0.6149 0.0962
vn -0.9222 0.0099 0.3865
vn -0.7812 0.6172 -0.0936
vn -0.1873 0.8675 -0.4609
vn -0.7773 0.6292 -0.0061
vn 0.9258 -0.3295 -0.1853
vn -0.1600 0.8881 -0.4309
vn 0.8923 -0.0347 -0.4502
vn 0.6543 -0.7435 0.1382
vn -0.8816 0.0658 0.4674
vn -0.5138 0.8504 -0.1135
vn 0.6228 -0.7790 0.0722
vn 0.5225 -0.8429 0.1282
vn -0.6390 -0.3605 0.6795
vn -0.2514 -0.7949 0.5522
vn 0.4656 0.6153 -0.6361
vn -0.8569 0.1952 0.4770
vn 0.8691 -0.2838 -0.4051
vn -0.6701 0.7269 0.1501
vn -0.2970 0.9412 -0.1611
vn 0.4772 -0.8778 -0.0412
vn -0.7868 0.1927 0.5863
vn 0.7986 -0.4212 -0.4299
vn 0.2098 0.8214 -0.5304
vn -0.7003 0.5656 0.4356
vn 0.1082 -0.9674 0.2290
vn 0.5968 0.4334 -0.6753
vn -0.6743 0.0123 0.7384
vn -0.3680 -0.6578 0.6572
vn -0.2746 0.9611 -0.0296
vn 0.5577 -0.7846 -0.2707
vn 0.6997 -0.3064 -0.6454
vn -0.4999 0.7080 0.4988
vn 0.6111 0.1955 -0.7670
vn 0.5086 -0.6661 -0.5456
vn -0.5382 -0.1153 0.8349
vn -0.0958 0.9953 0.0157
vn 0.1167 -0.9927 -0.0287
vn 0.2229 0.8875 -0.4034
vn -0.2658 -0.7960 0.5438
vn 0.4449 -0.4729 -0.7606
vn 0.4275 0.4028 -0.8093
vn -0.4139 0.1722 0.8939
vn -0.3693 0.7168 0.5915
vn 0.1150 -0.9465 -0.3016
vn -0.3511 -0.3462 0.8700
vn -0.0460 0.9826 0.1801
vn 0.3578 -0.4654 -0.8096
vn 0.3889 0.1168 -0.9139
vn 0.0785 0.9668 -0.2431
vn 0.1930 0.7694 -0.6090
vn 0.1552 0.4469 0.8810
vn -0.0882 -0.9183 0.3858
vn -0.0009 -0.2171 0.9762
vn -0.1636 0.9230 0.3483
vn 0.3588 -0.8454 -0.3956
vn 0.5310 -0.2881 -0.7969
vn 0.6907 0.2998 -0.6581
vn 0.0930 0.8934 0.4395
vn 0.3261 -0.9245 0.1973
vn 0.2505 -0.6039 0.7567
vn 0.7914 0.0056 0.6113
vn 0.8660 0.4617 0.1917
vn 0.1905 0.8769 -0.4414
vn 0.5118 0.8514 -0.1150
vn 0.9196 -0.3383 -0.1996
vn 0.7835 -0.4929 0.3783
s 1
f 1//1 3//2 2//3
f 4//4 5//5 6//6
f 7//7 8//8 9//9
f 9//9 10//10 7//7
f 10//10 11//11 7//7
f 6//6 5//5 11//11
f 1//1 13//12 3//2
f 12//13 13//12 1//1
f 14//14 13//12 12//13
f 15//15 13//12 14//14
f 12//13 16//16 14//14
f 16//16 12//13 7//7
f 17//17 16//16 7//7
f 13//12 18//18 3//2
f 5//5 19//19 11//11
f 20//20 18//18 13//12
f 13//12 15//15 20//20
f 7//7 11//11 17//17
f 18//18 5//21 3//2
f 14//14 16//16 20//20
f 5//21 18//18 22//22
f 5//5 23//23 19//19
f 24//24 11//11 19//19
f 11//11 21//25 17//17
f 21//25 11//11 24//24
f 19//19 23//23 25//26
f 20//20 16//16 26//27
f 27//28 22//22 18//18
f 28//29 19//19 25//26
f 18//18 20//20 27//28
f 28//29 21//25 24//24
f 17//17 21//25 29//30
f 28//29 30//31 21//25
f 16//16 17//17 31//32
f 26//27 16//16 31//32
f 28//29 25//26 30//31
f 32//33 20//20 26//27
f 21//25 30//31 29//30
f 27//28 20//20 32//33
f 17//17 33//34 31//32
f 34//35 32//33 26//27
f 33//34 17//17 29//30
f 31//32 34//35 26//27
f 35//36 27//28 32//33
f 35//36 30//31 25//26
f 31//32 33//34 36//37
f 36//37 34//35 31//32
f 29//30 30//31 37//38
f 33//34 29//30 37//38
f 30//31 35//36 38//39
f 33//34 37//38 39//40
f 37//38 30//31 40//41
f 38//39 41//42 30//31
f 42//43 37//38 40//41
f 39//40 44//44 33//34
f 34//35 43//45 45//46
f 36//37 43//45 34//35
f 44//44 36//37 33//34
f 38//39 46//47 41//42
f 45//46 32//33 34//35
f 47//48 32//33 45//46
f 47//48 38//39 35//36
f 35//36 32//33 47//48
f 40//41 46//47 42//43
f 38//39 48//49 46//47
f 38//39 47//48 48//49
f 49//50 44//44 39//40
f 43//45 36//37 50//51
f 45//46 43//45 51//52
f 51//52 43//45 50//51
f 49//50 42//43 46//47
f 45//46 51//52 47//48
f 46//47 48//49 49//50
f 53//53 50//51 36//37
f 36//37 54//54 53//53
f 53//53 51//52 50//51
f 52//55 48//49 47//48
f 55//56 47//48 51//52
f 48//49 56//57 49//50
f 56//57 57//58 49//50
f 44//44 49//50 58//59
f 58//59 49//50 57//58
f 58//59 36//37 44//44
f 48//49 52//55 56//57
f 57//58 56//57 59//60
f 57//58 59//60 58//59
f 52//55 47//48 55//56
f 51//52 60//61 55//56
f 58//59 54//54 36//37
f 58//59 59//60 61//62
f 55//56 60//61 62//63
f 55//56 63//64 52//55
f 63//64 55//56 62//63
f 54//54 58//59 61//62
f 59//60 56//57 64//65
f 65//66 59//60 64//65
f 61//62 59//60 65//66
f 52//55 63//64 66//67
f 54//54 62//63 53//53
f 66//67 63//64 62//63
f 56//57 52//55 64//65
f 52//55 66//67 67//68
f 68//69 64//65 52//55
f 68//69 52//55 69//70
f 54//54 72//71 62//63
f 70//72 65//66 64//65
f 52//55 67//68 69//70
f 62//63 72//71 71//73
f 62//63 71//73 66//67
f 64//65 68//69 70//72
f 54//54 61//62 72//71
f 61//62 65//66 72//71
f 65//66 70//72 73//74
f 65//66 73//74 74//75
f 72//71 65//66 74//75
f 67//68 76//76 69//70
f 68//69 75//77 70//72
f 75//77 73//74 70//72
f 71//73 67//68 66//67
f 67//68 71//73 77//78
f 78//79 72//71 74//75
f 79//80 73//74 75//77
f 69//70 76//76 80//81
f 76//76 67//68 77//78
f 71//73 72//71 77//78
f 77//78 72//71 81//82
f 73//74 79//80 74//75
f 75//77 68//69 82//83
f 83//84 68//69 69//70
f 82//83 68//69 83//84
f 81//82 72//71 78//79
f 79//80 84//85 74//75
f 75//77 82//83 79//80
f 80//81 83//84 69//70
f 74//75 84//85 78//79
f 85//86 76//76 77//78
f 77//78 86//87 85//86
f 86//87 77//78 81//82
f 87//88 84//85 79//80
f 80//81 76//76 85//86
f 81//82 92//89 86//87
f 81//82 78//79 92//89
f 85//86 86//87 88//90
f 79//80 82//83 87//88
f 83//84 89//91 82//83
f 87//88 82//83 89//91
f 87//88 90//92 84//85
f 85//86 91//93 80//81
f 88//90 86//87 92//89
f 78//79 84//85 93//94
f 84//85 90//92 93//94
f 85//86 88//90 91//93
f 80//81 91//93 83//84
f 91//93 94//95 83//84
f 83//84 94//95 89//91
f 92//89 78//79 93//94
f 88//90 95//96 91//93
f 92//89 95//96 88//90
f 97//97 95//96 92//89
f 96//98 87//88 89//91
f 99//99 87//88 96//98
f 99//99 90//92 87//88
f 91//93 100//100 94//95
f 89//91 94//95 101//101
f 99//99 98//102 90//92
f 91//93 95//96 100//100
f 89//91 101//101 96//98
f 97//97 92//89 93//94
f 90//92 98//102 93//94
f 102//103 100//100 95//96
f 97//97 103//104 95//96
f 103//104 102//103 95//96
f 97//97 93//94 104//105
f 104//105 93//94 98//102
f 103//104 97//97 105//106
f 105//106 97//97 104//105
f 107//107 99//99 96//98
f 101//101 94//95 108//108
f 96//98 101//101 109//109
f 99//99 106//110 98//102
f 106//110 99//99 107//107
f 98//102 106//110 104//105
f 100//100 108//108 94//95
f 109//109 101//101 108//108
f 109//109 107//107 96//98
f 100//100 102//103 110//111
f 110//111 108//108 100//100
f 102//103 103//104 111//112
f 112//113 103//104 105//106
f 112//113 111//112 103//104
f 107//107 113//114 106//110
f 110//111 102//103 111//112
f 108//108 110//111 114//115
f 108//108 114//115 115//116
f 115//116 109//109 108//108
f 109//109 116//117 107//107
f 117//118 113//114 107//107
f 112//113 105//106 118//119
f 104//105 106//110 113//114
f 105//106 104//105 118//119
f 118//119 104//105 113//114
f 118//119 113//114 119//120
f 117//118 119//120 113//114
f 112//113 118//119 119//120
f 110//111 120//121 114//115
f 121//122 115//116 114//115
f 120//121 121//122 114//115
f 120//121 110//111 111//112
f 111//112 112//113 120//121
f 112//113 119//120 117//118
f 115//116 121//122 116//117
f 112//113 117//118 120//121
f 121//122 120//121 116//117
f 120//121 117//118 116//117
f 116//117 109//109 115//116
f 107//107 116//117 117//118
