# Blender v2.78 (sub 0) OBJ File: 'exporter.blend'
# www.blender.org
o FJ2339.obj_grp1.1076
v 1.305265 -0.640149 3.648262
v 1.305985 -0.642267 3.648317
v 1.307360 -0.640589 3.649143
v 1.307540 -0.642867 3.648385
v 1.306406 -0.638637 3.648360
v 1.305077 -0.638414 3.646072
v 1.306416 -0.637617 3.646066
v 1.304267 -0.641166 3.646696
v 1.304605 -0.641323 3.644345
v 1.305455 -0.643193 3.645815
v 1.306652 -0.643822 3.646762
v 1.306411 -0.643574 3.644470
v 1.305174 -0.638785 3.644338
v 1.306068 -0.640635 3.642865
v 1.319443 -0.636456 3.640592
v 1.321878 -0.638324 3.638900
v 1.320396 -0.638845 3.646062
v 1.327332 -0.638895 3.643796
v 1.330408 -0.634643 3.641761
v 1.331419 -0.640218 3.639011
v 1.319474 -0.641723 3.644523
v 1.336292 -0.633194 3.637597
v 1.336206 -0.638735 3.635394
v 1.336469 -0.635499 3.640625
v 1.339399 -0.635201 3.632908
v 1.342925 -0.636577 3.637977
v 1.349221 -0.637459 3.634168
v 1.353206 -0.631980 3.628664
v 1.346074 -0.638420 3.632406
v 1.348243 -0.632668 3.633958
v 1.347439 -0.633952 3.635657
v 1.357653 -0.632115 3.627434
v 1.355315 -0.634622 3.631816
v 1.352645 -0.636599 3.626806
v 1.361557 -0.638117 3.624597
v 1.356087 -0.637937 3.626694
v 1.360419 -0.633134 3.622449
v 1.360320 -0.637262 3.627434
v 1.354024 -0.635075 3.625433
v 1.358610 -0.632994 3.628727
v 1.367131 -0.637150 3.623115
v 1.363216 -0.634494 3.626362
v 1.361490 -0.637725 3.621393
v 1.363620 -0.635635 3.618610
v 1.367843 -0.637081 3.614701
v 1.368356 -0.633789 3.620524
v 1.368373 -0.633456 3.618152
v 1.367787 -0.638352 3.615301
v 1.371969 -0.640660 3.614810
v 1.370268 -0.635807 3.620457
v 1.374030 -0.636956 3.609340
v 1.372472 -0.640935 3.611932
v 1.378735 -0.640009 3.611086
v 1.373536 -0.635227 3.614565
v 1.376421 -0.637195 3.613428
v 1.382928 -0.645770 3.602641
v 1.383179 -0.641184 3.599355
v 1.380297 -0.638601 3.605827
v 1.376286 -0.641832 3.605121
v 1.376636 -0.640402 3.604477
v 1.383677 -0.641682 3.603688
v 1.378483 -0.644225 3.605359
v 1.385053 -0.644297 3.601934
v 1.383746 -0.647767 3.593247
v 1.382104 -0.643361 3.596694
v 1.387516 -0.651331 3.591840
v 1.384962 -0.649684 3.593257
v 1.393387 -0.654142 3.585326
v 1.389055 -0.645808 3.593806
v 1.393407 -0.656573 3.582604
v 1.391425 -0.657216 3.578514
v 1.393592 -0.659433 3.577589
v 1.390982 -0.654727 3.578406
v 1.392592 -0.649980 3.585155
v 1.396371 -0.655407 3.579387
v 1.396152 -0.656770 3.571971
v 1.417338 -0.694235 3.514435
v 1.405606 -0.670235 3.552290
v 1.418725 -0.694088 3.520868
v 1.415570 -0.692753 3.524826
v 1.420775 -0.695026 3.516271
v 1.411179 -0.687049 3.527548
v 1.412798 -0.690967 3.525810
v 1.431408 -0.712256 3.486680
v 1.436482 -0.724586 3.475504
v 1.423768 -0.707324 3.498308
v 1.431712 -0.716331 3.488307
v 1.429362 -0.707784 3.495069
v 1.435859 -0.718557 3.482605
v 1.431961 -0.717305 3.481282
v 1.437317 -0.722208 3.472384
v 1.439656 -0.722332 3.474569
v 1.441678 -0.731118 3.462910
v 1.447733 -0.734939 3.459431
v 1.457499 -0.746813 3.442606
v 1.449402 -0.734574 3.455962
v 1.450114 -0.736397 3.455640
v 1.449382 -0.739165 3.449473
v 1.458546 -0.746290 3.437573
v 1.454656 -0.746264 3.443583
v 1.460587 -0.747939 3.438512
v 1.457889 -0.747506 3.436525
v 1.460706 -0.747909 3.438508
v 1.461150 -0.752854 3.431510
v 1.457381 -0.746709 3.442779
v 1.466819 -0.757132 3.428243
v 1.468652 -0.756530 3.426639
v 1.468652 -0.756530 3.426639
v 1.476927 -0.764340 3.413208
v 1.499578 -0.790575 3.378535
v 1.493205 -0.783231 3.391569
v 1.500120 -0.791319 3.379195
v 1.494475 -0.782498 3.390847
v 1.498497 -0.785927 3.384297
v 1.500053 -0.789565 3.378137
v 1.500302 -0.789035 3.378345
v 1.500993 -0.791177 3.379928
v 1.501552 -0.789469 3.378813
v 1.500013 -0.791188 3.378609
v 1.501245 -0.790916 3.378695
v 1.500172 -0.791247 3.379200
v 1.500150 -0.791131 3.378564
v 1.501789 -0.790479 3.379520
v 1.500890 -0.789669 3.378163
v 1.500890 -0.789669 3.378163
vn -0.6766 0.1379 0.7233
vn -0.9667 -0.1380 0.2155
vn -0.5100 -0.4802 0.7137
vn -0.0188 0.0361 0.9992
vn 0.0527 -0.6481 0.7597
vn -0.2683 0.6284 0.7301
vn -0.3047 0.9521 0.0259
vn -0.7583 0.6462 0.0859
vn -0.7208 -0.6925 0.0293
vn -0.2456 -0.9392 0.2398
vn -0.8594 -0.2016 -0.4699
vn -0.2977 -0.8173 -0.4934
vn -0.6727 0.5513 -0.4934
vn -0.4094 -0.0024 -0.9123
vn -0.2904 0.6965 -0.6562
vn -0.2786 0.0254 -0.9601
vn 0.2780 0.0606 0.9587
vn 0.3528 -0.3604 0.8635
vn 0.1290 -0.9865 -0.1007
vn 0.2755 -0.8506 0.4478
vn 0.0978 0.7743 0.6252
vn -0.0611 0.9943 0.0877
vn -0.1584 -0.6750 -0.7206
vn 0.3286 0.2858 0.9002
vn -0.3304 0.0774 -0.9406
vn 0.4342 -0.2238 0.8726
vn 0.3657 -0.7070 0.6053
vn -0.1212 0.9681 -0.2192
vn 0.0377 -0.9852 -0.1672
vn 0.1710 0.8942 0.4138
vn 0.3582 0.4360 0.8256
vn 0.5215 0.1106 0.8461
vn 0.1584 0.9742 0.1609
vn -0.3872 -0.5821 -0.7150
vn -0.0327 -0.9953 0.0917
vn -0.2258 -0.8948 -0.3852
vn -0.3465 0.7330 -0.5853
vn 0.3708 -0.7091 0.5997
vn -0.4725 -0.0858 -0.8772
vn 0.4199 0.6698 0.6125
vn 0.5865 -0.4190 0.6932
vn 0.6060 0.3129 0.7314
vn -0.4270 -0.7643 -0.4833
vn -0.6110 0.0550 -0.7897
vn -0.7047 -0.0944 -0.7032
vn 0.4871 0.7960 0.3593
vn 0.7161 0.2272 0.6599
vn 0.0897 0.9769 -0.1940
vn -0.6547 -0.5329 -0.5360
vn -0.1835 -0.9695 0.1626
vn -0.2936 0.7764 -0.5578
vn -0.5599 -0.8170 -0.1378
vn 0.7676 -0.1854 0.6135
vn 0.4407 0.8963 0.0500
vn 0.7612 0.4672 0.4497
vn 0.2811 -0.7737 0.5678
vn 0.1940 0.9179 -0.3461
vn -0.8007 -0.4051 -0.4414
vn -0.7723 0.1804 -0.6091
vn 0.4728 0.8786 -0.0666
vn 0.8430 0.4245 0.3303
vn -0.4921 -0.8673 0.0754
vn -0.8950 -0.2361 -0.3785
vn -0.5295 0.5494 -0.6464
vn 0.8093 -0.1949 0.5541
vn -0.2727 -0.9073 0.3200
vn 0.8384 0.5316 0.1204
vn -0.6906 -0.7225 0.0331
vn 0.7537 -0.3613 0.5490
vn 0.2102 -0.8035 0.5570
vn -0.8751 -0.4618 -0.1448
vn -0.4097 -0.8477 0.3371
vn -0.8189 0.1979 -0.5387
vn 0.6276 0.7627 -0.1559
vn 0.9467 0.2133 0.2415
vn 0.0783 0.8488 -0.5229
vn -0.4955 0.6021 -0.6261
vn 0.6801 0.7059 -0.1981
vn 0.7434 -0.4148 0.5247
vn 0.0245 -0.8292 0.5584
vn 0.9436 0.0994 0.3157
vn -0.8915 0.1070 -0.4402
vn -0.7494 -0.6594 0.0606
vn 0.1429 0.8412 -0.5215
vn -0.5243 -0.8158 0.2442
vn -0.9312 -0.2684 -0.2465
vn 0.2536 -0.7126 0.6542
vn 0.8045 0.5838 -0.1089
vn 0.8433 -0.1749 0.5081
vn -0.8281 0.1747 -0.5327
vn -0.4191 0.6244 -0.6592
vn 0.8870 0.4513 0.0981
vn -0.9021 -0.3022 -0.3082
vn 0.7644 -0.2688 0.5861
vn 0.0585 -0.7632 0.6435
vn 0.8641 0.4887 0.1205
vn 0.8880 0.1334 0.4401
vn -0.8239 0.0614 -0.5634
vn -0.4919 -0.8417 0.2225
vn 0.2477 0.8557 -0.4544
vn 0.7861 -0.1520 0.5991
vn -0.5887 0.4084 -0.6976
vn 0.6292 0.7466 -0.2159
vn 0.7280 -0.2466 0.6397
vn 0.3981 -0.6302 0.6666
vn -0.8589 -0.3350 -0.3874
vn 0.7337 -0.2022 0.6487
vn 0.5256 0.8226 -0.2171
vn 0.8703 0.3548 0.3416
vn -0.7329 -0.3335 -0.5931
vn 0.2168 -0.7320 0.6458
vn -0.6124 -0.7752 0.1550
vn 0.8218 0.0021 0.5697
vn 0.8120 0.5741 0.1054
vn -0.3310 0.0989 -0.9384
vn 0.0006 0.7222 -0.6917
vn 0.3612 -0.8294 0.4261
vn -0.8218 -0.5674 0.0516
vn 0.5446 -0.6099 -0.5758
vn 0.2191 -0.9655 -0.1408
vn 0.1247 -0.6503 -0.7494
vn 0.9562 -0.2745 0.1017
vn 0.2863 -0.1246 -0.9500
vn 0.8482 0.4297 -0.3097
vn 0.4800 0.6041 -0.6361
s 1
f 1//1 8//2 2//3
f 1//1 2//3 3//4
f 3//4 2//3 4//5
f 5//6 7//7 6//8
f 3//4 5//6 1//1
f 10//9 11//10 8//2
f 8//2 9//11 10//9
f 9//11 12//12 10//9
f 2//3 8//2 11//10
f 11//10 4//5 2//3
f 11//10 10//9 12//12
f 8//2 6//8 13//13
f 8//2 13//13 9//11
f 1//1 6//8 8//2
f 5//6 6//8 1//1
f 13//13 6//8 7//7
f 14//14 13//13 15//15
f 12//12 9//11 14//14
f 14//14 16//16 12//12
f 9//11 13//13 14//14
f 4//5 17//17 3//4
f 4//5 18//18 17//17
f 17//17 5//6 3//4
f 12//12 20//19 11//10
f 21//20 4//5 11//10
f 21//20 11//10 20//19
f 7//7 15//15 13//13
f 16//16 14//14 15//15
f 17//17 19//21 5//6
f 21//20 18//18 4//5
f 7//7 5//6 19//21
f 15//15 7//7 22//22
f 22//22 7//7 19//21
f 23//23 12//12 16//16
f 12//12 23//23 20//19
f 24//24 17//17 18//18
f 24//24 19//21 17//17
f 15//15 25//25 16//16
f 18//18 26//26 24//24
f 18//18 21//20 27//27
f 20//19 27//27 21//20
f 28//28 25//25 15//15
f 29//29 20//19 23//23
f 28//28 15//15 22//22
f 26//26 18//18 27//27
f 30//30 22//22 19//21
f 23//23 16//16 25//25
f 31//31 24//24 26//26
f 20//19 29//29 27//27
f 24//24 31//31 19//21
f 31//31 30//30 19//21
f 31//31 26//26 33//32
f 26//26 27//27 33//32
f 30//30 28//28 22//22
f 28//28 30//30 32//33
f 29//29 23//23 34//34
f 35//35 29//29 36//36
f 25//25 28//28 37//37
f 23//23 25//25 34//34
f 35//35 27//27 29//29
f 38//38 27//27 35//35
f 36//36 29//29 34//34
f 25//25 39//39 34//34
f 38//38 33//32 27//27
f 30//30 40//40 32//33
f 31//31 40//40 30//30
f 33//32 40//40 31//31
f 39//39 25//25 37//37
f 33//32 38//38 41//41
f 33//32 41//41 42//42
f 36//36 34//34 43//43
f 34//34 39//39 44//44
f 44//44 43//43 34//34
f 44//44 39//39 37//37
f 33//32 42//42 40//40
f 43//43 44//44 45//45
f 42//42 46//46 40//40
f 32//33 40//40 46//46
f 35//35 36//36 43//43
f 42//42 50//47 46//46
f 47//48 37//37 28//28
f 32//33 46//46 47//48
f 47//48 28//28 32//33
f 43//43 48//49 49//50
f 43//43 45//45 48//49
f 42//42 41//41 50//47
f 35//35 43//43 49//50
f 38//38 35//35 49//50
f 41//41 38//38 49//50
f 51//51 37//37 47//48
f 49//50 48//49 52//52
f 44//44 37//37 51//51
f 50//47 41//41 53//53
f 46//46 54//54 47//48
f 55//55 46//46 50//47
f 54//54 46//46 55//55
f 56//56 41//41 49//50
f 45//45 44//44 51//51
f 53//53 55//55 50//47
f 57//57 51//51 47//48
f 59//58 48//49 45//45
f 59//58 52//52 48//49
f 59//58 45//45 60//59
f 51//51 60//59 45//45
f 55//55 58//60 54//54
f 58//60 55//55 61//61
f 49//50 52//52 62//62
f 56//56 49//50 62//62
f 55//55 53//53 61//61
f 54//54 58//60 47//48
f 58//60 57//57 47//48
f 52//52 59//58 62//62
f 60//59 64//63 59//58
f 65//64 51//51 57//57
f 60//59 51//51 65//64
f 60//59 65//64 64//63
f 53//53 41//41 56//56
f 53//53 63//65 61//61
f 56//56 63//65 53//53
f 56//56 62//62 66//66
f 58//60 69//67 57//57
f 66//66 62//62 67//68
f 62//62 59//58 67//68
f 59//58 64//63 67//68
f 68//69 63//65 56//56
f 63//65 69//67 61//61
f 70//70 68//69 56//56
f 58//60 61//61 69//67
f 70//70 56//56 66//66
f 64//63 71//71 67//68
f 66//66 67//68 72//72
f 67//68 71//71 72//72
f 65//64 73//73 64//63
f 57//57 69//67 74//74
f 68//69 75//75 63//65
f 76//76 65//64 57//57
f 71//71 64//63 73//73
f 73//73 65//64 76//76
f 63//65 75//75 69//67
f 69//67 75//75 74//74
f 74//74 76//76 57//57
f 77//77 73//73 76//76
f 75//75 78//78 74//74
f 79//79 68//69 80//80
f 68//69 79//79 75//75
f 74//74 78//78 76//76
f 80//80 68//69 70//70
f 70//70 66//66 72//72
f 70//70 72//72 80//80
f 75//75 79//79 81//81
f 81//81 78//78 75//75
f 73//73 77//77 82//82
f 73//73 82//82 71//71
f 71//71 83//83 72//72
f 71//71 82//82 83//83
f 76//76 84//84 77//77
f 80//80 72//72 83//83
f 85//85 80//80 83//83
f 82//82 86//86 83//83
f 80//80 87//87 79//79
f 86//86 85//85 83//83
f 88//88 78//78 81//81
f 78//78 88//88 76//76
f 84//84 76//76 88//88
f 82//82 77//77 86//86
f 89//89 88//88 81//81
f 81//81 79//79 89//89
f 80//80 85//85 87//87
f 86//86 77//77 90//90
f 91//91 90//90 77//77
f 84//84 91//91 77//77
f 79//79 87//87 89//89
f 89//89 92//92 88//88
f 88//88 92//92 84//84
f 86//86 90//90 93//93
f 86//86 93//93 85//85
f 87//87 94//94 89//89
f 95//95 87//87 85//85
f 84//84 92//92 96//96
f 92//92 89//89 96//96
f 89//89 94//94 97//97
f 89//89 97//97 96//96
f 93//93 90//90 98//98
f 91//91 98//98 90//90
f 85//85 93//93 100//99
f 84//84 99//100 91//91
f 96//96 99//100 84//84
f 93//93 98//98 100//99
f 101//101 97//97 94//94
f 98//98 91//91 102//102
f 103//103 96//96 97//97
f 96//96 103//103 99//100
f 99//100 102//102 91//91
f 94//94 105//104 101//101
f 106//105 95//95 100//99
f 100//99 98//98 104//106
f 104//106 98//98 102//102
f 95//95 85//85 100//99
f 105//104 106//105 107//107
f 101//101 105//104 107//107
f 103//103 109//108 99//100
f 109//108 103//103 108//109
f 110//110 104//106 102//102
f 106//105 100//99 111//111
f 112//112 104//106 110//110
f 112//112 100//99 104//106
f 100//99 112//112 111//111
f 113//113 106//105 111//111
f 106//105 113//113 107//107
f 114//114 108//109 113//113
f 109//108 108//109 114//114
f 109//108 115//115 99//100
f 115//115 102//102 99//100
f 110//110 102//102 115//115
f 109//108 116//116 115//115
f 111//111 117//117 113//113
f 110//110 119//118 112//112
f 117//117 111//111 112//112
f 120//119 117//117 121//120
f 122//121 120//119 121//120
f 120//119 123//122 117//117
f 122//121 110//110 115//115
f 122//121 115//115 124//123
f 124//123 115//115 116//116
f 113//113 117//117 123//122
f 113//113 123//122 114//114
f 114//114 118//124 109//108
f 123//122 118//124 114//114
f 109//108 118//124 116//116
f 118//124 125//125 116//116
f 124//123 120//119 122//121
f 120//119 118//124 123//122
f 124//123 118//124 120//119
