# Blender v2.78 (sub 0) OBJ File: 'exporter.blend'
# www.blender.org
o FJ2369.obj_grp1.1106
v -1.164788 -0.904486 3.130417
v -1.158457 -0.869152 3.151075
v -1.164332 -0.904249 3.131219
v -1.163876 -0.905039 3.130924
v -1.163428 -0.905091 3.130457
v -1.163999 -0.905430 3.130557
v -1.164488 -0.904763 3.129962
v -1.163892 -0.905175 3.130513
v -1.164689 -0.904650 3.130427
v -1.164689 -0.904650 3.130427
v -1.164488 -0.904763 3.129962
v -1.164469 -0.904317 3.129761
v -1.164009 -0.904767 3.129657
v -1.164488 -0.904763 3.129962
v -1.164469 -0.904317 3.129761
v -1.164074 -0.904323 3.129477
v -1.163995 -0.904866 3.129543
v -1.164042 -0.904340 3.129526
v -1.163906 -0.905218 3.130484
v -1.163455 -0.905068 3.130441
v -1.163906 -0.905218 3.130484
v -1.163489 -0.904008 3.129683
v -1.163549 -0.904763 3.129723
v -1.164009 -0.904767 3.129657
v -1.163530 -0.904049 3.129723
v -1.164042 -0.904340 3.129526
v -1.162671 -0.902730 3.131723
v -1.163065 -0.904509 3.130207
v -1.163065 -0.904509 3.130207
v -1.163065 -0.904509 3.130207
v -1.163549 -0.904763 3.129723
v -1.162671 -0.902730 3.131723
v -1.163065 -0.904509 3.130207
v -1.162591 -0.902016 3.131366
v -1.162591 -0.902016 3.131366
v -1.158433 -0.873936 3.149306
v -1.157644 -0.870231 3.148830
v -1.156929 -0.872987 3.147970
v -1.157037 -0.870755 3.151330
v -1.155367 -0.853212 3.160696
v -1.155095 -0.852143 3.163490
v -1.156716 -0.872689 3.148958
v -1.154233 -0.859493 3.156811
v -1.153652 -0.851201 3.161688
v -1.152500 -0.850052 3.165600
v -1.151662 -0.832389 3.179825
v -1.149991 -0.820091 3.190279
v -1.152138 -0.833522 3.176846
v -1.151056 -0.836549 3.177088
v -1.151925 -0.839229 3.170886
v -1.152728 -0.850807 3.164801
v -1.149287 -0.833126 3.179204
v -1.149502 -0.834326 3.176151
v -1.147465 -0.804231 3.207056
v -1.145416 -0.801246 3.208777
v -1.146255 -0.800174 3.214636
v -1.148312 -0.816419 3.192092
v -1.147236 -0.811556 3.201971
v -1.147971 -0.820449 3.192511
v -1.145632 -0.811406 3.201757
v -1.146004 -0.814439 3.195144
v -1.149087 -0.824650 3.183911
v -1.135253 -0.721801 3.359304
v -1.133228 -0.710924 3.386834
v -1.133907 -0.719331 3.370420
v -1.136482 -0.727921 3.338439
v -1.136559 -0.734985 3.328687
v -1.138777 -0.749032 3.296772
v -1.136911 -0.736875 3.313894
v -1.140550 -0.759514 3.270080
v -1.140713 -0.757571 3.276969
v -1.136787 -0.748847 3.299071
v -1.140143 -0.765509 3.267016
v -1.141533 -0.767367 3.262048
v -1.140076 -0.765467 3.258793
v -1.144030 -0.781752 3.236351
v -1.143324 -0.781449 3.240460
v -1.139457 -0.768121 3.262722
v -1.142714 -0.783318 3.238718
v -1.143229 -0.782862 3.232827
v -1.143324 -0.781449 3.240460
v -1.142714 -0.783318 3.238718
v -1.139874 -0.778259 3.245388
v -1.141363 -0.781401 3.234852
v -1.144399 -0.798922 3.217456
v -1.144399 -0.798922 3.217456
v -1.143358 -0.797418 3.214392
v -1.139920 -0.781034 3.238235
v -1.142741 -0.798063 3.215689
v -1.126421 -0.694660 3.459351
v -1.126595 -0.692474 3.459390
v -1.125088 -0.694458 3.460647
v -1.124321 -0.692951 3.461070
v -1.124395 -0.696293 3.459567
v -1.123723 -0.691384 3.460540
v -1.123375 -0.695177 3.460688
v -1.125674 -0.690626 3.458448
v -1.130562 -0.707407 3.411427
v -1.130359 -0.701232 3.416577
v -1.127463 -0.696760 3.429752
v -1.131065 -0.703224 3.416901
v -1.127010 -0.704768 3.424611
v -1.125001 -0.703183 3.428860
v -1.128054 -0.700746 3.414196
v -1.130729 -0.715832 3.385181
v -1.130912 -0.710436 3.382103
v -1.133551 -0.718060 3.360159
v -1.133340 -0.724200 3.359380
v -1.131094 -0.719532 3.356477
v -1.131933 -0.729615 3.342610
v -1.128104 -0.713391 3.390782
v -1.133839 -0.733195 3.335186
v -1.134309 -0.731967 3.324325
v -1.133107 -0.737005 3.315821
v -1.134027 -0.744862 3.304126
v -1.137859 -0.748658 3.288822
v -1.136589 -0.749049 3.288261
v -1.136525 -0.756993 3.281618
v -1.136801 -0.757479 3.273948
v -1.136173 -0.758195 3.275524
v -1.139243 -0.772772 3.248636
v -1.121995 -0.693994 3.460777
v -1.122030 -0.696206 3.459035
v -1.121175 -0.693049 3.460191
v -1.120493 -0.695051 3.458292
v -1.120624 -0.691566 3.458241
v -1.120177 -0.692897 3.458281
v -1.123816 -0.689862 3.458095
v -1.121901 -0.690308 3.458475
v -1.123966 -0.702479 3.425658
v -1.127357 -0.704808 3.401901
v -1.126189 -0.708583 3.400270
v -1.127989 -0.712710 3.380992
v -1.130758 -0.726799 3.346419
vn 0.5813 -0.5362 0.6121
vn -0.3841 -0.4298 0.8172
vn 0.1982 -0.4490 0.8713
vn -0.9984 -0.0443 -0.0357
vn -0.5726 -0.5099 0.6420
vn -0.4758 -0.8690 -0.1359
vn -0.4540 -0.8778 -0.1529
vn -0.5510 -0.8337 -0.0364
vn -0.8277 -0.5083 -0.2377
vn -0.8679 -0.2296 -0.4404
vn 0.0198 0.9734 0.2282
vn -0.4961 -0.3138 -0.8096
vn -0.5117 -0.3345 -0.7914
vn -0.4960 -0.3138 -0.8096
vn -0.3959 -0.8899 -0.2264
vn -0.4801 -0.2927 -0.8269
vn -0.4694 0.6324 -0.6162
vn 0.2554 -0.9023 0.3472
vn 0.4356 -0.7859 -0.4388
vn 0.2643 -0.8958 -0.3574
vn 0.4796 -0.7575 -0.4430
vn 0.1466 -0.0053 -0.9892
vn 0.3099 -0.1179 -0.9434
vn 0.3099 -0.1180 -0.9434
vn 0.4602 -0.2257 -0.8587
vn 0.5234 -0.5452 0.6548
vn 0.8646 -0.4228 0.2715
vn 0.5983 -0.6259 -0.5003
vn 0.5092 0.2795 -0.8140
vn 0.7829 0.0058 -0.6221
vn 0.7303 -0.0942 -0.6767
vn 0.9855 -0.1498 -0.0800
vn 0.9854 -0.1500 -0.0801
vn 0.9849 -0.1270 -0.1176
vn 0.7688 0.1863 -0.6117
vn 0.7989 0.1854 -0.5722
vn -0.1717 0.5597 -0.8107
vn -0.4539 -0.4383 0.7758
vn -0.9880 0.1467 0.0479
vn 0.4622 -0.5956 0.6570
vn -0.7720 -0.2337 0.5911
vn -0.7472 0.4757 -0.4642
vn 0.8911 0.1327 -0.4340
vn 0.3271 0.5431 -0.7734
vn -0.1696 -0.5886 0.7905
vn 0.9488 -0.3055 0.0802
vn -0.8605 -0.2806 0.4252
vn -0.9733 0.2274 -0.0303
vn -0.8348 0.4404 -0.3303
vn -0.0118 0.6427 -0.7660
vn 0.8541 -0.4091 0.3212
vn -0.0190 -0.6366 0.7709
vn 0.8764 0.2403 -0.4174
vn 0.9101 -0.3472 0.2263
vn -0.0596 0.7646 -0.6418
vn -0.2063 0.7211 -0.6614
vn -0.9056 0.3640 -0.2177
vn -0.3021 -0.7064 0.6401
vn 0.0839 -0.7306 0.6776
vn 0.6386 -0.6623 0.3919
vn -0.7719 -0.4606 0.4382
vn 0.8560 0.3125 -0.4119
vn 0.1455 0.6651 -0.7324
vn -0.9915 -0.0971 0.0863
vn -0.8700 0.4880 -0.0701
vn -0.9238 0.3558 -0.1417
vn -0.7559 -0.5871 0.2896
vn -0.6713 -0.6469 0.3618
vn -0.5536 0.7685 -0.3208
vn -0.6564 0.6645 -0.3572
vn -0.9912 0.1314 -0.0151
vn -0.4329 -0.7958 0.4234
vn 0.0638 -0.8947 0.4420
vn -0.8270 -0.4398 0.3502
vn -0.9484 0.2870 -0.1348
vn -0.5715 -0.6548 0.4946
vn -0.0394 -0.8464 0.5310
vn -0.4999 -0.6812 0.5348
vn -0.3795 0.7321 -0.5657
vn -0.0685 0.8593 -0.5069
vn -0.9885 -0.0671 0.1356
vn 0.0818 -0.8052 0.5874
vn 0.6722 -0.6626 0.3304
vn 0.4493 0.7199 -0.5291
vn 0.5795 -0.6853 0.4411
vn -0.3287 -0.7538 0.5690
vn 0.6479 0.5537 -0.5231
vn 0.9820 -0.1769 0.0662
vn 0.9847 0.0427 -0.1688
vn -0.8310 -0.3624 0.4220
vn -0.4345 -0.2768 0.8571
vn -0.8383 0.2896 0.4619
vn -0.2254 -0.8373 0.4982
vn -0.2100 0.1491 0.9663
vn 0.1014 -0.5138 0.8519
vn 0.0002 0.6135 0.7897
vn -0.5934 0.7728 0.2251
vn -0.6769 -0.6927 0.2489
vn -0.7402 0.6602 -0.1274
vn -0.2504 0.9487 -0.1931
vn -0.0769 0.9898 0.1203
vn -0.9962 0.0185 0.0847
vn -0.0100 0.9577 -0.2876
vn 0.0170 -0.9690 0.2464
vn -0.0318 -0.9520 0.3045
vn -0.7187 -0.6468 0.2552
vn -0.1261 0.9478 -0.2930
vn -0.4457 0.8442 -0.2978
vn -0.2440 -0.9130 0.3269
vn 0.6289 -0.7395 0.2401
vn 0.6121 -0.7675 0.1903
vn 0.5150 0.7835 -0.3478
vn 0.0029 -0.9379 0.3470
vn 0.1806 0.8899 -0.4190
vn 0.8534 0.4407 -0.2786
vn 0.9052 -0.4064 0.1240
vn -0.3296 0.8493 -0.4124
vn 0.4224 0.7737 -0.4722
vn 0.7483 -0.6095 0.2616
vn 0.6715 0.6102 -0.4205
vn 0.9965 -0.0342 -0.0767
vn 0.7293 0.5404 -0.4195
vn 0.4377 -0.1751 0.8819
vn 0.4520 -0.7927 0.4091
vn 0.6776 0.1516 0.7196
vn 0.8617 -0.4450 0.2439
vn 0.9820 0.0938 0.1642
vn 0.8330 0.5311 0.1549
vn 0.4628 0.8626 0.2040
vn 0.5355 -0.8313 0.1488
vn 0.8312 -0.5535 0.0524
vn 0.5521 0.7800 -0.2947
vn 0.9565 -0.2890 -0.0396
vn 0.9024 0.3704 -0.2204
vn 0.9628 -0.2696 -0.0190
s 1
f 5//1 3//2 4//3
f 1//4 6//5 3//2
f 7//6 8//7 9//8
f 10//9 1//4 11//10
f 1//4 12//11 11//10
f 13//12 14//13 15//14
f 3//2 6//5 4//3
f 8//7 7//6 17//15
f 13//12 15//14 18//16
f 12//11 1//4 16//17
f 5//1 4//3 19//18
f 20//19 21//20 17//21
f 23//22 24//23 25//24
f 24//23 26//25 25//24
f 27//26 5//1 28//27
f 20//19 17//21 29//28
f 22//29 30//30 31//31
f 32//32 33//33 34//34
f 22//29 35//35 30//30
f 38//36 22//29 37//37
f 36//38 2//39 3//2
f 2//39 1//4 3//2
f 1//4 37//37 16//17
f 5//1 36//38 3//2
f 16//17 37//37 22//29
f 5//1 39//40 36//38
f 5//1 27//26 39//40
f 37//37 1//4 2//39
f 41//41 40//42 2//39
f 43//43 37//37 44//44
f 40//42 44//44 37//37
f 36//38 41//41 2//39
f 45//45 41//41 36//38
f 36//38 39//40 45//45
f 38//36 37//37 43//43
f 2//39 40//42 37//37
f 27//26 42//46 39//40
f 43//43 42//46 38//36
f 42//46 32//32 34//34
f 35//35 22//29 38//36
f 42//46 34//34 38//36
f 46//47 47//48 48//49
f 40//42 48//49 50//50
f 45//45 52//51 49//52
f 48//49 41//41 46//47
f 49//52 46//47 41//41
f 49//52 41//41 45//45
f 44//44 50//50 53//53
f 51//54 43//43 52//51
f 52//51 43//43 53//53
f 41//41 48//49 40//42
f 50//50 44//44 40//42
f 51//54 39//40 42//46
f 51//54 42//46 43//43
f 53//53 43//43 44//44
f 55//55 57//56 54//57
f 58//58 59//59 60//60
f 54//57 47//48 56//61
f 47//48 54//57 57//56
f 58//58 56//61 47//48
f 55//55 61//62 57//56
f 47//48 46//47 58//58
f 58//58 46//47 59//59
f 60//60 52//51 61//62
f 59//59 52//51 60//60
f 61//62 62//63 57//56
f 47//48 57//56 48//49
f 62//63 61//62 53//53
f 62//63 48//49 57//56
f 59//59 46//47 49//52
f 50//50 48//49 62//63
f 52//51 59//59 49//52
f 50//50 62//63 53//53
f 52//51 53//53 61//62
f 63//64 64//65 66//66
f 63//64 66//66 67//67
f 66//66 68//68 67//67
f 66//66 69//69 70//70
f 68//68 66//66 71//71
f 66//66 70//70 71//71
f 73//72 72//73 68//68
f 73//72 68//68 74//74
f 74//74 68//68 71//71
f 71//71 76//75 74//74
f 77//76 73//72 74//74
f 76//75 71//71 70//70
f 78//77 77//76 79//78
f 80//79 76//75 70//70
f 75//80 80//79 70//70
f 74//74 76//75 81//81
f 78//77 82//82 83//83
f 75//80 84//84 80//79
f 83//83 82//82 85//85
f 79//78 77//76 56//61
f 76//75 54//57 81//81
f 54//57 76//75 80//79
f 79//78 56//61 86//86
f 84//84 55//55 80//79
f 84//84 87//87 55//55
f 54//57 56//61 77//76
f 84//84 89//88 87//87
f 56//61 58//58 86//86
f 54//57 80//79 55//55
f 85//85 89//88 83//83
f 83//83 89//88 88//89
f 89//88 85//85 60//60
f 58//58 60//60 86//86
f 89//88 61//62 87//87
f 87//87 61//62 55//55
f 60//60 61//62 89//88
f 90//90 92//91 91//92
f 92//91 90//90 94//93
f 92//91 93//94 91//92
f 93//94 92//91 96//95
f 96//95 92//91 94//93
f 95//96 91//92 93//94
f 97//97 91//92 95//96
f 90//90 98//98 94//93
f 99//99 91//92 97//97
f 99//99 97//97 100//100
f 128//101 100//100 97//97
f 91//92 101//102 90//90
f 91//92 99//99 101//102
f 90//90 101//102 98//98
f 100//100 104//103 99//99
f 101//102 63//64 98//98
f 64//65 63//64 101//102
f 102//104 98//98 105//105
f 101//102 99//99 64//65
f 98//98 65//106 105//105
f 106//107 99//99 104//103
f 107//108 64//65 99//99
f 99//99 106//107 107//108
f 105//105 65//106 108//109
f 63//64 65//106 98//98
f 105//105 110//110 111//111
f 66//66 64//65 107//108
f 106//107 109//112 107//108
f 110//110 105//105 108//109
f 110//110 108//109 112//113
f 112//113 108//109 67//67
f 67//67 108//109 65//106
f 63//64 67//67 65//106
f 109//112 113//114 107//108
f 113//114 69//69 107//108
f 113//114 109//112 114//115
f 69//69 66//66 107//108
f 72//73 110//110 112//113
f 112//113 67//67 68//68
f 115//116 110//110 72//73
f 72//73 112//113 68//68
f 113//114 116//117 69//69
f 113//114 117//118 116//117
f 118//119 115//116 72//73
f 114//115 117//118 113//114
f 117//118 114//115 119//120
f 78//77 72//73 73//72
f 118//119 72//73 78//77
f 69//69 116//117 70//70
f 115//116 118//119 120//121
f 119//120 75//80 117//118
f 116//117 75//80 70//70
f 117//118 75//80 116//117
f 83//83 120//121 118//119
f 118//119 78//77 83//83
f 75//80 119//120 121//122
f 78//77 73//72 77//76
f 120//121 121//122 119//120
f 120//121 88//89 121//122
f 120//121 83//83 88//89
f 75//80 121//122 84//84
f 88//89 84//84 121//122
f 89//88 84//84 88//89
f 93//94 96//95 122//123
f 122//123 95//96 93//94
f 123//124 96//95 94//93
f 122//123 124//125 95//96
f 122//123 96//95 123//124
f 122//123 125//126 124//125
f 122//123 123//124 125//126
f 124//125 127//127 126//128
f 125//126 127//127 124//125
f 128//101 97//97 95//96
f 95//96 129//129 128//101
f 129//129 95//96 124//125
f 126//128 129//129 124//125
f 94//93 102//104 123//124
f 103//130 123//124 102//104
f 94//93 98//98 102//104
f 123//124 103//130 125//126
f 128//101 129//129 104//103
f 130//131 125//126 103//130
f 128//101 104//103 100//100
f 129//129 131//132 104//103
f 131//132 129//129 126//128
f 130//131 132//133 127//127
f 133//134 131//132 126//128
f 127//127 132//133 133//134
f 127//127 133//134 126//128
f 111//111 130//131 103//130
f 111//111 103//130 102//104
f 111//111 132//133 130//131
f 104//103 131//132 106//107
f 105//105 111//111 102//104
f 132//133 111//111 134//135
f 131//132 109//112 106//107
f 109//112 131//132 133//134
f 132//133 134//135 133//134
f 111//111 110//110 134//135
f 114//115 109//112 133//134
f 134//135 114//115 133//134
f 115//116 134//135 110//110
f 134//135 115//116 114//115
f 120//121 119//120 114//115
f 115//116 120//121 114//115
f 125//126 130//131 127//127
