# Blender v2.78 (sub 0) OBJ File: 'exporter.blend'
# www.blender.org
o FJ2358.obj_grp1.1095
v -1.211360 -0.659678 3.376194
v -1.210874 -0.656858 3.376401
v -1.211495 -0.657357 3.374048
v -1.201180 -0.674596 3.346677
v -1.208697 -0.655262 3.373555
v -1.203041 -0.674938 3.351542
v -1.198613 -0.682886 3.342157
v -1.207765 -0.662170 3.375825
v -1.209694 -0.659333 3.377943
v -1.207269 -0.659243 3.378265
v -1.199841 -0.667665 3.356037
v -1.209446 -0.655240 3.375178
v -1.208614 -0.656495 3.377767
v -1.206541 -0.655443 3.375395
v -1.206479 -0.656558 3.377147
v -1.199911 -0.679974 3.340849
v -1.198610 -0.674546 3.355554
v -1.205460 -0.659033 3.376978
v -1.198132 -0.677127 3.340828
v -1.196118 -0.676392 3.350652
v -1.204443 -0.658498 3.374621
v -1.193984 -0.687572 3.335676
v -1.196679 -0.740518 3.239168
v -1.195916 -0.742215 3.239621
v -1.195312 -0.741548 3.234182
v -1.195900 -0.728514 3.254838
v -1.195063 -0.693957 3.321666
v -1.194149 -0.690001 3.320969
v -1.195424 -0.675129 3.347063
v -1.198663 -0.852221 3.149053
v -1.198833 -0.849747 3.148805
v -1.199966 -0.839803 3.154752
v -1.199228 -0.834907 3.158222
v -1.198940 -0.832974 3.155781
v -1.196946 -0.854291 3.145896
v -1.197636 -0.839340 3.155928
v -1.200222 -0.825276 3.161089
v -1.197394 -0.816174 3.168294
v -1.199041 -0.809056 3.169247
v -1.197419 -0.809610 3.168194
v -1.199047 -0.805005 3.173658
v -1.198454 -0.812587 3.170445
v -1.196689 -0.818296 3.165939
v -1.196960 -0.826306 3.160454
v -1.196960 -0.826306 3.160454
v -1.195748 -0.804534 3.172585
v -1.198420 -0.811448 3.171148
v -1.197068 -0.812049 3.170782
v -1.196326 -0.800227 3.179176
v -1.195335 -0.797236 3.180910
v -1.197962 -0.798292 3.180073
v -1.196326 -0.800227 3.179176
v -1.196744 -0.786204 3.190649
v -1.196765 -0.792846 3.180302
v -1.194356 -0.784415 3.187911
v -1.192982 -0.776572 3.197389
v -1.196884 -0.779693 3.192350
v -1.197090 -0.775772 3.198174
v -1.195030 -0.772942 3.197957
v -1.194692 -0.779710 3.197335
v -1.194693 -0.779937 3.197086
v -1.196241 -0.765075 3.211113
v -1.193424 -0.769067 3.202633
v -1.193155 -0.765501 3.211254
v -1.195078 -0.759868 3.218311
v -1.194571 -0.758222 3.213470
v -1.192232 -0.758159 3.215775
v -1.194205 -0.747657 3.233746
v -1.192106 -0.744496 3.236069
v -1.193579 -0.743535 3.231296
v -1.192344 -0.746281 3.229339
v -1.193978 -0.736890 3.248949
v -1.193512 -0.723716 3.259731
v -1.190519 -0.721226 3.266481
v -1.192870 -0.725789 3.267072
v -1.193878 -0.709469 3.292001
v -1.192300 -0.711715 3.292158
v -1.193419 -0.702558 3.300327
v -1.190887 -0.702875 3.296659
v -1.193396 -0.697441 3.317981
v -1.194471 -0.695884 3.315387
v -1.193422 -0.685565 3.327268
v -1.190179 -0.690623 3.320111
v -1.189623 -0.690168 3.324545
v -1.191147 -0.687909 3.331715
v -1.195580 -0.866695 3.142413
v -1.195846 -0.865843 3.141334
v -1.196733 -0.857441 3.147512
v -1.196111 -0.852953 3.146840
v -1.194935 -0.860562 3.142915
v -1.196946 -0.854291 3.145896
v -1.195796 -0.852535 3.148778
v -1.196111 -0.852953 3.146840
v -1.197031 -0.838742 3.154215
v -1.195796 -0.852535 3.148778
v -1.197031 -0.838742 3.154215
v -1.194435 -0.863223 3.144150
v -1.197031 -0.838742 3.154215
v -1.191137 -0.728289 3.259923
v -1.188366 -0.703042 3.306071
v -1.188266 -0.702967 3.299718
v -1.188228 -0.706921 3.296760
v -1.190327 -0.699930 3.314345
v -1.189708 -0.695030 3.321112
v -1.188994 -0.889816 3.130917
v -1.192834 -0.872440 3.137216
v -1.192834 -0.872440 3.137216
v -1.193329 -0.864960 3.142143
v -1.195093 -0.860550 3.143159
v -1.187975 -0.888791 3.129390
v -1.188980 -0.889719 3.130882
v -1.189379 -0.889228 3.130173
v -1.189082 -0.889010 3.129748
v -1.188383 -0.889618 3.129714
v -1.188498 -0.890034 3.130585
v -1.188383 -0.889618 3.129714
v -1.187985 -0.889745 3.131305
v -1.188383 -0.889618 3.129714
v -1.187240 -0.889498 3.130673
v -1.187829 -0.888740 3.129638
v -1.188383 -0.889618 3.129714
v -1.187441 -0.888698 3.129945
vn -0.8608 -0.3699 0.3496
vn -0.7691 0.4361 0.4673
vn -0.8974 0.3712 -0.2386
vn -0.1500 0.9231 -0.3541
vn -0.8165 0.3411 -0.4658
vn -0.9440 -0.2849 -0.1664
vn -0.6501 -0.7220 0.2368
vn -0.0144 -0.8006 0.5990
vn -0.4412 -0.2404 0.8646
vn 0.2570 -0.2456 0.9347
vn -0.1162 0.5832 0.8040
vn -0.3521 0.9288 0.1153
vn 0.4779 0.8653 0.1512
vn 0.5503 0.5332 0.6426
vn 0.5803 0.7575 -0.2990
vn -0.9737 -0.1216 -0.1929
vn 0.5011 -0.6371 0.5857
vn 0.7539 -0.1036 0.6487
vn -0.6135 0.5572 -0.5595
vn 0.0527 0.8276 -0.5588
vn 0.8823 -0.2537 0.3964
vn 0.9270 0.2940 0.2328
vn 0.2556 -0.8050 0.5354
vn 0.8945 0.4416 -0.0698
vn -0.8591 0.4500 -0.2438
vn -0.4973 0.6853 -0.5321
vn -0.9955 0.0830 -0.0463
vn -0.8675 -0.4892 0.0900
vn -0.9951 -0.0811 -0.0568
vn -0.6406 0.6559 -0.3992
vn -0.9875 -0.0972 0.1242
vn -0.8363 0.1593 -0.5246
vn -0.8965 -0.3135 0.3131
vn -0.3817 -0.4253 0.8206
vn -0.2223 0.4275 -0.8763
vn -0.4955 0.2924 -0.8179
vn -0.9643 0.1704 -0.2027
vn 0.6118 -0.3326 0.7177
vn 0.4414 -0.4515 0.7755
vn -0.7504 0.4177 -0.5122
vn -0.9854 -0.0018 0.1703
vn -0.4970 -0.4251 0.7565
vn 0.1881 0.4969 -0.8472
vn 0.5877 0.3549 -0.7271
vn 0.8492 0.2863 -0.4438
vn -0.8108 -0.2907 0.5080
vn 0.9325 -0.1884 0.3081
vn 0.3762 -0.5742 0.7272
vn 0.9869 0.0444 -0.1550
vn -0.1716 -0.5617 0.8093
vn 0.7852 -0.4324 0.4433
vn -0.5635 -0.5065 0.6527
vn 0.3457 -0.5515 0.7592
vn -0.5053 -0.5254 0.6846
vn -0.1766 0.6298 -0.7564
vn 0.6162 0.4866 -0.6193
vn -0.6769 0.5191 -0.5218
vn -0.9745 0.2018 -0.0985
vn -0.0379 0.7156 -0.6975
vn -0.2163 -0.6901 0.6907
vn 0.9997 -0.0188 0.0180
vn 0.8113 -0.4240 0.4026
vn -0.7804 -0.4385 0.4458
vn 0.6684 0.5319 -0.5198
vn 0.4487 -0.6793 0.5806
vn -0.1178 0.7638 -0.6346
vn -0.2083 -0.7548 0.6220
vn 0.9005 0.3270 -0.2866
vn 0.0798 -0.7744 0.6276
vn 0.8739 -0.3944 0.2842
vn 0.2903 0.7593 -0.5824
vn 0.8489 0.4107 -0.3326
vn -0.7397 -0.5491 0.3891
vn 0.0723 -0.8309 0.5516
vn -0.0911 0.8534 -0.5133
vn 0.8656 0.4329 -0.2515
vn 0.1368 -0.8638 0.4848
vn -0.9447 -0.2645 0.1939
vn -0.2790 -0.8257 0.4902
vn -0.8074 0.4982 -0.3160
vn 0.0439 0.8895 -0.4547
vn -0.5338 -0.7248 0.4357
vn 0.6927 0.6452 -0.3224
vn 0.9855 0.1608 0.0536
vn 0.8993 -0.2558 0.3546
vn -0.8744 0.0282 -0.4844
vn -0.7418 -0.4652 0.4830
vn -0.1948 -0.4862 0.8518
vn 0.3686 0.4379 -0.8200
vn 0.0798 0.4421 -0.8934
vn 0.2271 0.4592 -0.8588
vn 0.9515 0.2311 -0.2031
vn 0.8965 0.2906 -0.3345
vn 0.9682 0.1616 -0.1908
vn 0.9893 0.1070 0.0992
vn 0.9442 -0.1006 0.3135
vn 0.6530 -0.2430 0.7173
vn 0.6593 0.3507 -0.6651
vn 0.8631 -0.4424 0.2435
vn 0.8553 -0.4498 0.2571
vn 0.8725 0.4322 -0.2280
vn 0.9762 -0.2051 0.0703
vn 0.3101 -0.8167 0.4867
vn 0.7931 -0.4799 0.3751
vn -0.5661 -0.7860 0.2485
vn -0.5006 0.2650 -0.8241
vn -0.0200 0.4334 -0.9010
vn 0.9785 0.2044 0.0286
vn 0.6904 0.4085 -0.5971
vn 0.3260 -0.6663 0.6707
vn 0.5867 0.5155 -0.6245
vn -0.5337 -0.1382 -0.8343
vn -0.5110 -0.6919 -0.5100
vn -0.8452 -0.4153 -0.3365
vn -0.9703 -0.1372 -0.1991
vn -0.0699 -0.9861 -0.1508
vn -0.3548 0.0834 -0.9312
vn -0.2491 -0.2365 -0.9392
vn 0.3865 -0.8513 -0.3549
vn 0.8840 -0.4660 0.0368
vn 0.5982 -0.4454 -0.6662
vn 0.6038 -0.4384 -0.6657
vn 0.5648 0.4740 -0.6755
vn 0.9234 -0.1364 -0.3588
s 1
f 1//1 2//2 3//3
f 5//4 4//5 3//3
f 3//3 4//5 6//6
f 6//6 1//1 3//3
f 7//7 1//1 6//6
f 8//8 1//1 7//7
f 8//8 9//9 1//1
f 10//10 9//9 8//8
f 1//1 9//9 2//2
f 9//9 10//10 13//11
f 12//12 3//3 2//2
f 3//3 12//12 5//4
f 12//12 13//11 14//13
f 5//4 12//12 14//13
f 13//11 15//14 14//13
f 11//15 5//4 14//13
f 9//9 13//11 2//2
f 13//11 12//12 2//2
f 15//14 13//11 10//10
f 16//16 6//6 4//5
f 17//17 18//18 8//8
f 19//19 4//5 5//4
f 82//20 5//4 11//15
f 18//18 17//17 20//21
f 18//18 10//10 8//8
f 15//14 21//22 14//13
f 15//14 18//18 21//22
f 18//18 15//14 10//10
f 16//16 7//7 6//6
f 8//8 7//7 22//23
f 22//23 17//17 8//8
f 18//18 20//21 21//22
f 5//4 82//20 19//19
f 14//13 21//22 29//24
f 26//25 25//26 23//27
f 27//28 16//16 81//29
f 16//16 28//30 81//29
f 27//28 7//7 16//16
f 4//5 28//30 16//16
f 22//23 20//21 17//17
f 19//19 28//30 4//5
f 11//15 14//13 29//24
f 32//31 31//32 30//33
f 30//33 33//34 32//31
f 32//31 34//35 31//32
f 34//35 35//36 31//32
f 37//37 34//35 32//31
f 33//34 36//38 38//39
f 34//35 37//37 39//40
f 37//37 32//31 41//41
f 41//41 32//31 33//34
f 41//41 33//34 42//42
f 42//42 33//34 38//39
f 37//37 41//41 39//40
f 40//43 34//35 39//40
f 34//35 40//43 45//44
f 40//43 46//45 45//44
f 41//41 42//42 47//46
f 38//39 43//47 48//48
f 44//49 46//45 43//47
f 38//39 49//50 42//42
f 50//51 48//48 43//47
f 47//46 51//52 41//41
f 50//51 52//53 48//48
f 43//47 46//45 50//51
f 49//50 51//52 42//42
f 51//52 49//50 53//54
f 39//40 54//55 40//43
f 46//45 40//43 54//55
f 54//55 55//56 46//45
f 50//51 53//54 52//53
f 57//57 39//40 58//58
f 57//57 54//55 39//40
f 41//41 58//58 39//40
f 54//55 57//57 59//59
f 41//41 53//54 58//58
f 53//54 41//41 51//52
f 53//54 50//51 60//60
f 50//51 56//61 61//62
f 55//56 54//55 59//59
f 53//54 62//63 58//58
f 60//60 62//63 53//54
f 63//64 55//56 59//59
f 56//61 64//65 61//62
f 59//59 66//66 63//64
f 60//60 65//67 62//63
f 61//62 64//65 65//67
f 59//59 57//57 66//66
f 67//68 63//64 66//66
f 58//58 62//63 57//57
f 65//67 64//65 68//69
f 68//69 64//65 69//70
f 66//66 57//57 25//26
f 70//71 66//66 25//26
f 70//71 67//68 66//66
f 67//68 70//71 71//72
f 25//26 57//57 23//27
f 57//57 62//63 23//27
f 23//27 62//63 24//73
f 24//73 62//63 65//67
f 68//69 24//73 65//67
f 68//69 72//74 24//73
f 69//70 72//74 68//69
f 73//75 25//26 26//25
f 74//76 71//72 70//71
f 72//74 75//77 24//73
f 25//26 73//75 70//71
f 73//75 74//76 70//71
f 23//27 76//78 26//25
f 75//77 23//27 24//73
f 76//78 23//27 77//79
f 75//77 77//79 23//27
f 73//75 26//25 78//80
f 73//75 78//80 79//81
f 76//78 78//80 26//25
f 76//78 80//82 81//29
f 76//78 81//29 78//80
f 77//79 80//82 76//78
f 81//29 80//82 27//28
f 28//30 79//81 78//80
f 82//20 79//81 28//30
f 28//30 78//80 81//29
f 22//23 7//7 80//82
f 7//7 27//28 80//82
f 28//30 19//19 82//20
f 83//83 82//20 11//15
f 29//24 84//84 83//83
f 85//85 20//21 22//23
f 29//24 83//83 11//15
f 29//24 21//22 20//21
f 87//86 86//87 30//33
f 30//33 31//32 87//86
f 31//32 35//36 87//86
f 30//33 86//87 88//88
f 89//89 90//90 91//91
f 92//92 93//93 94//94
f 36//38 95//95 96//96
f 88//88 33//34 30//33
f 33//34 88//88 36//38
f 88//88 97//97 36//38
f 98//98 89//89 34//35
f 34//35 89//89 91//91
f 97//97 95//95 36//38
f 38//39 36//38 43//47
f 36//38 96//96 43//47
f 43//47 96//96 44//49
f 98//98 34//35 45//44
f 50//51 46//45 56//61
f 46//45 55//56 56//61
f 55//56 63//64 56//61
f 63//64 67//68 56//61
f 69//70 64//65 56//61
f 67//68 69//70 56//61
f 69//70 67//68 71//72
f 71//72 74//76 69//70
f 69//70 99//99 72//74
f 74//76 99//99 69//70
f 99//99 75//77 72//74
f 99//99 100//100 75//77
f 75//77 100//100 77//79
f 74//76 73//75 79//81
f 74//76 101//101 102//102
f 74//76 102//102 99//99
f 99//99 102//102 100//100
f 101//101 74//76 79//81
f 100//100 103//103 77//79
f 77//79 103//103 80//82
f 101//101 79//81 83//83
f 100//100 104//104 103//103
f 80//82 103//103 22//23
f 83//83 79//81 82//20
f 101//101 83//83 84//84
f 84//84 85//85 104//104
f 104//104 22//23 103//103
f 85//85 22//23 104//104
f 84//84 29//24 20//21
f 85//85 84//84 20//21
f 88//88 86//87 105//105
f 87//86 35//36 106//106
f 90//90 107//107 91//91
f 95//95 97//97 108//108
f 108//108 109//109 93//93
f 108//108 93//93 92//92
f 102//102 101//101 100//100
f 100//100 101//101 84//84
f 104//104 100//100 84//84
f 105//105 117//110 88//88
f 117//110 97//97 88//88
f 90//90 110//111 107//107
f 113//112 114//113 112//114
f 111//115 86//87 112//114
f 114//113 115//116 112//114
f 105//105 112//114 115//116
f 105//105 86//87 111//115
f 110//117 116//118 113//112
f 117//110 105//105 115//116
f 115//116 118//119 119//120
f 115//116 119//120 117//110
f 120//121 119//120 121//122
f 110//117 113//112 106//106
f 110//111 90//90 122//123
f 122//124 109//109 108//108
f 97//97 117//110 119//120
f 97//97 119//120 108//108
f 112//114 86//87 87//86
f 113//112 112//114 87//86
f 106//106 113//112 87//86
f 120//121 122//124 119//120
f 108//108 119//120 122//124
