# Blender v2.78 (sub 0) OBJ File: 'exporter.blend'
# www.blender.org
o FJ2340.obj_grp1.1077
v 1.205282 -0.656828 3.374116
v 1.204923 -0.657965 3.375174
v 1.205698 -0.660675 3.376136
v 1.219706 -0.677177 3.335155
v 1.221461 -0.679556 3.334711
v 1.207388 -0.661258 3.376888
v 1.205767 -0.657573 3.377240
v 1.207386 -0.659669 3.378139
v 1.208606 -0.657379 3.378149
v 1.209136 -0.660440 3.377823
v 1.208000 -0.655356 3.372998
v 1.227286 -0.681557 3.317963
v 1.206190 -0.655878 3.376108
v 1.205345 -0.656877 3.374172
v 1.208310 -0.655115 3.374177
v 1.209152 -0.655710 3.376775
v 1.224829 -0.681778 3.321048
v 1.226641 -0.684031 3.326795
v 1.210929 -0.658566 3.377053
v 1.212631 -0.658555 3.372788
v 1.224650 -0.673290 3.337532
v 1.229394 -0.683444 3.325335
v 1.231607 -0.694073 3.306245
v 1.229733 -0.681009 3.319531
v 1.228445 -0.689457 3.309345
v 1.236344 -0.701668 3.282941
v 1.232058 -0.684343 3.317721
v 1.232730 -0.697825 3.295974
v 1.238903 -0.705700 3.285522
v 1.239060 -0.714699 3.266697
v 1.238338 -0.710340 3.276900
v 1.235522 -0.701650 3.292472
v 1.235522 -0.701650 3.292472
v 1.242853 -0.712576 3.273030
v 1.238922 -0.712929 3.267323
v 1.236769 -0.696708 3.289543
v 1.237486 -0.694215 3.295957
v 1.238746 -0.697224 3.295505
v 1.240488 -0.721057 3.259432
v 1.244594 -0.734857 3.234296
v 1.240432 -0.706680 3.273232
v 1.243253 -0.709012 3.271568
v 1.241951 -0.723325 3.258041
v 1.244614 -0.723507 3.249345
v 1.243475 -0.722593 3.259586
v 1.244239 -0.712228 3.269554
v 1.248378 -0.761995 3.203169
v 1.246684 -0.756903 3.213419
v 1.244413 -0.745044 3.223978
v 1.248086 -0.754339 3.210467
v 1.245338 -0.736568 3.240516
v 1.246732 -0.745415 3.229138
v 1.248967 -0.746008 3.225704
v 1.249727 -0.750330 3.216871
v 1.246320 -0.724234 3.251415
v 1.251367 -0.770778 3.195820
v 1.250869 -0.766880 3.202367
v 1.250730 -0.758132 3.211966
v 1.252479 -0.760897 3.204674
v 1.258559 -0.786532 3.173999
v 1.260033 -0.784519 3.173378
v 1.251394 -0.760628 3.203158
v 1.254294 -0.766817 3.199648
v 1.262802 -0.795920 3.164598
v 1.265235 -0.793498 3.166776
v 1.265880 -0.793830 3.162767
v 1.264028 -0.803711 3.152609
v 1.264559 -0.804147 3.153209
v 1.264258 -0.804349 3.148896
v 1.264028 -0.803711 3.152609
v 1.262745 -0.797427 3.160579
v 1.264661 -0.798134 3.155671
v 1.264511 -0.803640 3.153867
v 1.264482 -0.795301 3.166016
v 1.265091 -0.818292 3.132335
v 1.267239 -0.827569 3.117805
v 1.264630 -0.814020 3.135716
v 1.266422 -0.817899 3.128661
v 1.267612 -0.826630 3.122775
v 1.268265 -0.818917 3.131955
v 1.268228 -0.815635 3.133902
v 1.267550 -0.803347 3.149669
v 1.267456 -0.802934 3.153953
v 1.269110 -0.837873 3.107402
v 1.271132 -0.846650 3.099281
v 1.270090 -0.839185 3.108983
v 1.269408 -0.833620 3.114653
v 1.268946 -0.827496 3.116369
v 1.270083 -0.832790 3.110958
v 1.270257 -0.834367 3.109311
v 1.270734 -0.830269 3.114509
v 1.270514 -0.834150 3.113905
v 1.269408 -0.833620 3.114653
v 1.270541 -0.841753 3.106633
v 1.269206 -0.828006 3.121000
v 1.270369 -0.828260 3.118887
v 1.269206 -0.828006 3.121000
v 1.271975 -0.855929 3.095447
v 1.272790 -0.848379 3.097691
v 1.273253 -0.854808 3.097114
v 1.272388 -0.845616 3.103402
v 1.274814 -0.858036 3.094689
v 1.272887 -0.841527 3.105325
v 1.273063 -0.842845 3.102548
v 1.270924 -0.838921 3.105048
v 1.274682 -0.868641 3.088535
v 1.273700 -0.862429 3.089885
v 1.276311 -0.866410 3.088204
v 1.278128 -0.874481 3.087317
v 1.275464 -0.863863 3.092002
v 1.275464 -0.863863 3.092002
v 1.277899 -0.874284 3.084609
v 1.280895 -0.881229 3.082039
v 1.279980 -0.881820 3.083136
v 1.279889 -0.875933 3.085651
v 1.277379 -0.869055 3.088805
v 1.279741 -0.875769 3.085763
v 1.277670 -0.871027 3.088471
v 1.277670 -0.871027 3.088471
v 1.276562 -0.867750 3.090039
v 1.276562 -0.867750 3.090039
v 1.285606 -0.889894 3.081483
v 1.280967 -0.881261 3.082025
v 1.282376 -0.882669 3.084141
v 1.282781 -0.882220 3.082906
v 1.284930 -0.887954 3.079937
v 1.298227 -0.905607 3.075862
v 1.297336 -0.905843 3.076671
v 1.296472 -0.906172 3.075974
v 1.296729 -0.905627 3.074726
v 1.298193 -0.905691 3.075394
v 1.297111 -0.906133 3.074998
v 1.297040 -0.906425 3.075538
v 1.297714 -0.906316 3.075999
v 1.297051 -0.906516 3.075502
v 1.297174 -0.905690 3.074707
v 1.297923 -0.905710 3.075130
v 1.298254 -0.905631 3.075866
v 1.296505 -0.904237 3.074885
v 1.297256 -0.905236 3.074604
v 1.297111 -0.906133 3.074998
v 1.296740 -0.905631 3.074735
v 1.297205 -0.905730 3.074664
v 1.297205 -0.905730 3.074664
v 1.297238 -0.905251 3.074646
v 1.297253 -0.905756 3.074565
vn -0.9088 -0.3852 -0.1601
vn -0.7685 -0.5520 0.3234
vn -0.9971 0.0258 0.0711
vn -0.5845 -0.8055 0.0978
vn -0.2395 -0.7937 0.5592
vn -0.6651 0.2389 0.7075
vn -0.2669 -0.2431 0.9326
vn 0.3486 -0.5120 0.7851
vn -0.3158 0.7899 -0.5256
vn -0.7863 0.4951 -0.3695
vn -0.1488 0.9258 -0.3476
vn -0.5089 0.7814 0.3612
vn -0.8735 0.4669 0.1378
vn 0.1324 0.9911 -0.0105
vn 0.3442 0.7852 0.5147
vn 0.1128 0.3439 0.9322
vn -0.8371 0.3011 -0.4567
vn 0.1426 -0.9018 0.4079
vn 0.8899 0.4281 0.1577
vn 0.7810 0.0496 0.6225
vn 0.7725 0.6342 -0.0317
vn 0.7498 -0.4552 0.4802
vn -0.6489 -0.7305 0.2128
vn 0.5070 0.8214 -0.2611
vn -0.9519 -0.2685 -0.1479
vn -0.7028 0.5131 -0.4929
vn 0.9545 0.2691 0.1289
vn -0.8806 -0.4703 -0.0582
vn 0.0229 -0.8822 0.4704
vn -0.6286 -0.7054 0.3277
vn -0.6845 -0.6880 0.2411
vn -0.9811 -0.1918 -0.0250
vn -0.1546 -0.8809 0.4473
vn -0.9626 0.0612 -0.2639
vn 0.0787 0.8685 -0.4894
vn 0.7102 0.6835 -0.1687
vn 0.9689 -0.0428 0.2438
vn -0.3234 0.7081 -0.6277
vn -0.7744 -0.5683 0.2781
vn -0.0194 0.8208 -0.5709
vn 0.7452 0.6101 -0.2692
vn 0.7141 -0.5203 0.4683
vn 0.2795 0.7909 -0.5445
vn -0.4200 -0.7656 0.4874
vn -0.1686 -0.8193 0.5480
vn 0.9956 0.0297 0.0892
vn -0.8917 0.1803 -0.4152
vn -0.8176 -0.5274 0.2309
vn -0.9262 0.2248 -0.3026
vn -0.2935 0.6528 -0.6984
vn -0.0982 -0.8057 0.5841
vn 0.2454 -0.7674 0.5924
vn 0.9325 -0.2056 0.2968
vn 0.9221 0.3635 -0.1325
vn 0.9422 0.3182 -0.1050
vn -0.8475 -0.5210 0.1014
vn 0.7580 -0.4749 0.4471
vn -0.2153 -0.7985 0.5622
vn 0.4981 0.7019 -0.5091
vn 0.9052 0.3878 -0.1739
vn -0.9380 -0.0366 -0.3447
vn -0.2597 0.7181 -0.6457
vn 0.9652 0.2496 0.0773
vn -0.5261 -0.7297 0.4367
vn 0.2876 -0.7675 0.5728
vn 0.8925 -0.1950 0.4067
vn 0.8313 0.5105 -0.2199
vn -0.7556 -0.5581 0.3429
vn -0.5009 -0.7463 0.4383
vn -0.9735 -0.2180 -0.0687
vn -0.9593 0.1904 -0.2087
vn -0.9944 -0.1055 0.0017
vn -0.2915 0.7938 -0.5338
vn -0.6630 -0.6232 0.4147
vn -0.8558 0.3106 -0.4136
vn -0.8976 -0.4015 0.1819
vn -0.9203 0.2999 -0.2513
vn -0.2084 0.7761 -0.5952
vn 0.1533 -0.7191 0.6778
vn 0.7435 -0.4746 0.4712
vn 0.8974 0.3963 -0.1938
vn 0.8057 0.5029 -0.3130
vn 0.8592 -0.3832 0.3391
vn 0.0005 0.7637 -0.6456
vn 0.0720 0.6798 -0.7299
vn -0.9446 0.0932 -0.3148
vn 0.7871 0.4128 -0.4583
vn 0.4934 0.6373 -0.5920
vn 0.8176 0.5018 -0.2825
vn -0.8956 -0.3845 0.2237
vn 0.5946 -0.5299 0.6047
vn 0.3815 -0.6030 0.7006
vn 0.0816 -0.7295 0.6791
vn -0.5867 -0.5798 0.5653
vn 0.1390 -0.7471 0.6500
vn 0.9463 -0.1561 0.2830
vn 0.7320 -0.4783 0.4852
vn -0.6692 0.3286 -0.6665
vn 0.2333 0.5478 -0.8034
vn -0.5637 0.2596 -0.7841
vn -0.9236 -0.3286 0.1973
vn -0.1276 -0.6311 0.7651
vn 0.4200 -0.5029 0.7554
vn 0.8302 -0.1066 0.5472
vn 0.9586 -0.0858 0.2716
vn -0.0526 0.6581 -0.7511
vn 0.5757 0.4124 -0.7061
vn -0.9553 -0.2941 -0.0288
vn 0.0025 -0.4809 0.8768
vn 0.0974 -0.4153 0.9045
vn -0.1573 0.2903 -0.9439
vn -0.7305 -0.1817 -0.6583
vn -0.8867 -0.4616 -0.0270
vn 0.9319 0.1199 0.3423
vn 0.7009 0.5002 -0.5084
vn 0.7270 0.0638 0.6836
vn -0.9502 -0.1978 0.2406
vn 0.8380 0.1272 0.5307
vn 0.8646 0.0203 0.5021
vn 0.4852 -0.2868 0.8260
vn 0.7968 -0.0709 0.6001
vn -0.5383 -0.5932 0.5985
vn 0.6714 0.0188 0.7408
vn 0.8527 0.5082 -0.1212
vn -0.3152 0.0099 -0.9490
vn 0.6121 0.4861 -0.6238
vn 0.8844 0.3188 0.3409
vn 0.2179 -0.4040 0.8884
vn -0.6349 -0.7450 0.2048
vn 0.7353 0.5747 -0.3591
vn -0.6075 -0.6749 -0.4189
vn -0.6248 -0.6545 -0.4257
vn 0.5380 -0.8193 0.1983
vn 0.3116 -0.9502 -0.0016
vn 0.3268 -0.6767 -0.6597
vn 0.5150 -0.7696 -0.3775
vn 0.6493 -0.6977 -0.3025
vn -0.5571 -0.3557 -0.7504
vn 0.0741 0.3403 -0.9374
vn 0.7002 0.4380 -0.5638
vn -0.2406 -0.5807 -0.7777
vn -0.1345 -0.0318 -0.9904
vn -0.1807 0.0468 -0.9824
vn 0.6385 0.0391 -0.7686
s 1
f 4//1 3//2 2//3
f 5//4 6//5 3//2
f 3//2 7//6 2//3
f 7//6 3//2 8//7
f 3//2 6//5 8//7
f 10//8 8//7 6//5
f 12//9 1//10 11//11
f 2//3 13//12 14//13
f 11//11 1//10 13//12
f 11//11 13//12 15//14
f 13//12 16//15 15//14
f 7//6 13//12 2//3
f 16//15 13//12 7//6
f 9//16 7//6 8//7
f 16//15 7//6 9//16
f 12//9 17//17 1//10
f 2//3 1//10 17//17
f 6//5 18//18 10//8
f 10//8 9//16 8//7
f 15//14 16//15 20//19
f 16//15 9//16 19//20
f 10//8 19//20 9//16
f 20//19 16//15 19//20
f 2//3 17//17 4//1
f 4//1 5//4 3//2
f 18//18 6//5 5//4
f 11//11 15//14 21//21
f 21//21 15//14 20//19
f 22//22 10//8 18//18
f 10//8 22//22 19//20
f 23//23 5//4 4//1
f 12//9 11//11 24//24
f 24//24 11//11 21//21
f 19//20 22//22 20//19
f 25//25 23//23 4//1
f 23//23 18//18 5//4
f 17//17 25//25 4//1
f 17//17 12//9 26//26
f 27//27 21//21 20//19
f 22//22 27//27 20//19
f 28//28 23//23 25//25
f 28//28 25//25 26//26
f 26//26 25//25 17//17
f 29//29 22//22 18//18
f 27//27 24//24 21//21
f 31//30 32//31 30//32
f 32//31 28//28 30//32
f 23//23 28//28 32//31
f 33//33 29//29 23//23
f 35//34 28//28 26//26
f 18//18 23//23 29//29
f 36//35 26//26 12//9
f 37//36 36//35 24//24
f 24//24 36//35 12//9
f 38//37 27//27 22//22
f 38//37 37//36 27//27
f 24//24 27//27 37//36
f 40//38 35//34 26//26
f 39//39 31//30 30//32
f 30//32 28//28 35//34
f 33//33 31//30 29//29
f 36//35 37//36 41//40
f 42//41 37//36 38//37
f 22//22 34//42 38//37
f 29//29 34//42 22//22
f 44//43 40//38 41//40
f 39//39 43//44 31//30
f 29//29 31//30 43//44
f 43//44 45//45 29//29
f 45//45 34//42 29//29
f 44//43 41//40 42//41
f 26//26 41//40 40//38
f 41//40 26//26 36//35
f 38//37 34//42 46//46
f 42//41 41//40 37//36
f 46//46 42//41 38//37
f 47//47 48//48 49//49
f 50//50 49//49 40//38
f 40//38 49//49 35//34
f 49//49 48//48 30//32
f 48//48 39//39 30//32
f 49//49 30//32 35//34
f 43//44 39//39 48//48
f 48//48 51//51 43//44
f 34//42 45//45 52//52
f 46//46 34//42 53//53
f 54//54 44//43 55//55
f 53//53 55//55 46//46
f 51//51 45//45 43//44
f 55//55 44//43 42//41
f 46//46 55//55 42//41
f 56//56 48//48 47//47
f 58//57 52//52 57//58
f 47//47 49//49 50//50
f 57//58 52//52 48//48
f 40//38 62//59 50//50
f 53//53 59//60 54//54
f 48//48 52//52 51//51
f 52//52 58//57 53//53
f 62//59 40//38 44//43
f 44//43 54//54 62//59
f 53//53 54//54 55//55
f 53//53 34//42 52//52
f 60//61 56//56 47//47
f 61//62 47//47 50//50
f 62//59 61//62 50//50
f 56//56 57//58 48//48
f 62//59 54//54 59//60
f 63//63 59//60 58//57
f 58//57 59//60 53//53
f 60//61 64//64 56//56
f 61//62 60//61 47//47
f 57//58 56//56 64//64
f 57//58 74//65 58//57
f 58//57 74//65 63//63
f 62//59 59//60 63//63
f 65//66 63//63 74//65
f 66//67 61//62 62//59
f 63//63 66//67 62//59
f 67//68 68//69 71//70
f 69//71 70//72 71//70
f 69//71 71//70 72//73
f 73//74 74//65 64//64
f 68//69 64//64 71//70
f 60//61 72//73 71//70
f 60//61 71//70 64//64
f 72//73 60//61 61//62
f 72//73 61//62 66//67
f 64//64 74//65 57//58
f 76//75 75//76 77//77
f 77//77 78//78 76//75
f 79//79 80//80 68//69
f 77//77 75//76 70//72
f 72//73 78//78 77//77
f 75//76 79//79 68//69
f 67//68 75//76 68//69
f 74//65 68//69 80//80
f 81//81 78//78 82//82
f 77//77 70//72 69//71
f 69//71 72//73 77//77
f 80//80 83//83 74//65
f 74//65 73//74 68//69
f 82//82 66//67 83//83
f 83//83 66//67 65//66
f 83//83 65//66 74//65
f 82//82 78//78 72//73
f 72//73 66//67 82//82
f 63//63 65//66 66//67
f 88//84 89//85 84//86
f 104//87 90//88 91//89
f 86//90 75//76 84//86
f 86//90 87//91 79//79
f 79//79 75//76 86//90
f 76//75 88//84 84//86
f 92//92 93//93 94//94
f 75//76 76//75 84//86
f 95//95 93//93 92//92
f 91//89 90//88 89//85
f 93//93 95//95 79//79
f 91//89 81//81 96//96
f 79//79 95//95 80//80
f 92//92 96//96 97//97
f 97//97 96//96 80//80
f 80//80 96//96 81//81
f 78//78 88//84 76//75
f 91//89 89//85 88//84
f 91//89 88//84 81//81
f 81//81 88//84 78//78
f 80//80 81//81 83//83
f 81//81 82//82 83//83
f 85//98 99//99 107//100
f 98//101 84//86 85//98
f 100//102 94//94 98//101
f 100//102 101//103 94//94
f 98//101 94//94 84//86
f 102//104 101//103 100//102
f 103//105 101//103 102//104
f 94//94 86//90 84//86
f 102//104 104//87 103//105
f 105//106 85//98 84//86
f 105//106 84//86 89//85
f 99//99 85//98 105//106
f 99//99 105//106 104//87
f 104//87 105//106 90//88
f 92//92 94//94 101//103
f 101//103 103//105 92//92
f 103//105 104//87 91//89
f 103//105 91//89 96//96
f 96//96 92//92 103//105
f 99//99 108//107 107//100
f 106//108 98//101 107//100
f 109//109 98//101 106//108
f 98//101 109//109 110//110
f 98//101 110//110 100//102
f 110//110 102//104 100//102
f 85//98 107//100 98//101
f 102//104 108//107 104//87
f 108//107 99//99 104//87
f 112//111 113//112 114//113
f 112//111 114//113 106//108
f 107//100 112//111 106//108
f 114//113 109//109 106//108
f 108//107 116//114 115//115
f 115//115 112//111 108//107
f 109//109 117//116 118//117
f 118//117 116//114 109//109
f 119//118 115//115 116//114
f 108//107 112//111 107//100
f 109//109 120//119 110//110
f 111//120 121//121 116//114
f 109//109 116//114 121//121
f 108//107 102//104 116//114
f 116//114 102//104 111//120
f 122//122 109//109 114//113
f 109//109 124//123 117//116
f 115//115 125//124 112//111
f 125//124 117//116 124//123
f 124//123 109//109 122//122
f 113//112 126//125 114//113
f 123//126 112//111 125//124
f 125//124 124//123 127//127
f 127//127 124//123 128//128
f 122//122 129//129 128//128
f 122//122 128//128 124//123
f 126//125 123//126 131//130
f 123//126 125//124 131//130
f 125//124 127//127 131//130
f 129//129 132//131 133//132
f 134//133 129//129 135//134
f 128//128 129//129 134//133
f 136//135 137//136 135//134
f 137//136 138//137 135//134
f 135//134 138//137 134//133
f 129//129 114//113 126//125
f 129//129 122//122 114//113
f 130//138 129//129 126//125
f 126//125 139//139 130//138
f 140//140 126//125 131//130
f 141//141 142//141 143//141
f 132//131 129//129 130//138
f 144//142 130//138 145//143
f 145//143 130//138 139//139
f 140//140 139//139 126//125
f 146//144 140//140 131//130
f 128//128 134//133 127//127
