# Blender v2.78 (sub 0) OBJ File: 'exporter.blend'
# www.blender.org
o FJ2329.obj_grp1.1066
v 1.049337 -0.821670 3.197022
v 1.049605 -0.820471 3.197171
v 1.058450 -0.806326 3.214419
v 1.050104 -0.822179 3.197061
v 1.049657 -0.821020 3.197809
v 1.050128 -0.821913 3.197423
v 1.051073 -0.822188 3.197122
v 1.063230 -0.794775 3.223723
v 1.063278 -0.797523 3.220253
v 1.050392 -0.821192 3.195597
v 1.049891 -0.821249 3.196859
v 1.049530 -0.821349 3.196396
v 1.063445 -0.800737 3.219688
v 1.059894 -0.805126 3.216130
v 1.064208 -0.792553 3.228559
v 1.064320 -0.791408 3.228292
v 1.063661 -0.793782 3.224667
v 1.066243 -0.793059 3.229174
v 1.064525 -0.791679 3.229592
v 1.064356 -0.791242 3.228446
v 1.065614 -0.791848 3.230719
v 1.065674 -0.791667 3.230878
v 1.066502 -0.793904 3.225928
v 1.068886 -0.775698 3.247657
v 1.067273 -0.782651 3.237861
v 1.066802 -0.786520 3.235997
v 1.069261 -0.773266 3.250441
v 1.070201 -0.777520 3.247084
v 1.068079 -0.783635 3.235055
v 1.066398 -0.794012 3.225864
v 1.069238 -0.786777 3.235034
v 1.079038 -0.730385 3.312245
v 1.072638 -0.747038 3.283499
v 1.075088 -0.742873 3.294396
v 1.072655 -0.756759 3.273083
v 1.073277 -0.751481 3.274163
v 1.073224 -0.752056 3.273299
v 1.073627 -0.756120 3.274342
v 1.075088 -0.742873 3.294396
v 1.070383 -0.776491 3.248179
v 1.071389 -0.765467 3.255414
v 1.071986 -0.775904 3.244990
v 1.074785 -0.749174 3.285035
v 1.079909 -0.734090 3.312059
v 1.076263 -0.740809 3.290345
v 1.075906 -0.751590 3.279650
v 1.081238 -0.736897 3.303889
v 1.082815 -0.728090 3.313509
v 1.077225 -0.746205 3.284331
v 1.074637 -0.749699 3.284317
v 1.080709 -0.732195 3.306245
v 1.092483 -0.709830 3.353513
v 1.093196 -0.704280 3.357749
v 1.095967 -0.709916 3.355619
v 1.092965 -0.707477 3.348385
v 1.081963 -0.735570 3.306411
v 1.090341 -0.713264 3.337953
v 1.098375 -0.707202 3.356191
v 1.095363 -0.706932 3.349682
v 1.095667 -0.699037 3.384795
v 1.097514 -0.701237 3.384825
v 1.101923 -0.698599 3.399617
v 1.096456 -0.696243 3.385169
v 1.099200 -0.694970 3.385995
v 1.101763 -0.700505 3.386215
v 1.099284 -0.701326 3.388876
v 1.095406 -0.698340 3.372994
v 1.095406 -0.698340 3.372994
v 1.094931 -0.703721 3.368836
v 1.097129 -0.702826 3.375580
v 1.093327 -0.704213 3.357924
v 1.096955 -0.706462 3.363990
v 1.090974 -0.711918 3.340083
v 1.109167 -0.700558 3.409168
v 1.099422 -0.701353 3.389311
v 1.110097 -0.697119 3.407929
v 1.105528 -0.702006 3.399849
v 1.104294 -0.694933 3.396020
v 1.101298 -0.697138 3.382191
v 1.101372 -0.697084 3.382380
v 1.100843 -0.700438 3.379885
v 1.098046 -0.698524 3.368606
v 1.099894 -0.701584 3.366511
v 1.096955 -0.706462 3.363990
v 1.098617 -0.703340 3.359722
v 1.098670 -0.703354 3.359639
v 1.109439 -0.700809 3.399708
v 1.109584 -0.700866 3.399796
v 1.108596 -0.698342 3.397787
v 1.119419 -0.700045 3.418190
v 1.120024 -0.705121 3.414405
v 1.118144 -0.702765 3.417671
v 1.119836 -0.704161 3.417406
v 1.121190 -0.698525 3.416864
v 1.122193 -0.701932 3.417500
v 1.123521 -0.702422 3.414846
v 1.122335 -0.698765 3.414407
v 1.122978 -0.701977 3.413013
vn -0.4542 -0.5298 0.7163
vn -0.5601 -0.5979 0.5734
vn -0.4581 -0.8854 0.0783
vn -0.0276 -0.0995 -0.9947
vn -0.6292 0.7112 -0.3135
vn 0.3829 0.5928 -0.7085
vn -0.9615 0.2687 0.0577
vn -0.8973 0.3926 -0.2017
vn -0.9571 0.2335 -0.1717
vn -0.9144 -0.2335 -0.3307
vn 0.5771 -0.8156 -0.0418
vn -0.0380 -0.7561 0.6533
vn 0.9413 -0.3338 0.0506
vn -0.4274 -0.5097 0.7467
vn -0.9171 -0.1090 0.3834
vn -0.9571 0.2871 0.0404
vn -0.8184 0.5422 -0.1901
vn 0.3814 -0.7532 0.5360
vn 0.7608 -0.6234 0.1806
vn -0.9667 0.0732 0.2451
vn -0.9822 0.0711 0.1738
vn -0.6615 -0.4460 0.6029
vn 0.2944 -0.7099 0.6399
vn 0.5994 0.4083 -0.6885
vn -0.8645 0.4389 -0.2449
vn -0.6104 -0.6463 0.4580
vn -0.9381 -0.1992 0.2834
vn -0.9127 0.3880 -0.1280
vn -0.9371 -0.0450 0.3461
vn -0.2589 -0.7007 0.6649
vn 0.1251 0.7191 -0.6836
vn 0.8113 -0.5508 0.1961
vn 0.9227 -0.3506 0.1601
vn -0.8903 0.4539 0.0361
vn -0.9639 0.2649 -0.0266
vn -0.9368 -0.1846 0.2973
vn -0.5845 -0.6217 0.5213
vn -0.1315 0.7696 -0.6249
vn -0.7620 0.5452 -0.3494
vn -0.4483 -0.7318 0.5133
vn -0.0231 -0.8099 0.5862
vn -0.1411 0.7724 -0.6192
vn 0.5135 -0.7125 0.4782
vn 0.7540 -0.5691 0.3279
vn 0.9119 0.1882 -0.3646
vn 0.0328 -0.8837 0.4669
vn -0.5604 -0.6898 0.4585
vn -0.1074 0.8519 -0.5126
vn 0.9256 -0.3770 -0.0330
vn 0.8162 0.3603 -0.4518
vn 0.5259 -0.7262 0.4428
vn 0.8786 0.3310 -0.3443
vn -0.6868 -0.5494 0.4759
vn -0.8402 0.5376 -0.0715
vn 0.3207 -0.8840 0.3400
vn -0.2985 0.8556 -0.4230
vn 0.9711 -0.0960 -0.2184
vn -0.3228 0.8570 -0.4018
vn -0.4053 0.8337 -0.3751
vn 0.9662 -0.2431 -0.0858
vn 0.5463 0.6642 -0.5104
vn -0.9599 -0.2075 0.1884
vn -0.8505 0.0321 0.5249
vn -0.7485 0.6393 0.1763
vn 0.6031 -0.7517 -0.2669
vn 0.1306 -0.9868 -0.0960
vn -0.3793 -0.9056 0.1900
vn -0.9588 0.2820 0.0345
vn -0.0651 0.9977 -0.0184
vn -0.3947 0.8970 -0.1989
vn -0.1619 -0.9414 0.2960
vn -0.7381 -0.6380 0.2194
vn -0.3891 0.8781 -0.2785
vn -0.2169 -0.9056 0.3644
vn 0.3104 0.7807 -0.5423
vn -0.4338 -0.8823 0.1826
vn -0.7396 -0.2372 0.6298
vn -0.2754 -0.9483 0.1575
vn 0.0599 0.9976 0.0348
vn -0.4073 0.7717 0.4885
vn -0.1513 0.9846 -0.0877
vn 0.8753 -0.4775 -0.0761
vn 0.2207 0.9030 -0.3686
vn 0.9827 -0.0090 -0.1852
vn 0.9547 0.2370 -0.1801
vn 0.5248 -0.8235 0.2155
vn 0.3874 0.8456 -0.3673
vn 0.6933 0.6340 -0.3426
vn 0.5958 -0.5447 -0.5903
vn 0.2467 -0.8215 -0.5141
vn 0.7976 0.2698 -0.5394
vn -0.1524 0.3428 0.9270
vn 0.1972 -0.9798 -0.0346
vn 0.0623 -0.7444 0.6648
vn -0.4656 -0.3405 0.8169
vn 0.7202 0.6907 -0.0657
vn 0.3539 0.7479 0.5615
vn 0.6749 -0.1428 0.7240
vn 0.9415 -0.3343 0.0423
vn 0.8317 -0.1733 -0.5274
s 1
f 3//1 5//2 4//3
f 10//4 8//5 9//6
f 1//7 2//8 12//9
f 5//2 11//10 4//3
f 1//7 8//5 2//8
f 4//3 11//10 10//4
f 11//10 2//8 10//4
f 7//11 6//12 4//3
f 7//11 4//3 10//4
f 7//11 10//4 13//13
f 8//5 10//4 2//8
f 13//13 10//4 9//6
f 3//1 14//14 15//15
f 16//16 8//5 15//15
f 16//16 17//17 8//5
f 18//18 14//19 7//11
f 15//15 1//7 3//1
f 6//12 7//11 14//19
f 15//15 8//5 1//7
f 14//14 3//1 4//3
f 19//20 16//16 15//15
f 20//21 16//16 19//20
f 15//15 14//14 21//22
f 14//19 18//18 22//23
f 18//18 7//11 13//13
f 9//6 23//24 13//13
f 26//25 22//23 27//26
f 24//27 25//28 26//29
f 28//30 22//23 18//18
f 26//25 21//22 22//23
f 25//28 20//21 19//20
f 26//29 25//28 19//20
f 15//15 21//22 26//25
f 29//31 9//6 8//5
f 16//16 25//28 17//17
f 29//31 17//17 25//28
f 18//18 30//32 31//33
f 18//18 13//13 30//32
f 32//34 33//35 34//36
f 35//37 34//36 33//35
f 36//38 37//39 33//35
f 39//40 35//37 38//41
f 33//35 41//42 25//28
f 41//42 33//35 37//39
f 35//37 40//43 38//41
f 35//37 33//35 27//26
f 33//35 25//28 27//26
f 40//43 35//37 28//30
f 29//31 25//28 41//42
f 40//43 31//33 46//44
f 46//44 31//33 42//45
f 27//26 25//28 24//27
f 35//37 27//26 28//30
f 28//30 27//26 22//23
f 40//43 18//18 31//33
f 42//45 29//31 41//42
f 31//33 23//24 42//45
f 42//45 9//6 29//31
f 23//24 9//6 42//45
f 43//46 44//47 39//40
f 44//47 32//34 34//36
f 32//34 45//48 33//35
f 47//49 43//46 46//44
f 46//44 49//50 47//49
f 43//46 50//51 46//44
f 46//44 50//51 38//41
f 51//52 49//50 45//48
f 45//48 36//38 33//35
f 38//41 43//46 39//40
f 46//44 38//41 40//43
f 41//42 45//48 49//50
f 45//48 41//42 36//38
f 42//45 41//42 49//50
f 46//44 42//45 49//50
f 52//53 53//54 44//47
f 54//55 52//53 44//47
f 32//34 53//54 55//56
f 53//54 32//34 44//47
f 54//55 44//47 43//46
f 43//46 47//49 56//57
f 48//58 45//48 32//34
f 49//50 51//52 56//57
f 54//55 43//46 56//57
f 57//59 48//58 32//34
f 55//56 57//59 32//34
f 56//57 58//60 54//55
f 56//57 59//61 58//60
f 59//61 56//57 51//52
f 60//62 62//63 63//64
f 65//65 66//66 61//67
f 67//68 60//62 63//64
f 63//64 64//69 68//70
f 70//71 61//67 60//62
f 69//72 70//71 60//62
f 69//72 60//62 53//54
f 60//62 67//68 53//54
f 68//70 55//56 71//73
f 52//53 69//72 53//54
f 72//74 69//72 54//55
f 52//53 54//55 69//72
f 71//73 55//56 53//54
f 59//61 73//75 55//56
f 73//75 59//61 51//52
f 62//63 75//76 74//77
f 75//76 62//63 60//62
f 77//78 75//76 66//66
f 78//79 63//64 62//63
f 76//80 78//79 62//63
f 78//79 64//69 63//64
f 75//76 60//62 61//67
f 65//65 77//78 66//66
f 79//81 64//69 78//79
f 65//65 61//67 70//71
f 65//65 70//71 81//82
f 64//69 79//81 82//83
f 64//69 82//83 68//70
f 82//83 55//56 68//70
f 79//81 80//84 82//83
f 82//83 80//84 83//85
f 80//84 81//82 83//85
f 81//82 58//60 83//85
f 72//74 70//71 69//72
f 81//82 70//71 84//86
f 84//86 58//60 81//82
f 82//83 83//85 85//87
f 58//60 86//88 83//85
f 59//61 55//56 82//83
f 54//55 58//60 84//86
f 82//83 85//87 59//61
f 85//87 86//88 59//61
f 58//60 59//61 86//88
f 77//78 74//77 75//76
f 87//89 88//90 77//78
f 87//89 77//78 65//65
f 87//89 65//65 89//91
f 80//84 78//79 89//91
f 89//91 65//65 80//84
f 80//84 65//65 81//82
f 62//63 74//77 76//80
f 90//92 76//80 74//77
f 91//93 77//78 88//90
f 91//93 87//89 89//91
f 93//94 92//95 74//77
f 74//77 77//78 93//94
f 97//96 89//91 78//79
f 90//92 74//77 92//95
f 93//94 90//92 92//95
f 94//97 76//80 90//92
f 93//94 77//78 91//93
f 94//97 78//79 76//80
f 90//92 93//94 95//98
f 95//98 94//97 90//92
f 93//94 96//99 95//98
f 95//98 96//99 94//97
f 94//97 96//99 97//96
f 96//99 93//94 91//93
f 98//100 96//99 91//93
f 97//96 78//79 94//97
f 89//91 97//96 98//100
f 96//99 98//100 97//96
f 98//100 91//93 89//91
