# Blender v2.78 (sub 0) OBJ File: 'exporter.blend'
# www.blender.org
o FJ2335.obj_grp1.1072
v 1.193688 -0.904448 3.130127
v 1.193702 -0.904335 3.130568
v 1.193524 -0.903838 3.130094
v 1.197304 -0.676748 3.428735
v 1.197331 -0.675119 3.428554
v 1.198341 -0.678766 3.428750
v 1.200114 -0.677011 3.430795
v 1.200440 -0.674425 3.430204
v 1.199420 -0.673058 3.427849
v 1.196342 -0.686450 3.404358
v 1.197883 -0.674122 3.427320
v 1.200393 -0.679615 3.428740
v 1.196468 -0.696762 3.364182
v 1.198759 -0.689601 3.401183
v 1.199188 -0.680913 3.405786
v 1.196826 -0.695436 3.379591
v 1.197721 -0.718470 3.305034
v 1.195589 -0.862910 3.149417
v 1.195111 -0.860755 3.149481
v 1.193868 -0.887874 3.135722
v 1.196178 -0.854693 3.151077
v 1.195088 -0.878790 3.141387
v 1.195805 -0.878064 3.141760
v 1.195650 -0.861680 3.150108
v 1.194544 -0.885916 3.136021
v 1.195810 -0.872553 3.141999
v 1.195805 -0.878064 3.141760
v 1.196374 -0.878401 3.140737
v 1.196801 -0.866732 3.147088
v 1.194883 -0.890957 3.136025
v 1.195784 -0.873362 3.141560
v 1.195754 -0.887398 3.135712
v 1.195388 -0.891482 3.135699
v 1.195388 -0.891482 3.135699
v 1.195824 -0.891247 3.135033
v 1.195454 -0.899504 3.132161
v 1.194988 -0.904383 3.130556
v 1.195824 -0.891247 3.135033
v 1.194542 -0.904655 3.130643
v 1.194047 -0.904702 3.130702
v 1.193592 -0.903148 3.130917
v 1.193988 -0.904041 3.129390
v 1.193544 -0.904484 3.129978
v 1.194443 -0.904064 3.129333
v 1.195079 -0.903892 3.129674
v 1.194064 -0.904716 3.130164
v 1.194101 -0.904636 3.130610
v 1.193702 -0.904335 3.130568
v 1.193688 -0.904448 3.130127
v 1.194536 -0.904594 3.130265
v 1.193688 -0.904448 3.130127
v 1.194460 -0.904085 3.129776
v 1.194538 -0.904645 3.130629
v 1.194101 -0.904636 3.130610
v 1.194538 -0.904744 3.130174
v 1.194064 -0.904716 3.130164
v 1.194457 -0.904585 3.130600
v 1.194335 -0.904041 3.129490
v 1.193702 -0.904335 3.130568
v 1.194003 -0.904490 3.129709
v 1.194003 -0.904490 3.129709
v 1.194003 -0.904082 3.129460
v 1.194472 -0.904481 3.129601
v 1.194439 -0.904068 3.129371
v 1.202459 -0.678236 3.429582
v 1.202610 -0.674393 3.429357
v 1.201307 -0.673072 3.427048
v 1.203692 -0.677255 3.428269
v 1.203073 -0.674087 3.427041
v 1.201620 -0.683496 3.401494
v 1.202077 -0.687609 3.403613
v 1.201033 -0.710814 3.333392
v 1.198562 -0.707698 3.327043
v 1.198592 -0.711403 3.331745
v 1.198804 -0.718564 3.299478
v 1.199260 -0.722252 3.302000
v 1.198878 -0.727608 3.281148
v 1.199413 -0.729829 3.284544
v 1.198040 -0.806479 3.184053
v 1.197813 -0.795012 3.195399
v 1.196848 -0.820574 3.175683
v 1.198096 -0.817269 3.179415
v 1.196310 -0.834200 3.166231
v 1.197619 -0.833195 3.167738
v 1.196848 -0.820574 3.175683
v 1.196423 -0.834372 3.164073
v 1.198232 -0.814417 3.181669
v 1.198269 -0.827473 3.168062
v 1.196317 -0.834334 3.166125
v 1.197182 -0.853369 3.154796
v 1.198501 -0.841633 3.160964
v 1.199125 -0.830139 3.167256
v 1.196956 -0.858362 3.149217
v 1.197413 -0.860100 3.149043
v 1.196176 -0.863713 3.149135
v 1.196801 -0.866732 3.147088
v 1.196383 -0.880031 3.139981
v 1.202435 -0.687185 3.395320
v 1.202147 -0.700921 3.358021
v 1.202365 -0.711506 3.318731
v 1.200526 -0.711827 3.314757
v 1.203172 -0.721448 3.298844
v 1.202114 -0.724644 3.296090
v 1.201868 -0.719107 3.297691
v 1.200827 -0.725748 3.282156
v 1.201542 -0.730642 3.283605
v 1.198952 -0.740931 3.258417
v 1.199643 -0.739764 3.265202
v 1.203118 -0.732373 3.271569
v 1.201790 -0.740742 3.264282
v 1.200565 -0.739867 3.256922
v 1.199280 -0.753247 3.243224
v 1.198727 -0.765309 3.225587
v 1.201170 -0.750698 3.248823
v 1.200750 -0.760664 3.235235
v 1.200209 -0.753309 3.237874
v 1.199110 -0.767947 3.224963
v 1.199110 -0.767947 3.224963
v 1.199933 -0.770523 3.217328
v 1.201113 -0.772070 3.221547
v 1.199801 -0.781888 3.210908
v 1.201252 -0.764841 3.223768
v 1.200710 -0.789582 3.203014
v 1.201430 -0.783366 3.204820
v 1.198980 -0.787041 3.200935
v 1.201991 -0.780278 3.210886
v 1.198165 -0.797088 3.195450
v 1.199761 -0.797378 3.191392
v 1.199902 -0.808362 3.186239
v 1.200186 -0.816000 3.177740
v 1.200045 -0.802946 3.190913
v 1.201247 -0.792392 3.199499
v 1.203270 -0.741005 3.261415
v 1.203236 -0.742613 3.254922
v 1.203330 -0.752277 3.242839
v 1.202356 -0.753641 3.237939
v 1.202278 -0.763519 3.230686
v 1.202379 -0.768533 3.220804
vn -0.9620 -0.2557 0.0961
vn -0.9671 -0.2039 0.1521
vn -0.9811 -0.1400 0.1333
vn -0.8695 -0.0908 0.4855
vn -0.5909 -0.6233 0.5122
vn -0.0768 -0.1476 0.9861
vn -0.8335 0.3691 0.4111
vn -0.0719 0.5309 0.8443
vn -0.2837 0.9375 0.2017
vn -0.9329 -0.3368 0.1273
vn -0.7084 0.7038 -0.0534
vn -0.9140 0.3727 -0.1603
vn 0.0488 -0.8436 0.5347
vn -0.1966 -0.9295 0.3119
vn -0.0446 0.9295 -0.3662
vn -0.8039 -0.5743 0.1545
vn -0.9982 -0.0588 0.0078
vn -0.9424 0.1756 -0.2846
vn -0.8407 -0.2350 0.4878
vn -0.9995 0.0137 -0.0281
vn -0.3808 0.4881 -0.7853
vn -0.4121 -0.4096 0.8139
vn -0.1500 -0.4591 0.8756
vn -0.5504 -0.3484 0.7587
vn -0.2513 0.3896 -0.8860
vn -0.5106 0.3977 -0.7623
vn 0.7443 -0.3168 0.5880
vn 0.7680 -0.2882 0.5719
vn 0.5382 -0.4144 0.7339
vn -0.0278 0.4941 -0.8690
vn 0.2515 -0.3848 0.8881
vn -0.8487 -0.2132 0.4839
vn 0.2243 -0.3843 0.8955
vn 0.8457 -0.2810 0.4537
vn 0.8497 -0.2258 0.4765
vn 0.8581 -0.2194 0.4641
vn 0.6712 0.2116 -0.7105
vn 0.9176 -0.1924 0.3478
vn 0.6891 -0.6492 0.3219
vn 0.8502 -0.1947 0.4891
vn -0.5605 0.1523 -0.8140
vn -0.7719 -0.0933 -0.6288
vn 0.1092 0.1745 0.9786
vn -0.1049 -0.2996 0.9483
vn 0.7643 -0.2386 -0.5992
vn 0.1096 0.3430 -0.9329
vn 0.9862 0.0334 -0.1620
vn -0.5907 -0.7811 0.2021
vn -0.6025 -0.7761 0.1863
vn -0.5788 -0.7858 0.2180
vn -0.0048 -0.6747 -0.7380
vn -0.0022 -0.6963 -0.7178
vn -0.0619 -0.6788 -0.7317
vn -0.0291 -0.9768 0.2120
vn -0.0465 -0.9796 0.1957
vn -0.0464 -0.9795 0.1959
vn -0.0640 -0.9818 0.1789
vn 0.3261 -0.8315 -0.4499
vn 0.2971 -0.8418 -0.4507
vn -0.6042 -0.2574 0.7541
vn -0.4288 -0.5274 -0.7334
vn -0.1820 -0.5118 -0.8396
vn -0.1711 -0.5032 -0.8470
vn -0.1712 -0.5032 -0.8470
vn -0.1602 -0.4946 -0.8542
vn 0.5316 -0.5062 0.6791
vn 0.6228 0.5169 0.5873
vn 0.2403 0.9697 -0.0432
vn 0.7992 0.6009 -0.0153
vn 0.5589 0.7432 -0.3677
vn 0.7724 -0.6090 0.1804
vn 0.9481 -0.1462 0.2823
vn 0.3807 -0.8793 0.2860
vn -0.5425 0.7839 -0.3019
vn -0.3641 -0.8898 0.2753
vn -0.5849 0.7320 -0.3494
vn -0.5161 -0.8047 0.2935
vn -0.7752 0.5559 -0.3002
vn -0.3321 -0.8530 0.4026
vn -0.5433 -0.4999 0.6745
vn -0.5101 -0.4378 0.7404
vn -0.1432 -0.5937 0.7919
vn -0.7514 -0.3754 0.5427
vn -0.9737 0.1736 -0.1474
vn -0.4928 0.5596 -0.6663
vn -0.7575 0.3440 -0.5549
vn -0.9870 0.1191 -0.1076
vn 0.1215 0.5738 -0.8099
vn -0.9988 0.0479 -0.0028
vn 0.4165 -0.5218 0.7444
vn 0.9547 -0.2123 0.2083
vn 0.4666 0.4198 -0.7785
vn 0.8645 0.2500 -0.4360
vn 0.9523 0.0663 -0.2978
vn 0.1562 -0.4728 0.8672
vn 0.9330 -0.1827 0.3101
vn 0.9855 0.0281 -0.1675
vn 0.9827 0.1754 -0.0601
vn 0.9637 -0.2670 0.0048
vn 0.8165 0.5413 -0.2008
vn 0.1052 0.9221 -0.3723
vn 0.9982 -0.0506 0.0336
vn 0.4766 -0.8052 0.3528
vn 0.4922 0.8016 -0.3394
vn 0.0126 0.8879 -0.4599
vn 0.0309 -0.9031 0.4283
vn -0.9716 0.1923 -0.1377
vn -0.6057 -0.7215 0.3356
vn 0.2542 -0.8470 0.4669
vn -0.1832 0.8126 -0.5532
vn -0.7743 -0.5066 0.3791
vn -0.9791 0.1221 -0.1624
vn -0.0785 -0.8303 0.5518
vn -0.1366 -0.8080 0.5731
vn -0.4245 0.6972 -0.5777
vn -0.4266 -0.6880 0.5872
vn -0.9796 -0.1674 0.1115
vn -0.2725 0.6880 -0.6726
vn 0.1328 -0.7750 0.6179
vn -0.2827 -0.6936 0.6626
vn 0.2424 0.7415 -0.6256
vn 0.4255 -0.5824 0.6926
vn -0.4311 0.6218 -0.6538
vn -0.8862 -0.2642 0.3807
vn 0.9693 -0.1809 0.1667
vn 0.6979 0.4937 -0.5188
vn 0.2694 0.6096 -0.7455
vn 0.5686 -0.5697 0.5934
vn 0.0232 -0.6299 0.7763
vn 0.9257 0.1869 -0.3289
vn 0.5839 -0.5492 0.5979
vn 0.9983 0.0134 -0.0562
vn 0.7764 0.5369 -0.3302
vn 0.9132 -0.3548 0.2002
vn 0.9956 0.0222 -0.0914
vn 0.8122 0.4867 -0.3217
vn 0.6136 0.6176 -0.4919
vn 0.5021 -0.6708 0.5458
vn 0.8372 0.3557 -0.4155
s 1
f 1//1 2//2 3//3
f 4//4 6//5 7//6
f 5//7 4//4 7//6
f 8//8 9//9 5//7
f 5//7 10//10 4//4
f 4//4 10//10 6//5
f 5//7 9//9 11//11
f 5//7 11//11 13//12
f 12//13 6//5 14//14
f 6//5 10//10 14//14
f 9//9 15//15 11//11
f 10//10 5//7 13//12
f 15//15 13//12 11//11
f 16//16 14//14 10//10
f 10//10 17//17 16//16
f 10//10 13//12 17//17
f 20//18 18//19 19//20
f 19//20 21//21 20//18
f 18//19 20//18 22//22
f 23//23 24//24 22//22
f 20//18 21//21 25//25
f 25//25 21//21 26//26
f 27//27 28//28 29//29
f 26//26 31//30 25//25
f 23//23 22//22 30//31
f 30//31 28//28 27//27
f 41//32 22//22 20//18
f 30//31 22//22 41//32
f 28//28 30//31 33//33
f 28//34 34//35 35//36
f 25//25 31//30 32//37
f 36//38 30//31 37//39
f 33//33 30//31 36//38
f 35//36 34//35 36//40
f 20//18 42//41 43//42
f 39//43 37//39 40//44
f 45//45 44//46 32//37
f 25//25 42//41 20//18
f 25//25 44//46 42//41
f 37//39 30//31 40//44
f 30//31 41//32 40//44
f 36//38 45//45 38//47
f 45//45 32//37 38//47
f 25//25 32//37 44//46
f 46//48 47//49 48//48
f 49//50 46//48 48//48
f 50//51 51//52 52//53
f 53//54 54//55 55//56
f 55//56 54//55 56//57
f 37//39 57//58 58//59
f 40//44 41//32 59//60
f 3//3 2//2 41//32
f 20//18 3//3 41//32
f 60//61 43//42 42//41
f 61//62 62//63 63//64
f 63//64 62//63 64//65
f 45//45 37//39 58//59
f 36//38 37//39 45//45
f 7//6 6//5 12//13
f 65//66 7//6 12//13
f 5//7 7//6 8//8
f 7//6 66//67 8//8
f 66//67 7//6 65//66
f 9//9 8//8 66//67
f 66//67 67//68 9//9
f 67//68 15//15 9//9
f 66//67 69//69 67//68
f 67//68 69//69 70//70
f 71//71 65//66 12//13
f 71//71 68//72 65//66
f 67//68 70//70 15//15
f 71//71 12//13 14//14
f 72//73 71//71 14//14
f 73//74 13//12 15//15
f 74//75 14//14 16//16
f 72//73 14//14 74//75
f 74//75 16//16 17//17
f 75//76 13//12 73//74
f 74//75 17//17 76//77
f 13//12 75//76 17//17
f 17//17 75//76 77//78
f 76//77 17//17 78//79
f 82//80 83//81 84//82
f 82//80 85//83 83//81
f 80//84 79//85 86//86
f 81//87 80//84 86//86
f 79//85 88//88 86//86
f 89//89 81//87 86//86
f 84//82 90//90 91//91
f 86//86 88//88 21//21
f 88//88 93//92 21//21
f 88//88 92//93 93//92
f 94//94 93//92 92//93
f 84//82 83//81 24//24
f 90//90 84//82 24//24
f 91//91 94//94 92//93
f 86//86 19//20 89//89
f 83//81 19//20 24//24
f 21//21 19//20 86//86
f 24//24 95//95 90//90
f 19//20 18//19 24//24
f 29//29 90//90 95//95
f 24//24 23//23 95//95
f 95//95 27//27 29//29
f 91//91 96//96 94//94
f 96//96 91//91 90//90
f 93//92 26//26 21//21
f 93//92 94//94 31//30
f 96//96 97//97 94//94
f 94//94 32//37 31//30
f 97//97 38//47 32//37
f 94//94 97//97 32//37
f 66//67 65//66 68//72
f 69//69 66//67 68//72
f 68//72 71//71 98//98
f 68//72 98//98 69//69
f 98//98 70//70 69//69
f 71//71 99//99 98//98
f 71//71 72//73 99//99
f 100//100 98//98 99//99
f 98//98 100//100 70//70
f 70//70 100//100 15//15
f 15//15 100//100 101//101
f 101//101 73//74 15//15
f 72//73 102//102 99//99
f 72//73 74//75 103//103
f 103//103 74//75 76//77
f 72//73 103//103 102//102
f 101//101 75//76 73//74
f 100//100 104//104 101//101
f 101//101 105//105 75//76
f 101//101 104//104 105//105
f 103//103 76//77 106//106
f 76//77 78//79 106//106
f 17//17 77//78 107//107
f 75//76 105//105 77//78
f 78//79 17//17 108//108
f 17//17 107//107 108//108
f 110//109 106//106 78//79
f 110//109 78//79 108//108
f 107//107 77//78 111//110
f 105//105 111//110 77//78
f 107//107 112//111 108//108
f 107//107 113//112 112//111
f 108//108 112//111 114//113
f 110//109 108//108 114//113
f 112//111 115//114 114//113
f 111//110 116//115 107//107
f 117//116 115//114 112//111
f 107//107 116//115 113//112
f 112//111 113//112 118//117
f 119//118 113//112 116//115
f 115//114 117//116 120//119
f 120//119 117//116 121//120
f 116//115 122//121 119//118
f 120//119 121//120 123//122
f 118//117 113//112 121//120
f 113//112 125//123 80//84
f 125//123 113//112 119//118
f 113//112 80//84 127//124
f 123//122 126//125 120//119
f 113//112 127//124 121//120
f 119//118 124//126 125//123
f 80//84 125//123 79//85
f 124//126 128//127 125//123
f 129//128 126//125 123//122
f 121//120 87//129 123//122
f 130//130 128//127 124//126
f 121//120 127//124 87//129
f 123//122 87//129 131//131
f 132//132 130//130 124//126
f 128//127 79//85 125//123
f 82//80 87//129 127//124
f 85//83 127//124 80//84
f 85//83 82//80 127//124
f 126//125 129//128 130//130
f 87//129 129//128 131//131
f 130//130 88//88 128//127
f 128//127 88//88 79//85
f 87//129 84//82 129//128
f 130//130 129//128 91//91
f 88//88 130//130 92//93
f 84//82 91//91 129//128
f 91//91 92//93 130//130
f 99//99 102//102 100//100
f 104//104 100//100 109//133
f 100//100 102//102 109//133
f 103//103 133//134 102//102
f 106//106 133//134 103//103
f 104//104 109//133 105//105
f 102//102 133//134 109//133
f 133//134 106//106 110//109
f 109//133 111//110 105//105
f 133//134 135//135 134//136
f 133//134 134//136 109//133
f 114//113 133//134 110//109
f 109//133 134//136 111//110
f 136//137 116//115 111//110
f 134//136 136//137 111//110
f 134//136 135//135 136//137
f 133//134 114//113 137//138
f 137//138 114//113 115//114
f 135//135 133//134 137//138
f 136//137 138//139 122//121
f 135//135 138//139 136//137
f 136//137 122//121 116//115
f 115//114 120//119 137//138
f 138//139 119//118 122//121
f 137//138 120//119 126//125
f 138//139 124//126 119//118
f 137//138 126//125 135//135
f 135//135 126//125 138//139
f 126//125 124//126 138//139
f 126//125 132//132 124//126
