# Blender v2.78 (sub 0) OBJ File: 'exporter.blend'
# www.blender.org
o FJ2308.obj_grp1.1045
v -0.290257 -0.443269 6.409558
v -0.288354 -0.441427 6.402127
v -0.286284 -0.448902 6.388572
v -0.287651 -0.440327 6.427317
v -0.284412 -0.437112 6.442286
v -0.282652 -0.440288 6.438689
v -0.287735 -0.436986 6.423960
v -0.285391 -0.447664 6.403763
v -0.284120 -0.442854 6.418435
v -0.284760 -0.438506 6.412810
v -0.285369 -0.448327 6.403468
v -0.283592 -0.445052 6.387671
v -0.283887 -0.452656 6.387819
v -0.284520 -0.446169 6.388183
v -0.285185 -0.451426 6.387768
v -0.286155 -0.449061 6.388586
v -0.279948 -0.453258 6.387927
v -0.284186 -0.452965 6.387836
v -0.278702 -0.448483 6.387836
v -0.284186 -0.452965 6.387836
v -0.270802 -0.429837 6.472384
v -0.282945 -0.444569 6.406312
v -0.283200 -0.439892 6.416802
v -0.281514 -0.434149 6.437945
v -0.282060 -0.440251 6.422388
v -0.282384 -0.443219 6.399481
v -0.284760 -0.438506 6.412810
v -0.282101 -0.443436 6.398868
v -0.283998 -0.446958 6.403368
v -0.283998 -0.446991 6.403985
v -0.278589 -0.448327 6.387728
v -0.281156 -0.445963 6.388211
v -0.278490 -0.448341 6.387864
v -0.281156 -0.445963 6.388211
v -0.280395 -0.453927 6.387882
v -0.284186 -0.452965 6.387836
v -0.280390 -0.453894 6.387788
v -0.278981 -0.453431 6.388095
v -0.280244 -0.454124 6.387828
v -0.270611 -0.427168 6.469537
v -0.272345 -0.432595 6.466511
v -0.266158 -0.431036 6.474858
v -0.280972 -0.438880 6.429473
v -0.277917 -0.452239 6.387587
v -0.273620 -0.431874 6.454728
v -0.270003 -0.429475 6.472949
v -0.266777 -0.426797 6.469450
v -0.266174 -0.427200 6.479004
v -0.271240 -0.425653 6.470447
v -0.264305 -0.425753 6.478291
v -0.274833 -0.432524 6.450203
v -0.265215 -0.431341 6.476751
v -0.263531 -0.430034 6.482938
v -0.262475 -0.428899 6.476836
v -0.255065 -0.430968 6.497108
v -0.255503 -0.433236 6.493605
v -0.254757 -0.427752 6.491478
v -0.262474 -0.429190 6.475943
v -0.255888 -0.428127 6.487173
v -0.245780 -0.439924 6.509102
v -0.255329 -0.433403 6.493981
v -0.257289 -0.429711 6.484314
v -0.248803 -0.437551 6.501304
v -0.245068 -0.439636 6.503514
v -0.254423 -0.432765 6.491070
v -0.239885 -0.438432 6.509964
v -0.255888 -0.428127 6.487173
v -0.252656 -0.395052 6.563566
v -0.251389 -0.396624 6.562456
v -0.251441 -0.397292 6.562462
v -0.251059 -0.404049 6.557587
v -0.251271 -0.406612 6.552220
v -0.253222 -0.395441 6.563461
v -0.252641 -0.396395 6.561020
v -0.252860 -0.400233 6.557853
v -0.250810 -0.401785 6.555250
v -0.252564 -0.400965 6.557123
v -0.240690 -0.443230 6.513913
v -0.240561 -0.446631 6.513570
v -0.239663 -0.446703 6.510779
v -0.251338 -0.390423 6.567524
v -0.250067 -0.387243 6.573881
v -0.249777 -0.388065 6.574277
v -0.247345 -0.387030 6.575877
v -0.250227 -0.395036 6.564736
v -0.250855 -0.397462 6.560058
v -0.248372 -0.388579 6.571275
v -0.250110 -0.393124 6.565386
v -0.251423 -0.395264 6.566115
v -0.252419 -0.396157 6.564939
v -0.251423 -0.395228 6.566184
v -0.249694 -0.400944 6.557081
v -0.249679 -0.408669 6.553738
v -0.247303 -0.407753 6.552203
v -0.248904 -0.403832 6.554729
v -0.239824 -0.432429 6.535052
v -0.239589 -0.429243 6.534461
v -0.244354 -0.441356 6.510271
v -0.236422 -0.449636 6.517732
v -0.233690 -0.449633 6.518826
v -0.247980 -0.432149 6.500788
v -0.246269 -0.386312 6.577408
v -0.239959 -0.377002 6.588360
v -0.235913 -0.434610 6.530619
v -0.239582 -0.429250 6.534495
v -0.240530 -0.446735 6.513651
v -0.234137 -0.455069 6.520154
v -0.235325 -0.452004 6.519285
v -0.240572 -0.378222 6.588757
v -0.237826 -0.426808 6.537462
v -0.237767 -0.427037 6.537312
v -0.236475 -0.432560 6.536043
v -0.235195 -0.452085 6.519118
v -0.233605 -0.457420 6.517951
v -0.240341 -0.441992 6.512273
v -0.238394 -0.447911 6.511898
v -0.240938 -0.376772 6.588540
v -0.240931 -0.378106 6.589089
v -0.240251 -0.377365 6.589015
v -0.241033 -0.377650 6.587934
v -0.241273 -0.377363 6.588797
v -0.235150 -0.434584 6.532712
v -0.231153 -0.453191 6.520135
v -0.231970 -0.455576 6.520869
v -0.234725 -0.454383 6.520318
v -0.233524 -0.457323 6.519762
v -0.232650 -0.456507 6.520814
v -0.239582 -0.429250 6.534495
v -0.234014 -0.450413 6.518722
v -0.235317 -0.452000 6.519285
v -0.232107 -0.451554 6.517735
v -0.233734 -0.450817 6.519406
v -0.234014 -0.450413 6.518722
v -0.233675 -0.450320 6.518624
v -0.233526 -0.450280 6.518158
v -0.232588 -0.449424 6.518770
v -0.233313 -0.457926 6.518158
v -0.219215 -0.486501 6.526552
v -0.229541 -0.463329 6.519076
v -0.231204 -0.454095 6.519991
v -0.224449 -0.470768 6.524959
v -0.231654 -0.454717 6.521059
v -0.230737 -0.453773 6.520270
v -0.223470 -0.475228 6.522922
v -0.216425 -0.485758 6.525043
v -0.224343 -0.470966 6.524965
v -0.216767 -0.485015 6.526084
v -0.228120 -0.460579 6.522149
v -0.230606 -0.455030 6.520480
v -0.229318 -0.459886 6.518017
v -0.217720 -0.485414 6.527333
v -0.218241 -0.486906 6.524597
v -0.216676 -0.484995 6.525384
v -0.216581 -0.485299 6.526374
v -0.216581 -0.485299 6.526374
vn -0.9686 -0.1458 -0.2016
vn -0.9703 -0.2080 0.1235
vn -0.6374 0.7220 -0.2690
vn -0.7245 0.6879 -0.0432
vn -0.9806 0.0983 0.1697
vn -0.9338 -0.0834 0.3479
vn -0.2434 -0.9469 0.2102
vn 0.4563 -0.6767 0.5778
vn 0.8409 -0.5359 0.0750
vn -0.1023 0.9723 -0.2103
vn -0.4395 -0.8381 0.3231
vn -0.7376 0.5635 -0.3721
vn -0.8468 -0.5303 0.0408
vn -0.0076 0.0895 -0.9960
vn -0.0518 0.0557 -0.9971
vn -0.4240 0.0965 -0.9005
vn -0.0720 -0.9579 0.2778
vn -0.0713 -0.9568 0.2820
vn -0.1565 -0.9637 0.2162
vn -0.0073 0.0430 -0.9990
vn 0.0056 -0.0050 -1.0000
vn -0.8457 -0.1381 0.5155
vn 0.9521 -0.1677 -0.2556
vn 0.8852 -0.4611 0.0618
vn 0.7867 0.6023 -0.1353
vn 0.9511 0.2469 -0.1854
vn 0.9494 -0.1915 0.2491
vn 0.7580 0.6456 -0.0930
vn 0.2787 0.9271 -0.2505
vn 0.5831 0.7955 -0.1649
vn 0.7772 -0.5750 0.2558
vn 0.9155 -0.4001 0.0407
vn 0.4069 0.8959 -0.1783
vn 0.9044 -0.1977 0.3781
vn 0.6782 0.7318 -0.0673
vn 0.5373 0.8175 -0.2075
vn -0.0123 0.0622 -0.9980
vn 0.0326 -0.0310 -0.9990
vn -0.5468 0.8310 0.1020
vn -0.6288 -0.6636 0.4052
vn 0.5955 -0.7679 -0.2360
vn 0.8817 -0.2613 0.3927
vn -0.1215 0.0557 -0.9910
vn 0.9169 0.1272 -0.3783
vn -0.8074 0.3177 0.4972
vn -0.0552 0.9896 -0.1330
vn -0.8620 0.0825 0.5002
vn -0.1394 0.9848 0.1035
vn -0.8354 -0.3923 0.3849
vn 0.0739 -0.9970 -0.0246
vn 0.5949 -0.7275 -0.3418
vn -0.4599 0.4816 0.7460
vn -0.3244 -0.9125 -0.2494
vn 0.1833 0.9711 0.1529
vn 0.9105 0.1962 -0.3640
vn 0.8528 0.1387 -0.5035
vn 0.8040 0.3533 -0.4782
vn -0.5800 0.6986 0.4190
vn 0.5308 0.8129 -0.2397
vn -0.2119 0.7356 0.6434
vn -0.5946 -0.7993 0.0868
vn 0.7969 -0.1786 -0.5771
vn -0.8191 -0.5658 0.0943
vn -0.4574 -0.8691 -0.1884
vn 0.4355 -0.5443 -0.7170
vn -0.3063 -0.9103 -0.2786
vn 0.7331 -0.0925 -0.6738
vn 0.7041 -0.5386 -0.4627
vn 0.8329 0.1347 -0.5368
vn -0.9801 -0.1530 0.1261
vn -0.7109 -0.4055 0.5746
vn -0.8196 0.3089 -0.4825
vn -0.9127 0.2514 -0.3222
vn -0.9116 0.2563 -0.3214
vn -0.9109 0.2593 -0.3210
vn -0.9917 0.1213 -0.0431
vn -0.2615 -0.6013 0.7551
vn -0.0904 0.6923 0.7160
vn -0.7528 -0.6477 -0.1176
vn -0.5584 -0.7537 -0.3466
vn -0.2708 0.5923 0.7588
vn -0.8734 0.4814 0.0728
vn -0.5331 -0.6933 0.4848
vn -0.5699 -0.4976 0.6539
vn -0.6190 0.6656 -0.4169
vn -0.9281 -0.2640 0.2627
vn 0.8091 -0.5110 0.2904
vn 0.7613 0.5712 -0.3068
vn 0.7199 0.4467 -0.5313
vn -0.3871 -0.7961 0.4651
vn 0.2710 -0.7952 0.5424
vn -0.1464 -0.7545 0.6398
vn 0.3187 -0.7521 0.5769
vn 0.5871 -0.7513 0.3014
vn -0.0438 -0.7650 0.6426
vn 0.4552 0.6613 -0.5961
vn 0.4217 0.7207 -0.5503
vn -0.3109 0.6436 -0.6994
vn -0.0895 0.5580 -0.8250
vn 0.6528 0.5415 -0.5297
vn 0.9404 0.1238 0.3168
vn 0.5236 0.5876 -0.6170
vn -0.8284 -0.5287 0.1849
vn 0.0864 0.6487 -0.7561
vn -0.3635 0.2084 0.9080
vn 0.0096 0.5114 0.8593
vn -0.7545 -0.2611 0.6021
vn 0.7321 0.6492 -0.2063
vn 0.8362 -0.5035 -0.2177
vn 0.8997 0.1658 -0.4038
vn 0.5312 0.5410 -0.6521
vn -0.8810 -0.0487 -0.4706
vn -0.8441 -0.5059 -0.1775
vn -0.7942 -0.0771 0.6027
vn -0.8397 -0.1209 0.5294
vn 0.2043 -0.8515 0.4830
vn -0.1064 0.9541 -0.2800
vn 0.5571 -0.4095 0.7225
vn 0.8531 0.5121 -0.1001
vn 0.9712 0.2365 0.0283
vn -0.8539 -0.2922 0.4306
vn -0.8438 -0.3438 0.4122
vn -0.8321 -0.5326 -0.1550
vn -0.8070 -0.4380 0.3962
vn -0.2242 0.5068 0.8324
vn 0.5402 -0.1806 -0.8219
vn -0.6278 -0.2038 0.7512
vn 0.0810 0.7212 0.6880
vn 0.7097 0.3687 -0.6002
vn 0.3955 -0.7859 0.4753
vn 0.9761 0.2127 0.0451
vn -0.7742 -0.0268 -0.6323
vn -0.7474 -0.3746 0.5486
vn -0.3486 -0.2498 0.9034
vn -0.6774 0.3165 -0.6640
vn -0.4993 0.4070 -0.7649
vn -0.5945 0.3549 -0.7216
vn -0.3243 0.4618 0.8256
vn -0.2131 0.3449 0.9141
vn -0.1861 0.4822 0.8561
vn -0.8888 -0.4521 0.0747
vn -0.4627 -0.7852 0.4116
vn -0.4726 -0.4206 -0.7744
vn 0.9341 0.2712 -0.2322
vn 0.8480 0.1528 0.5074
vn 0.1896 0.2282 0.9550
vn 0.6187 -0.1622 0.7687
vn 0.4851 -0.3567 0.7984
vn 0.8078 -0.4722 0.3528
vn -0.2691 -0.4060 -0.8734
vn 0.4066 -0.8915 0.1996
vn 0.7135 0.4285 0.5543
vn 0.8755 0.3067 -0.3735
vn 0.8930 0.4497 -0.0178
vn -0.5450 -0.4458 -0.7101
vn 0.1015 -0.5769 0.8105
vn 0.7367 0.5506 0.3926
vn 0.0854 -0.8783 -0.4705
vn 0.5154 -0.6250 0.5862
vn 0.6279 0.4845 0.6091
vn 0.3692 0.7692 0.5216
s 1
f 3//1 1//2 2//3
f 7//4 4//5 5//6
f 6//7 5//6 1//2
f 1//2 8//8 6//7
f 6//7 8//8 9//9
f 10//10 2//3 7//4
f 4//5 7//4 1//2
f 7//4 2//3 1//2
f 8//8 1//2 11//11
f 10//10 12//12 2//3
f 1//2 3//1 13//13
f 2//3 12//12 3//1
f 14//14 15//15 16//16
f 11//11 1//2 13//13
f 11//17 18//18 17//19
f 19//20 20//21 15//15
f 21//22 5//6 6//7
f 43//23 9//9 22//24
f 23//25 25//26 26//27
f 22//24 26//27 25//26
f 23//25 27//28 24//29
f 23//25 28//30 27//28
f 9//9 8//8 29//31
f 9//9 30//32 22//24
f 22//24 30//32 29//31
f 29//31 26//27 22//24
f 27//28 28//30 12//33
f 8//8 17//34 29//31
f 28//30 31//35 32//36
f 12//33 28//30 32//36
f 34//37 15//15 14//14
f 19//20 15//15 34//37
f 37//38 20//21 19//20
f 40//39 5//6 21//22
f 41//40 21//22 6//7
f 5//6 40//39 7//4
f 7//4 40//39 24//29
f 42//41 6//7 9//9
f 9//9 43//23 42//41
f 24//29 10//10 7//4
f 43//23 25//26 23//25
f 29//31 17//34 26//27
f 17//34 33//42 26//27
f 44//43 37//38 19//20
f 45//44 42//41 43//23
f 24//29 45//44 23//25
f 45//44 43//23 23//25
f 46//45 40//39 21//22
f 41//40 6//7 42//41
f 47//46 24//29 40//39
f 45//44 24//29 47//46
f 46//45 48//47 40//39
f 50//48 47//46 40//39
f 53//49 48//47 46//45
f 52//50 53//49 21//22
f 21//22 41//40 52//50
f 54//51 42//41 45//44
f 53//49 55//52 48//47
f 56//53 52//50 54//51
f 47//46 50//48 57//54
f 54//51 52//50 42//41
f 47//55 58//56 51//57
f 53//49 52//50 56//53
f 55//52 50//48 49//58
f 57//54 59//59 47//46
f 53//49 56//53 60//60
f 53//49 60//60 55//52
f 50//48 55//52 57//54
f 61//61 56//53 54//51
f 47//55 62//62 58//56
f 60//63 61//61 63//64
f 61//61 54//51 63//64
f 64//65 63//64 65//66
f 65//66 62//62 64//65
f 66//67 64//65 62//62
f 62//62 65//66 54//68
f 62//62 67//69 66//67
f 62//62 47//55 67//69
f 71//70 69//71 72//72
f 73//73 74//74 77//75
f 69//71 75//76 72//72
f 93//77 71//70 72//72
f 78//78 55//52 60//60
f 78//78 57//54 55//52
f 79//79 60//63 63//64
f 80//80 79//79 63//64
f 63//64 64//65 80//80
f 59//59 57//54 66//81
f 82//82 68//83 83//84
f 82//82 81//85 70//86
f 85//87 86//88 87//89
f 83//84 68//83 69//90
f 89//91 83//92 90//93
f 83//84 91//94 84//95
f 89//91 84//95 91//94
f 85//87 84//95 89//91
f 87//89 88//96 81//85
f 88//96 86//97 81//85
f 81//98 76//99 75//76
f 85//87 92//100 86//88
f 85//87 89//91 90//93
f 93//77 85//87 90//93
f 85//87 94//101 92//100
f 92//100 95//102 76//99
f 92//100 76//99 86//88
f 94//101 85//87 93//77
f 76//99 95//102 94//101
f 72//72 96//103 93//77
f 75//76 97//104 72//72
f 97//104 75//76 76//99
f 99//105 100//106 78//78
f 98//107 78//78 60//60
f 57//54 101//108 66//81
f 102//109 85//87 87//89
f 102//109 87//89 103//110
f 104//111 97//104 76//99
f 72//72 105//112 96//103
f 79//79 80//80 106//113
f 107//114 78//78 98//107
f 78//78 107//114 108//115
f 78//78 100//106 57//54
f 84//95 109//116 83//84
f 117//117 81//85 82//82
f 103//110 87//89 117//117
f 117//117 87//89 81//85
f 94//101 93//77 112//118
f 94//101 110//119 76//99
f 76//99 110//119 104//111
f 94//101 112//118 110//119
f 104//111 110//119 111//120
f 112//118 93//77 96//103
f 79//79 126//121 107//122
f 114//123 126//124 106//113
f 80//80 114//123 106//113
f 107//122 60//63 79//79
f 115//125 66//81 101//108
f 116//126 64//65 66//67
f 117//117 118//127 119//128
f 117//117 82//82 83//84
f 117//117 83//84 118//127
f 117//117 119//128 120//129
f 109//116 118//127 83//84
f 103//110 121//130 102//109
f 110//119 112//118 122//131
f 104//111 111//120 122//131
f 105//112 123//132 96//103
f 112//118 125//133 126//124
f 112//118 126//124 127//134
f 112//118 96//103 125//133
f 128//135 129//135 130//135
f 97//104 131//136 132//137
f 104//111 131//136 97//104
f 133//138 99//139 113//140
f 137//141 138//142 126//124
f 137//141 126//124 114//123
f 114//123 116//126 139//143
f 66//81 115//125 136//144
f 114//123 80//80 116//126
f 112//118 140//145 122//131
f 140//145 136//144 122//131
f 127//134 141//146 142//147
f 112//118 127//134 124//148
f 124//148 142//147 112//118
f 140//145 143//149 142//147
f 104//111 122//131 136//144
f 112//118 142//147 143//149
f 137//141 144//150 138//142
f 127//134 138//142 141//146
f 126//124 138//142 127//134
f 66//67 139//143 116//126
f 139//143 66//67 145//151
f 141//146 140//145 142//147
f 146//152 140//145 141//146
f 66//81 136//144 150//153
f 145//154 150//153 136//144
f 136//144 140//145 145//154
f 144//155 114//123 139//143
f 138//142 151//156 141//146
f 147//157 140//145 146//152
f 151//156 138//142 152//158
f 151//156 152//158 153//159
f 151//160 147//157 146//152
f 147//157 145//154 140//145
f 138//142 144//150 152//158
f 152//158 139//143 145//151
f 147//157 151//160 154//161
f 152//158 145//151 153//159
l 38 39
l 148 149
l 35 36
l 134 135
l 147 155
