# Blender v2.78 (sub 0) OBJ File: 'exporter.blend'
# www.blender.org
o FJ2327.obj_grp1.1064
v 1.188624 -0.711498 3.286508
v 1.190070 -0.715395 3.276019
v 1.192157 -0.730037 3.258765
v 1.188737 -0.705420 3.302523
v 1.192743 -0.718326 3.268883
v 1.189969 -0.696253 3.309206
v 1.188341 -0.701917 3.301685
v 1.188577 -0.694790 3.316554
v 1.189603 -0.697623 3.317213
v 1.191248 -0.687421 3.332497
v 1.192339 -0.764800 3.209041
v 1.192316 -0.745305 3.230549
v 1.193426 -0.762595 3.208972
v 1.192373 -0.755633 3.221658
v 1.193575 -0.753778 3.225634
v 1.191096 -0.730950 3.252764
v 1.193000 -0.729206 3.251541
v 1.192510 -0.739873 3.243469
v 1.194328 -0.730077 3.259260
v 1.191837 -0.719245 3.278277
v 1.194961 -0.731099 3.248870
v 1.194761 -0.743010 3.231990
v 1.195218 -0.725677 3.264603
v 1.193752 -0.703670 3.299392
v 1.192253 -0.698067 3.317885
v 1.192289 -0.693939 3.313315
v 1.194174 -0.697009 3.310878
v 1.193738 -0.688741 3.334128
v 1.193509 -0.680070 3.337525
v 1.194002 -0.678196 3.343704
v 1.197160 -0.677557 3.339704
v 1.195662 -0.803159 3.176246
v 1.197415 -0.801139 3.178488
v 1.193923 -0.780167 3.196039
v 1.193892 -0.785903 3.187587
v 1.195440 -0.794255 3.179468
v 1.195683 -0.782028 3.194841
v 1.195258 -0.776876 3.194149
v 1.196421 -0.756503 3.220267
v 1.195313 -0.757948 3.220130
v 1.194789 -0.757670 3.214158
v 1.196631 -0.770236 3.202188
v 1.195907 -0.741962 3.240053
v 1.196707 -0.743998 3.233672
v 1.194655 -0.740873 3.242901
v 1.192510 -0.739873 3.243469
v 1.194355 -0.730409 3.258727
v 1.195364 -0.724437 3.260762
v 1.195261 -0.725897 3.264342
v 1.193660 -0.713316 3.287158
v 1.194131 -0.698002 3.314486
v 1.194167 -0.697946 3.314630
v 1.196533 -0.688087 3.327419
v 1.196420 -0.689477 3.329221
v 1.201045 -0.678724 3.347148
v 1.195957 -0.676160 3.350286
v 1.200520 -0.677596 3.343474
v 1.207869 -0.654983 3.374644
v 1.188135 -0.889092 3.129418
v 1.187998 -0.889934 3.130557
v 1.187363 -0.888405 3.130267
v 1.187393 -0.888383 3.130272
v 1.188095 -0.889693 3.129946
v 1.188174 -0.889220 3.129481
v 1.188186 -0.889229 3.129469
v 1.188238 -0.888749 3.129483
v 1.188989 -0.887425 3.130070
v 1.189186 -0.889242 3.130019
v 1.189134 -0.889590 3.130526
v 1.189533 -0.887796 3.130409
v 1.189186 -0.889242 3.130019
v 1.187335 -0.889294 3.130942
v 1.188083 -0.887289 3.130272
v 1.188261 -0.885092 3.131967
v 1.188003 -0.889745 3.131019
v 1.188383 -0.887580 3.132338
v 1.187438 -0.889232 3.130897
v 1.188003 -0.889753 3.131031
v 1.192622 -0.868664 3.140829
v 1.188038 -0.889797 3.130636
v 1.188013 -0.890021 3.130598
v 1.196032 -0.861621 3.145473
v 1.188989 -0.887425 3.130070
v 1.189164 -0.889613 3.130545
v 1.189186 -0.889242 3.130019
v 1.195900 -0.866481 3.141643
v 1.191937 -0.872567 3.137521
v 1.192956 -0.870431 3.140845
v 1.192998 -0.870273 3.140904
v 1.191937 -0.872567 3.137521
v 1.194880 -0.864388 3.141067
v 1.196815 -0.823560 3.162308
v 1.196237 -0.812471 3.168111
v 1.196311 -0.809889 3.171515
v 1.196237 -0.812471 3.168111
v 1.198149 -0.816998 3.163869
v 1.197802 -0.798748 3.175804
v 1.198383 -0.793959 3.182018
v 1.197049 -0.777468 3.197527
v 1.196439 -0.756502 3.220292
v 1.211014 -0.656302 3.374332
v 1.200960 -0.670692 3.361893
v 1.204528 -0.658637 3.374913
v 1.206793 -0.655343 3.375931
v 1.196482 -0.860704 3.143013
v 1.194505 -0.859830 3.144314
v 1.196078 -0.849965 3.149061
v 1.196960 -0.847366 3.149379
v 1.196604 -0.844844 3.151827
v 1.196087 -0.849958 3.149065
v 1.197018 -0.846909 3.149666
v 1.197476 -0.844545 3.153465
v 1.198463 -0.850912 3.150268
v 1.197374 -0.846169 3.152699
v 1.198433 -0.825891 3.159259
v 1.199686 -0.830487 3.157344
v 1.196826 -0.823600 3.162287
v 1.197830 -0.817802 3.167318
v 1.198434 -0.825799 3.159313
v 1.199560 -0.816353 3.167347
v 1.199827 -0.817350 3.165060
v 1.209179 -0.655499 3.373437
v 1.199684 -0.844970 3.151441
v 1.210428 -0.660717 3.376819
v 1.206193 -0.657147 3.377464
v 1.207055 -0.659685 3.378075
v 1.209030 -0.658594 3.378248
v 1.209630 -0.656517 3.377408
v 1.211782 -0.658672 3.375671
vn -0.5319 -0.7372 0.4167
vn -0.7578 -0.5704 0.3168
vn -0.9992 -0.0164 -0.0362
vn 0.0477 0.8544 -0.5174
vn -0.6924 0.5992 -0.4020
vn -0.4594 0.8011 -0.3838
vn -0.9138 0.3591 -0.1897
vn -0.9809 0.1944 0.0120
vn -0.6688 -0.6330 0.3899
vn -0.9874 0.0487 -0.1509
vn -0.7227 0.5561 -0.4104
vn -0.4499 0.6414 -0.6214
vn -0.3332 -0.7865 0.5200
vn -0.9920 0.0978 -0.0803
vn -0.7480 -0.5451 0.3787
vn -0.3538 0.7822 -0.5128
vn -0.8519 -0.4463 0.2739
vn 0.2690 -0.8291 0.4901
vn 0.0558 -0.8691 0.4916
vn 0.4982 0.7373 -0.4562
vn 0.1952 0.7590 -0.6212
vn 0.5429 -0.6648 0.5131
vn 0.8500 0.4719 -0.2342
vn 0.9565 0.2576 -0.1371
vn 0.2039 -0.8558 0.4754
vn 0.3956 0.7649 -0.5084
vn 0.8965 0.3758 -0.2348
vn -0.9212 -0.2220 0.3196
vn -0.1572 -0.8062 0.5703
vn -0.6854 0.6826 -0.2535
vn -0.9489 0.2928 0.1174
vn 0.1859 0.8301 -0.5256
vn -0.7025 -0.4422 0.5576
vn 0.2461 -0.5877 0.7708
vn -0.2681 -0.6758 0.6866
vn 0.1948 -0.6824 0.7045
vn -0.0325 0.6832 -0.7295
vn -0.5213 0.4909 -0.6981
vn -0.8974 0.2802 -0.3409
vn 0.9723 -0.1942 0.1300
vn 0.5434 -0.6009 0.5862
vn 0.2199 0.7597 -0.6120
vn 0.8395 0.4280 -0.3349
vn 0.7965 -0.4939 0.3487
vn 0.9666 0.2185 -0.1340
vn 0.1336 -0.8118 0.5684
vn -0.2225 -0.7994 0.5581
vn 0.5772 -0.6777 0.4556
vn 0.9842 -0.1281 0.1222
vn 0.9469 -0.2694 0.1756
vn 0.8500 -0.5004 0.1643
vn 0.9787 -0.2004 -0.0443
vn 0.9669 0.0784 -0.2430
vn 0.9193 -0.3915 0.0396
vn 0.8442 -0.5325 0.0615
vn -0.8695 -0.2461 0.4283
vn 0.8831 0.2512 -0.3963
vn -0.0702 0.9955 -0.0631
vn -0.7675 -0.0592 -0.6383
vn -0.8126 -0.5436 -0.2103
vn -0.8898 0.1604 -0.4271
vn -0.5338 0.4939 -0.6864
vn -0.9735 -0.1029 -0.2042
vn 0.5653 0.0550 -0.8231
vn 0.6257 -0.0965 -0.7741
vn 0.5212 0.1501 -0.8401
vn 0.2539 -0.7903 -0.5577
vn 0.1874 -0.8623 -0.4705
vn 0.1767 -0.8811 -0.4386
vn 0.8341 -0.0413 -0.5501
vn 0.4858 0.1159 -0.8663
vn -0.9212 -0.2885 -0.2609
vn -0.4736 0.4369 -0.7648
vn -0.9247 0.3345 -0.1817
vn -0.9548 -0.0536 0.2924
vn -0.5550 -0.7690 0.3171
vn -0.2394 -0.4255 0.8727
vn -0.5920 -0.3051 0.7460
vn 0.1629 -0.6710 0.7233
vn 0.2620 -0.4788 0.8379
vn -0.1323 0.4391 -0.8886
vn 0.1256 -0.8788 -0.4604
vn 0.7264 -0.4893 0.4826
vn 0.3231 -0.8015 0.5032
vn 0.9748 -0.1534 -0.1621
vn 0.9691 -0.2439 0.0358
vn -0.8545 0.3889 -0.3444
vn -0.7366 -0.1156 0.6664
vn -0.5225 -0.2651 0.8104
vn -0.5335 0.4782 -0.6976
vn -0.3693 0.4708 -0.8012
vn -0.9989 -0.0377 -0.0276
vn -0.9948 -0.0985 0.0260
vn -0.1494 -0.5400 0.8283
vn -0.5487 -0.4915 0.6763
vn -0.7075 0.3485 -0.6148
vn -0.0727 0.5067 -0.8591
vn 0.4234 0.5501 -0.7198
vn 0.9978 0.0352 0.0555
vn 0.9086 -0.2683 0.3201
vn 0.6391 0.5664 -0.5202
vn -0.4577 -0.6384 0.6189
vn -0.9356 0.1860 0.3000
vn -0.4562 0.8431 0.2847
vn 0.6108 0.2485 -0.7518
vn 0.2510 0.3707 -0.8942
vn -0.7577 0.3763 -0.5332
vn -0.8077 0.3852 -0.4465
vn 0.9754 0.0448 -0.2157
vn -0.8070 0.3370 -0.4850
vn -0.9949 0.0419 0.0919
vn -0.7691 0.3968 -0.5011
vn -0.6826 0.3273 -0.6534
vn -0.4722 -0.4052 0.7828
vn 0.6907 -0.3877 0.6104
vn 0.0703 -0.4342 0.8981
vn -0.0167 0.4687 -0.8832
vn 0.7393 0.2786 -0.6131
vn -0.9859 0.0868 -0.1430
vn 0.3554 0.4422 -0.8235
vn 0.8084 -0.2576 0.5292
vn 0.9107 0.2564 -0.3239
vn 0.5573 -0.5727 0.6012
vn 0.7765 0.6215 -0.1038
vn -0.3184 -0.3644 0.8751
vn -0.5624 0.3448 0.7515
vn 0.2892 0.8801 -0.3765
vn 0.2825 -0.0028 0.9593
vn 0.4208 0.5795 0.6979
vn 0.9722 -0.0031 0.2340
s 1
f 3//1 4//2 1//3
f 5//4 2//5 6//6
f 7//7 2//5 1//3
f 6//6 2//5 7//7
f 7//7 1//3 4//2
f 7//7 4//2 8//8
f 8//8 4//2 9//9
f 6//6 7//7 8//8
f 11//10 12//11 13//12
f 15//13 16//14 14//15
f 14//15 16//14 11//10
f 11//10 16//14 12//11
f 12//11 16//14 17//16
f 2//5 17//16 16//14
f 16//14 18//17 3//1
f 3//1 19//18 20//19
f 17//16 21//20 22//21
f 17//16 5//4 21//20
f 16//14 3//1 1//3
f 2//5 16//14 1//3
f 20//19 4//2 3//1
f 17//16 2//5 5//4
f 19//18 23//22 20//19
f 48//23 5//4 24//24
f 23//22 25//25 20//19
f 26//26 5//4 6//6
f 24//24 5//4 26//26
f 4//2 20//19 25//25
f 25//25 9//9 4//2
f 24//24 26//26 27//27
f 9//9 10//28 8//8
f 28//29 9//9 25//25
f 6//6 8//8 29//30
f 8//8 10//28 30//31
f 8//8 30//31 29//30
f 10//28 9//9 28//29
f 31//32 6//6 29//30
f 32//33 33//34 34//35
f 32//33 34//35 11//10
f 34//35 33//34 37//36
f 38//37 36//38 35//39
f 13//12 35//39 11//10
f 35//39 13//12 38//37
f 39//40 40//41 37//36
f 15//13 34//35 37//36
f 40//41 15//13 37//36
f 41//42 42//43 38//37
f 34//35 14//15 11//10
f 34//35 15//13 14//15
f 38//37 13//12 41//42
f 43//44 40//41 39//40
f 44//45 42//43 41//42
f 13//12 12//11 22//21
f 41//42 13//12 22//21
f 45//46 40//41 43//44
f 44//45 41//42 22//21
f 21//20 44//45 22//21
f 39//40 42//43 44//45
f 16//14 15//13 18//17
f 40//41 45//46 15//13
f 46//47 15//13 45//46
f 3//1 46//47 45//46
f 22//21 12//11 17//16
f 43//44 47//48 45//46
f 39//40 44//45 43//44
f 3//1 45//46 19//18
f 48//23 44//45 21//20
f 43//44 44//45 49//49
f 43//44 23//22 47//48
f 23//22 19//18 47//48
f 24//24 49//49 44//45
f 24//24 50//50 49//49
f 44//45 48//23 24//24
f 21//20 5//4 48//23
f 51//51 25//25 50//50
f 50//50 24//24 51//51
f 51//51 24//24 27//27
f 51//51 27//27 52//52
f 27//27 26//26 53//53
f 54//54 25//25 51//51
f 54//54 52//52 27//27
f 54//54 27//27 53//53
f 54//54 55//55 25//25
f 28//29 56//56 10//28
f 57//57 53//53 26//26
f 26//26 6//6 31//32
f 57//57 26//26 31//32
f 10//28 56//56 30//31
f 29//30 58//58 31//32
f 59//59 60//60 61//61
f 62//62 59//59 61//61
f 63//63 60//60 59//59
f 65//64 66//65 67//66
f 68//67 69//68 64//69
f 67//66 70//70 65//64
f 65//64 70//70 71//71
f 61//61 60//60 72//72
f 73//73 59//59 62//62
f 73//73 62//62 74//74
f 61//61 72//72 74//74
f 72//72 79//75 74//74
f 60//60 75//76 72//72
f 76//77 77//78 78//79
f 79//75 77//78 76//77
f 76//77 78//79 82//80
f 83//81 59//59 73//73
f 69//68 80//82 64//69
f 84//83 78//79 81//84
f 84//83 82//80 78//79
f 85//85 70//70 84//83
f 84//83 70//70 86//86
f 73//73 74//74 87//87
f 76//77 88//88 79//75
f 74//74 79//75 87//87
f 89//89 76//77 82//80
f 73//73 90//90 91//91
f 91//91 83//81 73//73
f 92//92 32//33 93//93
f 32//33 35//39 93//93
f 118//94 33//34 94//95
f 95//96 36//38 96//97
f 97//98 96//97 36//38
f 35//39 36//38 95//96
f 94//95 33//34 32//33
f 32//33 11//10 35//39
f 38//37 97//98 36//38
f 98//99 37//36 33//34
f 42//43 97//98 38//37
f 98//99 97//98 42//43
f 37//36 98//99 99//100
f 98//99 42//43 99//100
f 37//36 99//100 39//40
f 42//43 100//101 99//100
f 42//43 39//40 100//101
f 54//54 53//53 55//55
f 53//53 57//57 55//55
f 28//29 25//25 55//55
f 28//29 102//102 56//56
f 56//56 102//102 103//103
f 58//58 29//30 104//104
f 30//31 104//104 29//30
f 56//56 103//103 30//31
f 84//83 86//86 82//80
f 105//105 70//70 67//66
f 105//105 67//66 91//106
f 70//70 105//105 86//86
f 88//88 89//89 79//75
f 79//75 106//107 87//87
f 91//91 90//90 107//108
f 105//105 123//109 86//86
f 108//110 91//91 107//108
f 79//75 89//89 109//111
f 79//75 110//112 106//107
f 79//75 109//111 110//112
f 109//111 89//89 82//80
f 91//106 111//113 105//105
f 109//111 82//80 112//114
f 113//115 114//116 82//80
f 108//110 107//108 109//111
f 111//113 108//110 109//111
f 105//105 111//113 115//117
f 116//118 105//105 115//117
f 113//115 112//114 114//116
f 117//119 111//113 109//111
f 112//114 117//119 109//111
f 117//119 96//97 111//113
f 115//117 111//113 96//97
f 117//119 112//114 118//94
f 116//118 115//117 119//120
f 118//94 112//114 113//115
f 113//115 120//121 118//94
f 117//119 118//94 94//95
f 96//97 117//119 95//96
f 96//97 121//122 116//118
f 116//118 119//120 96//97
f 121//122 96//97 97//98
f 118//94 120//121 33//34
f 120//121 121//122 98//99
f 121//122 97//98 98//99
f 98//99 33//34 120//121
f 82//80 86//86 113//115
f 86//86 123//109 113//115
f 123//109 105//105 116//118
f 113//115 123//109 120//121
f 116//118 121//122 123//109
f 120//121 123//109 121//122
f 124//123 28//29 55//55
f 102//102 28//29 124//123
f 101//124 57//57 31//32
f 102//102 126//125 103//103
f 125//126 103//103 126//125
f 124//123 126//125 102//102
f 30//31 103//103 104//104
f 103//103 125//126 104//104
f 31//32 58//58 122//127
f 127//128 125//126 126//125
f 127//128 128//129 125//126
f 128//129 104//104 125//126
f 128//129 58//58 104//104
f 55//55 57//57 129//130
f 124//123 55//55 129//130
f 126//125 124//123 127//128
f 124//123 129//130 127//128
f 122//127 101//124 31//32
f 122//127 58//58 101//124
f 101//124 128//129 129//130
f 57//57 101//124 129//130
f 128//129 101//124 58//58
f 127//128 129//130 128//129
