# Blender v2.78 (sub 0) OBJ File: 'exporter.blend'
# www.blender.org
o FJ2343.obj_grp1.1080
v -1.289012 -0.666244 3.448703
v -1.293898 -0.674591 3.426512
v -1.292128 -0.674431 3.426276
v -1.290235 -0.663279 3.452245
v -1.290272 -0.660871 3.453637
v -1.296375 -0.672847 3.427177
v -1.296806 -0.671233 3.426206
v -1.296335 -0.669565 3.426073
v -1.289168 -0.658487 3.455935
v -1.294181 -0.668171 3.424927
v -1.288578 -0.658695 3.450012
v -1.295177 -0.673326 3.424989
v -1.295385 -0.670888 3.423977
v -1.292928 -0.670112 3.423477
v -1.287003 -0.667107 3.444700
v -1.288188 -0.661606 3.441468
v -1.290575 -0.673160 3.427204
v -1.289654 -0.671101 3.426965
v -1.292936 -0.672850 3.423935
v -1.290822 -0.672202 3.424548
v -1.291070 -0.669672 3.424494
v -1.280277 -0.653579 3.497535
v -1.280875 -0.651679 3.494966
v -1.284119 -0.653309 3.473733
v -1.286433 -0.660410 3.466735
v -1.283466 -0.655109 3.462955
v -1.284331 -0.661449 3.466103
v -1.285007 -0.661900 3.446024
v -1.281235 -0.659739 3.463884
v -1.277027 -0.651292 3.509597
v -1.275996 -0.654965 3.504242
v -1.273171 -0.646073 3.515527
v -1.273854 -0.647585 3.505386
v -1.282572 -0.660963 3.467597
v -1.283506 -0.661990 3.463075
v -1.275578 -0.655115 3.488434
v -1.281206 -0.657222 3.463049
v -1.274595 -0.651122 3.493951
v -1.272008 -0.651727 3.518526
v -1.267219 -0.642147 3.535057
v -1.264538 -0.643193 3.541961
v -1.270530 -0.648943 3.525860
v -1.266955 -0.650047 3.525319
v -1.270272 -0.644891 3.517624
v -1.269323 -0.648721 3.511335
v -1.270261 -0.651692 3.508375
v -1.264862 -0.647117 3.535406
v -1.265396 -0.641082 3.531679
v -1.264218 -0.648060 3.527785
v -1.265897 -0.643655 3.524586
v -1.253628 -0.631381 3.561683
v -1.250320 -0.637351 3.562392
v -1.261407 -0.643462 3.531887
v -1.254217 -0.635300 3.563780
v -1.254588 -0.633117 3.563242
v -1.251141 -0.631691 3.559257
v -1.249313 -0.636367 3.560114
v -1.252272 -0.636951 3.563828
v -1.251744 -0.635476 3.564745
v -1.249578 -0.635872 3.563721
v -1.252631 -0.633401 3.564727
v -1.252569 -0.631686 3.563574
v -1.249911 -0.633177 3.564199
v -1.251195 -0.631046 3.562368
v -1.249225 -0.634272 3.558678
v -1.248540 -0.634827 3.562028
v -1.249366 -0.631910 3.562017
v -1.248498 -0.634815 3.562031
vn -0.2728 -0.8938 0.3559
vn -0.2549 -0.9662 -0.0374
vn 0.3061 -0.9335 -0.1868
vn -0.8345 -0.4628 0.2989
vn -0.9656 0.1047 0.2381
vn -0.8287 -0.5516 0.0951
vn -0.9782 -0.0385 -0.2040
vn -0.8276 0.5033 -0.2484
vn -0.7913 0.6112 0.0162
vn -0.5040 -0.6457 -0.5737
vn -0.5495 0.0408 -0.8345
vn -0.1983 0.8014 -0.5643
vn -0.3180 0.9252 -0.2068
vn 0.4494 -0.8713 0.1972
vn 0.7652 -0.6434 -0.0218
vn 0.9558 -0.0965 -0.2779
vn 0.0593 -0.5117 -0.8571
vn 0.0842 0.2768 -0.9572
vn 0.6979 -0.3178 -0.6418
vn 0.5906 0.4579 -0.6644
vn 0.2864 0.8802 -0.3783
vn 0.8840 0.3604 -0.2978
vn -0.8869 -0.3599 0.2896
vn -0.8912 0.4248 0.1590
vn -0.5085 0.8605 -0.0326
vn -0.6618 -0.6713 0.3337
vn 0.2782 0.9248 -0.2597
vn -0.1305 -0.9541 0.2694
vn 0.9011 -0.4186 -0.1131
vn -0.9128 -0.1852 0.3640
vn -0.2687 -0.9281 0.2580
vn -0.5006 0.8651 0.0308
vn 0.2524 0.9372 -0.2408
vn 0.2912 -0.9478 0.1300
vn 0.6654 -0.7448 0.0509
vn 0.9531 -0.2746 -0.1276
vn 0.8938 0.3476 -0.2834
vn -0.3588 -0.8816 0.3067
vn 0.7950 0.5250 -0.3040
vn -0.8839 0.3913 0.2560
vn -0.7953 -0.3600 0.4877
vn -0.7337 -0.5394 0.4131
vn 0.2914 -0.9443 0.1530
vn -0.0527 0.9783 -0.2003
vn 0.8595 0.3647 -0.3582
vn 0.8970 -0.3964 -0.1955
vn -0.1718 -0.9122 0.3719
vn 0.1048 0.9373 -0.3325
vn 0.7831 -0.6051 -0.1437
vn 0.4879 0.7914 -0.3684
vn 0.5077 -0.8080 0.2989
vn -0.4378 0.8930 0.1044
vn 0.8999 0.1305 -0.4162
vn -0.6463 -0.2582 0.7181
vn -0.7611 0.3578 0.5410
vn 0.3469 0.8698 -0.3509
vn 0.8593 -0.5009 -0.1038
vn -0.1291 -0.7489 0.6500
vn 0.0461 -0.2856 0.9572
vn 0.6454 -0.4014 0.6499
vn -0.1982 0.2695 0.9424
vn -0.1720 0.7738 0.6097
vn 0.5560 0.3123 0.7703
vn 0.1926 0.9474 0.2558
vn 0.8982 0.2152 -0.3833
vn 0.6827 -0.7238 -0.0996
vn 0.9776 -0.1914 0.0874
vn 0.7593 0.6451 0.0854
s 1
f 1//1 2//2 3//3
f 4//4 5//5 6//6
f 5//5 7//7 6//6
f 2//2 1//1 4//4
f 6//6 2//2 4//4
f 7//7 5//5 8//8
f 5//5 9//9 8//8
f 6//6 7//7 12//10
f 12//10 7//7 13//11
f 6//6 12//10 2//2
f 8//8 13//11 7//7
f 8//8 10//12 13//11
f 9//9 11//13 8//8
f 10//12 8//8 11//13
f 15//14 1//1 3//3
f 17//15 18//16 15//14
f 19//17 3//3 2//2
f 19//17 2//2 12//10
f 12//10 13//11 19//17
f 19//17 13//11 14//18
f 17//15 15//14 3//3
f 19//17 20//19 3//3
f 14//18 20//19 19//17
f 3//3 20//19 17//15
f 17//15 20//19 18//16
f 18//16 20//19 21//20
f 14//18 13//11 10//12
f 21//20 14//18 10//12
f 20//19 14//18 21//20
f 16//21 21//20 10//12
f 28//22 18//16 21//20
f 22//23 23//24 5//5
f 23//24 9//9 5//5
f 9//9 23//24 24//25
f 25//26 5//5 4//4
f 5//5 25//26 22//23
f 1//1 25//26 4//4
f 11//13 9//9 24//25
f 11//13 24//25 26//27
f 25//26 1//1 27//28
f 27//28 1//1 15//14
f 26//27 16//21 11//13
f 26//27 28//22 16//21
f 15//14 18//16 29//29
f 16//21 10//12 11//13
f 21//20 16//21 28//22
f 30//30 23//24 22//23
f 31//31 22//23 25//26
f 32//32 24//25 23//24
f 27//28 31//31 25//26
f 26//27 24//25 33//33
f 34//34 35//35 36//36
f 29//29 36//36 35//35
f 15//14 34//34 27//28
f 15//14 29//29 35//35
f 29//29 28//22 37//37
f 28//22 26//27 37//37
f 29//29 18//16 28//22
f 31//31 39//38 30//30
f 32//32 33//33 24//25
f 30//30 22//23 31//31
f 31//31 27//28 34//34
f 36//36 29//29 37//37
f 38//39 26//27 33//33
f 37//37 26//27 38//39
f 40//40 30//30 41//41
f 40//40 23//24 30//30
f 42//42 41//41 30//30
f 23//24 40//40 32//32
f 30//30 39//38 42//42
f 31//31 43//43 39//38
f 44//44 33//33 32//32
f 43//43 31//31 34//34
f 45//45 38//39 33//33
f 36//36 37//37 38//39
f 34//34 46//46 43//43
f 34//34 36//36 46//46
f 42//42 39//38 47//47
f 47//47 39//38 43//43
f 48//48 44//44 32//32
f 46//46 49//49 43//43
f 44//44 50//50 33//33
f 45//45 33//33 50//50
f 45//45 46//46 36//36
f 38//39 45//45 36//36
f 41//41 42//42 47//47
f 52//51 43//43 49//49
f 51//52 32//32 40//40
f 51//52 48//48 32//32
f 49//49 46//46 53//53
f 50//50 44//44 48//48
f 45//45 53//53 46//46
f 45//45 50//50 53//53
f 41//41 54//54 55//55
f 56//56 50//50 48//48
f 56//56 53//53 50//50
f 40//40 55//55 51//52
f 55//55 40//40 41//41
f 49//49 53//53 57//57
f 54//54 58//58 59//59
f 58//58 60//60 59//59
f 54//54 61//61 55//55
f 61//61 62//62 55//55
f 59//59 61//61 54//54
f 61//61 63//63 62//62
f 59//59 63//63 61//61
f 59//59 60//60 63//63
f 63//63 64//64 62//62
f 54//54 41//41 58//58
f 58//58 41//41 47//47
f 58//58 47//47 52//51
f 52//51 47//47 43//43
f 62//62 51//52 55//55
f 64//64 51//52 62//62
f 56//56 48//48 51//52
f 64//64 56//56 51//52
f 57//57 53//53 65//65
f 65//65 53//53 56//56
f 52//51 60//60 58//58
f 52//51 57//57 60//60
f 60//60 57//57 66//66
f 68//67 63//63 60//60
f 63//63 68//67 67//68
f 66//66 65//65 68//67
f 66//66 57//57 65//65
f 64//64 67//68 56//56
f 63//63 67//68 64//64
f 65//65 56//56 67//68
f 67//68 68//67 65//65
f 57//57 52//51 49//49
