# Blender v2.78 (sub 0) OBJ File: 'exporter.blend'
# www.blender.org
o FJ2338.obj_grp1.1075
v 1.283579 -0.589350 3.832708
v 1.284657 -0.585869 3.833735
v 1.283457 -0.586861 3.831982
v 1.285580 -0.590067 3.834477
v 1.284819 -0.588028 3.834918
v 1.284244 -0.585611 3.831869
v 1.289909 -0.596964 3.827925
v 1.284034 -0.588234 3.829937
v 1.284944 -0.585993 3.829793
v 1.287369 -0.589049 3.835361
v 1.288405 -0.588077 3.835115
v 1.293998 -0.599080 3.825573
v 1.295340 -0.596859 3.825743
v 1.286975 -0.586363 3.835117
v 1.287220 -0.584758 3.833294
v 1.286453 -0.584514 3.831073
v 1.291115 -0.596315 3.820008
v 1.288170 -0.584823 3.831389
v 1.291061 -0.590971 3.824374
v 1.289198 -0.585357 3.832509
v 1.296739 -0.607726 3.814283
v 1.293733 -0.603583 3.815616
v 1.289422 -0.586507 3.834024
v 1.297460 -0.597494 3.820675
v 1.294261 -0.593223 3.823645
v 1.295322 -0.598008 3.816581
v 1.299225 -0.606984 3.816493
v 1.298977 -0.608893 3.813952
v 1.299148 -0.606114 3.807631
v 1.300891 -0.610221 3.803553
v 1.304001 -0.609286 3.811083
v 1.301850 -0.606026 3.806423
v 1.307146 -0.619632 3.793637
v 1.305739 -0.617700 3.800346
v 1.313306 -0.621615 3.793029
v 1.306775 -0.609401 3.803155
v 1.308192 -0.618682 3.799285
v 1.307240 -0.613111 3.795753
v 1.311833 -0.615845 3.797016
v 1.314447 -0.617819 3.789217
v 1.321006 -0.631127 3.768604
v 1.316417 -0.628099 3.780987
v 1.324335 -0.631670 3.763118
v 1.315368 -0.621907 3.780309
v 1.324229 -0.628030 3.775206
v 1.319364 -0.623382 3.776556
v 1.317940 -0.628040 3.781579
v 1.331487 -0.636667 3.761575
v 1.318262 -0.629711 3.775174
v 1.324342 -0.626420 3.771959
v 1.327656 -0.636501 3.762723
v 1.337914 -0.639878 3.753263
v 1.334532 -0.634082 3.757712
v 1.336626 -0.637086 3.747505
v 1.340112 -0.644591 3.743165
v 1.335271 -0.640047 3.747118
v 1.349054 -0.643233 3.735842
v 1.343078 -0.642519 3.738239
v 1.343408 -0.639974 3.745450
v 1.344778 -0.642239 3.744769
v 1.343167 -0.645336 3.737762
v 1.351678 -0.647826 3.736405
v 1.348257 -0.648123 3.738486
v 1.358916 -0.650057 3.728292
v 1.355592 -0.652500 3.724060
v 1.362648 -0.657206 3.722492
v 1.358152 -0.650624 3.722674
v 1.367473 -0.657934 3.719691
v 1.396362 -0.678109 3.685477
v 1.372459 -0.659908 3.708338
v 1.379971 -0.668609 3.703815
v 1.385464 -0.670895 3.701047
v 1.376835 -0.660321 3.707888
v 1.382956 -0.665564 3.699535
v 1.402363 -0.677768 3.686142
v 1.398219 -0.680938 3.685497
v 1.414193 -0.689627 3.674340
v 1.404675 -0.680511 3.684500
v 1.404163 -0.678644 3.682782
v 1.398595 -0.675440 3.685974
v 1.413232 -0.688172 3.669394
v 1.417888 -0.695417 3.664485
v 1.421051 -0.698054 3.663052
v 1.418418 -0.694932 3.663141
v 1.426804 -0.697383 3.656767
v 1.425917 -0.699697 3.654442
v 1.421142 -0.692734 3.666864
v 1.433486 -0.707677 3.650098
v 1.413232 -0.688172 3.669394
v 1.428130 -0.700406 3.658847
v 1.433246 -0.702889 3.651350
v 1.435658 -0.711175 3.642697
v 1.432076 -0.706213 3.646184
v 1.439461 -0.710219 3.637872
v 1.439387 -0.710148 3.643748
v 1.446571 -0.721793 3.626964
v 1.445207 -0.714694 3.631716
v 1.440827 -0.715480 3.633161
v 1.440827 -0.715480 3.633161
v 1.441232 -0.714224 3.633014
v 1.445999 -0.715494 3.632636
v 1.445374 -0.719067 3.631919
v 1.449092 -0.720162 3.621470
v 1.449058 -0.724230 3.618271
v 1.451327 -0.723316 3.622714
v 1.449906 -0.725874 3.617242
v 1.449273 -0.722909 3.618025
v 1.453360 -0.727874 3.615560
v 1.455171 -0.725799 3.611567
v 1.455030 -0.729357 3.604688
v 1.456839 -0.728002 3.610094
v 1.458701 -0.734708 3.601249
v 1.458017 -0.731273 3.606460
v 1.458919 -0.732498 3.596328
v 1.459832 -0.737911 3.593308
v 1.455835 -0.732522 3.600991
v 1.460604 -0.739163 3.586499
v 1.462555 -0.739712 3.581151
v 1.463398 -0.737828 3.590545
v 1.464107 -0.742250 3.583336
v 1.467106 -0.744255 3.575829
v 1.461216 -0.735583 3.589271
v 1.465121 -0.739660 3.580088
v 1.467405 -0.742792 3.575059
v 1.464858 -0.740516 3.577226
v 1.463577 -0.743836 3.576777
v 1.480281 -0.766065 3.514781
v 1.481947 -0.773884 3.495467
v 1.479196 -0.767757 3.514155
v 1.475708 -0.762877 3.521147
v 1.479967 -0.767250 3.506505
v 1.482012 -0.768594 3.504299
v 1.480624 -0.771356 3.500550
v 1.478873 -0.768576 3.507373
v 1.483278 -0.775003 3.495296
v 1.482756 -0.773780 3.493122
v 1.484398 -0.772295 3.497247
v 1.485265 -0.776346 3.491691
v 1.484241 -0.772180 3.497493
v 1.491355 -0.783783 3.473722
v 1.491520 -0.782963 3.470523
v 1.488886 -0.779111 3.481961
v 1.488711 -0.780501 3.475854
v 1.484022 -0.775839 3.488557
v 1.490050 -0.784300 3.469659
v 1.493506 -0.785411 3.467966
v 1.493506 -0.785411 3.467966
v 1.492126 -0.786839 3.468527
v 1.491757 -0.787255 3.466838
v 1.501457 -0.797826 3.441335
v 1.502253 -0.799049 3.443333
v 1.501927 -0.797089 3.442141
v 1.500291 -0.797961 3.443843
v 1.499412 -0.793730 3.452309
v 1.506449 -0.802951 3.434770
v 1.508087 -0.803861 3.430836
v 1.508087 -0.803861 3.430836
v 1.522402 -0.821386 3.397743
v 1.506468 -0.802946 3.434789
v 1.508139 -0.805762 3.430170
v 1.508149 -0.805767 3.430168
v 1.521460 -0.822624 3.396998
v 1.522196 -0.823380 3.397390
v 1.518543 -0.818818 3.403321
v 1.514988 -0.814452 3.414124
v 1.514988 -0.814452 3.414124
v 1.522115 -0.822118 3.396621
v 1.522970 -0.822165 3.397950
v 1.522948 -0.822117 3.398088
v 1.523034 -0.822809 3.397658
v 1.521580 -0.822043 3.397120
v 1.521580 -0.822043 3.397120
v 1.522209 -0.823043 3.396828
v 1.521918 -0.822865 3.398532
v 1.522124 -0.822170 3.396683
v 1.522166 -0.822649 3.396603
v 1.522166 -0.822649 3.396603
v 1.522230 -0.823150 3.397310
v 1.522899 -0.822398 3.397300
v 1.522222 -0.823307 3.397345
v 1.522162 -0.822615 3.396628
v 1.522124 -0.822170 3.396683
v 1.522612 -0.822583 3.396692
v 1.522166 -0.822649 3.396603
v 1.522124 -0.822170 3.396683
v 1.522612 -0.822583 3.396692
v 1.522908 -0.822940 3.397185
v 1.522908 -0.822940 3.397185
v 1.523058 -0.822452 3.397129
v 1.523058 -0.822452 3.397129
vn -0.5889 -0.0158 0.8081
vn -0.6052 0.6261 0.4916
vn -0.9632 0.2688 -0.0043
vn -0.9093 -0.3554 0.2163
vn -0.3764 -0.6015 0.7047
vn -0.6898 0.7227 -0.0431
vn -0.3217 -0.7840 0.5310
vn -0.8756 0.0224 -0.4825
vn -0.5071 0.5878 -0.6303
vn 0.1317 -0.2976 0.9456
vn 0.2786 -0.6163 0.7366
vn 0.8100 -0.0987 0.5781
vn 0.4935 -0.0340 0.8691
vn 0.0342 0.4572 0.8887
vn 0.0772 0.9127 0.4012
vn -0.1405 0.9415 -0.3063
vn 0.3829 0.8911 -0.2435
vn 0.6632 0.7341 0.1456
vn 0.1311 0.7539 -0.6438
vn -0.6177 -0.7558 0.2175
vn -0.9193 -0.3044 -0.2496
vn 0.7038 0.4037 0.5845
vn 0.8793 0.4698 0.0781
vn 0.5434 0.7468 -0.3835
vn -0.6572 0.3016 -0.6907
vn -0.0539 0.7420 -0.6682
vn 0.2686 -0.6711 0.6910
vn -0.1557 -0.8540 0.4965
vn -0.4267 0.5526 -0.7160
vn -0.6763 0.3370 -0.6550
vn 0.7313 -0.3141 0.6055
vn 0.0245 0.8079 -0.5888
vn -0.8118 -0.5541 -0.1843
vn -0.4223 -0.8588 0.2900
vn 0.5418 -0.5982 0.5904
vn 0.6138 0.7485 -0.2509
vn 0.1387 -0.8354 0.5318
vn -0.1575 0.8146 -0.5582
vn 0.9014 0.3404 0.2676
vn 0.5494 0.8240 -0.1386
vn -0.8627 -0.3495 -0.3655
vn -0.4113 -0.8925 0.1852
vn -0.7422 0.2396 -0.6258
vn 0.8831 0.1322 0.4502
vn 0.1083 0.9150 -0.3887
vn 0.0394 0.8791 -0.4750
vn 0.1178 -0.8696 0.4795
vn 0.3474 -0.7534 0.5584
vn -0.7164 -0.6903 -0.1012
vn 0.6396 0.7682 0.0267
vn -0.3380 -0.9256 0.1703
vn 0.6158 -0.4092 0.6733
vn -0.2627 0.7668 -0.5857
vn 0.8541 0.2957 0.4279
vn -0.8185 -0.1199 -0.5619
vn 0.3347 0.9030 -0.2695
vn -0.5725 -0.8148 -0.0916
vn -0.5199 0.4617 -0.7187
vn 0.8105 0.2040 0.5491
vn 0.7889 0.5367 0.2993
vn -0.7829 -0.2779 -0.5567
vn 0.6127 -0.3207 0.7223
vn 0.7919 0.4016 0.4601
vn 0.1574 -0.8265 0.5405
vn -0.7536 -0.2396 -0.6121
vn 0.1753 -0.7827 0.5972
vn -0.2618 0.6829 -0.6820
vn 0.5514 -0.3703 0.7476
vn -0.7564 -0.1842 -0.6277
vn -0.3870 0.5258 -0.7574
vn -0.4297 -0.8942 0.1258
vn 0.4066 0.8977 -0.1696
vn -0.0886 -0.8744 0.4771
vn -0.1402 0.7711 -0.6210
vn 0.7379 0.5632 0.3718
vn -0.6705 -0.7249 -0.1580
vn 0.4967 -0.4446 0.7454
vn 0.7454 0.0697 0.6630
vn 0.5620 0.8245 -0.0656
vn 0.1574 0.8620 -0.4819
vn -0.5627 0.2980 -0.7710
vn -0.7723 -0.5647 -0.2911
vn -0.6514 -0.7455 -0.1409
vn -0.8068 -0.2073 -0.5533
vn 0.3088 0.8644 -0.3967
vn -0.5110 0.4703 -0.7195
vn 0.8118 0.4071 0.4186
vn 0.1686 -0.7736 0.6109
vn -0.2266 0.6674 -0.7094
vn 0.6831 -0.2313 0.6927
vn 0.8095 0.5424 0.2248
vn -0.8156 -0.0195 -0.5783
vn -0.7552 0.0765 -0.6510
vn -0.1251 0.7761 -0.6180
vn 0.8083 -0.0964 0.5808
vn -0.3037 -0.8962 0.3234
vn 0.5011 0.8370 -0.2198
vn -0.8775 -0.0621 -0.4755
vn -0.7510 0.2414 -0.6146
vn -0.6296 0.4118 -0.6588
vn 0.8972 0.3112 0.3134
vn 0.3305 -0.7102 0.6216
vn -0.1098 0.8335 -0.5415
vn -0.9082 -0.0821 -0.4105
vn 0.7846 -0.3222 0.5296
vn -0.8525 -0.5128 -0.1018
vn -0.7457 0.3990 -0.5335
vn 0.2630 -0.8139 0.5180
vn 0.6033 0.7823 -0.1550
vn -0.8095 0.2979 -0.5059
vn 0.9450 0.2210 0.2411
vn 0.2336 -0.8663 0.4415
vn 0.8025 -0.3877 0.4535
vn -0.1931 0.8324 -0.5194
vn -0.4913 -0.8486 0.1960
vn -0.9561 -0.1399 -0.2574
vn -0.9481 -0.2507 -0.1954
vn -0.7947 0.4180 -0.4401
vn 0.9262 -0.1706 0.3362
vn 0.1872 -0.9048 0.3824
vn 0.7897 -0.4969 0.3599
vn 0.0542 0.9231 -0.3806
vn 0.5304 0.8263 -0.1895
vn 0.9421 0.3289 0.0652
vn -0.0468 0.9179 -0.3940
vn -0.8232 -0.5674 0.0200
vn 0.9234 -0.2443 0.2960
vn 0.1416 -0.9241 0.3549
vn -0.9229 -0.3632 -0.1274
vn -0.9351 0.2063 -0.2880
vn -0.3255 0.8311 -0.4509
vn 0.6047 0.7778 -0.1717
vn -0.9727 0.0602 -0.2242
vn -0.8495 0.3798 -0.3662
vn -0.7865 0.4175 -0.4551
vn 0.8891 0.4547 0.0528
vn -0.2521 -0.9197 0.3010
vn 0.5208 -0.7078 0.4772
vn 0.9386 -0.1541 0.3088
vn 0.7542 -0.4922 0.4347
vn 0.2918 0.9000 -0.3239
vn 0.8540 0.5202 0.0092
vn -0.3908 0.7908 -0.4711
vn -0.6322 0.6186 -0.4665
vn -0.8869 0.1754 -0.4274
vn 0.9267 -0.0457 0.3729
vn 0.8216 0.5697 0.0195
vn -0.0015 -0.9107 0.4131
vn -0.6925 -0.7189 0.0605
vn -0.6967 0.4578 -0.5524
vn 0.1007 -0.8727 0.4778
vn 0.0783 0.8852 -0.4585
vn -0.8647 -0.4856 -0.1283
vn 0.8239 -0.3300 0.4608
vn 0.9166 -0.0545 0.3960
vn 0.9183 -0.0090 0.3958
vn 0.5495 0.8121 -0.1962
vn 0.6085 -0.5680 0.5541
vn 0.7806 -0.3381 0.5257
vn 0.4221 0.8406 -0.3396
vn 0.8884 -0.1613 0.4298
vn -0.6892 -0.7110 -0.1397
vn -0.8102 -0.2667 -0.5220
vn -0.7676 0.2773 -0.5779
vn 0.6505 -0.5123 0.5607
vn -0.2856 0.8189 -0.4979
vn 0.8453 0.5343 -0.0081
vn 0.8858 -0.1429 0.4415
vn 0.8112 -0.5232 0.2612
vn 0.3356 -0.7660 0.5483
vn -0.6943 0.3058 -0.6515
vn -0.5018 0.6623 -0.5565
vn -0.3580 -0.8687 0.3422
vn -0.4957 -0.6331 -0.5945
vn -0.5138 0.1689 -0.8411
vn -0.4470 -0.4833 -0.7527
vn -0.4853 0.1049 -0.8680
vn 0.1644 -0.9157 0.3667
vn 0.6504 -0.5043 -0.5681
vn 0.6430 -0.5509 -0.5320
vn 0.6467 -0.4998 -0.5762
vn 0.1668 0.1810 -0.9692
vn 0.5274 0.6116 -0.5897
vn 0.4844 0.6247 -0.6125
vn 0.2958 -0.9409 0.1648
vn 0.9372 -0.3095 -0.1607
vn 0.9913 -0.1269 -0.0341
vn 0.6847 0.6388 -0.3508
s 1
f 5//1 2//2 3//3
f 5//1 1//4 4//5
f 3//3 2//2 6//6
f 1//4 7//7 4//5
f 5//1 3//3 1//4
f 1//4 3//3 8//8
f 3//3 6//6 9//9
f 3//3 9//9 8//8
f 5//1 4//5 10//10
f 10//10 12//11 13//12
f 11//13 10//10 13//12
f 14//14 2//2 5//1
f 5//1 10//10 14//14
f 15//15 2//2 14//14
f 11//13 14//14 10//10
f 16//16 2//2 15//15
f 10//10 4//5 7//7
f 10//10 7//7 12//11
f 6//6 2//2 16//16
f 16//16 9//9 6//6
f 15//15 18//17 16//16
f 20//18 18//17 15//15
f 19//19 16//16 18//17
f 1//4 21//20 7//7
f 22//21 21//20 1//4
f 19//19 9//9 16//16
f 8//8 9//9 22//21
f 11//13 13//12 23//22
f 23//22 14//14 11//13
f 15//15 14//14 23//22
f 15//15 23//22 20//18
f 13//12 24//23 23//22
f 24//23 20//18 23//22
f 24//23 25//24 20//18
f 18//17 25//24 19//19
f 20//18 25//24 18//17
f 19//19 17//25 9//9
f 1//4 8//8 22//21
f 17//25 19//19 26//26
f 22//21 9//9 17//25
f 12//11 7//7 27//27
f 25//24 26//26 19//19
f 7//7 21//20 28//28
f 27//27 7//7 28//28
f 29//29 17//25 26//26
f 17//25 30//30 22//21
f 12//11 27//27 31//31
f 24//23 32//32 25//24
f 25//24 32//32 26//26
f 30//30 17//25 29//29
f 32//32 29//29 26//26
f 22//21 33//33 21//20
f 33//33 34//34 21//20
f 13//12 12//11 31//31
f 27//27 35//35 31//31
f 32//32 24//23 36//36
f 28//28 21//20 34//34
f 37//37 28//28 34//34
f 32//32 38//38 29//29
f 29//29 38//38 30//30
f 27//27 28//28 37//37
f 13//12 39//39 24//23
f 35//35 27//27 37//37
f 39//39 36//36 24//23
f 40//40 38//38 36//36
f 36//36 38//38 32//32
f 22//21 41//41 33//33
f 30//30 41//41 22//21
f 31//31 39//39 13//12
f 36//36 39//39 40//40
f 33//33 42//42 34//34
f 43//43 30//30 38//38
f 45//44 31//31 35//35
f 45//44 39//39 31//31
f 46//45 38//38 40//40
f 37//37 34//34 42//42
f 30//30 43//43 41//41
f 46//45 44//46 38//38
f 47//47 35//35 37//37
f 37//37 42//42 47//47
f 35//35 47//47 48//48
f 33//33 49//49 42//42
f 38//38 44//46 43//43
f 41//41 49//49 33//33
f 39//39 45//44 50//50
f 40//40 39//39 50//50
f 48//48 45//44 35//35
f 40//40 50//50 46//45
f 51//51 47//47 42//42
f 48//48 52//52 45//44
f 54//53 44//46 46//45
f 49//49 51//51 42//42
f 49//49 41//41 51//51
f 43//43 44//46 54//53
f 48//48 47//47 51//51
f 45//44 53//54 50//50
f 56//55 41//41 43//43
f 52//52 53//54 45//44
f 50//50 54//53 46//45
f 57//56 54//53 50//50
f 41//41 55//57 51//51
f 41//41 56//55 55//57
f 56//55 43//43 54//53
f 50//50 53//54 57//56
f 51//51 52//52 48//48
f 56//55 54//53 58//58
f 60//59 53//54 52//52
f 60//59 59//60 53//54
f 53//54 59//60 57//56
f 55//57 56//55 61//61
f 52//52 62//62 60//59
f 56//55 58//58 61//61
f 59//60 60//59 64//63
f 63//64 52//52 51//51
f 55//57 63//64 51//51
f 52//52 63//64 62//62
f 65//65 61//61 58//58
f 57//56 59//60 64//63
f 66//66 63//64 55//57
f 55//57 61//61 65//65
f 54//53 67//67 58//58
f 57//56 67//67 54//53
f 65//65 58//58 67//67
f 68//68 62//62 63//64
f 64//63 60//59 62//62
f 55//57 65//65 69//69
f 70//70 65//65 67//67
f 63//64 66//66 68//68
f 62//62 68//68 64//63
f 66//66 55//57 71//71
f 71//71 55//57 69//69
f 57//56 73//72 67//67
f 67//67 73//72 70//70
f 66//66 72//73 68//68
f 73//72 57//56 64//63
f 72//73 66//66 71//71
f 65//65 70//70 69//69
f 73//72 74//74 70//70
f 75//75 73//72 64//63
f 71//71 69//69 76//76
f 68//68 72//73 77//77
f 69//69 70//70 74//74
f 77//77 78//78 68//68
f 64//63 68//68 78//78
f 79//79 73//72 75//75
f 72//73 71//71 76//76
f 73//72 80//80 74//74
f 75//75 64//63 78//78
f 80//80 73//72 79//79
f 74//74 81//81 69//69
f 82//82 83//83 76//76
f 84//84 76//76 69//69
f 72//73 76//76 83//83
f 85//85 74//74 80//80
f 85//85 80//80 79//79
f 84//84 82//82 76//76
f 84//84 69//69 81//81
f 81//81 86//86 84//84
f 78//78 77//77 87//87
f 75//75 87//87 79//79
f 88//88 72//73 83//83
f 77//77 72//73 88//88
f 89//89 74//74 85//85
f 87//87 75//75 78//78
f 90//90 87//87 77//77
f 89//89 85//85 86//86
f 79//79 87//87 85//85
f 90//90 77//77 88//88
f 91//91 87//87 90//90
f 92//92 83//83 82//82
f 82//82 84//84 93//93
f 93//93 84//84 86//86
f 86//86 85//85 94//94
f 85//85 87//87 91//91
f 95//95 91//91 90//90
f 82//82 93//93 92//92
f 88//88 95//95 90//90
f 88//88 83//83 96//96
f 94//94 93//93 86//86
f 97//97 85//85 91//91
f 97//97 94//94 85//85
f 98//98 92//92 93//93
f 99//99 93//93 100//100
f 93//93 94//94 100//100
f 101//101 91//91 95//95
f 102//102 88//88 96//96
f 97//97 91//91 101//101
f 83//83 92//92 96//96
f 95//95 88//88 102//102
f 103//103 100//100 94//94
f 97//97 103//103 94//94
f 104//104 92//92 98//98
f 102//102 105//105 95//95
f 95//95 105//105 101//101
f 104//104 99//99 100//100
f 96//96 92//92 106//106
f 104//104 106//106 92//92
f 104//104 100//100 107//107
f 100//100 103//103 107//107
f 108//108 105//105 102//102
f 97//97 101//101 109//109
f 96//96 108//108 102//102
f 97//97 109//109 103//103
f 107//107 110//110 104//104
f 101//101 105//105 111//111
f 109//109 101//101 111//111
f 108//108 96//96 112//112
f 108//108 113//113 105//105
f 114//114 110//110 107//107
f 103//103 114//114 107//107
f 109//109 114//114 103//103
f 115//115 96//96 106//106
f 112//112 96//96 115//115
f 105//105 113//113 111//111
f 108//108 112//112 113//113
f 115//115 106//106 116//116
f 117//117 115//115 116//116
f 104//104 116//116 106//106
f 110//110 116//116 104//104
f 116//116 110//110 118//118
f 117//117 116//116 118//118
f 111//111 113//113 119//119
f 112//112 119//119 113//113
f 120//120 119//119 112//112
f 114//114 118//118 110//110
f 112//112 115//115 120//120
f 121//121 119//119 120//120
f 109//109 122//122 114//114
f 123//123 122//122 109//109
f 124//124 111//111 119//119
f 111//111 124//124 109//109
f 109//109 124//124 123//123
f 114//114 125//125 118//118
f 123//123 125//125 122//122
f 117//117 126//126 115//115
f 119//119 121//121 124//124
f 115//115 126//126 120//120
f 117//117 118//118 126//126
f 121//121 127//127 124//124
f 120//120 129//128 121//121
f 129//128 127//127 121//121
f 126//126 128//129 129//128
f 126//126 129//128 120//120
f 128//129 126//126 130//130
f 123//123 131//131 125//125
f 118//118 130//130 126//126
f 125//125 131//131 118//118
f 132//132 124//124 127//127
f 118//118 131//131 130//130
f 132//132 123//123 124//124
f 132//132 131//131 123//123
f 128//129 130//130 133//133
f 134//134 130//130 131//131
f 134//134 136//135 133//133
f 134//134 131//131 136//135
f 137//136 132//132 127//127
f 135//137 129//128 128//129
f 138//138 129//128 135//137
f 129//128 138//138 127//127
f 127//127 138//138 139//139
f 139//139 138//138 140//140
f 132//132 141//141 131//131
f 141//141 137//136 142//142
f 131//131 143//143 136//135
f 136//135 143//143 144//144
f 133//133 136//135 128//129
f 144//144 143//143 145//145
f 137//136 141//141 132//132
f 143//143 131//131 141//141
f 128//129 136//135 145//145
f 140//140 146//146 139//139
f 142//142 147//147 141//141
f 140//140 138//138 148//148
f 148//148 138//138 135//137
f 128//129 149//149 135//137
f 135//137 149//149 148//148
f 128//129 145//145 149//149
f 145//145 143//143 150//150
f 148//148 151//151 140//140
f 141//141 152//152 143//143
f 145//145 153//153 149//149
f 140//140 151//151 154//154
f 140//140 154//154 146//146
f 151//151 148//148 149//149
f 155//155 141//141 147//147
f 155//155 156//156 141//141
f 143//143 152//152 150//150
f 152//152 141//141 157//157
f 150//150 153//153 145//145
f 151//151 149//149 153//153
f 151//151 159//158 154//154
f 159//158 151//151 160//159
f 158//160 152//152 157//157
f 155//155 161//161 156//156
f 163//162 151//151 153//153
f 153//153 162//163 163//162
f 150//150 164//164 153//153
f 160//159 151//151 165//165
f 165//165 151//151 163//162
f 153//153 164//164 162//163
f 158//160 150//150 152//152
f 158//160 167//166 150//150
f 150//150 167//166 164//164
f 157//157 168//167 158//160
f 161//161 169//168 156//156
f 161//161 170//169 169//168
f 161//161 166//170 170//169
f 164//164 171//171 162//163
f 164//164 167//166 172//172
f 165//165 163//162 174//173
f 163//162 162//163 173//174
f 162//163 171//171 175//175
f 173//174 162//163 176//176
f 162//163 175//175 177//177
f 170//169 166//170 178//178
f 181//179 179//180 180//181
f 182//182 183//182 184//182
f 185//183 158//160 186//184
f 178//178 187//185 170//169
f 170//169 188//186 189//187
f 190//188 158//160 168//167
f 158//160 190//188 186//184
f 169//168 170//169 189//187
