# Blender v2.78 (sub 0) OBJ File: 'exporter.blend'
# www.blender.org
o FJ2426.obj_grp1.1129
v 0.145896 -0.527312 5.854702
v 0.150939 -0.543803 5.853725
v 0.152308 -0.556251 5.848862
v 0.147305 -0.547802 5.836631
v 0.149081 -0.539659 5.843847
v 0.150266 -0.561547 5.843605
v 0.150431 -0.555845 5.861040
v 0.146967 -0.572530 5.844831
v 0.148632 -0.568754 5.860875
v 0.150093 -0.569054 5.853230
v 0.144202 -0.581326 5.855219
v 0.138945 -0.517135 5.843684
v 0.139923 -0.516662 5.854222
v 0.138246 -0.519825 5.864163
v 0.144346 -0.538246 5.868626
v 0.143124 -0.537691 5.834197
v 0.133981 -0.521487 5.833844
v 0.139458 -0.529198 5.853850
v 0.145113 -0.548076 5.845333
v 0.145115 -0.550369 5.856402
v 0.137601 -0.527440 5.846371
v 0.139892 -0.543445 5.836891
v 0.138459 -0.532486 5.863437
v 0.139333 -0.549734 5.829376
v 0.142311 -0.562536 5.833889
v 0.144035 -0.560493 5.843539
v 0.141380 -0.559419 5.866314
v 0.133673 -0.553321 5.884862
v 0.139502 -0.555397 5.836734
v 0.145133 -0.562574 5.854037
v 0.143195 -0.568905 5.849931
v 0.140767 -0.575180 5.871889
v 0.139538 -0.576811 5.840068
v 0.138604 -0.566199 5.840700
v 0.139131 -0.575495 5.861193
v 0.133286 -0.578886 5.849963
v 0.138046 -0.586797 5.856712
v 0.133158 -0.588394 5.867397
v 0.130962 -0.511926 5.840153
v 0.124207 -0.505192 5.860986
v 0.130310 -0.511006 5.863544
v 0.128621 -0.506566 5.848975
v 0.130890 -0.516844 5.854007
v 0.123061 -0.513732 5.865929
v 0.135269 -0.528970 5.874634
v 0.132480 -0.536104 5.827182
v 0.130831 -0.526653 5.871063
v 0.126942 -0.535630 5.831820
v 0.129476 -0.553199 5.825524
v 0.132479 -0.547154 5.878486
v 0.130185 -0.548436 5.831151
v 0.128972 -0.559589 5.833590
v 0.121929 -0.565371 5.890831
v 0.129458 -0.568202 5.831052
v 0.130354 -0.572595 5.842029
v 0.132039 -0.577667 5.872375
v 0.133592 -0.581737 5.858919
v 0.131747 -0.583139 5.877325
v 0.133544 -0.586162 5.847865
v 0.126065 -0.585322 5.869686
v 0.127515 -0.591940 5.864510
v 0.125095 -0.590024 5.855247
v 0.121694 -0.505001 5.845266
v 0.129808 -0.520045 5.842605
v 0.123207 -0.511526 5.852095
v 0.124274 -0.515043 5.834204
v 0.123773 -0.521176 5.839030
v 0.120520 -0.521824 5.883023
v 0.121539 -0.528132 5.827179
v 0.119206 -0.536400 5.888749
v 0.121141 -0.539738 5.891172
v 0.125579 -0.545321 5.824427
v 0.120230 -0.542750 5.831045
v 0.114958 -0.551323 5.832728
v 0.123850 -0.550723 5.892174
v 0.124358 -0.570233 5.891325
v 0.115602 -0.557347 5.834607
v 0.120101 -0.571928 5.890205
v 0.123037 -0.579999 5.888412
v 0.122140 -0.556060 5.890769
v 0.124639 -0.577935 5.839286
v 0.125030 -0.581135 5.852209
v 0.115864 -0.584587 5.886986
v 0.105816 -0.560117 5.833644
v 0.121668 -0.587115 5.866662
v 0.120645 -0.590342 5.882014
v 0.112092 -0.499941 5.860739
v 0.115711 -0.506381 5.843976
v 0.116853 -0.513265 5.846821
v 0.113620 -0.507786 5.857897
v 0.108221 -0.511566 5.882106
v 0.114998 -0.514589 5.836716
v 0.112679 -0.521549 5.884509
v 0.118446 -0.532611 5.833722
v 0.117625 -0.534118 5.888702
v 0.117533 -0.541818 5.825325
v 0.118979 -0.536352 5.888608
v 0.121157 -0.546282 5.890909
v 0.120719 -0.539042 5.890440
v 0.123770 -0.550704 5.891942
v 0.117625 -0.534118 5.888702
v 0.118979 -0.536352 5.888608
v 0.120719 -0.539042 5.890440
v 0.113269 -0.551606 5.826585
v 0.121025 -0.546432 5.890842
v 0.122194 -0.555384 5.891613
v 0.121273 -0.547703 5.890972
v 0.122194 -0.555384 5.891613
v 0.117310 -0.560767 5.828572
v 0.123201 -0.562506 5.892089
v 0.120285 -0.571759 5.890173
v 0.121645 -0.566407 5.891332
v 0.121576 -0.566489 5.891457
v 0.119431 -0.580208 5.889464
v 0.118913 -0.576787 5.888985
v 0.116325 -0.583867 5.887720
v 0.105610 -0.592845 5.879531
v 0.107715 -0.589815 5.882177
v 0.115489 -0.586658 5.887454
v 0.115404 -0.586632 5.887248
v 0.111256 -0.589431 5.884295
v 0.107715 -0.589815 5.882177
v 0.114263 -0.595190 5.876649
v 0.105194 -0.499417 5.861354
v 0.108508 -0.506631 5.867059
v 0.103106 -0.505531 5.866676
v 0.111120 -0.529599 5.831739
v 0.113750 -0.523238 5.840808
v 0.114081 -0.522548 5.886398
v 0.114061 -0.522555 5.886308
v 0.111398 -0.519546 5.884994
v 0.117997 -0.533822 5.888401
v 0.114557 -0.526250 5.886180
v 0.111398 -0.519546 5.884994
v 0.117625 -0.534118 5.888702
v 0.120719 -0.539042 5.890440
v 0.114061 -0.522555 5.886308
v 0.107135 -0.545866 5.829797
v 0.111889 -0.542797 5.834731
v 0.105813 -0.557141 5.840249
v 0.118913 -0.576787 5.888985
v 0.115925 -0.583829 5.886966
v 0.116191 -0.583876 5.887905
v 0.112366 -0.588275 5.884900
v 0.108064 -0.593037 5.882291
v 0.112366 -0.588275 5.884900
v 0.112005 -0.588537 5.884736
v 0.115404 -0.586632 5.887248
v 0.110553 -0.589496 5.883914
v 0.115404 -0.586632 5.887248
v 0.093316 -0.501256 5.871884
v 0.095209 -0.505513 5.874619
v 0.103438 -0.511242 5.880377
v 0.106035 -0.513513 5.881848
v 0.104717 -0.511637 5.881075
v 0.077277 -0.557336 5.862321
v 0.099474 -0.552183 5.844205
v 0.092947 -0.555553 5.842828
v 0.107360 -0.589702 5.882052
v 0.110553 -0.589496 5.883914
v 0.107344 -0.589600 5.882739
v 0.098528 -0.583461 5.875964
v 0.097974 -0.583375 5.876032
v 0.100378 -0.502097 5.875475
v 0.094541 -0.500515 5.873152
v 0.094280 -0.499856 5.872982
v 0.101619 -0.508781 5.878281
v 0.094122 -0.501897 5.874318
v 0.101635 -0.508480 5.879032
v 0.097100 -0.505316 5.876121
v 0.097100 -0.505316 5.876121
v 0.101619 -0.508781 5.878281
v 0.101635 -0.508480 5.879032
v 0.097100 -0.505316 5.876121
v 0.103163 -0.510480 5.880112
v 0.103163 -0.510480 5.880112
v 0.093270 -0.507925 5.874103
v 0.083037 -0.550333 5.864995
v 0.078759 -0.552212 5.863931
v 0.095209 -0.505513 5.874619
v 0.097100 -0.505316 5.876121
v 0.095209 -0.505513 5.874619
v 0.093206 -0.507861 5.873961
v 0.083153 -0.557671 5.864666
v 0.080302 -0.556746 5.865370
v 0.077883 -0.557327 5.862465
v 0.080547 -0.552061 5.865558
v 0.080547 -0.552061 5.865558
v 0.078315 -0.558890 5.862089
v 0.080302 -0.556746 5.865370
v 0.080302 -0.556746 5.865370
v 0.083153 -0.557671 5.864666
vn 0.9956 -0.0346 -0.0871
vn 0.8232 0.0372 -0.5666
vn 0.9232 0.2608 -0.2823
vn 0.9716 0.2077 0.1135
vn 0.8910 -0.2062 -0.4044
vn 0.9285 -0.0156 0.3711
vn 0.9036 -0.2590 0.3413
vn 0.9547 -0.2962 0.0296
vn 0.7869 -0.4653 -0.4053
vn 0.7842 -0.6204 -0.0088
vn 0.7534 0.5753 -0.3185
vn 0.9108 0.3985 0.1076
vn 0.7746 0.6253 0.0949
vn 0.7216 0.5218 0.4549
vn 0.8321 0.2249 0.5071
vn 0.7169 0.2504 -0.6506
vn -0.8953 -0.4407 -0.0653
vn -0.9641 -0.1334 0.2297
vn -0.9668 -0.1188 -0.2261
vn -0.8134 -0.4782 0.3312
vn 0.5363 -0.0374 -0.8432
vn 0.5893 -0.2838 -0.7565
vn -0.7100 -0.2024 0.6745
vn -0.8844 0.2000 0.4218
vn 0.7054 0.0489 0.7071
vn -0.6280 0.1592 0.7618
vn -0.9804 0.1715 -0.0969
vn -0.8514 0.4820 0.2069
vn -0.8870 0.0733 -0.4559
vn 0.7869 -0.3360 0.5175
vn 0.4276 -0.6210 -0.6569
vn -0.5296 0.4736 0.7037
vn -0.8471 0.4923 -0.2003
vn -0.3881 0.7867 0.4800
vn 0.5454 -0.8346 -0.0770
vn 0.5957 -0.7523 0.2814
vn 0.4792 0.8307 0.2834
vn 0.6013 0.6802 0.4193
vn 0.4990 0.8578 -0.1233
vn -0.7111 -0.7015 -0.0462
vn -0.8563 -0.3472 -0.3823
vn -0.5675 -0.7483 -0.3434
vn 0.4999 0.4581 -0.7350
vn 0.6558 0.3797 0.6525
vn 0.3682 0.2055 -0.9067
vn 0.1846 -0.1964 -0.9630
vn -0.7204 -0.4549 -0.5235
vn -0.7914 -0.1354 -0.5961
vn -0.2341 0.0687 0.9698
vn -0.0971 0.3771 0.9211
vn 0.0862 -0.4971 -0.8634
vn -0.0622 0.6513 0.7562
vn -0.7758 0.1589 -0.6107
vn -0.7528 0.4629 -0.4681
vn -0.5493 0.8302 0.0945
vn -0.5354 0.8180 -0.2103
vn 0.2141 -0.8442 -0.4914
vn 0.2915 -0.9565 -0.0060
vn -0.1673 -0.8883 -0.4278
vn 0.6864 -0.5057 0.5227
vn 0.1533 0.8825 -0.4446
vn 0.4752 0.7086 -0.5216
vn 0.0849 0.5881 -0.8043
vn -0.5298 -0.6509 0.5437
vn 0.4811 0.4919 0.7256
vn -0.0789 0.3304 -0.9405
vn -0.2123 -0.3007 0.9298
vn -0.0824 -0.5997 0.7959
vn -0.6740 -0.3414 -0.6551
vn 0.0930 0.0135 -0.9956
vn 0.1773 -0.0526 0.9828
vn 0.6181 0.2974 0.7277
vn 0.3429 0.1476 0.9277
vn 0.5938 0.0823 0.8004
vn 0.3261 -0.1703 0.9299
vn -0.7514 0.2863 -0.5944
vn 0.4860 -0.4104 0.7716
vn -0.2045 -0.7055 -0.6786
vn -0.5419 -0.4452 -0.7129
vn 0.1877 0.8208 0.5395
vn -0.0365 0.9799 0.1959
vn -0.6292 0.6238 -0.4636
vn 0.4081 -0.7220 0.5588
vn -0.0168 -0.9982 0.0577
vn 0.2275 0.9700 0.0859
vn -0.3297 0.7347 -0.5929
vn -0.3798 -0.8989 0.2185
vn 0.1654 -0.7530 0.6369
vn -0.1370 -0.9676 0.2120
vn 0.0797 0.5190 0.8510
vn -0.4472 0.5331 -0.7182
vn -0.5660 -0.5700 -0.5956
vn 0.3014 -0.3291 0.8949
vn -0.6134 -0.4483 -0.6502
vn -0.2595 0.1093 -0.9595
vn -0.7234 0.0022 0.6904
vn -0.4506 0.0294 0.8923
vn -0.5231 0.0251 0.8519
vn -0.2899 0.0379 0.9563
vn -0.8536 -0.5187 0.0478
vn -0.7283 -0.1620 -0.6659
vn -0.7997 -0.0509 -0.5982
vn -0.3405 -0.1697 -0.9248
vn -0.3194 0.0193 0.9474
vn 0.3150 0.4453 0.8382
vn -0.2257 -0.4368 -0.8708
vn 0.0194 0.0183 0.9996
vn -0.5863 -0.0536 0.8083
vn -0.6830 -0.0214 0.7301
vn -0.5777 0.0575 0.8142
vn -0.7180 -0.0199 0.6958
vn -0.1841 -0.1254 0.9749
vn -0.1025 -0.3222 0.9411
vn -0.7155 0.3812 -0.5854
vn -0.5811 -0.0494 0.8124
vn -0.6417 -0.7590 0.1101
vn 0.2813 -0.6319 0.7222
vn -0.5164 0.0258 0.8560
vn 0.4524 0.7211 0.5248
vn -0.3240 0.9361 -0.1367
vn -0.1368 0.9894 0.0492
vn -0.2716 0.9255 -0.2640
vn -0.3130 -0.9350 -0.1665
vn 0.2694 -0.9270 0.2612
vn -0.5987 0.2960 -0.7442
vn 0.5223 -0.4387 0.7312
vn 0.2416 0.4075 0.8807
vn -0.6058 -0.0154 0.7955
vn -0.4268 0.0179 0.9042
vn -0.4872 0.2013 0.8498
vn -0.4127 0.0606 0.9088
vn -0.6134 0.0875 -0.7849
vn 0.5610 -0.1449 0.8151
vn 0.5390 0.4457 0.7147
vn -0.9114 0.3079 0.2731
vn -0.8669 0.4215 0.2663
vn -0.8669 0.4215 0.2662
vn -0.8093 0.5289 0.2554
vn -0.3156 -0.7106 0.6289
vn -0.6364 0.0810 0.7671
vn -0.5058 -0.0254 0.8623
vn -0.5825 0.0415 0.8118
vn 0.0965 0.7772 0.6218
vn -0.8376 0.5031 -0.2128
vn 0.5709 -0.5907 0.5702
vn -0.4989 -0.7107 -0.4960
vn -0.6278 -0.1610 0.7615
vn -0.6963 -0.0127 0.7176
vn -0.7530 -0.1788 0.6332
vn -0.2895 0.3212 0.9017
vn -0.9639 -0.0838 -0.2527
vn 0.7060 0.0015 0.7082
vn -0.5840 -0.1970 0.7875
vn -0.7538 -0.3159 0.5762
vn -0.3486 0.8217 0.4509
vn -0.4356 -0.7787 -0.4515
vn -0.5847 0.3454 0.7341
vn -0.3091 0.2792 0.9092
vn -0.4217 -0.8073 -0.4128
vn -0.6656 -0.6879 0.2893
vn -0.7532 -0.6051 0.2581
vn -0.5781 -0.1099 0.8085
vn -0.3080 0.2742 0.9110
vn -0.8290 -0.5129 0.2228
vn 0.6224 -0.5241 0.5814
vn 0.5624 -0.1921 0.8043
vn -0.7573 -0.1211 -0.6418
vn -0.5322 0.7077 -0.4647
vn -0.8814 0.1571 0.4454
vn -0.0662 -0.9977 0.0176
vn -0.0052 -0.9906 0.1366
vn -0.4167 0.0023 0.9090
vn -0.5894 0.0444 0.8066
vn 0.6387 0.4181 0.6460
vn -0.6809 -0.0876 0.7271
vn -0.5737 -0.2615 0.7762
vn -0.6686 0.0029 0.7436
vn 0.3300 -0.1685 0.9288
vn -0.8464 -0.5228 -0.1019
vn 0.3760 0.6482 0.6622
vn 0.2437 -0.0462 0.9688
vn 0.2299 -0.0401 0.9724
vn -0.7834 -0.6162 0.0813
s 1
f 3//1 4//2 5//3
f 2//4 3//1 5//3
f 3//1 6//5 4//2
f 3//1 2//4 7//6
f 7//6 9//7 3//1
f 6//5 10//8 8//9
f 3//1 9//7 10//8
f 6//5 3//1 10//8
f 11//10 8//9 10//8
f 10//8 9//7 11//10
f 12//11 1//12 5//3
f 1//12 13//13 14//14
f 1//12 14//14 15//15
f 16//16 12//11 5//3
f 1//12 2//4 5//3
f 18//17 19//18 20//19
f 18//17 21//20 19//18
f 15//15 2//4 1//12
f 5//3 4//2 16//16
f 15//15 7//6 2//4
f 16//16 4//2 24//21
f 25//22 24//21 4//2
f 19//18 22//23 26//24
f 7//6 15//15 28//25
f 4//2 6//5 25//22
f 25//22 6//5 8//9
f 22//23 29//26 26//24
f 19//18 26//24 30//27
f 20//19 19//18 30//27
f 30//27 26//24 31//28
f 20//19 30//27 27//29
f 9//7 7//6 32//30
f 32//30 7//6 28//25
f 25//22 8//9 33//31
f 34//32 31//28 26//24
f 35//33 30//27 31//28
f 30//27 35//33 27//29
f 36//34 31//28 34//32
f 9//7 32//30 11//10
f 11//10 33//31 8//9
f 37//35 11//10 38//36
f 32//30 38//36 11//10
f 13//13 40//37 41//38
f 12//11 42//39 13//13
f 14//14 13//13 41//38
f 1//12 12//11 13//13
f 43//40 23//41 44//42
f 16//16 17//43 12//11
f 23//41 43//40 18//17
f 15//15 14//14 45//44
f 17//43 16//16 46//45
f 16//16 24//21 46//45
f 18//17 20//19 23//41
f 28//25 15//15 45//44
f 46//45 24//21 49//46
f 22//23 19//18 21//20
f 20//19 27//29 23//41
f 47//47 23//41 50//48
f 23//41 27//29 50//48
f 22//23 51//49 29//26
f 24//21 25//22 49//46
f 29//26 51//49 52//50
f 29//26 34//32 26//24
f 33//31 54//51 25//22
f 29//26 52//50 34//32
f 25//22 54//51 49//46
f 34//32 52//50 55//52
f 53//53 27//29 56//54
f 55//52 36//34 34//32
f 27//29 35//33 56//54
f 57//55 31//28 36//34
f 31//28 57//55 35//33
f 60//56 56//54 35//33
f 57//55 60//56 35//33
f 59//57 33//31 11//10
f 59//57 11//10 37//35
f 37//35 61//58 59//57
f 59//57 61//58 62//59
f 32//30 58//60 38//36
f 63//61 42//39 39//62
f 12//11 39//62 42//39
f 13//13 42//39 40//37
f 39//62 12//11 17//43
f 66//63 39//62 17//43
f 21//20 18//17 43//40
f 21//20 43//40 64//64
f 68//65 45//44 14//14
f 44//42 23//41 47//47
f 14//14 41//38 68//65
f 69//66 17//43 46//45
f 66//63 17//43 69//66
f 64//64 48//67 22//23
f 67//68 48//67 64//64
f 64//64 22//23 21//20
f 70//69 47//47 50//48
f 72//70 46//45 49//46
f 69//66 46//45 72//70
f 48//67 73//71 51//49
f 48//67 51//49 22//23
f 28//25 45//44 71//72
f 73//71 74//73 51//49
f 74//73 52//50 51//49
f 53//53 50//48 27//29
f 28//25 75//74 76//75
f 56//54 78//76 53//53
f 32//30 28//25 76//75
f 32//30 76//75 79//77
f 54//51 33//31 59//57
f 54//51 59//57 81//78
f 62//59 84//79 81//78
f 55//52 82//80 36//34
f 82//80 85//81 36//34
f 85//81 57//55 36//34
f 56//54 60//56 83//82
f 58//60 32//30 79//77
f 86//83 58//60 79//77
f 59//57 62//59 81//78
f 37//35 38//36 61//58
f 85//81 60//56 57//55
f 38//36 58//60 86//83
f 61//58 38//36 123//84
f 63//61 87//85 42//39
f 66//63 88//86 63//61
f 63//61 39//62 66//63
f 65//87 89//88 64//64
f 89//88 67//68 64//64
f 65//87 64//64 43//40
f 43//40 44//42 65//87
f 90//89 65//87 44//42
f 41//38 91//90 68//65
f 40//37 91//90 41//38
f 92//91 66//63 69//66
f 47//47 93//92 44//42
f 67//68 94//93 48//67
f 47//47 70//69 95//94
f 68//65 71//72 45//44
f 96//95 69//66 72//70
f 94//93 73//71 48//67
f 97//96 98//97 99//98
f 99//98 98//97 100//99
f 101//100 102//100 103//100
f 50//48 105//101 70//69
f 50//48 80//102 105//101
f 104//103 96//95 72//70
f 28//25 71//72 75//74
f 100//99 98//97 108//104
f 74//73 77//105 52//50
f 104//103 72//70 49//46
f 109//106 104//103 49//46
f 109//106 49//46 54//51
f 53//53 80//102 50//48
f 75//74 110//107 76//75
f 108//104 110//107 100//99
f 107//108 111//109 106//110
f 106//110 111//109 112//111
f 108//104 113//112 110//107
f 81//78 84//79 109//106
f 55//52 52//50 77//105
f 55//52 77//105 82//80
f 81//78 109//106 54//51
f 114//113 76//75 110//107
f 56//54 115//114 78//76
f 113//112 114//113 110//107
f 113//112 116//115 114//113
f 84//79 62//59 117//116
f 83//82 115//114 56//54
f 76//75 114//113 79//77
f 86//83 79//77 119//117
f 119//117 79//77 114//113
f 116//115 120//118 114//113
f 118//119 85//81 82//80
f 121//120 85//81 122//121
f 123//84 38//36 86//83
f 62//59 61//58 123//84
f 63//61 124//122 87//85
f 87//85 40//37 42//39
f 125//123 90//89 44//42
f 90//89 125//123 126//124
f 92//91 88//86 66//63
f 65//87 90//89 89//88
f 69//66 127//125 92//91
f 128//126 67//68 89//88
f 129//127 68//65 91//90
f 130//128 131//129 132//130
f 128//126 94//93 67//68
f 95//94 93//92 47//47
f 129//127 71//72 68//65
f 135//131 136//131 137//131
f 69//66 96//95 138//132
f 69//66 138//132 127//125
f 139//133 94//93 128//126
f 138//132 96//95 104//103
f 94//93 139//133 73//71
f 74//73 73//71 139//133
f 140//134 82//80 77//105
f 109//106 84//79 104//103
f 118//119 82//80 140//134
f 141//135 142//136 143//137
f 85//81 121//120 60//56
f 121//120 83//82 60//56
f 142//136 144//138 143//137
f 119//117 145//139 86//83
f 116//115 146//140 120//118
f 149//141 145//139 150//142
f 117//116 62//59 123//84
f 145//139 123//84 86//83
f 123//84 145//139 117//116
f 92//91 124//122 88//86
f 88//86 124//122 63//61
f 40//37 164//143 91//90
f 92//91 151//144 124//122
f 90//89 126//124 89//88
f 126//124 152//145 128//126
f 153//146 44//42 93//92
f 154//147 133//148 134//149
f 91//90 155//150 129//127
f 127//125 151//144 92//91
f 127//125 156//151 151//144
f 128//126 89//88 126//124
f 139//133 128//126 157//152
f 138//132 104//103 84//79
f 77//105 74//73 140//134
f 74//73 139//133 157//152
f 74//73 157//152 140//134
f 161//153 117//116 145//139
f 161//153 145//139 149//141
f 117//116 161//153 162//154
f 124//122 165//155 87//85
f 164//143 40//37 87//85
f 125//123 44//42 167//156
f 168//157 169//158 91//90
f 164//143 168//157 91//90
f 167//156 170//159 125//123
f 171//160 172//161 173//161
f 168//157 174//162 169//158
f 169//158 175//163 91//90
f 173//161 172//161 176//164
f 44//42 153//146 167//156
f 175//163 155//150 91//90
f 152//145 177//165 128//126
f 157//152 128//126 178//166
f 138//132 84//79 158//167
f 87//85 165//155 164//143
f 166//168 124//122 151//144
f 151//144 156//151 179//169
f 125//123 180//170 126//124
f 180//170 125//123 181//171
f 174//162 168//157 182//172
f 164//143 165//155 168//157
f 183//173 182//172 168//157
f 168//157 165//155 151//144
f 179//169 168//157 151//144
f 179//169 183//173 168//157
f 177//165 178//166 128//126
f 127//125 138//132 158//167
f 158//167 156//151 127//125
f 140//134 157//152 184//174
f 118//119 140//134 184//174
f 157//152 178//166 184//174
f 161//153 185//175 162//154
f 186//176 162//154 185//175
f 179//169 187//177 183//173
f 188//178 178//166 177//165
f 189//179 156//151 158//167
f 184//174 190//180 118//119
f 191//181 178//166 188//178
f 192//182 178//166 191//181
f 189//179 158//167 84//79
f 117//116 189//179 84//79
f 163//183 189//179 117//116
f 186//176 189//179 162//154
f 179//169 186//176 187//177
f 185//175 187//177 186//176
f 189//179 186//176 156//151
l 159 160
l 147 148
