# Blender v2.78 (sub 0) OBJ File: 'exporter.blend'
# www.blender.org
o FJ2435.obj_grp1.1138
v 0.124929 -0.589261 5.831248
v 0.123912 -0.584160 5.841805
v 0.123590 -0.598989 5.848463
v 0.122701 -0.602759 5.831833
v 0.119814 -0.609473 5.838844
v 0.121935 -0.578886 5.830963
v 0.111244 -0.569244 5.821248
v 0.114586 -0.570507 5.838000
v 0.108606 -0.565050 5.832936
v 0.117077 -0.580343 5.817450
v 0.117090 -0.582727 5.833668
v 0.118914 -0.594583 5.836816
v 0.111881 -0.575546 5.838365
v 0.117316 -0.589719 5.828517
v 0.117679 -0.587592 5.845717
v 0.119427 -0.593264 5.860589
v 0.116068 -0.593577 5.854918
v 0.117989 -0.603341 5.820467
v 0.113102 -0.598633 5.821269
v 0.114674 -0.605212 5.844599
v 0.117654 -0.605420 5.860398
v 0.108111 -0.602575 5.880383
v 0.111314 -0.605642 5.826038
v 0.114501 -0.612065 5.854450
v 0.110925 -0.615270 5.827730
v 0.109310 -0.573152 5.812950
v 0.114478 -0.587110 5.811494
v 0.106521 -0.574280 5.819112
v 0.111709 -0.583165 5.818521
v 0.102112 -0.568325 5.837824
v 0.102462 -0.579408 5.803212
v 0.104057 -0.587447 5.802708
v 0.106826 -0.597122 5.812646
v 0.101900 -0.593139 5.878327
v 0.103371 -0.597035 5.879877
v 0.111010 -0.597499 5.809447
v 0.110012 -0.605930 5.812652
v 0.103488 -0.603358 5.878160
v 0.107667 -0.596204 5.880502
v 0.106038 -0.606272 5.819205
v 0.107717 -0.611315 5.838852
v 0.107164 -0.607235 5.876980
v 0.105083 -0.612387 5.816692
v 0.109530 -0.616873 5.848961
v 0.099949 -0.611364 5.825656
v 0.092202 -0.621645 5.840270
v 0.098218 -0.568824 5.809626
v 0.101754 -0.568101 5.828119
v 0.095816 -0.570199 5.817862
v 0.092333 -0.574933 5.809745
v 0.092659 -0.586035 5.797793
v 0.101248 -0.583000 5.807198
v 0.100891 -0.601322 5.804358
v 0.099506 -0.595277 5.807136
v 0.103862 -0.592289 5.879172
v 0.086026 -0.567976 5.866549
v 0.083460 -0.568243 5.866544
v 0.101948 -0.592223 5.878891
v 0.103862 -0.592289 5.879172
v 0.103117 -0.601378 5.879735
v 0.103371 -0.597035 5.879877
v 0.101948 -0.592223 5.878891
v 0.102627 -0.596133 5.879761
v 0.103117 -0.601378 5.879735
v 0.103003 -0.602946 5.878093
v 0.103055 -0.602655 5.879689
v 0.107527 -0.596104 5.881449
v 0.103051 -0.602657 5.879689
v 0.103371 -0.597035 5.879877
v 0.099267 -0.607485 5.876685
v 0.105272 -0.604603 5.880689
v 0.097860 -0.611667 5.875161
v 0.103055 -0.602655 5.879689
v 0.097157 -0.609746 5.875732
v 0.095524 -0.610645 5.874405
v 0.098902 -0.617603 5.824420
v 0.092464 -0.605180 5.812647
v 0.091007 -0.615544 5.843349
v 0.101558 -0.612504 5.857703
v 0.101702 -0.614905 5.869219
v 0.093859 -0.619372 5.863643
v 0.096961 -0.561127 5.824343
v 0.089131 -0.558857 5.833797
v 0.084762 -0.565857 5.812111
v 0.089028 -0.565077 5.829124
v 0.087868 -0.563914 5.844088
v 0.077689 -0.558597 5.859334
v 0.086086 -0.574835 5.801489
v 0.080745 -0.582258 5.797236
v 0.086913 -0.580236 5.804710
v 0.088767 -0.594317 5.797387
v 0.089752 -0.586801 5.802583
v 0.083460 -0.568243 5.866544
v 0.087190 -0.596381 5.804392
v 0.087428 -0.604756 5.803175
v 0.097099 -0.609521 5.875760
v 0.080097 -0.611988 5.811584
v 0.085583 -0.614518 5.868375
v 0.092278 -0.612203 5.871896
v 0.080803 -0.621938 5.854207
v 0.078916 -0.572249 5.813787
v 0.076084 -0.563343 5.861317
v 0.084309 -0.569971 5.865746
v 0.078380 -0.559453 5.861485
v 0.077269 -0.591561 5.796443
v 0.072355 -0.597932 5.806703
v 0.075392 -0.604841 5.813490
v 0.071173 -0.610626 5.824961
v 0.074508 -0.615153 5.840616
v 0.085583 -0.614518 5.868375
v 0.072369 -0.619398 5.859253
v 0.066619 -0.615847 5.824254
v 0.074741 -0.620494 5.836777
v 0.084316 -0.618901 5.865509
v 0.074720 -0.559275 5.858848
v 0.066313 -0.572776 5.809270
v 0.063922 -0.577132 5.815841
v 0.075273 -0.563004 5.861286
v 0.069976 -0.565625 5.857025
v 0.079497 -0.564707 5.862946
v 0.075906 -0.591924 5.802886
v 0.070153 -0.583200 5.804772
v 0.079264 -0.561242 5.862897
v 0.058590 -0.570674 5.851063
v 0.075513 -0.562920 5.861532
v 0.035921 -0.581658 5.835864
v 0.078973 -0.564145 5.863728
v 0.078973 -0.564145 5.863728
v 0.075226 -0.563112 5.861331
v 0.069160 -0.576588 5.802388
v 0.065619 -0.588246 5.798347
v 0.063183 -0.589264 5.806382
v 0.068624 -0.600189 5.801391
v 0.058983 -0.605607 5.811860
v 0.060190 -0.613281 5.851450
v 0.072607 -0.616099 5.860316
v 0.072476 -0.616363 5.860112
v 0.037409 -0.585646 5.834996
v 0.054981 -0.583798 5.804436
v 0.055847 -0.594807 5.804519
v 0.057750 -0.605830 5.824910
v 0.050112 -0.593816 5.817127
v 0.072167 -0.616428 5.859697
v 0.055523 -0.612246 5.848611
v 0.054241 -0.614825 5.848286
v 0.057159 -0.617337 5.842212
v 0.056440 -0.571881 5.849690
v 0.049253 -0.584512 5.818161
v 0.045564 -0.582947 5.813751
v 0.046470 -0.589334 5.818868
v 0.047490 -0.611189 5.834474
v 0.034942 -0.586117 5.836536
v 0.043118 -0.580590 5.841240
v 0.045812 -0.589567 5.811718
v 0.043437 -0.597885 5.819047
v 0.045947 -0.607632 5.843193
v 0.040758 -0.602733 5.840114
v 0.047076 -0.611662 5.842709
v 0.049323 -0.609771 5.845233
v 0.032821 -0.584561 5.833323
v 0.036046 -0.593885 5.836874
v 0.038436 -0.603115 5.836521
v 0.040287 -0.602664 5.839503
v 0.044784 -0.606678 5.842461
v 0.034702 -0.585339 5.836007
v 0.035357 -0.589092 5.835371
v 0.034728 -0.585322 5.836090
v 0.037409 -0.585646 5.834996
v 0.035357 -0.589092 5.835371
v 0.034369 -0.589993 5.835747
v 0.032902 -0.591904 5.833375
v 0.034287 -0.590115 5.835816
v 0.035357 -0.589092 5.835371
v 0.036463 -0.596889 5.829856
v 0.036046 -0.593885 5.836874
vn 0.9796 0.0283 -0.1992
vn 0.8647 0.4820 -0.1413
vn 0.8973 0.3769 0.2300
vn 0.9582 -0.1905 0.2135
vn 0.9059 -0.3731 -0.2002
vn 0.7789 -0.6268 -0.0194
vn 0.6603 0.7171 0.2229
vn 0.8068 0.3218 -0.4956
vn -0.9103 -0.4064 0.0792
vn -0.9061 -0.3329 -0.2612
vn -0.7096 -0.6894 -0.1455
vn 0.8514 0.2455 0.4635
vn 0.7268 0.3081 0.6139
vn -0.9430 -0.0272 0.3316
vn -0.9851 0.1560 0.0724
vn 0.7613 0.0672 -0.6449
vn 0.7952 -0.3919 -0.4626
vn -0.8359 0.2673 0.4794
vn -0.8212 0.5597 -0.1108
vn -0.9324 -0.0193 -0.3608
vn 0.8382 -0.4186 0.3495
vn 0.5610 -0.2234 0.7971
vn -0.7152 0.6361 0.2897
vn 0.6632 -0.7118 0.2313
vn 0.4934 -0.8351 -0.2432
vn 0.6095 0.7240 -0.3232
vn 0.5109 0.8591 0.0297
vn 0.5881 0.5588 -0.5847
vn -0.6143 -0.6633 0.4273
vn -0.8239 -0.2508 0.5081
vn 0.4483 0.3611 -0.8177
vn -0.6397 0.2961 0.7093
vn -0.6892 -0.5678 -0.4502
vn -0.7605 -0.4667 -0.4515
vn 0.6580 -0.2156 -0.7215
vn 0.5148 -0.0024 -0.8573
vn 0.5352 -0.5521 -0.6393
vn -0.7282 0.5321 -0.4319
vn -0.4516 0.7209 0.5257
vn -0.4797 0.8745 0.0714
vn -0.4363 0.8829 -0.1735
vn 0.5122 -0.6746 0.5316
vn 0.2979 -0.7882 -0.5385
vn 0.4483 -0.8883 0.0995
vn -0.2023 0.9282 0.3122
vn 0.2625 0.7472 -0.6106
vn 0.2066 0.9496 -0.2356
vn -0.2078 -0.8577 0.4703
vn -0.1798 -0.7167 0.6738
vn -0.4351 -0.8832 0.1749
vn -0.4752 -0.8658 -0.1565
vn 0.2394 0.1413 -0.9606
vn -0.5152 -0.2921 0.8058
vn -0.3983 0.3409 0.8516
vn 0.2672 0.6597 0.7025
vn 0.4548 0.6479 0.6110
vn -0.1804 0.3554 0.9171
vn -0.2038 0.2609 0.9436
vn -0.0736 0.4661 0.8816
vn 0.3741 -0.4452 -0.8135
vn -0.8855 0.1889 -0.4246
vn -0.8931 0.0656 -0.4451
vn -0.9986 0.0477 0.0231
vn 0.3290 -0.5296 0.7819
vn -0.3474 0.0884 0.9336
vn -0.4477 -0.0393 0.8933
vn -0.4632 -0.0202 0.8860
vn -0.3700 0.0113 0.9290
vn -0.6280 0.7404 -0.2397
vn -0.1058 -0.5866 0.8029
vn -0.5269 0.7067 -0.4721
vn -0.4143 -0.0474 0.9089
vn -0.5366 -0.3194 0.7811
vn 0.1201 -0.9382 -0.3245
vn -0.0980 0.7736 0.6260
vn -0.1038 0.9921 0.0704
vn 0.3447 -0.8348 0.4293
vn 0.1102 -0.9916 -0.0684
vn 0.1540 -0.9342 0.3218
vn -0.0103 0.9963 -0.0850
vn -0.0987 0.8807 -0.4633
vn 0.0149 -0.9756 0.2191
vn -0.1978 -0.9776 -0.0718
vn 0.0158 0.9520 0.3057
vn 0.0522 0.6044 -0.7949
vn -0.0154 0.3056 -0.9520
vn -0.0298 -0.5378 0.8426
vn 0.1618 -0.2764 -0.9473
vn -0.1683 -0.0822 0.9823
vn -0.7528 -0.1655 0.6371
vn -0.3601 0.1205 0.9251
vn -0.4785 0.1455 0.8660
vn 0.0590 -0.6455 -0.7614
vn -0.0935 0.4639 0.8809
vn -0.4939 0.8264 -0.2705
vn -0.0842 -0.8422 -0.5325
vn -0.3242 0.9319 -0.1625
vn -0.2001 0.9790 -0.0397
vn -0.0559 -0.9914 0.1179
vn 0.1889 -0.8536 0.4855
vn -0.4292 -0.8609 -0.2733
vn -0.5299 -0.7588 -0.3788
vn 0.4550 0.8115 0.3668
vn -0.0796 -0.1775 -0.9809
vn 0.2409 0.6079 0.7566
vn 0.1719 0.7947 0.5822
vn 0.1847 0.9104 0.3701
vn 0.1137 0.9800 0.1635
vn -0.3364 -0.5173 0.7869
vn -0.4269 -0.7265 0.5384
vn -0.2037 -0.7415 0.6393
vn -0.2360 -0.9023 -0.3607
vn -0.1203 -0.9801 -0.1578
vn -0.3903 0.8268 -0.4052
vn -0.4872 0.7705 0.4111
vn 0.3879 -0.8278 0.4054
vn -0.0442 -0.9990 -0.0076
vn 0.2602 -0.9535 0.1524
vn -0.5969 -0.7811 0.1831
vn 0.1278 0.1905 0.9733
vn 0.2708 -0.4247 0.8639
vn -0.0193 0.5626 0.8265
vn -0.4383 -0.0547 0.8972
vn -0.7332 0.6098 0.3009
vn -0.3450 0.9275 0.1441
vn -0.4962 -0.8541 0.1560
vn -0.4308 0.2263 0.8736
vn -0.2919 -0.8722 0.3925
vn -0.2763 0.6175 -0.7365
vn -0.3331 0.0425 -0.9419
vn 0.4684 0.0659 0.8811
vn -0.2446 -0.5452 -0.8019
vn -0.4197 -0.7212 -0.5511
vn 0.0474 0.9988 -0.0070
vn 0.2439 0.9512 0.1888
vn -0.5245 -0.1645 0.8354
vn 0.5770 -0.7505 0.3223
vn -0.5510 0.3330 -0.7652
vn -0.5263 -0.3483 -0.7757
vn 0.4009 0.7967 0.4522
vn 0.5870 0.4429 0.6776
vn -0.5090 0.1628 0.8452
vn -0.5245 0.1636 0.8356
vn -0.5852 -0.4952 0.6422
vn -0.3622 -0.9316 -0.0297
vn -0.6177 0.2221 0.7544
vn 0.5835 -0.5781 0.5703
vn 0.7714 0.0410 0.6350
vn -0.5497 -0.7969 -0.2508
vn 0.2323 -0.9183 0.3206
vn -0.6165 0.1947 0.7629
vn -0.6919 0.5286 -0.4917
vn -0.7444 -0.0979 -0.6605
vn -0.7183 -0.4728 -0.5104
vn 0.4007 0.8553 0.3286
vn 0.6231 0.6684 0.4062
vn -0.6666 -0.6391 0.3836
vn -0.6393 -0.1832 0.7468
vn -0.9478 0.3188 0.0105
vn 0.7084 0.4378 0.5537
vn -0.8268 -0.5523 0.1066
vn -0.7482 -0.2974 0.5931
vn -0.6290 -0.1702 0.7585
vn -0.7270 0.1551 0.6689
vn 0.7596 -0.3932 0.5182
vn 0.3865 -0.1219 0.9142
vn 0.3095 0.0306 0.9504
vn 0.3677 -0.1148 0.9228
vn 0.2586 0.1162 0.9590
vn -0.9757 -0.2184 0.0161
vn -0.8189 -0.0704 0.5697
vn 0.7975 0.2819 0.5335
vn -0.8113 -0.4363 -0.3891
vn 0.0797 0.3084 0.9479
s 1
f 1//1 6//2 2//3
f 1//1 3//4 4//5
f 1//1 2//3 3//4
f 4//5 3//4 5//6
f 6//2 8//7 2//3
f 10//8 6//2 1//1
f 11//9 15//10 13//11
f 8//7 16//12 2//3
f 16//12 8//7 39//13
f 11//9 14//14 12//15
f 12//15 15//10 11//9
f 2//3 16//12 3//4
f 1//1 27//16 10//8
f 1//1 4//5 18//17
f 1//1 18//17 27//16
f 19//18 12//15 14//14
f 12//15 20//19 17//20
f 21//21 3//4 16//12
f 15//10 12//15 17//20
f 16//12 22//22 21//21
f 23//23 20//19 12//15
f 3//4 21//21 5//6
f 21//21 24//24 5//6
f 18//17 4//5 25//25
f 25//25 4//5 5//6
f 6//2 7//26 9//27
f 8//7 6//2 9//27
f 10//8 7//26 6//2
f 7//26 10//8 26//28
f 26//28 10//8 27//16
f 28//29 11//9 13//11
f 11//9 28//29 29//30
f 26//28 27//16 31//31
f 29//30 14//14 11//9
f 29//30 19//18 14//14
f 33//32 19//18 29//30
f 15//10 17//20 34//33
f 34//33 13//11 15//10
f 35//34 34//33 17//20
f 27//16 36//35 32//36
f 36//35 18//17 37//37
f 27//16 18//17 36//35
f 12//15 19//18 23//23
f 17//20 20//19 38//38
f 16//12 39//13 22//22
f 19//18 40//39 23//23
f 40//39 41//40 23//23
f 41//40 20//19 23//23
f 20//19 79//41 38//38
f 42//42 21//21 22//22
f 37//37 18//17 25//25
f 25//25 43//43 37//37
f 25//25 5//6 44//44
f 45//45 41//40 40//39
f 5//6 24//24 44//44
f 42//42 24//24 21//21
f 47//46 7//26 26//28
f 47//46 82//47 7//26
f 7//26 82//47 9//27
f 49//48 50//49 28//29
f 28//29 13//11 48//50
f 48//50 49//48 28//29
f 13//11 30//51 48//50
f 31//31 32//36 51//52
f 31//31 27//16 32//36
f 28//29 52//53 29//30
f 33//32 52//53 54//54
f 52//53 33//32 29//30
f 56//55 55//56 39//13
f 57//57 58//58 59//59
f 57//57 59//59 56//55
f 36//35 53//60 32//36
f 37//37 53//60 36//35
f 17//20 38//38 60//61
f 61//62 17//20 60//61
f 64//63 65//63 66//63
f 71//64 22//22 39//13
f 67//65 68//66 71//67
f 58//58 67//65 59//59
f 58//58 69//68 67//65
f 69//68 68//66 67//65
f 33//32 40//39 19//18
f 33//32 54//54 40//39
f 38//38 79//41 70//69
f 42//42 22//22 71//64
f 42//42 71//64 72//70
f 38//38 70//69 73//71
f 68//66 74//72 71//67
f 75//73 72//70 71//64
f 43//43 53//60 37//37
f 43//43 25//25 76//74
f 45//45 40//39 77//75
f 78//76 41//40 45//45
f 79//41 20//19 41//40
f 24//24 80//77 44//44
f 24//24 42//42 80//77
f 80//77 42//42 72//70
f 46//78 25//25 44//44
f 46//78 44//44 81//79
f 82//47 83//80 9//27
f 84//81 82//47 47//46
f 48//50 85//82 49//48
f 48//50 30//51 86//83
f 86//83 85//82 48//50
f 87//84 8//7 9//27
f 31//31 47//46 26//28
f 47//46 31//31 88//85
f 89//86 31//31 51//52
f 50//49 52//53 28//29
f 50//49 90//87 52//53
f 32//36 91//88 51//52
f 53//60 91//88 32//36
f 92//89 54//54 52//53
f 93//90 63//91 62//92
f 53//60 95//93 91//88
f 95//93 53//60 43//43
f 94//94 77//75 54//54
f 54//54 77//75 40//39
f 96//95 70//69 79//41
f 97//96 43//43 76//74
f 78//76 79//41 41//40
f 81//79 80//77 72//70
f 79//41 99//97 96//95
f 98//98 99//97 79//41
f 76//74 25//25 46//78
f 46//78 81//79 100//99
f 81//79 44//44 80//77
f 84//81 83//80 82//47
f 87//84 9//27 83//80
f 101//100 50//49 49//48
f 85//82 101//100 49//48
f 86//83 30//51 102//101
f 102//101 30//51 13//11
f 8//7 56//55 39//13
f 102//101 13//11 103//102
f 104//103 56//55 8//7
f 84//81 47//46 88//85
f 89//86 88//85 31//31
f 51//52 91//88 105//104
f 90//87 92//89 52//53
f 92//89 94//94 54//54
f 106//105 77//75 94//94
f 107//106 108//107 77//75
f 77//75 108//107 45//45
f 45//45 109//108 78//76
f 108//107 109//108 45//45
f 79//41 78//76 98//98
f 110//109 111//110 72//70
f 111//110 114//111 72//70
f 75//73 110//109 72//70
f 76//74 112//112 97//96
f 113//113 112//112 76//74
f 76//74 46//78 113//113
f 81//79 114//111 100//99
f 72//70 114//111 81//79
f 83//80 116//114 115//115
f 104//103 8//7 87//84
f 84//81 116//114 83//80
f 85//82 117//116 101//100
f 86//83 118//117 85//82
f 117//116 85//82 119//118
f 102//101 118//117 86//83
f 93//90 120//119 63//91
f 103//102 13//11 34//33
f 105//104 89//86 51//52
f 92//89 121//120 94//94
f 122//121 121//120 92//89
f 122//121 92//89 90//87
f 77//75 106//105 107//106
f 95//93 43//43 97//96
f 111//110 100//99 114//111
f 115//115 87//84 83//80
f 56//55 104//103 123//122
f 56//55 123//122 57//57
f 87//84 115//115 123//122
f 115//115 124//123 123//122
f 126//124 124//123 115//115
f 123//122 124//123 125//125
f 120//119 93//90 127//126
f 57//57 123//122 128//127
f 128//127 123//122 125//125
f 127//126 129//128 120//119
f 85//82 118//117 119//118
f 130//129 84//81 88//85
f 50//49 101//100 90//87
f 84//81 130//129 116//114
f 89//86 130//129 88//85
f 89//86 131//130 130//129
f 90//87 101//100 122//121
f 131//130 89//86 105//104
f 132//131 121//120 122//121
f 94//94 121//120 106//105
f 133//132 91//88 95//93
f 95//93 97//96 133//132
f 105//104 91//88 133//132
f 134//133 133//132 97//96
f 113//113 46//78 100//99
f 78//76 136//134 98//98
f 109//108 136//134 78//76
f 135//135 136//134 109//108
f 137//136 111//110 110//109
f 119//118 125//125 124//123
f 138//137 117//116 119//118
f 131//130 139//138 130//129
f 101//100 117//116 122//121
f 133//132 131//130 105//104
f 131//130 133//132 140//139
f 132//131 106//105 121//120
f 141//140 107//106 106//105
f 106//105 132//131 142//141
f 133//132 134//133 140//139
f 141//140 108//107 107//106
f 112//112 134//133 97//96
f 108//107 135//135 109//108
f 143//142 144//143 145//144
f 112//112 113//113 146//145
f 113//113 100//99 146//145
f 111//110 146//145 100//99
f 137//136 145//144 111//110
f 126//124 115//115 116//114
f 126//124 147//146 124//123
f 130//129 139//138 116//114
f 117//116 148//147 122//121
f 148//147 132//131 122//121
f 148//147 150//148 132//131
f 131//130 140//139 139//138
f 141//140 106//105 142//141
f 142//141 132//131 150//148
f 151//149 134//133 112//112
f 135//135 108//107 141//140
f 151//149 112//112 146//145
f 146//145 111//110 145//144
f 124//123 152//150 119//118
f 126//124 153//151 147//146
f 116//114 139//138 149//152
f 116//114 149//152 126//124
f 154//153 149//152 139//138
f 139//138 140//139 154//153
f 140//139 134//133 155//154
f 151//149 155//154 134//133
f 135//135 141//140 156//155
f 156//155 141//140 157//156
f 158//157 151//149 146//145
f 144//143 159//158 145//144
f 145//144 159//158 158//157
f 158//157 146//145 145//144
f 138//137 148//147 117//116
f 149//152 160//159 126//124
f 152//150 138//137 119//118
f 148//147 138//137 150//148
f 154//153 140//139 155//154
f 150//148 161//160 142//141
f 142//141 157//156 141//140
f 161//160 157//156 142//141
f 162//161 155//154 151//149
f 158//157 162//161 151//149
f 162//161 158//157 163//162
f 164//163 158//157 159//158
f 164//163 163//162 158//157
f 153//151 126//124 165//164
f 149//152 154//153 160//159
f 166//165 150//148 138//137
f 165//164 126//124 160//159
f 167//166 169//167 168//168
f 169//167 167//166 170//169
f 160//159 171//170 172//171
f 160//159 172//171 165//164
f 154//153 171//170 160//159
f 155//154 171//170 154//153
f 150//148 173//172 161//160
f 171//170 174//173 162//161
f 155//154 174//173 171//170
f 170//169 175//174 169//167
f 155//154 162//161 174//173
f 163//162 171//170 162//161
f 171//170 163//162 172//171
