# Blender v2.78 (sub 0) OBJ File: 'exporter.blend'
# www.blender.org
o FJ2449.obj_grp1.1152
v -0.519684 -0.603753 5.590458
v -0.515066 -0.607674 5.587181
v -0.518920 -0.605955 5.587589
v -0.518920 -0.605955 5.587589
v -0.515113 -0.607715 5.587261
v -0.519169 -0.608138 5.587449
v -0.515113 -0.607715 5.587261
v -0.518474 -0.608781 5.585712
v -0.519169 -0.608138 5.587449
v -0.518423 -0.608704 5.585468
v -0.518699 -0.617848 5.585817
v -0.518474 -0.608781 5.585712
v -0.518657 -0.614489 5.585151
v -0.519169 -0.608138 5.587449
v -0.521539 -0.603442 5.592628
v -0.520074 -0.603460 5.590177
v -0.518920 -0.605955 5.587589
v -0.525795 -0.615495 5.601152
v -0.523620 -0.604264 5.597203
v -0.523549 -0.604420 5.597167
v -0.522656 -0.609579 5.602814
v -0.471815 -0.606733 5.606219
v -0.483411 -0.604826 5.603693
v -0.467871 -0.613088 5.606346
v -0.518873 -0.617907 5.586416
v -0.518812 -0.619475 5.588012
v -0.495357 -0.604047 5.611504
v -0.520643 -0.620607 5.590125
v -0.520643 -0.620607 5.590125
v -0.520652 -0.620717 5.590089
v -0.518620 -0.619876 5.587536
v -0.521953 -0.621560 5.594256
v -0.521953 -0.621560 5.594256
v -0.523812 -0.619926 5.598246
v -0.489921 -0.622626 5.603977
v -0.523793 -0.620102 5.598193
v -0.525548 -0.611609 5.601140
v -0.525398 -0.612444 5.601156
v -0.525425 -0.616762 5.600855
v -0.490304 -0.617236 5.618551
v -0.470199 -0.606610 5.628008
v -0.482606 -0.623091 5.613850
v -0.475229 -0.601381 5.617776
v -0.446638 -0.616306 5.618759
v -0.462934 -0.620476 5.613894
v -0.438300 -0.604223 5.619107
v -0.452794 -0.599203 5.618932
v -0.452350 -0.597027 5.625043
v -0.463819 -0.621981 5.619434
v -0.451965 -0.598465 5.633407
v -0.437434 -0.597687 5.622031
v -0.459446 -0.619807 5.627754
v -0.456502 -0.614016 5.634595
v -0.421528 -0.583867 5.639480
v -0.446359 -0.618840 5.626717
v -0.427683 -0.611741 5.641405
v -0.437672 -0.610792 5.642079
v -0.434830 -0.598151 5.646667
v -0.420842 -0.605817 5.628703
v -0.420083 -0.610241 5.636960
v -0.398939 -0.572014 5.657312
v -0.411011 -0.581925 5.656155
v -0.366857 -0.575803 5.679671
v -0.337446 -0.551254 5.666170
v -0.358471 -0.570021 5.654723
v -0.376716 -0.584544 5.647582
v -0.383893 -0.592279 5.648758
v -0.367072 -0.563629 5.681928
v -0.331596 -0.563438 5.694791
v -0.346764 -0.543081 5.676225
v -0.331093 -0.568106 5.684100
v -0.333484 -0.539250 5.676480
v -0.310705 -0.551075 5.680316
v -0.328425 -0.551765 5.704016
v -0.309357 -0.531507 5.684918
v -0.297222 -0.539219 5.686675
v -0.284913 -0.545104 5.700058
v -0.314243 -0.535077 5.713403
v -0.262758 -0.499580 5.726460
v -0.282328 -0.511110 5.729181
v -0.287119 -0.529602 5.693485
v -0.265909 -0.508609 5.713812
v -0.269630 -0.502002 5.729182
v -0.275066 -0.523433 5.741142
v -0.234332 -0.509364 5.767152
v -0.241681 -0.501081 5.726694
v -0.279431 -0.544494 5.718506
v -0.278838 -0.513155 5.736587
v -0.260339 -0.519962 5.710612
v -0.261683 -0.528762 5.710699
v -0.262574 -0.536938 5.721682
v -0.260562 -0.497364 5.748389
v -0.256028 -0.528998 5.743056
v -0.259980 -0.506210 5.754080
v -0.228564 -0.482010 5.744081
v -0.231577 -0.507378 5.732722
v -0.251949 -0.529199 5.723522
v -0.232795 -0.477389 5.749958
v -0.244961 -0.482449 5.754357
v -0.220463 -0.491889 5.742423
v -0.225040 -0.509148 5.741723
v -0.233454 -0.518743 5.741685
v -0.245463 -0.526262 5.742183
v -0.221973 -0.504703 5.771379
v -0.233910 -0.475769 5.777133
v -0.239857 -0.496963 5.772437
v -0.213900 -0.480864 5.795529
v -0.191957 -0.453427 5.774603
v -0.216495 -0.455035 5.778291
v -0.198058 -0.434522 5.794028
v -0.223070 -0.460965 5.779209
v -0.195464 -0.440314 5.825419
v -0.190973 -0.465543 5.771229
v -0.202098 -0.485243 5.760468
v -0.194066 -0.443783 5.781196
v -0.216113 -0.505635 5.761680
v -0.189626 -0.477852 5.777336
v -0.195362 -0.424444 5.816468
v -0.200591 -0.438521 5.816884
v -0.198369 -0.488147 5.782386
v -0.197815 -0.479950 5.797904
v -0.162792 -0.430162 5.803846
v -0.169394 -0.449534 5.796532
v -0.140912 -0.362127 5.853108
v -0.173227 -0.446796 5.831439
v -0.150403 -0.384674 5.885079
v -0.144895 -0.389051 5.884712
v -0.175906 -0.463534 5.797650
v -0.180258 -0.466930 5.805329
v -0.154696 -0.362385 5.862409
v -0.159378 -0.370722 5.875229
v -0.158500 -0.365839 5.867154
v -0.152905 -0.433380 5.826701
v -0.134612 -0.364867 5.852177
v -0.155929 -0.434552 5.835905
v -0.147416 -0.361201 5.857032
v -0.123791 -0.374520 5.855528
v -0.146058 -0.420368 5.828172
v -0.143698 -0.361958 5.854855
v -0.149975 -0.361821 5.859127
v -0.139421 -0.362525 5.852757
v -0.155182 -0.362459 5.862940
v -0.158500 -0.365839 5.867154
v -0.159378 -0.370722 5.875229
v -0.155458 -0.379616 5.882739
v -0.158868 -0.374618 5.878139
v -0.130267 -0.367856 5.852025
v -0.130281 -0.367861 5.852038
v -0.121887 -0.379252 5.858376
v -0.121620 -0.381729 5.861834
v -0.129384 -0.391534 5.878401
v -0.140004 -0.390426 5.883930
v -0.158868 -0.374618 5.878139
v -0.155514 -0.379674 5.882600
v -0.150336 -0.384686 5.885041
v -0.123762 -0.374926 5.855887
v -0.121887 -0.379252 5.858376
v -0.121435 -0.385252 5.864950
v -0.141238 -0.389820 5.884178
v -0.150336 -0.384686 5.885041
v -0.144895 -0.389051 5.884712
v -0.141219 -0.389875 5.884409
v -0.121580 -0.381766 5.861943
v -0.121638 -0.385237 5.865042
v -0.125513 -0.390081 5.874025
v -0.124614 -0.389828 5.872881
v -0.125692 -0.389798 5.873868
v -0.127547 -0.393380 5.871614
v -0.126535 -0.391159 5.874971
v -0.129291 -0.391491 5.878233
v -0.126657 -0.391287 5.874806
v -0.125692 -0.389798 5.873868
vn 0.1895 0.9279 -0.3210
vn 0.3685 0.4896 -0.7903
vn 0.3022 0.7712 -0.5602
vn -0.0440 0.0782 -0.9960
vn -0.1094 0.9160 -0.3860
vn -0.9162 0.0682 -0.3949
vn -0.9206 0.0300 -0.3893
vn -0.9079 0.0747 -0.4124
vn -0.8058 0.2496 -0.5371
vn -0.8703 0.0965 -0.4829
vn -0.9160 0.0355 -0.3996
vn -0.9006 0.0259 -0.4340
vn 0.1672 0.8582 -0.4853
vn 0.3959 0.0026 -0.9183
vn 0.4487 -0.1436 -0.8821
vn 0.3888 -0.3231 -0.8628
vn 0.3137 0.4813 -0.8185
vn -0.9837 0.0674 0.1669
vn -0.7022 -0.3712 -0.6075
vn -0.8651 -0.2371 -0.4421
vn -0.2734 0.8667 0.4171
vn -0.2919 0.8501 0.4383
vn -0.5596 0.3188 0.7649
vn -0.5825 -0.3896 -0.7133
vn -0.9191 -0.1313 -0.3715
vn -0.9217 -0.2014 -0.3315
vn -0.9150 -0.1832 -0.3593
vn 0.0485 -0.9719 -0.2302
vn 0.2606 -0.8062 -0.5312
vn 0.1573 -0.9260 -0.3433
vn -0.0613 -0.9980 0.0145
vn -0.9174 0.0415 -0.3959
vn -0.5975 0.0926 0.7965
vn -0.4005 -0.3958 0.8264
vn 0.0046 0.9996 0.0295
vn -0.0688 -0.9657 0.2505
vn -0.2535 -0.8388 0.4818
vn -0.3879 -0.4144 0.8233
vn -0.2254 0.9494 0.2189
vn 0.4223 -0.6723 -0.6081
vn 0.3087 -0.7884 -0.5322
vn -0.4762 0.4126 0.7765
vn 0.3836 0.0747 -0.9205
vn -0.0436 0.8883 -0.4573
vn -0.2186 0.9708 -0.0993
vn 0.1233 -0.9923 0.0114
vn -0.4269 0.7851 0.4487
vn 0.1292 0.6038 -0.7866
vn -0.0678 -0.8705 0.4875
vn -0.2922 -0.4668 0.8347
vn -0.3134 0.9183 -0.2417
vn 0.2619 -0.9650 0.0152
vn 0.1374 -0.8903 0.4341
vn -0.1443 -0.6089 0.7800
vn -0.5011 0.1818 0.8461
vn 0.5094 -0.4975 -0.7021
vn 0.4292 -0.8962 -0.1124
vn -0.5343 0.7795 0.3270
vn -0.5615 0.5539 0.6147
vn -0.2432 -0.4213 0.8737
vn 0.2810 0.3607 -0.8893
vn 0.4591 -0.0391 -0.8875
vn 0.5528 -0.3843 -0.7395
vn 0.5382 -0.7728 -0.3364
vn -0.5284 0.1583 0.8341
vn 0.3574 -0.9203 0.1593
vn 0.0149 -0.7802 0.6253
vn -0.3922 0.8948 -0.2135
vn -0.1040 0.8084 -0.5793
vn 0.5762 -0.3494 -0.7388
vn 0.1178 0.6501 -0.7507
vn 0.5161 -0.0216 -0.8562
vn -0.6036 0.2219 0.7658
vn -0.3861 -0.2938 0.8744
vn -0.2700 0.8831 -0.3837
vn 0.4119 0.2908 -0.8636
vn 0.5916 -0.6795 -0.4340
vn -0.6267 0.6901 0.3619
vn -0.5003 0.8643 -0.0514
vn -0.0799 -0.6950 0.7146
vn 0.4083 0.3783 -0.8308
vn 0.2810 -0.9283 0.2434
vn -0.6960 0.3131 0.6461
vn -0.5250 -0.0995 0.8453
vn 0.0922 0.6723 -0.7345
vn 0.5501 0.0853 -0.8307
vn 0.6557 -0.3426 -0.6729
vn 0.5112 -0.8548 -0.0892
vn -0.7416 0.5624 0.3656
vn 0.0981 -0.8448 0.5261
vn 0.0869 0.6828 -0.7255
vn 0.6863 -0.1588 -0.7098
vn -0.2922 0.8142 -0.5016
vn 0.6657 -0.6498 -0.3670
vn -0.6240 0.7807 -0.0338
vn -0.7037 0.1684 0.6902
vn 0.6110 0.1352 -0.7800
vn 0.7736 -0.4701 -0.4249
vn 0.6521 -0.7454 -0.1383
vn 0.4033 -0.8850 0.2327
vn 0.2530 -0.8246 0.5060
vn -0.8316 0.3855 0.3999
vn -0.6780 -0.0110 0.7350
vn -0.2860 -0.5196 0.8052
vn 0.4112 0.4568 -0.7888
vn 0.6290 -0.7752 0.0575
vn -0.6590 0.7300 -0.1811
vn -0.4505 0.7718 -0.4488
vn -0.7971 0.6025 0.0419
vn -0.7527 -0.0753 0.6541
vn 0.6924 0.0792 -0.7172
vn 0.7893 -0.2311 -0.5688
vn -0.0445 0.6987 -0.7141
vn 0.8327 -0.4776 -0.2802
vn -0.8618 0.2475 0.4427
vn 0.6018 -0.7767 0.1861
vn -0.8447 0.5349 0.0165
vn 0.2007 -0.7895 0.5800
vn 0.8567 -0.2250 -0.4641
vn 0.7092 0.1266 -0.6935
vn -0.0824 0.6640 -0.7432
vn 0.1661 -0.7298 0.6632
vn 0.5762 -0.7558 0.3111
vn -0.5478 -0.3573 0.7564
vn -0.2196 -0.5954 0.7728
vn 0.8163 -0.5721 -0.0797
vn -0.6216 0.6928 -0.3655
vn -0.9054 0.2742 0.3241
vn -0.8319 0.5536 -0.0388
vn 0.8267 -0.5618 -0.0307
vn 0.2318 0.5467 -0.8046
vn 0.6013 -0.7233 0.3396
vn -0.3612 0.7323 -0.5773
vn 0.8912 -0.2895 -0.3491
vn 0.3362 0.8102 0.4802
vn 0.4383 0.5430 0.7162
vn 0.4027 0.6845 0.6077
vn 0.3468 0.7160 0.6059
vn -0.2262 0.8293 0.5109
vn 0.2243 0.7495 0.6228
vn 0.3877 0.6986 0.6014
vn -0.2441 0.5570 0.7938
vn 0.4917 0.3589 -0.7933
vn 0.8669 -0.1447 -0.4770
vn 0.4733 0.6616 0.5817
vn 0.3922 -0.7654 0.5102
vn 0.1224 -0.7189 0.6843
vn -0.8604 0.0791 0.5035
vn -0.7446 -0.1350 0.6537
vn 0.7293 0.1017 -0.6766
vn 0.5074 0.6603 0.5537
vn 0.4598 0.7086 0.5352
vn 0.7845 0.5365 0.3110
vn 0.8755 -0.4574 -0.1563
vn 0.3927 0.6844 0.6143
vn 0.4143 0.6667 0.6195
vn 0.0954 0.0441 0.9945
vn 0.0776 0.0398 0.9962
vn 0.0932 0.0177 0.9955
vn 0.9862 -0.0828 -0.1432
vn 0.8377 -0.5453 -0.0299
vn 0.5642 0.5862 0.5814
vn 0.6701 0.5118 0.5376
vn 0.4335 0.5955 0.6764
vn 0.8878 -0.4519 -0.0874
vn 0.3926 0.5810 0.7129
vn 0.4281 0.7528 0.5001
vn 0.6791 -0.6756 0.2872
vn 0.8604 -0.5019 0.0887
s 1
f 1//1 2//2 3//3
f 4//4 5//4 6//4
f 7//5 8//5 9//5
f 12//6 13//7 14//8
f 17//9 14//8 16//10
f 14//8 18//11 16//10
f 16//10 18//11 20//12
f 1//1 23//13 2//2
f 10//14 2//2 24//15
f 11//16 10//14 24//15
f 22//17 24//15 2//2
f 25//18 26//19 13//20
f 27//21 19//22 21//23
f 13//7 18//11 14//8
f 26//19 28//24 13//20
f 29//25 18//11 13//7
f 33//26 18//11 29//25
f 34//27 18//11 33//26
f 30//28 31//29 35//30
f 30//28 35//30 32//31
f 18//11 37//32 20//12
f 21//23 19//22 38//33
f 21//23 38//33 39//34
f 2//2 23//13 22//17
f 27//21 1//1 15//35
f 27//21 15//35 19//22
f 42//36 32//31 35//30
f 42//36 36//37 32//31
f 40//38 21//23 39//34
f 43//39 1//1 27//21
f 31//29 11//16 24//15
f 31//29 24//15 44//40
f 35//30 31//29 45//41
f 41//42 27//21 21//23
f 40//38 41//42 21//23
f 46//43 24//15 22//17
f 43//39 23//13 1//1
f 23//13 47//44 22//17
f 48//45 23//13 43//39
f 48//45 47//44 23//13
f 45//41 31//29 44//40
f 35//30 45//41 49//46
f 35//30 49//46 42//36
f 36//37 40//38 39//34
f 40//38 36//37 42//36
f 50//47 43//39 41//42
f 41//42 43//39 27//21
f 51//48 46//43 22//17
f 51//48 22//17 47//44
f 48//45 43//39 50//47
f 49//46 52//49 42//36
f 40//38 52//49 53//50
f 52//49 40//38 42//36
f 54//51 47//44 48//45
f 47//44 54//51 51//48
f 44//40 55//52 45//41
f 50//47 54//51 48//45
f 56//53 57//54 52//49
f 45//41 55//52 49//46
f 55//52 56//53 52//49
f 55//52 52//49 49//46
f 50//47 41//42 58//55
f 58//55 41//42 40//38
f 57//54 53//50 52//49
f 24//15 59//56 44//40
f 46//43 59//56 24//15
f 44//40 60//57 55//52
f 60//57 56//53 55//52
f 58//55 40//38 53//50
f 44//40 59//56 60//57
f 54//51 50//47 61//58
f 62//59 50//47 58//55
f 57//54 63//60 53//50
f 63//60 58//55 53//50
f 64//61 46//43 51//48
f 46//43 64//61 65//62
f 66//63 59//56 46//43
f 61//58 50//47 62//59
f 59//56 67//64 60//57
f 68//65 58//55 63//60
f 56//53 63//60 57//54
f 65//62 66//63 46//43
f 67//64 59//56 66//63
f 60//57 71//66 56//53
f 71//66 69//67 56//53
f 69//67 63//60 56//53
f 51//48 70//68 72//69
f 70//68 51//48 54//51
f 62//59 58//55 68//65
f 73//70 66//63 65//62
f 70//68 54//51 61//58
f 67//64 71//66 60//57
f 61//58 62//59 68//65
f 51//48 72//69 64//61
f 64//61 72//69 75//71
f 73//70 65//62 76//72
f 68//65 78//73 61//58
f 63//60 74//74 68//65
f 76//72 65//62 64//61
f 79//75 72//69 70//68
f 78//73 68//65 74//74
f 69//67 74//74 63//60
f 81//76 76//72 64//61
f 64//61 75//71 81//76
f 77//77 67//64 66//63
f 77//77 71//66 67//64
f 61//58 78//73 80//78
f 73//70 77//77 66//63
f 70//68 61//58 83//79
f 83//79 61//58 80//78
f 69//67 85//80 74//74
f 75//71 86//81 81//76
f 79//75 75//71 72//69
f 79//75 70//68 83//79
f 87//82 69//67 71//66
f 88//83 80//78 78//73
f 78//73 74//74 84//84
f 75//71 82//85 86//81
f 89//86 76//72 81//76
f 90//87 76//72 89//86
f 90//87 73//70 76//72
f 90//87 77//77 73//70
f 71//66 77//77 91//88
f 71//66 91//88 87//82
f 85//80 84//84 74//74
f 86//81 89//86 81//76
f 82//85 75//71 79//75
f 83//79 80//78 92//89
f 87//82 93//90 69//67
f 88//83 92//89 80//78
f 88//83 78//73 84//84
f 69//67 93//90 85//80
f 82//85 95//91 86//81
f 96//92 90//87 89//86
f 79//75 98//93 82//85
f 95//91 82//85 98//93
f 97//94 77//77 90//87
f 97//94 91//88 77//77
f 99//95 83//79 92//89
f 88//83 94//96 92//89
f 84//84 94//96 88//83
f 89//86 86//81 100//97
f 101//98 90//87 96//92
f 90//87 101//98 97//94
f 79//75 83//79 98//93
f 101//98 102//99 97//94
f 103//100 87//82 91//88
f 99//95 98//93 83//79
f 103//100 93//90 87//82
f 100//97 96//92 89//86
f 103//100 91//88 102//99
f 102//99 91//88 97//94
f 103//100 104//101 93//90
f 92//89 105//102 99//95
f 92//89 94//96 105//102
f 105//102 94//96 106//103
f 106//103 94//96 84//84
f 107//104 106//103 84//84
f 85//80 107//104 84//84
f 86//81 95//91 108//105
f 108//105 100//97 86//81
f 102//99 116//106 103//100
f 109//107 98//93 99//95
f 110//108 98//93 109//107
f 99//95 111//109 109//107
f 116//106 104//101 103//100
f 99//95 105//102 111//109
f 112//110 105//102 106//103
f 104//101 85//80 93//90
f 113//111 100//97 108//105
f 114//112 100//97 113//111
f 100//97 114//112 96//92
f 101//98 96//92 114//112
f 115//113 98//93 110//108
f 95//91 115//113 108//105
f 95//91 98//93 115//113
f 116//106 101//98 117//114
f 117//114 101//98 114//112
f 116//106 102//99 101//98
f 111//109 105//102 119//115
f 112//110 106//103 107//104
f 117//114 120//116 116//106
f 104//101 116//106 120//116
f 118//117 110//108 109//107
f 109//107 111//109 118//117
f 104//101 121//118 85//80
f 113//111 123//119 114//112
f 122//120 113//111 108//105
f 114//112 123//119 117//114
f 115//113 110//108 124//121
f 121//118 125//122 85//80
f 121//118 120//116 129//123
f 104//101 120//116 121//118
f 118//117 111//109 119//115
f 105//102 112//110 119//115
f 126//124 107//104 127//125
f 113//111 122//120 123//119
f 115//113 124//121 108//105
f 123//119 128//126 117//114
f 128//126 120//116 117//114
f 128//126 129//123 120//116
f 118//117 130//127 110//108
f 125//122 107//104 85//80
f 118//117 131//128 132//129
f 119//115 131//128 118//117
f 112//110 107//104 126//124
f 133//130 128//126 123//119
f 128//126 133//130 129//123
f 108//105 124//121 134//131
f 121//118 129//123 125//122
f 125//122 129//123 135//132
f 129//123 133//130 135//132
f 130//127 136//133 110//108
f 107//104 125//122 127//125
f 138//134 123//119 122//120
f 138//134 133//130 123//119
f 139//135 140//136 141//137
f 136//133 124//121 110//108
f 142//138 141//137 140//136
f 118//117 132//129 130//127
f 143//139 144//140 142//138
f 142//138 144//140 145//141
f 145//141 144//140 146//142
f 147//143 108//105 134//131
f 147//143 122//120 108//105
f 122//120 149//144 138//134
f 145//141 150//145 141//137
f 125//122 135//132 151//146
f 141//137 142//138 145//141
f 125//122 152//147 127//125
f 131//128 119//115 153//148
f 154//149 153//148 119//115
f 154//149 112//110 126//124
f 154//149 119//115 112//110
f 137//150 122//120 147//143
f 156//151 148//152 141//137
f 137//150 149//144 122//120
f 156//151 150//145 157//153
f 138//134 149//144 158//154
f 133//130 138//134 158//154
f 141//137 150//145 156//151
f 145//141 155//155 159//156
f 160//157 161//158 162//159
f 158//154 149//144 163//160
f 165//161 133//130 158//154
f 165//161 135//132 133//130
f 150//145 166//162 164//163
f 167//164 166//162 150//145
f 145//141 167//164 150//145
f 168//165 135//132 165//161
f 169//166 145//141 170//167
f 135//132 171//168 151//146
f 167//164 145//141 169//166
f 172//169 171//168 168//165
f 168//165 171//168 135//132
f 170//167 145//141 159//156
f 152//147 125//122 151//146
