# Blender v2.78 (sub 0) OBJ File: 'exporter.blend'
# www.blender.org
o FJ2419.obj_grp1.1122
v 0.056103 -0.723189 5.632393
v 0.057794 -0.729372 5.635638
v 0.060914 -0.724397 5.642174
v 0.061823 -0.718008 5.632900
v 0.104885 -0.750992 5.594157
v 0.106156 -0.761889 5.610668
v 0.064514 -0.732574 5.639563
v 0.110775 -0.753909 5.620956
v 0.098158 -0.738794 5.627587
v 0.068118 -0.719317 5.637299
v 0.097630 -0.727943 5.621820
v 0.076764 -0.784522 5.609576
v 0.075694 -0.767708 5.609371
v 0.074139 -0.762422 5.585506
v 0.076069 -0.781186 5.605170
v 0.074505 -0.772140 5.596040
v 0.073986 -0.758404 5.582749
v 0.074303 -0.754967 5.589561
v 0.076259 -0.751757 5.575083
v 0.074830 -0.758636 5.583915
v 0.078467 -0.741303 5.579273
v 0.074303 -0.754967 5.589561
v 0.081571 -0.741768 5.564960
v 0.082909 -0.733153 5.575253
v 0.085879 -0.736484 5.560154
v 0.092185 -0.724067 5.565614
v 0.080342 -0.725269 5.653971
v 0.080597 -0.727574 5.656931
v 0.079952 -0.721128 5.658349
v 0.086936 -0.798257 5.625678
v 0.081886 -0.783337 5.626295
v 0.099562 -0.804226 5.638624
v 0.173621 -0.747144 5.549623
v 0.082064 -0.782528 5.626738
v 0.091030 -0.724056 5.567268
v 0.118606 -0.739464 5.589781
v 0.106016 -0.750967 5.591528
v 0.111553 -0.751492 5.648983
v 0.123019 -0.763162 5.642922
v 0.086513 -0.721594 5.666107
v 0.128428 -0.756558 5.647962
v 0.085739 -0.716064 5.654434
v 0.148878 -0.755602 5.621086
v 0.080094 -0.721119 5.658290
v 0.086488 -0.715882 5.662321
v 0.096875 -0.801937 5.635475
v 0.105398 -0.807641 5.640816
v 0.088722 -0.786942 5.634705
v 0.101064 -0.793169 5.645608
v 0.102071 -0.793606 5.645694
v 0.106235 -0.770537 5.606949
v 0.104340 -0.752252 5.589782
v 0.129389 -0.763581 5.627618
v 0.116916 -0.755136 5.646366
v 0.094887 -0.729077 5.553560
v 0.107467 -0.722355 5.548931
v 0.131976 -0.747482 5.616501
v 0.132196 -0.759530 5.623196
v 0.119046 -0.711897 5.553128
v 0.110425 -0.798669 5.649089
v 0.117905 -0.787055 5.632423
v 0.102554 -0.793011 5.648294
v 0.110425 -0.798669 5.649089
v 0.109723 -0.773592 5.610525
v 0.111078 -0.765177 5.601686
v 0.104035 -0.752954 5.592106
v 0.106162 -0.769990 5.608199
v 0.108057 -0.768689 5.610171
v 0.106492 -0.768276 5.605711
v 0.107617 -0.765704 5.607354
v 0.110413 -0.764381 5.602156
v 0.107617 -0.765704 5.607354
v 0.110488 -0.762417 5.599215
v 0.106492 -0.768276 5.605711
v 0.107617 -0.765704 5.607354
v 0.110093 -0.764464 5.602190
v 0.106162 -0.769990 5.608199
v 0.107749 -0.770665 5.611048
v 0.108057 -0.768689 5.610171
v 0.108057 -0.768689 5.610171
v 0.103126 -0.754313 5.593638
v 0.104341 -0.753746 5.592144
v 0.105257 -0.753990 5.593880
v 0.105158 -0.752427 5.592660
v 0.105158 -0.752427 5.592660
v 0.104302 -0.752153 5.589845
v 0.158456 -0.732605 5.541383
v 0.125917 -0.735020 5.594209
v 0.146594 -0.738951 5.597494
v 0.140761 -0.757367 5.645356
v 0.140854 -0.757394 5.645145
v 0.118361 -0.811034 5.645384
v 0.128186 -0.794153 5.651718
v 0.128186 -0.794153 5.651718
v 0.113414 -0.779126 5.618041
v 0.118283 -0.787395 5.631774
v 0.121401 -0.768088 5.624066
v 0.123030 -0.772835 5.632188
v 0.125409 -0.768503 5.638139
v 0.120540 -0.761629 5.621250
v 0.120549 -0.761530 5.621490
v 0.127462 -0.764398 5.624182
v 0.126007 -0.768267 5.642974
v 0.119486 -0.745499 5.581499
v 0.129106 -0.735860 5.580500
v 0.131950 -0.735404 5.572050
v 0.131950 -0.735404 5.572050
v 0.124917 -0.733996 5.567074
v 0.148248 -0.752324 5.636272
v 0.120584 -0.721884 5.543601
v 0.151658 -0.726219 5.539296
v 0.120584 -0.721884 5.543601
v 0.119079 -0.711908 5.553131
v 0.140413 -0.710597 5.548961
v 0.129409 -0.810810 5.648338
v 0.150183 -0.807805 5.650591
v 0.136061 -0.798565 5.655587
v 0.133672 -0.797809 5.656602
v 0.128297 -0.782759 5.640920
v 0.128186 -0.794153 5.651718
v 0.138112 -0.785417 5.645909
v 0.128292 -0.782731 5.640920
v 0.121401 -0.768088 5.624066
v 0.127415 -0.764085 5.624716
v 0.131612 -0.760528 5.624622
v 0.136811 -0.757638 5.616605
v 0.136841 -0.758326 5.616648
v 0.129106 -0.735860 5.580500
v 0.138923 -0.735672 5.577543
v 0.157470 -0.745395 5.580073
v 0.138923 -0.735672 5.577543
v 0.141988 -0.720565 5.538719
v 0.141988 -0.720565 5.538719
v 0.140359 -0.709504 5.548999
v 0.144558 -0.798058 5.657506
v 0.150499 -0.796162 5.656781
v 0.144799 -0.786717 5.640733
v 0.146214 -0.790994 5.644770
v 0.146214 -0.790994 5.644770
v 0.144757 -0.786923 5.639527
v 0.140337 -0.777919 5.642668
v 0.138041 -0.785801 5.645474
v 0.141387 -0.757760 5.616086
v 0.141387 -0.757760 5.616086
v 0.154016 -0.761953 5.605958
v 0.145607 -0.729466 5.560126
v 0.145607 -0.729466 5.560126
v 0.142561 -0.718147 5.538756
v 0.157100 -0.731615 5.542322
v 0.154020 -0.726529 5.540195
v 0.142655 -0.718739 5.539610
v 0.154092 -0.720461 5.549798
v 0.161698 -0.727126 5.554076
v 0.140359 -0.709504 5.548999
v 0.140350 -0.709687 5.550408
v 0.140359 -0.709504 5.548999
v 0.150115 -0.808065 5.650580
v 0.148419 -0.797913 5.657445
v 0.148419 -0.797913 5.657445
v 0.150237 -0.795360 5.657070
v 0.162323 -0.800442 5.666620
v 0.155518 -0.796998 5.660872
v 0.155518 -0.796998 5.660872
v 0.150237 -0.795360 5.657070
v 0.148419 -0.797913 5.657445
v 0.156569 -0.797736 5.661232
v 0.157253 -0.777731 5.642602
v 0.159935 -0.763232 5.605666
v 0.163298 -0.766614 5.638761
v 0.140854 -0.757394 5.645145
v 0.161803 -0.762892 5.592046
v 0.159513 -0.744590 5.569219
v 0.165102 -0.808260 5.663032
v 0.178308 -0.809362 5.669158
v 0.165102 -0.808260 5.663032
v 0.163074 -0.800022 5.668260
v 0.168104 -0.763401 5.592592
v 0.161987 -0.762788 5.592002
v 0.168129 -0.762904 5.592608
v 0.177446 -0.772603 5.626908
v 0.183806 -0.770406 5.620139
v 0.175364 -0.743970 5.546110
v 0.180001 -0.746517 5.568358
v 0.176819 -0.737361 5.557673
v 0.172432 -0.741099 5.545713
v 0.175984 -0.743291 5.546403
v 0.181917 -0.808338 5.669310
v 0.176886 -0.780710 5.643457
v 0.180794 -0.797050 5.676562
v 0.211174 -0.765258 5.590106
v 0.187578 -0.771605 5.619982
v 0.183739 -0.754018 5.554864
v 0.183936 -0.754095 5.556915
v 0.174642 -0.747873 5.550972
v 0.174642 -0.747873 5.550972
v 0.173652 -0.746108 5.549282
v 0.176361 -0.746115 5.552057
v 0.175422 -0.742022 5.548032
v 0.192452 -0.804566 5.662281
v 0.183042 -0.808536 5.669160
v 0.188388 -0.804568 5.669136
v 0.182200 -0.796586 5.676013
v 0.194744 -0.792200 5.665849
v 0.194744 -0.792200 5.665849
v 0.186590 -0.780983 5.629868
v 0.186666 -0.780801 5.629888
v 0.190172 -0.780221 5.629379
v 0.202483 -0.788095 5.657353
v 0.205200 -0.765543 5.569027
v 0.190037 -0.755469 5.558389
v 0.210785 -0.765037 5.589467
v 0.221325 -0.789303 5.623893
v 0.210884 -0.794928 5.646682
v 0.205077 -0.798221 5.654913
v 0.218004 -0.775339 5.587657
v 0.216336 -0.777324 5.622689
v 0.205128 -0.765347 5.569233
v 0.207920 -0.785338 5.650160
v 0.209805 -0.783750 5.644582
v 0.217871 -0.775126 5.587730
v 0.214885 -0.792515 5.638103
v 0.221316 -0.789275 5.623878
v 0.220693 -0.779841 5.595681
v 0.219706 -0.779379 5.595725
v 0.221103 -0.783454 5.602941
vn -0.8317 -0.5455 0.1038
vn -0.3348 0.1933 0.9223
vn -0.9081 0.3043 -0.2878
vn -0.3119 0.9343 -0.1728
vn -0.8900 -0.3484 -0.2942
vn -0.8675 -0.4949 0.0497
vn -0.0439 -0.3291 0.9433
vn -0.2223 -0.6079 0.7623
vn 0.4015 0.1305 0.9065
vn 0.2961 0.7705 0.5645
vn -0.9576 -0.1735 0.2301
vn -0.9935 -0.0799 0.0805
vn -0.9993 -0.0335 -0.0148
vn -0.9876 0.1552 -0.0252
vn -0.9952 0.0978 0.0049
vn 0.0193 0.7082 0.7058
vn -0.7385 0.5048 0.4471
vn -0.0405 0.7580 0.6510
vn -0.0851 -0.7524 -0.6531
vn 0.3878 -0.6226 -0.6797
vn -0.6973 -0.4950 -0.5184
vn -0.8720 0.4042 -0.2760
vn -0.8697 0.4558 -0.1896
vn 0.4126 0.8448 0.3408
vn -0.8072 -0.0593 -0.5873
vn -0.8139 -0.5524 0.1799
vn -0.9151 0.2294 0.3317
vn -0.6173 -0.4187 0.6660
vn -0.8905 -0.3344 0.3087
vn -0.1667 -0.6763 -0.7176
vn -0.1947 -0.6836 -0.7034
vn 0.0906 0.8683 0.4877
vn -0.7435 0.4658 -0.4799
vn -0.6771 0.5916 -0.4377
vn -0.8081 -0.5555 -0.1959
vn -0.2945 -0.6516 0.6991
vn -0.1876 0.0832 0.9787
vn -0.0655 -0.3038 0.9505
vn -0.5220 0.7087 -0.4746
vn -0.1927 0.8410 -0.5055
vn -0.0637 0.8510 0.5213
vn -0.0628 -0.8408 -0.5377
vn -0.0368 -0.8805 -0.4727
vn -0.6838 -0.5131 0.5188
vn -0.6864 -0.3942 0.6110
vn 0.0134 0.8794 0.4759
vn 0.0616 0.8300 0.5544
vn 0.0445 0.8768 0.4787
vn 0.3519 0.5017 0.7902
vn -0.1823 -0.6117 0.7698
vn -0.4949 0.4309 -0.7545
vn -0.4853 0.7500 -0.4495
vn 0.4677 0.3616 0.8065
vn -0.6673 -0.0236 -0.7444
vn -0.9412 0.2727 -0.1992
vn -0.2727 0.6228 -0.7334
vn -0.3736 -0.4277 0.8231
vn -0.0208 0.8852 0.4647
vn -0.1730 -0.6280 -0.7588
vn 0.0976 0.7022 0.7052
vn -0.3183 0.8590 0.4011
vn -0.7361 0.6001 0.3130
vn -0.8520 0.4020 0.3355
vn -0.8519 0.4021 0.3355
vn -0.9225 0.1826 0.3401
vn -0.8516 -0.3984 -0.3407
vn -0.9382 -0.0326 -0.3445
vn -0.8102 0.5244 -0.2618
vn -0.8350 -0.5010 -0.2276
vn -0.7780 0.3550 0.5183
vn -0.8783 -0.0015 0.4781
vn -0.9563 0.0279 -0.2909
vn -0.9579 -0.2587 -0.1245
vn -0.2285 0.9569 0.1791
vn -0.6690 0.2563 0.6977
vn -0.8209 0.3115 0.4787
vn -0.6901 0.4796 -0.5420
vn -0.1818 -0.5280 -0.8295
vn -0.1776 -0.6065 -0.7750
vn 0.0666 0.9946 -0.0792
vn 0.5536 0.7957 0.2458
vn 0.1515 0.9244 -0.3502
vn 0.1320 -0.1915 0.9726
vn 0.5091 0.4257 0.7480
vn -0.2893 -0.4471 0.8464
vn -0.1890 0.0475 0.9808
vn -0.2216 0.6587 0.7190
vn -0.0773 -0.0608 0.9952
vn -0.0674 0.9242 0.3759
vn -0.6484 0.2792 0.7082
vn -0.6869 0.1362 0.7139
vn -0.7468 0.2139 0.6297
vn -0.7752 0.3087 0.5512
vn -0.8567 0.4558 0.2415
vn -0.9816 0.1782 -0.0683
vn -0.3605 -0.4260 0.8298
vn -0.2076 0.3221 0.9237
vn -0.0639 0.6191 0.7827
vn -0.7388 -0.2319 0.6328
vn -0.4552 0.8827 0.1163
vn -0.5609 0.5921 -0.5786
vn -0.6730 0.6283 -0.3902
vn -0.7038 0.6816 -0.2002
vn 0.1119 0.5878 0.8012
vn 0.0153 0.7617 0.6478
vn 0.5633 0.7994 0.2090
vn -0.1849 -0.4502 -0.8736
vn -0.2057 -0.4706 -0.8580
vn -0.0913 0.9658 -0.2426
vn -0.3609 0.0774 -0.9294
vn 0.1589 0.4609 0.8731
vn 0.0906 0.7415 0.6648
vn -0.1682 -0.3493 0.9218
vn -0.0554 0.6646 0.7451
vn -0.7052 0.4901 0.5124
vn -0.7256 0.0935 0.6817
vn 0.0092 0.6349 0.7726
vn -0.1510 0.2282 0.9618
vn 0.2786 -0.0199 0.9602
vn -0.5148 0.6918 0.5063
vn -0.6362 0.6950 0.3349
vn -0.7376 0.6410 -0.2122
vn 0.4060 0.4590 0.7903
vn -0.2617 0.9651 0.0097
vn -0.1814 0.9274 0.3271
vn -0.1667 0.9842 -0.0598
vn -0.0742 0.9936 0.0851
vn 0.5322 0.7282 0.4319
vn 0.3881 0.8423 0.3741
vn -0.1661 -0.3942 -0.9039
vn -0.0243 0.0041 -0.9997
vn -0.2751 0.6923 -0.6671
vn -0.0023 -0.8925 -0.4510
vn 0.0776 -0.9290 -0.3619
vn -0.2544 -0.5564 0.7910
vn -0.0886 -0.0216 0.9958
vn 0.5318 0.6695 0.5186
vn 0.4916 0.5857 0.6444
vn -0.0921 0.8900 0.4466
vn -0.4182 0.7448 0.5200
vn -0.0634 0.9146 0.3994
vn -0.0606 0.2356 0.9700
vn 0.6682 0.0689 0.7408
vn -0.0905 0.9372 -0.3369
vn 0.4440 0.8876 0.1222
vn 0.0127 0.9381 -0.3460
vn -0.1273 0.9383 0.3216
vn 0.2006 0.7309 0.6524
vn -0.0824 0.2694 -0.9595
vn 0.0885 -0.0301 -0.9956
vn 0.5537 0.7132 -0.4298
vn 0.5371 0.6892 -0.4864
vn 0.6105 0.7774 -0.1515
vn 0.3073 0.7527 0.5822
vn 0.5539 0.6576 -0.5106
vn 0.6162 0.7805 0.1059
vn 0.6165 0.7802 0.1057
vn 0.0988 -0.9513 -0.2921
vn -0.1303 -0.5796 0.8044
vn 0.0131 0.1292 0.9915
vn -0.0879 0.3329 0.9389
vn -0.5038 -0.4505 0.7370
vn -0.5162 -0.4420 0.7336
vn -0.4377 0.4221 0.7939
vn -0.2518 0.8007 0.5436
vn -0.0914 0.2866 0.9537
vn 0.4415 0.5622 0.6993
vn 0.3241 0.1450 0.9348
vn 0.4317 0.7945 0.4271
vn 0.2310 0.9729 0.0042
vn 0.6542 0.6538 0.3803
vn -0.3835 -0.5435 0.7467
vn 0.1429 -0.9511 -0.2737
vn -0.1675 -0.9688 0.1829
vn 0.1976 0.8427 0.5008
vn -0.0154 0.5827 0.8125
vn -0.0321 0.5730 0.8189
vn 0.0045 0.7558 0.6548
vn 0.1424 0.8057 0.5750
vn 0.4596 0.6489 0.6064
vn 0.3043 0.9409 0.1490
vn -0.2236 -0.6788 -0.6994
vn 0.5714 0.8002 0.1823
vn 0.1705 -0.0763 -0.9824
vn -0.0047 -0.5765 0.8171
vn -0.1607 0.8756 0.4556
vn -0.4351 0.6426 0.6307
vn 0.5647 0.8205 0.0893
vn 0.7599 0.6053 0.2369
vn 0.2007 0.9670 0.1572
vn -0.0572 -0.7658 -0.6405
vn 0.7913 0.0431 -0.6100
vn 0.5489 0.2418 -0.8002
vn 0.5274 -0.0553 -0.8478
vn 0.7634 0.4803 -0.4319
vn 0.6361 0.7066 -0.3100
vn 0.6920 -0.2568 -0.6747
vn 0.6594 -0.3950 -0.6396
vn 0.3971 -0.9165 0.0481
vn 0.1713 -0.9428 -0.2861
vn 0.5761 -0.5545 0.6006
vn 0.1629 -0.4168 0.8943
vn 0.7176 -0.1560 0.6787
vn -0.0379 0.9415 0.3348
vn -0.1474 0.2114 0.9662
vn 0.1304 0.8132 0.5671
vn -0.0021 0.9413 0.3376
vn -0.0107 -0.8449 -0.5348
vn 0.3799 -0.3125 -0.8706
vn 0.0730 -0.9407 -0.3314
vn 0.8291 0.0179 0.5589
vn 0.4269 -0.9034 0.0396
vn 0.0581 0.8814 0.4688
vn 0.0102 -0.8795 -0.4759
vn -0.0406 0.8857 0.4624
vn 0.7394 0.5615 -0.3714
vn 0.8484 0.1454 0.5091
vn -0.0112 0.9613 0.2753
vn 0.7302 0.6545 -0.1964
vn 0.8255 0.5641 -0.0188
vn 0.6803 -0.7210 0.1320
vn 0.9336 0.2704 0.2349
vn 0.8456 0.5308 0.0563
vn 0.8369 0.5328 0.1253
s 1
f 2//1 3//2 1//3
f 3//2 4//4 1//3
f 5//5 6//6 2//1
f 6//6 8//7 7//8
f 2//1 1//3 5//5
f 3//2 2//1 7//8
f 7//8 2//1 6//6
f 7//8 9//9 3//2
f 9//9 10//10 3//2
f 10//10 4//4 3//2
f 12//11 13//12 14//13
f 17//14 14//13 13//12
f 17//14 13//12 18//15
f 21//16 22//17 13//18
f 15//19 16//20 20//21
f 23//22 17//14 24//23
f 17//14 18//15 24//23
f 7//8 8//7 9//9
f 9//9 11//24 10//10
f 4//4 10//10 11//24
f 27//25 28//26 29//27
f 12//11 32//28 31//29
f 12//11 31//29 13//12
f 19//30 15//19 20//21
f 15//19 19//30 33//31
f 21//16 13//18 34//32
f 24//23 35//33 23//22
f 1//3 4//4 37//34
f 28//26 39//35 38//36
f 28//26 38//36 40//37
f 40//37 38//36 41//38
f 28//26 40//37 29//27
f 27//25 44//39 42//40
f 29//27 45//41 44//39
f 40//37 45//41 29//27
f 42//40 44//39 45//41
f 30//42 47//43 46//44
f 32//28 49//45 31//29
f 48//46 64//47 34//32
f 50//48 64//47 48//46
f 51//49 34//32 64//47
f 5//5 1//3 37//34
f 38//36 54//50 41//38
f 35//33 56//51 23//22
f 37//34 4//4 36//52
f 11//24 36//52 4//4
f 9//9 57//53 11//24
f 58//54 27//25 42//40
f 53//55 28//26 27//25
f 59//56 56//51 35//33
f 49//45 32//28 60//57
f 50//48 61//58 64//47
f 30//42 15//19 33//31
f 19//30 25//59 33//31
f 21//16 65//60 66//61
f 65//60 21//16 34//32
f 51//49 65//60 34//32
f 67//62 68//63 69//64
f 70//65 69//64 68//63
f 71//66 72//67 6//6
f 71//66 6//6 5//5
f 74//68 75//68 76//68
f 5//5 73//69 71//66
f 77//70 78//71 79//72
f 80//73 6//6 72//67
f 6//6 79//72 78//71
f 78//71 8//7 6//6
f 21//16 66//61 52//74
f 81//75 73//69 5//5
f 82//76 83//76 84//76
f 81//75 5//5 85//77
f 66//61 37//34 52//74
f 66//61 5//5 37//34
f 39//35 28//26 53//55
f 25//59 55//78 87//79
f 57//53 9//9 8//7
f 58//54 53//55 27//25
f 88//80 36//52 11//24
f 89//81 88//80 11//24
f 58//54 42//40 43//82
f 90//83 40//37 41//38
f 91//84 45//41 40//37
f 60//57 32//28 92//85
f 63//86 93//87 62//88
f 61//58 50//48 94//89
f 97//90 78//91 95//92
f 95//92 96//93 98//94
f 97//90 95//92 98//94
f 96//93 99//95 98//94
f 8//7 78//71 100//96
f 97//90 101//97 78//91
f 97//90 102//98 101//97
f 103//99 41//38 54//50
f 52//74 104//100 21//16
f 52//74 86//101 104//100
f 104//100 86//101 37//34
f 101//97 57//53 8//7
f 53//55 99//95 39//35
f 105//102 104//100 37//34
f 37//34 36//52 105//102
f 105//102 107//103 104//100
f 26//104 21//16 108//105
f 109//106 42//40 45//41
f 91//84 109//106 45//41
f 55//78 110//107 111//108
f 112//109 55//110 56//51
f 26//104 114//111 113//112
f 117//113 60//57 92//85
f 118//114 93//87 63//86
f 96//93 120//115 119//116
f 93//87 121//117 122//118
f 119//116 103//99 96//93
f 96//93 103//99 99//95
f 41//38 122//118 141//119
f 141//119 122//118 121//117
f 123//120 98//94 124//121
f 98//94 53//55 124//121
f 125//122 124//121 53//55
f 98//94 99//95 53//55
f 99//95 103//99 39//35
f 103//99 119//116 41//38
f 25//59 87//79 33//31
f 126//123 57//53 101//97
f 126//123 101//97 102//98
f 125//122 127//124 124//121
f 58//54 127//124 125//122
f 87//79 55//78 111//108
f 21//16 104//100 108//105
f 57//53 89//81 11//24
f 43//82 42//40 109//106
f 108//105 104//100 106//125
f 36//52 88//80 128//126
f 106//125 128//126 129//127
f 128//126 88//80 129//127
f 130//128 131//129 88//80
f 110//107 132//130 111//108
f 133//131 112//109 56//51
f 56//51 59//56 134//132
f 47//43 223//133 115//134
f 116//135 135//136 92//85
f 223//133 47//43 30//42
f 135//136 117//113 92//85
f 118//114 121//117 93//87
f 137//137 121//117 138//138
f 138//138 121//117 118//114
f 136//139 139//140 118//141
f 140//142 141//119 142//143
f 141//119 90//83 41//38
f 144//144 127//124 43//82
f 58//54 43//82 127//124
f 126//123 89//81 57//53
f 145//145 126//123 143//146
f 43//82 145//145 144//144
f 145//145 89//81 126//123
f 89//81 130//128 88//80
f 106//125 129//127 146//147
f 106//125 146//147 108//105
f 147//148 26//104 108//105
f 133//131 56//51 148//149
f 148//149 149//150 133//131
f 134//132 148//149 56//51
f 150//151 151//152 152//153
f 153//154 114//111 26//104
f 152//153 151//152 154//155
f 153//154 152//153 155//156
f 155//156 152//153 156//157
f 223//133 157//158 115//134
f 135//136 116//135 158//159
f 159//160 160//161 135//136
f 161//162 162//163 116//135
f 162//163 158//159 116//135
f 163//164 164//164 165//164
f 139//140 166//165 140//142
f 140//142 166//165 167//166
f 135//136 160//161 117//113
f 166//165 139//140 136//139
f 140//142 90//83 141//119
f 90//83 140//142 167//166
f 167//166 169//167 170//168
f 145//145 171//169 89//81
f 168//170 145//145 43//82
f 153//154 130//128 172//171
f 131//129 130//128 147//148
f 147//148 130//128 153//154
f 153//154 26//104 147//148
f 116//135 173//172 161//162
f 157//158 174//173 175//174
f 167//166 188//175 169//167
f 177//176 178//177 171//169
f 179//178 178//177 177//176
f 183//179 178//177 179//178
f 177//176 171//169 145//145
f 177//176 145//145 168//170
f 180//180 181//181 109//106
f 169//167 180//180 109//106
f 171//169 130//128 89//81
f 183//179 130//128 171//169
f 109//106 181//181 43//82
f 169//167 109//106 91//84
f 87//79 182//182 33//31
f 183//179 184//183 172//171
f 183//179 172//171 130//128
f 185//184 149//150 148//149
f 184//183 153//154 172//171
f 184//183 150//151 152//153
f 184//183 152//153 153//154
f 157//158 223//133 174//173
f 187//185 161//162 173//172
f 188//175 166//165 189//186
f 166//165 176//187 189//186
f 180//180 169//167 188//175
f 188//175 167//166 166//165
f 190//188 183//179 179//178
f 181//181 168//170 43//82
f 179//178 168//170 216//189
f 216//189 168//170 191//190
f 191//190 168//170 181//181
f 192//191 30//42 33//31
f 197//192 193//193 194//194
f 198//195 186//196 150//151
f 195//197 196//198 197//192
f 198//195 150//151 184//183
f 197//192 196//198 198//195
f 184//183 197//192 198//195
f 199//199 200//200 223//133
f 223//133 200//200 174//173
f 187//185 199//199 201//201
f 202//202 187//185 201//201
f 202//202 201//201 203//203
f 202//202 161//162 187//185
f 180//180 188//175 205//204
f 180//180 205//204 206//205
f 207//206 205//204 188//175
f 207//206 188//175 208//207
f 216//189 190//188 179//178
f 192//191 209//208 30//42
f 210//209 209//208 192//191
f 197//192 184//183 193//193
f 183//179 190//188 184//183
f 223//133 212//210 199//199
f 203//203 201//201 213//211
f 201//201 199//199 214//212
f 204//213 208//207 189//186
f 215//214 223//133 30//42
f 180//180 207//206 216//215
f 207//206 180//180 206//205
f 208//207 188//175 189//186
f 193//193 184//183 217//216
f 199//199 212//210 214//212
f 203//203 213//211 218//217
f 30//42 209//208 215//214
f 207//206 208//207 216//215
f 216//215 208//207 219//218
f 211//219 220//220 217//216
f 180//180 216//215 181//181
f 184//183 211//219 217//216
f 211//219 190//188 220//220
f 214//212 212//210 221//221
f 218//217 213//211 222//222
f 224//223 222//222 225//224
f 222//222 224//223 216//189
f 216//189 218//217 222//222
f 220//220 190//188 224//223
f 216//189 224//223 190//188
