# Blender v2.78 (sub 0) OBJ File: 'exporter.blend'
# www.blender.org
o FJ2429.obj_grp1.1132
v 0.227508 -0.503683 5.680836
v 0.221473 -0.512614 5.687877
v 0.224482 -0.510415 5.713414
v 0.217889 -0.502557 5.701746
v 0.219509 -0.501768 5.691029
v 0.227394 -0.491206 5.703757
v 0.229093 -0.496305 5.715216
v 0.231079 -0.549813 5.656727
v 0.228634 -0.544425 5.652724
v 0.229983 -0.541858 5.661172
v 0.234183 -0.548870 5.661441
v 0.235302 -0.538592 5.663745
v 0.249941 -0.552359 5.661003
v 0.230876 -0.535638 5.652200
v 0.238973 -0.533419 5.654649
v 0.267741 -0.550754 5.655915
v 0.264593 -0.561778 5.668504
v 0.266381 -0.561573 5.678840
v 0.264742 -0.526995 5.661809
v 0.233399 -0.494475 5.685915
v 0.236063 -0.512315 5.718944
v 0.237247 -0.501356 5.719251
v 0.243205 -0.495404 5.708427
v 0.271742 -0.566499 5.624887
v 0.272414 -0.558417 5.630451
v 0.274211 -0.562659 5.646114
v 0.273457 -0.559871 5.686490
v 0.281416 -0.552413 5.690683
v 0.252828 -0.508349 5.711105
v 0.252828 -0.508349 5.711105
v 0.280344 -0.527946 5.674155
v 0.278056 -0.591853 5.627847
v 0.278703 -0.586523 5.639788
v 0.271870 -0.566999 5.648619
v 0.278319 -0.582525 5.662405
v 0.277341 -0.576273 5.654434
v 0.285403 -0.538474 5.687444
v 0.290414 -0.585555 5.604617
v 0.273368 -0.567792 5.649535
v 0.273630 -0.567447 5.648771
v 0.273524 -0.568752 5.647914
v 0.294444 -0.563777 5.623662
v 0.283228 -0.564593 5.639369
v 0.276115 -0.558333 5.634629
v 0.296110 -0.563210 5.617823
v 0.273815 -0.567102 5.648619
v 0.273495 -0.564159 5.647352
v 0.271870 -0.566999 5.648619
v 0.273036 -0.564124 5.647570
v 0.279175 -0.564529 5.643099
v 0.276034 -0.560259 5.644674
v 0.273495 -0.564159 5.647352
v 0.276264 -0.562900 5.645991
v 0.274129 -0.562792 5.645991
v 0.275159 -0.563023 5.647062
v 0.273495 -0.564159 5.647352
v 0.273495 -0.564159 5.647352
v 0.274006 -0.564290 5.648760
v 0.275027 -0.562886 5.647398
v 0.275911 -0.562750 5.647658
v 0.279260 -0.564503 5.643181
v 0.280684 -0.564518 5.640260
v 0.279905 -0.565816 5.639474
v 0.284037 -0.565034 5.639793
v 0.285403 -0.538474 5.687444
v 0.295152 -0.613232 5.625475
v 0.294612 -0.613797 5.625472
v 0.308704 -0.615508 5.637041
v 0.301874 -0.608373 5.645004
v 0.296379 -0.600084 5.673116
v 0.303821 -0.577173 5.610479
v 0.292892 -0.570797 5.630217
v 0.292977 -0.570010 5.630369
v 0.287400 -0.567947 5.634535
v 0.283363 -0.564232 5.639490
v 0.290675 -0.565849 5.629466
v 0.292717 -0.570264 5.630937
v 0.296109 -0.563140 5.617573
v 0.294733 -0.562567 5.623456
v 0.296241 -0.566130 5.627587
v 0.292039 -0.554608 5.633031
v 0.283352 -0.564459 5.639465
v 0.313521 -0.549996 5.639900
v 0.304792 -0.635594 5.587784
v 0.298904 -0.619781 5.611573
v 0.315026 -0.622177 5.665720
v 0.296684 -0.598644 5.597617
v 0.307367 -0.598013 5.594120
v 0.302006 -0.588110 5.591046
v 0.305787 -0.595337 5.594151
v 0.303912 -0.582197 5.594781
v 0.303841 -0.574258 5.610465
v 0.296241 -0.566130 5.627587
v 0.293007 -0.570639 5.630725
v 0.295281 -0.566778 5.629643
v 0.295545 -0.565149 5.627240
v 0.302792 -0.561850 5.606698
v 0.297891 -0.556136 5.621813
v 0.296066 -0.560315 5.623637
v 0.296697 -0.555598 5.623499
v 0.294733 -0.562567 5.623456
v 0.292245 -0.561094 5.625533
v 0.294542 -0.564705 5.628202
v 0.333100 -0.602343 5.685431
v 0.306593 -0.640541 5.583253
v 0.310435 -0.662655 5.594410
v 0.319668 -0.644317 5.581451
v 0.305055 -0.642753 5.582762
v 0.306102 -0.648137 5.616295
v 0.303155 -0.625621 5.583223
v 0.305278 -0.621832 5.588891
v 0.313432 -0.629138 5.578331
v 0.303155 -0.625621 5.583223
v 0.316460 -0.659982 5.605925
v 0.306106 -0.648099 5.616273
v 0.305046 -0.617959 5.587636
v 0.305301 -0.617985 5.587721
v 0.306047 -0.615993 5.586436
v 0.303155 -0.625621 5.583223
v 0.309235 -0.608048 5.588116
v 0.308475 -0.615696 5.637212
v 0.319795 -0.633916 5.639559
v 0.324651 -0.627189 5.678442
v 0.326761 -0.619175 5.681606
v 0.307189 -0.598005 5.594043
v 0.309698 -0.600713 5.587801
v 0.323871 -0.614383 5.586062
v 0.309833 -0.600013 5.588577
v 0.308726 -0.585978 5.588788
v 0.323090 -0.583252 5.592331
v 0.305700 -0.577210 5.607494
v 0.305723 -0.555549 5.607829
v 0.302682 -0.577000 5.609705
v 0.319820 -0.550934 5.616747
v 0.315040 -0.553164 5.666177
v 0.333074 -0.602402 5.683981
v 0.316051 -0.677825 5.603973
v 0.319407 -0.683801 5.608434
v 0.321810 -0.690049 5.637383
v 0.316904 -0.677736 5.601157
v 0.321973 -0.689462 5.636525
v 0.326507 -0.658320 5.644576
v 0.316051 -0.677825 5.603973
v 0.316655 -0.661146 5.606205
v 0.319505 -0.667265 5.611751
v 0.334880 -0.678691 5.606984
v 0.318198 -0.681515 5.603596
v 0.319638 -0.666985 5.611438
v 0.341877 -0.666775 5.606693
v 0.330102 -0.562122 5.608964
v 0.335626 -0.560956 5.635369
v 0.333094 -0.686657 5.627642
v 0.322147 -0.686924 5.623040
v 0.332370 -0.687890 5.650296
v 0.322114 -0.689627 5.637587
v 0.322082 -0.688529 5.641812
v 0.325560 -0.685326 5.659269
v 0.323589 -0.687726 5.652234
v 0.324051 -0.677467 5.665655
v 0.325535 -0.684651 5.658807
v 0.342654 -0.677527 5.656441
v 0.324396 -0.656315 5.673399
v 0.324362 -0.677307 5.666526
v 0.323427 -0.661488 5.672728
v 0.324311 -0.676999 5.665755
v 0.326660 -0.663612 5.672333
v 0.335946 -0.649882 5.677619
v 0.327611 -0.647500 5.682138
v 0.330437 -0.641991 5.683440
v 0.331620 -0.639122 5.684580
v 0.326897 -0.647698 5.684021
v 0.337150 -0.630081 5.592994
v 0.326572 -0.619396 5.682045
v 0.337744 -0.584266 5.675332
v 0.346890 -0.638540 5.672750
v 0.342041 -0.602054 5.678759
v 0.349733 -0.602720 5.655836
v 0.342041 -0.602054 5.678759
v 0.346533 -0.675555 5.634222
v 0.337744 -0.584266 5.675332
vn -0.8601 -0.3960 -0.3215
vn -0.8732 0.3638 -0.3243
vn -0.4917 0.3264 -0.8073
vn -0.9735 0.1287 0.1889
vn -0.0467 0.8753 -0.4814
vn -0.7094 -0.3384 0.6182
vn -0.3359 0.9342 0.1203
vn -0.3623 0.6324 0.6847
vn -0.7565 -0.6318 0.1688
vn -0.7888 0.1324 0.6002
vn -0.9143 -0.0860 -0.3957
vn -0.3567 -0.4815 0.8006
vn -0.0777 0.4642 0.8823
vn -0.5744 0.7318 -0.3668
vn 0.2303 0.9719 0.0480
vn -0.7256 -0.0395 -0.6870
vn -0.8237 -0.5415 -0.1685
vn -0.6559 -0.6733 0.3411
vn 0.0256 0.6740 -0.7383
vn -0.1145 -0.3633 0.9246
vn 0.0875 0.3673 0.9260
vn 0.4232 0.8623 0.2781
vn -0.4754 0.2064 -0.8552
vn -0.1371 0.5874 -0.7976
vn 0.3215 -0.0676 0.9445
vn 0.6081 0.5198 0.6000
vn -0.3291 -0.5717 0.7516
vn 0.7152 0.5843 0.3834
vn 0.4714 -0.0727 0.8789
vn 0.1632 -0.2184 0.9621
vn 0.5862 0.8076 -0.0641
vn -0.8762 -0.4728 -0.0936
vn -0.6032 -0.6420 0.4733
vn 0.3627 -0.1574 0.9185
vn 0.5822 0.7012 0.4117
vn -0.8665 -0.4750 -0.1536
vn -0.7829 -0.6192 -0.0611
vn 0.4357 0.0832 0.8962
vn -0.6426 0.3241 -0.6942
vn -0.9405 -0.3280 -0.0890
vn -0.3841 -0.5263 0.7586
vn 0.2451 0.9635 0.1073
vn 0.5929 0.5956 0.5420
vn 0.5114 0.7648 0.3918
vn 0.2700 0.9502 0.1559
vn 0.0216 0.3973 0.9174
vn 0.0352 0.6970 0.7162
vn -0.6162 0.7315 0.2918
vn -0.8062 0.0868 -0.5852
vn -0.6826 0.0344 -0.7300
vn -0.6109 0.2245 -0.7592
vn 0.8012 0.3682 0.4717
vn 0.7334 0.5904 0.3368
vn 0.1561 0.9791 0.1304
vn 0.2495 -0.6389 0.7277
vn -0.6963 0.0937 -0.7116
vn 0.6643 0.6351 0.3942
vn -0.6085 -0.5267 0.5936
vn -0.6794 -0.5205 0.5173
vn -0.6378 -0.6385 0.4307
vn -0.3013 0.6407 -0.7062
vn -0.2858 0.6301 -0.7220
vn -0.2819 0.6072 -0.7429
vn 0.6092 0.3892 0.6909
vn 0.6234 0.3667 0.6906
vn -0.6703 0.3550 -0.6516
vn 0.4901 0.6609 0.5683
vn 0.2380 0.7768 0.5831
vn -0.5241 0.6181 -0.5859
vn -0.8811 0.2358 -0.4101
vn -0.0248 0.9997 -0.0091
vn 0.3218 0.9418 -0.0970
vn -0.9513 -0.2850 -0.1172
vn -0.8478 -0.5303 0.0053
vn -0.0649 -0.9256 0.3730
vn -0.9556 0.0331 -0.2929
vn -0.7895 -0.5842 -0.1883
vn -0.6743 0.0078 -0.7384
vn -0.6070 0.2606 -0.7508
vn -0.6422 -0.4486 -0.6215
vn -0.7658 -0.6096 0.2048
vn -0.3701 0.5614 -0.7402
vn -0.9378 0.1330 -0.3207
vn 0.3224 0.2784 0.9047
vn -0.7895 0.5453 0.2815
vn -0.9493 0.1236 -0.2890
vn -0.9866 0.1613 0.0227
vn -0.6125 0.2247 -0.7579
vn -0.3073 0.7332 -0.6066
vn -0.8258 0.2372 -0.5116
vn -0.8708 0.3102 -0.3813
vn -0.8262 0.5083 -0.2427
vn -0.1510 0.9793 -0.1350
vn -0.1504 -0.0412 0.9878
vn -0.9316 -0.2990 -0.2065
vn -0.8339 -0.4762 -0.2791
vn -0.9804 -0.0852 0.1774
vn 0.0196 0.1456 -0.9891
vn -0.1965 -0.2699 -0.9426
vn -0.3915 0.1702 -0.9043
vn 0.3092 -0.2868 -0.9067
vn -0.9268 -0.3418 0.1557
vn -0.8988 -0.3582 -0.2528
vn -0.3987 -0.4772 0.7831
vn -0.6348 0.2222 -0.7400
vn -0.9474 0.0496 0.3161
vn -0.9304 0.1064 -0.3509
vn -0.9479 0.3097 -0.0746
vn -0.2930 0.3370 -0.8947
vn -0.8221 -0.5356 -0.1931
vn -0.8803 -0.4296 0.2012
vn -0.8060 -0.3450 0.4809
vn -0.4441 -0.1284 0.8867
vn -0.8231 -0.5375 0.1835
vn -0.9385 -0.1149 -0.3256
vn -0.2344 0.0692 -0.9697
vn 0.3726 0.1258 -0.9194
vn -0.7225 -0.0793 -0.6868
vn -0.2271 0.2915 -0.9292
vn -0.8408 0.4112 -0.3520
vn -0.6349 0.7067 -0.3123
vn -0.9996 0.0093 0.0250
vn 0.4110 0.3461 -0.8434
vn 0.6191 0.6856 0.3831
vn 0.5081 0.1496 0.8482
vn -0.8272 -0.5329 -0.1785
vn -0.7660 -0.6298 -0.1293
vn 0.2561 -0.9526 -0.1641
vn -0.7548 -0.5448 -0.3654
vn -0.9817 0.0770 0.1744
vn -0.9901 -0.0497 0.1315
vn -0.9435 0.0463 0.3282
vn -0.8937 -0.0028 0.4486
vn -0.8822 -0.0294 0.4699
vn 0.1640 -0.7366 -0.6561
vn -0.8196 -0.5344 -0.2063
vn 0.6725 0.5395 -0.5065
vn 0.2204 0.9360 -0.2746
vn 0.8217 0.5696 0.0181
vn 0.0999 -0.9758 -0.1947
vn 0.5322 -0.6767 -0.5087
vn 0.3914 -0.8987 -0.1978
vn 0.3363 -0.9144 0.2252
vn 0.2162 -0.7916 0.5716
vn -0.7286 -0.6366 0.2526
vn -0.9640 -0.1653 0.2083
vn -0.9984 -0.0080 -0.0566
vn -0.6605 -0.5848 0.4709
vn 0.7287 -0.5117 0.4552
vn 0.8530 -0.2652 -0.4496
vn 0.3893 -0.5010 0.7729
vn -0.0093 -0.4043 0.9146
vn -0.1413 -0.4606 0.8763
vn -0.1597 -0.4130 0.8966
vn -0.9685 0.2485 -0.0128
vn -0.9914 0.0352 0.1258
vn 0.4040 -0.2656 0.8753
vn 0.4311 -0.3521 0.8308
vn 0.8022 0.0663 -0.5933
vn -0.8530 -0.0290 0.5211
vn -0.2655 0.0350 0.9635
vn 0.2562 0.3469 0.9022
vn 0.8321 -0.1576 0.5318
vn -0.0667 -0.0046 0.9978
vn 0.4960 0.1000 0.8625
vn 0.9857 0.1684 0.0078
vn 0.9290 0.1995 0.3116
vn 0.9174 -0.3866 -0.0947
vn 0.8587 0.4403 0.2621
s 1
f 2//1 5//2 1//3
f 5//2 2//1 4//4
f 20//5 1//3 5//2
f 4//4 2//1 3//6
f 4//4 6//7 5//2
f 3//6 7//8 4//4
f 6//7 20//5 5//2
f 6//7 4//4 7//8
f 8//9 10//10 9//11
f 11//12 10//10 8//9
f 11//12 12//13 10//10
f 9//11 10//10 14//14
f 14//14 10//10 12//13
f 14//14 12//13 15//15
f 2//1 16//16 17//17
f 18//18 3//6 2//1
f 18//18 2//1 17//17
f 16//16 2//1 1//3
f 19//19 16//16 1//3
f 19//19 1//3 20//5
f 21//20 22//21 3//6
f 3//6 22//21 7//8
f 23//22 20//5 6//7
f 23//22 6//7 7//8
f 22//21 23//22 7//8
f 24//23 14//14 25//24
f 12//13 11//12 13//25
f 25//24 14//14 15//15
f 26//26 15//15 12//13
f 13//25 26//26 12//13
f 27//27 21//20 3//6
f 29//28 23//22 22//21
f 30//29 22//21 21//20
f 21//20 28//30 30//29
f 31//31 23//22 29//28
f 31//31 20//5 23//22
f 8//9 9//11 32//32
f 8//9 32//32 33//33
f 33//33 11//12 8//9
f 14//14 24//23 9//11
f 18//18 27//27 3//6
f 27//27 28//30 21//20
f 19//19 20//5 31//31
f 9//11 24//23 32//32
f 13//25 11//12 33//33
f 13//25 33//33 39//34
f 39//34 34//35 13//25
f 17//17 36//36 35//37
f 26//26 13//25 34//35
f 37//38 30//29 28//30
f 38//39 32//32 24//23
f 33//33 40//40 41//41
f 36//36 17//17 40//40
f 35//37 18//18 17//17
f 42//42 25//24 15//15
f 26//26 43//43 44//44
f 25//24 42//42 45//45
f 46//46 47//46 48//46
f 15//15 26//26 44//44
f 52//47 53//47 54//47
f 57//48 58//48 59//48
f 49//49 16//16 60//50
f 60//50 16//16 61//51
f 51//52 50//53 62//54
f 63//55 43//43 26//26
f 17//17 16//16 40//40
f 49//49 40//40 16//16
f 61//51 16//16 64//56
f 64//56 16//16 19//19
f 31//31 29//28 65//57
f 66//58 33//33 32//32
f 68//59 36//36 33//33
f 35//37 70//60 18//18
f 36//36 40//40 33//33
f 18//18 70//60 27//27
f 73//61 74//62 75//63
f 72//64 76//65 43//43
f 78//66 24//23 25//24
f 79//67 44//44 43//43
f 43//43 76//65 79//67
f 76//65 80//68 79//67
f 81//69 99//70 64//56
f 50//53 82//71 62//54
f 64//56 19//19 81//69
f 19//19 31//31 83//72
f 84//73 67//74 32//32
f 67//74 84//73 85//75
f 84//73 32//32 38//39
f 111//76 84//73 38//39
f 33//33 66//58 68//59
f 68//59 69//77 36//36
f 38//39 87//78 111//76
f 89//79 87//78 38//39
f 90//80 87//78 89//79
f 36//36 69//77 35//37
f 70//60 35//37 86//81
f 89//79 38//39 71//82
f 71//82 38//39 24//23
f 92//83 24//23 78//66
f 71//82 24//23 92//83
f 72//64 93//84 76//65
f 94//85 95//86 96//87
f 95//86 77//88 64//56
f 132//89 97//90 78//66
f 98//91 78//66 99//70
f 99//70 78//66 101//92
f 78//66 98//91 132//89
f 98//91 99//70 81//69
f 99//70 96//87 95//86
f 95//86 64//56 99//70
f 100//93 81//69 83//72
f 104//94 37//38 28//30
f 19//19 83//72 81//69
f 105//95 106//96 110//97
f 110//97 106//96 84//73
f 111//76 110//97 84//73
f 112//98 108//99 113//100
f 107//101 108//99 112//98
f 85//75 84//73 114//102
f 115//103 67//74 85//75
f 109//104 68//59 66//58
f 112//98 113//100 118//105
f 111//76 116//106 110//97
f 117//107 118//105 119//108
f 117//107 87//78 118//105
f 87//78 120//109 118//105
f 120//109 112//98 118//105
f 87//78 117//107 111//76
f 69//77 121//110 122//111
f 69//77 122//111 86//81
f 70//60 123//112 124//113
f 120//109 125//114 126//115
f 120//109 128//116 127//117
f 88//118 120//109 87//78
f 120//109 88//118 125//114
f 86//81 35//37 69//77
f 126//115 125//114 89//79
f 128//116 89//79 129//119
f 127//117 128//116 129//119
f 87//78 90//80 88//118
f 90//80 89//79 125//114
f 27//27 70//60 124//113
f 129//119 89//79 91//120
f 89//79 131//121 91//120
f 71//82 131//121 89//79
f 28//30 27//27 124//113
f 129//119 91//120 132//89
f 97//90 92//83 78//66
f 133//122 92//83 97//90
f 133//122 97//90 91//120
f 132//89 130//123 129//119
f 91//120 97//90 132//89
f 31//31 65//57 135//124
f 135//124 65//57 136//125
f 83//72 31//31 135//124
f 137//126 138//127 139//128
f 140//129 138//127 137//126
f 141//130 142//131 143//132
f 143//132 144//133 106//96
f 145//134 144//133 143//132
f 106//96 140//129 137//126
f 147//135 108//99 107//101
f 140//129 106//96 105//95
f 148//136 115//103 114//102
f 106//96 144//133 114//102
f 106//96 114//102 84//73
f 115//103 85//75 114//102
f 145//134 68//59 109//104
f 145//134 122//111 68//59
f 122//111 142//131 86//81
f 127//117 112//98 120//109
f 70//60 86//81 123//112
f 130//123 127//117 129//119
f 104//94 28//30 124//113
f 130//123 132//89 150//137
f 134//138 150//137 132//89
f 134//138 132//89 100//93
f 100//93 83//72 134//138
f 151//139 83//72 135//124
f 139//128 138//127 153//140
f 146//141 152//142 147//135
f 153//140 152//142 154//143
f 139//128 157//144 156//145
f 154//143 139//128 153//140
f 158//146 159//147 141//130
f 139//128 154//143 157//144
f 141//130 159//147 142//131
f 158//146 160//148 159//147
f 157//144 154//143 161//149
f 107//101 146//141 147//135
f 146//141 107//101 149//150
f 143//132 142//131 145//134
f 157//144 161//149 163//151
f 166//152 164//153 165//154
f 162//155 142//131 159//147
f 145//134 142//131 122//111
f 162//155 168//156 142//131
f 164//153 166//152 169//157
f 169//157 166//152 167//158
f 112//98 127//117 172//159
f 112//98 172//159 107//101
f 149//150 107//101 172//159
f 86//81 142//131 123//112
f 142//131 168//156 123//112
f 173//160 123//112 168//156
f 104//94 124//113 171//161
f 130//123 172//159 127//117
f 172//159 130//123 150//137
f 136//125 174//162 135//124
f 151//139 150//137 134//138
f 134//138 83//72 151//139
f 153//140 147//135 152//142
f 166//152 163//151 167//158
f 167//158 163//151 161//149
f 167//158 161//149 175//163
f 175//163 169//157 167//158
f 169//157 175//163 136//125
f 104//94 171//161 170//164
f 136//125 175//163 176//165
f 172//159 150//137 177//166
f 178//167 175//163 177//166
f 176//165 174//162 136//125
f 177//166 150//137 151//139
f 152//142 146//141 179//168
f 154//143 152//142 179//168
f 179//168 146//141 149//150
f 154//143 179//168 161//149
f 175//163 161//149 179//168
f 149//150 172//159 177//166
f 149//150 177//166 179//168
f 179//168 177//166 175//163
f 177//166 180//169 178//167
f 177//166 151//139 180//169
f 151//139 135//124 180//169
l 141 155
l 55 56
l 102 103
