# Blender v2.78 (sub 0) OBJ File: 'exporter.blend'
# www.blender.org
o FJ2497.obj_grp1.1200
v -0.297878 -0.172739 6.018998
v -0.297323 -0.172825 6.019654
v -0.296357 -0.175387 6.017007
v -0.295979 -0.177398 6.016814
v -0.297301 -0.173553 6.019495
v -0.296359 -0.175381 6.017004
v -0.297100 -0.175862 6.025128
v -0.298406 -0.172516 6.021553
v -0.297324 -0.172838 6.019683
v -0.297562 -0.172407 6.020927
v -0.297817 -0.172758 6.022153
v -0.297215 -0.176025 6.025434
v -0.295904 -0.177357 6.016726
v -0.294850 -0.180600 6.018272
v -0.276714 -0.167366 6.016753
v -0.295390 -0.180688 6.018157
v -0.295143 -0.181111 6.021593
v -0.295097 -0.180326 6.018509
v -0.294979 -0.181003 6.019401
v -0.295197 -0.181280 6.021636
v -0.293944 -0.180370 6.024283
v -0.279164 -0.165251 6.024251
v -0.295536 -0.179460 6.025091
v -0.295977 -0.178527 6.025786
v -0.296034 -0.180022 6.025293
v -0.295845 -0.179642 6.025286
v -0.272129 -0.174691 6.028326
v -0.295985 -0.178737 6.025991
v -0.280911 -0.175360 6.016720
v -0.276903 -0.177236 6.019504
v -0.270158 -0.177247 6.023995
v -0.277717 -0.167277 6.028125
v -0.268967 -0.162535 6.020714
v -0.271512 -0.170556 6.029748
v -0.250933 -0.168868 6.012118
v -0.251324 -0.163569 6.012916
v -0.251716 -0.161334 6.014941
v -0.266734 -0.162652 6.025005
v -0.251493 -0.163395 6.027452
v -0.250789 -0.170648 6.012526
v -0.249210 -0.175591 6.020390
v -0.248885 -0.172722 6.026208
v -0.249520 -0.175580 6.018003
v -0.252618 -0.160083 6.016648
v -0.248522 -0.174398 6.024114
v -0.248614 -0.169724 6.027674
v -0.251428 -0.165967 6.013288
v -0.251571 -0.159656 6.020058
v -0.252075 -0.167982 6.011983
v -0.252075 -0.167982 6.011983
v -0.251232 -0.165962 6.012312
v -0.250925 -0.167628 6.012829
v -0.251189 -0.170426 6.012426
v -0.250935 -0.168884 6.012031
v -0.250935 -0.168884 6.012031
v -0.252075 -0.167982 6.011983
v -0.250925 -0.167628 6.012829
v -0.250925 -0.167628 6.012829
v -0.251658 -0.164852 6.012359
v -0.251205 -0.164737 6.012829
v -0.251232 -0.165962 6.012312
v -0.251317 -0.163592 6.012876
v -0.251526 -0.163616 6.013013
v -0.251205 -0.164737 6.012829
v -0.251007 -0.161045 6.016725
v -0.248551 -0.174197 6.024350
v -0.251007 -0.161045 6.016725
v -0.251716 -0.161334 6.014941
v -0.252465 -0.160485 6.016772
v -0.251716 -0.161334 6.014941
v -0.249910 -0.175377 6.018107
v -0.250205 -0.173146 6.014472
v -0.250205 -0.173146 6.014472
v -0.251232 -0.165962 6.012312
v -0.249685 -0.174432 6.016678
v -0.249735 -0.175748 6.020643
v -0.251007 -0.161045 6.016725
v -0.252465 -0.160485 6.016772
v -0.251162 -0.160137 6.017241
v -0.251162 -0.160137 6.017241
v -0.251162 -0.160137 6.017241
v -0.250635 -0.160179 6.020082
v -0.250562 -0.160211 6.020117
v -0.249335 -0.175823 6.020246
v -0.249332 -0.175073 6.018415
v -0.248939 -0.175656 6.020762
v -0.251092 -0.160006 6.022232
v -0.249411 -0.163034 6.025926
v -0.248885 -0.172722 6.026208
v -0.248358 -0.170079 6.027751
v -0.249411 -0.163034 6.025926
v -0.248997 -0.165140 6.027100
v -0.248804 -0.165173 6.027350
vn -0.9566 -0.1559 -0.2463
vn -0.9576 -0.2764 -0.0811
vn -0.9475 -0.1862 -0.2600
vn -0.0235 0.8257 -0.5636
vn -0.1054 0.4700 -0.8763
vn 0.6320 0.6711 -0.3876
vn -0.9172 -0.3977 -0.0219
vn -0.8143 -0.4987 -0.2971
vn -0.8539 0.1019 -0.5104
vn 0.0150 -0.1336 -0.9909
vn -0.1870 0.5054 -0.8423
vn -0.9352 -0.3396 -0.1004
vn -0.9668 -0.2555 0.0055
vn -0.4322 -0.9017 -0.0099
vn -0.4109 -0.9015 -0.1361
vn -0.4499 -0.8841 -0.1265
vn -0.3243 0.8096 0.4893
vn -0.3262 0.9222 0.2077
vn -0.3476 0.9344 -0.0778
vn -0.9372 -0.3467 -0.0381
vn -0.9158 -0.3997 -0.0388
vn 0.1288 -0.9914 0.0251
vn 0.0633 -0.8973 0.4368
vn 0.0235 -0.9495 0.3128
vn 0.0902 -0.6037 0.7921
vn -0.0654 -0.2727 0.9599
vn 0.0681 -0.6585 0.7495
vn -0.2342 0.5501 0.8016
vn -0.2753 0.4147 0.8673
vn 0.1480 -0.8861 -0.4393
vn 0.1706 -0.7846 -0.5960
vn 0.1150 -0.9690 0.2188
vn 0.0943 -0.3719 -0.9235
vn -0.2159 0.9570 -0.1938
vn -0.0041 0.0152 0.9999
vn -0.2214 -0.2839 -0.9330
vn 0.1608 0.5197 0.8391
vn -0.1934 0.2773 -0.9411
vn -0.2330 0.6944 -0.6808
vn -0.1355 0.8829 0.4495
vn -0.1788 -0.5003 -0.8472
vn -0.2581 0.8724 -0.4151
vn -0.1077 0.1135 -0.9877
vn 0.0268 -0.9374 -0.3471
vn -0.1615 0.9847 0.0651
vn 0.1131 -0.8792 0.4629
vn 0.2970 0.9286 0.2225
vn 0.0892 -0.1456 0.9853
vn -0.1186 0.0314 -0.9925
vn 0.6064 -0.1226 -0.7856
vn 0.4086 0.4880 -0.7713
vn 0.4086 0.4881 -0.7713
vn 0.9820 -0.1668 0.0886
vn 0.9887 0.0618 -0.1363
vn 0.9776 -0.0318 -0.2082
vn 0.6829 0.1847 -0.7068
vn 0.6831 0.1846 -0.7066
vn 0.6575 0.2690 -0.7038
vn 0.7031 0.0989 -0.7042
vn 0.9823 0.1558 -0.1038
vn 0.9447 0.2277 -0.2361
vn 0.9158 0.0910 -0.3911
vn 0.0946 -0.9859 0.1381
vn 0.3338 0.9002 -0.2796
vn 0.8259 0.4025 -0.3949
vn 0.1239 -0.6551 0.7454
vn 0.9793 -0.0735 -0.1887
vn -0.9672 -0.2541 0.0063
vn 0.8458 0.4817 0.2295
vn 0.9554 0.0920 -0.2805
vn 0.7591 0.0737 0.6468
vn 0.8575 -0.3419 -0.3844
vn 0.1585 0.5113 -0.8446
vn 0.9504 0.2599 -0.1708
vn 0.9789 0.1489 -0.1399
vn 0.0757 0.9970 0.0152
vn 0.2762 0.9610 -0.0148
vn 0.0423 0.9986 0.0302
vn 0.9196 -0.3766 -0.1120
vn 0.6610 -0.6948 -0.2833
vn 0.9801 0.1014 -0.1708
vn 0.9918 0.0254 -0.1252
vn 0.7116 -0.4945 0.4990
vn 0.4314 0.7464 0.5067
vn 0.9878 0.1058 -0.1146
vn 0.1803 0.2882 0.9404
s 1
f 3//1 4//2 5//3
f 2//4 6//5 1//6
f 4//2 7//7 5//3
f 5//3 8//8 9//9
f 8//8 5//3 7//7
f 13//10 6//5 15//11
f 4//2 18//12 17//13
f 16//14 19//15 17//16
f 11//17 22//18 10//19
f 4//2 23//20 7//7
f 23//20 24//21 7//7
f 17//13 23//20 4//2
f 20//22 21//23 25//24
f 27//25 28//26 26//27
f 32//28 11//17 12//29
f 22//18 11//17 32//28
f 6//5 2//4 15//11
f 30//30 20//22 14//31
f 15//11 2//4 10//19
f 21//23 20//22 31//32
f 21//23 27//25 26//27
f 31//32 27//25 21//23
f 12//29 28//26 32//28
f 29//33 13//10 15//11
f 29//33 30//30 14//31
f 14//31 13//10 29//33
f 33//34 10//19 22//18
f 33//34 15//11 10//19
f 34//35 32//28 28//26
f 28//26 27//25 34//35
f 30//30 31//32 20//22
f 15//11 35//36 29//33
f 35//36 30//30 29//33
f 39//37 32//28 34//35
f 36//38 15//11 37//39
f 37//39 15//11 33//34
f 38//40 22//18 32//28
f 39//37 38//40 32//28
f 40//41 30//30 35//36
f 22//18 38//40 33//34
f 44//42 37//39 33//34
f 15//11 36//38 47//43
f 43//44 30//30 40//41
f 48//45 44//42 33//34
f 45//46 27//25 31//32
f 33//34 87//47 48//45
f 87//47 33//34 38//40
f 27//25 46//48 34//35
f 49//49 15//11 47//43
f 50//50 51//50 52//50
f 35//36 15//11 49//49
f 55//51 56//52 57//51
f 54//53 58//54 53//55
f 59//56 60//57 61//58
f 59//56 62//59 60//57
f 63//60 65//61 66//62
f 43//44 41//63 31//32
f 31//32 30//30 43//44
f 67//64 68//64 69//64
f 65//61 63//60 70//65
f 42//66 46//48 27//25
f 71//67 53//55 58//54
f 43//44 40//41 72//68
f 53//55 71//67 73//69
f 74//70 64//71 58//54
f 63//60 66//62 58//54
f 63//60 58//54 64//71
f 43//44 72//68 75//72
f 77//73 78//73 79//73
f 81//74 82//75 65//61
f 65//61 82//75 66//62
f 44//76 83//77 80//78
f 71//67 58//54 66//62
f 71//67 66//62 76//79
f 84//80 85//80 86//80
f 45//46 31//32 41//63
f 83//77 44//76 87//47
f 88//81 66//62 82//75
f 42//66 27//25 45//46
f 66//62 90//82 89//83
f 38//40 39//37 87//47
f 87//47 91//84 83//77
f 87//47 39//37 91//84
f 66//62 88//81 90//82
f 88//81 92//85 90//82
f 39//37 93//86 91//84
f 34//35 93//86 39//37
f 34//35 46//48 93//86
l 4 16
