# Blender v2.78 (sub 0) OBJ File: 'exporter.blend'
# www.blender.org
o FJ2430.obj_grp1.1133
v 0.034232 -0.676968 5.588358
v 0.047660 -0.687832 5.573776
v 0.033461 -0.670981 5.588177
v 0.044229 -0.677539 5.574539
v 0.033793 -0.669854 5.588284
v 0.038599 -0.664244 5.586134
v 0.041111 -0.675790 5.596780
v 0.045645 -0.693173 5.562076
v 0.048417 -0.714940 5.566976
v 0.048147 -0.690543 5.571609
v 0.047718 -0.713196 5.574574
v 0.047994 -0.688153 5.573599
v 0.054448 -0.695388 5.576030
v 0.050096 -0.676920 5.568521
v 0.043510 -0.667759 5.595576
v 0.076974 -0.693018 5.586038
v 0.051902 -0.675088 5.568388
v 0.047051 -0.663390 5.588834
v 0.051902 -0.675088 5.568388
v 0.054669 -0.731389 5.573368
v 0.057134 -0.732375 5.573523
v 0.052246 -0.722363 5.578106
v 0.053403 -0.717442 5.576203
v 0.048165 -0.712133 5.574116
v 0.058829 -0.731292 5.581346
v 0.062658 -0.736556 5.582938
v 0.058829 -0.731292 5.581346
v 0.054952 -0.723465 5.579543
v 0.044704 -0.690962 5.560424
v 0.052166 -0.712367 5.576162
v 0.050706 -0.692624 5.573718
v 0.062882 -0.702500 5.577777
v 0.056482 -0.668445 5.563318
v 0.051902 -0.675088 5.568388
v 0.093425 -0.678021 5.557213
v 0.050169 -0.676956 5.567027
v 0.051902 -0.675088 5.568388
v 0.050153 -0.673788 5.564163
v 0.052362 -0.661593 5.557474
v 0.052728 -0.662497 5.560361
v 0.056482 -0.668445 5.563318
v 0.051902 -0.675088 5.568388
v 0.050127 -0.676919 5.568529
v 0.051909 -0.662589 5.557424
v 0.063331 -0.641534 5.551355
v 0.052728 -0.662497 5.560361
v 0.050153 -0.673788 5.564163
v 0.056482 -0.668445 5.563318
v 0.064904 -0.640967 5.551816
v 0.069367 -0.637869 5.557403
v 0.070001 -0.743972 5.575571
v 0.069901 -0.744346 5.575503
v 0.066897 -0.738803 5.582284
v 0.094926 -0.732020 5.572989
v 0.088410 -0.678163 5.558483
v 0.051902 -0.675088 5.568388
v 0.072447 -0.676581 5.565994
v 0.102939 -0.687979 5.562307
v 0.072753 -0.676561 5.565990
v 0.094499 -0.620366 5.542248
v 0.078197 -0.626537 5.555975
v 0.069325 -0.637271 5.556304
v 0.088716 -0.659758 5.553744
v 0.069147 -0.643944 5.597818
v 0.065204 -0.635781 5.587445
v 0.085658 -0.664218 5.567055
v 0.078431 -0.626367 5.547591
v 0.089925 -0.620413 5.544699
v 0.073466 -0.629207 5.591499
v 0.094275 -0.652224 5.556153
v 0.066735 -0.633051 5.596534
v 0.080320 -0.634953 5.595868
v 0.092486 -0.753019 5.575522
v 0.079196 -0.746127 5.582472
v 0.094926 -0.732020 5.572989
v 0.087227 -0.669882 5.558589
v 0.073812 -0.637508 5.600597
v 0.113723 -0.669797 5.574025
v 0.093140 -0.641719 5.578060
v 0.093278 -0.641680 5.578053
v 0.095447 -0.620515 5.560556
v 0.078964 -0.626790 5.555947
v 0.069367 -0.637869 5.557403
v 0.097919 -0.621317 5.561156
v 0.090279 -0.752231 5.577364
v 0.084658 -0.748404 5.585108
v 0.131734 -0.741739 5.557673
v 0.093870 -0.683118 5.557269
v 0.097924 -0.681666 5.556761
v 0.083473 -0.671403 5.557590
v 0.084172 -0.669497 5.557386
v 0.086323 -0.675168 5.558107
v 0.086323 -0.675168 5.558107
v 0.086404 -0.669985 5.559195
v 0.084178 -0.669389 5.556980
v 0.087571 -0.670632 5.557315
v 0.089346 -0.657247 5.553346
v 0.092770 -0.652016 5.556297
v 0.095253 -0.651455 5.553882
v 0.093370 -0.651111 5.556656
v 0.092915 -0.651560 5.552378
v 0.089512 -0.657126 5.553319
v 0.092621 -0.651619 5.552661
v 0.098446 -0.648122 5.552474
v 0.100808 -0.649246 5.553967
v 0.099720 -0.648812 5.553976
v 0.119741 -0.642862 5.549896
v 0.112935 -0.622272 5.538333
v 0.095902 -0.620572 5.560337
v 0.127394 -0.627221 5.557145
v 0.106733 -0.617710 5.557062
v 0.079196 -0.746127 5.582472
v 0.104338 -0.750271 5.579926
v 0.100758 -0.750371 5.579817
v 0.111683 -0.749480 5.577767
v 0.111753 -0.749209 5.578430
v 0.109412 -0.752399 5.571862
v 0.103771 -0.733582 5.569568
v 0.107169 -0.731844 5.569482
v 0.136503 -0.737537 5.562947
v 0.102061 -0.686738 5.562142
v 0.098482 -0.681435 5.557219
v 0.100020 -0.682530 5.559899
v 0.105433 -0.684906 5.563742
v 0.109838 -0.646028 5.552567
v 0.102465 -0.644977 5.560877
v 0.109838 -0.646028 5.552567
v 0.098660 -0.644042 5.568107
v 0.116872 -0.646371 5.552567
v 0.109838 -0.646028 5.552567
v 0.116872 -0.646371 5.552567
v 0.098660 -0.644042 5.568107
v 0.110712 -0.621504 5.539792
v 0.106812 -0.619156 5.556980
v 0.095666 -0.620433 5.560501
v 0.101032 -0.621776 5.560501
v 0.119806 -0.748037 5.564612
v 0.103804 -0.733616 5.569703
v 0.123013 -0.742021 5.569845
v 0.107028 -0.731682 5.568905
v 0.112098 -0.692476 5.561965
v 0.126864 -0.651309 5.547575
v 0.127417 -0.629205 5.536458
v 0.137426 -0.630987 5.554668
v 0.115490 -0.620424 5.557590
v 0.115490 -0.620424 5.557590
v 0.116560 -0.750488 5.568717
v 0.117746 -0.749954 5.568140
v 0.167633 -0.678829 5.538739
v 0.141023 -0.656269 5.546197
v 0.157649 -0.648695 5.532944
v 0.137411 -0.631217 5.554539
v 0.126363 -0.626724 5.556887
v 0.133047 -0.740093 5.557468
v 0.144271 -0.721260 5.544742
v 0.135927 -0.738750 5.560760
v 0.135710 -0.738878 5.562051
v 0.135710 -0.738878 5.562051
v 0.145172 -0.714204 5.550549
v 0.134825 -0.653643 5.547215
v 0.167670 -0.655485 5.548586
v 0.135918 -0.737436 5.562193
v 0.134163 -0.738771 5.561228
v 0.146328 -0.706428 5.539315
v 0.148469 -0.706547 5.546340
v 0.145823 -0.707505 5.539869
v 0.146121 -0.708101 5.540503
v 0.150192 -0.705603 5.544555
v 0.148415 -0.706537 5.546324
v 0.152278 -0.702619 5.536150
v 0.169498 -0.655486 5.547861
v 0.162077 -0.651480 5.532007
v 0.151639 -0.702836 5.537163
v 0.152226 -0.705239 5.545048
v 0.158399 -0.688224 5.532333
v 0.167727 -0.671336 5.538338
v 0.162981 -0.654596 5.532333
v 0.169240 -0.668473 5.540576
v 0.170419 -0.661022 5.545624
v 0.158399 -0.688224 5.532333
v 0.166669 -0.673173 5.533413
v 0.170576 -0.670221 5.538585
v 0.166669 -0.673173 5.533413
v 0.171758 -0.659741 5.545150
v 0.171758 -0.659741 5.545150
v 0.170957 -0.660594 5.545076
v 0.169317 -0.668257 5.540643
v 0.170364 -0.661114 5.545269
v 0.171758 -0.659741 5.545150
v 0.172652 -0.658441 5.548014
v 0.172706 -0.658412 5.548007
v 0.172652 -0.658441 5.548014
v 0.169195 -0.655650 5.548339
v 0.172652 -0.658441 5.548014
vn -0.7319 0.0898 -0.6755
vn -0.9104 -0.3964 -0.1184
vn -0.8917 -0.4402 0.1052
vn -0.7188 0.1515 -0.6785
vn -0.5125 0.8465 -0.1440
vn -0.9253 0.3727 -0.0708
vn -0.2971 -0.2540 0.9204
vn -0.0331 0.5090 0.8601
vn -0.9076 -0.3003 0.2933
vn -0.9829 0.1127 0.1453
vn -0.9578 -0.2705 -0.0970
vn -0.7817 -0.6119 0.1209
vn -0.6722 -0.6942 0.2574
vn -0.9232 0.3001 -0.2400
vn 0.2779 -0.0275 0.9602
vn -0.6414 0.4456 -0.6245
vn 0.2671 0.9428 0.1993
vn -0.0130 0.8685 -0.4955
vn -0.6471 -0.7612 -0.0422
vn -0.7148 -0.5327 0.4531
vn -0.0111 0.2974 0.9547
vn -0.0875 0.3599 0.9289
vn -0.2685 0.1300 0.9545
vn 0.0225 0.3559 0.9343
vn -0.7164 -0.6582 0.2314
vn -0.7070 -0.4949 -0.5052
vn -0.6070 0.0859 0.7901
vn -0.5694 0.0180 0.8218
vn -0.7122 -0.4668 0.5243
vn -0.3340 -0.4737 0.8149
vn 0.2296 0.2720 0.9345
vn 0.2605 0.4659 0.8456
vn 0.2354 0.3908 0.8899
vn -0.8307 0.4913 0.2619
vn -0.7130 0.6993 -0.0522
vn -0.8837 0.3840 0.2677
vn -0.8745 0.4305 0.2234
vn -0.5282 0.0509 -0.8476
vn -0.2342 -0.0910 -0.9679
vn -0.1776 -0.2500 -0.9518
vn -0.8609 0.4236 0.2819
vn -0.5425 0.7130 0.4442
vn -0.6809 0.5715 0.4580
vn -0.6192 0.5595 -0.5510
vn -0.2190 0.3201 0.9217
vn -0.1720 0.3494 0.9210
vn -0.7556 0.6183 0.2161
vn -0.2655 0.2897 0.9196
vn -0.4707 -0.8241 0.3151
vn -0.1020 0.0981 0.9899
vn 0.2031 0.3637 0.9091
vn 0.1654 0.3007 0.9393
vn -0.2227 0.0483 0.9737
vn -0.0664 -0.0360 0.9971
vn 0.1376 -0.2026 0.9695
vn 0.0636 0.9952 -0.0747
vn 0.3440 0.6889 0.6380
vn 0.3248 0.9383 -0.1187
vn -0.6356 0.7684 -0.0749
vn 0.2550 -0.0904 0.9627
vn 0.2194 0.1304 0.9669
vn -0.5685 -0.5180 0.6391
vn -0.8867 0.2864 -0.3629
vn -0.6761 -0.7014 0.2254
vn -0.3295 0.9441 -0.0120
vn 0.0108 0.9985 0.0538
vn -0.4938 0.6964 -0.5207
vn -0.6526 0.5441 0.5274
vn 0.1237 0.1373 0.9828
vn 0.7000 0.3553 0.6195
vn -0.4406 -0.8241 0.3560
vn -0.0860 -0.9777 -0.1914
vn -0.1435 -0.3257 -0.9345
vn 0.3112 0.3854 0.8687
vn 0.2419 0.3011 0.9224
vn -0.2229 -0.0900 -0.9707
vn -0.8355 -0.0510 -0.5471
vn 0.4342 -0.1354 0.8906
vn 0.1531 0.8991 -0.4100
vn 0.6728 0.4719 0.5697
vn -0.4074 0.1803 -0.8953
vn -0.2351 0.9626 0.1342
vn -0.3306 0.2791 0.9016
vn -0.3495 0.4122 0.8414
vn -0.3461 0.2659 0.8998
vn -0.3407 -0.9274 0.1540
vn 0.2451 0.4868 0.8384
vn -0.1540 -0.4598 -0.8746
vn 0.2768 -0.0555 0.9593
vn 0.2333 0.5655 0.7911
vn -0.2074 -0.4605 0.8631
vn -0.4788 -0.6351 0.6061
vn 0.0757 0.1232 0.9895
vn 0.0555 0.0746 0.9957
vn 0.2059 0.2566 0.9443
vn 0.1829 0.1800 0.9665
vn -0.5675 -0.6517 0.5032
vn -0.6003 0.6728 -0.4324
vn -0.8228 0.2894 0.4891
vn -0.7571 0.5659 -0.3263
vn -0.0004 0.2936 0.9559
vn -0.1853 0.3467 0.9195
vn -0.3089 -0.4860 0.8175
vn -0.5243 0.8483 -0.0737
vn -0.5978 0.7986 -0.0702
vn -0.8501 0.5250 0.0406
vn 0.1266 -0.0404 0.9911
vn 0.1066 -0.0555 0.9928
vn 0.1971 -0.1058 0.9747
vn 0.0130 -0.3576 0.9338
vn -0.3063 0.1942 0.9319
vn 0.1560 0.9852 -0.0707
vn -0.0382 -0.6833 0.7291
vn 0.1912 -0.8523 0.4869
vn 0.1667 -0.5190 0.8384
vn 0.2403 -0.5617 0.7917
vn 0.2271 -0.5292 0.8176
vn 0.1757 -0.9844 -0.0122
vn 0.2240 -0.2102 0.9517
vn 0.1661 -0.1870 0.9682
vn 0.4601 -0.0283 0.8874
vn -0.4991 -0.0553 0.8648
vn -0.3692 0.4653 0.8044
vn -0.8065 -0.3994 0.4359
vn -0.3670 0.8709 -0.3269
vn -0.2505 0.9566 0.1489
vn -0.2447 0.9205 -0.3045
vn -0.3987 0.8258 -0.3989
vn -0.3716 0.8499 -0.3735
vn 0.0402 0.9944 -0.0972
vn -0.3407 0.8775 -0.3376
vn 0.0485 0.9954 -0.0830
vn 0.3225 0.6753 0.6634
vn -0.1194 0.9449 -0.3048
vn 0.2697 0.9574 -0.1031
vn 0.1115 0.7032 0.7022
vn 0.1613 0.6492 0.7433
vn 0.1116 0.7032 0.7022
vn 0.0926 -0.7524 -0.6522
vn 0.2313 0.4301 0.8727
vn 0.2550 0.5540 0.7925
vn 0.3190 0.3242 0.8906
vn 0.1332 0.2708 0.9534
vn 0.2668 0.5417 0.7971
vn -0.0032 -0.3285 0.9445
vn 0.4727 0.8598 -0.1932
vn 0.4445 0.8915 -0.0877
vn 0.0611 0.7523 0.6560
vn 0.1798 0.2491 0.9516
vn 0.0801 -0.9080 -0.4113
vn 0.4834 -0.8671 0.1202
vn 0.3018 0.4804 0.8235
vn 0.4953 0.2055 0.8441
vn 0.4142 0.0010 0.9102
vn -0.1698 -0.0467 -0.9844
vn -0.2131 -0.1127 -0.9705
vn 0.3852 0.8644 0.3230
vn 0.5967 -0.7651 -0.2421
vn 0.5547 -0.5456 -0.6282
vn 0.6819 -0.7089 0.1803
vn 0.4361 0.3213 0.8406
vn 0.4674 -0.7103 0.5263
vn 0.8395 -0.0420 0.5417
vn 0.8150 -0.5042 -0.2856
vn 0.1339 -0.1377 0.9814
vn 0.5460 0.8343 -0.0768
vn 0.7950 -0.4330 0.4248
vn 0.1877 -0.7296 0.6576
vn -0.2370 -0.3174 -0.9182
vn 0.9228 -0.2296 -0.3094
vn 0.6240 -0.7761 -0.0916
vn 0.4344 -0.8999 -0.0394
vn 0.5151 -0.8310 -0.2099
vn -0.2517 -0.1553 -0.9553
vn -0.1188 -0.4526 0.8838
vn 0.2962 0.1673 0.9404
vn 0.8041 -0.5804 -0.1284
vn -0.1205 -0.1092 -0.9867
vn 0.9651 -0.1228 -0.2315
vn 0.3311 -0.0102 0.9435
vn -0.0362 -0.0077 -0.9993
vn 0.1803 -0.3499 0.9193
vn -0.2117 -0.4696 0.8571
vn 0.6937 0.6918 -0.2006
vn 0.8907 -0.4313 -0.1435
vn 0.9721 -0.2130 -0.0979
vn 0.6424 -0.3002 0.7052
vn 0.1710 -0.0233 -0.9850
vn 0.4336 -0.5130 0.7408
vn 0.8462 0.1814 -0.5011
vn 0.7023 -0.7047 0.1005
vn 0.7028 -0.7044 0.1000
vn 0.7025 -0.7045 0.1006
vn 0.7136 0.6705 -0.2030
vn -0.4158 -0.3891 0.8220
s 1
f 4//1 2//2 1//3
f 1//3 3//4 4//1
f 6//5 4//1 3//4
f 5//6 6//5 3//4
f 1//3 7//7 5//6
f 5//6 7//7 15//8
f 5//6 15//8 6//5
f 10//9 8//10 11//11
f 8//10 10//9 2//2
f 12//12 13//13 2//2
f 2//2 4//1 14//14
f 2//2 13//13 1//3
f 1//3 13//13 7//7
f 16//15 15//8 7//7
f 17//16 4//1 6//5
f 18//17 6//5 15//8
f 18//17 19//18 6//5
f 20//19 21//20 11//11
f 22//21 23//22 24//23
f 23//22 22//21 25//24
f 21//20 26//25 11//11
f 8//10 9//26 20//19
f 20//19 11//11 8//10
f 24//23 31//27 10//28
f 23//22 31//27 24//23
f 10//29 13//13 12//12
f 7//7 13//13 32//30
f 33//31 34//32 35//33
f 14//14 36//34 2//2
f 36//34 14//14 37//35
f 2//2 38//36 8//10
f 8//10 38//36 39//37
f 44//38 45//39 29//40
f 38//36 40//41 39//37
f 41//42 38//36 42//43
f 2//2 36//34 38//36
f 17//16 43//44 4//1
f 38//36 36//34 42//43
f 16//15 18//17 15//8
f 46//45 47//46 48//45
f 39//37 40//41 49//47
f 50//48 46//45 48//45
f 52//49 26//25 21//20
f 53//50 28//51 27//52
f 32//30 31//53 30//54
f 54//55 32//30 30//54
f 7//7 32//30 16//15
f 55//56 56//56 57//56
f 18//17 16//15 58//57
f 18//17 59//58 19//18
f 40//41 61//59 49//47
f 62//60 33//31 63//61
f 64//62 65//63 66//64
f 61//59 68//65 49//47
f 65//63 69//66 70//67
f 65//63 64//62 71//68
f 71//68 64//62 77//69
f 71//68 69//66 65//63
f 71//68 72//70 69//66
f 72//70 71//68 77//69
f 74//71 52//49 73//72
f 20//19 9//26 29//40
f 51//73 20//19 73//72
f 26//25 52//49 74//71
f 75//74 30//75 28//51
f 29//40 45//39 60//76
f 76//77 65//63 70//67
f 77//69 64//62 78//78
f 69//66 79//79 70//67
f 80//80 69//66 72//70
f 72//70 77//69 80//80
f 45//39 67//81 60//76
f 81//82 68//65 61//59
f 82//83 83//84 84//85
f 85//86 74//71 73//72
f 53//50 86//87 28//51
f 20//19 29//40 87//88
f 54//55 16//15 32//30
f 16//15 141//89 58//57
f 88//90 35//91 59//58
f 35//91 88//90 89//92
f 59//58 18//17 58//57
f 90//93 91//94 33//31
f 91//94 63//61 33//31
f 92//95 90//93 33//31
f 91//94 90//93 93//96
f 92//95 33//31 35//33
f 91//94 93//96 35//91
f 91//94 35//91 94//97
f 35//91 66//64 94//97
f 99//98 97//99 98//100
f 66//64 65//63 76//77
f 95//101 96//102 97//99
f 97//99 96//102 98//100
f 64//62 124//103 78//78
f 100//104 101//105 102//106
f 103//107 62//60 63//61
f 104//108 62//60 103//107
f 78//78 80//80 77//69
f 107//109 84//110 62//60
f 82//83 84//85 109//111
f 68//65 81//82 111//112
f 112//113 85//86 113//114
f 115//115 86//116 114//117
f 117//118 85//86 73//72
f 73//72 20//19 87//88
f 28//51 86//87 75//74
f 16//15 54//55 118//119
f 16//15 118//119 119//120
f 120//121 141//89 16//15
f 88//90 59//58 58//57
f 88//90 121//122 122//123
f 58//57 121//122 88//90
f 35//91 89//92 123//124
f 123//124 124//103 35//91
f 123//124 122//123 121//122
f 123//124 121//122 124//103
f 66//64 35//91 124//103
f 124//103 64//62 66//64
f 101//105 100//104 106//125
f 104//108 107//109 62//60
f 101//105 125//126 107//109
f 106//125 125//126 101//105
f 126//127 105//128 70//67
f 126//127 70//67 128//129
f 126//127 128//129 129//130
f 127//131 105//128 126//127
f 129//130 130//132 126//127
f 131//133 132//134 80//80
f 128//129 70//67 79//79
f 68//65 111//112 133//135
f 134//136 135//137 136//138
f 117//118 73//72 137//139
f 117//118 113//114 85//86
f 86//87 138//140 75//74
f 86//87 116//141 139//142
f 140//143 138//140 139//142
f 139//142 138//140 86//87
f 16//15 119//120 120//121
f 141//89 124//103 121//122
f 78//78 124//103 141//89
f 125//126 131//133 107//109
f 131//133 80//80 142//144
f 107//109 110//145 84//110
f 133//135 111//112 144//146
f 144//146 143//147 133//135
f 145//148 134//136 136//138
f 110//145 146//149 84//110
f 137//139 147//150 117//118
f 148//151 113//114 117//118
f 73//72 87//88 137//139
f 139//152 120//121 119//120
f 150//153 80//80 78//78
f 149//154 150//153 78//78
f 107//109 131//133 142//144
f 80//80 150//153 142//144
f 151//155 60//76 108//156
f 144//146 111//112 153//157
f 137//139 154//158 148//151
f 155//159 154//158 87//88
f 156//160 148//151 154//158
f 147//150 137//139 148//151
f 157//161 139//142 116//141
f 139//152 158//162 120//121
f 156//160 113//114 148//151
f 155//159 87//88 29//40
f 141//89 120//121 159//163
f 159//163 78//78 141//89
f 159//163 149//154 78//78
f 149//154 159//163 165//164
f 107//109 142//144 160//165
f 160//165 150//153 107//109
f 143//147 144//146 161//166
f 154//158 155//159 156//160
f 156//160 162//167 163//168
f 155//159 162//167 156//160
f 155//159 29//40 164//169
f 155//159 165//164 159//163
f 162//167 155//159 159//163
f 165//164 155//159 167//170
f 168//171 169//172 166//173
f 170//174 164//169 29//40
f 170//174 29//40 60//76
f 171//175 152//176 110//145
f 171//175 110//145 107//109
f 166//173 173//177 168//171
f 170//174 60//76 175//178
f 176//179 168//171 173//177
f 174//180 149//154 165//164
f 177//181 175//178 60//76
f 151//155 177//181 60//76
f 150//153 149//154 178//182
f 150//153 178//182 107//109
f 178//182 179//183 107//109
f 172//184 143//147 161//166
f 176//179 173//177 180//185
f 181//186 176//179 180//185
f 182//187 178//182 149//154
f 175//178 177//181 183//188
f 176//179 181//186 172//184
f 178//182 182//187 184//189
f 176//179 172//184 185//190
f 171//175 107//109 179//183
f 190//191 188//192 189//193
f 191//194 185//190 172//184
f 179//183 192//195 171//175
f 191//194 172//184 161//166
l 186 187
l 193 194
