# Blender v2.78 (sub 0) OBJ File: 'exporter.blend'
# www.blender.org
o FJ2484.obj_grp1.1187
v 0.228396 -0.220464 5.765973
v 0.228885 -0.214072 5.764890
v 0.233039 -0.217876 5.765046
v 0.226563 -0.219618 5.763707
v 0.230932 -0.220653 5.762968
v 0.226472 -0.215379 5.765563
v 0.226145 -0.215257 5.765620
v 0.231065 -0.215586 5.763994
v 0.231266 -0.215171 5.763870
v 0.233039 -0.217876 5.765046
v 0.231464 -0.220639 5.763164
v 0.233039 -0.217876 5.765046
v 0.236423 -0.220689 5.805895
v 0.235665 -0.241604 5.823354
v 0.240221 -0.233828 5.830471
v 0.248640 -0.226905 5.823903
v 0.240354 -0.224499 5.789190
v 0.237051 -0.233445 5.796782
v 0.236448 -0.232179 5.793039
v 0.239558 -0.249310 5.830801
v 0.257505 -0.244331 5.826433
v 0.245876 -0.250488 5.822542
v 0.239276 -0.251209 5.853493
v 0.234058 -0.267890 5.862554
v 0.239995 -0.274717 5.858930
v 0.234058 -0.267890 5.862554
v 0.237861 -0.261520 5.869682
v 0.235989 -0.274864 5.859386
v 0.234058 -0.267890 5.862554
v 0.241120 -0.258777 5.868870
v 0.251234 -0.259371 5.871874
v 0.241983 -0.277085 5.855981
v 0.253290 -0.278334 5.858526
v 0.241983 -0.277085 5.855981
v 0.251861 -0.278478 5.858000
v 0.239239 -0.275824 5.858610
v 0.251861 -0.278478 5.858000
v 0.249538 -0.257964 5.873084
v 0.259358 -0.270278 5.865016
v 0.259431 -0.270686 5.864842
vn -0.1369 -0.1221 -0.9830
vn -0.1078 -0.1581 -0.9815
vn -0.1534 -0.2184 -0.9637
vn -0.1894 -0.1499 -0.9704
vn -0.3854 0.8721 0.3014
vn 0.1403 0.9893 0.0392
vn -0.7344 0.6370 0.2344
vn -0.7247 -0.6861 -0.0635
vn -0.2832 -0.9258 -0.2503
vn -0.9624 -0.2704 0.0237
vn -0.6257 0.6155 0.4792
vn 0.8554 0.4956 -0.1504
vn 0.4754 0.7993 0.3677
vn 0.8842 0.4368 -0.1657
vn 0.9367 -0.0938 -0.3373
vn -0.2657 -0.9137 -0.3074
vn 0.8732 -0.3698 -0.3173
vn 0.6455 -0.5631 -0.5160
vn 0.8789 -0.3637 -0.3086
vn -0.1872 -0.7948 -0.5773
vn -0.7997 -0.5208 -0.2986
vn -0.9499 0.2893 0.1179
vn -0.9305 0.3491 0.1114
vn -0.8011 -0.4433 -0.4022
vn -0.7849 -0.4658 -0.4086
vn -0.9228 0.3615 0.1335
vn -0.1237 -0.5348 0.8359
vn -0.3194 -0.3525 0.8796
vn -0.2011 -0.4550 0.8675
vn -0.1576 -0.5257 0.8359
vn 0.9700 -0.0710 -0.2324
vn 0.5705 -0.6252 -0.5326
vn -0.6059 -0.6059 -0.5156
vn -0.1866 -0.9475 0.2597
vn -0.0613 -0.5987 0.7986
vn -0.3430 0.8037 0.4862
vn 0.2968 0.7962 0.5272
vn 0.9956 0.0512 -0.0780
vn -0.1242 -0.5874 0.7997
s 1
f 2//1 3//2 1//3
f 2//1 1//3 6//4
f 13//5 8//6 7//7
f 4//8 5//9 14//10
f 4//8 14//10 7//7
f 7//7 14//10 15//11
f 9//12 16//13 10//14
f 13//5 16//13 8//6
f 17//15 10//14 16//13
f 14//10 5//9 18//16
f 12//17 19//18 11//19
f 19//18 12//17 17//15
f 15//11 13//5 7//7
f 22//20 20//21 14//10
f 15//11 16//13 13//5
f 14//10 23//22 15//11
f 14//10 20//21 23//22
f 23//22 20//21 24//23
f 20//21 22//20 25//24
f 25//24 26//25 20//21
f 27//26 23//22 24//23
f 28//27 30//28 29//29
f 31//30 30//28 28//27
f 17//15 21//31 19//18
f 14//10 18//16 22//20
f 22//20 19//18 21//31
f 17//15 16//13 21//31
f 22//20 33//32 32//33
f 22//20 21//31 33//32
f 22//20 32//33 25//24
f 34//34 35//34 36//34
f 28//27 37//35 31//30
f 16//13 15//11 27//36
f 38//37 16//13 27//36
f 21//31 39//38 33//32
f 37//35 40//39 31//30
f 39//38 16//13 38//37
f 21//31 16//13 39//38
