# Blender v2.78 (sub 0) OBJ File: 'exporter.blend'
# www.blender.org
o FJ2463.obj_grp1.1166
v 0.176724 -0.432490 6.303365
v 0.183243 -0.429518 6.305182
v 0.180179 -0.430319 6.303802
v 0.184474 -0.429358 6.305012
v 0.186712 -0.430938 6.305163
v 0.180544 -0.442099 6.309029
v 0.177673 -0.430921 6.303816
v 0.175708 -0.438876 6.306582
v 0.181180 -0.442112 6.309793
v 0.171837 -0.422665 6.323472
v 0.175303 -0.437777 6.305773
v 0.180362 -0.408394 6.328168
v 0.180627 -0.416380 6.324007
v 0.172905 -0.424869 6.327556
v 0.177883 -0.428909 6.326907
v 0.172694 -0.417783 6.331823
v 0.174158 -0.404618 6.336286
v 0.183031 -0.389060 6.337094
v 0.172142 -0.411610 6.330279
v 0.181487 -0.441605 6.309254
v 0.187984 -0.436929 6.308825
v 0.183043 -0.420020 6.326154
v 0.187440 -0.431891 6.310374
v 0.187959 -0.436994 6.308825
v 0.188039 -0.436968 6.308810
v 0.183235 -0.420392 6.325955
v 0.180101 -0.424285 6.330804
v 0.182208 -0.410615 6.330932
v 0.185148 -0.390835 6.335337
v 0.183547 -0.390867 6.340740
v 0.182859 -0.397015 6.336871
v 0.181566 -0.392307 6.335824
v 0.183524 -0.390659 6.340326
v 0.184988 -0.392168 6.337202
v 0.183524 -0.390659 6.340326
v 0.186582 -0.393313 6.339997
vn 0.2321 -0.4232 -0.8758
vn 0.2187 -0.3955 -0.8921
vn 0.1568 -0.3953 -0.9051
vn 0.2394 -0.4187 -0.8760
vn -0.7687 0.4576 -0.4470
vn -0.9748 0.1602 -0.1554
vn -0.5222 0.5577 -0.6452
vn 0.8979 0.2668 -0.3502
vn 0.2934 0.7843 -0.5466
vn -0.9886 -0.0155 -0.1498
vn -0.9658 -0.2232 0.1320
vn -0.2434 -0.7438 0.6225
vn -0.6530 -0.6305 0.4197
vn -0.6719 -0.6439 0.3660
vn -0.7138 -0.3111 0.6274
vn -0.8841 0.1180 0.4521
vn -0.7891 0.5032 -0.3522
vn -0.9697 -0.0311 0.2422
vn -0.3875 0.1983 0.9003
vn 0.8849 0.3776 -0.2729
vn 0.9764 0.2128 -0.0379
vn 0.2875 -0.4515 -0.8447
vn 0.9814 0.1521 -0.1167
vn 0.8692 -0.1564 0.4691
vn 0.0525 -0.2654 0.9627
vn 0.5089 -0.6562 0.5572
vn 0.5202 -0.6395 0.5661
vn 0.9888 -0.1174 -0.0925
vn 0.9861 -0.1664 -0.0032
vn -0.3362 0.4321 -0.8368
vn 0.8980 0.1583 -0.4105
vn 0.8876 0.1530 -0.4345
vn 0.8866 0.1455 -0.4391
vn 0.9350 -0.2506 0.2510
s 1
f 5//1 6//2 7//3
f 6//2 11//4 7//3
f 1//5 10//6 12//7
f 13//8 1//5 12//7
f 13//8 2//9 1//5
f 8//10 10//6 1//5
f 10//6 8//10 14//11
f 15//12 8//13 9//14
f 15//12 16//15 8//13
f 10//6 17//16 12//7
f 16//15 10//6 14//11
f 17//16 18//17 12//7
f 19//18 16//15 17//16
f 16//15 30//19 17//16
f 30//19 16//15 15//12
f 16//15 19//18 10//6
f 2//9 22//20 23//21
f 6//2 5//1 24//22
f 2//9 23//21 25//23
f 22//20 2//9 13//8
f 23//21 26//24 27//25
f 23//21 27//25 25//23
f 21//26 27//25 20//27
f 28//28 22//20 13//8
f 29//29 28//28 13//8
f 20//27 27//25 15//12
f 12//7 18//17 29//30
f 30//19 18//17 17//16
f 31//31 32//32 33//33
f 29//29 34//34 28//28
f 28//28 34//34 27//25
f 30//19 27//25 34//34
f 27//25 30//19 15//12
f 28//28 27//25 26//24
l 35 36
l 3 4
