# Blender v2.78 (sub 0) OBJ File: 'exporter.blend'
# www.blender.org
o FJ2498.obj_grp1.1201
v -0.367987 -0.176968 5.900687
v -0.365690 -0.179977 5.894728
v -0.367703 -0.172650 5.906563
v -0.365442 -0.182809 5.900805
v -0.369516 -0.178496 5.907857
v -0.372232 -0.173692 5.921114
v -0.371315 -0.178138 5.920573
v -0.371654 -0.172558 5.920752
v -0.372174 -0.174914 5.921330
v -0.371213 -0.172008 5.921115
v -0.371592 -0.172589 5.920767
v -0.372080 -0.173608 5.921095
v -0.371178 -0.172591 5.921189
v -0.372080 -0.173608 5.921095
v -0.372026 -0.175022 5.921330
v -0.371178 -0.172591 5.921189
v -0.371204 -0.172081 5.921095
v -0.367681 -0.169621 5.921732
v -0.371204 -0.172081 5.921095
v -0.370850 -0.177824 5.921941
v -0.362548 -0.182910 5.890543
v -0.362095 -0.179064 5.887187
v -0.362944 -0.176053 5.889885
v -0.364617 -0.174308 5.895414
v -0.362416 -0.184062 5.894388
v -0.359779 -0.172296 5.894283
v -0.359637 -0.184680 5.897292
v -0.369457 -0.170535 5.921399
v -0.367535 -0.169860 5.921284
v -0.369094 -0.179750 5.922511
v -0.366832 -0.179991 5.923071
v -0.364555 -0.170512 5.920888
v -0.364709 -0.171137 5.922269
v -0.367623 -0.180049 5.922900
v -0.370850 -0.177824 5.921941
v -0.369103 -0.179730 5.922504
v -0.356103 -0.180789 5.878269
v -0.355262 -0.176269 5.879697
v -0.358345 -0.183101 5.882702
v -0.357260 -0.174126 5.885232
v -0.355635 -0.185711 5.882446
v -0.357429 -0.183736 5.898470
v -0.361186 -0.171700 5.905722
v -0.365387 -0.179698 5.923114
v -0.357701 -0.173068 5.900521
v -0.363771 -0.171092 5.922410
v -0.362900 -0.172941 5.922974
v -0.365365 -0.179689 5.923150
v -0.363810 -0.177854 5.923396
v -0.363414 -0.177549 5.923536
v -0.363825 -0.170722 5.922596
v -0.363771 -0.171092 5.922410
v -0.348305 -0.180006 5.869792
v -0.348286 -0.188565 5.878675
v -0.356666 -0.181321 5.902191
v -0.352760 -0.175406 5.894426
v -0.357920 -0.175700 5.907694
v -0.357757 -0.178772 5.906980
v -0.362189 -0.175092 5.923466
v -0.362331 -0.175254 5.923396
v -0.341625 -0.184464 5.862142
v -0.340636 -0.191785 5.866155
v -0.346637 -0.177077 5.870788
v -0.343894 -0.174891 5.873794
v -0.348863 -0.186737 5.885262
v -0.351060 -0.174007 5.888345
v -0.350757 -0.183099 5.891993
v -0.350884 -0.178878 5.893787
v -0.337947 -0.191314 5.859530
v -0.342587 -0.190672 5.874467
v -0.340625 -0.189165 5.877861
v -0.344037 -0.185992 5.883446
v -0.345010 -0.177663 5.885809
v -0.335352 -0.182576 5.857707
v -0.339455 -0.177118 5.866529
v -0.337163 -0.193437 5.869890
v -0.335635 -0.176519 5.870815
v -0.333264 -0.185797 5.876521
v -0.342285 -0.182618 5.884165
v -0.325102 -0.199768 5.843136
v -0.334264 -0.196675 5.858882
v -0.331201 -0.178884 5.870955
v -0.325094 -0.182900 5.868224
v -0.325311 -0.206543 5.851045
v -0.323957 -0.207743 5.852413
v -0.330896 -0.199669 5.860394
v -0.326015 -0.184773 5.852187
v -0.333107 -0.178622 5.862150
v -0.330589 -0.196728 5.866750
v -0.331854 -0.190113 5.873857
v -0.326234 -0.202763 5.845418
v -0.325913 -0.205264 5.847823
v -0.325651 -0.206247 5.849491
v -0.326234 -0.202763 5.845418
v -0.324996 -0.199639 5.843118
v -0.321741 -0.195025 5.841897
v -0.325539 -0.206371 5.849547
v -0.323777 -0.207062 5.851756
v -0.325356 -0.206587 5.851051
v -0.325533 -0.206366 5.849549
v -0.323777 -0.207062 5.851756
v -0.323606 -0.196966 5.842258
v -0.323901 -0.183239 5.854806
v -0.328663 -0.179503 5.861733
v -0.327066 -0.196437 5.867389
v -0.326764 -0.180059 5.864208
v -0.321782 -0.187263 5.867244
v -0.320018 -0.193181 5.842447
v -0.323587 -0.196964 5.842273
v -0.321741 -0.195020 5.841901
v -0.317690 -0.192086 5.843096
v -0.325356 -0.206587 5.851051
v -0.323957 -0.207743 5.852413
v -0.320179 -0.208020 5.856216
v -0.320179 -0.208020 5.856216
v -0.322770 -0.207939 5.854197
v -0.323957 -0.207743 5.852413
v -0.322770 -0.207939 5.854197
v -0.312686 -0.203345 5.859033
v -0.320011 -0.193187 5.842461
v -0.317481 -0.192011 5.843228
v -0.320179 -0.208020 5.856216
v -0.319832 -0.184383 5.857253
v -0.316807 -0.206277 5.858563
v -0.318523 -0.186166 5.861273
v -0.313519 -0.190877 5.846120
v -0.312689 -0.191430 5.847249
v -0.313511 -0.190875 5.846123
v -0.310677 -0.191594 5.849911
v -0.309736 -0.198861 5.857629
v -0.312686 -0.203359 5.859030
v -0.316807 -0.206277 5.858563
v -0.309949 -0.199323 5.857905
v -0.312689 -0.191430 5.847249
v -0.310641 -0.191920 5.849784
v -0.310641 -0.191920 5.849784
v -0.308887 -0.194862 5.854425
v -0.309492 -0.193300 5.852882
v -0.309712 -0.192919 5.852463
v -0.309251 -0.195718 5.854901
v -0.309026 -0.195010 5.854667
v -0.309780 -0.198419 5.857483
v -0.309277 -0.197270 5.856591
v -0.309323 -0.196404 5.856216
v -0.309277 -0.197270 5.856591
v -0.308751 -0.197138 5.856614
vn -0.5894 -0.8049 -0.0683
vn -0.9464 -0.2844 -0.1529
vn -0.9152 -0.2185 -0.3386
vn -0.9473 0.1344 -0.2908
vn -0.9660 0.0755 -0.2472
vn -0.8325 -0.5402 0.1233
vn -0.8207 0.5178 -0.2415
vn -0.6562 0.7174 -0.2340
vn -0.9796 -0.1531 -0.1298
vn -0.6734 0.2923 0.6791
vn -0.6127 0.4922 0.6183
vn -0.6733 0.2925 0.6791
vn -0.2533 0.1492 0.9558
vn -0.2163 0.1281 0.9679
vn -0.2910 0.1585 0.9435
vn -0.7021 0.0788 0.7077
vn -0.1695 0.0868 0.9817
vn -0.2712 0.1399 0.9523
vn -0.8170 -0.4328 0.3810
vn -0.7559 -0.5610 -0.3374
vn -0.8519 0.0158 -0.5235
vn -0.7779 0.4447 -0.4440
vn -0.5061 -0.8585 -0.0829
vn -0.6709 0.6655 -0.3272
vn -0.0981 0.9820 -0.1616
vn -0.0276 -0.9861 0.1637
vn -0.4682 0.8595 -0.2052
vn -0.0779 0.9890 -0.1256
vn -0.4371 -0.8871 0.1480
vn -0.0283 -0.9822 0.1857
vn -0.6501 0.7344 -0.1947
vn 0.3479 0.9371 -0.0286
vn -0.1680 0.1865 0.9680
vn -0.1884 0.1224 0.9744
vn -0.2283 0.0965 0.9688
vn -0.2295 0.0718 0.9706
vn -0.7894 -0.0014 -0.6139
vn -0.5999 0.5907 -0.5396
vn -0.3857 0.8481 -0.3634
vn -0.7663 -0.4452 -0.4632
vn -0.5352 -0.8094 -0.2415
vn 0.4452 -0.8424 0.3035
vn 0.4055 -0.8528 0.3292
vn 0.3017 0.9534 -0.0073
vn 0.5229 0.8447 0.1141
vn 0.7689 0.6206 0.1536
vn -0.1948 0.1689 0.9662
vn -0.0767 -0.0230 0.9968
vn -0.1089 -0.0334 0.9935
vn 0.7827 -0.5480 0.2950
vn 0.2113 0.9773 0.0162
vn -0.1691 0.2075 0.9635
vn -0.2298 -0.9663 0.1158
vn 0.7597 0.5242 0.3848
vn 0.9183 0.2728 0.2868
vn 0.8839 -0.2750 0.3783
vn 0.5300 -0.7011 0.4770
vn 0.9639 -0.0321 0.2642
vn -0.1946 0.1173 0.9739
vn -0.6681 0.3091 -0.6768
vn -0.7029 0.1111 -0.7026
vn -0.7944 -0.3914 -0.4644
vn -0.6193 -0.7649 -0.1771
vn -0.4155 0.7263 -0.5476
vn -0.0340 0.9759 -0.2157
vn 0.2396 -0.8841 0.4012
vn 0.6665 -0.4923 0.5598
vn 0.4343 0.8750 0.2138
vn 0.8239 0.0495 0.5646
vn -0.1943 -0.9562 0.2191
vn 0.1242 -0.8483 0.5147
vn 0.4305 -0.5992 0.6750
vn 0.7035 0.4319 0.5644
vn -0.7386 -0.6668 -0.0996
vn -0.4142 0.5812 -0.7004
vn -0.1547 0.8730 -0.4625
vn -0.2929 -0.9025 0.3156
vn 0.2923 0.9547 0.0556
vn 0.6759 -0.1558 0.7203
vn 0.5951 -0.1726 0.7849
vn -0.0010 0.9040 -0.4275
vn 0.5616 0.7497 0.3501
vn -0.7656 0.0193 -0.6431
vn -0.6651 -0.7295 0.1597
vn -0.5933 -0.7758 0.2148
vn -0.7670 -0.6413 0.0186
vn -0.0850 0.7553 -0.6499
vn -0.1697 -0.8176 0.5503
vn 0.2926 -0.5661 0.7707
vn 0.6782 0.5677 0.4666
vn -0.8246 -0.2994 -0.4801
vn -0.8419 -0.4953 -0.2142
vn 0.4736 -0.6280 -0.6175
vn 0.4612 -0.6375 -0.6172
vn 0.4730 -0.5722 -0.6700
vn -0.9838 -0.1186 0.1346
vn -0.2390 -0.9643 -0.1138
vn -0.6186 0.2689 -0.7382
vn 0.2270 0.8883 -0.3992
vn 0.2727 0.9373 -0.2169
vn 0.0273 -0.6821 0.7307
vn 0.5198 0.8505 0.0811
vn 0.7168 0.2496 0.6511
vn -0.2409 0.6474 -0.7231
vn -0.4398 0.4809 -0.7585
vn 0.5590 -0.5530 -0.6178
vn 0.6012 -0.4738 -0.6434
vn 0.2313 -0.4000 -0.8869
vn 0.4393 -0.6515 -0.6186
vn 0.1035 -0.7025 -0.7041
vn 0.3127 -0.6991 -0.6430
vn 0.5719 -0.6245 -0.5320
vn 0.1099 -0.9774 -0.1804
vn -0.4829 -0.7859 0.3862
vn 0.4231 -0.3276 0.8448
vn 0.2233 0.0099 -0.9747
vn -0.0145 0.7886 -0.6147
vn -0.2200 -0.7613 0.6100
vn 0.5473 0.8348 -0.0597
vn 0.0765 -0.6210 0.7801
vn 0.7147 0.6224 0.3191
vn 0.3598 0.8381 -0.4101
vn 0.6066 -0.4422 -0.6607
vn 0.5687 -0.5640 -0.5987
vn 0.8108 0.5498 -0.2007
vn 0.5909 -0.5728 -0.5681
vn 0.5667 -0.5876 -0.5776
vn 0.5825 -0.7758 -0.2427
vn 0.7952 -0.0948 -0.5989
vn 0.8473 0.2718 -0.4562
vn 0.5636 -0.5890 -0.5791
vn 0.5456 -0.6188 -0.5652
vn 0.7330 0.6280 0.2615
vn 0.6423 0.0303 0.7658
vn 0.9384 0.1364 -0.3173
vn 0.9398 0.1173 -0.3210
vn 0.5742 -0.5420 -0.6137
vn 0.7598 0.4661 0.4532
vn 0.7211 0.1913 0.6659
vn 0.7557 -0.5024 -0.4203
vn 0.7497 0.3385 0.5687
vn 0.7360 0.2477 0.6301
vn 0.4793 -0.4236 -0.7686
s 1
f 4//1 5//2 2//3
f 2//3 5//2 1//4
f 6//5 1//4 5//2
f 5//2 4//1 7//6
f 6//5 8//7 1//4
f 3//8 1//4 8//7
f 5//2 9//9 6//5
f 7//6 9//9 5//2
f 11//10 12//11 13//12
f 14//13 15//14 16//15
f 11//10 13//12 17//16
f 18//17 19//18 16//15
f 9//9 7//6 20//19
f 21//20 2//3 22//21
f 22//21 2//3 23//22
f 1//4 23//22 2//3
f 2//3 21//20 4//1
f 4//1 21//20 25//23
f 1//4 24//24 23//22
f 1//4 3//8 24//24
f 24//24 3//8 26//25
f 25//23 27//26 4//1
f 26//25 3//8 28//27
f 29//28 26//25 28//27
f 4//1 30//29 7//6
f 27//26 30//29 4//1
f 31//30 30//29 27//26
f 10//31 3//8 8//7
f 26//25 29//28 32//32
f 10//31 28//27 3//8
f 18//17 16//15 15//14
f 33//33 18//17 15//14
f 34//34 15//14 35//35
f 7//6 30//29 20//19
f 34//34 35//35 36//36
f 23//22 37//37 22//21
f 23//22 38//38 37//37
f 38//38 23//22 40//39
f 37//37 39//40 22//21
f 39//40 41//41 21//20
f 41//41 25//23 21//20
f 22//21 39//40 21//20
f 23//22 24//24 40//39
f 26//25 40//39 24//24
f 44//42 27//26 42//43
f 26//25 32//32 43//44
f 45//45 43//44 46//46
f 43//44 32//32 46//46
f 47//47 33//33 15//14
f 27//26 44//42 31//30
f 49//48 34//34 48//49
f 42//43 50//50 44//42
f 51//51 32//32 29//28
f 52//52 33//33 47//47
f 25//23 41//41 54//53
f 54//53 27//26 25//23
f 43//44 45//45 26//25
f 56//54 45//45 57//55
f 58//56 42//43 55//57
f 42//43 58//56 50//50
f 58//56 59//58 50//50
f 58//56 57//55 59//58
f 57//55 45//45 59//58
f 46//46 59//58 45//45
f 15//14 60//59 47//47
f 34//34 60//59 15//14
f 49//48 60//59 34//34
f 37//37 53//60 61//61
f 69//62 62//63 39//40
f 38//38 53//60 37//37
f 63//64 53//60 38//38
f 62//63 41//41 39//40
f 63//64 38//38 40//39
f 26//25 64//65 40//39
f 54//53 65//66 27//26
f 42//43 27//26 65//66
f 65//66 67//67 42//43
f 67//67 55//57 42//43
f 26//25 45//45 66//68
f 66//68 45//45 56//54
f 58//56 55//57 68//69
f 68//69 55//57 67//67
f 56//54 58//56 68//69
f 58//56 56//54 57//55
f 69//62 39//40 37//37
f 41//41 62//63 54//53
f 63//64 40//39 64//65
f 70//70 65//66 54//53
f 71//71 72//72 65//66
f 67//67 65//66 72//72
f 73//73 56//54 68//69
f 81//74 70//70 62//63
f 61//61 53//60 74//75
f 74//75 53//60 63//64
f 54//53 62//63 70//70
f 75//76 63//64 64//65
f 71//71 65//66 70//70
f 71//71 70//70 76//77
f 26//25 77//78 64//65
f 77//78 26//25 66//68
f 79//79 67//67 72//72
f 78//80 79//79 72//72
f 66//68 56//54 73//73
f 68//69 79//79 73//73
f 79//79 68//69 67//67
f 37//37 61//61 69//62
f 69//62 81//74 62//63
f 81//74 76//77 70//70
f 74//75 63//64 75//76
f 88//81 75//76 64//65
f 77//78 88//81 64//65
f 82//82 77//78 66//68
f 73//73 79//79 78//80
f 61//61 80//83 69//62
f 85//84 86//85 84//86
f 84//86 86//85 81//74
f 86//85 76//77 81//74
f 88//81 87//87 74//75
f 88//81 74//75 75//76
f 71//71 76//77 89//88
f 90//89 72//72 71//71
f 73//73 83//90 82//82
f 90//89 78//80 72//72
f 66//68 73//73 82//82
f 80//83 91//91 69//62
f 91//91 92//92 69//62
f 93//93 94//94 95//95
f 92//92 84//86 81//74
f 81//74 69//62 92//92
f 92//92 97//96 84//86
f 99//97 100//97 101//97
f 61//61 74//75 102//98
f 102//98 80//83 61//61
f 76//77 86//85 89//88
f 103//99 87//87 88//81
f 104//100 103//99 88//81
f 105//101 90//89 89//88
f 77//78 104//100 88//81
f 77//78 106//102 104//100
f 82//82 106//102 77//78
f 89//88 90//89 71//71
f 73//73 107//103 83//90
f 108//104 96//105 74//75
f 74//75 96//105 102//98
f 111//106 95//95 110//107
f 110//107 95//95 109//108
f 111//106 93//93 95//95
f 93//93 111//106 98//109
f 112//110 98//109 113//111
f 111//106 114//112 98//109
f 114//112 113//111 98//109
f 115//113 116//113 117//113
f 118//114 86//85 85//84
f 118//114 89//88 86//85
f 106//102 82//82 83//90
f 90//89 105//101 119//115
f 78//80 107//103 73//73
f 74//75 87//87 108//104
f 111//106 110//107 120//116
f 121//117 108//104 87//87
f 122//118 89//88 118//114
f 122//118 105//101 89//88
f 123//119 103//99 104//100
f 105//101 124//120 119//115
f 104//100 106//102 123//119
f 125//121 123//119 106//102
f 125//121 106//102 83//90
f 78//80 90//89 119//115
f 121//117 87//87 103//99
f 121//117 103//99 126//122
f 128//123 127//124 111//106
f 123//119 126//122 103//99
f 129//125 126//122 123//119
f 130//126 131//127 114//112
f 131//127 132//128 114//112
f 105//101 122//118 124//120
f 129//125 134//129 126//122
f 135//130 134//129 129//125
f 127//124 136//131 111//106
f 136//131 137//132 111//106
f 137//132 114//112 111//106
f 129//125 123//119 125//121
f 129//125 125//121 138//133
f 133//134 78//80 119//115
f 125//121 83//90 107//103
f 107//103 78//80 133//134
f 129//125 137//135 135//130
f 129//125 139//136 137//135
f 140//137 114//112 137//132
f 141//138 138//133 125//121
f 107//103 133//134 142//139
f 140//137 130//126 114//112
f 140//137 143//140 130//126
f 141//138 125//121 107//103
f 144//141 107//103 145//142
f 107//103 142//139 145//142
f 146//143 140//137 137//132
f 141//138 107//103 144//141
