# Blender v2.78 (sub 0) OBJ File: 'exporter.blend'
# www.blender.org
o FJ2481.obj_grp1.1184
v -0.240060 -0.162495 5.337557
v -0.239931 -0.163745 5.336552
v -0.239958 -0.162550 5.337570
v -0.240090 -0.163601 5.336191
v -0.239774 -0.164731 5.334721
v -0.230286 -0.185377 5.354080
v -0.239725 -0.164680 5.334606
v -0.237698 -0.165183 5.332718
v -0.237782 -0.165214 5.332726
v -0.234968 -0.164381 5.332003
v -0.235483 -0.164870 5.331732
v -0.235492 -0.164884 5.331713
v -0.211505 -0.210702 5.366063
v -0.216702 -0.211984 5.370352
v -0.237507 -0.159697 5.339167
v -0.229887 -0.179593 5.355381
v -0.236439 -0.159378 5.338868
v -0.237404 -0.159675 5.339138
v -0.235072 -0.160159 5.339984
v -0.236439 -0.159378 5.338868
v -0.234524 -0.164812 5.331826
v -0.235483 -0.164870 5.331732
v -0.234962 -0.164393 5.332014
v -0.234080 -0.164135 5.331779
v -0.234080 -0.164135 5.331779
v -0.233987 -0.164183 5.331635
v -0.234524 -0.164812 5.331826
v -0.233117 -0.163601 5.331905
v -0.232259 -0.161759 5.333563
v -0.232069 -0.162688 5.332766
v -0.231517 -0.161632 5.334743
v -0.232156 -0.159726 5.335816
v -0.233011 -0.159015 5.337178
v -0.214946 -0.212426 5.368458
v -0.214821 -0.211550 5.367414
v -0.234966 -0.159151 5.338821
v -0.236439 -0.159378 5.338868
v -0.233011 -0.159015 5.337178
v -0.236439 -0.159378 5.338868
v -0.234966 -0.159151 5.338821
v -0.232975 -0.158938 5.337231
v -0.225379 -0.179584 5.357534
v -0.232134 -0.162710 5.332764
v -0.232069 -0.162688 5.332766
v -0.232259 -0.161759 5.333563
v -0.231307 -0.162395 5.333985
v -0.231466 -0.162408 5.334064
v -0.231931 -0.160461 5.334893
v -0.231453 -0.161134 5.334268
v -0.230741 -0.161777 5.335958
v -0.231438 -0.161133 5.334260
v -0.231999 -0.160488 5.334925
v -0.205860 -0.203817 5.372648
v -0.217413 -0.207541 5.376428
v -0.214357 -0.204476 5.378068
v -0.215837 -0.205325 5.377552
v -0.211737 -0.211656 5.366652
v -0.208593 -0.202517 5.376381
v -0.218013 -0.210801 5.372272
v -0.217423 -0.211444 5.371268
v -0.213077 -0.203425 5.377881
v -0.211606 -0.203271 5.377778
v -0.218112 -0.209268 5.374667
v -0.217800 -0.210630 5.372801
v -0.217915 -0.210735 5.372341
v -0.217825 -0.210753 5.372412
v -0.217906 -0.210799 5.372347
v -0.217395 -0.206945 5.376425
v -0.217179 -0.205457 5.376378
v -0.217375 -0.207444 5.376425
v -0.216906 -0.207287 5.376425
v -0.217395 -0.206945 5.376425
v -0.216906 -0.207287 5.376425
v -0.217427 -0.207149 5.376091
v -0.216839 -0.206671 5.376988
v -0.217395 -0.206945 5.376425
v -0.216906 -0.207287 5.376425
v -0.216839 -0.206671 5.376988
v -0.217179 -0.205457 5.376378
v -0.216839 -0.206671 5.376988
v -0.216358 -0.206500 5.377036
v -0.216841 -0.206457 5.376728
v -0.216358 -0.206500 5.377036
v -0.206367 -0.208092 5.367966
v -0.213830 -0.212344 5.367749
v -0.214855 -0.212756 5.368716
v -0.214227 -0.212204 5.368303
v -0.214227 -0.212204 5.368303
v -0.214227 -0.212204 5.368303
v -0.218086 -0.209164 5.374782
v -0.215837 -0.205325 5.377552
v -0.216358 -0.206500 5.377036
v -0.214357 -0.204476 5.378068
v -0.209584 -0.210743 5.366965
v -0.211737 -0.203281 5.377621
v -0.214357 -0.204476 5.378068
v -0.213077 -0.203425 5.377881
v -0.212687 -0.212006 5.367505
v -0.209404 -0.210540 5.366668
v -0.213811 -0.212362 5.367817
v -0.211200 -0.211518 5.367083
v -0.211738 -0.211648 5.366661
v -0.211501 -0.210688 5.366050
v -0.211738 -0.211648 5.366661
v -0.211200 -0.211518 5.367083
v -0.212687 -0.212006 5.367505
v -0.210998 -0.201273 5.375956
v -0.210095 -0.202885 5.377223
v -0.210095 -0.202885 5.377223
v -0.210095 -0.202885 5.377223
v -0.209840 -0.202980 5.376894
v -0.210998 -0.201273 5.375956
v -0.209843 -0.202976 5.376890
v -0.209840 -0.202980 5.376894
v -0.207205 -0.202987 5.375014
v -0.208546 -0.202684 5.376441
v -0.206743 -0.208330 5.367773
v -0.205715 -0.206464 5.369414
v -0.206744 -0.207658 5.368103
v -0.206499 -0.208341 5.367715
v -0.211200 -0.211518 5.367083
v -0.209089 -0.210783 5.366564
v -0.208820 -0.210434 5.366801
v -0.209695 -0.210732 5.366989
v -0.209345 -0.210565 5.366473
v -0.208820 -0.210434 5.366801
v -0.208820 -0.210434 5.366801
v -0.206563 -0.208311 5.367646
v -0.205398 -0.203879 5.372804
v -0.205422 -0.205561 5.370619
vn -0.8227 -0.5339 -0.1950
vn -0.9327 -0.3056 0.1914
vn -0.9161 -0.3441 0.2056
vn -0.3570 0.7264 -0.5873
vn -0.3703 0.7208 -0.5859
vn -0.4132 0.7027 -0.5793
vn -0.3584 0.7216 -0.5923
vn -0.0733 -0.6336 -0.7702
vn 0.0639 -0.5706 -0.8187
vn -0.4440 -0.6795 -0.5840
vn -0.9989 -0.0419 -0.0202
vn -0.5324 0.6514 -0.5406
vn -0.8737 -0.0080 0.4863
vn -0.7393 -0.5733 -0.3533
vn -0.3912 0.7263 -0.5652
vn -0.3831 0.7255 -0.5717
vn 0.0701 0.6902 0.7202
vn 0.0208 0.8001 0.5995
vn -0.3919 0.5062 0.7682
vn -0.6833 0.2450 0.6878
vn -0.1217 0.3047 -0.9446
vn 0.0585 0.4646 -0.8836
vn -0.1215 0.3047 -0.9447
vn -0.2941 0.1261 -0.9474
vn -0.2789 0.7228 -0.6323
vn -0.3270 0.7551 -0.5683
vn -0.2728 0.9268 -0.2583
vn 0.0369 0.6590 -0.7512
vn -0.2305 0.7501 -0.6199
vn -0.2729 0.6010 -0.7512
vn -0.3693 0.7101 -0.5995
vn -0.4015 -0.7168 -0.5701
vn -0.2964 -0.6592 -0.6911
vn 0.2249 0.7193 0.6573
vn -0.0942 0.7621 0.6406
vn -0.1555 0.9823 -0.1046
vn 0.6550 0.6599 0.3682
vn -0.0660 0.6320 0.7721
vn 0.6268 0.5707 -0.5305
vn 0.5971 0.4216 -0.6825
vn 0.5971 0.4216 -0.6824
vn 0.5398 0.2531 -0.8029
vn 0.6560 0.7081 0.2614
vn 0.8450 0.4771 -0.2415
vn 0.7319 0.6801 -0.0427
vn 0.8590 0.0564 -0.5088
vn 0.8246 0.5626 0.0591
vn 0.2038 -0.5275 -0.8248
vn 0.5051 -0.3457 -0.7908
vn 0.8074 0.5709 0.1487
vn -0.8877 -0.0339 0.4592
vn -0.3974 0.4660 0.7905
vn 0.4452 0.6868 0.5745
vn -0.8669 -0.4984 -0.0003
vn -0.1295 0.6070 0.7841
vn 0.0173 0.6744 0.7382
vn -0.9364 -0.2075 0.2829
vn -0.5188 -0.7299 0.4451
vn 0.0968 -0.8687 0.4859
vn 0.1666 -0.8139 0.5566
vn -0.5379 -0.8090 0.2369
vn -0.7920 0.0989 0.6024
vn -0.7214 0.1273 0.6807
vn -0.6114 0.2506 0.7506
vn 0.0000 0.0000 1.0000
vn -0.7375 0.1371 0.6613
vn -0.4124 -0.5901 0.6941
vn 0.9231 -0.3775 0.0737
vn -0.4449 -0.5849 0.6782
vn -0.2288 0.3973 0.8887
vn -0.6619 -0.0349 0.7487
vn 0.7549 -0.1194 -0.6448
vn 0.7426 -0.0296 -0.6691
vn -0.3289 -0.7158 -0.6160
vn 0.6723 -0.3480 0.6534
vn 0.1031 -0.7712 -0.6281
vn -0.5677 -0.7975 -0.2042
vn 0.4609 -0.6513 0.6028
vn 0.5186 -0.6897 0.5054
vn 0.7671 -0.4838 0.4214
vn -0.1226 -0.3538 0.9272
vn 0.3808 -0.7221 0.5776
vn 0.3791 -0.7178 0.5840
vn 0.4558 -0.7176 0.5265
vn 0.2681 -0.0580 0.9616
vn -0.2499 -0.5520 -0.7955
vn 0.2580 -0.9607 -0.1023
vn 0.3782 -0.7539 0.5373
vn 0.5790 -0.5522 -0.5998
vn 0.2902 -0.9536 -0.0796
vn 0.1355 0.6629 0.7363
vn 0.1027 0.6560 0.7477
vn 0.6814 0.6481 0.3400
vn 0.3829 -0.7531 0.5351
vn 0.3349 -0.8184 0.4669
vn 0.1350 0.5494 0.8246
vn 0.3856 -0.7335 0.5597
vn 0.4482 -0.7083 0.5454
vn 0.5243 -0.6874 0.5025
vn 0.3866 -0.3481 -0.8540
vn 0.2474 -0.7265 -0.6411
vn 0.3973 -0.7010 0.5923
vn 0.2990 -0.9490 -0.1002
vn 0.4042 -0.6760 0.6162
vn 0.4190 -0.6678 0.6152
vn 0.4234 -0.6705 0.6092
vn 0.1584 0.3003 -0.9406
vn 0.3822 -0.7592 0.5268
vn 0.3382 -0.7827 0.5225
vn 0.9033 0.2618 -0.3398
s 1
f 5//1 6//2 4//3
f 10//4 8//5 7//6
f 11//7 8//5 10//4
f 12//8 13//9 9//10
f 2//11 1//12 7//6
f 4//3 6//2 3//13
f 14//14 5//1 9//10
f 1//12 18//15 7//6
f 7//6 18//15 17//16
f 19//17 20//18 15//19
f 16//20 19//17 15//19
f 16//20 15//19 3//13
f 16//20 3//13 6//2
f 21//21 22//22 23//23
f 23//23 24//24 21//21
f 10//4 28//25 25//26
f 29//27 30//28 28//25
f 28//25 10//4 29//27
f 29//27 10//4 7//6
f 29//27 7//6 31//29
f 32//30 7//6 33//31
f 34//32 14//14 9//10
f 34//32 9//10 35//33
f 35//33 9//10 13//9
f 33//31 7//6 17//16
f 19//17 36//34 37//35
f 38//36 39//36 40//36
f 36//34 19//17 41//37
f 42//38 19//17 16//20
f 5//1 14//14 6//2
f 44//39 45//40 46//41
f 31//29 7//6 32//30
f 49//42 46//41 45//40
f 50//43 51//44 52//45
f 47//46 51//44 53//47
f 50//43 53//47 51//44
f 27//48 13//9 12//8
f 13//9 27//48 26//49
f 41//37 53//47 48//50
f 48//50 53//47 50//43
f 19//17 42//38 41//37
f 16//20 6//2 54//51
f 42//38 16//20 55//52
f 58//53 41//37 42//38
f 6//2 14//14 59//54
f 42//38 55//52 61//55
f 42//38 61//55 62//56
f 6//2 63//57 54//51
f 59//54 63//57 6//2
f 59//54 64//58 63//57
f 60//59 66//60 65//61
f 54//51 68//62 16//20
f 16//20 68//62 69//63
f 16//20 69//63 56//64
f 70//65 71//65 72//65
f 69//63 68//62 75//66
f 76//67 77//67 78//67
f 66//60 73//68 74//69
f 79//70 80//70 81//70
f 69//63 83//71 56//64
f 43//72 13//9 26//49
f 84//73 43//72 47//46
f 85//74 35//33 13//9
f 66//60 60//59 86//75
f 35//33 87//76 34//32
f 89//77 35//33 85//74
f 86//75 88//78 66//60
f 66//60 82//79 73//68
f 66//60 74//69 90//80
f 91//81 92//81 93//81
f 94//82 82//79 66//60
f 16//20 56//64 55//52
f 94//82 95//83 82//79
f 95//83 96//84 82//79
f 97//85 96//84 95//83
f 13//9 57//86 85//74
f 85//74 57//86 98//87
f 100//88 94//82 88//78
f 94//82 66//60 88//78
f 101//89 102//89 103//89
f 104//90 105//90 106//90
f 42//38 62//56 107//91
f 58//53 42//38 107//91
f 109//92 107//91 62//56
f 110//93 111//93 112//93
f 113//94 108//95 95//83
f 113//94 95//83 94//82
f 114//96 58//53 107//91
f 113//94 94//82 115//97
f 117//98 118//99 94//82
f 13//9 99//100 121//101
f 122//102 94//82 100//88
f 43//72 99//100 13//9
f 124//103 125//103 126//103
f 43//72 84//73 99//100
f 128//104 94//105 127//106
f 84//73 123//107 99//100
f 53//47 41//37 58//53
f 118//99 115//97 94//82
f 118//99 129//108 115//97
f 115//97 116//109 113//94
f 130//110 84//73 47//46
f 47//46 53//47 130//110
l 119 120
l 66 67
