# Blender v2.78 (sub 0) OBJ File: 'exporter.blend'
# www.blender.org
o FJ2437.obj_grp1.1140
v 0.060330 -0.612649 5.723190
v 0.060768 -0.621121 5.723416
v 0.065153 -0.619588 5.718583
v 0.065063 -0.612301 5.719077
v 0.063970 -0.619853 5.729807
v 0.065229 -0.610623 5.726656
v 0.063328 -0.610217 5.722753
v 0.079981 -0.633790 5.719370
v 0.069988 -0.631267 5.728692
v 0.083485 -0.637600 5.737418
v 0.065120 -0.612334 5.719122
v 0.078716 -0.618907 5.721241
v 0.077037 -0.616917 5.722394
v 0.083560 -0.634934 5.739518
v 0.080070 -0.621498 5.733544
v 0.079132 -0.616961 5.727907
v 0.078994 -0.617536 5.722677
v 0.078831 -0.640236 5.743006
v 0.075292 -0.637480 5.749735
v 0.076218 -0.635242 5.745498
v 0.079745 -0.643971 5.749808
v 0.083464 -0.637925 5.739453
v 0.086101 -0.639328 5.754276
v 0.078526 -0.641984 5.778115
v 0.084740 -0.646502 5.778238
v 0.084689 -0.646659 5.778232
v 0.081413 -0.643460 5.785140
v 0.078806 -0.641704 5.778473
v 0.085451 -0.630427 5.770221
v 0.078806 -0.641704 5.778473
v 0.077289 -0.639062 5.783543
v 0.077467 -0.636141 5.778332
v 0.077289 -0.639062 5.783543
v 0.081413 -0.643460 5.785140
v 0.080076 -0.637376 5.787017
v 0.077289 -0.639062 5.783543
v 0.101227 -0.641113 5.799834
v 0.091354 -0.623061 5.701626
v 0.080418 -0.618828 5.719676
v 0.081960 -0.636169 5.737227
v 0.083109 -0.636662 5.740668
v 0.085976 -0.635386 5.751526
v 0.083004 -0.636461 5.738897
v 0.083004 -0.636461 5.738897
v 0.083467 -0.637916 5.739461
v 0.083188 -0.636522 5.740305
v 0.083188 -0.636522 5.740305
v 0.083188 -0.636522 5.740305
v 0.083615 -0.635099 5.739414
v 0.083004 -0.636461 5.738897
v 0.083188 -0.636522 5.740305
v 0.083004 -0.636461 5.738897
v 0.082796 -0.623742 5.736891
v 0.083431 -0.637681 5.737442
v 0.082488 -0.636008 5.741027
v 0.094891 -0.633838 5.751704
v 0.077467 -0.636141 5.778332
v 0.084266 -0.630394 5.772718
v 0.077467 -0.636141 5.778332
v 0.078113 -0.634653 5.781430
v 0.085386 -0.628513 5.788507
v 0.085481 -0.629344 5.768567
v 0.084908 -0.627015 5.769177
v 0.077467 -0.636141 5.778332
v 0.077289 -0.639062 5.783543
v 0.078113 -0.634653 5.781430
v 0.080076 -0.637376 5.787017
v 0.085448 -0.627043 5.788707
v 0.085760 -0.630700 5.790163
v 0.080076 -0.637376 5.787017
v 0.084972 -0.627872 5.788565
v 0.084660 -0.628405 5.788472
v 0.083532 -0.628272 5.788963
v 0.083010 -0.616557 5.709264
v 0.078909 -0.617255 5.722654
v 0.078735 -0.618870 5.721386
v 0.078909 -0.617255 5.722654
v 0.080363 -0.618818 5.719649
v 0.080368 -0.616330 5.721246
v 0.080492 -0.616361 5.721206
v 0.081685 -0.617270 5.731082
v 0.082795 -0.623705 5.736832
v 0.083092 -0.622139 5.737934
v 0.088274 -0.626863 5.739044
v 0.085268 -0.628049 5.764095
v 0.083705 -0.622494 5.757957
v 0.085794 -0.612621 5.759459
v 0.084852 -0.627787 5.770420
v 0.085136 -0.627093 5.790040
v 0.085681 -0.627389 5.798460
v 0.086094 -0.627047 5.796346
v 0.096377 -0.610445 5.786848
v 0.085823 -0.601053 5.726790
v 0.087683 -0.605809 5.736549
v 0.089371 -0.605478 5.755470
v 0.097570 -0.643539 5.738510
v 0.109574 -0.653212 5.740968
v 0.105515 -0.653737 5.751667
v 0.090994 -0.646615 5.775187
v 0.090994 -0.646615 5.775187
v 0.109695 -0.654910 5.771080
v 0.106277 -0.638727 5.696740
v 0.094261 -0.633712 5.744118
v 0.093566 -0.630113 5.743357
v 0.088278 -0.626865 5.739038
v 0.092271 -0.631386 5.741244
v 0.093900 -0.633001 5.744672
v 0.093900 -0.633001 5.744672
v 0.085976 -0.635386 5.751526
v 0.091194 -0.635551 5.758088
v 0.091224 -0.633354 5.755864
v 0.093465 -0.632074 5.753145
v 0.091109 -0.631837 5.756337
v 0.090306 -0.634564 5.754483
v 0.093581 -0.633301 5.753779
v 0.090306 -0.634564 5.754483
v 0.091501 -0.633268 5.755939
v 0.094944 -0.634217 5.751667
v 0.093656 -0.631874 5.753216
v 0.093581 -0.633301 5.753779
v 0.096420 -0.632954 5.753122
v 0.093900 -0.633001 5.744672
v 0.094944 -0.634217 5.751667
v 0.096420 -0.632954 5.753122
v 0.096420 -0.632954 5.753122
v 0.093566 -0.630113 5.743357
v 0.096420 -0.632954 5.753122
v 0.096420 -0.632954 5.753122
v 0.093581 -0.633301 5.753779
v 0.093656 -0.631874 5.753216
v 0.091690 -0.633395 5.759976
v 0.094149 -0.635690 5.761969
v 0.091690 -0.633395 5.759976
v 0.087709 -0.629527 5.805957
v 0.097279 -0.633798 5.806066
v 0.097436 -0.633695 5.806124
v 0.093509 -0.631481 5.814375
v 0.101474 -0.631733 5.818941
v 0.096568 -0.618026 5.702736
v 0.091444 -0.622170 5.777815
v 0.087619 -0.629068 5.805170
v 0.099396 -0.616360 5.803239
v 0.093335 -0.630855 5.815730
v 0.086565 -0.602247 5.724474
v 0.086521 -0.602187 5.727143
v 0.089662 -0.604879 5.734122
v 0.099296 -0.606654 5.716019
v 0.089225 -0.605237 5.741761
v 0.089923 -0.604373 5.733921
v 0.089397 -0.605504 5.755469
v 0.096298 -0.610025 5.782622
v 0.096063 -0.609513 5.780706
v 0.087683 -0.605809 5.736549
v 0.089923 -0.604373 5.733921
v 0.086769 -0.601828 5.727395
v 0.125856 -0.661663 5.715611
v 0.121203 -0.658173 5.708159
v 0.101666 -0.638090 5.763839
v 0.109909 -0.649720 5.764934
v 0.105515 -0.653737 5.751667
v 0.102198 -0.631482 5.696510
v 0.102125 -0.631456 5.697256
v 0.102404 -0.626856 5.817513
v 0.127581 -0.638747 5.818283
v 0.118516 -0.633629 5.823236
v 0.112572 -0.632677 5.821429
v 0.114343 -0.629404 5.699611
v 0.100423 -0.611570 5.709324
v 0.098855 -0.607222 5.716175
v 0.117978 -0.619587 5.813705
v 0.115430 -0.647636 5.698818
v 0.119743 -0.652675 5.702348
v 0.129830 -0.667841 5.726564
v 0.118919 -0.653523 5.766736
v 0.124654 -0.658086 5.768995
v 0.123933 -0.655271 5.782411
v 0.118412 -0.652537 5.794829
v 0.120314 -0.647768 5.800511
v 0.120554 -0.647578 5.800434
v 0.121703 -0.634433 5.822133
v 0.130335 -0.633861 5.711062
v 0.126513 -0.661956 5.716124
v 0.129851 -0.667825 5.726597
v 0.133957 -0.670201 5.746268
v 0.141255 -0.674273 5.758671
v 0.120218 -0.652402 5.701049
v 0.121979 -0.658089 5.708852
v 0.142563 -0.665068 5.787880
v 0.127007 -0.653582 5.802979
v 0.127007 -0.653582 5.802979
v 0.134217 -0.655569 5.807291
v 0.139535 -0.647276 5.815224
v 0.142818 -0.654962 5.806707
v 0.142753 -0.640282 5.747253
v 0.137830 -0.640175 5.818621
v 0.130728 -0.626896 5.815155
v 0.136849 -0.668882 5.745470
v 0.133957 -0.670201 5.746268
v 0.129851 -0.667825 5.726597
v 0.143301 -0.655817 5.743784
v 0.136849 -0.668882 5.745470
v 0.140825 -0.673703 5.757441
v 0.144095 -0.671350 5.778854
v 0.141702 -0.651713 5.811194
v 0.144325 -0.635719 5.807329
v 0.140996 -0.673906 5.759284
v 0.147507 -0.665675 5.761572
v 0.144428 -0.671941 5.776863
v 0.144524 -0.663483 5.787580
v 0.150409 -0.648292 5.769363
v 0.149466 -0.652708 5.787238
v 0.142725 -0.664506 5.787956
v 0.145741 -0.654460 5.804810
v 0.145741 -0.654460 5.804810
vn -0.2446 0.1134 -0.9630
vn -0.3225 -0.1571 -0.9335
vn -0.9080 -0.3838 -0.1679
vn -0.9400 0.3359 -0.0602
vn -0.6155 0.0220 0.7878
vn -0.0773 0.8516 0.5184
vn -0.2125 0.9660 -0.1474
vn -0.5565 -0.6165 -0.5569
vn -0.6720 -0.7165 0.1869
vn 0.5402 0.4377 -0.7187
vn -0.0405 0.2621 -0.9642
vn 0.4314 0.8116 -0.3940
vn -0.4909 0.3830 0.7825
vn -0.4010 0.4939 0.7715
vn 0.1054 0.9549 0.2777
vn -0.2642 0.9575 -0.1159
vn -0.4691 -0.8832 -0.0048
vn -0.6353 -0.4900 -0.5970
vn -0.8844 0.1436 0.4440
vn -0.7182 0.6397 -0.2738
vn -0.5748 -0.7477 0.3325
vn -0.4720 -0.5454 -0.6926
vn -0.6388 0.3890 0.6638
vn -0.3020 -0.9401 0.1579
vn -0.4524 -0.8603 0.2348
vn -0.6971 -0.7119 0.0854
vn -0.9581 -0.2346 -0.1642
vn -0.7458 -0.6555 0.1193
vn -0.5866 -0.3527 0.7290
vn -0.6073 -0.1176 0.7857
vn -0.6408 -0.3505 0.6830
vn -0.4853 -0.6536 0.5808
vn -0.8565 0.0009 -0.5161
vn -0.5752 0.0414 -0.8169
vn -0.6892 -0.4601 0.5597
vn -0.5041 0.6972 -0.5097
vn -0.2066 0.8512 0.4824
vn -0.6735 -0.6742 0.3030
vn -0.9570 -0.2863 0.0474
vn -0.9569 -0.2864 0.0474
vn -0.9586 -0.2608 0.1138
vn -0.9715 -0.0508 -0.2315
vn -0.9220 0.3624 0.1362
vn -0.8280 0.0902 0.5534
vn -0.9504 -0.3104 -0.0192
vn -0.2645 0.9632 0.0474
vn -0.6020 -0.0904 -0.7933
vn -0.8819 0.1081 -0.4588
vn -0.4460 -0.2564 -0.8575
vn -0.8006 0.5811 -0.1458
vn -0.7325 0.6804 -0.0232
vn -0.8207 0.5201 0.2368
vn -0.8316 0.5170 -0.2029
vn -0.6635 -0.5067 -0.5505
vn -0.9479 -0.2401 -0.2094
vn -0.9614 -0.2445 -0.1261
vn -0.9696 0.2259 0.0935
vn -0.9082 0.3060 0.2855
vn -0.8814 0.3222 0.3454
vn -0.8108 0.3608 0.4609
vn -0.8173 0.3500 0.4577
vn -0.6148 0.0165 0.7885
vn -0.6589 0.2193 0.7196
vn -0.7841 0.1785 -0.5944
vn 0.2198 0.6197 -0.7534
vn -0.6319 0.5200 -0.5747
vn -0.6977 0.4403 -0.5651
vn -0.6977 0.4404 -0.5651
vn -0.7559 0.3560 -0.5494
vn -0.8831 0.4616 -0.0838
vn -0.8347 0.4504 0.3168
vn -0.8521 0.0806 0.5171
vn -0.8552 -0.1537 0.4950
vn -0.8734 -0.3500 0.3387
vn -0.7067 -0.3750 0.5999
vn -0.7875 -0.6045 -0.1197
vn -0.9932 -0.0300 0.1121
vn -0.9069 0.3520 0.2316
vn -0.8705 0.4788 -0.1138
vn -0.7172 0.6461 0.2610
vn -0.0195 0.9959 0.0881
vn -0.9213 0.3880 -0.0268
vn -0.8439 0.4801 0.2396
vn -0.8800 0.4678 0.0826
vn -0.4217 -0.7957 -0.4347
vn -0.4858 -0.8562 -0.1759
vn -0.3483 -0.4072 -0.8443
vn -0.3992 -0.5430 -0.7388
vn -0.3459 -0.8823 -0.3194
vn -0.1656 -0.3399 -0.9258
vn -0.2871 0.8618 0.4181
vn -0.3981 0.3936 0.8286
vn -0.8768 -0.0650 0.4765
vn -0.7095 -0.3204 0.6277
vn -0.8177 -0.1072 0.5656
vn -0.3610 0.9169 0.1704
vn -0.9227 0.0664 0.3797
vn -0.6709 0.4977 0.5497
vn -0.8409 0.2701 0.4690
vn -0.9797 0.1959 -0.0434
vn -0.4831 -0.8488 -0.2150
vn -0.8873 -0.1377 -0.4401
vn -0.1738 0.9845 -0.0240
vn -0.3431 0.7983 -0.4949
vn -0.4032 0.7744 -0.4875
vn -0.4032 0.8225 -0.4012
vn -0.3111 0.7823 -0.5397
vn -0.7053 -0.0977 -0.7022
vn -0.6377 -0.2535 -0.7274
vn -0.9581 0.0195 0.2857
vn -0.7504 0.6231 0.2203
vn -0.2188 0.8359 -0.5034
vn -0.4590 -0.8870 -0.0501
vn -0.3538 -0.9176 -0.1812
vn -0.1691 -0.3540 -0.9198
vn -0.8767 -0.4785 -0.0495
vn -0.5026 -0.5095 0.6984
vn -0.7593 -0.3229 0.5649
vn -0.6491 -0.6021 0.4650
vn -0.3035 -0.8726 0.3827
vn -0.6389 -0.7323 0.2357
vn -0.3940 -0.9135 -0.1017
vn -0.1271 -0.6792 0.7229
vn -0.0399 0.5862 -0.8092
vn -0.8691 0.4860 0.0920
vn -0.6367 0.6614 0.3964
vn -0.3293 0.8261 0.4574
vn -0.5160 0.5257 0.6763
vn -0.1145 0.9094 -0.3999
vn 0.4643 0.8743 0.1416
vn 0.2812 0.9548 0.0959
vn 0.5389 0.8382 -0.0831
vn -0.7605 0.6446 0.0787
vn -0.4957 0.8670 0.0514
vn 0.2397 0.9689 0.0613
vn -0.9317 0.3420 0.1221
vn -0.1078 0.9074 0.4062
vn -0.5798 -0.8106 -0.0826
vn -0.3879 -0.9008 0.1951
vn -0.0793 -0.8517 -0.5180
vn -0.6638 -0.7465 0.0457
vn -0.5917 -0.6890 0.4186
vn -0.6279 -0.7721 -0.0979
vn -0.4781 -0.4864 -0.7314
vn -0.3159 -0.9402 0.1277
vn 0.1591 0.3319 -0.9298
vn -0.5193 -0.2388 -0.8205
vn -0.2992 -0.9462 0.1236
vn -0.2367 -0.7860 0.5711
vn -0.2694 -0.8609 0.4315
vn 0.1282 0.5482 0.8264
vn -0.2762 0.5380 0.7964
vn -0.1976 -0.7899 0.5806
vn 0.4172 0.4230 -0.8044
vn 0.1674 0.7851 -0.5964
vn -0.0031 0.8527 -0.5223
vn 0.3746 0.9261 -0.0441
vn 0.4270 0.9004 0.0833
vn 0.4975 0.7000 0.5123
vn 0.2398 0.8618 0.4470
vn -0.0576 -0.3510 -0.9346
vn -0.3320 -0.7924 -0.5118
vn -0.6254 -0.7753 -0.0885
vn -0.5353 -0.8410 -0.0783
vn -0.4701 -0.8496 0.2391
vn -0.3803 -0.8360 0.3956
vn -0.3775 -0.2007 0.9040
vn -0.2670 -0.5667 0.7794
vn -0.1644 -0.7732 0.6125
vn 0.7709 0.3650 -0.5220
vn -0.5327 -0.8454 0.0394
vn -0.5489 -0.8354 -0.0265
vn -0.5972 -0.7580 0.2622
vn 0.5247 -0.5748 -0.6279
vn 0.8186 -0.2215 -0.5299
vn 0.5826 -0.2523 -0.7726
vn -0.5252 -0.7687 0.3651
vn -0.5680 -0.4222 0.7065
vn -0.2062 -0.8911 0.4042
vn -0.3973 -0.8480 0.3508
vn 0.3251 -0.4017 0.8561
vn 0.8878 0.4333 -0.1551
vn 0.4310 -0.0064 0.9023
vn 0.3216 -0.8932 -0.3142
vn 0.3652 -0.9121 -0.1864
vn 0.9223 -0.1295 -0.3641
vn 0.8197 -0.4509 -0.3532
vn 0.8124 -0.3716 -0.4494
vn 0.2721 -0.8577 -0.4362
vn -0.6541 -0.7145 0.2484
vn 0.1114 -0.8065 0.5807
vn 0.3659 -0.5617 0.7420
vn 0.8569 0.4607 0.2312
vn 0.7789 -0.5497 -0.3019
vn 0.9073 -0.3701 -0.1995
vn 0.9346 -0.3486 0.0703
vn 0.9758 0.2048 -0.0771
vn 0.7651 -0.5475 0.3389
vn 0.4721 -0.7654 0.4374
vn 0.9876 -0.0801 0.1352
vn 0.4648 -0.7628 0.4495
vn 0.9374 -0.0703 0.3411
s 1
f 4//1 3//2 2//3
f 1//4 4//1 2//3
f 1//4 2//3 5//5
f 1//4 5//5 6//6
f 1//4 6//6 7//7
f 8//8 2//3 3//2
f 2//3 8//8 9//9
f 5//5 2//3 9//9
f 11//10 3//2 4//1
f 12//11 3//2 11//10
f 11//10 13//12 12//11
f 8//8 3//2 12//11
f 14//13 6//6 5//5
f 6//6 14//13 15//14
f 6//6 15//14 16//15
f 4//1 1//4 7//7
f 13//12 11//10 7//7
f 13//12 7//7 6//6
f 16//15 13//12 6//6
f 13//12 16//15 17//16
f 8//8 10//17 9//9
f 18//18 19//19 20//20
f 18//18 21//21 19//19
f 20//20 22//22 18//18
f 23//23 19//19 21//21
f 26//24 27//25 28//26
f 30//27 31//27 32//27
f 28//26 27//25 33//28
f 34//29 35//30 36//31
f 34//29 37//32 35//30
f 26//24 37//32 27//25
f 8//8 39//33 38//34
f 10//17 40//35 9//9
f 40//35 5//5 9//9
f 5//5 40//35 14//13
f 41//36 22//22 20//20
f 20//20 19//19 42//37
f 40//35 10//17 43//38
f 44//39 45//40 46//41
f 22//22 41//36 47//42
f 48//43 49//43 50//43
f 14//13 40//35 52//44
f 44//39 54//45 45//40
f 41//36 20//20 56//46
f 20//20 42//37 56//46
f 57//47 58//48 24//49
f 59//50 60//51 88//52
f 61//53 88//52 60//51
f 29//54 24//49 58//48
f 62//55 29//54 58//48
f 62//55 58//48 63//56
f 64//57 65//58 66//59
f 65//58 67//60 66//59
f 68//61 66//59 67//60
f 35//30 37//32 69//62
f 35//30 69//62 72//63
f 74//64 38//34 39//33
f 13//12 75//65 12//11
f 76//66 77//67 78//68
f 78//68 77//67 79//69
f 80//70 17//16 16//15
f 39//33 8//8 12//11
f 39//33 80//70 74//64
f 16//15 15//14 81//71
f 14//13 82//72 15//14
f 15//14 53//73 83//74
f 81//71 15//14 83//74
f 81//71 80//70 16//15
f 82//72 14//13 53//73
f 53//73 84//75 83//74
f 83//74 84//75 85//76
f 85//76 86//77 83//74
f 86//77 81//71 83//74
f 86//77 87//78 81//71
f 86//77 88//52 87//78
f 62//55 63//56 85//76
f 63//56 86//77 85//76
f 89//79 90//80 92//81
f 74//64 80//70 93//82
f 80//70 81//71 93//82
f 81//71 94//83 93//82
f 87//78 95//84 81//71
f 10//17 8//8 96//85
f 10//17 96//85 22//22
f 21//21 18//18 97//86
f 97//86 18//18 96//85
f 96//85 18//18 22//22
f 99//87 25//88 24//49
f 99//87 24//49 29//54
f 99//87 29//54 101//89
f 102//90 8//8 38//34
f 14//13 55//91 103//92
f 84//75 53//73 14//13
f 103//92 84//75 14//13
f 104//93 105//94 106//95
f 41//36 56//46 107//96
f 108//97 104//93 106//95
f 19//19 23//23 42//37
f 109//98 23//23 110//99
f 109//98 110//99 111//100
f 112//101 113//102 85//76
f 85//76 84//75 112//101
f 114//103 56//46 42//37
f 115//104 116//105 117//106
f 115//104 118//107 116//105
f 119//108 120//109 111//100
f 113//102 119//108 111//100
f 104//93 108//97 121//110
f 122//111 123//111 124//111
f 118//107 115//104 125//112
f 126//113 127//114 84//75
f 84//75 127//114 112//101
f 128//115 129//115 130//115
f 113//102 131//116 85//76
f 23//23 132//117 110//99
f 110//99 132//117 133//118
f 110//99 131//116 111//100
f 131//116 113//102 111//100
f 85//76 131//116 132//117
f 23//23 21//21 132//117
f 73//119 69//62 37//32
f 37//32 135//120 73//119
f 135//120 91//121 73//119
f 135//120 134//122 91//121
f 136//123 135//120 37//32
f 139//124 38//34 74//64
f 87//78 88//52 140//125
f 140//125 61//53 89//79
f 140//125 89//79 92//81
f 88//52 61//53 140//125
f 141//126 142//127 90//80
f 90//80 142//127 92//81
f 143//128 142//127 141//126
f 139//124 74//64 144//129
f 145//130 146//131 147//132
f 94//83 81//71 148//133
f 95//84 148//133 81//71
f 94//83 148//133 149//134
f 146//131 150//135 147//132
f 140//125 151//136 87//78
f 151//136 95//84 87//78
f 140//125 92//81 151//136
f 144//129 74//64 93//82
f 153//137 154//137 155//137
f 96//85 8//8 156//138
f 98//139 21//21 97//86
f 102//90 157//140 8//8
f 21//21 98//139 158//141
f 158//141 132//117 21//21
f 101//89 29//54 158//141
f 158//141 29//54 85//76
f 158//141 160//142 159//143
f 159//143 101//89 158//141
f 101//89 26//24 100//144
f 101//89 176//145 26//24
f 38//34 139//124 161//146
f 102//90 38//34 162//147
f 158//141 85//76 132//117
f 135//120 137//148 134//122
f 135//120 164//149 137//148
f 138//150 137//148 164//149
f 165//151 163//152 143//128
f 138//150 164//149 166//153
f 161//146 139//124 167//154
f 167//154 139//124 168//155
f 163//152 142//127 143//128
f 168//155 139//124 144//129
f 144//129 169//156 168//155
f 145//157 169//156 144//129
f 152//158 147//132 150//135
f 152//158 196//159 147//132
f 152//158 92//81 142//127
f 152//158 142//127 170//160
f 163//152 170//160 142//127
f 171//161 172//162 157//140
f 156//138 8//8 157//140
f 156//138 97//86 96//85
f 97//86 156//138 173//163
f 174//164 160//142 175//165
f 160//142 174//164 159//143
f 174//164 101//89 159//143
f 175//165 101//89 174//164
f 177//166 37//32 26//24
f 176//145 177//166 26//24
f 171//161 157//140 102//90
f 102//90 161//146 171//161
f 167//154 171//161 161//146
f 178//167 37//32 177//166
f 178//167 179//168 37//32
f 179//168 164//149 37//32
f 136//123 37//32 164//149
f 166//153 164//149 180//169
f 168//155 181//170 167//154
f 168//155 147//132 181//170
f 170//160 163//152 165//151
f 184//171 97//86 173//163
f 185//172 98//139 97//86
f 175//165 160//142 185//173
f 172//162 187//174 157//140
f 172//162 182//175 187//174
f 172//162 186//176 182//175
f 175//165 176//145 101//89
f 188//177 176//145 175//165
f 178//167 177//166 189//178
f 177//166 191//179 190//180
f 171//161 167//154 186//176
f 178//167 189//178 191//179
f 178//167 191//179 192//181
f 179//168 192//181 164//149
f 186//176 167//154 181//170
f 194//182 181//170 147//132
f 195//183 196//159 165//151
f 180//169 164//149 195//183
f 196//159 152//158 170//160
f 165//151 196//159 170//160
f 197//184 198//184 199//185
f 200//186 201//187 183//188
f 185//172 97//86 184//171
f 198//184 197//184 202//189
f 175//165 185//173 203//190
f 188//177 175//165 203//190
f 200//186 183//188 182//175
f 186//176 200//186 182//175
f 176//145 188//177 177//166
f 188//177 193//191 177//166
f 177//166 193//191 191//179
f 186//176 181//170 200//186
f 204//192 192//181 191//179
f 200//186 181//170 194//182
f 195//183 205//193 196//159
f 164//149 192//181 195//183
f 196//159 205//193 147//132
f 200//186 206//194 201//187
f 207//195 206//194 200//186
f 208//196 206//194 207//195
f 207//195 200//186 210//197
f 207//195 210//197 208//196
f 209//198 212//199 208//196
f 209//198 208//196 211//200
f 212//199 209//198 213//201
f 193//191 212//199 213//201
f 209//198 211//200 214//202
f 194//182 210//197 200//186
f 194//182 147//132 210//197
f 214//202 211//200 205//193
f 204//192 191//179 193//191
f 204//192 195//183 192//181
f 193//191 213//201 204//192
f 195//183 204//192 214//202
f 214//202 205//193 195//183
f 205//193 210//197 147//132
f 210//197 205//193 211//200
f 208//196 210//197 211//200
l 41 51
l 70 71
