# Blender v2.78 (sub 0) OBJ File: 'exporter.blend'
# www.blender.org
o FJ2478.obj_grp1.1181
v 0.482528 -0.400681 5.875558
v 0.502722 -0.389832 5.863459
v 0.479856 -0.400477 5.871755
v 0.506352 -0.389644 5.865483
v 0.479015 -0.400761 5.871041
v 0.488019 -0.412462 5.876165
v 0.479606 -0.400447 5.871711
v 0.482049 -0.401074 5.874885
v 0.483889 -0.404985 5.877576
v 0.483889 -0.404985 5.877576
v 0.481873 -0.407240 5.863822
v 0.479565 -0.401834 5.869079
v 0.481823 -0.406356 5.863586
v 0.482082 -0.408870 5.863868
v 0.491534 -0.398793 5.862263
v 0.482528 -0.400681 5.875558
v 0.487390 -0.405525 5.878704
v 0.483889 -0.404985 5.877576
v 0.483889 -0.404985 5.877576
v 0.488175 -0.412656 5.875506
v 0.482477 -0.406785 5.866659
v 0.506563 -0.397280 5.856976
v 0.491222 -0.398909 5.862272
v 0.486132 -0.409724 5.865531
v 0.487343 -0.414252 5.869219
v 0.487262 -0.414396 5.868979
v 0.508325 -0.398875 5.861286
v 0.521738 -0.382060 5.850219
v 0.518642 -0.382246 5.846576
v 0.517024 -0.382452 5.849073
v 0.520219 -0.386619 5.851646
v 0.521756 -0.380085 5.851756
v 0.506606 -0.392868 5.855277
v 0.506606 -0.392868 5.855277
v 0.519639 -0.382620 5.847795
v 0.513142 -0.392620 5.863873
v 0.519132 -0.381445 5.849046
v 0.522850 -0.384936 5.847719
v 0.519161 -0.383543 5.846492
v 0.519255 -0.379112 5.852110
vn -0.3026 0.9036 0.3032
vn -0.4198 0.9062 -0.0503
vn -0.3221 0.9059 0.2750
vn 0.1004 0.7509 0.6527
vn -0.8135 -0.5278 0.2441
vn -0.8263 -0.5036 0.2523
vn -0.8161 -0.5040 0.2829
vn -0.8164 -0.5252 0.2402
vn -0.5204 0.6214 -0.5856
vn -0.5432 0.6650 -0.5126
vn -0.5727 0.5876 -0.5716
vn -0.0838 0.4828 0.8717
vn 0.0513 -0.0005 0.9987
vn -0.2379 0.3498 0.9061
vn -0.3361 -0.4159 0.8450
vn 0.4737 -0.8430 0.2548
vn -0.2673 -0.2785 -0.9225
vn 0.1920 -0.5769 -0.7939
vn 0.0156 -0.7424 -0.6698
vn -0.7848 -0.5633 0.2583
vn 0.6452 -0.7437 -0.1750
vn 0.8363 -0.0507 0.5459
vn -0.3150 0.9048 0.2865
vn 0.5509 -0.1066 -0.8277
vn 0.5075 -0.0773 -0.8582
vn 0.5315 -0.1109 -0.8397
vn -0.4203 0.8789 0.2256
vn -0.3151 -0.4628 -0.8286
vn -0.3234 -0.2809 -0.9036
vn -0.2721 -0.3676 -0.8893
vn 0.7855 -0.6138 -0.0790
vn 0.7108 -0.5708 -0.4110
s 1
f 1//1 2//2 3//3
f 2//2 1//1 4//4
f 5//5 6//6 10//7
f 5//5 14//8 6//6
f 7//9 15//10 13//11
f 4//4 16//12 17//13
f 18//14 17//13 16//12
f 19//15 20//16 17//13
f 15//10 7//9 2//2
f 23//17 22//18 21//19
f 6//6 14//8 26//20
f 27//21 21//19 22//18
f 27//21 20//16 21//19
f 20//16 36//22 17//13
f 28//23 2//2 4//4
f 31//24 30//25 32//26
f 29//27 33//28 15//10
f 2//2 28//23 15//10
f 28//23 29//27 15//10
f 22//18 34//29 35//30
f 34//29 22//18 23//17
f 36//22 28//23 4//4
f 36//22 4//4 17//13
f 36//22 27//21 37//31
f 27//21 36//22 20//16
f 40//32 27//21 22//18
l 24 25
l 38 39
l 11 12
l 8 9
