# Blender v2.78 (sub 0) OBJ File: 'exporter.blend'
# www.blender.org
o FJ2480.obj_grp1.1183
v 0.243851 -0.174174 5.956577
v 0.237302 -0.182680 5.962788
v 0.249462 -0.176735 5.952263
v 0.243174 -0.196154 5.958259
v 0.243441 -0.193624 5.958666
v 0.234272 -0.180180 5.963386
v 0.285668 -0.192555 6.007975
v 0.247740 -0.176947 5.954362
v 0.277481 -0.181217 6.005252
v 0.253538 -0.183115 5.950325
v 0.252235 -0.192187 5.952894
v 0.300222 -0.178817 6.003145
v 0.254502 -0.187265 5.950361
v 0.284046 -0.188703 5.990077
v 0.288233 -0.187808 6.010402
v 0.266732 -0.192196 5.977304
v 0.266581 -0.192963 5.976257
v 0.281524 -0.193697 5.995224
v 0.277170 -0.181619 6.004613
v 0.281524 -0.193697 5.995224
v 0.332543 -0.185064 6.017943
v 0.304308 -0.178704 6.005505
v 0.332991 -0.187808 6.022160
v 0.333286 -0.184576 6.022730
v 0.333490 -0.184583 6.023772
v 0.334873 -0.182492 6.019579
v 0.335259 -0.190968 6.020131
v 0.331853 -0.184690 6.020691
v 0.332899 -0.187546 6.017764
v 0.334490 -0.188069 6.020621
v 0.333546 -0.187627 6.021698
v 0.333517 -0.184719 6.023673
v 0.334490 -0.188069 6.020621
v 0.334759 -0.182731 6.019354
v 0.332178 -0.183152 6.023031
v 0.335332 -0.186331 6.018086
v 0.334682 -0.186938 6.018694
v 0.332062 -0.186849 6.016490
v 0.335332 -0.186331 6.018086
vn -0.5862 -0.0856 -0.8056
vn -0.5924 -0.1226 -0.7963
vn -0.6724 0.0129 -0.7401
vn -0.2869 -0.7976 0.5306
vn -0.5824 -0.5923 0.5568
vn -0.2260 -0.9540 0.1968
vn -0.5358 -0.1386 -0.8329
vn -0.4452 -0.1804 -0.8771
vn 0.7067 -0.2499 -0.6619
vn 0.1453 0.9617 -0.2323
vn 0.4335 0.8683 -0.2411
vn -0.6317 -0.0832 -0.7708
vn -0.0916 0.9841 0.1518
vn -0.3902 0.6288 0.6726
vn 0.3195 -0.9042 -0.2836
vn -0.3286 -0.0502 0.9431
vn -0.2628 -0.9497 0.1703
vn -0.1731 -0.9718 0.1600
vn 0.7152 -0.3760 -0.5892
vn -0.6379 -0.4592 0.6182
vn 0.4313 0.4769 -0.7659
vn 0.3597 0.2839 -0.8889
vn -0.1736 -0.4854 0.8569
vn 0.2889 -0.8514 -0.4377
vn 0.3303 -0.8981 -0.2903
vn 0.0709 -0.9901 0.1213
vn -0.1185 0.8323 0.5416
vn -0.2307 -0.4027 0.8858
vn -0.2197 0.8478 0.4826
vn 0.2928 0.2460 -0.9240
vn -0.0700 -0.6138 0.7863
vn 0.0915 -0.9888 0.1177
vn 0.8807 0.0684 0.4687
vn 0.8570 0.0803 0.5090
vn 0.8119 0.1034 0.5746
vn 0.2341 0.3854 -0.8926
vn 0.9415 0.0329 0.3353
s 1
f 3//1 4//2 2//3
f 7//4 6//5 5//6
f 10//7 11//8 4//2
f 13//9 8//10 12//11
f 2//3 1//12 3//1
f 4//2 3//1 10//7
f 8//10 6//13 9//14
f 13//9 16//15 5//6
f 16//15 7//4 5//6
f 12//11 8//10 9//14
f 6//5 7//4 15//16
f 17//17 18//18 7//4
f 14//19 16//15 13//9
f 13//9 12//11 14//19
f 15//16 19//20 6//5
f 14//19 12//11 22//21
f 21//22 14//19 22//21
f 15//16 7//4 23//23
f 9//14 19//20 15//16
f 20//24 16//25 21//26
f 15//16 24//27 9//14
f 15//16 23//23 25//28
f 9//14 26//29 12//11
f 21//22 22//21 26//30
f 18//18 27//31 7//4
f 23//23 7//4 27//31
f 21//26 28//32 20//24
f 26//29 9//14 24//27
f 33//33 34//34 35//35
f 21//22 26//30 36//36
f 34//34 33//33 39//37
l 31 32
l 29 30
l 37 38
