# Blender v2.78 (sub 0) OBJ File: 'exporter.blend'
# www.blender.org
o FJ2476.obj_grp1.1179
v 0.408378 -0.455322 5.840786
v 0.404220 -0.443733 5.856110
v 0.441900 -0.429446 5.864385
v 0.463072 -0.413833 5.858047
v 0.403077 -0.445032 5.852216
v 0.405129 -0.444705 5.859549
v 0.405929 -0.450049 5.865511
v 0.463072 -0.413833 5.858047
v 0.403632 -0.444793 5.851399
v 0.413771 -0.466059 5.861311
v 0.410503 -0.448692 5.865103
v 0.406061 -0.450989 5.843306
v 0.408356 -0.453156 5.865409
v 0.464025 -0.428635 5.869824
v 0.408905 -0.456370 5.841563
v 0.458062 -0.436366 5.847327
v 0.410959 -0.467775 5.847584
v 0.463072 -0.413833 5.858047
v 0.441900 -0.429446 5.864385
v 0.470482 -0.408035 5.867132
v 0.414096 -0.465847 5.859758
v 0.469137 -0.417790 5.852914
v 0.414455 -0.467196 5.848142
v 0.489504 -0.392040 5.876637
v 0.468865 -0.408856 5.866433
v 0.470537 -0.413602 5.874054
v 0.491247 -0.393433 5.871315
v 0.489504 -0.392040 5.876637
v 0.469245 -0.417793 5.853070
v 0.504363 -0.374500 5.893893
v 0.494286 -0.388921 5.890820
v 0.505705 -0.379850 5.901170
v 0.488340 -0.396489 5.885464
v 0.511020 -0.380363 5.896539
v 0.504522 -0.375245 5.894524
v 0.503883 -0.375208 5.897669
v 0.504654 -0.375276 5.895394
v 0.508972 -0.375823 5.893444
v 0.503883 -0.375208 5.897669
v 0.506284 -0.381616 5.900570
v 0.511456 -0.378398 5.895322
v 0.503883 -0.375208 5.897669
v 0.508972 -0.375823 5.893444
v 0.488157 -0.417208 5.866787
v 0.511038 -0.381366 5.896355
v 0.510996 -0.380348 5.896266
v 0.507996 -0.381305 5.900721
vn -0.3465 0.5683 0.7463
vn -0.4001 0.7539 0.5210
vn -0.3346 0.5823 0.7409
vn -0.9542 0.1363 0.2662
vn -0.9548 0.1454 0.2591
vn -0.9566 0.1542 0.2471
vn -0.9196 -0.3539 0.1708
vn -0.9560 -0.2556 0.1443
vn -0.8635 -0.2876 0.4143
vn 0.0062 0.1756 -0.9844
vn -0.3434 0.6931 -0.6338
vn -0.3057 0.7406 -0.5985
vn -0.8990 -0.4300 -0.0831
vn -0.1862 0.0815 0.9791
vn 0.1798 -0.4498 0.8749
vn -0.9393 -0.3431 -0.0059
vn -0.9676 -0.1154 0.2245
vn -0.5950 0.8033 -0.0258
vn -0.5979 0.8012 -0.0236
vn -0.6565 0.7536 0.0329
vn 0.4219 -0.7230 0.5471
vn 0.2306 0.3247 -0.9173
vn 0.4944 -0.3867 -0.7785
vn 0.5084 -0.7259 -0.4633
vn -0.5028 0.8121 -0.2962
vn 0.8066 -0.5196 -0.2817
vn -0.6704 0.5263 0.5230
vn -0.6462 0.3256 0.6902
vn 0.2451 0.6051 -0.7575
vn -0.4932 0.7989 -0.3442
vn 0.7855 -0.2025 -0.5847
vn 0.5821 0.4091 -0.7027
vn -0.7065 0.0835 0.7028
vn -0.3557 -0.3056 0.8832
vn -0.7020 0.7082 0.0752
vn -0.6146 0.7723 -0.1607
vn -0.6279 0.7662 -0.1367
vn -0.7730 0.2256 0.5929
vn 0.4481 0.4999 0.7411
vn 0.4645 0.6155 0.6368
vn 0.4581 0.6272 0.6299
vn 0.4612 0.7684 0.4436
vn 0.6533 0.2782 -0.7041
vn 0.3610 -0.7345 0.5746
s 1
f 3//1 4//2 2//3
f 5//4 7//5 6//6
f 9//7 10//8 11//9
f 1//10 2//11 8//12
f 12//13 10//8 9//7
f 2//3 13//14 3//1
f 14//15 3//1 13//14
f 15//16 10//8 12//13
f 15//16 17//17 10//8
f 18//18 19//19 20//20
f 21//21 14//15 13//14
f 8//12 22//22 1//10
f 22//22 16//23 1//10
f 16//23 23//24 1//10
f 24//25 18//18 20//20
f 44//26 14//15 21//21
f 25//27 3//1 26//28
f 14//15 26//28 3//1
f 8//12 27//29 22//22
f 8//12 28//30 27//29
f 22//22 29//31 16//23
f 44//26 21//21 23//24
f 27//29 28//30 30//32
f 31//33 25//27 26//28
f 26//28 32//34 33//35
f 32//34 26//28 14//15
f 35//36 20//20 36//37
f 24//25 20//20 35//36
f 32//34 31//33 33//35
f 25//27 31//33 39//38
f 31//33 32//34 39//38
f 40//39 41//40 42//41
f 41//40 43//42 42//41
f 16//23 29//31 27//29
f 23//24 16//23 44//26
f 27//29 44//26 16//23
f 30//32 34//43 27//29
f 32//34 44//26 45//44
f 27//29 34//43 44//26
f 14//15 44//26 32//34
l 46 47
l 37 38
