# Blender v2.78 (sub 0) OBJ File: 'exporter.blend'
# www.blender.org
o FJ2518.obj_grp1.1221
v -0.303521 -0.186408 6.139175
v -0.307493 -0.197767 6.134464
v -0.299927 -0.188346 6.140469
v -0.302776 -0.186700 6.139255
v -0.299945 -0.188352 6.140472
v -0.305872 -0.186058 6.141639
v -0.305855 -0.185869 6.141885
v -0.305683 -0.186392 6.142588
v -0.314438 -0.204566 6.131173
v -0.314197 -0.202703 6.137144
v -0.304209 -0.186230 6.139536
v -0.303869 -0.188031 6.145452
v -0.300829 -0.189135 6.144842
v -0.302654 -0.188927 6.145639
v -0.306045 -0.187463 6.143949
v -0.306045 -0.187463 6.143949
v -0.304682 -0.188069 6.145311
v -0.305683 -0.186392 6.142588
v -0.303869 -0.188031 6.145452
v -0.308604 -0.198311 6.143158
v -0.304007 -0.188082 6.145385
v -0.302650 -0.188935 6.145667
v -0.300111 -0.189655 6.140663
v -0.300111 -0.189655 6.140663
v -0.300052 -0.188320 6.140471
v -0.300107 -0.189006 6.143292
v -0.300079 -0.189153 6.144063
v -0.307514 -0.210080 6.134449
v -0.302935 -0.197046 6.138236
v -0.312017 -0.205602 6.128800
v -0.305438 -0.201644 6.141016
v -0.306789 -0.206775 6.132009
v -0.303028 -0.197246 6.138081
v -0.315238 -0.209897 6.136142
v -0.311738 -0.212737 6.135532
v -0.312590 -0.223176 6.116085
v -0.317569 -0.217561 6.115084
v -0.323950 -0.220382 6.117816
v -0.312789 -0.224284 6.121001
v -0.321429 -0.218309 6.116016
v -0.321429 -0.218309 6.116016
v -0.319979 -0.226633 6.121710
v -0.316400 -0.219035 6.113893
v -0.318617 -0.219148 6.114749
v -0.321429 -0.218309 6.116016
v -0.323438 -0.220130 6.117472
v -0.321429 -0.218309 6.116016
v -0.318617 -0.219148 6.114749
v -0.314854 -0.226773 6.119960
v -0.322475 -0.225009 6.121382
v -0.315943 -0.227397 6.120977
v -0.316382 -0.218979 6.114013
v -0.312762 -0.222930 6.115942
v -0.323517 -0.221969 6.119115
v -0.322437 -0.224996 6.121368
v -0.316967 -0.227177 6.121650
v -0.312649 -0.223978 6.116674
v -0.316088 -0.227332 6.120993
v -0.319403 -0.226631 6.121603
v -0.319403 -0.226631 6.121603
v -0.316088 -0.227332 6.120993
v -0.316967 -0.227177 6.121650
vn -0.5661 0.7075 -0.4230
vn -0.8088 0.5545 -0.1958
vn -0.1089 0.4812 -0.8698
vn 0.4054 0.8888 0.2136
vn 0.3254 0.9417 0.0850
vn 0.4132 0.8818 0.2274
vn -0.9220 0.2632 0.2839
vn 0.4055 0.8172 0.4096
vn 0.3859 0.8284 0.4060
vn 0.3680 0.6399 0.6746
vn -0.6379 0.6798 0.3619
vn -0.8237 0.3063 0.4772
vn -0.2149 0.7943 0.5682
vn -0.1740 0.8084 0.5624
vn -0.1750 0.8082 0.5622
vn -0.1339 0.8207 0.5554
vn -0.3427 -0.2059 0.9166
vn -0.4344 -0.0197 0.9005
vn 0.3902 0.3032 -0.8694
vn 0.3928 0.8861 0.2461
vn 0.4116 0.8860 0.2136
vn 0.7676 -0.4385 0.4674
vn 0.9776 -0.2024 0.0578
vn 0.9988 -0.0459 -0.0157
vn 0.8369 -0.4964 0.2307
vn 0.0850 -0.3183 0.9442
vn 0.8559 -0.1615 -0.4912
vn 0.5955 0.0638 -0.8008
vn 0.5701 0.0962 -0.8159
vn 0.5353 -0.4782 0.6963
vn 0.1638 0.6327 -0.7568
vn 0.8640 0.0199 -0.5031
vn 0.9472 -0.2970 -0.1209
vn -0.6505 -0.2420 0.7199
vn 0.1405 -0.6431 0.7528
vn 0.9305 -0.0822 -0.3571
vn -0.0719 0.6302 -0.7731
vn -0.9200 0.3608 0.1532
vn -0.2874 0.7719 -0.5671
vn -0.7167 0.6482 -0.2572
vn 0.8328 -0.5425 0.1107
vn 0.3558 0.6280 -0.6921
vn -0.3159 0.3837 -0.8678
vn -0.2866 0.3695 -0.8839
vn -0.3459 -0.5012 -0.7932
vn -0.4503 -0.1989 -0.8704
vn -0.3121 -0.5231 -0.7931
vn -0.2777 -0.6345 -0.7213
vn -0.2550 -0.5950 0.7622
vn 0.5490 -0.7234 0.4188
vn -0.2321 -0.6057 -0.7611
vn -0.1902 -0.5891 -0.7853
vn -0.2814 -0.6342 -0.7201
vn -0.2823 -0.6315 -0.7222
vn -0.7051 -0.2392 0.6676
vn -0.3168 -0.5454 -0.7760
vn -0.2693 -0.6752 -0.6868
vn -0.2756 -0.6516 -0.7067
vn 0.0834 -0.7042 0.7051
vn -0.2171 -0.9742 -0.0617
s 1
f 9//1 6//2 1//3
f 4//4 11//5 7//6
f 9//1 10//7 6//2
f 4//4 12//8 13//9
f 13//9 12//8 14//10
f 8//11 6//2 15//12
f 4//4 7//6 12//8
f 16//13 17//14 18//15
f 17//14 19//16 18//15
f 20//17 21//18 15//12
f 6//2 10//7 15//12
f 2//19 9//1 1//3
f 4//4 26//20 5//21
f 27//22 24//23 25//24
f 28//25 24//23 27//22
f 13//9 26//20 4//4
f 20//17 15//12 10//7
f 21//18 20//17 22//26
f 23//27 29//28 3//29
f 27//22 31//30 28//25
f 27//22 22//26 20//17
f 1//3 3//29 2//19
f 29//28 2//19 3//29
f 27//22 20//17 31//30
f 30//31 9//1 2//19
f 32//32 33//33 28//25
f 32//32 2//19 29//28
f 34//34 20//17 10//7
f 35//35 31//30 20//17
f 30//31 2//19 32//32
f 35//35 28//25 31//30
f 35//35 20//17 34//34
f 36//36 32//32 28//25
f 30//31 37//37 9//1
f 30//31 32//32 37//37
f 9//1 38//38 10//7
f 40//39 9//1 37//37
f 9//1 41//40 38//38
f 38//38 34//34 10//7
f 39//41 36//36 28//25
f 37//37 32//32 43//42
f 37//37 44//43 45//44
f 44//43 37//37 43//42
f 46//45 47//46 48//47
f 48//47 49//48 46//45
f 42//49 35//35 34//34
f 28//25 35//35 51//50
f 51//50 39//41 28//25
f 36//36 43//42 32//32
f 53//51 48//47 52//52
f 53//51 49//48 48//47
f 49//48 54//53 46//45
f 55//54 54//53 49//48
f 50//55 34//34 38//38
f 42//49 34//34 50//55
f 49//48 53//51 57//56
f 51//50 36//36 39//41
f 58//57 59//58 49//48
f 51//50 35//35 56//59
f 60//60 61//60 62//60
f 49//48 59//58 55//54
f 56//59 35//35 42//49
