# Blender v2.78 (sub 0) OBJ File: 'exporter.blend'
# www.blender.org
o FJ2517.obj_grp1.1220
v -0.350705 -0.222305 6.176874
v -0.369848 -0.222904 6.185933
v -0.370296 -0.223729 6.183948
v -0.368726 -0.223397 6.189129
v -0.323359 -0.219107 6.157885
v -0.325452 -0.219004 6.156167
v -0.337178 -0.221152 6.166373
v -0.320966 -0.219730 6.160371
v -0.345632 -0.221507 6.176575
v -0.339245 -0.222979 6.177555
v -0.320618 -0.220061 6.160895
v -0.355013 -0.223692 6.176906
v -0.346091 -0.224669 6.170275
v -0.352111 -0.224007 6.184684
v -0.357627 -0.225675 6.176858
v -0.370296 -0.223729 6.183948
v -0.371079 -0.226143 6.182557
v -0.369833 -0.222982 6.185919
v -0.370296 -0.223729 6.183948
v -0.371007 -0.226112 6.182628
v -0.370227 -0.231470 6.185121
v -0.370891 -0.229265 6.182687
v -0.371135 -0.227757 6.182493
v -0.353630 -0.228586 6.186392
v -0.368729 -0.223421 6.189017
v -0.368035 -0.227306 6.191262
v -0.368241 -0.226015 6.190520
v -0.367755 -0.227506 6.191026
v -0.369112 -0.231819 6.187840
v -0.326659 -0.222055 6.154090
v -0.324936 -0.219272 6.156708
v -0.318785 -0.222963 6.162446
v -0.325962 -0.220112 6.155311
v -0.327397 -0.223011 6.153192
v -0.326659 -0.222055 6.154090
v -0.327374 -0.222992 6.153296
v -0.340308 -0.225161 6.165185
v -0.320923 -0.220264 6.160990
v -0.318639 -0.223021 6.162546
v -0.321624 -0.219389 6.159770
v -0.329882 -0.225920 6.172825
v -0.348818 -0.230092 6.172204
v -0.358952 -0.229418 6.177380
v -0.342358 -0.227212 6.181247
v -0.341706 -0.229350 6.180479
v -0.370964 -0.229839 6.183093
v -0.370817 -0.229284 6.182689
v -0.370935 -0.229754 6.183103
v -0.370935 -0.229754 6.183103
v -0.367849 -0.230308 6.190275
v -0.368933 -0.231503 6.188783
v -0.367880 -0.230229 6.190191
v -0.327524 -0.227246 6.152728
v -0.327524 -0.227246 6.152728
v -0.318154 -0.225849 6.162822
v -0.318373 -0.228669 6.162493
v -0.327121 -0.229145 6.153594
v -0.318096 -0.228166 6.162674
v -0.333937 -0.230352 6.174668
v -0.336743 -0.232199 6.174429
v -0.350455 -0.232139 6.182539
v -0.370227 -0.231609 6.185190
v -0.347099 -0.233111 6.176028
v -0.369179 -0.231876 6.187822
v -0.326180 -0.229831 6.153808
v -0.325909 -0.230641 6.153248
v -0.327232 -0.229256 6.153480
v -0.327524 -0.227246 6.152728
v -0.320778 -0.232424 6.159703
v -0.326086 -0.230677 6.153903
v -0.318511 -0.228633 6.162446
v -0.319345 -0.230932 6.161107
v -0.323922 -0.232824 6.156643
v -0.321723 -0.232872 6.159128
v -0.326087 -0.230674 6.153902
v -0.324131 -0.232646 6.156437
v -0.322989 -0.232901 6.157658
v -0.319704 -0.231346 6.160803
v -0.321877 -0.232744 6.158972
vn -0.2048 0.9140 -0.3501
vn -0.1875 0.9160 -0.3547
vn -0.0723 0.9937 -0.0851
vn -0.2781 0.9267 -0.2528
vn -0.4296 0.8365 -0.3402
vn -0.0462 0.9865 0.1568
vn 0.1295 0.9473 0.2929
vn -0.0083 0.9927 0.1205
vn 0.3632 0.6707 0.6467
vn 0.3120 0.7818 0.5399
vn -0.3239 0.6964 -0.6404
vn -0.5156 0.4312 -0.7404
vn 0.2902 0.6076 0.7394
vn -0.4183 0.3375 -0.8432
vn -0.3570 0.5219 -0.7747
vn -0.3711 0.2692 -0.8887
vn 0.1651 0.8069 0.5671
vn -0.9580 0.0717 0.2777
vn -0.9629 0.1952 0.1863
vn -0.9430 0.0408 0.3303
vn -0.9335 -0.0190 0.3580
vn -0.9422 0.0133 0.3349
vn 0.3400 -0.1951 0.9200
vn 0.3081 0.1357 0.9416
vn -0.9220 -0.0450 0.3847
vn -0.8462 -0.1549 0.5099
vn -0.8552 -0.1721 0.4888
vn 0.7123 0.0751 -0.6979
vn 0.7566 0.1410 -0.6385
vn 0.7415 0.1208 -0.6600
vn 0.7518 0.1953 -0.6298
vn -0.6556 0.3509 -0.6686
vn 0.5383 0.2721 -0.7976
vn 0.7314 0.0455 -0.6804
vn -0.6522 0.2982 -0.6969
vn 0.5601 0.3966 0.7273
vn 0.6009 -0.4452 -0.6639
vn 0.7870 0.2102 -0.5800
vn 0.5850 0.1302 0.8005
vn -0.4511 -0.5220 -0.7239
vn -0.4163 -0.3758 -0.8279
vn 0.4691 0.0891 0.8786
vn -0.3074 -0.6668 -0.6789
vn -0.3798 -0.3024 -0.8743
vn -0.6497 -0.0433 0.7589
vn -0.9708 -0.0832 -0.2251
vn -0.9025 -0.0990 0.4191
vn -0.9398 -0.0603 -0.3364
vn 0.4667 -0.4377 0.7685
vn -0.9373 0.0225 0.3477
vn -0.8432 -0.1218 0.5237
vn 0.2416 -0.5829 0.7758
vn 0.7211 0.0724 -0.6890
vn -0.7042 -0.0608 -0.7074
vn 0.6373 0.0360 -0.7698
vn 0.6986 0.0480 -0.7139
vn -0.6456 -0.4736 -0.5990
vn 0.6296 -0.2974 0.7177
vn 0.5257 -0.4812 0.7015
vn 0.2024 -0.8223 0.5318
vn 0.2791 -0.8632 0.4207
vn -0.0828 -0.9767 -0.1980
vn 0.0001 -0.9897 0.1434
vn -0.1680 -0.9296 -0.3282
vn 0.1151 -0.8985 0.4236
vn 0.7341 0.0439 -0.6777
vn -0.5724 -0.2933 -0.7657
vn -0.4723 -0.2852 -0.8340
vn -0.5168 -0.3647 -0.7746
vn 0.7081 -0.0371 -0.7051
vn 0.4623 -0.7083 0.5335
vn 0.5159 -0.6479 0.5604
vn -0.4741 -0.7207 -0.5057
vn 0.1977 -0.9538 0.2261
vn -0.1955 -0.9477 -0.2524
vn 0.7093 -0.1302 -0.6928
vn 0.6916 -0.2389 -0.6816
vn 0.7014 -0.2744 -0.6579
vn 0.6271 0.0955 -0.7731
vn 0.4322 -0.8649 -0.2553
s 1
f 1//1 3//2 2//3
f 6//4 7//5 5//6
f 8//7 5//6 9//8
f 9//8 10//9 8//7
f 10//9 11//10 8//7
f 7//5 9//8 5//6
f 9//8 7//5 1//1
f 12//11 1//1 13//12
f 10//9 9//8 14//13
f 1//1 12//11 3//2
f 15//14 16//15 12//11
f 16//15 15//14 17//16
f 14//13 9//8 4//17
f 9//8 2//3 4//17
f 1//1 2//3 9//8
f 18//18 19//19 20//20
f 18//18 20//20 21//21
f 21//21 25//22 18//18
f 24//23 14//13 26//24
f 4//17 26//24 14//13
f 27//25 25//22 21//21
f 28//26 27//25 21//21
f 28//26 21//21 29//27
f 30//28 31//29 32//30
f 33//31 31//29 30//28
f 34//32 6//4 35//33
f 7//5 6//4 34//32
f 36//34 30//28 32//30
f 37//35 7//5 34//32
f 10//9 39//36 11//10
f 31//29 40//37 38//38
f 32//30 31//29 38//38
f 37//35 1//1 7//5
f 37//35 13//12 1//1
f 41//39 39//36 10//9
f 42//40 13//12 37//35
f 43//41 13//12 42//40
f 44//42 41//39 10//9
f 13//12 15//14 12//11
f 13//12 43//41 15//14
f 46//43 22//44 43//41
f 15//14 43//41 17//16
f 43//41 22//44 17//16
f 23//45 47//46 20//47
f 47//46 48//48 20//47
f 44//42 10//9 14//13
f 24//23 44//42 14//13
f 44//42 24//23 45//49
f 49//50 21//21 20//20
f 52//51 28//26 29//27
f 24//23 26//24 50//52
f 54//53 36//34 32//30
f 53//54 37//35 34//32
f 32//30 55//55 56//56
f 53//54 57//57 37//35
f 58//58 39//36 41//39
f 42//40 37//35 57//57
f 59//59 58//58 41//39
f 45//49 59//59 41//39
f 45//49 41//39 44//42
f 61//60 60//61 59//59
f 63//62 61//60 64//63
f 62//64 46//43 63//62
f 43//41 63//62 46//43
f 61//60 59//59 45//49
f 24//23 61//60 45//49
f 50//52 61//60 24//23
f 61//60 51//65 64//63
f 63//62 64//63 62//64
f 51//65 61//60 50//52
f 54//53 32//30 65//66
f 66//67 67//68 68//69
f 65//66 32//30 69//70
f 59//59 72//71 71//72
f 58//58 59//59 71//72
f 57//57 63//62 42//40
f 63//62 57//57 70//73
f 60//61 72//71 59//59
f 60//61 74//74 72//71
f 73//75 74//74 63//62
f 74//74 60//61 63//62
f 42//40 63//62 43//41
f 63//62 60//61 61//60
f 65//66 69//70 75//76
f 69//70 76//77 75//76
f 32//30 56//56 69//70
f 69//70 77//78 76//77
f 56//56 78//79 69//70
f 69//70 79//80 77//78
f 70//73 73//75 63//62
