# Blender v2.78 (sub 0) OBJ File: 'exporter.blend'
# www.blender.org
o FJ2579.obj_grp1.1280
v -0.139162 -0.788925 4.212110
v -0.113643 -0.808597 4.126334
v -0.096274 -0.811939 4.216575
v -0.146863 -0.747676 4.215197
v -0.130301 -0.759165 4.235157
v -0.113486 -0.780963 4.238787
v -0.134158 -0.780250 4.126964
v -0.140112 -0.720549 4.163714
v -0.122867 -0.727509 4.123235
v -0.129242 -0.703986 4.209444
v -0.095354 -0.736118 4.239780
v -0.115656 -0.684505 4.164174
v -0.059702 -0.777001 4.221993
v -0.075982 -0.805196 4.218642
v -0.096767 -0.746564 4.103817
v -0.095427 -0.706023 4.124285
v -0.067464 -0.712726 4.219112
v -0.106848 -0.685395 4.185974
v -0.065696 -0.700485 4.177381
v -0.086336 -0.814936 4.123525
v -0.091828 -0.795125 4.108008
v -0.052493 -0.803160 4.178459
v -0.040251 -0.719379 4.129558
v -0.024230 -0.711966 4.151390
v -0.048145 -0.811417 4.125179
v -0.041333 -0.778879 4.105166
v 0.020891 -0.812428 4.152132
v -0.044568 -0.782275 4.188297
v -0.043018 -0.747154 4.191321
v -0.048629 -0.717287 4.183704
v 0.010860 -0.811974 4.108496
v 0.026682 -0.775283 4.173054
v -0.042773 -0.734779 4.114678
v 0.010106 -0.779009 4.082663
v 0.031219 -0.723525 4.149404
v 0.014429 -0.717457 4.121665
v 0.028677 -0.807378 4.102210
v 0.041328 -0.778553 4.089159
v 0.028677 -0.807378 4.102210
v 0.052492 -0.791170 4.143180
v 0.034971 -0.736475 4.097379
v 0.049925 -0.731888 4.125218
v 0.034971 -0.736475 4.097379
v 0.057316 -0.751047 4.143373
v 0.048432 -0.799988 4.113580
v 0.048432 -0.799988 4.113580
v 0.061876 -0.758018 4.121205
v 0.034971 -0.736475 4.097379
v 0.049925 -0.731888 4.125218
v 0.061876 -0.758018 4.121205
v 0.049925 -0.731888 4.125218
vn -0.5106 -0.7400 -0.4377
vn -0.0883 -0.9007 0.4254
vn -0.7898 -0.5337 0.3024
vn -0.5332 -0.0177 0.8458
vn -0.9395 0.1335 0.3154
vn -0.1528 -0.3726 0.9153
vn -0.8060 -0.2311 -0.5450
vn -0.9184 0.3308 -0.2169
vn -0.6538 0.3786 -0.6551
vn -0.5485 0.6563 0.5180
vn 0.0823 0.2569 0.9629
vn -0.3509 0.9190 -0.1797
vn 0.4044 -0.7015 0.5869
vn 0.6946 -0.1791 0.6968
vn -0.1949 0.1817 -0.9638
vn -0.0593 0.7246 -0.6866
vn 0.4711 0.5322 0.7035
vn -0.0281 0.9603 0.2775
vn 0.4038 0.8914 0.2055
vn -0.1670 -0.3565 -0.9193
vn -0.0862 -0.9372 -0.3380
vn 0.3401 -0.8632 0.3730
vn -0.0037 0.4424 -0.8968
vn 0.0631 0.8250 -0.5617
vn 0.2260 0.9737 0.0297
vn 0.0163 -0.7991 -0.6010
vn -0.1829 -0.1427 -0.9727
vn 0.3552 -0.8438 0.4023
vn 0.6091 -0.3395 0.7168
vn 0.6611 0.1314 0.7387
vn 0.6222 0.5965 0.5070
vn 0.4658 -0.1019 0.8790
vn -0.0791 -0.8729 -0.4815
vn -0.1160 -0.1504 -0.9818
vn 0.4534 0.7751 0.4400
vn 0.1111 0.9241 -0.3655
vn 0.2010 -0.5764 -0.7921
vn 0.5184 -0.1633 -0.8394
vn 0.3108 -0.9492 -0.0485
vn 0.8028 -0.4384 0.4042
vn -0.0696 0.4759 -0.8767
vn 0.3861 0.9027 -0.1898
vn 0.3829 0.8563 -0.3467
vn 0.4707 -0.8805 0.0555
vn 0.8456 -0.3648 -0.3898
vn 0.9544 0.0095 -0.2984
vn 0.8176 0.3006 0.4911
vn 0.7603 0.3321 -0.5582
vn 0.7666 0.4246 -0.4817
vn 0.9112 0.4077 0.0592
vn 0.8306 0.5168 0.2072
s 1
f 2//1 3//2 1//3
f 1//3 5//4 4//5
f 1//3 6//6 5//4
f 3//2 6//6 1//3
f 7//7 1//3 4//5
f 7//7 8//8 9//9
f 7//7 4//5 8//8
f 8//8 4//5 10//10
f 5//4 10//10 4//5
f 5//4 11//11 10//10
f 12//12 9//9 8//8
f 8//8 10//10 12//12
f 7//7 2//1 1//3
f 14//13 13//14 6//6
f 9//9 15//15 7//7
f 6//6 11//11 5//4
f 13//14 11//11 6//6
f 15//15 9//9 16//16
f 11//11 17//17 10//10
f 16//16 9//9 12//12
f 12//12 18//18 19//19
f 12//12 10//10 18//18
f 17//17 18//18 10//10
f 2//1 21//20 20//21
f 20//21 3//2 2//1
f 20//21 22//22 3//2
f 22//22 14//13 3//2
f 6//6 3//2 14//13
f 21//20 2//1 7//7
f 7//7 15//15 21//20
f 33//23 15//15 16//16
f 33//23 16//16 23//24
f 13//14 17//17 11//11
f 16//16 24//25 23//24
f 24//25 16//16 12//12
f 18//18 17//17 19//19
f 25//26 20//21 21//20
f 21//20 26//27 25//26
f 27//28 22//22 20//21
f 27//28 20//21 25//26
f 21//20 15//15 26//27
f 13//14 28//29 29//30
f 14//13 22//22 13//14
f 22//22 28//29 13//14
f 15//15 33//23 26//27
f 29//30 17//17 13//14
f 29//30 30//31 17//17
f 19//19 24//25 12//12
f 19//19 17//17 30//31
f 27//28 28//29 22//22
f 32//32 29//30 28//29
f 32//32 28//29 27//28
f 30//31 24//25 19//19
f 27//28 25//26 31//33
f 25//26 26//27 34//34
f 33//23 34//34 26//27
f 35//35 30//31 29//30
f 23//24 24//25 36//36
f 37//37 31//33 34//34
f 37//37 34//34 38//38
f 31//33 39//39 27//28
f 31//33 25//26 34//34
f 27//28 40//40 32//32
f 34//34 33//23 41//41
f 41//41 33//23 36//36
f 36//36 33//23 23//24
f 42//42 43//43 36//36
f 36//36 24//25 35//35
f 42//42 36//36 35//35
f 35//35 24//25 30//31
f 39//39 45//44 27//28
f 40//40 27//28 45//44
f 38//38 46//45 37//37
f 38//38 47//46 46//45
f 47//46 40//40 46//45
f 32//32 40//40 44//47
f 38//38 34//34 41//41
f 47//46 38//38 48//48
f 47//46 48//48 49//49
f 44//47 50//50 51//51
f 47//46 44//47 40//40
f 32//32 35//35 29//30
f 35//35 32//32 44//47
f 35//35 44//47 51//51
