# Blender v2.78 (sub 0) OBJ File: 'exporter.blend'
# www.blender.org
o FJ2555.obj_grp1.1258
v 0.004396 -0.967866 6.951276
v 0.001650 -0.959776 6.969359
v 0.010842 -0.976378 6.957125
v 0.000839 -0.939447 6.961096
v 0.008026 -0.956374 6.982141
v 0.005787 -0.944855 6.978044
v 0.006171 -0.913367 6.932380
v 0.000839 -0.939447 6.961096
v 0.005787 -0.944855 6.978044
v 0.007884 -0.938803 6.968869
v 0.003621 -0.927014 6.957316
v 0.003597 -0.925571 6.957668
v 0.005061 -0.890704 6.932922
v 0.008658 -0.886635 6.933243
v 0.007444 -0.886896 6.932435
v 0.009558 -0.888784 6.929989
v 0.007450 -0.886543 6.930815
v 0.016350 -0.972144 6.950868
v 0.017556 -0.972448 6.962963
v 0.011207 -0.968528 6.946888
v 0.008715 -0.947907 6.939125
v 0.015828 -0.951816 6.942166
v 0.008715 -0.947907 6.939125
v 0.028367 -0.948120 6.989391
v 0.017991 -0.932913 6.951274
v 0.015637 -0.933606 6.991082
v 0.008965 -0.919370 6.932299
v 0.008970 -0.911578 6.930969
v 0.008944 -0.888532 6.928867
v 0.019850 -0.934920 6.952728
v 0.024237 -0.935387 6.955444
v 0.019647 -0.935333 6.955451
v 0.014007 -0.937292 6.975039
v 0.014331 -0.937461 6.975134
v 0.005787 -0.944855 6.978044
v 0.026799 -0.933771 6.957609
v 0.025946 -0.930968 6.999174
v 0.010610 -0.888822 6.931101
v 0.007367 -0.891675 6.929501
v 0.008859 -0.888557 6.928984
v 0.007450 -0.886543 6.930815
v 0.007450 -0.886910 6.932412
v 0.008595 -0.890558 6.931758
v 0.008859 -0.888557 6.928984
v 0.034316 -0.951656 6.954275
v 0.043943 -0.937798 6.972062
v 0.024769 -0.953091 6.949250
v 0.027538 -0.936092 6.953637
v 0.036877 -0.934873 6.949926
v 0.022191 -0.936631 6.953835
v 0.026313 -0.933438 6.957293
v 0.024330 -0.935551 6.955415
v 0.032559 -0.920929 6.998602
v 0.031558 -0.902678 6.990632
v 0.037151 -0.934132 6.949131
v 0.038062 -0.930606 6.992327
v 0.053688 -0.854287 6.939704
v 0.048175 -0.898599 6.943303
v 0.044054 -0.868376 6.957578
v 0.047742 -0.884233 6.988312
v 0.042818 -0.862980 6.985135
v 0.045322 -0.848567 6.976126
v 0.060539 -0.877590 6.950283
v 0.048175 -0.898599 6.943303
v 0.057426 -0.881377 6.975275
v 0.058722 -0.855485 6.941640
v 0.053181 -0.842938 6.942148
v 0.058103 -0.830825 6.970856
v 0.054101 -0.835997 6.972752
v 0.054032 -0.835910 6.972879
v 0.056434 -0.825068 6.968566
v 0.065634 -0.819078 6.959323
v 0.064717 -0.823412 6.948690
v 0.058003 -0.815978 6.947925
v 0.057985 -0.815371 6.948125
v 0.056609 -0.825288 6.968513
v 0.058231 -0.828710 6.970485
v 0.061553 -0.812672 6.949492
v 0.058019 -0.812208 6.950997
v 0.057695 -0.810598 6.956987
v 0.058850 -0.812217 6.961592
v 0.059791 -0.817467 6.965577
v 0.059493 -0.812734 6.960676
v 0.059565 -0.810552 6.953725
v 0.058169 -0.812331 6.951049
v 0.059583 -0.810493 6.953689
v 0.058211 -0.811035 6.956635
v 0.061200 -0.811216 6.957373
v 0.059565 -0.810552 6.953725
vn -0.8172 -0.4487 -0.3618
vn -0.2038 -0.9788 -0.0195
vn -0.8972 -0.3347 0.2882
vn -0.9949 -0.0250 -0.0976
vn -0.8940 0.0413 0.4461
vn -0.4958 -0.4626 0.7350
vn -0.7108 -0.0655 -0.7004
vn -0.7521 0.4303 0.4991
vn -0.4962 0.7696 0.4019
vn -0.2776 0.8571 0.4339
vn -0.8887 0.2932 0.3525
vn -0.9383 0.3262 -0.1149
vn -0.3892 0.7345 0.5559
vn 0.0925 0.5631 0.8212
vn -0.7555 0.5331 0.3807
vn -0.5372 -0.0647 -0.8410
vn -0.7851 0.1270 -0.6062
vn 0.4277 -0.7023 -0.5691
vn 0.4444 -0.8288 0.3399
vn -0.1032 -0.5029 -0.8582
vn -0.7118 -0.2116 -0.6697
vn 0.5373 -0.1129 -0.8358
vn 0.2532 -0.2628 -0.9310
vn 0.4052 -0.6219 0.6701
vn -0.3620 -0.1882 -0.9130
vn 0.6530 -0.1005 -0.7507
vn 0.6136 0.7706 0.1723
vn 0.8627 0.5056 -0.0118
vn 0.3547 0.7544 -0.5523
vn 0.0978 0.8460 -0.5242
vn -0.3859 0.9186 0.0852
vn -0.8285 0.2744 0.4881
vn -0.6829 0.7251 -0.0889
vn -0.7649 0.6234 -0.1622
vn -0.1289 -0.0824 0.9882
vn 0.7947 -0.0566 -0.6044
vn 0.9836 0.1567 -0.0887
vn -0.2191 -0.1155 -0.9688
vn -0.1133 -0.1060 -0.9879
vn 0.9266 0.3190 0.1990
vn 0.9554 0.2879 0.0660
vn 0.8990 0.3292 0.2888
vn 0.8881 0.3266 0.3235
vn 0.7624 -0.4556 -0.4596
vn 0.9108 -0.3975 0.1117
vn 0.4613 -0.0399 -0.8863
vn -0.3120 0.5494 -0.7751
vn 0.3298 0.6270 -0.7057
vn 0.1393 -0.4183 -0.8976
vn -0.4425 0.8068 -0.3915
vn 0.0461 0.7475 -0.6627
vn -0.8579 0.3373 0.3875
vn 0.1600 0.0757 0.9842
vn -0.7548 0.4385 -0.4879
vn -0.5618 -0.0938 -0.8219
vn 0.7224 -0.3024 0.6218
vn -0.2356 -0.0297 -0.9714
vn -0.3175 0.1317 -0.9391
vn -0.9595 0.2084 -0.1897
vn -0.3797 0.3818 0.8427
vn 0.5867 0.0598 0.8076
vn -0.8458 0.5058 0.1696
vn 0.7203 -0.3108 -0.6201
vn 0.9356 -0.1886 -0.2985
vn 0.9133 -0.1029 0.3941
vn 0.6780 -0.0549 -0.7330
vn -0.6227 0.2270 -0.7488
vn 0.4834 0.2662 0.8339
vn -0.9539 0.2992 -0.0247
vn -0.1608 0.4281 0.8893
vn -0.9644 0.2255 0.1385
vn 0.9301 0.2652 0.2542
vn 0.7964 0.1228 -0.5922
vn 0.0132 0.3776 -0.9259
vn -0.1444 0.4091 0.9010
vn 0.7451 0.1362 0.6529
vn 0.4670 0.6454 -0.6045
vn -0.9173 0.3687 -0.1503
vn -0.9300 0.2258 -0.2900
vn -0.9231 0.3845 -0.0031
vn -0.8726 0.3708 0.3180
vn 0.0823 0.5617 0.8232
vn 0.2578 0.7513 0.6076
vn -0.4605 0.8500 -0.2558
vn -0.2396 0.7543 -0.6112
vn 0.4378 0.8687 -0.2315
vn -0.0061 0.9639 0.2662
vn 0.5167 0.8155 0.2608
vn 0.0187 0.9849 0.1723
s 1
f 1//1 3//2 2//3
f 2//3 4//4 1//1
f 6//5 2//3 5//6
f 2//3 6//5 4//4
f 4//4 7//7 1//1
f 8//8 9//9 10//10
f 8//8 10//10 11//11
f 8//8 11//11 13//12
f 12//13 14//14 11//11
f 4//4 13//12 7//7
f 15//15 11//11 14//14
f 13//12 11//11 15//15
f 13//12 16//16 7//7
f 17//17 16//16 13//12
f 17//17 13//12 15//15
f 18//18 19//19 3//2
f 3//2 1//1 20//20
f 18//18 3//2 20//20
f 19//19 5//6 3//2
f 5//6 2//3 3//2
f 21//21 20//20 1//1
f 22//22 20//20 23//23
f 22//22 18//18 20//20
f 19//19 24//24 5//6
f 21//21 1//1 7//7
f 21//21 7//7 27//25
f 22//22 23//23 28//26
f 30//27 25//28 32//29
f 10//10 31//30 12//13
f 32//29 25//28 12//13
f 31//30 32//29 12//13
f 10//10 9//9 33//31
f 31//30 10//10 33//31
f 6//5 5//6 26//32
f 35//33 26//32 34//34
f 26//32 5//6 37//35
f 22//22 29//36 38//37
f 38//37 25//28 22//22
f 25//28 14//14 12//13
f 29//36 22//22 28//26
f 38//37 14//14 25//28
f 27//25 7//7 39//38
f 27//25 39//38 40//39
f 41//40 42//41 43//42
f 43//42 44//43 41//40
f 19//19 18//18 45//44
f 46//45 19//19 45//44
f 24//24 19//19 46//45
f 18//18 22//22 47//46
f 18//18 47//46 45//44
f 25//28 47//46 22//22
f 48//47 47//46 50//48
f 49//49 47//46 48//47
f 24//24 37//35 5//6
f 50//48 47//46 25//28
f 32//29 50//48 30//27
f 33//31 51//50 31//30
f 32//29 52//51 50//48
f 52//51 48//47 50//48
f 48//47 52//51 51//50
f 51//50 52//51 31//30
f 37//35 54//52 26//32
f 37//35 53//53 54//52
f 54//52 36//54 34//34
f 45//44 47//46 49//49
f 48//47 55//55 49//49
f 48//47 36//54 55//55
f 24//24 56//56 37//35
f 24//24 46//45 56//56
f 56//56 53//53 37//35
f 58//57 55//55 57//58
f 57//58 55//55 36//54
f 59//59 57//58 36//54
f 34//34 26//32 54//52
f 54//52 59//59 36//54
f 61//60 54//52 53//53
f 60//61 61//60 53//53
f 54//52 61//60 62//62
f 45//44 49//49 64//63
f 63//64 45//44 64//63
f 45//44 63//64 46//45
f 46//45 65//65 56//56
f 66//66 63//64 64//63
f 57//58 66//66 58//57
f 65//65 60//61 56//56
f 60//61 53//53 56//56
f 57//58 59//59 67//67
f 60//61 68//68 61//60
f 62//62 59//59 54//52
f 69//69 59//59 62//62
f 68//68 70//70 61//60
f 71//71 59//59 69//69
f 70//70 62//62 61//60
f 65//65 46//45 63//64
f 63//64 72//72 65//65
f 60//61 65//65 68//68
f 63//64 66//66 73//73
f 65//65 72//72 68//68
f 67//67 75//74 57//58
f 66//66 57//58 73//73
f 68//68 76//75 70//70
f 68//68 72//72 77//76
f 75//74 78//77 57//58
f 57//58 78//77 73//73
f 79//78 74//79 67//67
f 59//59 79//78 67//67
f 71//71 80//80 59//59
f 81//81 80//80 71//71
f 68//68 82//82 76//75
f 82//82 83//83 76//75
f 72//72 82//82 77//76
f 80//80 79//78 59//59
f 84//84 79//78 80//80
f 85//85 78//77 75//74
f 86//86 78//77 85//85
f 87//87 88//88 89//89
f 88//88 78//77 86//86
f 73//73 78//77 72//72
f 83//83 88//88 87//87
f 72//72 88//88 82//82
f 88//88 83//83 82//82
f 63//64 73//73 72//72
f 88//88 72//72 78//77
