# Blender v2.78 (sub 0) OBJ File: 'exporter.blend'
# www.blender.org
o FJ2595.obj_grp1.1296
v -0.266414 -0.669468 3.918342
v -0.284752 -0.639986 3.926073
v -0.277285 -0.622582 3.896919
v -0.272869 -0.652226 3.943729
v -0.259963 -0.654732 3.949236
v -0.263112 -0.636258 3.955536
v -0.276082 -0.600518 3.925232
v -0.261361 -0.646384 3.889778
v -0.277942 -0.615738 3.941208
v -0.277942 -0.615738 3.941208
v -0.277942 -0.615738 3.941208
v -0.248292 -0.587557 3.949404
v -0.262223 -0.612619 3.953363
v -0.261938 -0.612668 3.953367
v -0.224323 -0.677404 3.928425
v -0.237129 -0.659624 3.889078
v -0.253149 -0.658772 3.952365
v -0.221059 -0.672485 3.984132
v -0.247157 -0.658365 3.997697
v -0.253040 -0.658600 3.952339
v -0.260190 -0.636939 3.998805
v -0.263112 -0.636258 3.955536
v -0.222079 -0.637203 4.033485
v -0.228056 -0.606276 3.886193
v -0.263112 -0.636258 3.955536
v -0.254606 -0.607194 4.001327
v -0.221090 -0.599926 4.034539
v -0.241967 -0.579861 3.917512
v -0.232527 -0.574591 3.978907
v -0.156166 -0.667891 3.965902
v -0.218564 -0.658061 4.019022
v -0.189837 -0.655051 3.896202
v -0.183683 -0.625749 3.892596
v -0.217335 -0.579027 4.014884
v -0.208850 -0.583763 3.917542
v -0.174439 -0.589972 3.947122
v -0.184475 -0.658169 3.928555
v -0.149305 -0.659243 3.976239
v -0.160487 -0.594775 4.002104
v -0.169709 -0.643788 3.923225
v -0.169277 -0.629152 3.921769
v -0.169364 -0.643948 3.923030
v -0.147819 -0.647127 3.930013
v -0.133651 -0.608988 3.945873
v -0.128069 -0.614287 3.967445
v -0.128003 -0.638956 3.955533
v -0.144144 -0.580780 3.973029
vn -0.5257 -0.8404 -0.1316
vn -0.9766 -0.2147 -0.0163
vn -0.7254 0.1326 -0.6755
vn -0.7164 -0.3992 0.5722
vn -0.4816 -0.2222 0.8478
vn -0.4813 -0.3554 0.8013
vn -0.8061 0.5847 -0.0917
vn -0.9721 0.2155 0.0921
vn -0.7394 -0.0568 0.6709
vn -0.6486 0.5244 0.5517
vn -0.6618 0.7316 0.1639
vn -0.8550 0.3800 0.3530
vn -0.7253 0.0329 0.6876
vn -0.4551 -0.2883 -0.8425
vn -0.0369 -0.5542 -0.8316
vn 0.0863 -0.9952 -0.0464
vn -0.5387 -0.8250 0.1707
vn -0.0480 -0.9772 0.2067
vn -0.6233 -0.6635 0.4138
vn -0.5398 -0.3527 0.7644
vn -0.8817 -0.2360 0.4086
vn -0.9914 -0.1138 0.0654
vn 0.0179 -0.7191 0.6947
vn -0.0874 -0.2721 0.9583
vn 0.0270 0.4141 -0.9098
vn -0.8253 0.0923 0.5571
vn -0.8080 0.3933 0.4387
vn -0.1434 0.3521 0.9249
vn -0.2568 0.9251 -0.2797
vn -0.3049 0.9517 0.0356
vn 0.4161 -0.9093 0.0052
vn 0.4873 -0.5416 -0.6850
vn -0.1534 0.8196 0.5521
vn 0.3120 0.8678 -0.3867
vn 0.3264 0.7919 -0.5161
vn 0.6015 0.7981 0.0346
vn 0.3872 -0.8798 -0.2756
vn 0.6309 0.1780 -0.7552
vn 0.6366 -0.5758 0.5131
vn 0.5837 0.3087 0.7510
vn 0.3850 -0.2286 -0.8942
vn 0.6843 0.2091 -0.6986
vn 0.0721 -0.1651 -0.9836
vn 0.5795 -0.4163 -0.7006
vn 0.7278 0.3927 -0.5621
vn 0.9575 0.0954 0.2723
vn 0.9455 -0.3186 -0.0674
s 1
f 1//1 2//2 3//3
f 1//1 4//4 2//2
f 5//5 6//6 4//4
f 7//7 3//3 2//2
f 2//2 9//8 7//7
f 10//9 2//2 4//4
f 7//7 11//10 12//11
f 13//12 12//11 11//10
f 4//4 14//13 10//9
f 8//14 16//15 1//1
f 4//4 1//1 15//16
f 15//16 17//17 4//4
f 15//16 18//18 19//19
f 17//17 15//16 19//19
f 8//14 1//1 3//3
f 4//4 17//17 5//5
f 6//6 5//5 20//20
f 17//17 21//21 22//22
f 21//21 13//12 22//22
f 17//17 19//19 21//21
f 31//23 19//19 18//18
f 31//23 23//24 19//19
f 23//24 21//21 19//19
f 8//14 3//3 24//25
f 4//4 25//26 14//13
f 21//21 26//27 13//12
f 26//27 21//21 27//28
f 27//28 21//21 23//24
f 7//7 28//29 3//3
f 12//11 28//29 7//7
f 12//11 13//12 26//27
f 26//27 29//30 12//11
f 29//30 28//29 12//11
f 1//1 16//15 15//16
f 30//31 31//23 18//18
f 15//16 16//15 32//32
f 16//15 8//14 24//25
f 28//29 24//25 3//3
f 26//27 27//28 34//33
f 24//25 28//29 35//34
f 28//29 29//30 36//35
f 26//27 34//33 29//30
f 47//36 29//30 34//33
f 37//37 18//18 15//16
f 24//25 33//38 16//15
f 33//38 32//32 16//15
f 30//31 38//39 31//23
f 31//23 38//39 23//24
f 33//38 24//25 35//34
f 34//33 27//28 39//40
f 27//28 23//24 39//40
f 28//29 36//35 35//34
f 47//36 36//35 29//30
f 34//33 39//40 47//36
f 37//37 30//31 18//18
f 15//16 32//32 37//37
f 40//41 37//37 32//32
f 41//42 40//41 32//32
f 32//32 33//38 41//42
f 37//37 40//41 42//43
f 37//37 42//43 43//44
f 43//44 30//31 37//37
f 44//45 41//42 36//35
f 38//39 45//46 39//40
f 23//24 38//39 39//40
f 35//34 36//35 33//38
f 36//35 41//42 33//38
f 47//36 44//45 36//35
f 42//43 41//42 43//44
f 46//47 38//39 30//31
f 43//44 46//47 30//31
f 38//39 46//47 45//46
f 44//45 43//44 41//42
f 44//45 46//47 43//44
f 45//46 44//45 47//36
f 46//47 44//45 45//46
f 45//46 47//36 39//40
