# Blender v2.78 (sub 0) OBJ File: 'exporter.blend'
# www.blender.org
o FJ2503.obj_grp1.1206
v -0.437883 -0.657937 5.589880
v -0.442517 -0.672987 5.582880
v -0.443833 -0.673003 5.583358
v -0.444450 -0.672638 5.583835
v -0.444377 -0.672708 5.583928
v -0.443807 -0.673032 5.583411
v -0.444198 -0.674412 5.584068
v -0.445688 -0.673792 5.584397
v -0.444377 -0.672708 5.583928
v -0.444198 -0.674412 5.584068
v -0.446367 -0.674355 5.584837
v -0.442510 -0.672994 5.582895
v -0.441118 -0.673923 5.582225
v -0.442524 -0.673881 5.582613
v -0.444198 -0.674412 5.584068
v -0.440353 -0.646731 5.598699
v -0.446345 -0.674285 5.585054
v -0.446631 -0.675140 5.586510
v -0.443884 -0.678737 5.592095
v -0.446631 -0.675140 5.586510
v -0.446918 -0.674473 5.586369
v -0.446345 -0.674285 5.585054
v -0.446925 -0.674471 5.586367
v -0.446913 -0.675924 5.588106
v -0.447122 -0.675022 5.586744
v -0.447122 -0.675022 5.586744
v -0.443665 -0.657870 5.594927
v -0.447263 -0.675252 5.587777
v -0.447122 -0.675022 5.586744
v -0.446913 -0.675924 5.588106
v -0.447122 -0.675022 5.586744
v -0.447263 -0.675252 5.587777
v -0.447229 -0.675905 5.588294
v -0.447263 -0.675252 5.587777
v -0.446712 -0.676562 5.589233
v -0.439147 -0.674534 5.582519
v -0.431759 -0.645292 5.596820
v -0.438771 -0.674712 5.582650
v -0.442524 -0.673881 5.582613
v -0.441055 -0.674017 5.582152
v -0.437126 -0.646105 5.596418
v -0.432647 -0.636253 5.601366
v -0.436750 -0.637386 5.602593
v -0.442063 -0.649534 5.602489
v -0.447027 -0.676280 5.589561
v -0.447229 -0.675905 5.588294
v -0.447027 -0.676280 5.589561
v -0.447229 -0.675905 5.588294
v -0.446712 -0.676562 5.589233
v -0.446616 -0.677107 5.590406
v -0.446616 -0.677107 5.590406
v -0.445751 -0.677618 5.591486
v -0.446620 -0.677107 5.590408
v -0.445751 -0.677618 5.591486
v -0.430959 -0.624384 5.609418
v -0.440183 -0.641510 5.605275
v -0.435702 -0.634380 5.617890
v -0.436026 -0.628800 5.610338
v -0.437290 -0.633332 5.615433
v -0.437704 -0.675651 5.583646
v -0.435906 -0.673998 5.585408
v -0.429579 -0.644185 5.598394
v -0.436435 -0.677233 5.585946
v -0.436435 -0.677233 5.585946
v -0.436785 -0.678374 5.588031
v -0.428319 -0.627279 5.606817
v -0.438032 -0.653426 5.607665
v -0.444685 -0.678290 5.592144
v -0.443940 -0.678795 5.592189
v -0.443370 -0.679036 5.592521
v -0.444682 -0.678290 5.592144
v -0.442394 -0.679364 5.592471
v -0.441742 -0.679440 5.592331
v -0.443418 -0.678994 5.592472
v -0.441857 -0.679512 5.592439
v -0.431896 -0.621017 5.613292
v -0.428978 -0.609493 5.623903
v -0.431499 -0.614370 5.622526
v -0.437277 -0.630957 5.613940
v -0.431704 -0.614828 5.625885
v -0.427048 -0.649834 5.602350
v -0.435726 -0.677710 5.587975
v -0.426361 -0.645919 5.602133
v -0.436792 -0.678412 5.588201
v -0.435802 -0.677665 5.588012
v -0.435651 -0.677060 5.589186
v -0.436748 -0.678407 5.588200
v -0.436748 -0.678407 5.588200
v -0.435651 -0.677060 5.589186
v -0.436449 -0.678970 5.589139
v -0.422600 -0.630947 5.608560
v -0.437929 -0.679627 5.590944
v -0.430859 -0.660781 5.599586
v -0.435651 -0.677060 5.589186
v -0.436449 -0.678970 5.589139
v -0.436449 -0.678970 5.589139
v -0.438585 -0.679542 5.591055
v -0.439146 -0.679707 5.591787
v -0.437920 -0.679584 5.590906
v -0.438626 -0.679538 5.591580
v -0.438718 -0.679540 5.591650
v -0.438654 -0.679484 5.591066
v -0.438626 -0.679538 5.591580
v -0.439118 -0.679623 5.591815
v -0.424554 -0.627446 5.608027
v -0.433079 -0.658127 5.604867
v -0.440030 -0.679384 5.592456
v -0.440728 -0.679699 5.592421
v -0.440454 -0.679627 5.592041
v -0.440730 -0.679703 5.592425
v -0.440024 -0.679393 5.592472
v -0.440730 -0.679703 5.592425
v -0.440451 -0.679609 5.592050
v -0.440024 -0.679393 5.592472
v -0.440451 -0.679609 5.592050
v -0.439805 -0.679693 5.591908
v -0.439805 -0.679693 5.591908
v -0.420552 -0.607854 5.620710
v -0.432541 -0.647242 5.612674
v -0.424743 -0.608540 5.620637
v -0.423968 -0.601100 5.627831
v -0.427646 -0.630489 5.625013
v -0.417217 -0.609821 5.620910
v -0.427975 -0.644077 5.613975
v -0.415224 -0.587174 5.637111
v -0.418169 -0.587375 5.638700
v -0.427862 -0.622699 5.630047
v -0.421509 -0.589307 5.642749
v -0.422048 -0.590186 5.643080
v -0.415499 -0.620863 5.623618
v -0.425869 -0.645361 5.609633
v -0.411194 -0.588263 5.636276
v -0.421924 -0.625925 5.628040
v -0.416478 -0.587201 5.637608
v -0.420536 -0.588316 5.641455
v -0.420448 -0.588452 5.640894
v -0.416827 -0.587169 5.637789
v -0.418077 -0.587422 5.638654
v -0.421110 -0.589243 5.640637
v -0.420353 -0.588477 5.640169
v -0.420534 -0.588392 5.640873
v -0.420421 -0.588571 5.641437
v -0.420421 -0.588571 5.641437
v -0.420534 -0.588392 5.640873
v -0.421102 -0.589251 5.640639
v -0.420421 -0.588571 5.641437
v -0.420790 -0.590120 5.643596
v -0.421503 -0.589134 5.642823
v -0.421499 -0.597533 5.647396
v -0.421512 -0.589312 5.642751
v -0.422048 -0.590186 5.643080
v -0.420790 -0.590120 5.643596
v -0.422103 -0.590566 5.644629
v -0.405908 -0.592137 5.637968
v -0.404815 -0.594456 5.639826
v -0.404478 -0.595256 5.640873
v -0.407898 -0.590165 5.636719
v -0.415045 -0.619222 5.628120
v -0.418201 -0.623289 5.627920
v -0.415024 -0.587350 5.637001
v -0.411319 -0.588282 5.636293
v -0.417328 -0.597848 5.650775
v -0.422068 -0.591213 5.645583
v -0.422048 -0.590186 5.643080
v -0.422077 -0.591416 5.645847
v -0.421808 -0.592992 5.647437
v -0.420556 -0.594538 5.648666
v -0.421837 -0.592833 5.647258
v -0.414401 -0.599274 5.650967
v -0.415976 -0.598405 5.651091
v -0.417358 -0.597843 5.650796
v -0.405353 -0.593024 5.638899
v -0.407951 -0.590167 5.636743
v -0.405979 -0.592092 5.637916
v -0.404854 -0.594310 5.640214
v -0.404535 -0.594627 5.640406
v -0.411983 -0.599789 5.650493
v -0.415379 -0.598542 5.650914
v -0.415510 -0.598552 5.651107
v -0.404853 -0.594308 5.640216
v -0.404848 -0.594787 5.640435
v -0.405892 -0.594913 5.637728
v -0.404853 -0.594308 5.640216
v -0.404532 -0.594627 5.640404
v -0.404396 -0.595326 5.641123
v -0.404408 -0.596041 5.642094
v -0.407596 -0.599215 5.647633
v -0.404993 -0.598008 5.644285
v -0.409111 -0.599739 5.648837
v -0.407228 -0.599706 5.647258
v -0.409591 -0.600091 5.649230
v -0.414401 -0.599274 5.650967
v -0.411876 -0.599786 5.650493
v -0.405604 -0.598105 5.645192
v -0.404745 -0.597879 5.644427
v -0.405456 -0.598177 5.645282
v -0.406500 -0.599235 5.646927
v -0.406492 -0.599246 5.646695
v -0.405921 -0.598711 5.645991
v -0.406756 -0.599279 5.647070
v -0.408910 -0.600565 5.648103
v -0.409591 -0.600091 5.649230
v -0.408485 -0.599688 5.648713
v -0.409068 -0.599641 5.648901
v -0.409068 -0.599641 5.648901
v -0.407228 -0.599706 5.647258
v -0.406756 -0.599279 5.647070
vn -0.3101 0.3987 -0.8631
vn -0.3175 0.4801 -0.8178
vn -0.0322 0.4554 -0.8897
vn -0.7235 -0.1339 -0.6772
vn -0.5449 -0.2470 -0.8013
vn -0.3225 -0.1140 -0.9397
vn -0.2537 -0.7736 -0.5807
vn -0.2282 -0.6887 -0.6882
vn -0.3334 -0.3453 -0.8773
vn 0.0585 0.3652 -0.9291
vn -0.4836 0.2382 -0.8422
vn -0.6792 0.2018 -0.7056
vn -0.5162 0.4818 -0.7081
vn -0.7244 0.4274 -0.5409
vn -0.7639 0.4381 -0.4738
vn -0.8332 0.3769 -0.4046
vn -0.2571 -0.8464 -0.4664
vn -0.3239 -0.8531 -0.4090
vn -0.6580 -0.4171 -0.6269
vn -0.6579 -0.4173 -0.6269
vn -0.8012 -0.4340 -0.4119
vn -0.3183 -0.8001 -0.5084
vn -0.4060 -0.7892 -0.4607
vn -0.4711 -0.3722 -0.7997
vn -0.9237 0.2977 -0.2411
vn -0.9256 0.3087 -0.2190
vn -0.8129 -0.5351 -0.2298
vn -0.9642 0.2442 -0.1034
vn -0.9847 0.1574 0.0750
vn -0.3881 -0.7229 -0.5717
vn -0.4502 -0.5682 -0.6888
vn -0.2627 -0.8658 -0.4259
vn 0.2743 0.3944 -0.8770
vn 0.5179 0.2002 -0.8317
vn -0.1536 -0.8537 -0.4975
vn -0.2391 -0.7266 -0.6442
vn -0.3584 0.4961 -0.7909
vn -0.1185 0.5333 -0.8376
vn -0.5794 0.5352 -0.6147
vn -0.9793 0.1510 0.1347
vn -0.9618 0.0478 0.2694
vn -0.9782 0.0960 0.1844
vn -0.7451 -0.6492 -0.1529
vn -0.7148 -0.6933 -0.0915
vn -0.7450 -0.6493 -0.1529
vn -0.7704 -0.6008 -0.2132
vn -0.3633 -0.8986 -0.2462
vn -0.5192 -0.8543 -0.0250
vn -0.8194 0.4692 -0.3294
vn -0.9455 0.3096 -0.1006
vn -0.8590 -0.1015 0.5019
vn -0.6734 -0.2602 0.6920
vn -0.7290 -0.2201 0.6481
vn -0.6014 0.5972 -0.5308
vn -0.9265 0.0218 0.3756
vn -0.0824 -0.7548 -0.6508
vn -0.1513 -0.8383 -0.5239
vn 0.5849 0.2545 -0.7702
vn 0.8205 -0.0436 -0.5700
vn 0.8087 -0.3433 -0.4776
vn -0.1924 -0.8519 -0.4871
vn -0.1928 -0.8617 -0.4694
vn -0.3413 0.5982 -0.7250
vn 0.0736 0.5291 -0.8454
vn -0.4249 -0.3916 0.8162
vn -0.4793 -0.3625 0.7993
vn -0.4592 -0.3575 0.8132
vn -0.3320 -0.4154 0.8469
vn -0.4895 -0.8679 -0.0843
vn -0.1999 -0.8128 -0.5472
vn -0.2554 -0.8040 -0.5370
vn -0.3329 -0.9206 -0.2041
vn -0.7532 0.5652 -0.3365
vn -0.8920 0.4269 -0.1485
vn -0.9630 0.2644 0.0526
vn -0.9556 0.2391 0.1723
vn 0.9595 -0.2735 -0.0680
vn 0.8252 -0.4616 -0.3256
vn 0.4642 -0.8108 -0.3566
vn 0.6208 -0.7259 0.2960
vn 0.8240 -0.3296 -0.4608
vn 0.4707 0.3697 -0.8011
vn 0.7811 0.1238 -0.6120
vn 0.9281 -0.1086 -0.3562
vn 0.8937 -0.3961 0.2109
vn 0.8215 -0.4353 0.3683
vn 0.8037 -0.4649 0.3714
vn 0.6574 -0.5081 0.5565
vn -0.1408 -0.8964 -0.4204
vn -0.1658 -0.9347 -0.3144
vn -0.2249 -0.8898 -0.3971
vn -0.1751 -0.9163 -0.3602
vn -0.0620 -0.9981 0.0022
vn 0.1167 -0.9870 -0.1103
vn 0.1175 -0.9867 -0.1124
vn 0.1172 -0.9869 -0.1109
vn 0.0017 -0.2381 0.9712
vn 0.0104 -0.4956 0.8685
vn 0.4610 -0.5713 0.6790
vn 0.4490 -0.5670 0.6906
vn 0.2697 -0.5640 0.7805
vn -0.2106 0.0922 -0.9732
vn -0.2074 -0.9206 -0.3309
vn 0.3976 -0.9151 0.0670
vn -0.0139 -0.8845 0.4664
vn 0.2712 -0.7998 0.5355
vn 0.0424 -0.5864 0.8089
vn -0.2827 0.6472 -0.7080
vn 0.1225 0.5761 -0.8081
vn -0.5491 0.6478 -0.5280
vn -0.0637 -0.5735 0.8167
vn 0.5219 0.3689 -0.7691
vn -0.4672 -0.4188 0.7786
vn -0.5796 0.6364 -0.5090
vn -0.8237 0.5438 -0.1606
vn -0.9075 0.4147 -0.0668
vn -0.7233 -0.1306 0.6781
vn 0.9361 -0.3498 -0.0377
vn 0.7927 -0.5139 0.3279
vn 0.4541 -0.6204 0.6395
vn -0.1498 0.6350 -0.7579
vn 0.1973 0.5506 -0.8111
vn 0.3158 -0.6294 0.7100
vn -0.3949 0.6189 -0.6790
vn -0.6456 0.7296 -0.2253
vn -0.6073 0.6798 -0.4112
vn 0.6823 0.7257 0.0880
vn -0.8324 0.4655 0.3009
vn -0.7266 0.6119 -0.3125
vn -0.6361 0.7660 -0.0928
vn -0.3570 0.5150 0.7793
vn -0.3569 0.5150 0.7793
vn -0.9529 0.2740 0.1303
vn 0.7817 0.1358 -0.6087
vn 0.9380 0.0609 -0.3414
vn 0.9275 -0.2192 -0.3028
vn 0.8297 -0.5210 0.2006
vn 0.6079 -0.6300 0.4833
vn 0.3127 0.7390 0.5967
vn 0.3077 0.8014 0.5129
vn 0.3078 0.7504 0.5850
vn 0.2363 0.7696 0.5932
vn 0.2067 0.8338 0.5119
vn 0.3453 0.7201 0.6019
vn 0.1570 0.8010 0.5777
vn -0.2036 0.9063 0.3704
vn -0.9543 0.1837 0.2359
vn -0.8795 0.0421 0.4739
vn 0.2462 0.6996 0.6708
vn 0.2209 0.7133 0.6652
vn 0.5384 0.3531 -0.7651
vn -0.1055 -0.6322 0.7676
vn 0.3076 0.7227 0.6189
vn -0.5378 -0.4143 0.7342
vn 0.0765 0.5754 0.8143
vn 0.3372 0.7360 0.5870
vn 0.4066 0.7519 0.5190
vn 0.5040 0.7623 0.4062
vn 0.8148 -0.2991 -0.4966
vn 0.1360 -0.6680 0.7317
vn 0.2921 0.7502 0.5933
vn -0.2904 -0.5758 0.7643
vn 0.9216 0.3837 -0.0581
vn 0.2394 0.7162 0.6555
vn 0.9518 -0.1043 -0.2886
vn 0.9209 -0.1835 -0.3440
vn 0.9097 -0.1175 -0.3983
vn 0.3856 0.7565 0.5282
vn 0.3256 0.7137 0.6203
vn 0.5061 0.3907 0.7689
vn 0.9385 -0.3127 -0.1464
vn 0.8655 -0.4866 0.1192
vn 0.3654 0.6553 0.6611
vn 0.4991 -0.6225 0.6028
vn 0.2578 0.4154 0.8724
vn 0.3698 0.7110 0.5981
vn 0.4622 0.6416 0.6122
vn 0.3778 0.6854 0.6224
vn 0.7892 -0.5782 0.2070
vn 0.3928 0.6550 0.6456
vn 0.7670 -0.5705 0.2938
vn 0.5575 0.4914 0.6692
vn 0.6936 -0.5721 0.4377
vn 0.6322 -0.6315 0.4489
vn 0.5171 -0.6174 0.5928
vn 0.3959 -0.6521 0.6466
vn 0.1939 -0.6295 0.7524
vn 0.7073 -0.3954 0.5859
vn 0.6524 -0.0500 0.7562
vn 0.5306 -0.2254 0.8171
vn 0.4751 0.2502 0.8436
s 1
f 2//1 3//2 1//3
f 5//4 6//5 7//5
f 9//6 10//7 11//8
f 12//9 7//5 6//5
f 13//10 14//11 2//1
f 2//1 14//11 15//12
f 4//13 8//14 16//15
f 8//14 17//16 16//15
f 10//7 18//17 11//8
f 19//18 18//17 10//7
f 20//19 21//20 22//21
f 18//17 24//22 25//23
f 21//20 20//19 26//24
f 19//18 24//22 18//17
f 27//25 16//15 17//16
f 17//16 23//26 27//25
f 28//27 29//27 30//27
f 31//28 27//25 23//26
f 31//28 32//29 27//25
f 24//22 33//30 34//31
f 24//22 35//32 33//30
f 37//33 13//10 1//3
f 13//10 37//33 38//34
f 13//10 2//1 1//3
f 40//35 10//7 39//36
f 41//37 42//38 1//3
f 4//13 16//15 41//37
f 4//13 41//37 3//2
f 3//2 41//37 1//3
f 43//39 42//38 41//37
f 41//37 16//15 43//39
f 32//29 44//40 27//25
f 45//41 44//40 32//29
f 46//42 45//41 32//29
f 24//22 19//18 35//32
f 47//43 48//44 49//45
f 47//43 49//45 50//46
f 19//18 51//47 35//32
f 51//47 19//18 52//48
f 16//15 58//49 43//39
f 56//50 16//15 27//25
f 44//40 56//50 27//25
f 53//51 54//52 57//53
f 76//54 43//39 58//49
f 16//15 56//50 58//49
f 44//40 45//41 59//55
f 59//55 45//41 53//51
f 59//55 53//51 57//53
f 36//56 60//57 40//35
f 40//35 60//57 10//7
f 62//58 38//34 37//33
f 62//58 61//59 38//34
f 61//59 63//60 38//34
f 64//61 10//7 60//57
f 65//62 10//7 64//61
f 42//38 37//33 1//3
f 19//18 10//7 65//62
f 55//63 66//64 42//38
f 55//63 42//38 43//39
f 37//33 42//38 66//64
f 67//65 68//66 69//67
f 69//67 70//68 67//65
f 71//69 52//48 19//18
f 73//70 72//71 19//18
f 72//71 74//72 19//18
f 76//54 55//63 43//39
f 68//66 67//65 54//52
f 76//54 58//49 77//73
f 57//53 54//52 67//65
f 58//49 78//74 77//73
f 79//75 78//74 58//49
f 78//74 79//75 80//76
f 58//49 56//50 79//75
f 44//40 79//75 56//50
f 79//75 44//40 59//55
f 79//75 59//55 80//76
f 81//77 82//78 61//59
f 63//60 61//59 82//78
f 63//60 82//78 84//79
f 85//80 86//80 87//80
f 88//81 89//81 90//81
f 66//64 105//82 37//33
f 62//58 37//33 105//82
f 62//58 91//83 61//59
f 83//84 61//59 91//83
f 94//85 93//86 95//87
f 93//86 92//88 95//87
f 65//62 96//89 97//90
f 19//18 65//62 97//90
f 97//90 98//91 19//18
f 96//89 99//92 97//90
f 99//92 100//93 97//90
f 102//94 103//95 104//96
f 70//68 75//97 108//98
f 101//99 106//100 107//101
f 92//88 106//100 101//99
f 98//91 73//70 19//18
f 109//102 73//70 98//91
f 110//103 73//70 109//102
f 111//104 112//104 113//104
f 114//105 115//105 116//105
f 107//101 117//106 101//99
f 119//107 70//68 106//100
f 67//65 70//68 119//107
f 70//68 108//98 106//100
f 107//101 106//100 108//98
f 66//64 55//63 120//108
f 66//64 120//108 118//109
f 76//54 120//108 55//63
f 76//54 77//73 121//110
f 121//110 120//108 76//54
f 67//65 119//107 122//111
f 81//77 61//59 83//84
f 81//77 93//86 82//78
f 82//78 93//86 94//85
f 105//82 91//83 62//58
f 93//86 106//100 92//88
f 123//112 105//82 118//109
f 66//64 118//109 105//82
f 127//113 57//53 67//65
f 122//111 127//113 67//65
f 126//114 121//110 77//73
f 128//115 77//73 78//74
f 78//74 80//76 129//116
f 149//117 59//55 57//53
f 78//74 129//116 128//115
f 81//77 83//84 130//118
f 130//118 131//119 81//77
f 93//86 81//77 131//119
f 93//86 131//119 106//100
f 105//82 123//112 91//83
f 131//119 124//120 106//100
f 124//120 119//107 106//100
f 125//121 132//122 118//109
f 118//109 120//108 125//121
f 121//110 125//121 120//108
f 122//111 119//107 133//123
f 134//124 121//110 126//114
f 135//125 126//114 136//126
f 140//127 141//127 142//127
f 143//128 144//128 145//128
f 139//129 128//115 146//130
f 77//73 128//115 139//129
f 126//114 77//73 136//126
f 136//126 77//73 139//129
f 150//131 151//132 152//131
f 153//133 129//116 80//76
f 123//112 154//134 91//83
f 155//135 83//84 91//83
f 155//135 130//118 83//84
f 156//136 130//118 155//135
f 130//118 158//137 131//119
f 159//138 124//120 131//119
f 118//109 132//122 123//112
f 159//138 133//123 124//120
f 133//123 119//107 124//120
f 121//110 134//124 125//121
f 161//139 160//140 137//141
f 147//142 137//141 138//143
f 138//143 148//144 147//142
f 163//145 147//142 164//146
f 80//76 165//147 153//133
f 80//76 166//148 165//147
f 166//148 80//76 59//55
f 167//149 147//142 163//145
f 149//117 166//148 59//55
f 167//149 163//145 168//150
f 157//151 154//134 123//112
f 131//119 158//137 159//138
f 132//122 157//151 123//112
f 161//139 137//141 147//142
f 133//123 169//152 122//111
f 169//152 127//113 122//111
f 147//142 167//149 170//153
f 162//154 57//53 127//113
f 149//117 162//154 166//148
f 171//155 170//153 167//149
f 161//139 172//156 173//157
f 174//158 173//157 172//156
f 154//134 155//135 91//83
f 155//135 176//159 156//136
f 133//123 177//160 169//152
f 178//161 147//142 170//153
f 147//142 178//161 161//139
f 127//113 179//162 162//154
f 169//152 179//162 127//113
f 162//154 149//117 57//53
f 154//134 180//163 155//135
f 161//139 175//164 172//156
f 181//165 182//166 183//167
f 185//168 184//169 175//164
f 161//139 185//168 175//164
f 185//168 161//139 187//170
f 186//171 130//118 156//136
f 186//171 188//172 130//118
f 188//172 158//137 130//118
f 189//173 187//170 161//139
f 191//174 133//123 159//138
f 192//175 193//176 178//161
f 189//173 161//139 178//161
f 189//173 178//161 193//176
f 177//160 133//123 191//174
f 187//170 194//177 185//168
f 195//178 185//168 194//177
f 196//179 158//137 188//172
f 194//177 187//170 197//180
f 158//137 196//179 198//181
f 197//180 199//182 194//177
f 198//181 200//183 190//184
f 198//181 190//184 159//138
f 198//181 159//138 158//137
f 201//185 159//138 190//184
f 191//174 159//138 201//185
f 203//186 204//187 201//185
f 201//185 205//188 191//174
f 187//170 206//189 207//190
f 189//173 206//189 187//170
f 190//184 203//186 201//185
f 193//176 202//191 189//173
