# Blender v2.78 (sub 0) OBJ File: 'exporter.blend'
# www.blender.org
o FJ2500.obj_grp1.1203
v -0.395176 -0.183299 5.878651
v -0.392754 -0.187075 5.874760
v -0.394582 -0.183371 5.879643
v -0.395405 -0.187656 5.882693
v -0.395612 -0.185219 5.882459
v -0.393602 -0.192268 5.880909
v -0.394355 -0.191799 5.882504
v -0.395015 -0.189948 5.883304
v -0.395015 -0.189948 5.883304
v -0.394664 -0.187749 5.883914
v -0.395405 -0.187656 5.882693
v -0.395639 -0.185188 5.882484
v -0.394580 -0.186629 5.883773
v -0.395612 -0.185219 5.882459
v -0.391946 -0.186561 5.874196
v -0.392754 -0.187075 5.874760
v -0.393053 -0.185763 5.874806
v -0.391884 -0.189201 5.874008
v -0.391884 -0.189201 5.874008
v -0.391753 -0.192452 5.876143
v -0.391884 -0.189201 5.874008
v -0.391947 -0.186553 5.874170
v -0.379222 -0.183711 5.876997
v -0.375491 -0.189236 5.879358
v -0.391708 -0.192064 5.876595
v -0.391048 -0.193137 5.879370
v -0.393797 -0.183939 5.876257
v -0.393102 -0.185672 5.874665
v -0.393782 -0.183972 5.876262
v -0.393053 -0.185763 5.874806
v -0.366926 -0.177138 5.880854
v -0.394042 -0.192213 5.881922
v -0.370129 -0.190254 5.885777
v -0.375763 -0.178890 5.889473
v -0.395039 -0.189953 5.883352
v -0.394480 -0.186821 5.883757
v -0.372491 -0.188635 5.889590
v -0.384271 -0.183871 5.888170
v -0.382380 -0.187121 5.888826
v -0.370387 -0.175860 5.886425
v -0.366609 -0.186685 5.879118
v -0.373853 -0.184605 5.891740
v -0.364672 -0.181561 5.877983
v -0.362511 -0.180687 5.892120
v -0.362188 -0.184652 5.891527
v -0.351892 -0.184845 5.876833
v -0.359329 -0.177388 5.890351
v -0.348948 -0.186249 5.886519
v -0.348819 -0.184508 5.887812
v -0.349259 -0.176358 5.887544
v -0.352029 -0.178984 5.875700
v -0.351722 -0.183298 5.876159
v -0.351591 -0.175223 5.879207
v -0.350118 -0.187024 5.880475
v -0.351940 -0.180549 5.875839
v -0.351533 -0.183615 5.876176
v -0.351937 -0.177658 5.876685
v -0.350976 -0.174410 5.881632
v -0.349154 -0.187184 5.883885
v -0.350985 -0.174399 5.881653
v -0.351573 -0.175217 5.879360
v -0.349325 -0.176320 5.887487
v -0.348087 -0.180884 5.889037
v -0.349290 -0.187075 5.883477
v -0.350227 -0.186825 5.880346
v -0.349052 -0.186304 5.885839
v -0.348875 -0.184929 5.887482
v -0.348584 -0.183561 5.888374
v -0.348256 -0.181882 5.888750
v -0.348514 -0.178930 5.888515
vn -0.9308 -0.1576 -0.3297
vn -0.9059 -0.1160 -0.4074
vn -0.9548 -0.0275 -0.2959
vn -0.9346 -0.2025 -0.2926
vn -0.9056 -0.2147 -0.3658
vn -0.9114 -0.2141 -0.3514
vn -0.9415 -0.2373 -0.2391
vn -0.8515 -0.0048 0.5243
vn -0.8475 0.0625 0.5270
vn -0.8283 0.0392 0.5590
vn -0.8154 0.0612 0.5756
vn -0.7851 -0.0076 0.6194
vn -0.5634 -0.0311 -0.8256
vn -0.5283 -0.1052 -0.8425
vn -0.5946 0.0431 -0.8028
vn -0.8644 -0.3217 -0.3864
vn -0.9103 -0.2422 -0.3357
vn 0.2015 -0.1856 -0.9617
vn 0.2321 -0.6712 -0.7040
vn 0.1307 -0.8155 -0.5638
vn -0.9556 -0.2244 -0.1909
vn -0.9571 -0.1106 -0.2680
vn 0.1509 0.1120 -0.9822
vn 0.0123 0.6131 -0.7899
vn -0.1100 0.7924 -0.6001
vn -0.1130 0.8253 -0.5533
vn -0.2869 0.9579 0.0122
vn -0.0585 -0.9952 -0.0779
vn -0.1489 -0.8409 0.5203
vn -0.2865 0.6613 0.6933
vn -0.4167 0.6860 0.5965
vn -0.3876 0.2655 0.8828
vn -0.4259 0.1258 0.8960
vn -0.2797 -0.3861 0.8790
vn -0.2663 -0.3318 0.9050
vn 0.1477 0.3222 -0.9351
vn 0.1499 -0.9876 0.0469
vn -0.0008 -0.7160 0.6981
vn -0.1395 0.9815 0.1309
vn -0.1461 -0.1092 0.9832
vn -0.1019 0.1650 -0.9810
vn 0.0568 -0.5919 -0.8040
vn 0.0515 0.1923 0.9800
vn 0.1454 -0.4253 0.8933
vn 0.0772 0.6745 0.7342
vn 0.1908 -0.6497 -0.7359
vn 0.1714 -0.8187 0.5480
vn 0.2587 -0.4748 0.8412
vn 0.1340 0.7383 0.6610
vn -0.1914 -0.2482 -0.9496
vn -0.1943 0.3031 -0.9329
vn -0.1789 0.8422 -0.5086
vn 0.9382 0.0775 -0.3373
vn 0.9582 0.1042 -0.2665
vn 0.9874 0.0810 -0.1357
vn 0.0784 -0.9529 -0.2931
vn 0.5988 -0.6041 -0.5258
vn -0.0770 0.9969 0.0177
vn 0.1394 -0.9802 0.1405
vn 0.9480 0.1318 -0.2896
vn 0.9290 0.2017 -0.3103
vn 0.9590 0.1829 -0.2165
vn 0.2217 0.0206 0.9749
vn 0.9739 0.0462 -0.2224
vn 0.9549 -0.1179 -0.2724
vn 0.9953 -0.0133 -0.0962
vn 0.9833 -0.1817 0.0025
vn 0.9777 -0.2098 0.0077
vn 0.9840 -0.0207 -0.1770
vn 0.9608 0.1531 -0.2312
s 1
f 4//1 5//2 3//3
f 2//4 4//1 3//3
f 4//1 6//5 7//6
f 7//6 8//7 4//1
f 9//8 10//9 11//10
f 13//11 14//12 11//10
f 10//9 13//11 11//10
f 15//13 16//13 17//14
f 15//13 18//15 16//13
f 19//16 20//17 2//4
f 2//4 20//17 4//1
f 21//18 24//19 25//20
f 3//3 29//21 30//22
f 30//22 2//4 3//3
f 23//23 28//24 31//25
f 31//25 28//24 27//26
f 31//25 27//26 1//27
f 4//1 20//17 6//5
f 25//20 26//28 32//29
f 34//30 1//27 12//31
f 38//32 12//31 36//33
f 35//34 39//35 36//33
f 21//18 22//36 23//23
f 24//19 26//28 25//20
f 26//28 24//19 33//37
f 23//23 22//36 28//24
f 39//35 35//34 32//29
f 37//38 39//35 32//29
f 36//33 39//35 38//32
f 33//37 32//29 26//28
f 40//39 1//27 34//30
f 34//30 12//31 38//32
f 23//23 24//19 21//18
f 33//37 37//38 32//29
f 34//30 38//32 42//40
f 38//32 39//35 42//40
f 23//23 31//25 43//41
f 41//42 24//19 23//23
f 37//38 42//40 39//35
f 43//41 41//42 23//23
f 41//42 33//37 24//19
f 31//25 1//27 40//39
f 34//30 42//40 44//43
f 37//38 45//44 42//40
f 47//45 40//39 34//30
f 34//30 44//43 47//45
f 42//40 45//44 44//43
f 46//46 33//37 41//42
f 46//46 41//42 43//41
f 48//47 37//38 33//37
f 48//47 45//44 37//38
f 48//47 49//48 45//44
f 50//49 40//39 47//45
f 46//46 43//41 52//50
f 51//51 52//50 43//41
f 51//51 31//25 53//52
f 40//39 53//52 31//25
f 51//51 43//41 31//25
f 55//53 57//54 56//55
f 33//37 46//46 54//56
f 46//46 56//57 54//56
f 58//58 53//52 40//39
f 54//56 59//59 33//37
f 59//59 48//47 33//37
f 60//60 57//54 61//61
f 50//49 58//58 40//39
f 62//62 57//54 60//60
f 63//63 47//45 44//43
f 64//64 65//65 56//55
f 56//55 57//54 64//64
f 66//66 64//64 67//67
f 67//67 64//64 68//68
f 57//54 69//69 64//64
f 64//64 69//69 68//68
f 45//44 49//48 63//63
f 50//49 47//45 63//63
f 69//69 57//54 70//70
f 57//54 62//62 70//70
f 45//44 63//63 44//43
