# Blender v2.78 (sub 0) OBJ File: 'exporter.blend'
# www.blender.org
o FJ2594.obj_grp1.1295
v -0.239750 -0.622524 3.992366
v -0.216645 -0.651124 4.016036
v -0.242625 -0.600063 4.003627
v -0.233954 -0.597697 3.981568
v -0.234978 -0.629556 4.026731
v -0.228277 -0.610378 4.034980
v -0.223177 -0.585665 4.022840
v -0.206913 -0.632900 3.966969
v -0.181405 -0.661423 3.971697
v -0.222137 -0.638114 4.033203
v -0.213967 -0.653000 4.015331
v -0.199698 -0.645331 4.026579
v -0.146237 -0.668952 3.970193
v -0.212572 -0.614620 3.961061
v -0.202370 -0.593120 3.959335
v -0.197203 -0.600547 4.035882
v -0.202268 -0.581833 3.970789
v -0.221048 -0.575543 3.999680
v -0.203372 -0.585320 4.032198
v -0.208157 -0.625008 3.933441
v -0.183147 -0.640903 3.906240
v -0.171989 -0.611171 3.899919
v -0.159789 -0.582951 3.934513
v -0.147719 -0.581648 4.004054
v -0.144599 -0.668940 3.925660
v -0.142084 -0.642436 3.899934
v -0.113830 -0.648391 3.967220
v -0.137675 -0.621986 4.003335
v -0.145366 -0.597064 3.904510
v -0.126950 -0.576305 3.958706
v -0.123981 -0.613280 3.910181
v -0.116282 -0.600791 3.981995
v -0.122830 -0.580299 3.970539
v -0.116955 -0.636602 3.922573
v -0.105882 -0.614209 3.949882
vn -0.8758 -0.3933 -0.2797
vn -0.9554 0.2852 0.0768
vn -0.7654 0.3310 -0.5519
vn -0.8209 -0.3591 0.4441
vn -0.4995 0.1492 0.8534
vn -0.4297 -0.9001 0.0722
vn -0.5230 0.6883 0.5026
vn -0.7601 -0.5384 -0.3637
vn -0.3621 -0.9264 -0.1036
vn -0.2632 -0.4853 0.8338
vn -0.4932 -0.8476 -0.1957
vn 0.2268 -0.6007 0.7666
vn 0.1880 -0.9439 0.2714
vn -0.8830 -0.0034 -0.4695
vn 0.2624 0.1098 0.9587
vn -0.2791 0.8918 -0.3560
vn -0.5653 0.5276 -0.6341
vn -0.4212 0.9065 -0.0296
vn 0.0320 0.6563 0.7538
vn -0.9251 -0.1136 -0.3622
vn -0.5321 -0.4427 -0.7217
vn -0.3356 0.3637 -0.8690
vn -0.2453 0.8904 -0.3835
vn 0.4226 0.7090 0.5645
vn 0.1034 -0.9105 -0.4004
vn 0.2959 -0.3757 -0.8782
vn 0.8230 -0.4969 0.2753
vn 0.5892 -0.2106 0.7801
vn 0.1974 0.6142 -0.7640
vn 0.4527 0.8806 -0.1400
vn 0.7023 0.2501 -0.6665
vn 0.8512 0.2251 0.4741
vn 0.6986 0.6888 0.1934
vn 0.8476 -0.3320 -0.4140
vn 0.9793 0.1624 -0.1212
s 1
f 1//1 3//2 4//3
f 1//1 5//4 3//2
f 5//4 6//5 3//2
f 5//4 1//1 2//6
f 6//5 7//7 3//2
f 1//1 8//8 9//9
f 10//10 5//4 2//6
f 2//6 1//1 11//11
f 1//1 9//9 11//11
f 10//10 2//6 12//12
f 13//13 12//12 2//6
f 14//14 8//8 1//1
f 14//14 1//1 4//3
f 6//5 5//4 10//10
f 10//10 16//15 6//5
f 10//10 12//12 16//15
f 4//3 17//16 15//17
f 4//3 15//17 14//14
f 18//18 17//16 4//3
f 3//2 18//18 4//3
f 18//18 3//2 7//7
f 19//19 18//18 7//7
f 19//19 7//7 6//5
f 19//19 6//5 16//15
f 20//20 21//21 9//9
f 8//8 20//20 9//9
f 9//9 13//13 11//11
f 15//17 20//20 14//14
f 14//14 20//20 8//8
f 20//20 15//17 22//22
f 22//22 15//17 23//23
f 15//17 17//16 23//23
f 24//24 19//19 16//15
f 24//24 17//16 18//18
f 24//24 18//18 19//19
f 25//25 13//13 9//9
f 26//26 25//25 21//21
f 9//9 21//21 25//25
f 27//27 28//28 12//12
f 13//13 27//27 12//12
f 16//15 12//12 28//28
f 20//20 22//22 21//21
f 22//22 23//23 29//29
f 28//28 24//24 16//15
f 30//30 23//23 17//16
f 17//16 24//24 30//30
f 26//26 21//21 22//22
f 29//29 26//26 22//22
f 26//26 29//29 31//31
f 29//29 30//30 31//31
f 24//24 28//28 32//32
f 32//32 33//33 24//24
f 30//30 29//29 23//23
f 33//33 30//30 24//24
f 27//27 25//25 34//34
f 13//13 25//25 27//27
f 26//26 31//31 34//34
f 26//26 34//34 25//25
f 34//34 35//35 27//27
f 34//34 31//31 35//35
f 35//35 32//32 27//27
f 35//35 31//31 30//30
f 35//35 30//30 33//33
f 32//32 35//35 33//33
f 28//28 27//27 32//32
