# Blender v2.78 (sub 0) OBJ File: 'exporter.blend'
# www.blender.org
o FJ2581.obj_grp1.1282
v -0.278710 -0.673092 4.048480
v -0.263674 -0.649892 4.058365
v -0.277124 -0.712484 4.047553
v -0.264520 -0.743600 4.077853
v -0.248427 -0.749224 4.110630
v -0.244727 -0.751038 4.115072
v -0.223899 -0.728614 4.138380
v -0.244222 -0.727776 4.023742
v -0.253360 -0.701041 4.025007
v -0.262277 -0.653148 4.057117
v -0.276731 -0.712293 4.047555
v -0.198226 -0.700583 4.139020
v -0.238381 -0.635988 4.066213
v -0.240097 -0.636030 4.051426
v -0.217418 -0.744309 4.044818
v -0.222448 -0.736672 4.135753
v -0.222448 -0.736672 4.135753
v -0.208807 -0.738198 4.130899
v -0.207362 -0.722508 4.139913
v -0.210572 -0.655736 4.035510
v -0.140256 -0.647863 4.107999
v -0.172168 -0.729364 4.063224
v -0.192667 -0.740648 4.105853
v -0.193228 -0.715825 4.137051
v -0.223727 -0.728644 4.138101
v -0.207362 -0.722508 4.139913
v -0.196051 -0.713757 4.134143
v -0.194849 -0.696124 4.133537
v -0.196692 -0.714767 4.135166
v -0.208807 -0.738198 4.130899
v -0.172508 -0.677623 4.044038
v -0.106663 -0.661502 4.066881
v -0.126631 -0.720652 4.137246
v -0.151817 -0.659658 4.127369
v -0.127981 -0.671635 4.048742
v -0.111518 -0.740759 4.110867
v -0.208807 -0.738198 4.130899
v -0.133368 -0.739329 4.125078
v -0.113890 -0.696717 4.053326
v -0.112841 -0.682996 4.122638
v -0.133368 -0.739329 4.125078
v -0.109507 -0.735414 4.108304
v -0.114416 -0.729178 4.075106
v -0.091545 -0.718108 4.095535
v -0.086248 -0.685870 4.081823
vn -0.9305 -0.3598 0.0693
vn -0.7674 -0.6391 0.0510
vn -0.7997 0.0923 0.5933
vn -0.6023 0.1884 0.7757
vn -0.7891 0.1738 0.5892
vn -0.1338 -0.4802 -0.8669
vn -0.6255 0.5054 -0.5944
vn -0.3912 0.1559 -0.9070
vn -0.7320 0.1334 -0.6682
vn -0.6417 0.3593 0.6776
vn -0.2866 0.3379 0.8965
vn -0.2715 0.8827 0.3835
vn -0.2676 0.8740 -0.4057
vn 0.2401 -0.8316 -0.5008
vn 0.1142 -0.9926 0.0403
vn -0.5609 -0.3712 0.7400
vn 0.1417 -0.6339 0.7603
vn 0.3011 -0.7305 0.6130
vn 0.1577 0.4741 -0.8662
vn 0.2155 0.9008 0.3769
vn 0.1541 -0.9880 0.0058
vn 0.1079 -0.2323 0.9666
vn 0.2897 -0.7231 -0.6271
vn 0.1410 -0.2571 0.9560
vn -0.1255 0.0928 0.9877
vn 0.4546 -0.0004 0.8907
vn 0.2607 -0.0527 -0.9640
vn 0.6193 0.6834 -0.3866
vn 0.4299 -0.2206 0.8755
vn -0.0329 -0.2435 0.9693
vn 0.0047 -0.3196 0.9475
vn -0.1628 0.7026 0.6927
vn 0.2058 -0.9561 -0.2088
vn 0.0006 -0.9940 0.1092
vn 0.2863 -0.5841 0.7595
vn 0.4566 -0.2134 -0.8637
vn 0.2018 0.4878 -0.8493
vn 0.0090 -0.9963 0.0850
vn 0.6787 -0.3974 0.6177
vn 0.4238 -0.7294 -0.5370
vn 0.6439 0.3351 0.6878
vn 0.9814 0.1604 -0.1055
vn 0.9401 -0.3386 0.0397
s 1
f 3//1 4//2 5//3
f 7//4 1//5 5//3
f 8//6 4//2 3//1
f 5//3 1//5 3//1
f 10//7 9//8 11//9
f 9//8 8//6 11//9
f 1//5 7//4 2//10
f 7//4 12//11 13//12
f 10//7 14//13 9//8
f 13//12 2//10 7//4
f 15//14 4//2 8//6
f 6//15 4//2 15//14
f 7//4 5//3 16//16
f 17//17 6//15 18//18
f 20//19 9//8 14//13
f 14//13 10//7 13//12
f 14//13 13//12 21//20
f 23//21 6//15 15//14
f 17//17 18//18 24//22
f 6//15 23//21 18//18
f 15//14 8//6 22//23
f 24//22 25//24 17//17
f 12//11 7//4 19//25
f 26//26 27//26 28//26
f 20//19 8//6 9//8
f 20//19 31//27 8//6
f 22//23 8//6 31//27
f 20//19 32//28 31//27
f 32//28 14//13 21//20
f 14//13 32//28 20//19
f 21//20 13//12 12//11
f 22//23 23//21 15//14
f 33//29 29//30 30//31
f 12//11 34//32 21//20
f 23//21 36//33 37//34
f 22//23 36//33 23//21
f 29//30 33//29 12//11
f 38//35 33//29 30//31
f 39//36 31//27 35//37
f 22//23 31//27 39//36
f 33//29 34//32 12//11
f 35//37 31//27 32//28
f 36//33 41//38 37//34
f 42//39 33//29 38//35
f 43//40 22//23 39//36
f 36//33 22//23 43//40
f 40//41 34//32 33//29
f 35//37 32//28 39//36
f 32//28 21//20 45//42
f 40//41 45//42 21//20
f 34//32 40//41 21//20
f 44//43 43//40 45//42
f 42//39 44//43 33//29
f 40//41 33//29 44//43
f 43//40 44//43 36//33
f 45//42 43//40 39//36
f 40//41 44//43 45//42
f 39//36 32//28 45//42
