# Blender v2.78 (sub 0) OBJ File: 'exporter.blend'
# www.blender.org
o FJ2530.obj_grp1.1233
v 0.296030 -0.166678 5.522334
v 0.316225 -0.199082 5.582895
v 0.309162 -0.199800 5.584578
v 0.309597 -0.199721 5.583160
v 0.303797 -0.196998 5.588575
v 0.303297 -0.198686 5.585899
v 0.303297 -0.198686 5.585899
v 0.291404 -0.171316 5.537941
v 0.303612 -0.198596 5.586503
v 0.317015 -0.200285 5.583799
v 0.303797 -0.196998 5.588575
v 0.309757 -0.201153 5.584585
v 0.305186 -0.187475 5.592711
v 0.305591 -0.187510 5.592434
v 0.319374 -0.195994 5.585098
v 0.319670 -0.192863 5.586604
v 0.303638 -0.163165 5.536191
v 0.317732 -0.187658 5.589912
v 0.317267 -0.187465 5.590453
v 0.317816 -0.187721 5.589815
v 0.319670 -0.192863 5.586604
v 0.309661 -0.185463 5.592847
v 0.287699 -0.150846 5.519013
v 0.272723 -0.142485 5.445796
v 0.294051 -0.154368 5.528913
v 0.271302 -0.138218 5.444983
v 0.291858 -0.155452 5.497037
v 0.277898 -0.142176 5.443347
v 0.276815 -0.140927 5.443949
v 0.271885 -0.138489 5.445060
v 0.275093 -0.142690 5.443370
v 0.272668 -0.142659 5.445765
v 0.275093 -0.142690 5.443370
v 0.271638 -0.138031 5.444424
v 0.277793 -0.142196 5.443464
v 0.278565 -0.139478 5.443746
v 0.275676 -0.136537 5.445765
v 0.278565 -0.139478 5.443746
v 0.275741 -0.136429 5.445788
v 0.271885 -0.138489 5.445060
vn 0.4152 -0.8087 -0.4166
vn 0.4371 -0.7623 -0.4774
vn -0.2003 -0.8744 -0.4420
vn 0.0987 -0.8406 0.5326
vn 0.0860 -0.8507 0.5186
vn 0.0769 -0.8687 0.4893
vn -0.2609 -0.8649 -0.4289
vn 0.5203 -0.7096 -0.4751
vn 0.2047 -0.4569 0.8657
vn 0.2069 -0.4372 0.8752
vn 0.2061 -0.6714 0.7118
vn 0.1975 -0.4492 0.8713
vn 0.9402 -0.0567 -0.3360
vn 0.1997 -0.4479 0.8715
vn 0.1501 -0.4723 0.8686
vn 0.9279 0.3264 -0.1802
vn 0.7011 0.6958 0.1556
vn 0.0979 -0.3729 0.9227
vn -0.5942 -0.7994 -0.0890
vn -0.5463 0.7626 0.3464
vn -0.9595 0.1020 0.2626
vn -0.5558 0.6897 0.4640
vn 0.2136 0.9331 0.2893
vn -0.9340 -0.2964 0.1994
vn 0.7847 -0.5483 -0.2892
vn 0.9155 0.3848 -0.1170
vn 0.2026 -0.9224 -0.3287
vn -0.6841 -0.2463 -0.6866
vn -0.0006 0.2128 -0.9771
vn 0.0116 0.1449 -0.9894
vn -0.0569 0.1541 -0.9864
vn -0.0689 0.1219 -0.9901
vn 0.1009 0.6062 -0.7889
vn 0.1100 0.6112 -0.7838
vn 0.0496 0.5974 -0.8004
vn 0.1112 0.9928 0.0439
vn -0.4923 0.8352 0.2452
s 1
f 1//1 2//2 3//3
f 4//4 5//5 6//6
f 3//3 7//7 8//8
f 10//9 11//10 12//11
f 10//9 13//12 11//10
f 3//3 8//8 1//1
f 2//2 1//1 15//13
f 13//12 10//9 16//14
f 19//15 13//12 16//14
f 17//16 18//17 15//13
f 19//15 22//18 13//12
f 24//19 1//1 8//8
f 17//16 15//13 1//1
f 23//20 9//21 14//22
f 25//23 18//17 17//16
f 23//20 14//22 25//23
f 14//22 18//17 25//23
f 8//8 26//24 24//19
f 27//25 17//16 1//1
f 28//26 17//16 27//25
f 26//24 9//21 23//20
f 26//24 8//8 9//21
f 29//27 27//25 1//1
f 24//19 29//27 1//1
f 30//28 31//28 32//28
f 33//29 34//30 35//31
f 34//30 36//32 35//31
f 34//33 37//34 38//35
f 39//36 40//37 23//20
f 23//20 25//23 39//36
f 17//16 28//26 39//36
f 25//23 17//16 39//36
l 20 21
