# Blender v2.78 (sub 0) OBJ File: 'exporter.blend'
# www.blender.org
o FJ2537.obj_grp1.1240
v 0.503679 -0.483120 5.479582
v 0.503780 -0.482791 5.479754
v 0.513495 -0.473181 5.484543
v 0.508113 -0.476665 5.478862
v 0.529412 -0.494981 5.467405
v 0.504005 -0.482689 5.479902
v 0.550093 -0.531733 5.464168
v 0.503222 -0.489927 5.490082
v 0.503222 -0.489927 5.490082
v 0.513674 -0.481551 5.497555
v 0.551146 -0.505952 5.468312
v 0.508226 -0.487589 5.496701
v 0.502141 -0.491837 5.491463
v 0.551041 -0.513887 5.477475
v 0.570193 -0.554110 5.448114
v 0.544145 -0.524574 5.462055
v 0.575223 -0.549224 5.445048
v 0.568244 -0.556205 5.446286
v 0.572885 -0.552051 5.443699
v 0.573801 -0.554423 5.450923
v 0.570059 -0.552018 5.443981
v 0.570059 -0.552018 5.443981
v 0.574467 -0.549741 5.445060
v 0.576861 -0.551061 5.448018
v 0.572885 -0.552051 5.443699
v 0.570059 -0.552018 5.443981
v 0.572885 -0.552051 5.443699
v 0.568909 -0.555718 5.446703
v 0.570435 -0.556840 5.450131
v 0.568909 -0.555718 5.446703
v 0.572885 -0.552051 5.443699
v 0.575415 -0.554328 5.450929
v 0.570435 -0.556840 5.450131
v 0.574220 -0.554697 5.451715
v 0.576861 -0.551061 5.448018
vn -0.7402 0.5720 0.3535
vn -0.3058 0.9459 -0.1086
vn -0.7411 0.5732 0.3496
vn -0.6952 -0.5972 -0.4000
vn -0.5488 -0.7608 0.3463
vn -0.7300 -0.5232 -0.4397
vn -0.7394 0.5714 0.3561
vn 0.7483 0.6288 -0.2113
vn -0.1501 0.3694 0.9171
vn -0.7134 0.5701 0.4074
vn -0.0204 0.5039 -0.8635
vn -0.1761 0.4628 -0.8688
vn 0.5486 -0.0901 0.8312
vn 0.0253 -0.5439 0.8388
vn -0.8366 -0.4461 -0.3180
vn -0.7635 -0.6448 -0.0362
vn 0.6716 0.5591 -0.4862
vn -0.3796 -0.6072 0.6980
vn -0.0231 0.3690 -0.9292
vn -0.8272 -0.5205 -0.2116
vn -0.0830 0.3266 -0.9415
vn 0.7440 -0.1226 -0.6569
vn -0.0877 -0.5726 -0.8151
vn 0.4335 -0.7941 -0.4260
vn 0.4042 -0.8007 -0.4421
vn 0.5004 -0.7524 -0.4284
vn 0.3277 -0.3279 0.8860
vn 0.5465 -0.7248 -0.4196
vn 0.6247 -0.6551 -0.4250
s 1
f 2//1 3//2 4//3
f 6//4 7//5 8//6
f 2//1 9//7 3//2
f 11//8 3//2 10//9
f 12//10 3//2 9//7
f 3//2 12//10 10//9
f 5//11 1//12 3//2
f 3//2 11//8 5//11
f 14//13 11//8 10//9
f 14//13 13//14 7//5
f 10//9 13//14 14//13
f 5//11 15//15 1//12
f 6//4 16//16 7//5
f 5//11 11//8 17//17
f 7//5 16//16 18//18
f 11//8 14//13 17//17
f 17//17 19//19 5//11
f 7//5 18//18 14//13
f 5//11 22//20 15//15
f 5//11 19//19 21//21
f 23//22 24//22 25//22
f 26//23 27//23 28//23
f 29//24 30//25 31//26
f 14//13 18//18 20//27
f 32//28 29//24 31//26
f 31//26 35//29 32//28
f 14//13 20//27 17//17
l 33 34
