# Blender v2.78 (sub 0) OBJ File: 'exporter.blend'
# www.blender.org
o FJ2563.obj_grp1.1264
v -0.040432 -0.402008 6.290230
v -0.039901 -0.443972 6.522806
v -0.041468 -0.431400 6.511258
v -0.035202 -0.450408 6.520928
v -0.039949 -0.443981 6.522806
v -0.037542 -0.436552 6.522618
v -0.039949 -0.443981 6.522806
v -0.026891 -0.451240 6.525670
v -0.037542 -0.436552 6.522618
v -0.026891 -0.451240 6.525670
v -0.039949 -0.443981 6.522806
v -0.035202 -0.450408 6.520928
v -0.026957 -0.427824 6.521209
v -0.016722 -0.427617 6.317416
v -0.015720 -0.460902 6.522763
v -0.022564 -0.456380 6.525764
v -0.022564 -0.456380 6.525764
v -0.037683 -0.428777 6.519759
v -0.025601 -0.419896 6.516267
v -0.037656 -0.428835 6.519754
v -0.022564 -0.456380 6.525764
v -0.015721 -0.460946 6.522759
v -0.015381 -0.455365 6.526514
v -0.015391 -0.455370 6.526572
v -0.022564 -0.456380 6.525764
v -0.010986 -0.461560 6.525883
v -0.011086 -0.461008 6.525857
v -0.011086 -0.461008 6.525857
v 0.020087 -0.458822 6.527491
v 0.016455 -0.458911 6.527359
v -0.032497 -0.373652 6.234686
v 0.027497 -0.423623 6.520053
v 0.027196 -0.424882 6.519707
v 0.026448 -0.431052 6.353244
v 0.040334 -0.441673 6.523986
v 0.029635 -0.430156 6.521772
v 0.035587 -0.444590 6.524683
v -0.032489 -0.384744 6.184233
v 0.034700 -0.424619 6.512853
v 0.027196 -0.424882 6.519707
v 0.029635 -0.430156 6.521772
v 0.034700 -0.424619 6.512853
v 0.040091 -0.433043 6.520036
v 0.040119 -0.432324 6.519727
v 0.040091 -0.433043 6.520036
v -0.000281 -0.364094 6.233616
v -0.037528 -0.341004 6.012588
v -0.034549 -0.335451 6.068963
v -0.020290 -0.358030 6.009589
v 0.024885 -0.368124 6.061244
v 0.040806 -0.392787 6.305819
v 0.037428 -0.404938 6.245180
v -0.035940 -0.324003 5.942890
v -0.039014 -0.339120 5.767002
v -0.010734 -0.315764 6.019618
v 0.042188 -0.365664 6.122757
v -0.017539 -0.313907 5.842554
v -0.021909 -0.354376 5.860394
v 0.040674 -0.341184 6.038620
v 0.026442 -0.314055 5.898850
v 0.023820 -0.316603 5.994555
v -0.026121 -0.362125 5.733217
v -0.026121 -0.362125 5.733217
v 0.024521 -0.357302 5.864068
v 0.030871 -0.353227 5.974611
v -0.022716 -0.331956 5.705274
v -0.033337 -0.359323 5.623183
v -0.035082 -0.366121 5.657915
v -0.012225 -0.449058 5.409988
v -0.035082 -0.366121 5.657915
v -0.014970 -0.400010 5.591063
v 0.016802 -0.380767 5.662220
v -0.014970 -0.400010 5.591063
v -0.005522 -0.342920 5.624190
v 0.037844 -0.372568 5.662407
v 0.022987 -0.319937 5.774565
v 0.043330 -0.336950 5.764991
v 0.045022 -0.339114 5.872370
v 0.043650 -0.339248 5.869455
v -0.008033 -0.442952 5.469379
v -0.007821 -0.405726 5.462723
v 0.036336 -0.343308 5.658423
v 0.043875 -0.364132 5.642595
v -0.002371 -0.487083 5.359314
v 0.010696 -0.442944 5.495059
v 0.054380 -0.407107 5.478758
v 0.046795 -0.364241 5.644723
v 0.020023 -0.497314 5.392122
v 0.001169 -0.469976 5.361555
v 0.040419 -0.460862 5.452434
v 0.034251 -0.403739 5.459375
v 0.055421 -0.406347 5.517035
v 0.023798 -0.520534 5.291771
v 0.015250 -0.522461 5.314254
v 0.016646 -0.525679 5.338593
v 0.055401 -0.505853 5.381671
v 0.048517 -0.520036 5.266512
v 0.058834 -0.494075 5.303240
v 0.065539 -0.446988 5.429790
v 0.059637 -0.567448 5.260170
v 0.064597 -0.576886 5.281968
v 0.077225 -0.501236 5.365435
v 0.063976 -0.536659 5.248580
v 0.098916 -0.530019 5.249457
v 0.110980 -0.558182 5.299673
v 0.078976 -0.494204 5.347788
v 0.108309 -0.531463 5.289131
v 0.072968 -0.574025 5.255409
v 0.074964 -0.580796 5.266195
v 0.082927 -0.581275 5.265256
v 0.096107 -0.536747 5.242647
v 0.075488 -0.582332 5.266636
v 0.102763 -0.578858 5.289525
v 0.083075 -0.545905 5.238122
v 0.094953 -0.536616 5.244656
v 0.099873 -0.522338 5.264563
vn -0.9644 -0.2444 -0.1015
vn -0.8886 -0.4515 -0.0805
vn -0.9312 0.3042 0.2007
vn -0.6900 -0.7152 -0.1111
vn -0.8574 0.2885 0.4262
vn -0.8929 0.2050 0.4008
vn -0.1716 0.0804 0.9819
vn -0.0781 0.0966 0.9923
vn -0.1189 0.2041 0.9717
vn -0.4729 -0.4725 0.7438
vn -0.4571 -0.5434 0.7041
vn -0.4727 -0.4725 0.7438
vn -0.0220 0.2975 0.9545
vn -0.3054 -0.9347 -0.1819
vn -0.2105 -0.9693 -0.1270
vn -0.4759 -0.8574 0.1958
vn -0.4853 -0.3983 0.7784
vn -0.2326 0.8740 0.4266
vn -0.7264 0.6040 0.3280
vn -0.1577 0.3398 0.9272
vn -0.0089 -0.5574 0.8302
vn -0.2616 -0.5274 0.8084
vn -0.2614 -0.5274 0.8084
vn -0.0145 0.0617 0.9980
vn -0.1027 -0.0738 0.9920
vn -0.4970 -0.4631 0.7338
vn 0.0450 -0.9860 -0.1606
vn -0.0130 0.0980 0.9951
vn -0.0514 -0.1592 0.9859
vn -0.6388 0.7550 0.1480
vn 0.0008 0.4482 0.8939
vn 0.3992 -0.8999 -0.1752
vn 0.3523 -0.9240 -0.1484
vn 0.0575 0.2617 0.9634
vn 0.1128 0.2413 0.9639
vn -0.8297 -0.5353 -0.1585
vn 0.4407 0.6275 0.6419
vn 0.5665 0.5148 0.6434
vn 0.8638 0.4997 0.0651
vn 0.1442 0.9785 0.1472
vn 0.5696 0.8143 0.1118
vn 0.2322 0.2838 0.9304
vn 0.3023 0.7222 0.6221
vn 0.9830 0.1807 0.0327
vn 0.0213 0.9787 0.2040
vn 0.6965 -0.6991 -0.1618
vn 0.8378 -0.5395 -0.0832
vn -0.7822 0.6057 0.1457
vn -0.3682 -0.9226 -0.1153
vn -0.9664 -0.2534 -0.0428
vn -0.1970 0.9728 0.1220
vn 0.3357 -0.9250 -0.1781
vn -0.8009 0.5983 0.0228
vn -0.9818 0.1900 -0.0045
vn 0.9558 -0.2647 -0.1279
vn -0.3619 -0.9322 0.0074
vn 0.9670 0.2475 0.0598
vn -0.3240 0.9432 -0.0735
vn 0.4489 0.8934 0.0189
vn 0.4435 0.8934 0.0713
vn -0.7539 -0.6467 0.1157
vn -0.1409 -0.9847 0.1026
vn 0.3444 -0.9359 0.0745
vn 0.4646 -0.8849 -0.0322
vn -0.4004 0.9047 -0.1458
vn -0.9984 -0.0266 -0.0506
vn -0.8581 0.4774 -0.1892
vn -0.9701 0.1220 -0.2099
vn -0.7146 -0.6837 0.1479
vn -0.7258 -0.6695 0.1580
vn 0.1968 -0.9498 0.2434
vn -0.2056 -0.9339 0.2926
vn 0.2970 0.9494 -0.1026
vn 0.8772 0.4759 -0.0634
vn 0.8148 0.5760 -0.0658
vn 0.6969 -0.7159 0.0420
vn -0.7257 -0.6489 0.2285
vn -0.5279 0.7505 -0.3976
vn -0.1433 0.9556 -0.2574
vn 0.5698 0.8066 -0.1573
vn 0.7030 -0.6962 0.1452
vn 0.9246 -0.3025 0.2314
vn -0.1690 -0.9156 0.3649
vn 0.8753 0.4741 -0.0959
vn 0.9930 0.0984 0.0658
vn -0.6980 -0.6854 0.2077
vn -0.1469 -0.8481 0.5091
vn -0.9721 -0.1396 -0.1887
vn -0.6169 0.5851 -0.5263
vn 0.4502 -0.7617 0.4661
vn 0.2168 0.8893 -0.4026
vn 0.9924 -0.1038 0.0662
vn 0.7686 0.6264 -0.1301
vn -0.9117 -0.3496 -0.2157
vn -0.8262 0.0795 -0.5577
vn 0.2757 -0.7357 0.6186
vn -0.4393 0.5246 -0.7292
vn 0.1297 0.8968 -0.4230
vn 0.7986 0.4062 -0.4441
vn -0.4615 -0.8718 0.1644
vn -0.6864 -0.4848 -0.5420
vn 0.8756 -0.2110 0.4345
vn -0.4662 0.2306 -0.8541
vn 0.6474 0.4781 -0.5935
vn 0.9458 -0.2814 0.1623
vn 0.8465 0.5323 0.0092
vn 0.9756 0.2132 -0.0522
vn -0.2137 -0.6443 -0.7343
vn -0.6953 -0.6342 -0.3382
vn -0.2209 -0.9343 -0.2798
vn 0.6250 -0.7718 0.1168
vn 0.3826 -0.8093 -0.4458
vn 0.0716 -0.0413 -0.9966
vn 0.6967 0.1206 -0.7071
vn -0.2002 0.7026 -0.6828
vn 0.6366 0.7144 -0.2906
s 1
f 1//1 2//2 3//3
f 4//4 2//2 1//1
f 5//5 6//6 3//3
f 7//7 8//8 9//9
f 10//10 11//11 12//12
f 13//13 9//9 8//8
f 4//4 14//14 15//15
f 16//16 4//4 15//15
f 10//10 12//12 17//17
f 19//18 3//3 18//19
f 3//3 6//6 18//19
f 20//20 9//9 13//13
f 19//18 18//19 13//13
f 4//4 1//1 14//14
f 21//21 22//22 23//23
f 24//24 8//8 25//25
f 24//24 13//13 8//8
f 22//22 27//26 23//23
f 14//14 26//27 15//15
f 30//28 24//24 28//29
f 30//28 13//13 24//24
f 3//3 31//30 1//1
f 31//30 3//3 19//18
f 33//31 19//18 13//13
f 14//14 34//32 26//27
f 34//32 29//33 26//27
f 36//34 13//13 30//28
f 30//28 37//35 36//34
f 38//36 14//14 1//1
f 33//31 13//13 36//34
f 39//37 40//38 41//37
f 51//39 32//40 42//41
f 43//42 36//34 37//35
f 45//43 39//37 41//37
f 42//41 44//44 51//39
f 46//45 31//30 19//18
f 14//14 52//46 34//32
f 35//47 29//33 34//32
f 48//48 38//36 1//1
f 1//1 31//30 48//48
f 49//49 14//14 38//36
f 48//48 47//50 38//36
f 31//30 46//45 55//51
f 32//40 46//45 19//18
f 38//36 47//50 49//49
f 50//52 14//14 49//49
f 50//52 52//46 14//14
f 35//47 34//32 52//46
f 35//47 52//46 51//39
f 51//39 44//44 35//47
f 47//50 53//53 54//54
f 48//48 53//53 47//50
f 53//53 48//48 55//51
f 49//49 47//50 54//54
f 51//39 46//45 32//40
f 55//51 48//48 31//30
f 50//52 56//55 52//46
f 52//46 56//55 51//39
f 49//49 54//54 58//56
f 51//39 56//55 59//57
f 55//51 57//58 53//53
f 57//58 55//51 60//59
f 60//59 55//51 61//60
f 55//51 46//45 61//60
f 46//45 51//39 61//60
f 62//61 58//56 54//54
f 63//62 64//63 58//56
f 64//63 49//49 58//56
f 65//64 50//52 49//49
f 49//49 64//63 65//64
f 57//58 66//65 54//54
f 54//54 53//53 57//58
f 65//64 56//55 50//52
f 51//39 59//57 61//60
f 68//66 67//67 69//68
f 67//67 68//66 54//54
f 70//69 69//68 71//70
f 54//54 70//69 62//61
f 62//61 70//69 71//70
f 64//63 63//62 72//71
f 72//71 63//62 73//72
f 67//67 54//54 66//65
f 76//73 57//58 60//59
f 60//59 77//74 76//73
f 77//74 60//59 78//75
f 59//57 65//64 79//76
f 59//57 78//75 61//60
f 65//64 59//57 56//55
f 78//75 60//59 61//60
f 80//77 71//70 69//68
f 81//78 67//67 74//79
f 74//79 67//67 66//65
f 66//65 57//58 74//79
f 74//79 57//58 76//73
f 74//79 76//73 82//80
f 64//63 72//71 75//81
f 83//82 79//76 64//63
f 64//63 79//76 65//64
f 82//80 76//73 77//74
f 67//67 81//78 69//68
f 80//77 85//83 73//72
f 72//71 85//83 75//81
f 85//83 72//71 73//72
f 82//80 77//74 87//84
f 83//82 64//63 75//81
f 83//85 77//74 78//75
f 95//86 88//87 80//77
f 84//88 69//68 89//89
f 89//89 69//68 81//78
f 84//88 80//77 69//68
f 80//77 84//88 95//86
f 85//83 80//77 88//87
f 90//90 85//83 88//87
f 90//90 75//81 85//83
f 82//80 91//91 74//79
f 92//92 83//82 75//81
f 86//93 91//91 82//80
f 87//84 92//92 86//93
f 82//80 87//84 86//93
f 95//86 84//88 94//94
f 94//94 84//88 93//95
f 89//89 93//95 84//88
f 90//90 88//87 96//96
f 97//97 89//89 98//98
f 89//89 81//78 98//98
f 91//91 98//98 81//78
f 99//99 92//92 90//90
f 91//91 86//93 98//98
f 92//92 75//81 90//90
f 91//91 81//78 74//79
f 95//86 94//94 101//100
f 100//101 94//94 93//95
f 100//101 101//100 94//94
f 101//100 88//87 95//86
f 93//95 89//89 97//97
f 86//93 99//99 102//102
f 102//102 90//90 96//96
f 99//99 86//93 92//92
f 103//103 93//95 97//97
f 103//103 100//101 93//95
f 98//98 104//104 97//97
f 105//105 106//106 102//102
f 107//107 106//106 105//105
f 102//102 99//99 90//90
f 106//106 86//93 102//102
f 86//93 106//106 98//98
f 100//101 108//108 109//109
f 101//100 100//101 109//109
f 109//109 112//110 101//100
f 101//100 112//110 113//111
f 108//108 110//112 112//110
f 112//110 110//112 113//111
f 88//87 101//100 113//111
f 108//108 100//101 114//113
f 114//113 100//101 103//103
f 110//112 108//108 114//113
f 104//104 103//103 97//97
f 110//112 114//113 111//114
f 115//115 111//114 114//113
f 114//113 103//103 104//104
f 88//87 113//111 96//96
f 105//105 96//96 113//111
f 96//96 105//105 102//102
f 104//104 98//98 116//116
f 98//98 106//106 116//116
f 107//107 116//116 106//106
f 110//112 111//114 113//111
f 114//113 104//104 115//115
f 111//114 104//104 113//111
f 113//111 104//104 107//107
f 113//111 107//107 105//105
f 104//104 116//116 107//107
