# Blender v2.78 (sub 0) OBJ File: 'exporter.blend'
# www.blender.org
o FJ2653.obj_grp1.1354
v 0.347219 -0.600345 5.580229
v 0.348345 -0.600189 5.580197
v 0.348250 -0.602365 5.579627
v 0.347530 -0.601397 5.579086
v 0.348812 -0.601406 5.580219
v 0.347350 -0.601936 5.580078
v 0.347379 -0.600671 5.580076
v 0.347075 -0.601629 5.579937
v 0.347648 -0.601131 5.579234
v 0.348849 -0.598524 5.581894
v 0.346795 -0.600749 5.578998
v 0.345253 -0.599896 5.579874
v 0.348155 -0.600867 5.580387
v 0.347433 -0.600855 5.580699
v 0.347037 -0.601106 5.579684
v 0.347594 -0.601225 5.580507
v 0.347376 -0.601357 5.580215
v 0.350476 -0.597875 5.584631
v 0.349817 -0.595061 5.586122
v 0.350599 -0.599246 5.583452
v 0.350255 -0.594087 5.585878
v 0.352143 -0.595004 5.585546
v 0.350552 -0.595215 5.587402
v 0.351426 -0.595542 5.585140
v 0.350170 -0.594583 5.587169
v 0.350774 -0.590756 5.587796
v 0.350605 -0.586451 5.588419
v 0.350098 -0.594720 5.586838
v 0.347771 -0.602105 5.580876
v 0.350476 -0.597875 5.584631
v 0.352422 -0.588863 5.589419
v 0.350014 -0.595671 5.586119
v 0.352554 -0.586655 5.589779
v 0.352497 -0.586992 5.589997
v 0.350962 -0.589429 5.589467
v 0.349779 -0.588013 5.590126
v 0.351227 -0.588530 5.590272
v 0.352506 -0.584623 5.590341
v 0.352527 -0.586247 5.593082
v 0.352527 -0.586247 5.593082
v 0.349258 -0.585870 5.590380
v 0.349608 -0.585661 5.590177
v 0.351767 -0.583069 5.592702
v 0.350815 -0.581369 5.598262
v 0.350673 -0.586795 5.588664
v 0.351514 -0.583416 5.592144
v 0.351360 -0.582424 5.598781
v 0.354374 -0.580140 5.597174
v 0.356932 -0.580080 5.598896
v 0.352238 -0.581031 5.598715
v 0.353399 -0.583335 5.598114
v 0.352001 -0.571761 5.602457
v 0.352689 -0.569076 5.602105
v 0.351831 -0.571898 5.602735
v 0.354045 -0.573606 5.602099
v 0.353511 -0.572323 5.604537
v 0.354484 -0.569695 5.611362
v 0.354991 -0.582087 5.595665
v 0.355383 -0.581626 5.599153
v 0.351533 -0.584560 5.590068
v 0.355211 -0.581978 5.599024
v 0.354988 -0.581980 5.595850
v 0.355891 -0.580092 5.598715
v 0.354260 -0.568433 5.601398
v 0.355000 -0.573574 5.600564
v 0.354538 -0.572758 5.603853
v 0.355134 -0.569975 5.602429
v 0.353989 -0.571658 5.603874
v 0.353895 -0.573057 5.602243
v 0.354093 -0.570088 5.604425
v 0.356585 -0.570807 5.615725
v 0.355734 -0.571640 5.604393
v 0.358046 -0.571698 5.611907
v 0.358181 -0.570672 5.609626
v 0.358031 -0.571305 5.614517
v 0.355451 -0.569764 5.602471
v 0.358396 -0.566619 5.615714
v 0.356221 -0.568187 5.610922
v 0.355005 -0.569129 5.614003
v 0.355714 -0.571642 5.604349
v 0.357280 -0.569067 5.611410
v 0.358961 -0.568396 5.614141
v 0.355918 -0.568531 5.616995
v 0.357088 -0.563142 5.627193
v 0.359976 -0.560996 5.624990
v 0.359998 -0.561803 5.626610
v 0.357303 -0.561429 5.626033
v 0.357482 -0.561347 5.625848
v 0.359978 -0.560877 5.625028
vn 0.0932 0.7398 -0.6663
vn 0.0631 0.7682 -0.6370
vn 0.1357 0.7992 -0.5855
vn 0.2313 -0.8153 0.5309
vn 0.2403 -0.7997 0.5503
vn 0.2394 -0.7984 0.5525
vn -0.9792 0.1771 0.0988
vn 0.8076 -0.4681 0.3587
vn 0.8136 -0.0314 -0.5805
vn 0.7370 0.1548 -0.6580
vn 0.5797 -0.4834 0.6559
vn 0.2124 0.6493 -0.7303
vn 0.5338 0.3633 -0.7636
vn -0.9434 0.1026 0.3155
vn -0.9793 0.0791 0.1862
vn -0.9376 0.0180 0.3472
vn -0.2006 0.5343 -0.8211
vn -0.2169 -0.5776 0.7870
vn -0.1899 -0.5791 0.7928
vn -0.1688 -0.5702 0.8040
vn 0.8429 -0.3501 0.4086
vn -0.9985 -0.0539 -0.0049
vn -0.7313 -0.5167 0.4453
vn -0.9958 -0.0481 -0.0780
vn 0.9983 -0.0551 -0.0203
vn 0.9066 -0.0034 -0.4220
vn -0.1694 -0.5498 0.8179
vn -0.0923 -0.5422 0.8352
vn 0.3525 -0.6429 0.6800
vn 0.8512 0.0987 -0.5155
vn 0.1827 -0.8017 0.5691
vn 0.9981 -0.0593 0.0146
vn -0.9295 -0.2437 0.2767
vn -0.5752 0.6529 -0.4928
vn -0.5220 0.7459 -0.4137
vn -0.5392 0.7670 -0.3478
vn -0.1226 -0.5130 0.8496
vn 0.6652 -0.3043 0.6819
vn 0.4890 0.5429 -0.6827
vn 0.4151 0.6957 -0.5863
vn 0.5401 0.4699 -0.6981
vn -0.6572 0.5820 -0.4789
vn -0.5057 0.8390 -0.2011
vn -0.6786 0.4496 -0.5808
vn 0.2168 -0.8490 0.4819
vn -0.5027 -0.6868 0.5249
vn -0.7414 0.6163 -0.2655
vn -0.9865 0.1506 -0.0638
vn -0.2942 -0.5406 0.7881
vn -0.7304 -0.5487 0.4068
vn -0.8958 0.2877 0.3388
vn 0.3164 0.5950 -0.7388
vn 0.0898 -0.6153 0.7831
vn 0.5697 -0.8186 -0.0731
vn 0.6685 -0.5613 0.4879
vn -0.4732 0.7056 -0.5275
vn 0.8583 0.1427 -0.4929
vn 0.8799 0.2342 -0.4135
vn 0.8852 0.3204 -0.3372
vn 0.9427 -0.1682 0.2882
vn 0.7491 -0.6517 0.1192
vn 0.9034 0.2261 -0.3644
vn 0.5899 -0.7815 0.2032
vn -0.4462 -0.7409 0.5020
vn 0.8406 -0.5038 -0.1989
vn -0.5361 -0.8416 0.0657
vn -0.5355 -0.8421 0.0643
vn -0.5692 -0.8173 0.0894
vn 0.7797 -0.6205 -0.0842
vn 0.6606 0.6508 -0.3743
vn -0.5965 0.7988 0.0780
vn -0.6266 0.7778 -0.0484
vn 0.9477 -0.1502 -0.2816
vn 0.9915 0.0247 -0.1274
vn 0.9524 -0.1423 -0.2696
vn 0.7638 0.6220 -0.1724
vn 0.7528 0.6309 -0.1879
vn 0.8324 0.4603 -0.3085
vn -0.8612 -0.4050 0.3069
vn -0.4252 -0.1364 0.8948
vn -0.4543 0.8216 -0.3445
vn 0.9942 0.0087 -0.1074
vn 0.9954 -0.0718 -0.0637
vn 0.0935 0.3164 0.9440
vn -0.0943 0.8909 0.4443
vn -0.9179 -0.2238 0.3277
vn -0.9843 0.1711 0.0439
vn -0.3078 0.9510 -0.0305
s 1
f 10//1 11//2 12//3
f 5//4 18//5 6//6
f 10//1 12//3 19//7
f 22//8 3//9 4//10
f 23//11 3//9 22//8
f 4//12 10//1 24//13
f 26//14 17//15 25//16
f 10//1 19//7 27//17
f 28//18 29//19 30//20
f 23//11 22//8 31//21
f 20//22 36//23 21//24
f 31//21 22//8 33//25
f 24//13 10//1 34//26
f 35//27 36//23 32//28
f 31//21 37//29 23//11
f 10//1 27//17 38//30
f 37//29 31//21 39//31
f 34//26 10//1 38//30
f 31//21 33//25 40//32
f 36//23 41//33 21//24
f 42//34 27//17 19//7
f 43//35 27//17 42//34
f 42//34 44//36 43//35
f 36//23 47//37 41//33
f 49//38 34//26 38//30
f 46//39 48//40 45//41
f 48//42 43//43 50//44
f 51//45 36//23 35//27
f 51//45 47//37 36//23
f 51//45 52//46 47//37
f 53//47 48//42 50//44
f 54//48 53//47 50//44
f 52//46 51//45 55//49
f 52//46 55//49 56//50
f 54//48 57//51 53//47
f 58//52 45//41 48//40
f 59//53 51//45 60//54
f 61//55 34//26 49//38
f 64//56 48//42 53//47
f 51//45 59//53 55//49
f 63//57 62//58 64//59
f 61//55 49//38 65//60
f 61//55 65//60 66//61
f 64//59 67//62 63//57
f 75//63 52//46 56//50
f 71//64 52//46 75//63
f 72//65 66//61 65//60
f 70//66 73//67 75//68
f 66//61 72//65 74//69
f 75//63 66//61 74//69
f 64//56 53//47 77//70
f 53//47 57//51 78//71
f 57//51 79//72 78//71
f 80//73 65//74 76//75
f 80//73 76//75 72//65
f 72//65 76//75 74//69
f 64//59 74//76 67//62
f 74//76 64//59 81//77
f 77//70 82//78 64//56
f 54//48 71//64 57//51
f 71//64 83//79 57//51
f 71//64 84//80 83//79
f 77//81 78//71 79//72
f 84//80 71//64 75//63
f 85//82 82//78 77//70
f 85//82 86//83 82//78
f 86//84 84//80 75//63
f 86//84 75//63 74//69
f 87//85 79//72 83//86
f 83//79 84//80 88//87
f 77//81 79//72 87//85
f 77//81 87//85 89//88
f 84//80 89//88 87//85
f 86//84 89//88 84//80
l 1 2
l 9 10
l 68 69
l 7 8
l 15 16
l 13 14
