# Blender v2.78 (sub 0) OBJ File: 'exporter.blend'
# www.blender.org
o FJ2692.obj_grp1.1391
v -0.004535 -0.576099 5.582226
v 0.000038 -0.579958 5.584850
v 0.003668 -0.578177 5.581817
v -0.002379 -0.573287 5.579658
v -0.000436 -0.577765 5.578921
v -0.001680 -0.574034 5.587943
v 0.000846 -0.568406 5.583614
v 0.019216 -0.565106 5.579433
v 0.013997 -0.569961 5.587308
v 0.020853 -0.568757 5.584677
v 0.013997 -0.569961 5.587308
v 0.020506 -0.567628 5.584651
v 0.019979 -0.567891 5.580876
v 0.021761 -0.560756 5.579337
v 0.017151 -0.560242 5.585220
v 0.025515 -0.568315 5.579754
v 0.028867 -0.563595 5.586217
v 0.020909 -0.568459 5.584491
v 0.019979 -0.567891 5.580876
v 0.023869 -0.562953 5.587390
v 0.027857 -0.568579 5.580544
v 0.029559 -0.559953 5.579798
v 0.035703 -0.562912 5.577973
v 0.046667 -0.581925 5.565948
v 0.052025 -0.578784 5.557422
v 0.066480 -0.591241 5.555819
v 0.056694 -0.587183 5.552829
v 0.084134 -0.601931 5.542759
v 0.071704 -0.601642 5.545448
v 0.071090 -0.592382 5.551735
v 0.086425 -0.607287 5.546315
v 0.074656 -0.595115 5.549892
v 0.080814 -0.602976 5.540778
v 0.082055 -0.602626 5.548248
v 0.103777 -0.613648 5.534132
v 0.084700 -0.610519 5.541321
v 0.084619 -0.601852 5.542615
v 0.085811 -0.602626 5.545150
v 0.082055 -0.602626 5.548248
v 0.095544 -0.614780 5.539878
v 0.095522 -0.606892 5.539723
v 0.093888 -0.607166 5.543178
v 0.122994 -0.621908 5.536879
v 0.115490 -0.617015 5.537973
v 0.093888 -0.607166 5.543178
v 0.107478 -0.617494 5.535948
v 0.123554 -0.621785 5.536888
v 0.111162 -0.612955 5.539798
v 0.093888 -0.607166 5.543178
v 0.086750 -0.607321 5.546417
v 0.111487 -0.613034 5.539771
v 0.133609 -0.624152 5.532968
v 0.136986 -0.619994 5.534875
v 0.141662 -0.625714 5.531403
v 0.136980 -0.625196 5.532521
v 0.102188 -0.614865 5.541300
v 0.128950 -0.622791 5.538442
v 0.116609 -0.616790 5.539798
v 0.129209 -0.622536 5.538061
v 0.135561 -0.622309 5.538787
v 0.134373 -0.625549 5.534275
v 0.138678 -0.626629 5.532820
v 0.138549 -0.628689 5.535451
v 0.145118 -0.636221 5.528390
v 0.145177 -0.639714 5.529517
v 0.142016 -0.622426 5.535733
v 0.142599 -0.624682 5.535904
v 0.150885 -0.640214 5.526687
v 0.148704 -0.642083 5.527156
v 0.145777 -0.638709 5.533273
v 0.148478 -0.642946 5.531146
v 0.149103 -0.640556 5.533037
v 0.145777 -0.638709 5.533273
v 0.145777 -0.638709 5.533273
v 0.150544 -0.638747 5.532438
v 0.145118 -0.636221 5.528390
v 0.151009 -0.639018 5.529131
v 0.150597 -0.637432 5.531113
v 0.150597 -0.637432 5.531113
v 0.147780 -0.634432 5.529235
v 0.179499 -0.648507 5.526029
v 0.151652 -0.639287 5.532052
v 0.156254 -0.639592 5.528343
v 0.152565 -0.639342 5.532048
v 0.177633 -0.649404 5.527301
v 0.175067 -0.648391 5.529281
v 0.151535 -0.638343 5.528296
v 0.147780 -0.634432 5.529235
v 0.151535 -0.638343 5.528296
v 0.177587 -0.642989 5.528360
v 0.175409 -0.643258 5.531826
v 0.182729 -0.650235 5.531394
v 0.180723 -0.652389 5.527358
v 0.181264 -0.653108 5.529000
v 0.181264 -0.653108 5.529000
v 0.184398 -0.652389 5.525010
v 0.184398 -0.652389 5.525010
v 0.188969 -0.653489 5.528432
v 0.196825 -0.667370 5.525558
v 0.200575 -0.670000 5.521737
v 0.196096 -0.672143 5.522069
v 0.201692 -0.674575 5.524842
v 0.203037 -0.677790 5.519723
v 0.198509 -0.669377 5.520582
v 0.196906 -0.665323 5.524588
v 0.199113 -0.669907 5.524855
v 0.203634 -0.680462 5.522813
v 0.211647 -0.683596 5.525939
v 0.200960 -0.670724 5.523222
v 0.204741 -0.676312 5.520339
v 0.197263 -0.670608 5.519868
v 0.204182 -0.675624 5.520581
v 0.203670 -0.677839 5.520691
v 0.197223 -0.667849 5.525245
v 0.200665 -0.670299 5.521818
v 0.217670 -0.685573 5.524633
v 0.212098 -0.683327 5.525479
v 0.212714 -0.681571 5.525996
v 0.214026 -0.681481 5.523071
v 0.216587 -0.683665 5.521380
v 0.211568 -0.681066 5.525613
v 0.205074 -0.675376 5.521791
v 0.213771 -0.682315 5.522440
v 0.211441 -0.679046 5.522757
v 0.211130 -0.679047 5.522808
v 0.248602 -0.688109 5.527706
v 0.244278 -0.690662 5.525572
v 0.216558 -0.680622 5.523716
v 0.244257 -0.686399 5.526353
v 0.242165 -0.685599 5.525505
v 0.239713 -0.686764 5.523605
v 0.239860 -0.685000 5.526456
v 0.242604 -0.688555 5.526913
v 0.235332 -0.687965 5.526371
v 0.242580 -0.684124 5.524536
v 0.248522 -0.693162 5.527358
v 0.248522 -0.693162 5.527358
v 0.243515 -0.689385 5.528313
v 0.244283 -0.690951 5.525573
v 0.235332 -0.687965 5.526371
v 0.257410 -0.697218 5.530174
v 0.259052 -0.696059 5.529141
v 0.261188 -0.699490 5.528569
v 0.256729 -0.698810 5.527310
v 0.262406 -0.700135 5.530344
v 0.257410 -0.697218 5.530174
v 0.259658 -0.695911 5.528219
v 0.263738 -0.699501 5.525728
v 0.264090 -0.699401 5.526881
v 0.262371 -0.700226 5.527124
v 0.261477 -0.701670 5.529037
v 0.262237 -0.697538 5.528353
v 0.263845 -0.699031 5.530093
v 0.263859 -0.698571 5.530283
v 0.257410 -0.697218 5.530174
v 0.260451 -0.700275 5.530409
v 0.262816 -0.697455 5.529234
v 0.262218 -0.697448 5.529235
v 0.264206 -0.700275 5.530550
v 0.273266 -0.696542 5.526509
v 0.273070 -0.697445 5.530138
v 0.271439 -0.698801 5.528296
v 0.272724 -0.698820 5.528371
v 0.269859 -0.696552 5.526559
v 0.269859 -0.696552 5.526559
v 0.264126 -0.697398 5.528300
v 0.271417 -0.694964 5.528324
v 0.272856 -0.697348 5.530301
v 0.272772 -0.699170 5.527896
v 0.286322 -0.708217 5.533098
v 0.274917 -0.698725 5.530409
v 0.272341 -0.698238 5.527649
v 0.277441 -0.697844 5.528590
v 0.272181 -0.698439 5.527452
v 0.273797 -0.696407 5.531102
v 0.271638 -0.696580 5.529986
v 0.274675 -0.696749 5.530174
v 0.277825 -0.697000 5.528412
v 0.282986 -0.701975 5.531022
v 0.282046 -0.703091 5.532756
v 0.281586 -0.703324 5.528928
v 0.285055 -0.707480 5.530863
v 0.281205 -0.702974 5.528622
v 0.282046 -0.703091 5.532756
v 0.290187 -0.707259 5.531109
v 0.286249 -0.704073 5.532072
v 0.286342 -0.705301 5.533079
v 0.292099 -0.709251 5.531979
v 0.299751 -0.705520 5.535332
v 0.288711 -0.706869 5.530199
v 0.290643 -0.707824 5.530690
v 0.292512 -0.708983 5.532052
v 0.298823 -0.706805 5.535526
v 0.298823 -0.706805 5.535526
v 0.299641 -0.705721 5.533107
v 0.296027 -0.705624 5.532990
v 0.296027 -0.707782 5.531672
v 0.298761 -0.708640 5.533741
v 0.297447 -0.706664 5.531958
v 0.297447 -0.706664 5.531958
v 0.306792 -0.704907 5.536636
v 0.307352 -0.704308 5.534835
v 0.307661 -0.705032 5.534810
v 0.307357 -0.704005 5.535071
v 0.306443 -0.704846 5.535553
v 0.306235 -0.703246 5.535761
v 0.307133 -0.704928 5.536400
v 0.307344 -0.705665 5.535810
v 0.307356 -0.704809 5.536786
v 0.307860 -0.704721 5.538565
v 0.307234 -0.704753 5.538988
v 0.307166 -0.704643 5.536533
v 0.306058 -0.704960 5.535290
v 0.305690 -0.704948 5.536151
vn -0.9811 -0.1817 -0.0659
vn -0.2005 -0.5523 -0.8092
vn -0.1592 -0.9421 0.2952
vn -0.5523 0.0638 0.8312
vn -0.5646 0.8239 0.0493
vn -0.6025 0.3882 -0.6974
vn 0.4290 -0.8394 -0.3336
vn -0.0061 -0.2411 -0.9705
vn 0.3668 -0.7554 0.5430
vn 0.3473 -0.6561 0.6700
vn 0.2091 -0.8817 -0.4230
vn 0.1152 -0.2191 0.9689
vn -0.8304 -0.3736 -0.4134
vn -0.2478 0.6848 -0.6853
vn -0.2531 0.9013 0.3514
vn -0.3375 -0.8310 -0.4421
vn 0.4719 0.2701 0.8393
vn -0.0811 -0.9905 -0.1110
vn -0.1027 -0.9862 -0.1299
vn 0.2142 0.4015 0.8905
vn 0.2818 0.9592 -0.0240
vn -0.0541 -0.8698 0.4904
vn 0.6250 0.7609 0.1742
vn -0.4013 -0.8743 0.2731
vn -0.0156 0.6785 -0.7344
vn -0.6020 -0.1154 -0.7901
vn 0.5753 0.1068 0.8109
vn 0.2444 0.9367 -0.2509
vn -0.6413 -0.5871 -0.4940
vn 0.5514 -0.0064 0.8342
vn -0.5237 -0.8243 -0.2152
vn 0.0307 -0.5321 0.8462
vn 0.6337 0.7681 0.0918
vn -0.1710 0.2481 -0.9535
vn 0.5208 0.1439 0.8415
vn -0.1258 0.0351 -0.9914
vn 0.5394 0.7803 0.3165
vn 0.5834 0.4936 0.6450
vn 0.0019 -0.6699 0.7424
vn 0.0578 0.8656 -0.4974
vn 0.2604 0.9183 -0.2982
vn 0.4682 0.7920 0.3920
vn 0.3869 -0.0197 0.9219
vn -0.3077 -0.8495 -0.4285
vn -0.3010 -0.9484 -0.0999
vn -0.1865 -0.5767 0.7954
vn -0.0655 -0.3255 0.9433
vn 0.3344 0.5497 0.7655
vn 0.3323 0.3891 0.8592
vn -0.2914 -0.6424 -0.7088
vn 0.4159 0.8896 -0.1889
vn 0.2350 0.3830 -0.8933
vn -0.5108 -0.6570 -0.5545
vn 0.1005 -0.0141 0.9948
vn 0.0145 -0.3201 0.9473
vn 0.0677 -0.0447 0.9967
vn -0.3099 -0.8688 0.3862
vn -0.1088 -0.4537 0.8845
vn 0.4213 0.5889 0.6897
vn -0.3656 -0.3246 -0.8724
vn -0.4334 -0.7903 -0.4331
vn -0.7744 -0.5811 -0.2502
vn -0.5206 -0.1675 -0.8372
vn -0.7686 -0.2823 -0.5741
vn 0.5182 0.6578 -0.5465
vn -0.5550 -0.5869 0.5895
vn 0.5737 0.2142 0.7906
vn 0.0429 0.3538 -0.9343
vn -0.5538 -0.4825 -0.6786
vn -0.8238 -0.5668 0.0026
vn -0.5239 -0.7972 0.3002
vn 0.0684 -0.3449 0.9361
vn -0.3222 -0.6518 0.6865
vn -0.1135 -0.3899 0.9138
vn 0.1685 0.3800 -0.9095
vn 0.2697 0.8382 -0.4741
vn 0.4953 0.2593 0.8291
vn 0.6795 0.5502 0.4854
vn 0.6900 0.5770 -0.4369
vn 0.8038 0.5466 -0.2347
vn 0.7551 0.2339 0.6125
vn -0.0841 0.0121 -0.9964
vn 0.1203 0.4353 0.8922
vn 0.1445 0.9481 -0.2832
vn 0.1682 0.7363 0.6554
vn -0.4192 -0.6857 -0.5950
vn -0.3159 -0.9332 0.1713
vn 0.5457 0.7722 0.3255
vn 0.7196 0.6942 -0.0121
vn 0.6879 0.7167 0.1146
vn 0.2594 0.9519 0.1629
vn 0.4582 0.8393 -0.2926
vn 0.2667 0.6092 0.7469
vn 0.2072 0.0148 0.9782
vn -0.7142 -0.6893 -0.1216
vn -0.7046 -0.7055 -0.0760
vn -0.3807 -0.5164 0.7671
vn -0.3467 -0.1541 -0.9252
vn 0.4622 0.5601 -0.6875
vn 0.7795 0.5788 0.2397
vn 0.7539 0.5237 -0.3967
vn -0.4818 -0.6224 -0.6168
vn -0.7337 -0.5833 -0.3484
vn -0.8135 -0.5816 0.0026
vn -0.5164 -0.5483 0.6578
vn 0.3533 0.4182 -0.8369
vn 0.8451 0.4562 0.2787
vn 0.2063 -0.1363 0.9690
vn 0.5233 0.3384 0.7820
vn -0.6146 -0.7774 0.1338
vn -0.1697 -0.8516 0.4960
vn 0.0673 -0.2058 -0.9763
vn 0.1630 0.2646 -0.9505
vn 0.5904 0.5795 -0.5619
vn 0.0501 -0.1313 -0.9901
vn 0.4358 0.2353 0.8687
vn 0.3986 0.2210 0.8901
vn 0.6949 0.6730 0.2533
vn 0.8794 0.4658 -0.0982
vn -0.1187 -0.9894 0.0833
vn 0.4705 -0.3976 0.7877
vn -0.0021 -0.0658 0.9978
vn 0.3549 0.7576 -0.5478
vn -0.0155 -0.2130 -0.9769
vn 0.4921 0.4862 -0.7221
vn 0.2259 0.3990 -0.8887
vn 0.2872 0.8007 0.5256
vn 0.1670 0.7799 0.6032
vn 0.5461 0.8144 -0.1962
vn 0.4172 0.8456 0.3330
vn 0.2974 -0.0814 -0.9513
vn 0.2299 0.9283 -0.2921
vn -0.1049 -0.2490 0.9628
vn 0.3739 0.9117 -0.1705
vn 0.2105 0.9334 0.2907
vn 0.0815 0.5200 0.8503
vn 0.1902 0.4326 0.8813
vn -0.0598 -0.1599 0.9853
vn -0.2223 -0.7658 0.6035
vn 0.1920 0.2719 -0.9430
vn 0.1005 -0.0544 -0.9934
vn -0.5637 -0.8257 -0.0211
vn -0.3906 -0.8403 0.3759
vn -0.4141 -0.7966 0.4404
vn -0.2528 -0.8682 0.4270
vn -0.4176 -0.7325 0.5377
vn 0.0926 0.3812 0.9199
vn 0.3460 0.7071 0.6167
vn -0.4112 -0.9023 0.1297
vn -0.4938 -0.6763 0.5467
vn -0.0321 -0.5804 0.8137
vn -0.5000 -0.8642 0.0554
vn 0.5149 0.8567 0.0301
vn 0.1344 -0.8154 -0.5631
vn -0.0933 0.6937 -0.7142
vn -0.0948 -0.8039 -0.5872
vn -0.3395 -0.9278 0.1545
vn 0.3421 0.7714 -0.5365
vn 0.0089 0.4885 0.8725
vn -0.0248 0.1119 0.9934
vn 0.0011 0.0735 0.9973
vn -0.0029 0.0846 0.9964
vn -0.2032 0.8465 -0.4920
vn 0.1162 0.7078 0.6968
vn 0.1902 0.6310 0.7521
vn -0.0252 0.1437 0.9893
vn -0.0592 -0.5455 -0.8360
vn -0.1907 -0.7450 0.6392
vn 0.0362 -0.7294 -0.6832
vn -0.1966 -0.8247 0.5303
vn -0.0093 0.2796 -0.9601
vn -0.2037 0.7412 -0.6396
vn -0.0762 0.9966 0.0321
vn -0.0644 -0.5746 0.8159
vn -0.4904 -0.6722 0.5547
vn -0.3478 -0.7236 0.5962
vn -0.5363 -0.5424 0.6467
vn -0.0485 -0.5970 -0.8008
vn 0.3420 0.8138 -0.4699
vn -0.2236 -0.8490 -0.4787
vn -0.2624 -0.5160 0.8154
vn -0.1088 0.6939 0.7118
vn -0.3971 -0.6703 -0.6269
vn -0.0104 0.7048 0.7093
vn 0.5250 0.5277 -0.6678
vn 0.2456 0.7296 0.6383
vn 0.2123 0.6119 0.7619
vn 0.1379 0.6331 0.7616
vn -0.4010 -0.2366 0.8850
vn -0.1786 -0.6328 -0.7535
vn -0.2682 -0.7786 -0.5674
vn 0.2437 0.6955 0.6760
vn 0.5061 0.4085 -0.7596
vn 0.1748 0.0380 -0.9839
vn 0.3794 0.9097 0.1687
vn -0.1022 0.0136 0.9947
vn 0.1352 0.6664 0.7332
vn 0.1085 -0.9704 -0.2159
vn 0.1508 -0.4317 -0.8893
vn -0.0307 -0.6728 0.7392
vn -0.1721 0.2036 0.9638
vn -0.1016 0.7490 0.6547
vn -0.1268 0.9852 -0.1158
vn 0.1230 0.7296 -0.6727
vn 0.1832 -0.4340 -0.8821
vn 0.1772 -0.1157 -0.9774
vn 0.1737 -0.0871 -0.9809
vn 0.2008 -0.9782 0.0529
vn 0.2552 -0.0338 -0.9663
vn 0.0966 0.8128 -0.5744
vn -0.2013 0.9648 0.1694
vn -0.2687 0.9515 0.1495
vn 0.5958 -0.2644 -0.7584
vn 0.1373 0.3686 -0.9194
vn -0.0518 0.3258 0.9440
vn -0.1720 0.4788 0.8609
vn -0.1674 0.2769 0.9462
vn 0.5839 -0.7672 0.2655
vn 0.0597 -0.7480 0.6610
vn 0.9590 -0.0348 0.2814
s 1
f 1//1 5//2 2//3
f 1//1 2//3 6//4
f 7//5 4//6 1//1
f 5//2 1//1 4//6
f 6//4 7//5 1//1
f 2//3 5//2 3//7
f 5//2 8//8 3//7
f 10//9 2//3 3//7
f 10//9 11//10 2//3
f 8//8 12//11 3//7
f 2//3 9//12 6//4
f 5//2 4//6 8//8
f 8//8 13//13 12//11
f 4//6 14//14 8//8
f 15//15 7//5 6//4
f 14//14 4//6 7//5
f 13//13 8//8 16//16
f 10//9 17//17 11//10
f 16//16 18//18 19//19
f 9//12 20//20 6//4
f 17//17 20//20 9//12
f 15//15 14//14 7//5
f 14//14 15//15 22//21
f 20//20 15//15 6//4
f 16//16 8//8 14//14
f 21//22 17//17 10//9
f 16//16 21//22 18//18
f 22//21 15//15 20//20
f 23//23 22//21 20//20
f 14//14 24//24 16//16
f 16//16 24//24 21//22
f 17//17 23//23 20//20
f 14//14 25//25 27//26
f 21//22 24//24 17//17
f 25//25 14//14 22//21
f 23//23 25//25 22//21
f 23//23 17//17 26//27
f 27//26 24//24 14//14
f 24//24 26//27 17//17
f 23//23 28//28 25//25
f 27//26 29//29 24//24
f 26//27 30//30 23//23
f 23//23 30//30 28//28
f 24//24 29//29 36//31
f 31//32 26//27 24//24
f 30//30 32//33 28//28
f 24//24 36//31 31//32
f 27//26 33//34 29//29
f 27//26 25//25 33//34
f 28//28 33//34 25//25
f 26//27 31//32 34//35
f 33//34 35//36 36//31
f 36//31 29//29 33//34
f 38//37 30//30 39//38
f 39//38 30//30 26//27
f 40//39 31//32 36//31
f 33//34 28//28 37//40
f 41//41 33//34 37//40
f 38//37 41//41 28//28
f 42//42 38//37 39//38
f 28//28 32//33 38//37
f 38//37 42//42 41//41
f 45//43 34//35 31//32
f 36//31 46//44 43//45
f 40//39 47//46 44//47
f 48//48 49//48 50//48
f 46//44 36//31 35//36
f 40//39 44//47 31//32
f 51//49 41//41 42//42
f 52//50 46//44 35//36
f 51//49 31//32 44//47
f 53//51 41//41 51//49
f 54//52 52//50 35//36
f 43//45 46//44 55//53
f 56//54 57//55 58//56
f 35//36 33//34 53//51
f 33//34 41//41 53//51
f 59//57 44//47 47//46
f 60//58 58//56 57//55
f 51//49 44//47 60//59
f 35//36 53//51 54//52
f 62//60 52//50 54//52
f 55//53 61//61 43//45
f 61//61 59//57 47//46
f 63//62 59//57 61//61
f 51//49 60//59 53//51
f 55//53 64//63 65//64
f 55//53 65//64 63//62
f 55//53 63//62 61//61
f 54//52 53//51 66//65
f 60//58 57//55 63//66
f 60//59 67//67 53//51
f 68//68 69//69 64//63
f 69//69 70//70 63//66
f 71//71 70//70 69//69
f 71//71 72//72 73//73
f 72//72 60//59 74//74
f 54//52 76//75 62//60
f 70//70 60//58 63//66
f 65//64 64//63 69//69
f 77//76 68//68 76//75
f 72//72 67//67 60//59
f 72//72 75//77 67//67
f 54//52 77//76 76//75
f 78//78 67//67 75//77
f 54//52 66//65 80//79
f 80//79 66//65 79//80
f 78//78 66//81 67//67
f 69//69 68//68 81//82
f 82//83 75//77 72//72
f 77//76 83//84 68//68
f 84//85 82//83 72//72
f 71//71 69//69 85//86
f 71//71 86//87 72//72
f 85//86 86//87 71//71
f 75//77 84//88 78//78
f 84//88 87//89 88//90
f 78//78 84//88 88//90
f 83//84 89//91 84//85
f 90//92 68//68 83//84
f 90//92 81//82 68//68
f 90//92 83//84 84//85
f 72//72 91//93 84//85
f 81//82 85//86 69//69
f 90//92 84//85 91//93
f 92//94 72//72 86//87
f 92//94 91//93 72//72
f 93//95 94//96 86//87
f 85//86 93//95 86//87
f 95//97 92//94 86//87
f 81//82 96//98 85//86
f 97//99 81//82 90//92
f 92//94 98//100 91//93
f 98//100 90//92 91//93
f 90//92 98//100 100//101
f 103//102 101//103 85//86
f 101//104 94//96 93//95
f 102//105 95//97 101//103
f 92//94 95//97 102//105
f 85//86 96//98 103//102
f 97//99 90//92 104//106
f 90//92 100//101 104//106
f 100//101 98//100 105//107
f 102//105 99//108 92//94
f 99//108 106//109 92//94
f 98//100 92//94 106//109
f 107//110 108//111 101//103
f 108//111 102//105 101//103
f 110//112 111//113 104//106
f 104//106 100//101 112//114
f 113//115 111//113 110//112
f 106//109 114//116 102//117
f 104//106 111//113 97//99
f 100//101 105//107 109//118
f 115//119 100//101 109//118
f 98//100 106//109 109//118
f 101//103 103//102 107//110
f 107//110 116//120 108//111
f 108//111 117//121 118//122
f 119//123 113//115 110//112
f 118//122 102//105 108//111
f 107//110 103//102 120//124
f 122//125 123//126 112//114
f 116//120 107//110 120//124
f 120//124 113//115 119//123
f 121//127 124//128 125//129
f 125//129 115//119 109//118
f 125//129 109//118 106//109
f 112//114 100//101 122//125
f 122//125 115//119 125//129
f 102//117 125//129 106//109
f 125//129 102//117 121//127
f 108//111 116//120 126//130
f 127//131 116//120 120//124
f 125//129 123//126 122//125
f 121//127 128//132 124//128
f 128//132 123//126 125//129
f 118//122 117//121 126//133
f 121//127 129//134 128//132
f 123//126 128//132 130//135
f 130//135 128//132 129//134
f 132//136 121//137 126//130
f 133//138 126//130 116//120
f 134//139 116//120 127//131
f 119//123 135//140 120//124
f 120//124 131//141 127//131
f 131//141 120//124 135//140
f 136//142 127//131 131//141
f 139//143 138//144 140//145
f 129//134 132//136 126//130
f 137//146 138//144 139//143
f 141//147 142//148 126//130
f 143//149 138//144 137//146
f 141//147 126//130 133//138
f 136//142 131//141 144//150
f 144//150 145//151 136//142
f 138//144 143//149 146//152
f 130//135 129//134 147//153
f 135//140 148//154 131//141
f 130//135 147//153 149//155
f 147//153 129//134 126//130
f 142//148 147//153 126//130
f 131//141 150//156 151//157
f 144//150 151//157 145//151
f 150//156 131//141 148//154
f 152//158 149//155 147//153
f 153//159 142//148 141//147
f 154//160 155//161 156//162
f 166//163 147//153 157//164
f 147//153 142//148 157//164
f 158//165 142//148 153//159
f 159//166 154//160 156//162
f 157//164 158//165 153//159
f 160//167 150//156 148//154
f 151//157 161//168 145//151
f 151//157 150//156 162//169
f 162//169 163//170 151//157
f 161//168 151//157 163//170
f 164//171 160//167 148//154
f 165//172 149//155 166//163
f 166//163 167//173 165//172
f 149//155 152//158 166//163
f 168//174 154//160 159//166
f 166//163 157//164 167//173
f 167//173 157//164 153//159
f 169//175 170//176 171//177
f 150//156 160//167 172//178
f 165//172 167//173 160//179
f 174//180 162//169 150//156
f 175//181 154//160 168//174
f 176//182 167//173 153//159
f 174//180 169//183 162//169
f 163//170 169//175 171//177
f 161//168 163//170 171//177
f 177//184 167//173 176//182
f 168//174 171//177 175//181
f 160//179 167//173 173//185
f 179//186 178//187 167//188
f 180//189 175//181 171//177
f 170//176 180//189 171//177
f 160//167 181//190 182//191
f 182//191 172//178 160//167
f 184//192 179//186 167//188
f 170//176 169//175 182//191
f 173//185 183//193 160//179
f 185//194 181//190 183//193
f 183//193 173//185 186//195
f 184//192 186//195 179//186
f 180//189 170//176 187//196
f 186//195 184//192 187//197
f 183//193 186//195 185//194
f 182//191 188//198 170//176
f 185//194 182//191 181//190
f 182//191 185//194 188//198
f 192//199 188//198 185//194
f 170//176 188//198 193//200
f 194//201 189//202 170//176
f 170//176 189//202 187//196
f 187//196 189//202 195//203
f 186//195 187//197 196//204
f 197//205 192//199 185//194
f 197//205 191//206 190//207
f 198//208 192//199 197//205
f 199//209 197//205 190//207
f 188//198 198//208 193//200
f 196//204 185//194 186//195
f 200//210 185//194 196//204
f 196//204 201//211 200//210
f 202//212 200//210 201//211
f 198//208 197//205 203//213
f 203//213 197//205 199//209
f 203//213 199//209 204//214
f 189//202 194//201 205//215
f 189//202 206//216 195//203
f 189//202 207//217 206//216
f 203//213 208//218 198//208
f 209//219 198//208 208//218
f 193//200 198//208 209//219
f 212//220 208//218 203//213
l 210 211
l 213 214
