# Blender v2.78 (sub 0) OBJ File: 'exporter.blend'
# www.blender.org
o FJ2687.obj_grp1.1386
v 0.026252 -0.549197 5.591243
v 0.018244 -0.547288 5.595214
v 0.018249 -0.549658 5.597255
v 0.021386 -0.551070 5.596548
v 0.026795 -0.546105 5.588998
v 0.019306 -0.545218 5.598789
v 0.020146 -0.548122 5.599842
v 0.020168 -0.548145 5.599915
v 0.027822 -0.549587 5.594350
v 0.028046 -0.549890 5.594439
v 0.032490 -0.543474 5.582754
v 0.038539 -0.540557 5.583274
v 0.038239 -0.541272 5.579114
v 0.038393 -0.545361 5.584960
v 0.027577 -0.544259 5.596107
v 0.053130 -0.548108 5.565105
v 0.032490 -0.543474 5.582754
v 0.036474 -0.547009 5.583271
v 0.036474 -0.547009 5.583271
v 0.038099 -0.545203 5.580900
v 0.042036 -0.545357 5.574585
v 0.036441 -0.548447 5.582901
v 0.042036 -0.545357 5.574585
v 0.045000 -0.545477 5.579329
v 0.047463 -0.543042 5.576862
v 0.044498 -0.545352 5.579702
v 0.044397 -0.541965 5.574437
v 0.047399 -0.542976 5.576932
v 0.048249 -0.548859 5.571628
v 0.055229 -0.554326 5.567755
v 0.042199 -0.546389 5.579420
v 0.053248 -0.549531 5.564822
v 0.062266 -0.552881 5.559874
v 0.048249 -0.548859 5.571628
v 0.052009 -0.544479 5.570548
v 0.057649 -0.548368 5.566774
v 0.050570 -0.549486 5.573524
v 0.054991 -0.553659 5.567818
v 0.065439 -0.554240 5.561339
v 0.065130 -0.555082 5.561073
v 0.068814 -0.553831 5.562122
v 0.063889 -0.554060 5.559093
v 0.066093 -0.550986 5.557826
v 0.069798 -0.560926 5.557528
v 0.067754 -0.551807 5.557081
v 0.063886 -0.554061 5.559093
v 0.065861 -0.549307 5.561510
v 0.066097 -0.549356 5.561159
v 0.069972 -0.552310 5.559157
v 0.074849 -0.564170 5.552821
v 0.072596 -0.562886 5.556511
v 0.073538 -0.563185 5.555563
v 0.075907 -0.562526 5.556594
v 0.072684 -0.559442 5.553001
v 0.073605 -0.557558 5.554399
v 0.073231 -0.557428 5.554616
v 0.072666 -0.559436 5.552990
v 0.073978 -0.557558 5.556464
v 0.072017 -0.559738 5.554577
v 0.077045 -0.561739 5.552889
v 0.073907 -0.558633 5.555436
v 0.074268 -0.560677 5.555685
v 0.074273 -0.557558 5.556140
v 0.073605 -0.557558 5.554399
v 0.071244 -0.559620 5.555605
v 0.074890 -0.559473 5.557935
v 0.081516 -0.547307 5.549983
v 0.079933 -0.549894 5.549855
v 0.083992 -0.547048 5.551071
v 0.084097 -0.544963 5.555151
v 0.081480 -0.547150 5.554586
v 0.079658 -0.543219 5.552002
v 0.076108 -0.558759 5.553167
v 0.083381 -0.545071 5.552972
v 0.079750 -0.543155 5.551877
v 0.082946 -0.541995 5.551722
v 0.083437 -0.542211 5.551592
v 0.088500 -0.556581 5.546040
v 0.087458 -0.555459 5.547967
v 0.088881 -0.556978 5.545701
v 0.089577 -0.557297 5.547158
v 0.084674 -0.547230 5.549892
v 0.087645 -0.554234 5.549516
v 0.084107 -0.546343 5.549972
v 0.087458 -0.555459 5.547967
v 0.085157 -0.545831 5.548014
v 0.084920 -0.546714 5.551906
v 0.089760 -0.554352 5.544737
v 0.088289 -0.556630 5.545783
v 0.085110 -0.545619 5.548066
v 0.090346 -0.551620 5.545034
v 0.090395 -0.551502 5.548049
v 0.091068 -0.554315 5.548704
v 0.091024 -0.551724 5.547565
v 0.090086 -0.552710 5.546268
v 0.084593 -0.546869 5.549817
v 0.085224 -0.544298 5.550818
v 0.085579 -0.542676 5.549140
v 0.082946 -0.541995 5.551722
v 0.084846 -0.542516 5.552567
v 0.088166 -0.543474 5.549892
v 0.084135 -0.546894 5.550265
v 0.083946 -0.546735 5.550828
v 0.086750 -0.544413 5.552803
v 0.086750 -0.544413 5.552803
v 0.088166 -0.543474 5.549892
v 0.084846 -0.542516 5.552567
v 0.086750 -0.544413 5.552803
v 0.092040 -0.554436 5.549623
v 0.088166 -0.543474 5.549892
v 0.086750 -0.544413 5.552803
v 0.091444 -0.551924 5.548155
v 0.091444 -0.551924 5.548155
v 0.090689 -0.550212 5.547856
v 0.097912 -0.548351 5.542300
v 0.096383 -0.545739 5.545498
v 0.097420 -0.546099 5.543435
v 0.099320 -0.546476 5.546629
v 0.097852 -0.550821 5.544352
v 0.100103 -0.548355 5.546554
v 0.091612 -0.551158 5.547060
v 0.095155 -0.547521 5.545290
v 0.098164 -0.548184 5.542600
v 0.099880 -0.549821 5.544241
v 0.109227 -0.553012 5.540297
v 0.099841 -0.549873 5.544258
v 0.100929 -0.545233 5.543283
v 0.101506 -0.545314 5.545128
v 0.100914 -0.545277 5.543319
v 0.115833 -0.567598 5.536603
v 0.114305 -0.563642 5.538719
v 0.110936 -0.555821 5.539516
v 0.116468 -0.567115 5.537240
v 0.111652 -0.554842 5.540781
v 0.114051 -0.551826 5.539952
v 0.112975 -0.553020 5.537430
v 0.111662 -0.554413 5.537464
v 0.115456 -0.565330 5.537152
v 0.111113 -0.549239 5.540453
v 0.114230 -0.554231 5.539636
v 0.115866 -0.557835 5.536641
v 0.117313 -0.564746 5.535713
v 0.116508 -0.564577 5.539460
v 0.122539 -0.570703 5.535808
v 0.126260 -0.575135 5.534657
v 0.122993 -0.567675 5.537282
v 0.122429 -0.567886 5.538014
v 0.120065 -0.566414 5.538274
v 0.116070 -0.564299 5.540248
v 0.117915 -0.562849 5.537140
v 0.117937 -0.565340 5.535905
v 0.115856 -0.563192 5.535854
v 0.128526 -0.579545 5.534299
v 0.130314 -0.579096 5.532632
v 0.128607 -0.581355 5.532915
v 0.125199 -0.568869 5.534205
v 0.124445 -0.571900 5.536653
v 0.129460 -0.579191 5.535902
v 0.129353 -0.576659 5.537976
v 0.122490 -0.568784 5.539017
v 0.129460 -0.579191 5.535902
v 0.127780 -0.572925 5.537492
v 0.123368 -0.566468 5.535808
v 0.124537 -0.569638 5.534460
v 0.126498 -0.569977 5.535769
v 0.132017 -0.579014 5.533974
v 0.130027 -0.577021 5.534282
v 0.133613 -0.583458 5.532823
v 0.129940 -0.581317 5.533930
v 0.143024 -0.589574 5.533696
v 0.129940 -0.581317 5.533930
v 0.143104 -0.590184 5.533334
v 0.143065 -0.589490 5.532084
v 0.143873 -0.588359 5.532569
v 0.143944 -0.588655 5.533605
v 0.144518 -0.587332 5.533771
v 0.143101 -0.588543 5.534869
v 0.143923 -0.589523 5.534023
v 0.144400 -0.588439 5.533050
v 0.130879 -0.578388 5.535808
v 0.142266 -0.588158 5.533304
v 0.144122 -0.589494 5.533928
v 0.143286 -0.588992 5.532779
vn -0.9473 -0.3188 -0.0307
vn -0.8598 0.1617 -0.4844
vn -0.2027 -0.8368 -0.5087
vn -0.5416 0.6582 0.5229
vn -0.6931 0.1957 -0.6937
vn -0.9070 -0.1120 0.4060
vn 0.1762 -0.6954 0.6967
vn -0.0246 -0.3006 0.9534
vn -0.1836 -0.7820 0.5957
vn 0.0132 -0.9911 -0.1323
vn 0.5934 -0.2560 0.7631
vn 0.1124 0.9613 0.2516
vn -0.4160 0.7639 -0.4933
vn -0.4150 0.9091 -0.0371
vn 0.3979 0.5043 0.7664
vn 0.3352 -0.9215 0.1963
vn 0.0430 0.8660 -0.4982
vn -0.5221 -0.5670 -0.6371
vn 0.0821 -0.9830 -0.1644
vn -0.4900 -0.6362 -0.5959
vn 0.1218 -0.9910 0.0557
vn -0.5467 -0.6842 -0.4826
vn 0.5202 -0.4587 0.7204
vn 0.6777 0.5731 0.4607
vn 0.6597 -0.0467 0.7501
vn 0.2793 0.9601 0.0172
vn 0.5912 0.4821 0.6466
vn -0.6608 -0.6677 -0.3427
vn 0.1958 -0.7265 0.6586
vn -0.4816 -0.8707 0.0992
vn -0.4911 -0.7784 -0.3909
vn -0.4762 -0.5308 -0.7011
vn -0.5863 -0.7390 -0.3318
vn -0.0213 0.8427 -0.5379
vn -0.5282 -0.5455 -0.6507
vn -0.1375 0.8588 -0.4935
vn -0.5048 -0.5057 -0.6996
vn 0.3851 -0.4214 0.8211
vn -0.5908 -0.5230 -0.6143
vn -0.3925 -0.9171 -0.0703
vn -0.1623 -0.8922 0.4215
vn 0.6147 -0.2061 0.7614
vn -0.5983 -0.2588 -0.7584
vn -0.4855 -0.0103 -0.8742
vn 0.0424 -0.9204 -0.3887
vn -0.1945 0.8664 -0.4599
vn -0.4500 -0.8509 0.2712
vn 0.3939 0.8950 0.2095
vn -0.7022 -0.7028 0.1139
vn -0.2459 0.8574 -0.4521
vn 0.8202 0.5721 -0.0060
vn 0.5060 0.7581 -0.4114
vn -0.5741 -0.8187 0.0115
vn 0.1152 -0.8815 0.4579
vn 0.5015 -0.7402 0.4479
vn 0.7105 -0.5722 -0.4096
vn -0.7223 -0.1091 -0.6829
vn 0.3911 0.4576 -0.7985
vn 0.3343 0.4969 -0.8008
vn 0.9186 -0.0521 0.3917
vn 0.4630 -0.1946 0.8647
vn 0.1362 -0.2638 -0.9549
vn 0.1042 -0.2951 -0.9498
vn -0.5862 0.2215 -0.7793
vn 0.7304 -0.5722 0.3730
vn 0.7087 -0.6195 0.3375
vn 0.6289 -0.1270 0.7670
vn -0.1254 0.1935 0.9730
vn -0.0990 0.0451 0.9941
vn -0.0675 0.2937 0.9535
vn 0.4454 0.5146 -0.7327
vn -0.3635 0.3676 -0.8560
vn 0.5669 -0.5727 0.5922
vn -0.8747 0.4839 0.0279
vn -0.7703 -0.6343 0.0647
vn -0.7942 -0.5939 -0.1287
vn 0.2388 -0.9469 0.2152
vn -0.9191 -0.2645 -0.2919
vn 0.0729 -0.3466 0.9352
vn -0.6040 -0.7559 0.2524
vn -0.8234 -0.3920 0.4104
vn -0.8985 -0.2092 -0.3858
vn -0.1871 -0.7731 0.6061
vn -0.4085 -0.1594 -0.8987
vn -0.3153 -0.2113 -0.9252
vn 0.1437 0.4008 -0.9048
vn 0.7249 0.6826 -0.0925
vn 0.1589 -0.5512 -0.8191
vn 0.2642 -0.5398 0.7993
vn 0.0904 -0.8164 -0.5704
vn 0.2060 0.7743 -0.5983
vn -0.1528 0.2489 -0.9564
vn 0.2754 0.9612 0.0151
vn 0.2605 0.9654 0.0116
vn 0.2753 0.9612 0.0151
vn 0.2901 0.9568 0.0184
vn -0.0557 0.4333 0.8995
vn 0.4186 -0.8405 -0.3439
vn 0.3295 -0.5682 0.7540
vn -0.0419 0.4414 0.8963
vn 0.5806 0.6490 0.4916
vn 0.4271 0.4762 0.7687
vn 0.7983 0.2738 0.5365
vn 0.8249 0.2795 0.4914
vn 0.5247 0.5484 0.6511
vn 0.4644 -0.4220 -0.7786
vn 0.2306 0.2622 0.9371
vn 0.0972 0.3213 0.9420
vn -0.1239 0.5792 0.8057
vn 0.2040 0.4874 0.8490
vn 0.2784 -0.6622 -0.6957
vn -0.6550 0.6293 -0.4182
vn -0.6493 0.7185 -0.2493
vn -0.4208 0.8190 -0.3900
vn 0.0486 -0.9939 -0.0994
vn -0.7118 0.6263 -0.3180
vn 0.0335 0.1019 -0.9942
vn 0.2766 0.8072 0.5215
vn -0.5430 -0.8297 -0.1297
vn -0.4091 -0.0655 -0.9102
vn 0.3917 -0.2517 0.8850
vn 0.3249 -0.5634 -0.7596
vn -0.0323 -0.2974 0.9542
vn -0.0822 0.8201 -0.5663
vn -0.6072 0.7740 0.1798
vn -0.9091 -0.3950 0.1323
vn -0.9198 -0.3747 0.1167
vn -0.9110 -0.4019 0.0925
vn -0.3848 -0.5993 0.7020
vn -0.6574 -0.4027 -0.6369
vn 0.3972 0.4951 -0.7728
vn 0.8812 0.4681 -0.0665
vn 0.8994 0.4350 -0.0434
vn 0.3752 0.0474 0.9257
vn 0.4811 0.8740 -0.0677
vn -0.5367 -0.5269 0.6590
vn -0.2202 -0.6489 0.7283
vn -0.1419 0.0449 -0.9889
vn -0.7476 -0.6588 -0.0840
vn -0.2715 -0.4385 0.8567
vn -0.1533 -0.6131 0.7750
vn 0.4766 0.1098 0.8722
vn 0.4134 0.1387 0.8999
vn 0.7909 0.4186 -0.4465
vn 0.2364 0.1627 -0.9579
vn 0.2219 0.2619 -0.9393
vn 0.7456 0.6159 0.2545
vn -0.2153 -0.0034 -0.9765
vn 0.2116 0.2171 -0.9529
vn -0.6265 -0.5431 0.5590
vn -0.9023 -0.3279 -0.2797
vn -0.5060 -0.5465 0.6674
vn -0.5143 -0.5711 0.6398
vn -0.4324 -0.6080 0.6658
vn 0.1892 0.6314 -0.7520
vn 0.0222 0.2504 -0.9679
vn 0.4291 0.7906 -0.4368
vn 0.7241 0.6824 -0.1003
vn 0.5335 0.4855 -0.6926
vn 0.8152 0.5655 0.1253
vn -0.4952 -0.5280 -0.6899
vn -0.5300 -0.8355 -0.1451
vn -0.5659 -0.8234 -0.0428
vn -0.5611 -0.6250 0.5427
vn -0.0029 -0.3060 0.9520
vn -0.3483 -0.4445 -0.8253
vn 0.6396 0.6195 -0.4551
vn 0.1686 0.3127 -0.9348
vn 0.2211 0.3170 -0.9223
vn 0.0303 -0.2114 0.9769
vn 0.2946 0.3404 -0.8929
vn -0.3630 -0.6057 0.7080
vn 0.4608 0.4780 0.7478
vn 0.4948 0.4485 0.7444
vn 0.4892 0.4534 0.7451
s 1
f 3//1 2//2 1//3
f 2//2 6//4 5//5
f 1//3 2//2 5//5
f 3//1 6//4 2//2
f 6//4 3//1 7//6
f 4//7 8//8 3//9
f 8//8 6//4 7//6
f 1//3 9//10 3//1
f 4//7 10//11 8//8
f 5//5 6//4 12//12
f 12//12 13//13 5//5
f 5//5 13//13 11//14
f 8//8 15//15 6//4
f 15//15 12//12 6//4
f 10//11 15//15 8//8
f 10//11 14//16 15//15
f 16//17 11//14 13//13
f 5//5 17//18 1//3
f 9//10 1//3 18//19
f 1//3 17//18 19//20
f 20//21 14//16 10//11
f 21//22 19//20 17//18
f 20//21 24//23 14//16
f 24//23 25//24 26//25
f 14//16 26//25 15//15
f 26//25 25//24 15//15
f 25//24 27//26 12//12
f 27//26 13//13 12//12
f 15//15 28//27 12//12
f 29//28 30//29 31//30
f 32//31 33//32 34//33
f 35//34 16//17 13//13
f 34//33 23//35 32//31
f 36//36 16//17 35//34
f 25//24 36//36 27//26
f 23//35 34//33 22//37
f 37//38 24//23 20//21
f 34//33 33//32 38//39
f 31//30 30//29 37//38
f 37//38 25//24 24//23
f 39//40 38//39 33//32
f 40//41 41//42 30//29
f 25//24 37//38 41//42
f 42//43 43//44 50//45
f 36//36 45//46 16//17
f 39//40 33//32 46//47
f 42//43 33//32 43//44
f 33//32 32//31 43//44
f 25//24 41//42 47//48
f 44//49 41//42 40//41
f 48//50 45//46 36//36
f 47//48 48//50 36//36
f 49//51 47//48 41//42
f 47//48 49//51 45//52
f 37//38 30//29 41//42
f 47//48 36//36 25//24
f 44//49 40//41 50//45
f 40//41 42//43 50//45
f 51//53 44//49 50//45
f 52//54 51//53 50//45
f 53//55 52//54 60//56
f 53//55 44//49 52//54
f 41//42 44//49 53//55
f 54//57 50//45 43//44
f 58//58 59//59 45//52
f 41//42 65//60 49//51
f 53//55 66//61 41//42
f 49//51 58//58 45//52
f 50//45 60//56 52//54
f 67//62 60//56 50//45
f 60//56 67//62 102//63
f 50//45 54//57 68//64
f 70//65 60//56 69//66
f 53//55 60//56 70//65
f 53//55 71//67 66//61
f 72//68 73//69 74//70
f 90//71 68//64 75//72
f 90//71 67//73 68//64
f 55//74 75//72 54//57
f 75//72 68//64 54//57
f 79//75 78//76 81//77
f 78//76 79//75 82//78
f 83//79 84//80 85//81
f 82//78 86//82 78//76
f 84//80 83//79 87//83
f 79//75 81//77 83//79
f 89//84 90//71 88//85
f 81//77 87//83 83//79
f 90//71 91//86 88//85
f 90//71 92//87 91//86
f 80//88 89//84 88//85
f 93//89 87//83 81//77
f 67//73 90//71 96//90
f 75//72 97//91 90//71
f 97//91 75//72 76//92
f 98//93 99//94 100//95
f 100//95 101//96 98//93
f 90//71 97//91 92//87
f 69//66 87//83 70//65
f 77//97 72//68 74//70
f 84//80 87//83 103//98
f 104//99 70//65 87//83
f 105//100 77//97 74//70
f 87//83 93//89 104//99
f 106//101 107//101 108//101
f 109//102 110//103 111//104
f 112//105 110//103 109//102
f 81//77 80//88 115//106
f 115//106 80//88 88//85
f 114//107 113//108 116//109
f 112//105 109//102 118//110
f 116//109 113//108 118//110
f 115//106 119//111 81//77
f 88//112 121//113 117//114
f 119//111 124//115 81//77
f 124//115 93//89 81//77
f 117//114 121//113 122//116
f 123//117 88//112 117//114
f 117//114 122//116 128//118
f 124//115 123//117 125//119
f 137//120 125//119 123//117
f 124//115 120//121 93//89
f 119//111 115//106 126//122
f 115//106 123//117 124//115
f 124//115 126//122 115//106
f 125//119 134//123 124//115
f 137//120 123//117 117//114
f 128//118 127//124 129//125
f 120//121 118//110 109//102
f 128//118 129//125 117//114
f 116//109 118//110 128//118
f 134//123 120//121 124//115
f 130//126 131//127 132//128
f 133//129 134//123 125//119
f 137//120 138//130 125//119
f 136//131 140//132 141//133
f 118//110 134//123 135//134
f 136//131 137//120 117//114
f 136//131 117//114 127//124
f 128//118 136//131 127//124
f 139//135 136//131 128//118
f 139//135 140//132 136//131
f 128//118 135//134 139//135
f 134//123 118//110 120//121
f 135//134 128//118 118//110
f 143//136 133//129 144//137
f 142//138 145//139 138//130
f 138//130 145//139 146//140
f 147//141 143//136 144//137
f 137//120 142//138 138//130
f 133//129 143//136 134//123
f 149//142 135//134 134//123
f 135//134 149//142 148//143
f 142//138 141//133 150//144
f 152//145 137//120 136//131
f 136//131 151//146 152//145
f 140//132 150//144 141//133
f 148//147 150//144 140//132
f 155//148 145//139 154//149
f 158//150 157//151 145//139
f 159//152 160//153 161//154
f 163//155 142//138 150//144
f 156//156 154//149 142//138
f 142//138 154//149 145//139
f 156//156 142//138 163//155
f 164//157 165//158 166//159
f 148//147 164//157 150//144
f 146//140 145//139 157//151
f 162//160 165//158 148//147
f 164//157 148//147 165//158
f 168//161 155//148 154//149
f 169//162 168//161 170//163
f 171//164 172//165 158//150
f 173//166 168//161 154//149
f 171//164 158//150 145//139
f 167//167 154//149 156//156
f 165//158 162//160 167//167
f 168//161 173//166 170//163
f 154//149 174//168 173//166
f 167//167 183//169 154//149
f 175//170 158//150 172//165
f 176//171 183//169 167//167
f 176//171 167//167 162//160
f 159//152 161//154 177//172
f 178//173 179//174 180//175
l 63 64
l 181 182
l 94 95
l 61 62
l 145 153
l 56 57
