# Blender v2.78 (sub 0) OBJ File: 'exporter.blend'
# www.blender.org
o FJ2627.obj_grp1.1328
v 0.163311 -0.809968 4.520894
v 0.150210 -0.798062 4.478400
v 0.195246 -0.827950 4.504070
v 0.165948 -0.800131 4.458241
v 0.141209 -0.761807 4.490300
v 0.197223 -0.782821 4.570471
v 0.229115 -0.813697 4.564991
v 0.156553 -0.759941 4.452626
v 0.182411 -0.743061 4.446521
v 0.175546 -0.698101 4.509927
v 0.147214 -0.732392 4.517347
v 0.162548 -0.718281 4.534801
v 0.220018 -0.808836 4.477948
v 0.248484 -0.806082 4.524758
v 0.195748 -0.780558 4.446805
v 0.254422 -0.761625 4.592914
v 0.233436 -0.725776 4.581128
v 0.206105 -0.712891 4.476935
v 0.170606 -0.701277 4.526983
v 0.299906 -0.789015 4.549706
v 0.248654 -0.770779 4.490940
v 0.232685 -0.740316 4.479930
v 0.281487 -0.783176 4.579312
v 0.222351 -0.710163 4.496242
v 0.294731 -0.744097 4.506783
v 0.268875 -0.703880 4.518708
v 0.259777 -0.696974 4.544129
v 0.304770 -0.767746 4.563455
v 0.311513 -0.754254 4.527833
v 0.300837 -0.712840 4.536207
v 0.296858 -0.716325 4.533979
v 0.298961 -0.717700 4.535078
vn -0.6937 -0.6096 0.3835
vn -0.8136 -0.5331 -0.2322
vn -0.0396 -0.9960 -0.0800
vn -0.3430 -0.6257 -0.7006
vn -0.9966 0.0670 -0.0484
vn -0.9362 0.2922 0.1956
vn -0.5116 -0.2464 0.8231
vn 0.0321 -0.8438 0.5357
vn -0.6675 0.1756 -0.7236
vn -0.0467 0.4330 -0.9002
vn -0.3899 0.8996 -0.1966
vn -0.5321 0.7842 0.3191
vn -0.6959 0.3297 0.6380
vn 0.5168 -0.7913 -0.3268
vn 0.2641 -0.1902 -0.9456
vn 0.4985 -0.6555 -0.5673
vn 0.1231 0.0596 0.9906
vn -0.0910 0.4905 0.8667
vn 0.2430 0.7525 -0.6122
vn 0.7378 -0.6745 -0.0268
vn 0.6145 -0.3052 -0.7275
vn 0.5310 0.2678 -0.8040
vn 0.3102 0.7741 -0.5518
vn 0.4570 -0.4050 0.7919
vn 0.2119 0.9219 0.3243
vn 0.8270 -0.0030 0.5623
vn 0.6111 0.0274 -0.7911
vn 0.9442 -0.0986 -0.3141
vn 0.7661 0.3769 0.5206
vn 0.3199 0.7926 -0.5190
vn 0.4429 0.8926 -0.0840
vn 0.8796 0.1842 -0.4385
s 1
f 1//1 2//2 3//3
f 4//4 3//3 2//2
f 2//2 1//1 5//5
f 1//1 11//6 5//5
f 6//7 11//6 1//1
f 3//3 7//8 1//1
f 2//2 8//9 4//4
f 2//2 5//5 8//9
f 9//10 8//9 10//11
f 5//5 11//6 8//9
f 10//11 8//9 11//6
f 10//11 11//6 19//12
f 6//7 12//13 11//6
f 11//6 12//13 19//12
f 3//3 14//14 7//8
f 4//4 15//15 13//16
f 13//16 3//3 4//4
f 1//1 7//8 6//7
f 7//8 16//17 6//7
f 4//4 8//9 15//15
f 15//15 8//9 9//10
f 16//17 17//18 6//7
f 12//13 6//7 17//18
f 10//11 18//19 9//10
f 3//3 13//16 14//14
f 14//14 20//20 7//8
f 21//21 13//16 15//15
f 14//14 13//16 21//21
f 22//22 15//15 9//10
f 15//15 22//22 21//21
f 9//10 18//19 22//22
f 24//23 22//22 18//19
f 18//19 10//11 24//23
f 17//18 19//12 12//13
f 20//20 23//24 7//8
f 23//24 16//17 7//8
f 19//12 17//18 27//25
f 27//25 10//11 19//12
f 28//26 23//24 20//20
f 21//21 20//20 14//14
f 20//20 21//21 25//27
f 20//20 25//27 29//28
f 28//26 16//17 23//24
f 22//22 25//27 21//21
f 16//17 28//26 30//29
f 24//23 26//30 25//27
f 24//23 25//27 22//22
f 30//29 17//18 16//17
f 26//30 24//23 10//11
f 31//31 26//30 27//25
f 26//30 10//11 27//25
f 30//29 27//25 17//18
f 29//28 28//26 20//20
f 32//32 28//26 29//28
f 30//29 28//26 32//32
f 29//28 25//27 32//32
f 26//30 32//32 25//27
