# Blender v2.78 (sub 0) OBJ File: 'exporter.blend'
# www.blender.org
o FJ2628.obj_grp1.1329
v 0.195117 -0.749549 4.472695
v 0.214741 -0.790176 4.462232
v 0.247013 -0.791412 4.559133
v 0.231663 -0.775268 4.525549
v 0.218345 -0.763741 4.420911
v 0.214856 -0.744463 4.560174
v 0.237553 -0.767524 4.582493
v 0.220987 -0.743895 4.525678
v 0.216618 -0.709715 4.455654
v 0.268294 -0.805642 4.467947
v 0.249914 -0.794069 4.423482
v 0.267908 -0.792426 4.524436
v 0.284391 -0.782863 4.577040
v 0.259141 -0.759410 4.589392
v 0.261821 -0.781360 4.582235
v 0.223167 -0.734649 4.412195
v 0.283755 -0.667236 4.427547
v 0.228534 -0.712477 4.522173
v 0.233985 -0.712032 4.573732
v 0.338861 -0.769661 4.430573
v 0.296018 -0.794088 4.555927
v 0.302074 -0.698242 4.543777
v 0.293826 -0.680266 4.493472
v 0.302685 -0.697135 4.543977
v 0.340319 -0.747260 4.498394
v 0.328684 -0.766182 4.548279
v 0.338643 -0.731260 4.533163
v 0.346323 -0.734579 4.411831
v 0.322252 -0.671557 4.415080
v 0.370034 -0.734382 4.459132
v 0.331907 -0.768699 4.532270
v 0.328684 -0.766182 4.548279
v 0.300669 -0.660037 4.459044
v 0.365124 -0.716950 4.481695
v 0.333270 -0.705415 4.503654
v 0.325965 -0.659051 4.462813
v 0.325954 -0.659108 4.462081
v 0.372716 -0.729597 4.455640
v 0.372307 -0.711264 4.451498
v 0.353463 -0.677036 4.456326
vn -0.6471 -0.7616 -0.0343
vn -0.7110 -0.6847 0.1600
vn -0.9968 0.0662 0.0455
vn -0.6370 -0.3257 -0.6986
vn -0.3559 -0.9067 0.2262
vn -0.9639 -0.0215 0.2655
vn -0.5170 -0.3747 0.7696
vn -0.5406 0.1944 -0.8185
vn -0.1118 -0.7095 -0.6958
vn 0.1253 -0.9914 0.0391
vn -0.3068 -0.9485 0.0791
vn 0.3021 -0.4335 0.8490
vn 0.3231 -0.9019 0.2866
vn 0.0713 -0.2914 0.9539
vn 0.1094 0.0716 0.9914
vn -0.9950 -0.0309 0.0945
vn -0.6641 0.7311 0.1565
vn -0.4444 0.6250 0.6418
vn -0.7580 0.6514 0.0334
vn -0.3304 0.8281 -0.4529
vn 0.5799 -0.7330 -0.3555
vn 0.2761 0.0716 0.9585
vn -0.0627 0.9243 0.3764
vn 0.2940 0.7065 0.6437
vn 0.6499 -0.2417 0.7205
vn 0.5390 -0.1087 -0.8353
vn 0.2743 0.6192 -0.7357
vn 0.9059 -0.4173 0.0726
vn 0.8766 -0.4503 0.1694
vn 0.7992 -0.6008 -0.0182
vn 0.9064 0.1669 0.3881
vn 0.9589 -0.1778 0.2210
vn -0.2263 0.9526 0.2035
vn 0.8042 0.0081 0.5943
vn 0.6466 0.5793 0.4963
vn 0.4100 0.7985 0.4409
vn 0.3880 0.9031 -0.1840
vn 0.9460 -0.0799 0.3143
vn 0.9696 0.2037 -0.1356
vn 0.7204 0.6926 0.0373
s 1
f 2//1 4//2 1//3
f 1//3 5//4 2//1
f 3//5 6//6 4//2
f 3//5 7//7 6//6
f 16//8 11//9 5//4
f 5//4 11//9 2//1
f 11//9 10//10 2//1
f 10//10 4//2 2//1
f 12//11 3//5 4//2
f 10//10 12//11 4//2
f 3//5 13//12 7//7
f 21//13 13//12 3//5
f 15//14 14//15 7//7
f 4//2 6//6 8//16
f 1//3 4//2 8//16
f 1//3 16//8 5//4
f 18//17 1//3 8//16
f 18//17 8//16 6//6
f 19//18 6//6 7//7
f 18//17 6//6 19//18
f 14//15 19//18 7//7
f 16//8 1//3 9//19
f 17//20 16//8 9//19
f 1//3 18//17 9//19
f 10//10 11//9 20//21
f 21//13 12//11 10//10
f 21//13 3//5 12//11
f 13//12 14//15 15//14
f 22//22 19//18 14//15
f 9//19 18//17 23//23
f 18//17 19//18 23//23
f 24//24 23//23 19//18
f 21//13 26//25 13//12
f 16//8 28//26 11//9
f 29//27 16//8 17//20
f 20//21 30//28 10//10
f 10//10 25//29 31//30
f 10//10 31//30 21//13
f 25//29 10//10 30//28
f 31//30 26//25 21//13
f 27//31 32//32 31//30
f 27//31 14//15 13//12
f 26//25 27//31 13//12
f 29//27 28//26 16//8
f 27//31 24//24 22//22
f 14//15 27//31 22//22
f 9//19 23//23 33//33
f 17//20 9//19 33//33
f 28//26 20//21 11//9
f 25//29 30//28 34//34
f 25//29 27//31 31//30
f 25//29 35//35 27//31
f 34//34 35//35 25//29
f 36//36 23//23 35//35
f 23//23 24//24 35//35
f 27//31 35//35 24//24
f 37//37 17//20 33//33
f 29//27 17//20 37//37
f 36//36 33//33 23//23
f 20//21 28//26 30//28
f 34//34 30//28 38//38
f 28//26 39//39 30//28
f 34//34 38//38 39//39
f 29//27 39//39 28//26
f 39//39 40//40 34//34
f 37//37 36//36 40//40
f 34//34 36//36 35//35
f 34//34 40//40 36//36
f 37//37 40//40 29//27
f 39//39 29//27 40//40
