# Blender v2.78 (sub 0) OBJ File: 'exporter.blend'
# www.blender.org
o FJ2603.obj_grp1.1304
v 0.070290 -0.787767 4.221301
v 0.080443 -0.809460 4.242593
v 0.070117 -0.772453 4.234296
v 0.093579 -0.780819 4.269884
v 0.075367 -0.752984 4.231230
v 0.091655 -0.751832 4.260406
v 0.087982 -0.815289 4.209302
v 0.095700 -0.806412 4.199790
v 0.111375 -0.832180 4.236275
v 0.112258 -0.809105 4.265944
v 0.082162 -0.778549 4.203774
v 0.115780 -0.774704 4.194503
v 0.092155 -0.747728 4.214285
v 0.142890 -0.741463 4.254659
v 0.111218 -0.728508 4.232134
v 0.150266 -0.735916 4.219674
v 0.111218 -0.728508 4.232134
v 0.111218 -0.728508 4.232134
v 0.138189 -0.816298 4.203945
v 0.157486 -0.824672 4.253166
v 0.144542 -0.813568 4.266684
v 0.136503 -0.786685 4.270221
v 0.171218 -0.724477 4.247678
v 0.147861 -0.729048 4.242063
v 0.164580 -0.817878 4.216275
v 0.183485 -0.776956 4.211163
v 0.195201 -0.819781 4.299287
v 0.189020 -0.803272 4.308375
v 0.231677 -0.733250 4.240531
v 0.147861 -0.729048 4.242063
v 0.172142 -0.722935 4.248072
v 0.212932 -0.816750 4.279317
v 0.244682 -0.776654 4.307706
v 0.210762 -0.730203 4.304451
v 0.241210 -0.701215 4.260933
v 0.226480 -0.702780 4.283394
v 0.222626 -0.791290 4.248733
v 0.232659 -0.758704 4.237782
v 0.255133 -0.800989 4.276638
v 0.233417 -0.806875 4.300760
v 0.238657 -0.722706 4.301933
v 0.272002 -0.781802 4.287462
v 0.275671 -0.765033 4.250476
v 0.257672 -0.711152 4.247778
v 0.260622 -0.702668 4.282402
v 0.260964 -0.697974 4.270911
v 0.286139 -0.741073 4.261013
v 0.267587 -0.734952 4.241156
v 0.276629 -0.725608 4.279945
v 0.279355 -0.715993 4.263234
vn -0.7441 -0.5758 0.3387
vn -0.9770 0.0684 0.2020
vn -0.9560 -0.1429 -0.2562
vn -0.4257 0.0192 0.9047
vn -0.8221 0.5629 -0.0848
vn -0.4628 0.4713 0.7508
vn -0.5761 -0.6517 -0.4933
vn -0.1957 -0.9737 0.1164
vn -0.2119 -0.4929 0.8439
vn -0.6048 0.1352 -0.7848
vn -0.3029 -0.3287 -0.8945
vn -0.0046 0.2134 -0.9769
vn -0.4130 0.6150 -0.6717
vn -0.2587 0.5464 0.7966
vn -0.5357 0.7952 -0.2841
vn 0.0195 0.7048 -0.7091
vn -0.0102 0.8501 -0.5265
vn -0.3417 0.8202 0.4589
vn 0.1638 -0.5757 -0.8011
vn -0.2916 -0.6174 0.7306
vn 0.0799 -0.9825 0.1681
vn -0.2402 0.0648 0.9686
vn -0.2131 0.9553 -0.2051
vn -0.1003 0.7630 0.6386
vn 0.3455 -0.7623 -0.5473
vn 0.3917 -0.0396 -0.9192
vn -0.0249 -0.8387 0.5441
vn -0.3024 -0.1373 0.9432
vn 0.1659 0.3433 -0.9244
vn -0.4637 0.8281 0.3151
vn -0.3040 0.7637 0.5695
vn 0.3575 -0.0939 0.9292
vn -0.2668 0.4329 0.8611
vn -0.0853 0.8951 -0.4377
vn -0.1942 0.9063 0.3753
vn 0.2792 -0.9413 -0.1896
vn 0.4485 -0.5917 -0.6699
vn 0.3414 -0.1379 -0.9297
vn 0.3684 -0.6966 0.6157
vn 0.5610 -0.8079 -0.1804
vn 0.8337 -0.3781 0.4025
vn 0.6768 -0.3844 -0.6278
vn 0.2012 0.3962 0.8958
vn 0.1847 0.6212 -0.7616
vn 0.4105 0.6695 0.6191
vn 0.3554 0.9346 -0.0130
vn 0.9879 0.0411 -0.1497
vn 0.4294 0.1478 -0.8910
vn 0.7713 0.2321 0.5927
vn 0.8364 0.5239 -0.1614
s 1
f 2//1 3//2 1//3
f 2//1 4//4 3//2
f 3//2 5//5 1//3
f 3//2 4//4 6//6
f 6//6 5//5 3//2
f 7//7 2//1 1//3
f 2//1 7//7 9//8
f 9//8 10//9 2//1
f 7//7 1//3 11//10
f 7//7 11//10 8//11
f 8//11 11//10 12//12
f 2//1 10//9 4//4
f 5//5 11//10 1//3
f 13//13 11//10 5//5
f 12//12 11//10 13//13
f 14//14 6//6 4//4
f 5//5 15//15 13//13
f 13//13 16//16 12//12
f 16//16 13//13 17//17
f 18//18 5//5 6//6
f 19//19 7//7 8//11
f 19//19 9//8 7//7
f 21//20 10//9 9//8
f 21//20 9//8 20//21
f 10//9 21//20 4//4
f 21//20 22//22 4//4
f 22//22 14//14 4//4
f 16//16 17//17 23//23
f 24//24 18//18 6//6
f 8//11 12//12 19//19
f 25//25 19//19 26//26
f 19//19 25//25 9//8
f 9//8 25//25 20//21
f 27//27 21//20 20//21
f 26//26 19//19 12//12
f 22//22 21//20 28//28
f 27//27 28//28 21//20
f 22//22 28//28 14//14
f 12//12 16//16 29//29
f 14//14 24//24 6//6
f 14//14 31//30 30//31
f 20//21 25//25 27//27
f 33//32 34//33 28//28
f 16//16 35//34 29//29
f 29//29 26//26 12//12
f 35//34 16//16 23//23
f 35//34 23//23 36//35
f 31//30 14//14 36//35
f 14//14 28//28 34//33
f 25//25 32//36 27//27
f 25//25 37//37 32//36
f 25//25 38//38 37//37
f 27//27 40//39 28//28
f 27//27 32//36 40//39
f 28//28 40//39 33//32
f 26//26 38//38 25//25
f 29//29 38//38 26//26
f 36//35 14//14 34//33
f 37//37 39//40 32//36
f 39//40 40//39 32//36
f 42//41 33//32 40//39
f 38//38 43//42 37//37
f 33//32 41//43 34//33
f 29//29 35//34 44//44
f 41//43 36//35 34//33
f 41//43 45//45 36//35
f 46//46 44//44 35//34
f 46//46 35//34 36//35
f 46//46 36//35 45//45
f 39//40 42//41 40//39
f 37//37 43//42 39//40
f 42//41 39//40 43//42
f 47//47 42//41 43//42
f 48//48 38//38 29//29
f 43//42 38//38 48//48
f 43//42 48//48 47//47
f 49//49 42//41 47//47
f 49//49 41//43 33//32
f 42//41 49//49 33//32
f 44//44 48//48 29//29
f 50//50 44//44 46//46
f 44//44 50//50 48//48
f 48//48 50//50 47//47
f 41//43 49//49 45//45
f 50//50 46//46 45//45
f 49//49 50//50 45//45
f 47//47 50//50 49//49
