# Blender v2.78 (sub 0) OBJ File: 'exporter.blend'
# www.blender.org
o FJ2604.obj_grp1.1305
v 0.191435 -0.773708 4.172873
v 0.196578 -0.787871 4.207512
v 0.187782 -0.750186 4.172610
v 0.195021 -0.758295 4.242470
v 0.176167 -0.751155 4.187114
v 0.207821 -0.758189 4.298625
v 0.190927 -0.754074 4.271170
v 0.209156 -0.759301 4.158012
v 0.193573 -0.741803 4.170743
v 0.206819 -0.722662 4.242622
v 0.201900 -0.716555 4.288777
v 0.191435 -0.773708 4.172873
v 0.189579 -0.790475 4.190482
v 0.205988 -0.788266 4.222468
v 0.254631 -0.791642 4.224694
v 0.221802 -0.787217 4.242362
v 0.228208 -0.796861 4.282657
v 0.205549 -0.751817 4.298234
v 0.251282 -0.785928 4.305611
v 0.236126 -0.740671 4.309307
v 0.220266 -0.740819 4.160039
v 0.217770 -0.723644 4.173175
v 0.232283 -0.706651 4.293819
v 0.254269 -0.694673 4.231688
v 0.221639 -0.700340 4.276024
v 0.285317 -0.799411 4.273877
v 0.242054 -0.762463 4.170756
v 0.246799 -0.728508 4.179042
v 0.246799 -0.728508 4.179042
v 0.254743 -0.695495 4.231979
v 0.259240 -0.715602 4.199502
v 0.283620 -0.697059 4.259823
v 0.291271 -0.700058 4.246441
v 0.311515 -0.743748 4.274279
v 0.303471 -0.739038 4.231221
v 0.261627 -0.713833 4.201800
v 0.291594 -0.700718 4.246574
v 0.308793 -0.776028 4.254695
v 0.302639 -0.707416 4.255488
v 0.291972 -0.698321 4.246406
vn -0.8287 -0.3453 -0.4404
vn -0.8269 -0.4864 0.2822
vn -0.9742 0.1820 -0.1334
vn -0.6685 0.1761 -0.7225
vn -0.9521 -0.2320 0.1991
vn -0.4582 -0.8884 0.0301
vn -0.1141 -0.2119 -0.9706
vn -0.6638 0.6995 -0.2647
vn -0.9708 -0.1788 0.1601
vn -0.7711 0.6351 -0.0454
vn -0.5660 -0.2091 0.7974
vn -0.6974 0.5366 0.4750
vn -0.0796 -0.9890 0.1250
vn 0.1509 -0.8784 -0.4534
vn 0.3168 -0.8930 -0.3196
vn -0.3944 -0.8763 0.2767
vn -0.3035 -0.0062 0.9528
vn 0.1269 -0.4675 0.8748
vn -0.0055 -0.7409 -0.6716
vn 0.0472 0.1806 0.9824
vn 0.0453 0.3445 -0.9377
vn -0.2110 0.8109 -0.5459
vn 0.0403 0.7208 0.6920
vn 0.1493 0.7941 -0.5892
vn -0.3807 0.9193 0.0997
vn 0.4886 -0.8337 0.2572
vn 0.5056 -0.3962 -0.7664
vn 0.6358 0.1652 -0.7540
vn 0.2470 0.7076 -0.6620
vn 0.3777 0.8178 -0.4341
vn 0.0441 0.9346 -0.3530
vn 0.0852 0.9940 0.0688
vn 0.8737 0.1455 0.4642
vn 0.8486 0.0331 -0.5280
vn 0.2481 0.6034 0.7578
vn 0.6955 0.3577 -0.6231
vn 0.2694 0.9010 -0.3400
vn 0.8662 -0.4664 -0.1795
vn 0.5217 0.7390 0.4263
vn 0.7818 0.3044 -0.5442
s 1
f 1//1 2//2 5//3
f 5//3 3//4 1//1
f 2//2 4//5 5//3
f 4//5 2//2 16//6
f 3//4 8//7 1//1
f 3//4 5//3 9//8
f 7//9 10//10 4//5
f 6//11 11//12 7//9
f 10//10 7//9 11//12
f 14//13 13//14 15//15
f 15//15 16//6 14//13
f 16//6 17//16 7//9
f 17//16 6//11 7//9
f 18//17 6//11 19//18
f 17//16 19//18 6//11
f 8//7 13//14 12//19
f 16//6 7//9 4//5
f 19//18 20//20 18//17
f 21//21 8//7 3//4
f 22//22 21//21 3//4
f 22//22 9//8 5//3
f 10//10 5//3 4//5
f 11//12 18//17 20//20
f 20//20 23//23 11//12
f 22//22 5//3 24//24
f 10//10 24//24 5//3
f 10//10 11//12 25//25
f 25//25 11//12 23//23
f 24//24 10//10 25//25
f 26//26 17//16 15//15
f 26//26 19//18 17//16
f 15//15 17//16 16//6
f 13//14 8//7 27//27
f 15//15 13//14 27//27
f 8//7 21//21 27//27
f 21//21 28//28 27//27
f 29//29 21//21 22//22
f 22//22 24//24 30//30
f 22//22 31//31 29//29
f 32//32 25//25 23//23
f 26//26 34//33 19//18
f 35//34 15//15 27//27
f 34//33 20//20 19//18
f 28//28 35//34 27//27
f 34//33 23//23 20//20
f 33//35 23//23 34//33
f 28//28 36//36 35//34
f 22//22 37//37 31//31
f 22//22 30//30 37//37
f 32//32 30//30 25//25
f 15//15 35//34 38//38
f 15//15 38//38 26//26
f 38//38 34//33 26//26
f 34//33 35//34 39//39
f 37//37 30//30 32//32
f 36//36 40//40 39//39
f 35//34 36//36 39//39
f 39//39 33//35 34//33
f 34//33 38//38 35//34
