# Blender v2.78 (sub 0) OBJ File: 'exporter.blend'
# www.blender.org
o FJ2607.obj_grp1.1308
v 0.308275 -0.760033 4.448376
v 0.283014 -0.727371 4.439236
v 0.302130 -0.727790 4.485512
v 0.355585 -0.770553 4.450049
v 0.332049 -0.759307 4.482731
v 0.341451 -0.752557 4.417878
v 0.311194 -0.751915 4.418225
v 0.359495 -0.698040 4.522877
v 0.286037 -0.717298 4.411294
v 0.296841 -0.704972 4.402790
v 0.278323 -0.684335 4.430219
v 0.287496 -0.679642 4.467087
v 0.318566 -0.658529 4.429441
v 0.375518 -0.739869 4.428038
v 0.420905 -0.717634 4.504941
v 0.328851 -0.721068 4.401715
v 0.327801 -0.685816 4.408881
v 0.305749 -0.656487 4.448253
v 0.412355 -0.702791 4.455405
v 0.431744 -0.716732 4.480502
v 0.463920 -0.675483 4.541030
v 0.387523 -0.635864 4.519351
v 0.353442 -0.647324 4.466856
v 0.353442 -0.647324 4.466856
v 0.385800 -0.665188 4.453650
v 0.386810 -0.639826 4.470100
v 0.443891 -0.632597 4.545175
v 0.477614 -0.703766 4.466088
v 0.447410 -0.681396 4.443820
v 0.487596 -0.693767 4.518234
v 0.413317 -0.641008 4.445588
v 0.489312 -0.705620 4.495058
v 0.439389 -0.619940 4.531900
v 0.433795 -0.608293 4.471646
v 0.501700 -0.671995 4.499759
v 0.484303 -0.634014 4.526817
v 0.448712 -0.621004 4.451685
v 0.485661 -0.625800 4.482313
v 0.439389 -0.619940 4.531900
v 0.464167 -0.614025 4.520487
v 0.464167 -0.614025 4.520487
vn -0.6904 -0.2930 0.6614
vn -0.9175 -0.3975 0.0150
vn -0.5427 -0.8395 0.0267
vn 0.2620 -0.9606 -0.0927
vn -0.3656 -0.6938 -0.6205
vn -0.1873 -0.7664 0.6145
vn -0.3576 -0.1571 0.9205
vn -0.3569 0.1564 -0.9209
vn -0.7415 -0.2912 -0.6045
vn -0.8654 0.4269 -0.2625
vn -0.7995 0.3468 0.4904
vn 0.1903 -0.6136 -0.7663
vn 0.5700 -0.3680 -0.7346
vn 0.2826 -0.8681 0.4080
vn 0.1681 -0.1025 -0.9804
vn 0.2564 0.4769 -0.8408
vn -0.1083 0.7830 -0.6125
vn -0.4603 0.8871 -0.0336
vn 0.3063 -0.2478 -0.9191
vn 0.4001 -0.8746 -0.2737
vn 0.2841 -0.3574 0.8897
vn -0.4560 0.7834 0.4223
vn -0.1311 0.9828 -0.1301
vn -0.0408 0.3300 -0.9431
vn 0.1232 0.7271 -0.6754
vn -0.3929 0.7557 -0.5240
vn 0.0466 0.3255 0.9444
vn 0.5658 -0.5864 -0.5797
vn 0.2174 -0.2182 -0.9514
vn 0.5755 -0.5350 0.6185
vn -0.3139 0.3505 -0.8824
vn 0.6797 -0.7319 0.0493
vn -0.1388 0.7162 0.6839
vn -0.1249 0.9596 -0.2520
vn 0.9979 -0.0225 -0.0609
vn 0.7011 0.4026 0.5885
vn 0.3021 0.5656 -0.7674
vn -0.2290 0.9513 0.2063
vn 0.2750 0.6396 0.7179
vn 0.3428 0.9358 0.0820
vn 0.7339 0.5714 -0.3672
s 1
f 3//1 2//2 1//3
f 4//4 1//3 7//5
f 1//3 4//4 5//6
f 5//6 3//1 1//3
f 5//6 8//7 3//1
f 10//8 7//5 9//9
f 2//2 7//5 1//3
f 9//9 7//5 2//2
f 9//9 2//2 11//10
f 10//8 9//9 11//10
f 3//1 12//11 2//2
f 2//2 12//11 11//10
f 4//4 7//5 6//12
f 6//12 14//13 4//4
f 15//14 5//6 4//4
f 6//12 7//5 16//15
f 6//12 16//15 14//13
f 16//15 7//5 10//8
f 16//15 10//8 17//16
f 12//11 3//1 8//7
f 10//8 11//10 13//17
f 13//17 17//16 10//8
f 12//11 18//18 11//10
f 13//17 11//10 18//18
f 19//19 20//20 14//13
f 20//20 4//4 14//13
f 4//4 20//20 15//14
f 17//16 14//13 16//15
f 14//13 17//16 19//19
f 21//21 5//6 15//14
f 13//17 19//19 17//16
f 12//11 8//7 22//22
f 18//18 24//23 13//17
f 5//6 21//21 8//7
f 13//17 25//24 19//19
f 25//24 13//17 23//25
f 25//24 23//25 26//26
f 22//22 26//26 24//23
f 27//27 22//22 8//7
f 12//11 22//22 18//18
f 24//23 18//18 22//22
f 28//28 19//19 29//29
f 20//20 19//19 28//28
f 30//30 21//21 15//14
f 29//29 19//19 25//24
f 29//29 25//24 31//31
f 8//7 21//21 27//27
f 32//32 20//20 28//28
f 20//20 32//32 15//14
f 32//32 30//30 15//14
f 33//33 22//22 27//27
f 31//31 25//24 26//26
f 34//34 31//31 26//26
f 34//34 26//26 22//22
f 32//32 28//28 35//35
f 21//21 30//30 36//36
f 30//30 32//32 35//35
f 31//31 37//37 29//29
f 37//37 28//28 29//29
f 27//27 21//21 36//36
f 34//34 37//37 31//31
f 39//38 34//34 22//22
f 40//39 33//33 27//27
f 41//40 34//34 39//38
f 30//30 35//35 36//36
f 28//28 37//37 38//41
f 28//28 38//41 35//35
f 38//41 36//36 35//35
f 38//41 34//34 41//40
f 36//36 40//39 27//27
f 38//41 41//40 36//36
f 38//41 37//37 34//34
