# Blender v2.78 (sub 0) OBJ File: 'exporter.blend'
# www.blender.org
o FJ2678.obj_grp1.1377
v 0.008150 -0.533446 5.623854
v 0.009928 -0.529155 5.640738
v 0.009005 -0.514059 5.665024
v 0.008281 -0.511338 5.659539
v 0.010904 -0.532665 5.609800
v 0.015301 -0.548169 5.598455
v 0.020685 -0.549804 5.583794
v 0.021706 -0.553531 5.585803
v 0.013166 -0.540917 5.617379
v 0.018979 -0.538784 5.617579
v 0.015905 -0.526125 5.617454
v 0.018587 -0.517610 5.664885
v 0.014022 -0.518494 5.666044
v 0.017462 -0.511654 5.668397
v 0.018460 -0.507418 5.661515
v 0.013018 -0.506626 5.662175
v 0.021865 -0.553563 5.585712
v 0.035656 -0.563801 5.576684
v 0.030530 -0.554489 5.590562
v 0.029705 -0.547516 5.594058
v 0.020912 -0.531592 5.618815
v 0.029066 -0.544381 5.586397
v 0.019510 -0.527245 5.617910
v 0.021651 -0.512371 5.664732
v 0.026592 -0.548918 5.579438
v 0.066125 -0.582369 5.554101
v 0.062217 -0.578945 5.567193
v 0.045114 -0.563757 5.579298
v 0.066830 -0.573824 5.556048
v 0.033294 -0.547496 5.586431
v 0.076173 -0.578339 5.560614
v 0.073132 -0.589089 5.555571
v 0.102957 -0.601548 5.546070
v 0.112394 -0.606187 5.539024
v 0.106065 -0.595428 5.538199
v 0.114528 -0.600228 5.546633
v 0.114124 -0.595251 5.541751
v 0.114535 -0.605774 5.545051
v 0.148395 -0.622036 5.532449
v 0.150908 -0.621494 5.536932
v 0.149956 -0.628067 5.531506
v 0.144230 -0.628332 5.535229
v 0.149645 -0.623695 5.540730
v 0.145769 -0.627654 5.540465
v 0.174192 -0.639561 5.530879
v 0.173082 -0.637821 5.537288
v 0.180166 -0.637855 5.529156
v 0.152822 -0.625217 5.540127
v 0.176154 -0.633785 5.537075
v 0.176644 -0.631656 5.531647
v 0.181751 -0.635094 5.534777
v 0.197913 -0.652798 5.536322
v 0.198619 -0.648395 5.535175
v 0.197129 -0.655094 5.530397
v 0.193512 -0.645573 5.529892
v 0.193552 -0.648286 5.528860
v 0.193563 -0.644080 5.533742
v 0.193656 -0.648345 5.528918
v 0.193563 -0.644080 5.533742
v 0.193512 -0.645573 5.529892
v 0.227525 -0.665304 5.530811
v 0.205276 -0.650317 5.530199
v 0.204868 -0.650202 5.530315
v 0.236047 -0.665766 5.531815
v 0.227180 -0.665230 5.527632
v 0.226195 -0.661339 5.525681
v 0.217278 -0.654225 5.531019
v 0.217278 -0.654225 5.531019
v 0.234026 -0.662510 5.526912
v 0.229709 -0.660107 5.530995
v 0.235913 -0.670215 5.526313
v 0.236049 -0.670342 5.526278
v 0.235714 -0.668344 5.532500
v 0.252767 -0.684104 5.526695
v 0.253081 -0.684361 5.529326
v 0.254002 -0.678679 5.526426
v 0.254817 -0.679618 5.530737
v 0.255214 -0.678613 5.528337
v 0.254343 -0.683050 5.525573
v 0.249401 -0.676150 5.525662
v 0.249359 -0.676295 5.525949
v 0.254343 -0.683050 5.525573
v 0.266085 -0.685252 5.524212
v 0.259512 -0.684313 5.530831
v 0.254817 -0.679618 5.530737
v 0.255500 -0.678778 5.528296
v 0.285820 -0.696660 5.524380
v 0.275074 -0.692477 5.527545
v 0.275074 -0.692477 5.527545
v 0.266213 -0.685172 5.524096
v 0.274807 -0.687267 5.525645
v 0.259512 -0.684313 5.530831
v 0.274315 -0.688344 5.528540
v 0.277808 -0.690682 5.523235
v 0.276412 -0.689946 5.529047
v 0.276412 -0.689946 5.529047
v 0.277448 -0.689325 5.523582
v 0.278069 -0.688167 5.525479
v 0.279260 -0.688779 5.525501
v 0.283857 -0.698062 5.527350
v 0.301833 -0.710074 5.532067
v 0.298306 -0.709677 5.532254
v 0.290461 -0.698348 5.526263
v 0.287047 -0.697503 5.525082
v 0.283092 -0.695658 5.529307
v 0.282985 -0.695580 5.529282
v 0.284227 -0.698403 5.527411
v 0.288576 -0.695237 5.527556
v 0.298671 -0.706839 5.535283
v 0.301546 -0.706812 5.534581
v 0.303212 -0.708628 5.533108
v 0.288956 -0.695632 5.527592
v 0.312180 -0.717047 5.545365
v 0.305716 -0.713410 5.535995
v 0.296266 -0.704157 5.528766
v 0.304844 -0.712409 5.536448
v 0.296266 -0.704157 5.528766
v 0.304521 -0.711324 5.539122
v 0.303763 -0.709498 5.537947
v 0.306221 -0.712515 5.540716
v 0.305716 -0.713410 5.535995
v 0.313360 -0.716250 5.541643
v 0.313900 -0.713207 5.542777
v 0.309196 -0.712433 5.542256
v 0.309050 -0.712359 5.542192
v 0.319876 -0.714437 5.551596
v 0.314335 -0.713414 5.543225
v 0.323320 -0.714350 5.554002
v 0.323083 -0.715316 5.556389
v 0.327588 -0.716378 5.555413
v 0.321366 -0.718152 5.551199
v 0.323580 -0.717560 5.554868
v 0.323574 -0.717585 5.554918
v 0.330116 -0.715693 5.561333
v 0.324393 -0.713786 5.554791
v 0.331438 -0.714274 5.560677
v 0.328993 -0.714358 5.562567
v 0.330834 -0.712261 5.561113
v 0.331756 -0.714274 5.560967
v 0.323161 -0.715297 5.556464
v 0.330261 -0.714410 5.561649
v 0.329854 -0.712294 5.562673
v 0.329931 -0.713420 5.562895
v 0.328993 -0.714358 5.562567
v 0.329851 -0.712002 5.561159
v 0.329905 -0.713422 5.562891
v 0.329535 -0.713502 5.560487
v 0.331172 -0.713415 5.562004
v 0.331425 -0.714321 5.561159
v 0.331149 -0.714052 5.561903
v 0.331059 -0.714349 5.562051
v 0.331172 -0.713415 5.562004
v 0.329931 -0.713420 5.562895
v 0.331172 -0.713415 5.562004
vn -0.9709 -0.2388 0.0175
vn -0.7698 -0.0109 0.6382
vn -0.8854 0.4632 -0.0388
vn -0.7819 0.4501 -0.4314
vn -0.8384 -0.5431 -0.0459
vn -0.7815 0.0431 -0.6225
vn -0.2995 -0.8825 0.3626
vn -0.5668 -0.7267 0.3882
vn 0.5637 -0.6063 0.5609
vn -0.1388 -0.6993 0.7013
vn -0.2927 0.9343 0.2036
vn -0.0686 0.9033 -0.4236
vn 0.2255 0.2489 0.9419
vn 0.4991 0.8655 0.0414
vn -0.6724 -0.7048 -0.2260
vn -0.6063 -0.5292 -0.5935
vn -0.5242 -0.8511 0.0283
vn 0.4386 -0.5789 0.6874
vn 0.6284 -0.6118 0.4805
vn -0.3394 0.4792 -0.8094
vn 0.3878 0.8793 -0.2764
vn 0.7407 0.6218 -0.2544
vn 0.9233 0.1541 0.3518
vn 0.9874 0.0220 0.1564
vn 0.9004 0.1311 0.4149
vn 0.6961 0.6748 0.2453
vn -0.5611 -0.3104 -0.7673
vn 0.2506 -0.4621 0.8507
vn 0.0800 0.6923 -0.7171
vn 0.0256 -0.6538 0.7562
vn 0.5697 0.6073 0.5537
vn -0.4556 -0.8899 -0.0243
vn -0.1811 -0.8583 0.4802
vn -0.5015 -0.7356 -0.4555
vn -0.1012 0.3295 -0.9387
vn 0.3911 0.1545 0.9073
vn 0.5371 0.8345 -0.1231
vn -0.2004 -0.6585 0.7254
vn 0.2462 0.5183 -0.8190
vn 0.4936 0.8480 0.1931
vn -0.1982 -0.3443 -0.9177
vn 0.2883 0.3391 0.8955
vn -0.4826 -0.8376 -0.2559
vn -0.1688 -0.6773 0.7161
vn -0.4169 -0.7743 -0.4762
vn -0.1491 -0.5334 0.8326
vn 0.0942 -0.1458 0.9848
vn 0.2680 0.4502 0.8517
vn 0.1078 0.1236 -0.9865
vn 0.3214 0.8552 -0.4066
vn 0.5858 0.7459 0.3169
vn -0.0979 -0.4520 0.8866
vn 0.3477 0.5465 0.7619
vn -0.3783 -0.8360 -0.3975
vn 0.2460 0.4102 -0.8782
vn 0.5102 0.3246 -0.7965
vn 0.5769 0.7981 0.1738
vn 0.0099 0.0097 -0.9999
vn 0.5208 0.8130 -0.2604
vn 0.4805 0.8144 -0.3254
vn -0.3530 -0.8124 0.4641
vn 0.2854 0.8929 -0.3482
vn 0.3643 0.8655 -0.3439
vn 0.2709 0.5123 0.8150
vn -0.4608 -0.7421 -0.4868
vn -0.0775 0.2053 -0.9756
vn 0.3424 0.8959 -0.2831
vn 0.3290 0.5968 0.7318
vn 0.4822 0.7209 -0.4978
vn 0.3645 0.7498 0.5521
vn -0.2148 -0.1047 -0.9710
vn -0.4135 -0.4835 -0.7715
vn -0.0884 -0.0897 0.9920
vn -0.4633 -0.7713 -0.4365
vn 0.4263 0.8343 -0.3497
vn -0.3847 -0.7645 0.5172
vn 0.5183 0.7393 0.4298
vn 0.5104 0.8593 0.0329
vn -0.2295 -0.4047 -0.8852
vn 0.0555 0.0005 -0.9985
vn 0.2823 0.3857 -0.8784
vn -0.0847 -0.1315 -0.9877
vn -0.0892 0.0041 -0.9960
vn -0.1355 -0.4767 0.8686
vn 0.2265 0.2448 0.9427
vn 0.4394 0.8159 0.3760
vn -0.3707 -0.7322 -0.5713
vn -0.3542 -0.9276 0.1191
vn -0.1937 -0.4960 0.8465
vn 0.2551 0.8115 -0.5257
vn 0.2902 0.7782 -0.5569
vn 0.2219 0.2739 0.9358
vn 0.4030 0.6860 0.6058
vn -0.2395 -0.4887 -0.8389
vn 0.3000 0.3042 -0.9041
vn -0.2014 -0.4201 0.8849
vn 0.6664 0.7392 -0.0977
vn 0.3627 0.8327 0.4183
vn 0.2830 0.5409 -0.7921
vn 0.3031 0.7746 -0.5550
vn 0.4960 0.8610 -0.1121
vn -0.5526 -0.8308 -0.0660
vn 0.5235 -0.2434 -0.8165
vn -0.0439 -0.5581 -0.8286
vn -0.0787 -0.0961 0.9923
vn -0.3296 -0.3480 0.8776
vn -0.6051 -0.5909 0.5335
vn 0.6044 0.7923 0.0834
vn 0.5342 0.3391 -0.7743
vn 0.5601 0.2601 -0.7865
vn 0.0142 0.6102 0.7921
vn 0.3752 0.8803 0.2902
vn 0.6749 0.4943 -0.5479
vn 0.7157 0.6301 -0.3013
vn 0.6080 0.0126 -0.7938
vn -0.6650 -0.6863 0.2944
vn -0.4976 -0.8251 0.2675
vn -0.3384 -0.9307 -0.1388
vn 0.1475 -0.3813 -0.9126
vn 0.1871 -0.6177 -0.7639
vn 0.2820 0.8614 0.4225
vn -0.0768 0.6927 0.7172
vn -0.7122 -0.1701 0.6810
vn 0.6485 0.3720 -0.6641
vn -0.1216 -0.8098 -0.5740
vn 0.3819 -0.5944 -0.7076
vn 0.6728 0.2572 -0.6937
vn -0.1805 0.7649 0.6183
vn 0.0751 0.7698 0.6338
vn 0.2004 0.9774 -0.0669
vn -0.2589 0.8322 0.4903
vn 0.4768 0.7805 -0.4044
vn 0.3782 -0.9202 -0.1008
vn 0.5005 0.5912 -0.6325
vn -0.6789 0.1496 0.7188
vn 0.1635 -0.9789 -0.1226
vn 0.1066 -0.9942 -0.0136
vn -0.1571 -0.9229 0.3516
vn 0.3404 -0.8533 0.3950
vn -0.4948 0.8001 0.3392
vn 0.7341 -0.6335 0.2446
vn -0.4608 -0.6583 0.5953
vn 0.7700 0.4323 -0.4692
vn 0.8100 0.3569 -0.4654
vn -0.4860 -0.4582 0.7442
vn -0.4775 -0.4465 0.7567
vn -0.4923 -0.4675 0.7342
vn -0.5162 0.8380 0.1770
vn 0.4791 -0.4751 0.7381
vn 0.2573 -0.5378 0.8029
vn 0.1636 0.8828 -0.4403
vn -0.2211 0.9702 -0.0990
vn 0.9006 0.3975 0.1760
vn 0.5794 -0.0407 0.8140
vn -0.0279 0.9994 -0.0183
vn -0.0603 0.9968 -0.0528
vn -0.0304 0.9995 -0.0038
s 1
f 1//1 3//2 4//3
f 1//1 5//4 6//5
f 6//5 5//4 7//6
f 9//7 1//1 6//5
f 9//7 2//8 1//1
f 4//3 5//4 1//1
f 9//7 12//9 2//8
f 1//1 2//8 3//2
f 3//2 2//8 13//10
f 12//9 13//10 2//8
f 5//4 4//3 16//11
f 5//4 16//11 11//12
f 13//10 14//13 3//2
f 11//12 16//11 15//14
f 3//2 16//11 4//3
f 16//11 3//2 14//13
f 8//15 7//6 17//16
f 18//17 9//7 6//5
f 18//17 19//18 9//7
f 8//15 6//5 7//6
f 10//19 9//7 19//18
f 7//6 5//4 25//20
f 22//21 25//20 11//12
f 25//20 5//4 11//12
f 23//22 22//21 11//12
f 20//23 21//24 10//19
f 10//19 12//9 9//7
f 10//19 21//24 12//9
f 11//12 15//14 23//22
f 23//22 24//25 21//24
f 12//9 14//13 13//10
f 24//25 14//13 12//9
f 24//25 12//9 21//24
f 24//25 23//22 15//14
f 16//11 14//13 15//14
f 15//14 14//13 24//25
f 7//6 18//17 17//16
f 18//17 6//5 8//15
f 19//18 20//23 10//19
f 22//21 23//22 21//24
f 22//21 21//24 20//23
f 30//26 22//21 20//23
f 26//27 7//6 25//20
f 18//17 28//28 19//18
f 20//23 19//18 28//28
f 25//20 22//21 29//29
f 29//29 22//21 30//26
f 28//28 18//17 27//30
f 28//28 30//26 20//23
f 30//26 28//28 31//31
f 27//30 18//17 32//32
f 26//27 18//17 7//6
f 30//26 31//31 29//29
f 25//20 29//29 26//27
f 26//27 32//32 18//17
f 27//30 31//31 28//28
f 27//30 32//32 33//33
f 32//32 34//34 33//33
f 35//35 26//27 29//29
f 34//34 32//32 26//27
f 27//30 36//36 31//31
f 35//35 34//34 26//27
f 36//36 27//30 33//33
f 37//37 31//31 36//36
f 37//37 35//35 29//29
f 31//31 37//37 29//29
f 38//38 33//33 34//34
f 38//38 36//36 33//33
f 37//37 39//39 35//35
f 40//40 37//37 36//36
f 41//41 34//34 35//35
f 41//41 35//35 39//39
f 43//42 40//40 36//36
f 38//38 43//42 36//36
f 34//34 42//43 44//44
f 44//44 38//38 34//34
f 42//43 34//34 41//41
f 40//40 39//39 37//37
f 38//38 44//44 43//42
f 45//45 44//44 42//43
f 45//45 46//46 44//44
f 45//45 42//43 41//41
f 48//47 43//42 44//44
f 46//46 49//48 44//44
f 45//45 41//41 47//49
f 50//50 47//49 41//41
f 39//39 50//50 41//41
f 50//50 39//39 40//40
f 40//40 43//42 51//51
f 51//51 50//50 40//40
f 44//44 49//48 48//47
f 49//48 51//51 43//42
f 46//46 52//52 49//48
f 49//48 53//53 51//51
f 52//52 53//53 49//48
f 46//46 45//45 54//54
f 47//49 55//55 56//56
f 55//55 47//49 50//50
f 57//57 51//51 53//53
f 47//49 58//58 54//54
f 45//45 47//49 54//54
f 58//58 56//56 55//55
f 46//46 54//54 52//52
f 50//50 51//51 59//59
f 50//50 59//59 60//60
f 54//54 61//61 52//52
f 62//62 58//58 55//55
f 60//60 59//59 63//63
f 64//64 53//53 52//52
f 61//61 54//54 65//65
f 64//64 52//52 61//61
f 53//53 62//62 57//57
f 66//66 54//54 58//58
f 66//66 65//65 54//54
f 62//62 66//66 58//58
f 53//53 67//67 62//62
f 53//53 64//64 68//68
f 69//69 62//62 67//67
f 69//69 66//66 62//62
f 69//69 67//67 70//70
f 64//64 70//70 68//68
f 71//71 65//65 66//66
f 72//72 65//65 71//71
f 64//64 61//61 73//73
f 74//74 71//71 66//66
f 74//74 65//65 72//72
f 76//75 69//69 70//70
f 73//73 61//61 75//76
f 70//70 64//64 77//77
f 70//70 78//78 76//75
f 70//70 77//77 78//78
f 79//79 74//74 66//66
f 61//61 65//65 74//74
f 75//76 61//61 74//74
f 66//66 69//69 80//80
f 69//69 76//75 81//81
f 66//66 80//80 82//82
f 82//82 80//80 83//83
f 84//84 73//73 75//76
f 73//73 85//85 64//64
f 77//77 86//86 78//78
f 74//74 87//87 88//88
f 87//87 74//74 79//79
f 88//88 75//76 74//74
f 89//89 84//84 75//76
f 91//90 76//75 78//78
f 91//90 90//91 76//75
f 85//85 73//73 92//92
f 77//77 93//93 86//86
f 94//94 87//87 79//79
f 94//95 82//82 83//83
f 95//96 84//84 89//89
f 93//93 85//85 92//92
f 93//93 92//92 96//97
f 91//98 86//86 93//93
f 97//99 94//95 83//83
f 91//90 97//99 90//91
f 91//90 98//100 97//99
f 99//101 91//98 93//93
f 88//88 87//87 100//102
f 87//87 101//103 100//102
f 101//103 102//104 100//102
f 100//102 105//105 88//88
f 89//89 106//106 95//96
f 107//107 105//105 100//102
f 105//105 108//108 93//93
f 104//109 94//95 97//99
f 99//101 97//99 98//100
f 108//108 99//101 93//93
f 97//99 103//110 104//109
f 99//101 103//110 97//99
f 108//108 103//110 99//101
f 105//105 93//93 96//97
f 105//105 107//107 109//111
f 110//112 108//108 109//111
f 87//87 104//109 101//103
f 103//110 108//108 111//113
f 108//108 105//105 109//111
f 108//108 110//112 112//114
f 110//112 111//115 112//114
f 107//107 102//116 113//117
f 102//116 114//118 113//117
f 115//119 111//115 116//120
f 101//103 115//119 116//120
f 118//121 109//111 107//107
f 119//122 109//111 120//123
f 104//109 103//110 115//119
f 103//110 111//113 117//124
f 115//119 101//103 104//109
f 119//122 110//112 109//111
f 102//104 101//103 121//125
f 111//115 122//126 116//120
f 113//117 118//121 107//107
f 113//117 120//123 118//121
f 111//115 110//112 123//127
f 124//128 119//122 120//123
f 125//129 110//112 119//122
f 114//118 122//126 113//117
f 127//130 110//112 125//129
f 127//130 125//129 124//128
f 122//126 111//115 123//127
f 120//123 126//131 124//128
f 124//128 126//131 128//132
f 128//132 127//130 124//128
f 122//126 123//127 130//133
f 127//130 128//132 130//134
f 120//123 113//117 129//135
f 126//131 120//123 129//135
f 131//136 113//117 122//126
f 132//137 113//117 131//136
f 122//126 130//133 131//136
f 133//138 129//135 113//117
f 130//133 134//139 131//136
f 131//136 134//139 132//137
f 126//131 129//135 135//140
f 136//141 134//139 130//133
f 132//137 134//139 133//138
f 133//138 134//139 137//142
f 129//135 133//138 137//142
f 138//143 139//144 130//134
f 138//143 130//134 128//132
f 140//145 141//146 142//147
f 135//140 129//135 142//148
f 134//139 143//149 144//150
f 138//151 135//140 145//152
f 135//140 142//148 145//152
f 136//141 143//149 134//139
f 139//144 138//143 148//153
f 151//154 152//154 153//154
f 147//155 146//156 154//157
l 149 150
