# Blender v2.78 (sub 0) OBJ File: 'exporter.blend'
# www.blender.org
o FJ2688.obj_grp1.1387
v 0.096905 -0.549707 5.544261
v 0.097256 -0.549054 5.546247
v 0.094685 -0.549118 5.545471
v 0.096054 -0.550800 5.544071
v 0.094432 -0.549098 5.545197
v 0.096148 -0.551023 5.546042
v 0.096091 -0.550019 5.547291
v 0.094743 -0.549971 5.546198
v 0.096148 -0.551023 5.546042
v 0.096500 -0.550907 5.545127
v 0.097974 -0.550741 5.545197
v 0.095892 -0.549605 5.545112
v 0.101479 -0.544892 5.544173
v 0.098014 -0.550756 5.545210
v 0.104522 -0.535388 5.546366
v 0.094960 -0.548972 5.545301
v 0.097815 -0.542582 5.545197
v 0.097657 -0.547199 5.542721
v 0.099739 -0.540507 5.546887
v 0.103640 -0.536409 5.542860
v 0.101743 -0.533345 5.542905
v 0.103637 -0.536440 5.544503
v 0.102455 -0.532207 5.546136
v 0.104549 -0.533418 5.542943
v 0.103668 -0.528777 5.546885
v 0.101593 -0.533183 5.543314
v 0.104549 -0.533418 5.542943
v 0.107219 -0.533000 5.545224
v 0.107816 -0.532248 5.544937
v 0.106012 -0.534071 5.544258
v 0.104306 -0.532187 5.544730
v 0.109256 -0.531679 5.546626
v 0.102374 -0.532092 5.546028
v 0.105969 -0.531279 5.546857
v 0.108939 -0.531614 5.547371
v 0.106795 -0.530468 5.542687
v 0.111060 -0.530339 5.541863
v 0.109288 -0.532389 5.543265
v 0.112354 -0.530295 5.541008
v 0.109300 -0.528488 5.545185
v 0.113279 -0.531204 5.544662
v 0.107362 -0.532273 5.543037
v 0.107414 -0.532109 5.545363
v 0.105947 -0.531292 5.546887
v 0.109284 -0.528545 5.545197
v 0.112101 -0.533099 5.542380
v 0.109213 -0.532509 5.543776
v 0.111848 -0.535841 5.544024
v 0.108345 -0.532714 5.545197
v 0.113040 -0.531268 5.545619
v 0.111162 -0.532803 5.544258
v 0.113040 -0.531268 5.545619
v 0.111724 -0.531921 5.542860
v 0.113040 -0.531268 5.545619
v 0.113113 -0.531142 5.545711
v 0.118282 -0.538298 5.538007
v 0.117256 -0.539626 5.539781
v 0.115924 -0.531149 5.544775
v 0.115471 -0.530504 5.542017
v 0.118088 -0.538690 5.541144
v 0.118417 -0.537891 5.538131
v 0.117418 -0.534260 5.541145
v 0.117411 -0.536858 5.540707
v 0.119561 -0.538152 5.541182
v 0.119796 -0.539194 5.540477
v 0.120499 -0.539681 5.541500
v 0.123450 -0.530210 5.540515
v 0.117734 -0.539005 5.541441
v 0.118704 -0.535847 5.541473
v 0.119641 -0.536564 5.542709
v 0.117890 -0.534035 5.543076
v 0.117420 -0.535667 5.542803
v 0.120247 -0.538410 5.541420
v 0.123312 -0.528339 5.544096
v 0.123223 -0.531654 5.542126
v 0.118868 -0.533242 5.541374
v 0.117987 -0.531523 5.540546
v 0.117227 -0.531716 5.540537
v 0.118502 -0.534843 5.540275
v 0.118536 -0.535524 5.540955
v 0.116586 -0.534977 5.541326
v 0.113022 -0.531380 5.543961
v 0.117685 -0.533763 5.541965
v 0.114858 -0.531423 5.544352
v 0.125978 -0.532202 5.540840
v 0.122951 -0.532207 5.540503
v 0.124256 -0.529541 5.540491
v 0.125186 -0.530694 5.542380
v 0.124307 -0.531099 5.541441
v 0.124965 -0.531515 5.541289
v 0.123740 -0.530329 5.540503
v 0.129880 -0.527145 5.540838
v 0.126796 -0.529988 5.539051
v 0.129037 -0.530627 5.540301
v 0.135960 -0.529814 5.536108
v 0.129197 -0.529698 5.542751
v 0.131117 -0.528638 5.542254
v 0.125246 -0.530789 5.542380
v 0.128062 -0.530329 5.540455
v 0.129322 -0.529724 5.542756
v 0.128062 -0.530329 5.540455
v 0.136324 -0.533559 5.539525
v 0.129322 -0.529724 5.542756
v 0.132757 -0.532550 5.540503
v 0.128638 -0.528884 5.541601
v 0.132374 -0.532346 5.538676
v 0.139329 -0.534085 5.540409
v 0.141024 -0.533582 5.541459
v 0.141666 -0.534116 5.538104
v 0.131123 -0.528644 5.542240
v 0.139094 -0.532625 5.539610
v 0.131198 -0.528118 5.540409
v 0.141049 -0.533192 5.538944
v 0.141520 -0.532616 5.535896
v 0.141842 -0.535119 5.536176
v 0.139922 -0.535888 5.538684
v 0.138551 -0.536569 5.538617
v 0.141024 -0.534649 5.540727
v 0.129322 -0.529724 5.542756
v 0.138054 -0.535287 5.539657
v 0.142243 -0.535694 5.535707
v 0.142686 -0.535818 5.539202
v 0.140790 -0.534051 5.536670
v 0.147350 -0.532451 5.536914
v 0.141207 -0.534085 5.536982
v 0.141226 -0.532904 5.538691
v 0.150348 -0.532013 5.537017
v 0.149265 -0.532063 5.536334
v 0.149551 -0.532752 5.537983
v 0.148891 -0.531669 5.537285
v 0.148610 -0.530967 5.538919
v 0.148475 -0.530007 5.537915
v 0.149658 -0.532207 5.538906
v 0.150183 -0.532304 5.537274
v 0.148015 -0.532748 5.537010
v 0.148610 -0.532597 5.537242
v 0.148774 -0.532517 5.538157
vn -0.1125 -0.9389 0.3254
vn -0.1466 -0.9252 0.3499
vn -0.1067 -0.9393 0.3261
vn -0.4756 -0.6921 0.5429
vn -0.1186 -0.3266 0.9377
vn -0.7363 0.0052 0.6767
vn 0.9135 -0.4001 -0.0737
vn 0.7015 -0.7121 -0.0271
vn 0.1774 -0.4044 -0.8972
vn 0.3274 -0.7120 0.6211
vn -0.7726 0.2681 -0.5754
vn -0.6403 0.0670 -0.7652
vn -0.7016 0.1693 -0.6921
vn -0.8522 0.4523 0.2632
vn -0.3899 0.1363 0.9107
vn 0.7273 -0.6676 -0.1595
vn 0.5648 -0.6423 -0.5181
vn 0.3340 -0.1273 -0.9339
vn 0.0457 -0.0109 -0.9989
vn 0.8976 -0.4300 -0.0974
vn -0.8920 0.3036 -0.3350
vn -0.7279 0.2936 0.6197
vn 0.1998 -0.1791 -0.9633
vn -0.7783 0.6083 -0.1554
vn 0.1646 -0.5594 -0.8124
vn 0.5066 -0.8605 0.0544
vn 0.6393 -0.1066 -0.7616
vn 0.6116 -0.1678 -0.7732
vn 0.6058 -0.1688 -0.7775
vn 0.1594 -0.0820 -0.9838
vn 0.3289 -0.9441 0.0226
vn -0.6903 0.7194 -0.0767
vn 0.0015 0.0291 0.9996
vn 0.0679 -0.6240 -0.7785
vn -0.3806 0.8788 -0.2878
vn 0.1770 0.1658 0.9701
vn 0.1032 0.1273 0.9865
vn 0.0368 0.0657 0.9972
vn 0.2369 -0.7070 -0.6664
vn -0.1032 -0.6842 -0.7219
vn 0.0052 0.9451 -0.3267
vn 0.4489 0.8748 -0.1824
vn 0.4477 -0.6696 -0.5926
vn -0.2133 -0.9202 -0.3283
vn 0.0924 -0.8238 -0.5593
vn -0.1577 0.0953 0.9829
vn 0.1681 0.3584 0.9183
vn 0.1601 0.3632 0.9178
vn 0.0336 -0.6859 0.7269
vn 0.0818 -0.8266 0.5569
vn -0.8742 0.1519 -0.4611
vn -0.8750 0.1712 -0.4529
vn -0.9294 0.0774 -0.3610
vn -0.7068 -0.2384 0.6661
vn -0.7045 -0.2725 0.6553
vn -0.6663 -0.2770 0.6923
vn 0.4694 -0.1502 -0.8701
vn 0.0811 -0.1369 -0.9873
vn 0.1377 -0.1233 -0.9828
vn -0.2868 -0.7679 0.5728
vn 0.0912 -0.0324 0.9953
vn 0.0372 -0.1755 0.9838
vn -0.0089 -0.1774 0.9841
vn -0.5033 0.2177 0.8362
vn -0.0230 -0.1531 0.9879
vn -0.0005 -0.0412 0.9992
vn -0.4759 0.5743 0.6661
vn 0.2485 -0.4891 0.8361
vn 0.2811 0.7579 -0.5887
vn -0.1207 0.6834 -0.7200
vn -0.5229 0.6884 -0.5026
vn -0.3892 -0.8362 0.3863
vn 0.5147 0.8558 0.0523
vn 0.6215 -0.4714 0.6257
vn 0.6400 -0.6076 -0.4703
vn 0.5310 -0.5029 -0.6820
vn -0.1305 0.0452 -0.9904
vn 0.6251 -0.4001 0.6703
vn -0.2573 0.8645 0.4317
vn 0.6407 -0.1548 -0.7520
vn -0.0209 0.9943 -0.1047
vn 0.0033 -0.8278 -0.5609
vn -0.1449 -0.7161 -0.6828
vn -0.2330 -0.6955 -0.6797
vn 0.1908 -0.8508 -0.4897
vn -0.1746 0.5812 -0.7948
vn 0.2434 -0.0017 0.9699
vn 0.3858 0.5352 0.7515
vn 0.2411 -0.9627 0.1227
vn -0.2961 -0.8705 0.3932
vn -0.2352 -0.9008 0.3651
vn -0.2754 -0.8663 0.4168
vn 0.2375 0.0315 0.9709
vn 0.1819 0.9744 -0.1322
vn -0.0836 0.9806 -0.1775
vn 0.4406 0.8956 -0.0606
vn 0.5108 0.7733 0.3755
vn 0.4724 0.8498 0.2337
vn 0.4648 0.8536 0.2352
vn 0.4540 0.8695 0.1947
vn -0.1398 0.5760 -0.8054
vn -0.1857 0.5777 -0.7949
vn -0.0848 0.3075 -0.9478
vn -0.2719 -0.9100 -0.3132
vn -0.4399 -0.8808 -0.1753
vn -0.4624 -0.8237 -0.3282
vn 0.1084 -0.6647 0.7392
vn -0.1363 -0.6352 0.7602
vn -0.1201 -0.6716 0.7311
vn 0.1750 -0.9824 0.0660
vn 0.2314 -0.8897 -0.3936
vn -0.1181 -0.2937 0.9486
vn -0.0751 -0.5056 0.8595
vn 0.3650 -0.4792 0.7982
vn -0.2658 0.2189 -0.9388
vn -0.1080 0.3510 -0.9301
vn -0.0605 0.9745 0.2160
vn -0.2225 0.8032 -0.5526
vn -0.1272 0.8455 -0.5186
vn 0.3625 -0.9317 0.0224
vn 0.2678 -0.9220 -0.2798
vn -0.0256 0.9668 0.2543
vn 0.4387 -0.3632 0.8220
vn -0.3820 0.7436 0.5487
vn -0.3570 0.6575 0.6636
vn 0.4488 -0.8886 0.0942
vn 0.2580 -0.8920 -0.3712
s 1
f 1//1 2//2 5//3
f 6//4 7//5 8//6
f 13//7 14//8 12//9
f 14//8 7//5 9//10
f 18//11 4//12 3//13
f 16//14 8//6 19//15
f 19//15 8//6 7//5
f 15//16 19//15 7//5
f 7//5 14//8 15//16
f 13//7 12//9 18//17
f 20//18 13//7 18//17
f 20//18 18//17 21//19
f 14//8 22//20 15//16
f 22//20 14//8 13//7
f 17//21 18//11 3//13
f 16//14 19//15 23//22
f 20//18 21//19 24//23
f 18//11 17//21 26//24
f 13//7 20//18 28//25
f 22//20 29//26 15//16
f 20//27 27//28 30//29
f 31//30 28//25 20//18
f 29//26 32//31 15//16
f 33//32 26//24 17//21
f 15//16 35//33 19//15
f 24//23 21//19 36//34
f 36//35 26//24 33//32
f 34//36 25//37 19//38
f 37//39 38//40 36//34
f 40//41 39//42 36//35
f 37//39 41//43 38//40
f 28//25 31//30 42//44
f 43//45 24//23 36//34
f 35//33 44//46 19//15
f 34//36 45//47 25//37
f 38//40 43//45 36//34
f 36//35 33//32 40//41
f 34//36 50//48 45//47
f 51//49 52//50 29//26
f 32//31 29//26 52//50
f 56//51 57//52 58//53
f 57//54 60//55 59//56
f 67//57 64//58 63//59
f 53//60 68//61 69//62
f 70//63 71//64 72//65
f 73//66 69//62 68//61
f 71//64 70//63 74//67
f 73//66 75//68 69//62
f 75//68 74//67 69//62
f 62//69 39//42 40//41
f 61//70 39//42 62//69
f 76//71 61//70 62//69
f 53//60 69//62 54//72
f 40//41 55//73 62//69
f 71//64 74//67 76//71
f 85//74 66//75 65//76
f 67//57 86//77 64//58
f 66//75 85//74 88//78
f 76//71 87//79 61//70
f 67//57 89//80 86//77
f 76//71 92//81 87//79
f 92//81 76//71 74//67
f 93//82 90//83 91//84
f 94//85 90//83 93//82
f 95//86 87//79 92//81
f 75//68 96//87 74//67
f 97//88 74//67 96//87
f 98//89 99//89 100//89
f 97//88 92//81 74//67
f 101//90 102//91 103//92
f 107//93 97//88 96//87
f 108//94 109//95 110//96
f 97//88 111//97 92//81
f 112//98 113//99 114//100
f 106//101 105//102 115//103
f 116//104 104//105 94//106
f 118//107 119//108 120//109
f 94//106 121//110 116//104
f 122//111 102//112 117//113
f 120//109 122//114 118//107
f 123//115 115//103 105//102
f 123//115 124//116 115//103
f 124//117 125//118 126//119
f 127//120 122//111 117//113
f 116//104 121//110 128//121
f 129//122 124//117 126//119
f 122//114 130//123 118//107
f 131//124 109//95 108//94
f 131//124 132//125 109//95
f 127//120 133//126 122//111
f 116//104 128//121 127//127
l 81 82
l 77 78
l 136 137
l 79 80
l 48 49
l 134 135
l 83 84
l 46 47
l 10 11
