# Blender v2.78 (sub 0) OBJ File: 'exporter.blend'
# www.blender.org
o FJ2667.obj_grp1.1367
v 0.063594 -0.810967 5.656339
v 0.074643 -0.813255 5.649826
v 0.076866 -0.812953 5.651325
v 0.063054 -0.807326 5.653150
v 0.063103 -0.810902 5.651676
v 0.064263 -0.808384 5.656256
v 0.074981 -0.807744 5.649426
v 0.075609 -0.809347 5.647820
v 0.078578 -0.811443 5.652918
v 0.081435 -0.813761 5.651324
v 0.080658 -0.812069 5.651960
v 0.074869 -0.811916 5.647921
v 0.075026 -0.812116 5.647375
v 0.085216 -0.815632 5.648079
v 0.089378 -0.812794 5.647886
v 0.086197 -0.816779 5.648787
v 0.082994 -0.811068 5.647164
v 0.095797 -0.814831 5.653993
v 0.093155 -0.816866 5.651197
v 0.100754 -0.812512 5.650379
v 0.097124 -0.812904 5.652433
v 0.100691 -0.811989 5.650546
v 0.096062 -0.813202 5.649004
v 0.095023 -0.813264 5.649783
v 0.096139 -0.815762 5.648666
v 0.096177 -0.815765 5.652787
v 0.094444 -0.813011 5.648995
v 0.096268 -0.815729 5.652750
v 0.101482 -0.815698 5.650989
v 0.117072 -0.812071 5.640106
v 0.110098 -0.814802 5.645849
v 0.112161 -0.815070 5.643287
v 0.114351 -0.814502 5.643832
v 0.111830 -0.812058 5.641437
v 0.112152 -0.810406 5.643764
v 0.110983 -0.812105 5.646225
v 0.114556 -0.814486 5.643846
v 0.111067 -0.812112 5.646153
v 0.112101 -0.810387 5.643785
v 0.117650 -0.810321 5.642798
v 0.117650 -0.810321 5.642798
v 0.115359 -0.812871 5.640122
v 0.127323 -0.811552 5.636339
v 0.129313 -0.810526 5.637948
v 0.124354 -0.810408 5.637198
v 0.123318 -0.808970 5.639124
v 0.123414 -0.813275 5.639958
v 0.123287 -0.813204 5.640028
v 0.128792 -0.806755 5.636090
v 0.127734 -0.807941 5.638128
v 0.128000 -0.807833 5.637916
v 0.130154 -0.806397 5.632470
v 0.133321 -0.805338 5.628580
v 0.133356 -0.805350 5.628714
v 0.130154 -0.806397 5.632470
v 0.133974 -0.803876 5.629560
v 0.138202 -0.805481 5.626814
v 0.141505 -0.802578 5.623369
v 0.130456 -0.809880 5.636789
v 0.139194 -0.805604 5.626947
v 0.136924 -0.804837 5.627110
v 0.134095 -0.803508 5.629466
v 0.137295 -0.803331 5.629012
v 0.148411 -0.802585 5.622095
v 0.138060 -0.802786 5.625240
v 0.139023 -0.803273 5.625480
v 0.147626 -0.799534 5.623126
v 0.148720 -0.800850 5.621382
v 0.146833 -0.801506 5.622337
v 0.152509 -0.800143 5.623399
v 0.149548 -0.801588 5.622027
v 0.150242 -0.800277 5.624593
v 0.153846 -0.800816 5.621182
v 0.156786 -0.797362 5.613652
v 0.159651 -0.797412 5.613690
v 0.153412 -0.801148 5.620123
v 0.156538 -0.798890 5.618480
v 0.152368 -0.798575 5.620262
v 0.153406 -0.798862 5.617494
v 0.153504 -0.799683 5.621907
v 0.150772 -0.796900 5.619698
v 0.155577 -0.792955 5.615766
v 0.156089 -0.796355 5.617494
v 0.158564 -0.796260 5.613752
v 0.158234 -0.797063 5.613662
v 0.155267 -0.799127 5.619558
v 0.159588 -0.796010 5.614661
v 0.155718 -0.796414 5.612152
v 0.157169 -0.796045 5.613222
v 0.153413 -0.797923 5.617776
v 0.157745 -0.794431 5.613559
v 0.157169 -0.796045 5.613222
v 0.156999 -0.796642 5.614543
v 0.158108 -0.794979 5.613739
v 0.156975 -0.796239 5.614749
v 0.159318 -0.796056 5.614653
v 0.158912 -0.796713 5.614705
v 0.157244 -0.796285 5.614523
v 0.158259 -0.797160 5.614516
vn 0.0126 -0.8446 0.5352
vn -0.5822 -0.4537 0.6747
vn -0.1701 -0.9715 -0.1652
vn -0.6225 0.7615 -0.1806
vn -0.7473 -0.3904 -0.5377
vn -0.0249 0.4630 -0.8860
vn 0.0232 0.9970 -0.0741
vn 0.1326 0.6568 0.7423
vn -0.2389 0.5830 0.7766
vn -0.0900 -0.4665 0.8799
vn -0.0901 -0.7654 0.6372
vn -0.2833 -0.8906 -0.3557
vn -0.2921 -0.3376 -0.8948
vn -0.0357 -0.2806 -0.9592
vn -0.1145 -0.9340 0.3383
vn 0.1120 -0.0125 -0.9936
vn 0.1708 0.7146 -0.6783
vn 0.0901 -0.1433 0.9856
vn -0.0132 -0.9948 -0.1014
vn -0.0812 0.9940 -0.0737
vn 0.2334 0.6473 0.7256
vn 0.0956 0.7982 0.5947
vn 0.0543 0.5513 -0.8326
vn -0.2055 -0.2748 -0.9393
vn 0.1420 0.0675 -0.9876
vn 0.2352 -0.8104 0.5365
vn 0.2119 0.2357 -0.9484
vn 0.3059 -0.7424 0.5961
vn 0.3887 -0.6559 0.6471
vn -0.2568 -0.4043 -0.8778
vn 0.4021 -0.6458 0.6490
vn -0.1367 -0.9061 -0.4005
vn 0.0306 -0.7333 0.6793
vn -0.2950 0.7626 -0.5757
vn -0.2192 0.8459 -0.4862
vn 0.5219 -0.0922 0.8480
vn 0.4045 -0.6475 0.6459
vn 0.4009 0.4575 0.7937
vn 0.1739 0.7600 0.6262
vn 0.0934 0.8431 0.5296
vn 0.5784 -0.7920 0.1953
vn 0.7036 -0.4739 0.5294
vn -0.5062 0.6121 -0.6075
vn -0.3985 0.8655 -0.3035
vn -0.4551 0.5772 -0.6780
vn -0.3754 0.8499 -0.3697
vn -0.3524 -0.1599 -0.9221
vn -0.0417 0.9268 0.3731
vn 0.2471 -0.9416 0.2287
vn 0.4028 -0.3415 0.8492
vn -0.4103 -0.4449 -0.7961
vn -0.3059 0.9218 0.2384
vn 0.2382 0.6963 0.6771
vn -0.0171 0.8547 0.5188
vn -0.6400 0.5648 -0.5210
vn -0.6795 0.6849 -0.2630
vn -0.6181 0.6047 -0.5022
vn -0.2755 -0.5947 -0.7552
vn -0.3081 -0.6189 -0.7225
vn -0.7561 0.4783 -0.4466
vn 0.4315 -0.9018 0.0239
vn 0.2544 -0.9626 -0.0928
vn -0.2738 -0.5542 -0.7860
vn 0.0969 0.7793 0.6192
vn -0.3897 0.8948 -0.2178
vn 0.6222 -0.1199 0.7736
vn -0.1307 -0.6269 -0.7681
vn -0.3488 -0.5098 -0.7864
vn -0.4717 0.6458 -0.6004
vn -0.1549 0.9842 -0.0861
vn -0.1354 0.7749 -0.6175
vn -0.2278 -0.1972 -0.9535
vn -0.4626 -0.2742 -0.8431
vn 0.3901 -0.9090 0.1470
vn 0.4005 -0.9156 -0.0359
vn 0.0137 0.8966 0.4427
vn -0.0322 0.7800 -0.6250
vn -0.0419 -0.6376 -0.7692
vn 0.0419 -0.6867 -0.7258
vn -0.1988 -0.7499 -0.6309
vn -0.2313 -0.7198 -0.6545
vn -0.2693 -0.7386 -0.6180
vn 0.2849 -0.9208 -0.2665
vn -0.0162 0.8813 0.4724
vn 0.4105 -0.8393 -0.3564
vn 0.1563 0.9175 0.3658
vn 0.7124 0.3822 0.5886
vn 0.3421 0.8191 0.4605
vn -0.9042 0.0998 -0.4153
vn -0.9641 0.0638 -0.2578
vn -0.9303 0.0941 -0.3546
vn -0.7751 0.3922 -0.4954
vn -0.7840 0.3822 -0.4892
vn -0.7767 0.3608 -0.5164
vn 0.0324 -0.2998 -0.9535
vn 0.7318 0.4075 0.5463
vn 0.5365 -0.8077 -0.2446
vn 0.0287 -0.4724 -0.8809
vn 0.0593 -0.4952 -0.8668
vn 0.0526 -0.4743 -0.8788
s 1
f 3//1 1//2 2//3
f 4//4 5//5 1//2
f 1//2 5//5 2//3
f 8//6 5//5 4//4
f 4//4 7//7 8//6
f 9//8 4//4 6//9
f 1//2 6//9 4//4
f 9//8 6//9 1//2
f 3//1 10//10 11//11
f 4//4 9//8 7//7
f 2//3 5//5 12//12
f 3//1 11//11 1//2
f 8//6 13//13 5//5
f 12//12 13//13 14//14
f 2//3 12//12 14//14
f 16//15 3//1 2//3
f 15//16 13//13 8//6
f 17//17 8//6 7//7
f 11//11 10//10 18//18
f 16//15 19//19 3//1
f 13//13 15//16 14//14
f 9//8 11//11 18//18
f 19//19 18//18 10//10
f 17//17 7//7 20//20
f 7//7 21//21 22//22
f 21//21 7//7 9//8
f 20//20 23//23 17//17
f 16//15 24//24 19//19
f 25//25 14//14 15//16
f 26//26 18//18 19//19
f 27//27 25//25 15//16
f 26//26 28//28 18//18
f 26//26 19//19 29//29
f 29//29 18//18 28//28
f 21//21 9//8 18//18
f 24//24 30//30 19//19
f 19//19 31//31 29//29
f 32//32 31//31 19//19
f 33//33 31//31 32//32
f 34//34 23//23 35//35
f 35//35 23//23 20//20
f 32//32 19//19 30//30
f 36//36 31//31 37//37
f 38//38 21//21 18//18
f 37//37 38//38 36//36
f 31//31 36//36 29//29
f 36//36 18//18 29//29
f 38//38 39//39 21//21
f 40//40 39//39 38//38
f 32//32 37//37 33//33
f 43//41 32//32 30//30
f 44//42 38//38 37//37
f 45//43 35//35 46//44
f 42//45 30//46 45//47
f 35//35 45//43 34//34
f 46//44 35//35 41//48
f 47//49 44//42 48//50
f 47//49 32//32 43//41
f 32//32 48//50 37//37
f 48//50 44//42 37//37
f 43//51 42//45 45//47
f 49//52 45//43 46//44
f 50//53 51//54 46//44
f 49//52 46//44 51//54
f 46//44 40//40 50//53
f 50//53 40//40 38//38
f 44//42 50//53 38//38
f 54//55 55//56 56//57
f 43//51 53//58 57//59
f 45//47 53//58 43//51
f 52//60 53//58 45//47
f 49//52 55//56 45//43
f 59//61 44//42 47//49
f 59//61 47//49 60//62
f 60//62 47//49 43//41
f 55//56 49//52 56//57
f 43//41 61//63 60//62
f 49//52 51//54 63//64
f 62//65 49//52 63//64
f 44//42 63//66 50//53
f 63//66 44//42 60//62
f 58//67 57//59 53//58
f 57//59 58//67 64//68
f 66//69 67//70 68//71
f 69//72 64//68 58//67
f 56//57 66//69 54//55
f 53//58 65//73 58//67
f 67//70 66//69 56//57
f 67//70 56//57 62//65
f 60//62 70//74 63//66
f 71//75 60//62 61//63
f 71//75 70//74 60//62
f 72//76 67//70 62//65
f 73//77 68//71 67//70
f 74//78 64//68 69//72
f 62//65 63//64 72//76
f 75//79 64//68 74//78
f 76//80 71//81 75//82
f 77//83 70//74 71//75
f 83//84 67//70 72//76
f 84//85 77//83 71//75
f 80//86 85//87 72//88
f 78//89 88//90 79//91
f 89//92 90//93 91//94
f 75//79 74//78 92//95
f 72//88 85//87 95//96
f 84//85 96//97 77//83
f 97//98 93//99 94//100
l 98 99
l 81 82
l 86 87
