# Blender v2.78 (sub 0) OBJ File: 'exporter.blend'
# www.blender.org
o FJ2645.obj_grp1.1346
v 0.198085 -0.801770 5.745428
v 0.199490 -0.803247 5.745110
v 0.212343 -0.795230 5.745970
v 0.197891 -0.801740 5.745193
v 0.199907 -0.802303 5.746158
v 0.199556 -0.802841 5.745882
v 0.199740 -0.801276 5.746109
v 0.199536 -0.801580 5.744766
v 0.199421 -0.803153 5.745188
v 0.199471 -0.803343 5.746064
v 0.199514 -0.803564 5.746308
v 0.199941 -0.802311 5.747504
v 0.203675 -0.799801 5.748005
v 0.205993 -0.800848 5.747066
v 0.199349 -0.801788 5.746690
v 0.198884 -0.801407 5.745180
v 0.205993 -0.800848 5.747066
v 0.216281 -0.793388 5.746640
v 0.211627 -0.796045 5.749695
v 0.218035 -0.791453 5.751997
v 0.208577 -0.794046 5.747760
v 0.211627 -0.796045 5.749695
v 0.209077 -0.795083 5.747253
v 0.220989 -0.788253 5.749115
v 0.220821 -0.786039 5.751185
v 0.216204 -0.793274 5.746912
v 0.220299 -0.792382 5.751245
v 0.220345 -0.788238 5.753263
v 0.227310 -0.785107 5.752336
v 0.215185 -0.790936 5.750117
v 0.221059 -0.786637 5.751150
v 0.226193 -0.779938 5.759037
v 0.230914 -0.782278 5.757950
v 0.225711 -0.783898 5.758283
v 0.226193 -0.779938 5.759037
v 0.227741 -0.782545 5.753622
v 0.229427 -0.781238 5.755274
v 0.230812 -0.781717 5.758615
v 0.226193 -0.779938 5.759037
v 0.230427 -0.778975 5.758474
v 0.233809 -0.769462 5.770715
v 0.234562 -0.773361 5.769448
v 0.227566 -0.779145 5.763478
v 0.226193 -0.779938 5.759037
v 0.225688 -0.783839 5.758333
v 0.230774 -0.768770 5.772527
v 0.233164 -0.773340 5.775006
v 0.233073 -0.765939 5.779146
v 0.226193 -0.779938 5.759037
v 0.230739 -0.769715 5.774055
v 0.234251 -0.764978 5.773638
v 0.238797 -0.757018 5.782463
v 0.238873 -0.766076 5.777658
v 0.238064 -0.759910 5.775421
v 0.238064 -0.759910 5.775421
v 0.240379 -0.744982 5.780867
v 0.241627 -0.743487 5.784831
v 0.241267 -0.744439 5.785717
v 0.245980 -0.743526 5.785750
v 0.243239 -0.744404 5.778520
v 0.240379 -0.744982 5.780867
v 0.242707 -0.739076 5.781290
v 0.249318 -0.740427 5.784200
v 0.246131 -0.745483 5.778981
v 0.245980 -0.743526 5.785750
v 0.246134 -0.745442 5.779036
v 0.243239 -0.744404 5.778520
v 0.247053 -0.740273 5.780539
v 0.245014 -0.738847 5.787644
v 0.242707 -0.739076 5.781290
v 0.240531 -0.736217 5.787138
v 0.240379 -0.744982 5.780867
v 0.240376 -0.735869 5.785790
v 0.241058 -0.738634 5.780918
v 0.245212 -0.738954 5.788097
v 0.244437 -0.735771 5.789740
v 0.247256 -0.735886 5.789678
v 0.242028 -0.728036 5.789611
v 0.245855 -0.727694 5.785932
v 0.242707 -0.739076 5.781290
v 0.242608 -0.731034 5.791477
v 0.244425 -0.719998 5.801188
v 0.248945 -0.719681 5.798700
v 0.244646 -0.716279 5.794891
v 0.241774 -0.720603 5.799360
vn 0.1621 0.0572 -0.9851
vn 0.2787 -0.4472 -0.8499
vn -0.0066 0.2230 -0.9748
vn -0.8096 -0.0890 0.5803
vn -0.7497 -0.0711 0.6579
vn -0.9856 0.1051 0.1328
vn -0.4870 -0.5164 0.7044
vn -0.4731 -0.5355 0.6996
vn -0.4822 -0.5244 0.7017
vn -0.3996 -0.0992 0.9113
vn 0.2201 -0.6760 0.7032
vn 0.1842 -0.7108 0.6789
vn 0.2100 -0.6980 0.6846
vn 0.4461 -0.7536 -0.4828
vn 0.3429 -0.9328 -0.1109
vn 0.5269 -0.5159 -0.6754
vn 0.1470 -0.6010 0.7856
vn -0.6490 0.6951 0.3093
vn -0.5886 0.6621 0.4638
vn -0.4650 0.4945 0.7343
vn -0.1731 -0.2863 0.9424
vn -0.0870 -0.2348 0.9681
vn 0.5458 -0.8142 0.1982
vn 0.1374 0.3543 -0.9250
vn -0.0304 0.3227 -0.9460
vn -0.1883 0.7633 -0.6180
vn -0.1466 0.5936 -0.7913
vn -0.7882 0.2681 0.5540
vn 0.6737 -0.0983 -0.7324
vn -0.5050 0.8041 -0.3135
vn -0.5069 0.7961 -0.3305
vn -0.5185 0.7881 -0.3317
vn 0.3699 -0.8449 0.3865
vn -0.1748 -0.6064 0.7757
vn -0.6557 -0.0607 0.7526
vn 0.8410 0.0237 -0.5406
vn 0.9311 0.0209 -0.3641
vn -0.3383 0.7932 -0.5064
vn -0.3608 0.7971 -0.4842
vn 0.1761 0.7380 -0.6514
vn 0.2682 0.5844 -0.7659
vn 0.2557 0.6797 -0.6874
vn -0.9037 -0.0860 0.4194
vn -0.9555 0.0090 0.2948
vn -0.9566 0.0739 0.2817
vn -0.7430 0.6545 -0.1400
vn -0.0287 -0.7163 0.6972
vn 0.0476 -0.5141 0.8564
vn -0.9621 0.2411 0.1271
vn -0.8520 0.5148 0.0950
vn -0.6325 0.6553 -0.4130
vn 0.1544 -0.3127 0.9372
vn 0.8457 -0.4658 0.2603
vn 0.5700 -0.0265 -0.8212
vn -0.1834 0.2754 -0.9437
vn -0.9358 0.3044 0.1775
vn -0.8730 -0.1215 0.4724
vn -0.9205 0.3246 0.2173
vn 0.0088 -0.3079 0.9514
vn 0.0397 -0.2775 0.9599
vn -0.9601 0.1902 0.2052
vn -0.5581 0.3523 -0.7513
vn -0.6350 0.3670 -0.6798
vn -0.6419 0.3045 -0.7038
vn 0.9954 -0.0956 -0.0020
vn 0.7761 -0.0869 -0.6246
vn 0.6317 -0.4826 0.6067
vn 0.9373 -0.2268 -0.2647
vn 0.1351 0.2450 -0.9601
vn 0.4465 0.3136 -0.8380
vn -0.1708 -0.4319 0.8856
vn -0.0457 0.4263 -0.9034
vn -0.5388 -0.4555 0.7087
vn -0.9745 0.1060 -0.1978
vn -0.5419 0.7165 -0.4392
vn -0.9579 0.1208 -0.2603
vn -0.4561 -0.2792 0.8450
vn -0.4424 -0.4671 0.7656
vn 0.3568 -0.5383 0.7635
vn -0.9377 0.1347 -0.3203
vn 0.1638 0.5753 -0.8014
vn -0.6393 0.4350 -0.6340
vn -0.8243 -0.3131 0.4717
vn 0.8189 0.3344 0.4664
vn -0.0622 0.1982 0.9782
vn -0.1023 0.9625 -0.2513
vn -0.8515 0.1311 0.5078
s 1
f 3//1 2//2 1//3
f 6//4 7//5 8//6
f 5//7 4//8 9//9
f 7//5 6//4 13//10
f 14//11 12//12 11//13
f 2//2 17//14 10//15
f 18//16 2//2 3//1
f 14//11 19//17 12//12
f 16//18 15//19 21//20
f 20//21 21//20 15//19
f 20//21 15//19 22//22
f 18//16 17//14 2//2
f 27//23 17//14 18//16
f 1//3 24//24 3//1
f 23//25 24//24 1//3
f 24//24 23//25 25//26
f 20//21 19//17 14//11
f 26//27 3//1 24//24
f 27//23 20//21 14//11
f 21//20 20//21 28//28
f 29//29 18//16 26//27
f 29//29 27//23 18//16
f 31//30 30//31 32//32
f 29//29 26//27 24//24
f 33//33 27//23 29//29
f 34//34 35//35 28//28
f 20//21 27//23 34//34
f 28//28 20//21 34//34
f 24//24 37//36 29//29
f 29//29 37//36 38//37
f 34//34 27//23 33//33
f 36//38 24//24 25//26
f 36//38 25//26 39//39
f 40//40 36//38 41//41
f 37//36 42//42 38//37
f 43//43 44//44 45//45
f 41//41 36//38 46//46
f 34//34 33//33 47//47
f 34//34 47//47 43//43
f 43//43 48//48 44//44
f 46//46 36//38 39//39
f 49//49 50//50 46//46
f 47//47 48//48 43//43
f 46//46 51//51 41//41
f 48//48 47//47 52//52
f 53//53 33//33 42//42
f 47//47 33//33 53//53
f 42//42 37//36 41//41
f 42//42 41//41 53//53
f 52//52 47//47 53//53
f 46//46 50//50 51//51
f 51//51 54//54 41//41
f 55//55 51//51 50//50
f 41//41 54//54 53//53
f 48//56 57//57 50//58
f 58//59 48//48 52//52
f 52//52 59//60 58//59
f 56//61 50//58 57//57
f 60//62 50//50 61//63
f 50//50 60//62 55//55
f 61//63 62//64 60//62
f 63//65 52//52 53//53
f 53//53 54//54 64//66
f 52//52 63//65 65//67
f 66//68 53//53 64//66
f 64//66 54//54 67//69
f 64//66 67//69 68//70
f 63//65 53//53 66//68
f 58//59 59//60 69//71
f 68//70 67//69 70//72
f 63//65 66//68 68//70
f 57//57 71//73 56//61
f 72//74 73//75 74//76
f 57//57 75//77 71//73
f 71//73 75//77 76//78
f 69//71 59//60 77//79
f 65//67 63//65 77//79
f 78//80 79//81 80//82
f 70//72 79//81 68//70
f 73//75 81//83 74//76
f 79//81 83//84 63//65
f 71//73 76//78 81//83
f 81//83 76//78 82//85
f 82//85 69//71 77//79
f 77//79 63//65 83//84
f 78//80 84//86 79//81
f 74//76 81//83 78//80
f 81//83 85//87 78//80
f 82//85 85//87 81//83
f 82//85 77//79 83//84
f 85//87 84//86 78//80
f 83//84 79//81 84//86
f 85//87 82//85 84//86
f 82//85 83//84 84//86
f 63//65 68//70 79//81
