# Blender v2.78 (sub 0) OBJ File: 'exporter.blend'
# www.blender.org
o FJ2644.obj_grp1.1345
v 0.135574 -0.799801 5.841850
v 0.134919 -0.799923 5.842861
v 0.135574 -0.799801 5.841850
v 0.135012 -0.799674 5.842832
v 0.135632 -0.799818 5.843749
v 0.138547 -0.801995 5.842859
v 0.136522 -0.801345 5.841934
v 0.135752 -0.799679 5.842126
v 0.140761 -0.799336 5.841312
v 0.136863 -0.798094 5.841188
v 0.137021 -0.797562 5.842842
v 0.138390 -0.798195 5.841897
v 0.149658 -0.793895 5.849409
v 0.148719 -0.798458 5.847530
v 0.150620 -0.796037 5.847333
v 0.136639 -0.801682 5.842797
v 0.136670 -0.798087 5.842898
v 0.142263 -0.800470 5.845753
v 0.149348 -0.798275 5.850066
v 0.149145 -0.794651 5.851436
v 0.148867 -0.796170 5.846845
v 0.148719 -0.796045 5.846592
v 0.152572 -0.796965 5.851577
v 0.149658 -0.793895 5.849409
v 0.151535 -0.798050 5.849409
v 0.151535 -0.798050 5.849409
v 0.152860 -0.796984 5.848376
v 0.154012 -0.795022 5.847578
v 0.162803 -0.793228 5.846639
v 0.163083 -0.790333 5.848526
v 0.162146 -0.794336 5.847108
v 0.162605 -0.790658 5.850329
v 0.163726 -0.792589 5.851775
v 0.161864 -0.790975 5.850348
v 0.162805 -0.795653 5.849427
v 0.162808 -0.793233 5.846615
v 0.162146 -0.794336 5.847108
v 0.165067 -0.794204 5.847533
v 0.165074 -0.794138 5.847563
v 0.174492 -0.785149 5.848282
v 0.165619 -0.791350 5.851944
v 0.173262 -0.789319 5.852252
v 0.180039 -0.784264 5.849551
v 0.172162 -0.787660 5.853404
v 0.173329 -0.789238 5.852225
v 0.176361 -0.784304 5.848811
v 0.180193 -0.779919 5.847848
v 0.177626 -0.780178 5.853148
v 0.177534 -0.786670 5.851240
v 0.181066 -0.781539 5.854060
v 0.181681 -0.783739 5.852080
v 0.181645 -0.783689 5.852038
v 0.195803 -0.777109 5.844838
v 0.195433 -0.775395 5.840011
v 0.184492 -0.778083 5.845888
v 0.194840 -0.770225 5.844455
v 0.203204 -0.766734 5.841764
v 0.199281 -0.768994 5.836431
v 0.198841 -0.765600 5.838769
v 0.202464 -0.771594 5.840088
v 0.202247 -0.768836 5.837179
v 0.202288 -0.766602 5.838132
v 0.203561 -0.768750 5.840019
v 0.201722 -0.764863 5.840481
v 0.203561 -0.768750 5.840019
vn -0.0180 -0.9992 0.0361
vn -0.7035 -0.6689 -0.2402
vn -0.3983 -0.7810 -0.4810
vn -0.7256 -0.4607 -0.5111
vn -0.2075 0.0947 -0.9736
vn 0.3891 -0.0360 -0.9205
vn -0.7613 0.5415 -0.3568
vn -0.5956 0.7629 -0.2514
vn -0.8041 0.3630 -0.4708
vn -0.3438 0.9151 -0.2105
vn -0.0349 0.3946 -0.9182
vn -0.0361 0.7016 -0.7117
vn 0.4368 -0.7594 -0.4823
vn 0.3470 -0.5404 -0.7665
vn -0.1796 -0.5337 0.8264
vn -0.5954 -0.0993 0.7973
vn -0.5747 -0.6059 0.5501
vn -0.5987 0.6168 0.5109
vn -0.5738 0.5927 0.5651
vn -0.1191 -0.6744 0.7287
vn 0.2047 -0.9648 0.1653
vn -0.2481 -0.2579 0.9338
vn 0.0862 0.7230 -0.6855
vn 0.3042 0.5140 -0.8021
vn 0.0373 -0.5728 0.8188
vn -0.3081 0.9242 0.2256
vn -0.2942 0.9437 0.1511
vn 0.1713 -0.9505 0.2592
vn 0.2286 -0.6853 -0.6915
vn 0.0680 -0.6814 -0.7288
vn -0.1611 0.6177 -0.7698
vn -0.4044 0.7814 -0.4752
vn -0.2081 0.5511 -0.8081
vn 0.1274 -0.4690 -0.8739
vn -0.3696 0.7983 0.4756
vn 0.0206 -0.1369 0.9904
vn -0.1948 0.6153 0.7638
vn 0.2044 -0.9690 0.1390
vn 0.2454 -0.4602 -0.8532
vn 0.1402 -0.8250 -0.5474
vn 0.4466 -0.8793 -0.1657
vn 0.2420 -0.2870 -0.9269
vn -0.3250 0.3150 0.8917
vn 0.4839 -0.8084 0.3352
vn 0.3863 -0.8001 -0.4589
vn 0.1768 -0.1271 -0.9760
vn -0.1023 -0.1563 0.9824
vn 0.5607 -0.8197 0.1171
vn 0.1010 -0.1595 -0.9820
vn -0.5663 0.6090 -0.5553
vn -0.3842 0.7185 0.5797
vn 0.5566 -0.8266 0.0835
vn 0.2672 0.0249 0.9633
vn 0.4008 -0.8198 0.4089
vn 0.2724 -0.8884 -0.3696
vn 0.6261 -0.7288 0.2772
vn 0.1309 -0.6714 -0.7294
vn -0.6157 0.6750 -0.4067
vn -0.3853 0.8759 0.2905
vn 0.6218 0.4906 0.6105
vn -0.2058 0.1119 -0.9722
vn -0.4705 0.8466 -0.2488
vn 0.7929 -0.6047 -0.0750
vn 0.5913 -0.1371 -0.7947
vn 0.5188 0.7006 -0.4899
vn 0.9935 0.0216 0.1116
vn -0.1922 0.6990 0.6888
vn 0.8554 -0.3424 -0.3886
s 1
f 6//1 2//2 7//3
f 2//2 1//4 7//3
f 7//3 8//5 9//6
f 4//7 10//8 3//9
f 10//8 4//7 11//10
f 9//6 8//5 12//11
f 7//3 9//6 6//1
f 13//12 9//6 12//11
f 14//13 6//1 15//14
f 15//14 6//1 9//6
f 16//15 5//16 2//17
f 4//18 5//16 17//19
f 16//15 6//1 5//16
f 18//20 5//16 6//1
f 6//1 19//21 18//20
f 6//1 14//13 19//21
f 18//20 20//22 5//16
f 9//6 13//12 21//23
f 9//6 22//24 15//14
f 20//22 17//19 5//16
f 23//25 20//22 18//20
f 11//10 20//26 24//27
f 11//10 24//27 10//8
f 14//13 25//28 19//21
f 26//29 14//13 15//14
f 26//29 15//14 27//30
f 19//21 25//28 23//25
f 28//31 21//23 13//12
f 30//32 29//33 13//12
f 30//32 24//27 20//26
f 13//12 29//33 28//31
f 27//30 15//14 31//34
f 30//32 20//26 32//35
f 33//36 20//22 23//25
f 33//36 34//37 20//22
f 35//38 33//36 23//25
f 31//34 15//14 36//39
f 37//40 26//29 27//30
f 25//28 35//38 23//25
f 37//40 35//38 26//29
f 38//41 35//38 37//40
f 39//42 31//34 36//39
f 41//43 34//37 33//36
f 35//38 42//44 33//36
f 32//35 34//37 41//43
f 39//42 36//39 43//45
f 43//45 36//39 40//46
f 43//45 35//38 38//41
f 44//47 33//36 42//44
f 35//38 45//48 42//44
f 29//33 30//32 46//49
f 46//49 30//32 47//50
f 30//32 32//35 48//51
f 48//51 32//35 41//43
f 41//43 44//47 48//51
f 35//38 43//45 49//52
f 40//46 46//49 43//45
f 35//38 49//52 45//48
f 49//52 50//53 45//48
f 42//44 50//53 44//47
f 50//53 48//51 44//47
f 49//52 51//54 50//53
f 48//51 47//50 30//32
f 52//55 49//52 43//45
f 53//56 52//55 43//45
f 51//54 52//55 53//56
f 54//57 53//56 43//45
f 46//49 47//50 55//58
f 56//59 47//50 48//51
f 50//53 56//59 48//51
f 54//57 43//45 46//49
f 56//59 50//53 57//60
f 53//56 50//53 51//54
f 57//60 50//53 53//56
f 58//61 54//57 46//49
f 46//49 55//58 58//61
f 58//61 47//50 56//59
f 59//62 58//61 56//59
f 54//57 60//63 53//56
f 61//64 54//57 58//61
f 60//63 54//57 61//64
f 61//64 58//61 62//65
f 57//60 53//56 60//63
f 61//64 62//65 63//66
f 57//60 64//67 56//59
f 59//62 56//59 64//67
f 62//65 58//61 59//62
f 62//65 59//62 57//60
f 60//63 63//66 57//60
f 65//68 60//63 61//64
f 57//60 63//66 62//65
