# Blender v2.78 (sub 0) OBJ File: 'exporter.blend'
# www.blender.org
o FJ2624.obj_grp1.1325
v 0.110387 -0.845635 4.633447
v 0.125538 -0.849274 4.594006
v 0.093529 -0.815744 4.639193
v 0.086162 -0.765472 4.558615
v 0.111233 -0.844480 4.549107
v 0.141092 -0.855930 4.561724
v 0.130291 -0.845826 4.540326
v 0.156231 -0.846024 4.638138
v 0.177837 -0.832639 4.589678
v 0.129823 -0.838101 4.657820
v 0.159795 -0.814457 4.663014
v 0.116132 -0.783149 4.529752
v 0.112867 -0.777600 4.655261
v 0.089266 -0.749268 4.555880
v 0.093082 -0.762712 4.592549
v 0.115279 -0.753357 4.636670
v 0.088821 -0.748998 4.556282
v 0.101497 -0.736105 4.559223
v 0.135433 -0.737554 4.614131
v 0.161300 -0.822460 4.532195
v 0.186619 -0.819320 4.559886
v 0.167706 -0.822123 4.652055
v 0.142999 -0.760140 4.652096
v 0.139382 -0.744413 4.541831
v 0.142999 -0.760140 4.652096
v 0.112867 -0.777600 4.655261
v 0.115279 -0.753357 4.636670
v 0.190786 -0.800092 4.592540
v 0.177502 -0.747404 4.567413
v 0.168727 -0.743080 4.603285
v 0.156459 -0.729637 4.572989
vn -0.2390 -0.9702 0.0403
vn -0.5502 -0.8170 0.1726
vn -0.8666 -0.2235 0.4462
vn -0.9589 0.0261 -0.2825
vn -0.6311 -0.6495 -0.4240
vn -0.0637 -0.6450 -0.7615
vn 0.2021 -0.9734 -0.1080
vn 0.4286 -0.8616 0.2721
vn 0.7080 -0.7057 0.0275
vn -0.1373 -0.6005 0.7877
vn -0.3363 0.0903 -0.9374
vn -0.5406 0.1671 0.8245
vn 0.4787 -0.0092 0.8779
vn -0.7441 0.6362 0.2040
vn -0.8539 0.4512 0.2594
vn -0.9363 0.3455 -0.0634
vn -0.5502 0.1629 -0.8190
vn 0.4625 -0.2802 -0.8412
vn 0.8589 -0.3099 -0.4077
vn 0.7852 -0.2749 0.5548
vn 0.4236 0.6653 0.6148
vn -0.0095 0.1942 0.9809
vn -0.2703 0.6027 0.7508
vn -0.1798 0.7398 0.6484
vn -0.3078 0.9050 0.2935
vn 0.1822 0.5772 -0.7960
vn -0.4522 0.8557 -0.2516
vn 0.9926 0.0027 0.1214
vn 0.8071 0.4974 -0.3181
vn 0.6748 0.6616 0.3272
vn 0.2831 0.9513 -0.1218
s 1
f 2//1 1//2 3//3
f 3//3 4//4 5//5
f 7//6 6//7 5//5
f 5//5 6//7 2//1
f 2//1 8//8 1//2
f 9//9 8//8 2//1
f 1//2 8//8 10//10
f 7//6 5//5 12//11
f 3//3 5//5 2//1
f 3//3 1//2 10//10
f 10//10 13//12 3//3
f 10//10 11//13 13//12
f 13//12 16//14 15//15
f 17//16 14//17 4//4
f 5//5 4//4 12//11
f 4//4 14//17 12//11
f 15//15 17//16 4//4
f 4//4 3//3 15//15
f 15//15 3//3 13//12
f 7//6 20//18 6//7
f 20//18 21//19 6//7
f 2//1 6//7 9//9
f 9//9 22//20 8//8
f 8//8 11//13 10//10
f 22//20 11//13 8//8
f 20//18 7//6 12//11
f 11//13 22//20 23//21
f 25//22 13//12 11//13
f 26//23 23//21 27//24
f 27//24 23//21 19//25
f 24//26 14//17 18//27
f 14//17 24//26 12//11
f 17//16 15//15 18//27
f 16//14 19//25 15//15
f 15//15 19//25 18//27
f 21//19 9//9 6//7
f 9//9 28//28 22//20
f 20//18 12//11 24//26
f 24//26 29//29 20//18
f 22//20 30//30 23//21
f 24//26 18//27 31//31
f 18//27 19//25 31//31
f 30//30 19//25 23//21
f 30//30 31//31 19//25
f 21//19 28//28 9//9
f 21//19 29//29 28//28
f 20//18 29//29 21//19
f 28//28 30//30 22//20
f 29//29 30//30 28//28
f 31//31 29//29 24//26
f 31//31 30//30 29//29
