# Blender v2.78 (sub 0) OBJ File: 'exporter.blend'
# www.blender.org
o FJ2616.obj_grp1.1317
v -0.208437 -0.816565 4.657067
v -0.238315 -0.763232 4.652554
v -0.227523 -0.784753 4.631660
v -0.217102 -0.772008 4.694953
v -0.198204 -0.796428 4.604167
v -0.208963 -0.725593 4.711432
v -0.185044 -0.728814 4.615147
v -0.224514 -0.725127 4.664241
v -0.182452 -0.750469 4.740769
v -0.189612 -0.711403 4.691996
v -0.182727 -0.819957 4.618242
v -0.166697 -0.827038 4.638707
v -0.169623 -0.817805 4.672034
v -0.208175 -0.751953 4.609482
v -0.179901 -0.759892 4.596024
v -0.141298 -0.798387 4.747875
v -0.140171 -0.721566 4.749559
v -0.146044 -0.809159 4.612532
v -0.171720 -0.795671 4.597707
v -0.130950 -0.739680 4.663718
v -0.063167 -0.721196 4.736888
v -0.120065 -0.778398 4.619363
v -0.124674 -0.806378 4.633715
v -0.127697 -0.801329 4.661898
v -0.090042 -0.823393 4.734323
v -0.127381 -0.751358 4.772828
v -0.127521 -0.745766 4.667536
v -0.076783 -0.719704 4.705859
v -0.107387 -0.725022 4.694223
v -0.085704 -0.824563 4.701001
v -0.115502 -0.777025 4.659094
v -0.093082 -0.815241 4.679674
v -0.083108 -0.796440 4.662192
v -0.084534 -0.801547 4.764675
v -0.109258 -0.781445 4.662016
v -0.116157 -0.763732 4.659852
v -0.112411 -0.766426 4.662950
v -0.113000 -0.762759 4.664233
v -0.088692 -0.764525 4.661851
v -0.073117 -0.774525 4.771852
v -0.074709 -0.735809 4.761457
v -0.086988 -0.746784 4.668744
v -0.049496 -0.818530 4.731945
v -0.040011 -0.805248 4.629739
v -0.034704 -0.747685 4.631019
v -0.035146 -0.797179 4.745907
v -0.043603 -0.761279 4.571214
v -0.055887 -0.811427 4.560219
v -0.044413 -0.775548 4.629683
v -0.021667 -0.756169 4.739621
v -0.017121 -0.720372 4.661382
v -0.017121 -0.720372 4.661382
v -0.039207 -0.840395 4.565037
v -0.019625 -0.838330 4.543182
v -0.038432 -0.818783 4.535289
v -0.050179 -0.821288 4.592789
v -0.010120 -0.829403 4.623385
v 0.016101 -0.828431 4.623947
v -0.008589 -0.820254 4.527413
v -0.010593 -0.783441 4.525757
v -0.028177 -0.820546 4.627082
v -0.007629 -0.727799 4.601407
v -0.002223 -0.719082 4.624406
v 0.028683 -0.724157 4.620327
v 0.039805 -0.817133 4.616990
v 0.055007 -0.791180 4.623153
v 0.016365 -0.777179 4.536848
v -0.000945 -0.721316 4.625102
v 0.043406 -0.735962 4.636790
v 0.018822 -0.806166 4.545702
v 0.054507 -0.787825 4.598745
v 0.057453 -0.753366 4.620314
vn -0.5669 -0.8186 0.0925
vn -0.9969 0.0134 -0.0770
vn -0.8521 -0.3372 -0.4003
vn -0.7927 -0.3254 0.5156
vn -0.6638 0.5240 0.5337
vn -0.7131 0.6971 -0.0743
vn -0.5973 0.0181 0.8018
vn -0.0917 0.9952 -0.0337
vn -0.2238 -0.8256 -0.5179
vn 0.1561 -0.9873 -0.0287
vn -0.6102 0.3333 -0.7187
vn -0.4907 -0.3623 -0.7924
vn 0.0088 0.2582 -0.9661
vn -0.3822 -0.6127 0.6917
vn 0.0571 0.8077 -0.5869
vn -0.1921 0.7760 0.6008
vn -0.2633 0.1195 0.9573
vn 0.4297 -0.5856 -0.6873
vn 0.1043 -0.9942 -0.0272
vn 0.0951 -0.2838 -0.9541
vn 0.6157 0.6734 -0.4092
vn 0.2527 0.8707 0.4219
vn 0.8222 0.1101 -0.5584
vn 0.7583 -0.6360 -0.1428
vn 0.4989 -0.7657 -0.4060
vn -0.0459 -0.9355 0.3503
vn -0.0506 0.9736 -0.2224
vn 0.1279 0.7607 -0.6364
vn -0.1310 -0.9766 -0.1704
vn 0.7880 -0.0126 -0.6155
vn -0.0644 -0.8238 -0.5631
vn -0.3659 -0.2743 -0.8893
vn 0.0319 -0.5815 0.8129
vn 0.1354 -0.0440 -0.9898
vn 0.9303 0.3472 -0.1184
vn 0.1861 0.2905 -0.9386
vn 0.0122 0.2000 -0.9797
vn -0.0274 0.1901 -0.9814
vn 0.2572 -0.0338 0.9658
vn 0.6982 0.4371 -0.5670
vn 0.2578 0.5839 0.7698
vn -0.2438 0.5514 -0.7978
vn -0.8880 -0.3964 -0.2329
vn -0.9104 0.1695 -0.3775
vn 0.3195 -0.8496 0.4196
vn 0.5888 -0.4182 0.6917
vn -0.7151 0.6080 -0.3450
vn -0.9487 -0.0806 -0.3058
vn -0.6970 0.6401 -0.3232
vn 0.6920 0.2733 0.6682
vn -0.4928 0.7758 -0.3940
vn 0.1494 0.9848 0.0886
vn 0.0718 -0.8981 -0.4338
vn -0.4231 -0.9043 -0.0570
vn -0.6386 -0.2022 -0.7425
vn -0.5902 -0.8068 -0.0275
vn -0.8091 -0.5067 0.2975
vn -0.0960 -0.9923 0.0786
vn 0.2987 -0.9420 0.1528
vn -0.1082 0.4044 -0.9082
vn -0.2276 0.8886 -0.3982
vn -0.6741 0.7194 -0.1674
vn 0.4513 0.8646 -0.2209
vn 0.2249 -0.4224 -0.8781
vn 0.6975 -0.7127 0.0744
vn 0.9153 -0.3147 0.2513
vn 0.5336 0.4130 -0.7380
vn 0.0846 0.9885 -0.1254
vn 0.7629 0.5723 0.3009
vn 0.7156 -0.4658 -0.5206
vn 0.9337 -0.1925 -0.3020
vn 0.9424 0.3318 -0.0412
s 1
f 1//1 2//2 3//3
f 4//4 2//2 1//1
f 2//2 4//4 6//5
f 6//5 8//6 2//2
f 6//5 4//4 9//7
f 8//6 6//5 10//8
f 1//1 3//3 11//9
f 11//9 12//10 1//1
f 2//2 14//11 3//3
f 5//12 3//3 14//11
f 14//11 15//13 5//12
f 4//4 16//14 9//7
f 1//1 16//14 4//4
f 7//15 14//11 8//6
f 8//6 14//11 2//2
f 8//6 10//8 7//15
f 6//5 17//16 10//8
f 9//7 26//17 6//5
f 18//18 12//10 11//9
f 12//10 13//19 1//1
f 11//9 3//3 5//12
f 11//9 5//12 19//20
f 19//20 5//12 15//13
f 7//15 15//13 14//11
f 20//21 7//15 10//8
f 10//8 17//16 21//22
f 6//5 26//17 17//16
f 11//9 19//20 18//18
f 18//18 19//20 22//23
f 18//18 23//24 12//10
f 12//10 24//25 13//19
f 13//19 25//26 1//1
f 15//13 22//23 19//20
f 26//17 9//7 16//14
f 7//15 22//23 15//13
f 7//15 20//21 22//23
f 10//8 21//22 28//27
f 29//28 10//8 28//27
f 30//29 25//26 13//19
f 24//25 12//10 23//24
f 31//30 24//25 23//24
f 24//25 32//31 13//19
f 24//25 33//32 32//31
f 32//31 30//29 13//19
f 1//1 25//26 16//14
f 34//33 26//17 16//14
f 34//33 16//14 25//26
f 18//18 22//23 23//24
f 31//30 35//34 24//25
f 23//24 22//23 31//30
f 36//35 31//30 22//23
f 31//30 37//36 35//34
f 38//37 39//38 35//34
f 33//32 24//25 35//34
f 34//33 40//39 26//17
f 36//35 20//21 27//40
f 22//23 20//21 36//35
f 27//40 37//36 31//30
f 37//36 27//40 38//37
f 38//37 27//40 39//38
f 26//17 41//41 17//16
f 40//39 41//41 26//17
f 10//8 29//28 20//21
f 29//28 27//40 20//21
f 29//28 42//42 27//40
f 21//22 17//16 41//41
f 44//43 33//32 49//44
f 44//43 32//31 33//32
f 43//45 34//33 25//26
f 33//32 35//34 39//38
f 49//44 33//32 42//42
f 39//38 27//40 42//42
f 30//29 32//31 44//43
f 34//33 43//45 46//46
f 47//47 48//48 49//44
f 42//42 45//49 49//44
f 34//33 46//46 40//39
f 50//50 41//41 40//39
f 50//50 40//39 46//46
f 42//42 28//27 51//51
f 52//52 28//27 21//22
f 29//28 28//27 42//42
f 54//53 53//54 55//55
f 61//56 56//57 53//54
f 61//56 53//54 57//58
f 57//58 25//26 30//29
f 58//59 25//26 57//58
f 48//48 55//55 53//54
f 48//48 56//57 49//44
f 48//48 53//54 56//57
f 48//48 47//47 55//55
f 49//44 56//57 44//43
f 44//43 56//57 61//56
f 61//56 57//58 30//29
f 61//56 30//29 44//43
f 25//26 58//59 43//45
f 47//47 60//60 55//55
f 60//60 47//47 62//61
f 49//44 45//49 47//47
f 45//49 63//62 47//47
f 42//42 51//51 45//49
f 63//62 45//49 51//51
f 52//52 21//22 64//63
f 50//50 21//22 41//41
f 55//55 59//64 54//53
f 54//53 58//59 53//54
f 58//59 57//58 53//54
f 58//59 54//53 65//65
f 60//60 59//64 55//55
f 65//65 43//45 58//59
f 66//66 46//46 65//65
f 66//66 50//50 46//46
f 67//67 60//60 62//61
f 62//61 47//47 63//62
f 64//63 62//61 68//68
f 68//68 52//52 64//63
f 21//22 69//69 64//63
f 54//53 59//64 70//70
f 54//53 70//70 65//65
f 71//71 65//65 70//70
f 65//65 46//46 43//45
f 59//64 60//60 67//67
f 67//67 70//70 59//64
f 70//70 67//67 71//71
f 66//66 72//72 50//50
f 64//63 67//67 62//61
f 64//63 72//72 67//67
f 69//69 21//22 50//50
f 65//65 71//71 66//66
f 72//72 71//71 67//67
f 69//69 50//50 72//72
f 66//66 71//71 72//72
f 72//72 64//63 69//69
