# Blender v2.78 (sub 0) OBJ File: 'exporter.blend'
# www.blender.org
o FJ2640.obj_grp1.1341
v 0.318699 -0.694494 5.539399
v 0.319328 -0.696400 5.541019
v 0.323559 -0.696574 5.547194
v 0.319578 -0.695163 5.542539
v 0.318807 -0.692824 5.541538
v 0.318437 -0.686965 5.538327
v 0.321455 -0.694773 5.543289
v 0.318643 -0.690854 5.540726
v 0.318596 -0.694446 5.543048
v 0.319792 -0.697070 5.541221
v 0.317924 -0.690573 5.540471
v 0.320808 -0.695420 5.540503
v 0.317838 -0.686539 5.539117
v 0.318560 -0.694216 5.541668
v 0.317293 -0.686335 5.538093
v 0.321399 -0.695019 5.541423
v 0.328684 -0.697655 5.548999
v 0.328383 -0.699018 5.553998
v 0.329058 -0.699098 5.555339
v 0.322031 -0.696381 5.544612
v 0.318428 -0.686588 5.539018
v 0.316878 -0.687172 5.537732
v 0.316913 -0.686514 5.538297
v 0.317195 -0.684770 5.539170
v 0.317726 -0.687130 5.537075
v 0.317581 -0.685817 5.538229
v 0.316786 -0.686191 5.538436
v 0.317380 -0.686348 5.537903
v 0.318016 -0.685750 5.538480
v 0.317726 -0.685947 5.537685
v 0.330263 -0.700291 5.556580
v 0.328697 -0.698298 5.549831
v 0.330834 -0.701716 5.554399
v 0.332589 -0.705033 5.559239
v 0.331857 -0.701321 5.558295
v 0.329281 -0.696346 5.553180
v 0.330763 -0.696049 5.552635
v 0.320940 -0.697111 5.543377
v 0.328226 -0.698481 5.550877
v 0.330568 -0.698060 5.552816
v 0.330821 -0.698794 5.552915
v 0.329070 -0.694998 5.551248
v 0.321481 -0.694768 5.543319
v 0.332265 -0.699033 5.555191
v 0.331838 -0.717048 5.563747
v 0.331641 -0.714358 5.563976
v 0.334355 -0.718079 5.563396
v 0.332108 -0.717457 5.564090
v 0.332185 -0.706960 5.557302
v 0.333993 -0.717551 5.563244
v 0.336040 -0.717067 5.564748
v 0.336071 -0.717175 5.564914
v 0.336508 -0.716374 5.567881
v 0.333183 -0.718878 5.568533
v 0.333016 -0.715642 5.565528
v 0.331641 -0.714358 5.563976
v 0.332631 -0.719282 5.568122
v 0.334258 -0.715948 5.563414
v 0.336909 -0.719105 5.566832
v 0.335843 -0.717062 5.567381
v 0.339106 -0.718405 5.570148
v 0.343748 -0.719121 5.578015
v 0.342508 -0.719196 5.579945
v 0.343903 -0.718284 5.578064
v 0.342471 -0.716651 5.578007
v 0.340858 -0.719078 5.580227
v 0.340307 -0.716346 5.577550
v 0.331171 -0.705908 5.559281
v 0.332583 -0.706899 5.561722
v 0.332535 -0.706042 5.557472
v 0.333687 -0.712481 5.564210
v 0.332284 -0.703168 5.559527
v 0.333640 -0.705356 5.555784
v 0.333687 -0.714358 5.565384
v 0.335280 -0.714326 5.563960
v 0.331101 -0.701994 5.556387
v 0.328684 -0.697655 5.548999
v 0.332664 -0.700570 5.554821
v 0.333618 -0.705542 5.557356
v 0.340752 -0.716497 5.577652
v 0.341225 -0.719016 5.579826
vn -0.4503 -0.8691 0.2049
vn -0.8407 -0.2694 0.4697
vn -0.8386 -0.2825 0.4658
vn -0.9739 -0.1075 0.2000
vn 0.0709 0.7091 0.7015
vn 0.6258 0.5273 0.5747
vn 0.0265 0.5839 0.8114
vn 0.1052 -0.5434 -0.8329
vn -0.3995 -0.2291 -0.8876
vn 0.5262 -0.0562 -0.8485
vn 0.8473 0.5092 0.1511
vn 0.8262 0.3285 -0.4576
vn 0.8219 0.3571 -0.4438
vn -0.4097 -0.9091 -0.0754
vn -0.5919 -0.7628 -0.2604
vn -0.6028 0.4189 0.6790
vn -0.9327 -0.0173 0.3602
vn -0.9546 0.0652 0.2907
vn -0.6815 0.3628 0.6355
vn -0.9355 -0.1167 0.3334
vn -0.8885 0.0502 0.4560
vn -0.4571 0.8370 -0.3009
vn 0.4600 -0.1365 -0.8774
vn -0.2100 0.9589 -0.1910
vn 0.9196 -0.1085 -0.3776
vn 0.9425 -0.0586 -0.3291
vn 0.9415 0.0421 -0.3344
vn -0.6007 -0.7043 -0.3782
vn -0.7278 0.1318 0.6731
vn -0.9190 -0.0316 0.3931
vn -0.6274 0.4540 0.6327
vn 0.2518 -0.9057 -0.3410
vn 0.7726 0.5746 -0.2700
vn 0.6729 -0.1670 -0.7206
vn 0.7482 0.0324 -0.6627
vn 0.6965 -0.2557 -0.6705
vn -0.3196 0.7793 0.5391
vn -0.5290 0.6668 0.5249
vn 0.1983 0.8239 0.5309
vn -0.0608 0.6464 0.7606
vn 0.8593 0.5015 0.1005
vn -0.3362 -0.8481 -0.4096
vn -0.2677 -0.8071 -0.5262
vn -0.8332 -0.3098 -0.4581
vn 0.7089 -0.1761 -0.6830
vn 0.8072 -0.1921 -0.5581
vn 0.6741 -0.4159 -0.6104
vn 0.9991 0.0331 -0.0265
vn 0.7807 0.5668 -0.2634
vn -0.4229 0.5708 0.7038
vn -0.5656 0.3501 0.7467
vn -0.7190 0.4718 0.5104
vn -0.9707 -0.0840 0.2253
vn -0.9958 -0.0444 0.0796
vn -0.9815 -0.1172 0.1516
vn 0.2729 -0.8761 -0.3974
vn 0.6983 0.6580 0.2818
vn 0.6251 0.7201 -0.3012
vn 0.7543 0.5234 0.3964
vn 0.8577 0.2658 -0.4401
vn 0.8417 -0.5342 -0.0787
vn 0.2748 -0.5245 0.8059
vn 0.8133 0.2045 -0.5447
vn 0.7020 0.5554 -0.4458
vn 0.1630 0.7742 0.6116
vn -0.0207 -0.9938 -0.1092
vn 0.4926 -0.7858 -0.3740
vn -0.5766 0.4981 0.6476
vn -0.0822 0.7025 0.7069
vn -0.9971 -0.0706 -0.0274
vn -0.6594 0.2396 0.7126
vn -0.6459 0.2703 0.7139
vn 0.3433 0.3877 0.8555
vn 0.8622 0.3702 0.3457
vn -0.6714 -0.4675 -0.5751
vn -0.5549 -0.5352 -0.6368
vn -0.6895 -0.3483 -0.6350
vn 0.5986 0.4246 0.6792
vn -0.5616 -0.6048 -0.5646
vn 0.6851 -0.5092 -0.5209
vn -0.8758 -0.2688 0.4009
vn -0.8279 -0.1937 0.5263
vn 0.8382 0.3982 -0.3728
vn 0.4181 0.6006 0.6815
vn 0.0526 0.8665 0.4964
vn 0.2171 0.6880 0.6925
s 1
f 3//1 4//2 2//3
f 4//2 5//4 2//3
f 7//5 8//6 9//7
f 10//8 11//9 12//10
f 12//10 15//11 16//12
f 8//6 7//5 16//12
f 10//8 12//10 17//13
f 2//3 32//14 3//1
f 32//14 18//15 3//1
f 9//7 20//16 7//5
f 1//17 2//18 21//19
f 2//3 5//4 23//20
f 5//4 24//21 23//20
f 1//17 22//22 6//23
f 1//17 21//19 22//22
f 22//22 21//19 25//24
f 14//25 28//26 13//27
f 16//12 15//11 8//6
f 18//15 32//14 33//28
f 34//29 35//30 36//31
f 17//13 39//32 10//8
f 12//10 40//33 17//13
f 40//33 12//10 16//12
f 38//34 37//35 41//36
f 42//37 43//38 36//39
f 7//5 20//16 36//31
f 19//40 36//31 20//16
f 19//40 34//29 36//31
f 42//37 36//39 44//41
f 47//42 48//43 49//44
f 50//45 51//46 52//47
f 51//46 75//48 53//49
f 55//50 56//51 54//52
f 54//53 46//54 45//55
f 48//43 47//42 59//56
f 59//56 50//45 52//47
f 55//57 60//58 58//59
f 59//56 52//47 61//60
f 61//60 51//46 53//49
f 62//61 63//62 59//56
f 62//61 59//56 64//63
f 61//60 64//63 59//56
f 61//60 53//49 65//64
f 60//58 55//57 65//65
f 48//43 66//66 57//67
f 67//68 54//52 66//69
f 46//54 68//70 45//55
f 31//71 56//51 69//72
f 55//50 69//72 56//51
f 58//59 71//73 55//57
f 71//73 72//74 55//57
f 70//75 73//76 50//77
f 74//78 75//48 71//73
f 50//45 75//48 51//46
f 71//73 75//48 72//74
f 18//15 33//28 73//76
f 41//36 76//79 77//80
f 36//39 72//74 44//41
f 31//81 18//82 49//44
f 18//15 73//76 70//75
f 17//13 40//33 78//83
f 41//36 79//84 76//79
f 49//44 48//43 31//81
f 75//48 50//45 79//84
f 75//48 44//41 72//74
f 75//48 79//84 41//36
f 41//36 37//35 44//41
f 44//41 75//48 41//36
f 54//52 67//68 55//50
f 65//65 55//57 80//85
f 59//56 63//62 48//43
f 48//43 63//62 66//66
f 81//86 67//68 66//69
f 63//62 67//68 81//86
f 63//62 80//85 67//68
f 61//60 65//64 64//63
f 80//85 63//62 65//65
f 65//65 63//62 62//61
l 29 30
l 26 27
