# Blender v2.78 (sub 0) OBJ File: 'exporter.blend'
# www.blender.org
o FJ2699.obj_grp1.1398
v 0.289418 -0.712931 5.534681
v 0.285390 -0.704924 5.530497
v 0.293900 -0.715704 5.533737
v 0.291984 -0.713669 5.535040
v 0.284508 -0.705980 5.530327
v 0.292204 -0.713939 5.536454
v 0.283242 -0.704990 5.531632
v 0.287107 -0.704354 5.533190
v 0.285211 -0.705735 5.531200
v 0.295114 -0.716959 5.535761
v 0.295110 -0.716998 5.535797
v 0.285958 -0.703593 5.530866
v 0.295162 -0.714220 5.536719
v 0.297952 -0.715665 5.533943
v 0.292977 -0.713583 5.534898
v 0.300325 -0.718444 5.535798
v 0.297582 -0.715735 5.534299
v 0.295988 -0.714108 5.534989
v 0.298075 -0.716138 5.537498
v 0.298075 -0.716138 5.537498
v 0.307434 -0.717056 5.539694
v 0.308819 -0.717063 5.537499
v 0.303937 -0.717894 5.535951
v 0.305568 -0.716244 5.538918
v 0.305336 -0.716026 5.539017
v 0.297635 -0.714084 5.535430
v 0.295191 -0.714218 5.536747
v 0.291553 -0.710603 5.534869
v 0.305355 -0.715689 5.537507
v 0.307461 -0.716401 5.536664
v 0.309559 -0.717098 5.538151
v 0.308390 -0.718114 5.538625
v 0.308982 -0.714083 5.539741
v 0.309452 -0.716045 5.538491
v 0.308664 -0.717177 5.541450
v 0.314587 -0.717441 5.543813
v 0.312181 -0.717187 5.543317
v 0.313478 -0.719711 5.546011
v 0.308390 -0.718114 5.538625
v 0.313265 -0.720565 5.544897
v 0.313321 -0.718385 5.544998
v 0.313308 -0.718983 5.546171
v 0.314191 -0.718619 5.545343
v 0.308336 -0.715570 5.539563
v 0.313031 -0.719053 5.546558
v 0.313950 -0.719497 5.545151
v 0.310214 -0.717175 5.539188
v 0.313944 -0.719701 5.545300
v 0.313803 -0.719992 5.546136
v 0.313960 -0.719053 5.545197
v 0.313568 -0.719532 5.546132
v 0.313266 -0.719873 5.546403
v 0.313031 -0.719053 5.546558
vn -0.7793 -0.6228 0.0690
vn -0.4013 -0.5393 -0.7403
vn -0.4806 -0.8010 -0.3570
vn -0.8330 -0.0418 -0.5518
vn -0.3010 -0.2455 0.9215
vn 0.1730 0.9467 0.2719
vn 0.2517 0.6471 -0.7197
vn -0.3301 -0.8415 -0.4277
vn -0.3223 -0.8885 0.3266
vn 0.4826 -0.0702 -0.8730
vn 0.4561 -0.0817 -0.8862
vn 0.4459 -0.1403 -0.8840
vn -0.0347 0.3916 0.9195
vn 0.4150 0.7587 -0.5020
vn -0.0764 -0.9767 0.2005
vn -0.2229 -0.5666 -0.7933
vn -0.3722 -0.6552 -0.6574
vn 0.2108 -0.6419 -0.7373
vn -0.2436 -0.4930 0.8353
vn 0.0174 0.4043 0.9145
vn -0.1956 -0.6155 0.7634
vn 0.2717 0.9615 0.0414
vn -0.1939 0.4611 0.8659
vn 0.2022 0.9404 -0.2735
vn 0.2412 0.8432 0.4805
vn 0.2139 0.7732 0.5970
vn 0.1405 0.9065 0.3982
vn 0.6038 0.7903 0.1043
vn 0.3227 0.6713 0.6672
vn 0.2493 0.9302 -0.2693
vn 0.2481 0.9464 -0.2069
vn 0.5005 -0.1927 -0.8440
vn 0.3145 -0.7193 -0.6195
vn 0.5071 0.3460 -0.7894
vn -0.0626 0.8890 0.4536
vn -0.4099 0.6983 0.5869
vn 0.6900 0.2815 -0.6669
vn 0.3169 0.9374 -0.1448
vn -0.6491 -0.7010 0.2955
vn 0.3044 -0.6482 -0.6980
vn 0.2155 0.8473 0.4854
vn 0.0787 0.9125 0.4014
vn -0.0492 0.8999 0.4332
s 1
f 1//1 2//2 3//3
f 1//1 7//4 2//2
f 1//1 6//5 7//4
f 8//6 7//4 6//5
f 9//7 7//4 8//6
f 1//1 3//3 10//8
f 11//9 6//5 1//1
f 5//10 12//11 4//12
f 13//13 8//6 6//5
f 14//14 9//7 8//6
f 10//8 3//3 16//15
f 17//16 16//15 4//17
f 23//18 16//15 17//16
f 16//15 11//9 10//8
f 19//19 6//5 11//9
f 20//20 13//13 6//5
f 21//21 19//19 11//9
f 22//22 13//13 20//20
f 16//15 23//18 11//9
f 11//9 23//18 21//21
f 24//23 19//19 21//21
f 25//24 22//22 20//20
f 26//25 27//26 22//27
f 8//6 18//28 14//14
f 27//26 26//25 28//29
f 18//28 29//30 14//14
f 30//31 14//14 29//30
f 23//18 31//32 32//33
f 23//18 17//16 34//34
f 34//34 31//32 23//18
f 35//35 22//22 25//24
f 38//36 22//22 35//35
f 31//32 34//34 36//37
f 29//30 37//38 30//31
f 38//36 35//35 39//39
f 32//33 31//32 40//40
f 43//41 44//42 45//43
l 48 49
l 50 51
l 23 33
l 41 42
l 15 16
l 46 47
l 52 53
