# Blender v2.78 (sub 0) OBJ File: 'exporter.blend'
# www.blender.org
o FJ2664.obj_grp1.1365
v 0.305832 -0.652022 5.810598
v 0.306459 -0.649540 5.813109
v 0.305205 -0.649515 5.807941
v 0.304668 -0.648174 5.810900
v 0.310178 -0.636746 5.807280
v 0.306379 -0.649462 5.813326
v 0.307441 -0.651563 5.808143
v 0.307446 -0.651617 5.808124
v 0.309704 -0.649928 5.807091
v 0.309215 -0.652073 5.810908
v 0.309151 -0.652004 5.810913
v 0.308885 -0.649311 5.813221
v 0.311951 -0.638308 5.810691
v 0.314977 -0.642382 5.807163
v 0.310779 -0.649970 5.811625
v 0.314224 -0.638135 5.804508
v 0.315492 -0.620102 5.807004
v 0.315759 -0.620576 5.807226
v 0.316698 -0.624776 5.809927
v 0.316698 -0.624776 5.809927
v 0.317127 -0.618264 5.808218
v 0.318817 -0.615498 5.805068
v 0.320271 -0.623283 5.807157
v 0.319248 -0.621728 5.804495
v 0.322462 -0.615382 5.807605
v 0.320271 -0.623283 5.807157
v 0.320103 -0.619687 5.803619
v 0.326093 -0.607691 5.798368
v 0.316698 -0.624776 5.809927
v 0.330851 -0.601337 5.794039
v 0.323694 -0.615919 5.803007
v 0.333102 -0.603576 5.794027
v 0.333094 -0.602595 5.794042
v 0.330956 -0.602706 5.792491
v 0.329853 -0.602767 5.793449
v 0.331075 -0.602862 5.792985
v 0.329871 -0.603560 5.797940
v 0.331856 -0.603672 5.792667
v 0.331809 -0.602627 5.792697
v 0.330870 -0.602627 5.792603
v 0.331809 -0.601462 5.794012
v 0.331809 -0.602627 5.792697
v 0.333020 -0.602627 5.794012
v 0.333063 -0.603565 5.794012
v 0.331822 -0.603584 5.792792
v 0.331809 -0.602627 5.792697
v 0.333020 -0.602627 5.794012
v 0.331809 -0.602627 5.792697
v 0.331809 -0.601462 5.794012
v 0.331817 -0.601446 5.794019
v 0.330870 -0.601401 5.794012
vn -0.5198 -0.8388 0.1616
vn -0.9361 0.1976 0.2910
vn -0.7649 -0.1521 -0.6260
vn -0.5387 -0.7088 0.4554
vn -0.8998 0.3786 -0.2167
vn -0.6728 -0.0073 0.7397
vn -0.5972 -0.2982 -0.7446
vn -0.1615 -0.8373 -0.5223
vn 0.3840 -0.5070 -0.7717
vn 0.2826 -0.9537 -0.1032
vn -0.2834 -0.8068 0.5185
vn 0.2985 -0.1973 0.9338
vn -0.7711 0.4058 0.4906
vn 0.8841 -0.4123 -0.2198
vn 0.7751 -0.5042 0.3809
vn 0.1980 -0.0992 -0.9752
vn -0.7479 0.1578 -0.6448
vn -0.6991 0.2183 0.6809
vn 0.1995 0.0423 0.9790
vn -0.7048 0.2714 0.6555
vn 0.7751 -0.3391 -0.5331
vn 0.1131 -0.3410 -0.9332
vn 0.4738 0.3210 0.8201
vn 0.9446 -0.3280 0.0110
vn -0.6490 0.0129 -0.7607
vn 0.7484 -0.6189 -0.2385
vn -0.5856 -0.2636 -0.7665
vn -0.5784 0.5095 0.6370
vn -0.8098 0.5184 -0.2747
vn -0.0157 0.2549 0.9668
vn -0.4832 0.8628 0.1485
vn 0.8751 -0.4175 0.2447
vn -0.7201 0.0441 -0.6925
vn -0.6463 -0.2619 -0.7167
vn -0.2663 -0.3042 -0.9146
vn -0.8225 0.2340 -0.5184
vn 0.1438 0.6809 0.7182
vn 0.6695 0.2700 0.6920
vn 0.0836 -0.5857 -0.8062
vn 0.2254 0.0295 -0.9738
vn 0.0579 0.7503 -0.6586
vn 0.0576 0.7503 -0.6586
vn 0.0669 0.7469 -0.6615
vn 0.7179 -0.0133 -0.6960
vn 0.6996 0.0325 -0.7138
vn 0.7178 -0.0134 -0.6961
vn 0.7342 -0.0592 -0.6763
vn 0.5843 0.6075 -0.5381
vn 0.3061 0.7110 0.6331
vn 0.0488 0.7536 -0.6555
s 1
f 1//1 4//2 3//3
f 1//1 2//4 4//2
f 3//3 4//2 5//5
f 5//5 4//2 6//6
f 1//1 7//7 8//8
f 7//7 1//1 3//3
f 8//8 9//9 10//10
f 11//11 1//1 8//8
f 9//9 7//7 3//3
f 2//4 6//6 4//2
f 12//12 2//4 1//1
f 5//5 6//6 13//13
f 8//8 10//10 11//11
f 11//11 12//12 1//1
f 10//10 9//9 14//14
f 12//12 11//11 15//15
f 10//10 14//14 15//15
f 12//12 13//13 6//6
f 9//9 3//3 16//16
f 16//16 3//3 5//5
f 9//9 16//16 14//14
f 16//16 5//5 17//17
f 18//18 5//5 13//13
f 12//12 19//19 13//13
f 18//18 13//13 20//20
f 5//5 18//18 17//17
f 14//14 16//16 23//21
f 24//22 16//16 17//17
f 24//22 23//21 16//16
f 25//23 15//15 14//14
f 15//15 25//23 12//12
f 12//12 25//23 19//19
f 25//23 14//14 26//24
f 24//22 17//17 27//25
f 24//22 31//26 23//21
f 31//26 24//22 28//27
f 21//28 18//18 20//20
f 18//18 21//28 22//29
f 25//23 21//28 29//30
f 22//29 27//25 17//17
f 30//31 22//29 21//28
f 31//26 32//32 25//23
f 31//26 25//23 26//24
f 27//25 22//29 28//33
f 22//29 30//31 28//33
f 35//34 34//35 28//27
f 30//31 36//36 28//33
f 28//27 34//35 31//26
f 37//37 21//28 25//23
f 30//31 21//28 37//37
f 33//38 37//37 25//23
f 25//23 32//32 33//38
f 32//32 31//26 38//39
f 31//26 34//35 38//39
f 38//39 34//35 39//40
f 40//41 41//42 42//43
f 43//44 44//45 45//46
f 46//47 43//44 45//46
f 47//48 48//48 49//48
f 33//38 50//49 37//37
f 41//42 40//41 51//50
f 37//37 50//49 30//31
