# Blender v2.78 (sub 0) OBJ File: 'exporter.blend'
# www.blender.org
o FJ2698.obj_grp1.1397
v 0.185279 -0.683515 5.522546
v 0.192062 -0.692844 5.522621
v 0.185206 -0.683369 5.523604
v 0.186069 -0.683618 5.525418
v 0.187145 -0.681853 5.522631
v 0.188234 -0.683745 5.525705
v 0.188346 -0.684401 5.523295
v 0.186273 -0.681918 5.526290
v 0.188343 -0.683750 5.525573
v 0.187326 -0.682217 5.524289
v 0.188119 -0.681980 5.524494
v 0.201576 -0.699573 5.520237
v 0.192847 -0.691674 5.521067
v 0.201319 -0.697444 5.520573
v 0.199100 -0.698013 5.521994
v 0.198501 -0.698434 5.521733
v 0.201315 -0.697493 5.523847
v 0.201336 -0.695217 5.522666
v 0.202555 -0.697578 5.524729
v 0.195343 -0.691411 5.524447
v 0.188301 -0.681760 5.524656
v 0.188343 -0.683750 5.525573
v 0.200576 -0.709127 5.525690
v 0.197324 -0.703981 5.522681
v 0.198765 -0.707543 5.525723
v 0.199406 -0.710665 5.526666
v 0.198875 -0.707069 5.522989
v 0.197857 -0.705558 5.522952
v 0.199636 -0.708607 5.522750
v 0.199629 -0.710468 5.524578
v 0.200854 -0.708894 5.526680
v 0.198473 -0.707002 5.525539
v 0.202249 -0.711485 5.528419
v 0.201870 -0.709487 5.525292
v 0.199404 -0.706494 5.521669
v 0.207780 -0.717095 5.528524
v 0.202683 -0.712243 5.526585
v 0.200769 -0.706946 5.524541
v 0.202176 -0.709840 5.526723
v 0.200410 -0.705276 5.523446
v 0.204115 -0.712481 5.526043
v 0.199287 -0.698550 5.520648
v 0.199133 -0.698516 5.522023
v 0.198008 -0.698474 5.522816
v 0.198442 -0.698423 5.521695
v 0.199502 -0.701941 5.524024
v 0.198589 -0.699678 5.522710
v 0.198530 -0.698789 5.522790
v 0.199502 -0.701941 5.524024
v 0.201247 -0.701014 5.523546
v 0.203113 -0.699817 5.522990
v 0.200342 -0.698697 5.523943
v 0.210106 -0.723461 5.532977
v 0.209419 -0.722809 5.533930
v 0.210951 -0.722965 5.533699
v 0.209749 -0.723771 5.532991
v 0.210493 -0.722727 5.532075
v 0.209979 -0.723126 5.533091
v 0.210936 -0.722949 5.532330
v 0.209749 -0.723771 5.532991
v 0.209680 -0.723076 5.533751
v 0.210688 -0.722809 5.534540
v 0.210970 -0.723072 5.532331
v 0.208807 -0.717451 5.532069
v 0.207504 -0.717228 5.530922
v 0.207151 -0.717310 5.530771
v 0.208810 -0.717448 5.532052
v 0.209151 -0.716228 5.529246
v 0.209125 -0.716236 5.529235
v 0.209125 -0.716236 5.529235
v 0.209779 -0.723107 5.533440
v 0.207871 -0.717175 5.528625
v 0.209601 -0.722673 5.534423
vn -0.7982 -0.6007 -0.0439
vn -0.7032 -0.6927 -0.1600
vn -0.7856 -0.6034 0.1370
vn -0.6379 -0.5420 0.5471
vn 0.4460 0.8863 -0.1246
vn -0.3399 0.4852 -0.8056
vn -0.1966 0.1703 0.9656
vn 0.6290 0.4737 0.6164
vn 0.6235 0.4721 0.6232
vn 0.6321 0.4728 0.6139
vn -0.6469 -0.4500 0.6156
vn 0.0187 0.2586 -0.9658
vn -0.0098 0.1289 -0.9916
vn 0.7240 0.1131 -0.6805
vn -0.3782 -0.2276 -0.8973
vn -0.6960 -0.6613 -0.2796
vn -0.6550 -0.7282 -0.2018
vn 0.2104 -0.0184 0.9774
vn -0.1449 -0.2955 0.9443
vn 0.8410 0.5335 -0.0905
vn 0.6461 0.7427 0.1759
vn 0.9157 0.3372 0.2186
vn 0.5302 0.3720 0.7619
vn 0.5015 0.3727 0.7807
vn 0.5316 0.3646 0.7645
vn -0.8912 -0.4534 -0.0157
vn -0.8995 -0.3869 0.2032
vn -0.4635 -0.2538 -0.8490
vn -0.9320 -0.0395 0.3603
vn -0.9821 0.0066 0.1882
vn -0.4383 0.1894 0.8786
vn -0.8392 -0.4058 -0.3621
vn -0.7285 -0.4898 -0.4789
vn -0.6769 -0.6687 -0.3075
vn 0.2842 0.6145 0.7359
vn -0.1600 0.2918 0.9430
vn 0.0705 0.5906 0.8039
vn -0.0983 -0.5398 -0.8361
vn 0.8717 -0.0809 -0.4833
vn 0.9294 0.1967 -0.3122
vn 0.8494 -0.0477 -0.5256
vn 0.7557 0.5157 0.4037
vn 0.8447 0.5275 -0.0902
vn 0.4971 0.7259 0.4753
vn 0.9866 -0.0882 -0.1374
vn -0.8570 -0.4480 -0.2548
vn -0.7461 -0.1141 0.6560
vn 0.7139 0.6155 -0.3340
vn -0.2366 0.5830 -0.7773
vn -0.9501 0.2808 -0.1362
vn -0.9818 0.0305 -0.1875
vn -0.9374 0.0120 -0.3482
vn -0.0049 0.2075 0.9782
vn -0.3872 0.3364 0.8584
vn 0.3762 -0.1013 0.9210
vn -0.6079 0.1332 0.7828
vn -0.0716 -0.0661 0.9952
vn 0.9174 -0.0512 -0.3945
vn 0.7168 -0.2495 0.6511
vn -0.6056 0.0229 0.7955
vn -0.5961 -0.1697 0.7847
vn -0.6274 -0.1319 0.7674
vn 0.8793 0.4243 0.2162
vn 0.6005 0.6871 0.4090
vn -0.8404 -0.4510 -0.3007
vn -0.6379 -0.2199 0.7380
vn 0.6972 0.6075 -0.3805
vn 0.9538 0.1350 0.2684
vn 0.3945 0.0642 -0.9166
vn 0.6178 -0.2034 -0.7596
vn 0.5424 -0.1927 -0.8177
vn 0.5635 -0.5506 -0.6159
s 1
f 1//1 2//2 3//3
f 3//3 2//2 4//4
f 5//5 1//6 7//7
f 11//8 8//9 9//10
f 48//11 4//4 2//2
f 12//12 13//13 14//14
f 12//15 15//16 2//2
f 2//2 16//17 48//11
f 12//15 2//2 1//1
f 13//13 1//6 5//5
f 17//18 6//19 4//4
f 5//5 14//14 13//13
f 18//20 10//21 19//22
f 20//23 21//24 22//25
f 14//14 5//5 18//20
f 5//5 10//21 18//20
f 27//26 23//27 24//28
f 25//29 28//30 26//31
f 27//32 29//33 30//34
f 31//35 32//36 33//37
f 29//33 36//38 30//34
f 35//39 34//40 37//41
f 34//40 38//42 39//43
f 31//35 39//44 40//45
f 30//34 53//46 23//47
f 41//48 34//40 39//43
f 42//49 27//26 24//28
f 42//49 24//28 43//50
f 28//30 44//51 45//52
f 28//30 25//29 44//51
f 31//35 46//53 32//36
f 47//54 32//36 46//53
f 50//55 31//35 40//45
f 50//55 46//53 31//35
f 49//56 52//57 48//11
f 34//40 40//58 38//42
f 40//45 51//59 50//55
f 40//58 34//40 35//39
f 42//49 12//15 27//26
f 50//55 17//18 46//53
f 17//18 52//57 46//53
f 40//58 35//39 18//20
f 14//14 18//20 35//39
f 19//22 50//55 51//59
f 4//4 48//11 52//57
f 52//57 17//18 4//4
f 15//16 12//15 42//49
f 18//20 19//22 51//59
f 23//47 53//46 65//60
f 26//31 66//61 25//29
f 25//29 66//61 64//62
f 30//34 36//38 53//46
f 39//44 67//63 68//64
f 65//60 53//46 54//65
f 64//62 66//61 63//66
f 39//43 70//67 41//48
f 67//63 71//68 68//64
f 37//69 69//70 72//71
f 73//72 72//71 69//70
f 67//63 39//44 31//35
l 59 60
l 55 56
l 57 58
l 61 62
