# Blender v2.78 (sub 0) OBJ File: 'exporter.blend'
# www.blender.org
o FJ2661.obj_grp1.1362
v 0.192394 -0.800773 5.774253
v 0.193843 -0.801619 5.774286
v 0.192430 -0.800740 5.774294
v 0.193831 -0.801580 5.774294
v 0.192617 -0.800740 5.775234
v 0.193100 -0.799732 5.773383
v 0.192328 -0.799801 5.774294
v 0.192430 -0.800740 5.774294
v 0.192617 -0.800740 5.775234
v 0.192328 -0.799801 5.774294
v 0.192492 -0.799801 5.775234
v 0.198195 -0.796369 5.771827
v 0.192328 -0.799801 5.774294
v 0.193169 -0.798843 5.774294
v 0.192387 -0.799603 5.775446
v 0.192073 -0.799374 5.774508
v 0.192404 -0.799912 5.775277
v 0.193799 -0.799743 5.775547
v 0.192598 -0.799816 5.775219
v 0.194035 -0.799590 5.776181
v 0.196613 -0.796699 5.774291
v 0.202422 -0.797558 5.772294
v 0.205401 -0.791914 5.773114
v 0.201914 -0.794156 5.775348
v 0.204115 -0.795106 5.775750
v 0.201983 -0.794200 5.775280
v 0.197543 -0.797923 5.775374
v 0.204115 -0.795106 5.775750
v 0.208287 -0.790995 5.778054
v 0.205742 -0.791688 5.773262
v 0.219131 -0.781929 5.777131
v 0.215234 -0.781823 5.778119
v 0.213550 -0.783515 5.777721
v 0.209632 -0.791862 5.777018
v 0.210129 -0.791533 5.777295
v 0.217221 -0.780578 5.781174
v 0.216840 -0.786497 5.779120
v 0.219734 -0.782012 5.781668
v 0.214831 -0.787609 5.777064
v 0.214929 -0.787480 5.777118
v 0.216752 -0.782048 5.777559
v 0.221005 -0.782407 5.778848
v 0.220296 -0.780792 5.777158
v 0.228902 -0.768437 5.778497
v 0.229277 -0.772187 5.780836
v 0.230084 -0.772226 5.775129
v 0.230329 -0.774561 5.779022
v 0.226491 -0.772422 5.779928
v 0.230517 -0.774284 5.776954
v 0.227955 -0.770736 5.779966
v 0.227881 -0.770755 5.779975
v 0.230611 -0.765590 5.784993
v 0.232208 -0.770684 5.777068
v 0.233572 -0.764574 5.787668
v 0.234990 -0.759688 5.783696
v 0.233665 -0.764042 5.787623
v 0.231135 -0.761995 5.785421
v 0.230715 -0.765220 5.785374
v 0.231135 -0.761995 5.785421
v 0.232598 -0.762436 5.787909
v 0.236061 -0.750038 5.790257
v 0.239807 -0.741756 5.788218
v 0.236061 -0.750038 5.790257
v 0.233883 -0.769666 5.779130
v 0.236864 -0.761407 5.784581
v 0.235926 -0.764774 5.784435
v 0.235926 -0.764774 5.784435
v 0.239893 -0.756352 5.788991
v 0.241643 -0.740170 5.794607
v 0.242195 -0.740687 5.793667
v 0.236955 -0.761305 5.784623
v 0.243635 -0.740486 5.787843
v 0.238941 -0.751573 5.785937
v 0.243840 -0.746568 5.789760
v 0.244724 -0.739026 5.793560
v 0.238595 -0.740048 5.792134
v 0.239794 -0.741587 5.788144
v 0.238595 -0.740048 5.792134
v 0.240037 -0.724687 5.794012
v 0.240146 -0.722290 5.790617
v 0.240037 -0.724687 5.794012
v 0.243550 -0.740648 5.788097
v 0.245621 -0.724338 5.789290
v 0.242093 -0.721335 5.796078
v 0.244496 -0.723872 5.796052
v 0.242105 -0.721340 5.796053
v 0.246744 -0.724133 5.793768
v 0.253355 -0.706709 5.809720
v 0.245986 -0.717373 5.791646
v 0.253927 -0.704706 5.806726
v 0.254103 -0.713176 5.797546
v 0.260595 -0.706390 5.806837
v 0.260466 -0.709224 5.808370
v 0.257848 -0.704758 5.805023
v 0.257077 -0.708658 5.811814
v 0.256562 -0.704281 5.808960
vn -0.5111 -0.8535 0.1017
vn -0.7592 -0.0244 -0.6504
vn -0.4598 -0.0678 -0.8854
vn -0.3388 -0.3074 -0.8892
vn -0.9752 -0.1068 0.1940
vn -0.9760 -0.1184 0.1826
vn -0.9760 -0.1183 0.1828
vn -0.9766 -0.1299 0.1713
vn -0.6478 0.5679 -0.5077
vn -0.6015 0.5927 -0.5357
vn -0.0232 -0.2026 -0.9790
vn 0.0651 -0.9529 -0.2963
vn 0.4048 -0.6655 -0.6271
vn -0.5142 0.8336 0.2016
vn -0.4840 0.8064 0.3397
vn -0.5155 0.8495 0.1124
vn -0.4829 0.7402 0.4678
vn -0.4708 0.7238 0.5044
vn 0.0732 -0.4898 0.8687
vn -0.0670 -0.5727 0.8170
vn -0.4893 0.8704 -0.0550
vn 0.1108 0.2830 -0.9527
vn -0.6247 0.7521 0.2100
vn 0.3175 -0.7580 0.5698
vn -0.2248 -0.0088 0.9744
vn -0.1382 0.1931 0.9714
vn -0.2530 -0.0897 0.9633
vn -0.3160 -0.2334 0.9196
vn 0.2324 0.0751 -0.9697
vn 0.1782 -0.1208 -0.9766
vn -0.6070 0.6786 -0.4136
vn -0.6878 0.7095 0.1534
vn 0.2015 -0.7451 0.6357
vn -0.1265 -0.2899 0.9487
vn 0.4067 -0.7844 0.4684
vn -0.5032 0.4076 0.7620
vn 0.6460 -0.7603 -0.0680
vn 0.6775 -0.7014 0.2214
vn 0.2562 -0.3266 0.9098
vn 0.6352 -0.4791 -0.6058
vn 0.7226 -0.6628 -0.1960
vn -0.2133 0.3929 -0.8945
vn 0.6314 -0.7173 0.2946
vn -0.0720 -0.1091 -0.9914
vn -0.6022 0.6069 -0.5187
vn -0.2047 -0.3148 0.9268
vn 0.2471 0.0896 -0.9648
vn 0.6763 -0.6640 0.3189
vn -0.3738 0.4535 0.8091
vn 0.7232 -0.5725 -0.3863
vn -0.6775 0.3773 0.6314
vn -0.2197 0.3438 0.9130
vn -0.8110 -0.1298 0.5704
vn 0.8346 -0.0253 -0.5503
vn -0.4571 -0.2653 0.8489
vn -0.0317 0.3184 -0.9474
vn -0.9278 0.1412 0.3454
vn -0.4806 -0.5394 0.6914
vn -0.6604 0.5723 -0.4862
vn -0.5954 -0.1134 0.7954
vn -0.4846 -0.0342 0.8740
vn -0.6704 0.2288 -0.7058
vn -0.9088 0.4030 -0.1080
vn 0.8139 0.0898 -0.5740
vn 0.7923 -0.0509 -0.6080
vn 0.0367 -0.5072 0.8610
vn 0.9505 -0.2656 -0.1613
vn 0.7701 -0.4572 0.4449
vn 0.5571 -0.5667 0.6070
vn 0.2997 -0.2552 0.9193
vn -0.4141 -0.0158 0.9101
vn 0.4788 -0.0100 -0.8779
vn -0.0500 0.1542 -0.9868
vn 0.5862 -0.0298 -0.8097
vn 0.9600 -0.2565 -0.1127
vn 0.8380 -0.1909 0.5113
vn -0.9634 0.1722 -0.2055
vn -0.9652 -0.1146 -0.2352
vn -0.4008 -0.0761 0.9130
vn -0.5716 -0.0942 0.8151
vn -0.7673 0.4499 -0.4569
vn 0.5257 0.0131 -0.8506
vn -0.9504 0.2300 0.2095
vn 0.8299 -0.0811 -0.5520
vn -0.6153 -0.0998 0.7820
vn 0.1431 -0.4435 0.8848
vn -0.7523 0.1038 0.6506
vn 0.8411 -0.5152 0.1650
vn -0.6135 0.3454 0.7101
vn -0.0516 0.6457 -0.7618
vn -0.4618 0.8815 -0.0982
vn 0.6490 0.2490 -0.7188
vn 0.8924 -0.2995 0.3375
vn 0.3111 0.8192 -0.4818
vn 0.1903 -0.1244 0.9738
vn 0.1310 0.8774 0.4614
vn 0.9173 0.3975 -0.0237
s 1
f 3//1 4//1 5//1
f 7//2 6//3 1//4
f 8//5 9//6 10//7
f 9//6 11//8 10//7
f 13//9 14//10 6//3
f 14//10 12//11 6//3
f 2//12 1//4 22//13
f 22//13 1//4 6//3
f 16//14 15//15 21//16
f 20//17 21//16 19//18
f 2//12 18//19 17//20
f 22//13 6//3 12//11
f 12//21 16//14 21//16
f 22//13 12//11 23//22
f 12//21 21//16 24//23
f 20//17 24//23 21//16
f 2//12 25//24 18//19
f 26//25 27//26 28//27
f 22//13 25//24 2//12
f 29//28 26//25 28//27
f 30//29 22//13 23//22
f 31//30 22//13 30//29
f 32//31 23//22 12//11
f 33//32 12//21 24//23
f 25//24 22//13 34//33
f 25//24 34//33 29//34
f 29//34 34//33 35//35
f 29//34 36//36 24//23
f 22//37 37//38 35//35
f 33//32 24//23 36//36
f 38//39 29//34 35//35
f 22//13 31//30 39//40
f 22//37 40//41 37//38
f 41//42 23//22 32//31
f 37//38 38//39 35//35
f 41//42 31//30 30//29
f 39//40 31//30 40//41
f 38//39 36//36 29//34
f 38//39 37//38 42//43
f 32//31 33//32 36//36
f 40//41 31//30 37//38
f 43//44 31//30 41//42
f 44//45 32//31 36//36
f 38//39 45//46 36//36
f 43//44 41//42 46//47
f 47//48 38//39 42//43
f 46//47 41//42 32//31
f 36//36 45//46 48//49
f 42//43 49//50 47//48
f 47//48 45//46 38//39
f 44//45 46//47 32//31
f 44//45 36//36 48//49
f 46//47 49//50 37//38
f 31//30 46//47 37//38
f 44//45 48//49 50//51
f 51//52 48//49 45//46
f 50//51 51//52 45//46
f 52//53 50//51 45//46
f 52//53 44//45 50//51
f 53//54 49//50 46//47
f 45//46 47//48 54//55
f 52//53 45//46 54//55
f 46//47 55//56 53//54
f 47//48 49//50 53//54
f 46//47 44//45 55//56
f 52//53 57//57 44//45
f 52//53 54//55 58//58
f 59//59 55//56 44//45
f 52//53 60//60 57//57
f 58//58 54//55 60//60
f 57//57 60//60 61//61
f 62//62 59//59 63//63
f 64//64 53//54 65//65
f 53//54 55//56 65//65
f 66//66 47//48 53//54
f 64//64 65//65 67//67
f 68//68 47//48 66//66
f 47//48 68//68 56//69
f 56//69 68//68 69//70
f 60//60 54//55 70//71
f 65//65 55//56 71//72
f 67//67 65//65 68//68
f 55//56 59//59 62//62
f 55//56 62//62 72//73
f 71//72 55//56 73//74
f 68//68 65//65 74//75
f 73//74 74//75 71//72
f 70//71 61//61 60//60
f 69//70 68//68 75//76
f 62//62 63//63 76//77
f 76//77 77//78 62//62
f 61//61 70//71 78//79
f 78//79 70//71 79//80
f 80//81 83//82 62//62
f 77//78 76//77 80//81
f 76//77 81//83 80//81
f 74//75 73//74 82//84
f 68//68 74//75 75//76
f 74//75 82//84 83//82
f 75//76 74//75 83//82
f 83//82 72//73 62//62
f 84//85 79//80 70//71
f 69//70 85//86 86//87
f 75//76 85//86 69//70
f 75//76 87//88 85//86
f 75//76 83//82 87//88
f 86//87 80//81 81//83
f 80//81 86//87 88//89
f 80//81 89//90 83//82
f 80//81 88//89 90//91
f 83//82 89//90 91//92
f 89//90 80//81 90//91
f 93//93 87//88 83//82
f 93//93 83//82 91//92
f 91//92 89//90 90//91
f 90//91 94//94 91//92
f 85//86 95//95 86//87
f 88//89 86//87 95//95
f 85//86 87//88 95//95
f 88//89 96//96 90//91
f 95//95 96//96 88//89
f 94//94 90//91 96//96
f 94//94 92//97 91//92
f 93//93 95//95 87//88
f 93//93 92//97 95//95
f 91//92 92//97 93//93
f 92//97 96//96 95//95
f 96//96 92//97 94//94
