# Blender v2.78 (sub 0) OBJ File: 'exporter.blend'
# www.blender.org
o FJ2665.obj_grp1.1366
v 0.217725 -0.596669 5.879991
v 0.214380 -0.587636 5.874074
v 0.222900 -0.597870 5.866998
v 0.216227 -0.583909 5.877978
v 0.220721 -0.587984 5.882728
v 0.234492 -0.635410 5.858809
v 0.239435 -0.643364 5.860866
v 0.243346 -0.632683 5.865728
v 0.219040 -0.583047 5.872029
v 0.227098 -0.597369 5.868385
v 0.222894 -0.596993 5.868187
v 0.223981 -0.583777 5.877920
v 0.227616 -0.598584 5.868140
v 0.238506 -0.639121 5.851687
v 0.231344 -0.617649 5.860347
v 0.239990 -0.668387 5.842073
v 0.249653 -0.706993 5.809837
v 0.238863 -0.655968 5.849079
v 0.248574 -0.645826 5.849355
v 0.244265 -0.780251 5.692340
v 0.248383 -0.778585 5.696501
v 0.246844 -0.785224 5.676224
v 0.242954 -0.777215 5.685285
v 0.248410 -0.780252 5.675144
v 0.248410 -0.780252 5.675144
v 0.242954 -0.777215 5.685285
v 0.244901 -0.770632 5.694410
v 0.241367 -0.777351 5.690777
v 0.241147 -0.773653 5.698421
v 0.241582 -0.772634 5.694652
v 0.252461 -0.789679 5.665346
v 0.248443 -0.785013 5.683970
v 0.248332 -0.774877 5.706950
v 0.250047 -0.763442 5.570041
v 0.247177 -0.772902 5.592866
v 0.247705 -0.769410 5.588725
v 0.250255 -0.776763 5.595189
v 0.259712 -0.778111 5.622705
v 0.249911 -0.775307 5.690518
v 0.250329 -0.756610 5.743459
v 0.254600 -0.746781 5.753187
v 0.251641 -0.712622 5.809129
v 0.245750 -0.691280 5.826968
v 0.250693 -0.701349 5.810755
v 0.251710 -0.697373 5.827042
v 0.245750 -0.691280 5.826968
v 0.252940 -0.679148 5.828324
v 0.251817 -0.669421 5.840616
v 0.254916 -0.790563 5.666306
v 0.261264 -0.787682 5.646113
v 0.253279 -0.788933 5.664863
v 0.258079 -0.784976 5.655813
v 0.261465 -0.785189 5.658202
v 0.251993 -0.784637 5.662259
v 0.248410 -0.780252 5.675144
v 0.246844 -0.785224 5.676224
v 0.252848 -0.785604 5.662938
v 0.260541 -0.788664 5.666541
v 0.250176 -0.778385 5.691714
v 0.249471 -0.772994 5.583037
v 0.253202 -0.773187 5.594004
v 0.251127 -0.777376 5.596898
v 0.265063 -0.785010 5.622624
v 0.248710 -0.779258 5.674157
v 0.256852 -0.785880 5.670141
v 0.258493 -0.784701 5.667253
v 0.244928 -0.770830 5.694252
v 0.251863 -0.771473 5.705565
v 0.248422 -0.774583 5.706994
v 0.258468 -0.755587 5.559468
v 0.253614 -0.771064 5.580986
v 0.257001 -0.769566 5.578707
v 0.253111 -0.769718 5.584819
v 0.251173 -0.764682 5.580707
v 0.251764 -0.771168 5.598293
v 0.251912 -0.767801 5.585152
v 0.251963 -0.770922 5.598899
v 0.253474 -0.774097 5.595102
v 0.259258 -0.764496 5.573003
v 0.257208 -0.779346 5.617053
v 0.259712 -0.778111 5.622705
v 0.248589 -0.773811 5.596228
v 0.266507 -0.780318 5.635953
v 0.257240 -0.765146 5.723662
v 0.256387 -0.750823 5.558572
v 0.251935 -0.761305 5.567731
v 0.259484 -0.747331 5.553133
v 0.257709 -0.752413 5.563859
v 0.257642 -0.757041 5.730185
v 0.251533 -0.741998 5.776383
v 0.250058 -0.720734 5.796657
v 0.257165 -0.751036 5.765910
v 0.251414 -0.722479 5.788940
v 0.259831 -0.734056 5.775021
v 0.252001 -0.717175 5.794622
v 0.250600 -0.719053 5.798707
v 0.251641 -0.712622 5.809129
v 0.255235 -0.689946 5.828752
v 0.255235 -0.689946 5.828752
v 0.257662 -0.788563 5.651986
v 0.264979 -0.790671 5.651040
v 0.262382 -0.787174 5.646328
v 0.259549 -0.787595 5.645662
v 0.262329 -0.782628 5.647540
v 0.260904 -0.783529 5.637352
v 0.256696 -0.784778 5.655755
v 0.262329 -0.782628 5.647540
v 0.263268 -0.782952 5.654112
v 0.265423 -0.786000 5.654318
v 0.261317 -0.775262 5.612799
v 0.268490 -0.779935 5.627736
v 0.260904 -0.783529 5.637352
v 0.262329 -0.782628 5.647540
v 0.261317 -0.775262 5.612799
v 0.260409 -0.757743 5.563386
v 0.259665 -0.746493 5.553391
v 0.264069 -0.743911 5.554117
v 0.261868 -0.742685 5.553557
v 0.270972 -0.729694 5.543689
v 0.264690 -0.741578 5.549888
v 0.268477 -0.733778 5.543107
v 0.264069 -0.743911 5.554117
v 0.261626 -0.741793 5.553364
v 0.257719 -0.752385 5.563835
v 0.266968 -0.731089 5.545475
v 0.259444 -0.726973 5.794857
v 0.259855 -0.721378 5.800289
v 0.262643 -0.711776 5.806291
v 0.267399 -0.785630 5.652704
v 0.268617 -0.785477 5.634958
v 0.265025 -0.787750 5.634066
v 0.265780 -0.783222 5.645198
v 0.268360 -0.780707 5.639247
v 0.268617 -0.785477 5.634958
v 0.267765 -0.780083 5.627822
v 0.266546 -0.732419 5.544446
v 0.269471 -0.731559 5.546804
v 0.276587 -0.720880 5.538166
v 0.272015 -0.724965 5.544065
v 0.271789 -0.725284 5.543692
v 0.275235 -0.725880 5.543133
v 0.271891 -0.730592 5.542662
v 0.278558 -0.722726 5.540466
v 0.279189 -0.721816 5.540360
v 0.277968 -0.721151 5.539248
v 0.275435 -0.725635 5.543037
v 0.278991 -0.720970 5.540827
v 0.278241 -0.720502 5.540741
v 0.277403 -0.721925 5.541285
v 0.279143 -0.720906 5.540846
v 0.278230 -0.720034 5.540503
vn -0.6527 -0.0284 -0.7571
vn -0.9607 0.0872 -0.2636
vn -0.1106 0.7754 -0.6217
vn -0.6304 -0.4057 0.6618
vn -0.6225 0.6589 0.4222
vn 0.0294 0.2218 0.9746
vn -0.9440 -0.3258 -0.0524
vn -0.3324 -0.5545 0.7629
vn 0.7149 -0.0715 0.6956
vn 0.0904 0.3258 -0.9411
vn 0.4930 0.4774 -0.7274
vn 0.6158 0.7397 0.2714
vn 0.6805 0.4854 -0.5489
vn -0.4128 0.3315 -0.8483
vn -0.0073 0.3671 -0.9301
vn -0.9923 -0.0949 -0.0795
vn -0.9493 0.0165 -0.3140
vn -0.6913 -0.4901 0.5309
vn 0.8242 0.4022 -0.3986
vn -0.9229 0.0419 -0.3828
vn -0.9673 -0.2080 -0.1452
vn -0.8711 0.1774 -0.4580
vn -0.4335 0.7722 -0.4645
vn -0.4568 0.7648 -0.4544
vn -0.1171 0.9015 -0.4167
vn -0.9660 -0.1878 0.1779
vn -0.8608 0.4435 -0.2494
vn -0.4839 -0.8255 0.2905
vn -0.7675 -0.6158 0.1782
vn -0.4581 -0.8877 -0.0460
vn -0.7070 -0.7072 0.0065
vn 0.3687 -0.8430 0.3916
vn -0.3794 -0.8387 0.3908
vn -0.9820 -0.1438 0.1229
vn -0.8236 0.5504 0.1368
vn -0.7515 -0.3814 -0.5384
vn -0.5527 -0.8291 -0.0846
vn -0.5141 0.7658 0.3865
vn -0.9570 -0.2116 0.1986
vn -0.3513 0.8201 -0.4517
vn -0.9126 -0.3268 0.2456
vn -0.9562 -0.2888 0.0477
vn -0.6608 -0.5075 0.5530
vn 0.0434 -0.6685 0.7425
vn -0.6665 0.4430 -0.5996
vn 0.7465 0.4924 -0.4476
vn 0.9154 -0.1591 0.3699
vn -0.8620 0.2988 -0.4095
vn -0.8851 -0.0043 -0.4654
vn -0.8589 0.3061 -0.4107
vn 0.1546 0.9814 0.1134
vn -0.0667 0.9764 -0.2053
vn -0.0948 0.9339 -0.3447
vn -0.8745 -0.0408 -0.4833
vn -0.8913 0.1941 -0.4097
vn -0.0612 -0.9786 0.1967
vn 0.7580 -0.4781 0.4437
vn 0.9731 -0.0433 0.2262
vn -0.8033 -0.5464 0.2370
vn -0.6768 -0.6865 -0.2658
vn 0.8797 -0.2936 -0.3740
vn -0.8801 -0.3919 0.2680
vn 0.8470 0.5074 -0.1585
vn 0.8603 0.4492 0.2411
vn 0.7276 0.6014 0.3301
vn 0.6157 0.7876 -0.0243
vn 0.5399 0.8076 -0.2371
vn 0.9901 0.0323 -0.1367
vn 0.7192 -0.6726 0.1741
vn -0.4044 0.8536 0.3284
vn 0.0392 0.8021 0.5959
vn 0.8913 0.3526 -0.2850
vn 0.2428 -0.8635 -0.4422
vn 0.7994 0.4443 0.4045
vn 0.7931 0.5952 -0.1296
vn 0.6811 0.6506 0.3359
vn 0.4388 0.8008 0.4076
vn 0.9049 0.4246 -0.0285
vn 0.7153 0.4782 0.5095
vn -0.8755 0.3912 0.2836
vn -0.9173 0.0556 0.3943
vn -0.4810 0.8515 0.2088
vn -0.2201 -0.7129 -0.6658
vn 0.0219 -0.6407 -0.7675
vn -0.8309 -0.0849 -0.5500
vn -0.2621 -0.4094 -0.8739
vn -0.6202 0.6921 0.3691
vn -0.0840 0.8372 0.5404
vn 0.7225 0.6444 -0.2503
vn 0.8897 -0.4551 0.0366
vn 0.3921 -0.8350 0.3861
vn -0.6189 -0.5888 0.5199
vn -0.9921 -0.1103 0.0604
vn -0.8402 0.4314 -0.3286
vn -0.2237 0.7306 -0.6452
vn 0.8607 0.4100 -0.3018
vn -0.8310 0.5057 -0.2319
vn -0.9977 -0.0461 0.0492
vn 0.9758 0.2156 0.0361
vn 0.6262 -0.3222 0.7100
vn -0.2971 -0.9415 -0.1594
vn -0.2806 -0.9354 -0.2153
vn 0.4378 -0.8988 0.0229
vn -0.5742 -0.8145 -0.0825
vn -0.7061 -0.7076 -0.0273
vn -0.8387 0.5246 -0.1460
vn -0.8826 0.4628 0.0825
vn -0.7462 0.5560 -0.3661
vn -0.0057 0.9701 0.2427
vn 0.7049 0.6366 0.3127
vn 0.8182 0.5046 0.2757
vn 0.9570 -0.1906 -0.2189
vn 0.8995 0.2429 -0.3632
vn -0.4952 0.8512 0.1741
vn -0.4986 0.8668 -0.0070
vn 0.4106 0.9103 0.0522
vn 0.1400 0.9860 0.0903
vn 0.4285 -0.7578 -0.4921
vn -0.9375 0.3028 -0.1716
vn 0.3264 0.5966 0.7331
vn 0.7333 -0.4696 0.4916
vn 0.7416 -0.5542 -0.3780
vn 0.2870 -0.6068 -0.7413
vn -0.2595 0.6231 0.7379
vn 0.2091 0.6215 0.7550
vn 0.1620 0.4842 0.8598
vn 0.3051 0.6104 0.7310
vn -0.6076 0.6149 0.5027
vn 0.9285 -0.3298 0.1705
vn 0.3789 -0.7205 0.5808
vn 0.9898 -0.0472 0.1345
vn 0.8850 -0.3710 0.2812
vn 0.9416 -0.3312 -0.0611
vn 0.5261 -0.8365 -0.1533
vn 0.5566 -0.8154 -0.1592
vn 0.8570 0.4782 0.1919
vn 0.0049 0.9902 0.1392
vn 0.8925 -0.4474 0.0574
vn 0.4551 0.8888 0.0545
vn -0.5928 -0.0989 -0.7992
vn -0.6786 0.0052 -0.7344
vn 0.5130 0.0453 0.8572
vn -0.7975 0.5790 -0.1696
vn 0.2940 0.2382 0.9257
vn -0.7149 0.6984 0.0341
vn 0.3861 -0.5430 -0.7457
vn 0.7434 -0.4913 0.4539
vn 0.8433 -0.5373 -0.0109
vn -0.1422 0.8205 0.5537
vn 0.0014 0.7957 0.6057
vn 0.8104 0.2194 -0.5433
vn 0.5774 -0.3133 -0.7539
vn 0.7679 -0.5651 0.3017
vn 0.6141 -0.0860 0.7846
vn 0.4249 0.0952 0.9002
vn 0.1423 0.4363 0.8885
vn 0.6899 -0.2058 0.6941
vn 0.1643 0.9128 0.3738
s 1
f 3//1 2//2 9//3
f 1//4 4//5 2//2
f 4//5 1//4 5//6
f 2//2 4//5 9//3
f 2//2 3//1 6//7
f 6//7 1//4 2//2
f 7//8 1//4 6//7
f 1//4 8//9 5//6
f 11//10 9//3 10//11
f 10//11 9//3 12//12
f 12//12 13//13 10//11
f 4//5 12//12 9//3
f 12//12 4//5 5//6
f 6//7 3//1 14//14
f 10//11 15//15 11//10
f 7//8 8//9 1//4
f 8//9 12//12 5//6
f 17//16 16//17 14//14
f 16//17 6//7 14//14
f 18//18 7//8 6//7
f 14//14 15//15 10//11
f 10//11 19//19 14//14
f 13//13 12//12 19//19
f 19//19 12//12 8//9
f 22//20 23//21 24//22
f 25//23 26//24 27//25
f 29//26 23//21 22//20
f 30//27 23//21 29//26
f 27//25 26//24 30//27
f 20//28 28//29 31//30
f 32//31 20//28 31//30
f 28//29 20//28 29//26
f 21//32 33//33 20//28
f 35//34 36//35 34//36
f 34//36 37//37 35//34
f 35//34 38//38 36//35
f 20//28 33//33 29//26
f 30//27 40//39 41//40
f 29//26 40//39 30//27
f 27//25 30//27 41//40
f 40//39 29//26 33//33
f 42//41 43//42 17//16
f 43//42 16//17 17//16
f 46//43 45//44 18//18
f 17//16 14//14 44//45
f 44//45 14//14 47//46
f 45//44 7//8 18//18
f 8//9 7//8 45//44
f 48//47 19//19 8//9
f 47//46 14//14 19//19
f 50//48 51//49 52//50
f 53//51 54//52 55//53
f 56//54 52//50 51//49
f 57//55 22//20 24//22
f 31//30 49//56 32//31
f 20//28 49//56 58//57
f 58//57 21//32 20//28
f 21//32 58//57 59//58
f 37//37 62//59 35//34
f 60//60 63//61 37//37
f 62//59 80//62 35//34
f 39//63 66//64 27//25
f 65//65 64//66 67//67
f 59//58 66//64 39//63
f 59//58 39//63 68//68
f 69//69 21//32 59//58
f 34//36 60//60 37//37
f 75//70 74//71 36//35
f 61//72 60//60 71//73
f 76//74 77//75 73//76
f 72//77 73//76 78//78
f 73//76 79//79 76//74
f 78//78 73//76 77//75
f 80//62 81//80 82//81
f 36//35 38//38 83//82
f 86//83 70//84 60//60
f 86//83 85//85 87//86
f 86//83 87//86 70//84
f 60//60 34//36 86//83
f 34//36 36//35 85//87
f 36//35 74//71 85//87
f 88//88 74//71 76//74
f 89//89 39//63 27//25
f 27//25 41//40 89//89
f 84//90 39//63 89//89
f 92//91 40//39 33//33
f 92//91 90//92 40//39
f 88//88 85//87 74//71
f 90//92 91//93 40//39
f 40//39 91//93 93//94
f 40//39 93//94 41//40
f 90//92 42//41 91//93
f 45//44 90//92 92//91
f 41//40 93//94 95//95
f 94//96 41//40 95//95
f 96//97 91//93 42//41
f 94//96 95//95 44//45
f 44//45 93//94 91//93
f 45//44 97//98 90//92
f 42//41 17//16 96//97
f 44//45 91//93 17//16
f 45//44 46//43 97//98
f 44//45 47//46 94//96
f 47//46 48//47 99//99
f 98//100 48//47 45//44
f 45//44 48//47 8//9
f 47//46 19//19 48//47
f 63//101 49//56 100//102
f 101//103 58//57 49//56
f 63//104 102//105 80//62
f 103//106 104//106 105//107
f 106//108 104//106 103//106
f 100//102 49//56 31//30
f 107//109 54//52 53//51
f 108//110 64//66 65//65
f 108//110 65//65 109//111
f 59//58 58//57 66//64
f 60//60 61//72 111//112
f 61//72 110//113 111//112
f 63//104 80//62 62//59
f 38//38 112//114 83//82
f 102//105 81//80 80//62
f 112//114 113//115 83//82
f 78//78 77//75 114//116
f 114//116 77//75 83//117
f 70//84 115//118 60//60
f 60//60 115//118 71//73
f 84//90 69//69 59//58
f 69//69 92//91 33//33
f 92//91 69//69 84//90
f 87//86 85//85 116//119
f 117//120 88//88 79//79
f 76//74 79//79 88//88
f 84//90 89//89 94//96
f 92//91 84//90 94//96
f 70//84 87//86 119//121
f 120//122 115//118 70//84
f 119//121 87//86 121//123
f 85//87 88//88 118//124
f 122//125 123//126 124//127
f 41//40 94//96 89//89
f 85//87 118//124 125//128
f 126//129 92//91 94//96
f 45//44 92//91 127//130
f 94//96 128//131 126//129
f 127//130 126//129 128//131
f 128//131 94//96 47//46
f 127//130 128//131 45//44
f 45//44 128//131 98//100
f 128//131 47//46 99//99
f 129//132 58//57 101//103
f 111//112 130//133 63//61
f 63//61 130//133 131//134
f 49//56 63//101 101//103
f 131//134 130//133 101//135
f 130//133 111//112 132//136
f 130//133 132//136 109//111
f 107//109 133//137 83//117
f 134//138 129//132 101//103
f 107//109 53//51 133//137
f 108//110 109//111 132//136
f 129//132 66//64 58//57
f 63//61 60//60 111//112
f 83//117 135//139 114//116
f 135//139 83//117 133//137
f 121//123 116//140 136//141
f 137//142 115//118 120//122
f 122//125 137//142 123//126
f 85//85 138//143 116//119
f 137//142 139//144 123//126
f 140//145 125//128 118//124
f 138//146 121//123 136//141
f 141//147 137//142 120//122
f 142//148 141//147 120//122
f 138//149 140//145 143//150
f 121//123 144//151 119//121
f 144//151 121//123 145//152
f 145//152 121//123 138//146
f 125//128 140//145 138//149
f 144//153 141//147 142//148
f 141//147 146//154 137//142
f 146//154 147//155 137//142
f 148//156 139//144 137//142
f 144//157 147//155 146//154
f 147//155 148//156 137//142
f 145//152 149//158 144//151
l 150 151
