# Blender v2.78 (sub 0) OBJ File: 'exporter.blend'
# www.blender.org
o FJ2642.obj_grp1.1343
v 0.235844 -0.684250 5.830783
v 0.236914 -0.686017 5.833359
v 0.237851 -0.684405 5.837117
v 0.243177 -0.686600 5.829299
v 0.248136 -0.691026 5.830344
v 0.244458 -0.684396 5.838830
v 0.236180 -0.681707 5.829311
v 0.234927 -0.681119 5.833501
v 0.236598 -0.679490 5.829684
v 0.236448 -0.678387 5.834965
v 0.238306 -0.677108 5.831653
v 0.240726 -0.677341 5.835078
v 0.240767 -0.679889 5.837930
v 0.246971 -0.691206 5.833168
v 0.248445 -0.689523 5.836657
v 0.251115 -0.687957 5.828162
v 0.247906 -0.684184 5.830120
v 0.249885 -0.682610 5.831881
v 0.251132 -0.682544 5.834430
v 0.255994 -0.691882 5.833085
v 0.261136 -0.691138 5.826964
v 0.258170 -0.689530 5.825281
v 0.255376 -0.683700 5.828511
v 0.254921 -0.688674 5.836256
v 0.267608 -0.682148 5.820168
v 0.267253 -0.683899 5.830462
v 0.274729 -0.684514 5.825436
v 0.263656 -0.680198 5.825944
v 0.260592 -0.682538 5.830710
v 0.270180 -0.685864 5.821388
v 0.285104 -0.671879 5.816136
v 0.270330 -0.678764 5.828338
v 0.285264 -0.667286 5.816896
v 0.289398 -0.673191 5.817874
v 0.292029 -0.672115 5.819554
v 0.282868 -0.669178 5.824998
v 0.284624 -0.672720 5.826172
v 0.300606 -0.665740 5.817424
v 0.289493 -0.663463 5.819578
v 0.297585 -0.664099 5.819520
v 0.301392 -0.662787 5.806479
v 0.303916 -0.657717 5.804818
v 0.303364 -0.657512 5.811872
v 0.310918 -0.662938 5.806392
v 0.309352 -0.663539 5.807533
v 0.311642 -0.661617 5.799870
v 0.313815 -0.658556 5.794618
v 0.310396 -0.658817 5.809860
v 0.316979 -0.661625 5.796126
v 0.320049 -0.661119 5.797550
v 0.316245 -0.653235 5.798481
v 0.318736 -0.654838 5.791754
v 0.314274 -0.654764 5.803819
v 0.321387 -0.656334 5.798210
v 0.326208 -0.665500 5.779377
v 0.327343 -0.659986 5.778670
v 0.332749 -0.664899 5.781809
v 0.331498 -0.661123 5.783382
v 0.323810 -0.655727 5.791842
v 0.329932 -0.667201 5.780097
v 0.338342 -0.663756 5.762365
v 0.328139 -0.666018 5.785180
v 0.329716 -0.659256 5.781151
v 0.339790 -0.661968 5.758324
v 0.340882 -0.665313 5.763179
v 0.347534 -0.664076 5.758472
v 0.342134 -0.660663 5.768596
v 0.338657 -0.658254 5.764180
v 0.340809 -0.658264 5.766500
v 0.346738 -0.661157 5.747298
v 0.347847 -0.666725 5.741679
v 0.345841 -0.659326 5.759317
v 0.352170 -0.661901 5.742847
v 0.352757 -0.667975 5.735120
v 0.347774 -0.664447 5.741089
v 0.351601 -0.661752 5.737375
v 0.358884 -0.660504 5.713549
v 0.350578 -0.663253 5.734907
v 0.357644 -0.658010 5.716130
v 0.359653 -0.656249 5.713267
v 0.347606 -0.664431 5.741526
v 0.350012 -0.668441 5.744289
v 0.354601 -0.667671 5.740174
v 0.355731 -0.663918 5.738781
v 0.352385 -0.661915 5.742278
v 0.355617 -0.661323 5.734859
v 0.361326 -0.661889 5.713950
v 0.364082 -0.660031 5.715278
v 0.362559 -0.663393 5.692148
v 0.362864 -0.661572 5.693260
v 0.363452 -0.660861 5.696761
v 0.362748 -0.656276 5.716533
v 0.360322 -0.627038 5.609940
v 0.361818 -0.628104 5.609088
v 0.360586 -0.627944 5.609982
v 0.360810 -0.626165 5.610030
v 0.361887 -0.627151 5.609116
v 0.360367 -0.627043 5.609982
v 0.360586 -0.627944 5.609982
v 0.361164 -0.628691 5.611413
v 0.360392 -0.627132 5.611250
v 0.360367 -0.627043 5.609982
v 0.360367 -0.627043 5.609982
v 0.360810 -0.626165 5.610030
v 0.360957 -0.625804 5.610973
v 0.365219 -0.660042 5.681623
v 0.362709 -0.666279 5.696404
v 0.366674 -0.659829 5.677278
v 0.365924 -0.665586 5.691133
v 0.369116 -0.661319 5.680988
v 0.363756 -0.660915 5.695566
v 0.364225 -0.666569 5.698315
v 0.367040 -0.665266 5.697783
v 0.367011 -0.662438 5.696792
v 0.368623 -0.657557 5.660172
v 0.367974 -0.654066 5.658938
v 0.366287 -0.657155 5.674722
v 0.368459 -0.658657 5.665521
v 0.367411 -0.655925 5.681423
v 0.366648 -0.659840 5.677163
v 0.370211 -0.654112 5.665943
v 0.365219 -0.660042 5.681623
v 0.365551 -0.657446 5.681012
v 0.366287 -0.657155 5.674722
v 0.365551 -0.657446 5.681012
v 0.364814 -0.659741 5.690824
v 0.365716 -0.661276 5.696570
v 0.364570 -0.657264 5.708921
v 0.368369 -0.643154 5.640182
v 0.368427 -0.643174 5.643785
v 0.367618 -0.639118 5.637165
v 0.368427 -0.643174 5.643785
v 0.366853 -0.634526 5.632559
v 0.367618 -0.639118 5.637165
v 0.364544 -0.630743 5.618010
v 0.366407 -0.633351 5.624603
v 0.366830 -0.635958 5.631674
v 0.366548 -0.628903 5.616949
v 0.369611 -0.632361 5.626300
v 0.364623 -0.629933 5.623160
v 0.366938 -0.636357 5.632282
v 0.366998 -0.634658 5.632517
v 0.368427 -0.637367 5.631108
v 0.368477 -0.637548 5.631388
v 0.367931 -0.629389 5.624696
v 0.361855 -0.627038 5.608997
v 0.361853 -0.625499 5.610027
v 0.361666 -0.628334 5.609782
v 0.363728 -0.627108 5.610222
v 0.361962 -0.627032 5.608730
v 0.361921 -0.627054 5.608917
v 0.365081 -0.627089 5.619376
v 0.366386 -0.628879 5.617213
v 0.370335 -0.654192 5.652704
v 0.370726 -0.658576 5.662903
v 0.372654 -0.655822 5.659127
v 0.372513 -0.654267 5.660685
v 0.369742 -0.656755 5.681636
v 0.372513 -0.654267 5.660685
v 0.370914 -0.657909 5.679526
v 0.370326 -0.654185 5.652620
v 0.369618 -0.636359 5.630216
v 0.372650 -0.650217 5.648579
v 0.368662 -0.649573 5.652234
v 0.369368 -0.652319 5.658901
v 0.368677 -0.649682 5.652375
v 0.371241 -0.649546 5.653729
v 0.372698 -0.650779 5.653314
v 0.371244 -0.652953 5.660685
v 0.371244 -0.652953 5.660685
v 0.370211 -0.654112 5.665943
v 0.370691 -0.634830 5.634310
vn -0.2334 -0.8104 -0.5375
vn -0.6753 -0.7327 0.0848
vn -0.7642 -0.4531 -0.4591
vn -0.5495 0.0356 -0.8347
vn -0.9809 0.0624 0.1843
vn -0.5509 -0.3492 0.7580
vn -0.4493 0.5150 -0.7300
vn -0.6350 0.6259 0.4528
vn -0.1597 0.9173 -0.3647
vn -0.1233 -0.1868 -0.9746
vn 0.2090 0.9336 0.2912
vn 0.0130 0.5071 -0.8618
vn -0.0326 0.4973 0.8670
vn 0.0923 -0.0291 0.9953
vn -0.2756 -0.9504 0.1440
vn -0.0713 -0.6491 0.7574
vn -0.3100 0.0072 -0.9507
vn 0.1379 0.9035 -0.4058
vn 0.2496 0.8876 0.3871
vn 0.2424 -0.8948 0.3750
vn 0.2148 -0.9481 -0.2344
vn -0.2183 -0.5288 -0.8202
vn -0.2912 0.7942 -0.5334
vn 0.3279 -0.2908 0.8988
vn -0.3418 0.0978 -0.9347
vn 0.3767 -0.0151 0.9262
vn 0.5760 -0.7634 0.2924
vn -0.4486 0.8845 -0.1283
vn -0.0202 0.9122 0.4093
vn 0.2171 -0.7064 -0.6737
vn -0.6123 0.5819 -0.5352
vn -0.1434 -0.2526 -0.9569
vn -0.2057 0.6013 0.7721
vn 0.3286 -0.7752 -0.5396
vn 0.5331 -0.8429 0.0723
vn 0.3833 -0.0615 0.9216
vn -0.1476 0.6551 0.7410
vn 0.6664 -0.3627 0.6515
vn -0.2989 0.9134 0.2762
vn 0.3547 0.3610 0.8625
vn -0.4686 -0.1936 -0.8619
vn -0.5918 0.6339 -0.4979
vn -0.0511 0.9017 0.4293
vn 0.5529 -0.7853 0.2786
vn 0.4971 -0.8365 0.2303
vn -0.1502 -0.8914 -0.4276
vn -0.7163 -0.2158 -0.6636
vn 0.6191 0.1885 0.7624
vn -0.2363 -0.9594 -0.1539
vn 0.4526 -0.7395 0.4983
vn -0.2794 0.8459 -0.4543
vn 0.0016 0.9998 0.0200
vn 0.3314 0.7717 0.5428
vn 0.7553 0.3712 0.5402
vn -0.6838 -0.5764 -0.4474
vn -0.5640 0.6641 -0.4907
vn 0.7313 -0.4577 0.5057
vn 0.7703 0.4693 0.4317
vn 0.5021 0.8616 0.0751
vn 0.0368 -0.9984 0.0419
vn 0.1920 -0.8941 0.4047
vn 0.2080 0.9778 0.0250
vn -0.8752 0.1698 -0.4530
vn -0.5740 -0.7168 -0.3958
vn -0.0905 -0.9925 -0.0823
vn 0.8290 -0.3842 0.4065
vn 0.8213 0.2855 0.4939
vn -0.3791 0.8829 -0.2772
vn 0.3552 0.9090 0.2179
vn -0.7502 -0.5760 -0.3247
vn -0.4152 0.8493 -0.3260
vn 0.6016 0.7815 0.1655
vn 0.3647 0.9281 0.0745
vn -0.7894 -0.5782 -0.2061
vn -0.1918 -0.9364 -0.2938
vn -0.9394 0.0942 -0.3296
vn -0.8860 0.3400 -0.3154
vn -0.7520 0.5816 -0.3104
vn -0.4045 0.9070 -0.1172
vn -0.9069 -0.0626 -0.4166
vn -0.3462 0.9376 -0.0323
vn -0.0190 -0.9952 0.0958
vn 0.6775 -0.7086 0.1971
vn 0.0625 0.9971 0.0431
vn 0.9077 0.1439 0.3943
vn 0.3874 0.8484 0.3607
vn 0.0371 -0.9991 0.0221
vn 0.9050 -0.3466 0.2467
vn -0.9254 -0.2055 -0.3185
vn -0.8415 0.5368 -0.0616
vn 0.1424 0.9697 -0.1987
vn 0.5601 0.7974 0.2246
vn -0.5797 -0.1288 -0.8046
vn -0.4374 -0.5621 -0.7020
vn -0.5292 -0.5775 -0.6216
vn -0.4581 0.5336 -0.7109
vn -0.3549 0.3706 -0.8583
vn -0.4712 0.2552 -0.8443
vn -0.9392 -0.3360 0.0703
vn -0.5595 -0.8247 -0.0830
vn -0.9761 0.0559 0.2099
vn -0.9717 -0.2362 0.0017
vn -0.8917 0.4498 0.0504
vn -0.9071 0.4202 0.0226
vn -0.8270 0.4090 0.3857
vn -0.6463 0.7483 0.1495
vn -0.8939 -0.3353 -0.2975
vn -0.5890 -0.7961 -0.1389
vn -0.7982 -0.5830 -0.1513
vn 0.1594 -0.9430 -0.2920
vn 0.5160 -0.8269 -0.2236
vn 0.0887 -0.9848 0.1495
vn 0.8306 -0.5294 0.1728
vn -0.6073 -0.7368 -0.2971
vn -0.9796 0.1589 -0.1230
vn -0.9784 0.2059 0.0199
vn -0.3969 -0.8992 -0.1842
vn -0.2108 0.9617 0.1750
vn -0.3835 -0.9140 -0.1329
vn 0.2129 0.9663 0.1445
vn -0.9821 0.0866 -0.1674
vn -0.9785 0.1327 -0.1577
vn -0.9887 0.1005 -0.1111
vn -0.6687 0.7432 0.0218
vn -0.4974 0.8602 -0.1123
vn -0.3373 0.9200 0.1996
vn 0.4129 0.9039 0.1115
vn 0.6571 0.7500 -0.0756
vn 0.9061 0.3757 0.1945
vn -0.9953 0.0533 0.0803
vn -0.9180 -0.3362 -0.2103
vn -0.9926 -0.0944 0.0766
vn -0.6130 0.6017 0.5120
vn -0.1935 0.8154 0.5456
vn -0.9889 -0.0970 0.1121
vn 0.3748 -0.7994 -0.4696
vn 0.0496 -0.8917 -0.4499
vn -0.6115 -0.7260 -0.3145
vn 0.4723 -0.7766 -0.4170
vn 0.5777 -0.6428 -0.5030
vn 0.9860 -0.0008 -0.1667
vn -0.9871 -0.0684 0.1447
vn -0.9806 0.0059 0.1961
vn 0.2648 -0.7987 -0.5403
vn -0.2725 -0.7890 -0.5507
vn 0.6211 0.6877 0.3760
vn 0.4591 0.8529 0.2486
vn -0.5238 -0.0431 -0.8507
vn 0.2435 0.8352 -0.4931
vn 0.4711 -0.5903 -0.6554
vn 0.5212 -0.7259 -0.4488
vn 0.4146 -0.7339 -0.5380
vn 0.0748 0.9659 0.2479
vn 0.8621 0.3034 -0.4058
vn 0.8089 0.5591 -0.1817
vn 0.4637 -0.8154 -0.3466
vn 0.3869 -0.9048 -0.1778
vn 0.8771 -0.4437 -0.1840
vn 0.6256 0.7287 0.2787
vn 0.6428 0.7076 0.2934
vn 0.9931 0.0295 0.1138
vn 0.9876 0.0793 0.1358
vn 0.0004 -0.8631 -0.5050
vn 0.8077 -0.4193 -0.4146
vn -0.7130 0.6353 0.2968
vn 0.4760 0.7068 0.5232
vn -0.2591 0.8080 0.5292
vn 0.2543 0.8376 0.4835
vn 0.9076 0.3536 0.2263
vn 0.2091 0.9185 0.3357
vn 0.6857 0.6622 0.3022
vn 0.3133 0.9126 0.2627
s 1
f 5//1 2//2 1//3
f 7//4 1//3 8//5
f 1//3 2//2 8//5
f 2//2 3//6 8//5
f 9//7 7//4 8//5
f 10//8 9//7 8//5
f 9//7 10//8 11//9
f 4//10 7//4 9//7
f 4//10 1//3 7//4
f 11//9 10//8 12//11
f 9//7 17//12 4//10
f 11//9 17//12 9//7
f 8//5 3//6 10//8
f 3//6 13//13 10//8
f 13//13 12//11 10//8
f 6//14 13//13 3//6
f 14//15 3//6 2//2
f 5//1 1//3 4//10
f 2//2 5//1 14//15
f 15//16 3//6 14//15
f 16//17 4//10 17//12
f 15//16 6//14 3//6
f 12//11 18//18 11//9
f 18//18 17//12 11//9
f 19//19 18//18 12//11
f 12//11 13//13 19//19
f 20//20 5//1 21//21
f 16//17 5//1 4//10
f 5//1 16//17 22//22
f 20//20 14//15 5//1
f 16//17 17//12 23//23
f 21//21 5//1 22//22
f 24//24 6//14 15//16
f 15//16 14//15 20//20
f 15//16 20//20 24//24
f 18//18 23//23 17//12
f 19//19 13//13 6//14
f 16//17 25//25 22//22
f 19//19 6//14 26//26
f 24//24 26//26 6//14
f 27//27 20//20 21//21
f 24//24 20//20 26//26
f 27//27 26//26 20//20
f 16//17 23//23 25//25
f 23//23 28//28 25//25
f 23//23 18//18 29//29
f 29//29 18//18 19//19
f 26//26 29//29 19//19
f 28//28 23//23 29//29
f 30//30 22//22 25//25
f 22//22 30//30 21//21
f 21//21 30//30 27//27
f 25//25 33//31 31//32
f 29//29 26//26 32//33
f 32//33 28//28 29//29
f 30//30 34//34 27//27
f 30//30 25//25 31//32
f 31//32 34//34 30//30
f 35//35 27//27 34//34
f 27//27 37//36 26//26
f 37//36 32//33 26//26
f 33//31 25//25 28//28
f 37//36 36//37 32//33
f 35//35 38//38 27//27
f 38//38 37//36 27//27
f 36//37 28//28 32//33
f 33//31 28//28 39//39
f 28//28 36//37 39//39
f 38//38 40//40 37//36
f 41//41 31//32 42//42
f 42//42 31//32 33//31
f 33//31 39//39 42//42
f 43//43 42//42 39//39
f 40//40 36//37 37//36
f 40//40 39//39 36//37
f 31//32 41//41 34//34
f 43//43 39//39 40//40
f 34//34 44//44 35//35
f 45//45 38//38 35//35
f 41//41 46//46 34//34
f 44//44 34//34 46//46
f 42//42 47//47 41//41
f 40//40 48//48 43//43
f 46//46 49//49 44//44
f 50//50 44//44 49//49
f 44//44 38//38 45//45
f 52//51 42//42 51//52
f 46//46 47//47 49//49
f 42//42 43//43 51//52
f 41//41 47//47 46//46
f 53//53 51//52 43//43
f 50//50 48//48 44//44
f 48//48 38//38 44//44
f 48//48 54//54 53//53
f 48//48 40//40 38//38
f 53//53 43//43 48//48
f 47//47 55//55 49//49
f 56//56 55//55 47//47
f 42//42 52//51 47//47
f 52//51 56//56 47//47
f 54//54 50//50 57//57
f 58//58 54//54 57//57
f 48//48 50//50 54//54
f 59//59 56//56 52//51
f 59//59 52//51 51//52
f 51//52 54//54 59//59
f 54//54 51//52 53//53
f 60//60 49//49 55//55
f 62//61 49//49 60//60
f 50//50 49//49 62//61
f 62//61 57//57 50//50
f 63//62 56//56 59//59
f 63//62 59//59 58//58
f 59//59 54//54 58//58
f 55//55 64//63 61//64
f 61//64 65//65 55//55
f 55//55 65//65 60//60
f 56//56 64//63 55//55
f 60//60 57//57 62//61
f 60//60 65//65 66//66
f 57//57 60//60 66//66
f 58//58 57//57 67//67
f 68//68 64//63 56//56
f 63//62 68//68 56//56
f 58//58 69//69 63//62
f 68//68 63//62 69//69
f 71//70 61//64 64//63
f 57//57 66//66 67//67
f 68//68 70//71 64//63
f 68//68 69//69 72//72
f 68//68 72//72 70//71
f 73//73 70//71 72//72
f 67//67 72//72 69//69
f 67//67 66//66 72//72
f 67//67 69//69 58//58
f 77//74 74//75 71//70
f 78//76 79//77 71//70
f 79//77 75//78 80//79
f 81//80 71//70 64//63
f 75//78 64//63 70//71
f 70//71 76//81 75//78
f 61//64 71//70 82//82
f 71//70 81//80 78//76
f 74//75 83//83 82//82
f 74//75 82//82 71//70
f 82//82 65//65 61//64
f 83//83 66//66 82//82
f 70//71 73//73 85//84
f 65//65 82//82 66//66
f 80//79 75//78 76//81
f 85//84 76//81 70//71
f 84//85 86//86 73//73
f 85//84 86//86 76//81
f 66//66 84//85 72//72
f 73//73 72//72 84//85
f 74//75 87//87 83//83
f 83//83 87//87 88//88
f 83//83 84//85 66//66
f 77//74 79//77 89//89
f 79//77 90//90 89//89
f 91//91 90//90 80//79
f 79//77 80//79 90//90
f 77//74 71//70 79//77
f 87//87 74//75 77//74
f 80//79 76//81 92//92
f 92//92 76//81 86//86
f 93//93 94//94 95//95
f 96//96 97//97 98//98
f 99//99 100//100 101//101
f 99//99 101//101 102//102
f 103//103 101//101 104//104
f 140//105 105//106 101//101
f 104//104 101//101 105//106
f 89//89 106//107 107//108
f 106//107 108//109 107//108
f 107//108 108//109 109//110
f 110//111 109//110 108//109
f 107//108 109//110 112//112
f 109//110 113//113 112//112
f 89//89 107//108 77//74
f 87//87 77//74 107//108
f 107//108 112//112 87//87
f 112//112 113//113 87//87
f 87//87 113//113 88//88
f 115//114 117//115 116//116
f 115//114 118//117 108//109
f 117//115 115//114 108//109
f 116//116 117//115 119//118
f 118//117 110//111 120//119
f 116//116 119//118 121//120
f 117//115 108//109 106//107
f 122//121 123//122 124//123
f 122//121 89//89 123//122
f 89//89 90//90 123//122
f 125//124 90//90 119//118
f 125//124 119//118 117//115
f 120//119 110//111 108//109
f 90//90 111//125 126//126
f 90//90 126//126 119//118
f 126//126 127//127 119//118
f 90//90 91//91 111//125
f 91//91 127//127 126//126
f 91//91 80//79 128//128
f 127//127 91//91 128//128
f 127//127 128//128 114//129
f 114//129 128//128 113//113
f 92//92 128//128 80//79
f 128//128 88//88 113//113
f 128//128 92//92 88//88
f 83//83 88//88 84//85
f 84//85 88//88 92//92
f 86//86 84//85 92//92
f 116//116 130//130 129//131
f 129//131 130//130 131//132
f 132//133 133//134 134//135
f 135//136 136//137 100//100
f 100//100 136//137 137//138
f 138//139 136//137 135//136
f 136//137 138//139 162//140
f 138//139 139//141 162//140
f 137//138 141//142 140//105
f 141//142 142//143 140//105
f 162//140 143//144 136//137
f 137//138 136//137 144//145
f 172//146 145//147 133//134
f 129//131 131//132 141//142
f 141//142 131//132 142//143
f 129//131 137//138 144//145
f 94//94 93//93 146//148
f 147//149 97//97 96//96
f 150//150 149//151 148//152
f 100//100 95//95 94//94
f 100//100 140//105 101//101
f 96//96 105//106 147//149
f 105//106 140//105 152//153
f 105//106 152//153 147//149
f 135//136 100//100 94//94
f 149//151 138//139 148//152
f 151//154 147//149 153//155
f 152//153 153//155 147//149
f 148//152 138//139 135//136
f 100//100 137//138 140//105
f 152//153 140//105 133//134
f 152//153 133//134 145//147
f 153//155 152//153 145//147
f 153//155 145//147 139//141
f 113//113 109//110 110//111
f 115//114 154//156 155//157
f 115//114 155//157 118//117
f 155//157 154//156 156//158
f 155//157 110//111 118//117
f 155//157 156//158 110//111
f 159//159 121//120 158//160
f 157//161 158//160 156//158
f 158//160 121//120 119//118
f 158//160 160//162 156//158
f 110//111 156//158 160//162
f 160//162 158//160 114//129
f 127//127 158//160 119//118
f 110//111 160//162 113//113
f 160//162 114//129 113//113
f 127//127 114//129 158//160
f 129//131 144//145 161//163
f 161//163 144//145 162//140
f 161//163 162//140 163//164
f 116//116 129//131 115//114
f 165//165 164//166 116//116
f 132//133 166//167 167//168
f 130//130 116//116 164//166
f 161//163 115//114 129//131
f 154//156 163//164 156//158
f 161//163 163//164 154//156
f 167//168 159//159 168//169
f 167//168 166//167 169//170
f 170//171 159//159 167//168
f 166//167 171//172 169//170
f 121//120 159//159 170//171
f 163//164 168//169 156//158
f 156//158 168//169 157//161
f 165//165 116//116 121//120
f 162//140 144//145 143//144
f 172//146 163//164 139//141
f 172//146 168//169 163//164
f 132//133 167//168 133//134
f 172//146 133//134 167//168
f 168//169 172//146 167//168
f 139//141 145//147 172//146
f 162//140 139//141 163//164
