# Blender v2.78 (sub 0) OBJ File: 'exporter.blend'
# www.blender.org
o FJ2656.obj_grp1.1357
v 0.188154 -0.389490 5.709509
v 0.187125 -0.396402 5.708770
v 0.191229 -0.402636 5.704823
v 0.190878 -0.402309 5.705894
v 0.187357 -0.397002 5.708570
v 0.190873 -0.402314 5.705896
v 0.191227 -0.402659 5.704814
v 0.191276 -0.402639 5.704807
v 0.194726 -0.403728 5.702937
v 0.194726 -0.403728 5.702937
v 0.203269 -0.408169 5.725517
v 0.215267 -0.413374 5.736501
v 0.197543 -0.402635 5.700213
v 0.199394 -0.402800 5.726260
v 0.188154 -0.389490 5.709509
v 0.195191 -0.385584 5.706458
v 0.187357 -0.397002 5.708570
v 0.198136 -0.396482 5.724677
v 0.202926 -0.394002 5.729359
v 0.195191 -0.385584 5.706458
v 0.192856 -0.385316 5.708571
v 0.206972 -0.392910 5.732022
v 0.192848 -0.385346 5.708570
v 0.204565 -0.445751 5.821998
v 0.201405 -0.429062 5.801318
v 0.203704 -0.442502 5.826622
v 0.201660 -0.423690 5.801397
v 0.202090 -0.432180 5.815258
v 0.205400 -0.427686 5.816884
v 0.205509 -0.413486 5.760416
v 0.204712 -0.415134 5.789973
v 0.206211 -0.418600 5.802469
v 0.206454 -0.405227 5.756160
v 0.208972 -0.414109 5.743929
v 0.205196 -0.408374 5.742964
v 0.202222 -0.398016 5.698270
v 0.197621 -0.402628 5.700135
v 0.202573 -0.397542 5.698112
v 0.214023 -0.407854 5.721902
v 0.214020 -0.403039 5.715940
v 0.204457 -0.402732 5.741686
v 0.203242 -0.395813 5.698305
v 0.198389 -0.384538 5.704676
v 0.198469 -0.384715 5.704757
v 0.203459 -0.388618 5.701328
v 0.209230 -0.389320 5.714800
v 0.203340 -0.388713 5.701434
v 0.215095 -0.393278 5.733149
v 0.210152 -0.561471 5.879465
v 0.215198 -0.589770 5.874324
v 0.211124 -0.556449 5.882405
v 0.209090 -0.535947 5.875313
v 0.209650 -0.528226 5.879033
v 0.213317 -0.547041 5.884105
v 0.213429 -0.512685 5.869830
v 0.211794 -0.541041 5.872065
v 0.213749 -0.560122 5.872747
v 0.212796 -0.501107 5.870731
v 0.209983 -0.450767 5.822526
v 0.211518 -0.467059 5.843765
v 0.214747 -0.465324 5.836807
v 0.213758 -0.469163 5.854465
v 0.205415 -0.441201 5.830194
v 0.210276 -0.442374 5.835935
v 0.210048 -0.439281 5.805906
v 0.213336 -0.426641 5.779231
v 0.208016 -0.427978 5.784482
v 0.212604 -0.433338 5.796121
v 0.213449 -0.436146 5.829664
v 0.208147 -0.416366 5.756024
v 0.210347 -0.421461 5.809134
v 0.211233 -0.407470 5.778222
v 0.213514 -0.412462 5.790118
v 0.211085 -0.397672 5.746892
v 0.204193 -0.392385 5.699838
v 0.204297 -0.392358 5.699763
v 0.213181 -0.397260 5.712535
v 0.213107 -0.393069 5.715456
v 0.216110 -0.593398 5.877929
v 0.219850 -0.595683 5.875682
v 0.220362 -0.595283 5.879306
v 0.217111 -0.593135 5.873036
v 0.218447 -0.592351 5.881510
v 0.214095 -0.571020 5.883394
v 0.220319 -0.572697 5.872386
v 0.218373 -0.546366 5.872045
v 0.217278 -0.555167 5.884775
v 0.220525 -0.540682 5.881537
v 0.216979 -0.521847 5.869474
v 0.217695 -0.517185 5.881124
v 0.223572 -0.517362 5.871808
v 0.213204 -0.517273 5.880195
v 0.220065 -0.505359 5.866134
v 0.215625 -0.500154 5.865314
v 0.219126 -0.494965 5.861004
v 0.213821 -0.486254 5.861695
v 0.216100 -0.495303 5.873386
v 0.219505 -0.497531 5.875538
v 0.215311 -0.485609 5.856893
v 0.221662 -0.474006 5.843795
v 0.220015 -0.483318 5.867879
v 0.214826 -0.446638 5.818460
v 0.218578 -0.453490 5.827554
v 0.219271 -0.454631 5.847293
v 0.216063 -0.439237 5.811580
v 0.220200 -0.445821 5.825400
v 0.218839 -0.437238 5.819040
v 0.220597 -0.448785 5.839603
v 0.214914 -0.424460 5.810868
v 0.217748 -0.427510 5.792510
v 0.217619 -0.427513 5.807856
v 0.220748 -0.413413 5.744950
v 0.219533 -0.405721 5.768073
v 0.220541 -0.403957 5.729537
v 0.219843 -0.398601 5.729643
v 0.220643 -0.399447 5.746236
v 0.222629 -0.594247 5.872763
v 0.224587 -0.594621 5.876672
v 0.225282 -0.592213 5.880070
v 0.222059 -0.591640 5.871102
v 0.224544 -0.589156 5.872519
v 0.226520 -0.590792 5.875839
v 0.222020 -0.592367 5.881976
v 0.222560 -0.562427 5.880061
v 0.221661 -0.544276 5.876037
v 0.222098 -0.504706 5.877407
v 0.225970 -0.502896 5.873171
v 0.222878 -0.509750 5.868419
v 0.226595 -0.502093 5.868518
v 0.224474 -0.495588 5.862144
v 0.224886 -0.492585 5.871725
v 0.225330 -0.472331 5.845350
v 0.223113 -0.480310 5.865623
v 0.226127 -0.471018 5.856382
v 0.227630 -0.473166 5.850073
v 0.226018 -0.462544 5.845426
v 0.223297 -0.410837 5.748685
v 0.222887 -0.411313 5.766843
v 0.223455 -0.405074 5.743291
v 0.228145 -0.488190 5.863915
vn -0.8728 -0.4783 -0.0971
vn -0.8515 -0.4970 -0.1670
vn -0.8544 -0.5042 -0.1253
vn -0.4160 -0.9087 0.0337
vn -0.6076 -0.7911 0.0703
vn -0.6337 -0.7514 0.1840
vn -0.2482 -0.9604 -0.1264
vn 0.1973 -0.9346 -0.2959
vn -0.5509 0.2003 -0.8102
vn -0.6135 0.0410 -0.7887
vn -0.5002 -0.3920 -0.7721
vn -0.8121 -0.3109 0.4938
vn -0.8674 -0.3571 0.3465
vn -0.5312 0.2798 -0.7997
vn -0.5328 0.2868 -0.7962
vn -0.5595 0.1474 -0.8156
vn -0.7604 0.2849 0.5837
vn -0.8039 0.1707 0.5697
vn -0.6355 0.5765 0.5135
vn -0.2528 0.8954 0.3666
vn -0.5604 0.4822 -0.6734
vn -0.8054 -0.5322 -0.2610
vn -0.9798 -0.0458 0.1946
vn -0.9689 -0.2140 -0.1238
vn -0.9569 0.1725 0.2338
vn -0.9267 0.3511 0.1338
vn -0.5054 0.6810 0.5299
vn -0.7808 0.3416 0.5231
vn -0.4322 0.8166 0.3826
vn -0.9568 -0.2435 -0.1588
vn -0.7166 0.6651 0.2103
vn -0.8852 0.4464 0.1307
vn -0.5082 -0.8512 -0.1310
vn -0.9429 -0.3251 0.0725
vn -0.5600 0.2631 -0.7856
vn 0.3128 -0.8395 -0.4444
vn 0.5104 -0.7389 -0.4398
vn 0.6885 -0.4343 -0.5808
vn 0.7610 -0.4074 -0.5049
vn -0.9500 0.1918 0.2465
vn -0.5276 0.2424 -0.8142
vn -0.5059 0.6300 -0.5892
vn 0.2619 0.9639 0.0477
vn -0.4320 0.3421 -0.8345
vn 0.6940 0.6530 -0.3033
vn 0.5546 0.8300 -0.0600
vn -0.1414 0.3899 -0.9099
vn 0.4438 0.8832 0.1515
vn -0.2712 0.8536 0.4449
vn -0.8946 -0.2145 -0.3919
vn -0.9872 -0.1346 0.0850
vn -0.9645 -0.0033 -0.2639
vn -0.9034 0.1235 0.4107
vn -0.7596 -0.0465 0.6487
vn -0.3744 0.0618 0.9252
vn -0.5916 -0.0551 -0.8043
vn -0.1837 -0.0102 -0.9829
vn -0.5928 -0.0481 -0.8039
vn -0.9888 0.1481 -0.0179
vn -0.9136 -0.3794 -0.1464
vn -0.3122 -0.7222 -0.6172
vn -0.3423 -0.6336 -0.6938
vn -0.8194 0.2016 0.5367
vn 0.0937 -0.8540 -0.5117
vn 0.3501 -0.8280 -0.4380
vn -0.3145 -0.8674 -0.3857
vn 0.2061 -0.9175 -0.3402
vn -0.3338 0.5996 0.7274
vn 0.1844 0.7621 0.6207
vn -0.7327 -0.6533 -0.1906
vn 0.0555 0.8601 0.5072
vn -0.1461 0.9424 0.3010
vn 0.2588 0.8697 0.4203
vn -0.2235 0.9268 0.3019
vn 0.0253 0.4039 -0.9144
vn 0.8360 0.1571 -0.5257
vn 0.8723 0.0657 -0.4846
vn 0.8252 0.5038 -0.2555
vn -0.7992 -0.5572 0.2253
vn -0.1732 -0.9658 -0.1931
vn -0.0529 -0.8807 0.4708
vn -0.5850 -0.4928 -0.6441
vn -0.5470 -0.1418 0.8250
vn -0.4392 -0.4233 0.7924
vn 0.2769 0.0563 -0.9593
vn 0.4751 -0.0432 -0.8788
vn 0.1951 -0.0017 0.9808
vn 0.0278 -0.1224 -0.9921
vn -0.5794 0.2428 0.7780
vn 0.1440 0.1744 0.9741
vn 0.7636 0.0611 0.6427
vn 0.7771 -0.2165 -0.5910
vn -0.0299 -0.3648 -0.9306
vn -0.6108 -0.3262 -0.7214
vn -0.9993 -0.0258 -0.0286
vn -0.5916 0.4052 0.6970
vn -0.0247 0.3734 0.9273
vn -0.6808 -0.4839 -0.5499
vn -0.1808 -0.5328 -0.8267
vn 0.1876 -0.6089 -0.7707
vn -0.1688 0.5063 0.8456
vn 0.2815 -0.7081 -0.6475
vn 0.2092 0.6299 0.7480
vn 0.5633 -0.4967 -0.6603
vn 0.7329 -0.5350 -0.4204
vn 0.9874 0.1368 -0.0790
vn 0.8982 -0.2169 -0.3823
vn 0.6980 0.5905 0.4052
vn 0.6352 0.6608 0.3999
vn 0.8280 -0.5390 -0.1547
vn 0.9275 0.3184 0.1958
vn 0.6743 -0.6864 -0.2725
vn 0.5787 0.7644 0.2840
vn 0.9254 -0.2021 -0.3205
vn 0.8962 0.4144 -0.1587
vn 0.6897 0.6995 0.1870
vn 0.3199 -0.7127 -0.6243
vn 0.6483 -0.7614 0.0024
vn 0.7667 -0.3484 0.5392
vn 0.1741 -0.2222 -0.9593
vn 0.7241 0.0235 -0.6893
vn 0.9763 -0.1183 -0.1812
vn 0.2299 -0.4103 0.8825
vn 0.9900 0.1114 0.0870
vn 0.9748 0.0244 -0.2219
vn 0.3993 0.1900 0.8969
vn 0.9126 -0.0004 0.4089
vn 0.4708 -0.2855 -0.8348
vn 0.9424 -0.2074 -0.2626
vn 0.3237 -0.5142 -0.7942
vn 0.6015 0.3434 0.7213
vn 0.7080 -0.3763 -0.5976
vn 0.3766 0.5226 0.7649
vn 0.7668 0.4380 0.4692
vn 0.9849 -0.0491 -0.1659
vn 0.9646 0.2568 0.0606
vn 0.9383 -0.3276 -0.1103
vn 0.9877 0.1036 0.1173
vn 0.9857 0.1368 -0.0987
vn 0.9832 0.0913 0.1579
s 1
f 3//1 4//2 5//3
f 7//4 11//5 6//6
f 11//5 7//4 10//7
f 10//7 12//8 11//5
f 8//9 13//10 9//11
f 6//6 11//5 2//12
f 11//5 14//13 2//12
f 15//14 16//15 8//9
f 17//16 15//14 8//9
f 1//17 2//12 18//18
f 1//17 18//18 19//19
f 2//12 14//13 18//18
f 1//17 19//19 21//20
f 15//14 23//21 16//15
f 24//22 26//23 25//24
f 25//24 28//25 27//26
f 25//24 26//23 28//25
f 28//25 29//27 27//26
f 26//23 63//28 28//25
f 29//27 32//29 27//26
f 30//30 25//24 27//26
f 27//26 31//31 33//32
f 14//13 34//33 35//34
f 36//35 13//10 8//9
f 10//7 37//36 12//8
f 39//37 12//8 37//36
f 38//38 39//37 37//36
f 39//37 38//38 40//39
f 14//13 35//34 41//40
f 8//9 42//41 36//35
f 19//19 18//18 41//40
f 41//40 18//18 14//13
f 20//42 21//20 44//43
f 16//15 42//41 8//9
f 42//41 16//15 43//44
f 45//45 44//43 46//46
f 42//41 43//44 47//47
f 44//43 21//20 48//48
f 19//19 22//49 21//20
f 50//50 49//51 52//52
f 49//51 53//53 52//52
f 51//54 53//53 49//51
f 51//54 54//55 53//53
f 56//56 57//57 50//50
f 52//52 56//56 50//50
f 56//56 52//52 55//58
f 52//52 58//59 55//58
f 52//52 53//53 58//59
f 60//60 59//61 61//62
f 26//23 60//60 62//63
f 62//63 63//28 26//23
f 59//61 60//60 24//22
f 60//60 26//23 24//22
f 24//22 65//64 59//61
f 68//65 67//66 66//67
f 65//64 24//22 67//66
f 67//66 68//65 65//64
f 28//25 63//28 29//27
f 64//68 29//27 63//28
f 64//68 69//69 29//27
f 67//66 70//70 66//67
f 30//30 24//22 25//24
f 30//30 70//70 67//66
f 24//22 30//30 67//66
f 27//26 32//29 31//31
f 71//71 32//29 29//27
f 30//30 34//33 70//70
f 70//70 34//33 66//67
f 72//72 32//29 73//73
f 32//29 71//71 73//73
f 11//5 34//33 14//13
f 12//8 34//33 11//5
f 35//34 30//30 41//40
f 35//34 34//33 30//30
f 30//30 27//26 33//32
f 33//32 31//31 74//74
f 74//74 31//31 72//72
f 72//72 31//31 32//29
f 33//32 22//49 41//40
f 30//30 33//32 41//40
f 74//74 22//49 33//32
f 75//75 42//41 47//47
f 38//38 76//76 77//77
f 38//38 77//77 40//39
f 41//40 22//49 19//19
f 48//48 22//49 74//74
f 45//45 78//78 76//76
f 44//43 48//48 46//46
f 45//45 46//46 78//78
f 48//48 21//20 22//49
f 79//79 80//80 81//81
f 79//79 82//82 80//80
f 82//82 50//50 57//57
f 82//82 79//79 50//50
f 84//83 79//79 83//84
f 81//81 83//84 79//79
f 79//79 49//51 50//50
f 79//79 84//83 49//51
f 85//85 57//57 86//86
f 87//87 54//55 84//83
f 49//51 84//83 51//54
f 54//55 51//54 84//83
f 89//88 56//56 55//58
f 57//57 56//56 89//88
f 86//86 57//57 89//88
f 54//55 92//89 53//53
f 87//87 90//90 54//55
f 88//91 90//90 87//87
f 91//92 86//86 89//88
f 90//90 92//89 54//55
f 89//88 55//58 93//93
f 58//59 53//53 92//89
f 94//94 55//58 58//59
f 93//93 55//58 94//94
f 96//95 94//94 58//59
f 58//59 92//89 97//96
f 92//89 98//97 97//96
f 92//89 90//90 98//97
f 99//98 94//94 96//95
f 94//94 99//98 95//99
f 58//59 97//96 96//95
f 97//96 62//63 96//95
f 60//60 61//62 99//98
f 100//100 99//98 61//62
f 99//98 96//95 60//60
f 64//68 62//63 101//101
f 101//101 62//63 97//96
f 60//60 96//95 62//63
f 61//62 59//61 102//102
f 63//28 62//63 64//68
f 101//101 104//103 64//68
f 103//104 102//102 105//105
f 104//103 69//69 64//68
f 65//64 102//102 59//61
f 102//102 65//64 105//105
f 105//105 107//106 106//107
f 108//108 109//109 69//69
f 105//105 68//65 110//110
f 65//64 68//65 105//105
f 110//110 111//111 107//106
f 105//105 110//110 107//106
f 111//111 109//109 107//106
f 29//27 69//69 71//71
f 66//67 110//110 68//65
f 71//71 69//69 109//109
f 12//8 66//67 34//33
f 12//8 112//112 66//67
f 109//109 73//73 71//71
f 113//113 73//73 109//109
f 73//73 113//113 72//72
f 40//39 77//77 114//114
f 39//37 40//39 114//114
f 74//74 72//72 48//48
f 78//78 77//77 76//76
f 77//77 78//78 115//115
f 114//114 77//77 115//115
f 78//78 46//46 48//48
f 115//115 78//78 48//48
f 115//115 48//48 116//116
f 113//113 48//48 72//72
f 117//117 118//118 80//80
f 118//118 81//81 80//80
f 119//119 81//81 118//118
f 82//82 120//120 117//117
f 120//120 82//82 57//57
f 85//85 121//121 120//120
f 80//80 82//82 117//117
f 120//120 121//121 117//117
f 122//122 118//118 117//117
f 117//117 121//121 122//122
f 122//122 119//119 118//118
f 83//84 81//81 123//123
f 83//84 123//123 84//83
f 123//123 81//81 119//119
f 119//119 87//87 123//123
f 120//120 57//57 85//85
f 119//119 122//122 124//124
f 121//121 125//125 124//124
f 123//123 87//87 84//83
f 124//124 88//91 119//119
f 85//85 125//125 121//121
f 119//119 88//91 87//87
f 85//85 86//86 125//125
f 91//92 125//125 86//86
f 124//124 125//125 88//91
f 125//125 91//92 88//91
f 88//91 126//126 90//90
f 88//91 127//127 126//126
f 128//128 89//88 93//93
f 91//92 89//88 128//128
f 91//92 129//129 88//91
f 128//128 93//93 130//130
f 130//130 129//129 128//128
f 128//128 129//129 91//92
f 88//91 129//129 127//127
f 93//93 94//94 95//99
f 95//99 130//130 93//93
f 90//90 126//126 98//97
f 131//131 98//97 126//126
f 127//127 131//131 126//126
f 98//97 101//101 97//96
f 100//100 95//99 99//98
f 95//99 100//100 130//130
f 100//100 132//132 130//130
f 131//131 101//101 98//97
f 131//131 133//133 101//101
f 131//131 134//134 133//133
f 61//62 103//104 100//100
f 101//101 133//133 104//103
f 103//104 132//132 100//100
f 103//104 106//107 132//132
f 135//135 132//132 106//107
f 108//108 134//134 136//136
f 134//134 104//103 133//133
f 102//102 103//104 61//62
f 106//107 107//106 136//136
f 135//135 106//107 136//136
f 108//108 104//103 134//134
f 107//106 108//108 136//136
f 106//107 103//104 105//105
f 108//108 69//69 104//103
f 108//108 107//106 109//109
f 66//67 112//112 110//110
f 137//137 110//110 112//112
f 137//137 138//138 110//110
f 110//110 138//138 111//111
f 138//138 113//113 111//111
f 113//113 109//109 111//111
f 39//37 112//112 12//8
f 112//112 39//37 114//114
f 112//112 114//114 137//137
f 114//114 139//139 137//137
f 137//137 139//139 138//138
f 139//139 116//116 138//138
f 139//139 114//114 115//115
f 115//115 116//116 139//139
f 116//116 48//48 113//113
f 113//113 138//138 116//116
f 122//122 121//121 124//124
f 130//130 132//132 129//129
f 135//135 129//129 132//132
f 129//129 135//135 140//140
f 140//140 131//131 127//127
f 127//127 129//129 140//140
f 134//134 131//131 140//140
f 135//135 134//134 140//140
f 134//134 135//135 136//136
