# Blender v2.78 (sub 0) OBJ File: 'exporter.blend'
# www.blender.org
o FJ2657.obj_grp1.1358
v 0.256171 -0.781840 5.656754
v 0.256866 -0.785762 5.656912
v 0.285753 -0.789733 5.632510
v 0.259514 -0.787578 5.657758
v 0.276761 -0.785537 5.638042
v 0.257526 -0.785151 5.656950
v 0.257351 -0.784740 5.658666
v 0.260396 -0.784222 5.659109
v 0.259509 -0.784801 5.659652
v 0.259588 -0.787224 5.657727
v 0.259618 -0.785067 5.660170
v 0.268835 -0.782899 5.649581
v 0.265035 -0.788651 5.652610
v 0.260468 -0.783669 5.659328
v 0.269156 -0.785552 5.652000
v 0.286083 -0.782323 5.635383
v 0.289405 -0.787716 5.634838
v 0.283373 -0.786702 5.630849
v 0.286045 -0.783809 5.634545
v 0.286580 -0.789571 5.632184
v 0.281065 -0.784864 5.634963
v 0.288494 -0.785533 5.635717
v 0.278185 -0.733870 5.550808
v 0.278902 -0.734262 5.548667
v 0.279236 -0.732633 5.549860
v 0.279091 -0.734462 5.551344
v 0.276802 -0.734100 5.550231
v 0.277887 -0.733240 5.550460
v 0.290362 -0.752098 5.563593
v 0.279434 -0.733346 5.550308
v 0.284797 -0.784778 5.627822
v 0.287680 -0.788041 5.623128
v 0.283521 -0.786656 5.630639
v 0.284997 -0.784140 5.632649
v 0.284957 -0.784792 5.627691
v 0.285639 -0.783465 5.630681
v 0.285735 -0.786658 5.638937
v 0.287605 -0.778982 5.592232
v 0.288007 -0.786278 5.610654
v 0.284914 -0.773451 5.586204
v 0.285070 -0.775008 5.591172
v 0.284854 -0.773450 5.589186
v 0.285196 -0.768748 5.581812
v 0.290543 -0.758110 5.563439
v 0.285711 -0.748047 5.556262
v 0.284361 -0.746287 5.556558
v 0.280160 -0.739125 5.552182
v 0.284361 -0.746287 5.556558
v 0.286409 -0.749813 5.560028
v 0.286736 -0.746466 5.554755
v 0.285769 -0.748127 5.556324
v 0.288615 -0.756531 5.565698
v 0.279278 -0.732282 5.550646
v 0.289890 -0.748407 5.557891
v 0.283286 -0.737317 5.552996
v 0.288619 -0.784182 5.606227
v 0.291197 -0.785830 5.613437
v 0.291671 -0.781989 5.603338
v 0.292370 -0.782446 5.604059
v 0.287680 -0.788041 5.623128
v 0.290847 -0.787528 5.625780
v 0.284797 -0.784778 5.627822
v 0.290778 -0.787515 5.625851
v 0.288933 -0.785645 5.634772
v 0.287680 -0.788041 5.623128
v 0.289436 -0.782379 5.625475
v 0.289436 -0.782379 5.625475
v 0.289458 -0.778803 5.608647
v 0.289551 -0.778022 5.606903
v 0.287751 -0.768709 5.584795
v 0.291441 -0.759390 5.564822
v 0.292765 -0.762264 5.570058
v 0.287680 -0.768384 5.584631
v 0.292018 -0.760601 5.572097
v 0.289558 -0.761370 5.573421
v 0.293106 -0.762807 5.570070
v 0.292796 -0.757396 5.566611
v 0.292815 -0.762276 5.569703
v 0.292018 -0.760601 5.572097
v 0.290496 -0.752460 5.563976
v 0.286766 -0.746479 5.554821
vn -0.7437 -0.5736 -0.3433
vn -0.2354 -0.9719 -0.0072
vn -0.5693 -0.8215 0.0327
vn -0.7731 0.6340 -0.0188
vn -0.6958 -0.1010 -0.7111
vn -0.2345 0.9496 -0.2081
vn -0.4825 -0.5783 0.6579
vn -0.5402 -0.1427 0.8293
vn 0.1120 0.7475 0.6547
vn -0.3702 -0.5272 0.7649
vn 0.6146 -0.3221 0.7201
vn 0.3867 -0.6983 0.6023
vn -0.2068 -0.9769 -0.0546
vn 0.3879 0.8217 0.4175
vn 0.2416 0.9490 0.2026
vn 0.6638 0.0784 0.7438
vn 0.6429 0.5990 0.4774
vn 0.8069 -0.4210 0.4143
vn -0.8809 -0.1598 -0.4456
vn -0.1583 0.9863 0.0462
vn 0.3741 -0.9200 0.1172
vn 0.6677 0.5631 0.4870
vn 0.9233 -0.3314 0.1940
vn -0.4704 -0.0193 -0.8822
vn -0.9837 0.1650 0.0719
vn -0.8781 -0.1037 -0.4671
vn -0.6726 0.6830 -0.2848
vn -0.8492 0.5277 -0.0198
vn -0.5062 0.8596 0.0699
vn 0.5786 -0.1012 0.8093
vn -0.7236 -0.6421 -0.2532
vn -0.8873 -0.4445 -0.1231
vn -0.8221 -0.4468 -0.3530
vn -0.9965 0.0579 0.0599
vn -0.9970 -0.0774 0.0051
vn -0.9578 0.2837 -0.0463
vn -0.0776 -0.6510 -0.7551
vn -0.5031 -0.6211 -0.6009
vn -0.7927 -0.5771 -0.1963
vn -0.5280 -0.5830 -0.6175
vn -0.8574 -0.5145 -0.0102
vn -0.6124 0.1869 0.7682
vn -0.8595 -0.2018 0.4697
vn -0.9998 -0.0061 -0.0163
vn -0.8937 -0.3900 -0.2217
vn -0.3680 0.1505 0.9175
vn -0.2385 0.3079 0.9210
vn -0.2026 -0.6562 -0.7269
vn 0.3540 -0.2122 -0.9109
vn 0.5064 0.6841 0.5250
vn 0.8884 0.1787 -0.4230
vn 0.9430 0.1791 -0.2804
vn 0.5675 0.7074 -0.4214
vn 0.1228 0.5684 0.8135
vn 0.1919 -0.9346 -0.2995
vn 0.5349 -0.8359 -0.1234
vn -0.1077 -0.9667 -0.2322
vn 0.8253 -0.5646 0.0051
vn 0.9529 0.2936 0.0759
vn -0.8155 -0.5755 -0.0616
vn -0.7702 -0.6248 -0.1283
vn -0.8139 -0.5720 -0.1022
vn 0.2427 -0.9669 -0.0791
vn 0.8478 0.4212 0.3223
vn -0.6831 -0.6813 -0.2629
vn 0.9176 0.3656 0.1561
vn -0.0276 0.9800 0.1972
vn 0.8745 -0.3297 -0.3557
vn 0.3524 0.8036 0.4796
vn -0.2798 0.9301 0.2381
vn -0.8222 0.4898 0.2901
vn 0.8632 0.4861 0.1362
vn 0.4041 -0.6320 -0.6613
vn 0.4121 -0.7605 -0.5018
vn 0.8408 0.3154 0.4400
vn 0.7455 0.4298 0.5094
vn -0.1705 0.8401 0.5150
vn 0.9203 0.1855 0.3444
vn 0.9930 0.0792 0.0873
vn 0.8835 -0.2492 -0.3966
vn 0.0654 0.8036 0.5916
vn 0.1478 0.7121 0.6864
vn 0.7052 -0.0877 -0.7035
vn -0.1761 -0.5973 -0.7824
s 1
f 2//1 3//2 4//3
f 3//2 2//1 1//4
f 3//2 1//4 5//5
f 5//5 1//4 21//6
f 2//1 4//3 7//7
f 6//8 8//9 1//4
f 7//7 4//3 9//10
f 11//11 10//12 13//13
f 8//9 15//14 12//15
f 15//14 14//16 11//11
f 12//15 15//14 16//17
f 1//4 8//9 12//15
f 3//2 17//18 13//13
f 3//2 5//5 18//19
f 3//2 13//13 4//3
f 1//4 12//15 21//6
f 12//15 19//20 21//6
f 3//2 20//21 17//18
f 15//14 22//22 16//17
f 13//13 17//18 11//11
f 25//23 24//24 26//25
f 31//26 32//26 33//26
f 18//19 34//27 35//28
f 36//29 35//28 34//27
f 18//19 5//5 34//27
f 36//29 21//6 19//20
f 15//14 37//30 22//22
f 37//30 11//11 17//18
f 11//11 37//30 15//14
f 38//31 39//32 40//33
f 39//32 41//34 40//33
f 41//34 42//35 40//33
f 43//36 40//33 42//35
f 44//37 38//31 40//33
f 45//38 46//39 47//40
f 48//41 49//42 47//43
f 45//38 52//44 46//39
f 47//40 23//45 24//24
f 27//46 47//43 28//47
f 45//38 47//40 24//24
f 51//48 45//38 50//49
f 49//42 29//50 28//47
f 47//43 49//42 28//47
f 50//49 45//38 24//24
f 24//24 53//51 54//52
f 53//51 55//53 54//52
f 25//23 53//51 24//24
f 29//50 30//54 28//47
f 55//53 30//54 29//50
f 20//21 56//55 57//56
f 57//56 56//55 58//57
f 61//58 57//56 59//59
f 39//60 60//61 62//62
f 57//56 63//63 20//21
f 63//63 57//56 61//58
f 59//59 64//64 61//58
f 65//65 3//2 18//19
f 66//66 16//17 64//64
f 19//20 67//67 36//29
f 20//21 63//63 17//18
f 61//58 64//64 17//18
f 22//22 64//64 16//17
f 17//18 64//64 37//30
f 58//57 38//68 59//59
f 38//68 70//69 59//59
f 41//34 68//70 43//71
f 58//57 56//55 38//68
f 39//32 35//28 41//34
f 68//70 41//34 35//28
f 70//69 69//72 59//59
f 68//70 36//29 67//67
f 35//28 36//29 68//70
f 69//72 66//66 59//59
f 66//66 64//64 59//59
f 43//36 44//37 40//33
f 71//73 38//31 44//37
f 71//73 72//74 38//31
f 74//75 73//76 70//69
f 70//69 43//36 69//72
f 52//44 75//77 29//50
f 76//78 77//79 74//75
f 71//73 77//79 78//80
f 43//36 52//44 44//37
f 52//44 43//36 75//77
f 79//81 75//77 70//69
f 79//81 80//82 75//77
f 38//68 76//78 70//69
f 70//69 76//78 74//75
f 70//69 75//77 43//36
f 44//37 52//44 45//38
f 44//37 81//83 71//73
f 54//52 71//73 81//83
f 54//52 77//79 71//73
f 55//53 29//50 77//79
f 74//75 77//79 29//50
f 24//24 81//83 50//49
f 51//48 50//49 44//84
f 81//83 24//24 54//52
f 52//44 29//50 49//42
f 54//52 55//53 77//79
