# Blender v2.78 (sub 0) OBJ File: 'exporter.blend'
# www.blender.org
o FJ2686.obj_grp1.1385
v 0.097638 -0.684800 5.536978
v 0.098298 -0.687431 5.538515
v 0.099382 -0.687297 5.540178
v 0.097492 -0.679757 5.537649
v 0.105775 -0.697382 5.535039
v 0.098802 -0.688069 5.538625
v 0.099628 -0.684953 5.535645
v 0.107810 -0.698397 5.537685
v 0.099773 -0.684726 5.536218
v 0.100813 -0.683790 5.538415
v 0.107810 -0.698397 5.537685
v 0.111137 -0.699302 5.539966
v 0.107584 -0.697927 5.533997
v 0.099982 -0.683584 5.539845
v 0.099982 -0.683534 5.539892
v 0.099810 -0.677931 5.539164
v 0.100377 -0.684033 5.538002
v 0.100893 -0.680398 5.535911
v 0.109261 -0.666502 5.531931
v 0.101728 -0.677961 5.538671
v 0.101080 -0.684383 5.537592
v 0.103515 -0.677013 5.536817
v 0.102221 -0.677897 5.538745
v 0.105523 -0.672220 5.537155
v 0.110611 -0.667934 5.533983
v 0.107985 -0.665233 5.533992
v 0.105451 -0.672191 5.537169
v 0.116964 -0.711835 5.538359
v 0.112712 -0.709255 5.539321
v 0.114134 -0.710938 5.540168
v 0.108002 -0.695258 5.538814
v 0.113040 -0.706847 5.537404
v 0.114896 -0.709340 5.541024
v 0.113955 -0.705659 5.537357
v 0.114920 -0.709330 5.540972
v 0.109282 -0.698485 5.539355
v 0.111021 -0.698157 5.536573
v 0.111645 -0.697955 5.537666
v 0.113955 -0.705659 5.537357
v 0.118473 -0.712673 5.539164
v 0.112101 -0.698758 5.537685
v 0.113022 -0.701201 5.539518
v 0.110852 -0.666527 5.534874
v 0.110577 -0.666942 5.533541
v 0.109651 -0.667212 5.533674
v 0.109291 -0.665032 5.533883
v 0.109300 -0.664830 5.533971
v 0.109270 -0.666217 5.533328
v 0.109260 -0.666506 5.531958
v 0.110280 -0.666066 5.532929
v 0.110332 -0.665739 5.534072
v 0.114656 -0.711664 5.539662
v 0.122180 -0.716261 5.540469
v 0.122067 -0.714471 5.538628
v 0.116360 -0.712462 5.540503
v 0.118281 -0.712625 5.541131
v 0.122046 -0.714109 5.542062
v 0.114692 -0.710155 5.539889
v 0.118578 -0.709807 5.540571
v 0.113978 -0.705908 5.540737
v 0.117425 -0.710401 5.537166
v 0.116049 -0.706986 5.539670
v 0.123341 -0.715282 5.541737
v 0.124042 -0.713843 5.540247
v 0.124712 -0.713427 5.539710
v 0.131067 -0.715983 5.538599
v 0.125455 -0.715246 5.541441
v 0.131145 -0.714823 5.539596
v 0.130496 -0.713954 5.539598
v 0.127673 -0.714504 5.540494
v 0.129940 -0.713420 5.537592
v 0.130102 -0.713173 5.538007
v 0.132013 -0.714356 5.538637
v 0.130773 -0.713114 5.538625
v 0.130879 -0.714358 5.537216
v 0.129940 -0.713420 5.537592
v 0.132002 -0.714358 5.538625
vn -0.4178 -0.2313 0.8786
vn -0.9604 0.2698 -0.0697
vn -0.8043 -0.2921 0.5174
vn -0.9009 -0.1020 -0.4220
vn -0.6941 -0.6969 0.1804
vn -0.8149 -0.4989 -0.2951
vn -0.7492 -0.5645 0.3465
vn -0.5423 -0.0173 -0.8400
vn -0.5681 -0.3012 0.7659
vn 0.8227 0.2075 -0.5293
vn 0.8177 0.5320 0.2201
vn 0.5598 0.3052 -0.7704
vn 0.8548 -0.0898 0.5111
vn 0.3809 0.0302 0.9241
vn 0.2697 0.1449 0.9520
vn 0.7690 0.4172 0.4843
vn -0.3392 0.3573 0.8702
vn 0.5735 0.7332 -0.3653
vn 0.3548 -0.3094 -0.8823
vn 0.5262 0.4608 -0.7147
vn 0.8313 -0.5268 0.1773
vn 0.8174 -0.3889 0.4251
vn 0.3249 -0.0105 0.9457
vn -0.3753 0.6713 0.6392
vn 0.6107 -0.2962 -0.7344
vn -0.3990 0.9152 0.0566
vn 0.6801 -0.3181 0.6605
vn -0.3743 -0.6676 -0.6436
vn -0.4251 -0.3338 -0.8414
vn -0.4411 -0.3424 0.8296
vn -0.2861 -0.2624 0.9216
vn 0.2208 -0.2239 -0.9493
vn 0.6789 0.3281 -0.6569
vn -0.4879 -0.2420 0.8387
vn 0.2412 -0.1133 -0.9638
vn 0.6757 0.3408 0.6536
vn -0.4309 -0.3597 0.8276
vn 0.8645 0.4947 -0.0884
vn 0.6854 0.2720 -0.6755
vn 0.5691 0.3280 -0.7540
vn 0.1404 0.2571 -0.9561
vn 0.8555 0.4889 0.1706
vn 0.8099 -0.5827 0.0669
vn 0.4035 0.7363 0.5433
vn 0.8215 -0.5678 -0.0510
vn 0.7008 0.4474 -0.5557
vn 0.5776 0.1752 -0.7973
vn 0.7746 0.4149 -0.4773
vn 0.3733 0.6049 0.7033
vn 0.5412 0.1025 -0.8346
vn -0.4963 -0.5718 -0.6533
vn -0.1124 -0.5922 0.7979
vn 0.3336 -0.2555 -0.9074
vn -0.5055 -0.7992 0.3250
vn -0.3847 -0.9209 -0.0628
vn 0.0520 -0.4866 0.8721
vn -0.4747 -0.6684 0.5726
vn -0.0373 0.9479 -0.3164
vn 0.0358 0.8655 -0.4997
vn -0.0219 0.9714 -0.2364
vn 0.6750 0.2834 -0.6812
vn 0.3908 0.5902 -0.7064
vn 0.2913 0.3050 0.9067
vn 0.8874 0.1946 0.4179
vn 0.2779 0.3006 0.9124
vn 0.6739 -0.7124 0.1960
vn 0.1676 -0.9048 0.3914
vn 0.2285 0.0227 0.9733
vn 0.0371 0.4901 -0.8709
vn 0.2559 0.8282 0.4986
vn 0.2755 0.7662 0.5805
vn 0.0981 0.7809 0.6169
vn 0.1332 0.8291 0.5429
vn -0.1541 0.9705 -0.1855
vn 0.1703 0.7805 0.6015
vn 0.5422 -0.0126 0.8401
vn 0.5017 0.3410 0.7950
vn 0.5407 0.6545 -0.5284
vn 0.4614 0.6864 -0.5620
vn 0.6155 0.6170 -0.4904
s 1
f 3//1 4//2 2//3
f 1//4 2//3 4//2
f 1//4 5//5 6//6
f 6//6 5//5 8//7
f 5//5 1//4 7//8
f 2//3 11//9 3//1
f 9//10 10//11 13//12
f 10//11 15//13 14//14
f 14//14 3//1 12//15
f 42//16 10//11 14//14
f 16//17 4//2 3//1
f 14//14 16//17 3//1
f 17//18 10//11 9//10
f 18//19 7//8 1//4
f 16//17 15//13 10//11
f 18//19 1//4 19//20
f 19//20 1//4 4//2
f 17//18 9//10 22//21
f 17//18 22//21 23//22
f 10//11 20//23 16//17
f 9//10 18//19 22//21
f 20//23 24//24 16//17
f 25//25 22//21 18//19
f 16//17 26//26 4//2
f 23//22 22//21 27//27
f 8//7 28//28 29//29
f 30//30 31//31 11//9
f 32//32 13//12 37//33
f 28//28 8//7 5//5
f 33//34 31//31 30//30
f 37//33 34//35 32//32
f 35//36 12//15 36//37
f 37//33 38//38 39//39
f 39//39 38//38 40//40
f 40//41 41//42 42//16
f 3//1 11//9 31//31
f 3//1 36//37 12//15
f 37//33 13//12 10//11
f 12//15 42//16 14//14
f 42//16 41//42 38//38
f 10//11 38//38 37//33
f 42//16 38//38 10//11
f 18//19 19//20 25//25
f 22//21 43//43 27//27
f 43//44 16//17 24//24
f 43//43 22//21 44//45
f 19//20 4//2 26//26
f 45//46 19//20 26//26
f 45//46 26//26 46//47
f 19//20 48//48 25//25
f 47//49 45//46 46//47
f 25//25 48//48 51//50
f 26//26 43//44 47//49
f 26//26 16//17 43//44
f 45//46 47//49 43//44
f 52//51 28//28 54//52
f 28//28 52//51 29//29
f 56//53 32//32 34//35
f 55//54 52//51 53//55
f 53//55 33//34 30//30
f 33//34 53//55 63//56
f 33//34 63//56 57//57
f 54//58 56//59 64//60
f 40//41 62//61 65//62
f 12//15 60//63 42//16
f 35//36 61//64 12//15
f 62//61 40//41 42//16
f 60//63 59//65 42//16
f 53//55 52//51 66//66
f 52//51 54//52 66//66
f 63//56 53//55 67//67
f 57//57 63//56 68//68
f 69//69 66//66 54//52
f 62//61 70//70 65//62
f 57//71 70//72 58//73
f 71//74 54//58 64//60
f 70//70 72//75 65//62
f 53//55 66//66 68//76
f 67//67 53//55 68//76
f 68//76 66//66 73//77
f 68//76 72//75 70//70
f 74//78 75//78 76//79
f 73//77 72//75 68//76
f 75//78 74//78 77//80
l 49 50
l 17 21
