# Blender v2.78 (sub 0) OBJ File: 'exporter.blend'
# www.blender.org
o FJ2671.obj_grp1.1370
v 0.005158 -0.766518 5.835471
v 0.005200 -0.763049 5.834267
v 0.016237 -0.776507 5.814657
v 0.004973 -0.762783 5.834083
v 0.008237 -0.762618 5.834454
v 0.002320 -0.752807 5.844492
v 0.002182 -0.749227 5.841953
v 0.005614 -0.749161 5.839297
v 0.005064 -0.752084 5.847245
v 0.008833 -0.751821 5.846156
v 0.006479 -0.747507 5.843915
v 0.017666 -0.783801 5.811939
v 0.019090 -0.786695 5.810905
v 0.015040 -0.776792 5.825419
v 0.017132 -0.771739 5.820202
v 0.012035 -0.765633 5.837496
v 0.023366 -0.782825 5.816167
v 0.010921 -0.768247 5.837462
v 0.015040 -0.776792 5.825419
v 0.011283 -0.763242 5.838954
v 0.011294 -0.763277 5.838940
v 0.010525 -0.750768 5.842796
v 0.036321 -0.800645 5.808558
v 0.018458 -0.786515 5.809916
v 0.022903 -0.789473 5.808612
v 0.019963 -0.785119 5.817420
v 0.025045 -0.783742 5.812459
v 0.035019 -0.798378 5.805337
v 0.036612 -0.795213 5.804073
v 0.041371 -0.799297 5.808313
v 0.035276 -0.792031 5.807996
v 0.039520 -0.798604 5.801430
v 0.040674 -0.799602 5.800153
v 0.037083 -0.792914 5.807392
v 0.055521 -0.815715 5.780362
v 0.058745 -0.815768 5.782104
v 0.045417 -0.800603 5.799505
v 0.041743 -0.797134 5.806077
v 0.045417 -0.800603 5.799505
v 0.041743 -0.797134 5.806077
v 0.050908 -0.805716 5.789505
v 0.056747 -0.809608 5.787443
v 0.045417 -0.800603 5.799505
v 0.045417 -0.800603 5.799505
v 0.050908 -0.805716 5.789505
v 0.059468 -0.814774 5.772922
v 0.061324 -0.813476 5.774060
v 0.054938 -0.809889 5.781713
v 0.064905 -0.815922 5.774514
v 0.060652 -0.815417 5.774856
v 0.066641 -0.818893 5.760776
v 0.066703 -0.821451 5.759229
v 0.066911 -0.822800 5.763497
v 0.066121 -0.820736 5.766635
v 0.066081 -0.821354 5.767018
v 0.068744 -0.821173 5.763793
v 0.071994 -0.819399 5.760232
v 0.067530 -0.817924 5.764376
v 0.071134 -0.824246 5.759319
v 0.075139 -0.820803 5.759536
v 0.071126 -0.824129 5.759302
v 0.072685 -0.823289 5.761788
v 0.082105 -0.824555 5.753675
v 0.071242 -0.820638 5.762821
v 0.072047 -0.819518 5.760211
v 0.076730 -0.820955 5.759131
v 0.077349 -0.825956 5.758300
v 0.083070 -0.826679 5.756416
v 0.082994 -0.826569 5.756455
v 0.084893 -0.822335 5.755516
v 0.084893 -0.822335 5.755516
v 0.087421 -0.824777 5.754425
v 0.084628 -0.822884 5.753075
v 0.102943 -0.826159 5.738857
v 0.088627 -0.825152 5.754624
v 0.105408 -0.824809 5.739501
v 0.097482 -0.827757 5.745845
v 0.105232 -0.828644 5.740530
v 0.105650 -0.825077 5.739490
v 0.107275 -0.828021 5.738466
v 0.105246 -0.827016 5.741853
v 0.107406 -0.827968 5.738474
v 0.105528 -0.828682 5.740493
v 0.104553 -0.827062 5.742747
v 0.097482 -0.827757 5.745845
v 0.108335 -0.826106 5.741031
v 0.111071 -0.826075 5.737934
v 0.110243 -0.828507 5.740510
v 0.110223 -0.828499 5.740493
v 0.111162 -0.828250 5.738616
v 0.111162 -0.827030 5.741573
v 0.113707 -0.827740 5.739806
v 0.113904 -0.826969 5.741718
v 0.111162 -0.825260 5.738616
v 0.110918 -0.824951 5.740223
v 0.111162 -0.825260 5.738616
v 0.105528 -0.824908 5.739554
v 0.110633 -0.825942 5.741509
v 0.104676 -0.826011 5.742653
v 0.113962 -0.826137 5.741634
v 0.113989 -0.825025 5.739559
v 0.113747 -0.826148 5.741674
v 0.115076 -0.827178 5.739410
v 0.114918 -0.827025 5.740493
v 0.113832 -0.828269 5.740493
v 0.113920 -0.828213 5.739554
v 0.114918 -0.827025 5.740493
v 0.114900 -0.827044 5.739554
v 0.113978 -0.827030 5.738380
v 0.113978 -0.825044 5.739554
v 0.114918 -0.827025 5.740493
v 0.114835 -0.826086 5.740541
v 0.113953 -0.826128 5.741573
v 0.113940 -0.827072 5.741620
v 0.114939 -0.826091 5.739554
v 0.114574 -0.826497 5.739562
v 0.113978 -0.827030 5.738380
v 0.114844 -0.826681 5.739463
v 0.113373 -0.826601 5.739584
v 0.113369 -0.826587 5.740366
vn -0.6501 -0.0586 -0.7576
vn -0.3531 0.4643 -0.8122
vn -0.8331 -0.5141 0.2042
vn -0.8814 -0.1521 0.4472
vn -0.8008 0.5851 -0.1281
vn 0.0878 0.0701 -0.9937
vn 0.0608 0.6763 -0.7341
vn -0.2413 0.0841 0.9668
vn 0.1332 0.9419 0.3084
vn 0.6006 0.1208 0.7904
vn -0.2760 -0.6024 0.7489
vn -0.9522 -0.2931 -0.0858
vn -0.6824 -0.6938 0.2301
vn -0.4982 -0.8106 0.3077
vn 0.4923 0.7915 -0.3622
vn 0.3863 0.6740 -0.6297
vn 0.9245 0.1157 0.3631
vn 0.7964 0.1607 0.5831
vn 0.1747 -0.7185 0.6732
vn 0.1340 -0.7822 0.6084
vn 0.8504 0.0586 0.5228
vn 0.3440 -0.2818 0.8957
vn 0.9129 0.4081 -0.0043
vn -0.6276 -0.7457 -0.2239
vn -0.2555 -0.8033 0.5380
vn -0.1956 0.3831 -0.9028
vn 0.6771 0.7283 0.1058
vn -0.6520 -0.4498 -0.6104
vn 0.6209 -0.1161 0.7752
vn -0.0783 0.4920 -0.8671
vn 0.5079 0.6975 -0.5055
vn -0.6448 0.1866 -0.7412
vn -0.2830 0.5615 -0.7776
vn 0.6323 0.5378 0.5576
vn -0.6097 -0.7836 -0.1192
vn 0.4377 -0.7306 0.5241
vn 0.1350 0.8693 -0.4755
vn 0.6070 0.7896 -0.0904
vn 0.6018 0.7943 -0.0830
vn 0.6802 0.7234 -0.1184
vn 0.7918 0.4293 0.4344
vn -0.2158 0.7404 -0.6366
vn 0.6661 -0.3068 0.6798
vn 0.7842 0.5608 0.2655
vn 0.5102 0.8464 -0.1526
vn 0.5273 0.8422 -0.1121
vn 0.5243 0.8387 -0.1469
vn -0.2582 0.8227 -0.5065
vn -0.5370 0.6492 -0.5386
vn -0.2134 0.8038 -0.5553
vn 0.1879 0.9313 -0.3119
vn 0.5247 0.8493 -0.0590
vn 0.1285 0.9532 -0.2736
vn -0.2840 -0.9377 0.2001
vn -0.5798 -0.1473 -0.8013
vn 0.6074 -0.5699 0.5534
vn -0.3646 0.7186 -0.5922
vn 0.0331 0.4896 -0.8713
vn 0.2479 0.9627 -0.1083
vn 0.5939 0.1944 0.7807
vn 0.3984 -0.6853 0.6096
vn 0.6625 -0.5344 0.5249
vn 0.7242 -0.4181 0.5484
vn -0.0652 0.7208 -0.6901
vn -0.3417 -0.6312 -0.6963
vn -0.0817 -0.9422 0.3249
vn 0.1646 -0.6612 0.7319
vn 0.3280 0.8518 0.4085
vn 0.4679 0.7404 0.4825
vn -0.3944 -0.6939 -0.6024
vn -0.5207 -0.1379 -0.8425
vn 0.4144 -0.2820 0.8653
vn 0.4710 0.5076 0.7215
vn 0.5218 -0.1213 0.8444
vn -0.0358 0.9664 -0.2546
vn 0.0651 0.9715 -0.2278
vn 0.0518 0.9793 -0.1957
vn -0.4258 -0.0080 -0.9048
vn 0.5435 0.5093 0.6673
vn -0.1409 0.7113 -0.6886
vn 0.5563 -0.1446 0.8183
vn -0.2250 -0.9350 -0.2740
vn -0.3020 -0.8522 -0.4272
vn 0.5108 0.5418 0.6675
vn 0.1158 0.6800 0.7240
vn 0.1995 0.7085 0.6769
vn -0.0570 -0.5882 -0.8067
vn -0.0800 -0.1283 -0.9885
vn 0.1947 -0.7521 0.6297
vn 0.1945 -0.7521 0.6297
vn 0.3518 -0.6785 0.6449
vn -0.1026 0.6877 0.7187
vn 0.1617 0.2344 -0.9586
vn -0.0342 -0.9464 0.3212
vn 0.0315 -0.8029 0.5953
vn 0.2055 -0.7728 -0.6004
vn 0.0915 -0.6079 0.7887
vn 0.0002 -0.5621 0.8271
vn 0.2813 -0.9583 0.0499
vn 0.2557 -0.8871 0.3843
vn 0.1121 0.6159 -0.7798
vn -0.1941 0.7130 0.6738
vn 0.0694 0.9625 0.2624
vn -0.0134 0.9848 -0.1730
vn 0.0306 0.9823 -0.1846
vn -0.1253 0.2181 0.9679
vn 0.1080 0.7749 0.6228
vn 0.1019 0.7800 0.6174
vn -0.1184 0.0978 0.9881
vn 0.4410 0.8214 0.3618
vn 0.3703 0.7899 0.4887
vn 0.3230 -0.6187 -0.7162
vn 0.7604 -0.6493 0.0153
vn 0.7542 -0.6559 0.0315
vn 0.7606 -0.6491 0.0154
vn 0.3447 -0.8813 0.3233
vn 0.7665 -0.6423 -0.0009
vn 0.3473 0.5140 -0.7843
vn 0.3659 0.4736 -0.8011
vn 0.7586 0.0221 0.6511
vn 0.7607 0.0272 0.6486
vn 0.7586 0.0221 0.6512
vn 0.7565 0.0170 0.6537
vn 0.4850 0.4450 -0.7528
vn 0.8846 0.3383 0.3211
s 1
f 2//1 3//2 1//3
f 6//4 7//5 1//3
f 1//3 7//5 2//1
f 4//6 7//5 8//7
f 1//3 9//8 6//4
f 8//7 7//5 11//9
f 6//4 9//8 7//5
f 7//5 9//8 11//9
f 10//10 11//9 9//8
f 26//11 12//12 13//13
f 12//12 26//11 14//14
f 1//3 3//2 12//12
f 15//15 3//2 2//1
f 5//16 15//15 2//1
f 12//12 14//14 1//3
f 16//17 17//18 15//15
f 1//3 14//14 18//19
f 17//18 18//19 19//20
f 17//18 16//17 18//19
f 4//6 5//16 2//1
f 16//17 5//16 20//21
f 15//15 5//16 16//17
f 18//19 9//8 1//3
f 9//8 18//19 10//10
f 16//17 21//22 18//19
f 18//19 21//22 20//21
f 20//21 5//16 22//23
f 4//6 8//7 5//16
f 8//7 22//23 5//16
f 18//19 22//23 10//10
f 18//19 20//21 22//23
f 8//7 11//9 22//23
f 22//23 11//9 10//10
f 25//24 23//25 13//13
f 3//2 24//26 12//12
f 23//25 26//11 13//13
f 17//18 19//20 26//11
f 15//15 27//27 3//2
f 15//15 17//18 27//27
f 28//28 23//25 25//24
f 23//25 17//18 26//11
f 30//29 17//18 23//25
f 30//29 27//27 17//18
f 3//2 29//30 24//26
f 31//31 29//30 3//2
f 27//27 31//31 3//2
f 28//28 29//30 32//32
f 29//30 31//31 33//33
f 28//28 24//26 29//30
f 27//27 30//29 34//34
f 35//35 23//25 28//28
f 23//25 35//35 36//36
f 28//28 32//32 33//33
f 37//37 33//33 31//31
f 38//38 39//39 31//40
f 30//29 23//25 36//36
f 30//29 40//41 34//34
f 41//42 28//28 33//33
f 41//42 33//33 37//37
f 42//43 43//44 30//29
f 44//45 42//46 45//47
f 30//29 43//44 40//41
f 47//48 46//49 48//50
f 46//49 28//28 50//51
f 46//49 35//35 28//28
f 50//51 28//28 41//42
f 42//43 30//29 36//36
f 49//52 45//47 42//46
f 41//42 49//53 50//51
f 53//54 35//35 52//55
f 53//54 36//36 35//35
f 54//56 36//36 53//54
f 52//55 35//35 46//49
f 47//48 51//57 46//49
f 52//55 46//49 51//57
f 57//58 51//57 58//59
f 51//57 50//51 58//59
f 50//51 49//53 58//59
f 49//53 64//60 58//59
f 64//60 49//53 56//61
f 36//36 55//62 56//63
f 42//43 36//36 56//63
f 52//55 51//57 57//58
f 60//64 52//55 57//58
f 52//55 59//65 53//54
f 53//54 61//66 62//67
f 53//54 62//67 54//56
f 56//61 62//67 64//60
f 64//60 66//68 65//69
f 65//69 58//59 64//60
f 59//65 52//55 67//70
f 52//55 63//71 67//70
f 61//66 69//72 62//67
f 63//71 52//55 60//64
f 71//73 66//68 64//60
f 72//74 64//60 62//67
f 73//75 60//76 70//77
f 74//78 63//71 60//64
f 63//71 74//78 67//70
f 71//73 64//60 75//79
f 62//67 69//72 72//74
f 70//77 76//80 73//75
f 77//81 72//74 69//72
f 68//82 67//70 74//78
f 68//82 74//78 78//83
f 75//79 79//84 71//73
f 76//80 74//78 73//75
f 79//85 72//74 77//81
f 77//81 81//86 79//85
f 78//83 74//78 80//87
f 82//88 80//87 74//78
f 83//89 84//90 85//91
f 86//92 79//85 81//86
f 82//88 74//78 87//93
f 76//80 87//93 74//78
f 78//83 80//87 88//94
f 83//89 89//95 84//90
f 88//94 80//87 90//96
f 90//96 82//88 87//93
f 81//97 88//94 91//98
f 90//96 92//99 88//94
f 91//98 88//94 93//100
f 94//101 87//93 76//80
f 79//85 86//92 95//102
f 95//103 96//104 97//105
f 93//106 86//92 81//86
f 98//107 95//103 99//108
f 100//109 86//92 93//106
f 95//103 101//110 96//104
f 102//111 95//103 98//107
f 88//94 92//99 93//100
f 103//112 90//96 87//93
f 92//99 90//96 103//112
f 104//113 105//114 106//115
f 92//99 107//116 93//100
f 104//113 106//115 108//117
f 109//118 87//93 94//101
f 110//119 109//118 94//101
f 101//110 95//103 102//111
f 111//120 112//121 113//122
f 114//123 111//120 113//122
f 109//118 110//119 115//124
f 116//125 101//110 102//111
l 117 118
l 119 120
