# Blender v2.78 (sub 0) OBJ File: 'exporter.blend'
# www.blender.org
o FJ2622.obj_grp1.1323
v 0.286319 -0.774176 4.664261
v 0.300099 -0.776515 4.682008
v 0.271452 -0.756215 4.653060
v 0.272412 -0.765035 4.654501
v 0.300425 -0.776450 4.681095
v 0.286720 -0.772802 4.664476
v 0.270977 -0.740996 4.646275
v 0.270977 -0.740996 4.646275
v 0.288002 -0.702610 4.657158
v 0.320036 -0.763079 4.687761
v 0.300425 -0.776450 4.681095
v 0.307818 -0.775800 4.684210
v 0.355467 -0.748834 4.635425
v 0.306932 -0.774951 4.686255
v 0.343970 -0.705774 4.612620
v 0.287908 -0.706641 4.654647
v 0.279769 -0.714509 4.643749
v 0.373042 -0.716604 4.686067
v 0.311982 -0.688086 4.666852
v 0.358966 -0.697081 4.687619
v 0.345057 -0.676548 4.631257
v 0.324738 -0.689403 4.669103
v 0.413458 -0.712547 4.636347
v 0.414520 -0.717761 4.671116
v 0.426424 -0.668176 4.710065
v 0.398495 -0.683074 4.614997
v 0.425509 -0.636197 4.704499
v 0.404414 -0.628683 4.666487
v 0.407162 -0.637874 4.641105
v 0.448624 -0.674434 4.689861
v 0.448846 -0.653049 4.666673
v 0.444787 -0.664281 4.703685
v 0.445628 -0.663686 4.704353
v 0.430599 -0.646547 4.705658
v 0.430579 -0.629550 4.667127
v 0.430916 -0.650145 4.707770
vn -0.7645 -0.3178 0.5608
vn -0.7567 -0.3254 0.5670
vn -0.7767 -0.3297 0.5367
vn -0.8884 0.2144 0.4059
vn -0.6709 0.2211 0.7078
vn -0.6328 0.1988 0.7484
vn 0.1917 -0.9375 -0.2905
vn 0.6685 0.2342 -0.7059
vn 0.3120 -0.9161 -0.2519
vn 0.0274 -0.6075 -0.7938
vn 0.2812 -0.7728 -0.5690
vn -0.6009 0.2198 0.7685
vn -0.1697 0.0106 -0.9854
vn -0.4352 -0.1426 -0.8889
vn -0.4627 0.6571 -0.5951
vn -0.9027 0.3359 0.2687
vn 0.1306 -0.3054 0.9432
vn 0.6382 -0.6725 0.3748
vn -0.4517 0.2186 0.8650
vn -0.4472 0.2687 0.8531
vn -0.2598 0.0802 0.9623
vn -0.5601 0.6995 -0.4438
vn -0.2776 0.9010 0.3333
vn 0.6079 -0.7264 0.3208
vn 0.0875 -0.1670 0.9821
vn 0.6405 -0.5474 -0.5385
vn 0.2995 0.1403 -0.9437
vn -0.4895 0.3918 0.7790
vn -0.3644 0.9283 0.0740
vn 0.0947 0.7358 -0.6706
vn 0.8813 -0.4032 0.2465
vn 0.9083 0.2767 -0.3137
vn 0.1162 -0.4192 0.9004
vn 0.6774 0.1708 0.7155
vn 0.5437 0.5951 0.5919
vn 0.4645 0.8746 -0.1393
vn -0.1583 0.1440 0.9768
s 1
f 5//1 3//2 6//3
f 8//4 3//5 9//6
f 11//7 1//8 12//9
f 1//8 4//10 12//9
f 13//11 12//9 4//10
f 9//6 3//5 2//12
f 15//13 4//10 7//14
f 16//15 15//13 7//14
f 8//4 9//6 17//16
f 18//17 10//18 12//9
f 2//12 14//19 19//20
f 19//20 14//19 20//21
f 9//6 2//12 19//20
f 15//13 13//11 4//10
f 18//17 20//21 14//19
f 16//15 21//22 15//13
f 21//22 16//15 22//23
f 20//21 22//23 19//20
f 13//11 24//24 12//9
f 18//17 12//9 24//24
f 20//21 18//17 25//25
f 24//24 13//11 23//26
f 26//27 13//11 15//13
f 23//26 13//11 26//27
f 18//17 24//24 25//25
f 21//22 26//27 15//13
f 25//25 27//28 20//21
f 21//22 22//23 28//29
f 29//30 21//22 28//29
f 20//21 27//28 22//23
f 27//28 28//29 22//23
f 24//24 23//26 30//31
f 26//27 31//32 23//26
f 30//31 25//25 24//24
f 21//22 29//30 26//27
f 23//26 31//32 30//31
f 30//31 32//33 25//25
f 30//31 31//32 33//34
f 34//35 25//25 32//33
f 29//30 31//32 26//27
f 34//35 33//34 35//36
f 31//32 35//36 33//34
f 25//25 36//37 27//28
f 33//34 34//35 32//33
f 31//32 29//30 35//36
f 28//29 35//36 29//30
f 28//29 34//35 35//36
