# Blender v2.78 (sub 0) OBJ File: 'exporter.blend'
# www.blender.org
o FJ2703.obj_grp1.1402
v 0.189793 -0.393182 5.699115
v 0.191316 -0.397244 5.700101
v 0.192819 -0.393924 5.697285
v 0.210677 -0.402356 5.704875
v 0.194094 -0.389300 5.699263
v 0.216965 -0.402518 5.703681
v 0.212480 -0.396090 5.702370
v 0.188908 -0.394156 5.703534
v 0.191146 -0.396922 5.704440
v 0.189975 -0.391017 5.704294
v 0.192867 -0.394336 5.707095
v 0.207900 -0.401810 5.707991
v 0.206869 -0.395662 5.710732
v 0.190906 -0.389357 5.701581
v 0.192517 -0.389094 5.704686
v 0.206789 -0.392622 5.708701
v 0.207489 -0.391748 5.705772
v 0.245396 -0.418309 5.711360
v 0.220095 -0.403591 5.704141
v 0.234197 -0.409327 5.715159
v 0.225025 -0.401094 5.713225
v 0.238782 -0.407917 5.706758
v 0.235891 -0.403933 5.712234
v 0.237332 -0.411256 5.706468
v 0.245263 -0.408356 5.710165
v 0.246639 -0.415061 5.705510
v 0.246523 -0.415848 5.714225
v 0.243803 -0.410129 5.714553
v 0.247089 -0.417953 5.706191
v 0.248644 -0.411909 5.706355
v 0.251844 -0.412559 5.711259
v 0.256999 -0.424798 5.703411
v 0.260950 -0.424351 5.697625
v 0.263394 -0.426756 5.704521
v 0.253821 -0.416269 5.711809
v 0.262925 -0.418400 5.702670
v 0.277195 -0.436315 5.689791
v 0.280445 -0.440781 5.689015
v 0.263006 -0.420996 5.697897
v 0.282151 -0.435873 5.688162
v 0.285179 -0.435530 5.689350
v 0.280595 -0.441703 5.691620
v 0.280659 -0.439965 5.694928
v 0.284576 -0.440243 5.694250
v 0.284530 -0.441646 5.684110
v 0.292757 -0.444440 5.686762
v 0.283609 -0.434602 5.694616
v 0.299967 -0.455931 5.667257
v 0.297454 -0.457914 5.670359
v 0.300578 -0.460965 5.670890
v 0.299872 -0.456963 5.675828
v 0.300117 -0.450974 5.671590
v 0.298801 -0.448330 5.677232
v 0.312061 -0.473978 5.658121
v 0.304441 -0.456593 5.672714
v 0.310205 -0.462982 5.665460
v 0.309471 -0.463963 5.662212
v 0.317505 -0.484413 5.659232
v 0.308636 -0.467437 5.668386
v 0.315355 -0.481172 5.657298
v 0.309321 -0.463259 5.668122
v 0.309245 -0.463068 5.668243
v 0.319466 -0.483983 5.655543
v 0.316737 -0.480101 5.662750
v 0.323740 -0.488578 5.662077
v 0.319019 -0.477524 5.656557
v 0.332622 -0.503448 5.658713
v 0.324241 -0.485200 5.655607
v 0.321773 -0.480968 5.661240
v 0.324562 -0.483024 5.658471
v 0.337580 -0.512363 5.660504
v 0.339079 -0.509331 5.657921
v 0.334454 -0.503861 5.663749
v 0.341417 -0.519182 5.659594
v 0.342239 -0.518443 5.662647
v 0.338075 -0.511382 5.658713
v 0.337661 -0.512598 5.660497
v 0.339577 -0.514139 5.658489
v 0.342182 -0.512400 5.663828
v 0.340065 -0.505235 5.659670
v 0.339536 -0.503963 5.662404
v 0.354305 -0.546918 5.647452
v 0.345031 -0.523041 5.655862
v 0.348916 -0.526432 5.660130
v 0.342027 -0.516719 5.657445
v 0.342027 -0.516719 5.657445
v 0.346452 -0.519079 5.656816
v 0.348920 -0.520546 5.659564
v 0.352012 -0.538860 5.648608
v 0.353954 -0.537454 5.648455
v 0.357044 -0.651381 5.596826
v 0.358095 -0.651150 5.595711
v 0.356891 -0.648677 5.596838
v 0.357089 -0.651296 5.597730
v 0.357089 -0.651296 5.597730
v 0.356787 -0.648646 5.596915
v 0.358190 -0.651460 5.598558
v 0.357227 -0.641362 5.594794
v 0.357060 -0.651380 5.596838
v 0.358099 -0.652821 5.596838
v 0.358099 -0.652793 5.597777
v 0.358099 -0.652821 5.596838
v 0.357089 -0.651296 5.597730
v 0.358099 -0.652793 5.597777
v 0.358099 -0.651451 5.598763
v 0.357089 -0.651296 5.597730
v 0.358059 -0.645799 5.594573
v 0.359038 -0.652718 5.596838
v 0.359038 -0.652676 5.597777
v 0.358099 -0.652821 5.596838
v 0.358099 -0.652793 5.597777
v 0.359048 -0.652731 5.596819
v 0.358098 -0.653184 5.596326
v 0.359038 -0.651460 5.598715
v 0.358099 -0.652793 5.597777
v 0.359038 -0.652676 5.597777
v 0.358099 -0.651451 5.598763
v 0.359001 -0.642008 5.594060
v 0.359020 -0.651451 5.598745
v 0.358103 -0.651467 5.598689
v 0.359068 -0.647770 5.597871
v 0.359038 -0.652676 5.597777
v 0.359038 -0.652718 5.596838
v 0.359894 -0.651474 5.596838
v 0.359866 -0.651291 5.597777
v 0.359735 -0.651480 5.596912
v 0.359038 -0.651460 5.598715
v 0.359866 -0.651291 5.597777
v 0.359003 -0.651467 5.598701
v 0.359068 -0.647770 5.597871
v 0.360033 -0.643596 5.596838
v 0.360102 -0.649573 5.596838
v 0.359917 -0.640909 5.594612
v 0.360040 -0.649564 5.596835
v 0.359968 -0.648634 5.595899
v 0.358177 -0.643779 5.597438
v 0.357333 -0.635244 5.596876
v 0.357293 -0.635332 5.596863
v 0.358128 -0.638169 5.597467
v 0.360033 -0.643596 5.596838
v 0.358118 -0.634430 5.594955
v 0.359073 -0.634470 5.594725
v 0.359046 -0.628215 5.595672
v 0.357404 -0.629278 5.597025
v 0.357366 -0.628758 5.597136
v 0.359028 -0.631296 5.598683
v 0.359053 -0.635733 5.597918
v 0.358151 -0.629512 5.595852
v 0.359061 -0.631346 5.598686
v 0.360557 -0.634550 5.596838
v 0.360557 -0.634550 5.596838
v 0.360900 -0.627527 5.598246
v 0.360900 -0.627527 5.598246
v 0.357641 -0.618413 5.601145
v 0.357799 -0.618635 5.600875
v 0.359056 -0.616623 5.598836
v 0.359296 -0.600097 5.603630
v 0.361632 -0.610545 5.601469
v 0.360512 -0.601053 5.607804
v 0.358251 -0.595300 5.607356
v 0.358180 -0.601687 5.606227
v 0.358664 -0.599627 5.606436
v 0.360956 -0.593301 5.606778
v 0.358605 -0.594176 5.609982
v 0.359977 -0.596232 5.609982
v 0.361807 -0.595360 5.609734
v 0.359946 -0.593191 5.611787
v 0.359631 -0.590910 5.608299
v 0.360937 -0.593261 5.606838
v 0.361765 -0.587730 5.610640
v 0.359421 -0.578821 5.621291
v 0.360751 -0.577138 5.618104
v 0.360814 -0.577651 5.617917
v 0.358963 -0.577159 5.620976
v 0.360200 -0.571150 5.628819
v 0.357647 -0.564002 5.631797
v 0.356340 -0.546369 5.642908
v 0.355933 -0.552230 5.643362
v 0.360154 -0.549512 5.641302
v 0.357543 -0.564098 5.631719
v 0.355933 -0.552230 5.643362
v 0.360948 -0.553158 5.642056
v 0.357020 -0.547305 5.648849
v 0.354293 -0.547412 5.647164
v 0.357570 -0.541713 5.650373
v 0.362474 -0.595264 5.607740
v 0.363779 -0.579949 5.619415
v 0.362034 -0.568119 5.625700
vn -0.4857 -0.7605 -0.4310
vn -0.8143 0.0932 -0.5729
vn -0.1526 -0.0519 -0.9869
vn 0.0085 0.8129 -0.5824
vn -0.1779 -0.9412 -0.2873
vn -0.0334 -0.3843 -0.9226
vn 0.3220 0.4989 -0.8046
vn -0.9529 -0.1410 0.2687
vn -0.5688 -0.7198 0.3979
vn -0.3727 -0.0879 0.9238
vn -0.7959 0.4243 0.4319
vn -0.3258 -0.8986 0.2938
vn -0.6028 0.7724 -0.1999
vn -0.2052 0.8487 0.4874
vn -0.1311 0.2076 0.9694
vn 0.1241 0.7713 0.6243
vn 0.3369 0.9405 -0.0443
vn 0.1671 -0.0793 -0.9828
vn -0.3546 -0.8952 0.2699
vn -0.1397 -0.2423 0.9601
vn 0.0902 0.5217 0.8484
vn 0.3846 0.8417 0.3789
vn -0.0795 -0.3536 -0.9320
vn 0.2475 0.4065 -0.8795
vn 0.4482 0.8898 -0.0866
vn -0.2016 0.0392 -0.9787
vn 0.0511 -0.3776 0.9246
vn 0.2973 0.4037 0.8652
vn -0.5917 -0.5773 -0.5627
vn 0.1168 0.6285 -0.7690
vn 0.5698 0.6508 0.5019
vn -0.4782 -0.8779 0.0262
vn -0.4728 -0.0432 -0.8801
vn 0.4994 0.0523 0.8648
vn -0.0833 -0.7320 0.6762
vn 0.5584 0.8285 0.0424
vn -0.5445 -0.1151 -0.8308
vn -0.7509 -0.5527 -0.3615
vn 0.0121 0.6429 -0.7659
vn -0.0433 0.6060 -0.7943
vn 0.5058 0.8102 -0.2963
vn -0.5180 -0.8431 0.1447
vn -0.1004 -0.7024 0.7046
vn 0.4260 -0.3295 0.8426
vn 0.7331 0.4407 0.5181
vn -0.6485 0.0963 -0.7551
vn 0.7735 0.0883 0.6276
vn -0.3858 0.3135 -0.8677
vn -0.8112 -0.4546 -0.3679
vn -0.5157 -0.7397 0.4323
vn 0.2200 -0.6198 0.7533
vn 0.3630 0.7588 -0.5408
vn 0.7652 0.6401 0.0690
vn 0.8034 0.5955 -0.0047
vn 0.7872 0.1722 0.5921
vn -0.4600 0.0220 -0.8877
vn -0.7454 -0.6047 0.2807
vn -0.7354 -0.4005 -0.5466
vn 0.2867 0.5974 -0.7490
vn 0.7879 0.2395 0.5673
vn 0.2378 -0.2857 0.9283
vn 0.6927 -0.0515 0.7194
vn -0.3033 -0.2063 -0.9303
vn -0.0802 -0.4276 0.9004
vn -0.2443 -0.1511 0.9579
vn 0.3654 0.4853 -0.7943
vn -0.5181 -0.4461 -0.7298
vn 0.6203 0.2319 0.7493
vn 0.4156 0.2340 -0.8789
vn 0.8020 0.5839 -0.1261
vn -0.7940 -0.4774 0.3763
vn -0.0180 0.0826 -0.9964
vn -0.2579 -0.0899 0.9620
vn 0.6853 0.4770 0.5503
vn -0.9128 -0.4015 -0.0749
vn -0.3931 -0.4800 0.7842
vn -0.4153 -0.1967 -0.8882
vn -0.8195 -0.5006 -0.2790
vn -0.7104 -0.3630 -0.6030
vn 0.3596 0.0715 0.9304
vn 0.7285 0.4889 -0.4799
vn -0.4716 0.1439 -0.8700
vn -0.6456 -0.4628 0.6075
vn -0.3334 0.0815 -0.9392
vn -0.0276 0.0462 -0.9986
vn 0.4126 0.4476 -0.7933
vn 0.9097 0.3658 0.1965
vn 0.2811 -0.3275 0.9020
vn -0.6801 0.0898 -0.7276
vn -0.0624 0.4678 -0.8816
vn -0.4421 0.3810 -0.8120
vn 0.1824 -0.5522 0.8135
vn -0.8865 -0.2156 -0.4093
vn -0.9969 -0.0568 0.0538
vn -0.9749 -0.0238 -0.2214
vn -0.6064 0.1953 0.7708
vn -0.6153 0.1903 0.7650
vn -0.6292 0.1002 0.7708
vn -0.7143 0.0036 -0.6998
vn -0.8195 -0.5711 0.0476
vn -0.8104 -0.5857 0.0176
vn -0.8192 -0.5715 0.0477
vn -0.5938 -0.4456 -0.6700
vn -0.6407 -0.2467 -0.7271
vn -0.8274 -0.5562 0.0776
vn -0.6704 -0.4391 0.5982
vn -0.2759 -0.2097 -0.9380
vn 0.1092 -0.9930 0.0447
vn 0.1166 -0.9925 0.0373
vn 0.1162 -0.9925 0.0374
vn 0.1240 -0.9918 0.0297
vn 0.0555 -0.6005 0.7977
vn 0.0554 -0.6005 0.7977
vn 0.0761 -0.6092 0.7894
vn 0.0344 -0.5914 0.8056
vn 0.5162 -0.2053 -0.8315
vn 0.4917 -0.2098 -0.8451
vn 0.0706 -0.0372 -0.9968
vn -0.0564 0.2333 0.9708
vn 0.4379 0.1067 0.8927
vn 0.0354 0.2132 0.9764
vn 0.8215 -0.5165 0.2417
vn 0.8236 -0.5667 0.0254
vn 0.9476 -0.3193 -0.0040
vn 0.8997 -0.3554 0.2535
vn 0.7150 -0.4271 0.5535
vn 0.5504 -0.2265 -0.8036
vn 0.7532 0.1533 0.6397
vn 0.7555 0.1093 0.6460
vn 0.7110 0.1505 0.6869
vn 0.7118 0.0081 0.7023
vn 0.7783 0.0923 0.6211
vn 0.7934 -0.0396 -0.6074
vn 0.9885 -0.1079 -0.1065
vn 0.9943 -0.0415 -0.0986
vn -0.4617 0.0340 0.8864
vn -0.9985 0.0537 0.0101
vn -0.6186 -0.0910 0.7804
vn -0.3092 -0.0719 0.9483
vn 0.5184 0.0643 0.8527
vn -0.5401 0.1477 -0.8285
vn -0.2203 0.0907 -0.9712
vn 0.1319 0.2281 -0.9646
vn -0.6403 0.1811 -0.7464
vn -0.8617 0.1287 -0.4909
vn -0.4042 -0.2085 0.8906
vn 0.2594 -0.1433 0.9551
vn -0.4251 0.1936 -0.8842
vn 0.4698 -0.1414 0.8714
vn 0.6279 -0.0937 0.7727
vn 0.9565 0.0124 -0.2915
vn 0.5836 -0.2666 0.7670
vn 0.9610 0.0028 -0.2764
vn -0.9630 -0.0619 0.2624
vn 0.0115 0.2015 -0.9794
vn -0.5424 -0.2453 0.8035
vn -0.2873 0.3559 -0.8893
vn 0.7939 0.1443 -0.5907
vn 0.0233 -0.4100 0.9118
vn -0.9470 0.1877 -0.2606
vn -0.9940 -0.0118 0.1092
vn -0.7200 -0.2789 0.6355
vn -0.9911 -0.0601 0.1186
vn -0.6238 -0.4080 0.6666
vn -0.1787 -0.6044 0.7764
vn -0.4800 0.4881 -0.7289
vn 0.1136 0.4866 -0.8662
vn -0.2140 0.4748 -0.8537
vn 0.4445 0.5051 -0.7398
vn -0.9028 -0.2699 0.3347
vn -0.0288 0.5905 -0.8066
vn 0.2865 0.5656 -0.7733
vn -0.9935 0.0469 -0.1040
vn -0.0941 -0.5908 0.8013
vn -0.9307 0.1723 -0.3227
vn 0.7354 0.5382 -0.4118
vn -0.7891 -0.4568 0.4107
vn -0.5730 -0.5836 0.5754
vn 0.8912 -0.2327 0.3893
vn -0.6222 -0.5762 0.5300
vn -0.9552 -0.0798 -0.2849
vn 0.8739 0.0942 0.4769
vn 0.9798 0.0072 -0.2000
vn 0.7682 -0.3487 0.5368
vn 0.9917 -0.0519 0.1172
vn 0.6105 0.5626 -0.5575
s 1
f 2//1 1//2 3//3
f 3//3 1//2 5//4
f 4//5 2//1 6//6
f 3//3 6//6 2//1
f 6//6 3//3 7//7
f 1//2 2//1 8//8
f 8//8 2//1 9//9
f 9//9 11//10 8//8
f 8//8 11//10 10//11
f 11//10 9//9 12//12
f 1//2 14//13 5//4
f 1//2 8//8 14//13
f 14//13 8//8 10//11
f 10//11 15//14 14//13
f 10//11 11//10 15//14
f 11//10 13//15 15//14
f 5//4 14//13 15//14
f 16//16 15//14 13//15
f 4//5 12//12 2//1
f 12//12 9//9 2//1
f 5//4 7//7 3//3
f 17//17 15//14 16//16
f 15//14 17//17 5//4
f 7//7 5//4 17//17
f 6//6 7//7 19//18
f 4//5 18//19 12//12
f 12//12 20//20 11//10
f 20//20 13//15 11//10
f 13//15 21//21 16//16
f 17//17 16//16 23//22
f 23//22 16//16 21//21
f 24//23 18//19 4//5
f 24//23 4//5 6//6
f 21//21 13//15 20//20
f 22//24 7//7 25//25
f 25//25 7//7 17//17
f 18//19 20//20 12//12
f 7//7 22//24 19//18
f 25//25 17//17 23//22
f 24//23 19//18 22//24
f 26//26 24//23 22//24
f 20//20 27//27 28//28
f 20//20 28//28 21//21
f 23//22 21//21 28//28
f 29//29 24//23 26//26
f 27//27 20//20 18//19
f 18//19 24//23 29//29
f 30//30 26//26 22//24
f 22//24 25//25 30//30
f 25//25 23//22 31//31
f 31//31 23//22 28//28
f 29//29 32//32 18//19
f 26//26 33//33 29//29
f 35//34 28//28 27//27
f 27//27 18//19 34//35
f 27//27 34//35 35//34
f 36//36 30//30 25//25
f 31//31 28//28 35//34
f 25//25 31//31 36//36
f 32//32 29//29 37//37
f 37//37 29//29 33//33
f 37//37 38//38 32//32
f 37//37 33//33 39//39
f 32//32 34//35 18//19
f 39//39 26//26 30//30
f 39//39 33//33 26//26
f 39//39 30//30 36//36
f 35//34 36//36 31//31
f 40//40 39//39 41//41
f 41//41 39//39 36//36
f 42//42 32//32 38//38
f 42//42 34//35 32//32
f 43//43 34//35 42//42
f 37//37 39//39 40//40
f 34//35 44//44 35//34
f 43//43 44//44 34//35
f 44//44 47//45 35//34
f 47//45 36//36 35//34
f 45//46 38//38 37//37
f 40//40 45//46 37//37
f 46//47 47//45 44//44
f 36//36 47//45 41//41
f 48//48 45//46 40//40
f 42//42 38//38 49//49
f 45//46 49//49 38//38
f 50//50 42//42 49//49
f 43//43 42//42 50//50
f 51//51 43//43 50//50
f 43//43 51//51 44//44
f 46//47 44//44 51//51
f 41//41 52//52 40//40
f 47//45 46//47 53//53
f 47//45 53//53 41//41
f 48//48 49//49 45//46
f 52//52 48//48 40//40
f 41//41 53//53 52//52
f 52//52 53//53 56//54
f 46//47 55//55 53//53
f 51//51 55//55 46//47
f 49//49 48//48 54//56
f 58//57 50//50 49//49
f 60//58 58//57 49//49
f 60//58 49//49 54//56
f 54//56 48//48 57//59
f 55//55 61//60 56//54
f 59//61 51//51 50//50
f 59//61 55//55 51//51
f 59//61 62//62 55//55
f 52//52 56//54 57//59
f 57//59 48//48 52//52
f 56//54 53//53 55//55
f 63//63 60//58 54//56
f 50//50 58//57 64//64
f 58//57 65//65 64//64
f 63//63 54//56 66//66
f 50//50 64//64 59//61
f 61//60 62//62 59//61
f 66//66 57//59 56//54
f 67//67 60//58 63//63
f 69//68 64//64 65//65
f 57//59 66//66 54//56
f 68//69 63//63 66//66
f 70//70 61//60 69//68
f 66//66 56//54 70//70
f 70//70 56//54 61//60
f 70//70 68//69 66//66
f 59//61 64//64 69//68
f 61//60 59//61 69//68
f 60//58 71//71 58//57
f 72//72 67//67 63//63
f 58//57 73//73 65//65
f 65//65 81//74 69//68
f 68//69 72//72 63//63
f 74//75 75//76 71//71
f 58//57 71//71 75//76
f 76//77 67//67 72//72
f 71//71 67//67 77//78
f 77//78 67//67 78//79
f 75//76 73//73 58//57
f 75//76 79//80 73//73
f 79//80 81//74 73//73
f 71//71 60//58 67//67
f 68//69 80//81 72//72
f 81//74 65//65 73//73
f 68//69 70//70 80//81
f 70//70 81//74 80//81
f 69//68 81//74 70//70
f 78//79 83//82 74//75
f 75//76 74//75 82//83
f 74//75 77//78 78//79
f 78//79 76//77 85//84
f 85//84 83//82 78//79
f 83//82 86//85 87//86
f 87//86 86//85 72//72
f 80//81 87//86 72//72
f 88//87 80//81 81//74
f 79//80 75//76 84//88
f 72//72 85//84 76//77
f 81//74 79//80 88//87
f 89//89 90//90 177//91
f 74//75 89//89 82//83
f 89//89 74//75 83//82
f 183//92 84//88 82//83
f 83//82 90//90 89//89
f 90//90 83//82 87//86
f 82//83 84//88 75//76
f 84//88 88//87 79//80
f 80//81 88//87 87//86
f 91//93 94//94 93//95
f 95//96 97//97 96//98
f 91//93 93//95 98//99
f 99//100 100//101 101//102
f 102//103 91//93 92//104
f 103//105 99//100 101//102
f 104//106 105//106 106//106
f 91//93 107//107 92//104
f 107//107 91//93 98//99
f 108//108 109//109 110//110
f 110//110 109//109 111//111
f 114//112 115//113 116//114
f 115//113 114//112 117//115
f 112//116 113//117 118//118
f 119//119 121//120 120//121
f 122//122 123//123 124//124
f 125//125 122//122 124//124
f 125//125 127//126 122//122
f 118//118 126//127 112//116
f 128//128 130//129 129//130
f 131//131 130//129 132//132
f 126//127 118//118 133//133
f 134//134 124//124 135//135
f 132//132 130//129 128//128
f 134//134 125//125 124//124
f 135//135 133//133 134//134
f 118//118 113//117 107//107
f 97//97 136//136 96//98
f 93//95 137//137 98//99
f 96//98 136//136 138//138
f 120//121 121//120 139//139
f 140//140 139//139 121//120
f 141//141 107//107 98//99
f 118//118 107//107 141//141
f 118//118 141//141 142//142
f 141//141 143//143 142//142
f 98//99 144//144 141//141
f 137//137 145//145 98//99
f 136//136 139//139 138//138
f 139//139 146//146 138//138
f 147//147 146//146 139//139
f 141//141 148//148 143//143
f 140//140 147//147 139//139
f 133//133 118//118 143//143
f 149//149 147//147 150//150
f 134//134 133//133 151//151
f 147//147 140//140 150//150
f 149//149 150//150 152//152
f 151//151 133//133 153//153
f 145//145 137//137 155//154
f 156//155 143//143 148//148
f 154//156 138//138 146//146
f 141//141 144//144 156//155
f 144//144 145//145 156//155
f 154//156 146//146 149//149
f 143//143 156//155 157//157
f 157//157 158//158 143//143
f 152//152 159//159 149//149
f 160//160 157//157 145//145
f 145//145 155//154 160//160
f 145//145 157//157 156//155
f 161//161 160//160 155//154
f 154//156 159//159 162//162
f 154//156 149//149 159//159
f 161//161 164//163 160//160
f 162//162 159//159 165//164
f 162//162 165//164 167//165
f 168//166 157//157 160//160
f 163//167 157//157 169//168
f 169//168 157//157 168//166
f 169//168 168//166 170//169
f 167//165 171//170 162//162
f 172//171 168//166 160//160
f 168//166 173//172 170//169
f 172//171 160//160 174//173
f 174//173 162//162 171//170
f 174//173 160//160 164//163
f 175//174 171//170 167//165
f 174//173 176//175 172//171
f 174//173 171//170 176//175
f 172//171 176//175 177//91
f 177//91 179//176 172//171
f 171//170 175//174 180//177
f 180//177 175//174 181//178
f 175//174 182//179 183//92
f 178//180 184//181 176//175
f 176//175 184//181 177//91
f 181//178 183//92 82//83
f 175//174 183//92 181//178
f 182//179 185//182 183//92
f 89//89 177//91 184//181
f 82//83 89//89 184//181
f 179//176 177//91 90//90
f 90//90 88//87 179//176
f 182//179 179//176 185//182
f 185//182 84//88 183//92
f 185//182 179//176 88//87
f 90//90 87//86 88//87
f 84//88 185//182 88//87
f 153//153 133//133 158//158
f 158//158 133//133 143//143
f 157//157 163//167 158//158
f 186//183 159//159 152//152
f 153//153 158//158 186//183
f 159//159 166//184 167//165
f 158//158 163//167 186//183
f 159//159 186//183 166//184
f 170//169 186//183 163//167
f 186//183 170//169 187//185
f 175//174 167//165 166//184
f 187//185 166//184 186//183
f 166//184 187//185 175//174
f 187//185 170//169 188//186
f 188//186 170//169 173//172
f 188//186 173//172 172//171
f 172//171 179//176 188//186
f 175//174 187//185 182//179
f 188//186 179//176 187//185
f 187//185 179//176 182//179
