# Blender v2.78 (sub 0) OBJ File: 'exporter.blend'
# www.blender.org
o FJ2707.obj_grp1.1406
v 0.193732 -0.508019 5.537672
v 0.193923 -0.508189 5.537638
v 0.189952 -0.501698 5.540568
v 0.194055 -0.503619 5.542300
v 0.195653 -0.507912 5.535338
v 0.201960 -0.517134 5.535045
v 0.191807 -0.501380 5.539629
v 0.194292 -0.501260 5.538108
v 0.191295 -0.501488 5.539829
v 0.198986 -0.492448 5.542653
v 0.195987 -0.493887 5.544157
v 0.195599 -0.495345 5.543272
v 0.195242 -0.502575 5.540514
v 0.193429 -0.487450 5.549531
v 0.196484 -0.484042 5.547671
v 0.196548 -0.485152 5.549909
v 0.197904 -0.514748 5.533012
v 0.202561 -0.519987 5.532444
v 0.199950 -0.512743 5.532381
v 0.200880 -0.518121 5.533955
v 0.212199 -0.522086 5.527463
v 0.201282 -0.512110 5.533176
v 0.199950 -0.512743 5.532381
v 0.205463 -0.520001 5.532052
v 0.210185 -0.521275 5.531973
v 0.197565 -0.509462 5.534164
v 0.196270 -0.503045 5.540687
v 0.196001 -0.502335 5.540987
v 0.195775 -0.502161 5.539563
v 0.209193 -0.517249 5.532004
v 0.195775 -0.502161 5.539563
v 0.202264 -0.512795 5.534211
v 0.201298 -0.513429 5.536136
v 0.201298 -0.513429 5.536136
v 0.195110 -0.502229 5.540349
v 0.194292 -0.501260 5.538108
v 0.195802 -0.502001 5.539889
v 0.195944 -0.502161 5.541441
v 0.194292 -0.501260 5.538108
v 0.200270 -0.496673 5.542286
v 0.200270 -0.496673 5.542286
v 0.197543 -0.498415 5.545197
v 0.201071 -0.496528 5.544258
v 0.199067 -0.496136 5.546456
v 0.201071 -0.496528 5.544258
v 0.196556 -0.485248 5.550880
v 0.200914 -0.492658 5.547144
v 0.202112 -0.496347 5.544220
v 0.209472 -0.548254 5.519825
v 0.214443 -0.552863 5.518672
v 0.205280 -0.547293 5.519870
v 0.207991 -0.551001 5.521900
v 0.213607 -0.552291 5.518761
v 0.208790 -0.551686 5.522300
v 0.213526 -0.553609 5.520827
v 0.208379 -0.546732 5.522611
v 0.206986 -0.545469 5.520597
v 0.203899 -0.540105 5.523595
v 0.205461 -0.547141 5.520825
v 0.205133 -0.541089 5.525983
v 0.205127 -0.538929 5.522987
v 0.207278 -0.536179 5.522128
v 0.206479 -0.545610 5.521164
v 0.206952 -0.543502 5.521742
v 0.207417 -0.539548 5.523704
v 0.206924 -0.539828 5.526022
v 0.206992 -0.539724 5.526017
v 0.205252 -0.541686 5.525479
v 0.208807 -0.546676 5.521724
v 0.210059 -0.547967 5.521724
v 0.205162 -0.538808 5.522710
v 0.205727 -0.535005 5.524541
v 0.205727 -0.535005 5.524541
v 0.209692 -0.525749 5.528969
v 0.209834 -0.529210 5.525552
v 0.205727 -0.535005 5.524541
v 0.209832 -0.526514 5.528366
v 0.207657 -0.535470 5.523166
v 0.206468 -0.539013 5.523736
v 0.209752 -0.523808 5.528203
v 0.208854 -0.521084 5.528639
v 0.208365 -0.522429 5.530075
v 0.207906 -0.521610 5.530173
v 0.208851 -0.521100 5.528625
v 0.208810 -0.520940 5.532709
v 0.210882 -0.524183 5.531252
v 0.203748 -0.515306 5.534869
v 0.215874 -0.551576 5.520083
v 0.220119 -0.558986 5.519940
v 0.221808 -0.556359 5.519579
v 0.215900 -0.552133 5.519802
v 0.217923 -0.553038 5.520841
v 0.217924 -0.553084 5.520785
v 0.214468 -0.526805 5.529148
v 0.212379 -0.531162 5.525491
v 0.220097 -0.557506 5.518015
v 0.227502 -0.559755 5.515833
v 0.228568 -0.561269 5.517969
v 0.223819 -0.557939 5.516128
v 0.220097 -0.557506 5.518015
v 0.234208 -0.561255 5.517992
v 0.221090 -0.556549 5.518109
v 0.228566 -0.560995 5.518898
v 0.221023 -0.557509 5.519041
v 0.231391 -0.559252 5.517997
v 0.222863 -0.558464 5.520557
v 0.232954 -0.567148 5.517291
v 0.233248 -0.568003 5.519127
v 0.232030 -0.568156 5.517810
v 0.232949 -0.566388 5.517289
v 0.231616 -0.563867 5.519216
v 0.232012 -0.564130 5.518907
v 0.232534 -0.564587 5.517932
v 0.232092 -0.564104 5.518914
v 0.232283 -0.568013 5.517968
v 0.232755 -0.567281 5.517122
v 0.233304 -0.567886 5.518907
v 0.232283 -0.568013 5.517968
v 0.233231 -0.567403 5.517123
v 0.232398 -0.566668 5.518031
v 0.232600 -0.566757 5.516938
v 0.233179 -0.564256 5.519878
v 0.233882 -0.564893 5.519768
v 0.228724 -0.559619 5.519517
v 0.230156 -0.558892 5.519104
v 0.227561 -0.558535 5.519283
v 0.228724 -0.559619 5.519517
v 0.235218 -0.563192 5.517565
v 0.233036 -0.564174 5.516890
v 0.232406 -0.563795 5.518189
v 0.233209 -0.564117 5.519775
v 0.233201 -0.564118 5.516954
v 0.229466 -0.560375 5.516560
v 0.234328 -0.566896 5.517968
v 0.234899 -0.566794 5.517904
v 0.232390 -0.566754 5.517986
v 0.234724 -0.564199 5.518926
v 0.234350 -0.562200 5.517920
vn -0.8994 -0.4345 0.0481
vn -0.5718 -0.6368 0.5172
vn -0.9995 0.0142 -0.0298
vn -0.4592 0.3535 -0.8150
vn -0.5794 0.1730 -0.7965
vn -0.3978 0.4374 -0.8065
vn -0.4810 0.4334 -0.7621
vn 0.1968 0.5881 -0.7845
vn -0.4520 0.5593 -0.6949
vn -0.6323 0.6794 -0.3724
vn -0.9353 0.0787 0.3451
vn -0.9792 0.1877 -0.0767
vn 0.0796 0.9633 -0.2565
vn -0.6031 0.7608 0.2396
vn 0.2447 0.5816 0.7758
vn -0.7737 -0.3738 -0.5114
vn -0.3696 0.1074 -0.9230
vn 0.5081 0.4526 -0.7328
vn -0.2337 -0.9006 0.3664
vn -0.3379 -0.6401 0.6900
vn -0.5472 -0.7126 0.4391
vn 0.0873 -0.4891 0.8678
vn 0.5191 0.6642 -0.5379
vn 0.1793 0.6116 -0.7706
vn -0.5822 -0.4385 -0.6847
vn -0.3372 -0.4554 0.8239
vn -0.0920 0.4128 -0.9062
vn 0.5881 -0.0106 0.8087
vn 0.7576 0.6063 0.2417
vn 0.6941 0.6081 0.3853
vn 0.7287 0.6847 -0.0123
vn 0.7119 0.6134 -0.3420
vn 0.6586 0.7389 -0.1425
vn 0.3617 -0.1515 0.9199
vn 0.4022 -0.2206 0.8886
vn 0.7113 0.6135 -0.3429
vn 0.7862 -0.5944 -0.1690
vn 0.7881 -0.5835 -0.1959
vn 0.7877 -0.6018 -0.1319
vn 0.6437 0.1195 -0.7559
vn 0.7713 -0.4086 -0.4881
vn 0.6997 -0.3030 -0.6470
vn -0.5087 -0.0646 0.8585
vn 0.5722 -0.6202 0.5365
vn 0.1096 -0.4130 0.9041
vn 0.7486 -0.6348 0.1913
vn 0.7206 -0.6906 0.0617
vn 0.7754 -0.5686 -0.2747
vn 0.9064 0.0556 0.4188
vn 0.7525 0.4076 -0.5173
vn 0.2162 0.5473 -0.8085
vn 0.4266 0.6045 -0.6728
vn 0.0252 0.2901 -0.9567
vn -0.4204 -0.8070 0.4147
vn -0.7924 -0.6100 0.0024
vn -0.5352 -0.6584 -0.5292
vn 0.0621 0.3597 -0.9310
vn -0.9847 0.0792 -0.1549
vn -0.8867 -0.4312 0.1669
vn -0.5094 -0.4760 0.7169
vn -0.5078 0.1372 -0.8505
vn -0.5585 0.1096 -0.8223
vn -0.6752 -0.4339 0.5965
vn 0.8693 0.2535 0.4244
vn 0.8842 0.1920 -0.4259
vn 0.9896 -0.0485 -0.1354
vn 0.2977 -0.0518 0.9532
vn 0.5733 -0.4914 0.6556
vn 0.9790 0.0779 0.1883
vn 0.0985 -0.3752 0.9217
vn 0.7267 0.5774 0.3720
vn 0.2966 0.2309 -0.9267
vn 0.5303 0.8319 -0.1636
vn 0.3540 0.2792 -0.8926
vn -0.6482 0.3140 -0.6938
vn -0.5457 0.4315 -0.7184
vn -0.0803 -0.1400 0.9869
vn 0.0469 0.1630 -0.9855
vn -0.8993 0.3698 -0.2336
vn -0.9507 0.2690 0.1541
vn -0.9093 0.0521 0.4129
vn -0.6475 0.5504 -0.5270
vn -0.9782 0.0994 -0.1825
vn -0.3602 -0.6207 0.6964
vn -0.4308 0.0077 -0.9024
vn -0.6176 -0.5301 -0.5810
vn -0.2433 0.5347 -0.8092
vn -0.9678 -0.2450 0.0576
vn 0.5149 0.0144 0.8571
vn 0.4302 -0.1466 0.8907
vn -0.4605 -0.8418 0.2816
vn 0.4229 0.8126 -0.4011
vn 0.4235 0.7157 -0.5554
vn 0.4991 0.7639 -0.4091
vn 0.5261 0.6854 0.5034
vn 0.5922 0.7354 -0.3294
vn 0.5927 0.7921 0.1458
vn 0.8046 -0.5333 -0.2612
vn 0.9443 -0.0936 0.3154
vn 0.7939 -0.3189 -0.5177
vn -0.4876 -0.6720 -0.5574
vn -0.3731 -0.8154 -0.4427
vn -0.4573 -0.8876 -0.0546
vn 0.4767 0.4998 0.7232
vn 0.4262 0.8676 -0.2563
vn -0.2782 -0.7034 0.6541
vn -0.4720 -0.3882 -0.7915
vn -0.2467 -0.1979 -0.9487
vn 0.2877 -0.2994 0.9097
vn -0.9121 -0.3349 0.2365
vn -0.5567 -0.4039 0.7259
vn -0.9358 -0.3512 -0.0316
vn -0.7200 0.2116 -0.6609
vn -0.7225 0.1786 -0.6679
vn -0.7238 0.1509 -0.6733
vn 0.4551 -0.8543 -0.2512
vn 0.3499 -0.9002 -0.2594
vn -0.3739 -0.2247 0.8998
vn 0.0647 0.2439 0.9676
vn 0.2749 0.9601 0.0517
vn 0.3180 0.9417 -0.1097
vn -0.2063 -0.3851 0.8995
vn -0.1390 -0.0044 -0.9903
vn -0.1149 -0.0270 -0.9930
vn -0.1780 -0.0272 -0.9837
vn -0.5970 -0.7966 -0.0952
vn -0.5418 -0.8372 -0.0741
vn -0.6932 -0.7023 0.1620
vn 0.4599 -0.0683 0.8853
vn -0.7093 -0.7018 0.0663
vn 0.2110 -0.0083 -0.9774
vn 0.2343 -0.0598 -0.9703
vn 0.2265 0.1239 -0.9661
vn 0.5543 -0.7971 -0.2397
vn 0.9553 -0.2003 0.2176
vn 0.6947 -0.7186 0.0327
vn 0.0888 -0.2633 -0.9606
vn -0.0421 -0.3754 -0.9259
vn 0.5993 -0.2717 -0.7530
s 1
f 1//1 2//2 3//3
f 7//4 5//5 1//1
f 1//1 3//3 7//4
f 8//6 5//5 9//7
f 7//4 3//3 10//8
f 8//6 9//7 10//9
f 10//8 3//3 12//10
f 14//11 10//8 11//12
f 15//13 10//8 14//11
f 16//14 14//11 46//15
f 15//13 14//11 16//14
f 1//1 5//5 17//16
f 19//17 17//16 5//5
f 21//18 17//16 19//17
f 24//19 25//20 20//21
f 20//21 25//20 6//22
f 22//23 21//18 23//24
f 20//21 2//2 17//16
f 20//21 3//3 2//2
f 17//16 18//25 20//21
f 4//26 3//3 6//22
f 20//21 6//22 3//3
f 19//17 5//5 26//27
f 22//23 23//24 26//27
f 26//27 5//5 8//6
f 22//23 26//27 8//6
f 6//22 27//28 4//26
f 28//29 30//30 29//31
f 31//32 32//33 22//23
f 33//34 30//30 28//29
f 6//22 34//35 27//28
f 31//32 22//23 39//36
f 40//37 38//38 37//39
f 41//40 35//41 36//42
f 41//40 36//42 10//8
f 11//12 3//3 42//43
f 42//43 3//3 4//26
f 43//44 44//45 4//46
f 43//44 4//46 13//47
f 11//12 42//43 44//45
f 38//38 40//37 45//48
f 11//12 10//8 12//10
f 14//11 11//12 44//45
f 44//45 46//15 14//11
f 44//45 47//49 46//15
f 44//45 43//44 47//49
f 41//40 10//8 48//50
f 48//50 15//13 47//49
f 48//50 10//8 15//13
f 47//49 15//13 46//15
f 49//51 50//52 51//53
f 55//54 52//55 53//56
f 49//51 51//53 57//57
f 52//55 58//58 59//59
f 52//55 60//60 58//58
f 59//59 53//56 52//55
f 57//57 51//53 61//61
f 62//62 57//57 61//61
f 52//55 54//63 60//60
f 56//64 64//65 65//66
f 54//67 56//64 66//68
f 67//69 56//64 65//66
f 54//67 66//68 68//70
f 69//71 64//65 56//64
f 64//72 70//73 63//74
f 70//73 69//71 56//64
f 71//75 59//59 58//58
f 71//75 58//58 72//76
f 86//77 58//58 60//60
f 71//75 72//76 78//78
f 78//78 72//76 75//79
f 73//80 58//58 74//81
f 75//79 76//82 77//83
f 66//68 60//60 68//70
f 58//58 86//77 74//81
f 64//65 78//78 65//66
f 82//84 25//20 24//19
f 18//25 81//85 83//86
f 84//87 81//85 21//18
f 80//88 77//83 83//86
f 80//88 83//86 81//85
f 30//30 6//22 85//89
f 75//79 77//83 80//88
f 74//81 86//77 25//20
f 80//88 84//87 75//79
f 74//81 25//20 82//84
f 85//89 86//77 30//30
f 75//79 84//87 21//18
f 21//18 81//85 17//16
f 81//85 18//25 17//16
f 87//90 30//30 33//34
f 6//22 30//30 87//90
f 32//33 30//30 22//23
f 87//90 34//35 6//22
f 53//56 89//91 55//54
f 54//67 55//54 56//64
f 88//92 49//51 63//93
f 91//94 63//74 70//73
f 91//94 70//73 92//95
f 93//96 91//94 92//95
f 55//54 89//91 56//64
f 93//96 90//97 91//94
f 92//95 70//73 56//64
f 66//68 79//98 94//99
f 78//78 95//100 65//66
f 94//99 79//98 95//100
f 66//68 94//99 60//60
f 86//77 60//60 94//99
f 95//100 78//78 21//18
f 21//18 94//99 95//100
f 75//79 21//18 78//78
f 86//77 94//99 30//30
f 22//23 30//30 21//18
f 30//30 94//99 21//18
f 89//91 53//56 96//101
f 89//91 96//101 97//102
f 89//91 97//102 98//103
f 101//104 102//105 90//97
f 98//103 103//106 89//91
f 100//107 50//52 49//51
f 88//92 99//108 49//51
f 49//51 99//108 100//107
f 90//97 102//105 91//94
f 106//109 56//64 89//91
f 106//109 92//95 56//64
f 92//95 106//109 90//97
f 108//110 111//111 107//112
f 109//113 112//114 110//115
f 117//116 118//117 119//116
f 122//118 111//111 108//110
f 124//119 125//120 89//91
f 125//120 106//109 89//91
f 126//121 90//97 106//109
f 89//91 103//106 127//122
f 105//123 128//124 104//125
f 101//104 90//97 126//121
f 98//103 97//102 129//126
f 101//104 126//121 125//120
f 130//127 98//103 129//126
f 103//106 98//103 113//128
f 127//122 103//106 122//118
f 131//129 125//120 124//119
f 113//128 114//130 103//106
f 111//111 122//118 103//106
f 128//131 132//132 133//133
f 119//116 134//134 117//116
f 137//135 131//129 136//136
f 135//137 120//138 132//132
f 136//136 138//139 137//135
f 132//132 128//131 135//137
f 101//104 125//120 137//135
f 137//135 125//120 131//129
l 121 123
l 115 116
