# Blender v2.78 (sub 0) OBJ File: 'exporter.blend'
# www.blender.org
o FJ2767.obj_grp1.1465
v -0.042713 -0.765344 6.779386
v -0.040369 -0.761864 6.772137
v -0.043444 -0.764841 6.770543
v -0.040253 -0.761788 6.772117
v -0.053246 -0.755154 6.764226
v -0.068080 -0.722588 6.803287
v -0.046547 -0.768081 6.780678
v -0.046577 -0.768055 6.780542
v -0.057326 -0.757425 6.796491
v -0.052555 -0.766093 6.784679
v -0.062394 -0.758495 6.792439
v -0.053249 -0.755593 6.764241
v -0.061912 -0.744850 6.764109
v -0.063750 -0.726066 6.786867
v -0.070526 -0.738785 6.804765
v -0.086893 -0.715998 6.803611
v -0.076003 -0.735120 6.778447
v -0.073903 -0.720236 6.809600
v -0.070526 -0.738785 6.804765
v -0.073903 -0.720236 6.809600
v -0.062489 -0.743697 6.763194
v -0.077063 -0.721666 6.774822
v -0.067371 -0.721448 6.777626
v -0.067229 -0.721754 6.777563
v -0.071826 -0.712745 6.780832
v -0.069490 -0.707506 6.787943
v -0.073441 -0.703160 6.785817
v -0.088228 -0.695835 6.816051
v -0.076622 -0.721780 6.775473
v -0.082968 -0.684866 6.813547
v -0.076645 -0.721476 6.776490
v -0.081090 -0.717185 6.784108
v -0.081090 -0.717185 6.784108
v -0.084190 -0.709154 6.788225
v -0.087381 -0.688227 6.818097
v -0.085777 -0.682905 6.799438
v -0.085836 -0.678118 6.806401
v -0.085365 -0.683294 6.799084
v -0.097859 -0.671631 6.825078
v -0.099538 -0.663356 6.819647
v -0.094084 -0.684175 6.799470
v -0.093759 -0.668689 6.826689
v -0.091095 -0.665742 6.823440
v -0.096442 -0.665851 6.810694
v -0.096675 -0.661454 6.819825
v -0.096846 -0.663180 6.823676
v -0.099151 -0.663394 6.819788
vn 0.7668 -0.6415 -0.0226
vn 0.8427 -0.3873 0.3740
vn 0.2150 -0.7600 -0.6133
vn 0.8392 0.4143 -0.3523
vn 0.6107 0.3301 -0.7197
vn 0.8705 0.2566 0.4201
vn 0.5951 0.5306 -0.6037
vn 0.5623 -0.7217 0.4038
vn 0.0446 -0.9214 -0.3860
vn 0.2514 -0.5001 0.8287
vn -0.3637 -0.9209 0.1406
vn -0.6179 -0.7482 0.2416
vn -0.2266 -0.5409 -0.8100
vn 0.9024 0.4307 0.0168
vn -0.6809 -0.5511 0.4824
vn -0.8682 -0.3728 -0.3275
vn -0.7459 -0.5034 -0.4361
vn 0.7037 0.0646 0.7075
vn -0.9006 -0.3958 0.1796
vn 0.1988 -0.2477 0.9482
vn 0.3155 -0.1718 0.9332
vn 0.0860 -0.2380 0.9675
vn 0.7304 0.5799 -0.3609
vn 0.8895 0.3945 -0.2305
vn 0.3439 0.5460 -0.7639
vn -0.2185 0.6867 -0.6934
vn 0.8847 0.4269 -0.1874
vn 0.3692 0.6049 -0.7056
vn -0.2232 -0.4275 0.8761
vn -0.8572 -0.1470 -0.4935
vn 0.9038 0.2537 0.3447
vn -0.8875 -0.1126 -0.4469
vn -0.8616 0.4752 -0.1785
vn -0.8873 -0.1105 -0.4478
vn -0.5959 0.2071 -0.7759
vn 0.4715 -0.1362 0.8713
vn 0.3235 0.6262 -0.7094
vn 0.7702 0.5783 -0.2689
vn -0.7199 -0.1953 0.6661
vn -0.8463 0.5327 -0.0037
vn -0.7127 0.2294 -0.6629
vn -0.0229 0.5649 -0.8248
vn 0.7261 0.5701 0.3844
vn 0.1797 0.1365 0.9742
vn -0.2077 0.7523 -0.6252
vn 0.0854 0.9955 -0.0410
vn -0.3209 0.6946 0.6439
vn -0.5369 0.5198 0.6645
s 1
f 2//1 1//2 3//3
f 4//4 3//3 5//5
f 4//4 6//6 1//2
f 5//5 21//7 4//4
f 1//2 7//8 8//9
f 1//2 9//10 7//8
f 10//11 7//8 9//10
f 11//12 10//11 9//10
f 8//9 3//3 1//2
f 10//11 3//3 8//9
f 1//2 6//6 9//10
f 5//5 3//3 12//13
f 3//3 10//11 12//13
f 14//14 6//6 4//4
f 15//15 11//12 9//10
f 11//12 12//13 10//11
f 17//16 13//17 12//13
f 17//16 12//13 11//12
f 18//18 9//10 6//6
f 15//15 16//19 11//12
f 19//20 9//21 20//22
f 4//4 24//23 14//14
f 24//23 23//24 14//14
f 4//4 21//7 24//23
f 25//25 21//7 22//26
f 24//23 21//7 25//25
f 6//6 14//14 26//27
f 14//14 23//24 26//27
f 23//24 25//25 26//27
f 26//27 25//25 27//28
f 16//19 17//16 11//12
f 16//19 15//15 28//29
f 28//29 19//20 20//22
f 13//17 17//16 29//30
f 18//18 6//6 30//31
f 17//16 33//32 29//30
f 31//33 32//34 34//35
f 31//33 25//25 22//26
f 35//36 18//18 30//31
f 6//6 26//27 30//31
f 31//33 27//28 25//25
f 31//33 34//35 27//28
f 36//37 26//27 27//28
f 30//31 26//27 37//38
f 26//27 36//37 37//38
f 33//32 17//16 34//35
f 28//29 20//22 35//36
f 39//39 16//19 28//29
f 16//19 40//40 41//41
f 16//19 39//39 40//40
f 38//42 27//28 41//41
f 34//35 41//41 27//28
f 34//35 17//16 41//41
f 17//16 16//19 41//41
f 43//43 42//44 35//36
f 43//43 35//36 30//31
f 28//29 35//36 42//44
f 39//39 28//29 42//44
f 30//31 37//38 43//43
f 36//37 38//42 41//41
f 37//38 36//37 44//45
f 41//41 44//45 36//37
f 43//43 45//46 46//47
f 43//43 46//47 42//44
f 46//47 39//39 42//44
f 43//43 37//38 44//45
f 45//46 43//43 44//45
f 40//40 44//45 41//41
f 39//39 46//47 47//48
f 40//40 45//46 44//45
f 47//48 46//47 45//46
f 39//39 47//48 40//40
