# Blender v2.78 (sub 0) OBJ File: 'exporter.blend'
# www.blender.org
o FJ2705.obj_grp1.1404
v 0.266943 -0.427922 5.668817
v 0.268356 -0.430118 5.667914
v 0.274892 -0.433157 5.657351
v 0.277216 -0.437566 5.652640
v 0.268331 -0.428240 5.669962
v 0.274832 -0.436116 5.657398
v 0.269807 -0.428650 5.669933
v 0.268700 -0.430026 5.671295
v 0.275818 -0.430972 5.681586
v 0.266466 -0.426133 5.673723
v 0.277623 -0.435299 5.682081
v 0.270719 -0.429408 5.672633
v 0.276004 -0.431216 5.678271
v 0.268095 -0.424899 5.670153
v 0.277388 -0.434588 5.654675
v 0.277388 -0.434588 5.654675
v 0.266920 -0.426270 5.670074
v 0.266871 -0.425831 5.673588
v 0.268491 -0.427715 5.672369
v 0.276135 -0.432751 5.678817
v 0.280195 -0.444228 5.643383
v 0.274887 -0.436214 5.657307
v 0.277633 -0.435950 5.659976
v 0.270852 -0.428154 5.670642
v 0.271877 -0.431966 5.666224
v 0.272171 -0.425973 5.671640
v 0.273723 -0.430344 5.672511
v 0.273362 -0.430184 5.670820
v 0.269870 -0.428590 5.674032
v 0.280167 -0.432179 5.685332
v 0.277185 -0.429982 5.686975
v 0.275255 -0.428889 5.681858
v 0.273611 -0.433492 5.698159
v 0.273836 -0.431706 5.688112
v 0.273691 -0.433620 5.683218
v 0.273596 -0.430644 5.683218
v 0.273596 -0.430644 5.683218
v 0.276029 -0.429959 5.681678
v 0.275490 -0.428624 5.683321
v 0.277185 -0.429982 5.686975
v 0.276503 -0.432951 5.698300
v 0.273271 -0.429638 5.696097
v 0.273541 -0.432801 5.698570
v 0.275344 -0.431737 5.698583
v 0.275127 -0.429258 5.697017
v 0.276708 -0.432772 5.698482
v 0.272231 -0.424905 5.671540
v 0.272089 -0.426092 5.675238
v 0.285403 -0.445139 5.640303
v 0.280295 -0.440433 5.643448
v 0.283335 -0.451618 5.637337
v 0.280088 -0.441805 5.645098
v 0.281098 -0.444772 5.646648
v 0.279178 -0.436770 5.655459
v 0.279853 -0.435773 5.655802
v 0.284450 -0.445149 5.642986
v 0.284398 -0.446123 5.641634
v 0.284863 -0.448916 5.640967
v 0.277936 -0.436890 5.657201
v 0.290235 -0.461578 5.628129
v 0.289558 -0.461840 5.627822
v 0.290201 -0.460925 5.626371
v 0.290316 -0.460925 5.627090
v 0.289143 -0.459986 5.629347
v 0.289865 -0.458947 5.628617
v 0.291692 -0.460622 5.627423
v 0.290422 -0.461965 5.628694
v 0.291606 -0.460928 5.627910
v 0.290739 -0.460974 5.627757
v 0.287818 -0.453976 5.635850
v 0.287818 -0.453976 5.635850
v 0.288387 -0.456581 5.630264
vn -0.6424 0.4536 -0.6177
vn -0.8881 0.0556 -0.4562
vn -0.9164 -0.1358 -0.3765
vn -0.8224 0.2608 -0.5057
vn -0.8662 -0.4161 -0.2767
vn -0.8598 -0.5076 0.0550
vn -0.4838 -0.8464 0.2227
vn -0.4247 -0.8036 0.4170
vn 0.2339 -0.8810 0.4111
vn -0.9034 -0.3155 0.2904
vn -0.7450 -0.6485 0.1560
vn 0.0959 -0.9359 -0.3390
vn 0.8211 -0.0234 -0.5702
vn 0.5403 -0.7086 -0.4539
vn -0.8716 0.3498 -0.3434
vn -0.3522 0.6986 -0.6228
vn -0.9886 0.0930 -0.1183
vn -0.3606 0.9282 0.0912
vn -0.7360 -0.6770 0.0071
vn -0.2541 -0.8538 0.4544
vn -0.1031 0.6067 -0.7882
vn -0.0095 -0.8437 0.5367
vn 0.0321 -0.9274 0.3726
vn 0.5817 0.8131 0.0214
vn 0.9903 0.0953 -0.1012
vn 0.5414 0.8397 -0.0425
vn 0.0613 -0.8461 0.5295
vn -0.9964 -0.0550 -0.0643
vn -0.9655 0.2503 -0.0712
vn -0.9995 0.0250 0.0195
vn -0.9986 -0.0321 0.0420
vn -0.1473 0.9639 0.2218
vn -0.4045 0.9089 0.1008
vn 0.5499 0.8341 0.0441
vn 0.4416 0.8949 0.0640
vn 0.1464 0.8275 0.5420
vn 0.3951 -0.8416 0.3682
vn -0.9946 -0.0597 -0.0849
vn -0.1105 -0.0558 0.9923
vn -0.3092 0.8538 0.4187
vn 0.0622 0.3836 0.9214
vn 0.9349 -0.0481 0.3515
vn 0.1835 0.9819 -0.0460
vn 0.1763 0.9566 -0.2319
vn 0.5588 0.8092 0.1816
vn 0.4288 -0.7910 -0.4365
vn 0.6804 -0.5741 0.4556
vn 0.6459 -0.7627 0.0347
vn 0.1226 -0.7180 -0.6852
vn -0.8689 -0.4865 0.0914
vn -0.7732 0.1660 -0.6120
vn -0.0051 0.6782 -0.7349
vn -0.6819 0.4330 -0.5895
vn 0.9144 -0.1663 0.3690
vn 0.8925 -0.1412 0.4283
vn 0.9334 -0.1753 0.3132
vn -0.3434 -0.7880 0.5110
vn 0.3202 0.8673 -0.3811
vn 0.2433 0.7251 -0.6443
vn 0.3668 0.8228 -0.4341
vn 0.5882 0.7903 -0.1717
vn 0.8184 -0.2330 0.5254
vn 0.8196 -0.2217 0.5283
vn 0.8748 -0.1717 0.4531
vn 0.8259 -0.1880 0.5315
vn 0.8930 -0.3140 0.3223
vn 0.8000 -0.4135 0.4348
vn -0.4080 -0.7108 0.5730
vn -0.8636 -0.1192 -0.4898
vn -0.8700 -0.0779 -0.4869
vn -0.1424 0.6435 -0.7521
vn -0.0190 0.7004 -0.7135
vn 0.7264 -0.3251 0.6055
vn 0.7094 -0.3287 0.6235
vn 0.7078 -0.3285 0.6254
vn 0.8605 0.4993 -0.1015
vn 0.9174 0.3947 -0.0513
vn 0.9190 0.3882 -0.0694
vn 0.1819 0.6760 -0.7141
vn 0.8358 -0.1907 0.5149
s 1
f 3//1 4//2 5//3
f 4//4 6//5 1//6
f 2//7 1//6 6//5
f 2//7 8//8 1//6
f 8//8 2//7 7//9
f 9//10 1//6 8//8
f 10//11 1//6 9//10
f 11//12 9//10 8//8
f 13//13 8//8 12//14
f 14//15 3//1 5//3
f 15//16 3//1 14//15
f 1//6 10//11 17//17
f 14//15 5//3 18//18
f 4//4 22//19 6//5
f 23//20 2//7 22//19
f 23//20 7//9 2//7
f 21//21 3//1 15//16
f 7//9 23//20 24//22
f 25//23 12//14 8//8
f 8//8 13//13 11//12
f 31//24 30//25 32//26
f 13//13 30//25 11//12
f 11//12 33//27 9//10
f 33//28 34//29 35//30
f 35//30 34//29 36//31
f 37//32 34//29 38//33
f 40//34 39//35 45//36
f 30//25 41//37 11//12
f 31//24 45//36 30//25
f 42//38 34//29 33//28
f 11//12 41//37 33//27
f 41//37 43//39 33//27
f 42//40 43//39 44//41
f 34//29 42//38 38//33
f 42//40 44//41 45//36
f 39//35 42//40 45//36
f 41//37 44//41 43//39
f 45//36 44//41 46//42
f 30//25 46//42 41//37
f 46//42 30//25 45//36
f 47//43 14//44 48//45
f 47//43 48//45 13//13
f 29//46 24//47 26//48
f 26//48 13//49 29//46
f 30//25 13//13 48//45
f 30//25 14//15 32//26
f 14//15 18//18 32//26
f 21//50 51//51 23//20
f 57//52 21//21 52//53
f 53//54 54//55 23//56
f 54//55 53//54 51//57
f 16//58 49//59 50//60
f 49//59 16//58 55//61
f 58//62 56//63 54//64
f 23//20 22//19 21//50
f 22//19 4//4 21//50
f 15//16 52//53 21//21
f 59//65 26//48 24//47
f 55//61 16//58 14//44
f 59//65 49//66 26//48
f 47//43 55//61 14//44
f 57//67 49//66 59//65
f 51//57 60//68 54//55
f 61//69 51//51 62//70
f 21//50 62//70 51//51
f 63//71 21//21 57//52
f 66//72 63//71 57//52
f 67//73 68//74 70//75
f 71//76 69//77 57//78
f 72//79 50//60 49//59
f 56//63 58//62 60//80
l 19 20
l 64 65
l 27 28
