# Blender v2.78 (sub 0) OBJ File: 'exporter.blend'
# www.blender.org
o FJ2736.obj_grp1.1434
v 0.106117 -0.612647 5.538649
v 0.110525 -0.619430 5.539474
v 0.107474 -0.615588 5.536934
v 0.109667 -0.617274 5.535502
v 0.109760 -0.616796 5.535266
v 0.111737 -0.610507 5.537889
v 0.112537 -0.616733 5.535977
v 0.109663 -0.617035 5.535661
v 0.111053 -0.618390 5.536364
v 0.111006 -0.607850 5.541906
v 0.114501 -0.605026 5.547248
v 0.116798 -0.604310 5.549557
v 0.117215 -0.614283 5.546934
v 0.121272 -0.605896 5.565158
v 0.122477 -0.602730 5.561065
v 0.127860 -0.604931 5.558482
v 0.125921 -0.609605 5.561841
v 0.122230 -0.605817 5.563253
v 0.123292 -0.607852 5.583974
v 0.126059 -0.602753 5.570501
v 0.122477 -0.602730 5.561065
v 0.123292 -0.607852 5.583974
v 0.122559 -0.608335 5.564351
v 0.125054 -0.610848 5.599341
v 0.124096 -0.611556 5.587777
v 0.124178 -0.611918 5.589605
v 0.127173 -0.606086 5.587871
v 0.123292 -0.607852 5.583974
v 0.128897 -0.609308 5.580126
v 0.127965 -0.604896 5.588319
v 0.127509 -0.605791 5.585195
v 0.126059 -0.602753 5.570501
v 0.127447 -0.605309 5.590256
v 0.130779 -0.615303 5.615516
v 0.132358 -0.603490 5.591962
v 0.128021 -0.606058 5.587308
v 0.128646 -0.606775 5.585008
v 0.131730 -0.604564 5.591588
v 0.129272 -0.608612 5.590970
v 0.129796 -0.607687 5.590500
v 0.127483 -0.607063 5.590406
v 0.129526 -0.608256 5.590625
v 0.129606 -0.609241 5.589139
v 0.128277 -0.606115 5.589937
v 0.127483 -0.607063 5.590406
v 0.128920 -0.608556 5.590999
v 0.129580 -0.609289 5.589101
v 0.127658 -0.603570 5.562802
v 0.130710 -0.607477 5.587132
v 0.127658 -0.603570 5.562802
v 0.129599 -0.608410 5.587214
v 0.129321 -0.607884 5.585618
v 0.129729 -0.608114 5.587265
v 0.130127 -0.605189 5.591358
v 0.130049 -0.607859 5.590272
v 0.131214 -0.606913 5.592050
v 0.130113 -0.608216 5.589821
v 0.129606 -0.609241 5.589139
v 0.125540 -0.611448 5.600124
v 0.129834 -0.618049 5.613993
v 0.128277 -0.606115 5.589937
v 0.129796 -0.607687 5.590500
v 0.131214 -0.606913 5.592050
v 0.131398 -0.604429 5.592050
v 0.126449 -0.613828 5.605757
v 0.126449 -0.613828 5.605757
v 0.132058 -0.617419 5.611344
v 0.132150 -0.616111 5.613974
v 0.129674 -0.615720 5.615268
v 0.129719 -0.615709 5.615003
v 0.130466 -0.615886 5.612745
v 0.131203 -0.615644 5.612992
v 0.133043 -0.615781 5.613661
v 0.129643 -0.615815 5.612958
v 0.132275 -0.615777 5.613234
v 0.130827 -0.617715 5.614536
v 0.132347 -0.617607 5.613316
v 0.132347 -0.617607 5.613316
v 0.132347 -0.617607 5.613316
v 0.126059 -0.602753 5.570501
v 0.126774 -0.605385 5.558287
v 0.131310 -0.608428 5.584507
v 0.130439 -0.608117 5.586673
v 0.133150 -0.606246 5.590359
v 0.134981 -0.605806 5.593197
v 0.129024 -0.607002 5.585712
v 0.132522 -0.603923 5.592761
v 0.131398 -0.604429 5.592050
v 0.130417 -0.606420 5.592644
v 0.133150 -0.606246 5.590359
v 0.131180 -0.606462 5.592138
v 0.130652 -0.607493 5.592585
v 0.132899 -0.607091 5.593927
v 0.133501 -0.607072 5.598903
v 0.135219 -0.606441 5.606737
v 0.137028 -0.606672 5.595819
v 0.135500 -0.604809 5.598763
v 0.134079 -0.606075 5.594776
v 0.135372 -0.607213 5.597965
v 0.136335 -0.606514 5.599279
v 0.132858 -0.605525 5.594173
v 0.135372 -0.607213 5.597965
v 0.136804 -0.609728 5.607775
v 0.133501 -0.607072 5.598903
v 0.134998 -0.608988 5.604548
v 0.135320 -0.608486 5.608347
v 0.135798 -0.607215 5.604619
v 0.137731 -0.610157 5.607076
v 0.136581 -0.608377 5.605053
v 0.136335 -0.606514 5.599279
v 0.137509 -0.607543 5.606779
v 0.136581 -0.608377 5.605053
v 0.136064 -0.606431 5.606404
v 0.137657 -0.607631 5.606650
v 0.136211 -0.606721 5.606505
v 0.140029 -0.605953 5.608659
v 0.137378 -0.607450 5.606808
v 0.140266 -0.605574 5.609641
v 0.140155 -0.605000 5.609006
v 0.140865 -0.606400 5.608774
v 0.140880 -0.605176 5.609278
v 0.138994 -0.605811 5.608768
v 0.140353 -0.604888 5.609073
v 0.140042 -0.604960 5.608293
v 0.140848 -0.606387 5.608762
v 0.140534 -0.605040 5.609496
v 0.140177 -0.604744 5.609138
vn -0.7215 -0.6723 -0.1661
vn -0.1507 -0.9598 0.2370
vn -0.6747 -0.5340 0.5095
vn -0.6520 -0.2156 -0.7269
vn -0.5105 0.2331 -0.8277
vn -0.3251 0.1691 -0.9304
vn -0.4719 0.6324 -0.6143
vn 0.1784 0.6214 -0.7629
vn 0.6451 -0.1814 -0.7423
vn 0.1526 -0.8087 -0.5680
vn 0.1318 -0.3347 -0.9331
vn -0.7772 0.5470 0.3111
vn -0.4082 0.8751 -0.2601
vn 0.0791 0.9665 -0.2441
vn 0.2425 -0.9098 0.3368
vn -0.8446 0.4962 0.2013
vn -0.3519 0.9354 0.0346
vn 0.8944 0.2615 -0.3629
vn -0.8668 -0.4866 0.1090
vn 0.3504 -0.9366 -0.0080
vn -0.8484 0.5093 0.1440
vn -0.4972 0.8455 0.1945
vn -0.5291 0.8239 0.2030
vn -0.4826 0.8429 0.2381
vn -0.8089 -0.5266 -0.2615
vn -0.4638 0.8292 0.3119
vn -0.9622 -0.2723 -0.0076
vn -0.6775 -0.7355 -0.0044
vn -0.7040 0.7029 0.1016
vn -0.9929 -0.0995 0.0652
vn 0.9447 -0.1407 -0.2962
vn 0.9143 0.3967 -0.0812
vn 0.6081 0.7871 0.1035
vn 0.7562 -0.6379 -0.1455
vn -0.6599 0.7319 -0.1701
vn -0.4252 0.8331 0.3538
vn 0.6472 0.7599 -0.0598
vn 0.3622 0.9304 0.0558
vn -0.1016 0.9479 -0.3018
vn 0.0758 0.4170 0.9058
vn 0.0726 0.4062 0.9109
vn 0.0727 0.4061 0.9109
vn 0.0693 0.3952 0.9160
vn 0.6674 0.7298 0.1480
vn 0.6933 0.7074 0.1375
vn 0.4118 0.8919 0.1868
vn 0.9152 -0.3637 -0.1733
vn 0.8557 -0.5167 -0.0285
vn 0.9907 0.1293 -0.0422
vn 0.1720 0.8487 -0.5001
vn 0.1788 0.8502 -0.4952
vn 0.1461 0.9223 -0.3579
vn 0.2819 -0.7793 0.5597
vn -0.9902 -0.0611 0.1257
vn -0.6037 -0.1461 0.7837
vn -0.6090 -0.3295 0.7215
vn -0.5759 0.0427 0.8164
vn -0.9151 -0.3842 0.1224
vn -0.4525 -0.8880 0.0818
vn 0.7210 -0.6518 -0.2351
vn 0.8247 0.5608 0.0734
vn 0.9836 0.1399 -0.1140
vn -0.8452 0.3944 0.3608
vn -0.4746 0.7895 0.3891
vn -0.9353 -0.1870 0.3005
vn 0.3506 0.9071 0.2329
vn 0.1790 -0.9804 -0.0818
vn -0.1099 0.0070 0.9939
vn -0.1064 0.0548 0.9928
vn -0.1098 0.0257 0.9936
vn 0.2163 -0.9578 0.1892
vn 0.9756 0.1689 -0.1402
vn 0.3260 0.9375 -0.1215
vn 0.9695 -0.2151 -0.1173
vn 0.7437 0.6655 0.0631
vn 0.1759 0.9814 0.0768
vn -0.0427 -0.8218 0.5681
vn 0.6115 0.6824 -0.4004
vn 0.5666 0.6120 -0.5516
vn 0.5992 0.7058 -0.3779
vn 0.2302 -0.9731 0.0098
vn 0.1799 -0.9817 0.0625
vn 0.1869 -0.9822 -0.0189
vn -0.8050 0.4843 0.3427
vn -0.5311 0.8390 0.1183
vn -0.8256 0.4894 0.2810
vn 0.0603 -0.9850 -0.1616
vn 0.0233 -0.9883 -0.1507
vn 0.0333 -0.9950 -0.0940
vn 0.6179 0.7619 -0.1941
vn 0.5436 0.8282 -0.1365
vn 0.4916 0.8708 -0.0028
vn -0.0700 -0.9671 -0.2447
vn -0.1310 -0.9358 -0.3272
vn -0.5688 -0.8071 -0.1581
vn -0.2220 -0.9455 -0.2384
vn -0.2576 -0.6857 0.6807
vn -0.9261 -0.3559 0.1251
vn -0.3744 -0.6792 0.6312
vn -0.6941 0.4509 0.5611
vn 0.5801 0.8007 -0.1497
vn 0.1062 0.9115 -0.3974
vn 0.8236 0.1420 -0.5491
vn 0.8544 0.5189 -0.0290
vn 0.8351 -0.5121 -0.2008
vn 0.8366 -0.5045 -0.2136
vn 0.8301 -0.5032 -0.2403
vn 0.7681 -0.0188 -0.6400
vn 0.5940 0.6954 -0.4044
vn 0.5889 0.6339 -0.5014
vn 0.5501 0.6943 -0.4641
vn -0.0541 0.9926 0.1086
vn -0.2090 0.9778 -0.0179
vn -0.0626 -0.1883 0.9801
vn 0.0521 0.9393 -0.3390
vn -0.0844 -0.2067 0.9748
vn 0.6009 -0.0384 -0.7984
vn 0.1215 0.3963 -0.9100
vn 0.1032 0.3997 -0.9108
vn 0.1201 0.3865 -0.9144
s 1
f 4//1 2//2 1//3
f 4//4 3//5 5//6
f 3//5 1//7 5//6
f 5//6 1//7 6//8
f 5//6 6//8 7//9
f 7//9 9//10 8//11
f 2//2 4//1 9//10
f 9//10 7//9 2//2
f 11//12 10//13 1//7
f 6//8 1//7 10//13
f 6//8 10//13 12//14
f 13//15 1//3 2//2
f 11//12 1//7 14//16
f 14//16 15//17 11//12
f 7//9 6//8 16//18
f 7//9 13//15 2//2
f 15//17 12//14 11//12
f 1//3 13//15 18//19
f 13//15 17//20 18//19
f 14//16 19//21 15//17
f 20//22 21//23 22//24
f 18//19 17//20 23//25
f 22//24 24//26 20//22
f 25//27 18//19 23//25
f 23//25 17//20 26//28
f 20//22 24//26 27//29
f 28//30 18//19 25//27
f 30//31 31//32 32//33
f 26//28 17//20 29//34
f 24//26 33//35 27//29
f 24//26 34//36 33//35
f 31//32 36//37 37//38
f 38//39 27//29 33//35
f 39//40 40//41 41//42
f 44//43 41//42 40//41
f 46//44 45//45 34//46
f 50//47 51//48 47//49
f 30//50 35//51 37//52
f 54//53 47//49 51//48
f 25//27 26//28 28//30
f 28//30 26//28 59//54
f 61//55 62//56 63//55
f 64//57 61//55 63//55
f 65//58 59//54 26//28
f 26//28 60//59 65//58
f 60//59 26//28 29//34
f 29//34 47//49 67//60
f 47//49 46//61 68//62
f 67//60 47//49 68//62
f 60//59 29//34 67//60
f 24//26 66//63 69//64
f 70//65 65//58 60//59
f 34//36 24//26 69//64
f 34//46 73//66 46//44
f 60//59 67//60 77//67
f 74//68 78//69 75//70
f 77//67 76//71 60//59
f 67//60 68//62 79//72
f 6//8 12//14 16//18
f 16//18 13//15 7//9
f 13//15 16//18 17//20
f 12//14 15//17 16//18
f 16//18 15//17 80//73
f 50//47 29//34 81//74
f 17//20 16//18 29//34
f 48//75 32//33 37//38
f 32//33 31//32 37//38
f 48//75 37//38 49//76
f 47//49 29//34 50//47
f 51//48 84//77 54//53
f 85//78 86//79 87//80
f 92//81 93//82 94//83
f 89//84 95//85 88//86
f 96//87 91//88 90//89
f 87//80 97//90 85//78
f 38//91 95//85 98//92
f 96//87 99//93 91//88
f 102//94 105//95 101//96
f 105//95 102//94 103//97
f 104//98 105//95 106//99
f 95//85 89//84 106//100
f 95//85 107//101 98//92
f 95//85 115//102 107//101
f 103//97 106//99 105//95
f 108//103 96//87 109//104
f 110//105 111//106 112//107
f 108//103 109//104 117//108
f 114//109 107//110 113//111
f 98//92 107//101 100//112
f 108//103 99//93 96//87
f 118//113 95//85 106//100
f 103//97 119//114 106//99
f 116//115 115//102 95//85
f 95//85 118//113 116//115
f 120//116 119//114 103//97
f 117//108 116//117 108//103
f 122//118 121//119 125//120
l 42 43
l 52 53
l 57 58
l 82 83
l 71 72
l 123 124
l 126 127
l 55 56
