# Blender v2.78 (sub 0) OBJ File: 'exporter.blend'
# www.blender.org
o FJ2733.obj_grp1.1431
v 0.196528 -0.706646 5.748631
v 0.198175 -0.706706 5.749891
v 0.197951 -0.707579 5.747795
v 0.198139 -0.706369 5.749735
v 0.198702 -0.706731 5.747013
v 0.207541 -0.711959 5.747886
v 0.210358 -0.717041 5.748001
v 0.198274 -0.708573 5.750301
v 0.198794 -0.700118 5.748497
v 0.198887 -0.700987 5.749696
v 0.199262 -0.700657 5.748714
v 0.199502 -0.702134 5.749020
v 0.198830 -0.701105 5.749256
v 0.197230 -0.704645 5.750024
v 0.199065 -0.702906 5.748720
v 0.198557 -0.702510 5.748495
v 0.200015 -0.701136 5.749167
v 0.198454 -0.704359 5.750446
v 0.198831 -0.701362 5.749199
v 0.199491 -0.705483 5.749649
v 0.199395 -0.708148 5.750496
v 0.199737 -0.705749 5.750302
v 0.199102 -0.702438 5.751334
v 0.199715 -0.701575 5.750024
v 0.198689 -0.705753 5.747723
v 0.199448 -0.707066 5.748713
v 0.199654 -0.705476 5.748709
v 0.199219 -0.705595 5.746592
v 0.200431 -0.705366 5.748062
v 0.199364 -0.707362 5.749708
v 0.210647 -0.715257 5.750426
v 0.210421 -0.714657 5.747322
v 0.210424 -0.714894 5.747353
v 0.209210 -0.712002 5.749789
v 0.210004 -0.718241 5.748778
v 0.211120 -0.731493 5.748322
v 0.212690 -0.716096 5.750316
v 0.209866 -0.712322 5.749581
v 0.209704 -0.714082 5.750587
v 0.210546 -0.716693 5.748232
v 0.212365 -0.719376 5.747761
v 0.212524 -0.730316 5.749238
v 0.214055 -0.711213 5.758286
v 0.214085 -0.711165 5.759251
v 0.215125 -0.711334 5.757858
v 0.216315 -0.711692 5.757236
v 0.232331 -0.754115 5.747803
v 0.215240 -0.712467 5.760352
v 0.213126 -0.711923 5.759842
v 0.216093 -0.710205 5.760149
v 0.215240 -0.712467 5.760352
v 0.214791 -0.710373 5.759199
v 0.215846 -0.710544 5.759626
v 0.212205 -0.727836 5.750907
v 0.215187 -0.732262 5.749687
v 0.214878 -0.728487 5.749684
v 0.212241 -0.727856 5.750868
v 0.212989 -0.711681 5.759119
v 0.214448 -0.711148 5.758190
v 0.213316 -0.708950 5.758965
v 0.214055 -0.711213 5.758286
v 0.214958 -0.711735 5.758397
v 0.213549 -0.709636 5.756701
v 0.222353 -0.733264 5.748989
v 0.215409 -0.710566 5.757609
v 0.216377 -0.709987 5.759364
v 0.215178 -0.710096 5.758896
v 0.215658 -0.710513 5.758739
v 0.230348 -0.737423 5.748803
v 0.212570 -0.727897 5.747409
v 0.214871 -0.729930 5.747650
v 0.212323 -0.731210 5.747855
v 0.214446 -0.733085 5.749648
v 0.212557 -0.727888 5.747347
v 0.212399 -0.719372 5.747582
v 0.216446 -0.732484 5.751009
v 0.223351 -0.738522 5.750774
v 0.223351 -0.738522 5.750774
v 0.216446 -0.732484 5.751009
v 0.228246 -0.737789 5.751807
v 0.223567 -0.739306 5.747112
v 0.222303 -0.736733 5.747026
v 0.223548 -0.739312 5.747108
v 0.221973 -0.733552 5.748121
v 0.223567 -0.739306 5.747112
v 0.220769 -0.733672 5.749835
v 0.219447 -0.735636 5.748174
v 0.221372 -0.735144 5.752328
v 0.220723 -0.732210 5.747437
v 0.220248 -0.731961 5.750294
v 0.222083 -0.734979 5.751399
v 0.220769 -0.733672 5.749835
v 0.221073 -0.734734 5.750950
v 0.230568 -0.742025 5.750732
v 0.223351 -0.738522 5.750774
v 0.237270 -0.762389 5.741527
v 0.236757 -0.748494 5.746840
v 0.236885 -0.753871 5.738922
v 0.237143 -0.762761 5.741313
v 0.237370 -0.749073 5.743209
v 0.230348 -0.737423 5.748803
v 0.246702 -0.770847 5.738563
v 0.250230 -0.767792 5.732095
v 0.248637 -0.771615 5.739717
v 0.254350 -0.765855 5.739929
v 0.250489 -0.770821 5.735846
v 0.254019 -0.763085 5.736402
v 0.251638 -0.769131 5.741620
v 0.253305 -0.769473 5.739226
v 0.251638 -0.769131 5.741620
v 0.253305 -0.769473 5.739226
v 0.250489 -0.770821 5.735846
v 0.253671 -0.768429 5.735477
v 0.254284 -0.765859 5.739836
vn -0.8512 -0.4325 -0.2972
vn -0.6039 -0.1572 -0.7814
vn 0.1632 0.3039 -0.9386
vn -0.6337 -0.1666 0.7554
vn -0.7748 -0.2441 -0.5832
vn -0.5674 -0.3392 0.7504
vn -0.8973 0.1863 0.4001
vn -0.9725 0.1027 0.2090
vn 0.2842 0.1676 0.9440
vn 0.3517 0.0164 0.9360
vn -0.3184 0.2482 0.9149
vn -0.9540 -0.1572 0.2553
vn 0.2802 0.2180 -0.9349
vn 0.5824 0.1681 -0.7954
vn -0.1503 -0.1181 0.9816
vn -0.3377 0.3311 0.8811
vn -0.1343 -0.2024 0.9701
vn 0.5753 -0.0017 0.8179
vn 0.9114 0.0372 0.4099
vn 0.2417 0.1596 0.9571
vn 0.8957 0.0342 0.4433
vn 0.8898 0.1367 -0.4354
vn 0.9043 0.1099 -0.4125
vn 0.9089 0.0996 -0.4049
vn 0.9772 -0.1567 -0.1433
vn 0.9772 -0.1531 -0.1473
vn 0.9972 -0.0704 -0.0237
vn 0.4939 0.7725 -0.3992
vn 0.5725 0.6401 -0.5124
vn 0.7157 0.6984 -0.0039
vn 0.4841 0.5119 0.7096
vn -0.3458 -0.3246 0.8804
vn 0.2624 0.3352 -0.9049
vn -0.1560 -0.1449 0.9771
vn -0.2005 -0.2423 -0.9493
vn 0.2773 0.4042 0.8716
vn -0.9861 -0.1546 -0.0602
vn 0.5905 0.3838 -0.7099
vn 0.2593 0.3388 0.9044
vn 0.5242 0.2379 -0.8177
vn 0.0795 0.0988 0.9919
vn -0.1062 0.0155 -0.9942
vn 0.7011 0.2732 -0.6586
vn -0.6673 -0.4215 -0.6140
vn -0.3156 -0.5403 0.7801
vn -0.2986 -0.3940 0.8692
vn -0.2397 -0.4594 0.8552
vn 0.4372 -0.1420 0.8881
vn 0.4082 -0.1396 0.9021
vn -0.7713 -0.1989 0.6046
vn -0.5649 -0.4103 0.7159
vn -0.5584 -0.5698 0.6029
vn 0.4503 0.1892 0.8726
vn 0.8470 0.3844 0.3672
vn -0.9489 -0.3039 0.0851
vn -0.9428 -0.3313 -0.0373
vn -0.9257 -0.3780 -0.0134
vn -0.9230 -0.2661 -0.2782
vn -0.7230 0.1880 -0.6648
vn -0.5512 0.1381 -0.8229
vn 0.1401 0.6780 -0.7216
vn 0.1166 0.5545 -0.8240
vn -0.8154 -0.0036 -0.5789
vn 0.0504 0.9423 -0.3309
vn 0.4413 0.7244 -0.5297
vn 0.7913 0.5087 -0.3392
vn 0.8518 0.2458 0.4627
vn 0.7425 0.5347 -0.4035
vn -0.7975 -0.3255 -0.5080
vn 0.1706 0.0559 -0.9837
vn 0.1506 0.0282 -0.9882
vn 0.1391 0.0725 -0.9876
vn 0.5647 0.5784 -0.5887
vn 0.8106 0.4472 0.3781
vn -0.5154 -0.6239 0.5874
vn -0.5643 -0.5855 0.5820
vn 0.1977 -0.1796 0.9637
vn -0.5849 -0.7987 -0.1411
vn -0.5685 -0.8090 -0.1498
vn -0.5776 -0.8045 -0.1385
vn -0.2824 0.0724 -0.9566
vn -0.8457 -0.3859 -0.3686
vn -0.6134 -0.7179 0.3293
vn -0.6799 -0.7073 0.1936
vn -0.6141 -0.7786 0.1293
vn 0.5813 0.6741 0.4557
vn 0.8093 0.4045 0.4259
vn -0.5589 -0.5897 0.5830
vn -0.2371 0.2043 -0.9498
vn -0.9075 -0.2454 -0.3409
vn 0.3971 0.0373 0.9170
vn -0.7991 -0.5245 0.2939
vn -0.4518 -0.5394 0.7105
vn 0.6308 0.6971 -0.3408
vn 0.6838 0.2696 0.6780
vn -0.7531 -0.4113 -0.5135
vn 0.8687 0.4906 0.0686
vn -0.5565 -0.8152 -0.1604
vn 0.0740 -0.2282 -0.9708
vn -0.3157 -0.7719 0.5518
vn 0.5074 0.1596 0.8468
vn -0.1396 -0.8274 -0.5440
vn 0.7587 0.5299 -0.3790
vn 0.4115 -0.8155 0.4071
vn 0.4435 -0.8828 0.1546
vn 0.6817 -0.7265 0.0864
vn -0.4993 0.6805 0.5362
vn 0.7490 -0.3258 0.5770
vn 0.8299 -0.3495 -0.4348
vn 0.5036 -0.8605 -0.0764
vn 0.9904 -0.1238 -0.0615
s 1
f 3//1 5//2 6//3
f 1//4 7//5 2//6
f 9//7 2//6 10//8
f 2//6 9//7 1//4
f 12//9 13//10 14//11
f 4//12 11//13 3//1
f 3//1 11//13 5//2
f 5//2 11//13 17//14
f 8//15 18//16 14//11
f 18//16 12//9 14//11
f 18//16 8//15 21//17
f 22//18 23//19 21//20
f 24//21 23//19 22//18
f 19//22 20//23 25//24
f 27//25 22//26 26//27
f 6//28 28//29 29//30
f 29//30 30//31 6//28
f 2//6 7//5 31//32
f 7//5 4//12 3//1
f 3//1 6//3 32//33
f 31//34 21//17 8//15
f 3//1 33//35 7//5
f 34//36 22//18 21//20
f 35//37 31//32 7//5
f 38//38 6//28 30//31
f 21//20 39//39 34//36
f 38//38 40//40 6//28
f 37//41 34//36 39//39
f 31//32 37//41 39//39
f 7//5 33//35 41//42
f 38//38 37//43 40//40
f 7//5 42//44 35//37
f 47//45 48//46 49//47
f 50//48 51//49 47//45
f 54//50 35//37 36//51
f 54//50 36//51 55//52
f 37//43 57//53 56//54
f 54//50 31//32 35//37
f 54//50 37//41 31//32
f 61//55 60//56 63//57
f 64//58 58//59 59//60
f 65//61 84//62 62//63
f 65//61 67//64 66//65
f 50//66 69//67 68//68
f 7//5 70//69 42//44
f 74//70 75//71 71//72
f 37//43 71//73 40//40
f 70//69 7//5 41//42
f 56//54 71//73 37//43
f 56//54 57//53 76//74
f 55//52 78//75 79//76
f 55//52 79//76 54//50
f 80//77 50//48 47//45
f 81//78 73//79 72//80
f 82//81 83//82 42//44
f 82//81 42//44 70//69
f 82//81 71//73 84//62
f 77//83 55//84 85//85
f 84//62 71//73 56//54
f 86//86 84//62 56//54
f 56//54 76//74 87//87
f 78//75 88//88 79//76
f 65//61 66//65 98//89
f 64//58 91//90 58//59
f 50//66 94//91 69//67
f 84//62 65//61 98//89
f 95//92 96//93 47//45
f 95//92 47//45 49//47
f 94//91 80//77 47//45
f 98//89 83//82 82//81
f 83//82 96//93 95//92
f 82//81 84//62 98//89
f 66//65 100//94 98//89
f 94//91 97//95 69//67
f 98//89 99//96 83//82
f 99//96 96//93 83//82
f 97//95 100//94 101//97
f 47//45 97//95 94//91
f 96//93 102//98 47//45
f 98//89 103//99 99//96
f 103//99 102//98 99//96
f 104//100 47//45 102//98
f 47//45 104//100 105//101
f 106//102 102//98 103//99
f 100//94 107//103 98//89
f 103//99 98//89 107//103
f 107//103 100//94 97//95
f 110//104 104//105 109//106
f 105//101 97//95 47//45
f 108//107 105//101 104//100
f 105//101 108//107 111//108
f 104//100 102//98 106//102
f 113//109 106//102 103//99
f 104//105 112//110 109//106
f 113//109 109//106 112//110
f 103//99 107//103 113//109
f 97//95 105//101 107//103
f 113//109 107//103 114//111
f 114//111 109//106 113//109
l 15 16
l 45 46
l 43 44
l 89 90
l 52 53
l 92 93
