# Blender v2.78 (sub 0) OBJ File: 'exporter.blend'
# www.blender.org
o FJ2793.obj_grp1.1491
v -0.018989 -0.449760 6.624269
v -0.018598 -0.449606 6.624320
v -0.018377 -0.447757 6.629045
v -0.017187 -0.449978 6.624303
v -0.018579 -0.449640 6.624351
v -0.017721 -0.449882 6.624303
v -0.018958 -0.449795 6.624303
v -0.016780 -0.447227 6.628247
v -0.020428 -0.450447 6.625101
v -0.017728 -0.449928 6.624223
v -0.020428 -0.450447 6.625101
v -0.018958 -0.449795 6.624303
v -0.020626 -0.450359 6.625477
v -0.020428 -0.450447 6.625101
v -0.020978 -0.451316 6.626040
v -0.020626 -0.450359 6.625477
v -0.020626 -0.450359 6.625477
v -0.020978 -0.451316 6.626040
v -0.016060 -0.451028 6.625175
v -0.016115 -0.451013 6.625196
v -0.017077 -0.450077 6.624444
v -0.015528 -0.450009 6.626966
v -0.021014 -0.451356 6.625998
v -0.017419 -0.453905 6.627349
v -0.020606 -0.452759 6.627120
v -0.015249 -0.448410 6.627852
v -0.020606 -0.452759 6.627120
v -0.017796 -0.448517 6.631132
v -0.016236 -0.453662 6.627104
v -0.019412 -0.453858 6.627474
v -0.014423 -0.449045 6.629175
v -0.019387 -0.453799 6.627496
v -0.017388 -0.450358 6.630780
v -0.014000 -0.447271 6.628376
v -0.014370 -0.446598 6.628497
v -0.015341 -0.446552 6.630546
v -0.017216 -0.447193 6.631063
v -0.015645 -0.452174 6.626134
v -0.015673 -0.452154 6.626134
v -0.015977 -0.453115 6.626757
v -0.016486 -0.453438 6.627214
v -0.015155 -0.448977 6.631266
v -0.017421 -0.453893 6.627355
v -0.013977 -0.447295 6.630063
v -0.015748 -0.447886 6.631696
vn 0.0093 0.1350 -0.9908
vn 0.0094 0.1350 -0.9908
vn -0.1330 0.8812 -0.4537
vn -0.4294 0.8507 -0.3033
vn -0.0902 0.8633 -0.4965
vn -0.0375 -0.6252 -0.7795
vn -0.1718 -0.6512 -0.7392
vn -0.1033 -0.6465 -0.7559
vn -0.5377 0.7606 -0.3638
vn -0.6441 0.7646 0.0230
vn -0.5793 0.6338 -0.5124
vn -0.8804 0.0454 -0.4721
vn -0.8664 0.4482 0.2201
vn -0.8828 0.3170 0.3466
vn 0.1561 -0.5761 -0.8023
vn 0.1780 -0.5101 -0.8415
vn 0.4903 0.6932 -0.5283
vn 0.8695 0.1870 -0.4572
vn 0.8672 0.2980 -0.3989
vn -0.1168 -0.6016 -0.7902
vn -0.1292 -0.5533 -0.8229
vn -0.7265 -0.1658 0.6668
vn -0.6134 0.0906 0.7845
vn 0.0255 -0.5726 -0.8194
vn -0.1140 -0.5518 -0.8262
vn -0.4403 -0.6704 -0.5973
vn 0.4875 0.2162 -0.8459
vn 0.9379 -0.3143 -0.1468
vn -0.2338 -0.5882 0.7742
vn -0.1614 -0.5104 0.8446
vn 0.4054 0.7995 -0.4431
vn 0.8072 0.1485 -0.5712
vn 0.1157 0.9023 0.4153
vn 0.8803 0.2537 0.4010
vn -0.4636 0.6966 0.5475
vn 0.2608 -0.6019 -0.7548
vn 0.9946 -0.0563 0.0876
vn 0.8631 -0.4329 0.2602
vn 0.6202 -0.6409 0.4523
vn 0.5593 -0.3514 0.7508
vn 0.2813 -0.6952 0.6614
vn 0.1905 0.1559 0.9692
s 1
f 5//1 6//1 7//2
f 2//3 1//4 8//5
f 10//6 11//7 12//8
f 1//4 13//9 3//10
f 9//11 13//9 1//4
f 14//12 15//12 16//12
f 17//13 18//14 3//10
f 8//5 1//4 3//10
f 20//15 10//6 21//16
f 8//5 4//17 2//3
f 22//18 4//17 8//5
f 19//19 4//17 22//18
f 10//6 23//20 11//7
f 10//6 24//21 23//20
f 18//14 27//22 28//23
f 20//15 29//24 10//6
f 10//6 29//24 24//21
f 24//21 30//25 23//20
f 23//20 30//25 25//26
f 8//5 26//27 22//18
f 26//27 31//28 22//18
f 32//29 33//30 27//22
f 35//31 26//27 8//5
f 26//27 35//31 34//32
f 35//31 36//33 44//34
f 18//14 28//23 37//35
f 28//23 27//22 33//30
f 35//31 8//5 36//33
f 37//35 36//33 8//5
f 8//5 3//10 37//35
f 37//35 3//10 18//14
f 39//36 29//24 20//15
f 22//18 38//37 19//19
f 40//38 38//37 22//18
f 41//39 40//38 42//40
f 41//39 42//40 43//41
f 43//41 33//30 32//29
f 40//38 22//18 31//28
f 44//34 34//32 35//31
f 34//32 31//28 26//27
f 42//40 31//28 44//34
f 40//38 31//28 42//40
f 44//34 31//28 34//32
f 33//30 45//42 28//23
f 44//34 36//33 45//42
f 45//42 36//33 37//35
f 45//42 42//40 44//34
f 28//23 45//42 37//35
f 42//40 33//30 43//41
f 33//30 42//40 45//42
