# Blender v2.78 (sub 0) OBJ File: 'exporter.blend'
# www.blender.org
o FJ2735.obj_grp1.1433
v 0.056140 -0.589398 5.554053
v 0.058987 -0.589691 5.553146
v 0.056409 -0.589216 5.555240
v 0.060350 -0.593173 5.557676
v 0.045335 -0.567060 5.615099
v 0.045016 -0.567398 5.617166
v 0.043577 -0.567018 5.616414
v 0.045335 -0.567060 5.615099
v 0.043577 -0.567018 5.616414
v 0.044920 -0.564863 5.612909
v 0.045158 -0.564900 5.614865
v 0.043903 -0.566040 5.616399
v 0.046255 -0.566420 5.615201
v 0.045769 -0.566181 5.614689
v 0.043938 -0.565652 5.616555
v 0.046600 -0.563571 5.615477
v 0.044317 -0.566759 5.615793
v 0.059895 -0.592597 5.554606
v 0.069080 -0.582175 5.560688
v 0.059001 -0.589726 5.553553
v 0.059872 -0.592519 5.554680
v 0.057167 -0.589618 5.554868
v 0.059872 -0.592519 5.554680
v 0.062200 -0.581664 5.566746
v 0.063820 -0.585105 5.565750
v 0.062077 -0.578475 5.570442
v 0.050986 -0.570396 5.599359
v 0.051080 -0.571818 5.600738
v 0.058649 -0.569408 5.595106
v 0.058369 -0.566571 5.591311
v 0.052946 -0.568834 5.598340
v 0.055081 -0.571313 5.598575
v 0.054052 -0.571736 5.600353
v 0.054679 -0.570138 5.599895
v 0.053924 -0.566504 5.598552
v 0.053503 -0.571360 5.599539
v 0.050299 -0.564741 5.611161
v 0.051905 -0.570192 5.602301
v 0.049321 -0.569346 5.603129
v 0.050059 -0.567091 5.605303
v 0.050547 -0.568066 5.604301
v 0.051244 -0.568490 5.605647
v 0.051068 -0.568732 5.605774
v 0.051083 -0.569353 5.606957
v 0.052829 -0.570032 5.598489
v 0.054461 -0.570063 5.599894
v 0.049680 -0.564037 5.612268
v 0.049148 -0.562883 5.614287
v 0.049456 -0.565182 5.613941
v 0.047519 -0.565106 5.611753
v 0.049321 -0.569346 5.603129
v 0.048902 -0.565585 5.611625
v 0.047664 -0.564285 5.613258
v 0.049091 -0.564218 5.612567
v 0.047227 -0.566210 5.614771
v 0.048138 -0.564490 5.611605
v 0.050701 -0.564274 5.612336
v 0.049739 -0.563347 5.614345
v 0.047160 -0.564795 5.613076
v 0.048439 -0.564775 5.615159
v 0.048782 -0.565379 5.615488
v 0.046337 -0.564656 5.613645
v 0.047227 -0.566210 5.614771
v 0.045335 -0.567060 5.615099
v 0.044032 -0.564107 5.615615
v 0.067479 -0.584968 5.559067
v 0.069878 -0.581981 5.561333
v 0.065778 -0.581299 5.570172
v 0.065784 -0.581166 5.570150
v 0.060858 -0.563675 5.584989
v 0.067982 -0.567232 5.577370
v 0.068162 -0.567101 5.577260
v 0.060739 -0.569157 5.588162
v 0.062543 -0.574294 5.576433
v 0.064248 -0.569105 5.588411
v 0.061693 -0.569732 5.589160
v 0.068775 -0.566400 5.582193
v 0.061371 -0.569595 5.589796
v 0.065101 -0.562647 5.584592
v 0.058302 -0.566975 5.595194
v 0.052946 -0.568834 5.598340
v 0.055055 -0.568914 5.598434
v 0.060698 -0.567445 5.595168
v 0.058735 -0.565750 5.594998
v 0.058510 -0.566731 5.591298
v 0.052946 -0.568834 5.598340
v 0.059584 -0.567817 5.594285
v 0.058302 -0.566975 5.595194
v 0.057777 -0.567684 5.592267
v 0.060177 -0.567280 5.594995
v 0.059032 -0.566705 5.595603
v 0.060317 -0.565416 5.594075
v 0.062508 -0.566506 5.596368
v 0.064234 -0.569107 5.588669
v 0.062130 -0.566149 5.596168
v 0.061898 -0.563615 5.600700
v 0.052799 -0.562072 5.617971
v 0.054929 -0.563661 5.614443
v 0.059232 -0.566356 5.595054
v 0.054631 -0.560412 5.608715
v 0.053013 -0.557737 5.631865
v 0.054522 -0.557722 5.623597
v 0.052293 -0.560695 5.632285
v 0.057541 -0.560677 5.619459
v 0.059432 -0.558656 5.610074
v 0.053569 -0.556160 5.631351
v 0.051631 -0.558971 5.632726
v 0.051501 -0.558110 5.632458
v 0.056362 -0.560046 5.623644
v 0.053384 -0.557948 5.632899
v 0.052592 -0.559346 5.632185
v 0.052544 -0.557172 5.632089
v 0.052458 -0.557797 5.632792
v 0.053120 -0.559765 5.632893
v 0.062935 -0.561286 5.600405
vn -0.1604 -0.9699 -0.1835
vn -0.4731 -0.6747 -0.5665
vn -0.4519 -0.6749 -0.5833
vn -0.4523 -0.6907 -0.5642
vn -0.5296 0.6495 -0.5456
vn -0.6554 0.6017 -0.4564
vn -0.3426 0.8768 0.3373
vn -0.0940 0.7796 -0.6192
vn 0.7758 -0.3652 -0.5145
vn 0.2789 0.4942 -0.8234
vn -0.5327 -0.4498 -0.7168
vn -0.9463 0.1048 0.3058
vn -0.6872 -0.7253 -0.0415
vn -0.0643 -0.9524 0.2980
vn -0.3637 0.8223 -0.4376
vn -0.4883 -0.5697 0.6610
vn -0.7149 -0.2950 0.6339
vn -0.8989 0.0339 -0.4368
vn -0.5808 -0.8051 0.1203
vn -0.4680 -0.8485 0.2471
vn 0.2681 -0.9564 -0.1159
vn -0.6367 0.6852 -0.3538
vn -0.8954 0.2337 -0.3791
vn -0.1209 -0.8813 -0.4568
vn -0.9990 -0.0352 -0.0260
vn -0.7612 0.5303 -0.3734
vn -0.8199 0.5032 -0.2730
vn 0.8489 -0.0572 0.5254
vn 0.8107 0.5697 0.1350
vn 0.8764 0.1591 0.4546
vn 0.7963 -0.0983 0.5969
vn 0.9314 0.2423 0.2717
vn 0.9851 0.0706 0.1567
vn 0.5020 -0.6859 0.5268
vn 0.8559 0.5115 -0.0766
vn 0.7160 -0.1008 0.6908
vn -0.8573 0.5029 -0.1098
vn 0.4855 -0.6967 0.5280
vn -0.4024 0.7986 -0.4476
vn -0.1065 0.9223 -0.3715
vn 0.9951 -0.0418 0.0902
vn 0.7658 -0.4200 0.4871
vn 0.7601 -0.4486 0.4701
vn 0.7452 -0.4367 0.5039
vn 0.3417 -0.9012 0.2667
vn 0.1615 -0.8560 0.4911
vn 0.5870 -0.7686 -0.2545
vn 0.4444 0.6032 0.6623
vn 0.1005 -0.5456 -0.8320
vn -0.0975 -0.4894 0.8666
vn 0.2224 0.0593 0.9731
vn 0.7226 -0.3932 -0.5685
vn 0.9876 0.0013 -0.1570
vn -0.6089 0.5898 -0.5304
vn -0.4297 -0.7572 0.4920
vn 0.6173 -0.6315 0.4692
vn -0.6260 0.7263 -0.2838
vn -0.4635 0.6443 -0.6083
vn 0.5979 0.6856 -0.4153
vn -0.7677 -0.5710 0.2910
vn -0.0842 -0.9661 0.2440
vn 0.5997 -0.6630 0.4482
vn 0.3251 -0.9192 0.2222
vn 0.0092 0.8540 0.5203
vn 0.6071 -0.6931 0.3887
vn 0.6311 -0.6090 0.4805
vn -0.5699 0.8021 -0.1786
vn -0.5853 0.7890 -0.1870
vn -0.5429 0.8193 -0.1842
vn -0.0604 0.9359 0.3470
vn 0.4723 0.2475 0.8460
vn 0.5322 -0.0750 0.8433
vn -0.1589 0.9717 0.1747
vn -0.5941 -0.7889 0.1574
vn -0.5565 -0.8104 0.1832
vn -0.5658 -0.8117 0.1450
vn 0.9762 0.1558 0.1508
vn 0.4377 -0.8519 0.2876
vn 0.4616 0.8842 -0.0712
vn -0.2648 0.8962 -0.3559
vn -0.9446 -0.2989 -0.1359
vn 0.0160 -0.9899 0.1410
vn -0.2398 -0.9580 0.1570
vn -0.0165 0.9896 -0.1430
vn -0.3500 0.9245 -0.1509
vn -0.9500 0.2459 -0.1924
vn -0.3155 -0.6821 0.6597
vn 0.8936 -0.2662 0.3613
vn -0.4978 -0.8554 0.1434
vn 0.9159 0.3132 0.2510
vn 0.9297 0.2301 0.2876
vn -0.6247 -0.1517 0.7660
vn -0.2696 0.9499 -0.1582
vn -0.7462 -0.1517 0.6482
vn 0.6919 -0.3741 0.6175
vn 0.5557 -0.7679 0.3187
vn 0.3375 -0.6041 0.7219
vn 0.9639 0.1419 0.2252
vn -0.2768 -0.3451 0.8968
vn 0.7223 0.6916 -0.0037
vn 0.7272 0.6852 0.0407
s 1
f 5//1 6//1 7//1
f 8//2 9//3 10//4
f 59//5 15//6 16//7
f 19//8 18//9 2//10
f 20//11 21//11 22//11
f 3//12 23//13 4//14
f 1//15 19//8 2//10
f 3//12 4//14 24//16
f 24//16 1//15 3//12
f 24//16 4//14 25//17
f 27//18 73//19 28//20
f 73//19 29//21 28//20
f 27//18 31//22 30//23
f 29//21 32//24 28//20
f 28//20 37//25 27//18
f 39//26 31//22 27//18
f 31//22 39//26 40//27
f 35//28 41//29 36//30
f 33//31 42//32 44//33
f 28//20 32//24 38//34
f 41//29 43//35 36//30
f 34//36 42//32 33//31
f 49//37 40//27 39//26
f 38//34 52//38 28//20
f 41//29 53//39 54//40
f 54//40 43//35 41//29
f 42//32 57//41 44//33
f 44//42 58//43 60//44
f 53//39 59//5 16//7
f 53//39 16//7 54//40
f 61//45 55//46 56//47
f 16//7 60//48 54//40
f 62//49 63//49 64//49
f 65//50 55//46 61//45
f 16//7 17//51 60//48
f 66//52 18//9 19//8
f 67//53 4//14 18//9
f 67//53 18//9 66//52
f 26//54 19//8 1//15
f 1//15 24//16 26//54
f 68//55 24//16 25//17
f 4//14 69//56 25//17
f 4//14 67//53 69//56
f 70//57 19//8 26//54
f 71//58 72//59 19//8
f 24//16 73//19 74//60
f 68//55 73//19 24//16
f 71//58 19//8 70//57
f 74//60 30//23 26//54
f 26//54 30//23 70//57
f 30//23 74//60 73//19
f 73//19 69//56 76//61
f 75//62 76//61 69//56
f 78//63 76//61 75//62
f 73//19 27//18 30//23
f 80//64 81//64 82//64
f 29//65 83//66 33//31
f 84//67 85//68 86//69
f 33//31 83//66 34//36
f 45//70 87//71 88//72
f 46//73 87//71 45//70
f 76//61 29//21 73//19
f 78//63 75//62 29//65
f 83//66 29//65 75//62
f 93//74 92//75 94//76
f 75//62 77//77 95//78
f 70//57 96//79 79//80
f 30//23 97//81 70//57
f 99//82 95//78 98//83
f 70//57 100//84 101//85
f 70//57 101//85 102//86
f 70//57 102//86 96//79
f 103//87 98//83 95//78
f 104//88 95//78 77//77
f 97//81 89//89 98//83
f 105//90 106//91 104//88
f 97//81 98//83 107//92
f 107//92 98//83 103//87
f 101//85 100//84 108//93
f 70//57 97//81 108//94
f 95//78 111//95 103//87
f 104//88 109//96 95//78
f 95//78 109//96 111//95
f 111//95 109//96 110//97
f 97//81 107//92 108//94
f 108//94 107//92 111//95
f 110//97 108//94 111//95
f 104//88 106//91 110//98
f 114//99 107//92 103//87
f 67//53 19//8 77//77
f 77//77 19//8 72//59
f 69//56 67//53 75//62
f 67//53 77//77 75//62
f 79//80 71//58 70//57
f 79//100 77//77 72//59
f 77//77 79//100 115//101
f 105//90 104//88 77//77
l 47 48
l 11 12
l 112 113
l 50 51
l 13 14
l 54 58
l 90 91
