# Blender v2.78 (sub 0) OBJ File: 'exporter.blend'
# www.blender.org
o FJ2708.obj_grp1.1407
v 0.231430 -0.496425 5.545197
v 0.231393 -0.496613 5.545109
v 0.231503 -0.496608 5.547313
v 0.231300 -0.493900 5.546920
v 0.232256 -0.495589 5.548953
v 0.232281 -0.494650 5.543724
v 0.232189 -0.495827 5.547892
v 0.231216 -0.493455 5.547087
v 0.231344 -0.493716 5.547028
v 0.232256 -0.495589 5.548953
v 0.245618 -0.497563 5.550629
v 0.242612 -0.494650 5.551629
v 0.244504 -0.496589 5.546981
v 0.244520 -0.497743 5.548944
v 0.251086 -0.494214 5.549001
v 0.250609 -0.494338 5.549746
v 0.244578 -0.497819 5.548953
v 0.256141 -0.499916 5.549085
v 0.247468 -0.500296 5.551287
v 0.256168 -0.498046 5.553584
v 0.248118 -0.495711 5.551705
v 0.242612 -0.494650 5.551629
v 0.253158 -0.497603 5.547902
v 0.250880 -0.499138 5.551580
v 0.258589 -0.498486 5.555967
v 0.261487 -0.499960 5.555497
v 0.252883 -0.497500 5.547920
v 0.258747 -0.496262 5.552719
v 0.257130 -0.496796 5.553576
v 0.258472 -0.495744 5.552659
v 0.261551 -0.500189 5.553533
v 0.262158 -0.498897 5.552061
v 0.266723 -0.494636 5.559891
v 0.267053 -0.493945 5.564224
v 0.266591 -0.488927 5.562991
v 0.266938 -0.493321 5.563442
v 0.266798 -0.494498 5.560074
v 0.266473 -0.492772 5.558342
v 0.269495 -0.490497 5.561120
v 0.275269 -0.491917 5.564993
v 0.283964 -0.492603 5.571432
v 0.290399 -0.498177 5.570452
v 0.276986 -0.492888 5.566561
v 0.272721 -0.493246 5.566814
v 0.278653 -0.493510 5.571759
v 0.288421 -0.501403 5.571462
v 0.287633 -0.499459 5.569011
v 0.288710 -0.498624 5.568949
v 0.289381 -0.503009 5.569695
v 0.286741 -0.498406 5.572942
v 0.285589 -0.495395 5.570357
v 0.292958 -0.507477 5.568587
v 0.292330 -0.506466 5.568717
v 0.293098 -0.505309 5.567141
v 0.288837 -0.498683 5.568905
v 0.294253 -0.508607 5.569609
v 0.292320 -0.503955 5.567637
v 0.296130 -0.506856 5.571018
v 0.297034 -0.506043 5.569570
v 0.296130 -0.506856 5.571018
v 0.294253 -0.508607 5.569609
v 0.299950 -0.513364 5.573554
v 0.298859 -0.508653 5.567055
v 0.298089 -0.510612 5.571487
v 0.300418 -0.508459 5.575331
v 0.296588 -0.507857 5.567997
v 0.296957 -0.505876 5.569537
v 0.300027 -0.507923 5.571672
v 0.301858 -0.508368 5.571815
v 0.297069 -0.506011 5.569609
v 0.296130 -0.506856 5.571018
v 0.299634 -0.506077 5.572811
v 0.301237 -0.510303 5.574038
v 0.300540 -0.508490 5.576416
v 0.301177 -0.503163 5.582030
v 0.301881 -0.502915 5.584572
v 0.298822 -0.508701 5.568576
v 0.304147 -0.509454 5.570022
v 0.299886 -0.510926 5.570548
v 0.299886 -0.510926 5.570548
v 0.302681 -0.509673 5.572426
v 0.300825 -0.510612 5.574210
v 0.300531 -0.508615 5.573049
v 0.302667 -0.509189 5.576416
v 0.302263 -0.503477 5.580591
v 0.300562 -0.510254 5.573272
v 0.303364 -0.501573 5.581846
v 0.305621 -0.503578 5.581207
v 0.303992 -0.504079 5.582528
v 0.304580 -0.504039 5.581110
v 0.303335 -0.505311 5.582252
v 0.305086 -0.504138 5.581817
v 0.304331 -0.505917 5.583693
v 0.304580 -0.504039 5.581110
v 0.303909 -0.505391 5.582955
v 0.311749 -0.512982 5.586017
v 0.302962 -0.503152 5.584786
v 0.305049 -0.504658 5.581174
v 0.304331 -0.505917 5.583693
v 0.311952 -0.511670 5.582955
v 0.308336 -0.505419 5.583693
v 0.313802 -0.506951 5.584486
v 0.304721 -0.502252 5.583710
v 0.306558 -0.504823 5.585869
v 0.303422 -0.501748 5.582665
v 0.311977 -0.514988 5.585069
v 0.313840 -0.513275 5.583718
v 0.312174 -0.514530 5.584711
v 0.311843 -0.512186 5.585658
v 0.312800 -0.513429 5.586510
v 0.314290 -0.513329 5.585364
v 0.313661 -0.510771 5.583052
v 0.313886 -0.513457 5.583523
v 0.312800 -0.513429 5.586510
v 0.314600 -0.512490 5.585571
v 0.312255 -0.511551 5.585571
v 0.312984 -0.513029 5.585128
v 0.317526 -0.516456 5.590039
v 0.317726 -0.517015 5.591204
v 0.319114 -0.515317 5.590196
v 0.319568 -0.515311 5.590432
v 0.318547 -0.514405 5.590594
v 0.317381 -0.515903 5.592262
v 0.313031 -0.515109 5.585571
v 0.316955 -0.516245 5.592144
v 0.317023 -0.515763 5.591809
v 0.318402 -0.515539 5.592741
v 0.318408 -0.514217 5.592050
v 0.318798 -0.515266 5.591334
v 0.315430 -0.516289 5.584217
v 0.318734 -0.515948 5.593832
v 0.318139 -0.517173 5.591322
v 0.318664 -0.517184 5.590594
v 0.318520 -0.517982 5.590658
v 0.320431 -0.516423 5.589163
v 0.317726 -0.516245 5.589842
v 0.318502 -0.515474 5.591948
v 0.318664 -0.517184 5.590594
v 0.317726 -0.516245 5.589842
v 0.318150 -0.517000 5.590767
v 0.318220 -0.517286 5.590946
v 0.318261 -0.518123 5.591204
v 0.319603 -0.519452 5.591204
v 0.318546 -0.518238 5.590757
v 0.318591 -0.518046 5.590906
v 0.319603 -0.516245 5.590782
v 0.320549 -0.518123 5.592144
v 0.319909 -0.515306 5.592144
v 0.320542 -0.518165 5.590265
v 0.319603 -0.519452 5.591204
v 0.318664 -0.518170 5.590265
v 0.319909 -0.515306 5.592144
v 0.320542 -0.518165 5.590265
v 0.320549 -0.518123 5.592144
v 0.319603 -0.519452 5.591204
v 0.320542 -0.518165 5.590265
v 0.320542 -0.518165 5.590265
v 0.319909 -0.515306 5.592144
v 0.320549 -0.518123 5.592144
v 0.320542 -0.518165 5.590265
vn -0.9861 0.1482 -0.0753
vn -0.4614 -0.8027 -0.3779
vn -0.8178 -0.5513 0.1651
vn -0.9051 -0.0053 0.4252
vn -0.9925 -0.0133 -0.1216
vn -0.4666 0.7856 -0.4064
vn -0.4107 0.8829 0.2277
vn -0.0765 -0.7614 0.6438
vn -0.1974 -0.5368 0.8203
vn -0.1873 -0.5669 0.8022
vn 0.1587 -0.4116 -0.8974
vn -0.2143 -0.7682 -0.6033
vn -0.0326 0.9104 0.4124
vn 0.1520 -0.5500 -0.8212
vn -0.0654 -0.8357 0.5452
vn 0.2835 0.6141 -0.7365
vn -0.3546 -0.7966 -0.4896
vn 0.2662 -0.7176 -0.6436
vn -0.1297 -0.8290 -0.5440
vn -0.1554 0.3081 0.9386
vn -0.4069 0.6857 0.6035
vn 0.0028 0.9067 0.4217
vn 0.3003 0.3612 -0.8828
vn -0.0469 -0.6142 0.7877
vn 0.1741 -0.9021 0.3948
vn 0.2720 0.5965 -0.7551
vn 0.3832 0.8343 -0.3963
vn -0.5175 -0.2952 0.8031
vn -0.1979 0.8497 0.4886
vn 0.3641 -0.9256 -0.1031
vn 0.6963 -0.5950 -0.4013
vn 0.6047 -0.7635 0.2269
vn -0.6552 0.0668 0.7525
vn 0.2304 0.7152 -0.6598
vn -0.3923 0.8830 0.2578
vn 0.2244 -0.9422 0.2486
vn 0.7175 -0.6929 -0.0712
vn -0.0557 0.7253 -0.6862
vn 0.6448 -0.2383 -0.7263
vn -0.6534 0.7480 0.1164
vn 0.1728 -0.8639 -0.4730
vn 0.2500 0.9057 -0.3423
vn -0.2190 0.0635 0.9737
vn 0.4471 0.5826 -0.6787
vn -0.2458 -0.8475 -0.4705
vn 0.3200 -0.4195 -0.8495
vn 0.6427 0.6967 0.3188
vn -0.6752 -0.6499 0.3487
vn -0.2756 -0.4808 -0.8324
vn 0.2629 0.3501 -0.8990
vn -0.3772 -0.5486 0.7462
vn 0.3241 0.2300 0.9176
vn -0.6568 -0.6595 -0.3656
vn -0.8068 -0.5717 -0.1491
vn -0.7076 -0.4078 -0.5770
vn -0.2183 -0.0781 -0.9727
vn -0.1027 0.2601 -0.9601
vn -0.2889 -0.4831 0.8265
vn 0.0569 0.2708 -0.9610
vn -0.2278 -0.4500 0.8635
vn -0.1573 -0.7105 -0.6859
vn 0.5631 0.7538 -0.3387
vn 0.5074 0.5581 0.6566
vn 0.5177 0.4987 0.6952
vn -0.5576 -0.8147 -0.1593
vn -0.2902 -0.8502 -0.4393
vn -0.8609 -0.0551 0.5058
vn -0.8736 -0.2584 0.4124
vn -0.7995 0.4817 0.3588
vn -0.0689 0.9827 0.1720
vn 0.2989 0.8662 -0.4005
vn 0.6995 0.6998 -0.1449
vn -0.3499 0.8877 0.2991
vn -0.3436 0.8998 0.2689
vn -0.3701 0.8791 0.3004
vn -0.4195 -0.6921 0.5874
vn -0.9921 -0.0752 0.1007
vn -0.9128 0.4064 0.0396
vn -0.9433 -0.1821 0.2776
vn 0.1186 -0.6246 -0.7719
vn 0.0793 -0.6458 -0.7594
vn 0.0829 -0.5693 -0.8180
vn -0.4146 -0.8963 0.1571
vn 0.4267 -0.9039 -0.0318
vn 0.4788 -0.8772 0.0364
vn 0.4787 -0.8772 0.0364
vn 0.5269 -0.8435 0.1044
vn 0.5132 0.7363 -0.4411
vn 0.3450 0.5932 -0.7273
vn 0.5387 0.6285 -0.5611
vn -0.3648 -0.9069 0.2109
vn -0.7460 -0.3600 0.5603
vn -0.1634 0.7248 0.6693
vn -0.5116 -0.6802 0.5250
vn -0.0407 0.1067 0.9935
vn 0.7199 0.5895 -0.3663
vn 0.3807 0.2963 0.8760
vn -0.0476 0.7790 0.6252
vn 0.5171 0.8538 0.0610
vn -0.3888 0.8973 0.2091
vn -0.7347 -0.3613 0.5742
vn -0.5438 -0.6718 -0.5029
vn -0.0766 -0.6618 -0.7458
vn -0.0130 -0.6615 -0.7499
vn -0.5514 -0.6066 -0.5728
vn 0.1933 0.4832 0.8539
vn 0.2742 -0.7963 -0.5392
vn 0.2023 0.1795 0.9627
vn 0.5707 -0.0773 -0.8175
vn 0.1615 -0.0288 -0.9864
vn 0.4196 -0.5082 -0.7521
vn 0.4319 -0.4927 -0.7555
vn 0.4700 -0.4439 -0.7629
vn 0.7618 0.6162 -0.2002
vn 0.6622 0.7440 -0.0893
vn -0.6805 -0.6565 0.3255
vn -0.7133 -0.6349 0.2969
vn -0.6643 -0.6585 0.3537
vn -0.7988 -0.3289 0.5037
vn 0.5990 0.7998 -0.0382
vn 0.5120 0.8440 0.1596
vn -0.1857 0.9490 0.2546
vn -0.7183 0.6664 0.1997
vn 0.0060 -0.9692 0.2464
vn -0.0368 -0.9760 0.2146
vn 0.0226 -0.9703 0.2408
vn 0.7857 0.4290 -0.4456
vn 0.7859 0.4279 -0.4463
vn 0.8179 0.5496 0.1704
vn 0.5886 0.8071 -0.0471
vn 0.0012 -0.5902 -0.8072
vn 0.8351 0.5210 -0.1766
vn 0.9269 0.3265 -0.1849
vn 0.8113 -0.5846 0.0100
vn -0.3042 0.1059 -0.9467
vn -0.3221 0.1278 -0.9381
vn -0.3319 0.1125 -0.9366
vn 0.9751 0.2218 -0.0089
s 1
f 1//1 2//2 3//3
f 3//3 5//4 4//5
f 1//1 4//5 6//6
f 1//1 3//3 4//5
f 4//5 8//7 6//6
f 3//8 11//9 12//10
f 13//11 14//12 2//2
f 14//12 3//3 2//2
f 6//6 8//7 15//13
f 13//11 2//2 6//14
f 10//15 3//8 12//10
f 6//14 16//16 13//11
f 13//11 17//17 14//12
f 13//11 18//18 17//17
f 18//18 19//19 14//12
f 19//19 3//3 14//12
f 7//20 15//13 8//7
f 11//9 20//21 12//10
f 21//22 15//13 7//20
f 23//23 18//18 13//11
f 11//9 24//24 20//21
f 19//19 18//18 24//24
f 18//18 26//25 24//24
f 27//26 13//11 16//16
f 28//27 15//13 21//22
f 25//28 29//29 21//22
f 25//28 20//21 24//24
f 18//18 31//30 26//25
f 31//30 18//18 32//31
f 32//31 18//18 23//23
f 32//31 23//23 27//26
f 24//24 26//25 25//28
f 33//32 26//25 31//30
f 34//33 25//28 26//25
f 16//16 32//31 27//26
f 15//13 28//27 32//34
f 28//27 21//22 29//29
f 32//34 28//27 35//35
f 26//25 33//32 36//36
f 31//30 32//31 37//37
f 32//34 35//35 38//38
f 32//31 39//39 37//37
f 30//40 29//29 35//35
f 29//29 25//28 34//33
f 29//29 34//33 35//35
f 37//37 36//36 33//32
f 40//41 36//36 37//37
f 35//35 39//42 38//38
f 39//39 40//41 37//37
f 34//33 45//43 35//35
f 35//35 42//44 39//42
f 39//42 42//44 43//45
f 40//41 44//46 36//36
f 40//41 43//45 44//46
f 41//47 35//35 45//43
f 46//48 34//33 44//46
f 45//43 34//33 46//48
f 46//48 44//46 43//45
f 41//47 42//44 35//35
f 47//49 46//48 43//45
f 48//50 47//49 43//45
f 50//51 45//43 46//48
f 51//52 41//47 45//43
f 42//44 48//50 43//45
f 52//53 46//48 49//54
f 49//54 47//49 53//55
f 54//56 53//55 47//49
f 49//54 46//48 47//49
f 55//57 47//49 48//50
f 46//48 56//58 50//51
f 57//59 47//49 55//57
f 58//60 50//51 56//58
f 55//57 63//61 57//59
f 42//44 63//62 48//50
f 59//63 51//52 60//64
f 51//52 45//43 60//64
f 54//56 52//53 53//55
f 46//48 52//53 61//65
f 63//61 54//56 57//59
f 52//53 62//66 61//65
f 54//56 63//61 52//53
f 63//61 62//66 52//53
f 64//67 65//68 66//69
f 68//70 66//69 65//68
f 69//71 63//62 67//72
f 68//70 69//71 67//72
f 70//73 71//74 72//75
f 73//76 65//68 64//67
f 65//68 74//77 75//78
f 76//79 75//78 74//77
f 63//62 42//44 67//72
f 77//80 78//81 79//82
f 65//68 73//76 76//83
f 75//78 68//70 65//68
f 80//84 81//85 82//86
f 84//87 82//86 81//85
f 88//88 86//89 87//90
f 89//91 76//83 73//76
f 76//83 89//91 96//92
f 97//93 100//94 104//95
f 88//88 87//90 101//96
f 102//97 103//98 104//95
f 103//98 102//97 87//99
f 68//70 75//78 105//100
f 69//71 68//70 105//100
f 75//78 97//93 105//100
f 105//100 97//93 104//95
f 103//98 105//100 104//95
f 89//91 106//101 96//92
f 99//102 107//103 108//104
f 107//103 99//102 98//105
f 114//106 115//106 116//106
f 108//104 107//103 119//107
f 102//97 104//95 111//108
f 101//96 113//109 88//88
f 101//96 112//110 113//109
f 120//111 118//112 117//113
f 112//110 121//114 113//109
f 121//114 112//110 122//115
f 132//116 123//117 124//118
f 125//119 96//92 106//101
f 122//115 112//110 128//120
f 131//121 129//122 130//123
f 126//124 135//125 127//126
f 136//127 137//128 138//128
f 147//129 129//122 131//121
f 128//120 148//130 122//115
f 149//131 150//131 151//131
f 121//114 152//132 153//133
f 152//132 121//114 122//115
f 154//134 155//134 156//134
f 157//135 145//136 146//137
f 158//138 159//138 160//138
l 90 91
l 143 144
l 133 134
l 83 85
l 141 142
l 109 110
l 94 95
l 4 9
l 139 140
l 21 22
l 92 93
