# Blender v2.78 (sub 0) OBJ File: 'exporter.blend'
# www.blender.org
o FJ2734.obj_grp1.1432
v 0.200839 -0.662965 5.835248
v 0.200088 -0.664502 5.834743
v 0.200680 -0.664444 5.837049
v 0.202878 -0.666732 5.836733
v 0.200871 -0.665426 5.837074
v 0.215775 -0.691238 5.825466
v 0.201339 -0.665143 5.835305
v 0.200514 -0.664483 5.837061
v 0.201759 -0.664088 5.837390
v 0.201830 -0.663517 5.835149
v 0.202878 -0.666732 5.836733
v 0.201759 -0.664088 5.837390
v 0.200514 -0.664483 5.837061
v 0.201696 -0.664148 5.836081
v 0.201855 -0.662689 5.835702
v 0.202048 -0.663820 5.837472
v 0.200911 -0.662957 5.835468
v 0.201884 -0.666422 5.832555
v 0.213560 -0.686865 5.820156
v 0.216660 -0.687350 5.819973
v 0.200962 -0.662943 5.835513
v 0.200122 -0.664488 5.834761
v 0.200514 -0.664483 5.837061
v 0.218181 -0.687846 5.826848
v 0.218330 -0.687434 5.826262
v 0.215921 -0.683749 5.824539
v 0.221489 -0.667022 5.822126
v 0.221870 -0.665632 5.825256
v 0.228107 -0.658974 5.823603
v 0.224705 -0.661812 5.822508
v 0.227557 -0.660050 5.821702
v 0.223630 -0.707040 5.815736
v 0.217423 -0.684867 5.825372
v 0.216196 -0.683811 5.826123
v 0.218197 -0.683614 5.823190
v 0.217445 -0.684871 5.825341
v 0.217423 -0.684867 5.825372
v 0.216811 -0.683393 5.824470
v 0.217423 -0.684867 5.825372
v 0.215737 -0.681727 5.823779
v 0.215713 -0.682079 5.822266
v 0.217979 -0.687510 5.825841
v 0.229577 -0.705590 5.810004
v 0.217193 -0.685403 5.823955
v 0.216660 -0.687350 5.819973
v 0.218248 -0.685688 5.821382
v 0.220348 -0.689517 5.821797
v 0.218248 -0.685688 5.821382
v 0.217300 -0.683543 5.822743
v 0.219771 -0.682407 5.821476
v 0.219217 -0.677703 5.822039
v 0.220932 -0.677182 5.825513
v 0.219143 -0.691935 5.824683
v 0.222145 -0.681815 5.823494
v 0.223262 -0.667691 5.821766
v 0.223839 -0.666525 5.821804
v 0.220932 -0.677182 5.825513
v 0.223867 -0.668088 5.823832
v 0.220602 -0.689740 5.823582
v 0.223972 -0.667555 5.824023
v 0.231814 -0.655582 5.823656
v 0.233216 -0.652770 5.821918
v 0.233615 -0.656330 5.824387
v 0.224705 -0.661812 5.822508
v 0.227680 -0.658422 5.823682
v 0.227679 -0.660056 5.821898
v 0.231200 -0.655701 5.825171
v 0.230247 -0.655750 5.823218
v 0.231430 -0.655271 5.822181
v 0.231211 -0.652567 5.823164
v 0.231101 -0.657948 5.825231
v 0.231898 -0.648636 5.823102
v 0.231892 -0.648681 5.823260
v 0.233832 -0.650260 5.822451
v 0.232160 -0.648696 5.823447
v 0.233320 -0.649970 5.823155
v 0.233752 -0.649404 5.822841
v 0.232815 -0.649092 5.823071
v 0.232842 -0.649949 5.824735
v 0.233768 -0.648357 5.824197
v 0.232754 -0.653429 5.825162
v 0.232637 -0.649717 5.825250
v 0.233778 -0.648313 5.824245
v 0.234445 -0.648300 5.822989
v 0.233630 -0.649937 5.821752
v 0.231101 -0.657948 5.825231
v 0.233252 -0.656267 5.824407
v 0.219835 -0.689763 5.823917
v 0.224900 -0.701170 5.822707
v 0.224315 -0.700350 5.821663
v 0.229892 -0.701512 5.813538
v 0.220083 -0.687623 5.822273
v 0.219835 -0.689763 5.823917
v 0.220083 -0.687623 5.822273
v 0.226532 -0.697360 5.818778
v 0.243252 -0.715787 5.813426
v 0.241973 -0.717075 5.805292
v 0.244134 -0.711242 5.804866
v 0.239743 -0.718234 5.809507
v 0.243706 -0.718460 5.810576
v 0.246429 -0.712051 5.810196
v 0.243798 -0.717920 5.810090
vn -0.3533 0.9114 0.2109
vn -0.3470 0.9114 0.2213
vn -0.3372 0.9139 0.2261
vn -0.1549 -0.2958 0.9426
vn -0.0325 0.6388 -0.7687
vn 0.5885 0.6821 -0.4341
vn 0.2876 0.6191 -0.7308
vn -0.5894 0.1006 -0.8015
vn 0.1767 0.5779 -0.7967
vn -0.8969 0.4149 0.1529
vn 0.3939 -0.2497 0.8846
vn -0.2760 -0.5205 0.8080
vn -0.2371 -0.4823 0.8433
vn 0.8347 0.4852 0.2604
vn 0.7775 0.5297 0.3388
vn 0.6071 0.7103 -0.3561
vn -0.2844 0.5036 -0.8158
vn -0.7730 -0.0231 -0.6340
vn -0.6941 0.3331 -0.6382
vn -0.8518 0.5146 -0.0981
vn -0.7508 0.6487 -0.1243
vn -0.4411 0.3299 -0.8346
vn -0.3600 0.2254 -0.9053
vn -0.7123 -0.7008 -0.0397
vn -0.6938 -0.5610 0.4515
vn -0.5048 -0.4018 0.7640
vn 0.7125 0.4452 0.5424
vn 0.7864 0.6151 0.0574
vn 0.6218 0.7795 -0.0751
vn -0.5168 0.7966 -0.3137
vn 0.0172 0.3904 -0.9205
vn 0.2778 0.6578 -0.7001
vn 0.8903 0.4469 -0.0878
vn -0.5356 0.2692 -0.8005
vn -0.5094 0.1614 -0.8453
vn -0.1848 0.0556 -0.9812
vn -0.8524 0.1809 -0.4906
vn 0.6795 -0.0295 0.7331
vn 0.4700 -0.0560 0.8809
vn 0.7664 -0.1289 0.6293
vn 0.4230 -0.1961 -0.8846
vn -0.5721 0.1739 0.8015
vn -0.9569 0.2028 -0.2081
vn -0.1477 0.0901 -0.9849
vn -0.3364 0.1155 0.9346
vn -0.1347 0.0249 0.9906
vn 0.4683 -0.1880 0.8634
vn 0.4685 -0.0903 0.8789
vn 0.8634 -0.4698 -0.1839
vn 0.8401 -0.2877 -0.4598
vn 0.4186 -0.1956 0.8868
vn 0.1729 -0.0339 -0.9844
vn 0.3716 0.0577 -0.9266
vn 0.7394 -0.4389 -0.5105
vn -0.5025 0.6382 -0.5832
vn -0.5778 0.6023 -0.5508
vn -0.5965 0.5706 -0.5645
vn -0.8632 0.4941 -0.1036
vn -0.6719 0.4415 0.5946
vn -0.6731 0.2999 -0.6761
vn -0.3646 0.1356 -0.9212
vn -0.7923 0.5831 0.1798
vn 0.5492 -0.4858 0.6800
vn -0.0958 0.7481 0.6566
vn -0.3809 0.5266 0.7600
vn 0.0581 0.3628 -0.9300
vn 0.6873 0.6990 0.1975
vn 0.0625 0.2946 -0.9536
vn 0.3127 0.4479 -0.8376
vn -0.1825 0.1889 -0.9649
vn -0.2415 0.2015 -0.9492
vn -0.5887 0.0866 0.8037
vn 0.7871 -0.5506 0.2780
vn 0.8186 -0.0662 0.5705
vn 0.6623 -0.0326 0.7485
vn 0.7181 -0.0589 0.6934
vn 0.8634 -0.0690 0.4998
vn 0.5914 -0.1085 0.7990
vn 0.9255 -0.1439 -0.3504
vn 0.9142 -0.1528 -0.3754
vn 0.4473 -0.1464 0.8823
vn -0.4112 -0.6340 0.6550
vn 0.6188 0.1914 0.7618
vn 0.9278 -0.1142 0.3551
vn 0.3775 0.7205 -0.5817
vn 0.9137 0.3156 0.2559
vn 0.9678 0.0728 0.2410
vn 0.9904 -0.1050 0.0899
vn -0.3223 0.1827 -0.9288
vn 0.7493 0.5204 0.4096
vn 0.4042 -0.4456 0.7988
vn 0.1339 -0.6089 -0.7819
vn 0.5336 0.3258 -0.7804
vn 0.5365 -0.5418 0.6470
vn -0.3979 -0.9149 0.0681
vn 0.9719 0.2127 0.1006
vn 0.8846 -0.4636 -0.0506
s 1
f 8//1 9//2 10//3
f 11//4 12//4 13//4
f 17//5 15//6 18//7
f 18//7 15//6 19//8
f 20//9 19//8 15//6
f 21//10 22//10 23//10
f 24//11 14//12 7//13
f 15//6 16//14 25//15
f 15//6 26//16 20//9
f 1//17 19//8 2//18
f 27//19 28//20 29//21
f 27//19 30//22 31//23
f 2//18 32//24 3//25
f 3//25 32//24 6//26
f 32//24 2//18 19//8
f 6//26 24//11 7//13
f 25//15 33//27 34//28
f 25//15 34//28 15//6
f 34//28 37//29 26//16
f 34//28 26//16 15//6
f 44//30 46//31 45//32
f 45//32 46//31 47//33
f 48//34 49//35 50//36
f 47//33 46//31 50//36
f 50//36 51//37 27//19
f 49//35 51//37 50//36
f 52//38 24//11 53//39
f 54//40 52//38 53//39
f 47//33 50//36 55//41
f 27//19 36//42 28//20
f 35//43 36//42 27//19
f 55//41 27//19 56//44
f 27//19 31//23 56//44
f 35//43 27//19 51//37
f 50//36 27//19 55//41
f 42//45 57//46 36//42
f 36//42 57//46 28//20
f 28//47 52//38 54//40
f 54//40 58//48 28//47
f 60//49 59//50 55//41
f 58//48 61//51 28//47
f 55//41 31//52 62//53
f 63//54 55//41 62//53
f 64//55 65//56 66//57
f 65//56 68//58 66//57
f 28//20 67//59 29//21
f 29//21 67//59 68//58
f 69//60 66//57 68//58
f 68//58 70//61 69//60
f 62//53 31//52 69//62
f 60//49 55//41 63//54
f 71//63 60//49 63//54
f 70//61 68//58 72//64
f 72//64 68//58 79//65
f 75//66 69//60 70//61
f 72//64 79//65 74//67
f 69//60 75//66 76//68
f 76//68 75//66 80//69
f 69//62 78//70 77//71
f 67//59 81//72 68//58
f 81//72 79//65 68//58
f 69//62 77//71 62//53
f 61//73 81//72 67//59
f 83//74 82//75 81//76
f 84//77 83//74 87//78
f 84//79 63//54 85//80
f 85//80 63//54 62//53
f 81//76 86//81 87//78
f 83//74 81//76 87//78
f 53//39 24//11 6//26
f 53//39 6//26 89//82
f 53//39 90//83 88//84
f 53//39 88//84 54//40
f 91//85 45//32 47//33
f 93//86 47//33 94//87
f 55//41 59//50 92//88
f 47//33 55//41 92//88
f 20//9 43//89 19//8
f 93//86 95//90 47//33
f 95//90 91//85 47//33
f 91//85 43//89 45//32
f 90//83 95//90 88//84
f 43//89 32//24 19//8
f 6//26 32//24 89//82
f 96//91 95//90 90//83
f 43//89 97//92 32//24
f 98//93 43//89 91//85
f 100//94 89//82 32//24
f 32//24 99//95 100//94
f 32//24 97//92 99//95
f 98//93 97//92 43//89
f 95//90 101//96 91//85
f 101//96 98//93 91//85
f 89//82 100//94 96//91
f 99//95 97//92 102//97
f 100//94 102//97 96//91
f 95//90 96//91 101//96
f 98//93 102//97 97//92
f 101//96 102//97 98//93
f 96//91 102//97 101//96
l 72 73
l 38 39
l 4 5
l 40 41
