# Blender v2.78 (sub 0) OBJ File: 'exporter.blend'
# www.blender.org
o FJ2724.obj_grp1.1423
v -0.096324 -0.702723 5.656332
v -0.097561 -0.705876 5.667247
v -0.097430 -0.698657 5.656976
v -0.097803 -0.705483 5.671553
v -0.096794 -0.700300 5.666313
v -0.092348 -0.716820 5.687528
v -0.091852 -0.713249 5.679066
v -0.084981 -0.723035 5.695464
v -0.093469 -0.716109 5.690319
v -0.090933 -0.718763 5.698706
v -0.088632 -0.717948 5.701108
v -0.095981 -0.708057 5.681692
v -0.091298 -0.699303 5.646126
v -0.090647 -0.707537 5.668619
v -0.088831 -0.712208 5.679839
v -0.090647 -0.707537 5.668619
v -0.088508 -0.708345 5.677532
v -0.093165 -0.708674 5.687400
v -0.089818 -0.710762 5.692562
v -0.084060 -0.716208 5.698380
v -0.094812 -0.696877 5.645802
v -0.089732 -0.701885 5.656694
v -0.089466 -0.703938 5.668505
v -0.090174 -0.702495 5.669868
v -0.093436 -0.695372 5.658281
v -0.094133 -0.694441 5.644535
v -0.094522 -0.692661 5.648140
v -0.091113 -0.694542 5.642962
v -0.092034 -0.690962 5.646450
v -0.087800 -0.696990 5.645109
v -0.089118 -0.691194 5.647324
v -0.089117 -0.698078 5.658127
v -0.079035 -0.737114 5.715026
v -0.072049 -0.740750 5.718428
v -0.084293 -0.718241 5.692414
v -0.085189 -0.722557 5.695370
v -0.073746 -0.739134 5.727709
v -0.086155 -0.712546 5.686881
v -0.083923 -0.718729 5.693172
v -0.072236 -0.733239 5.721454
v -0.082509 -0.718678 5.696317
v -0.086155 -0.712546 5.686881
v -0.088990 -0.706387 5.679182
v -0.088990 -0.706387 5.679182
v -0.086974 -0.693626 5.646359
v -0.076733 -0.739475 5.722167
v -0.067838 -0.742038 5.737245
v -0.075838 -0.730456 5.708711
v -0.072170 -0.732203 5.716374
v -0.070560 -0.737775 5.717046
v -0.070269 -0.736323 5.726759
v -0.069549 -0.745703 5.727477
v -0.066831 -0.746546 5.738910
v -0.061471 -0.748735 5.740198
v -0.063448 -0.744106 5.728832
v -0.065054 -0.738826 5.732172
v -0.065214 -0.739096 5.727621
v -0.064171 -0.740535 5.741211
v -0.060784 -0.746548 5.735436
v -0.057061 -0.747969 5.756550
v -0.053658 -0.743772 5.770608
v -0.065473 -0.739883 5.737395
v -0.060374 -0.740404 5.744796
v -0.057001 -0.741479 5.745000
v -0.044455 -0.746346 5.776477
v -0.041245 -0.743815 5.776071
v -0.046651 -0.740250 5.767590
v -0.039505 -0.745491 5.791063
v -0.034991 -0.737690 5.792697
v -0.048383 -0.740586 5.780191
v -0.046178 -0.738242 5.779064
v -0.038314 -0.743573 5.781477
v -0.031555 -0.746024 5.795890
v -0.027221 -0.739375 5.801111
v -0.031255 -0.738598 5.802975
v -0.030130 -0.741239 5.808426
v -0.023917 -0.746865 5.817263
v -0.027792 -0.747430 5.808019
v -0.020208 -0.748450 5.811049
v -0.025874 -0.744691 5.801298
v -0.020892 -0.743367 5.807857
v -0.021944 -0.740604 5.811763
v -0.020375 -0.743500 5.819748
v -0.015065 -0.751834 5.825178
v -0.013602 -0.753242 5.823549
v -0.011121 -0.746083 5.825068
v -0.013281 -0.748590 5.826980
v -0.012104 -0.751311 5.826261
v -0.011092 -0.753245 5.823200
v -0.009300 -0.751008 5.820801
v -0.008826 -0.749321 5.824213
v -0.009954 -0.746182 5.822340
vn -0.8616 -0.4811 -0.1617
vn -0.9750 0.2165 -0.0495
vn -0.6788 -0.6389 -0.3620
vn -0.9942 0.0026 0.1077
vn -0.7253 0.6346 0.2668
vn -0.6345 -0.7349 -0.2394
vn 0.1985 -0.8621 -0.4663
vn 0.0741 -0.7770 -0.6252
vn -0.9251 -0.3705 0.0831
vn -0.0126 -0.8090 -0.5877
vn 0.7276 -0.6315 -0.2679
vn 0.6600 -0.5848 -0.4717
vn 0.9474 -0.2720 -0.1688
vn 0.9826 -0.0286 -0.1834
vn -0.8994 0.2976 0.3201
vn -0.9099 -0.0160 0.4146
vn -0.4997 0.7138 0.4907
vn -0.4977 0.5596 0.6627
vn -0.0803 0.8336 0.5464
vn -0.7812 -0.3251 -0.5330
vn 0.8807 -0.4525 -0.1400
vn 0.9996 0.0173 -0.0218
vn -0.0083 0.9271 0.3748
vn 0.8048 0.5692 0.1685
vn -0.6920 0.1936 -0.6955
vn -0.7890 0.6129 -0.0433
vn 0.0203 0.1563 -0.9875
vn -0.1945 0.9476 -0.2532
vn 0.7312 -0.4183 -0.5389
vn 0.4507 0.8915 -0.0456
vn 0.8860 0.3534 0.3002
vn -0.6194 -0.7558 -0.2124
vn 0.7285 -0.3795 -0.5703
vn 0.1670 -0.7946 -0.5838
vn 0.8201 -0.1871 -0.5408
vn -0.7277 0.2849 0.6239
vn 0.9700 0.1311 -0.2047
vn 0.9068 -0.0405 -0.4196
vn 0.5830 0.7847 0.2107
vn 0.6002 0.7547 0.2650
vn 0.9332 0.2673 -0.2401
vn 0.9330 0.3550 -0.0584
vn 0.9447 0.3249 -0.0438
vn 0.4278 0.8518 0.3024
vn 0.9139 0.3218 -0.2476
vn -0.8472 -0.4805 0.2266
vn 0.8432 -0.0890 -0.5302
vn 0.8583 0.5049 -0.0923
vn 0.7676 -0.2017 -0.6084
vn -0.2679 0.7926 0.5478
vn -0.2254 -0.9380 -0.2634
vn -0.7272 -0.5975 0.3379
vn 0.7488 -0.3804 -0.5427
vn 0.2991 0.9489 0.1006
vn 0.8580 0.4665 -0.2149
vn -0.8516 0.2695 0.4496
vn -0.4729 0.8299 0.2959
vn 0.6350 -0.6460 -0.4237
vn 0.0961 -0.9901 -0.1020
vn -0.3426 -0.9118 0.2265
vn -0.8718 -0.2066 0.4442
vn -0.0465 0.9717 0.2318
vn 0.1357 0.9907 -0.0047
vn 0.6093 0.7594 -0.2284
vn 0.3058 -0.9463 -0.1045
vn 0.8207 -0.3140 -0.4773
vn 0.7263 0.5524 -0.4091
vn -0.8186 0.3025 0.4883
vn -0.3113 0.9385 0.1495
vn -0.4905 -0.8161 0.3057
vn 0.1334 0.9900 -0.0467
vn 0.8503 -0.1353 -0.5086
vn 0.3543 -0.8856 -0.3004
vn 0.5552 0.7971 -0.2374
vn -0.2476 0.9300 0.2715
vn -0.6862 0.4170 0.5960
vn -0.7672 -0.2357 0.5965
vn 0.3693 -0.7581 -0.5375
vn -0.3305 -0.9404 0.0804
vn 0.7332 -0.4588 -0.5019
vn 0.7863 0.0193 -0.6175
vn 0.1993 0.9722 0.1227
vn -0.3614 0.6678 0.6507
vn -0.5001 -0.5528 0.6665
vn -0.1617 -0.9742 0.1572
vn -0.1002 0.1609 0.9819
vn 0.3901 0.7067 0.5903
vn 0.2560 -0.4817 0.8381
vn 0.4411 -0.8902 0.1142
vn 0.8017 -0.3841 -0.4580
vn 0.9405 -0.0315 0.3384
vn 0.7709 0.6252 -0.1221
s 1
f 2//1 3//2 1//3
f 2//1 4//4 3//2
f 3//2 4//4 5//5
f 6//6 7//7 8//8
f 4//4 2//1 9//9
f 6//6 13//10 7//7
f 13//10 14//11 7//7
f 7//7 14//11 15//12
f 15//12 16//13 17//14
f 4//4 9//9 12//15
f 9//9 2//1 6//6
f 10//16 18//17 12//15
f 9//9 10//16 12//15
f 11//18 18//17 10//16
f 11//18 19//19 18//17
f 1//3 21//20 13//10
f 1//3 13//10 6//6
f 6//6 2//1 1//3
f 14//11 13//10 22//21
f 16//13 22//21 23//22
f 17//14 16//13 23//22
f 4//4 12//15 5//5
f 25//23 18//17 19//19
f 19//19 24//24 25//23
f 12//15 18//17 5//5
f 5//5 18//17 25//23
f 26//25 21//20 27//26
f 13//10 21//20 28//27
f 28//27 21//20 26//25
f 26//25 27//26 29//28
f 29//28 28//27 26//25
f 13//10 28//27 30//29
f 29//28 31//30 28//27
f 21//20 3//2 27//26
f 29//28 27//26 25//23
f 25//23 32//31 31//30
f 3//2 21//20 1//3
f 3//2 5//5 27//26
f 27//26 5//5 25//23
f 32//31 25//23 24//24
f 23//22 32//31 24//24
f 29//28 25//23 31//30
f 8//8 33//32 6//6
f 35//33 34//34 36//35
f 6//6 33//32 9//9
f 9//9 33//32 10//16
f 11//18 10//16 37//36
f 8//8 7//7 36//35
f 36//35 7//7 15//12
f 35//33 38//37 39//38
f 19//19 40//39 20//40
f 39//38 38//37 41//41
f 36//35 15//12 35//33
f 15//12 17//14 35//33
f 35//33 17//14 38//37
f 42//42 43//43 20//40
f 20//40 44//44 19//19
f 42//42 20//40 41//41
f 22//21 32//31 23//22
f 23//22 43//43 17//14
f 24//24 43//43 23//22
f 19//19 44//44 24//24
f 42//42 17//14 43//43
f 28//27 31//30 45//45
f 30//29 28//27 45//45
f 22//21 13//10 30//29
f 30//29 32//31 22//21
f 45//45 32//31 30//29
f 45//45 31//30 32//31
f 46//46 37//36 10//16
f 33//32 46//46 10//16
f 33//32 8//8 34//34
f 48//47 49//48 50//49
f 37//36 51//50 11//18
f 48//47 34//34 35//33
f 41//41 48//47 39//38
f 48//47 41//41 49//48
f 51//50 40//39 19//19
f 40//39 49//48 20//40
f 51//50 19//19 11//18
f 49//48 41//41 20//40
f 46//46 52//51 53//52
f 52//51 33//32 34//34
f 34//34 48//47 50//49
f 52//51 34//34 55//53
f 55//53 34//34 50//49
f 46//46 33//32 52//51
f 56//54 57//55 40//39
f 53//52 37//36 46//46
f 51//50 47//56 58//57
f 53//52 47//56 37//36
f 50//49 49//48 57//55
f 47//56 51//50 37//36
f 56//54 40//39 51//50
f 40//39 57//55 49//48
f 55//53 59//58 52//51
f 52//51 59//58 54//59
f 52//51 54//59 53//52
f 54//59 60//60 53//52
f 61//61 53//52 60//60
f 57//55 55//53 50//49
f 62//62 63//63 56//54
f 62//62 56//54 51//50
f 55//53 57//55 64//64
f 58//57 63//63 62//62
f 56//54 63//63 64//64
f 56//54 64//64 57//55
f 53//52 61//61 47//56
f 54//59 59//58 65//65
f 66//66 59//58 55//53
f 55//53 67//67 66//66
f 65//65 60//60 54//59
f 55//53 64//64 67//67
f 67//67 64//64 63//63
f 61//61 58//57 47//56
f 61//61 70//68 58//57
f 70//68 71//69 58//57
f 60//60 65//65 68//70
f 65//65 59//58 66//66
f 61//61 60//60 68//70
f 67//67 63//63 69//71
f 66//66 67//67 72//72
f 63//63 58//57 71//69
f 63//63 71//69 69//71
f 66//66 73//73 65//65
f 65//65 73//73 68//70
f 67//67 69//71 74//74
f 68//70 70//68 61//61
f 75//75 71//69 70//68
f 70//68 76//76 75//75
f 70//68 68//70 77//77
f 71//69 75//75 69//71
f 73//73 79//78 68//70
f 68//70 79//78 78//79
f 77//77 68//70 78//79
f 73//73 66//66 80//80
f 67//67 81//81 72//72
f 80//80 72//72 81//81
f 77//77 76//76 70//68
f 79//78 73//73 80//80
f 69//71 82//82 74//74
f 69//71 75//75 82//82
f 67//67 74//74 81//81
f 76//76 77//77 83//83
f 83//83 75//75 76//76
f 75//75 83//83 82//82
f 80//80 81//81 79//78
f 78//79 84//84 77//77
f 85//85 78//79 79//78
f 78//79 85//85 84//84
f 84//84 87//86 77//77
f 77//77 87//86 83//83
f 83//83 87//86 86//87
f 83//83 86//87 82//82
f 85//85 88//88 84//84
f 79//78 89//89 85//85
f 90//90 89//89 79//78
f 85//85 89//89 88//88
f 91//91 88//88 89//89
f 91//91 89//89 90//90
f 81//81 90//90 79//78
f 81//81 92//92 90//90
f 74//74 92//92 81//81
f 87//86 84//84 88//88
f 74//74 82//82 92//92
f 82//82 86//87 92//92
f 91//91 87//86 88//88
f 91//91 86//87 87//86
f 92//92 86//87 91//91
f 92//92 91//91 90//90
