# Blender v2.78 (sub 0) OBJ File: 'exporter.blend'
# www.blender.org
o FJ2702.obj_grp1.1401
v 0.331974 -0.626024 5.551142
v 0.330363 -0.626097 5.553651
v 0.330540 -0.625161 5.552709
v 0.330540 -0.625161 5.552709
v 0.336791 -0.631568 5.558210
v 0.339381 -0.641384 5.563011
v 0.339832 -0.638784 5.565030
v 0.339490 -0.638653 5.560501
v 0.337554 -0.640381 5.561044
v 0.334562 -0.629431 5.557317
v 0.336273 -0.627961 5.556495
v 0.340284 -0.634458 5.561401
v 0.330540 -0.625161 5.552709
v 0.331666 -0.625277 5.551700
v 0.331788 -0.627518 5.553188
v 0.331932 -0.624326 5.553607
v 0.331935 -0.626087 5.551059
v 0.331758 -0.624939 5.552057
v 0.336504 -0.628700 5.555525
v 0.338867 -0.630343 5.556576
v 0.335465 -0.625253 5.556184
v 0.336588 -0.631921 5.558013
v 0.334601 -0.629386 5.557262
v 0.336504 -0.628700 5.555525
v 0.338468 -0.628741 5.557211
v 0.338382 -0.630794 5.557544
v 0.344434 -0.663759 5.571343
v 0.345849 -0.662540 5.569809
v 0.346832 -0.666473 5.572895
v 0.346500 -0.666422 5.574423
v 0.346909 -0.663653 5.574807
v 0.346626 -0.669138 5.576073
v 0.347659 -0.671921 5.577571
v 0.342223 -0.656521 5.568781
v 0.342359 -0.657485 5.569189
v 0.344092 -0.656750 5.570132
v 0.343951 -0.657066 5.567023
v 0.344083 -0.652346 5.566395
v 0.343981 -0.657070 5.567074
v 0.344015 -0.645817 5.569374
v 0.345791 -0.660915 5.572470
v 0.345511 -0.658653 5.569499
v 0.341687 -0.647067 5.568553
v 0.342123 -0.642997 5.568314
v 0.342934 -0.644613 5.565140
v 0.344015 -0.645817 5.569374
v 0.344004 -0.643454 5.564278
v 0.339490 -0.638653 5.560501
v 0.344134 -0.641877 5.566776
v 0.343832 -0.644671 5.565791
v 0.341396 -0.638306 5.562098
v 0.342149 -0.640804 5.568908
v 0.344015 -0.641906 5.566792
v 0.344015 -0.645817 5.569374
v 0.340374 -0.637963 5.563976
v 0.340374 -0.637963 5.563976
v 0.340825 -0.644659 5.565175
v 0.348162 -0.676669 5.576169
v 0.346939 -0.675219 5.576818
v 0.347771 -0.676801 5.575008
v 0.348911 -0.676801 5.576181
v 0.346832 -0.677233 5.576181
v 0.347127 -0.676966 5.576987
v 0.347906 -0.676637 5.575349
v 0.347001 -0.677065 5.576413
v 0.346663 -0.673046 5.576181
v 0.346600 -0.669241 5.576156
v 0.347008 -0.668519 5.575060
v 0.348043 -0.668259 5.574712
v 0.346663 -0.673046 5.576181
v 0.346677 -0.672635 5.576136
v 0.346765 -0.676556 5.576599
v 0.348714 -0.672126 5.577699
v 0.347662 -0.676777 5.575328
v 0.347335 -0.676232 5.575800
v 0.348461 -0.676407 5.576610
v 0.349389 -0.677026 5.576460
v 0.348634 -0.675813 5.575411
v 0.347894 -0.667399 5.573643
v 0.348701 -0.672107 5.575008
v 0.348701 -0.672107 5.575008
v 0.349553 -0.668351 5.575243
v 0.349338 -0.668317 5.575384
v 0.348701 -0.672107 5.575008
v 0.347546 -0.661945 5.570513
v 0.347676 -0.668779 5.575813
v 0.348314 -0.672300 5.577342
v 0.349316 -0.668492 5.575108
v 0.345061 -0.656400 5.568675
vn -0.4667 -0.8062 -0.3637
vn -0.5552 -0.1826 0.8114
vn -0.9236 -0.2724 0.2699
vn -0.7808 -0.3700 -0.5034
vn -0.2645 0.8862 0.3803
vn -0.6514 0.6010 0.4631
vn -0.4823 -0.6741 -0.5595
vn -0.9517 -0.1933 0.2385
vn -0.6681 0.4657 0.5802
vn 0.1192 -0.4857 -0.8659
vn -0.0729 -0.3011 -0.9508
vn 0.2358 -0.3757 -0.8963
vn 0.8806 0.3824 0.2798
vn 0.4174 0.8922 0.1724
vn 0.6359 0.0509 -0.7701
vn -0.0311 -0.8483 -0.5286
vn 0.6742 0.5129 -0.5314
vn 0.6320 0.5685 -0.5266
vn -0.4424 -0.5523 -0.7065
vn 0.9573 0.2364 -0.1665
vn 0.8204 0.5664 0.0785
vn -0.2869 -0.5576 -0.7790
vn 0.4948 -0.3591 -0.7913
vn -0.3254 -0.7175 -0.6159
vn 0.0572 0.4439 0.8943
vn -0.5423 -0.0909 0.8353
vn -0.8358 -0.0049 0.5491
vn -0.8278 0.1275 0.5463
vn -0.7012 -0.2235 -0.6771
vn -0.9044 -0.1403 0.4029
vn -0.9609 -0.2626 -0.0883
vn -0.2498 -0.3273 -0.9113
vn -0.4493 0.1586 0.8792
vn 0.5894 -0.0006 -0.8078
vn 0.6936 -0.1853 -0.6961
vn 0.9895 0.0409 -0.1384
vn 0.9644 0.0586 0.2578
vn 0.8741 0.4243 0.2364
vn -0.8899 -0.0644 0.4515
vn -0.7420 0.0985 0.6631
vn -0.3903 -0.4975 -0.7747
vn -0.4060 0.0848 0.9099
vn 0.9416 0.0480 -0.3334
vn 0.1963 -0.4723 -0.8593
vn -0.0265 -0.5143 -0.8572
vn 0.4286 -0.2979 -0.8530
vn 0.9235 -0.0106 -0.3835
vn 0.8833 0.0697 -0.4636
vn 0.7862 0.3405 0.5157
vn 0.7480 0.5421 0.3830
vn 0.6638 0.6438 0.3807
vn -0.0172 -0.3261 -0.9452
vn 0.5145 0.6330 0.5784
vn 0.9756 -0.1186 -0.1847
vn 0.9957 0.0406 0.0828
vn -0.4614 -0.7621 0.4543
vn -0.4652 -0.7613 0.4517
vn -0.4656 -0.7571 0.4583
vn -0.7327 -0.0982 -0.6734
vn -0.7485 -0.1056 -0.6546
vn -0.7328 -0.0954 -0.6737
vn -0.9128 -0.2484 0.3241
vn -0.1371 -0.3213 -0.9370
vn 0.1411 -0.2792 -0.9498
vn -0.6216 0.0026 -0.7833
vn 0.5773 0.0628 0.8141
vn -0.0101 -0.2716 0.9624
vn -0.6950 -0.0060 -0.7190
vn 0.4346 -0.1302 0.8912
vn 0.2567 -0.1821 -0.9492
vn 0.2903 -0.1977 -0.9363
vn 0.2633 -0.1637 -0.9507
vn 0.5190 -0.3221 -0.7918
vn 0.5212 -0.3174 -0.7922
vn 0.5302 -0.3208 -0.7849
vn 0.9991 -0.0427 -0.0053
vn 0.9753 -0.2208 -0.0063
vn 0.4438 -0.1490 -0.8836
vn 0.4611 0.0087 -0.8873
vn -0.9988 0.0207 0.0453
vn -0.9891 -0.0494 0.1388
vn -0.9985 0.0528 0.0171
vn -0.3892 -0.6589 -0.6437
vn 0.2287 0.4027 0.8863
vn 0.3735 0.4171 0.8286
vn 0.6064 0.4860 0.6293
vn 0.6893 0.4573 0.5619
vn 0.6646 0.4063 0.6271
s 1
f 1//1 10//2 2//3
f 1//1 2//3 3//4
f 16//5 4//6 2//3
f 5//7 6//8 7//9
f 5//7 7//9 10//2
f 9//10 11//11 8//12
f 7//9 12//13 10//2
f 21//14 15//15 16//5
f 19//16 10//2 1//1
f 2//3 21//14 16//5
f 2//3 10//2 21//14
f 21//14 17//17 18//18
f 22//19 23//19 24//19
f 20//20 17//17 25//21
f 25//21 17//17 21//14
f 12//13 21//14 10//2
f 25//21 21//14 12//13
f 27//22 28//23 29//24
f 67//25 33//26 30//27
f 31//28 30//27 33//26
f 34//29 27//30 35//31
f 27//30 30//27 35//31
f 27//30 34//29 37//32
f 36//33 35//31 30//27
f 37//32 38//34 39//35
f 28//23 27//22 39//35
f 31//28 36//33 30//27
f 28//23 39//35 38//34
f 42//36 40//37 41//38
f 28//23 38//34 42//36
f 43//39 37//32 34//29
f 43//39 36//33 44//40
f 35//31 36//33 43//39
f 45//41 37//32 43//39
f 46//42 44//40 36//33
f 38//34 37//32 45//41
f 38//34 49//43 42//36
f 45//44 9//10 8//12
f 43//39 6//8 45//41
f 47//45 45//41 48//46
f 49//43 50//47 51//48
f 7//9 6//8 43//39
f 43//39 44//40 7//9
f 38//34 45//41 47//45
f 54//49 53//50 52//51
f 49//43 38//34 50//47
f 42//36 49//43 40//37
f 26//52 8//12 11//11
f 55//53 7//9 52//51
f 48//46 20//20 25//21
f 12//13 7//9 55//53
f 48//46 25//21 47//45
f 57//54 12//13 56//55
f 57//54 25//21 12//13
f 53//50 55//53 52//51
f 59//56 60//57 61//58
f 66//59 64//60 65//61
f 58//62 33//26 67//25
f 68//63 69//64 70//65
f 73//66 33//26 72//67
f 69//64 74//68 70//65
f 72//67 77//69 73//66
f 79//70 78//71 74//72
f 80//73 76//74 75//75
f 73//66 77//69 81//76
f 81//76 82//77 73//66
f 69//64 83//78 84//79
f 42//36 68//63 28//23
f 71//80 32//81 30//82
f 27//22 29//24 68//83
f 68//63 42//36 69//64
f 73//66 31//28 33//26
f 69//64 42//36 83//78
f 87//84 88//85 41//38
f 88//85 42//36 41//38
f 86//86 85//87 89//88
l 62 63
l 13 14
