# Blender v2.78 (sub 0) OBJ File: 'exporter.blend'
# www.blender.org
o FJ2716.obj_grp1.1415
v 0.319678 -0.625212 5.539880
v 0.319674 -0.623824 5.541835
v 0.321677 -0.626402 5.539907
v 0.320623 -0.627184 5.542474
v 0.324648 -0.628193 5.542065
v 0.321902 -0.623222 5.539610
v 0.320623 -0.627184 5.542474
v 0.327804 -0.638526 5.548954
v 0.325929 -0.634601 5.548027
v 0.322937 -0.626918 5.544645
v 0.317430 -0.610930 5.537327
v 0.317938 -0.620466 5.539563
v 0.317859 -0.619482 5.539555
v 0.320815 -0.622346 5.540815
v 0.321937 -0.623179 5.539598
v 0.319441 -0.616730 5.541642
v 0.319556 -0.617461 5.541535
v 0.319633 -0.621395 5.538223
v 0.318664 -0.615771 5.538014
v 0.323017 -0.624701 5.542866
v 0.322473 -0.626254 5.543930
v 0.318377 -0.610055 5.541966
v 0.318866 -0.610597 5.539932
v 0.319206 -0.610422 5.540307
v 0.318322 -0.611018 5.540315
v 0.319236 -0.610254 5.541194
v 0.319427 -0.612078 5.540944
v 0.318723 -0.611479 5.541361
v 0.318540 -0.610927 5.539878
v 0.319159 -0.609370 5.540467
v 0.319172 -0.608749 5.540951
v 0.319236 -0.609431 5.542138
v 0.328491 -0.643460 5.550776
v 0.326227 -0.634652 5.545625
v 0.332270 -0.645886 5.551904
v 0.331787 -0.643430 5.553559
v 0.325624 -0.634332 5.547789
v 0.328187 -0.643058 5.550892
v 0.332028 -0.645311 5.555542
v 0.331923 -0.641732 5.551072
v 0.326178 -0.634540 5.545619
v 0.329347 -0.635589 5.547306
v 0.326324 -0.629360 5.543843
v 0.332492 -0.648196 5.556769
v 0.332753 -0.647770 5.553600
v 0.333638 -0.647595 5.556901
v 0.333203 -0.649021 5.556945
v 0.332778 -0.647802 5.553596
v 0.338774 -0.652072 5.560651
v 0.332672 -0.646910 5.557016
v 0.335646 -0.647758 5.556501
v 0.335321 -0.648125 5.556535
v 0.336700 -0.651315 5.561722
v 0.337401 -0.653076 5.561205
v 0.337231 -0.652591 5.562306
v 0.336598 -0.651653 5.562301
v 0.337650 -0.652858 5.560688
v 0.337729 -0.651033 5.561745
v 0.338388 -0.651499 5.561994
v 0.337443 -0.652389 5.562473
v 0.338473 -0.652256 5.561099
v 0.338529 -0.651452 5.562046
v 0.338382 -0.652389 5.561065
vn -0.7389 -0.3447 -0.5789
vn -0.8727 -0.4865 0.0409
vn -0.9422 -0.2395 0.2343
vn 0.4113 -0.2191 -0.8848
vn 0.6590 -0.1618 -0.7345
vn 0.4422 -0.1201 -0.8888
vn -0.7990 -0.0971 0.5934
vn -0.5723 0.0921 0.8149
vn -0.7099 -0.0574 0.7019
vn -0.9167 -0.0438 0.3973
vn -0.8857 -0.2927 0.3602
vn -0.1528 0.4052 0.9014
vn -0.3393 -0.6069 -0.7187
vn -0.9556 0.0478 0.2909
vn -0.5572 -0.2102 -0.8033
vn -0.9643 -0.0550 0.2590
vn 0.0723 -0.0601 0.9956
vn 0.4165 0.2993 0.8584
vn 0.6217 0.0451 0.7819
vn 0.1843 0.4895 0.8523
vn 0.5498 0.7125 0.4359
vn 0.7780 0.1627 -0.6069
vn 0.5737 0.1593 -0.8034
vn 0.9388 0.3221 -0.1223
vn -0.6386 0.2866 0.7142
vn -0.9919 0.1053 0.0709
vn -0.4428 0.1343 0.8865
vn 0.8956 0.1306 0.4252
vn 0.9308 0.1343 -0.3399
vn 0.4197 0.2342 -0.8769
vn 0.9021 0.1758 -0.3940
vn -0.1960 -0.5905 -0.7829
vn -0.8995 -0.4366 0.0178
vn -0.1808 -0.6424 -0.7448
vn -0.8529 -0.2041 0.4806
vn 0.3497 0.7376 0.5776
vn -0.7745 0.1623 0.6114
vn -0.6994 0.1551 0.6977
vn -0.6064 -0.6419 -0.4693
vn 0.9342 0.3199 -0.1577
vn 0.6116 -0.1693 -0.7728
vn 0.7793 -0.0695 -0.6228
vn -0.6138 -0.7719 -0.1656
vn -0.6185 -0.7110 -0.3345
vn -0.0738 -0.7570 -0.6493
vn 0.9209 0.3864 -0.0511
vn -0.8071 -0.0089 0.5904
vn -0.5605 0.2322 0.7949
vn -0.7296 0.1239 0.6725
vn -0.8303 -0.0724 0.5526
vn -0.0683 -0.7660 -0.6392
vn -0.2333 -0.9516 0.2003
vn 0.4060 -0.8320 0.3781
vn 0.7212 -0.2999 0.6244
vn 0.4936 0.7893 0.3652
vn 0.4036 0.7277 0.5545
vn 0.1141 0.7115 0.6934
vn 0.0961 0.6430 0.7598
vn 0.1149 0.3720 0.9211
vn 0.8450 0.5347 0.0017
vn 0.8715 0.0501 -0.4878
vn 0.9126 0.2650 -0.3114
vn 0.3317 -0.2876 0.8985
s 1
f 1//1 4//2 2//3
f 6//4 5//5 3//6
f 7//7 37//8 2//9
f 1//1 8//10 4//2
f 8//10 9//11 4//2
f 10//12 2//9 37//8
f 8//10 1//1 3//13
f 11//14 3//13 1//1
f 12//15 11//14 1//1
f 1//1 2//3 13//16
f 12//15 13//16 11//14
f 16//17 13//16 2//3
f 14//18 17//19 2//20
f 20//21 15//22 16//17
f 18//23 6//4 3//6
f 15//22 6//4 18//23
f 43//24 5//5 15//22
f 20//21 43//24 15//22
f 14//18 2//20 21//25
f 23//26 11//14 13//16
f 13//16 22//27 23//26
f 16//17 26//28 22//27
f 18//23 19//29 29//30
f 16//17 22//27 13//16
f 18//23 29//30 30//31
f 16//17 15//22 26//28
f 15//22 18//23 30//31
f 15//22 30//31 26//28
f 33//32 8//10 34//33
f 33//32 34//33 35//34
f 8//35 36//36 37//8
f 38//37 39//38 8//35
f 8//35 39//38 36//36
f 36//36 10//12 37//8
f 41//39 8//10 3//13
f 34//33 8//10 41//39
f 20//21 14//18 10//12
f 35//34 34//33 3//6
f 40//40 10//12 36//36
f 42//41 35//34 3//6
f 20//21 40//40 43//24
f 40//40 20//21 10//12
f 35//42 43//24 40//40
f 42//41 5//5 43//24
f 14//18 21//25 10//12
f 3//6 5//5 42//41
f 44//43 33//32 45//44
f 45//44 33//32 35//34
f 48//45 35//42 49//46
f 45//44 48//45 44//43
f 53//47 46//48 47//49
f 47//49 55//50 53//47
f 48//45 57//51 44//43
f 54//52 44//43 57//51
f 54//52 55//53 44//43
f 55//53 54//52 58//54
f 48//45 49//46 57//51
f 52//55 50//56 59//57
f 50//56 56//58 59//57
f 60//59 59//57 56//58
f 61//60 49//46 51//61
f 51//61 62//62 61//60
f 47//49 39//38 38//37
f 47//49 46//48 39//38
f 36//36 52//55 40//40
f 40//40 51//61 35//42
f 35//42 51//61 49//46
f 50//56 52//55 36//36
f 54//52 63//63 58//54
l 31 32
l 27 28
l 24 25
