# Blender v2.78 (sub 0) OBJ File: 'exporter.blend'
# www.blender.org
o FJ2897.obj_grp1.1539
v 0.428058 -0.538110 5.740637
v 0.421351 -0.542324 5.740587
v 0.420198 -0.543244 5.741667
v 0.425254 -0.539462 5.739966
v 0.418585 -0.551558 5.745705
v 0.434196 -0.592624 5.673447
v 0.420602 -0.555431 5.747347
v 0.420198 -0.543244 5.741667
v 0.419130 -0.546000 5.741808
v 0.419526 -0.546789 5.743685
v 0.418247 -0.549666 5.744765
v 0.419526 -0.546789 5.743685
v 0.418247 -0.549666 5.744765
v 0.438867 -0.553838 5.750925
v 0.418454 -0.551549 5.745933
v 0.419122 -0.550652 5.745610
v 0.420198 -0.543244 5.741667
v 0.418247 -0.549666 5.744765
v 0.418445 -0.550793 5.744765
v 0.419122 -0.550652 5.745610
v 0.418247 -0.549666 5.744765
v 0.418445 -0.550793 5.744765
v 0.418445 -0.550793 5.744765
v 0.418585 -0.551558 5.745705
v 0.419122 -0.550652 5.745610
v 0.420602 -0.555431 5.747347
v 0.422742 -0.557225 5.747864
v 0.428115 -0.558687 5.751260
v 0.430940 -0.571815 5.691892
v 0.419130 -0.546000 5.741808
v 0.421351 -0.542324 5.740587
v 0.423805 -0.539852 5.740120
v 0.420198 -0.543244 5.741667
v 0.429207 -0.538006 5.740573
v 0.431996 -0.538324 5.740259
v 0.436704 -0.592557 5.688328
v 0.422742 -0.557225 5.747864
v 0.420602 -0.555431 5.747347
v 0.430940 -0.558508 5.752171
v 0.441651 -0.588414 5.697412
v 0.432639 -0.557631 5.751088
v 0.436286 -0.563614 5.697097
v 0.431806 -0.585928 5.693312
v 0.436487 -0.539063 5.742049
v 0.431996 -0.538324 5.740259
v 0.436913 -0.539639 5.742512
v 0.441196 -0.543882 5.746476
v 0.439902 -0.542466 5.744966
v 0.444471 -0.577266 5.711293
v 0.435977 -0.556378 5.751820
v 0.433202 -0.558065 5.751573
v 0.433202 -0.558065 5.751573
v 0.431046 -0.557788 5.751333
v 0.435966 -0.556361 5.751807
v 0.435966 -0.556361 5.751807
v 0.438398 -0.554507 5.751014
v 0.444200 -0.569524 5.690458
v 0.451958 -0.583644 5.677081
v 0.440946 -0.544521 5.745845
v 0.440821 -0.548249 5.748286
v 0.449973 -0.577375 5.697031
v 0.441024 -0.548108 5.748263
v 0.439847 -0.584331 5.670165
v 0.442480 -0.616237 5.652427
v 0.445814 -0.622818 5.652549
v 0.447401 -0.587174 5.665731
v 0.447030 -0.607889 5.672277
v 0.449625 -0.598481 5.680920
v 0.441844 -0.607668 5.651645
v 0.449644 -0.625613 5.653838
v 0.453845 -0.596426 5.677087
v 0.453527 -0.641147 5.629769
v 0.449387 -0.604194 5.648715
v 0.456190 -0.608018 5.646921
v 0.451817 -0.616779 5.639182
v 0.454525 -0.623018 5.657299
v 0.464152 -0.622637 5.642212
v 0.459003 -0.633707 5.628774
v 0.461297 -0.665744 5.626900
v 0.460798 -0.624634 5.635148
v 0.459411 -0.649108 5.639371
v 0.461241 -0.641730 5.643797
v 0.462241 -0.633079 5.647344
v 0.462226 -0.623210 5.650274
v 0.465734 -0.658992 5.618030
v 0.466918 -0.673436 5.614806
v 0.471212 -0.659343 5.618486
v 0.474666 -0.660126 5.621485
v 0.472960 -0.676095 5.627680
v 0.476088 -0.666603 5.626342
v 0.488903 -0.713844 5.601678
v 0.489452 -0.716823 5.611673
v 0.487164 -0.715057 5.600929
v 0.483603 -0.715635 5.601579
v 0.481160 -0.717868 5.603504
v 0.491163 -0.716017 5.609748
v 0.485567 -0.718983 5.612099
v 0.483543 -0.719419 5.611259
v 0.482043 -0.719373 5.610479
v 0.481837 -0.720382 5.609560
v 0.480974 -0.718386 5.604913
v 0.487278 -0.715142 5.601106
v 0.481573 -0.717566 5.603338
v 0.483603 -0.715635 5.601579
v 0.485640 -0.715767 5.601532
v 0.485640 -0.715767 5.601532
v 0.484503 -0.719064 5.611108
v 0.488950 -0.717297 5.610359
v 0.483546 -0.719415 5.611250
v 0.484218 -0.718369 5.612114
v 0.484222 -0.718363 5.612095
v 0.484504 -0.719063 5.611109
v 0.485556 -0.718912 5.611955
v 0.484222 -0.718363 5.612095
v 0.483546 -0.719415 5.611250
v 0.484504 -0.719063 5.611109
v 0.485556 -0.718912 5.611955
v 0.488687 -0.717715 5.611578
v 0.490663 -0.715105 5.604959
v 0.487405 -0.714941 5.601298
v 0.488584 -0.714067 5.602096
v 0.490976 -0.715314 5.605861
v 0.491690 -0.714998 5.606493
v 0.491607 -0.715119 5.608387
v 0.488687 -0.717715 5.611578
v 0.488687 -0.717715 5.611578
v 0.489452 -0.716823 5.611673
v 0.491818 -0.715570 5.608746
vn -0.5318 0.7646 0.3641
vn -0.5482 0.7970 0.2537
vn -0.5266 0.8367 0.1504
vn -0.5286 0.7396 0.4166
vn -0.9367 -0.3502 -0.0033
vn -0.9599 -0.0385 -0.2776
vn -0.9047 -0.4234 0.0479
vn -0.8734 0.3552 0.3333
vn -0.8337 0.4239 0.3538
vn -0.8338 0.4239 0.3538
vn -0.7884 0.4899 0.3720
vn -0.1965 0.4660 0.8627
vn -0.1539 0.4988 0.8530
vn -0.1875 0.4406 0.8779
vn -0.1822 0.3781 0.9076
vn -0.1633 0.4868 0.8581
vn -0.1319 0.5343 0.8349
vn -0.2272 0.5140 0.8272
vn -0.7625 -0.1338 0.6330
vn -0.9816 -0.0834 -0.1716
vn -0.9728 -0.2136 -0.0896
vn -0.7224 0.4794 0.4983
vn 0.0554 0.4167 0.9073
vn -0.4694 -0.0468 0.8818
vn -0.2099 0.3430 0.9156
vn -0.7901 0.4183 -0.4481
vn -0.9428 0.1508 -0.2973
vn -0.7035 0.5372 -0.4653
vn -0.4462 0.7248 -0.5250
vn -0.8316 0.3838 -0.4014
vn -0.4666 -0.7784 0.4199
vn -0.4859 -0.7952 0.3627
vn -0.6295 -0.7231 0.2845
vn -0.0374 -0.8910 0.4524
vn 0.0253 -0.8481 0.5292
vn 0.0377 0.0487 0.9981
vn -0.7973 -0.5785 0.1723
vn -0.1629 0.8212 -0.5469
vn -0.1126 0.8450 -0.5227
vn 0.5758 0.7354 -0.3574
vn 0.1521 0.8566 -0.4931
vn -0.0341 0.7426 0.6689
vn 0.0515 0.9293 0.3657
vn -0.0814 0.4770 0.8751
vn 0.6818 -0.5924 0.4292
vn 0.5379 -0.7021 0.4666
vn 0.3999 -0.7823 0.4775
vn -0.3662 0.6763 0.6392
vn -0.1115 0.0436 0.9928
vn -0.0908 0.0446 0.9949
vn -0.1266 0.0463 0.9909
vn 0.7964 -0.4651 0.3864
vn -0.4394 0.6159 -0.6539
vn 0.4593 0.7674 -0.4474
vn 0.8534 0.4749 -0.2149
vn 0.8473 0.5035 -0.1692
vn 0.9600 0.2791 -0.0235
vn 0.9736 -0.0270 0.2268
vn 0.9771 -0.0805 0.1971
vn 0.3200 0.3583 0.8771
vn -0.7916 0.2292 -0.5664
vn -0.9588 -0.2616 -0.1103
vn -0.7573 -0.5501 0.3520
vn 0.2506 0.7486 -0.6139
vn -0.0945 -0.7468 0.6583
vn 0.5076 -0.6214 0.5968
vn -0.4081 -0.6631 0.6275
vn 0.9159 -0.1818 0.3579
vn -0.1628 0.6319 -0.7577
vn 0.5041 0.6423 -0.5773
vn -0.2731 0.4554 -0.8474
vn -0.8197 -0.0158 -0.5725
vn 0.9333 0.3294 -0.1433
vn 0.2419 -0.6269 0.7406
vn -0.0915 0.4316 -0.8974
vn -0.8296 -0.4746 0.2940
vn -0.3634 -0.5222 0.7715
vn 0.4702 0.5604 -0.6818
vn 0.2324 -0.4476 0.8635
vn 0.8795 -0.0908 0.4671
vn 0.5246 -0.3299 0.7848
vn -0.2619 0.2774 -0.9244
vn -0.6553 -0.0092 -0.7554
vn 0.3767 0.4282 -0.8214
vn 0.8480 0.4203 -0.3229
vn 0.1187 -0.2891 0.9499
vn 0.8829 0.0477 0.4671
vn 0.5607 0.4200 -0.7136
vn 0.5679 -0.1047 0.8164
vn -0.0270 0.2094 -0.9775
vn -0.3604 0.0970 -0.9277
vn -0.8898 -0.2158 -0.4021
vn 0.8208 0.0893 0.5642
vn -0.4189 -0.4073 0.8116
vn -0.7453 -0.4402 0.5007
vn 0.3688 -0.9051 -0.2115
vn 0.1689 -0.8810 -0.4420
vn 0.3243 -0.8989 -0.2947
vn 0.2537 -0.9122 -0.3217
vn -0.0550 -0.5683 -0.8209
vn -0.0305 -0.6446 -0.7639
vn -0.0582 -0.6344 -0.7708
vn -0.0093 -0.6090 -0.7931
vn 0.4066 -0.8959 -0.1791
vn 0.4369 -0.8807 -0.1833
vn 0.3488 -0.9227 0.1639
vn -0.2843 -0.8185 0.4993
vn 0.3509 -0.7134 0.6065
vn -0.2657 -0.3802 0.8859
vn 0.3222 -0.9159 -0.2392
vn 0.1016 -0.3017 0.9480
vn 0.6905 -0.3554 -0.6300
vn 0.3503 -0.8979 -0.2666
vn 0.9627 0.2599 0.0754
vn 0.9028 0.3498 -0.2500
vn 0.3212 -0.9158 -0.2411
vn 0.7607 -0.6466 -0.0575
vn 0.6657 -0.7461 0.0125
vn 0.2885 -0.3473 0.8922
vn 0.4719 -0.8637 -0.1773
s 1
f 1//1 2//2 3//3
f 4//4 2//2 1//1
f 5//5 6//6 7//7
f 8//8 9//9 10//10
f 11//11 10//10 9//9
f 12//12 13//13 14//14
f 15//15 14//14 16//16
f 14//14 13//13 16//16
f 12//12 1//17 17//18
f 12//12 14//14 1//17
f 18//19 19//19 20//19
f 21//20 6//6 22//21
f 6//6 5//5 22//21
f 23//22 24//22 25//22
f 26//23 27//24 15//15
f 15//15 27//24 28//25
f 29//26 6//6 30//27
f 31//28 32//29 29//26
f 29//26 30//27 33//30
f 31//28 29//26 33//30
f 21//20 30//27 6//6
f 36//31 37//32 38//33
f 37//32 36//31 39//34
f 40//35 39//34 36//31
f 28//25 14//14 15//15
f 41//36 14//14 28//25
f 38//33 43//37 36//31
f 42//38 29//26 32//29
f 43//37 7//7 6//6
f 34//39 42//38 32//29
f 44//40 42//38 35//41
f 42//38 34//39 35//41
f 46//42 45//43 1//17
f 46//42 1//17 47//44
f 47//44 1//17 14//14
f 49//45 50//46 51//47
f 14//14 41//36 54//48
f 55//49 53//50 52//51
f 49//45 56//52 50//46
f 29//26 42//38 63//53
f 44//40 57//54 42//38
f 40//35 49//45 51//47
f 51//47 39//34 40//35
f 58//55 44//40 48//56
f 58//55 48//56 59//57
f 61//58 59//57 62//59
f 56//52 61//58 62//59
f 60//60 47//44 14//14
f 69//61 29//26 63//53
f 43//37 6//6 64//62
f 64//62 36//31 43//37
f 64//62 65//63 36//31
f 66//64 63//53 42//38
f 29//26 69//61 6//6
f 57//54 66//64 42//38
f 40//35 36//31 67//65
f 44//40 58//55 57//54
f 68//66 49//45 40//35
f 61//58 56//52 49//45
f 6//6 69//61 64//62
f 70//67 67//65 65//63
f 65//63 67//65 36//31
f 58//55 66//64 57//54
f 40//35 67//65 68//66
f 49//45 68//66 71//68
f 58//55 59//57 61//58
f 61//58 49//45 71//68
f 73//69 74//70 75//71
f 72//72 64//62 69//61
f 73//69 75//71 69//61
f 69//61 63//53 73//69
f 66//64 74//70 73//69
f 66//64 73//69 63//53
f 66//64 58//55 74//70
f 77//73 74//70 58//55
f 67//65 70//67 76//74
f 71//68 58//55 61//58
f 68//66 67//65 76//74
f 75//71 72//72 69//61
f 72//72 75//71 78//75
f 64//62 79//76 65//63
f 72//72 79//76 64//62
f 65//63 79//76 81//77
f 74//70 80//78 75//71
f 70//67 81//77 82//79
f 65//63 81//77 70//67
f 76//74 70//67 82//79
f 76//74 84//80 68//66
f 76//74 83//81 84//80
f 68//66 84//80 71//68
f 72//72 85//82 86//83
f 80//78 87//84 78//75
f 80//78 88//85 87//84
f 72//72 78//75 85//82
f 78//75 75//71 80//78
f 80//78 77//73 88//85
f 81//77 79//76 89//86
f 80//78 74//70 77//73
f 58//55 71//68 77//73
f 71//68 84//80 77//73
f 83//81 76//74 82//79
f 85//82 78//75 87//84
f 83//81 90//87 84//80
f 77//73 84//80 90//87
f 81//77 89//86 82//79
f 90//87 83//81 82//79
f 88//85 91//88 87//84
f 82//79 89//86 90//87
f 92//89 90//87 89//86
f 93//90 94//91 86//83
f 85//82 93//90 86//83
f 85//82 87//84 93//90
f 87//84 91//88 93//90
f 95//92 79//76 72//72
f 86//83 95//92 72//72
f 88//85 77//73 90//87
f 90//87 92//89 96//93
f 79//76 98//94 89//86
f 79//76 99//95 98//94
f 100//96 101//97 102//98
f 95//92 86//83 94//91
f 101//97 103//99 102//98
f 94//91 93//90 105//100
f 104//101 106//102 103//103
f 95//92 99//95 79//76
f 107//104 102//98 108//105
f 100//96 102//98 107//104
f 100//96 107//104 109//106
f 111//107 112//107 113//107
f 114//108 115//108 116//108
f 98//94 110//109 89//86
f 108//105 117//110 107//104
f 89//86 110//109 97//111
f 97//111 92//89 89//86
f 119//112 120//112 121//112
f 123//113 108//105 102//98
f 88//85 90//87 124//114
f 124//114 90//87 96//93
f 88//85 122//115 91//88
f 124//114 122//115 88//85
f 108//105 125//116 117//110
f 126//117 108//105 127//118
f 118//119 92//89 97//111
f 123//113 128//120 108//105
f 128//120 127//118 108//105
