# Blender v2.78 (sub 0) OBJ File: 'exporter.blend'
# www.blender.org
o FJ2889.obj_grp1.1531
v 0.218915 -0.193128 6.009159
v 0.218446 -0.195557 6.009073
v 0.221830 -0.189283 6.009718
v 0.223507 -0.189067 6.009274
v 0.231972 -0.193897 6.008826
v 0.219510 -0.196517 6.008599
v 0.221831 -0.199987 6.008744
v 0.219157 -0.195500 6.010217
v 0.229637 -0.199697 6.008282
v 0.219010 -0.192643 6.009615
v 0.228987 -0.195554 6.039619
v 0.229792 -0.199569 6.008228
v 0.231514 -0.194050 6.009214
v 0.221604 -0.189790 6.009636
v 0.218983 -0.192742 6.009408
v 0.218794 -0.192520 6.009965
v 0.221831 -0.199987 6.008744
v 0.230125 -0.195049 6.040397
v 0.240556 -0.191942 6.040734
v 0.224138 -0.192411 6.027663
v 0.231478 -0.201014 6.031051
v 0.232057 -0.198709 6.011045
v 0.229284 -0.198528 6.009710
v 0.241043 -0.198393 6.040442
v 0.237115 -0.193664 6.029072
v 0.239753 -0.198307 6.037363
v 0.243513 -0.195176 6.041783
v 0.243490 -0.195172 6.041654
v 0.254808 -0.196068 6.057986
v 0.251969 -0.196604 6.060370
v 0.254343 -0.198029 6.059000
v 0.252873 -0.194610 6.058843
v 0.253582 -0.193465 6.057850
v 0.254091 -0.197796 6.058787
v 0.252565 -0.197377 6.055970
v 0.253582 -0.193465 6.057850
v 0.250389 -0.196137 6.057788
vn -0.2895 -0.9559 0.0492
vn -0.5808 -0.7099 0.3984
vn -0.5360 -0.8360 0.1177
vn -0.0782 0.0830 -0.9935
vn -0.1119 0.0793 -0.9906
vn 0.0319 0.1560 -0.9872
vn -0.2298 0.0962 -0.9685
vn -0.0765 0.2695 -0.9600
vn -0.1216 0.9850 0.1227
vn -0.5410 0.7998 0.2600
vn -0.4814 0.6401 0.5988
vn 0.3149 0.9423 -0.1136
vn -0.8832 -0.3625 0.2976
vn 0.4498 -0.8882 -0.0936
vn -0.4078 -0.9055 0.1170
vn 0.9039 0.2977 -0.3073
vn 0.7697 -0.4097 -0.4896
vn 0.8025 -0.5256 -0.2825
vn 0.9742 -0.0486 -0.2203
vn 0.4638 -0.8625 -0.2023
vn 0.8376 0.1058 -0.5360
vn 0.7423 0.6609 -0.1103
vn 0.6693 -0.5588 -0.4897
vn 0.7801 0.2778 -0.5606
vn -0.6408 -0.3691 0.6731
vn -0.3639 -0.8703 0.3318
vn -0.5032 0.6723 0.5429
vn 0.7802 0.3416 -0.5240
vn 0.6949 -0.4734 -0.5413
vn 0.4322 -0.4586 0.7765
vn 0.3888 -0.4784 0.7874
vn 0.3927 -0.4785 0.7854
s 1
f 9//1 11//2 10//3
f 12//4 3//5 13//6
f 8//7 3//5 12//4
f 12//4 17//8 8//7
f 4//9 16//10 18//11
f 18//11 19//12 4//9
f 10//3 11//2 20//13
f 22//14 21//15 9//1
f 5//16 24//17 23//18
f 24//17 5//16 25//19
f 26//20 21//15 22//14
f 5//16 4//9 19//12
f 19//12 25//19 5//16
f 11//2 9//1 21//15
f 25//19 27//21 24//17
f 28//22 25//19 19//12
f 29//23 21//15 26//20
f 29//24 24//17 27//21
f 18//11 11//2 30//25
f 31//26 11//2 21//15
f 31//26 30//25 11//2
f 18//11 30//25 32//27
f 19//12 27//21 28//22
f 18//11 32//27 19//12
f 27//21 19//12 33//28
f 29//23 34//29 21//15
f 33//28 29//24 27//21
f 35//30 36//31 37//32
l 6 7
l 1 2
l 14 15
