# Blender v2.78 (sub 0) OBJ File: 'exporter.blend'
# www.blender.org
o FJ2890.obj_grp1.1532
v 0.243798 -0.201963 5.957056
v 0.237855 -0.206203 5.962878
v 0.237855 -0.206203 5.962878
v 0.245150 -0.202113 5.956951
v 0.237336 -0.214280 5.962127
v 0.253810 -0.211646 5.984379
v 0.237336 -0.214280 5.962127
v 0.237336 -0.214280 5.962127
v 0.246098 -0.217594 5.955964
v 0.277148 -0.202097 5.999621
v 0.261748 -0.215028 5.989637
v 0.253810 -0.211646 5.984379
v 0.248525 -0.215734 5.954333
v 0.243666 -0.218720 5.957851
v 0.247977 -0.203757 5.955064
v 0.251292 -0.210707 5.954568
v 0.248525 -0.215734 5.954333
v 0.250955 -0.210616 5.954844
v 0.272370 -0.217063 5.989440
v 0.252676 -0.209976 5.953470
v 0.277645 -0.202851 5.999530
v 0.253810 -0.211646 5.984379
v 0.261748 -0.215028 5.989637
v 0.275684 -0.212485 6.003119
v 0.266708 -0.205140 5.994784
v 0.304211 -0.207902 6.016163
v 0.312361 -0.213191 6.010002
v 0.324847 -0.205436 6.017001
v 0.335178 -0.213017 6.020473
v 0.331901 -0.209139 6.023014
v 0.335746 -0.208094 6.021993
v 0.335927 -0.210484 6.020772
v 0.335465 -0.209967 6.018600
v 0.336945 -0.210770 6.019024
v 0.334897 -0.212382 6.020578
v 0.335774 -0.209319 6.018935
v 0.335765 -0.207264 6.022445
v 0.335467 -0.209623 6.023109
v 0.337044 -0.209082 6.019683
v 0.333504 -0.207856 6.021914
vn -0.6635 0.1114 -0.7399
vn -0.5827 0.0320 -0.8121
vn -0.6249 0.0192 -0.7805
vn -0.7125 0.3414 0.6130
vn -0.6260 0.5992 0.4991
vn -0.8035 -0.0038 0.5953
vn -0.4781 0.6427 0.5986
vn -0.3446 0.8875 0.3060
vn -0.2854 -0.9075 0.3083
vn -0.3085 -0.9095 0.2786
vn 0.1946 -0.9712 -0.1372
vn -0.6024 -0.6075 0.5177
vn -0.0135 0.0297 -0.9995
vn 0.0118 0.0879 -0.9961
vn -0.0215 0.0586 -0.9980
vn 0.9778 0.1878 -0.0929
vn 0.0773 -0.9969 -0.0174
vn -0.5688 0.0127 -0.8224
vn -0.5770 -0.0181 -0.8166
vn -0.5579 -0.0012 -0.8299
vn 0.6242 0.6723 -0.3980
vn 0.5352 0.2459 0.8081
vn -0.6467 0.0180 0.7625
vn -0.5846 -0.1230 0.8019
vn -0.6579 -0.1049 0.7457
vn -0.4338 -0.3625 0.8249
vn -0.1052 0.9225 0.3713
vn -0.2626 0.1994 0.9441
vn 0.3712 0.3324 -0.8670
vn 0.0957 -0.9951 0.0259
vn 0.0391 0.9972 -0.0642
vn -0.1641 0.0445 0.9854
vn -0.0339 0.7813 0.6232
vn 0.3900 0.1593 -0.9069
vn 0.0717 0.9907 -0.1152
vn 0.3084 -0.6886 -0.6563
vn -0.0957 -0.6096 0.7869
vn 0.3407 0.8500 -0.4018
vn 0.3811 0.8384 -0.3896
vn 0.3414 0.8496 -0.4021
vn 0.8409 0.0381 0.5399
vn 0.8105 0.0329 0.5848
vn 0.8306 0.0849 0.5503
s 1
f 3//1 4//2 5//3
f 6//4 2//5 7//6
f 10//7 1//8 2//5
f 2//5 6//4 10//7
f 11//9 8//10 9//11
f 12//12 8//10 11//9
f 15//13 16//14 17//15
f 18//16 19//17 9//11
f 14//18 4//2 13//19
f 13//19 4//2 15//20
f 14//18 5//3 4//2
f 1//21 18//16 20//22
f 11//9 9//11 19//17
f 25//23 22//24 23//25
f 19//17 24//26 11//9
f 21//27 25//23 26//28
f 1//21 27//29 18//16
f 27//29 19//17 18//16
f 23//25 24//26 25//23
f 26//28 25//23 24//26
f 1//21 21//27 27//29
f 29//30 24//26 19//17
f 21//27 28//31 27//29
f 27//29 29//30 19//17
f 24//26 30//32 26//28
f 31//33 28//31 21//27
f 31//33 21//27 26//28
f 29//30 30//32 24//26
f 32//34 27//29 28//31
f 26//28 30//32 33//35
f 27//29 34//36 29//30
f 38//37 30//32 29//30
f 39//38 28//39 37//40
f 36//41 40//42 35//43
