# Blender v2.78 (sub 0) OBJ File: 'exporter.blend'
# www.blender.org
o FJ2884.obj_grp1.1526
v 0.339117 -0.301525 5.782350
v 0.339344 -0.303866 5.781148
v 0.364338 -0.323255 5.748719
v 0.337735 -0.307338 5.784717
v 0.336832 -0.307810 5.783261
v 0.336619 -0.311386 5.784576
v 0.338231 -0.306630 5.781619
v 0.337735 -0.307338 5.784717
v 0.338231 -0.306630 5.781619
v 0.336832 -0.307810 5.783261
v 0.337735 -0.307338 5.784717
v 0.336620 -0.307795 5.783101
v 0.338159 -0.306623 5.781559
v 0.339026 -0.301718 5.782416
v 0.361666 -0.301338 5.798491
v 0.344477 -0.296651 5.783309
v 0.336364 -0.314082 5.787487
v 0.337084 -0.314390 5.788754
v 0.343173 -0.321662 5.782917
v 0.336849 -0.314663 5.788795
v 0.398608 -0.369275 5.712492
v 0.386947 -0.359674 5.729187
v 0.338959 -0.318347 5.792389
v 0.338860 -0.318369 5.792379
v 0.340305 -0.319603 5.793495
v 0.340305 -0.319603 5.793495
v 0.369159 -0.343026 5.758239
v 0.343442 -0.320359 5.796799
v 0.341241 -0.298756 5.781857
v 0.341812 -0.298567 5.782041
v 0.344487 -0.296805 5.782135
v 0.341812 -0.298567 5.782041
v 0.344477 -0.296651 5.783309
v 0.344487 -0.296805 5.782135
v 0.345396 -0.295542 5.783309
v 0.343489 -0.320346 5.796829
v 0.348033 -0.319519 5.799834
v 0.348033 -0.319519 5.799834
v 0.351046 -0.319379 5.801125
v 0.370263 -0.339663 5.768004
v 0.353641 -0.294299 5.788425
v 0.345396 -0.295542 5.783309
v 0.368902 -0.313725 5.754292
v 0.345396 -0.295542 5.783309
v 0.351419 -0.293406 5.786155
v 0.368207 -0.308510 5.762462
v 0.352002 -0.293438 5.786500
v 0.355055 -0.293727 5.788284
v 0.359424 -0.296460 5.793943
v 0.355640 -0.293777 5.789411
v 0.354177 -0.316643 5.802556
v 0.348033 -0.319519 5.799834
v 0.351066 -0.319276 5.801054
v 0.354177 -0.316643 5.802556
v 0.380720 -0.343404 5.762001
v 0.354420 -0.316672 5.802824
v 0.355640 -0.293777 5.789411
v 0.355665 -0.293748 5.789421
v 0.355055 -0.293727 5.788284
v 0.358203 -0.295251 5.792424
v 0.356178 -0.315445 5.803026
v 0.360046 -0.311237 5.802134
v 0.336619 -0.311386 5.784576
v 0.386409 -0.335011 5.765617
v 0.360046 -0.311237 5.802134
v 0.361155 -0.298407 5.795865
v 0.361102 -0.298517 5.795890
v 0.361709 -0.301347 5.798495
v 0.375154 -0.309960 5.767496
v 0.361685 -0.306480 5.800866
v 0.361685 -0.306480 5.800866
v 0.392577 -0.331973 5.757811
v 0.411931 -0.345446 5.728961
v 0.366855 -0.336871 5.745222
v 0.374951 -0.324456 5.740995
v 0.375746 -0.339906 5.733247
v 0.384649 -0.320019 5.748415
v 0.401183 -0.334152 5.735682
v 0.385773 -0.329676 5.732724
v 0.389218 -0.360414 5.737010
v 0.392346 -0.360697 5.716477
v 0.382326 -0.337653 5.727981
v 0.386958 -0.325029 5.739274
v 0.396958 -0.349222 5.749854
v 0.402072 -0.346238 5.746360
v 0.392344 -0.354923 5.715202
v 0.398880 -0.368129 5.730012
v 0.396912 -0.351698 5.712422
v 0.400859 -0.373406 5.719605
v 0.399526 -0.347145 5.713852
v 0.407760 -0.343981 5.718482
v 0.399405 -0.358451 5.741761
v 0.420997 -0.358641 5.724141
v 0.398593 -0.338798 5.722126
v 0.413650 -0.354089 5.733151
v 0.408217 -0.362667 5.735379
v 0.407848 -0.372879 5.701082
v 0.411938 -0.377057 5.723447
v 0.416528 -0.364177 5.729884
v 0.409011 -0.379526 5.719073
v 0.420364 -0.355531 5.710477
v 0.434317 -0.370316 5.705081
v 0.412721 -0.370588 5.697418
v 0.414381 -0.362862 5.700317
v 0.417344 -0.391795 5.704275
v 0.414713 -0.355304 5.706696
v 0.420167 -0.378812 5.722036
v 0.458659 -0.434223 5.661811
v 0.420344 -0.374459 5.693015
v 0.424461 -0.397089 5.705457
v 0.436545 -0.374523 5.696956
v 0.430013 -0.394117 5.711164
v 0.432462 -0.381928 5.715748
v 0.464727 -0.409974 5.686356
v 0.459672 -0.428273 5.661415
v 0.427766 -0.374925 5.691657
v 0.430154 -0.371618 5.695342
v 0.462633 -0.421261 5.663137
v 0.461429 -0.443943 5.670448
v 0.471974 -0.443128 5.678044
v 0.477676 -0.434210 5.655252
v 0.497248 -0.454530 5.644820
v 0.470058 -0.435090 5.682677
v 0.481639 -0.430336 5.665309
v 0.479138 -0.431529 5.676176
v 0.473906 -0.453072 5.670385
v 0.475682 -0.433866 5.680012
v 0.488160 -0.477766 5.648669
v 0.472671 -0.443998 5.650345
v 0.462205 -0.444862 5.663102
v 0.486867 -0.438228 5.665646
v 0.473730 -0.457439 5.649735
v 0.485325 -0.452761 5.641953
v 0.479721 -0.462586 5.642786
v 0.486935 -0.479086 5.642619
v 0.492246 -0.471304 5.656893
v 0.489617 -0.457218 5.665307
v 0.494975 -0.479101 5.625750
v 0.498711 -0.461734 5.636173
v 0.502774 -0.460701 5.645126
v 0.497729 -0.459494 5.657931
v 0.502797 -0.479792 5.648528
v 0.498479 -0.456099 5.655210
v 0.488416 -0.480514 5.634738
v 0.505034 -0.474161 5.648754
v 0.506328 -0.507697 5.624556
v 0.498802 -0.494848 5.619560
v 0.501556 -0.503679 5.618406
v 0.504924 -0.510014 5.617241
v 0.522651 -0.511937 5.597607
v 0.513558 -0.482884 5.623179
v 0.510710 -0.475942 5.639825
v 0.514219 -0.506307 5.626933
v 0.516168 -0.500595 5.629542
v 0.514576 -0.481910 5.628485
v 0.511337 -0.481212 5.640118
v 0.507783 -0.492936 5.612256
v 0.526041 -0.545018 5.593887
v 0.508657 -0.508898 5.603990
v 0.521776 -0.497244 5.619229
v 0.523720 -0.503730 5.618283
v 0.522912 -0.510533 5.618735
v 0.515962 -0.537792 5.589643
v 0.515515 -0.534816 5.597577
v 0.517910 -0.533104 5.602784
v 0.527815 -0.532024 5.602756
v 0.514372 -0.528482 5.591309
v 0.525223 -0.536843 5.577587
v 0.526413 -0.511817 5.601677
v 0.531128 -0.522878 5.597533
v 0.519687 -0.531551 5.583799
v 0.522022 -0.554859 5.568570
v 0.521481 -0.561089 5.571183
v 0.524869 -0.566553 5.572372
v 0.532806 -0.567465 5.573248
v 0.528973 -0.523348 5.605615
v 0.533588 -0.533798 5.592254
v 0.534816 -0.546718 5.585758
v 0.533666 -0.538597 5.580155
v 0.534958 -0.556631 5.579934
v 0.534173 -0.552445 5.566614
v 0.537277 -0.551389 5.575300
v 0.525868 -0.588787 5.549282
v 0.524399 -0.582871 5.549328
v 0.531289 -0.569882 5.550392
v 0.537144 -0.559814 5.563394
v 0.525929 -0.570155 5.553320
v 0.525505 -0.602942 5.527509
v 0.530315 -0.593965 5.548803
v 0.538848 -0.568132 5.564514
v 0.526043 -0.624104 5.513155
v 0.528617 -0.585278 5.538519
v 0.533703 -0.588535 5.534159
v 0.533714 -0.601107 5.541655
v 0.536700 -0.582203 5.557834
v 0.539358 -0.583893 5.545434
v 0.528049 -0.613174 5.511379
v 0.524969 -0.619999 5.513094
v 0.539344 -0.597179 5.538076
v 0.532697 -0.627031 5.497192
v 0.536786 -0.598805 5.541846
v 0.536645 -0.621530 5.515190
v 0.524507 -0.628819 5.499264
v 0.527098 -0.635924 5.502900
v 0.533333 -0.624971 5.515252
v 0.537674 -0.606029 5.521715
v 0.523924 -0.658124 5.464952
v 0.535856 -0.625494 5.503004
v 0.535128 -0.633591 5.498169
v 0.519128 -0.662956 5.468692
v 0.519737 -0.662092 5.463888
v 0.526362 -0.666696 5.467847
v 0.519179 -0.663605 5.465482
v 0.519179 -0.663605 5.465482
v 0.520504 -0.665789 5.466821
v 0.519728 -0.665586 5.467454
v 0.519736 -0.665788 5.467673
v 0.529865 -0.647663 5.477605
v 0.519765 -0.662266 5.463962
v 0.521319 -0.661497 5.463229
v 0.521319 -0.661497 5.463229
v 0.523540 -0.661741 5.462665
v 0.525703 -0.662494 5.462899
v 0.525681 -0.662520 5.462947
v 0.525587 -0.663459 5.463511
v 0.527225 -0.662760 5.464168
v 0.525681 -0.662520 5.462947
v 0.526445 -0.666161 5.466046
v 0.527285 -0.662750 5.464143
v 0.522089 -0.666198 5.469774
v 0.522094 -0.666102 5.469660
v 0.519728 -0.665586 5.467454
v 0.520526 -0.665760 5.466844
v 0.522972 -0.667220 5.467970
v 0.522972 -0.667220 5.467970
v 0.522972 -0.667220 5.467970
v 0.524418 -0.666628 5.466656
v 0.522972 -0.667220 5.467970
v 0.524418 -0.666628 5.466656
v 0.525084 -0.666389 5.469003
v 0.525084 -0.666389 5.469003
v 0.526319 -0.666149 5.466139
v 0.526319 -0.666149 5.466139
v 0.526178 -0.666572 5.467923
v 0.525084 -0.666389 5.469003
v 0.526319 -0.666149 5.466139
v 0.527200 -0.664689 5.464745
vn -0.6199 0.3189 -0.7170
vn -0.8046 0.2499 -0.5386
vn -0.7527 0.2540 -0.6074
vn -0.7589 0.3629 0.5407
vn -0.8617 0.2196 0.4574
vn -0.9196 0.2415 0.3100
vn -0.9294 0.3633 -0.0654
vn -0.9516 0.2264 -0.2080
vn -0.5761 0.8121 0.0930
vn -0.5777 0.5036 0.6424
vn -0.4768 0.4164 0.7741
vn -0.5551 0.4851 0.6757
vn -0.8811 0.3207 0.3477
vn -0.5971 0.4195 0.6837
vn -0.8000 -0.4766 -0.3645
vn -0.7555 -0.6390 -0.1449
vn -0.8192 -0.4687 -0.3305
vn -0.6859 -0.7277 -0.0021
vn -0.7172 -0.6884 -0.1080
vn -0.5598 0.3885 0.7319
vn -0.5625 -0.8235 0.0737
vn -0.4889 -0.8507 0.1931
vn -0.2736 -0.9018 0.3346
vn -0.6530 0.6278 0.4236
vn -0.6629 0.7416 -0.1028
vn -0.5442 0.8312 -0.1136
vn -0.7671 0.6352 -0.0897
vn -0.7278 -0.2192 0.6499
vn -0.6270 0.2698 0.7308
vn -0.5447 0.4161 0.7281
vn 0.0769 -0.8331 0.5477
vn -0.1700 -0.8558 0.4885
vn -0.4952 0.5005 -0.7102
vn -0.7309 0.1541 -0.6649
vn -0.1760 -0.8788 0.4435
vn -0.4533 0.6347 0.6258
vn -0.5118 0.4946 0.7025
vn -0.1125 0.7770 -0.6193
vn -0.1131 0.8014 -0.5874
vn 0.1579 0.8674 -0.4719
vn 0.1647 0.8799 -0.4456
vn -0.3827 0.6803 0.6251
vn -0.3051 0.8648 0.3987
vn -0.4649 0.4935 0.7350
vn -0.3445 0.9129 0.2192
vn -0.5019 0.4427 0.7431
vn -0.3608 -0.1055 0.9267
vn 0.1862 -0.7299 0.6577
vn 0.3575 -0.6572 0.6635
vn -0.4792 0.5221 0.7055
vn -0.3387 0.4132 0.8453
vn -0.2499 0.3577 0.8998
vn 0.3910 0.8747 -0.2863
vn 0.6375 -0.3411 0.6908
vn 0.6816 -0.2857 0.6736
vn -0.0320 0.6807 0.7319
vn 0.6218 0.7797 -0.0741
vn 0.6468 0.7625 -0.0167
vn 0.7947 0.5798 0.1794
vn -0.4596 0.3715 0.8067
vn 0.8404 0.1307 0.5260
vn 0.8525 0.3335 0.4024
vn 0.8342 0.0912 0.5438
vn 0.8030 0.5802 0.1361
vn -0.8436 -0.2906 -0.4515
vn -0.8386 -0.3336 -0.4307
vn -0.2976 0.6781 -0.6721
vn 0.5265 0.8358 -0.1559
vn -0.3270 0.6083 -0.7232
vn -0.7500 0.0041 -0.6615
vn -0.8091 -0.0764 -0.5827
vn 0.6391 0.7626 -0.0999
vn -0.1026 0.7166 -0.6899
vn -0.4545 -0.8333 0.3146
vn 0.4365 0.8538 -0.2838
vn -0.8061 -0.2739 -0.5245
vn 0.2145 0.8501 -0.4809
vn 0.4855 -0.4546 0.7468
vn -0.4935 0.3964 -0.7742
vn 0.7033 -0.1494 0.6950
vn -0.7000 0.0343 -0.7133
vn -0.3133 -0.8219 0.4757
vn -0.5280 -0.7793 0.3375
vn -0.1739 0.6016 -0.7797
vn 0.1046 0.7810 -0.6157
vn 0.3911 0.8041 -0.4478
vn 0.1761 -0.6589 0.7313
vn 0.8285 0.2962 0.4752
vn -0.4786 0.3105 -0.8213
vn 0.7729 0.0539 0.6323
vn 0.3929 -0.4516 0.8010
vn -0.7056 -0.0952 -0.7022
vn -0.1252 -0.7257 0.6765
vn 0.5207 -0.2462 0.8175
vn -0.4008 -0.7890 0.4657
vn 0.5789 0.7525 -0.3140
vn -0.4707 0.2244 -0.8533
vn -0.1264 0.5406 -0.8317
vn -0.6733 -0.7271 0.1345
vn 0.1981 0.7117 -0.6740
vn 0.2000 -0.4926 0.8470
vn 0.7768 0.6295 0.0190
vn -0.7358 -0.1747 -0.6542
vn -0.2731 0.3474 -0.8971
vn -0.4720 -0.7356 0.4859
vn -0.0264 -0.5846 0.8109
vn 0.5595 -0.1486 0.8154
vn 0.6112 0.7107 -0.3484
vn 0.8382 0.4372 0.3259
vn -0.4662 0.2113 -0.8591
vn 0.0571 0.5724 -0.8180
vn 0.3374 0.7143 -0.6132
vn -0.1226 0.4529 -0.8831
vn -0.7738 -0.6334 -0.0077
vn 0.2394 0.6493 -0.7219
vn 0.6231 0.6837 -0.3798
vn 0.3181 -0.3566 0.8785
vn 0.0940 -0.5489 0.8306
vn 0.7566 0.6430 -0.1189
vn 0.8027 0.2270 0.5514
vn -0.2436 -0.6941 0.6774
vn -0.6852 -0.6697 0.2865
vn 0.6014 -0.0829 0.7946
vn -0.8474 -0.4931 -0.1969
vn -0.4631 0.2185 -0.8589
vn 0.8640 0.4389 0.2465
vn -0.8343 -0.3258 -0.4447
vn -0.7639 -0.0725 -0.6413
vn 0.0719 -0.5932 0.8018
vn 0.4792 -0.2906 0.8282
vn -0.7928 -0.6040 0.0813
vn -0.1907 0.4825 -0.8549
vn 0.3478 0.6545 -0.6713
vn 0.7767 0.0299 0.6292
vn -0.5924 0.2053 -0.7790
vn 0.8419 0.5376 -0.0476
vn 0.8855 0.3262 0.3308
vn -0.9032 -0.3496 -0.2490
vn 0.4142 -0.4287 0.8029
vn 0.7227 -0.1030 0.6834
vn -0.3201 0.4744 -0.8201
vn -0.5287 -0.6878 0.4974
vn -0.8684 -0.1020 -0.4852
vn -0.9069 -0.3927 -0.1528
vn -0.8040 -0.5593 0.2017
vn 0.6394 0.6321 -0.4378
vn 0.9147 0.2790 0.2923
vn 0.2058 -0.5893 0.7812
vn 0.6023 -0.3300 0.7268
vn 0.3372 0.6404 -0.6901
vn 0.8650 0.4971 -0.0674
vn 0.8331 -0.0249 0.5526
vn 0.0863 -0.6623 0.7442
vn -0.6840 0.2610 -0.6812
vn 0.9231 0.3844 0.0126
vn 0.9390 0.0933 0.3311
vn 0.7330 -0.2600 0.6285
vn -0.9695 -0.2309 -0.0826
vn -0.8025 -0.5218 0.2894
vn 0.5737 -0.4398 0.6910
vn -0.8817 0.0298 -0.4708
vn -0.2771 0.5712 -0.7726
vn -0.4397 -0.6759 0.5914
vn 0.7586 0.5555 -0.3404
vn 0.9592 0.2817 -0.0227
vn -0.5593 0.3917 -0.7306
vn 0.8732 -0.1208 0.4722
vn -0.9238 0.0862 -0.3732
vn -0.9615 -0.2694 0.0538
vn -0.6505 -0.5592 0.5139
vn 0.9810 0.0663 0.1824
vn 0.3030 -0.6367 0.7091
vn 0.8837 -0.2072 0.4196
vn 0.7097 -0.4085 0.5740
vn 0.5162 0.5756 -0.6342
vn 0.7792 0.4829 -0.3995
vn 0.9895 0.1446 0.0083
vn -0.8624 -0.3832 0.3308
vn -0.6782 0.3802 -0.6289
vn -0.9966 -0.0241 -0.0790
vn -0.1197 0.6304 -0.7670
vn 0.8519 0.3595 -0.3809
vn 0.9808 -0.0930 0.1712
vn -0.9569 0.2031 -0.2075
vn -0.2802 -0.6820 0.6755
vn -0.7970 -0.4128 0.4409
vn -0.4539 0.5522 -0.6993
vn 0.2206 0.6523 -0.7251
vn 0.1915 -0.7191 0.6680
vn 0.6473 -0.5128 0.5639
vn 0.9666 0.1715 -0.1906
vn -0.5877 0.6122 -0.5290
vn -0.9802 -0.1355 0.1445
vn 0.9719 -0.1948 0.1322
vn 0.6530 -0.5318 0.5393
vn 0.8891 -0.3861 0.2457
vn -0.9019 0.3654 -0.2304
vn -0.3598 -0.6903 0.6277
vn 0.3364 -0.7287 0.5965
vn 0.8721 0.3074 -0.3808
vn -0.8533 -0.3647 0.3727
vn 0.0324 0.6238 -0.7809
vn 0.5216 0.5646 -0.6396
vn 0.9314 0.1823 -0.3152
vn 0.9828 -0.1808 -0.0382
vn -0.9786 -0.1243 0.1640
vn -0.7874 0.5094 -0.3472
vn 0.8118 -0.5297 0.2457
vn -0.4524 -0.6030 -0.6570
vn -0.3485 -0.6927 -0.6315
vn -0.5658 -0.6513 -0.5057
vn -0.9928 0.1159 -0.0294
vn 0.7635 0.3570 -0.5381
vn 0.9717 -0.2335 -0.0369
vn -0.2145 -0.6353 -0.7419
vn -0.1813 -0.5284 -0.8294
vn -0.2699 -0.3351 -0.9027
vn -0.3315 0.6178 -0.7130
vn 0.3546 0.5181 -0.7784
vn -0.0871 -0.5210 -0.8491
vn 0.1033 -0.6049 -0.7896
vn 0.4884 -0.5375 -0.6874
vn 0.4867 -0.4978 -0.7179
vn 0.0570 -0.6802 -0.7308
vn 0.8715 0.2519 -0.4207
vn -0.4029 -0.9082 0.1137
vn -0.2097 -0.9778 -0.0023
vn -0.4028 -0.9082 0.1137
vn -0.1943 -0.7346 0.6501
vn -0.5734 -0.7883 0.2233
vn -0.1385 -0.7132 -0.6872
vn -0.2303 -0.8012 -0.5524
vn 0.3702 -0.9289 -0.0116
vn 0.3113 -0.9503 0.0072
vn 0.0804 -0.8490 0.5222
vn 0.2356 -0.7442 0.6251
vn 0.2512 -0.9676 0.0261
vn -0.3851 -0.8911 -0.2401
vn 0.7232 -0.6544 -0.2207
s 1
f 3//1 2//2 1//3
f 4//4 5//5 6//6
f 2//2 7//7 8//8
f 9//9 10//9 11//9
f 8//8 1//3 2//2
f 14//10 4//4 15//11
f 14//10 15//11 16//12
f 4//4 17//13 18//14
f 4//4 18//14 15//11
f 17//13 4//4 6//6
f 21//15 19//16 20//17
f 22//18 19//16 21//15
f 19//16 24//19 20//17
f 23//20 15//11 18//14
f 25//21 27//22 28//23
f 30//24 14//10 16//12
f 31//25 32//26 33//25
f 35//27 31//25 33//25
f 23//20 26//28 36//29
f 36//29 37//30 23//20
f 28//23 39//31 38//32
f 29//33 3//1 1//3
f 3//1 13//34 2//2
f 40//35 28//23 27//22
f 16//12 41//36 42//37
f 43//38 44//39 45//40
f 46//41 43//38 45//40
f 39//31 28//23 40//35
f 47//42 42//37 41//36
f 47//42 41//36 48//43
f 49//44 41//36 16//12
f 50//45 48//43 41//36
f 23//20 37//30 51//46
f 52//47 53//47 54//47
f 55//48 56//49 39//31
f 57//50 41//36 49//44
f 16//12 15//11 49//44
f 51//46 15//11 23//20
f 51//46 61//51 15//11
f 61//51 62//52 15//11
f 19//16 25//21 24//19
f 27//22 25//21 19//16
f 40//35 55//48 39//31
f 46//41 45//40 59//53
f 64//54 65//55 56//49
f 56//49 55//48 64//54
f 67//56 49//44 15//11
f 69//57 60//58 66//59
f 62//52 70//60 15//11
f 72//61 68//62 71//63
f 66//59 68//62 73//64
f 64//54 71//63 65//55
f 74//65 21//15 20//17
f 63//66 74//65 20//17
f 22//18 27//22 19//16
f 34//67 44//39 43//38
f 29//33 34//67 43//38
f 58//68 69//57 59//53
f 60//58 69//57 58//68
f 75//69 29//33 43//38
f 3//1 76//70 12//71
f 74//65 12//71 76//70
f 12//71 74//65 63//66
f 13//34 3//1 12//71
f 66//59 78//72 69//57
f 29//33 75//69 3//1
f 43//38 79//73 75//69
f 27//22 80//74 40//35
f 59//53 77//75 46//41
f 77//75 59//53 69//57
f 73//64 78//72 66//59
f 71//63 64//54 72//61
f 76//70 81//76 74//65
f 74//65 81//76 21//15
f 80//74 27//22 22//18
f 83//77 79//73 43//38
f 83//77 43//38 46//41
f 77//75 83//77 46//41
f 64//54 55//48 84//78
f 73//64 68//62 72//61
f 76//70 3//1 82//79
f 75//69 82//79 3//1
f 80//74 55//48 40//35
f 77//75 69//57 78//72
f 72//61 64//54 85//80
f 81//76 76//70 86//81
f 76//70 82//79 86//81
f 55//48 80//74 87//82
f 84//78 85//80 64//54
f 89//83 80//74 22//18
f 80//74 89//83 87//82
f 82//79 75//69 90//84
f 79//73 90//84 75//69
f 94//85 79//73 83//77
f 91//86 94//85 83//77
f 92//87 55//48 87//82
f 92//87 84//78 55//48
f 77//75 91//86 83//77
f 91//86 77//75 78//72
f 73//64 72//61 93//88
f 82//79 90//84 88//89
f 86//81 82//79 88//89
f 72//61 95//90 93//88
f 72//61 85//80 95//90
f 85//80 84//78 96//91
f 86//81 97//92 81//76
f 94//85 90//84 79//73
f 98//93 92//87 87//82
f 84//78 92//87 96//91
f 96//91 99//94 85//80
f 87//82 89//83 100//95
f 96//91 92//87 98//93
f 78//72 101//96 91//86
f 73//64 101//96 78//72
f 99//94 95//90 85//80
f 103//97 97//92 86//81
f 86//81 88//89 103//97
f 103//97 88//89 104//98
f 104//98 88//89 90//84
f 100//95 89//83 105//99
f 106//100 94//85 91//86
f 106//100 90//84 94//85
f 106//100 104//98 90//84
f 100//95 98//93 87//82
f 107//101 96//91 98//93
f 102//102 101//96 73//64
f 97//92 108//103 81//76
f 104//98 109//104 103//97
f 89//83 22//18 105//99
f 100//95 105//99 110//105
f 101//96 106//100 91//86
f 107//101 112//106 113//107
f 111//108 101//96 102//102
f 93//88 114//109 73//64
f 93//88 95//90 113//107
f 95//90 99//94 113//107
f 107//101 99//94 96//91
f 113//107 99//94 107//101
f 115//110 108//103 97//92
f 103//97 115//110 97//92
f 116//111 109//104 104//98
f 116//111 106//100 117//112
f 101//96 117//112 106//100
f 116//111 104//98 106//100
f 107//101 98//93 112//106
f 21//15 105//99 22//18
f 100//95 112//106 98//93
f 110//105 112//106 100//95
f 111//108 117//112 101//96
f 109//104 118//113 115//110
f 103//97 109//104 115//110
f 119//114 110//105 105//99
f 121//115 116//111 117//112
f 116//111 118//113 109//104
f 117//112 111//108 122//116
f 123//117 112//106 120//118
f 114//109 102//102 73//64
f 111//108 102//102 124//119
f 93//88 113//107 125//120
f 21//15 81//76 108//103
f 112//106 110//105 126//121
f 116//111 121//115 118//113
f 128//122 126//121 110//105
f 119//114 128//122 110//105
f 112//106 123//117 113//107
f 126//121 120//118 112//106
f 113//107 127//123 125//120
f 130//124 21//15 108//103
f 130//124 105//99 21//15
f 129//125 115//110 118//113
f 102//102 114//109 124//119
f 113//107 123//117 127//123
f 125//120 114//109 93//88
f 130//124 119//114 105//99
f 131//126 124//119 114//109
f 108//103 132//127 130//124
f 122//116 111//108 124//119
f 125//120 131//126 114//109
f 134//128 108//103 115//110
f 129//125 134//128 115//110
f 122//116 121//115 117//112
f 136//129 120//118 126//121
f 137//130 127//123 123//117
f 123//117 120//118 137//130
f 134//128 132//127 108//103
f 135//131 130//124 132//127
f 133//132 129//125 118//113
f 135//131 119//114 130//124
f 122//116 139//133 121//115
f 127//123 141//134 125//120
f 129//125 133//132 138//135
f 135//131 128//122 119//114
f 121//115 133//132 118//113
f 140//136 124//119 131//126
f 125//120 141//134 143//137
f 131//126 125//120 143//137
f 141//134 127//123 137//130
f 136//129 137//130 120//118
f 129//125 138//135 134//128
f 134//128 144//138 132//127
f 144//138 135//131 132//127
f 122//116 124//119 140//136
f 137//130 136//129 142//139
f 145//140 137//130 142//139
f 137//130 145//140 141//134
f 121//115 157//141 133//132
f 139//133 157//141 121//115
f 126//121 128//122 146//142
f 146//142 136//129 126//121
f 131//126 143//137 140//136
f 138//135 133//132 157//141
f 144//138 134//128 147//143
f 144//138 148//144 135//131
f 148//144 144//138 147//143
f 148//144 149//145 135//131
f 146//142 128//122 135//131
f 139//133 122//116 151//146
f 143//137 152//147 140//136
f 151//146 122//116 140//136
f 143//137 141//134 152//147
f 138//135 147//143 134//128
f 149//145 146//142 135//131
f 142//139 153//148 154//149
f 139//133 151//146 150//150
f 140//136 155//151 151//146
f 141//134 156//152 152//147
f 145//140 156//152 141//134
f 158//153 136//129 146//142
f 142//139 136//129 153//148
f 155//151 140//136 152//147
f 138//135 157//141 159//154
f 147//143 138//135 159//154
f 145//140 154//149 156//152
f 155//151 152//147 160//155
f 156//152 161//156 152//147
f 142//139 154//149 145//140
f 162//157 156//152 154//149
f 162//157 161//156 156//152
f 163//158 164//159 149//145
f 164//159 146//142 149//145
f 158//153 153//148 136//129
f 166//160 154//149 153//148
f 161//156 160//155 152//147
f 159//154 167//161 147//143
f 147//143 167//161 148//144
f 148//144 163//158 149//145
f 167//161 163//158 148//144
f 168//162 157//141 139//133
f 146//142 164//159 165//163
f 165//163 158//153 146//142
f 150//150 151//146 169//164
f 170//165 169//164 160//155
f 154//149 166//160 162//157
f 151//146 155//151 169//164
f 155//151 160//155 169//164
f 167//161 159//154 171//166
f 171//166 159//154 157//141
f 157//141 168//162 171//166
f 160//155 161//156 170//165
f 161//156 162//157 176//167
f 171//166 172//168 167//161
f 164//159 163//158 173//169
f 165//163 164//159 174//170
f 150//150 168//162 139//133
f 158//153 166//160 153//148
f 162//157 166//160 176//167
f 177//171 170//165 161//156
f 177//171 161//156 176//167
f 167//161 172//168 163//158
f 158//153 165//163 174//170
f 166//160 158//153 175//172
f 177//171 176//167 178//173
f 173//169 163//158 172//168
f 164//159 173//169 174//170
f 178//173 166//160 180//174
f 181//175 150//150 179//176
f 179//176 150//150 169//164
f 169//164 170//165 179//176
f 177//171 182//177 170//165
f 179//176 170//165 182//177
f 178//173 176//167 166//160
f 173//169 183//178 174//170
f 187//179 171//166 168//162
f 172//168 184//180 173//169
f 187//179 172//168 171//166
f 150//150 185//181 168//162
f 181//175 185//181 150//150
f 179//176 182//177 186//182
f 179//176 186//182 181//175
f 182//177 178//173 190//183
f 180//174 190//183 178//173
f 180//174 166//160 175//172
f 182//177 177//171 178//173
f 184//180 187//179 188//184
f 185//181 187//179 168//162
f 187//179 184//180 172//168
f 174//170 189//185 158//153
f 175//172 158//153 189//185
f 183//178 191//186 189//185
f 173//169 184//180 183//178
f 184//180 188//184 183//178
f 189//185 174//170 183//178
f 187//179 185//181 192//187
f 185//181 181//175 193//188
f 186//182 193//188 181//175
f 194//189 175//172 189//185
f 195//190 175//172 194//189
f 186//182 190//183 196//191
f 175//172 195//190 180//174
f 190//183 180//174 195//190
f 186//182 182//177 190//183
f 197//192 188//184 192//187
f 188//184 198//193 183//178
f 198//193 191//186 183//178
f 188//184 187//179 192//187
f 193//188 192//187 185//181
f 199//194 190//183 195//190
f 199//194 195//190 201//195
f 197//192 192//187 193//188
f 201//195 202//196 199//194
f 194//189 201//195 195//190
f 190//183 199//194 196//191
f 203//197 188//184 197//192
f 204//198 189//185 191//186
f 204//198 194//189 189//185
f 205//199 201//195 194//189
f 186//182 206//200 193//188
f 202//196 201//195 205//199
f 186//182 196//191 206//200
f 198//193 217//201 191//186
f 188//184 203//197 198//193
f 217//201 204//198 191//186
f 197//192 193//188 207//202
f 200//203 207//202 193//188
f 199//194 208//204 206//200
f 194//189 204//198 205//199
f 199//194 202//196 209//205
f 206//200 196//191 199//194
f 198//193 203//197 210//206
f 203//197 197//192 211//207
f 198//193 210//206 217//201
f 202//196 205//199 212//208
f 193//188 206//200 200//203
f 208//204 200//203 206//200
f 208//204 199//194 209//205
f 211//207 210//206 203//197
f 214//209 215//210 216//211
f 211//207 213//212 210//206
f 210//206 213//212 217//201
f 207//202 211//207 197//192
f 200//203 218//213 207//202
f 209//205 212//208 247//214
f 209//205 202//196 212//208
f 218//213 200//203 208//204
f 218//213 208//204 209//205
f 219//215 215//210 214//209
f 222//216 219//215 221//217
f 220//218 211//207 207//202
f 207//202 223//219 220//218
f 224//220 225//221 222//216
f 222//216 225//221 219//215
f 218//213 223//219 207//202
f 226//222 225//221 227//223
f 228//224 225//221 226//222
f 218//213 229//225 223//219
f 231//226 232//227 233//228
f 217//201 230//229 204//198
f 233//228 235//230 231//226
f 230//229 205//199 204//198
f 237//231 234//232 215//210
f 238//233 239//234 240//234
f 230//229 236//235 241//236
f 241//236 205//199 230//229
f 241//236 212//208 205//199
f 219//215 237//231 215//210
f 239//234 242//237 240//234
f 243//238 244//238 245//238
f 219//215 225//221 237//231
f 225//221 228//224 237//231
f 247//214 212//208 246//239
f 218//213 209//205 247//214
f 218//213 247//214 229//225
