# Blender v2.78 (sub 0) OBJ File: 'exporter.blend'
# www.blender.org
o FJ2888.obj_grp1.1530
v 0.175287 -0.192067 6.065643
v 0.189126 -0.191668 6.052310
v 0.175146 -0.195498 6.065280
v 0.203158 -0.187092 6.042029
v 0.197486 -0.195480 6.044482
v 0.202655 -0.198099 6.044459
v 0.176635 -0.197749 6.066683
v 0.179226 -0.198120 6.069690
v 0.202745 -0.195799 6.053311
v 0.175174 -0.192052 6.065724
v 0.175194 -0.195442 6.065314
v 0.175298 -0.192153 6.065710
v 0.178131 -0.190105 6.069453
v 0.176664 -0.197696 6.066676
v 0.178212 -0.190239 6.069492
v 0.179935 -0.191562 6.071358
v 0.179962 -0.191559 6.071323
v 0.200673 -0.189338 6.055064
v 0.179251 -0.197986 6.069587
v 0.180431 -0.195526 6.071417
v 0.180469 -0.195566 6.071551
v 0.200387 -0.195719 6.041560
v 0.210782 -0.186077 6.039478
v 0.205701 -0.192984 6.033787
v 0.212470 -0.186714 6.029392
v 0.189126 -0.191668 6.052310
v 0.217144 -0.190789 6.013139
v 0.211878 -0.197374 6.026959
v 0.211951 -0.191843 6.023139
v 0.218092 -0.197590 6.010132
v 0.216892 -0.199875 6.025559
v 0.218394 -0.189498 6.036736
v 0.228388 -0.206354 5.991573
v 0.235636 -0.195265 5.970219
v 0.227950 -0.188299 6.004912
v 0.230040 -0.191030 6.017222
v 0.222816 -0.195801 6.030653
v 0.230616 -0.209376 5.973619
v 0.234018 -0.204591 5.955175
v 0.233133 -0.204911 5.998243
v 0.236718 -0.192722 5.997236
v 0.234762 -0.226602 5.940084
v 0.236260 -0.218013 5.934396
v 0.231463 -0.209409 5.962629
v 0.239611 -0.215360 5.968793
v 0.245537 -0.199052 5.964549
v 0.247130 -0.203999 5.972913
v 0.243886 -0.208624 5.977514
v 0.233202 -0.286525 5.912003
v 0.233849 -0.266388 5.907519
v 0.239759 -0.263848 5.902909
v 0.243455 -0.279995 5.901628
v 0.231739 -0.264369 5.913276
v 0.237452 -0.291252 5.907980
v 0.235844 -0.319551 5.930729
v 0.236333 -0.247375 5.910234
v 0.242782 -0.234471 5.913482
v 0.235729 -0.276925 5.926027
v 0.234025 -0.248734 5.925791
v 0.236783 -0.313990 5.940269
v 0.242214 -0.269967 5.929353
v 0.241854 -0.257429 5.930878
v 0.242784 -0.240806 5.938541
v 0.248683 -0.224815 5.921182
v 0.243083 -0.208365 5.940248
v 0.237356 -0.222176 5.952214
v 0.247266 -0.207526 5.942449
v 0.242159 -0.222875 5.955930
v 0.243752 -0.296406 5.906150
v 0.239393 -0.322278 5.925331
v 0.243362 -0.323342 5.920907
v 0.248956 -0.267208 5.901380
v 0.243031 -0.324385 5.921276
v 0.235900 -0.319531 5.930431
v 0.250859 -0.324261 5.918560
v 0.267829 -0.317417 5.924625
v 0.248015 -0.248771 5.905653
v 0.236378 -0.315006 5.938653
v 0.240574 -0.310637 5.944802
v 0.240465 -0.310723 5.944710
v 0.253155 -0.249726 5.931429
v 0.242944 -0.225647 5.952336
v 0.248113 -0.232162 5.945244
v 0.254443 -0.213598 5.945126
v 0.249614 -0.219872 5.956607
v 0.255755 -0.220009 5.944072
v 0.254225 -0.289629 5.904377
v 0.253719 -0.324305 5.917845
v 0.256455 -0.254501 5.908674
v 0.255215 -0.237889 5.916140
v 0.254605 -0.267923 5.927107
v 0.256005 -0.285375 5.933365
v 0.253991 -0.305151 5.946672
v 0.249154 -0.304964 5.947198
v 0.247281 -0.307975 5.947244
v 0.247281 -0.307975 5.947244
v 0.254166 -0.306510 5.947244
v 0.254011 -0.219150 5.931603
v 0.256010 -0.235440 5.935582
v 0.263011 -0.320415 5.919479
v 0.258622 -0.272306 5.906668
v 0.259776 -0.257548 5.918166
v 0.261547 -0.276242 5.920924
v 0.255716 -0.304580 5.946839
v 0.254166 -0.306510 5.947244
v 0.257772 -0.322929 5.918365
v 0.262487 -0.320385 5.919781
v 0.270337 -0.311019 5.933825
v 0.268665 -0.316159 5.926583
v 0.269393 -0.310236 5.935885
v 0.261674 -0.306737 5.944693
v 0.262290 -0.306792 5.944727
v 0.269939 -0.312443 5.931705
v 0.266203 -0.308382 5.940343
vn -0.6797 0.2257 -0.6979
vn -0.7048 0.1870 -0.6844
vn -0.6293 -0.3030 -0.7156
vn -0.3624 0.8979 -0.2500
vn -0.6057 -0.6153 -0.5046
vn -0.1192 -0.9895 -0.0814
vn -0.2810 -0.8555 -0.4350
vn 0.2582 -0.9314 0.2565
vn -0.7491 -0.0918 0.6561
vn -0.7689 -0.0624 0.6363
vn -0.7484 -0.0825 0.6581
vn -0.0400 0.9930 0.1107
vn -0.3579 0.9082 -0.2171
vn -0.7488 -0.0645 0.6596
vn -0.7761 -0.0734 0.6263
vn 0.5258 0.5806 0.6216
vn 0.4954 0.5312 0.6873
vn -0.7572 -0.0988 0.6456
vn -0.7308 -0.0841 0.6774
vn 0.6136 -0.3012 0.7299
vn 0.5447 -0.5664 0.6184
vn -0.5132 -0.7763 -0.3660
vn 0.2016 0.9657 0.1639
vn -0.3750 0.8868 -0.2701
vn -0.7603 0.0840 -0.6441
vn -0.6999 0.2989 -0.6486
vn -0.8836 0.1368 -0.4478
vn -0.6835 -0.6162 -0.3913
vn -0.9084 -0.3184 -0.2711
vn -0.0569 -0.9969 0.0542
vn 0.7273 0.4359 0.5301
vn 0.7170 -0.4794 0.5060
vn -0.8043 0.4013 -0.4383
vn -0.3615 -0.9209 0.1460
vn -0.1906 0.9269 -0.3234
vn 0.1057 0.9897 -0.0964
vn 0.8313 0.4389 0.3409
vn -0.9594 -0.2129 -0.1849
vn -0.6568 -0.7531 0.0389
vn -0.7373 0.5393 -0.4069
vn 0.2236 -0.9368 0.2690
vn 0.7596 0.6384 0.1242
vn -0.9691 -0.2044 0.1383
vn -0.7900 0.4199 -0.4468
vn -0.0503 -0.9128 0.4053
vn 0.9502 0.1282 0.2842
vn 0.7143 -0.5188 0.4696
vn -0.9231 -0.1484 -0.3547
vn -0.7945 0.0288 -0.6065
vn -0.6541 -0.2570 -0.7114
vn -0.4053 0.1436 -0.9028
vn -0.2335 -0.1227 -0.9646
vn -0.9751 -0.1466 -0.1667
vn -0.9917 0.0577 -0.1150
vn -0.6915 0.3207 -0.6473
vn -0.8215 0.0426 0.5686
vn -0.7607 -0.2265 0.6083
vn -0.9363 0.0944 0.3383
vn -0.2483 -0.2158 0.9443
vn -0.2480 0.5686 -0.7843
vn -0.3251 -0.5297 0.7834
vn 0.1802 0.6861 -0.7049
vn -0.1991 0.8065 -0.5568
vn -0.6054 -0.6643 0.4384
vn 0.3750 0.8443 -0.3828
vn -0.4348 -0.8170 0.3788
vn 0.5985 0.7894 -0.1362
vn -0.2427 -0.3755 -0.8945
vn -0.8069 -0.3251 -0.4932
vn -0.5347 -0.4392 -0.7219
vn 0.2119 0.1080 -0.9713
vn 0.1582 -0.8541 0.4955
vn 0.1474 -0.8629 0.4834
vn 0.1390 -0.8661 0.4801
vn 0.1933 -0.8471 0.4950
vn 0.1416 0.3640 -0.9206
vn 0.1507 -0.8611 0.4856
vn -0.6328 0.3042 0.7121
vn 0.1574 -0.8525 0.4984
vn -0.1720 -0.0202 0.9849
vn 0.5500 -0.3027 0.7784
vn 0.7515 0.5374 -0.3827
vn -0.0941 -0.7627 0.6399
vn 0.8875 0.4509 -0.0953
vn 0.6575 -0.5750 0.4868
vn 0.4204 -0.5614 0.7128
vn 0.9889 -0.0160 0.1479
vn 0.4153 -0.1907 -0.8895
vn -0.0073 -0.4035 -0.9149
vn 0.7516 0.2509 -0.6100
vn 0.7966 0.0429 -0.6030
vn 0.7521 0.3911 -0.5305
vn 0.5520 0.0761 0.8304
vn 0.4842 0.4380 0.7575
vn -0.0916 0.5896 0.8025
vn -0.0911 0.3554 0.9303
vn 0.1693 -0.8452 0.5070
vn -0.3350 0.1693 0.9269
vn 0.1568 -0.8472 0.5075
vn 0.7621 -0.3117 0.5675
vn 0.6005 -0.2159 -0.7699
vn 0.9934 0.0642 0.0952
vn 0.9377 0.1724 0.3017
vn 0.1248 0.3319 0.9350
vn 0.0986 0.0965 0.9904
vn 0.2068 -0.8733 0.4411
vn 0.8968 0.0148 -0.4422
vn 0.2030 -0.8450 0.4947
vn 0.1541 -0.8570 0.4918
vn 0.6422 0.4561 0.6160
vn 0.9818 0.1832 0.0502
vn 0.4639 -0.8857 0.0172
vn 0.3854 -0.7853 0.4844
vn 0.1567 -0.8747 0.4585
s 1
f 1//1 2//2 3//3
f 2//2 1//1 4//4
f 3//3 5//5 6//6
f 6//6 7//7 3//3
f 7//7 6//6 8//8
f 10//9 11//10 14//11
f 13//12 4//4 12//13
f 15//14 10//9 16//15
f 18//16 13//12 17//17
f 14//11 19//18 10//9
f 20//19 10//9 19//18
f 16//15 10//9 20//19
f 21//20 9//21 18//16
f 21//20 18//16 17//17
f 5//5 3//3 2//2
f 5//5 22//22 6//6
f 13//12 23//23 4//4
f 18//16 23//23 13//12
f 9//21 21//20 8//8
f 4//4 25//24 2//2
f 24//25 5//5 2//2
f 26//26 25//24 24//25
f 29//27 24//25 25//24
f 9//21 8//8 6//6
f 28//28 24//25 29//27
f 29//27 30//29 28//28
f 24//25 28//28 5//5
f 28//28 6//6 22//22
f 31//30 9//21 6//6
f 23//23 25//24 4//4
f 23//23 18//16 32//31
f 32//31 9//21 37//32
f 18//16 9//21 32//31
f 30//29 29//27 27//33
f 30//29 33//34 31//30
f 25//24 34//35 27//33
f 29//27 25//24 27//33
f 31//30 6//6 28//28
f 28//28 30//29 31//30
f 35//36 25//24 23//23
f 23//23 36//37 35//36
f 23//23 32//31 36//37
f 37//32 9//21 31//30
f 44//38 38//39 30//29
f 27//33 39//40 44//38
f 44//38 30//29 27//33
f 38//39 33//34 30//29
f 39//40 27//33 34//35
f 33//34 40//41 31//30
f 35//36 34//35 25//24
f 41//42 35//36 36//37
f 37//32 31//30 40//41
f 37//32 36//37 32//31
f 42//43 39//40 43//44
f 42//43 44//38 39//40
f 38//39 45//45 33//34
f 45//45 40//41 33//34
f 47//46 36//37 48//47
f 48//47 37//32 40//41
f 48//47 36//37 37//32
f 49//48 50//49 54//50
f 50//49 51//51 52//52
f 52//52 54//50 50//49
f 55//53 53//54 49//48
f 56//55 51//51 50//49
f 50//49 49//48 53//54
f 53//54 56//55 50//49
f 53//54 58//56 59//57
f 60//58 58//56 53//54
f 59//57 58//56 62//59
f 43//44 57//60 56//55
f 53//54 59//57 42//43
f 63//61 59//57 62//59
f 59//57 63//61 42//43
f 64//62 57//60 65//63
f 53//54 43//44 56//55
f 53//54 42//43 43//44
f 57//60 43//44 65//63
f 66//64 42//43 63//61
f 43//44 39//40 65//63
f 42//43 66//64 44//38
f 34//35 65//63 39//40
f 65//63 34//35 67//65
f 44//38 66//64 38//39
f 66//64 68//66 38//39
f 68//66 45//45 38//39
f 46//67 34//35 35//36
f 41//42 36//37 47//46
f 41//42 46//67 35//36
f 54//50 52//52 69//68
f 49//48 54//50 70//69
f 71//70 70//69 54//50
f 51//51 72//71 52//52
f 49//48 70//69 55//53
f 73//72 75//73 74//74
f 76//75 74//74 75//73
f 51//51 56//55 77//76
f 51//51 77//76 72//71
f 55//53 60//58 53//54
f 76//75 78//77 74//74
f 77//76 56//55 57//60
f 79//78 58//56 60//58
f 76//75 80//79 78//77
f 62//59 58//56 61//80
f 62//59 81//81 63//61
f 64//62 65//63 67//65
f 98//82 64//62 67//65
f 82//83 66//64 63//61
f 68//66 66//64 82//83
f 84//84 67//65 46//67
f 34//35 46//67 67//65
f 85//85 82//83 83//86
f 46//67 47//46 84//84
f 86//87 84//84 47//46
f 85//85 86//87 48//47
f 45//45 48//47 40//41
f 82//83 48//47 45//45
f 85//85 48//47 82//83
f 47//46 48//47 86//87
f 46//67 41//42 47//46
f 69//68 52//52 87//88
f 69//68 87//88 88//89
f 71//70 54//50 69//68
f 88//89 71//70 69//68
f 72//71 87//88 52//52
f 77//76 89//90 72//71
f 89//90 101//91 72//71
f 64//62 77//76 57//60
f 64//62 90//92 77//76
f 89//90 77//76 90//92
f 91//93 62//59 61//80
f 61//80 92//94 91//93
f 61//80 93//95 92//94
f 93//95 61//80 58//56
f 93//95 58//56 94//96
f 96//97 80//79 76//75
f 58//56 79//78 94//96
f 95//98 94//96 79//78
f 97//99 96//97 76//75
f 91//93 81//81 62//59
f 98//82 90//92 64//62
f 81//81 82//83 63//61
f 83//86 82//83 81//81
f 81//81 99//100 83//86
f 99//100 85//85 83//86
f 98//82 67//65 84//84
f 86//87 85//85 99//100
f 101//91 100//101 87//88
f 87//88 100//101 88//89
f 72//71 101//91 87//88
f 101//91 89//90 102//102
f 102//102 89//90 90//92
f 81//81 91//93 102//102
f 91//93 103//103 102//102
f 91//93 92//94 103//103
f 92//94 93//95 104//104
f 105//105 94//96 95//98
f 105//105 104//104 94//96
f 90//92 98//82 102//102
f 102//102 99//100 81//81
f 98//82 84//84 86//87
f 102//102 98//82 86//87
f 86//87 99//100 102//102
f 106//106 76//75 75//73
f 100//101 101//91 109//107
f 101//91 102//102 103//103
f 76//75 110//108 111//109
f 103//103 112//110 108//111
f 76//75 111//109 97//99
f 92//94 112//110 103//103
f 104//104 112//110 92//94
f 112//110 104//104 105//105
f 101//91 108//111 109//107
f 107//112 76//75 106//106
f 101//91 103//103 108//111
f 76//75 113//113 110//108
f 110//108 114//114 111//109
