# Blender v2.78 (sub 0) OBJ File: 'exporter.blend'
# www.blender.org
o FJ2927.obj_grp1.1569
v 0.212013 -0.452027 6.040945
v 0.216794 -0.457119 6.031130
v 0.205640 -0.418081 6.092151
v 0.202895 -0.382139 6.127034
v 0.211470 -0.402995 6.091724
v 0.216610 -0.447213 6.032618
v 0.207876 -0.419520 6.098956
v 0.216763 -0.417785 6.070425
v 0.213403 -0.423074 6.100748
v 0.215276 -0.461740 6.041599
v 0.224735 -0.440969 6.034004
v 0.223668 -0.447762 6.028116
v 0.225783 -0.453252 6.027089
v 0.221095 -0.463642 6.033484
v 0.226646 -0.459355 6.028832
v 0.219913 -0.464942 6.045728
v 0.224818 -0.448683 6.069486
v 0.227050 -0.465401 6.045803
v 0.221608 -0.466056 6.040262
v 0.228282 -0.465506 6.037977
v 0.231263 -0.461422 6.031922
v 0.207552 -0.369472 6.128437
v 0.202725 -0.299618 6.188445
v 0.204433 -0.352362 6.157270
v 0.207837 -0.392385 6.128520
v 0.214622 -0.375032 6.121327
v 0.220846 -0.402593 6.093640
v 0.218492 -0.404072 6.119197
v 0.234166 -0.445729 6.033044
v 0.232158 -0.449287 6.029024
v 0.234947 -0.459810 6.046693
v 0.235282 -0.460955 6.041054
v 0.209171 -0.359729 6.155484
v 0.210646 -0.345811 6.147375
v 0.215192 -0.358328 6.154673
v 0.221053 -0.382114 6.121227
v 0.226266 -0.411010 6.089734
v 0.221053 -0.382114 6.121227
v 0.227675 -0.414154 6.093119
v 0.232313 -0.439577 6.070662
v 0.237705 -0.446850 6.039907
v 0.238793 -0.453474 6.038564
v 0.206453 -0.296764 6.188635
v 0.205031 -0.298305 6.184980
v 0.204966 -0.298206 6.184858
v 0.204390 -0.301017 6.191006
v 0.207142 -0.297561 6.185074
v 0.208200 -0.297572 6.185199
v 0.208217 -0.301598 6.191553
v 0.208221 -0.301621 6.191598
v 0.210651 -0.299803 6.190382
v 0.216208 -0.355661 6.142365
v 0.219977 -0.370191 6.136535
v 0.208996 -0.297845 6.189065
v 0.211092 -0.299313 6.187699
v 0.206662 -0.297292 6.188361
v 0.209376 -0.297985 6.185685
v 0.207142 -0.297561 6.185074
v 0.211291 -0.299352 6.187692
vn -0.9999 0.0136 0.0080
vn -0.2498 0.7506 -0.6117
vn -0.6869 0.3477 -0.6381
vn -0.9847 -0.1737 0.0142
vn -0.7663 -0.5251 0.3702
vn -0.9662 -0.1018 -0.2367
vn -0.1449 0.8166 -0.5587
vn -0.8034 -0.5952 -0.0146
vn -0.6683 -0.3041 -0.6789
vn -0.0423 0.7804 -0.6238
vn -0.1696 0.4005 -0.9005
vn -0.0018 -0.0654 -0.9979
vn 0.0929 -0.4569 -0.8846
vn -0.3066 -0.7905 -0.5302
vn -0.3891 -0.8650 0.3168
vn -0.1891 -0.7383 0.6475
vn 0.1980 -0.7531 0.6274
vn 0.2199 -0.9185 0.3285
vn -0.2451 -0.9638 -0.1054
vn 0.5133 -0.5902 -0.6231
vn 0.2928 -0.9364 -0.1936
vn -0.9173 0.3492 0.1917
vn -0.7849 -0.3644 0.5011
vn -0.5774 0.5546 -0.5993
vn 0.2816 0.6897 -0.6671
vn 0.3667 0.7511 -0.5490
vn -0.5171 -0.5875 0.6225
vn 0.4374 -0.5817 0.6858
vn 0.6271 0.5129 -0.5862
vn 0.5329 0.2114 -0.8194
vn 0.7602 -0.5526 0.3417
vn 0.7685 -0.6388 -0.0366
vn 0.2207 0.6316 -0.7432
vn -0.1377 -0.5756 0.8061
vn 0.6079 0.6087 -0.5099
vn 0.6688 -0.3705 0.6446
vn 0.8441 0.4920 -0.2130
vn 0.8983 0.3761 -0.2271
vn 0.9523 0.2932 -0.0852
vn 0.8540 -0.3209 0.4095
vn 0.9248 0.3279 -0.1928
vn 0.9638 -0.1529 -0.2184
vn -0.3322 0.7795 0.5310
vn -0.4636 0.8664 -0.1854
vn -0.5137 0.5092 -0.6906
vn -0.5271 0.0315 0.8492
vn -0.3117 0.9129 -0.2637
vn 0.1804 0.5486 0.8164
vn 0.2416 -0.5009 0.8311
vn 0.8357 -0.2530 0.4874
vn 0.7142 0.5012 -0.4885
vn 0.9858 0.0809 0.1471
vn 0.3758 0.5716 -0.7294
vn 0.5326 0.7083 0.4633
vn -0.2031 0.0336 0.9786
vn 0.2170 0.9757 -0.0320
vn 0.3457 0.9383 -0.0110
vn 0.1990 0.9787 -0.0505
vn 0.9712 0.2135 -0.1056
s 1
f 4//1 5//2 6//3
f 4//1 3//4 7//5
f 4//1 1//6 3//4
f 4//1 6//3 1//6
f 8//7 6//3 5//2
f 7//5 3//4 10//8
f 1//6 10//8 3//4
f 6//3 2//9 1//6
f 11//10 6//3 8//7
f 2//9 6//3 12//11
f 13//12 2//9 12//11
f 13//12 15//13 2//9
f 14//14 2//9 15//13
f 16//15 7//5 10//8
f 9//16 7//5 16//15
f 9//16 16//15 17//17
f 18//18 17//17 16//15
f 1//6 2//9 10//8
f 10//8 2//9 14//14
f 10//8 14//14 19//19
f 16//15 10//8 19//19
f 14//14 21//20 20//21
f 19//19 14//14 20//21
f 23//22 4//1 24//23
f 22//24 5//2 4//1
f 5//2 22//24 26//25
f 27//26 8//7 5//2
f 24//23 4//1 25//27
f 25//27 4//1 7//5
f 9//16 25//27 7//5
f 28//28 25//27 9//16
f 6//3 11//10 12//11
f 8//7 27//26 11//10
f 29//29 11//10 27//26
f 11//10 30//30 12//11
f 29//29 30//30 11//10
f 12//11 30//30 13//12
f 30//30 15//13 13//12
f 15//13 21//20 14//14
f 16//15 19//19 18//18
f 31//31 17//17 18//18
f 18//18 19//19 20//21
f 20//21 32//32 18//18
f 21//20 32//32 20//21
f 23//22 22//24 4//1
f 22//24 34//33 26//25
f 24//23 25//27 33//34
f 27//26 26//25 36//35
f 27//26 5//2 26//25
f 28//28 35//36 33//34
f 28//28 33//34 25//27
f 37//37 38//38 39//39
f 37//37 27//26 36//35
f 35//36 28//28 40//40
f 37//37 39//39 41//41
f 39//39 40//40 42//42
f 37//37 29//29 27//26
f 41//41 29//29 37//37
f 41//41 39//39 42//42
f 42//42 30//30 29//29
f 29//29 41//41 42//42
f 21//20 15//13 30//30
f 28//28 9//16 17//17
f 42//42 40//40 31//31
f 21//20 42//42 32//32
f 31//31 32//32 42//42
f 42//42 21//20 30//30
f 40//40 28//28 17//17
f 40//40 17//17 31//31
f 18//18 32//32 31//31
f 43//43 44//44 23//22
f 22//24 23//22 45//45
f 45//45 34//33 22//24
f 23//22 46//46 43//43
f 47//47 44//44 43//43
f 49//48 43//43 46//46
f 50//49 46//46 33//34
f 35//36 50//49 33//34
f 51//50 50//49 35//36
f 23//22 24//23 46//46
f 46//46 24//23 33//34
f 52//51 26//25 34//33
f 52//51 36//35 26//25
f 38//38 52//51 53//52
f 40//40 53//52 35//36
f 53//52 39//39 38//38
f 39//39 53//52 40//40
f 48//53 34//33 45//45
f 43//43 55//54 54//55
f 55//54 43//43 49//48
f 56//56 54//55 57//57
f 56//56 57//57 58//58
f 57//57 54//55 55//54
f 51//50 53//52 59//59
f 51//50 35//36 53//52
f 48//53 52//51 34//33
f 59//59 52//51 48//53
f 59//59 53//52 52//51
