# Blender v2.78 (sub 0) OBJ File: 'exporter.blend'
# www.blender.org
o FJ2916.obj_grp1.1558
v 0.232273 -0.404258 6.119134
v 0.230524 -0.412971 6.119752
v 0.237904 -0.411086 6.114546
v 0.241568 -0.401619 6.117831
v 0.239686 -0.418770 6.120486
v 0.224864 -0.391646 6.180964
v 0.220876 -0.395752 6.184374
v 0.225419 -0.408528 6.157444
v 0.218401 -0.397318 6.203871
v 0.231107 -0.407298 6.177239
v 0.220671 -0.393133 6.212400
v 0.247865 -0.410537 6.120094
v 0.235962 -0.398076 6.178436
v 0.232593 -0.393733 6.173712
v 0.230103 -0.387568 6.208642
v 0.225552 -0.378551 6.235240
v 0.221024 -0.383864 6.206059
v 0.221024 -0.383864 6.206059
v 0.214826 -0.346828 6.277509
v 0.217471 -0.376326 6.225824
v 0.217471 -0.376326 6.225824
v 0.223548 -0.371526 6.230659
v 0.223548 -0.371526 6.230659
v 0.221124 -0.369573 6.251255
v 0.215238 -0.327402 6.301153
v 0.214250 -0.324113 6.301607
v 0.214272 -0.327494 6.304271
v 0.216814 -0.325357 6.302254
v 0.230103 -0.387568 6.208642
v 0.223548 -0.371526 6.230659
v 0.225516 -0.378500 6.235260
v 0.223259 -0.356593 6.262958
v 0.218701 -0.333753 6.289293
v 0.223259 -0.356593 6.262958
v 0.216854 -0.326967 6.304466
v 0.216158 -0.324800 6.303912
v 0.214846 -0.323972 6.301641
v 0.223548 -0.371526 6.230659
v 0.218799 -0.334487 6.294177
v 0.215971 -0.326666 6.304297
v 0.217039 -0.326203 6.304131
v 0.216086 -0.324874 6.303895
v 0.214950 -0.324538 6.302112
v 0.214342 -0.326049 6.304412
v 0.214413 -0.326967 6.302927
v 0.216571 -0.327075 6.302119
v 0.218799 -0.334487 6.294177
v 0.216299 -0.326064 6.303064
v 0.216086 -0.324874 6.303895
vn -0.0237 -0.1833 -0.9828
vn -0.7875 -0.4189 -0.4520
vn -0.6375 0.5512 -0.5383
vn 0.3494 0.7450 -0.5683
vn 0.1916 -0.9374 -0.2908
vn -0.4049 0.8638 -0.2998
vn -0.9501 0.2254 -0.2155
vn -0.7843 -0.6204 -0.0025
vn -0.9878 0.0930 -0.1248
vn 0.2081 -0.9273 0.3110
vn -0.0438 -0.8629 0.5036
vn 0.9457 -0.1178 -0.3029
vn 0.9885 0.0574 0.1400
vn 0.4917 0.8701 -0.0346
vn 0.5708 0.7923 -0.2155
vn 0.3181 0.9027 -0.2896
vn -0.5453 0.7441 -0.3861
vn -0.9815 -0.1350 0.1356
vn -0.5718 -0.6768 0.4638
vn 0.2286 -0.7957 0.5608
vn -0.4161 0.7948 -0.4416
vn -0.9980 0.0352 -0.0524
vn 0.4436 0.7821 -0.4377
vn -0.3217 0.8109 -0.4888
vn -0.0002 -0.8196 0.5730
vn -0.9633 -0.2684 0.0045
vn -0.9507 -0.3039 0.0618
vn -0.9965 -0.0710 -0.0449
vn -0.0921 -0.7978 0.5958
vn -0.8965 0.4253 -0.1239
vn 0.9499 0.3070 0.0591
vn 0.9518 0.2996 -0.0654
vn 0.9650 0.2619 -0.0158
vn 0.9693 0.2373 -0.0642
vn 0.8613 0.4528 -0.2304
vn 0.6581 -0.5611 0.5020
vn 0.0701 -0.7507 0.6569
vn 0.8280 0.5068 -0.2399
vn 0.7213 0.6355 -0.2754
vn 0.4865 0.7523 -0.4444
vn 0.8758 0.4365 -0.2060
vn -0.9590 0.2383 -0.1535
vn 0.8703 0.4512 -0.1976
vn -0.4191 0.8058 0.4184
vn 0.9128 0.3889 -0.1247
vn 0.9149 0.3881 -0.1107
vn 0.9154 0.3873 -0.1096
vn 0.2536 -0.5709 0.7809
vn 0.2582 -0.5658 0.7831
vn 0.2651 -0.5685 0.7788
s 1
f 3//1 2//2 1//3
f 1//3 4//4 3//1
f 3//1 5//5 2//2
f 6//6 1//3 7//7
f 1//3 2//2 7//7
f 8//8 7//7 2//2
f 8//8 9//9 7//7
f 10//10 11//11 8//8
f 4//4 1//3 6//6
f 12//12 3//1 4//4
f 3//1 12//12 5//5
f 12//12 4//4 13//13
f 14//14 4//4 6//6
f 4//4 14//14 13//13
f 10//10 5//5 12//12
f 8//8 2//2 5//5
f 5//5 10//10 8//8
f 15//15 13//13 14//14
f 17//16 14//14 6//6
f 17//16 15//15 14//14
f 18//17 6//6 7//7
f 19//18 9//19 11//11
f 16//20 11//11 10//10
f 18//17 7//7 20//21
f 7//7 9//9 21//22
f 22//23 15//15 17//16
f 23//24 18//17 20//21
f 11//11 24//25 19//18
f 16//20 24//25 11//11
f 25//26 26//27 23//24
f 21//22 9//9 25//28
f 23//24 20//21 25//26
f 24//25 27//29 19//18
f 9//19 19//18 28//30
f 12//12 13//13 10//10
f 13//13 16//20 10//10
f 29//31 30//32 31//33
f 32//34 31//33 30//32
f 30//32 33//35 32//34
f 16//20 34//36 24//25
f 34//36 35//37 24//25
f 32//34 33//35 36//38
f 37//39 33//35 38//40
f 35//37 27//29 24//25
f 32//34 36//38 39//41
f 28//30 19//18 40//42
f 41//43 39//41 36//38
f 42//44 43//44 44//44
f 35//45 47//46 48//47
f 37//39 36//38 33//35
f 46//48 49//49 45//50
