# Blender v2.78 (sub 0) OBJ File: 'exporter.blend'
# www.blender.org
o FJ2998.obj_grp1.1640
v -0.296087 -0.196446 6.021309
v -0.296265 -0.196480 6.021373
v -0.294865 -0.200449 6.017645
v -0.277447 -0.190557 6.019851
v -0.295767 -0.197927 6.019730
v -0.293598 -0.204899 6.021211
v -0.294822 -0.203097 6.026212
v -0.296477 -0.197323 6.024002
v -0.296195 -0.196578 6.021655
v -0.296564 -0.197198 6.024012
v -0.296157 -0.197405 6.024875
v -0.297229 -0.197132 6.024644
v -0.296619 -0.198608 6.025605
v -0.296225 -0.198434 6.024988
v -0.296209 -0.198749 6.025675
v -0.296127 -0.198822 6.025751
v -0.294002 -0.202631 6.017790
v -0.293034 -0.204278 6.019197
v -0.294036 -0.202477 6.017852
v -0.293037 -0.204259 6.019213
v -0.293732 -0.204971 6.021224
v -0.271179 -0.198107 6.018428
v -0.294036 -0.202477 6.017852
v -0.294763 -0.200450 6.017899
v -0.292052 -0.205094 6.021783
v -0.293693 -0.204907 6.021326
v -0.293693 -0.204907 6.021326
v -0.292071 -0.205043 6.021795
v -0.293383 -0.204503 6.024847
v -0.267747 -0.199682 6.024189
v -0.295200 -0.200839 6.026254
v -0.295128 -0.201975 6.026255
v -0.295151 -0.201282 6.026584
v -0.295748 -0.200114 6.026114
v -0.295165 -0.202057 6.026414
v -0.295175 -0.201296 6.026658
v -0.277574 -0.197886 6.028775
v -0.295748 -0.200114 6.026114
v -0.293383 -0.204503 6.024847
v -0.278742 -0.190891 6.026312
v -0.274886 -0.193170 6.028917
v -0.272463 -0.194521 6.017189
v -0.265149 -0.198910 6.020621
v -0.262897 -0.186840 6.023686
v -0.249612 -0.186741 6.017066
v -0.258397 -0.188431 6.026887
v -0.249097 -0.185505 6.019536
v -0.247585 -0.194613 6.026425
v -0.250043 -0.190528 6.014593
v -0.248145 -0.185834 6.023134
v -0.249876 -0.187717 6.015889
v -0.250801 -0.189061 6.015176
v -0.250272 -0.188922 6.014573
v -0.249503 -0.189466 6.016021
v -0.249880 -0.187752 6.015927
v -0.249392 -0.193262 6.014783
v -0.247335 -0.195929 6.024994
v -0.247584 -0.196666 6.023707
v -0.247528 -0.187784 6.025779
v -0.247096 -0.190930 6.027163
v -0.249880 -0.187752 6.015927
v -0.249552 -0.187039 6.016896
v -0.249418 -0.193189 6.014847
v -0.248482 -0.196157 6.017365
v -0.247742 -0.197172 6.021300
v -0.249656 -0.186459 6.017288
v -0.249059 -0.185631 6.019871
v -0.247513 -0.196637 6.022358
v -0.247513 -0.196637 6.022358
v -0.247436 -0.196686 6.023900
v -0.248305 -0.185904 6.022781
v -0.247555 -0.187755 6.025692
v -0.247595 -0.194593 6.026349
v -0.247318 -0.192759 6.027100
v -0.247094 -0.190773 6.027007
vn -0.1044 0.2996 -0.9483
vn -0.3815 0.5607 -0.7349
vn -0.3537 0.7925 -0.4969
vn -0.2463 0.8107 -0.5312
vn -0.9587 -0.2607 -0.1139
vn -0.9357 -0.3317 -0.1200
vn -0.9386 -0.2711 -0.2135
vn -0.9616 -0.2443 -0.1253
vn -0.9837 -0.0995 -0.1496
vn -0.9424 -0.3153 -0.1113
vn -0.9393 -0.3353 -0.0725
vn -0.6016 -0.6696 -0.4356
vn -0.6002 -0.6704 -0.4362
vn -0.5951 -0.6753 -0.4357
vn 0.0747 -0.6412 -0.7638
vn 0.1809 -0.8073 -0.5618
vn 0.0845 -0.3045 -0.9488
vn -0.9365 -0.3314 -0.1147
vn -0.9370 -0.3283 -0.1195
vn 0.1691 -0.9743 -0.1490
vn -0.0238 -0.9570 -0.2889
vn -0.4455 -0.8907 -0.0904
vn -0.1721 -0.9366 0.3054
vn -0.2972 -0.9311 0.2115
vn -0.7334 -0.6259 -0.2654
vn -0.6693 -0.1040 0.7357
vn -0.8470 -0.2441 0.4723
vn 0.0269 -0.3670 0.9298
vn -0.1266 0.0277 0.9916
vn -0.0299 -0.3821 0.9236
vn 0.5186 0.4246 0.7421
vn -0.6590 -0.0015 0.7521
vn -0.2691 0.7109 0.6497
vn 0.1571 -0.9743 0.1615
vn 0.1060 -0.7417 0.6623
vn -0.3436 0.9008 0.2656
vn -0.2434 0.8429 0.4799
vn -0.0919 0.3436 0.9346
vn -0.0503 0.0564 -0.9971
vn 0.0769 -0.9590 -0.2727
vn -0.1399 0.9755 0.1700
vn 0.0012 0.6203 0.7844
vn -0.1412 0.9759 -0.1666
vn -0.1837 0.8521 -0.4900
vn -0.1683 0.0587 -0.9840
vn 0.6629 -0.5289 -0.5299
vn -0.1738 0.7067 -0.6858
vn -0.1723 0.4154 -0.8932
vn 0.8712 0.1827 -0.4557
vn 0.8910 0.1725 -0.4200
vn 0.9689 0.0895 -0.2306
vn -0.0759 -0.4013 -0.9128
vn -0.0620 0.9284 0.3664
vn 0.1237 -0.7891 0.6017
vn 0.0576 0.1134 0.9919
vn 0.0401 0.6321 0.7739
vn 0.8988 0.1453 -0.4135
vn 0.9504 0.1710 -0.2599
vn 0.9253 0.1323 -0.3554
vn 0.6393 -0.7522 -0.1597
vn 0.9331 0.2313 -0.2752
vn 0.8748 0.3670 -0.3162
vn 0.1782 -0.9228 0.3416
vn 0.5654 0.8248 -0.0019
vn 0.8713 -0.4906 -0.0130
vn 0.9868 0.1138 -0.1157
vn 0.9706 0.1066 -0.2158
vn 0.9762 0.0636 -0.2076
vn 0.1084 -0.5058 0.8558
vn 0.9732 -0.1697 0.1550
vn 0.9444 -0.1910 0.2678
vn 0.9939 0.0012 -0.1100
s 1
f 3//1 2//2 1//3
f 3//1 1//3 4//4
f 5//5 6//6 7//7
f 8//8 9//9 5//5
f 5//5 7//7 8//8
f 8//8 7//7 14//10
f 7//7 15//11 14//10
f 19//12 20//13 21//14
f 22//15 18//16 17//17
f 23//18 6//6 24//19
f 24//19 6//6 5//5
f 25//20 26//21 18//16
f 7//22 27//23 28//24
f 29//25 7//22 28//24
f 25//20 18//16 22//15
f 7//7 31//26 15//11
f 32//27 33//27 34//27
f 37//28 36//29 35//30
f 16//31 38//32 36//29
f 36//29 11//33 16//31
f 25//20 30//34 39//35
f 22//15 30//34 25//20
f 10//36 40//37 1//3
f 40//37 10//36 11//33
f 36//29 37//28 41//38
f 42//39 17//17 3//1
f 42//39 22//15 17//17
f 4//4 1//3 40//37
f 35//30 39//35 37//28
f 41//38 11//33 36//29
f 11//33 41//38 40//37
f 3//1 4//4 42//39
f 30//34 37//28 39//35
f 43//40 30//34 22//15
f 4//4 40//37 44//41
f 44//41 40//37 46//42
f 40//37 41//38 46//42
f 47//43 45//44 4//4
f 44//41 47//43 4//4
f 42//39 4//4 49//45
f 49//45 22//15 42//39
f 64//46 43//40 22//15
f 4//4 51//47 52//48
f 49//45 4//4 52//48
f 53//49 55//50 54//51
f 22//15 49//45 56//52
f 56//52 64//46 22//15
f 4//4 45//44 51//47
f 50//53 47//43 44//41
f 57//54 37//28 30//34
f 46//42 41//38 60//55
f 60//55 59//56 46//42
f 37//28 60//55 41//38
f 61//57 62//58 54//51
f 63//59 53//49 54//51
f 64//46 63//59 54//51
f 65//60 43//40 64//46
f 67//61 62//58 66//62
f 43//40 65//60 30//34
f 58//63 30//34 65//60
f 65//60 64//46 68//64
f 69//65 58//63 65//60
f 68//64 64//46 70//66
f 54//51 62//58 71//67
f 62//58 67//61 71//67
f 71//67 72//68 54//51
f 64//46 54//51 70//66
f 57//54 30//34 58//63
f 48//69 37//28 57//54
f 46//42 50//53 44//41
f 59//56 50//53 46//42
f 48//69 60//55 37//28
f 70//66 74//70 73//71
f 54//51 75//72 70//66
f 75//72 74//70 70//66
f 54//51 72//68 75//72
l 12 13
