# Blender v2.78 (sub 0) OBJ File: 'exporter.blend'
# www.blender.org
o FJ2918.obj_grp1.1560
v 0.227832 -0.397239 6.168021
v 0.222636 -0.400579 6.172782
v 0.230009 -0.402542 6.167504
v 0.236462 -0.382655 6.191087
v 0.235084 -0.399151 6.169591
v 0.224652 -0.401342 6.170239
v 0.224652 -0.401342 6.170239
v 0.229076 -0.406417 6.170732
v 0.222815 -0.400955 6.172544
v 0.236690 -0.378492 6.201649
v 0.223232 -0.404196 6.173234
v 0.226776 -0.406558 6.174385
v 0.240729 -0.374494 6.215708
v 0.241675 -0.379670 6.216240
v 0.230055 -0.407586 6.175774
v 0.244382 -0.375293 6.207228
v 0.234456 -0.405759 6.173366
v 0.241962 -0.389090 6.195675
v 0.249593 -0.376194 6.215245
v 0.236822 -0.378508 6.201740
v 0.248561 -0.379109 6.219189
v 0.248855 -0.370116 6.225661
v 0.250927 -0.372872 6.232046
v 0.254441 -0.370692 6.226810
v 0.254302 -0.374112 6.224947
v 0.254441 -0.370692 6.226810
v 0.254225 -0.374084 6.225921
v 0.264785 -0.368995 6.243616
v 0.255390 -0.375102 6.233053
v 0.266375 -0.370017 6.242419
v 0.266366 -0.369926 6.242339
v 0.255390 -0.375102 6.233053
v 0.255390 -0.375102 6.233053
v 0.264559 -0.372880 6.243812
v 0.265687 -0.371545 6.240893
v 0.264442 -0.370919 6.244956
v 0.266110 -0.372725 6.242840
v 0.265744 -0.372003 6.242738
v 0.264549 -0.372631 6.243935
v 0.266537 -0.371336 6.242818
v 0.266537 -0.371336 6.242818
v 0.263937 -0.370867 6.242084
v 0.264163 -0.371448 6.244338
v 0.263934 -0.371632 6.242211
v 0.264238 -0.370553 6.244283
v 0.266537 -0.371336 6.242818
v 0.266537 -0.371336 6.242818
vn 0.0564 -0.3505 -0.9349
vn -0.2741 0.5509 -0.7883
vn 0.7269 0.1549 -0.6690
vn -0.6117 -0.4999 -0.6132
vn -0.9542 0.2956 0.0470
vn -0.7323 0.2175 -0.6453
vn -0.1057 -0.8224 -0.5590
vn -0.6736 -0.6074 -0.4211
vn -0.4979 0.8532 -0.1555
vn -0.0296 0.8672 -0.4971
vn -0.6418 -0.6870 0.3408
vn -0.7373 -0.3554 0.5746
vn -0.7928 0.5560 0.2495
vn -0.6116 -0.5870 0.5304
vn -0.0227 -0.9622 0.2715
vn 0.7001 -0.6926 -0.1736
vn 0.9214 -0.3885 0.0090
vn 0.3431 0.8060 -0.4824
vn 0.9406 -0.0585 -0.3345
vn -0.0870 0.9544 -0.2855
vn 0.3800 -0.9075 0.1791
vn -0.3869 0.9134 0.1266
vn -0.7222 -0.0278 0.6912
vn 0.2445 0.9349 -0.2575
vn 0.6355 -0.7714 0.0317
vn 0.8425 0.0981 -0.5297
vn 0.8609 0.0817 -0.5022
vn -0.2832 0.9328 0.2231
vn 0.6840 -0.7159 -0.1402
vn -0.0509 -0.9525 0.3003
vn 0.8763 0.0778 -0.4755
vn 0.3125 0.9150 -0.2552
vn -0.4624 -0.6755 0.5744
vn 0.4777 -0.8556 -0.1994
vn -0.5959 -0.4479 0.6666
vn 0.8275 -0.1572 -0.5389
vn -0.7196 0.0918 0.6883
vn 0.8303 -0.3884 -0.3997
vn 0.4319 -0.8880 -0.1577
vn 0.4110 -0.9071 -0.0913
vn 0.9146 -0.0133 -0.4041
vn 0.8895 -0.2760 -0.3642
vn 0.1028 0.9655 0.2391
vn 0.1393 0.9668 0.2144
vn 0.1402 0.9633 0.2290
vn -0.0122 -0.8859 0.4637
vn 0.0191 -0.8884 0.4587
vn 0.0311 -0.9002 0.4344
s 1
f 3//1 1//2 5//3
f 1//2 3//1 6//4
f 2//5 1//2 7//6
f 3//1 8//7 6//4
f 6//4 8//7 9//8
f 1//2 2//5 10//9
f 1//2 10//9 4//10
f 9//8 8//7 12//11
f 11//12 13//13 2//5
f 13//13 11//12 14//14
f 15//15 11//12 12//11
f 15//15 14//14 11//12
f 4//10 5//3 1//2
f 12//11 8//7 15//15
f 17//16 3//1 5//3
f 17//16 8//7 3//1
f 8//7 17//16 15//15
f 18//17 17//16 5//3
f 5//3 16//18 18//17
f 15//15 17//16 14//14
f 2//5 13//13 10//9
f 5//3 4//10 16//18
f 19//19 18//17 16//18
f 4//10 10//9 20//20
f 4//10 20//20 16//18
f 18//17 14//14 17//16
f 18//17 21//21 14//14
f 20//20 13//13 16//18
f 22//22 13//13 23//23
f 23//23 13//13 14//14
f 13//13 22//22 16//18
f 24//24 16//18 22//22
f 21//21 18//17 19//19
f 25//25 21//21 19//19
f 19//19 16//18 26//26
f 26//26 27//27 19//19
f 28//28 24//24 22//22
f 27//29 21//21 25//25
f 21//21 29//30 14//14
f 27//27 26//26 30//31
f 31//32 24//24 28//28
f 32//33 23//23 14//14
f 27//29 33//34 21//21
f 23//23 28//28 22//22
f 34//35 23//23 32//33
f 35//36 27//27 30//31
f 28//28 23//23 36//37
f 35//36 37//38 27//27
f 27//29 38//39 33//34
f 23//23 34//35 36//37
f 38//39 39//40 33//34
f 40//41 35//36 30//31
f 37//38 35//36 41//42
f 46//43 42//44 43//45
f 47//46 45//47 44//48
