# Blender v2.78 (sub 0) OBJ File: 'exporter.blend'
# www.blender.org
o FJ2934.obj_grp1.1576
v 0.361072 -0.501495 5.741171
v 0.360149 -0.505337 5.736823
v 0.370808 -0.496383 5.731772
v 0.364377 -0.515123 5.735013
v 0.396087 -0.536125 5.673328
v 0.370107 -0.495312 5.741164
v 0.369104 -0.502734 5.749900
v 0.365593 -0.511612 5.747840
v 0.380944 -0.499674 5.738089
v 0.374543 -0.498546 5.746711
v 0.370976 -0.514270 5.747900
v 0.380239 -0.509832 5.745360
v 0.407306 -0.550346 5.680295
v 0.373640 -0.738204 5.527015
v 0.373181 -0.738597 5.529986
v 0.392307 -0.683975 5.556605
v 0.375895 -0.737307 5.525242
v 0.375292 -0.737118 5.524886
v 0.375495 -0.740506 5.531211
v 0.373181 -0.738597 5.529986
v 0.377883 -0.738248 5.524888
v 0.378311 -0.741254 5.529611
v 0.373107 -0.738603 5.530051
v 0.392307 -0.683975 5.556605
v 0.378080 -0.741139 5.529863
v 0.405408 -0.672990 5.569034
v 0.397737 -0.551702 5.668643
v 0.402220 -0.528856 5.677419
v 0.411228 -0.536067 5.685744
v 0.379668 -0.739958 5.528156
v 0.378311 -0.741254 5.529611
v 0.379733 -0.739977 5.528152
v 0.416658 -0.646931 5.581510
v 0.404157 -0.661733 5.576834
v 0.409658 -0.577517 5.641484
v 0.393101 -0.692421 5.546484
v 0.405773 -0.668137 5.561266
v 0.405783 -0.667605 5.561675
v 0.406102 -0.634228 5.590647
v 0.404764 -0.644035 5.584464
v 0.408889 -0.644450 5.588597
v 0.407105 -0.565168 5.641390
v 0.410848 -0.589522 5.621500
v 0.407105 -0.565168 5.641390
v 0.415159 -0.606669 5.600214
v 0.418547 -0.628293 5.587398
v 0.413618 -0.649104 5.585120
v 0.405570 -0.672665 5.569281
v 0.410261 -0.636752 5.594444
v 0.413665 -0.611870 5.613926
v 0.413665 -0.611870 5.613926
v 0.418713 -0.567253 5.656456
v 0.417374 -0.551697 5.651153
v 0.421550 -0.622165 5.595335
v 0.423136 -0.604333 5.619851
v 0.421550 -0.622165 5.595335
v 0.423245 -0.588158 5.617256
v 0.427074 -0.586049 5.626614
vn -0.9698 0.0862 -0.2283
vn -0.8679 0.4284 0.2516
vn -0.1842 0.8875 -0.4223
vn -0.6913 0.4270 -0.5830
vn -0.1273 0.9691 0.2112
vn -0.5842 -0.4349 0.6852
vn -0.7825 -0.6225 -0.0105
vn -0.1685 0.2887 0.9425
vn -0.0011 -0.6377 0.7703
vn 0.7297 0.6615 0.1730
vn 0.3449 0.6422 0.6846
vn 0.6728 -0.1686 0.7203
vn -0.7941 0.4792 -0.3739
vn -0.9265 0.3741 -0.0411
vn -0.8156 0.4694 -0.3383
vn -0.3785 -0.8174 -0.4343
vn -0.4198 -0.7989 -0.4308
vn -0.4481 -0.8159 -0.3653
vn -0.3638 -0.8163 -0.4486
vn -0.4280 -0.8121 -0.3966
vn 0.2296 0.8367 -0.4972
vn 0.9408 0.2551 0.2230
vn 0.2151 -0.8338 -0.5084
vn 0.2041 -0.8146 -0.5429
vn 0.2017 -0.8176 -0.5394
vn 0.9364 -0.3035 -0.1762
vn 0.9885 -0.1464 -0.0391
vn 0.3060 -0.5437 0.7815
vn -0.2320 -0.4328 0.8712
vn -0.3183 -0.3824 0.8675
vn -0.8888 0.1430 0.4354
vn 0.5588 -0.5479 0.6225
vn -0.8582 -0.5133 0.0002
vn -0.5993 -0.7716 0.2131
vn -0.0527 0.5096 -0.8588
vn -0.0055 0.4728 -0.8812
vn 0.5508 0.2367 -0.8004
vn -0.6754 -0.2827 0.6811
vn -0.7267 -0.3279 0.6037
vn -0.8563 0.4225 -0.2971
vn -0.0616 0.6941 -0.7173
vn -0.9642 -0.2289 0.1337
vn -0.7988 -0.4509 0.3981
vn -0.9490 -0.2250 -0.2208
vn -0.2134 0.6160 -0.7583
vn 0.1075 0.5179 -0.8486
vn 0.6261 0.3236 -0.7094
vn 0.4983 -0.5642 0.6583
vn -0.1508 -0.5341 0.8319
vn -0.9397 0.1273 -0.3174
vn 0.0241 -0.6434 0.7651
vn 0.6629 -0.5205 0.5381
vn -0.8724 -0.2743 0.4045
vn -0.0231 -0.6688 0.7431
vn 0.5868 -0.5316 0.6108
vn 0.5727 0.6919 -0.4396
vn 0.9595 -0.2532 0.1238
vn 0.8876 0.1967 -0.4166
vn 0.5256 0.5476 -0.6511
vn 0.9938 0.1106 -0.0139
s 1
f 2//1 1//2 3//3
f 3//3 5//4 2//1
f 3//3 1//2 6//5
f 8//6 1//2 2//1
f 2//1 4//7 8//6
f 7//8 1//2 8//6
f 4//7 11//9 8//6
f 2//1 5//4 4//7
f 9//10 3//3 6//5
f 7//8 6//5 1//2
f 9//10 6//5 10//11
f 10//11 6//5 7//8
f 7//8 8//6 11//9
f 7//8 11//9 12//12
f 14//13 15//14 16//15
f 18//16 19//17 20//18
f 21//19 22//20 18//16
f 22//20 19//17 18//16
f 9//10 28//21 3//3
f 9//10 10//11 12//12
f 9//10 12//12 29//22
f 10//11 7//8 12//12
f 21//23 30//24 31//25
f 32//26 33//27 25//28
f 23//29 34//30 24//31
f 26//32 25//28 33//27
f 34//30 23//29 25//28
f 28//21 5//4 3//3
f 4//7 5//4 27//33
f 4//7 27//33 11//9
f 13//34 11//9 27//33
f 28//21 9//10 29//22
f 13//34 12//12 11//9
f 36//35 17//36 14//13
f 17//36 36//35 37//37
f 32//26 17//36 37//37
f 33//27 32//26 37//37
f 14//13 16//15 36//35
f 34//30 25//28 26//32
f 24//31 34//30 40//38
f 34//30 41//39 40//38
f 36//35 16//15 39//40
f 42//41 5//4 28//21
f 43//42 35//43 44//44
f 27//33 44//44 35//43
f 5//4 44//44 27//33
f 36//35 45//45 38//46
f 38//46 37//37 36//35
f 39//40 45//45 36//35
f 45//45 46//47 38//46
f 47//48 34//30 48//49
f 47//48 26//32 33//27
f 46//47 33//27 37//37
f 26//32 48//49 34//30
f 45//45 39//40 43//50
f 49//51 47//48 55//52
f 34//30 47//48 49//51
f 50//53 43//42 41//39
f 41//39 43//42 40//38
f 51//54 49//51 55//52
f 52//55 35//43 51//54
f 50//53 35//43 43//42
f 51//54 55//52 52//55
f 28//21 45//45 42//41
f 42//41 45//45 43//50
f 45//45 28//21 53//56
f 29//22 53//56 28//21
f 13//34 27//33 35//43
f 35//43 52//55 13//34
f 52//55 12//12 13//34
f 12//12 52//55 29//22
f 54//57 55//52 33//27
f 46//47 56//58 33//27
f 56//58 46//47 57//59
f 54//57 58//60 55//52
f 55//52 47//48 33//27
f 45//45 57//59 46//47
f 58//60 56//58 57//59
f 57//59 45//45 53//56
f 58//60 57//59 53//56
f 53//56 29//22 58//60
f 29//22 52//55 58//60
f 52//55 55//52 58//60
