# Blender v2.78 (sub 0) OBJ File: 'exporter.blend'
# www.blender.org
o FJ2915.obj_grp1.1557
v 0.166676 -0.381409 5.988780
v 0.166026 -0.395596 5.997124
v 0.176671 -0.385019 5.987953
v 0.177052 -0.369893 5.992549
v 0.166552 -0.369725 5.996650
v 0.159190 -0.377510 5.997954
v 0.157251 -0.384607 6.001233
v 0.161024 -0.393380 6.005754
v 0.164296 -0.369617 6.007565
v 0.175188 -0.365868 6.004951
v 0.158371 -0.381187 6.010655
v 0.191202 -0.401199 6.034612
v 0.192689 -0.385977 6.045128
v 0.183362 -0.376005 5.991697
v 0.184478 -0.394480 5.997871
v 0.218036 -0.409482 6.057072
v 0.225982 -0.384595 6.071075
v 0.188172 -0.395568 6.038602
v 0.227799 -0.393235 6.043112
v 0.221409 -0.404320 6.043214
v 0.225297 -0.383398 6.047697
v 0.211000 -0.406623 6.058836
v 0.220161 -0.389287 6.078879
v 0.209944 -0.396012 6.069775
v 0.172969 -0.442408 6.280082
v 0.126605 -0.456567 6.326014
v 0.127714 -0.454543 6.325208
v 0.130504 -0.453360 6.330349
v 0.169129 -0.430543 6.285183
v 0.171428 -0.434038 6.292954
v 0.126867 -0.456454 6.326101
v 0.127753 -0.455824 6.329105
v 0.167078 -0.435497 6.280436
v 0.129762 -0.461384 6.327377
v 0.133348 -0.458767 6.330362
v 0.176561 -0.441918 6.281997
v 0.211000 -0.406623 6.058836
v 0.209944 -0.396012 6.069775
v 0.179155 -0.434434 6.263870
v 0.188352 -0.435295 6.275269
v 0.240273 -0.403818 6.071805
v 0.179673 -0.434204 6.263052
v 0.173129 -0.442459 6.279859
v 0.236295 -0.416908 6.094562
v 0.223094 -0.407378 6.100061
v 0.224398 -0.400540 6.103626
v 0.209755 -0.417329 6.212212
v 0.198073 -0.428916 6.233644
v 0.203324 -0.419082 6.245921
v 0.211102 -0.433189 6.226110
v 0.188341 -0.436698 6.256714
v 0.246747 -0.398340 6.094618
v 0.246472 -0.412388 6.101824
v 0.234277 -0.400196 6.134746
v 0.242890 -0.397010 6.122150
v 0.226477 -0.413301 6.143266
v 0.222144 -0.421287 6.173515
v 0.212640 -0.426022 6.204536
v 0.223744 -0.409674 6.194003
v 0.198656 -0.428123 6.261283
v 0.232549 -0.424736 6.154191
v 0.246672 -0.420152 6.151782
v 0.225951 -0.409582 6.166318
v 0.234927 -0.425096 6.194860
v 0.216573 -0.422365 6.232603
v 0.213917 -0.423421 6.237372
v 0.250432 -0.411187 6.127808
v 0.248542 -0.409788 6.149294
v 0.236692 -0.411172 6.186282
vn -0.4331 -0.7496 -0.5005
vn -0.4306 0.0456 -0.9014
vn 0.2148 -0.2138 -0.9530
vn 0.1408 0.7406 -0.6570
vn -0.8768 0.3253 -0.3540
vn -0.9612 -0.1631 -0.2223
vn -0.4536 0.7668 -0.4542
vn -0.7193 -0.6799 0.1424
vn -0.5761 0.7824 0.2364
vn 0.0459 0.9989 0.0123
vn -0.8944 0.0940 0.4374
vn -0.5164 -0.8115 0.2736
vn -0.6649 0.2915 0.6877
vn 0.5934 0.3233 -0.7371
vn 0.3981 -0.6515 -0.6458
vn -0.1364 -0.9856 -0.0997
vn 0.1263 0.9706 0.2050
vn -0.7300 -0.4042 0.5510
vn 0.8552 0.0271 -0.5175
vn 0.6581 0.7270 -0.1960
vn 0.5120 -0.7133 -0.4786
vn -0.7614 -0.5238 0.3819
vn -0.5633 0.7247 0.3969
vn -0.7842 0.2695 0.5590
vn -0.2557 -0.8433 -0.4727
vn -0.3542 -0.9245 0.1409
vn -0.8289 -0.4376 -0.3486
vn -0.1876 0.5535 0.8114
vn -0.3217 0.9465 0.0253
vn -0.7828 0.5844 -0.2136
vn -0.8731 0.4608 0.1592
vn -0.7679 0.1332 0.6266
vn -0.7876 0.0712 -0.6121
vn 0.3351 -0.4756 0.8133
vn 0.4054 -0.9132 0.0416
vn 0.4580 0.5723 0.6802
vn -0.3431 -0.9344 0.0964
vn -0.8568 -0.3544 0.3746
vn -0.6842 -0.5252 -0.5059
vn 0.8784 -0.3178 -0.3569
vn -0.6593 -0.5329 -0.5304
vn -0.7770 -0.3990 -0.4869
vn 0.7744 -0.3373 0.5353
vn 0.0427 -0.9877 -0.1502
vn -0.8860 -0.4251 0.1853
vn -0.9274 0.2445 0.2831
vn -0.7295 -0.3904 -0.5616
vn -0.8439 0.4118 -0.3438
vn 0.0917 -0.9891 -0.1154
vn -0.4300 -0.7839 -0.4479
vn 0.2709 0.8934 0.3584
vn 0.9045 0.4141 -0.1022
vn 0.8254 -0.5294 -0.1960
vn -0.5012 0.8471 0.1764
vn 0.4378 0.8781 0.1929
vn -0.2355 -0.9624 -0.1355
vn -0.9992 -0.0324 -0.0227
vn -0.9146 -0.3018 -0.2691
vn -0.8110 -0.4551 -0.3676
vn -0.1242 0.9870 0.1018
vn 0.7694 0.2333 0.5946
vn 0.7610 -0.6465 0.0540
vn -0.9075 0.4113 -0.0852
vn 0.8149 0.1879 0.5483
vn 0.6523 0.5649 0.5054
vn 0.8242 -0.5065 0.2533
vn 0.9942 -0.1065 0.0147
vn 0.9141 0.3300 0.2355
vn 0.6999 0.6112 0.3697
s 1
f 2//1 1//2 3//3
f 1//2 4//4 3//3
f 6//5 1//2 7//6
f 1//2 6//5 5//7
f 1//2 5//7 4//4
f 1//2 2//1 7//6
f 2//1 8//8 7//6
f 5//7 9//9 10//10
f 9//9 6//5 11//11
f 6//5 7//6 11//11
f 6//5 9//9 5//7
f 7//6 8//8 11//11
f 2//1 12//12 8//8
f 13//13 9//9 11//11
f 14//14 3//3 4//4
f 2//1 3//3 15//15
f 10//10 4//4 5//7
f 2//1 15//15 16//16
f 12//12 2//1 16//16
f 9//9 17//17 10//10
f 8//8 18//18 11//11
f 8//8 12//12 18//18
f 3//3 14//14 15//15
f 19//19 15//15 14//14
f 17//17 9//9 13//13
f 11//11 18//18 13//13
f 21//20 14//14 4//4
f 16//16 15//15 20//21
f 21//20 19//19 14//14
f 15//15 19//19 20//21
f 10//10 21//20 4//4
f 21//20 10//10 17//17
f 18//18 12//12 22//22
f 13//13 23//23 17//17
f 18//18 24//24 13//13
f 25//25 34//26 26//27
f 28//28 29//29 27//30
f 27//30 31//31 32//32
f 33//33 26//27 27//30
f 33//33 25//25 26//27
f 32//32 28//28 27//30
f 34//26 32//32 26//27
f 34//26 35//34 32//32
f 32//32 35//34 28//28
f 36//35 35//34 34//26
f 28//28 35//34 30//36
f 23//23 13//13 24//24
f 16//16 37//37 12//12
f 18//18 22//22 38//38
f 39//39 25//25 33//33
f 29//29 33//33 27//30
f 30//36 29//29 28//28
f 19//19 41//40 20//21
f 33//33 42//41 39//39
f 39//39 43//42 25//25
f 34//26 25//25 36//35
f 30//36 35//34 40//43
f 36//35 40//43 35//34
f 44//44 16//16 20//21
f 20//21 41//40 44//44
f 16//16 45//45 37//37
f 23//23 24//24 46//46
f 22//22 45//45 38//38
f 46//46 38//38 45//45
f 16//16 44//44 45//45
f 48//47 29//29 47//48
f 29//29 48//47 33//33
f 48//47 42//41 33//33
f 48//47 50//49 39//39
f 50//49 51//50 39//39
f 39//39 51//50 43//42
f 30//36 49//51 29//29
f 19//19 21//20 52//52
f 19//19 52//52 41//40
f 53//53 44//44 41//40
f 17//17 23//23 54//54
f 54//54 23//23 46//46
f 55//55 17//17 54//54
f 44//44 61//56 45//45
f 45//45 61//56 56//57
f 46//46 45//45 56//57
f 56//57 54//54 46//46
f 57//58 58//59 47//48
f 47//48 58//59 48//47
f 47//48 29//29 59//60
f 50//49 48//47 58//59
f 50//49 36//35 51//50
f 50//49 40//43 36//35
f 49//51 59//60 29//29
f 25//25 51//50 36//35
f 30//36 40//43 60//61
f 41//40 52//52 53//53
f 17//17 52//52 21//20
f 55//55 52//52 17//17
f 61//56 44//44 62//62
f 44//44 53//53 62//62
f 63//63 54//54 56//57
f 56//57 61//56 57//58
f 63//63 59//60 54//54
f 56//57 57//58 63//63
f 57//58 61//56 50//49
f 58//59 57//58 50//49
f 57//58 47//48 63//63
f 63//63 47//48 59//60
f 65//64 49//51 66//65
f 64//66 40//43 50//49
f 64//66 65//64 40//43
f 66//65 49//51 60//61
f 40//43 65//64 60//61
f 60//61 49//51 30//36
f 52//52 67//67 53//53
f 62//62 53//53 67//67
f 52//52 55//55 68//68
f 52//52 68//68 67//67
f 67//67 68//68 62//62
f 61//56 62//62 64//66
f 55//55 69//69 68//68
f 59//60 55//55 54//54
f 59//60 69//69 55//55
f 61//56 64//66 50//49
f 69//69 64//66 68//68
f 62//62 68//68 64//66
f 69//69 65//64 64//66
f 59//60 49//51 69//69
f 49//51 65//64 69//69
