# Blender v2.78 (sub 0) OBJ File: 'exporter.blend'
# www.blender.org
o FJ2960.obj_grp1.1602
v 0.374035 -0.442048 5.684642
v 0.371310 -0.443159 5.679929
v 0.368559 -0.437974 5.681738
v 0.374801 -0.433567 5.686502
v 0.427504 -0.461498 5.656896
v 0.408357 -0.458863 5.659276
v 0.369262 -0.438514 5.675960
v 0.370055 -0.433324 5.676290
v 0.374639 -0.429895 5.678973
v 0.408357 -0.458863 5.659276
v 0.397284 -0.446919 5.659209
v 0.442922 -0.473073 5.638694
v 0.407552 -0.446428 5.665836
v 0.419734 -0.453953 5.649340
v 0.451290 -0.480662 5.641576
v 0.449271 -0.479355 5.639277
v 0.436073 -0.461299 5.645183
v 0.461097 -0.479576 5.642188
v 0.461097 -0.479576 5.642188
v 0.495443 -0.507264 5.623613
v 0.464380 -0.488007 5.637306
v 0.443736 -0.465511 5.641176
v 0.503097 -0.506669 5.623222
v 0.464380 -0.488007 5.637306
v 0.460280 -0.477934 5.633934
v 0.500395 -0.510391 5.626883
v 0.502980 -0.509141 5.627523
v 0.500480 -0.505814 5.628573
v 0.461097 -0.479576 5.642188
v 0.500480 -0.505814 5.628573
v 0.502949 -0.509081 5.627399
v 0.500249 -0.510721 5.627022
v 0.500307 -0.506287 5.621489
v 0.499421 -0.509507 5.623578
v 0.502949 -0.509081 5.627399
v 0.500395 -0.510391 5.626883
v 0.500574 -0.510546 5.623034
v 0.500574 -0.510546 5.623034
v 0.500574 -0.510546 5.623034
v 0.503024 -0.506767 5.623269
vn -0.1300 -0.5425 0.8299
vn -0.9355 0.0263 0.3524
vn -0.6236 -0.7780 0.0763
vn 0.2155 -0.3359 0.9169
vn -0.0493 0.5031 0.8628
vn -0.0941 -0.8840 0.4579
vn -0.8338 -0.1756 -0.5234
vn -0.6994 0.6025 -0.3845
vn -0.0925 0.9956 -0.0133
vn -0.4005 0.2070 -0.8926
vn -0.4288 -0.1891 -0.8834
vn -0.5132 -0.8097 -0.2845
vn 0.5723 0.7262 0.3809
vn -0.0031 0.6541 -0.7564
vn -0.3680 -0.8841 0.2879
vn -0.5464 -0.8038 -0.2352
vn 0.4209 0.8345 -0.3555
vn 0.1231 -0.3993 0.9085
vn -0.5179 -0.5828 -0.6262
vn -0.2374 -0.7688 0.5938
vn 0.6437 0.7114 0.2819
vn 0.6029 0.7629 0.2337
vn 0.7388 0.5355 -0.4091
vn 0.0109 -0.4852 0.8743
vn 0.0720 0.6172 -0.7835
vn -0.0266 -0.4430 0.8961
vn -0.0709 -0.4279 0.9010
vn 0.2225 -0.0661 0.9727
vn 0.2594 -0.0969 0.9609
vn 0.2614 -0.1048 0.9595
vn 0.6586 0.7239 0.2056
vn 0.7998 0.5001 0.3321
vn -0.5606 -0.8241 -0.0812
vn 0.1431 0.2108 -0.9670
vn 0.4909 -0.7935 -0.3596
vn 0.4605 -0.8219 -0.3353
vn 0.4824 -0.8003 -0.3562
vn -0.5440 -0.8352 -0.0809
vn -0.3203 -0.3433 -0.8829
vn 0.4803 -0.2744 -0.8331
vn 0.5303 -0.7439 -0.4067
s 1
f 1//1 3//2 2//3
f 1//1 5//4 4//5
f 5//4 1//1 6//6
f 3//2 7//7 2//3
f 3//2 1//1 4//5
f 8//8 7//7 3//2
f 8//8 3//2 4//5
f 9//9 8//8 4//5
f 1//1 2//3 6//6
f 11//10 7//7 8//8
f 12//11 10//12 2//3
f 12//11 2//3 7//7
f 4//5 5//4 13//13
f 9//9 4//5 13//13
f 9//9 13//13 14//14
f 11//10 9//9 14//14
f 9//9 11//10 8//8
f 5//4 6//6 15//15
f 15//15 6//6 16//16
f 16//16 10//12 12//11
f 12//11 7//7 11//10
f 17//17 14//14 13//13
f 5//4 18//18 13//13
f 11//10 14//14 12//11
f 20//19 16//16 12//11
f 15//15 21//20 5//4
f 17//17 13//13 22//21
f 13//13 19//22 22//21
f 19//22 23//23 22//21
f 18//18 5//4 24//24
f 23//23 25//25 22//21
f 14//14 25//25 12//11
f 17//17 25//25 14//14
f 24//24 26//26 27//27
f 27//28 28//29 29//30
f 30//31 23//23 19//22
f 31//32 23//23 30//31
f 15//15 16//16 32//33
f 33//34 25//25 23//23
f 24//24 27//27 18//18
f 25//25 33//34 12//11
f 12//11 33//34 20//19
f 34//35 35//36 36//37
f 20//19 37//38 32//33
f 33//34 38//39 20//19
f 39//40 33//34 23//23
f 34//35 40//41 35//36
f 32//33 16//16 20//19
