# Blender v2.78 (sub 0) OBJ File: 'exporter.blend'
# www.blender.org
o FJ2987.obj_grp1.1629
v -0.223516 -0.630860 5.705731
v -0.231254 -0.635287 5.707702
v -0.228667 -0.639927 5.713437
v -0.223600 -0.631235 5.705988
v -0.228179 -0.632348 5.706458
v -0.221536 -0.631597 5.709462
v -0.228179 -0.632348 5.706458
v -0.224542 -0.640603 5.711627
v -0.220721 -0.632396 5.709898
v -0.198342 -0.694646 5.653688
v -0.229791 -0.639201 5.705848
v -0.196979 -0.694696 5.653811
v -0.207397 -0.670169 5.666065
v -0.222692 -0.632369 5.709409
v -0.188501 -0.701770 5.633290
v -0.220194 -0.633862 5.711371
v -0.195523 -0.687566 5.663295
v -0.194210 -0.688794 5.645796
v -0.194164 -0.682458 5.653443
v -0.198032 -0.684026 5.649715
v -0.185862 -0.692494 5.640620
v -0.193087 -0.681763 5.656361
v -0.181566 -0.707810 5.635334
v -0.154773 -0.719706 5.593974
v -0.168730 -0.709988 5.624536
v -0.168730 -0.709988 5.624536
v -0.168730 -0.709988 5.624536
v -0.157415 -0.726588 5.595007
v -0.157415 -0.726588 5.595007
v -0.151869 -0.729461 5.594866
v -0.154773 -0.719706 5.593974
v -0.157455 -0.726629 5.594904
v -0.151869 -0.729461 5.594866
v -0.147253 -0.724618 5.595716
v -0.154773 -0.719706 5.593974
v -0.147754 -0.723847 5.594718
v -0.146810 -0.723019 5.594301
v -0.151838 -0.729701 5.594960
v -0.180687 -0.696411 5.635897
vn -0.2076 0.9526 0.2224
vn -0.5626 0.2491 0.7883
vn -0.5433 0.2532 0.8004
vn -0.3764 0.3393 0.8621
vn -0.8843 -0.0441 -0.4649
vn -0.8005 -0.5804 0.1492
vn -0.3464 -0.7732 0.5313
vn -0.7410 0.0279 0.6709
vn 0.0633 -0.8247 0.5621
vn -0.4772 0.5025 -0.7210
vn 0.4556 0.6562 -0.6015
vn 0.8637 0.4648 -0.1949
vn -0.7614 -0.3067 -0.5711
vn 0.9246 0.2249 0.3076
vn 0.8926 0.3347 0.3021
vn 0.7131 0.6379 -0.2907
vn 0.4672 -0.5247 0.7116
vn 0.2316 0.8622 -0.4505
vn 0.1012 0.8176 -0.5668
vn 0.5197 0.8304 -0.2010
vn -0.3534 0.5491 -0.7574
vn -0.5901 -0.8071 0.0194
vn -0.6555 0.2916 -0.6966
vn 0.5313 0.7934 -0.2971
vn 0.8564 0.2035 0.4746
vn -0.7086 0.1691 -0.6851
vn -0.5575 -0.8286 0.0518
vn -0.4527 -0.8808 0.1389
vn 0.2024 -0.0117 -0.9792
vn 0.0299 -0.1493 -0.9883
vn 0.0827 -0.0448 -0.9956
vn -0.0499 -0.0947 -0.9943
vn 0.3152 0.8486 -0.4249
vn 0.6271 -0.3862 0.6764
vn -0.0776 0.8799 -0.4688
vn 0.3802 0.8922 -0.2438
vn 0.6120 -0.4257 0.6665
vn 0.8276 0.3955 0.3983
s 1
f 4//1 5//1 6//1
f 7//2 8//3 9//4
f 2//5 10//6 3//7
f 11//8 8//3 7//2
f 10//6 12//9 3//7
f 13//10 1//11 14//12
f 13//10 2//5 1//11
f 15//13 2//5 13//10
f 16//14 22//15 14//16
f 22//15 16//14 17//17
f 16//14 3//7 17//17
f 15//13 10//6 2//5
f 19//18 20//19 13//10
f 13//10 14//12 19//18
f 22//15 21//20 14//16
f 18//21 15//13 13//10
f 17//17 3//7 12//9
f 23//22 10//6 15//13
f 18//21 24//23 15//13
f 25//24 21//20 22//15
f 22//15 17//17 26//25
f 24//23 28//26 15//13
f 29//27 23//22 15//13
f 30//28 23//22 29//27
f 34//29 33//30 31//31
f 33//30 32//32 31//31
f 19//18 35//33 20//19
f 36//34 27//35 17//17
f 37//36 35//33 19//18
f 17//17 12//9 38//37
f 39//38 27//35 36//34
f 36//34 17//17 38//37
