# Blender v2.78 (sub 0) OBJ File: 'exporter.blend'
# www.blender.org
o FJ2940.obj_grp1.1582
v 0.350906 -0.195346 5.888562
v 0.351501 -0.196976 5.887576
v 0.352314 -0.196098 5.887482
v 0.351538 -0.193950 5.887294
v 0.350906 -0.195346 5.888562
v 0.352314 -0.196098 5.887482
v 0.350905 -0.196439 5.887568
v 0.350906 -0.195346 5.888562
v 0.351676 -0.195614 5.887555
v 0.351643 -0.196682 5.887543
v 0.351458 -0.193878 5.881985
v 0.351974 -0.197393 5.887461
v 0.351829 -0.196090 5.885229
v 0.351213 -0.197228 5.887228
v 0.348379 -0.190388 5.880158
v 0.351699 -0.196390 5.887563
v 0.347132 -0.188043 5.873092
v 0.348830 -0.187243 5.873961
v 0.351670 -0.193908 5.887319
v 0.350429 -0.195808 5.885278
v 0.349324 -0.194333 5.879313
v 0.353156 -0.197466 5.884003
v 0.348983 -0.194158 5.877748
v 0.351240 -0.194434 5.887057
v 0.348830 -0.187243 5.873961
v 0.336992 -0.184589 5.830564
v 0.350001 -0.187579 5.863419
v 0.348642 -0.189281 5.857248
v 0.344003 -0.178347 5.831829
v 0.341343 -0.184409 5.827752
v 0.339798 -0.181422 5.827057
v 0.341363 -0.178015 5.834104
v 0.345028 -0.182996 5.830718
v 0.341302 -0.177918 5.834019
v 0.341503 -0.180852 5.827553
v 0.338777 -0.178265 5.829405
v 0.339958 -0.181416 5.827297
v 0.339958 -0.181416 5.827297
vn 0.4557 -0.3331 0.8255
vn 0.6761 0.3030 0.6716
vn -0.4029 0.8132 0.4200
vn -0.4557 0.7924 0.4056
vn -0.4127 0.6218 0.6657
vn 0.9959 0.0892 0.0176
vn 0.9748 0.2230 0.0081
vn 0.9940 -0.0454 -0.0996
vn -0.9747 -0.1673 0.1485
vn -0.8987 0.0765 0.4318
vn -0.8881 -0.0109 0.4595
vn 0.3240 -0.8614 -0.3912
vn 0.3191 -0.8631 -0.3915
vn 0.3139 -0.8605 -0.4013
vn -0.8476 0.0157 0.5304
vn -0.9767 -0.0643 0.2046
vn 0.9711 0.2382 0.0158
vn 0.6616 -0.6944 -0.2831
vn -0.4401 -0.8523 -0.2824
vn -0.4336 -0.8632 -0.2585
vn -0.8349 -0.4900 -0.2507
vn 0.5788 0.7551 -0.3079
vn 0.1561 -0.6643 -0.7309
vn -0.7194 -0.1422 -0.6799
vn 0.8365 0.5360 0.1142
vn 0.8825 0.4628 0.0840
vn 0.3695 0.8714 0.3226
vn 0.8505 -0.2518 -0.4617
vn -0.5399 0.7638 -0.3537
vn -0.1686 0.9487 0.2676
vn 0.3596 0.3309 -0.8725
vn 0.1931 -0.0661 -0.9790
vn -0.0549 0.5458 -0.8361
s 1
f 1//1 2//1 3//1
f 4//2 5//2 6//2
f 18//3 17//4 16//5
f 19//6 12//7 11//8
f 15//9 20//10 9//11
f 14//12 21//13 13//14
f 20//10 10//15 9//11
f 17//16 20//10 15//9
f 19//6 11//8 27//17
f 28//18 22//19 23//20
f 27//17 11//8 28//18
f 26//21 20//10 17//16
f 17//4 18//3 29//22
f 26//21 28//18 23//20
f 30//23 28//18 26//21
f 30//23 26//21 31//24
f 25//25 27//17 29//22
f 25//25 24//26 27//17
f 29//22 32//27 17//4
f 27//17 28//18 33//28
f 27//17 33//28 29//22
f 36//29 26//21 17//16
f 17//16 34//30 36//29
f 33//28 28//18 30//23
f 35//31 33//28 30//23
f 29//22 33//28 35//31
f 30//23 37//32 35//31
f 36//29 31//24 26//21
f 38//33 36//29 35//31
f 35//31 36//29 29//22
f 36//29 34//30 29//22
f 32//27 29//22 34//30
l 7 8
