# Blender v2.78 (sub 0) OBJ File: 'exporter.blend'
# www.blender.org
o FJ2901.obj_grp1.1543
v 0.461315 -0.406002 5.889490
v 0.480386 -0.383384 5.876594
v 0.466189 -0.396818 5.881395
v 0.482595 -0.380473 5.872201
v 0.482607 -0.382803 5.868758
v 0.456501 -0.410171 5.885333
v 0.461805 -0.409736 5.880129
v 0.461106 -0.410725 5.891166
v 0.456899 -0.410594 5.887954
v 0.459035 -0.413771 5.882998
v 0.457212 -0.414214 5.886919
v 0.460980 -0.414715 5.889531
v 0.460832 -0.415891 5.885288
v 0.463510 -0.413529 5.882548
v 0.482394 -0.387870 5.880807
v 0.463718 -0.413575 5.889749
v 0.495017 -0.376502 5.870450
v 0.494857 -0.376839 5.870339
v 0.490441 -0.381094 5.863824
v 0.465615 -0.413707 5.884942
v 0.487268 -0.387221 5.877809
v 0.492779 -0.385154 5.870415
v 0.499161 -0.370789 5.859209
v 0.501967 -0.369433 5.860143
v 0.503929 -0.371334 5.861880
v 0.491758 -0.384936 5.867465
v 0.501424 -0.372023 5.857214
v 0.503696 -0.370613 5.861304
v 0.502792 -0.370022 5.858088
v 0.504170 -0.370647 5.858986
v 0.503558 -0.372645 5.857550
v 0.504215 -0.370644 5.858971
v 0.503355 -0.374652 5.860262
vn -0.4206 0.5078 0.7518
vn -0.3525 0.7749 0.5246
vn -0.7660 0.6428 0.0076
vn -0.6567 0.3462 -0.6699
vn -0.9575 0.1760 -0.2283
vn -0.5251 0.8510 0.0004
vn -0.2860 -0.2635 -0.9213
vn -0.8642 0.1565 0.4781
vn -0.7819 -0.6050 0.1508
vn -0.4954 -0.5159 -0.6989
vn 0.0001 -0.9819 -0.1892
vn -0.1223 -0.7296 0.6728
vn 0.4290 -0.5369 -0.7265
vn 0.2270 0.3503 0.9087
vn -0.1381 0.0012 0.9904
vn 0.4675 -0.5498 0.6922
vn 0.0532 0.7752 0.6295
vn 0.7428 -0.1724 0.6470
vn -0.2512 -0.2694 -0.9297
vn 0.6222 -0.7701 -0.1408
vn 0.6722 -0.1089 0.7324
vn 0.8012 -0.5805 0.1453
vn -0.5592 0.6803 -0.4737
vn 0.0342 0.9963 0.0793
vn 0.8249 0.2461 0.5089
vn 0.3741 -0.7479 -0.5483
vn -0.1689 0.0631 -0.9836
vn 0.5413 0.7323 0.4132
vn 0.1680 0.7574 -0.6310
vn 0.5134 0.8570 0.0448
vn 0.6084 -0.2904 -0.7386
vn 0.9564 0.0479 -0.2882
vn 0.7835 -0.6157 -0.0842
s 1
f 1//1 2//2 3//3
f 3//3 5//4 6//5
f 2//2 4//6 3//3
f 4//6 5//4 3//3
f 5//4 7//7 6//5
f 3//3 6//5 1//1
f 6//5 9//8 1//1
f 6//5 11//9 9//8
f 6//5 7//7 10//10
f 6//5 10//10 11//9
f 10//10 13//11 11//9
f 11//9 13//11 12//12
f 7//7 14//13 10//10
f 15//14 8//15 16//16
f 1//1 9//8 8//15
f 12//12 16//16 8//15
f 9//8 11//9 8//15
f 8//15 11//9 12//12
f 2//2 15//14 17//17
f 18//18 17//17 15//14
f 1//1 15//14 2//2
f 7//7 5//4 19//19
f 19//19 20//20 7//7
f 21//21 18//18 15//14
f 15//14 1//1 8//15
f 21//21 15//14 16//16
f 16//16 22//22 21//21
f 20//20 22//22 16//16
f 13//11 20//20 16//16
f 14//13 7//7 20//20
f 16//16 12//12 13//11
f 10//10 14//13 13//11
f 14//13 20//20 13//11
f 23//23 5//4 4//6
f 4//6 24//24 23//23
f 4//6 2//2 17//17
f 4//6 17//17 24//24
f 21//21 25//25 18//18
f 26//26 20//20 19//19
f 25//25 21//21 22//22
f 20//20 26//26 22//22
f 27//27 19//19 23//23
f 17//17 28//28 24//24
f 24//24 29//29 23//23
f 23//23 29//29 27//27
f 29//29 24//24 30//30
f 29//29 31//31 27//27
f 29//29 32//32 31//31
f 31//31 19//19 27//27
f 25//25 32//32 28//28
f 28//28 30//30 24//24
f 19//19 31//31 26//26
f 26//26 31//31 33//33
f 32//32 33//33 31//31
f 25//25 33//33 32//32
f 22//22 33//33 25//25
f 23//23 19//19 5//4
f 26//26 33//33 22//22
f 25//25 28//28 17//17
