# Blender v2.78 (sub 0) OBJ File: 'exporter.blend'
# www.blender.org
o FJ2976.obj_grp1.1618
v -0.155264 -0.659554 5.966893
v -0.154916 -0.652020 5.966199
v -0.121938 -0.659198 5.951065
v -0.152257 -0.650503 5.970994
v -0.156319 -0.650842 5.965328
v -0.154979 -0.653069 5.963515
v -0.152239 -0.650236 5.970899
v -0.140796 -0.652764 5.957615
v -0.157711 -0.661057 5.965703
v -0.131338 -0.661971 5.957948
v -0.139494 -0.651911 5.964474
v -0.152147 -0.657521 5.972455
v -0.152147 -0.657521 5.972455
v -0.152147 -0.657521 5.972455
v -0.155295 -0.661322 5.966829
v -0.120717 -0.657756 5.961020
v -0.152147 -0.657521 5.972455
v -0.154468 -0.661849 5.966727
v -0.129512 -0.659760 5.962562
v -0.118644 -0.655075 5.950744
v -0.098988 -0.653890 5.957814
v -0.120451 -0.657802 5.961141
v -0.123668 -0.653662 5.960812
v -0.098895 -0.654475 5.959146
v -0.099061 -0.659525 5.952925
v -0.098243 -0.659712 5.953431
v -0.098193 -0.653887 5.953300
v -0.099188 -0.659038 5.959682
v -0.098193 -0.653887 5.953300
v -0.098157 -0.653881 5.953302
v -0.099921 -0.660045 5.954336
v -0.098842 -0.652657 5.957150
v -0.098193 -0.653887 5.953300
v -0.098624 -0.659587 5.953498
v -0.100899 -0.656878 5.959547
v -0.099033 -0.659079 5.959779
v -0.099033 -0.659079 5.959779
vn -0.4307 -0.1314 -0.8929
vn -0.0980 -0.5200 -0.8485
vn -0.5079 -0.1255 -0.8522
vn -0.4345 0.4390 -0.7864
vn -0.1088 -0.9896 -0.0936
vn -0.8948 0.2625 0.3611
vn -0.8928 0.2234 0.3911
vn -0.9349 0.3406 0.0995
vn -0.7796 0.1286 0.6130
vn 0.1607 -0.8177 0.5528
vn 0.1516 -0.8696 0.4700
vn 0.1580 -0.7120 0.6842
vn 0.3144 0.8326 0.4559
vn 0.3839 0.2103 0.8991
vn 0.0826 0.9900 -0.1148
vn 0.2104 0.9523 0.2210
vn 0.1158 0.4301 0.8953
vn 0.0297 0.5052 -0.8625
vn -0.1050 0.8776 0.4677
vn -0.0246 0.8814 0.4718
vn 0.0217 0.9799 0.1985
vn 0.1344 0.9902 0.0383
vn -0.1202 0.9074 0.4027
vn 0.0995 -0.0340 -0.9945
vn 0.0462 -0.9967 0.0675
vn 0.0640 0.0917 0.9937
vn 0.0120 0.9879 -0.1547
vn -0.1380 -0.3475 0.9275
vn 0.1212 0.0473 -0.9915
vn 0.9335 -0.2106 0.2903
vn 0.9239 -0.2496 0.2899
vn 0.9415 -0.2277 0.2485
vn 0.9042 -0.2783 0.3239
vn -0.4963 0.1331 0.8579
s 1
f 2//1 3//2 1//3
f 2//1 8//4 3//2
f 10//5 1//3 3//2
f 9//6 7//7 6//8
f 9//6 12//9 7//7
f 17//10 18//11 19//12
f 19//12 4//13 13//14
f 10//5 19//12 18//11
f 8//4 5//15 4//13
f 11//16 8//4 4//13
f 11//16 4//13 16//17
f 20//18 3//2 8//4
f 11//16 16//17 21//19
f 19//12 16//17 4//13
f 16//17 22//20 21//19
f 23//21 8//4 11//16
f 23//21 21//22 8//4
f 24//23 21//19 22//20
f 20//18 25//24 3//2
f 26//25 10//5 3//2
f 24//26 16//17 19//12
f 27//27 20//18 8//4
f 19//12 28//28 24//26
f 28//28 19//12 10//5
f 8//4 21//22 27//27
f 25//24 20//18 29//29
f 32//30 31//31 30//32
f 31//31 32//30 35//33
f 37//34 24//26 28//28
f 26//25 28//28 10//5
l 14 15
l 28 36
l 33 34
