# Blender v2.78 (sub 0) OBJ File: 'exporter.blend'
# www.blender.org
o FJ2955.obj_grp1.1597
v 0.160261 -0.356209 5.781087
v 0.203311 -0.366599 5.764593
v 0.163720 -0.354782 5.769528
v 0.155600 -0.348809 5.773674
v 0.329944 -0.429056 5.711798
v 0.264058 -0.395707 5.751244
v 0.296708 -0.409945 5.726420
v 0.301781 -0.407274 5.717952
v 0.270409 -0.396646 5.757493
v 0.332580 -0.428912 5.714664
v 0.295316 -0.403465 5.751050
v 0.336476 -0.424140 5.721062
v 0.340481 -0.424257 5.712242
v 0.326063 -0.421513 5.701509
v 0.332726 -0.426540 5.704736
v 0.326734 -0.425517 5.704656
v 0.337556 -0.425079 5.705146
v 0.335531 -0.419162 5.700342
v 0.168396 -0.356411 5.794696
v 0.171299 -0.348868 5.802299
v 0.162982 -0.352309 5.795846
v 0.208151 -0.367093 5.796283
v 0.214019 -0.372762 5.785738
v 0.157174 -0.350245 5.788929
v 0.158129 -0.343183 5.792941
v 0.206619 -0.371967 5.774274
v 0.154088 -0.344917 5.780428
v 0.158510 -0.345833 5.765995
v 0.154852 -0.339286 5.777852
v 0.166410 -0.347373 5.760725
v 0.203667 -0.360030 5.758017
v 0.164572 -0.339211 5.760915
v 0.182513 -0.343045 5.755433
v 0.231674 -0.370980 5.751543
v 0.252356 -0.388183 5.748999
v 0.239022 -0.376353 5.782952
v 0.319024 -0.410419 5.737843
v 0.274873 -0.392796 5.732935
v 0.255337 -0.373878 5.742091
v 0.341690 -0.419626 5.717274
v 0.336750 -0.414555 5.724341
v 0.298096 -0.395627 5.720803
v 0.329575 -0.414132 5.699794
v 0.340842 -0.420382 5.705626
v 0.342594 -0.414412 5.711118
v 0.339370 -0.413316 5.704201
v 0.331959 -0.408491 5.703644
v 0.196632 -0.357429 5.803923
v 0.167366 -0.344087 5.800976
v 0.183824 -0.341590 5.796434
v 0.163123 -0.341159 5.797217
v 0.211911 -0.364140 5.799777
v 0.212174 -0.355441 5.802001
v 0.164361 -0.335318 5.790235
v 0.159531 -0.335857 5.787887
v 0.157323 -0.335292 5.779363
v 0.162989 -0.333033 5.780178
v 0.220361 -0.361473 5.798361
v 0.158870 -0.336458 5.768395
v 0.162396 -0.333402 5.772023
v 0.170350 -0.334713 5.761006
v 0.271181 -0.385258 5.769299
v 0.172368 -0.338244 5.757608
v 0.210936 -0.352821 5.755469
v 0.233883 -0.362842 5.750397
v 0.306458 -0.398346 5.747731
v 0.296254 -0.386820 5.727067
v 0.323032 -0.399804 5.731124
v 0.340623 -0.412361 5.717651
v 0.339165 -0.408912 5.709739
v 0.292004 -0.379601 5.738821
v 0.199210 -0.351183 5.803770
v 0.209225 -0.346859 5.798101
v 0.212051 -0.340938 5.789111
v 0.242529 -0.367169 5.784741
v 0.228581 -0.355660 5.791284
v 0.187803 -0.335126 5.777627
v 0.204170 -0.335565 5.771465
v 0.271921 -0.374263 5.767488
v 0.190056 -0.337794 5.757204
v 0.217596 -0.346919 5.759506
v 0.236141 -0.352167 5.760690
v 0.257864 -0.361732 5.767982
v 0.205392 -0.335672 5.778871
v 0.198201 -0.336456 5.762013
vn -0.5819 -0.8133 0.0023
vn -0.8897 -0.3773 -0.2570
vn -0.4507 -0.7721 -0.4481
vn -0.1512 -0.9853 -0.0798
vn -0.4647 -0.8794 -0.1034
vn -0.6079 -0.6830 -0.4049
vn 0.4674 -0.6545 0.5943
vn 0.1429 -0.6520 0.7446
vn 0.1466 -0.9614 0.2330
vn -0.2318 -0.8816 0.4112
vn 0.5264 -0.6899 -0.4969
vn 0.8140 -0.5808 0.0091
vn 0.0946 -0.8213 -0.5627
vn -0.4157 -0.7365 -0.5337
vn -0.6175 -0.2420 -0.7484
vn -0.3995 -0.3479 -0.8481
vn 0.3408 -0.1331 -0.9307
vn -0.3631 -0.8089 0.4625
vn -0.2405 -0.1911 0.9516
vn -0.5952 -0.5031 0.6266
vn -0.1260 -0.8353 0.5351
vn -0.1911 -0.9375 0.2908
vn -0.8578 -0.3993 0.3237
vn -0.8216 0.1497 0.5501
vn -0.3796 -0.9217 -0.0797
vn -0.9951 -0.0609 0.0783
vn -0.3514 -0.7992 -0.4877
vn -0.7796 -0.1695 -0.6028
vn -0.9519 0.3033 -0.0428
vn -0.4287 -0.3846 -0.8175
vn -0.2526 -0.4502 -0.8565
vn -0.3741 -0.2846 -0.8826
vn -0.5054 -0.7199 -0.4757
vn 0.1636 -0.6216 0.7661
vn -0.5661 -0.2230 -0.7936
vn -0.3340 0.0995 -0.9373
vn 0.4642 -0.3387 0.8184
vn 0.9104 -0.1918 0.3667
vn 0.7070 0.0431 0.7059
vn -0.3508 0.3561 -0.8661
vn -0.0908 0.2144 -0.9725
vn 0.8547 -0.2323 -0.4643
vn 0.9755 0.2008 -0.0903
vn 0.6855 0.3603 -0.6327
vn -0.0919 -0.4081 0.9083
vn -0.3267 0.3503 0.8778
vn -0.4324 0.4927 0.7551
vn 0.1250 -0.5498 0.8259
vn 0.3495 0.1506 0.9248
vn -0.1018 0.8826 0.4590
vn -0.6075 0.7084 0.3595
vn -0.6674 0.7407 0.0776
vn -0.1354 0.9866 0.0913
vn 0.4357 -0.1259 0.8912
vn -0.7104 0.5537 -0.4344
vn -0.2508 0.9515 -0.1784
vn -0.5405 0.2870 -0.7909
vn -0.1606 0.8595 -0.4852
vn 0.3979 -0.2502 0.8827
vn -0.2273 0.3302 -0.9161
vn -0.1024 0.0018 -0.9947
vn -0.0113 0.1182 -0.9929
vn -0.1403 0.3211 -0.9366
vn 0.5690 0.0603 0.8201
vn 0.0951 0.7488 -0.6560
vn 0.6755 0.6190 0.4006
vn 0.2274 0.7162 -0.6598
vn 0.8500 0.3959 0.3476
vn 0.6553 0.7282 -0.2007
vn 0.4253 0.8943 -0.1388
vn 0.1145 0.3647 0.9241
vn 0.1073 0.8143 0.5704
vn 0.3038 0.6416 0.7043
vn 0.4850 -0.0617 0.8723
vn 0.5635 0.4467 0.6949
vn 0.0760 0.9617 0.2634
vn 0.2411 0.9645 -0.1075
vn 0.1192 0.6490 -0.7514
vn 0.2171 0.8789 -0.4246
vn 0.6087 0.4264 0.6691
vn 0.1797 0.5815 -0.7934
vn 0.2167 0.8427 -0.4928
vn 0.3590 0.8287 0.4293
vn 0.5484 0.7912 0.2707
vn 0.2162 0.9665 0.1385
s 1
f 1//1 4//2 3//3
f 5//4 6//5 7//6
f 12//7 11//8 10//9
f 9//10 5//4 10//9
f 11//8 9//10 10//9
f 17//11 13//12 10//9
f 10//9 5//4 17//11
f 5//4 15//13 17//11
f 7//6 16//14 5//4
f 7//6 8//15 16//14
f 5//4 16//14 15//13
f 8//15 14//16 16//14
f 18//17 17//11 15//13
f 15//13 16//14 14//16
f 19//18 20//19 21//20
f 22//21 19//18 23//22
f 21//20 1//1 19//18
f 21//20 24//23 1//1
f 24//23 21//20 25//24
f 23//22 1//1 26//25
f 19//18 1//1 23//22
f 24//23 27//26 4//2
f 24//23 4//2 1//1
f 3//3 2//27 1//1
f 4//2 28//28 3//3
f 27//26 29//29 4//2
f 29//29 28//28 4//2
f 26//25 9//10 23//22
f 1//1 2//27 26//25
f 30//30 31//31 3//3
f 28//28 30//30 3//3
f 3//3 31//31 2//27
f 2//27 31//31 34//32
f 2//27 34//32 35//33
f 26//25 6//5 9//10
f 9//10 36//34 23//22
f 6//5 26//25 35//33
f 26//25 2//27 35//33
f 9//10 11//8 36//34
f 7//6 6//5 35//33
f 6//5 5//4 9//10
f 38//35 8//15 35//33
f 8//15 7//6 35//33
f 8//15 38//35 39//36
f 37//37 11//8 12//7
f 13//12 12//7 10//9
f 12//7 13//12 40//38
f 12//7 40//38 41//39
f 8//15 42//40 43//41
f 17//11 44//42 13//12
f 40//38 13//12 45//43
f 13//12 44//42 45//43
f 18//17 44//42 17//11
f 46//44 44//42 18//17
f 18//17 15//13 14//16
f 18//17 14//16 43//41
f 14//16 8//15 43//41
f 48//45 20//19 19//18
f 49//46 21//20 20//19
f 49//46 25//24 21//20
f 25//24 49//46 51//47
f 48//45 22//21 52//48
f 52//48 53//49 48//45
f 22//21 48//45 19//18
f 51//47 54//50 55//51
f 27//26 24//23 25//24
f 29//29 27//26 25//24
f 55//51 29//29 25//24
f 55//51 25//24 51//47
f 23//22 36//34 22//21
f 52//48 22//21 36//34
f 55//51 56//52 29//29
f 55//51 57//53 56//52
f 58//54 52//48 36//34
f 59//55 28//28 29//29
f 56//52 59//55 29//29
f 56//52 60//56 59//55
f 30//30 28//28 32//57
f 32//57 28//28 59//55
f 59//55 61//58 32//57
f 59//55 60//56 61//58
f 62//59 36//34 11//8
f 30//30 32//57 63//60
f 30//30 63//60 33//61
f 61//58 63//60 32//57
f 64//62 65//63 31//31
f 31//31 30//30 33//61
f 31//31 33//61 64//62
f 65//63 34//32 31//31
f 62//59 11//8 66//64
f 35//33 34//32 38//35
f 38//35 34//32 39//36
f 39//36 34//32 65//63
f 11//8 37//37 66//64
f 67//65 42//40 39//36
f 37//37 12//7 41//39
f 66//64 37//37 41//39
f 41//39 68//66 66//64
f 39//36 42//40 8//15
f 67//65 47//67 42//40
f 69//68 68//66 41//39
f 40//38 69//68 41//39
f 45//43 69//68 40//38
f 45//43 44//42 46//44
f 45//43 70//69 69//68
f 71//70 70//69 47//67
f 47//67 43//41 42//40
f 70//69 45//43 46//44
f 43//41 46//44 18//17
f 47//67 46//44 43//41
f 47//67 70//69 46//44
f 48//45 72//71 20//19
f 72//71 49//46 20//19
f 50//72 49//46 72//71
f 53//49 52//48 58//54
f 48//45 53//49 72//71
f 50//72 72//71 73//73
f 49//46 54//50 51//47
f 50//72 54//50 49//46
f 75//74 76//75 58//54
f 54//50 77//76 57//53
f 54//50 57//53 55//51
f 58//54 36//34 75//74
f 77//76 54//50 50//72
f 57//53 60//56 56//52
f 78//77 61//58 57//53
f 77//76 78//77 57//53
f 61//58 60//56 57//53
f 36//34 62//59 75//74
f 80//78 33//61 63//60
f 80//78 61//58 85//79
f 63//60 61//58 80//78
f 85//79 61//58 78//77
f 62//59 66//64 79//80
f 75//74 62//59 79//80
f 64//62 80//78 81//81
f 64//62 33//61 80//78
f 82//82 65//63 81//81
f 64//62 81//81 65//63
f 66//64 68//66 79//80
f 65//63 67//65 39//36
f 65//63 82//82 67//65
f 67//65 82//82 71//70
f 68//66 70//69 71//70
f 68//66 69//68 70//69
f 67//65 71//70 47//67
f 72//71 53//49 73//73
f 74//83 50//72 73//73
f 53//49 58//54 76//75
f 76//75 73//73 53//49
f 76//75 74//83 73//73
f 76//75 83//84 74//83
f 50//72 74//83 84//85
f 77//76 50//72 84//85
f 76//75 75//74 79//80
f 78//77 77//76 84//85
f 76//75 79//80 83//84
f 83//84 84//85 74//83
f 82//82 78//77 84//85
f 85//79 78//77 82//82
f 80//78 85//79 81//81
f 71//70 82//82 84//85
f 84//85 83//84 71//70
f 81//81 85//79 82//82
f 79//80 68//66 83//84
f 71//70 83//84 68//66
