# Blender v2.78 (sub 0) OBJ File: 'exporter.blend'
# www.blender.org
o FJ2980.obj_grp1.1622
v -0.434158 -0.432046 6.057592
v -0.436221 -0.433207 6.055048
v -0.437497 -0.438402 6.057162
v -0.437589 -0.436871 6.056129
v -0.434675 -0.433727 6.055611
v -0.403365 -0.450906 6.039024
v -0.434081 -0.431875 6.057568
v -0.433896 -0.431926 6.058483
v -0.434664 -0.433741 6.055644
v -0.433738 -0.436483 6.064047
v -0.434081 -0.431875 6.057568
v -0.436068 -0.439312 6.062028
v -0.431599 -0.433937 6.064400
v -0.432429 -0.432579 6.062333
v -0.436827 -0.440098 6.059165
v -0.436068 -0.439312 6.062028
v -0.436106 -0.439405 6.062102
v -0.425014 -0.443454 6.061143
v -0.433738 -0.436483 6.064047
v -0.432161 -0.434724 6.063718
v -0.432161 -0.434724 6.063718
v -0.433738 -0.436483 6.064047
v -0.392505 -0.461151 6.045889
v -0.436853 -0.440149 6.059163
v -0.363497 -0.462926 6.021804
v -0.400597 -0.456356 6.038154
v -0.358795 -0.457839 6.029900
v -0.392992 -0.462743 6.039772
v -0.362718 -0.457600 6.025299
v -0.363952 -0.469502 6.023943
v -0.358353 -0.464004 6.035089
v -0.360345 -0.468210 6.034512
v -0.363573 -0.462817 6.021467
v -0.359957 -0.469303 6.032792
v -0.363376 -0.470746 6.027285
v -0.363573 -0.462817 6.021467
v -0.360059 -0.468841 6.032843
v -0.363814 -0.469832 6.024732
v -0.362805 -0.457325 6.024940
v -0.358790 -0.457758 6.029729
v -0.363573 -0.462817 6.021467
v -0.358790 -0.457758 6.029729
v -0.358159 -0.457880 6.031607
v -0.357983 -0.463137 6.035269
v -0.360052 -0.468951 6.032765
v -0.360373 -0.468158 6.034424
v -0.357983 -0.463137 6.035269
v -0.362953 -0.471267 6.027197
vn -0.7981 0.4364 0.4155
vn -0.8542 0.3485 0.3859
vn -0.8299 0.4040 0.3847
vn -0.7886 0.4196 0.4495
vn -0.5292 -0.2768 -0.8021
vn -0.3533 0.2020 -0.9134
vn -0.3803 0.1264 -0.9162
vn -0.7817 0.4517 0.4300
vn -0.8306 0.4487 0.3298
vn -0.7511 0.5021 0.4286
vn -0.9603 -0.0629 0.2718
vn -0.9550 -0.0697 0.2882
vn -0.9613 -0.0622 0.2684
vn -0.2309 -0.7722 0.5919
vn 0.0244 -0.5515 0.8338
vn -0.1015 -0.4930 0.8641
vn -0.3609 0.4737 0.8033
vn 0.3314 0.0114 0.9434
vn 0.2733 -0.0654 0.9597
vn -0.0266 -0.7637 0.6451
vn -0.3316 0.3700 -0.8678
vn -0.2096 0.5991 -0.7728
vn 0.1091 0.8590 -0.5002
vn 0.2917 0.9346 -0.2035
vn 0.4359 0.8398 0.3236
vn 0.3791 0.9176 0.1195
vn -0.3879 -0.9099 -0.1471
vn -0.4408 -0.8926 -0.0952
vn -0.5122 -0.4452 -0.7344
vn -0.4776 -0.6327 -0.6097
vn 0.0070 0.8428 -0.5382
vn 0.4626 0.6018 0.6511
vn 0.2449 -0.1995 0.9488
vn 0.1264 -0.6401 0.7579
vn -0.4661 -0.2730 -0.8415
vn -0.2899 -0.9570 -0.0018
vn -0.0751 -0.9158 0.3946
vn 0.8951 -0.2180 -0.3890
vn 0.8985 -0.2075 -0.3868
vn 0.9049 -0.1782 -0.3866
vn 0.7485 0.2766 -0.6027
vn 0.9166 -0.1975 -0.3476
vn 0.9349 -0.1886 -0.3007
vn 0.9251 -0.1939 -0.3264
vn 0.8077 -0.4314 0.4019
vn 0.7895 -0.4761 0.3873
vn 0.8132 -0.4490 0.3702
vn 0.8298 -0.2488 -0.4995
s 1
f 1//1 2//2 3//3
f 7//4 2//2 1//1
f 4//5 5//6 6//7
f 1//1 3//3 10//8
f 12//9 10//8 3//3
f 1//1 10//8 14//10
f 16//11 3//12 15//13
f 17//14 18//15 19//16
f 20//17 14//10 10//8
f 21//18 22//19 18//15
f 17//14 23//20 18//15
f 25//21 6//7 5//6
f 25//22 9//23 8//24
f 27//25 8//24 13//26
f 28//27 17//14 24//28
f 28//27 4//5 26//29
f 6//7 26//29 4//5
f 4//5 28//27 24//28
f 28//27 26//29 30//30
f 27//25 29//31 8//24
f 27//25 13//26 31//32
f 31//33 21//18 18//15
f 28//27 23//20 17//14
f 30//30 26//29 6//7
f 29//31 25//22 8//24
f 23//20 32//34 18//15
f 30//30 6//7 33//35
f 35//36 34//37 23//20
f 35//36 23//20 28//27
f 35//36 28//27 30//30
f 18//15 32//34 31//33
f 36//38 37//39 38//40
f 39//41 40//41 41//41
f 42//42 37//39 36//38
f 42//42 43//43 37//39
f 44//44 37//39 43//43
f 32//34 23//20 34//37
f 46//45 45//46 47//47
f 38//40 37//39 48//48
l 1 11
