# Blender v2.78 (sub 0) OBJ File: 'exporter.blend'
# www.blender.org
o FJ2993.obj_grp1.1635
v -0.386431 -0.198557 5.876807
v -0.387478 -0.197719 5.875861
v -0.385552 -0.205437 5.875276
v -0.387104 -0.206103 5.882392
v -0.386426 -0.206819 5.879643
v -0.387591 -0.205644 5.882864
v -0.385552 -0.205437 5.875276
v -0.386577 -0.206780 5.879638
v -0.334620 -0.199988 5.886672
v -0.388362 -0.201274 5.882906
v -0.388207 -0.201360 5.882740
v -0.333660 -0.197848 5.881620
v -0.334629 -0.192699 5.879829
v -0.385552 -0.205437 5.875276
v -0.386937 -0.199105 5.875886
v -0.333663 -0.198034 5.881540
v -0.335159 -0.199436 5.886214
v -0.336306 -0.189041 5.883821
v -0.334961 -0.190153 5.888773
v -0.336306 -0.189041 5.883821
v -0.334351 -0.192956 5.880456
v -0.386937 -0.199105 5.875886
v -0.333643 -0.198087 5.881567
v -0.334383 -0.192606 5.880141
v -0.333643 -0.198087 5.881567
v -0.334142 -0.192458 5.880440
v -0.334061 -0.196948 5.888139
v -0.335159 -0.199436 5.886214
v -0.333643 -0.198087 5.881567
v -0.334061 -0.196948 5.888139
v -0.336306 -0.189041 5.883821
v -0.335012 -0.190114 5.888656
vn -0.9649 -0.0764 -0.2513
vn -0.9484 -0.1384 -0.2852
vn -0.9560 -0.1109 -0.2715
vn -0.0161 -0.2162 0.9762
vn 0.0477 -0.4996 0.8649
vn 0.0659 -0.9262 0.3713
vn -0.9136 -0.1861 -0.3615
vn 0.2299 -0.9341 -0.2731
vn 0.1921 -0.9428 -0.2726
vn 0.1812 -0.9459 -0.2692
vn 0.1216 -0.1477 -0.9815
vn 0.1106 -0.0896 -0.9898
vn 0.0614 0.1091 -0.9921
vn 0.1524 -0.2763 -0.9489
vn 0.1404 -0.9523 -0.2709
vn -0.2286 0.9615 0.1524
vn -0.2249 0.8651 0.4483
vn -0.1486 0.5064 0.8494
vn 0.1473 0.6731 -0.7247
vn 0.0017 0.6707 -0.7417
vn -0.0098 0.6490 -0.7607
vn -0.2360 0.4361 0.8684
vn 0.9942 0.0974 0.0462
vn 0.9592 0.2826 0.0102
vn 0.9918 0.1149 0.0566
vn 0.8619 -0.4875 0.1396
vn 0.8025 0.5908 -0.0836
vn 0.9272 0.3744 -0.0086
s 1
f 3//1 4//2 1//3
f 9//4 6//5 5//6
f 1//3 4//2 11//7
f 12//8 8//9 7//10
f 13//11 14//12 15//13
f 13//11 16//14 14//12
f 8//9 12//8 17//15
f 18//16 2//17 10//18
f 9//4 10//18 6//5
f 20//19 21//20 22//21
f 9//4 19//22 10//18
f 25//23 26//24 27//25
f 28//26 29//26 30//26
f 10//18 19//22 18//16
f 31//27 32//28 26//24
f 26//24 32//28 27//25
l 23 24
