# Blender v2.78 (sub 0) OBJ File: 'exporter.blend'
# www.blender.org
o FJ2992.obj_grp1.1634
v -0.356007 -0.189395 5.906397
v -0.347499 -0.190892 5.891519
v -0.334185 -0.189956 5.879737
v -0.347551 -0.190873 5.891296
v -0.362389 -0.182649 5.920909
v -0.355985 -0.188769 5.907763
v -0.356622 -0.184072 5.923965
v -0.355785 -0.180562 5.924851
v -0.355985 -0.188769 5.907763
v -0.359912 -0.188079 5.924335
v -0.361591 -0.183128 5.921518
v -0.360044 -0.182496 5.920701
v -0.354995 -0.181018 5.924293
v -0.356432 -0.188320 5.921907
v -0.353064 -0.184549 5.924992
v -0.353293 -0.184558 5.924918
v -0.342618 -0.189957 5.902294
v -0.346664 -0.192933 5.902910
v -0.353064 -0.184549 5.924992
v -0.355667 -0.188705 5.924710
v -0.332338 -0.199431 5.876713
v -0.334773 -0.199675 5.881708
v -0.322078 -0.207200 5.875874
v -0.334773 -0.199675 5.881708
v -0.338167 -0.186728 5.890559
v -0.337521 -0.185460 5.891203
v -0.330376 -0.192258 5.888556
v -0.307459 -0.207047 5.867884
v -0.318157 -0.195419 5.878187
v -0.333245 -0.194476 5.891266
v -0.333736 -0.194135 5.891848
v -0.306299 -0.202774 5.880571
v -0.299654 -0.200869 5.874115
v -0.314926 -0.201111 5.881802
v -0.318157 -0.195419 5.878187
v -0.277057 -0.217068 5.885226
v -0.273487 -0.208891 5.875785
v -0.274105 -0.218950 5.876917
v -0.273722 -0.204556 5.876591
v -0.274982 -0.206824 5.884398
v -0.277792 -0.213363 5.886966
v -0.272305 -0.207860 5.874975
v -0.273722 -0.204556 5.876591
v -0.279475 -0.213953 5.876926
v -0.271513 -0.207114 5.873837
v -0.271378 -0.207728 5.874620
v -0.273778 -0.218841 5.876330
v -0.276701 -0.217974 5.882426
v -0.273889 -0.204735 5.884149
v -0.275328 -0.213223 5.887435
v -0.273889 -0.204735 5.884149
v -0.275173 -0.213257 5.887455
v -0.276084 -0.206036 5.882736
v -0.275517 -0.213373 5.886966
v -0.275461 -0.218755 5.883025
v -0.277421 -0.216802 5.885369
v -0.275328 -0.213223 5.887435
v -0.275328 -0.213223 5.887435
vn -0.1549 0.7200 -0.6765
vn -0.5523 0.6971 -0.4571
vn -0.2172 0.9206 -0.3244
vn -0.8863 0.0650 -0.4586
vn -0.8902 -0.4123 -0.1938
vn -0.5708 -0.1657 0.8042
vn -0.5202 -0.1872 0.8333
vn -0.5736 -0.2226 0.7883
vn 0.2235 -0.8762 0.4270
vn -0.1655 -0.9099 0.3804
vn -0.1505 -0.9648 0.2159
vn 0.5292 -0.5984 0.6015
vn 0.7391 -0.4941 0.4578
vn 0.6841 -0.5897 0.4293
vn -0.5349 -0.1007 0.8389
vn -0.6824 -0.6509 -0.3327
vn -0.5543 -0.3021 -0.7756
vn -0.6213 -0.6481 -0.4404
vn -0.6837 -0.6572 -0.3173
vn -0.3653 -0.9189 -0.1491
vn -0.5380 -0.8330 -0.1289
vn -0.1805 0.9467 -0.2667
vn -0.2274 0.9102 -0.3461
vn 0.6726 0.6427 0.3668
vn 0.8423 0.4625 0.2768
vn 0.5309 0.1459 0.8348
vn 0.7858 0.4660 0.4067
vn 0.2250 -0.9071 0.3556
vn -0.0275 -0.2381 -0.9709
vn 0.6608 -0.1603 0.7332
vn 0.7196 -0.1070 0.6861
vn 0.3430 0.8804 0.3273
vn 0.1691 0.9699 0.1752
vn 0.0886 0.9550 -0.2829
vn -0.1194 -0.5382 0.8343
vn 0.4096 0.8925 0.1887
vn -0.2822 -0.7905 0.5435
vn -0.0571 -0.8097 -0.5840
vn 0.1692 0.0804 -0.9823
vn 0.1956 0.7964 -0.5723
vn -0.0645 0.7412 0.6682
vn -0.1902 -0.0719 0.9791
vn 0.8865 -0.1012 0.4515
vn 0.9414 -0.1819 0.2841
vn 0.9146 -0.3343 0.2274
vn 0.9267 0.3752 0.0223
vn 0.9237 0.3819 0.0293
vn 0.9208 0.3878 0.0426
vn -0.1951 0.4291 0.8819
vn 0.9627 -0.0415 0.2672
vn 0.9418 -0.2808 0.1847
vn 0.2952 -0.6020 0.7419
vn 0.2949 -0.6024 0.7417
vn 0.2970 -0.5954 0.7465
vn -0.1457 -0.4439 0.8842
s 1
f 3//1 4//2 5//3
f 5//3 4//2 6//4
f 9//5 10//5 11//5
f 13//6 12//7 14//8
f 18//9 7//10 1//11
f 17//12 19//13 20//14
f 15//15 13//6 14//8
f 2//16 21//17 1//18
f 21//17 22//19 1//18
f 23//20 1//11 24//21
f 23//20 18//9 1//11
f 23//20 17//12 18//9
f 25//22 3//1 5//3
f 25//22 5//3 8//23
f 26//24 8//25 27//26
f 17//12 20//14 18//9
f 27//26 8//25 16//27
f 27//26 16//27 17//28
f 28//29 21//17 3//1
f 28//29 23//20 21//17
f 21//17 23//20 22//19
f 3//1 21//17 4//2
f 30//30 27//26 31//31
f 29//32 3//1 25//22
f 26//24 27//26 32//33
f 27//26 17//28 31//31
f 30//30 17//12 23//20
f 33//34 3//1 29//32
f 30//30 34//35 27//26
f 35//36 26//24 32//33
f 34//35 30//30 23//20
f 3//1 33//34 28//29
f 32//33 33//34 35//36
f 34//35 23//20 36//37
f 38//38 36//37 23//20
f 33//34 37//39 28//29
f 39//40 37//39 33//34
f 28//29 38//38 23//20
f 37//39 38//38 28//29
f 40//41 33//34 32//33
f 40//41 32//33 34//35
f 41//42 34//35 36//37
f 40//41 34//35 41//42
f 47//43 46//44 48//45
f 33//34 40//41 39//40
f 43//46 49//47 42//48
f 40//41 41//42 50//49
f 46//44 51//50 52//51
f 46//44 52//51 48//45
f 55//52 57//53 56//54
f 58//55 41//42 36//37
l 53 54
l 44 45
