# Blender v2.78 (sub 0) OBJ File: 'exporter.blend'
# www.blender.org
o FJ2971.obj_grp1.1613
v -0.373636 -0.244020 6.021290
v -0.380340 -0.242641 6.013383
v -0.379224 -0.240990 6.016913
v -0.377994 -0.242109 6.013189
v -0.373629 -0.245786 6.010606
v -0.374102 -0.244210 6.010246
v -0.377007 -0.243104 6.010708
v -0.406358 -0.283231 6.017268
v -0.378215 -0.243349 6.022142
v -0.371535 -0.247601 6.018857
v -0.370174 -0.246643 6.015354
v -0.378043 -0.243535 6.020715
v -0.377953 -0.245957 6.017432
v -0.373690 -0.244036 6.021286
v -0.406353 -0.286813 6.020672
v -0.403560 -0.284221 6.019113
v -0.371757 -0.245168 6.011279
v -0.369866 -0.246744 6.015598
v -0.389033 -0.274328 6.013204
v -0.369939 -0.246702 6.015598
v -0.371757 -0.245168 6.011279
v -0.374373 -0.244096 6.010634
v -0.389033 -0.274328 6.013204
v -0.386889 -0.271884 6.019852
v -0.399771 -0.277517 6.010997
v -0.410237 -0.296560 6.019320
v -0.398696 -0.276994 6.011894
v -0.394710 -0.282911 6.017335
v -0.408048 -0.286739 6.015741
v -0.411496 -0.299388 6.014819
v -0.408075 -0.290157 6.009061
v -0.405866 -0.290931 6.008248
v -0.394793 -0.283233 6.017400
v -0.427943 -0.297935 6.014143
v -0.464744 -0.317928 6.010262
v -0.434123 -0.302513 6.016551
v -0.423151 -0.299456 6.019260
v -0.462265 -0.321681 6.007684
v -0.462021 -0.321068 6.015169
v -0.461433 -0.322533 6.011534
v -0.462162 -0.321725 6.007773
v -0.464105 -0.318696 6.010763
v -0.459908 -0.326046 6.013057
v -0.461808 -0.323008 6.012790
v -0.462140 -0.321864 6.007899
v -0.460716 -0.324827 6.009838
v -0.464169 -0.318683 6.010810
v -0.461027 -0.324249 6.015068
v -0.463013 -0.321194 6.016021
v -0.460985 -0.325111 6.014143
v -0.463013 -0.321194 6.016021
v -0.461572 -0.326937 6.013693
vn 0.4527 0.8620 -0.2281
vn 0.5001 0.8125 -0.2995
vn 0.6781 0.5639 -0.4715
vn 0.3970 0.8979 -0.1899
vn 0.3911 -0.0447 0.9193
vn 0.7741 -0.0233 0.6327
vn 0.6246 0.6581 0.4204
vn -0.8510 0.5197 0.0748
vn -0.7327 0.5609 0.3855
vn -0.8135 0.5753 0.0848
vn 0.7344 -0.4674 -0.4921
vn 0.8040 -0.5815 -0.1244
vn 0.7994 -0.5520 -0.2372
vn 0.4217 0.8946 -0.1476
vn 0.1765 -0.1698 -0.9695
vn 0.5968 -0.4072 -0.6913
vn 0.2168 -0.2075 -0.9539
vn 0.5969 -0.4365 0.6732
vn -0.7688 0.5842 0.2599
vn -0.4690 0.3005 -0.8305
vn -0.6711 0.5374 -0.5107
vn -0.4043 0.2893 -0.8677
vn 0.3840 -0.4894 0.7830
vn -0.6709 0.3860 0.6332
vn -0.7698 0.4359 -0.4662
vn 0.7196 -0.6031 -0.3442
vn -0.7269 0.6515 0.2172
vn 0.4690 -0.8050 0.3633
vn -0.1735 0.1318 -0.9760
vn 0.6321 -0.6232 -0.4604
vn 0.7751 -0.6282 -0.0683
vn 0.4643 -0.7039 -0.5375
vn -0.5708 0.8112 0.1274
vn -0.2428 0.4660 -0.8508
vn -0.6372 0.6970 0.3290
vn -0.0423 -0.0138 0.9990
vn -0.2432 0.4566 -0.8558
vn -0.3488 0.7620 0.5457
vn -0.0408 -0.1203 0.9919
vn 0.4092 -0.6600 -0.6300
vn 0.3664 -0.6008 -0.7105
vn 0.3868 -0.8219 0.4181
vn -0.4757 0.7007 0.5317
vn -0.8743 -0.4775 -0.0877
vn -0.8887 -0.4565 -0.0434
vn -0.8798 -0.4690 -0.0776
vn -0.8827 -0.4666 -0.0568
vn -0.8918 -0.4520 -0.0199
s 1
f 1//1 2//2 3//3
f 2//2 1//1 5//4
f 9//5 10//6 11//7
f 4//8 15//9 12//10
f 17//11 18//12 19//13
f 5//4 1//1 20//14
f 21//15 23//16 22//17
f 18//12 10//6 24//18
f 10//6 9//5 24//18
f 4//8 8//19 15//9
f 22//20 25//21 4//22
f 24//18 9//5 26//23
f 26//23 9//5 16//24
f 8//19 4//8 27//25
f 24//18 19//13 18//12
f 28//26 19//13 24//18
f 15//9 8//19 29//27
f 28//26 30//28 19//13
f 22//20 31//29 25//21
f 23//16 32//30 22//17
f 33//31 24//18 26//23
f 23//16 30//32 32//30
f 27//25 34//33 8//19
f 31//29 35//34 25//21
f 28//26 33//31 30//28
f 29//27 36//35 15//9
f 26//23 16//24 37//36
f 30//28 33//31 26//23
f 36//35 37//36 15//9
f 38//37 35//34 31//29
f 29//27 39//38 36//35
f 26//23 37//36 40//39
f 32//30 30//32 41//40
f 30//32 43//41 41//40
f 26//23 44//42 30//28
f 40//39 37//36 36//35
f 39//38 29//27 42//43
f 45//44 46//45 47//46
f 50//47 51//48 47//46
f 50//47 47//46 46//45
l 46 52
l 48 49
l 13 14
l 6 7
