# Blender v2.78 (sub 0) OBJ File: 'exporter.blend'
# www.blender.org
o FJ2938.obj_grp1.1580
v 0.308537 -0.698708 5.737700
v 0.304283 -0.700263 5.745422
v 0.336085 -0.651963 5.771111
v 0.334847 -0.660899 5.759856
v 0.307573 -0.699096 5.738146
v 0.304351 -0.698421 5.741719
v 0.310771 -0.701002 5.738698
v 0.308375 -0.698872 5.737983
v 0.310813 -0.701045 5.738663
v 0.310813 -0.701045 5.738663
v 0.310990 -0.703026 5.744343
v 0.304954 -0.700486 5.744953
v 0.324379 -0.679600 5.760915
v 0.311102 -0.703186 5.744514
v 0.324379 -0.679600 5.760915
v 0.304954 -0.700486 5.744953
v 0.350834 -0.649200 5.772480
v 0.311688 -0.701678 5.738229
v 0.330913 -0.679393 5.757770
v 0.341921 -0.655173 5.776532
v 0.341034 -0.647197 5.768238
v 0.340503 -0.654204 5.779590
v 0.344010 -0.633594 5.781413
v 0.351257 -0.628254 5.776736
v 0.351257 -0.628254 5.776736
v 0.348011 -0.620565 5.791336
v 0.344642 -0.629719 5.782839
v 0.357708 -0.631824 5.784242
v 0.356475 -0.601413 5.802933
v 0.345271 -0.638755 5.785063
v 0.360034 -0.603977 5.798637
v 0.354222 -0.592044 5.790873
v 0.361430 -0.583608 5.801925
v 0.351206 -0.591603 5.806359
v 0.331999 -0.516617 5.832012
v 0.349127 -0.585792 5.796692
v 0.351206 -0.591603 5.806359
v 0.353952 -0.591646 5.792275
v 0.341296 -0.514517 5.820878
v 0.355567 -0.564921 5.814847
v 0.333313 -0.512919 5.825203
v 0.333623 -0.519623 5.833535
v 0.333003 -0.516644 5.831851
v 0.338380 -0.519048 5.835908
v 0.339382 -0.512692 5.827485
v 0.343513 -0.517677 5.833587
v 0.339382 -0.512692 5.827485
v 0.345231 -0.522320 5.831569
vn -0.7570 0.6285 -0.1789
vn -0.8654 0.4874 0.1163
vn -0.1217 0.5668 -0.8148
vn 0.0504 0.5339 -0.8440
vn -0.4794 -0.8423 -0.2463
vn -0.4765 -0.8077 -0.3472
vn -0.4116 -0.8454 -0.3404
vn -0.4540 -0.8370 -0.3057
vn -0.4290 -0.7812 -0.4536
vn 0.4666 -0.7582 0.4554
vn 0.1586 -0.6160 0.7716
vn -0.1594 -0.5015 0.8503
vn 0.8659 -0.4971 -0.0555
vn 0.5703 0.0406 -0.8205
vn -0.5646 -0.1090 0.8181
vn 0.5596 -0.6755 0.4802
vn 0.7462 -0.6571 -0.1066
vn 0.7131 -0.6612 0.2329
vn -0.6831 0.5713 -0.4550
vn -0.8650 0.1108 0.4894
vn -0.6804 0.5167 -0.5197
vn -0.5787 0.3939 -0.7141
vn 0.8405 0.1373 -0.5241
vn -0.8870 -0.0926 0.4524
vn -0.9552 0.0863 0.2829
vn 0.3466 -0.5188 0.7815
vn 0.3316 -0.3447 0.8782
vn 0.7571 0.2034 -0.6208
vn 0.9840 0.1598 -0.0791
vn -0.9023 0.0257 -0.4303
vn -0.9403 -0.1853 0.2854
vn -0.9407 0.3059 0.1469
vn 0.9325 -0.1998 0.3009
vn -0.2012 -0.3756 0.9047
vn -0.1173 -0.2954 0.9482
vn -0.4277 0.2939 -0.8548
vn -0.4095 0.5078 -0.7579
vn 0.7515 -0.0180 0.6595
vn 0.9105 0.4046 -0.0856
vn -0.6678 0.7155 -0.2055
vn -0.0310 0.8315 0.5546
vn -0.8944 -0.3442 0.2855
vn -0.4279 0.0069 0.9038
vn -0.0642 0.2391 0.9689
vn -0.2130 0.8790 0.4266
vn 0.2244 0.3199 0.9205
vn 0.9296 0.3554 -0.0980
vn 0.7447 0.6670 0.0225
vn 0.4570 -0.2442 0.8553
s 1
f 2//1 3//2 1//3
f 4//4 1//3 3//2
f 5//5 10//6 6//7
f 11//8 6//7 10//6
f 6//7 11//8 12//9
f 14//10 15//11 16//12
f 17//13 1//3 4//4
f 17//13 7//14 1//3
f 3//2 2//1 13//15
f 7//14 17//13 19//16
f 14//10 18//17 19//16
f 14//10 20//18 15//11
f 4//4 3//2 21//19
f 3//2 13//15 22//20
f 3//2 23//21 21//19
f 17//13 14//10 19//16
f 23//21 24//22 21//19
f 4//4 25//23 17//13
f 26//24 27//25 22//20
f 22//20 27//25 3//2
f 20//18 28//26 29//27
f 14//10 28//26 20//18
f 17//13 28//26 14//10
f 32//28 17//13 25//23
f 17//13 32//28 33//29
f 36//30 34//31 35//32
f 24//22 23//21 36//30
f 36//30 27//25 34//31
f 26//24 34//31 27//25
f 31//33 29//27 28//26
f 31//33 17//13 33//29
f 37//34 30//35 29//27
f 36//30 38//36 24//22
f 36//30 39//37 38//36
f 33//29 40//38 31//33
f 33//29 32//28 39//39
f 40//38 29//27 31//33
f 39//37 36//30 41//40
f 43//41 41//40 35//32
f 36//30 35//32 41//40
f 35//32 34//31 42//42
f 42//43 37//34 29//27
f 40//38 44//44 29//27
f 45//45 39//37 41//40
f 45//45 41//40 46//46
f 46//47 39//39 47//48
f 46//47 33//29 39//39
f 33//29 46//47 40//38
f 48//49 46//46 44//44
f 48//49 44//44 40//38
f 44//44 43//41 42//43
f 44//44 41//40 43//41
f 44//44 46//46 41//40
f 44//44 42//43 29//27
l 8 9
