# Blender v2.78 (sub 0) OBJ File: 'exporter.blend'
# www.blender.org
o FJ2914.obj_grp1.1556
v 0.262014 -0.170915 5.443319
v 0.246051 -0.164915 5.407144
v 0.265539 -0.174091 5.440194
v 0.269161 -0.169565 5.435812
v 0.242843 -0.163732 5.413861
v 0.229303 -0.151072 5.379712
v 0.246675 -0.164451 5.408257
v 0.228516 -0.146183 5.380768
v 0.249447 -0.160272 5.406236
v 0.243143 -0.163803 5.414123
v 0.243694 -0.159681 5.418215
v 0.269217 -0.170345 5.438398
v 0.269409 -0.160535 5.439510
v 0.228266 -0.149405 5.379647
v 0.262425 -0.164086 5.443408
v 0.262296 -0.164532 5.444478
v 0.260509 -0.167784 5.444450
v 0.260509 -0.167784 5.444450
v 0.261262 -0.169422 5.447009
v 0.230440 -0.149385 5.377124
v 0.231884 -0.145198 5.378491
v 0.235584 -0.146229 5.387980
v 0.231884 -0.145198 5.378491
v 0.227723 -0.148543 5.381619
v 0.224290 -0.147331 5.381186
v 0.229016 -0.147766 5.379852
v 0.229586 -0.141621 5.381419
v 0.224879 -0.147186 5.383020
v 0.229300 -0.141813 5.381845
v 0.268805 -0.161821 5.438853
v 0.268504 -0.161765 5.439946
v 0.231884 -0.145198 5.378491
vn -0.7310 -0.6303 0.2612
vn -0.8988 -0.1881 0.3960
vn 0.2142 -0.8491 -0.4829
vn -0.2988 0.7862 0.5409
vn 0.6206 -0.4883 -0.6135
vn 0.8758 0.2173 -0.4310
vn 0.4898 -0.6043 -0.6284
vn -0.3717 -0.9238 0.0924
vn -0.8219 0.2553 0.5092
vn -0.8255 -0.4589 0.3284
vn -0.0426 -0.9841 -0.1724
vn -0.0644 -0.9826 -0.1744
vn 0.5329 -0.6199 -0.5760
vn 0.6589 -0.5586 -0.5037
vn 0.7937 -0.0019 -0.6083
vn 0.8161 0.0601 -0.5748
vn -0.7890 -0.5062 0.3482
vn -0.7400 0.3687 0.5626
vn -0.5005 0.7119 0.4927
vn 0.7843 -0.0394 0.6192
vn 0.8137 0.0462 0.5795
vn 0.7621 -0.1151 0.6371
vn 0.8528 0.1663 0.4950
vn 0.6678 -0.6661 -0.3323
vn 0.8156 -0.3011 -0.4941
vn -0.5552 0.3176 -0.7687
vn -0.5521 0.3570 -0.7535
vn -0.6350 0.3261 -0.7003
vn -0.3962 0.3968 -0.8280
vn -0.3337 0.9002 0.2798
vn 0.5901 -0.2976 0.7505
vn 0.3961 0.9040 0.1610
vn -0.1406 0.9253 0.3521
vn 0.6816 0.7070 -0.1884
s 1
f 5//1 26//2 2//3
f 2//3 6//4 7//5
f 6//4 8//6 7//5
f 8//6 9//7 7//5
f 5//1 2//3 10//8
f 11//9 5//1 1//10
f 2//3 1//11 10//8
f 1//11 2//3 12//12
f 12//13 7//5 9//7
f 14//14 13//15 12//16
f 1//10 17//17 11//9
f 11//9 18//18 16//19
f 15//20 3//21 4//22
f 15//20 19//23 3//21
f 23//24 22//25 14//14
f 26//2 6//4 2//3
f 27//26 20//27 28//28
f 27//26 21//29 20//27
f 29//30 26//2 11//9
f 11//9 26//2 5//1
f 22//25 13//15 14//14
f 30//31 15//20 4//22
f 11//9 16//19 22//32
f 31//33 22//32 16//19
f 22//32 32//34 29//30
f 22//32 29//30 11//9
l 24 25
