# Blender v2.78 (sub 0) OBJ File: 'exporter.blend'
# www.blender.org
o FJ2961.obj_grp1.1603
v 0.183239 -0.540902 6.126483
v 0.185378 -0.535880 6.116265
v 0.188212 -0.575832 6.146801
v 0.183103 -0.576792 6.151414
v 0.187115 -0.573483 6.156042
v 0.189337 -0.519044 6.118656
v 0.183508 -0.575949 6.155241
v 0.191928 -0.541155 6.117284
v 0.187559 -0.579544 6.152268
v 0.185932 -0.579944 6.157248
v 0.189598 -0.576953 6.156033
v 0.187175 -0.580128 6.157497
v 0.187368 -0.580956 6.156330
v 0.187108 -0.579867 6.157282
v 0.188227 -0.508913 6.106337
v 0.196020 -0.515236 6.097889
v 0.193998 -0.538094 6.129021
v 0.198504 -0.532184 6.115171
v 0.193328 -0.535016 6.110936
v 0.200551 -0.469380 6.079270
v 0.208473 -0.464021 6.069821
v 0.198634 -0.504697 6.110430
v 0.205041 -0.508748 6.105031
v 0.205041 -0.508748 6.105031
v 0.205816 -0.456267 6.082101
v 0.209503 -0.452957 6.071177
v 0.216720 -0.463670 6.069314
v 0.211227 -0.450178 6.074886
v 0.212396 -0.453428 6.083291
v 0.216309 -0.456216 6.068820
v 0.217235 -0.451434 6.072507
v 0.219409 -0.456606 6.079880
v 0.220953 -0.457287 6.074457
vn -0.9897 0.0967 0.1059
vn -0.7461 -0.3115 -0.5884
vn -0.8308 -0.5040 -0.2361
vn 0.0101 0.4280 0.9037
vn -0.4465 0.5349 0.7173
vn -0.8386 -0.0043 0.5447
vn -0.2519 -0.6020 -0.7577
vn 0.3106 -0.7368 -0.6006
vn 0.5083 -0.8078 -0.2984
vn -0.4497 -0.6263 0.6368
vn 0.8119 -0.1198 0.5714
vn -0.1078 -0.9843 -0.1394
vn 0.8914 -0.4126 0.1875
vn 0.3510 0.1278 0.9276
vn -0.9746 0.2183 -0.0500
vn -0.1059 -0.4753 -0.8734
vn 0.7158 0.2964 0.6323
vn 0.9420 -0.3087 -0.1314
vn 0.6919 -0.4606 -0.5560
vn -0.9087 0.1269 -0.3976
vn -0.4317 -0.1188 -0.8941
vn 0.4379 0.3538 0.8265
vn 0.7039 0.2069 0.6795
vn 0.9622 -0.1724 0.2107
vn -0.7238 0.6131 0.3165
vn -0.5372 0.5563 -0.6340
vn 0.5089 -0.3061 -0.8045
vn 0.3349 0.2405 -0.9111
vn -0.2146 0.9746 -0.0639
vn 0.1219 0.7200 0.6832
vn 0.5162 0.7956 -0.3171
vn 0.7965 0.3914 0.4609
vn 0.9846 0.0855 -0.1526
s 1
f 1//1 2//2 4//3
f 5//4 6//5 7//6
f 2//2 8//7 3//8
f 3//8 4//3 2//2
f 4//3 7//6 1//1
f 9//9 4//3 3//8
f 7//6 4//3 10//10
f 7//6 10//10 5//4
f 10//10 11//11 5//4
f 9//9 10//10 4//3
f 9//9 12//12 10//10
f 3//8 13//13 9//9
f 11//11 13//13 3//8
f 11//11 10//10 14//14
f 11//11 14//14 13//13
f 6//5 15//15 1//1
f 15//15 2//2 1//1
f 6//5 1//1 7//6
f 8//7 2//2 16//16
f 17//17 6//5 5//4
f 18//18 17//17 11//11
f 18//18 3//8 19//19
f 11//11 3//8 18//18
f 11//11 17//17 5//4
f 15//15 20//20 2//2
f 2//2 20//20 16//16
f 16//16 20//20 21//21
f 22//22 6//5 17//17
f 22//22 17//17 23//23
f 18//18 24//24 17//17
f 25//25 15//15 6//5
f 20//20 26//26 21//21
f 25//25 20//20 15//15
f 19//19 16//16 21//21
f 27//27 18//18 19//19
f 30//28 21//21 26//26
f 28//29 25//25 29//30
f 25//25 26//26 20//20
f 25//25 28//29 26//26
f 30//28 27//27 21//21
f 29//30 25//25 6//5
f 6//5 22//22 29//30
f 27//27 19//19 21//21
f 28//29 31//31 26//26
f 30//28 26//26 31//31
f 29//30 31//31 28//29
f 31//31 29//30 32//32
f 31//31 32//32 33//33
f 31//31 33//33 30//28
f 30//28 33//33 27//27
f 32//32 24//24 33//33
f 29//30 22//22 32//32
f 22//22 23//23 32//32
f 33//33 18//18 27//27
f 24//24 18//18 33//33
