# Blender v2.78 (sub 0) OBJ File: 'exporter.blend'
# www.blender.org
o FJ2968.obj_grp1.1610
v -0.321908 -0.228640 6.190303
v -0.300411 -0.222376 6.161036
v -0.306220 -0.220619 6.150403
v -0.315946 -0.228578 6.178361
v -0.332311 -0.241157 6.195535
v -0.329589 -0.239643 6.200520
v -0.311133 -0.227504 6.177516
v -0.329589 -0.239643 6.200520
v -0.325648 -0.243174 6.201493
v -0.324807 -0.238947 6.196871
v -0.325757 -0.240919 6.191195
v -0.326267 -0.243029 6.201059
v -0.300552 -0.228802 6.162309
v -0.325628 -0.243242 6.201458
v -0.327606 -0.247539 6.195637
v -0.311133 -0.227504 6.177516
v -0.307419 -0.222750 6.154818
v -0.330193 -0.245570 6.196303
v -0.315465 -0.229052 6.163097
v -0.302273 -0.230658 6.160908
v -0.328651 -0.241519 6.199158
v -0.332134 -0.240967 6.196059
v -0.304570 -0.228274 6.136416
v -0.294192 -0.225838 6.136622
v -0.298243 -0.223221 6.136805
v -0.318157 -0.227139 6.159245
v -0.308475 -0.228361 6.155781
v -0.307393 -0.225859 6.148550
v -0.297463 -0.222728 6.135640
v -0.297463 -0.222728 6.135640
v -0.300055 -0.222106 6.136062
v -0.303830 -0.223433 6.135123
v -0.295035 -0.223979 6.136624
v -0.303057 -0.232431 6.140403
v -0.306368 -0.224594 6.132905
v -0.301537 -0.233166 6.137463
v -0.301715 -0.233895 6.136511
v -0.296704 -0.231696 6.137517
v -0.295350 -0.229637 6.138263
vn -0.1460 0.9692 0.1983
vn 0.6180 0.6768 0.4000
vn -0.3330 0.8974 -0.2893
vn -0.5958 0.8029 0.0203
vn -0.6209 0.7773 0.1017
vn -0.5677 0.8210 0.0605
vn 0.4049 0.6336 0.6592
vn 0.3394 0.5483 0.7643
vn 0.4055 0.6343 0.6582
vn 0.8351 -0.3486 0.4256
vn 0.7288 -0.6454 0.2287
vn 0.6832 -0.7152 0.1474
vn 0.8261 0.0987 0.5549
vn 0.7269 0.1043 0.6788
vn -0.6407 0.7674 -0.0232
vn 0.7052 -0.6915 0.1567
vn 0.0427 -0.9767 -0.2104
vn -0.1704 -0.9622 -0.2123
vn 0.7805 -0.4676 0.4149
vn -0.7764 -0.3549 -0.5209
vn -0.4574 -0.6559 -0.6005
vn 0.8433 0.4973 0.2039
vn 0.2425 0.9675 0.0711
vn -0.3928 -0.8953 -0.2102
vn -0.9288 0.1109 -0.3536
vn -0.6372 0.3946 -0.6620
vn 0.4571 0.6670 0.5884
vn -0.9439 0.0541 -0.3257
vn 0.0257 -0.4273 -0.9037
vn -0.0058 -0.4282 -0.9036
vn 0.1632 -0.6574 -0.7357
vn 0.8470 -0.5200 0.1104
vn -0.7874 -0.6055 -0.1153
vn 0.5056 -0.8272 0.2451
vn -0.4118 -0.0057 -0.9113
s 1
f 1//1 2//2 3//3
f 4//4 5//5 6//6
f 7//7 8//8 9//9
f 13//10 14//11 15//12
f 16//13 12//14 13//10
f 4//4 17//15 5//5
f 2//2 16//13 13//10
f 20//16 13//10 15//12
f 18//17 20//18 21//19
f 22//20 19//21 18//17
f 13//10 24//22 2//2
f 25//23 3//3 2//2
f 25//23 2//2 24//22
f 19//21 27//24 18//17
f 28//25 26//26 3//3
f 27//24 20//18 18//17
f 24//22 30//27 25//23
f 3//3 25//23 23//28
f 33//29 34//30 35//31
f 28//25 3//3 23//28
f 24//22 13//10 39//32
f 27//24 36//33 20//18
f 39//32 20//16 37//34
f 23//28 36//33 27//24
f 39//32 13//10 20//16
f 28//25 23//28 27//24
f 33//29 38//35 34//30
l 25 29
l 10 11
l 31 32
