# Blender v2.78 (sub 0) OBJ File: 'exporter.blend'
# www.blender.org
o FJ3096.obj_grp1.1737
v -0.120641 -0.663922 5.172472
v -0.116397 -0.662194 5.177387
v -0.116694 -0.659384 5.173916
v -0.119692 -0.661697 5.168231
v -0.116250 -0.658587 5.168265
v -0.119798 -0.667112 5.175386
v -0.114792 -0.676778 5.180011
v -0.120758 -0.669715 5.170060
v -0.116987 -0.676569 5.175111
v -0.111576 -0.659385 5.176555
v -0.111631 -0.675426 5.183054
v -0.109780 -0.667863 5.181366
v -0.115639 -0.660245 5.164616
v -0.110585 -0.658011 5.166606
v -0.111834 -0.661900 5.161840
v -0.117361 -0.664973 5.162613
v -0.120179 -0.669576 5.166145
v -0.116114 -0.670339 5.162427
v -0.115927 -0.677389 5.169990
v -0.112154 -0.657164 5.171002
v -0.107784 -0.657892 5.170400
v -0.106077 -0.660431 5.175284
v -0.115897 -0.682328 5.176616
v -0.103843 -0.671384 5.182246
v -0.110888 -0.696737 5.190557
v -0.114399 -0.695636 5.184744
v -0.104062 -0.695733 5.192808
v -0.110822 -0.667864 5.160653
v -0.113573 -0.678816 5.167941
v -0.108253 -0.680434 5.165883
v -0.107828 -0.660021 5.164570
v -0.103685 -0.661407 5.168316
v -0.113969 -0.696350 5.178087
v -0.109590 -0.700686 5.175417
v -0.101705 -0.665861 5.176069
v -0.113022 -0.701996 5.186159
v -0.111629 -0.703899 5.180919
v -0.098271 -0.673033 5.177470
v -0.100317 -0.690890 5.189109
v -0.104666 -0.709394 5.197165
v -0.104306 -0.714656 5.194529
v -0.098103 -0.697613 5.193241
v -0.094097 -0.710241 5.204267
v -0.091127 -0.706518 5.201503
v -0.107422 -0.664124 5.161911
v -0.104035 -0.669119 5.163890
v -0.100933 -0.667981 5.168134
v -0.101352 -0.681752 5.168054
v -0.096945 -0.677467 5.174979
v -0.103283 -0.708973 5.179371
v -0.095651 -0.695088 5.183016
v -0.108089 -0.710417 5.184937
v -0.096648 -0.695079 5.188368
v -0.096533 -0.695153 5.188499
v -0.096308 -0.722185 5.196705
v -0.099522 -0.717936 5.187846
v -0.098103 -0.697613 5.193241
v -0.092705 -0.721915 5.204931
v -0.078304 -0.710991 5.207675
v -0.083287 -0.723723 5.213741
v -0.081349 -0.717337 5.215292
v -0.098218 -0.679341 5.170805
v -0.105114 -0.695823 5.172085
v -0.098808 -0.699431 5.176141
v -0.096196 -0.696290 5.179730
v -0.095584 -0.711313 5.181808
v -0.089394 -0.704268 5.194962
v -0.088634 -0.705059 5.190482
v -0.079330 -0.710166 5.200390
v -0.073715 -0.712783 5.214286
v -0.064599 -0.714070 5.224739
v -0.081544 -0.727868 5.211262
v -0.034685 -0.719321 5.255121
v -0.094171 -0.707096 5.181590
v -0.091789 -0.720063 5.188837
v -0.087596 -0.709403 5.187873
v -0.072245 -0.724795 5.200857
v -0.071431 -0.716654 5.201609
v -0.084735 -0.726863 5.198941
v -0.081823 -0.728789 5.205800
v -0.070174 -0.713222 5.207504
v -0.070195 -0.730508 5.216854
v -0.036980 -0.724541 5.254204
v -0.025936 -0.716537 5.258089
v -0.062491 -0.723073 5.208263
v -0.080814 -0.724863 5.196231
v -0.071160 -0.728442 5.205442
v -0.073013 -0.730131 5.208752
v -0.028673 -0.732053 5.248092
v -0.034564 -0.730765 5.251259
v -0.031881 -0.714205 5.247466
v -0.038326 -0.714710 5.235782
v -0.018663 -0.723732 5.246425
v -0.019535 -0.719292 5.247323
v -0.023814 -0.728146 5.244144
v -0.024260 -0.731291 5.247597
v 0.013642 -0.721045 5.276067
v 0.002536 -0.729699 5.283473
v -0.000390 -0.734808 5.275960
v 0.012724 -0.723203 5.288241
v 0.014781 -0.737859 5.284490
v 0.018339 -0.721439 5.286620
v 0.011866 -0.728752 5.291757
v 0.021293 -0.730524 5.303553
v 0.023504 -0.725153 5.302370
v 0.016279 -0.723913 5.273973
v 0.015349 -0.735681 5.292110
v 0.022356 -0.735545 5.302405
v 0.026027 -0.722820 5.299353
v 0.028086 -0.725195 5.303126
v 0.030034 -0.723115 5.297739
v 0.025315 -0.730324 5.305166
v 0.028401 -0.735520 5.303565
v 0.028107 -0.737715 5.301264
v 0.033448 -0.726806 5.299801
v 0.031403 -0.729688 5.303645
v 0.017279 -0.729155 5.272807
v 0.017640 -0.733090 5.274691
v 0.013650 -0.736168 5.275337
v 0.032014 -0.724329 5.295475
v 0.024936 -0.738754 5.299026
v 0.028467 -0.739059 5.296457
v 0.033122 -0.732889 5.301558
v 0.034713 -0.732017 5.296206
v 0.032111 -0.737066 5.297784
v 0.027804 -0.725718 5.285646
v 0.027055 -0.732197 5.283383
v 0.024788 -0.736352 5.284509
v 0.032800 -0.735424 5.293439
v 0.034322 -0.728775 5.293843
vn -0.5254 0.7719 0.3578
vn -0.9361 0.2991 0.1853
vn -0.4912 0.4385 0.7527
vn -0.8358 0.4955 -0.2363
vn -0.4674 0.8593 -0.2080
vn -0.8623 -0.0001 0.5065
vn -0.9642 -0.2650 -0.0047
vn -0.9424 -0.3073 0.1318
vn -0.8385 -0.0180 0.5446
vn 0.0333 0.7590 0.6502
vn -0.5434 0.2152 0.8114
vn -0.0606 0.3889 0.9193
vn -0.3799 0.6966 -0.6086
vn 0.0712 0.9220 -0.3805
vn -0.0382 0.5028 -0.8635
vn -0.5935 0.1734 -0.7860
vn -0.8734 -0.2332 -0.4276
vn -0.8122 -0.4953 -0.3083
vn -0.0624 0.9924 0.1064
vn 0.4233 0.9055 0.0300
vn 0.5086 0.7163 0.4777
vn -0.9911 -0.1324 -0.0091
vn 0.4014 0.4224 0.8126
vn -0.6654 0.1230 0.7363
vn -0.9633 -0.0697 0.2593
vn -0.1049 0.4888 0.8661
vn 0.0631 -0.0958 -0.9934
vn -0.4346 -0.3388 -0.8345
vn -0.6136 -0.5074 -0.6050
vn -0.0790 -0.4177 -0.9052
vn 0.4123 0.7097 -0.5713
vn 0.7803 0.5889 -0.2105
vn -0.8998 -0.2865 -0.3290
vn -0.4533 -0.5014 -0.7369
vn 0.7757 0.5183 0.3601
vn -0.9278 -0.3031 0.2176
vn -0.7692 -0.5412 -0.3398
vn 0.8875 0.3461 0.3043
vn 0.5690 0.3746 0.7320
vn -0.6899 -0.6829 -0.2402
vn -0.7201 -0.1048 0.6859
vn -0.7823 -0.5632 0.2662
vn 0.1731 0.6868 0.7059
vn -0.3284 0.5149 0.7919
vn 0.1009 0.7874 0.6082
vn 0.4808 0.2628 -0.8365
vn 0.6323 -0.0065 -0.7747
vn 0.8774 0.2748 -0.3932
vn 0.5121 -0.2475 -0.8225
vn 0.9882 0.1363 -0.0700
vn 0.9702 0.2405 -0.0311
vn 0.6869 0.6192 0.3803
vn 0.6795 0.7280 0.0914
vn -0.5440 -0.8390 0.0104
vn -0.3850 -0.8007 -0.4589
vn 0.5539 0.6838 0.4749
vn -0.6696 -0.5482 0.5011
vn 0.1634 0.9535 0.2532
vn -0.6074 -0.3206 0.7268
vn -0.5158 0.3686 0.7734
vn 0.8629 -0.0301 -0.5046
vn 0.0781 -0.4055 -0.9107
vn 0.6265 -0.2077 -0.7512
vn -0.1713 -0.6327 -0.7552
vn 0.9165 0.0685 -0.3941
vn 0.3309 -0.4266 -0.8418
vn 0.5423 0.8132 0.2113
vn 0.7671 0.6055 -0.2119
vn -0.4790 -0.7885 0.3858
vn 0.5705 0.8117 -0.1249
vn -0.0927 0.9502 0.2976
vn -0.3217 0.8364 0.4437
vn -0.5296 0.4392 0.7257
vn 0.6534 -0.1002 -0.7503
vn 0.0781 -0.7305 -0.6784
vn 0.7478 0.2586 -0.6115
vn 0.5336 -0.4000 -0.7452
vn 0.6725 0.4726 -0.5696
vn -0.1242 -0.9306 -0.3443
vn -0.2731 -0.9614 -0.0331
vn 0.4146 0.8726 -0.2582
vn -0.2086 -0.9643 0.1633
vn -0.6234 -0.2230 0.7494
vn -0.2656 0.8259 0.4973
vn 0.6810 -0.1174 -0.7228
vn 0.2545 -0.6853 -0.6823
vn 0.3258 -0.7970 -0.5085
vn 0.0348 -0.9797 -0.1973
vn 0.0181 -0.9943 -0.1055
vn -0.3913 -0.8237 0.4103
vn 0.0204 0.9952 0.0957
vn 0.3487 0.8706 -0.3470
vn 0.6192 0.0230 -0.7849
vn 0.5215 -0.5064 -0.6868
vn 0.2857 -0.8529 -0.4370
vn 0.5916 0.4130 -0.6924
vn 0.3513 0.9056 -0.2378
vn -0.6292 -0.1269 0.7668
vn -0.4824 -0.7287 0.4861
vn -0.4264 0.7209 0.5463
vn -0.1539 -0.9868 0.0496
vn 0.0415 0.9924 0.1160
vn -0.7438 0.0837 0.6631
vn -0.5921 0.0372 0.8050
vn -0.3555 0.6245 0.6954
vn 0.6067 0.5392 -0.5841
vn -0.6091 -0.6374 0.4719
vn -0.4698 -0.5445 0.6949
vn -0.0320 0.9394 0.3414
vn 0.2223 0.6248 0.7485
vn 0.4142 0.8967 0.1561
vn -0.0938 0.0222 0.9953
vn 0.2206 -0.5401 0.8121
vn -0.2083 -0.9203 0.3312
vn 0.2216 -0.8146 0.5360
vn 0.8307 0.4388 0.3427
vn 0.5325 0.1192 0.8380
vn 0.6529 -0.0301 -0.7569
vn 0.5580 -0.4849 -0.6734
vn 0.2508 -0.8699 -0.4247
vn 0.6773 0.7276 -0.1087
vn 0.2632 -0.9637 -0.0454
vn 0.7961 -0.2925 0.5298
vn 0.9800 -0.1982 -0.0199
vn 0.6766 -0.7218 0.1454
vn 0.7045 0.4963 -0.5073
vn 0.7453 -0.2279 -0.6265
vn 0.4707 -0.7541 -0.4581
vn 0.7795 -0.5285 -0.3363
vn 0.9376 0.2126 -0.2750
s 1
f 3//1 1//2 2//3
f 3//1 4//4 1//2
f 3//1 5//5 4//4
f 1//2 6//6 2//3
f 1//2 8//7 6//6
f 6//6 9//8 7//9
f 9//8 6//6 8//7
f 2//3 10//10 3//1
f 6//6 7//9 11//11
f 6//6 11//11 2//3
f 2//3 11//11 12//12
f 13//13 5//5 14//14
f 13//13 14//14 15//15
f 4//4 13//13 16//16
f 13//13 4//4 5//5
f 15//15 16//16 13//13
f 8//7 1//2 17//17
f 4//4 17//17 1//2
f 4//4 16//16 17//17
f 17//17 9//8 8//7
f 9//8 17//17 19//18
f 3//1 20//19 5//5
f 14//14 5//5 20//19
f 14//14 20//19 21//20
f 3//1 10//10 20//19
f 20//19 10//10 21//20
f 21//20 10//10 22//21
f 9//8 19//18 23//22
f 10//10 2//3 12//12
f 24//23 22//21 10//10
f 7//9 25//24 11//11
f 9//8 23//22 7//9
f 7//9 26//25 25//24
f 23//22 26//25 7//9
f 24//23 10//10 12//12
f 11//11 25//24 27//26
f 16//16 28//27 18//28
f 16//16 18//28 17//17
f 19//18 17//17 29//29
f 17//17 18//28 29//29
f 29//29 18//28 30//30
f 31//31 15//15 14//14
f 31//31 14//14 21//20
f 32//32 31//31 21//20
f 21//20 22//21 32//32
f 29//29 23//22 19//18
f 33//33 23//22 29//29
f 34//34 33//33 29//29
f 22//21 35//35 32//32
f 33//33 26//25 23//22
f 33//33 36//36 26//25
f 36//36 33//33 37//37
f 22//21 24//23 35//35
f 38//38 35//35 24//23
f 38//38 24//23 39//39
f 25//24 26//25 36//36
f 37//37 52//40 36//36
f 39//39 24//23 27//26
f 12//12 11//11 27//26
f 12//12 27//26 24//23
f 36//36 40//41 25//24
f 41//42 40//41 36//36
f 42//43 39//39 27//26
f 27//26 25//24 43//44
f 44//45 27//26 43//44
f 15//15 28//27 16//16
f 28//27 15//15 45//46
f 30//30 18//28 28//27
f 31//31 45//46 15//15
f 45//46 46//47 28//27
f 46//47 45//46 47//48
f 48//49 30//30 28//27
f 31//31 32//32 45//46
f 32//32 47//48 45//46
f 34//34 29//29 30//30
f 38//38 32//32 35//35
f 38//38 47//48 32//32
f 38//38 49//50 47//48
f 37//37 33//33 34//34
f 51//51 49//50 38//38
f 53//52 38//38 39//39
f 38//38 53//52 51//51
f 51//51 53//52 54//53
f 36//36 52//40 41//42
f 55//54 41//42 52//40
f 55//54 52//40 56//55
f 39//39 57//56 53//52
f 42//43 27//26 44//45
f 25//24 40//41 43//44
f 41//42 58//57 40//41
f 43//44 59//58 44//45
f 58//57 60//59 40//41
f 43//44 40//41 61//60
f 40//41 60//59 61//60
f 28//27 46//47 48//49
f 62//61 46//47 47//48
f 46//47 62//61 48//49
f 34//34 30//30 63//62
f 48//49 63//62 30//30
f 49//50 62//61 47//48
f 63//62 48//49 64//63
f 48//49 62//61 64//63
f 63//62 50//64 34//34
f 51//51 65//65 49//50
f 62//61 49//50 65//65
f 62//61 65//65 64//63
f 66//66 50//64 63//62
f 37//37 34//34 52//40
f 52//40 34//34 50//64
f 52//40 50//64 56//55
f 53//52 57//56 67//67
f 67//67 68//68 54//53
f 51//51 54//53 68//68
f 51//51 68//68 65//65
f 67//67 57//56 44//45
f 55//54 58//57 41//42
f 67//67 44//45 59//58
f 55//54 72//69 58//57
f 69//70 67//67 59//58
f 72//69 60//59 58//57
f 70//71 59//58 43//44
f 61//60 70//71 43//44
f 61//60 71//72 70//71
f 71//72 61//60 73//73
f 63//62 64//63 66//66
f 74//74 64//63 65//65
f 64//63 74//74 66//66
f 75//75 56//55 50//64
f 65//65 68//68 76//76
f 65//65 76//76 74//74
f 77//77 74//74 76//76
f 66//66 74//74 77//77
f 75//75 50//64 66//66
f 69//70 68//68 67//67
f 76//76 68//68 78//78
f 68//68 69//70 78//78
f 55//54 56//55 79//79
f 80//80 72//69 55//54
f 79//79 80//80 55//54
f 69//70 59//58 81//81
f 80//80 82//82 72//69
f 81//81 59//58 70//71
f 83//83 60//59 72//69
f 83//83 61//60 60//59
f 61//60 83//83 73//73
f 71//72 73//73 84//84
f 85//85 77//77 76//76
f 86//86 75//75 66//66
f 66//66 77//77 86//86
f 56//55 75//75 79//79
f 75//75 86//86 79//79
f 76//76 78//78 85//85
f 79//79 86//86 87//87
f 79//79 87//87 88//88
f 69//70 81//81 78//78
f 82//82 80//80 88//88
f 79//79 88//88 80//80
f 82//82 88//88 89//89
f 90//90 72//69 82//82
f 81//81 70//71 91//91
f 81//81 91//91 92//92
f 91//91 70//71 71//72
f 91//91 71//72 84//84
f 86//86 77//77 87//87
f 87//87 89//89 88//88
f 85//85 93//93 95//94
f 85//85 95//94 77//77
f 89//89 87//87 96//95
f 96//95 87//87 95//94
f 87//87 77//77 95//94
f 94//96 78//78 81//81
f 89//89 90//90 82//82
f 97//97 92//92 91//91
f 90//90 83//83 72//69
f 98//98 83//83 90//90
f 83//83 98//98 73//73
f 99//99 98//98 90//90
f 100//100 84//84 73//73
f 100//100 73//73 98//98
f 85//85 78//78 93//93
f 78//78 94//96 93//93
f 81//81 92//92 94//96
f 89//89 101//101 90//90
f 101//101 99//99 90//90
f 102//102 91//91 84//84
f 84//84 100//100 102//102
f 98//98 103//103 100//100
f 103//103 104//104 105//105
f 92//92 97//97 106//106
f 92//92 106//106 94//96
f 97//97 91//91 102//102
f 107//107 98//98 99//99
f 107//107 99//99 101//101
f 98//98 107//107 103//103
f 103//103 105//105 100//100
f 103//103 107//107 108//108
f 100//100 109//109 102//102
f 103//103 108//108 104//104
f 105//105 109//109 100//100
f 109//109 105//105 110//110
f 102//102 109//109 111//111
f 109//109 110//110 111//111
f 105//105 104//104 112//112
f 112//112 110//110 105//105
f 104//104 108//108 112//112
f 112//112 108//108 113//113
f 121//114 114//115 108//108
f 108//108 114//115 113//113
f 115//116 110//110 116//117
f 116//117 110//110 112//112
f 112//112 113//113 116//117
f 93//93 94//96 106//106
f 93//93 106//106 117//118
f 95//94 93//93 117//118
f 95//94 117//118 118//119
f 96//95 95//94 119//120
f 119//120 95//94 118//119
f 119//120 89//89 96//95
f 97//97 111//111 120//121
f 97//97 102//102 111//111
f 107//107 121//114 108//108
f 101//101 121//114 107//107
f 111//111 110//110 115//116
f 115//116 120//121 111//111
f 122//122 114//115 121//114
f 122//122 121//114 101//101
f 115//116 116//117 123//123
f 124//124 115//116 123//123
f 116//117 113//113 123//123
f 114//115 125//125 113//113
f 125//125 123//123 113//113
f 126//126 106//106 97//97
f 118//119 117//118 127//127
f 101//101 89//89 119//120
f 119//120 118//119 128//128
f 120//121 126//126 97//97
f 106//106 126//126 117//118
f 127//127 128//128 118//119
f 127//127 129//129 128//128
f 122//122 101//101 119//120
f 122//122 119//120 128//128
f 120//121 130//130 126//126
f 117//118 126//126 127//127
f 127//127 126//126 130//130
f 127//127 130//130 129//129
f 122//122 128//128 129//129
f 130//130 124//124 129//129
f 125//125 114//115 122//122
f 122//122 129//129 125//125
f 125//125 129//129 124//124
f 130//130 120//121 115//116
f 130//130 115//116 124//124
f 125//125 124//124 123//123
