# Blender v2.78 (sub 0) OBJ File: 'exporter.blend'
# www.blender.org
o FJ3058.obj_grp1.1700
v -0.173762 -0.338855 5.612005
v -0.175462 -0.342296 5.614967
v -0.159999 -0.344263 5.577141
v -0.171557 -0.335608 5.615923
v -0.174065 -0.338792 5.618417
v -0.172763 -0.342899 5.620400
v -0.170191 -0.340399 5.621617
v -0.172251 -0.346716 5.616673
v -0.160906 -0.341337 5.579006
v -0.157707 -0.349131 5.586800
v -0.168177 -0.346684 5.618786
v -0.153691 -0.335753 5.575150
v -0.170148 -0.337650 5.620123
v -0.167368 -0.337772 5.619654
v -0.167368 -0.337772 5.619654
v -0.170148 -0.337650 5.620123
v -0.164688 -0.336260 5.612940
v -0.164688 -0.336260 5.612940
v -0.162299 -0.343217 5.615169
v -0.143316 -0.338382 5.565958
v -0.146783 -0.346224 5.574297
v -0.147258 -0.346332 5.560307
v -0.139895 -0.333003 5.534256
v -0.139109 -0.336291 5.533038
v -0.142741 -0.336479 5.537451
v -0.139007 -0.339675 5.536204
v -0.142741 -0.336479 5.537451
v -0.139109 -0.336291 5.533038
v -0.137713 -0.332570 5.534051
v -0.135528 -0.332681 5.536360
v -0.137677 -0.334780 5.532615
v -0.137677 -0.334780 5.532615
v -0.137687 -0.332784 5.534117
v -0.134547 -0.335077 5.534885
v -0.137653 -0.334795 5.532562
v -0.134518 -0.337654 5.536726
vn -0.7966 0.4062 0.4477
vn -0.3861 0.9067 0.1697
vn -0.8240 0.4816 -0.2984
vn -0.9794 -0.2002 -0.0266
vn -0.5453 -0.3141 0.7772
vn -0.0187 0.0932 0.9955
vn -0.5137 -0.8404 0.1729
vn -0.8427 0.3672 -0.3938
vn -0.7880 -0.4895 -0.3733
vn -0.0612 -0.9972 -0.0427
vn 0.2748 -0.7213 0.6358
vn -0.1697 0.9840 -0.0546
vn -0.2528 0.7638 0.5939
vn 0.2287 0.9170 0.3268
vn 0.5540 0.2186 0.8033
vn 0.1787 0.4669 0.8661
vn 0.1785 0.9736 0.1423
vn 0.8224 0.4200 0.3837
vn 0.8222 -0.2036 0.5315
vn 0.8329 0.4578 0.3110
vn 0.7447 -0.6395 0.1909
vn -0.0480 -0.9701 -0.2380
vn -0.5740 0.6548 -0.4918
vn -0.6037 0.1381 -0.7852
vn -0.8573 0.2347 -0.4582
vn -0.1177 -0.8870 -0.4466
vn -0.6725 -0.5914 -0.4449
vn 0.0167 -0.6923 -0.7214
vn -0.1813 0.9174 -0.3543
vn 0.8911 -0.4053 -0.2040
vn 0.6516 0.7586 -0.0058
vn -0.1886 0.5280 -0.8280
vn -0.4672 0.2089 -0.8591
vn 0.5546 0.5411 -0.6321
vn 0.9104 0.0716 -0.4075
vn 0.5885 -0.1534 -0.7938
s 1
f 5//1 4//2 1//3
f 1//3 2//4 5//1
f 6//5 5//1 2//4
f 5//1 6//5 7//6
f 8//7 6//5 2//4
f 9//8 2//4 1//3
f 2//4 9//8 3//9
f 10//10 8//7 3//9
f 11//11 8//7 10//10
f 1//3 4//2 12//12
f 2//4 3//9 8//7
f 4//2 5//1 13//13
f 13//13 5//1 7//6
f 14//14 4//2 13//13
f 15//15 16//16 7//6
f 14//14 17//17 4//2
f 18//18 15//15 19//19
f 18//18 19//19 20//20
f 6//5 11//11 7//6
f 11//11 6//5 8//7
f 7//6 19//19 15//15
f 11//11 19//19 7//6
f 19//19 11//11 21//21
f 9//8 1//3 12//12
f 22//22 10//10 3//9
f 12//12 4//2 17//17
f 12//12 17//17 20//20
f 21//21 10//10 22//22
f 10//10 21//21 11//11
f 23//23 24//24 25//25
f 26//26 27//27 28//28
f 9//8 23//23 25//25
f 12//12 23//23 9//8
f 27//27 26//26 3//9
f 26//26 22//22 3//9
f 29//29 23//23 12//12
f 25//25 3//9 9//8
f 36//30 21//21 22//22
f 20//20 30//31 12//12
f 19//19 21//21 20//20
f 23//23 29//29 31//32
f 24//24 23//23 32//33
f 33//34 30//31 34//35
f 35//36 33//34 34//35
f 35//36 26//26 28//28
f 36//30 26//26 35//36
f 22//22 26//26 36//30
f 29//29 12//12 30//31
f 34//35 36//30 35//36
f 34//35 30//31 36//30
f 36//30 20//20 21//21
f 36//30 30//31 20//20
