# Blender v2.78 (sub 0) OBJ File: 'exporter.blend'
# www.blender.org
o FJ3026.obj_grp1.1668
v -0.267769 -0.330263 6.202246
v -0.266149 -0.336351 6.203106
v -0.264775 -0.329258 6.212780
v -0.264690 -0.333866 6.194355
v -0.261993 -0.338372 6.198712
v -0.261812 -0.338924 6.199003
v -0.262328 -0.328724 6.195193
v -0.260462 -0.336775 6.196577
v -0.250399 -0.320253 6.231633
v -0.261063 -0.319043 6.212144
v -0.259773 -0.317541 6.224483
v -0.247226 -0.311300 6.238304
v -0.256961 -0.332778 6.196661
v -0.248119 -0.322156 6.226120
v -0.248255 -0.317290 6.218664
v -0.252272 -0.315863 6.216642
v -0.254905 -0.321882 6.208547
v -0.242547 -0.312909 6.224431
v -0.241014 -0.314641 6.227889
v -0.247851 -0.307533 6.237017
v -0.246150 -0.303867 6.234102
v -0.220511 -0.287793 6.247770
v -0.217183 -0.294840 6.252975
v -0.223162 -0.290937 6.251285
v -0.218432 -0.289764 6.244569
v -0.219124 -0.292708 6.253389
v -0.214442 -0.293604 6.246112
v -0.220396 -0.288014 6.247844
v -0.215070 -0.291079 6.246480
v -0.220028 -0.288690 6.249924
v -0.217139 -0.294428 6.253097
v -0.214106 -0.293803 6.248009
v -0.214474 -0.293595 6.246151
vn -0.6812 -0.7097 0.1799
vn -0.7589 -0.3727 0.5340
vn -0.9584 0.2603 -0.1174
vn -0.5103 -0.2070 -0.8347
vn -0.6406 -0.6065 -0.4709
vn 0.1436 -0.9892 -0.0309
vn -0.0993 0.5856 -0.8045
vn 0.4358 -0.6202 -0.6523
vn -0.2046 -0.6717 0.7120
vn -0.4871 0.8439 -0.2248
vn -0.8780 0.2077 0.4311
vn -0.4752 -0.2219 0.8515
vn 0.7865 -0.1198 -0.6058
vn 0.6468 -0.7599 0.0645
vn 0.9016 -0.3200 -0.2910
vn 0.2432 0.6670 -0.7043
vn 0.5438 0.5651 -0.6204
vn 0.6845 -0.0178 -0.7288
vn 0.7544 -0.4934 -0.4329
vn -0.7224 0.3846 0.5746
vn -0.5918 0.8058 0.0202
vn -0.1112 0.9925 -0.0517
vn 0.4684 -0.6269 0.6226
vn -0.4681 0.5229 0.7123
vn 0.3265 0.7014 -0.6336
vn 0.0626 0.2817 0.9575
vn 0.7324 -0.2798 -0.6207
vn 0.6737 0.7288 0.1223
vn 0.7750 0.5851 -0.2388
vn 0.1252 0.8199 0.5587
vn 0.8109 0.2645 0.5221
vn 0.9632 -0.1400 0.2295
vn 0.9552 0.2484 -0.1608
s 1
f 2//1 3//2 1//3
f 4//4 5//5 2//1
f 1//3 4//4 2//1
f 5//5 6//6 2//1
f 4//4 1//3 7//7
f 5//5 4//4 8//8
f 2//1 6//6 9//9
f 7//7 1//3 10//10
f 1//3 11//11 10//10
f 1//3 3//2 11//11
f 2//1 9//9 3//2
f 3//2 9//9 11//11
f 11//11 9//9 12//12
f 4//4 13//13 8//8
f 7//7 13//13 4//4
f 6//6 8//8 13//13
f 13//13 14//14 6//6
f 15//15 14//14 13//13
f 10//10 16//16 7//7
f 13//13 7//7 17//17
f 16//16 17//17 7//7
f 13//13 17//17 15//15
f 6//6 14//14 9//9
f 18//18 17//17 16//16
f 19//19 14//14 15//15
f 12//12 20//20 11//11
f 21//21 10//10 11//11
f 11//11 20//20 21//21
f 22//22 16//16 10//10
f 22//22 10//10 21//21
f 15//15 18//18 19//19
f 16//16 22//22 18//18
f 23//23 9//9 14//14
f 21//21 20//20 24//24
f 20//20 12//12 24//24
f 25//25 18//18 22//22
f 21//21 24//24 22//22
f 26//26 12//12 9//9
f 12//12 26//26 24//24
f 27//27 19//19 18//18
f 28//28 25//25 22//22
f 19//19 27//27 14//14
f 25//25 27//27 18//18
f 29//29 25//25 28//28
f 27//27 25//25 29//29
f 23//23 26//26 9//9
f 30//30 24//24 26//26
f 22//22 24//24 30//30
f 31//31 30//30 26//26
f 28//28 30//30 29//29
f 30//30 31//31 29//29
f 27//27 32//32 14//14
f 14//14 32//32 23//23
f 23//23 32//32 31//31
f 31//31 32//32 29//29
f 33//33 29//29 32//32
