# Blender v2.78 (sub 0) OBJ File: 'exporter.blend'
# www.blender.org
o FJ3037.obj_grp1.1679
v -0.403329 -0.744495 5.679839
v -0.406729 -0.740526 5.681290
v -0.407496 -0.747477 5.683638
v -0.398096 -0.741712 5.678813
v -0.403941 -0.749680 5.682608
v -0.405774 -0.748016 5.689172
v -0.403780 -0.748962 5.682774
v -0.399140 -0.747530 5.687437
v -0.377444 -0.689787 5.673018
v -0.408682 -0.743065 5.687045
v -0.404914 -0.741696 5.690370
v -0.402106 -0.747300 5.690306
v -0.348676 -0.674645 5.670755
v -0.355695 -0.666554 5.665042
v -0.363901 -0.695237 5.681773
v -0.360386 -0.660857 5.674625
v -0.336411 -0.649281 5.663213
v -0.352097 -0.655501 5.681605
v -0.324497 -0.637038 5.678467
v -0.323906 -0.622346 5.682490
v -0.329203 -0.614584 5.666049
v -0.327754 -0.625539 5.661500
v -0.311684 -0.622698 5.674354
v -0.307568 -0.616824 5.668821
v -0.317650 -0.602359 5.681858
v -0.321163 -0.601019 5.673800
v -0.302502 -0.586202 5.667262
v -0.300500 -0.600286 5.685858
v -0.278035 -0.582596 5.671423
v -0.299323 -0.594840 5.664054
v -0.300846 -0.579809 5.679937
v -0.289376 -0.574510 5.690214
v -0.285160 -0.591722 5.685652
v -0.289376 -0.574510 5.690214
v -0.267688 -0.560200 5.676323
v -0.260976 -0.571268 5.681707
v -0.266583 -0.565919 5.699866
v -0.259813 -0.539595 5.697172
v -0.258031 -0.541146 5.706894
v -0.260314 -0.549503 5.706106
v -0.248585 -0.552723 5.685268
v -0.247373 -0.559221 5.691923
v -0.236973 -0.515415 5.704607
v -0.221799 -0.505992 5.710542
v -0.245557 -0.519134 5.716788
v -0.220072 -0.518474 5.710981
v -0.230792 -0.532942 5.719776
v -0.238648 -0.508083 5.712919
v -0.226985 -0.509854 5.733750
v -0.227708 -0.533994 5.709475
v -0.220507 -0.467428 5.736980
v -0.217575 -0.473095 5.745034
v -0.209836 -0.500767 5.730024
v -0.211470 -0.461310 5.728683
v -0.216078 -0.464222 5.743930
v -0.205014 -0.476851 5.746245
v -0.213189 -0.459551 5.739681
v -0.201123 -0.465725 5.727592
v -0.205900 -0.458328 5.733663
v -0.209125 -0.468810 5.748381
v -0.208170 -0.461409 5.745549
v -0.201072 -0.466031 5.745671
v -0.195726 -0.468882 5.736623
v -0.198382 -0.473296 5.742520
v -0.199054 -0.462437 5.738729
vn -0.7945 -0.5262 -0.3031
vn -0.7582 0.2181 -0.6145
vn -0.2160 -0.2561 -0.9422
vn -0.0810 -0.8762 -0.4751
vn -0.4330 -0.6579 0.6162
vn 0.3132 -0.4248 -0.8494
vn 0.6724 -0.3186 -0.6681
vn 0.6560 -0.7265 0.2046
vn -0.7532 0.3945 -0.5264
vn -0.9634 0.0734 0.2576
vn -0.3737 0.1933 0.9072
vn 0.1719 -0.5188 0.8374
vn 0.7261 -0.5588 -0.4008
vn -0.2973 0.0604 -0.9529
vn 0.6531 -0.3657 0.6632
vn -0.8337 0.5423 0.1039
vn 0.3618 -0.2911 -0.8856
vn -0.4315 0.3056 0.8488
vn 0.5316 -0.3838 0.7550
vn 0.0521 -0.0823 0.9952
vn -0.6353 0.4985 -0.5898
vn -0.1213 0.1110 -0.9864
vn 0.7717 -0.6014 0.2068
vn 0.7680 -0.6319 -0.1049
vn -0.5714 0.3552 0.7398
vn -0.7727 0.6348 -0.0001
vn -0.3785 0.5736 -0.7265
vn 0.1761 -0.3563 0.9176
vn 0.5480 -0.2728 -0.7908
vn 0.1528 0.0382 -0.9875
vn -0.7080 0.7022 0.0753
vn -0.3149 -0.0208 0.9489
vn 0.5055 -0.6747 0.5378
vn -0.6631 0.3659 0.6531
vn 0.0376 0.4416 -0.8964
vn 0.7221 -0.5159 -0.4608
vn 0.7955 -0.5938 -0.1207
vn -0.2124 -0.2989 0.9303
vn -0.7231 0.6767 -0.1386
vn -0.8033 0.3188 0.5030
vn -0.5227 0.0072 0.8525
vn 0.6271 -0.0521 -0.7772
vn 0.3762 0.2262 -0.8985
vn -0.1958 0.5403 -0.8184
vn -0.8647 0.4807 0.1459
vn 0.8421 -0.1944 -0.5030
vn 0.4178 -0.6440 0.6409
vn -0.7205 0.5805 -0.3794
vn -0.1602 -0.3493 0.9232
vn 0.8204 -0.5710 -0.0310
vn -0.8634 0.5011 0.0586
vn -0.5758 0.0347 0.8169
vn 0.8183 -0.5114 0.2625
vn -0.2521 0.7478 -0.6142
vn -0.6241 0.4924 0.6067
vn 0.3310 -0.3455 0.8781
vn -0.4034 0.8959 0.1859
vn 0.6125 0.3790 -0.6937
vn 0.2234 0.9567 -0.1864
vn -0.0404 0.0861 0.9955
vn 0.0284 0.7024 0.7112
vn 0.9965 0.0757 -0.0361
vn 0.8259 -0.2352 0.5124
vn 0.7231 0.6783 0.1308
vn 0.5699 0.3105 0.7608
s 1
f 3//1 2//2 1//3
f 5//4 3//1 1//3
f 6//5 3//1 5//4
f 1//3 4//6 7//7
f 8//8 5//4 7//7
f 4//6 8//8 7//7
f 9//9 2//2 10//10
f 3//1 10//10 2//2
f 3//1 6//5 10//10
f 10//10 6//5 11//11
f 8//8 12//12 5//4
f 12//12 6//5 5//4
f 12//12 11//11 6//5
f 13//13 8//8 4//6
f 9//9 14//14 2//2
f 1//3 2//2 4//6
f 4//6 2//2 14//14
f 8//8 15//15 12//12
f 10//10 16//16 9//9
f 14//14 17//17 4//6
f 8//8 13//13 15//15
f 12//12 18//18 11//11
f 15//15 18//18 12//12
f 17//17 13//13 4//6
f 15//15 19//19 20//20
f 16//16 10//10 18//18
f 15//15 20//20 18//18
f 18//18 10//10 11//11
f 14//14 9//9 21//21
f 14//14 22//22 17//17
f 22//22 14//14 21//21
f 23//23 15//15 13//13
f 23//23 13//13 24//24
f 20//20 25//25 18//18
f 17//17 24//24 13//13
f 16//16 21//21 9//9
f 15//15 23//23 19//19
f 26//26 21//21 16//16
f 16//16 18//18 26//26
f 27//27 22//22 21//21
f 19//19 28//28 20//20
f 18//18 25//25 26//26
f 17//17 29//29 24//24
f 22//22 30//30 17//17
f 28//28 19//19 23//23
f 21//21 26//26 27//27
f 31//31 26//26 25//25
f 25//25 20//20 32//32
f 30//30 22//22 27//27
f 33//33 23//23 24//24
f 27//27 26//26 31//31
f 23//23 33//33 28//28
f 31//31 25//25 34//34
f 20//20 28//28 32//32
f 30//30 29//29 17//17
f 35//35 30//30 27//27
f 36//36 24//24 29//29
f 36//36 42//37 24//24
f 42//37 33//33 24//24
f 28//28 37//38 32//32
f 33//33 37//38 28//28
f 30//30 35//35 29//29
f 27//27 31//31 38//39
f 39//40 38//39 31//31
f 39//40 31//31 34//34
f 37//38 40//41 32//32
f 34//34 40//41 39//40
f 41//42 29//29 35//35
f 41//42 36//36 29//29
f 35//35 27//27 38//39
f 41//42 42//37 36//36
f 44//43 35//35 43//44
f 43//44 35//35 38//39
f 38//39 39//40 45//45
f 35//35 44//43 41//42
f 46//46 41//42 44//43
f 47//47 33//33 42//37
f 47//47 37//38 33//33
f 43//44 38//39 48//48
f 48//48 38//39 45//45
f 49//49 40//41 37//38
f 42//37 41//42 46//46
f 42//37 46//46 50//50
f 47//47 42//37 50//50
f 37//38 47//47 49//49
f 51//51 48//48 45//45
f 52//52 45//45 39//40
f 53//53 50//50 46//46
f 39//40 40//41 49//49
f 49//49 52//52 39//40
f 54//54 43//44 48//48
f 55//55 45//45 52//52
f 45//45 55//55 51//51
f 47//47 50//50 53//53
f 56//56 49//49 47//47
f 54//54 48//48 51//51
f 54//54 51//51 57//57
f 47//47 53//53 56//56
f 58//58 44//43 43//44
f 58//58 43//44 54//54
f 59//59 54//54 57//57
f 57//57 51//51 55//55
f 52//52 49//49 60//60
f 56//56 60//60 49//49
f 57//57 55//55 61//61
f 61//61 59//59 57//57
f 55//55 52//52 60//60
f 61//61 55//55 60//60
f 59//59 58//58 54//54
f 46//46 44//43 58//58
f 63//62 46//46 58//58
f 46//46 63//62 53//53
f 63//62 64//63 53//53
f 53//53 64//63 56//56
f 58//58 59//59 65//64
f 59//59 61//61 65//64
f 61//61 62//65 65//64
f 58//58 65//64 63//62
f 63//62 65//64 62//65
f 62//65 60//60 56//56
f 64//63 62//65 56//56
f 62//65 64//63 63//62
f 62//65 61//61 60//60
