# Blender v2.78 (sub 0) OBJ File: 'exporter.blend'
# www.blender.org
o FJ3022.obj_grp1.1664
v -0.276690 -0.285188 5.921464
v -0.276281 -0.278446 5.921947
v -0.264804 -0.302020 5.910398
v -0.256428 -0.332340 5.910523
v -0.252517 -0.325430 5.904805
v -0.253805 -0.317986 5.919491
v -0.269938 -0.280577 5.915632
v -0.272587 -0.275551 5.921790
v -0.275788 -0.278555 5.919922
v -0.266210 -0.287052 5.913866
v -0.272576 -0.280300 5.926021
v -0.272308 -0.275965 5.921546
v -0.272548 -0.275107 5.922060
v -0.269972 -0.276146 5.921600
v -0.249836 -0.387135 5.904645
v -0.256581 -0.332838 5.910486
v -0.252517 -0.325430 5.904805
v -0.248113 -0.322308 5.904613
v -0.252451 -0.304399 5.912505
v -0.257221 -0.296930 5.919488
v -0.242207 -0.452952 5.921151
v -0.240739 -0.443856 5.912927
v -0.248437 -0.417700 5.917997
v -0.235269 -0.466479 5.921854
v -0.231790 -0.463715 5.934990
v -0.244103 -0.411739 5.921569
v -0.251063 -0.397423 5.904629
v -0.238089 -0.417241 5.904512
v -0.244434 -0.408270 5.920861
v -0.251931 -0.347861 5.915462
v -0.235430 -0.400230 5.911224
v -0.238800 -0.361024 5.906965
v -0.256581 -0.332838 5.910486
v -0.245402 -0.316119 5.914780
v -0.238144 -0.359366 5.906938
v -0.253809 -0.317815 5.919687
v -0.246514 -0.318731 5.908749
v -0.246578 -0.315792 5.914147
v -0.225629 -0.469529 5.919479
v -0.225127 -0.484942 5.933020
v -0.234370 -0.466165 5.921753
v -0.225327 -0.444694 5.920912
v -0.208897 -0.503534 5.951386
v -0.206958 -0.505184 5.942575
v -0.209185 -0.495351 5.954026
v -0.216267 -0.467579 5.926635
v -0.216267 -0.467579 5.926635
v -0.199407 -0.499022 5.943769
v -0.198964 -0.495224 5.947914
vn -0.4884 0.0395 -0.8717
vn -0.7433 -0.3867 0.5459
vn -0.9775 -0.1830 0.1050
vn 0.0936 -0.1346 0.9865
vn -0.0622 0.2656 0.9621
vn -0.6325 0.0468 -0.7732
vn -0.8805 0.3544 0.3149
vn -0.1446 0.7771 -0.6125
vn 0.4836 0.7113 -0.5100
vn -0.4554 0.7723 -0.4430
vn -0.0826 0.2152 -0.9731
vn -0.3523 0.6805 0.6425
vn -0.6025 0.7718 -0.2033
vn 0.5274 0.5170 0.6742
vn 0.3530 0.5907 0.7255
vn 0.2926 0.7517 -0.5911
vn -0.9720 -0.1234 -0.1999
vn -0.8902 -0.1180 -0.4400
vn -0.7227 -0.1385 -0.6772
vn -0.6678 -0.1923 -0.7191
vn -0.2894 0.0125 -0.9571
vn 0.4091 0.1894 -0.8926
vn 0.5635 0.4817 -0.6711
vn 0.8206 0.3894 0.4183
vn -0.7516 -0.0409 0.6584
vn -0.8945 -0.2659 0.3595
vn -0.5104 0.1728 0.8424
vn -0.5754 -0.2262 -0.7860
vn -0.7910 -0.3466 -0.5041
vn -0.0617 0.0140 -0.9980
vn 0.2795 -0.0589 -0.9583
vn -0.0829 0.1733 0.9814
vn -0.5238 0.0421 0.8508
vn -0.5054 -0.0272 0.8625
vn 0.5142 0.0157 -0.8575
vn -0.8221 -0.0672 0.5654
vn 0.3987 -0.0524 0.9156
vn 0.9347 0.0632 -0.3498
vn 0.6027 0.2061 -0.7709
vn -0.8795 -0.1197 0.4606
vn 0.8440 0.3668 -0.3914
vn 0.8328 0.4439 -0.3307
vn 0.0689 -0.3797 -0.9226
vn -0.7622 -0.6255 -0.1667
vn -0.5301 -0.4873 -0.6939
vn 0.9629 0.1604 0.2172
vn 0.8544 0.3944 0.3382
vn -0.1614 -0.7749 0.6112
vn 0.0847 -0.9290 -0.3603
vn -0.0776 0.0560 0.9954
vn 0.7618 0.0665 -0.6444
vn 0.8868 -0.3740 -0.2716
vn 0.9008 0.0791 0.4270
vn 0.8821 0.2584 -0.3939
s 1
f 3//1 4//2 1//3
f 1//3 4//2 6//4
f 1//3 6//4 11//5
f 7//6 3//1 1//3
f 1//3 2//7 7//6
f 8//8 7//9 9//10
f 10//11 3//1 7//6
f 1//3 11//5 2//7
f 2//7 11//5 12//12
f 8//8 9//10 2//13
f 14//14 13//15 11//5
f 8//8 14//16 7//9
f 15//17 16//18 5//19
f 5//19 16//18 3//20
f 17//21 3//1 18//22
f 18//22 7//9 19//23
f 11//5 6//4 20//24
f 20//24 14//14 11//5
f 18//22 3//1 10//11
f 23//25 24//26 25//27
f 22//28 21//29 15//17
f 27//30 28//31 22//28
f 26//32 23//25 25//27
f 26//32 29//33 23//25
f 15//17 21//29 16//18
f 29//33 30//34 23//25
f 18//22 28//31 27//30
f 28//31 18//22 32//35
f 30//34 33//36 23//25
f 29//33 34//37 30//34
f 26//32 35//38 34//39
f 18//22 35//38 32//35
f 27//30 17//21 18//22
f 30//34 36//40 33//36
f 30//34 34//37 6//4
f 34//37 20//24 6//4
f 37//41 38//42 35//38
f 18//22 37//41 35//38
f 34//39 35//38 38//42
f 14//16 19//23 7//9
f 19//23 37//41 18//22
f 38//42 37//41 14//14
f 38//42 14//14 20//24
f 39//43 40//44 41//45
f 22//28 41//45 21//29
f 24//26 40//44 25//27
f 39//43 41//45 22//28
f 39//43 22//28 28//31
f 28//31 31//46 42//47
f 26//32 25//27 42//47
f 42//47 31//46 26//32
f 35//38 26//32 31//46
f 31//46 28//31 32//35
f 40//44 43//48 25//27
f 40//44 44//49 43//48
f 40//44 39//43 44//49
f 45//50 25//27 43//48
f 42//47 25//27 45//50
f 39//43 28//31 46//51
f 46//51 28//31 42//47
f 39//43 48//52 44//49
f 44//49 48//52 43//48
f 43//48 48//52 49//53
f 49//53 45//50 43//48
f 48//52 39//43 46//51
f 46//51 49//53 48//52
f 47//54 42//47 49//53
f 49//53 42//47 45//50
