# Blender v2.78 (sub 0) OBJ File: 'exporter.blend'
# www.blender.org
o FJ3044.obj_grp1.1686
v -0.175542 -0.236782 5.443861
v -0.163666 -0.278460 5.468428
v -0.164980 -0.274988 5.474637
v -0.163474 -0.278311 5.468484
v -0.164943 -0.274599 5.474352
v -0.169254 -0.255303 5.453042
v -0.157348 -0.274535 5.464649
v -0.169616 -0.248112 5.453013
v -0.171525 -0.239313 5.439192
v -0.164980 -0.274988 5.474637
v -0.170047 -0.244836 5.455950
v -0.170918 -0.251543 5.455675
v -0.163472 -0.278328 5.468487
v -0.155358 -0.274837 5.464876
v -0.156851 -0.270814 5.476192
v -0.162847 -0.272004 5.476186
v -0.155354 -0.269146 5.475624
v -0.162847 -0.272004 5.476186
v -0.164284 -0.274325 5.472861
v -0.154262 -0.270259 5.472524
v -0.191059 -0.215186 5.423239
v -0.171525 -0.239313 5.439192
v -0.168295 -0.230896 5.443927
v -0.215039 -0.186201 5.412867
v -0.219339 -0.189048 5.407362
v -0.219657 -0.189154 5.411588
v -0.217013 -0.188623 5.408361
v -0.215974 -0.189191 5.406001
v -0.218908 -0.188378 5.408645
v -0.190827 -0.217880 5.430563
v -0.213753 -0.187263 5.407426
v -0.215959 -0.188393 5.406251
v -0.219339 -0.189048 5.407362
v -0.214855 -0.186571 5.406330
v -0.189330 -0.209551 5.419342
v -0.215089 -0.184850 5.412076
v -0.187616 -0.207510 5.424996
v -0.214855 -0.186571 5.406330
v -0.181100 -0.221775 5.438606
v -0.185331 -0.224268 5.435765
v -0.180663 -0.222233 5.439239
v -0.187544 -0.207696 5.425061
vn -0.9088 -0.3350 -0.2489
vn -0.9555 -0.2922 -0.0411
vn -0.9511 -0.3063 -0.0388
vn -0.7180 -0.4814 -0.5027
vn -0.3316 -0.4797 -0.8123
vn -0.8221 -0.5046 -0.2637
vn -0.5856 -0.7158 -0.3803
vn -0.8269 0.1901 0.5293
vn -0.8060 0.0618 0.5886
vn -0.9035 0.0355 0.4271
vn -0.3100 -0.4702 -0.8263
vn 0.4755 -0.7786 0.4095
vn 0.3984 -0.7974 0.4532
vn 0.5317 -0.7710 0.3506
vn 0.2091 -0.2923 0.9332
vn -0.0905 0.4608 0.8829
vn -0.3984 0.4322 0.8090
vn -0.7671 0.2393 0.5953
vn 0.3657 -0.8290 0.4231
vn 0.6599 -0.6419 0.3904
vn 0.2523 -0.7892 0.5600
vn -0.5585 -0.7489 -0.3568
vn 0.9579 0.1283 -0.2566
vn 0.8291 0.5451 0.1244
vn 0.9595 0.2125 -0.1852
vn -0.4062 0.9044 -0.1303
vn -0.3774 0.9067 -0.1884
vn -0.5351 0.8446 -0.0191
vn -0.0507 -0.5325 -0.8449
vn -0.0077 -0.5634 -0.8262
vn -0.5362 -0.7719 -0.3417
vn -0.7311 -0.2723 0.6256
vn -0.6554 -0.7325 -0.1841
vn -0.8011 -0.4313 0.4150
vn -0.2757 0.9295 -0.2449
vn 0.7177 0.6706 -0.1875
vn 0.0580 0.7373 0.6731
vn 0.5515 -0.0388 -0.8333
vn 0.4099 -0.0608 -0.9101
vn -0.0536 0.6278 0.7765
vn -0.8880 -0.4304 0.1619
vn -0.4431 0.4020 0.8013
vn 0.7295 -0.1159 -0.6741
vn 0.7137 0.6939 0.0955
vn 0.8820 0.3493 -0.3164
s 1
f 1//1 2//2 3//3
f 6//4 2//2 1//1
f 7//5 8//6 9//7
f 10//8 11//9 12//10
f 8//6 7//5 13//11
f 15//12 4//13 14//14
f 16//15 17//16 11//17
f 10//8 18//18 11//9
f 17//16 16//15 19//19
f 20//20 15//12 14//14
f 15//12 5//21 4//13
f 21//22 9//7 8//6
f 7//23 23//24 17//25
f 24//26 25//27 26//28
f 28//29 21//30 29//31
f 27//32 21//33 30//34
f 25//27 24//26 31//35
f 34//36 36//37 35//38
f 28//29 38//39 35//38
f 36//37 27//32 39//40
f 39//40 27//32 30//34
f 30//34 21//33 40//41
f 35//38 21//30 28//29
f 39//40 30//34 41//42
f 12//10 40//41 21//33
f 36//37 39//40 23//24
f 35//38 22//43 21//30
f 22//43 35//38 23//24
f 11//9 40//41 12//10
f 30//34 11//17 41//42
f 17//25 23//24 39//40
f 41//42 11//17 17//16
f 23//24 7//23 22//43
f 36//37 37//44 35//38
f 37//44 42//45 35//38
f 42//45 23//24 35//38
f 37//44 36//37 23//24
l 32 33
