# Blender v2.78 (sub 0) OBJ File: 'exporter.blend'
# www.blender.org
o FJ3000.obj_grp1.1642
v -0.141546 -0.347410 6.266487
v -0.144048 -0.343726 6.267874
v -0.134172 -0.343008 6.264578
v -0.144261 -0.341200 6.267470
v -0.141787 -0.337807 6.266949
v -0.138652 -0.338497 6.279889
v -0.141787 -0.337807 6.266949
v -0.140825 -0.338164 6.266526
v -0.144238 -0.341216 6.267465
v -0.137693 -0.341673 6.288518
v -0.144335 -0.343734 6.267571
v -0.141239 -0.347168 6.266800
v -0.136261 -0.346108 6.281578
v -0.141804 -0.337762 6.266952
v -0.137303 -0.335953 6.290555
v -0.135573 -0.327263 6.304591
v -0.135651 -0.326814 6.303494
v -0.134989 -0.328439 6.305691
v -0.138555 -0.337341 6.265821
v -0.136310 -0.338179 6.265681
v -0.138552 -0.337368 6.265822
v -0.140492 -0.347556 6.266340
v -0.136892 -0.346993 6.266855
v -0.138816 -0.347664 6.266057
v -0.138816 -0.347664 6.266057
v -0.138816 -0.347664 6.266057
v -0.139659 -0.337250 6.266902
v -0.134448 -0.337205 6.279888
v -0.139659 -0.337250 6.266902
v -0.138552 -0.337368 6.265822
v -0.136892 -0.346993 6.266855
v -0.131753 -0.344103 6.279288
v -0.133963 -0.333187 6.290174
v -0.132354 -0.343451 6.287163
v -0.133215 -0.336916 6.298537
v -0.133781 -0.329852 6.306320
v -0.131881 -0.325283 6.302639
v -0.134372 -0.325965 6.303050
v -0.131984 -0.325537 6.302675
v -0.131123 -0.329470 6.306302
v -0.136310 -0.338179 6.265681
v -0.135247 -0.340307 6.264883
v -0.138552 -0.337368 6.265822
v -0.134653 -0.340846 6.265310
v -0.134621 -0.341416 6.264602
v -0.135021 -0.345284 6.266057
v -0.135021 -0.345284 6.266057
v -0.130847 -0.338565 6.284413
v -0.130269 -0.329012 6.306648
v -0.129897 -0.338685 6.290616
v -0.130010 -0.326576 6.303985
v -0.130136 -0.328246 6.305958
v -0.130114 -0.326595 6.303942
vn -0.3734 0.0240 -0.9274
vn -0.2885 0.1100 -0.9511
vn -0.3206 -0.0542 -0.9457
vn -0.6449 0.7549 0.1193
vn -0.7795 0.5919 0.2052
vn -0.9042 0.3155 0.2879
vn -0.2775 0.3608 -0.8904
vn -0.3235 0.3120 -0.8933
vn -0.3754 -0.0749 -0.9238
vn -0.8569 -0.3762 0.3525
vn -0.7303 -0.5083 0.4563
vn -0.1182 -0.9553 0.2708
vn -0.5025 -0.8310 0.2387
vn -0.9075 0.4130 -0.0765
vn -0.9721 -0.1116 0.2063
vn -0.7792 0.6102 0.1430
vn -0.6957 0.2732 0.6643
vn -0.2410 0.0193 -0.9703
vn 0.4179 -0.6542 -0.6304
vn 0.4735 -0.6547 -0.5892
vn 0.2671 -0.7645 -0.5866
vn -0.1672 -0.1362 -0.9765
vn 0.2394 0.9682 -0.0724
vn -0.0867 0.9960 0.0231
vn 0.2383 0.9569 -0.1661
vn -0.2962 0.6786 -0.6721
vn -0.4163 0.7565 -0.5044
vn -0.1612 -0.9768 0.1410
vn 0.0789 -0.9932 0.0850
vn 0.4513 -0.8924 -0.0010
vn -0.2321 0.9674 0.1013
vn 0.8588 -0.5106 -0.0429
vn -0.1460 0.8872 -0.4376
vn 0.4337 -0.8370 0.3336
vn 0.0489 -0.8083 0.5867
vn -0.2461 -0.3067 0.9195
vn 0.2095 0.8056 -0.5542
vn -0.2917 0.7392 -0.6071
vn -0.0503 0.7535 0.6556
vn 0.7312 -0.5230 0.4380
vn -0.0358 0.2981 0.9539
vn 0.0831 0.3855 -0.9189
vn 0.1907 0.3507 -0.9168
vn 0.1955 -0.5865 -0.7860
vn 0.9491 0.2513 -0.1898
vn 0.6175 0.7759 -0.1292
vn 0.8687 -0.4666 -0.1663
vn 0.8646 0.4254 -0.2673
vn 0.9470 -0.2971 0.1224
vn 0.9472 0.2675 -0.1769
vn -0.0796 0.6274 0.7746
vn 0.0327 0.7603 0.6488
s 1
f 3//1 1//2 2//3
f 6//4 5//5 4//6
f 7//7 8//8 9//9
f 9//9 8//8 3//1
f 4//6 11//10 10//11
f 9//9 3//1 2//3
f 13//12 11//10 12//13
f 11//10 13//12 10//11
f 4//6 10//11 6//4
f 6//4 10//11 15//14
f 10//11 16//15 15//14
f 15//14 16//15 17//16
f 18//17 16//15 10//11
f 8//8 21//18 3//1
f 23//19 24//20 3//21
f 1//2 3//1 26//22
f 19//23 27//24 28//25
f 7//7 29//26 8//8
f 30//27 8//8 29//26
f 22//28 13//12 12//13
f 25//29 13//12 22//28
f 31//30 13//12 25//29
f 27//24 14//31 28//25
f 31//30 32//32 13//12
f 28//25 14//31 6//4
f 33//33 6//4 15//14
f 33//33 28//25 6//4
f 13//12 34//34 10//11
f 17//16 33//33 15//14
f 10//11 35//35 36//36
f 34//34 35//35 10//11
f 37//37 17//16 38//38
f 37//37 33//33 17//16
f 36//36 18//17 10//11
f 38//38 17//16 18//17
f 38//38 18//17 39//39
f 35//35 49//40 36//36
f 18//17 36//36 40//41
f 41//42 42//42 43//42
f 44//43 3//1 21//18
f 23//19 3//21 46//44
f 45//45 20//46 28//25
f 32//32 47//47 45//45
f 47//47 32//32 31//30
f 20//46 19//23 28//25
f 45//45 28//25 48//48
f 34//34 13//12 32//32
f 33//33 48//48 28//25
f 34//34 50//49 49//40
f 33//33 37//37 48//48
f 50//49 48//48 51//50
f 34//34 49//40 35//35
f 37//37 51//50 48//48
f 52//51 39//39 18//17
f 52//51 53//52 39//39
f 49//40 50//49 51//50
f 52//51 18//17 40//41
f 45//45 48//48 32//32
f 48//48 50//49 32//32
f 32//32 50//49 34//34
