# Blender v2.78 (sub 0) OBJ File: 'exporter.blend'
# www.blender.org
o FJ3047.obj_grp1.1689
v -0.491555 -0.217546 5.373984
v -0.490050 -0.214813 5.374469
v -0.489523 -0.216575 5.371730
v -0.486788 -0.218268 5.371290
v -0.489523 -0.216575 5.371730
v -0.487870 -0.213809 5.374518
v -0.489523 -0.216575 5.371730
v -0.488426 -0.221064 5.372958
v -0.491555 -0.217546 5.373984
v -0.491555 -0.217546 5.373984
v -0.488847 -0.220832 5.373092
v -0.489518 -0.221316 5.376003
v -0.491555 -0.217546 5.373984
v -0.490652 -0.220894 5.375881
v -0.452819 -0.210584 5.399166
v -0.489553 -0.221574 5.375991
v -0.488847 -0.220832 5.373092
v -0.464352 -0.214794 5.389663
v -0.460620 -0.218072 5.402034
v -0.465386 -0.218051 5.391891
v -0.471804 -0.213622 5.397019
v -0.452755 -0.206911 5.404042
v -0.463006 -0.217674 5.393608
v -0.455232 -0.207956 5.408594
v -0.447271 -0.213196 5.417293
v -0.441421 -0.217425 5.408302
v -0.378603 -0.213776 5.448932
v -0.384490 -0.227704 5.447035
v -0.387665 -0.223533 5.439746
v -0.389632 -0.212370 5.448012
v -0.381455 -0.227442 5.454629
v -0.381945 -0.220409 5.458392
v -0.381620 -0.218943 5.441404
v -0.334426 -0.232570 5.463861
v -0.335752 -0.238988 5.467768
v -0.334005 -0.235454 5.465878
v -0.336212 -0.224740 5.468253
v -0.334435 -0.229502 5.465145
v -0.334737 -0.232686 5.464355
v -0.339348 -0.224092 5.472993
v -0.345726 -0.229722 5.476092
v -0.337097 -0.239484 5.474931
v -0.340076 -0.232894 5.478031
v -0.340055 -0.232790 5.477829
v -0.337224 -0.231429 5.475875
v -0.337143 -0.234294 5.476218
v -0.335180 -0.239827 5.471563
vn -0.7416 0.4919 -0.4562
vn -0.7182 0.6958 -0.0037
vn -0.5855 0.6292 -0.5111
vn -0.0637 0.9432 -0.3262
vn 0.3090 -0.1071 -0.9450
vn 0.2573 0.6073 -0.7517
vn -0.5008 -0.3387 -0.7965
vn 0.0077 -0.8214 -0.5703
vn -0.6199 -0.3421 -0.7062
vn -0.7777 -0.5667 -0.2722
vn 0.5301 0.4426 -0.7233
vn -0.1639 -0.9377 0.3063
vn -0.5453 -0.7744 -0.3208
vn 0.6241 -0.3092 -0.7175
vn -0.2173 -0.9201 0.3258
vn -0.6932 -0.0908 0.7150
vn 0.3933 -0.8315 -0.3924
vn -0.6539 0.2135 0.7258
vn -0.6883 0.1055 0.7177
vn 0.4531 -0.6603 -0.5989
vn -0.3938 0.7741 0.4956
vn 0.1308 0.9677 -0.2155
vn -0.5501 -0.0289 0.8346
vn 0.3488 -0.7076 -0.6145
vn 0.3410 0.9142 -0.2188
vn -0.0413 -0.9768 -0.2101
vn 0.3903 -0.5040 -0.7705
vn -0.1164 0.8994 0.4214
vn -0.4221 -0.7492 0.5105
vn 0.5023 0.2669 -0.8225
vn -0.4318 0.1410 0.8909
vn 0.7644 0.6405 -0.0740
vn 0.6625 -0.7365 0.1367
vn 0.3573 -0.1565 -0.9208
vn 0.3700 -0.8192 -0.4383
vn 0.8583 -0.3454 -0.3795
vn 0.9126 0.0103 -0.4087
vn 0.9707 0.1235 0.2060
vn 0.3572 0.7166 0.5991
vn -0.3409 0.1502 0.9280
vn 0.2860 -0.7236 0.6282
vn -0.0464 -0.1978 0.9791
vn -0.0258 0.7443 0.6673
vn 0.4890 0.2356 0.8399
vn 0.9045 0.1140 0.4109
s 1
f 1//1 2//2 3//3
f 6//4 4//5 5//6
f 3//3 2//2 6//4
f 7//7 8//8 9//9
f 10//10 11//10 12//10
f 4//5 8//8 7//7
f 6//4 15//11 4//5
f 16//12 17//13 8//8
f 18//14 4//5 15//11
f 16//12 19//15 14//16
f 18//14 8//8 4//5
f 20//17 16//12 8//8
f 20//17 19//15 16//12
f 18//14 20//17 8//8
f 2//2 13//18 14//16
f 14//16 21//19 2//2
f 23//20 20//17 18//14
f 6//4 2//2 24//21
f 6//4 24//21 22//22
f 24//21 2//2 21//19
f 21//19 14//16 19//15
f 25//23 21//19 19//15
f 15//11 6//4 22//22
f 20//17 26//24 19//15
f 26//24 23//20 18//14
f 26//24 18//14 15//11
f 21//19 25//23 24//21
f 15//11 22//22 27//25
f 26//24 28//26 19//15
f 28//26 26//24 29//27
f 29//27 26//24 15//11
f 22//22 24//21 30//28
f 27//25 22//22 30//28
f 24//21 25//23 30//28
f 31//29 25//23 19//15
f 15//11 27//25 33//30
f 29//27 15//11 33//30
f 32//31 30//28 25//23
f 31//29 32//31 25//23
f 19//15 28//26 31//29
f 37//32 33//30 27//25
f 29//27 47//33 28//26
f 33//30 37//32 34//34
f 47//33 29//27 35//35
f 36//36 33//30 34//34
f 36//36 29//27 33//30
f 36//36 39//37 38//38
f 29//27 36//36 35//35
f 40//39 30//28 32//31
f 41//40 40//39 32//31
f 42//41 43//42 31//29
f 31//29 43//42 32//31
f 43//42 41//40 32//31
f 44//43 40//39 41//40
f 45//44 40//39 44//43
f 37//32 27//25 40//39
f 40//39 27//25 30//28
f 40//39 46//45 37//32
f 38//38 37//32 46//45
f 36//36 38//38 47//33
f 47//33 42//41 28//26
f 28//26 42//41 31//29
f 45//44 44//43 43//42
f 38//38 46//45 47//33
f 36//36 47//33 35//35
f 43//42 42//41 45//44
f 42//41 47//33 46//45
