# Blender v2.78 (sub 0) OBJ File: 'exporter.blend'
# www.blender.org
o FJ3006.obj_grp1.1648
v -0.470191 -0.239469 5.539296
v -0.470231 -0.237598 5.538898
v -0.449857 -0.244054 5.539737
v -0.470532 -0.235810 5.539316
v -0.444207 -0.242533 5.539442
v -0.470919 -0.241314 5.540967
v -0.471654 -0.240103 5.540408
v -0.470231 -0.242377 5.542768
v -0.454859 -0.244519 5.540591
v -0.454884 -0.245705 5.541984
v -0.471351 -0.237686 5.539524
v -0.471547 -0.236550 5.540284
v -0.472514 -0.239908 5.542427
v -0.472127 -0.241275 5.542434
v -0.471758 -0.241744 5.542839
v -0.471657 -0.242019 5.543994
v -0.471058 -0.242063 5.545423
v -0.472365 -0.240876 5.545437
v -0.470033 -0.240934 5.547657
v -0.472554 -0.239332 5.546334
v -0.446396 -0.239063 5.540146
v -0.469234 -0.235686 5.539052
v -0.469864 -0.234171 5.539879
v -0.444228 -0.249257 5.546198
v -0.470689 -0.234088 5.540756
v -0.469460 -0.233338 5.540654
v -0.469595 -0.232616 5.541817
v -0.471002 -0.233249 5.543117
v -0.472020 -0.240523 5.546762
v -0.471122 -0.233358 5.545670
v -0.472021 -0.237761 5.548123
v -0.471920 -0.236141 5.547601
v -0.432037 -0.249891 5.552239
v -0.471792 -0.239074 5.548000
v -0.470632 -0.238312 5.548901
v -0.468821 -0.232283 5.543074
v -0.429734 -0.239743 5.543320
v -0.437449 -0.237719 5.544521
v -0.445534 -0.236173 5.546501
v -0.469213 -0.232360 5.545477
v -0.470175 -0.232379 5.544446
v -0.471140 -0.234263 5.547315
v -0.470130 -0.233294 5.547162
v -0.468347 -0.233363 5.547325
v -0.471149 -0.235428 5.548392
v -0.470787 -0.236911 5.548981
v -0.469568 -0.234844 5.548564
v -0.444609 -0.242034 5.552051
v -0.438208 -0.248435 5.541471
v -0.435927 -0.250650 5.549597
v -0.432197 -0.248066 5.553343
v -0.442752 -0.237617 5.549220
v -0.454759 -0.236097 5.548811
v -0.438190 -0.245012 5.539872
v -0.439540 -0.250093 5.544395
v -0.427210 -0.243910 5.540848
v -0.426677 -0.248683 5.541105
v -0.438415 -0.249573 5.542769
v -0.438244 -0.241693 5.552466
v -0.422266 -0.250712 5.542207
v -0.426937 -0.251077 5.542721
v -0.429133 -0.252768 5.548011
v -0.427960 -0.246313 5.554681
v -0.418599 -0.253469 5.544611
v -0.421101 -0.254113 5.546527
v -0.426764 -0.239869 5.551065
v -0.425281 -0.239296 5.549177
v -0.411788 -0.250075 5.542588
v -0.412859 -0.251683 5.543117
v -0.407165 -0.255964 5.547513
v -0.418994 -0.247134 5.541428
v -0.407848 -0.246401 5.543307
v -0.414202 -0.255445 5.551985
v -0.412334 -0.253560 5.556067
v -0.427791 -0.241628 5.553102
v -0.407304 -0.254230 5.545291
v -0.412640 -0.255964 5.549810
v -0.411101 -0.244270 5.543539
v -0.417067 -0.240126 5.548577
v -0.400026 -0.253131 5.545251
v -0.395595 -0.244036 5.547737
v -0.407534 -0.241714 5.547300
v -0.416098 -0.249195 5.557002
v -0.415413 -0.245943 5.556864
v -0.403548 -0.249638 5.543703
v -0.402206 -0.257417 5.550864
v -0.394606 -0.258451 5.555295
v -0.397864 -0.257491 5.556885
v -0.403753 -0.253468 5.559206
v -0.410946 -0.240866 5.551895
v -0.412507 -0.242292 5.554838
v -0.397761 -0.256169 5.548041
v -0.394878 -0.257778 5.551106
v -0.396096 -0.248972 5.545284
v -0.397652 -0.241589 5.552128
v -0.405256 -0.250035 5.559751
v -0.408817 -0.244254 5.557181
v -0.392584 -0.251207 5.546214
v -0.392054 -0.254428 5.547515
v -0.390128 -0.256701 5.549856
v -0.393178 -0.258484 5.553876
v -0.393676 -0.246501 5.546557
v -0.362912 -0.259370 5.569311
v -0.386663 -0.252651 5.548098
v -0.381570 -0.256860 5.552267
v -0.379929 -0.257035 5.565680
v -0.391502 -0.254410 5.563036
v -0.397614 -0.247261 5.561639
v -0.393665 -0.250625 5.563526
v -0.379457 -0.254413 5.550958
v -0.383605 -0.258614 5.554688
v -0.383613 -0.249605 5.548691
v -0.384546 -0.242303 5.554112
v -0.397941 -0.244099 5.559525
v -0.397747 -0.242407 5.557353
v -0.376853 -0.251666 5.550986
v -0.382970 -0.245456 5.550481
v -0.378234 -0.247411 5.550937
v -0.375824 -0.243756 5.554487
v -0.390822 -0.241728 5.556318
v -0.372663 -0.256758 5.555105
v -0.364512 -0.258459 5.560461
v -0.370449 -0.259297 5.560649
v -0.370105 -0.259631 5.563334
v -0.386346 -0.242321 5.560267
v -0.383256 -0.249045 5.567244
v -0.386441 -0.245817 5.564726
v -0.364889 -0.253629 5.556036
v -0.363765 -0.256046 5.557899
v -0.382806 -0.243875 5.564157
v -0.362320 -0.252300 5.556638
v -0.366515 -0.250059 5.554760
v -0.366201 -0.247169 5.555614
v -0.364768 -0.245358 5.557181
v -0.379258 -0.254428 5.568107
v -0.369472 -0.241435 5.564219
v -0.377575 -0.252287 5.569579
v -0.357800 -0.259145 5.565227
v -0.352505 -0.259532 5.569504
v -0.360895 -0.241389 5.564504
v -0.375648 -0.249739 5.570642
v -0.370039 -0.245064 5.571330
v -0.347095 -0.253306 5.563859
v -0.361310 -0.255113 5.576181
v -0.354887 -0.257454 5.563314
v -0.352634 -0.246124 5.561750
v -0.344549 -0.258529 5.580050
v -0.357472 -0.252251 5.579421
v -0.368482 -0.242658 5.569115
v -0.365042 -0.246610 5.574867
v -0.339685 -0.258496 5.573284
v -0.343817 -0.259447 5.575250
v -0.360162 -0.250089 5.578238
v -0.359393 -0.241288 5.571018
v -0.340861 -0.254989 5.567892
v -0.338351 -0.256859 5.571134
v -0.349199 -0.248573 5.562397
v -0.325593 -0.241332 5.576935
v -0.330408 -0.255858 5.590778
v -0.339894 -0.250631 5.566717
v -0.334054 -0.258882 5.582485
v -0.345163 -0.240183 5.572529
v -0.349806 -0.241146 5.577525
v -0.356937 -0.247814 5.579657
v -0.323698 -0.243985 5.575842
v -0.325899 -0.239494 5.579261
v -0.347512 -0.240066 5.575401
v -0.350701 -0.243046 5.580219
v -0.351064 -0.245422 5.582003
v -0.334192 -0.247569 5.592698
v -0.322704 -0.248629 5.575302
v -0.323725 -0.252460 5.575741
v -0.323191 -0.254858 5.577921
v -0.323457 -0.255993 5.579214
v -0.322896 -0.246407 5.575401
v -0.326394 -0.258334 5.583717
v -0.324387 -0.257477 5.581644
v -0.327179 -0.258152 5.586552
v -0.328716 -0.257664 5.588215
v -0.332309 -0.244697 5.592977
v -0.322017 -0.251861 5.576705
v -0.321994 -0.248022 5.575964
v -0.322446 -0.254615 5.579062
v -0.321834 -0.252490 5.578547
v -0.322913 -0.255241 5.581213
v -0.323415 -0.256530 5.581183
v -0.324382 -0.257295 5.583515
v -0.325557 -0.256849 5.586462
v -0.325710 -0.257954 5.585337
v -0.328212 -0.253806 5.591046
v -0.327386 -0.257285 5.588427
v -0.329043 -0.256849 5.589784
v -0.328517 -0.255497 5.590784
v -0.330856 -0.253688 5.592552
v -0.321774 -0.246965 5.577141
v -0.322325 -0.245358 5.576416
v -0.323821 -0.241873 5.577507
v -0.322642 -0.243909 5.577210
v -0.330224 -0.247730 5.593244
v -0.329862 -0.254643 5.591936
v -0.329960 -0.252099 5.593016
v -0.332011 -0.250648 5.593464
v -0.331154 -0.248966 5.593733
v -0.323330 -0.242068 5.579017
v -0.325161 -0.239634 5.579960
v -0.324567 -0.240460 5.581260
v -0.326641 -0.238548 5.581539
v -0.326019 -0.238898 5.582740
v -0.327450 -0.239149 5.586097
v -0.329698 -0.238115 5.584004
v -0.331376 -0.239630 5.588771
v -0.329796 -0.238598 5.587030
v -0.327690 -0.238200 5.584566
v -0.331099 -0.244742 5.593016
v -0.331773 -0.247426 5.593692
v -0.330587 -0.243034 5.592119
v -0.330379 -0.240043 5.589715
v -0.331780 -0.241877 5.591333
v -0.328461 -0.238772 5.586956
v -0.329245 -0.241094 5.590002
vn -0.2634 -0.3900 -0.8823
vn -0.2666 -0.0327 -0.9633
vn -0.0525 -0.3808 -0.9232
vn 0.0558 0.0401 -0.9976
vn -0.3597 -0.7305 -0.5805
vn -0.7127 -0.3382 -0.6145
vn -0.1271 -0.6418 -0.7563
vn -0.1798 -0.8537 -0.4888
vn -0.7377 0.0231 -0.6747
vn -0.9846 -0.0580 -0.1648
vn -0.8942 0.2723 -0.3552
vn -0.5026 0.3207 -0.8028
vn -0.8001 -0.5410 -0.2592
vn -0.5549 -0.7947 -0.2459
vn -0.2674 -0.9323 -0.2436
vn -0.5705 -0.8208 0.0265
vn -0.4116 -0.8610 0.2986
vn -0.8750 -0.4449 0.1910
vn -0.9771 -0.0403 0.2087
vn -0.0091 0.3203 -0.9473
vn -0.2719 0.5971 -0.7547
vn 0.1420 0.4988 -0.8550
vn -0.2404 -0.9694 0.0500
vn -0.7286 0.5437 -0.4167
vn -0.1366 0.7748 -0.6172
vn -0.2161 0.9037 -0.3696
vn -0.8124 0.5632 -0.1511
vn -0.6732 -0.5301 0.5156
vn -0.2738 -0.6372 0.7204
vn -0.7921 0.5898 0.1570
vn -0.8210 -0.0141 0.5707
vn -0.9238 0.2718 0.2697
vn -0.6798 -0.3028 0.6680
vn -0.3331 -0.2516 0.9087
vn -0.2362 -0.6005 0.7640
vn 0.1650 0.7953 -0.5833
vn 0.0438 0.9857 -0.1627
vn 0.1856 0.9434 -0.2748
vn 0.1433 0.9815 0.1273
vn -0.0772 0.9594 0.2712
vn -0.4167 0.9079 0.0462
vn -0.2982 0.7722 0.5611
vn -0.7217 0.5455 0.4262
vn 0.0537 0.7790 0.6248
vn -0.5560 0.3778 0.7403
vn -0.3665 0.1027 0.9247
vn -0.1133 0.4768 0.8717
vn -0.1026 0.0890 0.9907
vn -0.0894 -0.6043 -0.7917
vn -0.1355 -0.8250 -0.5487
vn -0.2136 -0.3683 0.9049
vn 0.1267 0.8719 0.4731
vn 0.0354 0.6924 0.7206
vn -0.1903 -0.9448 -0.2669
vn 0.0353 -0.1686 -0.9851
vn -0.2412 -0.8775 0.4145
vn 0.0237 -0.3415 -0.9396
vn 0.1252 0.2639 -0.9564
vn -0.0675 0.3688 0.9271
vn 0.0107 -0.5520 -0.8338
vn -0.0682 -0.7097 -0.7012
vn -0.2119 -0.9762 0.0468
vn -0.1847 -0.0336 0.9822
vn -0.0510 -0.7956 -0.6037
vn -0.1459 -0.9462 -0.2887
vn 0.0446 0.8698 0.4913
vn 0.0973 0.9710 0.2182
vn 0.1078 -0.2198 -0.9696
vn 0.0511 -0.4996 -0.8647
vn -0.0455 -0.8899 -0.4539
vn 0.1288 0.0143 -0.9916
vn -0.2107 -0.9433 0.2566
vn -0.2607 -0.6442 0.7190
vn -0.0124 0.6466 0.7627
vn 0.0320 -0.6796 -0.7329
vn -0.1446 -0.9860 -0.0830
vn 0.1720 0.5365 -0.8262
vn 0.1870 0.2593 -0.9475
vn 0.1135 0.9915 -0.0635
vn 0.1461 -0.4466 -0.8827
vn 0.2090 0.6813 -0.7016
vn 0.1700 0.8800 -0.4436
vn -0.2317 -0.1411 0.9625
vn -0.1732 0.2602 0.9499
vn 0.1792 -0.0617 -0.9819
vn -0.0817 -0.9810 -0.1761
vn -0.1145 -0.9889 0.0942
vn -0.1989 -0.8964 0.3961
vn -0.2948 -0.3966 0.8693
vn 0.0167 0.9606 0.2775
vn -0.0229 0.8157 0.5780
vn 0.0718 -0.7699 -0.6342
vn 0.0161 -0.9302 -0.3668
vn 0.0497 0.9940 -0.0973
vn -0.1499 0.5778 0.8023
vn -0.2662 -0.0629 0.9619
vn 0.2445 -0.1588 -0.9566
vn 0.2236 0.1042 -0.9691
vn 0.1863 -0.5009 -0.8452
vn 0.1455 -0.7580 -0.6358
vn -0.0243 -0.9909 -0.1323
vn 0.2568 0.3947 -0.8822
vn 0.2696 -0.2663 -0.9254
vn -0.1175 -0.9589 0.2581
vn -0.2603 -0.7264 0.6361
vn -0.3235 -0.4267 0.8445
vn -0.2675 0.3407 0.9013
vn -0.3262 -0.0940 0.9406
vn 0.2831 -0.4571 -0.8432
vn 0.0789 -0.9460 -0.3143
vn 0.1923 -0.7337 -0.6517
vn 0.2910 0.0753 -0.9538
vn 0.1316 0.9275 -0.3499
vn -0.1822 0.6833 0.7070
vn -0.0899 0.8818 0.4629
vn 0.3435 -0.1344 -0.9295
vn 0.2626 0.5761 -0.7740
vn 0.3254 0.3272 -0.8872
vn 0.2247 0.7603 -0.6095
vn -0.0502 0.9844 0.1688
vn 0.1957 -0.8614 -0.4688
vn 0.2365 -0.6990 -0.6749
vn -0.0224 -0.9997 0.0117
vn -0.1268 0.9168 0.3786
vn -0.2893 0.5374 0.7921
vn -0.3481 0.2046 0.9148
vn 0.3327 -0.3664 -0.8690
vn 0.3153 -0.6094 -0.7274
vn 0.0752 -0.9670 -0.2434
vn -0.2650 0.7527 0.6027
vn 0.3919 -0.1888 -0.9004
vn 0.3683 0.0681 -0.9272
vn 0.3379 0.3477 -0.8746
vn 0.2961 0.5886 -0.7523
vn -0.0642 0.9938 0.0904
vn -0.3441 -0.4643 0.8161
vn -0.3994 -0.1733 0.9002
vn 0.1648 -0.9340 -0.3171
vn 0.0905 -0.9856 -0.1428
vn -0.4271 0.0744 0.9011
vn -0.3455 0.6266 0.6986
vn 0.4028 -0.3434 -0.8485
vn 0.0648 0.9689 -0.2387
vn -0.3962 -0.4555 0.7972
vn 0.2891 -0.7603 -0.5817
vn 0.3540 0.4314 -0.8298
vn -0.1568 -0.9178 0.3647
vn -0.4537 -0.1918 0.8703
vn -0.2207 0.8673 0.4461
vn -0.4254 0.3979 0.8128
vn 0.2146 -0.9194 -0.3295
vn 0.0510 -0.9984 -0.0245
vn -0.4472 -0.0070 0.8944
vn -0.1884 0.9432 0.2735
vn 0.3964 -0.5315 -0.7486
vn 0.3335 -0.7485 -0.5731
vn 0.4193 0.1447 -0.8963
vn 0.3420 0.6804 -0.6482
vn -0.1826 -0.7130 0.6770
vn 0.4433 -0.1151 -0.8889
vn -0.0050 -0.9899 0.1418
vn -0.2494 0.9010 0.3549
vn -0.4630 0.2407 0.8530
vn 0.5275 0.4338 -0.7304
vn 0.3187 0.8560 -0.4070
vn -0.0014 0.9860 -0.1667
vn -0.1477 0.9822 0.1157
vn -0.3688 0.7166 0.5920
vn -0.4460 0.5002 0.7422
vn -0.4422 0.0606 0.8949
vn 0.5849 -0.0639 -0.8086
vn 0.4860 -0.4059 -0.7739
vn 0.5550 -0.7465 -0.3671
vn 0.5760 -0.6012 -0.5539
vn 0.2368 -0.9713 -0.0213
vn 0.4872 -0.8591 -0.1566
vn 0.0045 -0.9148 0.4039
vn 0.2099 -0.9375 0.2774
vn -0.2492 0.3703 0.8949
vn 0.0880 -0.7842 0.6142
vn 0.8374 -0.2382 -0.4920
vn 0.8655 0.0478 -0.4986
vn 0.9044 -0.4026 -0.1413
vn 0.9886 -0.0930 0.1184
vn 0.9369 -0.1667 0.3072
vn 0.5842 0.1969 -0.7873
vn 0.8078 -0.5890 0.0234
vn 0.5257 -0.8016 0.2848
vn 0.7877 -0.5621 0.2522
vn 0.8258 -0.2995 0.4779
vn 0.7756 -0.0588 0.6285
vn 0.4755 -0.6658 0.5750
vn 0.5232 -0.4427 0.7282
vn -0.1241 -0.4943 0.8604
vn 0.9883 0.1467 0.0408
vn 0.8347 0.3288 -0.4417
vn 0.6208 0.6304 -0.4660
vn 0.8741 0.4101 -0.2602
vn 0.8747 0.3961 0.2793
vn 0.6243 0.1513 0.7664
vn 0.6599 0.4168 0.6252
vn 0.1869 -0.5213 0.8326
vn 0.4186 -0.1673 0.8926
vn -0.2483 -0.2329 0.9402
vn 0.1014 -0.0412 0.9940
vn 0.9068 0.4070 0.1101
vn 0.6100 0.7703 -0.1857
vn 0.2725 0.9514 -0.1433
vn 0.6737 0.7160 0.1829
vn 0.7708 0.4687 0.4315
vn -0.0380 0.9990 0.0233
vn -0.2387 0.8432 0.4817
vn -0.0223 0.9465 0.3220
vn 0.2759 0.3360 0.9005
vn -0.0943 0.0797 0.9923
vn 0.3753 0.4418 0.8148
vn -0.1919 0.6306 0.7520
vn 0.0911 0.7510 0.6540
vn 0.3456 0.9213 0.1785
vn 0.3961 0.7967 0.4565
s 1
f 1//1 2//2 3//3
f 5//4 3//3 2//2
f 1//1 6//5 7//6
f 1//1 9//7 6//5
f 6//5 9//7 10//8
f 11//9 2//2 1//1
f 7//6 11//9 1//1
f 11//9 13//10 12//11
f 4//12 2//2 11//9
f 12//11 4//12 11//9
f 6//5 14//13 7//6
f 13//10 7//6 14//13
f 6//5 15//14 14//13
f 6//5 8//15 15//14
f 13//10 11//9 7//6
f 16//16 14//13 15//14
f 15//14 8//15 16//16
f 16//16 17//17 18//18
f 18//18 13//10 14//13
f 14//13 16//16 18//18
f 13//10 18//18 20//19
f 10//8 8//15 6//5
f 22//20 2//2 4//12
f 23//21 21//22 22//20
f 24//23 17//17 16//16
f 16//16 8//15 24//23
f 25//24 23//21 4//12
f 26//25 23//21 25//24
f 25//24 27//26 26//25
f 22//20 4//12 23//21
f 4//12 12//11 25//24
f 28//27 25//24 12//11
f 25//24 28//27 27//26
f 17//17 29//28 18//18
f 29//28 17//17 19//29
f 28//27 12//11 13//10
f 13//10 30//30 28//27
f 31//31 32//32 20//19
f 13//10 20//19 32//32
f 20//19 18//18 29//28
f 20//19 29//28 31//31
f 29//28 19//29 34//33
f 31//31 29//28 34//33
f 35//34 19//29 33//35
f 35//34 34//33 19//29
f 35//34 31//31 34//33
f 5//4 2//2 22//20
f 5//4 22//20 21//22
f 27//26 37//36 26//25
f 27//26 36//37 38//38
f 37//36 27//26 38//38
f 39//39 38//38 36//37
f 40//40 39//39 36//37
f 27//26 41//41 36//37
f 41//41 27//26 28//27
f 30//30 41//41 28//27
f 40//40 36//37 41//41
f 43//42 41//41 30//30
f 43//42 30//30 42//43
f 40//40 41//41 43//42
f 40//40 43//42 44//44
f 30//30 13//10 32//32
f 30//30 32//32 42//43
f 32//32 31//31 45//45
f 42//43 32//32 45//45
f 42//43 45//45 43//42
f 45//45 46//46 47//47
f 45//45 47//47 43//42
f 43//42 47//47 44//44
f 35//34 46//46 31//31
f 46//46 45//45 31//31
f 48//48 46//46 35//34
f 48//48 47//47 46//46
f 9//7 49//49 58//50
f 9//7 58//50 10//8
f 3//3 9//7 1//1
f 33//35 51//51 35//34
f 40//40 44//44 52//52
f 53//53 52//52 44//44
f 44//44 47//47 53//53
f 55//54 24//23 8//15
f 3//3 49//49 9//7
f 54//55 3//3 5//4
f 55//54 8//15 10//8
f 50//56 17//17 24//23
f 26//25 21//22 23//21
f 17//17 50//56 19//29
f 50//56 33//35 19//29
f 51//51 48//48 35//34
f 3//3 57//57 49//49
f 54//55 57//57 3//3
f 58//50 55//54 10//8
f 5//4 21//22 56//58
f 40//40 52//52 39//39
f 53//53 47//47 59//59
f 57//57 60//60 49//49
f 49//49 60//60 61//61
f 58//50 49//49 61//61
f 62//62 24//23 55//54
f 37//36 21//22 26//25
f 62//62 50//56 24//23
f 48//48 51//51 63//63
f 47//47 48//48 59//59
f 58//50 64//64 65//65
f 58//50 65//65 55//54
f 66//66 39//39 52//52
f 39//39 66//66 67//67
f 68//68 69//69 57//57
f 57//57 69//69 60//60
f 60//60 64//64 61//61
f 64//64 70//70 65//65
f 54//55 56//58 71//71
f 57//57 54//55 71//71
f 61//61 64//64 58//50
f 56//58 54//55 5//4
f 65//65 62//62 55//54
f 73//72 50//56 62//62
f 74//73 33//35 50//56
f 39//39 67//67 38//38
f 52//52 53//53 75//74
f 76//75 70//70 64//64
f 68//68 57//57 71//71
f 62//62 77//76 73//72
f 78//77 72//78 56//58
f 72//78 71//71 56//58
f 77//76 62//62 65//65
f 78//77 56//58 21//22
f 37//36 78//77 21//22
f 74//73 51//51 33//35
f 79//79 38//38 67//67
f 59//59 75//74 53//53
f 48//48 63//63 59//59
f 69//69 80//80 76//75
f 60//60 76//75 64//64
f 60//60 69//69 76//75
f 81//81 78//77 37//36
f 82//82 37//36 38//38
f 38//38 79//79 82//82
f 83//83 63//63 51//51
f 84//84 59//59 63//63
f 75//74 59//59 84//84
f 80//80 68//68 85//85
f 68//68 71//71 85//85
f 69//69 68//68 80//80
f 71//71 72//78 85//85
f 86//86 65//65 70//70
f 77//76 65//65 86//86
f 86//86 87//87 77//76
f 87//87 73//72 77//76
f 73//72 88//88 50//56
f 89//89 83//83 74//73
f 83//83 51//51 74//73
f 67//67 90//90 79//79
f 67//67 66//66 91//91
f 75//74 91//91 66//66
f 83//83 84//84 63//63
f 52//52 75//74 66//66
f 80//80 92//92 76//75
f 70//70 76//75 92//92
f 93//93 86//86 70//70
f 92//92 93//93 70//70
f 87//87 88//88 73//72
f 82//82 81//81 37//36
f 79//79 95//94 82//82
f 79//79 90//90 95//94
f 97//95 91//91 75//74
f 97//95 75//74 84//84
f 83//83 96//96 84//84
f 80//80 85//85 98//97
f 98//97 85//85 94//98
f 92//92 80//80 99//99
f 99//99 100//100 92//92
f 93//93 101//101 86//86
f 94//98 85//85 72//78
f 86//86 101//101 87//87
f 102//102 72//78 78//77
f 72//78 102//102 94//98
f 74//73 50//56 88//88
f 67//67 91//91 90//90
f 104//103 99//99 80//80
f 92//92 100//100 93//93
f 80//80 98//97 104//103
f 81//81 102//102 78//77
f 103//104 106//105 88//88
f 74//73 88//88 106//105
f 107//106 89//89 106//105
f 89//89 74//73 106//105
f 108//107 84//84 96//96
f 89//89 96//96 83//83
f 108//107 96//96 109//108
f 99//99 104//103 110//109
f 100//100 99//99 110//109
f 111//110 100//100 105//111
f 98//97 94//98 112//112
f 104//103 98//97 112//112
f 93//93 111//110 101//101
f 100//100 111//110 93//93
f 112//112 94//98 102//102
f 95//94 113//113 82//82
f 108//107 97//95 84//84
f 91//91 97//95 114//114
f 91//91 115//115 90//90
f 114//114 115//115 91//91
f 110//109 105//111 100//100
f 104//103 112//112 116//116
f 102//102 81//81 117//117
f 112//112 102//102 118//118
f 118//118 102//102 117//117
f 87//87 103//104 88//88
f 119//119 117//117 81//81
f 119//119 81//81 82//82
f 113//113 119//119 82//82
f 120//120 95//94 90//90
f 120//120 90//90 115//115
f 114//114 97//95 108//107
f 109//108 89//89 107//106
f 89//89 109//108 96//96
f 116//116 110//109 104//103
f 122//121 111//110 105//111
f 122//121 105//111 121//122
f 105//111 110//109 121//122
f 111//110 124//123 101//101
f 101//101 124//123 87//87
f 120//120 115//115 125//124
f 108//107 127//125 114//114
f 126//126 108//107 109//108
f 128//127 129//128 110//109
f 110//109 129//128 121//122
f 122//121 123//129 111//110
f 126//126 127//125 108//107
f 114//114 130//130 115//115
f 110//109 116//116 131//131
f 110//109 131//131 128//127
f 116//116 112//112 132//132
f 112//112 118//118 132//132
f 118//118 133//133 132//132
f 124//123 111//110 123//129
f 134//134 118//118 117//117
f 113//113 95//94 136//135
f 95//94 120//120 136//135
f 107//106 106//105 135//136
f 109//108 107//106 135//136
f 137//137 126//126 109//108
f 131//131 116//116 132//132
f 121//122 129//128 122//121
f 122//121 138//138 123//129
f 139//139 123//129 138//138
f 139//139 124//123 123//129
f 134//134 133//133 118//118
f 134//134 117//117 119//119
f 137//137 109//108 135//136
f 141//140 126//126 137//137
f 120//120 125//124 136//135
f 125//124 115//115 130//130
f 127//125 126//126 142//141
f 127//125 130//130 114//114
f 129//128 128//127 143//142
f 87//87 124//123 103//104
f 140//143 119//119 113//113
f 106//105 144//144 135//136
f 122//121 129//128 145//145
f 134//134 146//146 133//133
f 106//105 103//104 147//147
f 113//113 136//135 140//143
f 148//148 137//137 144//144
f 136//135 125//124 149//149
f 142//141 126//126 150//150
f 144//144 137//137 135//136
f 125//124 130//130 149//149
f 130//130 127//125 142//141
f 143//142 128//127 131//131
f 145//145 151//151 122//121
f 151//151 138//138 122//121
f 139//139 152//152 124//123
f 152//152 103//104 124//123
f 153//153 137//137 148//148
f 154//154 136//135 149//149
f 126//126 141//140 150//150
f 155//155 129//128 143//142
f 155//155 145//145 129//128
f 156//156 151//151 145//145
f 157//157 131//131 132//132
f 132//132 133//133 157//157
f 146//146 157//157 133//133
f 119//119 158//158 134//134
f 159//159 106//105 147//147
f 153//153 141//140 137//137
f 142//141 149//149 130//130
f 160//160 131//131 157//157
f 131//131 160//160 143//142
f 145//145 155//155 156//156
f 139//139 138//138 151//151
f 152//152 161//161 103//104
f 161//161 147//147 103//104
f 158//158 146//146 134//134
f 154//154 149//149 163//162
f 164//163 141//140 153//153
f 150//150 141//140 164//163
f 165//164 157//157 146//146
f 165//164 146//146 158//158
f 166//165 119//119 140//143
f 162//166 166//165 140//143
f 140//143 136//135 167//167
f 154//154 167//167 136//135
f 150//150 168//168 142//141
f 168//168 149//149 142//141
f 168//168 150//150 169//169
f 150//150 164//163 169//169
f 139//139 151//151 152//152
f 167//167 154//154 163//162
f 170//170 153//153 148//148
f 170//170 164//163 153//153
f 160//160 157//157 171//171
f 155//155 143//142 172//172
f 174//173 156//156 173//174
f 174//173 151//151 156//156
f 140//143 167//167 162//166
f 149//149 168//168 163//162
f 155//155 173//174 156//156
f 160//160 171//171 172//172
f 172//172 143//142 160//160
f 176//175 152//152 151//151
f 151//151 177//176 176//175
f 152//152 176//175 161//161
f 179//177 147//147 161//161
f 179//177 161//161 178//178
f 166//165 158//158 119//119
f 170//170 180//179 164//163
f 169//169 164//163 180//179
f 173//174 155//155 172//172
f 179//177 192//180 147//147
f 159//159 147//147 192//180
f 144//144 106//105 159//159
f 171//171 181//181 172//172
f 182//182 181//181 171//171
f 173//174 172//172 181//181
f 183//183 173//174 181//181
f 183//183 181//181 184//184
f 173//174 183//183 174//173
f 183//183 184//184 185//185
f 171//171 157//157 175//186
f 177//176 151//151 174//173
f 186//187 174//173 183//183
f 174//173 186//187 177//176
f 183//183 185//185 186//187
f 177//176 189//188 176//175
f 177//176 186//187 187//189
f 189//188 177//176 187//189
f 185//185 187//189 186//187
f 185//185 188//190 187//189
f 189//188 187//189 188//190
f 190//191 188//190 185//185
f 178//178 161//161 176//175
f 178//178 176//175 189//188
f 178//178 189//188 191//192
f 189//188 188//190 191//192
f 191//192 179//177 178//178
f 179//177 191//192 192//180
f 191//192 193//193 192//180
f 194//194 144//144 159//159
f 195//195 181//181 182//182
f 195//195 184//184 181//181
f 157//157 165//164 175//186
f 171//171 175//186 182//182
f 175//186 196//196 182//182
f 196//196 175//186 165//164
f 196//196 195//195 182//182
f 165//164 197//197 196//196
f 165//164 158//158 197//197
f 198//198 196//196 197//197
f 198//198 195//195 196//196
f 190//191 185//185 184//184
f 190//191 184//184 206//199
f 199//200 190//191 220//201
f 190//191 206//199 220//201
f 193//193 191//192 188//190
f 193//193 188//190 190//191
f 200//202 159//159 192//180
f 200//202 194//194 159//159
f 192//180 193//193 200//202
f 201//203 200//202 193//193
f 201//203 193//193 190//191
f 202//204 203//205 170//170
f 144//144 194//194 202//204
f 202//204 148//148 144//144
f 194//194 200//202 201//203
f 201//203 202//204 194//194
f 201//203 203//205 202//204
f 148//148 202//204 170//170
f 204//206 195//195 198//198
f 197//197 158//158 166//165
f 166//165 205//207 197//197
f 206//199 195//195 204//206
f 198//198 197//197 204//206
f 205//207 204//206 197//197
f 204//206 205//207 206//199
f 195//195 206//199 184//184
f 166//165 162//166 207//208
f 166//165 207//208 205//207
f 206//199 205//207 208//209
f 208//209 205//207 207//208
f 209//210 220//201 206//199
f 207//208 162//166 210//211
f 167//167 210//211 162//166
f 167//167 163//162 211//212
f 212//213 210//211 167//167
f 212//213 167//167 211//212
f 214//214 215//215 199//200
f 216//216 214//214 199//200
f 216//216 199//200 220//201
f 199//200 201//203 190//191
f 201//203 199//200 203//205
f 215//215 170//170 203//205
f 215//215 203//205 199//200
f 211//212 163//162 168//168
f 168//168 169//169 218//217
f 169//169 180//179 218//217
f 168//168 218//217 211//212
f 218//217 180//179 216//216
f 218//217 217//218 211//212
f 215//215 180//179 170//170
f 180//179 215//215 214//214
f 214//214 216//216 180//179
f 206//199 208//209 209//210
f 213//219 208//209 207//208
f 213//219 207//208 210//211
f 208//209 213//219 209//210
f 209//210 213//219 219//220
f 212//213 213//219 210//211
f 212//213 219//220 213//219
f 212//213 211//212 217//218
f 212//213 217//218 219//220
f 219//220 217//218 220//201
f 219//220 220//201 209//210
f 220//201 217//218 216//216
f 218//217 216//216 217//218
