# Blender v2.78 (sub 0) OBJ File: 'exporter.blend'
# www.blender.org
o FJ3098.obj_grp1.1739
v 0.028335 -0.662890 5.371008
v 0.026601 -0.662409 5.367139
v 0.025208 -0.666181 5.368004
v 0.026998 -0.667620 5.371144
v 0.029777 -0.666881 5.372998
v 0.025735 -0.669173 5.368137
v 0.030623 -0.660520 5.366464
v 0.030185 -0.661486 5.363609
v 0.027561 -0.662301 5.364572
v 0.025768 -0.665461 5.364129
v 0.025827 -0.668773 5.365082
v 0.043436 -0.686620 5.360036
v 0.030875 -0.660940 5.369441
v 0.029957 -0.672236 5.369815
v 0.049022 -0.688929 5.362309
v 0.033137 -0.663577 5.371925
v 0.032530 -0.666538 5.372840
v 0.042348 -0.675485 5.368533
v 0.035646 -0.663066 5.369003
v 0.033770 -0.663907 5.361802
v 0.027625 -0.665283 5.362014
v 0.043854 -0.685300 5.355830
v 0.034143 -0.661145 5.367437
v 0.043514 -0.670173 5.362794
v 0.048969 -0.677136 5.363762
v 0.046861 -0.681755 5.353864
v 0.053789 -0.684592 5.352829
v 0.048599 -0.687561 5.352158
v 0.052594 -0.685598 5.362588
v 0.054972 -0.683158 5.357137
v 0.052607 -0.698991 5.353864
v 0.056432 -0.694580 5.358382
v 0.050092 -0.695252 5.351921
v 0.058567 -0.689872 5.356697
v 0.055642 -0.692529 5.347511
v 0.054121 -0.697403 5.345839
v 0.059992 -0.692228 5.350500
v 0.060228 -0.698379 5.354407
v 0.069076 -0.714463 5.334885
v 0.067663 -0.711729 5.341140
v 0.064782 -0.711605 5.345071
v 0.059340 -0.714925 5.336796
v 0.060146 -0.716217 5.341323
v 0.061841 -0.710641 5.335351
v 0.070825 -0.720358 5.329674
v 0.066669 -0.725015 5.333736
v 0.070438 -0.721924 5.338392
v 0.066354 -0.719344 5.330832
v 0.063724 -0.720318 5.333022
v 0.067514 -0.722827 5.338260
v 0.077986 -0.725675 5.328163
v 0.075917 -0.722965 5.334649
v 0.074126 -0.727804 5.327240
v 0.081771 -0.738312 5.331310
v 0.079505 -0.732924 5.333890
v 0.076447 -0.732704 5.327222
v 0.084683 -0.734025 5.332705
v 0.082362 -0.732313 5.325525
v 0.091324 -0.736830 5.329051
v 0.081900 -0.735950 5.325415
v 0.087238 -0.739451 5.332364
v 0.096961 -0.741610 5.327101
v 0.090203 -0.745493 5.326551
v 0.094495 -0.745233 5.324436
v 0.097609 -0.743406 5.330954
v 0.097669 -0.747020 5.331914
v 0.097425 -0.750946 5.328860
v 0.108823 -0.755016 5.331951
v 0.109593 -0.751085 5.326193
v 0.104398 -0.753713 5.326389
v 0.108011 -0.748615 5.328774
v 0.108815 -0.750793 5.331720
v 0.108447 -0.756369 5.329076
v 0.114216 -0.751714 5.330859
v 0.115943 -0.756396 5.326597
v 0.120019 -0.759295 5.329114
v 0.117729 -0.752866 5.328252
v 0.129060 -0.759287 5.334174
v 0.121898 -0.759593 5.331586
v 0.126866 -0.756545 5.328399
v 0.124966 -0.755189 5.333388
v 0.127270 -0.754430 5.331469
v 0.124115 -0.757014 5.333952
v 0.125177 -0.755202 5.333469
v 0.129184 -0.754797 5.330088
v 0.132946 -0.759898 5.331149
v 0.141225 -0.753634 5.335992
v 0.135430 -0.755869 5.335763
v 0.140182 -0.756895 5.337426
v 0.139688 -0.754686 5.332455
v 0.139960 -0.758676 5.332486
v 0.143830 -0.756533 5.332932
v 0.142401 -0.758765 5.335871
v 0.144872 -0.752711 5.335933
v 0.144992 -0.753654 5.338724
v 0.149643 -0.756371 5.337034
v 0.156532 -0.748824 5.341631
v 0.156324 -0.750241 5.343455
v 0.157147 -0.752798 5.342642
v 0.156726 -0.749029 5.340330
v 0.158298 -0.751299 5.342452
v 0.158352 -0.751983 5.340101
v 0.157342 -0.749934 5.339348
v 0.158080 -0.749693 5.341120
v 0.158270 -0.750869 5.340183
v 0.158270 -0.750869 5.340183
v 0.158270 -0.750869 5.340183
v 0.158220 -0.751845 5.340230
vn -0.4649 0.5874 0.6624
vn -0.7345 0.6721 0.0939
vn -0.9726 0.1220 0.1981
vn -0.6971 -0.1961 0.6897
vn -0.2274 -0.0531 0.9723
vn -0.8575 -0.4750 0.1979
vn -0.0788 0.9935 -0.0822
vn -0.1094 0.7810 -0.6148
vn -0.5874 0.7121 -0.3847
vn -0.8823 0.1460 -0.4474
vn -0.8449 -0.3945 -0.3613
vn -0.6793 -0.7214 0.1347
vn -0.0448 0.8999 0.4338
vn -0.4338 -0.6768 0.5948
vn -0.1189 -0.5763 0.8085
vn 0.3139 0.4946 0.8104
vn 0.3840 -0.0934 0.9186
vn 0.2119 0.0027 0.9773
vn -0.5204 0.1651 -0.8378
vn 0.2095 0.6396 -0.7396
vn -0.7441 -0.4114 -0.5264
vn 0.4467 0.8933 0.0486
vn 0.6866 0.7147 -0.1336
vn 0.6469 0.6175 0.4474
vn -0.1354 0.3299 -0.9342
vn 0.4107 0.6373 -0.6521
vn -0.5526 0.0219 -0.8332
vn 0.7594 0.4199 0.4970
vn 0.5502 -0.0557 0.8332
vn 0.8010 0.5971 -0.0431
vn -0.7503 -0.5969 0.2843
vn 0.3884 -0.3496 0.8526
vn -0.8910 -0.3117 -0.3300
vn 0.8836 0.2247 0.4108
vn -0.1547 0.4619 -0.8733
vn -0.6281 0.2192 -0.7467
vn 0.7980 0.5322 -0.2828
vn 0.7140 -0.1899 0.6739
vn 0.7353 0.5817 -0.3478
vn 0.9360 0.1489 0.3191
vn -0.2091 -0.6741 0.7084
vn -0.8595 -0.2510 -0.4453
vn -0.6490 -0.6710 0.3587
vn 0.6715 -0.2147 0.7092
vn -0.2859 0.4026 -0.8696
vn 0.1026 0.4602 -0.8818
vn -0.7030 -0.7112 -0.0049
vn 0.3367 -0.2544 0.9066
vn -0.4269 0.1083 -0.8978
vn -0.7615 -0.3187 -0.5644
vn 0.4291 0.6330 -0.6443
vn 0.6768 0.3931 0.6224
vn -0.3548 -0.0165 -0.9348
vn 0.0488 -0.3683 0.9284
vn -0.6100 -0.4950 -0.6188
vn -0.5054 -0.7554 0.4170
vn 0.3732 0.1519 0.9152
vn 0.1352 0.3173 -0.9386
vn 0.6550 0.7164 0.2405
vn -0.3398 -0.2697 -0.9010
vn -0.0919 -0.2511 0.9636
vn 0.6165 0.7833 -0.0797
vn -0.5495 -0.7174 -0.4282
vn -0.0821 -0.1780 -0.9806
vn 0.4375 0.5678 0.6973
vn 0.5183 0.6700 0.5315
vn -0.5094 -0.8465 0.1545
vn -0.2286 -0.4844 0.8445
vn 0.2886 0.4180 -0.8614
vn -0.2597 -0.6834 -0.6823
vn 0.4598 0.8822 0.1014
vn 0.1844 0.4538 0.8718
vn -0.3394 -0.9390 -0.0559
vn 0.2802 0.9195 0.2756
vn 0.0393 -0.3740 -0.9266
vn -0.0522 -0.9084 -0.4148
vn 0.3533 0.8677 -0.3497
vn 0.2148 0.0569 -0.9750
vn -0.1382 -0.9409 0.3092
vn 0.0161 0.6595 0.7515
vn 0.1071 0.9822 0.1544
vn -0.1255 0.0563 0.9905
vn -0.1035 -0.7575 0.6446
vn -0.0787 0.9266 0.3678
vn 0.1525 0.8253 -0.5437
vn 0.1455 -0.8919 -0.4283
vn -0.2588 0.9389 0.2270
vn -0.2116 0.5507 0.8074
vn -0.1573 -0.2997 0.9410
vn 0.1318 0.7181 -0.6833
vn 0.4401 -0.1892 -0.8778
vn 0.3042 -0.6724 -0.6748
vn 0.1652 -0.9506 0.2628
vn -0.1992 0.9791 -0.0418
vn -0.4106 0.6464 0.6431
vn 0.4541 -0.8435 -0.2870
vn 0.4575 0.4845 -0.7456
vn 0.0497 0.3578 0.9325
vn 0.3752 -0.7046 0.6023
vn 0.1047 0.9445 0.3113
vn 0.6945 -0.5486 -0.4656
vn 0.1894 0.9280 -0.3207
vn 0.7706 0.6369 0.0254
vn 0.8522 -0.0124 0.5231
vn 0.9993 0.0365 -0.0060
vn 0.7071 0.1132 -0.6980
vn 0.8018 0.4428 -0.4013
vn 0.9984 -0.0512 -0.0220
s 1
f 1//1 2//2 3//3
f 3//3 4//4 1//1
f 4//4 5//5 1//1
f 6//6 4//4 3//3
f 7//7 8//8 9//9
f 3//3 2//2 10//10
f 10//10 2//2 9//9
f 9//9 2//2 7//7
f 3//3 10//10 11//11
f 11//11 6//6 3//3
f 6//6 11//11 12//12
f 13//13 7//7 2//2
f 2//2 1//1 13//13
f 6//6 14//14 4//4
f 14//14 6//6 12//12
f 14//14 12//12 15//15
f 5//5 16//16 1//1
f 13//13 1//1 16//16
f 5//5 18//17 17//18
f 5//5 4//4 14//14
f 14//14 15//15 5//5
f 5//5 15//15 18//17
f 16//16 5//5 17//18
f 10//10 9//9 21//19
f 21//19 9//9 8//8
f 8//8 20//20 21//19
f 21//19 11//11 10//10
f 21//19 22//21 11//11
f 12//12 11//11 22//21
f 23//22 7//7 13//13
f 8//8 7//7 23//22
f 23//22 20//20 8//8
f 20//20 23//22 24//23
f 23//22 13//13 16//16
f 16//16 19//24 23//22
f 21//19 20//20 26//25
f 26//25 20//20 27//26
f 21//19 26//25 28//27
f 21//19 28//27 22//21
f 16//16 17//18 18//17
f 25//28 24//23 19//24
f 23//22 19//24 24//23
f 25//28 19//24 16//16
f 16//16 18//17 25//28
f 29//29 18//17 15//15
f 20//20 24//23 27//26
f 30//30 24//23 25//28
f 15//15 12//12 31//31
f 25//28 18//17 29//29
f 29//29 15//15 32//32
f 33//33 12//12 22//21
f 25//28 34//34 30//30
f 31//31 12//12 33//33
f 34//34 25//28 29//29
f 26//25 35//35 28//27
f 33//33 22//21 28//27
f 36//36 33//33 28//27
f 37//37 27//26 30//30
f 30//30 27//26 24//23
f 34//34 29//29 32//32
f 35//35 36//36 28//27
f 35//35 26//25 27//26
f 38//38 34//34 32//32
f 37//37 39//39 27//26
f 30//30 34//34 37//37
f 37//37 34//34 40//40
f 15//15 50//41 32//32
f 42//42 33//33 36//36
f 43//43 15//15 31//31
f 50//41 15//15 43//43
f 38//38 40//40 34//34
f 39//39 37//37 40//40
f 41//44 40//40 38//38
f 38//38 32//32 41//44
f 44//45 35//35 27//26
f 27//26 39//39 45//46
f 32//32 50//41 41//44
f 36//36 35//35 44//45
f 42//42 43//43 33//33
f 44//45 27//26 45//46
f 33//33 43//43 31//31
f 44//45 42//42 36//36
f 46//47 43//43 42//42
f 50//41 47//48 41//44
f 42//42 44//45 48//49
f 49//50 42//42 48//49
f 40//40 41//44 47//48
f 42//42 49//50 46//47
f 39//39 51//51 45//46
f 46//47 50//41 43//43
f 52//52 39//39 40//40
f 48//49 44//45 45//46
f 53//53 49//50 48//49
f 52//52 40//40 47//48
f 50//41 55//54 47//48
f 53//53 56//55 49//50
f 48//49 45//46 53//53
f 49//50 56//55 46//47
f 50//41 46//47 54//56
f 55//54 50//41 54//56
f 57//57 52//52 47//48
f 58//58 53//53 45//46
f 45//46 51//51 58//58
f 39//39 59//59 51//51
f 57//57 47//48 55//54
f 60//60 56//55 53//53
f 58//58 60//60 53//53
f 57//57 59//59 52//52
f 52//52 59//59 39//39
f 55//54 61//61 57//57
f 59//59 62//62 51//51
f 63//63 46//47 56//55
f 55//54 54//56 61//61
f 60//60 58//58 64//64
f 51//51 62//62 58//58
f 54//56 46//47 63//63
f 60//60 63//63 56//55
f 59//59 57//57 65//65
f 65//65 57//57 66//66
f 63//63 60//60 64//64
f 65//65 62//62 59//59
f 63//63 67//67 54//56
f 57//57 61//61 66//66
f 61//61 68//68 66//66
f 61//61 54//56 68//68
f 58//58 62//62 69//69
f 58//58 69//69 64//64
f 70//70 63//63 64//64
f 67//67 63//63 70//70
f 62//62 65//65 71//71
f 65//65 72//72 71//71
f 68//68 54//56 67//67
f 66//66 72//72 65//65
f 67//67 70//70 73//73
f 72//72 74//74 71//71
f 75//75 70//70 64//64
f 73//73 68//68 67//67
f 68//68 72//72 66//66
f 69//69 75//75 64//64
f 70//70 76//76 73//73
f 71//71 69//69 62//62
f 69//69 71//71 77//77
f 77//77 71//71 74//74
f 77//77 80//78 69//69
f 69//69 80//78 75//75
f 75//75 76//76 70//70
f 73//73 79//79 68//68
f 76//76 79//79 73//73
f 72//72 81//80 74//74
f 82//81 74//74 81//80
f 72//72 68//68 83//82
f 81//80 72//72 83//82
f 68//68 78//83 83//82
f 78//83 68//68 79//79
f 84//84 82//81 81//80
f 82//81 77//77 74//74
f 82//81 85//85 77//77
f 85//85 80//78 77//77
f 75//75 80//78 86//86
f 75//75 86//86 76//76
f 86//86 79//79 76//76
f 85//85 82//81 87//87
f 88//88 81//80 83//82
f 86//86 78//83 79//79
f 82//81 84//84 88//88
f 83//82 78//83 89//89
f 88//88 83//82 89//89
f 90//90 80//78 85//85
f 86//86 80//78 92//91
f 91//92 86//86 92//91
f 82//81 88//88 87//87
f 90//90 85//85 87//87
f 93//93 89//89 78//83
f 86//86 93//93 78//83
f 90//90 87//87 94//94
f 91//92 93//93 86//86
f 89//89 95//95 88//88
f 95//95 87//87 88//88
f 95//95 94//94 87//87
f 91//92 96//96 93//93
f 92//91 80//78 90//90
f 96//96 91//92 92//91
f 94//94 103//97 90//90
f 92//91 90//90 103//97
f 98//98 89//89 99//99
f 99//99 89//89 93//93
f 95//95 98//98 97//100
f 94//94 95//95 97//100
f 89//89 98//98 95//95
f 92//91 102//101 96//96
f 97//100 100//102 94//94
f 94//94 100//102 103//97
f 97//100 104//103 100//102
f 103//97 100//102 104//103
f 97//100 98//98 104//103
f 104//103 101//104 105//105
f 92//91 103//97 102//101
f 102//101 103//97 106//106
f 107//107 103//97 104//103
f 105//105 101//104 108//108
f 96//96 99//99 93//93
f 96//96 102//101 99//99
f 104//103 98//98 101//104
f 101//104 98//98 99//99
f 99//99 102//101 101//104
