# Blender v2.78 (sub 0) OBJ File: 'exporter.blend'
# www.blender.org
o FJ3012.obj_grp1.1654
v -0.256020 -0.155542 5.345796
v -0.239510 -0.191639 5.380099
v -0.255897 -0.151978 5.349619
v -0.256969 -0.155247 5.346239
v -0.257154 -0.153831 5.349900
v -0.257154 -0.153831 5.349900
v -0.256969 -0.155247 5.346239
v -0.253365 -0.154432 5.345018
v -0.256064 -0.156380 5.345722
v -0.252515 -0.154357 5.343936
v -0.256064 -0.156380 5.345722
v -0.237561 -0.194818 5.375204
v -0.253096 -0.149801 5.350092
v -0.256061 -0.153646 5.348979
v -0.250920 -0.153165 5.344145
v -0.255897 -0.151978 5.349619
v -0.252780 -0.150020 5.349760
v -0.256969 -0.155247 5.346239
v -0.250257 -0.150570 5.347553
v -0.249473 -0.152301 5.346081
v -0.228166 -0.187479 5.375806
v -0.249132 -0.152498 5.346145
v -0.249132 -0.152498 5.346145
v -0.250654 -0.153429 5.344734
v -0.250257 -0.150570 5.347553
v -0.236706 -0.194173 5.375770
v -0.237605 -0.190058 5.381784
v -0.226901 -0.187746 5.374950
v -0.231341 -0.185679 5.381332
v -0.237584 -0.193870 5.374927
v -0.239314 -0.190834 5.379148
v -0.239252 -0.191634 5.380006
v -0.229299 -0.191570 5.373442
v -0.236418 -0.188631 5.382153
v -0.235049 -0.195123 5.373655
v -0.231777 -0.185504 5.381432
v -0.228605 -0.187422 5.375557
vn -0.8181 0.5212 -0.2429
vn -0.8777 -0.4772 -0.0441
vn -0.8128 -0.5419 -0.2138
vn -0.9079 -0.4192 0.0066
vn -0.3482 0.1442 -0.9263
vn 0.3741 -0.4761 -0.7959
vn -0.1585 -0.6890 -0.7072
vn 0.3490 -0.5052 -0.7893
vn -0.3908 0.7362 -0.5526
vn -0.4265 0.7223 -0.5444
vn -0.3943 0.7407 -0.5440
vn -0.4366 0.7135 -0.5480
vn -0.2966 0.7857 -0.5429
vn 0.0829 0.6979 0.7114
vn 0.7107 0.6691 0.2174
vn 0.7087 0.6532 0.2666
vn 0.2539 0.6626 -0.7046
vn 0.2536 0.6610 -0.7062
vn 0.2521 0.6638 -0.7041
vn -0.8040 -0.5527 -0.2193
vn 0.6600 -0.2144 -0.7200
vn 0.3127 -0.4971 -0.8094
vn 0.2086 0.7310 0.6498
vn -0.5859 0.3649 0.7235
vn -0.7111 0.1927 0.6762
vn -0.7847 0.1405 0.6037
vn 0.4235 -0.6290 0.6519
vn 0.2157 -0.8417 0.4949
vn 0.2490 -0.6749 0.6946
vn 0.3439 -0.7697 0.5378
vn 0.2208 -0.4360 0.8724
vn 0.5645 -0.5671 0.5998
vn 0.7783 -0.3853 0.4957
s 1
f 3//1 4//1 5//1
f 1//2 2//3 6//4
f 7//5 8//5 9//5
f 12//6 11//7 10//8
f 15//9 16//10 17//11
f 18//12 16//10 15//9
f 19//13 15//9 17//11
f 13//14 21//15 20//16
f 25//17 23//18 24//19
f 26//20 2//3 1//2
f 22//21 28//22 10//8
f 29//23 13//14 27//24
f 27//24 13//14 14//25
f 14//25 32//26 27//24
f 33//27 31//28 30//29
f 34//30 31//28 33//27
f 33//27 30//29 35//31
f 28//22 12//6 10//8
f 33//27 36//32 34//30
f 29//23 21//15 13//14
f 33//27 37//33 36//32
