# Blender v2.78 (sub 0) OBJ File: 'exporter.blend'
# www.blender.org
o FJ3003.obj_grp1.1645
v -0.511411 -0.441102 5.571126
v -0.509786 -0.443181 5.573432
v -0.506973 -0.419021 5.593514
v -0.511075 -0.441884 5.572769
v -0.511301 -0.441451 5.571862
v -0.511133 -0.440965 5.570922
v -0.510907 -0.441861 5.572708
v -0.510310 -0.442666 5.573130
v -0.510310 -0.442666 5.573130
v -0.507688 -0.443730 5.573977
v -0.509288 -0.438158 5.567949
v -0.510869 -0.439152 5.569304
v -0.510855 -0.439169 5.569327
v -0.510066 -0.438617 5.568312
v -0.508086 -0.438112 5.567512
v -0.509001 -0.438142 5.567819
v -0.506865 -0.443865 5.574033
v -0.505996 -0.443888 5.573834
v -0.504250 -0.443309 5.572423
v -0.503505 -0.419747 5.595208
v -0.504225 -0.443166 5.572605
v -0.506869 -0.438333 5.567309
v -0.505926 -0.438814 5.567825
v -0.504751 -0.438547 5.567430
v -0.505724 -0.437447 5.568060
v -0.505306 -0.438608 5.567637
v -0.505926 -0.438814 5.567825
v -0.505724 -0.437447 5.568060
v -0.505926 -0.438814 5.567825
v -0.506869 -0.438333 5.567309
v -0.505306 -0.438608 5.567637
v -0.505721 -0.437441 5.568055
v -0.505062 -0.436978 5.568717
v -0.504832 -0.438399 5.567731
v -0.505306 -0.438608 5.567637
v -0.505062 -0.436978 5.568717
v -0.503024 -0.440297 5.569093
v -0.500673 -0.412941 5.589876
v -0.504734 -0.438399 5.567605
v -0.506865 -0.438280 5.567225
v -0.502579 -0.409983 5.591858
v -0.502719 -0.441887 5.571299
v -0.502719 -0.441887 5.571299
v -0.502719 -0.441887 5.571299
v -0.502987 -0.440334 5.569130
v -0.499157 -0.416578 5.589654
v -0.499848 -0.421330 5.590045
v -0.507651 -0.419332 5.585660
v -0.508945 -0.422241 5.586030
v -0.500419 -0.416279 5.598160
v -0.504660 -0.406195 5.601617
v -0.503489 -0.405059 5.598043
v -0.488166 -0.391675 5.614358
v -0.489351 -0.395016 5.617729
v -0.493700 -0.387469 5.612799
v -0.489203 -0.391768 5.612471
v -0.497967 -0.388552 5.615835
v -0.495781 -0.388188 5.612799
v -0.492399 -0.395976 5.619711
v -0.488161 -0.393667 5.616364
v -0.497259 -0.393237 5.620005
v -0.496631 -0.387790 5.614159
v -0.490330 -0.395605 5.618903
v -0.498656 -0.390089 5.616984
v -0.490034 -0.389351 5.612518
v -0.498485 -0.389773 5.617213
v -0.497748 -0.392543 5.619560
v -0.495255 -0.394319 5.620236
v -0.498499 -0.389857 5.617099
v -0.498147 -0.389575 5.616837
v -0.498485 -0.389773 5.617213
v -0.498140 -0.389550 5.616856
v -0.495574 -0.387628 5.613746
v -0.498147 -0.389575 5.616837
v -0.498086 -0.388906 5.616133
v -0.498630 -0.390092 5.616978
v -0.497657 -0.388614 5.615647
v -0.498086 -0.388906 5.616133
v -0.497644 -0.388380 5.615522
v -0.497644 -0.388380 5.615522
v -0.496630 -0.387792 5.614161
v -0.494532 -0.388060 5.613739
v -0.495574 -0.387637 5.613739
v -0.495781 -0.388188 5.612799
v -0.495574 -0.387637 5.613739
v -0.494532 -0.388060 5.613739
v -0.493128 -0.394936 5.619982
v -0.492264 -0.395975 5.619701
v -0.490654 -0.394963 5.618855
v -0.494133 -0.396101 5.619560
v -0.490654 -0.394963 5.618855
v -0.490654 -0.394963 5.618855
v -0.495781 -0.388188 5.612799
v -0.494532 -0.388060 5.613739
v -0.493706 -0.387752 5.612988
v -0.489451 -0.395325 5.618315
v -0.492264 -0.395975 5.619701
v -0.488150 -0.393663 5.616377
v -0.489260 -0.389072 5.612516
v -0.489973 -0.389407 5.613081
v -0.493706 -0.387752 5.612988
v -0.488199 -0.391442 5.614161
v -0.491771 -0.388130 5.612330
v -0.489973 -0.389407 5.613081
v -0.490034 -0.389351 5.612518
v -0.491771 -0.388130 5.612330
vn -0.5936 -0.7605 -0.2634
vn 0.0207 -0.9155 -0.4017
vn -0.3322 -0.8951 -0.2973
vn -0.7175 -0.6557 -0.2351
vn -0.1485 -0.8119 -0.5645
vn -0.0783 -0.6897 -0.7198
vn -0.1368 -0.7559 -0.6402
vn -0.1356 -0.7310 -0.6688
vn -0.8895 -0.2051 0.4083
vn -0.5062 -0.4865 0.7121
vn -0.7907 -0.2764 0.5462
vn -0.2596 -0.6147 -0.7448
vn -0.1171 -0.7399 -0.6625
vn -0.1417 -0.8574 -0.4947
vn 0.0900 -0.6434 0.7602
vn -0.1501 -0.6454 0.7490
vn -0.2086 -0.7511 -0.6264
vn -0.1658 -0.7609 -0.6273
vn -0.0373 -0.7551 -0.6546
vn -0.1071 -0.7884 -0.6058
vn -0.3184 0.2244 -0.9210
vn -0.3185 0.2244 -0.9210
vn 0.4994 0.0914 -0.8615
vn 0.4467 0.4388 -0.7797
vn 0.2347 0.6042 -0.7615
vn 0.2905 0.5695 -0.7689
vn -0.0837 0.5510 -0.8303
vn -0.0382 -0.7449 -0.6661
vn 0.4803 0.5219 -0.7049
vn 0.7213 0.4004 -0.5651
vn -0.1763 0.6830 -0.7088
vn -0.0796 0.6866 -0.7227
vn -0.3404 0.6592 -0.6705
vn 0.2825 -0.7592 -0.5863
vn 0.9275 0.1228 -0.3531
vn 0.9447 0.1385 -0.2973
vn 0.6651 -0.5297 0.5264
vn 0.9254 -0.3276 0.1907
vn 0.7508 -0.5253 0.4004
vn 0.9907 -0.0163 -0.1348
vn -0.9923 0.1068 0.0626
vn -0.9872 0.1571 0.0273
vn -0.9028 0.3483 -0.2524
vn -0.7243 0.5482 -0.4180
vn -0.6680 0.5499 -0.5013
vn -0.6911 0.5971 -0.4073
vn 0.4222 -0.7115 0.5618
vn -0.9698 0.1767 0.1678
vn -0.3522 0.1796 0.9186
vn 0.7479 -0.6317 0.2041
vn 0.9239 -0.0808 -0.3740
vn 0.8788 0.1250 -0.4605
vn -0.3569 0.7354 -0.5760
vn 0.0180 0.6595 -0.7515
vn 0.8887 -0.4565 -0.0424
vn -0.8480 0.4941 -0.1919
vn -0.5863 0.6950 -0.4161
vn 0.5760 -0.7030 0.4171
vn 0.1756 -0.3864 0.9054
vn -0.9416 0.1244 0.3129
vn 0.5279 0.4500 -0.7203
vn -0.8473 0.0983 0.5219
vn 0.1953 0.6048 0.7721
vn -0.1310 -0.2040 0.9702
vn 0.3039 0.6639 0.6833
vn 0.2741 0.6764 0.6836
vn -0.5192 0.6415 0.5648
vn 0.3425 0.6015 0.7217
vn 0.2511 0.7250 0.6413
vn 0.2317 0.7036 0.6717
vn 0.4195 0.5676 0.7084
vn 0.0038 0.9125 0.4091
vn -0.2921 0.8501 -0.4382
vn 0.3206 0.7829 -0.5332
vn 0.2986 0.6657 0.6839
vn -0.0964 0.7233 0.6838
vn 0.3064 0.2573 0.9165
vn 0.4219 0.4255 0.8006
vn 0.3006 0.6880 0.6605
vn -0.2169 0.9636 0.1561
vn 0.4860 0.4291 0.7614
vn 0.4275 0.0704 0.9013
vn 0.3179 0.6483 0.6918
vn 0.3212 0.7045 0.6329
vn 0.3209 0.7523 0.5754
vn 0.3703 0.6574 0.6563
vn 0.8684 -0.0659 -0.4915
vn 0.3342 0.7808 0.5279
vn 0.5728 0.8194 0.0197
s 1
f 7//1 5//2 6//3
f 8//4 7//1 6//3
f 9//5 6//6 10//7
f 6//6 11//8 10//7
f 4//9 2//10 3//11
f 6//6 13//12 11//8
f 10//7 19//13 18//14
f 2//10 17//15 20//16
f 10//7 11//8 15//17
f 15//17 22//18 10//7
f 10//7 22//18 23//19
f 10//7 23//19 24//20
f 25//21 26//22 27//21
f 28//23 29//23 30//23
f 31//24 32//25 33//26
f 34//27 35//27 36//27
f 10//7 24//20 37//28
f 32//25 38//29 33//26
f 33//26 38//29 39//30
f 41//31 40//32 16//33
f 38//29 32//25 40//32
f 10//7 37//28 19//13
f 37//28 43//34 19//13
f 39//30 46//35 45//36
f 17//15 21//37 20//16
f 38//29 46//35 39//30
f 47//38 21//37 42//39
f 45//36 47//38 44//40
f 3//11 1//41 4//9
f 1//41 49//42 12//43
f 48//44 14//45 12//43
f 48//44 16//33 14//45
f 49//42 48//44 12//43
f 3//11 49//42 1//41
f 20//16 3//11 2//10
f 41//31 16//33 48//44
f 41//31 48//44 52//46
f 50//47 20//16 21//37
f 50//47 21//37 47//38
f 46//35 47//38 45//36
f 38//29 40//32 41//31
f 48//44 49//42 51//48
f 51//48 52//46 48//44
f 51//48 49//42 3//11
f 3//11 20//16 61//49
f 54//50 50//47 47//38
f 53//51 46//35 38//29
f 47//38 46//35 54//50
f 56//52 53//51 38//29
f 41//31 52//46 58//53
f 58//53 55//54 41//31
f 54//50 46//35 60//55
f 57//56 52//46 51//48
f 61//49 51//48 3//11
f 52//46 57//56 62//57
f 58//53 52//46 62//57
f 63//58 50//47 54//50
f 63//58 59//59 50//47
f 55//54 38//29 41//31
f 60//55 46//35 53//51
f 20//16 59//59 61//49
f 57//56 51//48 64//60
f 61//49 64//60 51//48
f 59//59 20//16 50//47
f 65//61 56//52 38//29
f 64//60 61//49 66//62
f 67//63 68//64 72//65
f 67//63 61//49 68//64
f 59//59 68//64 61//49
f 71//66 67//63 72//65
f 74//67 75//67 76//67
f 77//68 78//69 72//65
f 72//65 73//70 77//68
f 77//68 73//70 80//71
f 81//72 80//71 73//70
f 62//57 83//73 58//53
f 84//74 85//74 86//74
f 87//75 72//65 68//64
f 88//76 89//76 90//76
f 59//59 91//77 68//64
f 87//75 92//78 72//65
f 73//70 72//65 82//79
f 93//80 94//80 95//80
f 96//81 92//78 97//82
f 72//65 92//78 98//83
f 92//78 96//81 98//83
f 72//65 98//83 82//79
f 55//54 65//61 38//29
f 82//79 100//84 101//85
f 102//86 100//84 98//83
f 53//51 56//52 99//87
f 98//83 100//84 82//79
f 101//85 100//84 103//88
f 104//89 105//89 106//89
l 77 79
l 69 70
