# Blender v2.78 (sub 0) OBJ File: 'exporter.blend'
# www.blender.org
o FJ3019.obj_grp1.1661
v -0.273999 -0.307135 5.776916
v -0.259605 -0.294672 5.773231
v -0.252231 -0.305203 5.751163
v -0.276299 -0.316040 5.765549
v -0.269877 -0.333412 5.761165
v -0.273817 -0.350922 5.823635
v -0.271834 -0.308271 5.759323
v -0.258312 -0.316917 5.748164
v -0.259220 -0.334651 5.753129
v -0.257726 -0.383356 5.827804
v -0.266135 -0.332360 5.836420
v -0.249012 -0.373981 5.892476
v -0.249845 -0.394775 5.879619
v -0.240633 -0.312283 5.751313
v -0.236538 -0.328716 5.754587
v -0.238832 -0.299340 5.768993
v -0.235006 -0.362157 5.791060
v -0.240935 -0.343734 5.878044
v -0.227512 -0.331840 5.852870
v -0.221891 -0.330184 5.809904
v -0.195205 -0.359779 5.919717
v -0.216973 -0.374804 5.926195
v -0.232012 -0.419060 5.893561
v -0.230873 -0.316056 5.761363
v -0.196918 -0.393165 5.851249
v -0.212044 -0.414591 5.848680
v -0.208238 -0.348298 5.843029
v -0.199515 -0.441311 5.886035
v -0.196611 -0.410429 5.954193
v -0.185513 -0.438817 5.959078
v -0.176935 -0.455074 5.943140
v -0.174087 -0.371420 5.897763
v -0.167021 -0.403060 5.884102
v -0.159863 -0.439834 5.890986
v -0.127888 -0.411327 5.909946
v -0.126520 -0.478134 5.946520
v -0.153576 -0.451878 5.901073
v -0.114276 -0.407329 5.979293
v -0.136657 -0.408899 5.984606
v -0.163998 -0.425828 5.980220
v -0.157681 -0.453842 5.977542
v -0.142926 -0.432770 5.895545
v -0.120393 -0.404609 5.948235
v -0.116976 -0.478331 5.977228
v -0.104240 -0.421508 5.907726
v -0.071392 -0.428133 6.014075
v -0.046912 -0.466492 5.924288
v -0.066473 -0.432307 5.913257
v -0.090535 -0.406610 5.933213
v 0.002208 -0.492800 5.953859
v -0.098124 -0.407979 5.949822
v -0.022951 -0.474239 6.032459
v -0.050349 -0.402854 5.934617
v -0.069304 -0.417326 6.000660
v -0.024603 -0.488088 6.019814
v 0.007977 -0.456751 6.046471
v -0.036540 -0.395098 5.979761
v 0.063668 -0.455237 5.963778
v 0.025514 -0.481235 5.948445
v -0.005208 -0.395521 5.977944
v -0.020210 -0.496429 5.994144
v -0.016121 -0.411767 6.018969
v 0.058490 -0.534125 5.974423
v 0.074270 -0.425821 6.025417
v 0.026944 -0.515526 6.020505
v 0.056451 -0.488356 6.062228
v 0.092044 -0.524121 5.962132
v 0.053894 -0.515667 6.051367
v 0.073031 -0.422431 5.999327
v 0.069859 -0.527818 5.962314
v 0.054089 -0.532820 6.030750
v 0.038875 -0.429348 6.037255
v 0.118464 -0.475540 6.064156
v 0.077751 -0.437581 5.983714
v 0.093472 -0.570718 6.059588
v 0.083634 -0.590778 6.027595
v 0.147295 -0.510288 5.997315
v 0.099430 -0.589991 5.971364
v 0.089999 -0.604524 6.009383
v 0.106736 -0.615358 5.997895
v 0.105952 -0.607862 6.034909
v 0.109180 -0.526752 6.075594
v 0.115828 -0.571996 6.067513
v 0.121287 -0.575797 5.962080
v 0.120307 -0.602589 5.973434
v 0.165627 -0.506953 6.023514
v 0.138763 -0.612997 6.001957
v 0.129888 -0.613240 6.025369
v 0.153148 -0.485069 6.047587
v 0.132290 -0.532724 6.073790
v 0.142921 -0.559827 5.968455
v 0.148134 -0.577681 5.972232
v 0.154700 -0.592060 5.987879
v 0.159821 -0.591373 6.033089
v 0.132783 -0.598342 6.048559
v 0.143337 -0.496050 6.066061
v 0.148955 -0.573498 6.059594
v 0.162579 -0.540467 6.057760
v 0.161150 -0.543490 5.990497
v 0.169553 -0.562552 6.001093
v 0.161532 -0.592122 6.009099
v 0.171428 -0.568926 6.024254
v 0.171373 -0.520795 6.038583
vn -0.2210 0.9744 0.0408
vn -0.7223 0.4167 -0.5519
vn -0.8411 0.5211 0.1446
vn 0.0005 0.6149 -0.7886
vn -0.7306 -0.4350 -0.5264
vn -0.9849 -0.1302 0.1139
vn -0.9502 0.0449 -0.3085
vn -0.2898 -0.0063 -0.9571
vn -0.2417 -0.5273 -0.8146
vn -0.6735 -0.6931 -0.2568
vn -0.7256 0.5327 0.4355
vn -0.8293 0.0951 0.5506
vn -0.8813 -0.3923 0.2635
vn 0.4702 0.2930 -0.8325
vn 0.6112 -0.3701 -0.6996
vn 0.5704 0.8113 -0.1286
vn 0.7031 -0.4390 -0.5594
vn -0.4016 0.7318 0.5506
vn 0.3670 0.8951 0.2532
vn 0.9466 0.3050 -0.1047
vn 0.0805 0.8707 0.4852
vn -0.7517 -0.6369 0.1709
vn -0.5087 0.4589 0.7284
vn 0.9141 0.1536 -0.3753
vn 0.8589 0.4607 -0.2236
vn 0.7779 -0.0631 -0.6252
vn 0.1556 -0.6924 -0.7046
vn -0.3146 -0.9033 -0.2916
vn -0.6655 0.0682 0.7432
vn -0.7199 -0.4344 0.5413
vn 0.7485 0.3736 -0.5479
vn 0.6481 0.2059 -0.7332
vn -0.5482 -0.8193 0.1681
vn 0.4181 -0.3072 -0.8549
vn 0.4096 0.6843 -0.6033
vn -0.2097 -0.9635 -0.1666
vn 0.0722 -0.7456 -0.6625
vn 0.1839 0.9471 0.2631
vn -0.1534 0.6269 0.7639
vn -0.4791 0.0936 0.8728
vn -0.5211 -0.5393 0.6615
vn 0.3487 0.0588 -0.9354
vn 0.4102 0.9087 -0.0774
vn -0.3152 -0.8874 0.3366
vn 0.2058 0.5585 -0.8036
vn -0.2418 0.4495 0.8599
vn 0.1684 -0.4554 -0.8742
vn 0.2652 0.1601 -0.9508
vn -0.1031 0.9678 -0.2297
vn -0.0957 -0.8081 -0.5812
vn -0.0190 0.9968 0.0774
vn -0.4128 -0.3421 0.8441
vn 0.1915 0.8059 -0.5602
vn -0.0654 0.8752 0.4794
vn -0.4542 -0.7627 0.4604
vn -0.2458 0.1993 0.9486
vn -0.1123 0.9731 0.2010
vn 0.4457 0.2943 -0.8454
vn 0.2173 -0.2032 -0.9547
vn 0.2514 0.9633 -0.0945
vn -0.3665 -0.9283 0.0634
vn -0.0987 0.7345 0.6714
vn -0.5810 -0.6990 -0.4169
vn 0.3524 0.8598 0.3696
vn -0.4791 -0.8589 0.1812
vn 0.2547 0.1087 -0.9609
vn -0.5760 -0.4494 0.6828
vn -0.2526 -0.0050 0.9676
vn 0.4959 0.8379 -0.2280
vn -0.1784 -0.3624 -0.9148
vn -0.7670 -0.5925 0.2463
vn 0.0056 0.6243 0.7812
vn 0.2195 0.5252 0.8222
vn 0.5597 0.5741 -0.5976
vn -0.5070 -0.4503 0.7350
vn -0.7623 -0.5707 0.3051
vn 0.6006 0.4271 -0.6759
vn -0.4702 -0.5160 -0.7160
vn -0.7110 -0.7024 -0.0330
vn -0.3086 -0.9188 -0.2460
vn -0.3269 -0.8247 0.4615
vn -0.1170 -0.0023 0.9931
vn -0.0943 -0.4109 0.9068
vn 0.1152 -0.1794 -0.9770
vn 0.0855 -0.6646 -0.7423
vn 0.8605 0.4392 -0.2582
vn 0.2258 -0.9221 0.3144
vn 0.4013 -0.8969 -0.1857
vn 0.7309 0.6242 0.2758
vn 0.2576 -0.0374 0.9655
vn 0.4987 0.1528 -0.8532
vn 0.6071 -0.2284 -0.7611
vn 0.7193 -0.5029 -0.4792
vn 0.2147 -0.6990 0.6821
vn 0.4606 0.3305 0.8238
vn 0.5086 -0.3830 0.7711
vn 0.7357 -0.5870 0.3379
vn 0.7409 -0.0763 0.6673
vn 0.7731 0.2393 -0.5874
vn 0.9436 -0.0493 -0.3275
vn 0.8197 -0.5623 -0.1088
vn 0.9727 -0.1963 0.1239
vn 0.9633 0.1640 0.2126
s 1
f 2//1 7//2 1//3
f 3//4 7//2 2//1
f 5//5 6//6 4//7
f 7//2 5//5 4//7
f 1//3 7//2 4//7
f 8//8 9//9 7//2
f 7//2 3//4 8//8
f 5//5 10//10 6//6
f 5//5 7//2 9//9
f 1//3 4//7 6//6
f 6//6 11//11 1//3
f 1//3 11//11 2//1
f 12//12 11//11 6//6
f 10//10 13//13 6//6
f 6//6 13//13 12//12
f 3//4 14//14 8//8
f 14//14 15//15 8//8
f 9//9 8//8 15//15
f 16//16 3//4 2//1
f 16//16 14//14 3//4
f 9//9 15//15 17//17
f 18//18 2//1 11//11
f 19//19 16//16 2//1
f 16//16 19//19 20//20
f 19//19 2//1 18//18
f 10//10 5//5 9//9
f 21//21 19//19 18//18
f 11//11 12//12 18//18
f 10//10 23//22 13//13
f 18//18 12//12 22//23
f 13//13 23//22 12//12
f 14//14 16//16 24//24
f 14//14 24//24 15//15
f 24//24 16//16 20//20
f 20//20 17//17 15//15
f 24//24 20//20 15//15
f 19//19 27//25 20//20
f 25//26 17//17 27//25
f 10//10 9//9 26//27
f 9//9 17//17 26//27
f 28//28 10//10 26//27
f 23//22 10//10 28//28
f 21//21 18//18 22//23
f 29//29 22//23 12//12
f 23//22 30//30 12//12
f 27//25 17//17 20//20
f 25//26 26//27 17//17
f 27//25 19//19 32//31
f 27//25 32//31 25//26
f 33//32 25//26 32//31
f 23//22 28//28 31//33
f 12//12 30//30 29//29
f 23//22 31//33 30//30
f 33//32 34//34 25//26
f 33//32 32//31 35//35
f 25//26 34//34 26//27
f 28//28 36//36 31//33
f 37//37 28//28 26//27
f 38//38 19//19 21//21
f 21//21 22//23 39//39
f 29//29 40//40 22//23
f 30//30 40//40 29//29
f 41//41 40//40 30//30
f 42//42 34//34 33//32
f 34//34 37//37 26//27
f 35//35 42//42 33//32
f 37//37 36//36 28//28
f 32//31 19//19 43//43
f 43//43 19//19 38//38
f 38//38 21//21 39//39
f 39//39 22//23 40//40
f 30//30 31//33 41//41
f 31//33 44//44 41//41
f 35//35 45//45 42//42
f 43//43 35//35 32//31
f 36//36 44//44 31//33
f 46//46 39//39 40//40
f 37//37 34//34 47//47
f 47//47 34//34 42//42
f 48//48 47//47 42//42
f 35//35 49//49 45//45
f 37//37 47//47 50//50
f 37//37 50//50 36//36
f 51//51 35//35 43//43
f 44//44 52//52 41//41
f 42//42 45//45 48//48
f 45//45 49//49 53//53
f 49//49 35//35 51//51
f 51//51 43//43 54//54
f 50//50 44//44 36//36
f 38//38 54//54 43//43
f 55//55 52//52 44//44
f 54//54 38//38 39//39
f 54//54 39//39 46//46
f 46//46 40//40 56//56
f 40//40 41//41 52//52
f 51//51 54//54 57//57
f 57//57 49//49 51//51
f 56//56 40//40 52//52
f 45//45 53//53 48//48
f 53//53 58//58 48//48
f 59//59 47//47 48//48
f 53//53 49//49 57//57
f 60//60 53//53 57//57
f 61//61 55//55 44//44
f 57//57 54//54 46//46
f 46//46 62//62 57//57
f 62//62 46//46 56//56
f 59//59 50//50 47//47
f 44//44 50//50 61//61
f 61//61 50//50 63//63
f 60//60 57//57 62//62
f 64//64 60//60 62//62
f 65//65 55//55 61//61
f 48//48 58//58 59//59
f 67//66 59//59 58//58
f 68//67 55//55 65//65
f 55//55 68//67 52//52
f 56//56 52//52 66//68
f 66//68 52//52 68//67
f 60//60 69//69 53//53
f 50//50 59//59 70//70
f 50//50 70//70 63//63
f 69//69 60//60 64//64
f 63//63 65//65 61//61
f 71//71 65//65 63//63
f 62//62 56//56 72//72
f 64//64 62//62 72//72
f 73//73 72//72 56//56
f 68//67 65//65 71//71
f 58//58 53//53 74//74
f 70//70 59//59 67//66
f 69//69 74//74 53//53
f 56//56 66//68 73//73
f 66//68 68//67 75//75
f 76//76 68//67 71//71
f 74//74 77//77 58//58
f 78//78 63//63 70//70
f 63//63 79//79 71//71
f 63//63 78//78 79//79
f 78//78 80//80 79//79
f 71//71 79//79 76//76
f 76//76 79//79 81//81
f 76//76 81//81 75//75
f 72//72 73//73 64//64
f 76//76 75//75 68//67
f 66//68 75//75 82//82
f 75//75 83//83 82//82
f 67//66 84//84 70//70
f 84//84 78//78 70//70
f 78//78 84//84 85//85
f 86//86 77//77 74//74
f 58//58 77//77 67//66
f 85//85 80//80 78//78
f 86//86 74//74 69//69
f 80//80 81//81 79//79
f 88//87 80//80 87//88
f 88//87 81//81 80//80
f 89//89 86//86 69//69
f 64//64 89//89 69//69
f 75//75 81//81 83//83
f 73//73 66//68 82//82
f 82//82 83//83 90//90
f 77//77 91//91 67//66
f 67//66 91//91 84//84
f 92//92 85//85 84//84
f 92//92 84//84 91//91
f 93//93 85//85 92//92
f 80//80 85//85 87//88
f 87//88 85//85 93//93
f 88//87 95//94 81//81
f 89//89 64//64 73//73
f 73//73 96//95 89//89
f 95//94 83//83 81//81
f 95//94 97//96 83//83
f 94//97 97//96 95//94
f 82//82 90//90 96//95
f 82//82 96//95 73//73
f 96//95 90//90 98//98
f 98//98 90//90 97//96
f 90//90 83//83 97//96
f 77//77 99//99 91//91
f 92//92 91//91 99//99
f 92//92 99//99 100//100
f 92//92 100//100 93//93
f 99//99 77//77 86//86
f 101//101 94//97 87//88
f 93//93 101//101 87//88
f 101//101 93//93 100//100
f 101//101 102//102 94//97
f 94//97 88//87 87//88
f 94//97 95//94 88//87
f 89//89 96//95 103//103
f 96//95 98//98 103//103
f 98//98 97//96 94//97
f 100//100 99//99 86//86
f 100//100 102//102 101//101
f 100//100 86//86 103//103
f 103//103 102//102 100//100
f 89//89 103//103 86//86
f 103//103 98//98 102//102
f 94//97 102//102 98//98
