# Blender v2.78 (sub 0) OBJ File: 'exporter.blend'
# www.blender.org
o FJ3088.obj_grp1.1729
v 0.026832 -0.726984 5.309824
v 0.050909 -0.721135 5.347927
v 0.050757 -0.718748 5.343361
v 0.062178 -0.718647 5.354125
v 0.038849 -0.729500 5.331999
v 0.058002 -0.726711 5.351375
v 0.061459 -0.722494 5.354707
v 0.016832 -0.728242 5.295606
v 0.030975 -0.723805 5.308877
v 0.038082 -0.733163 5.326877
v 0.039322 -0.724029 5.314108
v 0.052991 -0.719616 5.337914
v 0.035702 -0.736142 5.311545
v 0.065450 -0.716396 5.348943
v 0.099905 -0.716965 5.360974
v 0.017997 -0.733636 5.294806
v 0.022734 -0.726790 5.288338
v 0.021909 -0.723243 5.294181
v 0.048543 -0.727958 5.324743
v 0.056749 -0.725318 5.337891
v 0.058874 -0.727802 5.342973
v 0.047627 -0.731636 5.327436
v 0.063807 -0.720689 5.343895
v 0.064280 -0.727478 5.349010
v 0.069459 -0.725301 5.346972
v 0.102590 -0.723429 5.361696
v 0.095609 -0.719412 5.360665
v 0.026422 -0.723195 5.291257
v 0.024407 -0.731357 5.287372
v 0.029065 -0.726514 5.287621
v 0.027722 -0.734551 5.289544
v 0.037581 -0.730304 5.299209
v 0.094320 -0.716796 5.351873
v 0.094003 -0.725795 5.354729
v 0.029735 -0.731430 5.287614
v 0.039324 -0.733499 5.305245
v 0.039316 -0.733386 5.305348
v 0.101365 -0.722867 5.352463
v 0.100393 -0.716945 5.361121
v 0.112043 -0.714225 5.365494
v 0.110178 -0.718080 5.367862
v 0.108154 -0.716452 5.365628
v 0.103076 -0.719208 5.363562
v 0.118177 -0.716708 5.361918
v 0.119117 -0.721719 5.364690
v 0.121324 -0.712467 5.369126
v 0.132641 -0.713634 5.388779
v 0.140893 -0.708788 5.398119
v 0.142491 -0.703516 5.395081
v 0.133243 -0.713359 5.389523
v 0.149716 -0.708989 5.402038
v 0.158636 -0.697063 5.410528
v 0.166015 -0.695163 5.408204
v 0.179293 -0.686454 5.421254
v 0.183863 -0.683148 5.420717
v 0.146711 -0.705395 5.393363
v 0.151858 -0.706559 5.397892
v 0.191944 -0.684892 5.423007
v 0.180291 -0.691172 5.421951
v 0.184026 -0.682961 5.420790
v 0.199476 -0.676143 5.434090
v 0.190331 -0.678202 5.425887
v 0.195120 -0.675243 5.432150
v 0.208453 -0.660305 5.444114
v 0.210494 -0.662258 5.445436
v 0.207449 -0.661448 5.443379
v 0.217951 -0.652305 5.450020
v 0.221253 -0.652056 5.452171
v 0.213772 -0.656464 5.448112
v 0.222281 -0.653516 5.451298
v 0.222509 -0.649292 5.451456
v 0.222361 -0.649246 5.451573
v 0.190305 -0.681085 5.421799
v 0.190146 -0.681229 5.421963
v 0.200276 -0.676883 5.430398
v 0.218871 -0.652368 5.446434
v 0.215271 -0.660582 5.446047
v 0.221608 -0.653512 5.451116
v 0.219192 -0.656764 5.446607
v 0.213659 -0.661901 5.442760
v 0.219366 -0.652398 5.446590
v 0.210494 -0.662258 5.445436
v 0.248973 -0.631407 5.454125
v 0.228589 -0.647094 5.448910
v 0.222156 -0.654723 5.448984
v 0.221956 -0.654808 5.448998
v 0.245736 -0.636614 5.455270
v 0.236802 -0.644301 5.453605
v 0.236802 -0.644301 5.453605
v 0.243033 -0.637212 5.451258
v 0.257660 -0.623244 5.453713
v 0.245009 -0.637151 5.454966
v 0.236886 -0.644208 5.453559
v 0.255379 -0.629474 5.453009
v 0.250262 -0.632106 5.451760
v 0.265096 -0.615131 5.453781
v 0.252491 -0.631327 5.455324
v 0.256377 -0.623960 5.454631
v 0.252405 -0.628236 5.454397
v 0.253558 -0.626567 5.452752
v 0.266398 -0.612096 5.453315
v 0.257085 -0.627560 5.455107
v 0.267014 -0.612049 5.454403
v 0.262919 -0.620330 5.455952
v 0.269195 -0.608275 5.455969
v 0.269572 -0.607974 5.455353
v 0.269759 -0.608759 5.456945
v 0.270236 -0.608878 5.456364
v 0.268722 -0.609021 5.457173
v 0.270374 -0.609504 5.457181
v 0.269662 -0.608496 5.455559
v 0.269115 -0.609442 5.456059
v 0.270456 -0.608816 5.456988
v 0.270193 -0.608641 5.454969
v 0.270052 -0.608673 5.455201
v 0.269674 -0.608130 5.455532
v 0.270145 -0.609455 5.457061
v 0.270868 -0.609746 5.456576
v 0.270763 -0.609165 5.455553
vn -0.4172 0.8972 0.1446
vn -0.6792 0.2870 0.6756
vn -0.3005 0.6194 0.7253
vn -0.7513 -0.2620 0.6057
vn -0.3051 -0.6804 0.6663
vn -0.7620 0.4607 0.4550
vn -0.4763 -0.7977 0.3699
vn 0.4499 0.8379 -0.3092
vn -0.3118 0.9379 0.1523
vn 0.3642 0.8025 -0.4726
vn 0.0186 0.9880 -0.1535
vn -0.3153 -0.1570 0.9359
vn -0.3487 0.8204 0.4532
vn -0.4866 0.3737 -0.7897
vn -0.7574 -0.6334 -0.1585
vn -0.9618 0.2716 0.0345
vn -0.4618 0.8788 -0.1205
vn 0.1127 -0.9936 0.0125
vn 0.8967 -0.0031 -0.4427
vn 0.6116 -0.5966 -0.5196
vn 0.7835 -0.5248 -0.3327
vn 0.7702 -0.0148 -0.6377
vn 0.4485 0.2920 -0.8448
vn 0.2029 -0.9789 0.0239
vn 0.2117 -0.6050 -0.7676
vn -0.2283 0.0599 0.9717
vn -0.1288 -0.7537 0.6445
vn 0.1200 0.9145 -0.3863
vn 0.3769 0.4839 -0.7898
vn -0.3241 -0.2880 -0.9011
vn 0.1321 -0.8529 -0.5051
vn 0.8816 0.0837 -0.4645
vn 0.1671 0.7720 -0.6132
vn 0.1416 -0.9862 -0.0857
vn 0.4937 -0.3185 -0.8092
vn 0.7785 -0.5120 -0.3630
vn 0.9042 -0.2092 -0.3723
vn 0.4122 -0.3711 -0.8321
vn -0.4204 0.8435 0.3343
vn -0.5802 0.3737 0.7236
vn -0.4395 0.5286 0.7262
vn -0.2775 -0.2382 0.9307
vn -0.4149 -0.3587 0.8362
vn 0.5619 0.2764 -0.7796
vn 0.1823 0.8903 -0.4173
vn 0.5101 -0.8009 -0.3137
vn -0.6010 -0.1182 0.7904
vn -0.2706 -0.8166 0.5099
vn -0.3770 0.9262 -0.0055
vn -0.5739 -0.4229 0.7012
vn 0.1385 -0.8512 0.5062
vn -0.5488 0.5298 0.6466
vn -0.1145 0.7777 -0.6181
vn -0.6010 0.4510 0.6599
vn -0.3205 0.8098 -0.4915
vn 0.4855 0.5927 -0.6426
vn 0.7015 -0.4876 -0.5198
vn 0.7486 -0.6078 -0.2648
vn 0.0769 -0.5961 0.7992
vn -0.5887 0.8054 -0.0699
vn -0.6009 0.7954 -0.0794
vn -0.8017 0.3366 0.4939
vn -0.6121 0.7872 -0.0751
vn -0.4289 -0.2384 0.8713
vn -0.5990 -0.1298 0.7902
vn 0.2007 -0.6856 0.6998
vn -0.6830 0.5575 0.4719
vn -0.2752 -0.1029 0.9559
vn -0.4964 -0.1153 0.8604
vn 0.1245 -0.5229 0.8433
vn -0.4948 0.5589 0.6655
vn 0.6367 -0.0169 -0.7709
vn -0.1780 0.7747 -0.6068
vn 0.8168 -0.5480 -0.1802
vn -0.5757 0.7908 -0.2077
vn 0.3713 -0.7892 0.4892
vn 0.7186 -0.3625 -0.5935
vn 0.7506 -0.6522 -0.1061
vn 0.3745 0.0560 -0.9255
vn 0.3610 -0.7755 0.5179
vn 0.2304 -0.7228 0.6516
vn -0.4745 0.8593 -0.1909
vn -0.6318 0.6990 0.3348
vn 0.3695 -0.2311 -0.9000
vn 0.2540 -0.8866 -0.3864
vn 0.6364 -0.6101 -0.4719
vn -0.2859 0.4408 0.8508
vn 0.0819 -0.3528 0.9321
vn 0.5879 -0.8064 -0.0647
vn -0.3305 0.6750 -0.6597
vn -0.6778 0.5943 -0.4329
vn 0.5637 -0.6513 -0.5080
vn 0.0511 -0.0901 -0.9946
vn 0.5609 -0.5553 0.6140
vn -0.7452 0.6236 0.2361
vn -0.3793 0.2338 0.8953
vn -0.2873 0.3092 0.9066
vn 0.5163 -0.6883 0.5095
vn 0.4728 -0.8648 0.1690
vn 0.6284 -0.7757 0.0585
vn 0.6791 -0.4409 0.5869
vn 0.6343 -0.5945 0.4942
vn -0.5855 0.5597 -0.5864
vn 0.1721 -0.0171 -0.9849
vn 0.7738 -0.5723 -0.2717
vn 0.9455 0.1305 -0.2984
vn -0.7606 0.6022 -0.2427
vn -0.7772 0.5965 0.2002
vn -0.5994 0.4877 0.6347
vn 0.1925 0.8182 0.5417
vn 0.0607 0.1209 0.9908
vn 0.3089 0.0403 0.9502
vn -0.5677 0.6405 0.5171
vn -0.6472 0.6248 0.4368
vn -0.6492 0.5706 0.5030
vn 0.6858 0.7161 0.1298
vn 0.6078 0.6948 0.3844
vn 0.9773 0.1996 -0.0706
vn 0.6132 0.6934 -0.3783
vn -0.2086 0.3307 -0.9204
s 1
f 3//1 2//2 4//3
f 5//4 6//5 2//2
f 1//6 10//7 5//4
f 11//8 9//9 12//10
f 2//2 1//6 5//4
f 2//2 3//1 1//6
f 9//9 3//1 12//10
f 1//6 3//1 9//9
f 6//5 5//4 10//7
f 12//10 3//1 14//11
f 2//2 7//12 4//3
f 3//1 4//3 14//11
f 7//12 2//2 6//5
f 15//13 14//11 4//3
f 17//14 16//15 8//16
f 1//6 18//17 8//16
f 16//15 10//7 8//16
f 13//18 10//7 16//15
f 18//17 1//6 9//9
f 8//16 10//7 1//6
f 19//19 11//8 12//10
f 21//20 10//7 13//18
f 13//18 22//21 21//20
f 20//22 22//21 19//19
f 20//22 19//19 12//10
f 23//23 20//22 12//10
f 21//20 24//24 10//7
f 22//21 20//22 21//20
f 23//23 12//10 14//11
f 20//22 23//23 21//20
f 24//24 6//5 10//7
f 25//25 24//24 21//20
f 25//25 21//20 23//23
f 7//12 27//26 4//3
f 27//26 7//12 26//27
f 7//12 6//5 26//27
f 18//17 17//14 8//16
f 17//14 18//17 28//28
f 30//29 17//14 28//28
f 17//14 29//30 16//15
f 29//30 31//31 16//15
f 28//28 18//17 9//9
f 16//15 31//31 13//18
f 9//9 11//8 28//28
f 11//8 19//19 32//32
f 33//33 14//11 15//13
f 24//24 34//34 6//5
f 4//3 27//26 15//13
f 17//14 30//29 29//30
f 30//29 35//35 29//30
f 35//35 31//31 29//30
f 28//28 11//8 30//29
f 11//8 32//32 30//29
f 30//29 32//32 35//35
f 35//35 36//36 31//31
f 31//31 36//36 13//18
f 35//35 37//37 36//36
f 35//35 32//32 37//37
f 22//21 13//18 36//36
f 37//37 19//19 22//21
f 19//19 37//37 32//32
f 25//25 34//34 24//24
f 14//11 33//33 23//23
f 38//38 23//23 33//33
f 25//25 23//23 38//38
f 34//34 25//25 38//38
f 6//5 34//34 26//27
f 40//39 33//33 15//13
f 15//13 41//40 42//41
f 15//13 39//42 40//39
f 42//41 40//39 39//42
f 15//13 27//26 41//40
f 27//26 26//27 43//43
f 26//27 41//40 43//43
f 38//38 33//33 44//44
f 33//33 40//39 46//45
f 33//33 46//45 44//44
f 38//38 45//46 34//34
f 45//46 26//27 34//34
f 42//41 41//40 40//39
f 41//40 48//47 40//39
f 47//48 41//40 26//27
f 49//49 46//45 40//39
f 48//47 49//49 40//39
f 41//40 47//48 50//50
f 51//51 47//48 26//27
f 50//50 48//47 41//40
f 47//48 51//51 48//47
f 48//47 52//52 49//49
f 53//53 49//49 52//52
f 52//52 54//54 55//55
f 48//47 51//51 52//52
f 44//44 45//46 38//38
f 56//56 44//44 46//45
f 51//51 26//27 45//46
f 56//56 46//45 49//49
f 44//44 57//57 45//46
f 44//44 56//56 57//57
f 45//46 57//57 51//51
f 53//53 56//56 49//49
f 57//57 56//56 53//53
f 53//53 52//52 55//55
f 51//51 57//57 58//58
f 51//51 59//59 52//52
f 54//54 52//52 59//59
f 54//54 60//60 55//55
f 62//61 60//60 54//54
f 62//61 54//54 59//59
f 62//61 59//59 63//62
f 64//63 62//61 63//62
f 65//64 66//65 61//66
f 67//67 62//61 64//63
f 64//63 68//68 67//67
f 66//65 65//64 69//69
f 65//64 68//68 69//69
f 68//68 65//64 70//70
f 68//68 72//71 67//67
f 53//53 73//72 57//57
f 51//51 58//58 59//59
f 57//57 73//72 58//58
f 53//53 55//55 74//73
f 58//58 61//66 59//59
f 55//55 62//61 74//73
f 61//66 66//65 59//59
f 58//58 75//74 61//66
f 74//73 62//61 76//75
f 75//74 77//76 61//66
f 79//77 75//74 58//58
f 77//76 75//74 80//78
f 58//58 73//72 81//79
f 76//75 62//61 67//67
f 58//58 81//79 79//77
f 77//76 78//80 61//66
f 61//66 78//80 82//81
f 80//78 79//77 77//76
f 71//82 83//83 67//67
f 84//84 79//77 81//79
f 77//76 85//85 78//80
f 79//77 86//86 77//76
f 71//82 87//87 83//83
f 87//87 72//71 68//68
f 88//88 68//68 70//70
f 71//82 72//71 87//87
f 78//80 85//85 89//89
f 68//68 88//88 87//87
f 84//84 86//86 79//77
f 86//86 84//84 85//85
f 76//75 67//67 90//90
f 67//67 83//83 90//90
f 83//83 91//91 90//90
f 85//85 94//92 89//89
f 91//91 95//93 90//90
f 95//93 85//85 84//84
f 95//93 94//92 85//85
f 91//91 96//94 95//93
f 98//95 91//91 83//83
f 87//87 99//96 83//83
f 87//87 97//97 99//96
f 92//98 93//99 97//100
f 98//95 99//96 97//97
f 118//101 97//100 102//102
f 93//99 102//102 97//100
f 94//92 102//102 93//99
f 91//91 98//95 103//103
f 95//93 96//94 114//104
f 102//102 94//92 104//105
f 95//93 114//104 94//92
f 94//92 114//104 119//106
f 94//92 119//106 104//105
f 106//107 98//95 105//108
f 105//108 98//95 107//109
f 108//110 109//111 110//112
f 110//112 109//111 97//100
f 112//113 113//114 111//115
f 119//106 116//116 117//117
f 118//118 119//106 117//117
f 116//116 119//106 115//119
f 103//103 98//95 106//107
f 98//95 97//97 107//109
f 110//112 97//100 118//101
f 96//94 106//120 114//104
f 104//105 119//106 118//118
l 100 101
