# Blender v2.78 (sub 0) OBJ File: 'exporter.blend'
# www.blender.org
o FJ3085.obj_grp1.1727
v -0.136126 -0.812544 5.379835
v -0.133792 -0.810653 5.377860
v -0.131771 -0.828356 5.351615
v -0.136964 -0.814298 5.378961
v -0.133387 -0.830373 5.352145
v -0.134096 -0.832405 5.354512
v -0.136676 -0.815474 5.382465
v -0.136908 -0.817496 5.381207
v -0.135938 -0.818854 5.382891
v -0.134849 -0.812248 5.382974
v -0.131058 -0.809796 5.381313
v -0.131745 -0.810512 5.376791
v -0.130080 -0.809761 5.378901
v -0.134359 -0.814869 5.385132
v -0.131404 -0.811159 5.384006
v -0.131133 -0.813725 5.385829
v -0.133764 -0.817967 5.385283
v -0.130208 -0.821067 5.360933
v -0.132370 -0.833219 5.361244
v -0.134463 -0.820347 5.383231
v -0.126545 -0.826044 5.353468
v -0.127502 -0.811732 5.376236
v -0.127863 -0.810290 5.379813
v -0.131739 -0.819813 5.385160
v -0.131863 -0.822074 5.382583
v -0.128287 -0.811402 5.383421
v -0.125977 -0.812728 5.382738
v -0.131518 -0.817070 5.386204
v -0.129274 -0.817501 5.386097
v -0.128984 -0.820493 5.384514
v -0.127615 -0.814589 5.385440
v -0.125498 -0.812107 5.379429
v -0.124357 -0.815628 5.381712
v -0.126237 -0.818832 5.384032
v -0.123641 -0.831379 5.348047
v -0.129622 -0.831601 5.366547
v -0.124096 -0.816171 5.378012
v -0.123966 -0.830182 5.363797
v -0.126469 -0.833952 5.361656
v -0.127798 -0.833682 5.339244
v -0.131486 -0.840510 5.328881
v -0.129393 -0.840024 5.326040
v -0.132900 -0.841333 5.334680
v -0.131738 -0.846488 5.330543
v -0.129788 -0.845729 5.337045
v -0.122566 -0.832754 5.352870
v -0.125592 -0.837551 5.332516
v -0.124079 -0.840385 5.329305
v -0.127943 -0.841302 5.348210
v -0.124664 -0.840162 5.348232
v -0.133174 -0.847018 5.317252
v -0.122906 -0.842854 5.330208
v -0.123297 -0.840380 5.344339
v -0.130652 -0.845875 5.306623
v -0.131723 -0.852515 5.312575
v -0.134395 -0.854937 5.291872
v -0.127194 -0.845461 5.310311
v -0.128630 -0.850022 5.325615
v -0.126011 -0.847109 5.333561
v -0.123320 -0.844280 5.334420
v -0.136158 -0.855234 5.276399
v -0.133078 -0.849794 5.289152
v -0.126308 -0.850718 5.321769
v -0.123886 -0.847983 5.321608
v -0.134840 -0.851731 5.281037
v -0.130527 -0.849391 5.289760
v -0.132162 -0.856675 5.291251
v -0.129869 -0.854747 5.305387
v -0.126998 -0.853197 5.309671
v -0.126653 -0.849653 5.300622
v -0.138121 -0.855995 5.242572
v -0.134816 -0.857516 5.273248
v -0.132729 -0.851606 5.272106
v -0.130721 -0.853363 5.269330
v -0.129691 -0.856355 5.290688
v -0.126031 -0.851858 5.301857
v -0.127923 -0.854756 5.292572
v -0.137895 -0.856961 5.242111
v -0.136566 -0.853991 5.242648
v -0.132680 -0.858054 5.267231
v -0.133700 -0.856380 5.242506
v -0.134122 -0.857626 5.243213
v -0.136635 -0.856032 5.240930
v -0.136961 -0.857912 5.241912
v -0.134729 -0.854615 5.241595
v -0.137340 -0.854992 5.241728
v -0.135327 -0.854007 5.242489
v -0.134498 -0.856401 5.241259
v -0.135422 -0.858177 5.242001
vn -0.5011 0.8331 -0.2342
vn -0.9420 0.3024 -0.1458
vn -0.8050 0.5932 0.0047
vn -0.6573 0.6262 -0.4192
vn -0.8927 0.3741 -0.2514
vn -0.9849 -0.1717 -0.0199
vn -0.9749 -0.1760 0.1363
vn -0.8972 0.1116 0.4273
vn -0.7924 -0.3667 0.4876
vn -0.6175 0.6310 0.4695
vn -0.0907 0.9646 0.2475
vn 0.0936 0.9796 -0.1780
vn -0.5405 0.2087 0.8151
vn -0.1045 0.7421 0.6621
vn -0.0549 0.3790 0.9238
vn -0.5030 -0.2748 0.8194
vn -0.1136 0.8942 -0.4330
vn -0.1458 0.8218 -0.5508
vn -0.6338 -0.7096 0.3078
vn -0.5400 -0.6451 0.5406
vn 0.3552 0.8078 -0.4704
vn 0.4292 0.8018 -0.4158
vn 0.4303 0.9022 0.0303
vn -0.1425 -0.5597 0.8163
vn -0.1768 -0.8139 0.5535
vn 0.3572 0.7327 0.5793
vn 0.7089 0.5295 0.4658
vn -0.1051 -0.0979 0.9896
vn 0.2332 -0.1677 0.9579
vn 0.2829 -0.6584 0.6975
vn 0.4645 0.2460 0.8507
vn 0.7914 0.6095 -0.0476
vn 0.9427 0.0770 0.3246
vn 0.7010 -0.3761 0.6059
vn 0.8294 0.4958 -0.2574
vn 0.9840 0.1758 -0.0296
vn 0.3911 -0.8024 0.4507
vn -0.0860 0.8794 -0.4682
vn -0.0895 -0.8729 0.4796
vn -0.7686 0.5657 -0.2986
vn -0.2534 0.8964 -0.3637
vn -0.9918 0.0417 -0.1209
vn -0.8126 -0.5535 0.1823
vn -0.3490 -0.8724 0.3423
vn 0.9997 -0.0144 0.0191
vn 0.8330 -0.4488 0.3236
vn 0.3644 0.8298 -0.4226
vn 0.7635 0.5859 -0.2719
vn -0.0193 -0.9034 0.4283
vn 0.5572 -0.7453 0.3661
vn 0.9922 0.0773 -0.0973
vn 0.8707 -0.4605 0.1728
vn -0.3162 0.9292 -0.1914
vn -0.9818 0.1823 -0.0540
vn -0.8165 -0.5603 0.1389
vn -0.5967 -0.7753 0.2069
vn -0.1529 -0.9465 0.2840
vn 0.3935 0.8644 -0.3131
vn 0.3700 -0.8790 0.3008
vn 0.8704 -0.4697 0.1474
vn -0.3010 0.9445 -0.1317
vn 0.4571 -0.8713 0.1784
vn 0.9367 -0.3499 0.0096
vn -0.7918 0.6080 -0.0573
vn -0.9820 -0.1830 0.0471
vn 0.2626 0.9392 -0.2214
vn -0.0175 -0.9889 0.1479
vn -0.2282 -0.9678 0.1061
vn 0.5986 -0.7951 0.0973
vn 0.8668 0.4413 -0.2321
vn -0.5060 -0.8603 0.0613
vn 0.1230 0.9842 -0.1273
vn 0.7201 0.6807 -0.1344
vn 0.4279 -0.9036 0.0217
vn 0.8241 -0.5650 -0.0403
vn 0.9772 -0.1865 -0.1018
vn -0.9614 0.2045 -0.1839
vn -0.8432 -0.3367 -0.4191
vn -0.3856 -0.7782 -0.4957
vn 0.3172 -0.9481 -0.0243
vn -0.4277 0.8622 -0.2714
vn 0.9366 -0.0501 -0.3467
vn 0.6917 -0.6983 -0.1840
vn 0.4638 0.6476 -0.6045
vn -0.6080 0.5427 -0.5795
vn 0.2329 0.9192 -0.3177
vn -0.2218 0.0535 -0.9736
vn 0.5787 -0.1658 -0.7985
vn 0.2269 -0.8561 -0.4644
s 1
f 2//1 4//2 1//3
f 3//4 4//2 2//1
f 5//5 6//6 4//2
f 4//2 8//7 7//8
f 6//6 8//7 4//2
f 8//7 6//6 9//9
f 2//1 1//3 10//10
f 2//1 10//10 11//11
f 11//11 13//12 2//1
f 1//3 4//2 7//8
f 10//10 1//3 7//8
f 7//8 8//7 9//9
f 7//8 9//9 14//13
f 10//10 15//14 11//11
f 10//10 7//8 14//13
f 14//13 15//14 10//10
f 16//15 15//14 14//13
f 14//13 9//9 17//16
f 12//17 18//18 2//1
f 18//18 3//4 2//1
f 19//19 20//20 9//9
f 21//21 12//17 22//22
f 22//22 12//17 13//12
f 23//23 22//22 13//12
f 2//1 13//12 12//17
f 17//16 9//9 20//20
f 20//20 24//24 17//16
f 25//25 24//24 20//20
f 25//25 20//20 19//19
f 11//11 15//14 26//26
f 23//23 13//12 11//11
f 11//11 26//26 23//23
f 27//27 23//23 26//26
f 14//13 17//16 28//28
f 14//13 28//28 16//15
f 28//28 24//24 29//29
f 24//24 30//30 29//29
f 17//16 24//24 28//28
f 15//14 16//15 31//31
f 26//26 15//14 31//31
f 31//31 16//15 29//29
f 29//29 16//15 28//28
f 3//4 5//5 4//2
f 21//21 18//18 12//17
f 27//27 32//32 23//23
f 23//23 32//32 22//22
f 32//32 27//27 33//33
f 33//33 27//27 31//31
f 34//34 29//29 30//30
f 25//25 30//30 24//24
f 27//27 26//26 31//31
f 31//31 29//29 34//34
f 34//34 33//33 31//31
f 6//6 19//19 9//9
f 32//32 35//35 22//22
f 32//32 33//33 37//36
f 39//37 34//34 30//30
f 40//38 3//4 18//18
f 21//21 40//38 18//18
f 36//39 25//25 19//19
f 36//39 30//30 25//25
f 3//4 41//40 5//5
f 41//40 3//4 42//41
f 3//4 40//38 42//41
f 5//5 43//42 6//6
f 19//19 6//6 44//43
f 44//43 45//44 19//19
f 35//35 21//21 22//22
f 33//33 46//45 37//36
f 46//45 33//33 38//46
f 36//39 39//37 30//30
f 34//34 39//37 38//46
f 38//46 33//33 34//34
f 43//42 5//5 41//40
f 40//38 21//21 47//47
f 35//35 48//48 21//21
f 39//37 36//39 49//49
f 49//49 36//39 19//19
f 37//36 35//35 32//32
f 39//37 50//50 38//46
f 47//47 42//41 40//38
f 6//6 43//42 44//43
f 49//49 19//19 45//44
f 48//48 47//47 21//21
f 46//45 52//51 35//35
f 38//46 53//52 46//45
f 50//50 53//52 38//46
f 49//49 50//50 39//37
f 35//35 37//36 46//45
f 42//41 54//53 41//40
f 51//54 43//42 41//40
f 44//43 56//55 55//56
f 51//54 44//43 43//42
f 56//55 44//43 51//54
f 44//43 55//56 45//44
f 58//57 45//44 55//56
f 57//58 42//41 47//47
f 45//44 59//59 49//49
f 59//59 45//44 58//57
f 59//59 50//50 49//49
f 60//60 46//45 53//52
f 54//53 62//61 51//54
f 54//53 51//54 41//40
f 54//53 42//41 57//58
f 48//48 57//58 47//47
f 58//57 63//62 59//59
f 35//35 52//51 48//48
f 64//63 52//51 60//60
f 53//52 59//59 60//60
f 60//60 59//59 63//62
f 52//51 46//45 60//60
f 53//52 50//50 59//59
f 62//61 65//64 51//54
f 65//64 61//65 51//54
f 66//66 62//61 54//53
f 61//65 56//55 51//54
f 68//67 55//56 67//68
f 55//56 56//55 67//68
f 68//67 58//57 55//56
f 68//67 63//62 58//57
f 68//67 69//69 63//62
f 69//69 64//63 63//62
f 57//58 48//48 70//70
f 48//48 52//51 70//70
f 64//63 60//60 63//62
f 56//55 61//65 72//71
f 73//72 65//64 62//61
f 73//72 62//61 66//66
f 72//71 67//68 56//55
f 74//73 66//66 70//70
f 66//66 57//58 70//70
f 66//66 54//53 57//58
f 68//67 67//68 75//74
f 69//69 75//74 77//75
f 69//69 68//67 75//74
f 76//76 69//69 77//75
f 52//51 76//76 70//70
f 52//51 64//63 76//76
f 76//76 64//63 69//69
f 71//77 78//78 61//65
f 71//77 61//65 65//64
f 78//78 72//71 61//65
f 72//71 84//79 80//80
f 65//64 73//72 79//81
f 81//82 74//73 76//76
f 81//82 76//76 77//75
f 72//71 80//80 67//68
f 66//66 74//73 73//72
f 77//75 75//74 80//80
f 82//83 77//75 80//80
f 75//74 67//68 80//80
f 74//73 70//70 76//76
f 79//81 85//84 86//85
f 87//86 85//84 79//81
f 79//81 86//85 71//77
f 79//81 71//77 65//64
f 86//85 78//78 71//77
f 86//85 83//87 78//78
f 83//87 84//79 78//78
f 83//87 86//85 85//84
f 88//88 83//87 85//84
f 88//88 89//89 83//87
f 83//87 89//89 84//79
f 78//78 84//79 72//71
f 79//81 73//72 87//86
f 87//86 73//72 85//84
f 89//89 82//83 80//80
f 73//72 74//73 85//84
f 82//83 81//82 77//75
f 80//80 84//79 89//89
f 88//88 82//83 89//89
f 81//82 88//88 85//84
f 81//82 85//84 74//73
f 82//83 88//88 81//82
