# Blender v2.78 (sub 0) OBJ File: 'exporter.blend'
# www.blender.org
o FJ3059.obj_grp1.1701
v -0.534370 -0.285673 5.464030
v -0.534498 -0.289243 5.461887
v -0.531385 -0.284297 5.460412
v -0.532806 -0.287455 5.459007
v -0.531121 -0.282920 5.464251
v -0.532694 -0.286165 5.459426
v -0.531326 -0.284726 5.460645
v -0.531473 -0.291521 5.461922
v -0.527529 -0.288675 5.459537
v -0.531385 -0.284297 5.460412
v -0.529771 -0.285614 5.458178
v -0.486937 -0.300698 5.518768
v -0.485436 -0.289899 5.513510
v -0.505503 -0.289139 5.486984
v -0.512224 -0.290900 5.494170
v -0.494604 -0.299255 5.506505
v -0.495034 -0.296522 5.500350
v -0.494822 -0.299202 5.506292
v -0.472975 -0.292567 5.531631
v -0.479216 -0.297289 5.531104
v -0.480457 -0.295745 5.513039
v -0.472462 -0.303383 5.525761
v -0.472462 -0.303383 5.525761
v -0.472093 -0.297916 5.520982
v -0.450666 -0.299813 5.540044
v -0.458743 -0.300343 5.548061
v -0.448126 -0.307574 5.555069
v -0.443081 -0.307298 5.546042
v -0.433835 -0.313053 5.561021
v -0.425797 -0.300975 5.562629
v -0.432817 -0.307261 5.568356
v -0.425109 -0.303233 5.569411
v -0.432715 -0.307119 5.567450
v -0.407394 -0.310075 5.566839
v -0.407394 -0.310075 5.566839
v -0.404671 -0.315973 5.570224
v -0.418065 -0.308641 5.576416
v -0.390630 -0.322627 5.581834
v -0.354161 -0.330278 5.607028
v -0.418065 -0.308641 5.576416
v -0.387789 -0.314448 5.592916
v -0.384957 -0.316141 5.578294
v -0.370021 -0.312153 5.594251
v -0.389920 -0.322947 5.582197
v -0.385546 -0.315818 5.577597
v -0.355535 -0.322862 5.609471
v -0.347688 -0.323158 5.595125
v -0.345698 -0.329573 5.596925
v -0.361352 -0.329758 5.595640
v -0.205409 -0.349836 5.665381
v -0.234940 -0.358587 5.655385
v -0.232590 -0.342135 5.644361
v -0.230094 -0.348300 5.658672
v -0.230522 -0.353729 5.660266
v -0.219985 -0.365658 5.653707
v -0.223602 -0.351706 5.641505
v -0.212624 -0.361435 5.647808
v -0.193934 -0.368775 5.677586
v -0.189041 -0.360121 5.681670
v -0.183365 -0.360794 5.661782
v -0.169514 -0.358824 5.675128
v -0.172140 -0.374137 5.671127
v -0.193934 -0.368775 5.677586
v -0.140042 -0.387722 5.702847
v -0.139966 -0.366926 5.707906
v -0.139569 -0.372236 5.692153
v -0.137809 -0.381762 5.695294
v -0.147910 -0.373995 5.712811
v -0.145122 -0.382602 5.712873
v -0.133335 -0.370226 5.702760
v -0.137379 -0.372427 5.713142
v -0.140582 -0.376944 5.715169
v -0.139917 -0.386405 5.709421
v -0.132408 -0.377947 5.709468
v -0.131826 -0.377320 5.701217
v -0.133212 -0.382755 5.705423
vn -0.3839 0.1035 -0.9176
vn -0.9242 0.3196 0.2091
vn -0.7038 0.6223 -0.3427
vn -0.9051 -0.4073 -0.1220
vn -0.1925 0.9809 0.0278
vn 0.5041 0.2393 -0.8299
vn 0.2183 0.3585 -0.9076
vn -0.2669 -0.9102 -0.3167
vn 0.5329 -0.2019 -0.8218
vn 0.5811 0.6956 -0.4225
vn 0.2382 0.9209 -0.3087
vn -0.4677 -0.8269 0.3123
vn 0.3631 0.9144 -0.1789
vn 0.7430 0.3227 -0.5863
vn -0.7570 0.0895 0.6473
vn 0.1475 -0.8909 -0.4295
vn 0.4814 -0.6426 -0.5961
vn -0.2187 -0.9710 0.0962
vn -0.1872 0.8907 0.4142
vn -0.6772 -0.0048 0.7358
vn 0.6299 0.5691 -0.5286
vn 0.3211 -0.7389 -0.5924
vn -0.1315 -0.9820 -0.1355
vn 0.5832 -0.4305 -0.6889
vn 0.6341 0.2842 -0.7191
vn -0.5734 -0.5644 0.5938
vn -0.5614 0.2922 0.7743
vn 0.3771 -0.5644 -0.7343
vn -0.2756 -0.9463 0.1690
vn 0.2788 0.9504 -0.1376
vn -0.4782 -0.6532 0.5871
vn -0.2598 0.7280 0.6344
vn -0.4437 0.4723 0.7616
vn 0.4449 -0.3079 -0.8410
vn 0.3462 -0.4932 -0.7980
vn -0.2908 -0.9561 0.0364
vn -0.3450 0.5318 0.7734
vn 0.4887 0.6240 -0.6098
vn -0.3964 -0.7338 0.5517
vn -0.4472 0.3254 0.8332
vn 0.3810 -0.1253 -0.9161
vn 0.0144 -0.8406 -0.5414
vn -0.4596 0.0318 0.8876
vn 0.4588 0.7084 -0.5364
vn 0.1720 0.9807 0.0928
vn -0.3483 0.2497 0.9035
vn 0.2212 -0.5245 -0.8222
vn 0.3069 -0.4810 -0.8212
vn -0.1192 -0.9689 -0.2167
vn 0.3773 0.8666 -0.3265
vn 0.0104 0.9014 0.4328
vn -0.2482 0.4770 0.8431
vn -0.4637 -0.0625 0.8838
vn -0.4338 -0.6703 0.6021
vn -0.1775 -0.9770 -0.1181
vn 0.4329 0.2098 -0.8767
vn 0.2758 -0.5269 -0.8040
vn -0.5465 -0.1710 0.8198
vn 0.5239 0.2342 -0.8189
vn 0.4848 0.7898 -0.3757
vn 0.3295 -0.6352 -0.6985
vn -0.4571 0.3156 0.8315
vn -0.5541 -0.6545 0.5144
vn 0.1782 -0.9806 -0.0810
vn 0.2341 0.8762 0.4212
vn 0.6693 0.2781 -0.6890
vn 0.5686 -0.4829 -0.6660
vn 0.1637 -0.8616 0.4804
vn -0.4192 0.2519 0.8723
vn -0.2882 -0.5647 0.7733
vn 0.7893 0.6109 -0.0615
vn 0.4226 0.4532 0.7849
vn 0.1357 -0.0612 0.9889
vn 0.8659 -0.0946 0.4912
vn 0.9509 -0.0692 -0.3017
vn 0.8084 -0.5815 0.0911
s 1
f 4//1 1//2 3//3
f 2//4 1//2 4//1
f 1//2 5//5 3//3
f 4//1 6//6 7//7
f 4//1 8//8 2//4
f 7//7 9//9 4//1
f 8//8 4//1 9//9
f 5//5 11//10 10//11
f 8//8 12//12 2//4
f 5//5 13//13 11//10
f 11//10 14//14 9//9
f 13//13 14//14 11//10
f 1//2 15//15 5//5
f 9//9 16//16 8//8
f 1//2 2//4 15//15
f 12//12 15//15 2//4
f 16//16 9//9 17//17
f 18//18 12//12 8//8
f 14//14 17//17 9//9
f 19//19 5//5 15//15
f 5//5 19//19 13//13
f 20//20 15//15 12//12
f 19//19 15//15 20//20
f 13//13 21//21 14//14
f 17//17 22//22 16//16
f 23//23 12//12 18//18
f 17//17 14//14 24//24
f 21//21 13//13 25//25
f 24//24 22//22 17//17
f 25//25 24//24 21//21
f 12//12 27//26 20//20
f 19//19 20//20 26//27
f 24//24 28//28 22//22
f 29//29 12//12 23//23
f 29//29 27//26 12//12
f 29//29 22//22 28//28
f 28//28 24//24 25//25
f 30//30 13//13 19//19
f 26//27 27//26 31//31
f 19//19 26//27 32//32
f 33//33 32//32 26//27
f 30//30 19//19 32//32
f 30//30 25//25 13//13
f 26//27 20//20 27//26
f 25//25 34//34 28//28
f 36//35 28//28 34//34
f 27//26 29//29 31//31
f 28//28 38//36 29//29
f 38//36 28//28 36//35
f 32//32 33//33 37//37
f 35//38 25//25 30//30
f 39//39 29//29 38//36
f 41//40 32//32 37//37
f 34//34 42//41 36//35
f 38//36 36//35 44//42
f 40//43 31//31 41//40
f 35//38 30//30 45//44
f 32//32 41//40 43//45
f 30//30 32//32 43//45
f 39//39 31//31 29//29
f 46//46 41//40 31//31
f 31//31 39//39 46//46
f 36//35 48//47 44//42
f 42//41 48//47 36//35
f 47//48 48//47 42//41
f 41//40 46//46 43//45
f 49//49 39//39 38//36
f 30//30 43//45 45//44
f 45//44 52//50 47//48
f 43//45 52//50 45//44
f 49//49 44//42 48//47
f 50//51 43//45 46//46
f 52//50 43//45 50//51
f 46//46 53//52 50//51
f 46//46 54//53 53//52
f 54//53 39//39 51//54
f 46//46 39//39 54//53
f 55//55 39//39 49//49
f 56//56 48//47 47//48
f 47//48 52//50 56//56
f 51//54 39//39 55//55
f 48//47 56//56 57//57
f 48//47 57//57 55//55
f 55//55 49//49 48//47
f 54//53 51//54 58//58
f 52//50 60//59 56//56
f 61//60 60//59 52//50
f 55//55 57//57 62//61
f 53//52 54//53 59//62
f 51//54 55//55 63//63
f 60//59 57//57 56//56
f 55//55 62//61 64//64
f 50//51 53//52 59//62
f 50//51 59//62 65//65
f 59//62 54//53 58//58
f 60//59 62//61 57//57
f 52//50 50//51 65//65
f 66//66 62//61 60//59
f 62//61 67//67 64//64
f 55//55 64//64 73//68
f 66//66 60//59 61//60
f 66//66 67//67 62//61
f 65//65 59//62 68//69
f 68//69 59//62 58//58
f 69//70 63//63 55//55
f 69//70 55//55 73//68
f 58//58 69//70 68//69
f 61//60 70//71 66//66
f 65//65 61//60 52//50
f 70//71 61//60 65//65
f 71//72 65//65 68//69
f 71//72 68//69 72//73
f 68//69 69//70 72//73
f 72//73 69//70 73//68
f 73//68 74//74 72//73
f 66//66 75//75 67//67
f 67//67 75//75 76//76
f 66//66 70//71 75//75
f 75//75 74//74 76//76
f 75//75 70//71 74//74
f 67//67 76//76 64//64
f 65//65 71//72 70//71
f 71//72 72//73 74//74
f 70//71 71//72 74//74
f 76//76 73//68 64//64
f 76//76 74//74 73//68
