# Blender v2.78 (sub 0) OBJ File: 'exporter.blend'
# www.blender.org
o FJ3050.obj_grp1.1692
v -0.501288 -0.302884 5.704835
v -0.499361 -0.296273 5.703472
v -0.457338 -0.294733 5.696767
v -0.498219 -0.303550 5.703875
v -0.498924 -0.304996 5.709250
v -0.501151 -0.302825 5.705002
v -0.441634 -0.301081 5.705190
v -0.498671 -0.302174 5.712268
v -0.457036 -0.298494 5.709885
v -0.503071 -0.300439 5.707395
v -0.459870 -0.289778 5.700154
v -0.499893 -0.294728 5.707813
v -0.501151 -0.302825 5.705002
v -0.503086 -0.300568 5.707542
v -0.498749 -0.302028 5.712009
v -0.500459 -0.296154 5.711262
v -0.440990 -0.297554 5.696243
v -0.450546 -0.292370 5.709969
v -0.407783 -0.298731 5.698526
v -0.404006 -0.290985 5.711339
v -0.414967 -0.284752 5.703032
v -0.392269 -0.291608 5.696572
v -0.423478 -0.288867 5.696430
v -0.360495 -0.300921 5.705039
v -0.385954 -0.299481 5.708382
v -0.385954 -0.299481 5.708382
v -0.376841 -0.284626 5.702246
v -0.333808 -0.298477 5.704409
v -0.372057 -0.285090 5.711850
v -0.343134 -0.301821 5.717828
v -0.330772 -0.298357 5.722681
v -0.347453 -0.289961 5.702826
v -0.299655 -0.314351 5.718166
v -0.281033 -0.306803 5.713602
v -0.307121 -0.311110 5.724595
v -0.338071 -0.286966 5.710351
v -0.253102 -0.306567 5.737935
v -0.279065 -0.300926 5.716412
v -0.298418 -0.293449 5.721523
v -0.224053 -0.325759 5.751644
v -0.230995 -0.335175 5.728569
v -0.215318 -0.335996 5.728098
v -0.220096 -0.323699 5.727243
v -0.227825 -0.340367 5.738840
v -0.230618 -0.333747 5.748414
v -0.240999 -0.308953 5.734281
v -0.181132 -0.356778 5.740611
v -0.145421 -0.352852 5.734919
v -0.169442 -0.359612 5.755698
v -0.173370 -0.351290 5.760774
v -0.170514 -0.354012 5.732841
v -0.159367 -0.366063 5.739871
v -0.163299 -0.365354 5.749390
v -0.156737 -0.352032 5.764896
v -0.153299 -0.344115 5.760237
v -0.139115 -0.384747 5.743837
v -0.130420 -0.383755 5.733061
v -0.152984 -0.357302 5.732548
v -0.143451 -0.378921 5.758441
v -0.156541 -0.342707 5.738433
v -0.150785 -0.341369 5.748917
v -0.116241 -0.383363 5.731052
v -0.109735 -0.399266 5.743454
v -0.103505 -0.396805 5.735829
v -0.121135 -0.372695 5.731315
v -0.098942 -0.402963 5.756697
v -0.118013 -0.389240 5.764350
v -0.132922 -0.376103 5.767348
v -0.088956 -0.396139 5.737262
v -0.085768 -0.402922 5.742392
v -0.092652 -0.405294 5.747783
v -0.089384 -0.391272 5.737053
v -0.110762 -0.365700 5.739632
v -0.129884 -0.368494 5.768055
v -0.128117 -0.362150 5.765907
v -0.080711 -0.399615 5.744042
v -0.079652 -0.402613 5.750411
v -0.084967 -0.405425 5.755087
v -0.085485 -0.383160 5.746964
v -0.087948 -0.399822 5.763072
v -0.114082 -0.360213 5.753265
v -0.093376 -0.374194 5.751569
v -0.078194 -0.395504 5.747839
v -0.077445 -0.395996 5.753711
v -0.080476 -0.401018 5.757718
v -0.082876 -0.393110 5.761788
v -0.087078 -0.382308 5.759211
v -0.078672 -0.390937 5.756847
vn -0.4612 0.0623 -0.8851
vn -0.4846 0.4630 -0.7421
vn -0.1095 0.0941 -0.9895
vn -0.3307 -0.9009 -0.2812
vn -0.1906 -0.4108 -0.8916
vn 0.0116 -0.9846 0.1745
vn 0.0673 -0.9549 0.2892
vn -0.1739 -0.3305 0.9276
vn 0.0401 -0.4322 0.9009
vn -0.8439 0.3379 -0.4167
vn -0.4866 0.8736 0.0102
vn -0.5183 0.4869 0.7030
vn -0.1289 0.8802 -0.4568
vn -0.7359 -0.6758 0.0413
vn -0.7540 -0.5352 0.3807
vn -0.7904 -0.4626 0.4016
vn -0.8678 -0.2882 0.4049
vn 0.0348 -0.4288 -0.9027
vn -0.0186 0.4173 0.9086
vn 0.0511 -0.7618 -0.6458
vn -0.0812 -0.1403 0.9868
vn -0.0444 0.9990 -0.0050
vn -0.0075 0.5124 -0.8587
vn 0.0905 0.0892 -0.9919
vn -0.0836 -0.9339 0.3477
vn -0.0021 -0.8776 0.4793
vn 0.0876 0.8717 -0.4822
vn 0.0061 -0.9470 -0.3213
vn 0.1259 -0.2453 -0.9612
vn -0.2405 -0.7281 0.6419
vn -0.2368 -0.2431 0.9406
vn -0.0161 0.8458 0.5332
vn 0.1866 0.4754 -0.8597
vn -0.2400 -0.9436 -0.2278
vn 0.2167 0.0878 -0.9723
vn -0.3218 -0.8160 0.4801
vn 0.1947 0.9681 -0.1576
vn 0.3191 0.6924 -0.6471
vn 0.1871 0.9751 0.1192
vn 0.0970 0.8110 0.5769
vn -0.1345 0.2657 0.9546
vn -0.1389 -0.7572 -0.6382
vn 0.0305 -0.3550 -0.9344
vn 0.2743 0.4278 -0.8613
vn -0.3622 -0.5414 0.7588
vn -0.3503 -0.9366 0.0103
vn 0.3611 0.9276 -0.0954
vn -0.3623 -0.9197 -0.1512
vn -0.0217 -0.1334 -0.9908
vn 0.2365 0.4440 -0.8643
vn -0.4863 -0.7589 0.4331
vn -0.3676 -0.4051 0.8371
vn -0.4291 -0.7184 -0.5476
vn -0.0985 -0.5742 -0.8128
vn -0.5586 -0.8288 0.0336
vn -0.0726 0.1772 0.9815
vn 0.2561 0.7453 0.6156
vn -0.3113 -0.5135 -0.7996
vn -0.5270 -0.8319 -0.1741
vn -0.5140 -0.7482 0.4195
vn 0.3468 0.7584 -0.5518
vn 0.3950 0.9183 0.0281
vn -0.3585 -0.9089 -0.2132
vn -0.0562 -0.6228 -0.7803
vn 0.1587 0.2391 -0.9579
vn 0.0495 -0.1392 -0.9890
vn -0.2915 -0.8852 0.3626
vn -0.2234 -0.3328 0.9162
vn 0.3482 -0.2552 -0.9020
vn 0.2959 -0.7639 -0.5735
vn -0.1055 -0.9784 -0.1780
vn 0.5208 0.2264 -0.8231
vn 0.4743 0.6883 -0.5488
vn -0.2726 -0.5942 0.7567
vn 0.1763 -0.4457 0.8777
vn 0.3162 0.5127 0.7982
vn 0.5180 0.8317 0.1998
vn 0.0819 0.1043 0.9912
vn 0.7576 -0.2754 -0.5917
vn 0.7441 -0.6612 -0.0954
vn 0.2266 -0.9362 0.2687
vn 0.7209 0.5952 -0.3552
vn 0.6311 0.7757 0.0099
vn 0.9218 0.1114 -0.3712
vn 0.9886 -0.0545 0.1404
vn 0.6888 -0.4761 0.5466
vn 0.8858 0.3483 0.3065
vn 0.4957 0.1067 0.8619
vn 0.5724 0.5744 0.5852
s 1
f 1//1 2//2 3//3
f 6//4 4//5 5//6
f 7//7 8//8 5//6
f 7//7 9//9 8//8
f 1//1 10//10 2//2
f 12//11 2//2 10//10
f 12//11 10//10 16//12
f 11//13 2//2 12//11
f 13//14 5//15 14//16
f 14//16 5//15 15//17
f 14//16 15//17 16//12
f 16//12 15//17 8//8
f 1//1 3//3 17//18
f 4//5 1//1 17//18
f 18//19 8//8 9//9
f 18//19 16//12 8//8
f 17//18 19//20 4//5
f 19//20 5//6 4//5
f 3//3 2//2 11//13
f 19//20 7//7 5//6
f 20//21 18//19 9//9
f 21//22 11//13 12//11
f 16//12 21//22 12//11
f 18//19 21//22 16//12
f 23//23 17//18 3//3
f 23//23 22//24 17//18
f 19//20 17//18 22//24
f 7//7 19//20 25//25
f 23//23 3//3 11//13
f 21//22 23//23 11//13
f 9//9 7//7 26//26
f 21//22 27//27 23//23
f 24//28 25//25 19//20
f 20//21 9//9 25//25
f 28//29 19//20 22//24
f 19//20 28//29 24//28
f 30//30 20//21 25//25
f 24//28 30//30 25//25
f 31//31 20//21 30//30
f 18//19 29//32 21//22
f 29//32 18//19 20//21
f 27//27 32//33 22//24
f 27//27 22//24 23//23
f 21//22 29//32 27//27
f 28//29 22//24 32//33
f 31//31 29//32 20//21
f 24//28 28//29 33//34
f 34//35 28//29 32//33
f 35//36 30//30 24//28
f 29//32 36//37 27//27
f 33//34 35//36 24//28
f 32//33 36//37 38//38
f 31//31 30//30 35//36
f 36//37 32//33 27//27
f 29//32 39//39 36//37
f 39//39 29//32 37//40
f 38//38 34//35 32//33
f 38//38 36//37 39//39
f 29//32 40//41 37//40
f 28//29 41//42 33//34
f 40//41 29//32 31//31
f 28//29 34//35 42//43
f 34//35 43//44 42//43
f 42//43 41//42 28//29
f 43//44 34//35 38//38
f 45//45 31//31 35//36
f 41//42 44//46 33//34
f 44//46 35//36 33//34
f 38//38 39//39 46//47
f 39//39 37//40 46//47
f 44//46 45//45 35//36
f 46//47 43//44 38//38
f 40//41 31//31 45//45
f 41//42 42//43 47//48
f 58//49 42//43 43//44
f 48//50 58//49 43//44
f 44//46 41//42 47//48
f 49//51 50//52 45//45
f 45//45 44//46 49//51
f 50//52 40//41 45//45
f 47//48 42//43 52//53
f 52//53 42//43 51//54
f 47//48 53//55 49//51
f 44//46 47//48 49//51
f 50//52 54//56 40//41
f 37//40 40//41 55//57
f 57//58 56//59 52//53
f 52//53 51//54 58//49
f 56//59 53//55 52//53
f 56//59 59//60 53//55
f 59//60 49//51 53//55
f 51//54 42//43 58//49
f 60//61 48//50 43//44
f 47//48 52//53 53//55
f 60//61 43//44 46//47
f 60//61 46//47 61//62
f 63//63 56//59 57//58
f 64//64 63//63 57//58
f 65//65 57//58 58//49
f 65//65 62//66 57//58
f 52//53 58//49 57//58
f 63//63 66//67 56//59
f 59//60 56//59 66//67
f 68//68 50//52 59//60
f 50//52 49//51 59//60
f 68//68 54//56 50//52
f 61//62 46//47 37//40
f 55//57 40//41 54//56
f 69//69 70//70 64//64
f 64//64 70//70 71//71
f 64//64 57//58 62//66
f 63//63 64//64 71//71
f 64//64 62//66 69//69
f 69//69 62//66 72//72
f 73//73 65//65 48//50
f 48//50 65//65 58//49
f 73//73 48//50 60//61
f 67//74 59//60 66//67
f 80//75 68//68 67//74
f 61//62 73//73 60//61
f 59//60 67//74 68//68
f 54//56 75//76 55//57
f 81//77 61//62 55//57
f 75//76 81//77 55//57
f 74//78 54//56 68//68
f 75//76 54//56 74//78
f 55//57 61//62 37//40
f 76//79 70//70 69//69
f 72//72 76//79 69//69
f 76//79 77//80 70//70
f 78//81 71//71 70//70
f 72//72 62//66 65//65
f 63//63 71//71 66//67
f 71//71 78//81 66//67
f 78//81 80//75 66//67
f 65//65 73//73 72//72
f 79//82 72//72 73//73
f 80//75 67//74 66//67
f 81//77 82//83 73//73
f 61//62 81//77 73//73
f 80//75 74//78 68//68
f 72//72 79//82 83//84
f 83//84 77//80 76//79
f 72//72 83//84 76//79
f 84//85 77//80 83//84
f 84//85 85//86 77//80
f 84//85 88//87 85//86
f 77//80 78//81 70//70
f 78//81 77//80 85//86
f 85//86 80//75 78//81
f 86//88 80//75 85//86
f 85//86 88//87 86//88
f 82//83 79//82 73//73
f 82//83 81//77 87//89
f 86//88 75//76 80//75
f 75//76 86//88 87//89
f 81//77 75//76 87//89
f 80//75 75//76 74//78
f 83//84 88//87 84//85
f 88//87 83//84 79//82
f 79//82 82//83 88//87
f 88//87 82//83 87//89
f 87//89 86//88 88//87
