# Blender v2.78 (sub 0) OBJ File: 'exporter.blend'
# www.blender.org
o FJ3053.obj_grp1.1695
v -0.229792 -0.525958 6.172226
v -0.232255 -0.530372 6.172258
v -0.231557 -0.528494 6.174136
v -0.227817 -0.534765 6.170478
v -0.231647 -0.530380 6.170734
v -0.228926 -0.531356 6.175563
v -0.227656 -0.530944 6.166648
v -0.231557 -0.528494 6.174136
v -0.226378 -0.526222 6.169864
v -0.227328 -0.526627 6.174809
v -0.231557 -0.528494 6.174136
v -0.229729 -0.526001 6.172258
v -0.191866 -0.537025 6.156121
v -0.201205 -0.531624 6.165044
v -0.226378 -0.526222 6.169864
v -0.229729 -0.526001 6.172258
v -0.190056 -0.545530 6.165011
v -0.190387 -0.540141 6.167823
v -0.186698 -0.534785 6.158406
v -0.195784 -0.544779 6.161366
v -0.180606 -0.542746 6.153473
v -0.181099 -0.546817 6.157236
v -0.180963 -0.546904 6.157202
v -0.177932 -0.537919 6.165537
v -0.147616 -0.547698 6.163116
v -0.144141 -0.544014 6.155139
v -0.142693 -0.547338 6.160349
v -0.142992 -0.535617 6.159435
v -0.143093 -0.538300 6.155826
v -0.138476 -0.541655 6.158298
v -0.139593 -0.543484 6.162777
v -0.144580 -0.541620 6.166014
v -0.143489 -0.536586 6.163337
v -0.138198 -0.541582 6.160944
v -0.137995 -0.541500 6.160979
vn -0.6462 0.5155 -0.5627
vn -0.9515 -0.0595 -0.3017
vn -0.8467 0.4213 -0.3250
vn -0.8695 0.4675 -0.1595
vn -0.4848 -0.8731 -0.0514
vn -0.3581 -0.4302 0.8286
vn -0.4971 -0.0313 -0.8671
vn -0.7694 -0.5498 0.3253
vn 0.0797 0.6607 0.7464
vn -0.3343 0.4744 0.8143
vn -0.2774 0.6146 -0.7384
vn -0.4106 0.7231 0.5555
vn -0.1418 0.3509 -0.9256
vn 0.3218 0.8823 0.3435
vn 0.2329 0.9653 0.1178
vn 0.1395 0.9872 0.0777
vn -0.0043 -0.8472 0.5312
vn 0.1195 -0.0147 0.9927
vn 0.1555 0.9139 -0.3750
vn -0.3371 -0.8448 -0.4156
vn -0.0845 -0.2021 -0.9757
vn -0.4219 -0.6263 -0.6556
vn -0.1421 -0.9132 -0.3819
vn 0.0564 0.7559 0.6522
vn 0.2739 -0.4124 -0.8689
vn 0.0911 -0.8858 0.4550
vn 0.4494 -0.8932 -0.0168
vn 0.4026 0.9047 -0.1395
vn 0.3425 0.4982 -0.7965
vn 0.8762 -0.0026 -0.4819
vn 0.7442 -0.3480 0.5702
vn 0.2761 -0.0091 0.9611
vn 0.3710 0.7105 0.5980
vn 0.7513 0.5423 0.3761
vn 0.7874 -0.6094 -0.0926
s 1
f 1//1 5//2 2//3
f 2//3 3//4 1//1
f 4//5 6//6 5//2
f 1//1 7//7 5//2
f 5//2 6//6 8//8
f 4//5 5//2 7//7
f 10//9 11//10 6//6
f 7//7 1//1 9//11
f 12//12 11//10 10//9
f 7//7 9//11 13//13
f 14//14 15//15 10//9
f 15//15 16//16 10//9
f 4//5 17//17 6//6
f 18//18 10//9 6//6
f 19//19 13//13 9//11
f 19//19 15//15 14//14
f 17//17 18//18 6//6
f 4//5 7//7 20//20
f 18//18 14//14 10//9
f 7//7 21//21 20//20
f 21//21 7//7 13//13
f 22//22 20//20 21//21
f 20//20 23//23 17//17
f 20//20 17//17 4//5
f 24//24 14//14 18//18
f 19//19 14//14 24//24
f 22//22 21//21 23//23
f 23//23 21//21 26//25
f 23//23 25//26 17//17
f 23//23 26//25 27//27
f 27//27 25//26 23//23
f 19//19 24//24 28//28
f 29//29 26//25 21//21
f 26//25 30//30 27//27
f 30//30 26//25 29//29
f 17//17 25//26 18//18
f 31//31 32//32 25//26
f 25//26 32//32 18//18
f 18//18 32//32 24//24
f 32//32 33//33 24//24
f 27//27 31//31 25//26
f 32//32 35//34 33//33
f 28//28 13//13 19//19
f 29//29 21//21 13//13
f 28//28 29//29 13//13
f 30//30 29//29 28//28
f 33//33 28//28 24//24
f 33//33 35//34 28//28
f 31//31 27//27 30//30
f 30//30 34//35 31//31
f 31//31 35//34 32//32
f 28//28 35//34 30//30
