# Blender v2.78 (sub 0) OBJ File: 'exporter.blend'
# www.blender.org
o FJ3023.obj_grp1.1665
v -0.381896 -0.239547 6.055888
v -0.378691 -0.237148 6.057568
v -0.379320 -0.235173 6.055465
v -0.382089 -0.239755 6.055245
v -0.377455 -0.239121 6.050288
v -0.377710 -0.236421 6.051841
v -0.376830 -0.239406 6.050433
v -0.351240 -0.272335 6.059222
v -0.375555 -0.236825 6.051528
v -0.378423 -0.237408 6.058377
v -0.376963 -0.235115 6.057146
v -0.377182 -0.235407 6.058064
v -0.360047 -0.260977 6.069775
v -0.375647 -0.236826 6.051606
v -0.372487 -0.236663 6.055104
v -0.377449 -0.234629 6.055080
v -0.371970 -0.236289 6.055230
v -0.359875 -0.261142 6.069941
v -0.343159 -0.277480 6.074339
v -0.377449 -0.234629 6.055080
v -0.343366 -0.292596 6.066060
v -0.355031 -0.271350 6.059258
v -0.339939 -0.289349 6.062975
v -0.340194 -0.289012 6.062967
v -0.260939 -0.415780 6.084659
v -0.337426 -0.294762 6.079733
v -0.336195 -0.281507 6.068799
v -0.328753 -0.296620 6.077990
v -0.262760 -0.419277 6.074244
v -0.305247 -0.330217 6.081181
v -0.282300 -0.356550 6.073666
v -0.256627 -0.418048 6.071906
v -0.253628 -0.410869 6.073251
v -0.254621 -0.411811 6.082598
v -0.262253 -0.419958 6.078225
v -0.260573 -0.419044 6.081882
v -0.260363 -0.418720 6.081739
vn -0.3751 0.6496 -0.6613
vn 0.0273 0.2092 -0.9775
vn -0.9079 0.3935 -0.1445
vn -0.5006 0.8591 0.1066
vn 0.2904 0.6494 -0.7028
vn 0.3435 0.0027 -0.9391
vn -0.6330 0.5327 0.5617
vn -0.3681 0.7913 0.4882
vn -0.4355 0.1012 0.8945
vn -0.4892 0.0235 0.8719
vn -0.7787 -0.3126 0.5439
vn 0.0626 0.9890 -0.1339
vn 0.6280 0.5826 -0.5159
vn 0.2780 0.9355 0.2179
vn 0.3964 0.8050 0.4414
vn 0.4256 0.7215 0.5461
vn -0.2984 0.1660 0.9399
vn 0.4505 0.5312 0.7175
vn -0.2151 0.9387 0.2694
vn 0.0673 0.0103 -0.9977
vn -0.1633 -0.3532 -0.9212
vn -0.3975 -0.3853 -0.8328
vn 0.2535 0.0213 -0.9671
vn -0.3128 -0.0780 0.9466
vn -0.8417 -0.4770 0.2529
vn -0.6065 -0.5593 -0.5651
vn 0.7983 0.5829 -0.1516
vn -0.1842 -0.3997 0.8980
vn 0.7328 0.5572 0.3905
vn -0.4565 -0.8129 -0.3617
vn 0.4742 0.3581 0.8043
vn 0.8627 0.4660 -0.1966
vn 0.4851 -0.6408 -0.5950
vn 0.8870 0.0939 -0.4521
vn 0.8199 -0.0591 0.5695
vn 0.3384 -0.9395 0.0527
vn -0.9098 -0.2967 0.2901
vn 0.6431 -0.6760 0.3598
s 1
f 6//1 7//2 4//3
f 6//1 4//3 3//4
f 9//5 7//2 6//1
f 9//5 8//6 7//2
f 10//7 3//4 4//3
f 3//4 10//7 11//8
f 12//9 2//10 13//11
f 3//4 14//12 6//1
f 3//4 15//13 14//12
f 15//13 9//5 14//12
f 16//14 12//15 17//16
f 18//17 19//18 12//15
f 3//4 11//8 20//19
f 23//20 22//21 8//6
f 24//22 21//23 22//21
f 26//24 13//11 2//10
f 1//25 26//24 2//10
f 18//17 13//11 26//24
f 21//23 1//25 5//26
f 21//23 5//26 22//21
f 22//21 5//26 8//6
f 8//6 9//5 27//27
f 27//27 17//16 19//18
f 27//27 9//5 15//13
f 12//15 19//18 17//16
f 25//28 26//24 1//25
f 23//20 21//23 24//22
f 27//27 23//20 8//6
f 18//17 26//24 19//18
f 27//27 19//18 28//29
f 29//30 25//28 1//25
f 30//31 19//18 26//24
f 29//30 21//23 23//20
f 29//30 1//25 21//23
f 31//32 23//20 27//27
f 27//27 30//31 31//32
f 30//31 27//27 28//29
f 32//33 23//20 33//34
f 25//28 30//31 26//24
f 23//20 31//32 33//34
f 30//31 34//35 31//32
f 29//30 32//33 35//36
f 36//37 25//28 29//30
f 37//38 35//36 32//33
f 34//35 37//38 32//33
f 37//38 34//35 25//28
f 23//20 32//33 29//30
f 25//28 34//35 30//31
f 34//35 33//34 31//32
f 34//35 32//33 33//34
