# Blender v2.78 (sub 0) OBJ File: 'exporter.blend'
# www.blender.org
o FJ3025.obj_grp1.1667
v -0.261425 -0.356461 6.170025
v -0.261307 -0.359270 6.175995
v -0.241126 -0.361340 6.217242
v -0.264300 -0.355308 6.175026
v -0.259322 -0.348693 6.172609
v -0.241560 -0.360849 6.216059
v -0.235289 -0.359886 6.230836
v -0.262418 -0.350292 6.176282
v -0.258192 -0.355621 6.169394
v -0.238118 -0.350469 6.217716
v -0.258123 -0.355523 6.169037
v -0.254716 -0.359706 6.175967
v -0.255875 -0.357094 6.171104
v -0.242537 -0.360384 6.197937
v -0.229548 -0.356082 6.215935
v -0.242537 -0.360384 6.197937
v -0.236064 -0.362267 6.212068
v -0.253919 -0.351679 6.172683
v -0.212077 -0.383549 6.262089
v -0.208087 -0.382289 6.261251
v -0.216388 -0.379866 6.260953
v -0.212501 -0.380424 6.265359
v -0.226596 -0.359028 6.235264
v -0.217804 -0.368431 6.239720
v -0.210101 -0.383058 6.263897
v -0.210101 -0.383058 6.263897
v -0.212289 -0.380481 6.265165
v -0.210101 -0.383058 6.263897
v -0.208631 -0.380004 6.263991
v -0.208408 -0.379689 6.264399
v -0.209768 -0.379565 6.257700
v -0.210101 -0.383058 6.263897
v -0.208667 -0.381769 6.261691
v -0.208631 -0.380004 6.263991
v -0.208634 -0.378216 6.261644
v -0.208667 -0.381769 6.261691
v -0.208634 -0.378216 6.261644
v -0.208631 -0.380004 6.263991
v -0.208634 -0.378216 6.261644
vn -0.7700 -0.5917 0.2388
vn -0.5325 -0.8447 -0.0547
vn 0.3425 -0.8985 -0.2745
vn -0.1639 0.8477 -0.5046
vn -0.9904 -0.1213 -0.0662
vn -0.7657 0.6347 0.1038
vn -0.4897 -0.3644 -0.7921
vn -0.7812 -0.5101 0.3598
vn -0.7401 0.3182 0.5924
vn 0.1826 -0.0194 -0.9830
vn 0.1116 -0.8515 -0.5124
vn 0.3144 -0.8777 -0.3617
vn 0.5284 -0.5340 -0.6600
vn 0.7587 -0.4856 -0.4343
vn 0.8845 0.3303 -0.3295
vn 0.6697 -0.6310 -0.3915
vn -0.1622 0.9432 0.2901
vn 0.6634 0.4580 -0.5917
vn -0.2037 -0.9712 0.1233
vn -0.8307 -0.3209 0.4550
vn 0.2905 -0.8823 -0.3704
vn -0.5386 0.2283 0.8110
vn 0.1903 0.9107 0.3666
vn 0.9149 0.2249 -0.3351
vn 0.2897 -0.9554 -0.0570
vn -0.3867 -0.6913 0.6104
vn 0.3225 -0.1836 0.9286
vn 0.0256 0.8478 0.5298
vn 0.8526 -0.4202 0.3107
vn 0.9398 0.1027 -0.3259
vn 0.2787 0.8551 0.4371
vn 0.9898 -0.0115 -0.1419
vn 0.9780 0.0443 -0.2038
vn 0.9999 -0.0094 -0.0085
vn 0.7307 0.6827 -0.0009
s 1
f 3//1 2//2 17//3
f 5//4 4//5 8//6
f 2//2 4//5 1//7
f 2//2 6//8 4//5
f 6//8 7//9 4//5
f 7//9 8//6 4//5
f 5//4 1//7 4//5
f 11//10 9//11 1//7
f 11//10 1//7 5//4
f 1//7 12//12 2//2
f 2//2 12//12 17//3
f 1//7 13//13 12//12
f 13//13 14//14 12//12
f 13//13 15//15 14//14
f 12//12 16//16 17//3
f 14//14 15//15 17//3
f 7//9 10//17 8//6
f 13//13 1//7 9//11
f 18//18 11//10 5//4
f 5//4 15//15 18//18
f 10//17 15//15 5//4
f 11//10 18//18 13//13
f 15//15 13//13 18//18
f 5//4 8//6 10//17
f 17//3 19//19 21//20
f 6//8 3//1 7//9
f 19//19 17//3 20//21
f 3//1 21//20 7//9
f 17//3 21//20 3//1
f 7//9 21//20 22//22
f 23//23 7//9 22//22
f 20//21 17//3 15//15
f 15//15 24//24 20//21
f 7//9 23//23 10//17
f 23//23 15//15 10//17
f 21//20 19//19 22//22
f 20//21 25//25 19//19
f 19//19 26//26 22//22
f 27//27 28//27 29//27
f 30//28 23//23 22//22
f 32//29 33//29 34//29
f 20//21 24//24 31//30
f 35//31 23//23 30//28
f 36//32 31//30 37//33
f 36//32 37//33 38//34
f 31//30 24//24 37//33
f 15//15 23//23 24//24
f 23//23 39//35 24//24
