# Blender v2.78 (sub 0) OBJ File: 'exporter.blend'
# www.blender.org
o FJ3040.obj_grp1.1682
v -0.143549 -0.363686 5.688853
v -0.146281 -0.374048 5.685862
v -0.147373 -0.359025 5.694158
v -0.147373 -0.359025 5.694158
v -0.148949 -0.356715 5.706851
v -0.153100 -0.382223 5.692429
v -0.158253 -0.368791 5.698206
v -0.150714 -0.372675 5.720789
v -0.154853 -0.363300 5.696270
v -0.154134 -0.384309 5.707830
v -0.132441 -0.368746 5.688570
v -0.143549 -0.363686 5.688853
v -0.147373 -0.359025 5.694158
v -0.135348 -0.358960 5.697537
v -0.132441 -0.368746 5.688570
v -0.131913 -0.368667 5.688577
v -0.126143 -0.383199 5.697275
v -0.123646 -0.392973 5.727163
v -0.112456 -0.368962 5.753505
v -0.108347 -0.383135 5.763297
v -0.124886 -0.370587 5.694768
v -0.116944 -0.359784 5.732366
v -0.099674 -0.402393 5.757526
v -0.101887 -0.380455 5.700964
v -0.101887 -0.380455 5.700964
v -0.040570 -0.418918 5.734109
v -0.077970 -0.371922 5.720228
v -0.079723 -0.382366 5.706410
v -0.079723 -0.382366 5.706410
v -0.135348 -0.358960 5.697537
v -0.050923 -0.412770 5.760624
v -0.047680 -0.397712 5.769371
v -0.053931 -0.400273 5.712188
v -0.037084 -0.376471 5.742719
v -0.052099 -0.383261 5.766623
v -0.045377 -0.385725 5.715984
v -0.034435 -0.393416 5.721565
v -0.028202 -0.399863 5.742485
v -0.033842 -0.389868 5.758876
v -0.036175 -0.414796 5.751429
vn -0.3118 0.3053 -0.8998
vn -0.2177 -0.1713 -0.9609
vn -0.4896 0.3912 -0.7793
vn -0.6956 0.6868 -0.2111
vn -0.9301 0.2232 -0.2918
vn -0.4758 0.8608 0.1806
vn -0.7912 0.0815 0.6061
vn -0.6095 0.2060 -0.7655
vn -0.5319 -0.6178 -0.5792
vn -0.7167 -0.6818 0.1467
vn 0.0912 0.2521 -0.9634
vn 0.2304 0.7464 -0.6243
vn 0.1047 0.9150 -0.3897
vn 0.2680 0.8641 -0.4260
vn 0.4425 0.6732 -0.5925
vn 0.2903 -0.4283 -0.8557
vn 0.1093 -0.7580 -0.6430
vn -0.3926 -0.9105 0.1297
vn -0.2256 0.7567 0.6136
vn -0.4521 -0.0397 0.8911
vn 0.5067 0.6020 -0.6172
vn 0.0864 0.9704 0.2255
vn 0.2635 0.0942 -0.9600
vn 0.1832 -0.4503 -0.8739
vn 0.3808 -0.8838 -0.2719
vn 0.2986 0.9002 -0.3170
vn -0.4019 -0.7524 0.5219
vn 0.2549 0.1021 -0.9616
vn 0.3627 0.7249 -0.5856
vn 0.3923 0.7103 -0.5844
vn 0.0243 -0.7986 0.6013
vn 0.2621 -0.1827 0.9476
vn 0.2502 -0.3911 -0.8857
vn 0.4293 0.4919 -0.7574
vn 0.6266 0.7789 0.0271
vn 0.2156 0.6044 0.7670
vn 0.8081 0.0802 -0.5836
vn 0.6148 -0.7025 0.3586
vn 0.9938 -0.1109 0.0044
vn 0.7589 0.2546 0.5993
s 1
f 1//1 2//2 3//3
f 4//4 7//5 5//6
f 7//5 8//7 5//6
f 7//5 9//8 6//9
f 3//3 2//2 9//8
f 9//8 2//2 6//9
f 6//9 10//10 7//5
f 10//10 8//7 7//5
f 1//1 11//11 2//2
f 12//12 13//13 14//14
f 12//12 14//14 15//15
f 2//2 16//16 17//17
f 17//17 6//9 2//2
f 5//6 14//14 13//13
f 10//10 6//9 18//18
f 8//7 19//19 5//6
f 8//7 10//10 20//20
f 20//20 10//10 18//18
f 14//14 21//21 15//15
f 17//17 18//18 6//9
f 14//14 5//6 22//22
f 22//22 5//6 19//19
f 8//7 20//20 19//19
f 14//14 24//23 21//21
f 16//16 25//24 17//17
f 26//25 18//18 17//17
f 27//26 14//14 22//22
f 18//18 23//27 20//20
f 28//28 24//23 14//14
f 29//29 30//30 27//26
f 26//25 23//27 18//18
f 23//27 31//31 32//32
f 20//20 23//27 32//32
f 28//28 33//33 24//23
f 27//26 22//22 19//19
f 36//34 33//33 28//28
f 17//17 33//33 26//25
f 17//17 24//23 33//33
f 34//35 27//26 19//19
f 31//31 23//27 26//25
f 19//19 20//20 35//36
f 20//20 32//32 35//36
f 36//34 29//29 27//26
f 36//34 27//26 34//35
f 36//34 37//37 33//33
f 40//38 31//31 26//25
f 35//36 34//35 19//19
f 33//33 37//37 26//25
f 34//35 37//37 36//34
f 37//37 34//35 38//39
f 38//39 39//40 40//38
f 38//39 40//38 26//25
f 38//39 26//25 37//37
f 35//36 39//40 34//35
f 34//35 39//40 38//39
f 31//31 40//38 32//32
f 39//40 32//32 40//38
f 32//32 39//40 35//36
