# Blender v2.78 (sub 0) OBJ File: 'exporter.blend'
# www.blender.org
o FJ3011.obj_grp1.1653
v -0.162706 -0.351646 6.294746
v -0.162506 -0.354331 6.292567
v -0.161391 -0.350737 6.295215
v -0.162747 -0.354889 6.291873
v -0.163050 -0.354024 6.292628
v -0.163025 -0.354819 6.291690
v -0.163857 -0.354200 6.292194
v -0.162826 -0.352292 6.294177
v -0.161917 -0.355551 6.290961
v -0.161644 -0.355826 6.291021
v -0.157146 -0.367395 6.306571
v -0.158366 -0.364603 6.307013
v -0.157239 -0.359339 6.305120
v -0.159608 -0.356220 6.289906
v -0.157938 -0.355771 6.289621
v -0.158280 -0.356009 6.289580
v -0.153429 -0.366654 6.303577
v -0.157277 -0.359111 6.304801
v -0.158004 -0.349897 6.295070
v -0.157727 -0.350118 6.294847
v -0.156039 -0.350562 6.293896
v -0.155514 -0.351217 6.293471
v -0.151969 -0.372382 6.314191
v -0.153553 -0.364974 6.312766
v -0.151099 -0.373601 6.322011
v -0.155739 -0.354495 6.290770
v -0.155068 -0.352259 6.292269
v -0.155687 -0.354463 6.290570
v -0.155011 -0.352243 6.292076
v -0.154965 -0.352040 6.292020
v -0.155215 -0.350369 6.293248
v -0.151366 -0.365550 6.306858
v -0.150548 -0.366017 6.313015
v -0.146284 -0.375771 6.326054
v -0.148026 -0.371097 6.328458
v -0.147688 -0.369237 6.315866
v -0.145789 -0.369932 6.327800
v -0.147688 -0.369237 6.315866
v -0.143154 -0.371433 6.325893
v -0.143776 -0.374558 6.325062
v -0.145029 -0.375647 6.325860
v -0.146466 -0.369975 6.328072
v -0.147922 -0.371254 6.328790
v -0.142949 -0.371694 6.325819
v -0.147743 -0.374675 6.327556
v -0.147743 -0.374675 6.327556
v -0.147743 -0.374675 6.327556
v -0.144538 -0.375661 6.325697
v -0.143301 -0.373849 6.325068
v -0.144137 -0.370459 6.326711
v -0.143093 -0.371276 6.325772
v -0.143050 -0.371434 6.325806
v -0.144137 -0.370459 6.326711
v -0.145035 -0.375631 6.325866
v -0.147743 -0.374675 6.327556
v -0.146284 -0.375771 6.326054
vn -0.0493 0.6508 -0.7576
vn -0.1040 0.6491 -0.7536
vn -0.1899 0.6504 -0.7354
vn -0.2114 0.6658 -0.7156
vn -0.2186 0.6393 -0.7373
vn -0.9525 -0.3037 0.0249
vn -0.6635 -0.6890 -0.2916
vn -0.6367 -0.7411 -0.2131
vn -0.7821 0.3182 0.5358
vn -0.9213 -0.0739 0.3817
vn -0.6677 0.4146 0.6183
vn -0.2745 0.6159 -0.7385
vn -0.3090 0.5968 -0.7405
vn -0.0529 0.7829 0.6198
vn 0.2330 0.7434 0.6270
vn -0.1936 0.6775 -0.7096
vn -0.2029 0.6278 -0.7515
vn 0.1032 -0.7816 -0.6152
vn 0.4317 -0.6397 -0.6359
vn -0.1443 -0.9447 -0.2945
vn -0.1486 0.8323 0.5341
vn -0.7890 -0.5849 0.1882
vn -0.0606 0.6423 -0.7641
vn 0.1689 0.4651 -0.8690
vn 0.7529 0.5433 0.3714
vn 0.9534 0.1019 -0.2839
vn 0.9929 0.0794 -0.0881
vn 0.8219 -0.3375 -0.4588
vn 0.6107 0.7888 0.0697
vn -0.2065 -0.9705 -0.1242
vn -0.7277 0.4407 0.5255
vn 0.8965 -0.2032 -0.3937
vn 0.0576 0.9694 0.2385
vn 0.8533 -0.2587 -0.4526
vn 0.8741 -0.0840 -0.4784
vn 0.2176 -0.8854 -0.4107
vn 0.6724 -0.5055 -0.5407
vn 0.4610 -0.2234 0.8588
vn 0.5155 -0.2287 0.8258
vn 0.4720 -0.0778 0.8782
vn -0.8531 -0.1807 0.4895
vn 0.4659 -0.2547 0.8474
vn -0.4999 -0.8550 0.1382
vn 0.4627 -0.1877 0.8664
vn 0.5015 0.8533 0.1429
vn 0.5184 -0.2127 0.8283
vn 0.7594 -0.3583 0.5431
vn 0.1824 -0.7016 0.6888
s 1
f 4//1 5//2 3//3
f 3//3 5//2 8//4
f 4//1 3//3 10//5
f 2//6 9//7 11//8
f 1//9 12//10 13//11
f 1//9 2//6 12//10
f 12//10 2//6 11//8
f 15//12 14//13 10//5
f 15//12 10//5 3//3
f 18//14 1//9 13//11
f 20//15 1//9 18//14
f 3//3 19//16 21//17
f 9//7 16//18 17//19
f 17//19 11//8 9//7
f 11//8 17//19 23//20
f 20//15 18//14 24//21
f 25//22 12//10 11//8
f 27//23 15//12 3//3
f 15//12 27//23 26//24
f 27//23 3//3 21//17
f 22//25 32//26 29//27
f 29//27 17//19 28//28
f 20//15 32//26 22//25
f 17//19 29//27 32//26
f 28//28 17//19 16//18
f 20//15 33//29 32//26
f 24//21 33//29 20//15
f 25//22 11//8 23//20
f 34//30 25//22 23//20
f 13//11 12//10 24//21
f 35//31 24//21 12//10
f 12//10 25//22 35//31
f 32//26 33//29 36//32
f 24//21 37//33 33//29
f 32//26 38//34 17//19
f 36//32 33//29 39//35
f 23//20 17//19 41//36
f 17//19 40//37 41//36
f 24//21 35//31 37//33
f 41//36 34//30 23//20
f 43//38 44//39 42//40
f 35//31 25//22 45//41
f 44//39 43//38 46//42
f 34//30 47//43 25//22
f 17//19 36//32 39//35
f 17//19 39//35 40//37
f 50//44 42//40 44//39
f 37//33 51//45 33//29
f 44//39 46//42 48//46
f 48//46 49//47 44//39
f 54//48 55//48 56//48
l 30 31
l 6 7
l 52 53
