# Blender v2.78 (sub 0) OBJ File: 'exporter.blend'
# www.blender.org
o FJ3071.obj_grp1.1713
v -0.373586 -0.614495 5.403316
v -0.373679 -0.614828 5.404123
v -0.373676 -0.615547 5.404356
v -0.373285 -0.614246 5.403983
v -0.372331 -0.614048 5.403560
v -0.373440 -0.614429 5.403278
v -0.373440 -0.614429 5.403278
v -0.373679 -0.614828 5.404123
v -0.373285 -0.614246 5.403983
v -0.373124 -0.614814 5.404781
v -0.371604 -0.614548 5.404136
v -0.373659 -0.614681 5.404092
v -0.373074 -0.614519 5.403652
v -0.366229 -0.632447 5.393936
v -0.373419 -0.615771 5.402762
v -0.366229 -0.632447 5.393936
v -0.373418 -0.614367 5.403221
v -0.372308 -0.613764 5.403297
v -0.359884 -0.645817 5.386955
v -0.371846 -0.614597 5.403259
v -0.373128 -0.614809 5.404893
v -0.363478 -0.632944 5.392340
v -0.363159 -0.633548 5.391972
v -0.371652 -0.614329 5.403352
v -0.362323 -0.638564 5.392981
v -0.358813 -0.640416 5.390368
v -0.373662 -0.615537 5.404358
v -0.371801 -0.615258 5.404806
v -0.365166 -0.629470 5.397692
v -0.357052 -0.647869 5.381572
v -0.358048 -0.649508 5.383139
v -0.361845 -0.639573 5.392340
v -0.356217 -0.644952 5.387918
v -0.359743 -0.645925 5.386847
v -0.353113 -0.658708 5.378025
v -0.355898 -0.654394 5.380324
v -0.352496 -0.651806 5.379076
v -0.348345 -0.677025 5.358332
v -0.345862 -0.676973 5.356369
v -0.346575 -0.670191 5.362576
v -0.342167 -0.679598 5.358762
v -0.342678 -0.686783 5.355204
v -0.341418 -0.680632 5.353562
v -0.348236 -0.679149 5.359134
v -0.344126 -0.682759 5.352623
v -0.342380 -0.684703 5.350808
v -0.342750 -0.686479 5.355179
v -0.341173 -0.680796 5.353151
v -0.344015 -0.678595 5.361073
v -0.344015 -0.678595 5.361073
v -0.336394 -0.694260 5.345284
v -0.337562 -0.687289 5.347553
v -0.337562 -0.687289 5.347553
v -0.334515 -0.688421 5.347506
v -0.334371 -0.697254 5.345327
v -0.337335 -0.685712 5.353046
v -0.332548 -0.690947 5.348629
v -0.338770 -0.687064 5.354595
v -0.338770 -0.687064 5.354595
v -0.321595 -0.702453 5.333070
v -0.328275 -0.693413 5.345874
v -0.320460 -0.703928 5.339380
v -0.330251 -0.694331 5.347694
v -0.324800 -0.696045 5.339103
v -0.320627 -0.698703 5.336314
v -0.319423 -0.699050 5.335024
v -0.316424 -0.699698 5.335671
v -0.325786 -0.695655 5.343422
v -0.314295 -0.701172 5.328600
v -0.314897 -0.707378 5.330734
v -0.311109 -0.705922 5.333020
v -0.307249 -0.703553 5.320724
v -0.307344 -0.703547 5.320841
v -0.308864 -0.700697 5.327366
v -0.308543 -0.700894 5.327055
v -0.314246 -0.701153 5.328493
v -0.306074 -0.701373 5.321920
v -0.286961 -0.704454 5.312143
v -0.297718 -0.707923 5.319521
v -0.296596 -0.700216 5.313919
v -0.293334 -0.702474 5.307335
v -0.278175 -0.700773 5.302904
v -0.274152 -0.702993 5.287233
v -0.270845 -0.696492 5.292144
v -0.252798 -0.692204 5.265358
v -0.253612 -0.702060 5.266363
v -0.246958 -0.693961 5.252718
v -0.250700 -0.697211 5.271811
v -0.238226 -0.701461 5.252766
v -0.246563 -0.697739 5.251349
v -0.224767 -0.700948 5.231304
v -0.224675 -0.693174 5.241798
v -0.250755 -0.697134 5.271266
v -0.235484 -0.695912 5.254349
v -0.251020 -0.701702 5.268120
v -0.220346 -0.692413 5.231693
v -0.237210 -0.702313 5.252290
v -0.226924 -0.696645 5.232121
v -0.217594 -0.699873 5.238291
v -0.207868 -0.705242 5.222946
v -0.217194 -0.703662 5.233827
v -0.213406 -0.694459 5.224551
v -0.207671 -0.699471 5.218396
v -0.205097 -0.697241 5.230210
v -0.190228 -0.704129 5.210014
v -0.190509 -0.695633 5.217554
v -0.200633 -0.701149 5.228307
v -0.177696 -0.697325 5.207700
v -0.182532 -0.698049 5.218409
v -0.172829 -0.709464 5.210507
v -0.165322 -0.705523 5.213223
v -0.168712 -0.707610 5.203664
v -0.167282 -0.695844 5.209405
v -0.150336 -0.699051 5.208033
v -0.163062 -0.696352 5.200748
v -0.161072 -0.697826 5.211442
v -0.159090 -0.698686 5.197012
v -0.155487 -0.693152 5.206490
v -0.156193 -0.691665 5.200178
v -0.154304 -0.705475 5.201446
v -0.155607 -0.705237 5.206872
v -0.139665 -0.688035 5.202435
v -0.139180 -0.680065 5.185223
v -0.138324 -0.685987 5.182337
v -0.141427 -0.682216 5.197338
v -0.134373 -0.678081 5.189968
v -0.135009 -0.689210 5.183527
v -0.139201 -0.693998 5.200986
v -0.131857 -0.681275 5.195595
v -0.132870 -0.683962 5.182869
v -0.134069 -0.680644 5.184369
v -0.129236 -0.681503 5.189371
v -0.128968 -0.684323 5.193841
v -0.130425 -0.689488 5.186962
v -0.129152 -0.688123 5.191097
vn -0.9905 -0.0611 -0.1229
vn -0.9509 -0.1419 -0.2749
vn -0.8108 -0.4607 0.3611
vn -0.2837 0.9407 -0.1860
vn -0.8250 0.5642 0.0318
vn -0.2982 0.7718 0.5616
vn 0.5973 0.7155 0.3624
vn -0.4607 0.7485 0.4770
vn 0.1086 0.5715 -0.8134
vn -0.5233 0.2804 -0.8047
vn 0.2036 0.5060 -0.8382
vn -0.8550 -0.4896 0.1713
vn -0.0497 0.9988 -0.0008
vn -0.1756 0.4254 -0.8878
vn -0.1857 0.4212 -0.8878
vn -0.1392 0.4811 -0.8656
vn 0.2078 0.6708 -0.7120
vn -0.5912 -0.6719 0.4461
vn -0.2392 -0.6176 0.7492
vn -0.1486 -0.5144 0.8445
vn 0.7464 0.5573 -0.3638
vn 0.5601 0.5871 -0.5845
vn 0.8032 0.5846 -0.1146
vn 0.4191 0.0396 0.9071
vn -0.7408 0.1688 0.6502
vn 0.3839 -0.2687 0.8834
vn -0.4105 0.4149 -0.8120
vn -0.9436 -0.1514 -0.2946
vn -0.5939 -0.6172 0.5160
vn 0.7701 -0.0486 0.6361
vn -0.4906 -0.6657 0.5623
vn -0.5519 -0.6171 0.5609
vn 0.5285 -0.4339 0.7297
vn -0.7298 -0.5691 0.3788
vn 0.7947 0.5346 -0.2874
vn -0.8384 0.0922 -0.5372
vn -0.8446 -0.5244 0.1081
vn -0.3484 0.5236 -0.7774
vn 0.5398 0.6431 -0.5433
vn 0.8417 0.3608 0.4016
vn -0.1150 -0.6635 0.7393
vn 0.8376 0.5439 -0.0508
vn -0.4299 0.3954 -0.8117
vn -0.6868 0.1515 -0.7109
vn -0.8204 -0.4657 -0.3319
vn 0.0582 0.6366 -0.7690
vn 0.3273 -0.5145 0.7926
vn 0.7576 -0.0704 0.6490
vn -0.7788 -0.2861 -0.5582
vn -0.2397 0.5282 -0.8146
vn -0.1129 0.6377 -0.7620
vn 0.6558 0.7548 -0.0148
vn -0.5160 -0.8432 0.1506
vn 0.7905 0.6027 0.1087
vn 0.7317 0.3898 0.5592
vn 0.6136 -0.1662 0.7719
vn 0.1358 -0.5636 0.8148
vn 0.5798 0.8128 0.0568
vn 0.1318 -0.7578 0.6390
vn 0.6561 0.1271 0.7439
vn -0.7031 -0.0590 -0.7086
vn -0.0921 0.6202 -0.7790
vn -0.1615 0.7295 -0.6647
vn 0.3179 0.9359 -0.1515
vn 0.5234 0.7805 0.3419
vn 0.6866 0.4403 0.5786
vn -0.3153 0.8064 -0.5003
vn -0.2856 -0.9493 -0.1312
vn 0.5118 -0.4963 0.7012
vn -0.5284 0.5949 -0.6057
vn -0.1959 0.9239 -0.3288
vn 0.2507 0.9587 0.1340
vn -0.0172 0.9795 0.2005
vn -0.4300 0.7820 -0.4513
vn 0.6854 -0.3082 0.6598
vn -0.6767 0.4185 -0.6057
vn -0.6375 0.4790 -0.6035
vn 0.6709 0.2592 0.6948
vn 0.2766 -0.9314 0.2368
vn -0.4507 -0.7246 -0.5214
vn -0.5611 -0.4627 -0.6863
vn 0.4259 0.7630 0.4862
vn -0.0954 0.9952 0.0226
vn 0.0720 -0.9973 0.0115
vn -0.5695 0.6174 -0.5426
vn 0.6777 -0.4835 0.5540
vn 0.6780 -0.1083 0.7270
vn -0.7040 -0.2207 -0.6751
vn -0.5308 -0.5515 -0.6435
vn 0.4696 0.7434 0.4762
vn 0.6703 0.3916 0.6303
vn 0.7196 -0.0495 0.6926
vn 0.6490 -0.5299 0.5459
vn -0.1387 0.9521 -0.2726
vn 0.6608 -0.3962 0.6375
vn 0.5533 -0.3037 0.7757
vn -0.6047 0.2665 -0.7505
vn 0.2999 -0.8174 0.4918
vn -0.3044 -0.8762 -0.3737
vn -0.4713 0.0413 -0.8810
vn -0.2442 0.7392 -0.6277
vn 0.5403 0.3810 0.7503
vn -0.3922 -0.3235 -0.8611
vn 0.2677 0.7856 0.5578
vn 0.4461 -0.1171 0.8873
vn -0.2613 0.7821 -0.5657
vn 0.3261 0.6325 0.7026
vn 0.0573 -0.9948 0.0839
vn 0.3729 -0.4695 0.8003
vn -0.1142 -0.7626 -0.6366
vn -0.0531 0.9836 0.1725
vn 0.5367 -0.2547 0.8044
vn 0.1684 0.4480 0.8780
vn -0.4418 0.6633 -0.6040
vn -0.5544 0.2561 -0.7919
vn -0.1378 0.8573 0.4961
vn -0.5836 0.7921 -0.1791
vn 0.3321 -0.9118 -0.2415
vn 0.4626 -0.7924 0.3977
vn 0.3719 0.3082 0.8756
vn -0.4114 0.7493 -0.5189
vn -0.2671 0.0057 -0.9637
vn -0.2442 0.8653 0.4377
vn 0.1452 0.9887 0.0385
vn 0.2210 -0.5482 -0.8066
vn 0.6824 -0.5199 0.5138
vn 0.4522 0.6470 0.6139
vn 0.4910 0.1828 -0.8518
vn 0.2584 0.6769 -0.6892
vn 0.8668 0.4764 -0.1472
vn 0.7506 -0.5309 -0.3934
vn 0.8840 -0.4576 0.0955
vn 0.9091 0.0736 0.4101
s 1
f 2//1 1//2 3//3
f 4//4 5//4 6//4
f 7//5 8//5 9//5
f 10//6 11//7 12//8
f 13//9 14//10 15//11
f 1//2 16//12 3//3
f 11//7 20//13 12//8
f 18//14 22//15 17//16
f 13//9 23//17 14//10
f 19//18 25//19 3//3
f 25//19 21//20 3//3
f 24//21 23//17 18//22
f 11//7 26//23 24//21
f 11//7 28//24 26//23
f 12//8 27//25 10//6
f 11//7 10//6 28//24
f 25//19 28//24 21//20
f 24//21 26//23 23//17
f 28//24 25//19 29//26
f 28//24 29//26 26//23
f 14//10 30//27 31//28
f 16//12 19//18 3//3
f 19//18 16//12 31//28
f 32//29 25//19 19//18
f 14//10 23//17 30//27
f 33//30 29//26 25//19
f 32//29 19//18 34//31
f 35//32 32//29 34//31
f 35//33 33//30 25//19
f 19//18 31//28 36//34
f 26//23 37//35 23//17
f 34//31 36//34 35//32
f 37//35 30//27 23//17
f 26//23 33//30 37//35
f 30//27 38//36 31//28
f 38//36 44//37 31//28
f 44//37 36//34 31//28
f 39//38 30//27 37//35
f 40//39 39//38 37//35
f 41//40 40//39 37//35
f 33//30 35//33 41//40
f 41//40 37//35 33//30
f 35//32 44//37 42//41
f 36//34 44//37 35//32
f 41//40 43//42 40//39
f 38//36 39//38 45//43
f 44//37 38//36 46//44
f 47//45 42//41 44//37
f 38//36 30//27 39//38
f 48//46 39//38 40//39
f 49//47 35//32 42//41
f 41//40 35//33 50//48
f 51//49 44//37 46//44
f 45//43 52//50 46//44
f 52//50 45//43 39//38
f 48//46 53//51 39//38
f 54//52 43//42 41//40
f 55//53 47//45 44//37
f 44//37 51//49 55//53
f 41//40 56//54 54//52
f 50//48 57//55 41//40
f 50//48 58//56 57//55
f 42//41 59//57 49//47
f 61//58 54//52 56//54
f 62//59 59//57 42//41
f 63//60 57//55 58//56
f 62//59 63//60 59//57
f 62//59 42//41 55//53
f 51//49 46//44 60//61
f 53//51 48//46 64//62
f 46//44 52//50 60//61
f 52//50 65//63 60//61
f 61//58 66//64 54//52
f 67//65 68//66 63//60
f 63//60 68//66 57//55
f 60//61 65//63 69//67
f 55//53 51//49 60//61
f 70//68 55//53 60//61
f 71//69 67//65 63//60
f 62//59 71//69 63//60
f 70//68 62//59 55//53
f 67//65 66//64 61//58
f 60//61 69//67 73//70
f 74//71 69//67 65//63
f 75//72 66//64 67//65
f 69//67 74//71 76//73
f 73//70 69//67 77//74
f 77//74 76//73 74//71
f 75//72 67//65 78//75
f 71//69 78//75 67//65
f 71//69 62//59 70//68
f 77//74 80//76 81//77
f 74//71 80//76 77//74
f 81//77 73//70 77//74
f 82//78 75//72 78//75
f 70//68 79//79 71//69
f 78//75 71//69 79//79
f 83//80 79//79 70//68
f 70//68 60//61 72//81
f 75//72 82//78 84//82
f 70//68 72//81 83//80
f 72//81 81//77 83//80
f 85//83 80//76 75//72
f 83//80 86//84 79//79
f 86//84 78//75 79//79
f 85//83 87//85 80//76
f 87//85 81//77 80//76
f 75//72 84//82 85//83
f 82//78 78//75 88//86
f 89//87 78//75 86//84
f 87//85 90//88 81//77
f 90//88 83//80 81//77
f 91//89 86//84 83//80
f 85//83 84//82 92//90
f 84//82 82//78 93//91
f 84//82 94//92 92//90
f 88//86 78//75 95//93
f 87//85 85//83 96//94
f 83//80 90//88 91//89
f 93//91 94//92 84//82
f 95//93 97//95 88//86
f 88//86 97//95 94//92
f 97//95 99//96 94//92
f 96//94 98//97 87//85
f 87//85 98//97 90//88
f 86//84 101//98 89//87
f 90//88 98//97 91//89
f 100//99 86//84 91//89
f 96//94 85//83 92//90
f 86//84 100//99 101//98
f 94//92 99//96 92//90
f 98//97 103//100 91//89
f 102//101 98//97 96//94
f 92//90 99//96 104//102
f 99//96 97//95 101//98
f 98//97 102//101 103//100
f 103//100 105//103 91//89
f 91//89 105//103 100//99
f 96//94 92//90 106//104
f 99//96 107//105 104//102
f 108//106 103//100 102//101
f 106//104 92//90 104//102
f 107//105 99//96 101//98
f 96//94 106//104 102//101
f 109//107 106//104 104//102
f 109//107 104//102 107//105
f 101//98 100//99 110//108
f 109//107 107//105 111//109
f 105//103 112//110 100//99
f 112//110 110//108 100//99
f 113//111 108//106 102//101
f 113//111 106//104 109//107
f 106//104 113//111 102//101
f 105//103 103//100 108//106
f 110//108 111//109 101//98
f 111//109 107//105 101//98
f 114//112 109//107 111//109
f 114//112 116//113 109//107
f 105//103 108//106 115//114
f 115//114 117//115 105//103
f 108//106 113//111 115//114
f 113//111 109//107 116//113
f 118//116 113//111 116//113
f 113//111 119//117 115//114
f 117//115 112//110 105//103
f 120//118 110//108 112//110
f 119//117 113//111 118//116
f 115//114 119//117 117//115
f 120//118 121//119 110//108
f 121//119 111//109 110//108
f 122//120 118//116 116//113
f 122//120 116//113 114//112
f 123//121 124//122 117//115
f 124//122 112//110 117//115
f 117//115 119//117 123//121
f 118//116 125//123 119//117
f 125//123 118//116 122//120
f 121//119 114//112 111//109
f 125//123 123//121 119//117
f 123//121 125//123 126//124
f 120//118 112//110 127//125
f 128//126 121//119 120//118
f 128//126 114//112 121//119
f 122//120 129//127 125//123
f 122//120 114//112 128//126
f 130//128 124//122 123//121
f 123//121 131//129 130//128
f 130//128 127//125 124//122
f 127//125 112//110 124//122
f 131//129 126//124 132//130
f 131//129 123//121 126//124
f 128//126 120//118 134//131
f 129//127 126//124 125//123
f 129//127 132//130 126//124
f 135//132 133//133 128//126
f 129//127 122//120 133//133
f 133//133 122//120 128//126
f 130//128 134//131 127//125
f 120//118 127//125 134//131
f 130//128 131//129 132//130
f 130//128 132//130 134//131
f 132//130 135//132 134//131
f 132//130 133//133 135//132
f 132//130 129//127 133//133
f 135//132 128//126 134//131
