# Blender v2.78 (sub 0) OBJ File: 'exporter.blend'
# www.blender.org
o FJ3093.obj_grp1.1734
v 0.151664 -0.709551 5.401775
v 0.151581 -0.713781 5.398853
v 0.149632 -0.711096 5.403419
v 0.149574 -0.710907 5.403527
v 0.182104 -0.718022 5.419637
v 0.150810 -0.710405 5.399539
v 0.148870 -0.713504 5.404121
v 0.150009 -0.715987 5.403078
v 0.153841 -0.716544 5.407451
v 0.179117 -0.721098 5.414827
v 0.165471 -0.719967 5.409796
v 0.163117 -0.719590 5.411134
v 0.174560 -0.715785 5.412598
v 0.167387 -0.718222 5.414448
v 0.176040 -0.722020 5.417034
v 0.184907 -0.717389 5.420939
v 0.192429 -0.724634 5.418439
v 0.195757 -0.723474 5.420532
v 0.190762 -0.720045 5.420835
v 0.174613 -0.715800 5.412621
v 0.191911 -0.724137 5.418911
v 0.190351 -0.726123 5.420038
v 0.189658 -0.722555 5.423934
v 0.190307 -0.726357 5.423102
v 0.190071 -0.720612 5.422620
v 0.201034 -0.727458 5.426924
v 0.197999 -0.729719 5.422270
v 0.190740 -0.726558 5.423246
v 0.197293 -0.729503 5.421728
v 0.200016 -0.728787 5.421866
v 0.214661 -0.745143 5.430130
v 0.215223 -0.750253 5.429495
v 0.209917 -0.742367 5.424780
v 0.210080 -0.742541 5.424851
v 0.121661 -0.882500 5.307859
v 0.120139 -0.882555 5.308460
v 0.121185 -0.880692 5.307341
v 0.120381 -0.882373 5.309112
v 0.121499 -0.881050 5.309264
v 0.118880 -0.883789 5.307971
v 0.119645 -0.883816 5.309526
v 0.120470 -0.882450 5.310665
v 0.119744 -0.881952 5.309292
v 0.119600 -0.883866 5.309568
v 0.216042 -0.742383 5.427920
v 0.141191 -0.900334 5.299070
v 0.225449 -0.761774 5.425794
v 0.217490 -0.755033 5.426423
v 0.147307 -0.910830 5.293758
v 0.147477 -0.909767 5.293154
v 0.230584 -0.775317 5.424313
v 0.224445 -0.768365 5.427409
v 0.145584 -0.906431 5.294590
v 0.144107 -0.904824 5.300811
v 0.222282 -0.763807 5.426329
v 0.222303 -0.763892 5.426295
v 0.234948 -0.780018 5.426117
v 0.232332 -0.774684 5.425953
v 0.232332 -0.774684 5.425953
v 0.228577 -0.775854 5.426205
v 0.228815 -0.774875 5.427936
v 0.141060 -0.905349 5.300772
v 0.150203 -0.912485 5.293105
v 0.228278 -0.774458 5.428834
v 0.146560 -0.904978 5.295552
v 0.149368 -0.911988 5.292391
v 0.152148 -0.909171 5.292575
v 0.146829 -0.905439 5.295537
v 0.230932 -0.775792 5.423888
v 0.233995 -0.785395 5.423337
v 0.242120 -0.791115 5.423995
v 0.242342 -0.791583 5.423689
v 0.236340 -0.783202 5.423303
v 0.152533 -0.910622 5.289433
v 0.153723 -0.914321 5.286946
v 0.157589 -0.917443 5.286855
v 0.153723 -0.914321 5.286946
v 0.157702 -0.918267 5.284272
v 0.152501 -0.911285 5.292108
v 0.151869 -0.909908 5.294128
v 0.236286 -0.783111 5.423324
v 0.241052 -0.790765 5.422605
v 0.238711 -0.791185 5.425140
v 0.156789 -0.916732 5.279657
v 0.239158 -0.794268 5.422483
v 0.240202 -0.794291 5.422778
v 0.245409 -0.795464 5.421046
v 0.162416 -0.917502 5.281610
v 0.159789 -0.915326 5.282627
v 0.159789 -0.915326 5.282627
v 0.157669 -0.917199 5.286758
v 0.250184 -0.803560 5.419763
v 0.248934 -0.798416 5.420640
v 0.257851 -0.806210 5.419333
v 0.162493 -0.922091 5.274350
v 0.158750 -0.917443 5.280420
v 0.163970 -0.923833 5.276101
v 0.163970 -0.923833 5.276101
v 0.168297 -0.929718 5.265654
v 0.164762 -0.924582 5.272676
v 0.164757 -0.921194 5.273002
v 0.166494 -0.923463 5.268853
v 0.164545 -0.924820 5.271723
v 0.264619 -0.810815 5.414740
v 0.157952 -0.912639 5.205560
v 0.156959 -0.913086 5.205831
v 0.157855 -0.913185 5.206801
v 0.157668 -0.912817 5.205601
v 0.157987 -0.910901 5.206301
v 0.157209 -0.911988 5.206949
v 0.158471 -0.913232 5.206170
v 0.167435 -0.926621 5.235688
v 0.157393 -0.913500 5.204930
v 0.158376 -0.918774 5.212338
v 0.156915 -0.913017 5.205409
v 0.158037 -0.912148 5.204988
v 0.157447 -0.913378 5.204823
v 0.157805 -0.913158 5.205320
v 0.158014 -0.911397 5.205926
v 0.164180 -0.921617 5.224487
v 0.162703 -0.921134 5.223124
v 0.164445 -0.924386 5.229526
v 0.159963 -0.918575 5.216808
v 0.161744 -0.920040 5.219140
v 0.160370 -0.920222 5.216808
v 0.166978 -0.929036 5.260975
v 0.168073 -0.930871 5.259236
v 0.167991 -0.929062 5.265491
v 0.168631 -0.926042 5.266269
v 0.168471 -0.928736 5.260136
v 0.169190 -0.925746 5.265928
v 0.265827 -0.810248 5.414948
v 0.265680 -0.809298 5.416278
v 0.264432 -0.809964 5.416089
v 0.164175 -0.922222 5.220986
v 0.166219 -0.925295 5.226093
v 0.163898 -0.924395 5.225570
v 0.163613 -0.925604 5.228610
v 0.162078 -0.922518 5.220188
v 0.165656 -0.928243 5.229109
v 0.169953 -0.928673 5.251971
v 0.167561 -0.931048 5.248991
v 0.169102 -0.932123 5.248660
v 0.169312 -0.931705 5.257662
v 0.171054 -0.929955 5.255566
v 0.169815 -0.928476 5.254553
v 0.167830 -0.929297 5.253895
v 0.170545 -0.931233 5.255536
v 0.264923 -0.809811 5.415579
v 0.265295 -0.810677 5.415585
v 0.265376 -0.809277 5.415932
v 0.168890 -0.932753 5.244136
v 0.169283 -0.930037 5.242721
v 0.169906 -0.930393 5.242551
v 0.169164 -0.931982 5.248684
v 0.265649 -0.809331 5.416282
v 0.265649 -0.809331 5.416282
v 0.265600 -0.810824 5.415954
v 0.263961 -0.812247 5.415834
v 0.264636 -0.810777 5.414780
v 0.265747 -0.810387 5.415015
v 0.265649 -0.809331 5.416282
v 0.265600 -0.810824 5.415954
v 0.265747 -0.810387 5.415015
vn -0.8499 0.3483 -0.3955
vn 0.0084 0.9999 -0.0092
vn -0.3099 0.5658 -0.7641
vn -0.6069 0.7004 0.3756
vn -0.9512 0.0212 0.3079
vn -0.6124 -0.7763 -0.1491
vn -0.4775 -0.5683 0.6701
vn -0.1930 -0.2381 -0.9519
vn -0.3721 0.2947 0.8802
vn 0.3194 -0.1157 -0.9405
vn -0.0385 -0.9444 -0.3265
vn -0.2362 -0.9711 -0.0352
vn 0.5569 0.5108 -0.6550
vn -0.4700 -0.6194 0.6288
vn -0.4383 -0.6314 0.6397
vn 0.4028 0.8938 -0.1972
vn 0.0123 -0.6700 -0.7423
vn 0.6122 0.5413 -0.5763
vn 0.4838 0.8710 -0.0852
vn 0.4571 0.7173 -0.5258
vn 0.3340 0.1737 -0.9264
vn -0.1123 -0.9063 -0.4075
vn -0.2507 0.1772 0.9517
vn -0.2981 -0.2733 0.9146
vn -0.0539 0.5583 0.8279
vn 0.3566 0.6154 0.7029
vn -0.0425 -0.4430 -0.8955
vn -0.0258 -0.5836 -0.8117
vn -0.3418 -0.9354 0.0909
vn 0.2436 -0.0816 -0.9664
vn -0.3795 -0.6426 -0.6655
vn 0.1234 0.0480 0.9912
vn 0.7813 0.6213 0.0599
vn -0.6488 -0.3388 0.6814
vn -0.4627 -0.7236 -0.5122
vn -0.6259 -0.6283 -0.4619
vn 0.0823 0.2781 0.9570
vn 0.3316 0.9065 0.2614
vn -0.6181 0.7556 -0.2167
vn -0.7589 0.6084 0.2321
vn 0.0451 0.7976 -0.6015
vn -0.9788 -0.1317 -0.1570
vn -0.8865 0.0861 0.4546
vn -0.8545 0.0962 0.5105
vn -0.8196 0.4228 0.3866
vn -0.0465 0.9977 -0.0498
vn -0.5818 -0.3852 0.7163
vn 0.6509 0.7342 -0.1931
vn 0.6277 0.4390 -0.6429
vn -0.8705 -0.4792 -0.1118
vn -0.6158 -0.7876 -0.0219
vn -0.2357 -0.0000 -0.9718
vn -0.8782 -0.4631 -0.1194
vn -0.1641 -0.2578 0.9522
vn -0.7697 -0.1573 -0.6188
vn -0.1430 0.4117 -0.9000
vn 0.5520 -0.0516 0.8322
vn -0.8752 -0.4554 -0.1636
vn -0.8494 -0.4538 -0.2693
vn 0.8239 0.2988 0.4815
vn 0.6949 0.4236 -0.5810
vn 0.8944 0.4399 0.0805
vn -0.8615 -0.4868 0.1444
vn -0.8449 -0.4622 0.2692
vn -0.4241 -0.7464 0.5128
vn 0.3374 -0.5156 0.7876
vn -0.1327 0.5750 -0.8073
vn -0.3471 -0.8719 0.3455
vn 0.8149 0.5397 0.2113
vn -0.2888 0.3350 -0.8969
vn 0.6346 0.4180 -0.6501
vn -0.7117 -0.3955 -0.5805
vn 0.6642 0.6858 -0.2974
vn 0.7372 0.4840 0.4715
vn 0.1641 0.8606 -0.4821
vn -0.7478 -0.1435 -0.6483
vn -0.4328 -0.8445 0.3155
vn -0.7778 -0.4290 -0.4594
vn -0.7936 -0.4800 -0.3740
vn 0.6274 -0.2477 0.7382
vn 0.3847 -0.4470 0.8076
vn 0.5876 0.4799 -0.6514
vn 0.4097 0.3740 -0.8320
vn 0.6840 0.6326 -0.3632
vn -0.3453 -0.4410 0.8284
vn -0.3831 0.7365 -0.5575
vn -0.3972 -0.8750 0.2768
vn -0.3896 -0.6453 0.6572
vn 0.1127 0.4696 -0.8757
vn 0.8935 0.1863 0.4087
vn 0.5897 0.7990 -0.1178
vn -0.0635 0.8111 -0.5814
vn 0.3367 -0.5229 0.7831
vn -0.6258 -0.7786 0.0461
vn -0.3749 -0.2032 -0.9045
vn 0.6667 0.7301 0.1500
vn 0.3390 -0.2660 0.9024
vn -0.9236 -0.0365 -0.3815
vn -0.8857 -0.3708 -0.2792
vn -0.5489 -0.8293 0.1048
vn 0.7298 -0.4051 0.5507
vn 0.6348 0.7522 -0.1768
vn -0.5095 0.6507 -0.5630
vn -0.7082 -0.6983 0.1042
vn -0.6960 -0.7179 0.0146
vn 0.9110 -0.2089 0.3556
vn -0.2042 -0.0243 -0.9786
vn -0.5369 0.6708 0.5116
vn -0.5565 0.6314 0.5401
vn 0.8270 0.5614 -0.0281
vn -0.8024 -0.5272 -0.2796
vn -0.8076 -0.5089 -0.2979
vn -0.7905 -0.5341 -0.2998
vn 0.9122 0.3533 -0.2076
vn 0.8971 0.4316 -0.0943
vn 0.9500 0.2726 -0.1525
vn -0.8390 0.2412 0.4878
vn -0.3753 0.8705 0.3183
vn -0.2226 0.8366 0.5006
vn -0.2176 0.8508 0.4784
vn -0.3210 0.8284 0.4591
vn -0.8067 0.3757 0.4561
vn -0.8479 0.3257 0.4183
vn -0.7774 0.5203 0.3535
vn -0.9540 -0.0799 -0.2889
vn -0.8248 -0.5466 0.1446
vn -0.8389 0.4745 -0.2666
vn -0.5334 -0.8113 0.2393
vn 0.3670 0.8321 -0.4160
vn 0.8607 -0.2653 0.4346
vn 0.1770 0.5640 -0.8066
vn -0.2447 -0.8360 0.4912
vn 0.7415 -0.3247 -0.5871
vn 0.8008 -0.3252 -0.5029
vn 0.8012 -0.3181 -0.5069
vn 0.8731 0.4853 -0.0459
vn -0.4699 -0.8496 -0.2397
vn 0.4612 -0.6359 -0.6188
vn -0.2418 -0.9036 -0.3535
vn 0.6475 -0.5223 -0.5550
vn -0.5768 -0.7819 -0.2365
vn -0.9469 -0.2048 0.2479
vn -0.9150 -0.3942 0.0858
vn 0.1857 0.9823 -0.0259
vn -0.9511 -0.2667 0.1559
vn -0.5503 -0.8349 -0.0058
vn -0.5161 -0.8545 0.0587
vn 0.7490 0.6610 -0.0456
vn 0.8050 0.5921 -0.0368
vn -0.9889 0.0848 -0.1221
vn 0.7848 0.6163 -0.0653
vn 0.8905 -0.4404 0.1140
vn 0.7534 -0.6575 -0.0069
vn 0.6707 -0.7024 0.2386
vn -0.1824 -0.6007 0.7784
vn 0.9221 -0.0197 0.3865
vn 0.1469 -0.5421 0.8274
vn 0.3484 -0.3028 0.8871
vn 0.9125 -0.3649 -0.1851
vn 0.9730 -0.1563 -0.1700
vn 0.9153 0.3799 -0.1337
vn 0.3916 -0.9199 0.0219
vn 0.6605 -0.5754 0.4824
vn 0.4681 -0.7587 -0.4531
vn 0.5814 -0.6278 -0.5175
vn 0.5525 -0.6776 -0.4854
vn 0.9901 -0.0599 0.1270
vn 0.3696 -0.8634 -0.3435
s 1
f 3//1 1//2 6//3
f 3//1 4//4 1//2
f 6//3 7//5 3//1
f 8//6 9//7 7//5
f 6//3 8//6 7//5
f 6//3 2//8 8//6
f 4//4 7//5 5//9
f 6//3 10//10 2//8
f 2//8 11//11 8//6
f 10//10 11//11 2//8
f 11//11 12//12 8//6
f 1//2 4//4 5//9
f 13//13 6//3 1//2
f 5//9 7//5 9//7
f 14//14 9//7 8//6
f 14//14 8//6 15//15
f 16//16 13//13 1//2
f 13//13 10//10 6//3
f 17//17 12//12 11//11
f 10//10 13//13 18//18
f 13//13 16//16 19//19
f 20//20 19//19 18//18
f 10//10 18//18 21//21
f 22//22 12//12 17//17
f 5//9 9//7 23//23
f 14//14 24//24 23//23
f 25//25 5//9 23//23
f 24//24 14//14 15//15
f 26//26 25//25 23//23
f 19//19 16//16 26//26
f 17//17 27//27 22//22
f 22//22 28//28 12//12
f 22//22 29//29 28//28
f 30//30 27//27 17//17
f 18//18 30//30 21//21
f 27//31 28//28 29//29
f 26//26 18//18 19//19
f 26//26 23//23 24//24
f 24//24 31//32 26//26
f 26//26 45//33 18//18
f 45//33 30//30 18//18
f 24//24 28//28 32//34
f 33//35 28//28 27//31
f 30//30 34//36 27//27
f 33//35 32//34 28//28
f 42//37 39//38 35//39
f 38//40 37//41 40//42
f 40//42 42//43 43//44
f 40//42 41//45 42//43
f 35//39 36//46 42//37
f 40//42 44//47 41//45
f 34//36 32//34 33//35
f 45//33 26//26 31//32
f 31//32 24//24 32//34
f 46//48 37//41 39//38
f 39//38 42//37 46//48
f 30//30 47//49 34//36
f 30//30 45//33 47//49
f 34//36 48//50 32//34
f 49//51 44//47 40//42
f 47//49 51//52 34//36
f 48//50 52//53 32//34
f 64//54 31//32 32//34
f 50//55 49//51 40//42
f 53//56 50//55 37//41
f 50//55 40//42 37//41
f 46//48 53//56 37//41
f 42//37 54//57 46//48
f 34//36 51//52 48//50
f 48//50 55//58 52//53
f 51//52 56//59 48//50
f 57//60 45//33 31//32
f 45//33 58//61 47//49
f 57//60 31//32 64//54
f 59//62 45//33 57//60
f 60//63 61//64 32//34
f 64//54 32//34 61//64
f 44//47 49//51 62//65
f 62//65 42//37 44//47
f 42//37 62//65 54//57
f 54//57 62//65 63//66
f 60//63 55//58 56//59
f 60//63 52//53 55//58
f 53//56 46//48 65//67
f 62//65 49//51 66//68
f 67//69 46//48 54//57
f 46//48 67//69 68//70
f 58//61 69//71 47//49
f 70//72 60//63 56//59
f 51//52 70//72 56//59
f 57//60 64//54 72//73
f 72//73 64//54 71//74
f 67//69 74//75 68//70
f 53//56 75//76 50//55
f 62//65 66//68 76//77
f 77//78 49//51 50//55
f 78//79 49//51 77//78
f 79//80 67//69 54//57
f 80//81 54//57 63//66
f 58//61 81//82 69//71
f 59//62 57//60 73//83
f 73//83 70//72 51//52
f 57//60 72//73 82//84
f 71//74 64//54 83//85
f 61//64 60//63 83//85
f 83//85 60//63 70//72
f 53//56 65//67 84//86
f 76//77 66//68 78//87
f 86//88 83//85 70//72
f 57//60 87//89 73//83
f 67//69 88//90 89//91
f 67//69 90//92 74//75
f 88//90 67//69 79//80
f 91//93 80//81 63//66
f 87//89 70//72 73//83
f 92//94 86//88 85//95
f 82//84 72//73 93//96
f 83//85 94//97 71//74
f 74//75 90//92 95//98
f 77//78 96//99 78//79
f 95//98 78//79 96//99
f 97//100 76//77 78//87
f 98//101 88//90 79//80
f 93//96 87//89 82//84
f 92//94 83//85 86//88
f 92//94 94//97 83//85
f 71//74 94//97 93//96
f 88//90 101//102 89//91
f 102//103 95//98 90//92
f 78//79 95//98 100//104
f 78//87 103//105 97//100
f 98//101 99//106 88//90
f 70//72 87//89 85//95
f 87//89 104//107 85//95
f 109//108 110//109 112//110
f 113//111 114//112 115//113
f 119//114 120//115 116//116
f 112//110 110//109 121//117
f 122//118 105//119 106//120
f 106//120 123//121 122//118
f 108//122 125//123 124//124
f 126//125 127//126 95//98
f 130//127 127//126 126//125
f 128//128 103//105 127//126
f 129//129 130//127 101//102
f 95//98 127//126 100//104
f 128//128 97//100 103//105
f 129//129 101//102 88//90
f 99//106 131//130 88//90
f 104//107 92//94 85//95
f 104//107 87//89 132//131
f 92//94 104//107 134//132
f 117//133 116//134 135//135
f 136//136 116//116 120//115
f 137//137 118//138 136//139
f 114//140 118//138 137//137
f 138//141 114//140 137//137
f 138//141 124//124 125//123
f 137//137 139//142 140//143
f 112//110 121//117 141//144
f 142//145 124//124 138//141
f 141//144 121//117 142//145
f 138//141 137//137 142//145
f 137//137 140//143 143//146
f 143//146 142//145 137//137
f 142//145 130//127 141//144
f 144//147 142//145 143//146
f 145//148 141//144 146//149
f 144//147 127//126 142//145
f 102//103 126//125 95//98
f 147//150 126//125 102//103
f 129//129 141//144 130//127
f 127//126 130//127 142//145
f 145//148 146//149 129//151
f 145//152 131//130 148//153
f 148//153 131//130 99//106
f 144//154 148//153 99//106
f 144//147 128//128 127//126
f 93//96 94//97 149//155
f 87//89 133//156 132//131
f 133//156 87//89 93//96
f 149//155 133//156 93//96
f 150//157 94//97 92//94
f 151//158 94//97 150//157
f 137//137 136//139 152//159
f 120//115 112//110 136//136
f 136//139 153//160 152//159
f 154//161 136//136 112//110
f 145//148 112//110 141//144
f 112//110 145//148 154//161
f 148//153 152//159 153//160
f 155//162 148//153 144//154
f 153//160 145//152 148//153
f 133//156 157//163 132//131
f 158//164 159//165 160//166
f 161//167 162//167 163//167
f 160//166 164//168 158//164
l 133 156
l 107 111
