# Blender v2.78 (sub 0) OBJ File: 'exporter.blend'
# www.blender.org
o FJ3005.obj_grp1.1647
v -0.512522 -0.263422 5.381003
v -0.516186 -0.262418 5.382802
v -0.512531 -0.263318 5.381026
v -0.515672 -0.261815 5.382810
v -0.510334 -0.261395 5.379056
v -0.515834 -0.261847 5.382840
v -0.515728 -0.257624 5.382012
v -0.515728 -0.257624 5.382012
v -0.509855 -0.261004 5.378935
v -0.509622 -0.259290 5.378960
v -0.512507 -0.255561 5.379852
v -0.510522 -0.257369 5.378772
v -0.516150 -0.257194 5.381918
v -0.512423 -0.255308 5.379694
v -0.515607 -0.257208 5.385602
v -0.509526 -0.259323 5.379007
v -0.485838 -0.255126 5.423906
v -0.487950 -0.253240 5.408302
v -0.484173 -0.254789 5.416881
v -0.480003 -0.248082 5.438363
v -0.473534 -0.245241 5.427099
v -0.475729 -0.242441 5.428240
v -0.491684 -0.245690 5.418301
v -0.487950 -0.253240 5.408302
v -0.463789 -0.246813 5.437234
v -0.454860 -0.252941 5.455563
v -0.448935 -0.250709 5.473132
v -0.455734 -0.238631 5.461281
v -0.452300 -0.249754 5.451624
v -0.454507 -0.244162 5.469098
v -0.363583 -0.235165 5.546908
v -0.417246 -0.245106 5.485115
v -0.362459 -0.235287 5.559135
v -0.356534 -0.256951 5.555895
v -0.364809 -0.238113 5.539768
v -0.355184 -0.256396 5.568694
v -0.381118 -0.246482 5.549675
v -0.349277 -0.252838 5.553856
v -0.324297 -0.245639 5.574066
v -0.365131 -0.240424 5.564539
v -0.328699 -0.239286 5.592944
v -0.310053 -0.255351 5.621824
v -0.319226 -0.239104 5.589574
v -0.318886 -0.263932 5.596795
v -0.300226 -0.251290 5.596473
v -0.295185 -0.267082 5.610472
v -0.313875 -0.261975 5.613882
v -0.293260 -0.245839 5.610403
v -0.287475 -0.273226 5.632212
v -0.288520 -0.272227 5.639479
v -0.295837 -0.250364 5.633183
v -0.291318 -0.246271 5.627617
v -0.274177 -0.250712 5.639705
v -0.285250 -0.269394 5.652494
v -0.275869 -0.264775 5.623631
v -0.266426 -0.262074 5.634250
v -0.241559 -0.286231 5.678188
v -0.270254 -0.253853 5.636193
v -0.277589 -0.261389 5.662702
v -0.237516 -0.268393 5.688519
v -0.258035 -0.287342 5.692937
v -0.253848 -0.290488 5.690211
v -0.245371 -0.290796 5.684126
v -0.250058 -0.291695 5.686148
v -0.258255 -0.276743 5.697492
v -0.236240 -0.282517 5.683149
v -0.235081 -0.274666 5.684439
v -0.250081 -0.291615 5.686176
v -0.245368 -0.290541 5.684171
v -0.257942 -0.287603 5.693521
v -0.251538 -0.271404 5.695754
v -0.242477 -0.288090 5.684252
v -0.244757 -0.264966 5.692420
v -0.259010 -0.284896 5.694953
v -0.257998 -0.276958 5.697162
v -0.250864 -0.267138 5.696199
v -0.259243 -0.283499 5.695621
v -0.236094 -0.279027 5.684017
v -0.236840 -0.282907 5.683629
v -0.256360 -0.269917 5.695754
v -0.250191 -0.267019 5.696136
v -0.256360 -0.269917 5.695754
v -0.257998 -0.276958 5.697162
v -0.235081 -0.274666 5.684439
v -0.238628 -0.267736 5.688553
v -0.244757 -0.264966 5.692420
vn -0.5242 -0.2101 -0.8253
vn -0.5594 -0.1759 -0.8100
vn -0.4598 -0.1267 -0.8789
vn -0.5387 -0.1084 -0.8355
vn -0.5103 -0.0731 -0.8569
vn -0.3991 -0.1097 -0.9103
vn -0.8647 0.3435 0.3663
vn -0.9993 0.0262 0.0263
vn -0.8643 0.1519 0.4795
vn 0.1124 -0.0639 -0.9916
vn -0.2254 -0.9087 0.3513
vn -0.5674 -0.5796 0.5849
vn 0.2322 -0.9711 0.0545
vn 0.7711 -0.4582 -0.4420
vn 0.5088 -0.8344 -0.2119
vn 0.5553 -0.7960 -0.2407
vn -0.7805 0.0232 0.6247
vn 0.7724 0.2135 -0.5982
vn 0.6755 0.3822 -0.6306
vn 0.8297 -0.0791 -0.5526
vn 0.1955 0.9485 -0.2493
vn 0.0696 0.9366 -0.3434
vn -0.4476 0.8929 0.0491
vn -0.5578 0.8008 0.2183
vn 0.8070 -0.0902 -0.5837
vn 0.7562 -0.1560 -0.6355
vn 0.2108 -0.9724 -0.0999
vn -0.2820 0.9401 0.1917
vn -0.5344 -0.6726 0.5119
vn 0.6028 -0.6254 -0.4955
vn -0.7437 0.1885 0.6414
vn 0.2305 0.9556 -0.1835
vn 0.7044 -0.0696 -0.7064
vn -0.2082 0.9443 0.2549
vn -0.5989 0.4683 0.6496
vn 0.5239 0.6596 -0.5390
vn -0.3641 -0.8950 0.2576
vn -0.7389 -0.1506 0.6567
vn 0.5382 -0.5953 -0.5966
vn 0.0903 -0.9782 -0.1872
vn 0.6730 0.2838 -0.6831
vn -0.7232 0.0426 0.6893
vn 0.3082 0.9367 -0.1662
vn -0.2050 -0.9777 0.0462
vn -0.2183 0.9008 0.3754
vn 0.7197 0.1535 -0.6771
vn 0.2948 -0.8328 -0.4685
vn -0.6308 -0.6268 0.4573
vn 0.5579 0.7650 -0.3217
vn 0.6592 -0.3803 -0.6487
vn -0.3165 -0.9461 -0.0687
vn -0.5594 -0.8092 0.1798
vn -0.4402 0.7030 0.5586
vn -0.0075 0.9723 0.2338
vn 0.3667 0.9297 0.0346
vn -0.8218 -0.2973 0.4861
vn 0.8352 0.0933 -0.5420
vn -0.6848 0.4338 0.5855
vn 0.6746 0.6699 -0.3101
vn 0.6369 -0.6414 -0.4277
vn 0.6299 0.7470 -0.2127
vn -0.7192 -0.6582 0.2225
vn -0.4801 -0.8771 0.0108
vn 0.2960 -0.8896 -0.3478
vn -0.1704 -0.9637 -0.2056
vn -0.8279 0.1654 0.5359
vn 0.8252 -0.3433 -0.4486
vn 0.8840 0.2267 -0.4089
vn 0.4437 -0.5348 0.7191
vn 0.4614 -0.3699 0.8064
vn 0.4090 -0.4066 0.8170
vn 0.4036 -0.2321 0.8850
vn 0.6655 -0.7382 -0.1106
vn 0.1782 0.9690 0.1710
vn 0.3126 -0.3109 0.8976
vn 0.4349 -0.2969 0.8501
vn -0.2506 0.8917 0.3768
vn -0.8730 -0.2512 0.4180
vn 0.6096 -0.2149 0.7630
vn 0.4789 -0.2941 0.8272
vn -0.5983 0.5881 0.5443
vn 0.3189 -0.2033 0.9257
vn 0.0233 0.0503 0.9985
vn 0.0630 0.1795 0.9817
vn 0.5539 -0.1976 0.8088
vn 0.5828 -0.1045 0.8058
vn 0.5292 0.0712 0.8455
s 1
f 3//1 4//2 5//3
f 5//3 4//2 7//4
f 5//3 11//5 12//6
f 7//4 11//5 5//3
f 15//7 8//8 6//9
f 16//10 5//3 12//6
f 17//11 2//12 1//13
f 18//14 19//15 9//16
f 9//16 19//15 1//13
f 19//15 17//11 1//13
f 6//9 2//12 17//11
f 20//17 6//9 17//11
f 10//18 21//19 9//20
f 15//7 6//9 20//17
f 10//18 22//21 21//19
f 22//21 10//18 14//22
f 13//23 15//7 23//24
f 21//19 24//25 9//20
f 13//23 23//24 14//22
f 21//19 25//26 24//25
f 25//26 19//15 18//14
f 23//24 15//7 20//17
f 14//22 23//24 22//21
f 26//27 17//11 19//15
f 20//17 28//28 23//24
f 17//11 27//29 20//17
f 25//26 29//30 19//15
f 26//27 19//15 29//30
f 23//24 28//28 22//21
f 20//17 30//31 28//28
f 27//29 17//11 26//27
f 31//32 22//21 28//28
f 25//26 32//33 29//30
f 30//31 20//17 27//29
f 32//33 21//19 22//21
f 26//27 29//30 32//33
f 33//34 28//28 40//35
f 28//28 30//31 40//35
f 25//26 21//19 32//33
f 22//21 35//36 32//33
f 26//27 36//37 27//29
f 30//31 37//38 40//35
f 32//33 38//39 26//27
f 38//39 34//40 26//27
f 31//32 35//36 22//21
f 34//40 36//37 26//27
f 37//38 30//31 27//29
f 32//33 39//41 38//39
f 33//34 31//32 28//28
f 27//29 36//37 37//38
f 32//33 35//36 39//41
f 37//38 42//42 40//35
f 31//32 43//43 35//36
f 33//34 43//43 31//32
f 44//44 36//37 34//40
f 33//34 40//35 41//45
f 39//41 45//46 38//39
f 46//47 34//40 38//39
f 39//41 35//36 43//43
f 36//37 47//48 37//38
f 47//48 36//37 44//44
f 33//34 41//45 43//43
f 39//41 48//49 45//46
f 39//41 43//43 48//49
f 44//44 34//40 46//47
f 46//47 38//39 55//50
f 37//38 47//48 42//42
f 45//46 55//50 38//39
f 44//44 49//51 47//48
f 50//52 47//48 49//51
f 51//53 41//45 40//35
f 46//47 49//51 44//44
f 48//49 43//43 52//54
f 43//43 41//45 52//54
f 51//53 40//35 42//42
f 52//54 53//55 48//49
f 47//48 54//56 42//42
f 47//48 50//52 54//56
f 45//46 48//49 56//57
f 45//46 56//57 55//50
f 52//54 41//45 51//53
f 42//42 54//56 59//58
f 58//59 56//57 48//49
f 55//50 57//60 46//47
f 48//49 53//55 58//59
f 51//53 42//42 59//58
f 58//59 53//55 60//61
f 50//52 61//62 54//56
f 49//51 62//63 50//52
f 59//58 52//54 51//53
f 63//64 46//47 57//60
f 55//50 56//57 57//60
f 49//51 46//47 64//65
f 54//56 65//66 59//58
f 66//67 56//57 67//68
f 56//57 66//67 57//60
f 46//47 63//64 64//65
f 64//65 62//63 49//51
f 68//69 69//70 70//71
f 71//72 70//71 69//70
f 57//60 72//73 63//64
f 53//55 52//54 73//74
f 61//62 50//52 62//63
f 71//72 75//75 74//76
f 71//72 74//76 70//71
f 76//77 52//54 59//58
f 54//56 77//78 65//66
f 61//62 77//78 54//56
f 58//59 67//68 56//57
f 66//67 67//68 78//79
f 60//61 67//68 58//59
f 57//60 66//67 72//73
f 79//80 71//72 69//70
f 53//55 73//74 60//61
f 76//77 73//74 52//54
f 80//81 76//77 59//58
f 71//72 81//82 82//83
f 65//66 80//81 59//58
f 71//72 82//83 83//84
f 84//85 85//86 79//80
f 71//72 79//80 81//82
f 85//86 81//82 79//80
f 85//86 86//87 81//82
