# Blender v2.78 (sub 0) OBJ File: 'exporter.blend'
# www.blender.org
o FJ3029.obj_grp1.1671
v -0.394111 -0.488822 5.968817
v -0.393350 -0.488641 5.969309
v -0.391905 -0.490191 5.971296
v -0.394617 -0.487022 5.969446
v -0.385202 -0.491688 5.970436
v -0.377135 -0.487463 5.952845
v -0.390293 -0.485982 5.974545
v -0.394065 -0.486914 5.969396
v -0.386392 -0.481800 5.971573
v -0.389806 -0.486548 5.974013
v -0.383745 -0.488954 5.972600
v -0.367515 -0.492556 5.957009
v -0.376794 -0.486965 5.953723
v -0.388253 -0.487743 5.975865
v -0.390816 -0.486072 5.975263
v -0.372216 -0.481302 5.954206
v -0.366347 -0.492949 5.956701
v -0.367592 -0.487917 5.948455
v -0.344245 -0.491680 5.942284
v -0.340482 -0.483658 5.943623
v -0.345104 -0.485637 5.939353
v -0.339551 -0.487358 5.948089
v -0.340122 -0.489847 5.945892
v -0.339839 -0.487909 5.943723
v -0.339957 -0.485511 5.944084
v -0.340266 -0.489632 5.945789
v -0.339839 -0.487909 5.943723
v -0.340006 -0.487646 5.947479
v -0.340328 -0.483939 5.943736
v -0.340614 -0.484134 5.947291
v -0.345072 -0.481726 5.948043
v -0.340614 -0.484134 5.947291
v -0.340614 -0.484134 5.947291
vn -0.8041 -0.5919 0.0554
vn -0.4697 -0.8168 0.3350
vn -0.7633 -0.4445 0.4687
vn 0.0096 -0.9190 0.3941
vn -0.2641 -0.4668 0.8440
vn -0.5587 0.6730 0.4846
vn -0.0532 0.8749 0.4814
vn -0.6804 0.6188 -0.3925
vn -0.2875 -0.8761 -0.3869
vn -0.2030 -0.9306 -0.3047
vn 0.3492 -0.2241 0.9098
vn -0.2216 -0.9264 -0.3043
vn -0.5607 0.3663 -0.7426
vn -0.6414 0.2522 -0.7246
vn 0.4059 0.4544 0.7930
vn 0.1509 0.5362 0.8305
vn -0.0643 -0.9978 -0.0176
vn 0.1973 -0.8052 -0.5592
vn -0.2439 0.8693 -0.4298
vn -0.4185 -0.3155 -0.8517
vn 0.4050 0.7030 -0.5846
vn 0.0798 0.3007 -0.9504
vn 0.4376 -0.2054 0.8754
vn 0.4938 -0.8457 0.2023
vn 0.6543 -0.3082 -0.6906
vn 0.6685 0.0767 -0.7397
vn 0.9827 -0.1766 0.0560
vn 0.9989 0.0162 0.0434
vn 0.9992 -0.0002 0.0404
vn 0.0995 0.9931 0.0617
vn 0.4881 0.8631 0.1296
vn 0.9873 0.1431 0.0691
vn 0.9706 0.2338 0.0574
vn 0.3058 0.3659 0.8790
s 1
f 2//1 3//2 4//3
f 3//2 5//4 7//5
f 3//2 7//5 4//3
f 10//6 9//7 8//8
f 6//9 3//2 1//10
f 7//5 5//4 11//11
f 12//12 3//2 6//9
f 5//4 3//2 12//12
f 8//8 13//13 1//14
f 14//15 9//7 15//16
f 14//15 11//11 9//7
f 11//11 5//4 17//17
f 12//12 6//9 19//18
f 19//18 17//17 12//12
f 13//13 8//8 16//19
f 16//19 8//8 9//7
f 18//20 13//13 16//19
f 20//21 16//19 9//7
f 19//18 18//20 21//22
f 19//18 6//9 18//20
f 11//11 22//23 9//7
f 17//17 23//24 11//11
f 22//23 11//11 23//24
f 23//24 17//17 19//18
f 21//22 18//20 16//19
f 21//22 16//19 20//21
f 24//25 19//18 21//22
f 25//26 21//22 20//21
f 23//24 19//18 24//25
f 26//27 27//28 28//29
f 21//22 25//26 24//25
f 20//21 31//30 32//31
f 28//29 27//28 29//32
f 30//33 28//29 29//32
f 22//23 31//30 9//7
f 33//34 31//30 22//23
f 9//7 31//30 20//21
