# Blender v2.78 (sub 0) OBJ File: 'exporter.blend'
# www.blender.org
o FJ3116.obj_grp1.1757
v -0.424193 -0.399146 5.278542
v -0.425140 -0.399327 5.279152
v -0.424576 -0.397900 5.280456
v -0.425140 -0.399327 5.279152
v -0.424495 -0.400093 5.280455
v -0.424044 -0.398565 5.279783
v -0.424255 -0.400457 5.279106
v -0.425299 -0.399858 5.280000
v -0.425140 -0.399327 5.279152
v -0.424913 -0.399546 5.280085
v -0.424712 -0.398076 5.280789
v -0.424807 -0.399985 5.280702
v -0.425140 -0.399327 5.279152
v -0.424053 -0.399038 5.278948
v -0.424224 -0.399375 5.278747
v -0.413497 -0.406740 5.280890
v -0.423313 -0.398380 5.279498
v -0.413885 -0.405585 5.283612
v -0.413885 -0.405585 5.283612
v -0.416793 -0.401918 5.281621
v -0.413497 -0.406740 5.280890
v -0.431267 -0.429700 5.289717
v -0.411359 -0.423483 5.289150
v -0.412041 -0.423892 5.288016
v -0.431098 -0.430100 5.288239
v -0.431096 -0.430448 5.289304
v -0.431238 -0.430067 5.288322
v -0.431384 -0.430712 5.288589
v -0.431417 -0.430288 5.289961
v -0.430572 -0.430885 5.288619
v -0.431051 -0.430170 5.289780
v -0.431207 -0.429682 5.289762
v -0.431123 -0.431069 5.290044
v -0.408190 -0.424610 5.290720
v -0.431448 -0.430296 5.290102
v -0.430505 -0.431368 5.289679
v -0.430778 -0.431427 5.288194
v -0.430814 -0.431245 5.288495
v -0.428568 -0.431721 5.289592
v -0.431039 -0.430002 5.289748
v -0.431108 -0.431168 5.289834
v -0.430561 -0.431532 5.289950
v -0.430820 -0.431363 5.288410
v -0.416552 -0.426877 5.287696
v -0.414894 -0.425894 5.287978
v -0.419196 -0.428446 5.289290
v -0.411297 -0.406917 5.283096
v -0.398989 -0.419286 5.285017
v -0.407427 -0.424651 5.290299
v -0.413497 -0.406740 5.280890
v -0.402927 -0.418773 5.284082
v -0.424503 -0.400680 5.279951
v -0.402927 -0.418773 5.284082
v -0.398412 -0.418361 5.286166
v -0.399844 -0.419377 5.287931
v -0.401787 -0.416369 5.285866
v -0.399844 -0.419377 5.287931
v -0.400190 -0.422285 5.288220
v -0.404235 -0.425794 5.287885
v -0.400213 -0.423260 5.289997
v -0.395361 -0.424043 5.285631
v -0.391870 -0.425694 5.287525
v -0.398622 -0.418859 5.286148
v -0.382695 -0.424924 5.287001
v -0.400019 -0.423228 5.289976
v -0.347845 -0.323191 5.339332
v -0.347551 -0.323040 5.340029
v -0.347844 -0.323215 5.339362
v -0.346535 -0.323413 5.337571
v -0.348917 -0.323589 5.338753
v -0.348086 -0.323059 5.339775
v -0.348222 -0.323717 5.340043
v -0.332709 -0.316263 5.331310
v -0.347403 -0.324383 5.338540
v -0.347403 -0.324383 5.338540
v -0.347345 -0.324851 5.339478
v -0.347902 -0.323924 5.339572
v -0.347345 -0.324851 5.339478
v -0.347092 -0.324688 5.340136
v -0.347779 -0.323855 5.339879
v -0.347439 -0.324288 5.338425
v -0.344208 -0.324144 5.338087
v -0.347098 -0.324387 5.339939
v -0.347403 -0.324383 5.338540
v -0.347091 -0.324887 5.339549
v -0.347092 -0.324688 5.340136
v -0.346602 -0.325159 5.339403
v -0.347013 -0.325070 5.340189
v -0.346856 -0.323830 5.340516
v -0.347650 -0.323799 5.340183
v -0.347650 -0.323799 5.340183
v -0.347092 -0.324688 5.340136
v -0.346664 -0.323948 5.340652
v -0.391567 -0.424523 5.285444
v -0.395361 -0.424043 5.285631
v -0.395998 -0.420758 5.285772
v -0.395370 -0.423871 5.285750
v -0.399119 -0.421173 5.287569
v -0.392159 -0.424089 5.285686
v -0.404235 -0.425794 5.287885
v -0.412019 -0.423901 5.288025
v -0.399883 -0.422318 5.286570
v -0.411421 -0.423473 5.289246
v -0.400188 -0.422291 5.288213
v -0.399883 -0.422318 5.286570
v -0.395361 -0.424043 5.285631
v -0.411421 -0.423473 5.289246
v -0.390790 -0.423159 5.288495
v -0.396197 -0.420636 5.287790
v -0.396197 -0.420636 5.287790
v -0.390790 -0.423159 5.288495
v -0.384923 -0.423644 5.286632
v -0.329856 -0.316247 5.332150
v -0.337750 -0.319406 5.333657
v -0.328095 -0.314169 5.331429
v -0.334221 -0.318337 5.334138
v -0.391289 -0.422705 5.285940
v -0.393089 -0.425819 5.287744
v -0.378849 -0.425603 5.282087
v -0.392693 -0.427669 5.287463
v -0.333810 -0.315209 5.332483
v -0.333721 -0.315805 5.333000
v -0.327542 -0.313820 5.329127
v -0.327644 -0.314287 5.331058
v -0.337750 -0.319406 5.333657
v -0.326663 -0.316258 5.328466
v -0.324882 -0.315415 5.328440
v -0.382586 -0.424895 5.286899
v -0.383027 -0.423472 5.286429
v -0.373270 -0.428174 5.281505
v -0.320695 -0.314750 5.326052
v -0.325443 -0.316537 5.330324
v -0.321419 -0.313812 5.329151
v -0.321419 -0.313812 5.329151
v -0.387984 -0.426053 5.287039
v -0.376489 -0.427323 5.284078
v -0.375678 -0.424886 5.284637
v -0.371199 -0.427027 5.283187
v -0.320695 -0.314750 5.326052
v -0.317359 -0.315910 5.327392
v -0.318958 -0.313047 5.325914
v -0.321007 -0.313606 5.329274
v -0.325443 -0.316537 5.330324
v -0.364191 -0.430152 5.276439
v -0.305996 -0.319000 5.320825
v -0.313019 -0.317705 5.324844
v -0.358144 -0.428843 5.273934
v -0.308493 -0.316412 5.322953
v -0.301167 -0.320232 5.322385
v -0.308493 -0.316412 5.322953
v -0.302040 -0.322534 5.319046
v -0.300966 -0.321643 5.318781
v -0.358899 -0.428540 5.276079
v -0.357937 -0.429776 5.277512
v -0.355428 -0.435025 5.273242
v -0.352057 -0.432439 5.270888
v -0.352113 -0.436349 5.272790
v -0.351576 -0.436182 5.268933
v -0.296640 -0.322907 5.318359
v -0.284942 -0.334441 5.315193
v -0.299009 -0.324414 5.317362
v -0.295581 -0.328302 5.317985
v -0.351067 -0.436477 5.268688
v -0.351898 -0.436559 5.272721
v -0.294035 -0.327407 5.314972
v -0.295473 -0.328419 5.317930
v -0.352033 -0.432536 5.270890
v -0.351414 -0.437605 5.270796
v -0.285249 -0.333207 5.313108
v -0.292195 -0.331190 5.316618
v -0.344825 -0.437076 5.267604
v -0.344825 -0.437076 5.267604
v -0.344825 -0.437076 5.267604
v -0.286937 -0.336622 5.313012
v -0.285758 -0.335403 5.315375
v -0.330044 -0.450764 5.253849
v -0.330044 -0.450764 5.253849
v -0.329359 -0.449524 5.258872
v -0.284425 -0.335047 5.313891
v -0.284795 -0.335104 5.313268
v -0.285440 -0.336156 5.313751
v -0.285376 -0.336016 5.314409
v -0.332435 -0.446658 5.257839
v -0.313303 -0.466194 5.245183
v -0.331874 -0.452480 5.256712
v -0.329359 -0.449524 5.258872
v -0.332435 -0.446658 5.257839
v -0.344825 -0.437076 5.267604
v -0.309365 -0.467814 5.239392
v -0.312270 -0.466613 5.244243
v -0.309195 -0.464599 5.240958
v -0.315278 -0.460303 5.244178
v -0.308580 -0.462559 5.243042
v -0.306514 -0.464782 5.242457
v -0.307556 -0.467519 5.244833
v -0.273237 -0.392278 5.293836
v -0.273531 -0.391662 5.293050
v -0.272105 -0.390215 5.291358
v -0.272545 -0.392642 5.293003
v -0.272901 -0.392008 5.293845
v -0.272288 -0.392444 5.294301
v -0.273162 -0.392292 5.293800
v -0.272778 -0.392782 5.293048
v -0.272317 -0.392479 5.294363
v -0.256202 -0.367389 5.317891
v -0.258150 -0.372914 5.314307
v -0.253738 -0.365377 5.319963
v -0.310537 -0.468450 5.242635
v -0.271592 -0.390580 5.291140
v -0.272770 -0.392172 5.292063
v -0.272071 -0.392462 5.292110
v -0.272465 -0.391598 5.292463
v -0.272294 -0.391828 5.293752
v -0.272259 -0.392171 5.293378
v -0.271945 -0.392931 5.293518
v -0.270319 -0.391978 5.293085
v -0.257469 -0.369582 5.313394
v -0.255953 -0.370477 5.313288
v -0.257581 -0.369573 5.313168
v -0.251352 -0.363079 5.319472
v -0.243697 -0.360714 5.325772
v -0.246388 -0.359245 5.325467
v -0.244787 -0.360574 5.323718
v -0.315169 -0.460244 5.243572
v -0.309424 -0.463922 5.240891
v -0.231846 -0.353138 5.333751
v -0.242410 -0.356762 5.328777
v -0.241144 -0.356521 5.329850
v -0.231154 -0.353317 5.336568
v -0.239027 -0.358166 5.328008
v -0.239089 -0.358397 5.329479
v -0.213769 -0.346441 5.346857
v -0.298070 -0.486546 5.229661
v -0.213634 -0.346958 5.346646
v -0.212840 -0.345766 5.346366
v -0.231846 -0.353138 5.333751
v -0.212697 -0.345744 5.346143
v -0.214537 -0.344907 5.347946
v -0.213188 -0.345195 5.347277
v -0.297796 -0.482676 5.226370
v -0.298674 -0.483867 5.226616
v -0.294737 -0.482292 5.227518
v -0.213247 -0.345603 5.346699
v -0.213873 -0.344970 5.347131
v -0.213878 -0.344492 5.346286
v -0.233277 -0.353249 5.334502
v -0.294510 -0.484236 5.230404
v -0.213180 -0.344554 5.346051
v -0.213433 -0.346234 5.345754
v -0.213874 -0.345871 5.345960
v -0.214206 -0.345693 5.347037
v -0.213714 -0.345132 5.347146
v -0.214972 -0.345466 5.346128
v -0.213611 -0.345210 5.347067
v -0.213805 -0.346341 5.346614
v -0.212705 -0.345737 5.346145
v -0.213170 -0.345220 5.347225
v -0.295700 -0.485061 5.226805
vn -0.3737 0.7252 -0.5783
vn -0.4753 0.6880 -0.5484
vn 0.1273 0.9610 -0.2454
vn -0.6607 0.4568 0.5957
vn -0.6979 0.4518 0.5557
vn -0.6859 0.4780 0.5487
vn -0.3944 -0.5846 -0.7090
vn -0.6597 -0.6878 -0.3029
vn -0.7061 -0.5330 -0.4662
vn -0.1520 -0.0780 -0.9853
vn -0.0468 -0.0712 -0.9964
vn -0.2238 -0.6008 -0.7674
vn 0.3355 0.8896 -0.3101
vn -0.2108 0.0932 0.9731
vn -0.2934 -0.0471 0.9548
vn -0.2460 -0.0443 0.9683
vn 0.4364 0.7758 0.4558
vn 0.4517 0.3683 -0.8126
vn 0.4480 0.2962 -0.8435
vn 0.4287 0.2310 -0.8734
vn -0.2538 0.8571 0.4483
vn -0.0846 0.9539 0.2879
vn -0.0479 0.7077 -0.7049
vn -0.5530 0.4160 -0.7219
vn -0.9802 0.1831 -0.0748
vn -0.9292 0.3588 -0.0882
vn -0.9864 0.1573 -0.0470
vn -0.9474 0.3147 -0.0590
vn -0.9337 -0.0370 -0.3563
vn -0.9287 -0.0287 -0.3697
vn -0.9317 -0.0339 -0.3618
vn 0.0638 0.0009 0.9980
vn -0.0204 0.1450 0.9892
vn -0.9698 -0.2326 -0.0727
vn -0.4813 -0.1392 -0.8654
vn -0.4334 -0.6773 0.5945
vn -0.4646 -0.6665 0.5830
vn -0.4362 -0.6799 0.5895
vn 0.4715 0.3345 -0.8160
vn -0.0479 0.0632 -0.9968
vn 0.0772 -0.4987 -0.8633
vn 0.3104 -0.9414 -0.1317
vn 0.1883 -0.7197 -0.6682
vn 0.2513 -0.6969 -0.6717
vn 0.4945 0.7066 0.5062
vn 0.3624 0.3642 -0.8579
vn 0.0803 -0.6430 0.7616
vn 0.1180 -0.2954 0.9481
vn -0.1095 -0.3439 -0.9326
vn 0.1581 -0.1413 -0.9773
vn 0.6338 0.5662 -0.5270
vn 0.4206 0.7345 0.5325
vn 0.5154 0.6864 0.5131
vn -0.0596 0.1753 0.9827
vn -0.1065 0.5498 0.8285
vn 0.0079 0.0947 -0.9955
vn 0.0196 0.8036 0.5949
vn -0.0372 0.9467 -0.3198
vn 0.0994 -0.6130 0.7838
vn 0.4021 0.7678 0.4988
vn 0.1485 0.0897 0.9848
vn 0.1364 -0.2724 0.9525
vn -0.5837 0.6899 -0.4281
vn -0.6235 0.6072 -0.4925
vn -0.4774 0.1664 -0.8628
vn -0.3514 -0.4702 -0.8096
vn -0.3767 -0.4786 -0.7931
vn -0.3051 -0.4879 -0.8178
vn -0.8481 -0.4921 -0.1964
vn -0.7634 -0.4943 0.4157
vn -0.7633 -0.4979 0.4117
vn -0.7638 -0.4943 0.4152
vn 0.0718 -0.9973 -0.0174
vn 0.0630 -0.9977 -0.0239
vn 0.0492 -0.9987 -0.0145
vn -0.0261 0.4828 0.8754
vn -0.3920 0.2345 0.8896
vn 0.0051 0.5262 0.8503
vn -0.4616 -0.3291 0.8238
vn 0.0273 0.2349 -0.9716
vn -0.0582 -0.3877 -0.9200
vn 0.4811 0.8308 -0.2798
vn -0.5636 -0.8229 -0.0719
vn -0.6383 -0.7577 -0.1357
vn -0.7605 -0.5966 -0.2564
vn -0.2048 -0.6258 -0.7526
vn -0.0592 -0.5587 -0.8273
vn -0.1111 -0.3949 -0.9120
vn -0.1079 0.9935 -0.0362
vn -0.2210 -0.0492 -0.9740
vn 0.0237 0.5132 0.8579
vn 0.3001 0.8032 0.5146
vn 0.4926 0.8703 -0.0039
vn 0.2714 0.7121 0.6475
vn 0.1643 0.9715 -0.1711
vn 0.5468 -0.7602 0.3510
vn 0.4347 -0.8958 -0.0929
vn 0.5762 -0.5510 0.6036
vn -0.0499 -0.6502 -0.7582
vn -0.2114 -0.5144 -0.8311
vn 0.5868 -0.7358 0.3380
vn 0.4111 -0.1464 0.8997
vn 0.3008 0.2523 0.9197
vn 0.5485 -0.2836 0.7866
vn 0.5567 -0.2427 0.7945
vn 0.1901 0.7401 0.6451
vn 0.1308 0.2929 -0.9471
vn -0.1016 -0.7327 -0.6730
vn -0.5508 0.3754 -0.7454
vn -0.4591 0.8864 -0.0591
vn -0.4625 0.8866 0.0030
vn -0.4857 0.8741 -0.0128
vn -0.4657 0.7363 -0.4909
vn -0.1823 0.9510 0.2498
vn -0.3137 -0.1961 -0.9290
vn -0.4103 0.0874 -0.9078
vn 0.0368 -0.9741 -0.2233
vn 0.0393 0.8265 -0.5616
vn 0.2743 0.3408 0.8992
vn 0.2349 0.3668 0.9001
vn -0.4790 -0.7835 -0.3959
vn -0.1642 -0.3926 -0.9049
vn -0.3163 -0.5796 -0.7510
vn -0.2733 -0.6759 -0.6844
vn -0.3217 -0.0384 -0.9461
vn 0.3315 0.0824 0.9398
vn 0.4281 -0.2520 0.8679
vn 0.5282 -0.2278 0.8180
vn 0.4279 -0.3959 0.8125
vn 0.0203 -0.8048 0.5932
vn -0.0372 -0.9620 0.2704
vn 0.3456 0.6998 0.6251
vn 0.2994 -0.2253 0.9271
vn -0.3451 0.1932 -0.9185
vn -0.0523 0.9030 -0.4264
vn 0.0710 -0.6475 0.7587
vn 0.2601 0.6831 0.6825
vn 0.3573 -0.2317 0.9048
vn -0.5257 -0.2382 -0.8167
vn -0.5185 -0.2162 -0.8273
vn -0.3962 -0.8894 -0.2280
vn -0.3127 0.2198 -0.9241
vn 0.4188 0.8516 0.3152
vn 0.5227 0.4493 0.7245
vn -0.4257 0.1177 -0.8972
vn -0.1464 0.5142 -0.8451
vn -0.0101 0.5764 -0.8171
vn -0.0002 0.6407 -0.7678
vn 0.4351 0.8909 0.1307
vn 0.5149 0.3125 0.7983
vn -0.4794 -0.8694 -0.1194
vn 0.2568 -0.2380 0.9367
vn -0.5851 -0.8057 -0.0923
vn -0.5397 0.1258 -0.8324
vn 0.1865 0.7332 -0.6539
vn 0.5520 0.7695 -0.3213
vn 0.8086 0.1044 0.5790
vn -0.6264 -0.5907 -0.5085
vn -0.6740 -0.5139 -0.5307
vn -0.3256 -0.8389 0.4361
vn -0.0910 0.3424 -0.9351
vn 0.0150 -0.4445 0.8957
vn 0.5933 0.7790 0.2028
vn -0.4072 -0.8582 0.3125
vn 0.6180 0.4706 -0.6297
vn -0.2702 -0.6259 0.7316
vn 0.5849 0.7877 0.1933
vn -0.2069 -0.8424 -0.4976
vn 0.2045 -0.6182 0.7589
vn -0.5147 0.1055 -0.8509
vn 0.0213 0.6797 -0.7332
vn 0.9126 0.3678 -0.1786
vn 0.7564 -0.1828 -0.6281
vn 0.5779 -0.8151 -0.0419
vn -0.0511 -0.8861 0.4607
vn 0.6430 0.2202 0.7335
vn 0.6889 0.4216 0.5896
vn 0.1296 0.7767 -0.6164
vn 0.3937 0.8562 -0.3345
vn -0.1080 -0.7501 0.6525
vn -0.6730 -0.7132 -0.1962
vn -0.6953 -0.4612 -0.5512
vn 0.6503 0.7474 0.1360
vn 0.6300 0.7644 0.1371
vn 0.6590 0.7448 0.1048
vn -0.8432 -0.4219 -0.3332
vn -0.4710 0.1855 -0.8624
vn -0.7177 -0.6417 -0.2706
vn 0.0039 0.6322 -0.7748
vn -0.5132 0.1906 -0.8368
vn 0.5749 0.8111 -0.1078
vn 0.7919 0.5584 0.2472
vn 0.4642 -0.3627 0.8080
vn -0.7721 0.6060 0.1913
vn -0.0011 0.7862 0.6180
vn -0.7463 0.3835 0.5440
vn -0.9366 -0.0675 -0.3438
vn -0.9221 -0.0485 -0.3840
vn -0.9304 -0.0878 -0.3559
vn -0.4258 -0.8377 0.3420
vn -0.3796 -0.8636 0.3319
vn 0.0192 -0.7462 0.6655
vn -0.8196 0.2523 0.5144
vn -0.6864 -0.7206 0.0975
vn 0.1203 -0.1191 -0.9856
vn -0.1881 -0.3814 -0.9051
vn -0.0721 0.3867 -0.9194
vn -0.0934 -0.4515 -0.8874
vn -0.3322 -0.8870 0.3207
vn 0.5702 -0.7835 -0.2469
vn -0.0039 -0.9061 -0.4231
vn -0.1469 -0.9733 -0.1763
vn 0.2758 0.6350 -0.7216
vn 0.7652 -0.0876 -0.6378
vn -0.0997 -0.8211 0.5620
vn 0.0596 -0.9686 -0.2415
vn -0.7890 0.6043 -0.1112
vn -0.6324 0.7746 -0.0043
vn 0.4785 -0.8690 -0.1260
vn -0.1825 -0.5050 0.8436
vn 0.3184 0.5505 -0.7718
vn -0.1091 0.8673 -0.4857
vn 0.6480 0.0649 -0.7589
vn -0.0865 0.9090 -0.4078
vn -0.7582 -0.1699 0.6295
vn -0.5503 -0.3823 0.7423
vn -0.6765 0.1607 0.7187
vn 0.5282 -0.7977 -0.2910
vn 0.5104 -0.8464 -0.1519
vn -0.0883 0.8465 -0.5250
vn -0.4033 -0.1975 0.8935
vn -0.1693 -0.6664 0.7261
vn 0.6127 -0.6207 -0.4892
vn 0.6213 -0.0475 -0.7821
vn 0.3671 0.4230 -0.8284
vn 0.5463 -0.7181 -0.4311
vn -0.5472 -0.3849 0.7432
vn -0.5345 -0.0699 0.8423
vn -0.0788 0.2415 -0.9672
vn -0.5265 -0.3513 -0.7742
vn 0.0284 0.5388 -0.8419
vn -0.2184 -0.9686 0.1190
vn 0.7953 0.3210 -0.5143
vn -0.1018 0.5963 -0.7963
vn -0.1856 0.9706 -0.1535
vn -0.5696 0.7136 0.4078
vn 0.8485 -0.3646 0.3835
vn 0.5531 -0.0156 -0.8330
vn 0.5703 -0.6175 0.5418
vn 0.4690 -0.5720 -0.6729
s 1
f 1//1 2//2 3//3
f 4//4 5//5 6//6
f 7//7 8//8 9//9
f 7//7 13//10 14//11
f 14//11 16//12 7//7
f 17//13 1//1 3//3
f 18//14 11//15 12//16
f 16//12 8//8 7//7
f 17//13 3//3 19//17
f 20//18 15//19 17//20
f 22//21 23//22 24//23
f 22//21 24//23 25//24
f 28//25 29//26 27//27
f 27//27 29//26 32//28
f 30//29 33//30 31//31
f 23//22 22//21 34//32
f 34//32 22//21 35//33
f 26//34 25//24 37//35
f 38//36 39//37 40//38
f 15//19 20//18 21//39
f 37//35 25//24 44//40
f 45//41 46//42 43//43
f 46//42 39//44 43//43
f 47//45 17//13 19//17
f 48//46 21//39 20//18
f 49//47 35//33 36//48
f 49//47 36//48 46//42
f 34//32 35//33 49//47
f 50//49 51//49 52//49
f 21//39 48//46 53//50
f 20//18 54//51 48//46
f 47//45 19//17 55//52
f 56//53 47//45 55//52
f 18//14 12//16 57//54
f 12//16 58//55 57//54
f 24//23 44//40 25//24
f 44//40 24//23 59//56
f 60//57 58//55 23//22
f 23//22 61//58 24//23
f 46//42 62//59 49//47
f 45//41 62//59 46//42
f 63//60 56//53 55//52
f 49//47 62//59 64//61
f 60//57 23//22 34//32
f 64//61 65//62 49//47
f 69//63 68//64 73//65
f 70//66 69//67 74//68
f 75//69 76//69 77//69
f 78//70 79//71 80//72
f 83//73 84//74 82//75
f 67//76 90//77 89//78
f 91//79 92//79 93//79
f 48//46 94//80 53//50
f 53//50 94//80 95//81
f 48//46 54//51 96//82
f 97//83 98//84 10//85
f 99//86 100//87 101//88
f 102//89 103//89 104//89
f 105//90 106//90 107//90
f 58//55 108//91 57//54
f 109//92 63//60 55//52
f 96//82 54//51 110//93
f 109//92 55//52 111//94
f 110//93 112//95 96//82
f 58//55 60//57 108//91
f 87//96 82//97 113//98
f 82//97 81//99 114//100
f 87//96 113//98 88//101
f 116//102 115//103 89//104
f 88//105 116//102 89//104
f 111//94 112//106 109//92
f 117//107 96//82 112//95
f 48//46 117//107 94//80
f 99//86 118//108 100//87
f 68//64 121//109 73//65
f 67//110 122//111 66//112
f 123//113 67//76 124//114
f 69//63 73//65 125//115
f 73//65 126//116 125//115
f 82//97 114//100 127//117
f 124//114 67//76 89//78
f 147//118 117//107 112//95
f 128//119 129//120 65//62
f 128//119 65//62 64//61
f 130//121 120//122 119//123
f 99//86 119//124 118//108
f 113//98 82//97 127//117
f 131//125 126//116 73//65
f 116//102 133//126 115//103
f 134//127 116//128 132//129
f 119//123 94//80 117//107
f 130//121 136//130 135//131
f 136//130 64//61 62//59
f 119//123 117//107 147//118
f 137//132 129//120 128//119
f 137//132 128//119 138//133
f 138//133 64//61 136//130
f 121//109 123//113 73//65
f 123//113 139//134 73//65
f 123//113 124//114 141//135
f 139//134 123//113 141//135
f 113//98 127//117 140//136
f 140//136 142//137 143//138
f 147//118 112//95 137//132
f 144//139 130//121 119//123
f 145//140 126//116 131//125
f 126//116 145//140 146//141
f 141//135 145//142 139//134
f 142//137 141//135 124//114
f 147//118 144//139 119//123
f 142//137 148//143 141//135
f 149//144 148//143 142//137
f 145//140 151//145 146//141
f 152//146 141//147 150//148
f 146//141 140//136 127//117
f 149//144 142//137 140//136
f 153//149 147//118 137//132
f 154//150 137//132 138//133
f 153//149 137//132 154//150
f 144//139 155//151 130//121
f 157//152 136//130 130//121
f 157//152 130//121 155//151
f 162//153 140//136 146//141
f 144//139 147//118 158//154
f 153//149 156//155 147//118
f 154//150 138//133 136//130
f 159//156 152//146 150//148
f 149//144 159//156 148//143
f 160//157 140//136 162//153
f 160//157 149//144 140//136
f 146//141 151//145 161//158
f 151//145 145//140 152//146
f 155//151 144//139 163//159
f 155//151 164//160 157//152
f 136//130 157//152 154//150
f 151//145 152//146 165//161
f 162//153 146//141 161//158
f 160//157 162//153 166//162
f 154//150 167//163 153//149
f 155//151 168//164 164//160
f 169//165 165//161 152//146
f 170//166 160//157 166//162
f 154//150 173//167 167//163
f 169//165 174//168 165//161
f 162//153 161//158 174//168
f 174//168 170//166 162//153
f 165//161 174//168 161//158
f 175//169 170//166 174//168
f 159//156 169//165 152//146
f 159//156 160//157 169//165
f 160//157 159//156 149//144
f 175//169 160//157 170//166
f 176//170 158//154 147//118
f 147//118 156//155 177//171
f 169//165 160//157 179//172
f 174//168 169//165 180//173
f 181//174 174//168 180//173
f 182//175 175//169 174//168
f 180//173 169//165 179//172
f 181//174 182//175 174//168
f 181//174 180//173 160//157
f 175//169 181//174 160//157
f 178//176 171//177 154//150
f 183//178 177//171 156//155
f 183//178 156//155 172//179
f 157//152 184//180 154//150
f 155//151 163//159 185//181
f 185//181 184//182 168//164
f 186//183 187//184 188//185
f 184//182 164//160 168//164
f 185//181 163//159 189//186
f 176//170 189//187 158//154
f 190//188 184//182 185//181
f 189//186 190//188 185//181
f 177//171 183//178 191//189
f 189//187 176//170 192//190
f 191//189 183//178 193//191
f 194//192 193//191 187//184
f 186//183 194//192 187//184
f 154//150 184//180 195//193
f 178//176 154//150 195//193
f 195//193 194//192 178//176
f 198//194 197//195 196//196
f 198//197 199//198 200//199
f 202//200 203//201 204//201
f 206//202 205//203 196//196
f 205//203 198//194 196//196
f 208//204 195//193 184//180
f 209//205 210//206 198//207
f 209//205 211//208 210//206
f 215//209 204//201 203//201
f 216//210 212//211 209//205
f 216//210 213//212 212//211
f 209//205 217//213 218//214
f 209//205 198//207 217//213
f 216//210 201//215 214//216
f 206//202 196//196 201//215
f 216//210 206//202 201//215
f 219//217 198//194 205//203
f 209//205 218//214 216//210
f 216//210 218//214 206//202
f 219//217 205//203 220//218
f 206//202 218//214 221//219
f 207//220 205//203 206//202
f 220//221 218//214 217//213
f 222//222 220//218 205//203
f 221//219 207//220 206//202
f 218//214 220//221 223//223
f 218//214 223//223 221//219
f 208//204 190//188 189//186
f 226//224 220//218 222//222
f 207//225 228//226 222//227
f 223//223 230//228 221//219
f 231//229 207//220 221//219
f 227//230 226//224 222//222
f 231//229 232//231 207//220
f 229//232 207//220 232//231
f 234//233 221//219 230//228
f 223//223 220//221 235//234
f 220//221 236//235 235//234
f 237//236 234//233 230//228
f 238//237 228//226 207//225
f 239//238 229//232 232//231
f 240//239 241//240 224//241
f 189//186 241//240 233//242
f 191//189 242//243 240//239
f 224//241 225//244 240//239
f 208//204 189//186 233//242
f 191//189 193//191 242//243
f 227//230 243//245 226//224
f 244//246 245//246 246//246
f 195//193 208//204 233//242
f 194//192 195//193 247//247
f 236//235 248//248 235//234
f 255//249 256//249 257//249
f 242//243 258//250 240//239
f 240//239 258//250 241//240
f 258//250 233//242 241//240
f 194//192 242//243 193//191
f 242//243 194//192 247//247
f 233//242 247//247 195//193
f 258//250 247//247 233//242
f 258//250 242//243 247//247
l 249 250
l 253 254
l 251 252
l 85 86
l 41 42
l 71 72
