# Blender v2.78 (sub 0) OBJ File: 'exporter.blend'
# www.blender.org
o FJ3123.obj_grp1.1764
v -0.116330 -0.660573 5.164163
v -0.144054 -0.683018 5.182922
v -0.145037 -0.676825 5.189002
v -0.146884 -0.684375 5.187298
v -0.146519 -0.686569 5.190784
v -0.144423 -0.677046 5.194041
v -0.146458 -0.681228 5.192537
v -0.144168 -0.684446 5.196806
v -0.139526 -0.675776 5.196268
v -0.139808 -0.681921 5.199565
v -0.114331 -0.664928 5.161070
v -0.143461 -0.688524 5.184268
v -0.141626 -0.691967 5.189416
v -0.143761 -0.689750 5.192968
v -0.113784 -0.657080 5.169985
v -0.133347 -0.677610 5.197182
v -0.134232 -0.684143 5.199308
v -0.138057 -0.690154 5.196472
v -0.112622 -0.659717 5.177189
v -0.136461 -0.690134 5.183301
v -0.134853 -0.692524 5.190767
v -0.131637 -0.689963 5.193685
v -0.105051 -0.663471 5.176876
v -0.106740 -0.674778 5.167049
v -0.109027 -0.657160 5.171402
v -0.103068 -0.669024 5.174969
v -0.110828 -0.659003 5.164264
v -0.106927 -0.658434 5.167725
v -0.105415 -0.660222 5.174213
v -0.103439 -0.672374 5.171549
v -0.110525 -0.672055 5.161828
v -0.108209 -0.663135 5.161737
v -0.105022 -0.667974 5.162739
v -0.102458 -0.663055 5.168457
v -0.102776 -0.669574 5.166906
vn -0.4732 0.6544 -0.5897
vn -0.7317 0.0090 -0.6816
vn -0.7876 0.6036 -0.1242
vn -0.9506 -0.0845 -0.2987
vn -0.9532 0.1839 0.2400
vn -0.6790 0.5733 0.4586
vn -0.9136 -0.3965 0.0904
vn -0.6588 -0.2043 0.7241
vn -0.2202 0.7069 0.6722
vn -0.2219 0.0835 0.9715
vn -0.2562 0.0990 -0.9615
vn -0.5645 -0.5846 -0.5828
vn -0.3760 -0.9242 -0.0672
vn -0.6075 -0.6933 0.3877
vn -0.2404 0.9693 -0.0516
vn -0.0873 -0.7322 0.6755
vn 0.2599 0.4263 0.8665
vn 0.0552 0.8051 0.5905
vn 0.3369 -0.1672 0.9266
vn -0.0549 -0.8330 -0.5505
vn 0.2307 -0.9710 0.0621
vn 0.5398 -0.6969 0.4721
vn 0.5134 -0.7816 -0.3544
vn 0.6754 0.3473 0.6505
vn 0.8838 -0.1658 0.4376
vn 0.0904 0.7819 -0.6168
vn 0.2586 0.9530 0.1580
vn 0.5122 0.8090 -0.2883
vn 0.6436 0.6472 0.4085
vn 0.8302 -0.5504 0.0885
vn 0.3379 0.3648 -0.8676
vn 0.0553 -0.5124 -0.8570
vn 0.6470 -0.1054 -0.7552
vn 0.9197 0.3590 -0.1589
vn 0.8946 -0.3109 -0.3210
s 1
f 1//1 2//2 3//3
f 3//3 2//2 4//4
f 7//5 6//6 3//3
f 3//3 4//4 7//5
f 5//7 7//5 4//4
f 7//5 8//8 6//6
f 8//8 7//5 5//7
f 9//9 6//6 10//10
f 10//10 6//6 8//8
f 11//11 12//12 2//2
f 4//4 12//12 5//7
f 12//12 4//4 2//2
f 5//7 12//12 13//13
f 5//7 13//13 14//14
f 5//7 14//14 8//8
f 15//15 6//6 9//9
f 8//8 18//16 10//10
f 18//16 8//8 14//14
f 16//17 9//9 10//10
f 9//9 16//17 19//18
f 18//16 17//19 10//10
f 10//10 17//19 16//17
f 12//12 20//20 13//13
f 13//13 20//20 21//21
f 6//6 15//15 3//3
f 18//16 14//14 13//13
f 21//21 18//16 13//13
f 22//22 17//19 18//16
f 22//22 18//16 21//21
f 24//23 21//21 20//20
f 17//19 23//24 16//17
f 15//15 1//1 3//3
f 1//1 11//11 2//2
f 9//9 19//18 15//15
f 26//25 17//19 22//22
f 27//26 1//1 15//15
f 11//11 1//1 27//26
f 25//27 27//26 15//15
f 27//26 25//27 28//28
f 19//18 25//27 15//15
f 29//29 25//27 19//18
f 29//29 19//18 23//24
f 24//23 22//22 21//21
f 30//30 22//22 24//23
f 23//24 19//18 16//17
f 11//11 32//31 31//32
f 31//32 12//12 11//11
f 31//32 20//20 12//12
f 32//31 11//11 27//26
f 32//31 33//33 31//32
f 24//23 20//20 31//32
f 32//31 27//26 28//28
f 32//31 28//28 34//34
f 33//33 32//31 34//34
f 29//29 28//28 25//27
f 29//29 34//34 28//28
f 23//24 34//34 29//29
f 30//30 26//25 22//22
f 17//19 26//25 23//24
f 24//23 31//32 33//33
f 35//35 24//23 33//33
f 33//33 34//34 35//35
f 26//25 35//35 34//34
f 24//23 35//35 30//30
f 35//35 26//25 30//30
f 34//34 23//24 26//25
