# Blender v2.78 (sub 0) OBJ File: 'exporter.blend'
# www.blender.org
o FJ3106.obj_grp1.1747
v -0.076452 -0.810490 5.315366
v -0.075569 -0.812469 5.319094
v -0.079319 -0.821767 5.313564
v -0.068432 -0.801795 5.322150
v -0.080699 -0.839384 5.305593
v -0.079411 -0.825236 5.308682
v -0.079319 -0.821767 5.313564
v -0.075298 -0.814833 5.311076
v -0.077067 -0.833756 5.312143
v -0.066820 -0.801776 5.315088
v -0.072895 -0.820412 5.317912
v -0.065876 -0.807457 5.323343
v -0.070287 -0.821044 5.313846
v -0.064224 -0.797565 5.318876
v -0.069130 -0.802167 5.322507
v -0.075514 -0.828499 5.304832
v -0.077160 -0.837551 5.300165
v -0.078123 -0.847161 5.295450
v -0.077786 -0.849115 5.302133
v -0.070053 -0.813673 5.312064
v -0.075514 -0.828499 5.304832
v -0.067254 -0.813563 5.316734
v -0.070509 -0.822018 5.313381
v -0.062401 -0.803801 5.314942
v -0.065837 -0.810772 5.320418
v -0.059290 -0.805933 5.317677
v -0.065624 -0.810289 5.320323
v -0.042741 -0.790181 5.321451
v -0.047003 -0.792298 5.325576
v -0.042741 -0.790181 5.321451
v -0.077018 -0.858591 5.292702
v -0.073187 -0.833288 5.303928
v -0.072008 -0.840799 5.301733
v -0.042629 -0.797574 5.317422
v -0.019061 -0.779874 5.328559
v -0.036478 -0.796618 5.329065
v -0.031711 -0.784576 5.330983
v -0.071808 -0.857816 5.294274
v -0.038163 -0.799883 5.321961
v -0.027037 -0.781362 5.328214
v -0.025951 -0.790980 5.323889
v -0.033671 -0.789504 5.332212
v -0.018991 -0.780537 5.341593
v -0.073751 -0.856512 5.285739
v -0.070774 -0.853768 5.290584
v -0.071763 -0.858056 5.293894
v -0.069823 -0.858340 5.291447
v -0.021439 -0.790673 5.331156
v -0.015086 -0.782578 5.340357
v -0.008800 -0.760024 5.345541
v -0.010670 -0.764767 5.337536
v -0.007621 -0.772101 5.346870
v -0.009101 -0.763699 5.347689
v -0.004937 -0.756551 5.338023
v -0.000350 -0.748967 5.335502
v -0.001853 -0.754722 5.346563
v -0.003028 -0.762295 5.348867
v 0.003792 -0.757183 5.346473
v -0.073663 -0.870559 5.274923
v -0.070685 -0.869694 5.281828
v -0.071587 -0.881909 5.263982
v -0.018981 -0.779905 5.328774
v -0.005483 -0.770300 5.336566
v -0.010446 -0.770267 5.334596
v 0.002222 -0.766126 5.343906
v -0.001752 -0.760340 5.335947
v 0.007257 -0.744517 5.332343
v 0.005818 -0.751709 5.343187
v -0.072152 -0.878158 5.264548
v -0.066854 -0.881641 5.266558
v 0.006016 -0.761415 5.341191
v 0.002636 -0.751342 5.325112
v 0.002072 -0.762693 5.337446
v 0.007044 -0.755822 5.326450
v 0.011692 -0.749681 5.335958
v 0.005818 -0.751709 5.343187
v 0.003996 -0.757342 5.346921
v 0.011692 -0.749681 5.335958
v 0.014484 -0.751053 5.331041
v -0.067408 -0.876926 5.263130
v 0.013941 -0.753504 5.322309
v 0.016995 -0.742921 5.320230
v -0.065577 -0.876428 5.266754
v 0.009877 -0.740859 5.297282
v 0.011722 -0.746408 5.296193
v 0.012781 -0.735913 5.298783
v 0.016922 -0.734931 5.300505
v -0.072259 -0.888487 5.252910
v -0.070962 -0.894921 5.254116
v -0.072259 -0.888487 5.252910
v -0.068602 -0.885169 5.254971
v 0.013363 -0.738694 5.294234
v 0.023719 -0.742327 5.301946
v -0.074657 -0.905669 5.235515
v -0.077155 -0.905157 5.235662
v -0.074315 -0.897117 5.249389
v -0.068274 -0.883154 5.256759
v -0.067520 -0.892267 5.251006
v -0.069288 -0.898800 5.247999
v 0.021977 -0.737416 5.298091
v 0.015179 -0.745095 5.293491
v 0.017109 -0.748482 5.296471
v -0.078284 -0.905669 5.237981
v -0.078284 -0.905669 5.237981
v -0.076818 -0.910073 5.237650
v 0.019081 -0.741283 5.293447
v 0.021952 -0.746013 5.296740
v -0.086672 -0.917671 5.217450
v -0.084024 -0.913490 5.221922
v -0.092396 -0.918612 5.205259
v -0.082061 -0.916724 5.224254
v -0.079635 -0.910924 5.225873
v -0.086038 -0.914122 5.219450
v -0.074224 -0.909390 5.236653
v -0.082292 -0.911335 5.226573
v -0.078917 -0.910312 5.227277
v -0.077996 -0.912358 5.226872
v -0.104180 -0.917788 5.175536
v -0.104982 -0.918508 5.175296
v -0.104270 -0.917428 5.175541
v -0.103907 -0.919437 5.176108
v -0.104220 -0.917772 5.175542
v -0.103172 -0.919009 5.175546
v -0.104716 -0.918593 5.175261
v -0.104333 -0.919518 5.175073
v -0.104579 -0.919767 5.176340
v -0.104579 -0.919767 5.176340
v -0.094042 -0.916810 5.198519
v -0.089199 -0.915862 5.208510
v -0.089783 -0.917959 5.201757
v -0.097327 -0.919490 5.193711
v -0.104296 -0.918986 5.175341
v -0.095116 -0.920847 5.195335
v -0.093932 -0.918664 5.200799
v -0.092396 -0.918612 5.205259
v -0.090726 -0.920326 5.202865
v -0.085832 -0.919158 5.213645
v -0.090711 -0.920352 5.202843
v -0.103316 -0.919048 5.174426
v -0.103049 -0.920067 5.176387
v -0.103661 -0.918808 5.174882
v -0.095307 -0.920514 5.194743
vn -0.5748 0.7939 0.1984
vn -0.8227 0.5358 -0.1900
vn -0.6654 0.0906 0.7409
vn -0.7330 -0.1174 0.6700
vn -0.8580 0.2370 -0.4558
vn -0.9747 0.1905 -0.1170
vn -0.2887 0.4425 -0.8490
vn -0.9632 -0.1836 0.1964
vn -0.1946 -0.4458 0.8737
vn -0.2812 0.6048 -0.7451
vn 0.1789 -0.4567 0.8715
vn 0.0543 -0.4109 0.9101
vn -0.4605 0.8728 -0.1614
vn -0.3356 0.1585 0.9286
vn -0.4317 0.4254 -0.7954
vn -0.0281 0.4918 -0.8703
vn -0.8079 0.2904 -0.5128
vn -0.3734 -0.5978 0.7094
vn 0.5468 0.0200 -0.8370
vn 0.1992 0.3737 -0.9059
vn 0.7986 -0.5988 -0.0602
vn 0.9536 -0.2384 0.1836
vn 0.2698 -0.0686 -0.9605
vn 0.4659 -0.6224 -0.6289
vn 0.6833 -0.6186 0.3878
vn 0.7225 -0.4789 0.4986
vn 0.4544 -0.4743 0.7540
vn 0.4194 -0.4355 -0.7965
vn -0.3815 0.6868 0.6186
vn -0.4190 0.9076 0.0253
vn -0.7333 -0.5604 0.3849
vn 0.6382 0.3307 -0.6952
vn 0.7690 0.3774 -0.5160
vn 0.2532 -0.1145 -0.9606
vn 0.3739 0.2049 -0.9046
vn 0.0205 -0.6179 0.7860
vn 0.4478 -0.8643 -0.2293
vn 0.3569 -0.6499 0.6710
vn -0.4019 0.8204 -0.4067
vn 0.5644 -0.3188 -0.7614
vn -0.6723 0.6588 0.3377
vn -0.4821 0.0415 0.8751
vn -0.2972 -0.2742 0.9146
vn -0.0603 0.6783 -0.7323
vn 0.8161 0.4439 -0.3700
vn 0.4767 -0.6935 0.5403
vn 0.9314 -0.2088 0.2981
vn 0.5926 -0.8026 0.0679
vn 0.3489 -0.7351 0.5813
vn -0.6794 0.6224 0.3887
vn -0.4044 0.5893 -0.6995
vn 0.1819 -0.4556 0.8714
vn -0.4878 0.1934 0.8513
vn -0.7691 0.3653 -0.5244
vn -0.7492 0.6621 -0.0150
vn -0.2085 0.6357 0.7433
vn 0.1342 -0.0966 0.9862
vn -0.9647 0.0964 -0.2451
vn 0.1547 -0.7561 0.6359
vn -0.7910 -0.4343 0.4310
vn 0.5780 0.0143 -0.8159
vn 0.5487 -0.1575 -0.8210
vn 0.2599 0.3731 -0.8906
vn 0.7516 -0.5960 0.2825
vn -0.2885 -0.2880 -0.9131
vn -0.0205 0.9257 0.3778
vn 0.1472 0.7316 0.6656
vn 0.1833 0.3457 0.9203
vn -0.8441 0.2839 -0.4549
vn 0.4769 -0.6974 0.5351
vn -0.8347 -0.3298 -0.4411
vn -0.1506 -0.8742 -0.4617
vn 0.4264 -0.7078 -0.5632
vn 0.8510 -0.5112 0.1201
vn 0.8438 0.0563 0.5337
vn 0.7186 0.1946 0.6676
vn 0.7263 -0.2553 0.6382
vn 0.4447 0.7358 0.5107
vn 0.9361 -0.1732 0.3062
vn 0.3239 0.6709 -0.6671
vn 0.5717 -0.8188 -0.0527
vn 0.7369 0.5549 0.3861
vn 0.9772 0.1994 -0.0726
vn -0.8670 0.1676 -0.4692
vn -0.6126 -0.5226 -0.5930
vn -0.4382 0.8587 -0.2658
vn 0.1599 0.9857 -0.0535
vn 0.9953 -0.0193 0.0950
vn -0.8299 0.4730 -0.2957
vn -0.3509 0.6814 -0.6423
vn 0.1009 0.7831 -0.6137
vn -0.3596 0.8008 -0.4790
vn -0.8360 -0.2732 0.4759
vn -0.0595 -0.7215 0.6898
vn 0.2924 0.6404 -0.7102
vn 0.8072 0.3422 -0.4810
vn 0.9514 0.0608 -0.3019
vn 0.8138 -0.5566 0.1671
vn -0.3161 0.4725 -0.8227
vn -0.1410 -0.3401 -0.9298
vn 0.1315 -0.8478 -0.5137
vn 0.7270 0.6238 -0.2870
vn 0.7355 -0.4874 -0.4705
vn -0.7551 0.6442 -0.1221
vn -0.2338 -0.7724 0.5906
vn -0.6661 0.6923 -0.2777
vn 0.3946 0.1519 -0.9062
vn -0.7069 -0.5408 0.4559
vn -0.8991 0.4278 0.0930
vn -0.9014 0.1299 0.4130
vn -0.4885 0.8720 -0.0308
vn 0.4793 0.7471 -0.4606
vn -0.3652 0.9193 -0.1465
vn 0.8097 0.2828 -0.5141
vn 0.0791 -0.9506 0.3002
vn 0.8035 -0.5906 0.0738
vn -0.6444 0.7505 -0.1465
vn 0.7040 0.4012 -0.5860
vn 0.9410 -0.1496 -0.3037
vn 0.3985 -0.9171 -0.0091
vn -0.4249 -0.3553 -0.8326
vn -0.4141 -0.3717 -0.8308
vn -0.4185 -0.3382 -0.8429
vn -0.9129 -0.3288 -0.2420
vn -0.8052 0.4911 0.3322
vn -0.6312 0.7280 0.2675
vn -0.8438 0.3910 0.3675
vn 0.6865 0.6383 -0.3484
vn 0.8965 0.1949 -0.3979
vn -0.9118 -0.0145 0.4104
vn -0.9217 0.0512 0.3845
vn -0.5505 -0.8035 -0.2267
vn -0.7780 -0.4717 0.4149
vn -0.8054 -0.4445 0.3921
vn -0.8530 0.4294 0.2966
vn -0.2350 -0.9445 0.2296
vn 0.8119 -0.4485 -0.3737
vn 0.1952 -0.9274 -0.3191
vn 0.3261 -0.6285 -0.7061
vn 0.2953 -0.9441 -0.1462
vn 0.6541 0.5791 -0.4865
s 1
f 4//1 1//2 2//3
f 1//2 3//4 2//3
f 1//2 6//5 7//6
f 8//7 6//5 1//2
f 6//5 5//8 7//6
f 5//8 9//9 3//4
f 3//4 9//9 2//3
f 1//2 10//10 8//7
f 9//9 11//11 2//3
f 2//3 11//11 12//12
f 4//1 14//13 1//2
f 10//10 1//2 14//13
f 12//12 15//14 2//3
f 6//5 16//15 17//16
f 18//17 6//5 17//16
f 5//8 19//18 9//9
f 5//8 6//5 18//17
f 6//5 8//7 16//15
f 8//7 20//19 21//20
f 8//7 10//10 20//19
f 20//19 22//21 23//22
f 10//10 24//23 20//19
f 20//19 26//24 22//21
f 24//23 26//24 20//19
f 26//24 25//25 22//21
f 11//11 22//21 25//25
f 22//21 11//11 13//26
f 25//25 26//24 27//27
f 27//27 12//12 11//11
f 10//10 14//13 28//28
f 29//29 30//30 14//13
f 4//1 29//29 14//13
f 4//1 15//14 29//29
f 5//8 31//31 19//18
f 17//16 21//20 32//32
f 20//19 32//32 21//20
f 32//32 23//22 33//33
f 20//19 23//22 32//32
f 23//22 13//26 11//11
f 11//11 33//33 23//22
f 34//34 24//23 10//10
f 24//23 34//34 26//24
f 35//35 10//10 28//28
f 34//34 10//10 35//35
f 36//36 15//14 12//12
f 27//27 26//24 39//37
f 39//37 36//36 12//12
f 27//27 39//37 12//12
f 36//36 29//29 15//14
f 32//32 33//33 17//16
f 38//38 9//9 19//18
f 9//9 38//38 11//11
f 39//37 26//24 34//34
f 29//29 40//39 30//30
f 41//40 34//34 35//35
f 37//41 40//39 29//29
f 28//28 40//39 35//35
f 36//36 42//42 29//29
f 42//42 36//36 43//43
f 29//29 42//42 37//41
f 18//17 17//16 44//44
f 17//16 45//45 44//44
f 33//33 45//45 17//16
f 31//31 38//38 19//18
f 38//38 46//46 47//47
f 11//11 47//47 33//33
f 45//45 33//33 47//47
f 38//38 47//47 11//11
f 39//37 34//34 41//40
f 39//37 48//48 36//36
f 48//48 49//49 36//36
f 49//49 43//43 36//36
f 37//41 50//50 51//51
f 40//39 37//41 51//51
f 49//49 52//52 43//43
f 50//50 37//41 42//42
f 43//43 53//53 42//42
f 53//53 43//43 52//52
f 51//51 50//50 54//54
f 50//50 42//42 53//53
f 54//54 50//50 55//55
f 56//56 50//50 53//53
f 53//53 52//52 57//57
f 56//56 53//53 57//57
f 59//58 18//17 44//44
f 5//8 18//17 59//58
f 31//31 5//8 59//58
f 60//59 38//38 31//31
f 59//58 61//60 31//31
f 41//40 48//48 39//37
f 35//35 62//61 41//40
f 41//40 62//61 63//62
f 35//35 40//39 51//51
f 63//62 62//61 64//63
f 64//63 35//35 51//51
f 65//64 49//49 48//48
f 51//51 66//65 63//62
f 51//51 63//62 64//63
f 65//64 52//52 49//49
f 54//54 66//65 51//51
f 67//66 55//55 56//56
f 50//50 56//56 55//55
f 56//56 68//67 67//66
f 68//67 56//56 58//68
f 56//56 57//57 58//68
f 44//44 69//69 59//58
f 60//59 31//31 70//70
f 60//59 47//47 46//46
f 41//40 65//64 48//48
f 41//40 63//62 65//64
f 72//71 54//54 55//55
f 72//71 66//65 54//54
f 74//72 73//73 66//65
f 66//65 73//73 63//62
f 71//74 63//62 73//73
f 63//62 71//74 65//64
f 65//64 57//57 52//52
f 75//75 76//76 77//77
f 67//66 68//67 78//78
f 77//77 79//79 75//75
f 77//77 71//74 79//79
f 65//64 77//77 57//57
f 77//77 65//64 71//74
f 80//80 69//69 44//44
f 72//71 74//72 66//65
f 79//79 71//74 81//81
f 81//81 71//74 74//72
f 73//73 74//72 71//74
f 82//82 67//66 78//78
f 69//69 61//60 59//58
f 80//80 45//45 83//83
f 80//80 44//44 45//45
f 45//45 47//47 83//83
f 31//31 61//60 70//70
f 60//59 70//70 47//47
f 70//70 83//83 47//47
f 84//84 72//71 55//55
f 84//84 85//85 72//71
f 67//66 86//86 55//55
f 82//82 87//87 67//66
f 93//88 82//82 79//79
f 79//79 82//82 75//75
f 88//89 61//60 69//69
f 90//90 69//69 80//80
f 86//86 84//84 55//55
f 86//86 67//66 87//87
f 94//91 95//92 88//89
f 95//92 96//93 61//60
f 88//89 95//92 61//60
f 89//94 61//60 96//93
f 90//90 80//80 91//95
f 97//96 98//97 91//95
f 89//94 70//70 61//60
f 99//98 98//97 70//70
f 97//96 80//80 83//83
f 97//96 83//83 98//97
f 99//98 70//70 89//94
f 98//97 83//83 70//70
f 92//99 84//84 86//86
f 84//84 92//99 85//85
f 92//99 101//100 85//85
f 72//71 85//85 74//72
f 74//72 85//85 102//101
f 87//87 92//99 86//86
f 100//102 92//99 87//87
f 82//82 93//88 100//102
f 81//81 107//103 93//88
f 93//88 79//79 81//81
f 82//82 100//102 87//87
f 103//104 96//93 95//92
f 105//105 89//94 96//93
f 91//95 94//106 90//90
f 92//99 100//102 106//107
f 92//99 106//107 101//100
f 101//100 107//103 102//101
f 101//100 106//107 107//103
f 101//100 102//101 85//85
f 102//101 81//81 74//72
f 107//103 81//81 102//101
f 100//102 107//103 106//107
f 107//103 100//102 93//88
f 108//108 109//109 110//110
f 113//111 112//112 129//113
f 108//108 96//93 104//114
f 109//109 108//108 104//114
f 111//115 105//105 108//108
f 108//108 105//105 96//93
f 105//105 111//115 114//116
f 103//104 95//92 115//117
f 112//112 113//111 95//92
f 112//112 95//92 94//91
f 116//118 94//106 117//119
f 98//97 117//119 94//106
f 114//116 98//97 99//98
f 137//120 117//119 114//116
f 117//119 98//97 114//116
f 98//97 94//106 91//95
f 114//116 89//94 105//105
f 114//116 99//98 89//94
f 121//121 122//122 123//123
f 124//124 125//124 126//124
f 128//125 118//126 119//127
f 120//128 129//113 130//129
f 119//127 127//130 131//131
f 132//132 133//133 134//134
f 131//131 135//135 119//127
f 119//127 135//135 128//125
f 128//125 135//135 129//113
f 134//134 133//133 108//108
f 136//136 137//120 133//133
f 138//137 130//129 137//120
f 135//135 113//111 129//113
f 112//112 130//129 129//113
f 112//112 117//119 130//129
f 137//120 108//108 133//133
f 137//120 111//115 108//108
f 117//119 112//112 116//118
f 130//129 117//119 137//120
f 111//115 137//120 114//116
f 133//133 132//132 140//138
f 140//138 132//132 141//139
f 140//138 138//137 142//140
f 140//138 141//139 138//137
f 138//137 141//139 130//129
f 130//129 139//141 120//128
