# Blender v2.78 (sub 0) OBJ File: 'exporter.blend'
# www.blender.org
o FJ3150.obj_grp1.1791
v 0.034021 -0.729834 5.910316
v 0.028550 -0.693261 5.921565
v 0.036774 -0.724278 5.907200
v 0.031921 -0.728213 5.916752
v 0.048293 -0.742721 5.905120
v 0.041790 -0.732407 5.929249
v 0.043597 -0.730351 5.904190
v 0.060170 -0.743967 5.904943
v 0.057109 -0.745925 5.907434
v 0.066630 -0.748103 5.920825
v 0.057109 -0.745925 5.907434
v 0.036774 -0.724278 5.907200
v 0.038066 -0.702054 5.915387
v 0.028616 -0.716997 5.929076
v 0.028616 -0.716997 5.929076
v 0.043242 -0.722909 5.940726
v 0.028888 -0.675443 5.923483
v 0.020269 -0.690191 5.944522
v 0.031810 -0.701988 5.959308
v 0.012785 -0.649647 5.939627
v 0.027995 -0.662884 5.924092
v 0.005398 -0.652636 5.956637
v 0.009747 -0.642247 5.958186
v 0.003572 -0.655995 5.982078
v 0.067680 -0.744320 5.908701
v 0.067680 -0.744320 5.908701
v 0.075878 -0.720455 5.931181
v 0.037038 -0.697936 5.916960
v 0.065246 -0.727466 5.951798
v 0.057411 -0.697151 5.935836
v 0.038507 -0.658192 5.934098
v 0.048900 -0.708875 5.961709
v 0.028669 -0.652958 5.930203
v 0.026953 -0.645000 5.941752
v 0.009792 -0.644982 5.981964
v 0.015698 -0.667667 5.991243
v 0.007910 -0.650237 6.001354
v 0.010044 -0.644703 5.995869
v 0.071816 -0.742550 5.909713
v 0.070986 -0.742662 5.910251
v 0.073962 -0.745953 5.916170
v 0.067680 -0.744320 5.908701
v 0.077539 -0.742775 5.917668
v 0.073420 -0.719457 5.974441
v 0.026953 -0.645000 5.941752
v 0.042048 -0.648145 5.961889
v 0.047057 -0.645838 5.981844
v 0.039935 -0.674642 6.002885
v 0.010404 -0.644872 5.997308
v 0.017310 -0.667216 6.000625
v 0.010523 -0.654865 6.010050
v 0.023235 -0.662607 6.012257
v 0.005674 -0.646488 6.037035
v 0.008190 -0.642140 6.024578
v 0.019712 -0.661473 6.022203
v 0.012833 -0.653682 6.035594
v 0.003884 -0.641416 6.051094
v 0.085987 -0.734620 5.929120
v 0.077539 -0.742775 5.917668
v 0.081205 -0.740179 5.935877
v 0.066603 -0.702574 5.936234
v 0.085209 -0.735171 5.949904
v 0.078315 -0.697873 5.953883
v 0.057615 -0.665093 5.957667
v 0.047073 -0.639692 5.997681
v 0.029973 -0.639553 6.025976
v 0.031238 -0.659914 6.029893
v 0.033386 -0.637819 6.040807
v 0.024635 -0.649382 6.064745
v 0.007433 -0.635136 6.058003
v 0.006321 -0.647230 6.048003
v 0.006344 -0.640621 6.065020
v 0.005932 -0.633707 6.077855
v 0.085637 -0.719988 5.936037
v 0.093439 -0.726358 5.938108
v 0.094143 -0.712550 5.956691
v 0.093476 -0.725318 5.967656
v 0.068759 -0.685438 6.007419
v 0.039301 -0.664867 6.024954
v 0.013470 -0.638776 6.090753
v 0.006402 -0.633085 6.079821
v 0.011354 -0.626109 6.079153
v 0.002014 -0.630382 6.101365
v 0.004223 -0.625748 6.091323
v -0.013381 -0.601306 6.121781
v 0.002730 -0.603176 6.109866
v -0.014315 -0.618719 6.124174
v 0.000737 -0.628836 6.105993
v 0.001419 -0.630297 6.101886
v -0.005205 -0.627088 6.121705
v -0.013295 -0.593260 6.126490
v 0.010629 -0.629699 6.113497
v 0.000390 -0.625648 6.131505
v -0.013735 -0.613329 6.140949
v -0.016278 -0.596883 6.141736
v -0.005901 -0.620943 6.148971
v 0.093447 -0.725222 5.967432
v 0.077195 -0.691520 5.962100
v 0.077110 -0.665661 5.984795
v 0.091050 -0.708250 5.991085
v 0.053541 -0.635805 6.013662
v 0.069051 -0.663631 6.031365
v 0.064084 -0.627382 6.025841
v 0.034134 -0.617856 6.093423
v 0.036072 -0.644955 6.081184
v 0.034739 -0.635753 6.100761
v -0.006772 -0.580775 6.129961
v -0.001682 -0.569046 6.145258
v -0.009606 -0.610297 6.156744
v 0.007509 -0.618302 6.157674
v -0.008424 -0.580850 6.156869
v 0.002433 -0.580690 6.173675
v 0.099557 -0.721124 5.964849
v 0.100619 -0.719409 5.971296
v 0.099792 -0.691943 5.984826
v 0.099150 -0.692604 5.993111
v 0.077361 -0.674050 6.020144
v 0.073659 -0.633404 6.018179
v 0.050000 -0.645060 6.059422
v 0.050989 -0.616452 6.082908
v 0.020903 -0.611955 6.105205
v 0.032513 -0.628873 6.092812
v 0.032116 -0.629067 6.092872
v 0.032552 -0.629122 6.092927
v 0.032116 -0.629067 6.092872
v 0.032350 -0.629131 6.093067
v 0.032017 -0.628555 6.094234
v 0.032296 -0.628846 6.092916
v 0.031971 -0.628452 6.094280
v 0.032116 -0.629067 6.092872
v 0.031996 -0.628507 6.094254
v 0.026688 -0.621790 6.127190
v 0.018399 -0.615110 6.155243
v 0.099931 -0.717889 5.971938
v 0.099150 -0.692604 5.993111
v 0.092121 -0.639836 6.023015
v 0.057100 -0.636719 6.081792
v 0.060314 -0.615152 6.115638
v 0.032685 -0.628884 6.092902
v 0.032490 -0.628658 6.092872
v 0.032707 -0.628984 6.092946
v 0.032593 -0.629236 6.093153
v 0.032037 -0.628994 6.092720
v 0.031886 -0.628473 6.094225
v 0.032627 -0.628749 6.092988
v 0.031971 -0.628452 6.094280
v 0.017751 -0.561474 6.155408
v 0.037363 -0.596284 6.158798
v 0.007716 -0.566926 6.166784
v 0.024117 -0.594796 6.180609
v 0.095321 -0.676243 5.993487
v 0.095321 -0.676243 5.993487
v 0.092121 -0.639836 6.023015
v 0.086774 -0.656430 6.032847
v 0.055389 -0.601606 6.111642
v 0.020319 -0.562145 6.157564
v 0.017454 -0.575270 6.180009
v 0.093548 -0.651119 6.026071
v 0.092121 -0.639836 6.023015
v 0.096938 -0.632784 6.038925
v 0.093463 -0.651080 6.026067
v 0.091687 -0.639986 6.044271
v 0.086113 -0.601734 6.048741
v 0.084913 -0.595315 6.058517
v 0.099958 -0.617977 6.053757
v 0.057385 -0.593143 6.144771
v 0.064861 -0.587624 6.135717
v 0.029667 -0.564403 6.165263
v 0.029667 -0.564403 6.165263
v 0.031760 -0.586204 6.178210
v 0.095406 -0.612959 6.043438
v 0.089234 -0.584569 6.077840
v 0.076333 -0.597762 6.080560
v 0.074028 -0.599804 6.091057
v 0.064574 -0.599875 6.112260
v 0.073522 -0.600162 6.100289
v 0.066452 -0.602376 6.116973
v 0.073967 -0.610603 6.102965
v 0.063014 -0.597843 6.119068
v 0.066540 -0.600900 6.117383
v 0.067394 -0.594713 6.128489
v 0.066628 -0.591472 6.128175
v 0.037823 -0.572564 6.168938
v 0.041381 -0.566957 6.161648
v 0.041381 -0.566957 6.161648
v 0.056335 -0.576108 6.152403
v 0.099284 -0.617447 6.053531
v 0.099254 -0.589651 6.058939
v 0.101967 -0.591267 6.060549
v 0.102759 -0.598024 6.065435
v 0.094888 -0.600861 6.077039
v 0.078595 -0.598449 6.093664
v 0.084586 -0.598006 6.089424
v 0.076766 -0.603090 6.101340
v 0.068007 -0.600547 6.111204
v 0.068184 -0.600118 6.111005
v 0.063014 -0.597843 6.119068
v 0.066651 -0.600833 6.117706
v 0.064574 -0.599875 6.112260
v 0.065480 -0.599603 6.120945
v 0.065480 -0.599603 6.120945
v 0.067751 -0.594569 6.128336
v 0.063014 -0.597843 6.119068
v 0.067111 -0.588418 6.135098
v 0.061906 -0.583279 6.141395
v 0.062635 -0.585455 6.143206
v 0.048415 -0.570126 6.156202
v 0.048415 -0.570126 6.156202
v 0.096881 -0.585183 6.070207
v 0.096799 -0.585418 6.070325
v 0.098294 -0.587020 6.073249
vn -0.7944 0.0942 -0.6000
vn -0.6552 -0.1042 -0.7483
vn -0.8047 -0.4142 -0.4254
vn -0.8911 -0.4534 0.0185
vn -0.0428 0.1428 -0.9888
vn -0.4123 -0.7373 -0.5352
vn 0.2502 -0.3711 -0.8942
vn -0.3743 -0.9260 0.0490
vn -0.0217 -0.9764 0.2147
vn -0.5075 -0.7482 0.4273
vn 0.0519 -0.8446 -0.5329
vn -0.1657 0.3596 -0.9183
vn 0.2068 0.4123 -0.8872
vn -0.6882 -0.5953 0.4148
vn -0.9609 -0.0862 -0.2633
vn -0.4998 -0.6741 0.5438
vn -0.9444 -0.3015 -0.1311
vn -0.5791 -0.6850 0.4421
vn -0.7002 0.4306 -0.5694
vn -0.7667 -0.0447 -0.6404
vn -0.1457 0.2895 -0.9460
vn -0.9749 0.0362 -0.2198
vn -0.4647 0.8812 -0.0867
vn -0.9772 -0.1282 0.1694
vn 0.1573 -0.9261 -0.3430
vn 0.4893 0.4613 -0.7401
vn 0.5634 0.4149 -0.7144
vn -0.3555 -0.7739 0.5241
vn 0.6079 0.4495 -0.6545
vn 0.6239 0.5359 -0.5689
vn 0.1400 0.6625 -0.7359
vn -0.0550 0.9627 -0.2648
vn -0.6706 -0.6832 0.2891
vn -0.9962 -0.0650 0.0575
vn -0.8692 0.4754 0.1356
vn 0.7241 0.6891 -0.0273
vn 0.4855 0.3490 -0.8015
vn 0.3792 -0.4440 -0.8118
vn 0.6107 -0.5212 -0.5961
vn 0.4735 -0.8219 -0.3165
vn 0.5679 -0.5633 -0.6002
vn 0.6815 -0.7206 -0.1276
vn 0.4084 -0.8912 0.1972
vn -0.4149 -0.7090 0.5702
vn -0.3064 -0.7692 0.5608
vn 0.5800 0.7236 -0.3741
vn 0.4969 0.8403 -0.2169
vn 0.3030 0.9059 -0.2958
vn -0.5799 -0.7724 0.2589
vn -0.3139 -0.8109 0.4939
vn -0.7656 -0.6344 0.1070
vn -0.9402 -0.3400 -0.0226
vn -0.5574 0.8278 0.0641
vn -0.6551 0.7379 -0.1625
vn -0.2943 -0.9424 0.1589
vn -0.5256 -0.8138 0.2478
vn -0.9975 0.0659 0.0265
vn 0.8774 -0.1295 -0.4620
vn 0.8250 -0.0446 -0.5634
vn 0.4049 0.5706 -0.7145
vn 0.2466 -0.9296 0.2738
vn 0.6384 0.6017 -0.4800
vn 0.6874 0.5613 -0.4608
vn 0.0602 0.9696 -0.2373
vn -0.1544 0.9851 -0.0760
vn -0.4226 -0.8499 0.3147
vn -0.2025 -0.8475 0.4907
vn -0.1441 -0.9045 0.4014
vn -0.2114 0.9575 -0.1963
vn -0.1102 -0.9632 0.2451
vn -0.6549 0.7410 -0.1484
vn -0.6737 -0.7241 0.1475
vn -0.9427 -0.2942 0.1571
vn -0.9959 -0.0620 0.0653
vn 0.5066 0.5426 -0.6700
vn 0.9177 -0.0626 -0.3922
vn 0.7318 0.5102 -0.4519
vn 0.2380 -0.9161 0.3228
vn -0.2454 -0.7278 0.6404
vn -0.2966 -0.9091 0.2924
vn -0.4392 0.7963 -0.4159
vn -0.9179 0.3620 -0.1625
vn -0.8175 -0.3062 -0.4877
vn -0.9209 -0.0432 -0.3875
vn -0.8782 0.2212 -0.4241
vn -0.0075 0.7370 -0.6758
vn -0.4797 -0.8686 0.1243
vn -0.3372 -0.9252 0.1741
vn -0.8885 -0.4533 -0.0716
vn -0.4030 -0.9101 0.0962
vn -0.1079 -0.9661 0.2344
vn -0.9223 -0.3339 0.1948
vn -0.9827 0.1629 0.0878
vn -0.8275 0.3891 -0.4048
vn 0.6473 0.5803 -0.4942
vn 0.5868 0.6046 -0.5386
vn 0.2911 -0.6916 0.6611
vn 0.0745 -0.7285 0.6810
vn -0.1532 0.9559 -0.2507
vn -0.1573 0.8807 -0.4467
vn 0.1471 -0.9307 0.3349
vn -0.0288 -0.9570 0.2885
vn -0.4979 0.6951 -0.5185
vn -0.4947 -0.7693 0.4044
vn -0.5128 0.8191 -0.2570
vn -0.7249 -0.3298 0.6047
vn 0.0765 -0.8720 0.4835
vn -0.8858 0.3429 0.3126
vn -0.6269 0.1830 0.7573
vn 0.9509 0.2128 -0.2248
vn 0.5589 -0.7027 0.4402
vn 0.6158 -0.7877 0.0162
vn 0.9192 0.3351 -0.2068
vn 0.6618 -0.4243 0.6181
vn 0.1772 0.7481 -0.6395
vn 0.0092 -0.6624 0.7491
vn -0.3233 0.8306 -0.4535
vn 0.3031 -0.8731 0.3819
vn -0.4555 0.8386 -0.2988
vn 0.0484 0.8007 -0.5971
vn 0.1641 -0.8963 0.4120
vn 0.3081 -0.8508 0.4257
vn 0.4550 -0.8072 0.3760
vn 0.9995 0.0277 -0.0164
vn 0.9946 0.1014 0.0220
vn 0.4731 -0.8152 0.3341
vn 0.6058 -0.6364 0.4775
vn 0.2014 0.8163 -0.5414
vn 0.6726 -0.5558 0.4886
vn 0.1908 -0.4681 0.8628
vn -0.3964 0.8191 0.4146
vn 0.9725 0.2286 -0.0436
vn 0.5976 0.5256 -0.6055
vn 0.4632 0.5928 -0.6588
vn 0.9809 0.1767 -0.0811
vn 0.4785 -0.5119 0.7135
vn -0.1813 0.9203 -0.3467
vn -0.2208 0.9516 0.2138
vn -0.0640 0.4377 0.8969
vn 0.8607 -0.3557 0.3641
vn 0.9410 0.0885 -0.3267
vn 0.9837 -0.1504 -0.0980
vn 0.9923 0.1229 0.0164
vn 0.5973 -0.5189 0.6115
vn -0.0524 0.7274 -0.6842
vn -0.4886 0.7893 -0.3717
vn 0.6388 -0.5844 0.5005
vn 0.6245 -0.4875 0.6102
vn 0.0156 0.7957 -0.6055
vn 0.1460 0.7846 0.6025
vn 0.6221 -0.1143 0.7745
vn 0.5382 0.4171 -0.7324
vn -0.1409 0.9356 0.3239
vn -0.6624 0.7431 -0.0949
vn -0.5080 0.8603 0.0414
vn 0.0845 0.9946 -0.0602
vn 0.4219 0.8855 0.1945
vn 0.7512 -0.4404 0.4917
vn 0.1035 0.8573 -0.5043
vn 0.7073 -0.5035 0.4961
vn 0.0178 0.8666 -0.4987
vn 0.6663 0.7131 -0.2180
vn 0.5879 0.3480 0.7303
vn 0.2537 0.9672 0.0123
vn 0.2472 0.9607 -0.1265
vn 0.5513 0.5752 0.6043
vn 0.8343 0.3806 0.3988
vn 0.2103 0.7878 -0.5789
vn 0.8489 0.4576 -0.2646
vn 0.9732 -0.0623 0.2214
vn 0.9663 -0.2327 0.1102
vn 0.0165 0.8676 0.4970
vn -0.2676 0.9627 0.0394
vn 0.6581 0.3298 0.6768
vn 0.7512 0.2018 0.6285
vn 0.7867 -0.2349 0.5709
vn 0.6525 0.5846 0.4821
vn 0.8180 -0.3131 0.4825
vn 0.4775 0.8376 0.2655
vn 0.6139 0.7848 -0.0849
vn 0.6140 0.7848 -0.0849
vn 0.6109 0.7860 -0.0950
vn 0.6165 0.7838 -0.0748
vn 0.9911 -0.0175 -0.1316
vn 0.6659 0.5713 -0.4798
vn 0.7223 0.4997 -0.4780
vn 0.8651 -0.3117 0.3929
vn 0.9060 -0.0427 0.4211
vn 0.3540 0.8782 -0.3215
vn 0.6584 0.5241 0.5402
vn -0.3407 0.8600 -0.3799
vn 0.5855 0.8080 0.0661
vn 0.7304 0.5322 0.4281
s 1
f 2//1 3//2 1//3
f 1//3 4//4 2//1
f 7//5 1//3 3//2
f 1//3 5//6 4//4
f 7//5 8//7 5//6
f 9//8 10//9 5//6
f 6//10 5//6 10//9
f 11//11 5//6 8//7
f 7//5 12//12 13//13
f 13//13 12//12 2//1
f 7//5 5//6 1//3
f 6//10 4//4 5//6
f 6//10 14//14 4//4
f 15//15 2//1 4//4
f 6//10 16//16 14//14
f 2//1 15//15 18//17
f 14//14 19//18 18//17
f 16//16 19//18 14//14
f 20//19 17//20 18//17
f 17//20 20//19 21//21
f 18//17 17//20 2//1
f 22//22 23//23 20//19
f 18//17 22//22 20//19
f 24//24 23//23 22//22
f 18//17 24//24 22//22
f 11//11 8//7 25//25
f 8//7 7//5 13//13
f 10//9 11//11 25//25
f 27//26 13//13 28//27
f 29//28 16//16 6//10
f 21//21 30//29 28//27
f 31//30 30//29 21//21
f 2//1 17//20 13//13
f 28//27 17//20 21//21
f 21//21 20//19 33//31
f 21//21 33//31 31//30
f 20//19 23//23 34//32
f 33//31 20//19 34//32
f 18//17 19//18 24//24
f 24//24 36//33 37//34
f 23//23 24//24 38//35
f 37//34 38//35 24//24
f 35//36 23//23 38//35
f 8//7 39//37 26//38
f 40//39 41//40 42//41
f 43//42 41//40 40//39
f 39//37 13//13 27//26
f 13//13 39//37 8//7
f 25//25 41//40 10//9
f 60//43 10//9 41//40
f 27//26 28//27 30//29
f 29//28 6//10 10//9
f 60//43 29//28 10//9
f 29//28 32//44 16//16
f 32//44 29//28 44//45
f 32//44 19//18 16//16
f 45//46 31//30 33//31
f 45//46 46//47 31//30
f 34//32 23//23 46//47
f 47//48 23//23 35//36
f 36//33 24//24 19//18
f 36//33 50//49 37//34
f 50//49 36//33 48//50
f 37//34 50//49 51//51
f 53//52 37//34 51//51
f 49//53 38//35 37//34
f 49//53 37//34 54//54
f 37//34 53//52 54//54
f 55//55 56//56 51//51
f 56//56 53//52 51//51
f 57//57 54//54 53//52
f 58//58 59//59 39//37
f 27//26 58//58 39//37
f 27//26 30//29 61//60
f 29//28 60//43 62//61
f 30//29 63//62 61//60
f 30//29 31//30 64//63
f 31//30 46//47 64//63
f 48//50 36//33 19//18
f 47//48 46//47 23//23
f 19//18 32//44 48//50
f 49//53 65//64 35//36
f 65//64 47//48 35//36
f 66//65 65//64 49//53
f 54//54 66//65 49//53
f 52//66 51//51 50//49
f 79//67 52//66 50//49
f 67//68 52//66 79//67
f 52//66 55//55 51//51
f 55//55 52//66 67//68
f 67//68 56//56 55//55
f 66//65 54//54 68//69
f 67//68 69//70 56//56
f 68//69 54//54 70//71
f 53//52 71//72 57//57
f 53//52 56//56 71//72
f 56//56 69//70 71//72
f 70//71 54//54 57//57
f 70//71 57//57 72//73
f 57//57 71//72 72//73
f 70//71 72//73 73//74
f 58//58 60//43 41//40
f 58//58 41//40 43//42
f 58//58 27//26 74//75
f 74//75 75//76 58//58
f 61//60 74//75 27//26
f 76//77 74//75 61//60
f 30//29 64//63 63//62
f 29//28 62//61 44//45
f 77//78 44//45 62//61
f 47//48 64//63 46//47
f 48//50 32//44 78//79
f 50//49 48//50 79//67
f 69//70 80//80 71//72
f 82//81 70//71 73//74
f 71//72 80//80 72//73
f 72//73 81//82 73//74
f 80//80 83//83 72//73
f 83//83 81//82 72//73
f 84//84 82//81 73//74
f 84//84 81//82 83//83
f 82//81 85//85 86//86
f 82//81 84//84 85//85
f 83//83 80//80 89//87
f 88//88 89//87 80//80
f 84//84 83//83 87//89
f 83//83 88//88 87//89
f 84//84 87//89 85//85
f 87//89 88//88 90//90
f 93//91 87//89 90//90
f 85//85 87//89 94//92
f 94//92 95//93 85//85
f 95//93 91//94 85//85
f 75//76 60//43 58//58
f 60//43 75//76 62//61
f 74//75 76//77 75//76
f 63//62 76//77 61//60
f 64//63 98//95 63//62
f 64//63 99//96 98//95
f 78//79 44//45 100//97
f 77//78 100//97 44//45
f 47//48 99//96 64//63
f 44//45 78//79 32//44
f 78//79 102//98 48//50
f 102//98 79//67 48//50
f 65//64 66//65 101//99
f 68//69 101//99 66//65
f 70//71 82//81 104//100
f 68//69 70//71 104//100
f 105//101 80//80 69//70
f 90//90 88//88 92//102
f 92//102 88//88 80//80
f 93//91 90//90 92//102
f 86//86 85//85 107//103
f 107//103 85//85 91//94
f 87//89 96//104 94//92
f 96//104 87//89 93//91
f 95//93 107//103 91//94
f 107//103 95//93 108//105
f 95//93 94//92 109//106
f 96//104 110//107 109//106
f 95//93 109//106 111//108
f 112//109 111//108 109//106
f 94//92 96//104 109//106
f 113//110 75//76 76//77
f 75//76 114//111 62//61
f 62//61 114//111 97//112
f 63//62 98//95 76//77
f 113//110 76//77 115//113
f 97//112 114//111 77//78
f 114//111 100//97 77//78
f 100//97 114//111 116//114
f 99//96 76//77 98//95
f 65//64 101//99 47//48
f 47//48 118//115 99//96
f 118//115 47//48 101//99
f 117//116 102//98 78//79
f 103//117 101//99 68//69
f 67//68 79//67 102//98
f 119//118 69//70 67//68
f 120//119 103//117 68//69
f 120//119 68//69 104//100
f 105//101 69//70 119//118
f 121//120 104//100 82//81
f 106//121 80//80 105//101
f 121//120 82//81 86//86
f 106//121 92//102 80//80
f 132//122 92//102 106//121
f 93//91 92//102 132//122
f 132//122 133//123 93//91
f 133//123 110//107 93//91
f 96//104 93//91 110//107
f 108//105 95//93 111//108
f 113//110 115//113 134//124
f 135//125 134//124 115//113
f 76//77 99//96 115//113
f 78//79 100//97 117//116
f 101//99 103//117 118//115
f 105//101 119//118 137//126
f 137//126 106//121 105//101
f 137//126 138//127 106//121
f 132//122 106//121 138//127
f 147//128 121//120 86//86
f 147//128 86//86 107//103
f 132//122 148//129 133//123
f 107//103 108//105 147//128
f 109//106 110//107 150//130
f 149//131 108//105 111//108
f 112//109 149//131 111//108
f 109//106 150//130 112//109
f 135//125 115//113 151//132
f 99//96 152//133 115//113
f 99//96 136//134 152//133
f 153//135 135//125 151//132
f 100//97 154//136 117//116
f 154//136 102//98 117//116
f 102//98 119//118 67//68
f 104//100 155//137 120//119
f 155//137 104//100 121//120
f 156//138 108//105 149//131
f 112//109 150//130 157//139
f 149//131 112//109 157//139
f 136//134 99//96 118//115
f 158//140 159//141 160//142
f 116//114 158//140 100//97
f 100//97 158//140 154//136
f 135//125 153//135 161//143
f 154//136 158//140 162//144
f 163//145 118//115 103//117
f 154//136 162//144 102//98
f 163//145 103//117 164//146
f 119//118 102//98 162//144
f 165//147 119//118 162//144
f 164//146 103//117 120//119
f 166//148 132//122 138//127
f 155//137 121//120 167//149
f 121//120 147//128 167//149
f 110//107 133//123 150//130
f 150//130 133//123 148//129
f 169//150 156//138 149//131
f 169//150 149//131 157//139
f 170//151 157//139 150//130
f 136//134 118//115 171//152
f 160//142 159//141 171//152
f 158//140 160//142 162//144
f 171//152 118//115 163//145
f 172//153 164//146 173//154
f 164//146 120//119 173//154
f 173//154 120//119 174//155
f 165//147 137//126 119//118
f 174//155 155//137 175//156
f 174//155 120//119 155//137
f 175//156 177//157 174//155
f 178//158 138//127 137//126
f 137//126 165//147 178//158
f 155//137 179//159 175//156
f 181//160 166//148 138//127
f 182//161 155//137 167//149
f 166//148 148//129 132//122
f 205//162 167//149 147//128
f 183//163 148//129 166//148
f 147//128 168//164 184//165
f 185//166 169//150 183//163
f 185//166 183//163 186//167
f 148//129 183//163 170//151
f 150//130 148//129 170//151
f 169//150 157//139 183//163
f 170//151 183//163 157//139
f 188//168 171//152 163//145
f 171//152 189//169 160//142
f 190//170 187//171 160//142
f 165//147 162//144 160//142
f 188//168 163//145 164//146
f 192//172 174//155 176//173
f 173//154 174//155 172//153
f 172//153 174//155 192//172
f 193//174 194//175 191//176
f 192//172 193//174 172//153
f 191//176 178//158 165//147
f 193//174 192//172 194//175
f 191//176 194//175 178//158
f 176//173 174//155 177//157
f 195//177 194//175 192//172
f 178//158 180//178 138//127
f 178//158 194//175 180//178
f 194//175 196//179 180//178
f 197//180 198//181 199//182
f 198//181 197//180 200//183
f 138//127 180//178 201//184
f 182//161 179//159 155//137
f 202//185 138//127 201//184
f 201//184 203//186 204//187
f 202//185 201//184 204//187
f 204//187 205//162 206//188
f 205//162 186//167 206//188
f 204//187 206//188 202//185
f 166//148 181//160 206//188
f 207//189 186//167 205//162
f 206//188 186//167 166//148
f 205//162 147//128 207//189
f 166//148 186//167 183//163
f 184//165 207//189 147//128
f 186//167 208//190 185//166
f 188//168 164//146 172//153
f 188//168 189//169 171//152
f 190//170 160//142 189//169
f 165//147 190//170 191//176
f 188//168 172//153 209//191
f 210//192 189//169 188//168
f 189//169 210//192 211//193
f 189//169 211//193 190//170
f 191//176 190//170 211//193
f 172//153 211//193 210//192
f 211//193 193//174 191//176
f 193//174 211//193 172//153
l 143 144
l 130 131
l 145 146
l 126 127
l 124 125
l 139 140
l 141 142
l 122 123
l 128 129
