# Blender v2.78 (sub 0) OBJ File: 'exporter.blend'
# www.blender.org
o FJ3187.obj_grp1.1828
v 1.166899 -0.861529 3.160974
v 1.166274 -0.850027 3.163634
v 1.151408 -0.856156 3.156232
v 1.159258 -0.841944 3.146284
v 1.151119 -0.853011 3.149974
v 1.158854 -0.865211 3.149126
v 1.158479 -0.865334 3.148998
v 1.190803 -0.849541 3.157110
v 1.182496 -0.849577 3.160693
v 1.162843 -0.840097 3.144096
v 1.163252 -0.839825 3.144297
v 1.169928 -0.874016 3.150609
v 1.180805 -0.873642 3.146940
v 1.173281 -0.891388 3.142347
v 1.173281 -0.891388 3.142347
v 1.162753 -0.889590 3.140499
v 1.162332 -0.897626 3.135406
v 1.166476 -0.869487 3.135722
v 1.166488 -0.913320 3.128690
v 1.164958 -0.909592 3.126630
v 1.165131 -0.909593 3.126751
v 1.187974 -0.859774 3.158166
v 1.190174 -0.850126 3.156162
v 1.171701 -0.838994 3.143320
v 1.187572 -0.859565 3.157709
v 1.190437 -0.852880 3.146994
v 1.174865 -0.839605 3.143803
v 1.179496 -0.864028 3.138704
v 1.184160 -0.865123 3.142691
v 1.165572 -0.862628 3.139169
v 1.184306 -0.903004 3.131484
v 1.180330 -0.885683 3.132776
v 1.179787 -0.911415 3.130027
v 1.168051 -0.905209 3.136127
v 1.167423 -0.911608 3.128116
v 1.183262 -0.907839 3.130547
v 1.179590 -0.910969 3.129747
v 1.182756 -0.910175 3.126818
v 1.167577 -0.912448 3.128479
v 1.168436 -0.909612 3.123437
v 1.167577 -0.912448 3.128479
v 1.165131 -0.909593 3.126751
v 1.168436 -0.909612 3.123437
v 1.183886 -0.843263 3.144614
v 1.183886 -0.843263 3.144614
v 1.182825 -0.868140 3.141027
v 1.183886 -0.843263 3.144614
v 1.176379 -0.887374 3.125737
v 1.176379 -0.887374 3.125737
v 1.182510 -0.909734 3.126939
v 1.183092 -0.907739 3.130347
v 1.182510 -0.909734 3.126939
v 1.180246 -0.908000 3.121877
v 1.182271 -0.908059 3.121922
vn -0.1051 -0.5157 0.8503
vn -0.0685 0.4235 0.9033
vn -0.8501 -0.0794 0.5206
vn -0.6935 0.7021 -0.1613
vn -0.9128 0.1477 -0.3808
vn -0.4399 -0.5915 0.6757
vn -0.7074 -0.0508 -0.7050
vn 0.8686 0.0197 0.4952
vn 0.1755 0.8881 0.4249
vn -0.5955 -0.0330 -0.8027
vn -0.1614 -0.5111 0.8442
vn 0.7228 -0.4755 0.5014
vn -0.2583 -0.4445 0.8577
vn 0.2850 -0.3964 0.8727
vn -0.2257 -0.5060 0.8325
vn -0.8763 0.1858 -0.4444
vn -0.4470 0.2769 -0.8506
vn -0.7864 -0.3532 0.5068
vn -0.9405 -0.3096 0.1401
vn 0.0686 0.8654 0.4964
vn 0.3268 0.8586 0.3950
vn -0.0972 0.7873 0.6089
vn 0.5670 -0.3774 0.7322
vn 0.4915 -0.8664 -0.0884
vn 0.9184 -0.1315 -0.3732
vn 0.3094 0.3249 -0.8937
vn 0.0367 0.2162 -0.9757
vn 0.1081 0.1570 -0.9817
vn -0.8209 0.1098 -0.5604
vn 0.9451 -0.1506 0.2899
vn 0.9136 0.1342 -0.3838
vn -0.4402 0.2341 -0.8669
vn 0.3374 -0.6292 0.7002
vn 0.0723 -0.6281 0.7748
vn -0.1175 -0.7501 0.6508
vn 0.4763 -0.5126 0.7144
vn 0.1200 -0.9420 -0.3135
vn 0.0487 -0.9308 -0.3622
vn 0.1566 -0.9800 -0.1225
vn 0.0726 -0.8863 -0.4573
vn -0.4936 -0.7191 -0.4891
vn -0.3876 0.1829 -0.9035
vn 0.8320 0.5171 -0.2007
vn 0.2617 0.9411 0.2140
vn 0.8523 -0.1385 -0.5044
vn 0.7620 0.1319 -0.6340
vn 0.2258 0.0872 -0.9703
vn 0.7871 0.2691 -0.5550
vn -0.6057 -0.0150 -0.7955
vn 0.6824 -0.6962 0.2227
vn 0.9700 -0.2416 -0.0256
vn 0.9755 -0.2120 -0.0592
vn 0.1070 -0.9032 -0.4156
vn 0.9600 0.0674 -0.2717
s 1
f 1//1 2//2 3//3
f 2//2 4//4 3//3
f 4//4 5//5 3//3
f 6//6 1//1 3//3
f 3//3 5//5 7//7
f 2//2 1//1 8//8
f 9//9 4//4 2//2
f 4//4 10//10 5//5
f 12//11 13//12 1//1
f 10//10 7//7 5//5
f 6//6 12//11 1//1
f 12//11 6//6 14//13
f 13//12 12//11 15//14
f 14//13 6//6 16//15
f 17//16 7//7 18//17
f 14//13 16//15 19//18
f 16//15 21//19 19//18
f 24//20 9//9 23//21
f 11//22 9//9 24//20
f 8//8 1//1 22//23
f 25//24 1//1 13//12
f 26//25 22//23 25//24
f 26//25 25//24 13//12
f 11//22 4//4 9//9
f 28//26 10//27 27//28
f 28//26 18//17 10//27
f 10//10 30//29 7//7
f 30//29 18//17 7//7
f 31//30 13//12 15//14
f 32//31 13//12 31//30
f 20//32 17//16 18//17
f 33//33 34//34 35//35
f 15//14 34//34 33//33
f 36//36 15//14 33//33
f 39//37 38//38 37//39
f 38//38 39//37 40//40
f 41//41 42//41 43//41
f 54//42 20//32 18//17
f 22//23 26//25 8//8
f 44//43 8//8 26//25
f 24//20 23//21 45//44
f 13//12 29//45 26//25
f 28//26 27//28 29//45
f 29//45 46//46 28//26
f 47//47 29//45 27//28
f 26//25 29//45 47//47
f 13//12 32//31 29//45
f 32//31 48//48 46//46
f 28//26 46//46 48//48
f 28//26 49//49 18//17
f 15//14 36//36 31//30
f 36//36 33//33 50//50
f 31//30 51//51 52//52
f 38//38 40//40 53//53
f 48//48 32//31 54//54
f 32//31 31//30 54//54
f 52//52 54//54 31//30
f 49//49 54//42 18//17
