# Blender v2.78 (sub 0) OBJ File: 'exporter.blend'
# www.blender.org
o FJ3103.obj_grp1.1744
v -0.070759 -0.837044 5.296503
v -0.070969 -0.835179 5.301123
v -0.067880 -0.819857 5.303898
v -0.067685 -0.825374 5.306745
v -0.058755 -0.803554 5.300738
v -0.067234 -0.831676 5.305812
v -0.061907 -0.808688 5.306992
v -0.061907 -0.808688 5.306992
v -0.061096 -0.824888 5.304796
v -0.054190 -0.794843 5.304141
v -0.044781 -0.787884 5.310020
v -0.053629 -0.802727 5.309095
v -0.059195 -0.820603 5.302633
v -0.047495 -0.793943 5.310899
v -0.070022 -0.846844 5.289676
v -0.065646 -0.825137 5.298729
v -0.066104 -0.833508 5.296854
v -0.062394 -0.827952 5.300464
v -0.063336 -0.833599 5.299808
v -0.066062 -0.833377 5.296852
v -0.071076 -0.835301 5.301155
v -0.067664 -0.849779 5.296715
v -0.063311 -0.833884 5.299715
v -0.063311 -0.833884 5.299715
v -0.062366 -0.828020 5.300419
v -0.064645 -0.845294 5.296859
v -0.048126 -0.793852 5.301437
v -0.057086 -0.813387 5.301499
v -0.059409 -0.820560 5.302626
v -0.057086 -0.813387 5.301499
v -0.050960 -0.804722 5.303117
v -0.043375 -0.797201 5.303827
v -0.042419 -0.796944 5.308963
v -0.038690 -0.787117 5.306500
v -0.019681 -0.788397 5.322780
v -0.014744 -0.783944 5.318689
v -0.070939 -0.851318 5.293070
v -0.067685 -0.884161 5.260664
v -0.065755 -0.851559 5.285349
v -0.064647 -0.845470 5.292579
v -0.038957 -0.789873 5.304342
v -0.017652 -0.784529 5.316119
v -0.009336 -0.793994 5.318118
v -0.025326 -0.793576 5.319104
v -0.024761 -0.788905 5.310015
v -0.008970 -0.791484 5.313983
v -0.023847 -0.788721 5.310888
v -0.012502 -0.791884 5.321778
v -0.014996 -0.792599 5.321404
v -0.067768 -0.890526 5.247215
v -0.069265 -0.887587 5.253050
v -0.063815 -0.860751 5.282345
v -0.063815 -0.860751 5.282345
v -0.009026 -0.783647 5.315408
v -0.010246 -0.786709 5.313262
v -0.009118 -0.783346 5.315114
v -0.066060 -0.880996 5.256130
v -0.063359 -0.887837 5.254528
v -0.008583 -0.791652 5.313416
v 0.000376 -0.779670 5.317045
v 0.002355 -0.786863 5.321516
v -0.063166 -0.869473 5.270233
v -0.063166 -0.869473 5.270233
v -0.062565 -0.871793 5.267958
v 0.005159 -0.780083 5.309526
v 0.005159 -0.780083 5.309526
v 0.000301 -0.779741 5.317038
v -0.069011 -0.902749 5.241746
v 0.016024 -0.771595 5.305865
v 0.012830 -0.772386 5.310018
v 0.005159 -0.780083 5.309526
v 0.016597 -0.782402 5.313424
v 0.019436 -0.728363 5.299803
v 0.025820 -0.724628 5.300001
v 0.017576 -0.729971 5.295827
v 0.021938 -0.738971 5.301032
v 0.026238 -0.730416 5.304418
v -0.074213 -0.906012 5.235258
v 0.018930 -0.778980 5.306100
v 0.022802 -0.725167 5.294268
v 0.023640 -0.729605 5.288883
v 0.019249 -0.733207 5.292137
v 0.024146 -0.738769 5.293266
v 0.019534 -0.765943 5.312354
v 0.026215 -0.768473 5.314304
v 0.028983 -0.724893 5.294525
v 0.023260 -0.753061 5.302362
v 0.020625 -0.759779 5.307427
v 0.018205 -0.773641 5.316220
v 0.030502 -0.748021 5.311544
v -0.074546 -0.905296 5.232363
v -0.068378 -0.892612 5.245069
v -0.070555 -0.906835 5.230212
v 0.016024 -0.771595 5.305865
v 0.018930 -0.778980 5.306100
v 0.027538 -0.728296 5.289758
v 0.021362 -0.764117 5.304034
v 0.027550 -0.756634 5.300689
v 0.021362 -0.764117 5.304034
v 0.035241 -0.734451 5.302954
v -0.079305 -0.911700 5.222969
v -0.080446 -0.912417 5.216651
v -0.078367 -0.914854 5.221201
v -0.078005 -0.909678 5.222629
v -0.074656 -0.904593 5.232947
v -0.075871 -0.910124 5.221257
v -0.073615 -0.911157 5.229108
v -0.074213 -0.906012 5.235258
v -0.072623 -0.911345 5.230084
v 0.030637 -0.735652 5.290673
v 0.024897 -0.768816 5.302767
v 0.032648 -0.763852 5.309043
v 0.034258 -0.732545 5.294203
v 0.036746 -0.743074 5.298454
v 0.032944 -0.761889 5.304058
v 0.024897 -0.768816 5.302767
v 0.029064 -0.769394 5.310043
v 0.035102 -0.753009 5.308896
v 0.032718 -0.762680 5.308963
v -0.105651 -0.917051 5.168608
v -0.105192 -0.918198 5.169022
v -0.094238 -0.917321 5.188918
v -0.104374 -0.916411 5.169106
v -0.104058 -0.917275 5.169545
v -0.104632 -0.918900 5.169045
v -0.104138 -0.917033 5.169393
v -0.104528 -0.917877 5.169191
v -0.103781 -0.916233 5.168478
v -0.104425 -0.916200 5.168924
v -0.103813 -0.917845 5.168060
v -0.103645 -0.917824 5.167799
v -0.105324 -0.918327 5.168974
v -0.094361 -0.916956 5.190671
v -0.104621 -0.918896 5.169071
v -0.097325 -0.916514 5.180284
v -0.095899 -0.920220 5.186402
v -0.097676 -0.919349 5.181645
v -0.094484 -0.916941 5.190565
v -0.100569 -0.916471 5.177373
v -0.093197 -0.919330 5.191261
v -0.100569 -0.916471 5.177373
v -0.089622 -0.915762 5.194931
v -0.089622 -0.915617 5.194739
v -0.079489 -0.915269 5.210876
v -0.084487 -0.918484 5.203423
v -0.086471 -0.913539 5.202514
v -0.086024 -0.915329 5.205853
v -0.085822 -0.914627 5.207600
v -0.083714 -0.916169 5.204157
v -0.078797 -0.911913 5.215869
v -0.072629 -0.908185 5.227136
v -0.073750 -0.910800 5.229068
v -0.079595 -0.915199 5.212301
vn -0.7737 0.3017 -0.5571
vn -0.9284 0.3602 -0.0909
vn -0.9470 0.3194 0.0356
vn -0.9180 0.1671 0.3596
vn -0.5453 0.4084 -0.7320
vn -0.7153 0.3882 0.5810
vn -0.7842 0.2628 0.5621
vn -0.6783 0.7158 -0.1661
vn -0.4679 0.8211 0.3270
vn -0.0622 -0.1338 0.9891
vn -0.1125 -0.3464 0.9313
vn 0.2204 -0.3099 0.9249
vn 0.7766 -0.3378 0.5318
vn 0.9258 -0.3585 0.1199
vn -0.3466 -0.0223 0.9378
vn 0.3654 0.2302 -0.9020
vn 0.5427 -0.0195 -0.8397
vn 0.7716 0.0648 -0.6328
vn 0.5529 -0.0959 -0.8277
vn -0.0683 0.1949 -0.9784
vn -0.9181 0.0086 0.3963
vn 0.0054 -0.5880 0.8089
vn 0.9733 -0.1346 -0.1860
vn 0.9627 -0.2456 -0.1136
vn 0.8784 -0.2670 0.3964
vn -0.0080 0.4216 -0.9067
vn 0.6559 -0.3075 0.6894
vn 0.9362 -0.3068 -0.1717
vn 0.7813 -0.5764 -0.2392
vn 0.5713 -0.6375 -0.5170
vn 0.5852 -0.3202 -0.7450
vn 0.2863 -0.8826 0.3729
vn 0.0149 0.8680 -0.4963
vn -0.1903 0.2133 0.9583
vn -0.8852 -0.3621 0.2921
vn -0.7210 0.4034 -0.5634
vn 0.5310 0.4833 -0.6960
vn 0.9962 0.0154 -0.0860
vn 0.9295 -0.0751 -0.3610
vn 0.2426 0.2596 -0.9347
vn -0.2253 0.9266 0.3012
vn -0.0130 0.9382 -0.3458
vn -0.1428 -0.6861 0.7134
vn 0.2747 -0.2821 -0.9192
vn -0.0676 -0.7007 -0.7102
vn 0.2605 -0.9627 0.0725
vn 0.2233 0.5749 -0.7872
vn 0.0293 -0.5568 0.8301
vn -0.0793 -0.4305 0.8991
vn -0.9699 0.2085 -0.1257
vn -0.3107 -0.7089 0.6332
vn 0.7185 -0.4853 0.4982
vn 0.9497 0.2461 -0.1940
vn -0.1449 0.8402 -0.5226
vn -0.2573 0.6163 -0.7443
vn -0.0336 0.2852 -0.9579
vn -0.2498 0.9453 -0.2096
vn -0.5322 0.6664 -0.5222
vn 0.3464 0.5946 -0.7256
vn 0.9595 -0.2615 0.1044
vn -0.5531 -0.1872 -0.8118
vn -0.1402 0.5038 0.8524
vn 0.3081 -0.2416 0.9202
vn 0.9621 0.2431 -0.1235
vn 0.9768 -0.1447 0.1581
vn 0.5378 0.5480 -0.6407
vn -0.5664 0.4607 -0.6833
vn -0.4274 0.6292 -0.6492
vn -0.4149 0.8475 -0.3312
vn 0.3961 -0.8072 0.4377
vn -0.2888 -0.0578 -0.9556
vn -0.6563 0.6862 -0.3136
vn -0.5730 0.7283 -0.3758
vn 0.6351 -0.7376 0.2294
vn -0.7357 0.4071 0.5413
vn -0.9794 0.1644 -0.1172
vn -0.9762 -0.1042 0.1902
vn -0.1631 0.4096 0.8976
vn 0.0450 0.8975 0.4387
vn -0.8273 -0.3086 0.4693
vn 0.5677 -0.7412 -0.3582
vn -0.3956 0.8673 -0.3020
vn -0.2625 0.2281 -0.9376
vn -0.7508 -0.2756 -0.6003
vn -0.6077 0.5184 0.6017
vn 0.5538 -0.1600 0.8171
vn -0.4421 -0.5357 -0.7194
vn -0.7156 -0.1749 -0.6763
vn -0.9526 0.1166 -0.2809
vn -0.1648 0.3803 0.9100
vn 0.4596 0.8632 -0.2092
vn 0.1986 0.2432 0.9494
vn -0.9285 0.3455 0.1364
vn 0.9488 0.0836 -0.3045
vn -0.4292 0.7048 -0.5648
vn -0.7686 0.4037 -0.4964
vn -0.2456 -0.1273 -0.9610
vn -0.8261 0.2299 -0.5145
vn 0.2913 0.5034 -0.8135
vn -0.1551 -0.2661 -0.9514
vn -0.3856 -0.0413 -0.9217
vn 0.7916 0.4075 0.4553
vn -0.4730 0.8773 -0.0809
vn -0.8884 0.0357 0.4576
vn -0.1011 0.9360 -0.3373
vn -0.6904 0.6998 -0.1832
vn -0.0817 0.8979 -0.4325
vn -0.3255 -0.7648 0.5561
vn -0.3725 -0.7148 0.5919
vn 0.0143 -0.9619 0.2731
vn -0.6931 -0.4998 0.5194
vn 0.8637 -0.5021 -0.0442
vn 0.3461 -0.2208 -0.9118
vn -0.3444 -0.0677 -0.9364
vn 0.8712 -0.4850 -0.0754
vn 0.8740 0.2766 -0.3994
vn 0.7647 -0.3839 -0.5176
vn 0.4643 -0.4059 -0.7872
vn 0.7155 -0.4288 0.5515
vn 0.9319 -0.1422 -0.3337
vn 0.8768 -0.0396 0.4792
vn 0.7198 -0.1972 0.6656
vn -0.8521 -0.1766 0.4927
vn -0.8579 -0.1758 0.4827
vn -0.8337 -0.1884 0.5191
vn 0.2021 -0.7321 -0.6506
vn -0.8593 0.4185 -0.2941
vn -0.1686 -0.5289 -0.8318
vn 0.0824 0.8901 -0.4482
vn -0.0524 0.9002 -0.4323
vn -0.7354 0.4892 -0.4688
vn 0.5865 0.7256 -0.3599
vn -0.6045 -0.7514 0.2647
vn -0.6457 -0.7291 0.2271
vn -0.5940 -0.7491 0.2932
vn 0.5809 -0.7438 -0.3307
vn -0.7859 0.5264 0.3243
vn -0.5692 0.7723 0.2821
vn -0.5070 0.8231 0.2560
vn -0.5119 0.8258 0.2367
vn -0.4493 -0.8826 0.1386
vn -0.8433 -0.3188 0.4327
vn -0.8185 -0.3012 0.4893
vn 0.0322 0.9983 0.0492
vn -0.0187 0.9998 0.0063
vn -0.1919 0.9797 0.0587
vn -0.2471 0.9621 0.1152
vn 0.4226 0.8721 -0.2466
vn 0.7043 0.5166 -0.4869
vn 0.4920 -0.8651 -0.0979
vn -0.6824 0.7088 0.1785
vn -0.6264 0.7193 0.3003
vn 0.4888 0.7800 -0.3907
vn 0.5751 0.6620 -0.4806
vn 0.5471 0.6576 -0.5179
vn 0.8911 -0.4287 -0.1490
vn 0.9098 -0.1143 -0.3991
vn 0.8795 -0.4004 -0.2573
s 1
f 1//1 2//2 3//3
f 4//4 3//3 2//2
f 5//5 1//1 3//3
f 5//5 3//3 7//6
f 8//7 3//3 4//4
f 10//8 5//5 7//6
f 11//9 10//8 7//6
f 4//10 6//11 12//12
f 7//6 4//10 12//12
f 6//11 9//13 12//12
f 13//14 12//12 9//13
f 7//6 14//15 11//9
f 7//6 12//12 14//15
f 17//16 18//17 19//18
f 16//19 18//17 17//16
f 16//19 20//20 1//1
f 4//10 21//21 6//11
f 1//1 21//21 2//2
f 21//21 22//22 6//11
f 16//19 1//1 5//5
f 6//11 22//22 9//13
f 24//23 25//24 9//13
f 22//22 26//25 9//13
f 5//5 27//26 16//19
f 18//17 16//19 27//26
f 18//17 28//27 29//28
f 18//17 27//26 28//27
f 25//24 13//14 9//13
f 28//27 27//26 31//29
f 27//26 32//30 31//29
f 30//31 31//29 13//14
f 10//8 27//26 5//5
f 31//29 12//12 13//14
f 31//29 33//32 12//12
f 11//9 27//26 10//8
f 27//26 11//9 34//33
f 33//32 14//15 12//12
f 11//9 14//15 35//34
f 37//35 1//1 15//36
f 37//35 21//21 1//1
f 1//1 20//20 17//16
f 15//36 1//1 17//16
f 19//18 39//37 17//16
f 26//25 40//38 19//18
f 21//21 37//35 22//22
f 9//13 26//25 23//39
f 27//26 34//33 41//40
f 32//30 27//26 41//40
f 31//29 32//30 33//32
f 34//33 11//9 36//41
f 34//33 36//41 42//42
f 44//43 14//15 33//32
f 14//15 44//43 35//34
f 39//37 15//36 17//16
f 19//18 40//38 39//37
f 41//40 45//44 32//30
f 45//44 33//32 32//30
f 33//32 45//44 46//45
f 46//45 43//46 33//32
f 42//42 47//47 34//33
f 44//43 33//32 43//46
f 48//48 44//43 43//46
f 44//43 49//49 35//34
f 37//35 15//36 51//50
f 51//50 38//51 37//35
f 38//51 22//22 37//35
f 52//52 40//38 26//25
f 39//37 40//38 53//53
f 52//52 26//25 22//22
f 34//33 47//47 41//40
f 42//42 54//54 47//47
f 45//44 54//55 55//56
f 36//41 56//57 42//42
f 48//48 35//34 49//49
f 15//36 50//58 51//50
f 39//37 57//59 15//36
f 22//22 58//60 52//52
f 46//45 45//44 55//56
f 46//45 55//56 59//61
f 35//34 36//41 11//9
f 60//62 36//41 35//34
f 35//34 48//48 61//63
f 57//59 50//58 15//36
f 58//60 22//22 38//51
f 39//37 53//53 62//64
f 52//52 58//60 63//65
f 57//59 39//37 64//66
f 65//67 59//61 55//56
f 66//68 55//56 54//55
f 67//69 56//57 36//41
f 43//46 61//63 48//48
f 58//60 38//51 68//70
f 65//67 69//71 59//61
f 70//72 71//73 67//69
f 71//73 56//57 67//69
f 43//46 72//74 61//63
f 60//62 35//34 61//63
f 73//75 75//76 76//77
f 73//75 77//78 74//79
f 76//77 77//78 73//75
f 78//80 68//70 38//51
f 79//81 43//46 46//45
f 80//82 81//83 75//76
f 81//83 82//84 75//76
f 84//85 70//72 60//62
f 61//63 84//85 60//62
f 61//63 72//74 85//86
f 73//75 80//82 75//76
f 74//79 80//82 73//75
f 76//77 75//76 82//84
f 83//87 76//77 82//84
f 87//88 88//89 76//77
f 70//72 84//85 88//89
f 89//90 84//85 61//63
f 86//91 80//82 74//79
f 76//77 84//85 77//78
f 77//78 84//85 90//92
f 76//77 88//89 84//85
f 78//80 51//50 91//93
f 93//94 92//95 57//59
f 38//51 51//50 78//80
f 58//60 68//70 93//94
f 93//94 57//59 64//66
f 93//94 64//66 58//60
f 94//96 71//73 70//72
f 59//61 69//71 95//97
f 72//74 43//46 79//81
f 82//84 81//83 83//87
f 70//72 88//89 94//96
f 88//89 97//98 94//96
f 81//83 80//82 86//91
f 96//99 81//83 86//91
f 87//88 76//77 83//87
f 87//88 97//98 88//89
f 87//88 98//100 99//101
f 85//86 89//90 61//63
f 74//79 100//102 86//91
f 89//90 90//92 84//85
f 89//90 85//86 90//92
f 100//102 74//79 77//78
f 100//102 77//78 90//92
f 102//103 101//104 91//93
f 104//105 105//106 106//107
f 106//107 105//106 92//95
f 91//93 101//104 78//80
f 107//108 78//80 103//109
f 105//106 51//50 50//58
f 92//95 105//106 50//58
f 106//107 92//95 93//94
f 101//104 103//110 108//111
f 109//112 93//94 68//70
f 107//108 68//70 78//80
f 81//83 110//113 83//87
f 111//114 69//71 99//101
f 111//114 99//101 98//100
f 111//114 95//97 69//71
f 79//81 112//115 72//74
f 96//99 86//91 113//116
f 96//99 113//116 110//113
f 110//113 81//83 96//99
f 110//113 98//100 83//87
f 83//87 98//100 87//88
f 98//100 115//117 116//118
f 117//119 85//86 72//74
f 86//91 100//102 113//116
f 113//116 100//102 114//120
f 118//121 85//86 119//122
f 117//119 119//122 85//86
f 118//121 114//120 100//102
f 100//102 90//92 118//121
f 85//86 118//121 90//92
f 120//123 121//124 122//125
f 125//126 124//127 130//128
f 126//129 131//130 127//131
f 135//132 131//130 126//129
f 134//133 136//134 132//135
f 125//126 130//128 137//136
f 138//137 139//138 120//139
f 120//139 139//138 123//140
f 140//141 133//142 132//143
f 128//144 129//145 141//146
f 128//144 141//146 142//147
f 135//132 143//148 144//149
f 130//128 145//150 137//136
f 139//138 138//137 146//151
f 140//141 137//136 145//150
f 133//142 140//141 101//104
f 146//151 138//137 148//152
f 133//142 101//104 147//153
f 101//104 102//103 147//153
f 106//107 146//151 148//152
f 144//149 143//148 150//154
f 151//155 144//149 150//154
f 140//141 103//110 101//104
f 140//141 145//150 103//110
f 148//152 104//105 106//107
f 152//156 103//110 145//150
f 145//150 149//157 152//156
f 153//158 93//94 109//112
f 116//118 115//117 79//81
f 115//117 98//100 110//113
f 110//113 114//120 115//117
f 112//115 79//81 115//117
f 110//113 113//116 114//120
f 112//115 115//117 118//121
f 114//120 118//121 115//117
f 144//149 131//130 135//132
f 130//128 149//157 145//150
