# Blender v2.78 (sub 0) OBJ File: 'exporter.blend'
# www.blender.org
o FJ3198.obj_grp1.1839
v -1.506647 -0.807229 3.413559
v -1.516876 -0.807133 3.403922
v -1.508514 -0.809754 3.415018
v -1.516876 -0.807133 3.403922
v -1.502774 -0.774749 3.422625
v -1.520552 -0.808674 3.390909
v -1.520908 -0.808917 3.391927
v -1.517098 -0.813810 3.392190
v -1.506083 -0.806133 3.387538
v -1.517170 -0.813672 3.391729
v -1.519410 -0.801121 3.380047
v -1.518204 -0.803678 3.379482
v -1.518204 -0.803678 3.379482
v -1.513387 -0.810532 3.386444
v -1.513387 -0.810532 3.386444
v -1.513387 -0.810532 3.386444
v -1.518204 -0.803678 3.379482
v -1.506083 -0.806133 3.387538
v -1.497661 -0.790245 3.443680
v -1.508705 -0.810428 3.415853
v -1.508076 -0.810004 3.413926
v -1.509410 -0.811099 3.410964
v -1.483108 -0.790965 3.439886
v -1.506759 -0.798411 3.376562
v -1.492576 -0.788303 3.391354
v -1.508795 -0.808606 3.378681
v -1.506083 -0.806133 3.387538
v -1.518204 -0.803678 3.379482
v -1.511289 -0.805842 3.380561
v -1.519722 -0.802158 3.378123
v -1.511957 -0.795894 3.376467
v -1.507208 -0.798636 3.377781
v -1.511289 -0.805842 3.380561
v -1.518204 -0.803678 3.379482
v -1.512416 -0.799059 3.376087
v -1.506759 -0.798411 3.376562
v -1.484785 -0.789452 3.472063
v -1.496288 -0.752558 3.457793
v -1.496785 -0.765105 3.477479
v -1.492622 -0.781584 3.400626
v -1.489370 -0.785904 3.402650
v -1.496182 -0.786280 3.387195
v -1.491373 -0.780028 3.407299
v -1.492576 -0.788303 3.391354
v -1.506759 -0.798411 3.376562
v -1.496182 -0.786280 3.387195
v -1.492576 -0.788303 3.391354
v -1.483358 -0.781262 3.483668
v -1.487889 -0.742390 3.467781
v -1.483309 -0.790078 3.469811
v -1.484041 -0.789562 3.460219
v -1.478096 -0.769537 3.423487
v -1.477661 -0.769057 3.424647
v -1.480384 -0.783036 3.424034
v -1.481004 -0.784604 3.481374
v -1.476168 -0.781473 3.482857
v -1.473234 -0.773224 3.484162
v -1.476168 -0.781473 3.482857
v -1.483309 -0.790078 3.469811
v -1.475760 -0.784702 3.477191
v -1.484807 -0.789510 3.472097
v -1.481004 -0.784604 3.481374
v -1.476168 -0.781473 3.482857
v -1.476168 -0.781473 3.482857
v -1.475760 -0.784702 3.477191
v -1.473702 -0.773053 3.483260
v -1.483624 -0.741164 3.448140
v -1.483309 -0.790078 3.469811
v -1.468475 -0.758773 3.433601
v -1.468706 -0.758126 3.433442
v -1.468676 -0.758098 3.433695
v -1.470930 -0.771842 3.481305
v -1.465380 -0.762591 3.475665
v -1.461077 -0.756369 3.468866
v -1.458386 -0.756651 3.440997
v -1.467911 -0.759103 3.432517
v -1.460084 -0.754069 3.465249
v -1.456424 -0.751256 3.448969
v -1.469234 -0.737693 3.446377
v -1.487778 -0.742347 3.467618
vn -0.7564 0.6518 -0.0550
vn -0.9019 0.1222 0.4143
vn -0.8462 0.1020 0.5230
vn -0.9429 0.2858 0.1707
vn -0.5140 -0.7670 0.3840
vn -0.8045 -0.5940 -0.0023
vn -0.6861 -0.7275 0.0017
vn -0.4660 -0.7400 0.4850
vn 0.5604 -0.8237 -0.0858
vn 0.6330 -0.7730 -0.0429
vn 0.5533 -0.8273 -0.0970
vn -0.9262 0.3425 -0.1577
vn -0.4848 -0.7039 -0.5191
vn -0.8800 -0.3416 -0.3300
vn -0.2381 -0.7694 -0.5927
vn 0.5254 -0.8417 -0.1241
vn 0.4109 -0.4913 -0.7680
vn 0.5821 -0.8110 0.0587
vn 0.6055 -0.7958 0.0023
vn -0.6791 -0.6630 0.3150
vn 0.6346 -0.7589 0.1462
vn 0.8796 -0.3848 -0.2797
vn 0.7879 -0.5932 -0.1651
vn 0.8867 -0.2221 -0.4056
vn -0.3210 -0.9255 0.2010
vn 0.0936 -0.3250 -0.9411
vn -0.1344 0.4789 -0.8675
vn 0.3872 0.3043 -0.8703
vn 0.0437 -0.5450 -0.8373
vn -0.0440 -0.5551 -0.8306
vn 0.1309 -0.5306 -0.8375
vn -0.7605 -0.5526 0.3410
vn -0.7394 0.0798 0.6685
vn 0.9047 0.1128 -0.4108
vn -0.0873 0.8544 -0.5122
vn 0.7344 0.5782 -0.3554
vn 0.4429 0.6765 -0.5884
vn 0.7671 0.5463 -0.3362
vn 0.7402 -0.0582 -0.6699
vn -0.2937 0.8221 0.4878
vn -0.8528 0.4918 -0.1758
vn -0.3843 -0.3243 0.8644
vn -0.3357 -0.9384 -0.0822
vn 0.9307 -0.3558 0.0853
vn 0.8319 -0.0806 -0.5490
vn -0.1740 0.7813 -0.5994
vn 0.8730 -0.3985 -0.2813
vn -0.2432 -0.6465 0.7232
vn 0.0796 -0.5249 0.8474
vn 0.0626 0.4368 0.8974
vn 0.0466 -0.2047 0.9777
vn 0.2531 -0.8868 0.3868
vn 0.2984 -0.8616 0.4106
vn 0.2621 -0.8897 0.3738
vn 0.3207 -0.8479 0.4221
vn 0.3679 -0.7964 0.4800
vn 0.8967 -0.2408 0.3714
vn 0.8596 -0.5110 -0.0015
vn 0.8730 -0.3306 0.3586
vn -0.5203 0.6638 -0.5372
vn 0.6257 -0.7744 -0.0933
vn 0.7943 -0.5944 -0.1256
vn 0.9049 -0.4256 0.0002
vn -0.0518 0.6982 -0.7140
vn 0.7751 -0.1239 -0.6196
vn 0.7216 -0.6674 -0.1843
vn 0.8322 -0.5532 0.0383
vn 0.8765 -0.0675 -0.4766
vn 0.5594 -0.7195 -0.4116
vn 0.4859 0.5047 0.7135
vn 0.3503 0.7835 0.5133
vn 0.9353 0.3509 -0.0447
vn 0.2855 0.9436 -0.1675
vn -0.2334 0.9723 0.0093
s 1
f 5//1 4//2 3//3
f 4//2 5//1 6//4
f 2//5 7//6 8//7
f 8//7 1//8 2//5
f 9//9 21//10 10//11
f 5//1 11//12 6//4
f 8//7 7//6 12//13
f 6//4 11//12 13//14
f 8//7 12//13 14//15
f 10//11 15//16 9//9
f 16//17 17//17 18//17
f 21//10 20//18 22//19
f 3//3 19//20 5//1
f 21//10 9//9 23//21
f 23//21 24//22 25//23
f 26//24 24//22 23//21
f 27//25 28//25 29//25
f 30//26 31//27 32//28
f 33//29 34//30 35//29
f 36//31 33//29 35//29
f 23//21 37//32 19//20
f 19//20 20//18 23//21
f 39//33 5//1 19//20
f 23//21 20//18 21//10
f 25//23 41//34 23//21
f 31//27 11//12 5//1
f 5//1 40//35 31//27
f 42//36 43//37 44//38
f 40//35 32//28 31//27
f 45//39 46//39 47//39
f 39//33 49//40 38//41
f 37//32 48//42 19//20
f 48//42 39//33 19//20
f 50//43 37//32 51//44
f 39//33 38//41 5//1
f 51//44 37//32 23//21
f 53//45 41//34 43//37
f 40//35 5//1 52//46
f 54//47 23//21 41//34
f 41//34 44//38 43//37
f 55//48 56//49 48//42
f 57//50 48//42 58//51
f 48//42 57//50 39//33
f 39//33 57//50 49//40
f 48//42 37//32 55//48
f 59//52 60//53 61//54
f 61//54 60//53 62//55
f 60//53 63//56 62//55
f 64//57 65//58 66//59
f 38//41 49//40 67//60
f 65//58 68//61 51//62
f 51//44 23//21 69//63
f 38//41 70//64 5//1
f 69//63 23//21 54//47
f 53//45 71//65 54//47
f 70//64 52//46 5//1
f 53//45 54//47 41//34
f 73//66 66//59 74//67
f 65//58 74//67 66//59
f 51//62 74//67 65//58
f 75//68 51//62 76//69
f 67//60 70//64 38//41
f 72//70 49//40 57//50
f 77//71 49//40 72//70
f 74//67 51//62 75//68
f 78//72 79//73 49//40
f 80//74 79//73 67//60
f 79//73 70//64 67//60
f 78//72 70//64 79//73
f 49//40 77//71 78//72
f 78//72 74//67 75//68
f 75//68 70//64 78//72
