# Blender v2.78 (sub 0) OBJ File: 'exporter.blend'
# www.blender.org
o FJ3100.obj_grp1.1741
v 0.125750 -0.784340 5.298637
v 0.127113 -0.781885 5.300356
v 0.124528 -0.783674 5.301051
v 0.126708 -0.782540 5.302569
v 0.125877 -0.784417 5.302753
v 0.128139 -0.782090 5.301021
v 0.127740 -0.784341 5.302783
v 0.140405 -0.790076 5.294430
v 0.125522 -0.786020 5.301224
v 0.125688 -0.784869 5.302680
v 0.132247 -0.789114 5.299036
v 0.139895 -0.793460 5.295053
v 0.143464 -0.791264 5.296564
v 0.140628 -0.792119 5.293434
v 0.135076 -0.786214 5.296382
v 0.142555 -0.794311 5.296994
v 0.142116 -0.791275 5.293612
v 0.146890 -0.794777 5.293331
v 0.146890 -0.794777 5.293331
v 0.150549 -0.801580 5.293800
v 0.151259 -0.800687 5.292966
v 0.152319 -0.798575 5.294035
v 0.150919 -0.800345 5.293002
v 0.153812 -0.801864 5.292784
v 0.146890 -0.794777 5.293331
v 0.152319 -0.798575 5.294035
v 0.151999 -0.800330 5.297215
v 0.156008 -0.801821 5.295564
v 0.155208 -0.805793 5.294862
v 0.154767 -0.804311 5.296277
v 0.150640 -0.801620 5.293784
v 0.156778 -0.802397 5.293721
v 0.156290 -0.802976 5.292228
v 0.156939 -0.804236 5.295683
v 0.155744 -0.807023 5.291372
v 0.157176 -0.807411 5.289433
v 0.164540 -0.815146 5.286292
v 0.162455 -0.815335 5.285302
v 0.162610 -0.814299 5.283349
v 0.169614 -0.818916 5.281374
v 0.162590 -0.809739 5.286335
v 0.166139 -0.815953 5.281302
v 0.162590 -0.809739 5.286335
v 0.162455 -0.815335 5.285302
v 0.162649 -0.814279 5.283378
v 0.165161 -0.814070 5.286242
v 0.165238 -0.813992 5.286335
v 0.168294 -0.823741 5.280444
v 0.169438 -0.822679 5.279258
v 0.162455 -0.815335 5.285302
v 0.168178 -0.822367 5.282970
v 0.167040 -0.817326 5.284786
v 0.170474 -0.822428 5.283021
v 0.174173 -0.825112 5.281069
v 0.174201 -0.825964 5.279457
v 0.172428 -0.824086 5.282673
v 0.175422 -0.827405 5.282627
v 0.175235 -0.829968 5.283304
v 0.174363 -0.828892 5.279231
v 0.175506 -0.827516 5.282641
v 0.178614 -0.834965 5.281515
v 0.178818 -0.835381 5.283295
v 0.179764 -0.834277 5.284490
v 0.181151 -0.832798 5.283402
v 0.180564 -0.833772 5.281199
v 0.180842 -0.834786 5.282716
vn -0.0968 0.6845 0.7226
vn -0.9719 0.2319 0.0410
vn -0.3724 0.0324 0.9275
vn -0.1223 0.9402 -0.3178
vn 0.3990 0.8883 0.2275
vn 0.2431 -0.1353 0.9605
vn -0.6133 0.0360 -0.7890
vn 0.0454 0.5503 -0.8337
vn -0.6332 -0.7567 0.1629
vn -0.0077 -0.5278 0.8494
vn -0.2315 -0.8104 0.5382
vn -0.6000 -0.7513 -0.2750
vn 0.6004 0.6329 0.4889
vn -0.2552 -0.0375 -0.9662
vn 0.4767 0.8703 -0.1239
vn -0.2049 -0.4912 0.8466
vn 0.5409 0.8001 -0.2592
vn 0.0185 0.1001 -0.9948
vn 0.5608 0.7845 -0.2646
vn -0.3601 -0.5190 -0.7752
vn -0.2389 -0.1514 -0.9592
vn 0.6318 0.7730 -0.0567
vn -0.0608 -0.0039 -0.9981
vn 0.0033 0.3253 -0.9456
vn 0.4404 0.4868 -0.7543
vn 0.4471 0.5428 -0.7110
vn 0.0973 0.0794 0.9921
vn 0.6800 0.5541 0.4801
vn -0.3857 -0.7809 0.4913
vn -0.0829 -0.4472 0.8906
vn -0.6086 -0.5732 -0.5486
vn 0.7037 0.6978 -0.1336
vn 0.3010 0.7546 -0.5831
vn 0.5745 -0.0863 0.8139
vn -0.8067 -0.5154 -0.2891
vn -0.7093 0.0067 -0.7048
vn 0.1101 -0.4865 0.8667
vn -0.8276 -0.5372 -0.1628
vn -0.7552 0.0147 -0.6553
vn 0.7635 0.5452 -0.3460
vn 0.6996 0.6898 -0.1863
vn 0.0784 0.4603 -0.8843
vn -0.0907 0.5788 -0.8104
vn -0.2692 -0.6708 0.6910
vn -0.2308 0.6494 -0.7246
vn 0.5042 -0.3523 0.7885
vn 0.4473 -0.3338 0.8297
vn -0.7723 -0.5562 -0.3071
vn -0.1511 0.0957 -0.9839
vn -0.4828 -0.5178 0.7063
vn -0.6794 -0.6592 0.3223
vn 0.6136 0.0643 0.7870
vn 0.2706 -0.0856 0.9589
vn 0.7708 0.6328 0.0734
vn 0.5333 0.3773 -0.7571
vn 0.6468 0.5957 0.4762
vn 0.7228 0.5682 0.3935
vn -0.2705 -0.1623 0.9489
vn -0.1595 -0.3459 -0.9246
vn 0.4576 0.4322 0.7771
vn -0.2073 -0.8215 -0.5313
vn -0.2334 -0.9176 0.3219
vn 0.8804 0.3025 0.3653
vn 0.2207 -0.3184 0.9219
vn 0.6691 -0.1187 -0.7337
vn 0.7590 -0.6495 -0.0462
s 1
f 4//1 3//2 5//3
f 2//4 3//2 4//1
f 2//4 4//1 6//5
f 4//1 5//3 7//6
f 1//7 3//2 2//4
f 2//4 8//8 1//7
f 9//9 5//3 3//2
f 10//10 7//6 5//3
f 3//2 1//7 9//9
f 9//9 11//11 10//10
f 9//9 12//12 11//11
f 13//13 4//1 7//6
f 6//5 4//1 13//13
f 8//8 14//14 1//7
f 6//5 15//15 2//4
f 9//9 1//7 12//12
f 11//11 7//6 10//10
f 1//7 14//14 12//12
f 13//13 15//15 6//5
f 12//12 16//16 11//11
f 11//11 16//16 7//6
f 16//16 13//13 7//6
f 15//15 13//13 17//17
f 14//14 8//8 18//18
f 17//17 13//13 19//19
f 12//12 14//14 20//20
f 21//21 20//20 14//14
f 13//13 22//22 19//19
f 18//18 23//23 14//14
f 23//23 18//18 24//24
f 25//25 26//26 24//24
f 13//13 27//27 28//28
f 28//28 22//22 13//13
f 12//12 29//29 16//16
f 27//27 16//16 30//30
f 31//31 29//29 12//12
f 29//29 30//30 16//16
f 13//13 16//16 27//27
f 32//32 22//22 28//28
f 24//24 26//26 33//33
f 33//33 26//26 32//32
f 31//31 20//20 21//21
f 24//24 21//21 23//23
f 28//28 27//27 34//34
f 27//27 30//30 34//34
f 24//24 35//35 21//21
f 21//21 35//35 31//31
f 24//24 36//36 35//35
f 29//29 31//31 35//35
f 30//30 29//29 37//37
f 38//38 29//29 35//35
f 39//39 35//35 36//36
f 35//35 39//39 38//38
f 40//40 32//32 28//28
f 34//34 40//40 28//28
f 37//37 34//34 30//30
f 41//41 33//33 32//32
f 42//42 33//33 43//43
f 32//32 40//40 41//41
f 37//37 29//29 44//44
f 36//36 24//24 42//42
f 42//42 24//24 33//33
f 42//42 45//45 36//36
f 41//41 40//40 42//42
f 40//40 34//34 46//46
f 47//47 34//34 37//37
f 42//42 39//39 45//45
f 39//39 48//48 38//38
f 48//48 39//39 49//49
f 48//48 51//50 50//51
f 37//37 44//44 51//50
f 47//47 37//37 52//52
f 42//42 49//49 39//39
f 37//37 51//50 53//53
f 40//40 46//46 54//54
f 52//52 37//37 53//53
f 54//54 46//46 53//53
f 40//40 49//49 42//42
f 49//49 40//40 55//55
f 54//54 53//53 56//56
f 57//57 54//54 56//56
f 51//50 58//58 53//53
f 59//59 48//48 49//49
f 55//55 59//59 49//49
f 54//54 55//55 40//40
f 56//56 53//53 60//60
f 51//50 48//48 58//58
f 60//60 53//53 58//58
f 59//59 61//61 48//48
f 62//62 58//58 48//48
f 54//54 57//57 60//60
f 55//55 54//54 64//63
f 54//54 60//60 64//63
f 58//58 62//62 63//64
f 48//48 61//61 62//62
f 64//63 58//58 63//64
f 60//60 58//58 64//63
f 59//59 65//65 61//61
f 55//55 65//65 59//59
f 64//63 65//65 55//55
f 62//62 61//61 66//66
f 65//65 66//66 61//61
f 64//63 63//64 66//66
f 64//63 66//66 65//65
f 62//62 66//66 63//64
