# Blender v2.78 (sub 0) OBJ File: 'exporter.blend'
# www.blender.org
o FJ3185.obj_grp1.1826
v 0.759236 -0.849864 -0.314578
v 0.763099 -0.841838 -0.307077
v 0.757140 -0.842030 -0.316438
v 0.755373 -0.847947 -0.313603
v 0.763798 -0.839631 -0.307896
v 0.772195 -0.836209 -0.305321
v 0.766379 -0.838328 -0.306845
v 0.766379 -0.838328 -0.306845
v 0.757655 -0.849172 -0.317838
v 0.759980 -0.851675 -0.314620
v 0.757729 -0.849721 -0.318061
v 0.759980 -0.851675 -0.314620
v 0.764631 -0.830640 -0.322227
v 0.780175 -0.831170 -0.328656
v 0.768200 -0.850586 -0.323189
v 0.785035 -0.826745 -0.317356
v 0.774336 -0.852065 -0.310795
v 0.768200 -0.850586 -0.323189
v 0.765537 -0.830560 -0.322282
v 0.769910 -0.828794 -0.324731
v 0.780848 -0.830129 -0.309132
v 0.788273 -0.827873 -0.316767
v 0.778615 -0.875453 -0.319361
v 0.777545 -0.871328 -0.315382
v 0.771781 -0.858329 -0.319230
v 0.769759 -0.854868 -0.317687
v 0.769759 -0.854868 -0.317687
v 0.776606 -0.865446 -0.326726
v 0.779033 -0.846773 -0.326802
v 0.769759 -0.854868 -0.317687
v 0.772191 -0.858356 -0.319255
v 0.778679 -0.858323 -0.312836
v 0.772191 -0.858356 -0.319255
v 0.778679 -0.858323 -0.312836
v 0.769759 -0.854868 -0.317687
v 0.774336 -0.852065 -0.310795
v 0.788122 -0.860686 -0.314369
v 0.786350 -0.841701 -0.315302
v 0.787354 -0.828085 -0.317619
v 0.788943 -0.830590 -0.314791
v 0.787652 -0.840839 -0.322063
v 0.776915 -0.871632 -0.324520
v 0.783525 -0.866140 -0.331053
v 0.793804 -0.869329 -0.326987
v 0.781472 -0.875759 -0.317909
v 0.783552 -0.875538 -0.319144
v 0.781503 -0.875844 -0.317826
v 0.776510 -0.865670 -0.326894
v 0.786152 -0.867386 -0.321490
v 0.786129 -0.867365 -0.321479
v 0.786129 -0.867365 -0.321479
v 0.786161 -0.867363 -0.321483
v 0.786162 -0.867386 -0.321515
v 0.786148 -0.867353 -0.321486
v 0.786161 -0.867388 -0.321498
v 0.786181 -0.867374 -0.321521
v 0.786181 -0.867374 -0.321521
v 0.786171 -0.867364 -0.321491
v 0.792313 -0.871561 -0.323221
v 0.786577 -0.845295 -0.321562
v 0.795991 -0.866561 -0.322872
v 0.786692 -0.840615 -0.321028
v 0.793001 -0.866513 -0.329494
v 0.793716 -0.869473 -0.326411
v 0.793716 -0.869473 -0.326411
vn -0.4581 -0.5022 0.7334
vn -0.5050 -0.0296 0.8626
vn -0.6930 0.4687 0.5478
vn -0.5919 0.6863 0.4228
vn -0.5200 0.4376 0.7336
vn -0.3334 0.9377 0.0974
vn -0.0089 0.4096 0.9122
vn -0.7520 -0.1837 -0.6330
vn -0.6408 -0.7573 -0.1262
vn -0.8758 -0.2084 -0.4354
vn -0.4463 -0.1148 -0.8875
vn 0.2459 0.3991 -0.8833
vn -0.6345 -0.1483 -0.7586
vn -0.0786 -0.4967 0.8643
vn -0.3058 -0.8647 -0.3985
vn -0.2598 -0.9122 -0.3170
vn -0.3424 -0.8331 -0.4344
vn -0.2855 0.7103 0.6434
vn 0.1565 0.9824 0.1024
vn 0.1186 0.7117 0.6924
vn -0.9037 -0.3920 -0.1724
vn -0.5257 -0.8492 -0.0494
vn -0.4802 -0.4487 0.7537
vn 0.1728 -0.4692 0.8660
vn -0.4053 -0.7736 -0.4871
vn -0.8789 -0.4637 -0.1119
vn -0.4874 0.1024 -0.8671
vn 0.0923 0.0636 -0.9937
vn -0.5484 -0.6041 0.5781
vn -0.5451 -0.6291 0.5542
vn -0.5484 -0.6041 0.5782
vn -0.7010 -0.0776 0.7089
vn -0.1750 -0.1901 0.9661
vn -0.2464 -0.8296 0.5010
vn 0.8213 -0.0293 -0.5698
vn -0.5511 -0.5785 0.6013
vn 0.5838 -0.0784 0.8081
vn 0.8758 -0.0531 0.4798
vn -0.4229 0.6982 -0.5777
vn 0.5883 -0.1210 0.7996
vn 0.7576 0.3947 -0.5198
vn 0.8759 0.2055 0.4366
vn 0.4540 0.5775 0.6785
vn -0.6280 -0.5932 -0.5037
vn 0.1715 -0.5696 -0.8038
vn 0.3925 -0.9168 0.0736
vn -0.0416 -0.9842 -0.1722
vn -0.8330 0.0405 -0.5517
vn -0.0501 -0.1875 -0.9810
vn 0.5668 -0.8047 0.1769
vn 0.8816 0.0625 -0.4678
vn 0.9728 -0.0655 0.2221
vn 0.9989 -0.0469 0.0023
vn 0.8064 -0.5905 -0.0317
vn 0.8916 -0.2050 -0.4037
vn 0.8448 0.3498 -0.4050
s 1
f 1//1 2//2 3//3
f 5//4 3//3 2//2
f 5//4 2//2 7//5
f 8//6 2//2 6//7
f 9//8 10//9 4//10
f 9//8 4//10 13//11
f 14//12 15//13 9//8
f 17//14 2//2 1//1
f 12//15 11//16 18//17
f 6//7 2//2 17//14
f 19//18 3//3 16//19
f 3//3 5//4 16//19
f 16//19 5//4 6//7
f 5//4 8//6 6//7
f 16//19 6//7 22//20
f 25//21 23//22 24//23
f 23//22 47//24 24//23
f 18//17 26//25 12//15
f 25//21 27//26 15//13
f 25//21 15//13 28//27
f 29//28 28//27 15//13
f 30//29 31//30 32//31
f 33//32 24//23 34//33
f 14//12 9//8 13//11
f 17//14 1//1 35//34
f 29//28 15//13 14//12
f 29//28 14//12 41//35
f 32//31 36//36 30//29
f 6//7 17//14 37//37
f 34//33 37//37 17//14
f 24//23 37//37 34//33
f 38//38 6//7 37//37
f 20//39 14//12 13//11
f 38//38 21//40 6//7
f 20//39 16//19 14//12
f 16//19 20//39 19//18
f 39//41 14//12 16//19
f 40//42 22//43 21//40
f 38//38 40//42 21//40
f 38//38 41//35 40//42
f 23//22 25//21 42//44
f 42//44 44//45 23//22
f 46//46 45//47 23//22
f 44//45 46//46 23//22
f 48//48 25//21 28//27
f 29//28 43//49 28//27
f 42//44 25//21 48//48
f 43//49 42//44 28//27
f 43//49 44//45 42//44
f 47//24 37//37 24//23
f 47//24 59//50 37//37
f 47//24 46//46 59//50
f 29//28 41//35 60//51
f 61//52 60//51 37//37
f 61//52 29//28 60//51
f 60//51 62//53 38//38
f 60//51 38//38 37//37
f 41//35 14//12 39//41
f 39//41 40//42 41//35
f 29//28 44//45 43//49
f 44//45 59//50 46//46
f 64//54 61//52 59//50
f 65//55 63//56 61//52
f 29//28 61//52 63//56
f 61//52 37//37 59//50
l 55 56
l 49 50
l 57 58
l 53 54
l 51 52
