# Blender v2.78 (sub 0) OBJ File: 'exporter.blend'
# www.blender.org
o FJ3104.obj_grp1.1745
v -0.147675 -0.714383 5.380480
v -0.149426 -0.713706 5.380885
v -0.148669 -0.713138 5.381261
v -0.149475 -0.713589 5.381054
v -0.148565 -0.713602 5.380767
v -0.148762 -0.713529 5.379837
v -0.147429 -0.714094 5.379568
v -0.147734 -0.713105 5.380181
v -0.148438 -0.712969 5.380415
v -0.147693 -0.712877 5.380132
v -0.147567 -0.712954 5.380841
v -0.147734 -0.713105 5.380181
v -0.149472 -0.713712 5.380872
v -0.149237 -0.714288 5.381683
v -0.147539 -0.713639 5.381785
v -0.143111 -0.728886 5.388590
v -0.146366 -0.723377 5.385580
v -0.145019 -0.723590 5.383197
v -0.142096 -0.736406 5.388346
v -0.137256 -0.738861 5.388567
v -0.138429 -0.738318 5.386710
v -0.143104 -0.729039 5.388537
v -0.140805 -0.738542 5.387029
v -0.139006 -0.737220 5.390057
v -0.139499 -0.741683 5.386342
v -0.135990 -0.743555 5.388488
v -0.137550 -0.744821 5.388500
v -0.139261 -0.742085 5.386306
v -0.139968 -0.742685 5.387959
v -0.139520 -0.742602 5.387866
v -0.137145 -0.741089 5.386014
v -0.135621 -0.746914 5.382999
v -0.134020 -0.755610 5.379665
v -0.137095 -0.741301 5.386096
v -0.133492 -0.755226 5.379580
v -0.134229 -0.746134 5.384988
v -0.133973 -0.751072 5.384375
v -0.134515 -0.745535 5.385345
v -0.129293 -0.763103 5.367013
v -0.130276 -0.756571 5.372136
v -0.131151 -0.757152 5.378356
v -0.133993 -0.755881 5.379649
v -0.131482 -0.756643 5.379007
v -0.128136 -0.758369 5.374475
v -0.131149 -0.760054 5.374476
v -0.125748 -0.760667 5.370125
v -0.117611 -0.768383 5.350378
v -0.118879 -0.766504 5.359144
v -0.114385 -0.767353 5.353525
v -0.117341 -0.766204 5.357205
v -0.121757 -0.769522 5.358440
v -0.121674 -0.769198 5.358461
v -0.105909 -0.773720 5.344028
v -0.117018 -0.767337 5.357975
v -0.109101 -0.775399 5.338700
v -0.107982 -0.772623 5.337835
v -0.107982 -0.772623 5.337835
v -0.100597 -0.778801 5.334016
v -0.108082 -0.770577 5.344548
v -0.108082 -0.770577 5.344548
v -0.106162 -0.773628 5.343939
v -0.101820 -0.772346 5.335113
v -0.095645 -0.780143 5.327005
v -0.093492 -0.775437 5.330418
v -0.101820 -0.772346 5.335113
v -0.098991 -0.774295 5.335394
v -0.093036 -0.776764 5.321828
v -0.094294 -0.773734 5.325000
v -0.094558 -0.773588 5.329132
v -0.098991 -0.774295 5.335394
v -0.092916 -0.776792 5.321826
v -0.084205 -0.779549 5.317148
v -0.084610 -0.776027 5.315958
v -0.077888 -0.776242 5.319830
v -0.074156 -0.773599 5.310903
v -0.074177 -0.772253 5.313424
v -0.074757 -0.773544 5.317483
v -0.074321 -0.778384 5.316945
v -0.070281 -0.776135 5.308821
v -0.074321 -0.778384 5.316945
v -0.063639 -0.772192 5.308353
v -0.055221 -0.769748 5.309716
v -0.062088 -0.776740 5.313770
v -0.063639 -0.772192 5.308353
v -0.054720 -0.777508 5.310145
v -0.067743 -0.771929 5.314034
v -0.061812 -0.770685 5.311123
v -0.059085 -0.771976 5.313611
v -0.067743 -0.771929 5.314034
v -0.051027 -0.773991 5.306697
v -0.048888 -0.770173 5.307781
v -0.047172 -0.775864 5.314693
v -0.040928 -0.772149 5.317757
v -0.047005 -0.775891 5.314785
v -0.040805 -0.777183 5.314909
v -0.041222 -0.775057 5.317505
v -0.020342 -0.775974 5.315976
v -0.034632 -0.769691 5.315790
v -0.040782 -0.777215 5.314926
v -0.027706 -0.777524 5.314248
v -0.022606 -0.772883 5.320018
v -0.028225 -0.777722 5.322441
v -0.027694 -0.780074 5.317059
v -0.014511 -0.780565 5.323661
v -0.017033 -0.783335 5.315264
v -0.015336 -0.779515 5.315677
v -0.010611 -0.791459 5.318195
v -0.009860 -0.780975 5.321483
v -0.006384 -0.789066 5.313335
v -0.004381 -0.787777 5.321279
v -0.004068 -0.784878 5.317251
v -0.005511 -0.786591 5.313924
v -0.007477 -0.791544 5.314790
v -0.006499 -0.791838 5.320807
v -0.003316 -0.789262 5.317396
vn 0.0142 0.5379 -0.8429
vn 0.0209 0.5528 -0.8330
vn 0.0170 0.5265 -0.8500
vn -0.2732 -0.1837 -0.9443
vn -0.4130 0.0834 -0.9069
vn -0.0321 0.6430 -0.7652
vn -0.1003 0.7352 -0.6704
vn 0.9474 0.3098 -0.0802
vn 0.9595 0.2557 -0.1179
vn 0.8365 0.4421 -0.3239
vn -0.2350 0.5798 0.7801
vn 0.1835 0.6175 0.7649
vn -0.4079 0.8028 0.4350
vn 0.0642 0.3238 0.9440
vn -0.7876 0.1095 0.6063
vn 0.2441 0.4573 0.8551
vn -0.7571 -0.4458 -0.4775
vn -0.9544 -0.2415 0.1755
vn -0.5227 -0.2178 0.8242
vn 0.4554 -0.0995 -0.8847
vn 0.8913 0.4180 0.1760
vn -0.6751 -0.1391 0.7245
vn -0.6497 -0.2194 -0.7278
vn -0.8784 -0.3047 -0.3683
vn 0.4719 0.1779 -0.8635
vn 0.2249 0.1473 0.9632
vn -0.1472 0.1250 -0.9812
vn -0.3224 -0.5483 0.7716
vn -0.6720 -0.0109 -0.7404
vn -0.8595 -0.1402 -0.4916
vn -0.6805 -0.3906 0.6200
vn -0.2738 0.2593 -0.9262
vn 0.6794 -0.0701 0.7304
vn 0.0769 0.6549 -0.7518
vn 0.7050 0.4986 -0.5044
vn -0.6915 -0.6368 0.3410
vn 0.8732 0.4773 -0.0988
vn 0.3352 -0.5379 0.7735
vn 0.9262 0.2842 0.2479
vn -0.8864 -0.3488 -0.3043
vn -0.9145 -0.3648 -0.1751
vn -0.0986 0.7448 -0.6599
vn 0.3046 -0.5955 0.7433
vn -0.0979 -0.7295 0.6769
vn 0.6841 -0.3186 0.6561
vn 0.7927 -0.2611 0.5508
vn -0.4030 -0.8279 0.3900
vn 0.6860 0.7249 0.0620
vn -0.0407 0.8765 -0.4796
vn 0.1025 0.9237 -0.3692
vn -0.5598 0.5723 -0.5993
vn -0.2070 -0.8835 0.4203
vn 0.8180 0.3620 0.4471
vn 0.3615 -0.7574 0.5437
vn 0.7999 0.4702 0.3729
vn -0.7166 -0.5640 -0.4104
vn -0.8469 -0.2798 -0.4521
vn -0.7143 0.2023 -0.6700
vn 0.0649 -0.9502 0.3049
vn 0.7721 0.4259 0.4717
vn 0.7690 0.3841 0.5110
vn 0.3137 0.9494 -0.0124
vn 0.3023 0.9513 0.0606
vn -0.2518 -0.9561 -0.1496
vn 0.5117 0.2188 0.8309
vn -0.1201 0.9494 -0.2904
vn -0.2686 0.8573 -0.4392
vn -0.2169 0.8310 -0.5123
vn 0.7318 0.3457 0.5873
vn -0.5897 -0.0791 -0.8037
vn -0.3681 0.8438 -0.3905
vn 0.2656 0.9108 0.3161
vn -0.4186 -0.5837 -0.6958
vn -0.2164 -0.8362 -0.5040
vn 0.5242 0.7901 0.3176
vn -0.5069 0.1796 -0.8431
vn 0.5028 -0.1675 0.8480
vn -0.3932 0.5175 -0.7600
vn -0.1612 0.9810 -0.1082
vn 0.1731 0.8025 0.5710
vn 0.3236 -0.5918 0.7383
vn -0.2191 -0.3547 -0.9089
vn 0.1379 -0.9669 0.2149
vn -0.1959 0.8742 -0.4443
vn -0.1014 0.9895 -0.1031
vn 0.2770 -0.4886 0.8274
vn -0.1570 0.1807 -0.9709
vn -0.0424 0.9425 0.3316
vn -0.0331 0.9108 0.4115
vn 0.0314 0.5658 0.8239
vn -0.0039 0.8703 0.4925
vn 0.0400 -0.9776 -0.2064
vn 0.0949 -0.2079 -0.9735
vn 0.1470 0.6848 -0.7138
vn -0.1756 -0.5830 0.7932
vn -0.1716 0.4485 0.8772
vn -0.4945 0.0803 0.8654
vn -0.3586 -0.4855 0.7973
vn -0.2616 -0.4488 0.8545
vn 0.1618 0.9840 0.0746
vn -0.1373 -0.9204 0.3661
vn 0.0590 -0.4985 -0.8649
vn 0.3908 0.5463 -0.7409
vn 0.2909 0.9009 0.3222
vn -0.3708 -0.2547 0.8931
vn -0.3232 -0.9217 -0.2143
vn 0.1396 0.2444 0.9596
vn -0.1753 -0.2590 -0.9498
vn 0.4191 0.7744 -0.4740
vn -0.4137 -0.9103 0.0116
vn 0.5530 0.6933 0.4621
vn 0.2645 -0.8001 0.5385
vn 0.8357 0.5297 -0.1447
vn 0.7093 -0.0194 0.7047
vn 0.4929 0.2472 -0.8342
vn 0.0176 -0.8135 -0.5813
vn 0.2779 -0.2414 -0.9298
vn 0.9395 -0.3235 -0.1126
s 1
f 3//1 1//2 2//3
f 7//4 6//5 8//6
f 8//6 6//5 9//7
f 11//8 7//9 12//10
f 5//11 15//12 10//13
f 15//12 16//14 11//8
f 17//15 5//11 4//16
f 13//17 17//15 14//18
f 5//11 17//15 16//14
f 15//12 5//11 16//14
f 7//4 19//19 6//5
f 11//8 18//20 7//9
f 17//15 13//17 19//19
f 19//19 13//17 6//5
f 11//8 16//14 20//21
f 18//20 11//8 20//21
f 16//14 17//15 22//22
f 18//20 23//23 19//24
f 17//15 19//19 22//22
f 21//25 23//23 18//20
f 22//22 19//19 24//26
f 21//25 25//27 23//23
f 18//20 20//21 21//25
f 24//26 19//19 27//28
f 28//29 19//24 23//23
f 28//29 29//30 19//24
f 19//19 30//31 27//28
f 31//32 25//27 21//25
f 20//21 16//14 24//26
f 20//21 24//26 26//33
f 29//30 28//29 32//34
f 20//21 34//35 21//25
f 31//32 28//29 25//27
f 30//31 35//36 27//28
f 34//35 20//21 36//37
f 37//38 26//33 27//28
f 28//29 31//32 32//34
f 34//35 36//37 32//34
f 38//39 20//21 26//33
f 38//39 26//33 36//37
f 26//33 24//26 27//28
f 29//30 39//40 33//41
f 39//40 29//30 32//34
f 40//42 39//40 32//34
f 41//43 37//38 42//44
f 42//44 37//38 27//28
f 43//45 44//46 37//38
f 44//46 36//37 26//33
f 37//38 44//46 26//33
f 39//40 45//47 33//41
f 46//48 40//42 32//34
f 36//37 46//48 32//34
f 46//48 36//37 44//46
f 43//45 41//43 44//46
f 44//46 41//43 48//49
f 49//50 47//51 40//42
f 40//42 47//51 39//40
f 41//43 42//44 45//47
f 51//52 45//47 39//40
f 51//52 41//43 45//47
f 46//48 50//53 40//42
f 49//50 40//42 50//53
f 41//43 53//54 48//49
f 54//55 50//53 46//48
f 47//51 55//56 39//40
f 39//40 55//56 52//57
f 53//54 41//43 51//52
f 56//58 55//56 47//51
f 58//59 53//54 51//52
f 52//57 55//56 51//52
f 50//53 54//55 59//60
f 59//60 54//55 61//61
f 58//59 51//52 55//56
f 60//62 47//51 49//50
f 60//62 62//63 47//51
f 55//56 63//64 58//59
f 60//62 64//65 62//63
f 65//66 57//67 47//68
f 59//60 61//61 66//69
f 63//64 55//56 67//70
f 65//66 68//71 57//67
f 68//71 65//66 69//72
f 55//56 56//58 67//70
f 56//58 68//71 67//70
f 62//63 64//65 69//72
f 63//64 67//70 71//73
f 63//64 71//73 72//74
f 70//75 53//54 64//65
f 58//59 64//65 53//54
f 73//76 67//70 68//71
f 71//73 73//76 72//74
f 74//77 64//65 58//59
f 68//71 75//78 73//76
f 76//79 75//78 68//71
f 77//80 68//71 69//72
f 78//81 74//77 63//64
f 63//64 74//77 58//59
f 73//76 75//78 79//82
f 79//82 72//74 73//76
f 77//80 69//72 64//65
f 77//80 64//65 74//77
f 80//83 63//64 72//74
f 75//78 76//79 81//84
f 76//79 68//71 77//80
f 82//85 81//84 76//79
f 83//86 74//77 78//81
f 79//82 75//78 84//87
f 76//79 86//88 87//89
f 87//89 86//88 88//90
f 86//88 76//79 77//80
f 88//90 89//91 77//80
f 77//80 74//77 88//90
f 83//86 88//90 74//77
f 80//83 72//74 85//92
f 85//92 83//86 80//83
f 90//93 79//82 84//87
f 91//94 90//93 84//87
f 90//93 85//92 79//82
f 85//92 72//74 79//82
f 91//94 81//84 82//85
f 92//95 83//86 85//92
f 82//85 87//89 88//90
f 92//95 88//90 83//86
f 88//90 92//95 93//96
f 88//90 93//96 82//85
f 94//97 93//96 92//95
f 96//98 93//96 94//97
f 85//92 95//99 92//95
f 95//99 96//98 92//95
f 91//94 82//85 98//100
f 85//92 99//101 95//99
f 100//102 90//93 97//103
f 100//102 85//92 90//93
f 100//102 99//101 85//92
f 93//96 98//100 82//85
f 101//104 98//100 93//96
f 96//98 102//105 93//96
f 93//96 102//105 101//104
f 97//103 90//93 91//94
f 103//106 99//101 100//102
f 103//106 96//98 95//99
f 98//100 97//103 91//94
f 104//107 101//104 102//105
f 101//104 97//103 98//100
f 103//106 102//105 96//98
f 100//102 105//108 103//106
f 97//103 105//108 100//102
f 106//109 97//103 101//104
f 103//106 105//108 107//110
f 102//105 103//106 107//110
f 101//104 104//107 108//111
f 102//105 114//112 104//107
f 106//109 101//104 111//113
f 108//111 110//114 111//113
f 110//114 104//107 114//112
f 110//114 108//111 104//107
f 111//113 112//115 106//109
f 105//108 113//116 107//110
f 113//116 105//108 109//117
f 97//103 112//115 105//108
f 112//115 109//117 105//108
f 108//111 111//113 101//104
f 107//110 114//112 102//105
f 109//117 115//118 113//116
f 112//115 111//113 115//118
f 109//117 112//115 115//118
f 113//116 114//112 107//110
f 114//112 113//116 115//118
f 111//113 110//114 115//118
f 114//112 115//118 110//114
