# Blender v2.78 (sub 0) OBJ File: 'exporter.blend'
# www.blender.org
o FJ3284.obj_grp1.1924
v 1.232847 -0.585616 3.730440
v 1.233232 -0.585866 3.730057
v 1.238412 -0.574111 3.725267
v 1.230778 -0.589141 3.700337
v 1.234655 -0.596642 3.710869
v 1.232358 -0.592763 3.702707
v 1.232054 -0.590854 3.700589
v 1.248863 -0.590127 3.733749
v 1.248903 -0.599299 3.727079
v 1.248405 -0.580624 3.732252
v 1.242221 -0.562487 3.723579
v 1.247217 -0.577037 3.730400
v 1.248550 -0.569285 3.729682
v 1.249449 -0.557412 3.726784
v 1.254937 -0.603272 3.719216
v 1.238362 -0.575467 3.713324
v 1.242221 -0.562487 3.723579
v 1.239880 -0.571288 3.712754
v 1.241609 -0.555159 3.708807
v 1.240056 -0.574780 3.713825
v 1.239884 -0.549965 3.713781
v 1.241296 -0.550093 3.713795
v 1.238404 -0.547036 3.709799
v 1.244361 -0.536266 3.703756
v 1.241250 -0.599783 3.700434
v 1.237174 -0.574867 3.712101
v 1.237424 -0.575009 3.712487
v 1.240005 -0.574754 3.713814
v 1.239593 -0.562267 3.698301
v 1.239681 -0.571280 3.712777
v 1.243602 -0.555475 3.699129
v 1.242387 -0.554525 3.697177
v 1.239362 -0.535317 3.681084
v 1.236598 -0.541780 3.701336
v 1.236968 -0.547079 3.686364
v 1.251408 -0.597699 3.696725
v 1.237717 -0.574280 3.696659
v 1.241174 -0.564731 3.689797
v 1.263685 -0.563621 3.685023
v 1.246834 -0.540095 3.676301
v 1.240789 -0.542798 3.679121
v 1.238766 -0.540497 3.680440
v 1.254594 -0.580051 3.733297
v 1.249350 -0.578989 3.731483
v 1.247564 -0.575513 3.731051
v 1.249911 -0.578157 3.732953
v 1.251873 -0.580528 3.732795
v 1.250746 -0.577910 3.728367
v 1.249944 -0.577328 3.726592
v 1.256758 -0.568121 3.731796
v 1.250673 -0.576707 3.726177
v 1.250042 -0.567355 3.729771
v 1.246487 -0.570170 3.726279
v 1.249364 -0.569304 3.729456
v 1.248550 -0.569285 3.729682
v 1.256774 -0.568088 3.731894
v 1.272668 -0.557659 3.733243
v 1.255098 -0.603010 3.719075
v 1.255277 -0.602526 3.717035
v 1.250517 -0.576449 3.726743
v 1.263149 -0.596228 3.708222
v 1.255083 -0.602968 3.717559
v 1.258089 -0.602016 3.713566
v 1.258222 -0.602127 3.713607
v 1.266347 -0.536588 3.679595
v 1.268067 -0.591990 3.699010
v 1.266657 -0.591495 3.699589
v 1.246982 -0.536563 3.677624
v 1.238766 -0.540497 3.680440
v 1.240597 -0.537136 3.681393
v 1.259868 -0.542452 3.674492
v 1.259348 -0.542421 3.674472
v 1.279433 -0.558535 3.723292
v 1.262858 -0.595911 3.708734
v 1.275111 -0.541115 3.688132
v 1.261629 -0.559234 3.682868
v 1.263488 -0.558360 3.687525
v 1.262253 -0.556581 3.687125
v 1.263798 -0.556135 3.688139
v 1.263498 -0.558214 3.687510
v 1.265150 -0.559736 3.686055
v 1.263036 -0.558193 3.686817
v 1.262253 -0.556581 3.687125
v 1.261730 -0.556641 3.687058
v 1.262774 -0.558525 3.685910
v 1.263497 -0.552671 3.681314
v 1.263497 -0.552671 3.681314
v 1.262774 -0.558525 3.685910
v 1.261629 -0.559234 3.682868
v 1.263255 -0.555758 3.684876
v 1.269934 -0.555886 3.687792
v 1.265150 -0.559736 3.686055
v 1.263699 -0.563708 3.684853
v 1.261629 -0.559234 3.682868
v 1.265150 -0.559736 3.686055
v 1.261629 -0.559234 3.682868
v 1.271581 -0.557405 3.687462
v 1.271751 -0.557091 3.687686
v 1.263699 -0.563708 3.684853
v 1.262293 -0.556419 3.687371
v 1.265221 -0.557217 3.686653
v 1.270746 -0.549269 3.682307
v 1.271443 -0.556413 3.687858
v 1.267285 -0.548689 3.678059
v 1.262502 -0.551661 3.678408
v 1.262502 -0.551661 3.678408
v 1.281750 -0.550715 3.718860
v 1.282771 -0.555000 3.698020
vn -0.6344 0.4040 0.6590
vn -0.9416 0.2955 -0.1613
vn -0.9143 0.3974 0.0778
vn -0.5543 -0.7802 0.2900
vn -0.5008 -0.4767 -0.7225
vn -0.6908 -0.7145 0.1106
vn -0.9283 -0.3717 0.0052
vn -0.5284 -0.5407 -0.6546
vn 0.0176 -0.3201 0.9472
vn -0.0912 -0.8472 0.5234
vn -0.2123 0.2767 0.9372
vn -0.6525 0.4311 0.6232
vn -0.1544 0.2265 0.9617
vn 0.3291 -0.2857 0.9001
vn -0.3720 0.4494 0.8122
vn -0.7444 -0.6076 -0.2771
vn -0.9924 0.1228 0.0030
vn -0.9515 0.2895 -0.1043
vn -0.9328 0.3492 0.0887
vn -0.9930 -0.1159 -0.0234
vn 0.3562 -0.2584 -0.8980
vn -0.9645 -0.2632 -0.0208
vn -0.8750 -0.2887 0.3887
vn -0.5371 0.5565 0.6339
vn -0.1862 0.9307 0.3148
vn 0.4047 0.1984 0.8927
vn -0.2407 -0.8055 -0.5415
vn -0.3127 -0.9353 -0.1659
vn -0.8984 0.1702 0.4049
vn -0.9355 0.2890 0.2034
vn -0.4598 0.2228 0.8596
vn -0.4533 0.2309 0.8609
vn -0.4633 0.2143 0.8599
vn -0.9889 -0.0728 0.1296
vn -0.7189 0.3325 0.6104
vn -0.5604 0.8280 -0.0176
vn -0.8934 0.3657 0.2610
vn -0.9570 -0.0831 -0.2778
vn -0.3766 -0.3500 -0.8577
vn 0.1584 -0.4417 -0.8831
vn 0.0672 -0.8329 -0.5493
vn -0.8647 0.1291 -0.4854
vn -0.4616 -0.3049 -0.8330
vn -0.9540 -0.1212 -0.2744
vn -0.0826 0.6019 0.7943
vn -0.1817 0.1518 0.9716
vn -0.3295 0.3378 0.8817
vn 0.7321 0.6752 0.0903
vn 0.7216 0.6874 0.0820
vn 0.7085 0.6992 0.0956
vn -0.0561 0.8976 0.4372
vn -0.5933 0.1564 0.7897
vn -0.2513 -0.1363 0.9583
vn -0.2495 0.0872 0.9644
vn -0.0300 -0.2611 0.9649
vn -0.0388 -0.8545 0.5179
vn 0.7162 -0.4490 0.5344
vn 0.7647 0.5232 0.3762
vn 0.7553 0.5147 0.4058
vn 0.7747 0.5164 0.3650
vn 0.2309 -0.9101 -0.3442
vn 0.4796 0.7552 -0.4468
vn 0.2939 -0.9210 -0.2557
vn -0.2637 -0.0234 -0.9643
vn -0.4662 0.2963 -0.8336
vn -0.4795 0.4711 -0.7404
vn -0.1257 0.7258 -0.6763
vn 0.2026 0.0182 -0.9791
vn 0.8905 -0.2339 0.3903
vn 0.8197 -0.4604 0.3408
vn 0.8548 -0.4542 0.2512
vn 0.8059 0.4625 0.3696
vn 0.7572 0.6003 -0.2575
vn 0.7945 -0.4499 -0.4079
vn -0.1690 -0.4788 -0.8615
vn 0.5083 0.1633 -0.8456
vn 0.8997 0.2423 0.3631
vn 0.8638 0.2290 0.4487
vn 0.8758 0.2265 0.4262
vn 0.6146 -0.5809 -0.5336
vn 0.9084 -0.3218 -0.2670
vn 0.8809 -0.3309 -0.3385
vn 0.1341 0.2227 -0.9656
vn 0.2296 0.1387 -0.9634
vn 0.3971 -0.0912 -0.9132
vn 0.6694 -0.0198 -0.7426
vn 0.4490 0.8184 -0.3586
vn 0.4420 0.8228 -0.3572
vn 0.4419 0.8223 -0.3585
vn 0.1224 0.2971 -0.9470
vn 0.1204 0.2470 -0.9615
vn -0.6946 -0.7188 0.0303
vn 0.0266 -0.6150 -0.7880
vn 0.2407 -0.6462 -0.7242
vn 0.5232 -0.2014 -0.8280
vn 0.2996 -0.7893 -0.5359
vn 0.1719 -0.6782 -0.7145
vn -0.1025 -0.4230 -0.9003
vn -0.0377 -0.4206 -0.9065
vn 0.6080 -0.6683 -0.4287
vn 0.9477 -0.0960 -0.3045
vn 0.6581 -0.3576 -0.6626
s 1
f 2//1 3//2 4//3
f 1//4 4//5 5//6
f 4//5 6//7 5//6
f 6//7 4//5 7//8
f 8//9 1//4 9//10
f 10//11 2//1 8//9
f 2//1 11//12 3//2
f 12//13 13//14 2//1
f 2//1 14//15 11//12
f 1//4 15//16 9//10
f 3//2 17//17 16//18
f 4//3 3//2 16//18
f 17//17 18//19 16//18
f 17//17 19//20 18//19
f 18//19 20//21 16//18
f 17//17 21//22 19//20
f 14//15 22//23 11//12
f 23//24 14//15 24//25
f 14//15 23//24 22//23
f 24//25 14//15 57//26
f 5//6 7//8 25//27
f 1//4 5//6 59//28
f 16//18 26//29 4//3
f 26//29 18//19 29//30
f 29//30 4//3 26//29
f 27//31 28//32 30//33
f 18//19 19//20 29//30
f 19//20 31//34 29//30
f 29//30 31//34 32//35
f 33//36 34//37 24//25
f 24//25 34//37 23//24
f 21//22 34//37 35//38
f 21//22 35//38 19//20
f 19//20 35//38 31//34
f 59//28 5//6 25//27
f 7//8 4//5 38//39
f 39//40 7//8 38//39
f 36//41 25//27 7//8
f 37//42 4//3 29//30
f 32//35 35//38 29//30
f 29//30 35//38 37//42
f 38//39 37//42 35//38
f 41//43 38//39 35//38
f 41//43 35//38 42//44
f 35//38 34//37 42//44
f 34//37 33//36 42//44
f 12//13 2//1 10//11
f 44//45 12//13 10//11
f 47//46 10//11 8//9
f 43//47 44//45 10//11
f 45//48 46//49 49//50
f 8//9 43//47 47//46
f 43//47 48//51 44//45
f 48//51 43//47 51//52
f 50//53 51//52 43//47
f 8//9 57//26 43//47
f 13//14 52//54 2//1
f 14//15 2//1 52//54
f 52//54 13//14 54//55
f 54//55 51//52 50//53
f 52//54 54//55 56//56
f 50//53 14//15 52//54
f 50//53 57//26 14//15
f 56//56 54//55 50//53
f 59//28 15//16 1//4
f 9//10 58//57 8//9
f 45//58 60//59 53//60
f 61//61 59//28 25//27
f 24//25 65//62 33//36
f 36//41 7//8 39//40
f 36//41 67//63 25//27
f 40//64 38//39 41//43
f 69//65 70//66 68//67
f 65//62 68//67 33//36
f 40//64 41//43 69//65
f 69//65 68//67 40//64
f 68//67 65//62 71//68
f 43//47 57//26 50//53
f 8//9 73//69 57//26
f 8//9 58//57 73//69
f 58//57 64//70 73//69
f 73//69 64//70 74//71
f 24//25 57//26 107//72
f 24//25 75//73 65//62
f 25//27 67//63 61//61
f 36//41 39//40 66//74
f 39//40 38//39 76//75
f 77//76 78//76 79//76
f 84//77 85//78 86//79
f 87//80 88//81 89//82
f 91//83 92//84 90//85
f 93//86 94//86 95//86
f 80//87 81//88 96//89
f 97//90 92//84 91//83
f 99//91 92//84 97//90
f 102//92 103//93 100//94
f 104//95 102//92 100//94
f 87//80 104//96 101//97
f 38//39 40//64 72//98
f 105//99 38//39 72//98
f 105//99 76//75 38//39
f 89//82 106//100 87//80
f 71//68 105//99 72//98
f 104//96 87//80 106//100
f 105//99 71//68 104//95
f 68//67 71//68 40//64
f 107//72 57//26 73//69
f 74//71 66//74 73//69
f 107//72 73//69 108//101
f 73//69 66//74 108//101
f 107//72 75//73 24//25
f 107//72 108//101 75//73
f 66//74 39//40 98//102
f 108//101 66//74 98//102
f 102//92 104//95 98//102
f 108//101 98//102 104//95
f 104//95 75//73 108//101
f 104//95 65//62 75//73
f 65//62 104//95 71//68
l 62 63
l 82 83
l 54 55
