# Blender v2.78 (sub 0) OBJ File: 'exporter.blend'
# www.blender.org
o FJ3266.obj_grp1.1906
v 0.408487 -0.855274 -0.303785
v 0.415942 -0.828785 -0.302061
v 0.432942 -0.826921 -0.305466
v 0.422879 -0.824076 -0.298006
v 0.423228 -0.852371 -0.319035
v 0.423608 -0.867617 -0.304854
v 0.417862 -0.865865 -0.302733
v 0.437996 -0.844903 -0.316744
v 0.437774 -0.860540 -0.314423
v 0.410798 -0.843324 -0.298892
v 0.410755 -0.857069 -0.303609
v 0.418339 -0.865304 -0.302589
v 0.424163 -0.827291 -0.290906
v 0.432312 -0.864698 -0.301237
v 0.433461 -0.827398 -0.297162
v 0.422879 -0.824076 -0.298006
v 0.416040 -0.828897 -0.301863
v 0.421123 -0.828047 -0.289453
v 0.418977 -0.827085 -0.292481
v 0.427944 -0.828683 -0.288961
v 0.418977 -0.827085 -0.292481
v 0.410798 -0.843324 -0.298892
v 0.421242 -0.828357 -0.289919
v 0.421242 -0.828357 -0.289919
v 0.439498 -0.860865 -0.303091
v 0.432312 -0.864698 -0.301237
v 0.418339 -0.865304 -0.302589
v 0.423655 -0.867341 -0.304738
v 0.439455 -0.860846 -0.303092
v 0.441633 -0.840535 -0.301539
v 0.432312 -0.864698 -0.301237
v 0.442006 -0.845475 -0.303090
v 0.441825 -0.851121 -0.303317
v 0.438426 -0.831578 -0.297431
v 0.438426 -0.831578 -0.297431
v 0.432366 -0.864792 -0.301214
vn 0.4350 0.7585 -0.4853
vn -0.7212 0.5101 -0.4687
vn -0.2059 0.7922 -0.5745
vn -0.3260 -0.0570 -0.9437
vn -0.2203 -0.7519 -0.6213
vn -0.4928 -0.5773 -0.6510
vn -0.8005 -0.0741 -0.5948
vn 0.5764 0.2540 -0.7767
vn 0.5530 -0.5395 -0.6349
vn -0.2049 -0.3095 0.9286
vn -0.4315 -0.2916 0.8537
vn -0.2636 -0.2473 0.9324
vn 0.1117 -0.5343 0.8379
vn -0.1398 -0.2459 0.9592
vn -0.1506 0.9381 0.3118
vn -0.6400 0.7386 0.2116
vn -0.1681 0.8953 0.4126
vn -0.9355 0.2469 0.2526
vn 0.6113 0.7568 0.2316
vn 0.2616 0.8943 0.3631
vn -0.7226 0.0936 0.6849
vn 0.4474 -0.6668 0.5961
vn -0.0297 -0.7610 0.6480
vn 0.2788 -0.1013 0.9550
vn 0.3936 -0.1990 0.8975
vn 0.3535 -0.1317 0.9261
vn 0.9557 0.1968 -0.2188
vn 0.4070 -0.2206 0.8864
vn 0.5525 -0.1053 0.8268
vn 0.5767 0.6535 0.4903
vn 0.3296 -0.3451 0.8788
vn 0.3829 -0.9133 -0.1385
vn 0.7550 -0.6404 -0.1407
s 1
f 3//1 2//2 4//3
f 5//4 6//5 7//6
f 7//6 1//7 5//4
f 8//8 5//4 2//2
f 9//9 6//5 5//4
f 9//9 5//4 8//8
f 10//10 11//11 12//12
f 13//13 10//10 14//14
f 14//14 10//10 12//12
f 2//2 5//4 1//7
f 8//8 2//2 3//1
f 16//15 17//16 18//17
f 19//18 2//2 1//7
f 15//19 3//1 16//15
f 18//17 20//20 16//15
f 21//21 22//21 23//21
f 16//15 20//20 15//19
f 13//13 24//22 10//10
f 26//23 27//23 28//23
f 29//24 30//25 31//26
f 9//9 8//8 32//27
f 31//26 30//25 13//28
f 33//29 30//25 29//24
f 32//27 8//8 3//1
f 3//1 15//19 32//27
f 20//20 35//30 15//19
f 30//25 34//31 13//28
f 9//9 36//32 6//5
f 9//9 25//33 36//32
f 9//9 32//27 25//33
