# Blender v2.78 (sub 0) OBJ File: 'exporter.blend'
# www.blender.org
o FJ3297.obj_grp1.1937
v 1.036408 -0.758519 3.288888
v 1.036465 -0.744869 3.309504
v 1.038326 -0.739917 3.308496
v 1.043163 -0.754139 3.316312
v 1.041618 -0.738363 3.307690
v 1.038617 -0.740043 3.308493
v 1.031758 -0.789194 3.235468
v 1.034059 -0.779126 3.257798
v 1.028452 -0.800556 3.246508
v 1.031310 -0.788014 3.249745
v 1.030317 -0.801195 3.233122
v 1.040693 -0.738829 3.309211
v 1.053797 -0.755715 3.321051
v 1.044367 -0.739780 3.308264
v 1.048141 -0.731644 3.303805
v 1.048141 -0.731644 3.303805
v 1.056222 -0.727679 3.304839
v 1.059050 -0.764961 3.289438
v 1.056436 -0.732127 3.287918
v 1.060713 -0.727254 3.302781
v 1.034795 -0.779222 3.260778
v 1.035322 -0.779261 3.260409
v 1.045316 -0.781911 3.261903
v 1.032580 -0.789391 3.250864
v 1.028888 -0.804730 3.240472
v 1.028337 -0.802368 3.244210
v 1.029303 -0.803901 3.241807
v 1.031578 -0.787641 3.249924
v 1.029287 -0.800913 3.233676
v 1.033448 -0.800341 3.234400
v 1.031526 -0.803640 3.233929
v 1.059507 -0.804651 3.237246
v 1.054230 -0.755989 3.319848
v 1.057241 -0.728077 3.301224
v 1.044390 -0.739596 3.308410
v 1.075046 -0.744516 3.302382
v 1.079356 -0.736812 3.295300
v 1.072210 -0.730329 3.297373
v 1.064117 -0.769332 3.259703
v 1.058234 -0.782938 3.238649
v 1.057491 -0.794421 3.225886
v 1.061747 -0.804336 3.232643
v 1.064117 -0.756610 3.317625
v 1.073596 -0.757115 3.313004
v 1.073894 -0.758572 3.313081
v 1.077495 -0.736027 3.297764
v 1.072210 -0.730329 3.297373
v 1.078642 -0.735409 3.296203
v 1.045333 -0.781947 3.262271
v 1.064365 -0.770280 3.266562
v 1.073975 -0.756774 3.286148
v 1.068532 -0.754121 3.286315
v 1.062638 -0.787341 3.245422
v 1.062638 -0.787341 3.245422
v 1.062640 -0.803830 3.240299
v 1.062638 -0.787341 3.245422
v 1.064622 -0.800763 3.237782
v 1.064581 -0.800758 3.237803
v 1.062638 -0.787341 3.245422
v 1.062774 -0.801565 3.242432
v 1.060516 -0.804283 3.233344
v 1.073524 -0.756916 3.314065
v 1.064117 -0.756610 3.317625
v 1.077025 -0.756412 3.304003
v 1.077952 -0.755167 3.307977
v 1.080554 -0.752835 3.296972
v 1.080379 -0.747352 3.294866
v 1.081167 -0.753737 3.297068
v 1.081167 -0.753737 3.297068
v 1.080379 -0.747352 3.294866
v 1.062595 -0.803401 3.239850
v 1.062595 -0.803401 3.239850
v 1.059497 -0.804762 3.237239
v 1.064581 -0.800758 3.237803
v 1.061877 -0.804331 3.233446
v 1.064581 -0.800758 3.237803
v 1.059497 -0.804762 3.237239
vn -0.8990 0.1538 0.4100
vn -0.3103 0.6952 -0.6484
vn -0.8395 -0.4866 0.2420
vn -0.5942 -0.3634 0.7175
vn -0.2444 0.6443 0.7247
vn -0.1372 0.9389 0.3156
vn -0.6476 0.4451 -0.6185
vn -0.9395 -0.1265 0.3183
vn -0.9777 0.1998 -0.0648
vn -0.9332 0.1779 0.3123
vn -0.4928 0.6849 0.5367
vn 0.1214 0.6236 0.7722
vn 0.2626 0.6071 0.7500
vn -0.6270 0.7440 -0.2308
vn -0.2662 0.5826 0.7679
vn -0.3497 0.5495 0.7587
vn 0.0669 -0.9706 0.2310
vn -0.1354 0.8176 -0.5596
vn 0.0082 0.9587 -0.2844
vn -0.8478 -0.3706 0.3792
vn -0.2006 -0.6780 0.7072
vn -0.1261 -0.6803 0.7220
vn -0.7801 -0.1423 0.6092
vn 0.1598 -0.8610 0.4829
vn 0.6025 -0.5092 0.6145
vn -0.9769 0.1478 -0.1546
vn -0.9084 0.4143 -0.0564
vn 0.3448 0.0767 -0.9355
vn -0.5890 -0.0007 -0.8082
vn 0.2067 -0.8506 -0.4835
vn 0.2009 -0.8595 -0.4700
vn 0.1886 -0.8482 -0.4950
vn 0.0624 -0.7572 -0.6502
vn -0.0647 -0.9948 0.0781
vn -0.1387 -0.9550 0.2620
vn 0.5663 0.5085 -0.6487
vn 0.7824 0.3707 -0.5004
vn 0.7957 0.4468 -0.4089
vn -0.1087 -0.8786 -0.4651
vn 0.5543 -0.6968 0.4553
vn 0.0456 -0.8435 0.5351
vn -0.2799 0.5887 0.7583
vn 0.5545 0.4948 0.6691
vn 0.2338 0.3104 0.9214
vn 0.2325 0.2894 0.9285
vn 0.5824 0.3590 0.7294
vn 0.2958 0.2890 0.9105
vn 0.5512 0.5544 0.6235
vn 0.7441 0.2723 0.6101
vn 0.3931 -0.8049 0.4445
vn 0.4082 -0.8226 0.3958
vn 0.9039 -0.1178 -0.4113
vn 0.3285 -0.7480 0.5768
vn 0.2034 -0.7301 0.6524
vn 0.9226 0.2533 -0.2910
vn 0.8600 0.0914 -0.5021
vn 0.9142 -0.2603 0.3107
vn 0.9336 -0.0651 0.3524
vn 0.8237 0.3632 -0.4355
vn 0.8146 -0.2055 -0.5425
vn 0.5294 -0.3248 0.7837
vn 0.3067 -0.4333 0.8475
vn 0.9150 0.0706 0.3972
vn 0.5755 -0.8162 0.0501
vn 0.7783 0.0544 -0.6255
vn 0.8425 -0.0796 -0.5328
vn 0.8748 0.1700 0.4537
vn 0.9544 0.1863 0.2331
vn 0.4661 -0.8815 0.0756
vn 0.6103 -0.2104 0.7637
vn 0.8580 -0.4451 0.2565
vn 0.6045 -0.7189 -0.3433
vn 0.5766 -0.7697 0.2739
s 1
f 2//1 3//2 1//3
f 1//3 4//4 2//1
f 2//1 5//5 6//6
f 3//2 6//6 1//3
f 1//3 6//6 7//7
f 1//3 7//7 8//8
f 9//9 10//10 7//7
f 2//1 4//4 12//11
f 12//11 13//12 14//13
f 13//12 12//11 4//4
f 15//14 6//6 5//5
f 12//11 5//5 2//1
f 12//11 14//13 16//15
f 14//13 17//16 16//15
f 4//4 1//3 18//17
f 15//14 19//18 6//6
f 19//18 15//14 20//19
f 6//6 19//18 7//7
f 22//20 1//3 8//8
f 21//21 23//22 1//3
f 24//23 22//20 8//8
f 10//10 24//23 8//8
f 27//24 21//21 26//25
f 21//21 27//24 23//22
f 10//10 9//9 24//23
f 9//9 7//7 25//26
f 8//8 7//7 28//27
f 28//27 7//7 10//10
f 7//7 19//18 41//28
f 7//7 11//29 25//26
f 25//30 29//31 30//32
f 31//33 32//34 27//24
f 11//29 32//34 31//33
f 11//29 7//7 41//28
f 18//17 33//35 4//4
f 19//18 20//19 37//36
f 18//17 1//3 23//22
f 19//18 39//37 40//38
f 40//38 41//28 19//18
f 11//29 41//28 42//39
f 33//35 45//40 43//41
f 14//13 13//12 36//42
f 36//42 13//12 44//43
f 45//40 33//35 18//17
f 35//44 36//42 34//45
f 34//45 46//46 38//47
f 47//48 46//46 48//49
f 36//42 46//46 34//45
f 18//17 49//50 50//51
f 39//37 37//36 51//52
f 39//37 19//18 37//36
f 50//51 49//50 53//53
f 27//24 55//54 23//22
f 41//28 40//38 54//55
f 54//55 57//56 41//28
f 58//57 59//58 60//57
f 54//55 40//38 52//59
f 27//24 32//34 55//54
f 42//39 32//34 11//29
f 41//28 57//56 61//60
f 45//40 62//61 63//62
f 44//43 46//46 36//42
f 64//63 46//46 44//43
f 62//61 45//40 65//64
f 65//64 45//40 18//17
f 67//65 68//66 51//52
f 69//67 70//68 46//46
f 69//67 46//46 64//63
f 66//69 65//64 18//17
f 46//46 70//68 48//49
f 37//36 67//65 51//52
f 50//51 66//69 18//17
f 23//22 55//54 56//70
f 60//57 71//71 58//57
f 72//72 73//72 74//72
f 75//73 76//73 77//73
