# Blender v2.78 (sub 0) OBJ File: 'exporter.blend'
# www.blender.org
o FJ3265.obj_grp1.1905
v 0.042369 -0.769924 7.094811
v 0.038601 -0.766784 7.101840
v 0.047402 -0.774360 7.113891
v 0.038960 -0.758549 7.095925
v 0.039625 -0.757005 7.087381
v 0.036800 -0.754758 7.107752
v 0.035153 -0.764192 7.124093
v 0.042696 -0.753535 7.136112
v 0.049437 -0.767380 7.141093
v 0.035153 -0.764192 7.124093
v 0.041931 -0.761375 7.136768
v 0.043401 -0.761838 7.142231
v 0.039164 -0.744496 7.060695
v 0.046604 -0.753985 7.059774
v 0.039354 -0.747719 7.062593
v 0.055021 -0.733368 7.053283
v 0.043974 -0.752959 7.077645
v 0.037458 -0.746505 7.085223
v 0.034209 -0.739211 7.084789
v 0.038863 -0.750867 7.089612
v 0.036625 -0.746090 7.084752
v 0.038447 -0.758200 7.096084
v 0.040731 -0.753852 7.091578
v 0.041607 -0.747745 7.107984
v 0.041628 -0.740345 7.115469
v 0.044020 -0.747187 7.165805
v 0.038216 -0.744307 7.149182
v 0.045564 -0.760279 7.164724
v 0.038838 -0.744505 7.060846
v 0.035223 -0.731427 7.083367
v 0.043182 -0.741869 7.074342
v 0.042643 -0.730792 7.094551
v 0.046683 -0.732574 7.120689
v 0.034477 -0.730557 7.143325
v 0.036725 -0.724690 7.159850
v 0.042265 -0.725189 7.079173
v 0.047639 -0.725901 7.071598
v 0.049086 -0.715267 7.115952
v 0.041493 -0.725221 7.163876
v 0.041304 -0.722128 7.149444
v 0.040804 -0.720634 7.160211
v 0.046797 -0.721180 7.147331
v 0.047522 -0.769375 7.072515
v 0.047295 -0.773065 7.086958
v 0.052692 -0.772436 7.069489
v 0.052421 -0.772319 7.070293
v 0.055050 -0.766281 7.051280
v 0.056805 -0.769885 7.099090
v 0.055111 -0.763972 7.046553
v 0.056134 -0.763725 7.143994
v 0.044337 -0.762770 7.157238
v 0.048538 -0.763840 7.158129
v 0.044337 -0.762770 7.157238
v 0.049449 -0.767375 7.141135
v 0.047166 -0.756237 7.167988
v 0.053263 -0.758809 7.164965
v 0.061075 -0.749902 7.042624
v 0.046830 -0.746291 7.100076
v 0.043916 -0.761699 7.142308
v 0.045437 -0.752716 7.167910
v 0.052205 -0.754831 7.166507
v 0.049307 -0.729597 7.158305
v 0.048346 -0.732306 7.061514
v 0.052533 -0.739283 7.108791
v 0.054255 -0.732109 7.103021
v 0.058788 -0.713462 7.077587
v 0.049279 -0.720502 7.091981
v 0.048762 -0.722715 7.096491
v 0.050730 -0.719977 7.103609
v 0.051180 -0.714648 7.107379
v 0.063214 -0.710906 7.083451
v 0.052748 -0.713568 7.113585
v 0.051162 -0.713105 7.117051
v 0.051185 -0.714692 7.107521
v 0.051162 -0.713105 7.117051
v 0.057702 -0.715752 7.109231
v 0.051162 -0.713105 7.117051
v 0.060611 -0.757205 7.040578
v 0.055525 -0.764151 7.046324
v 0.060552 -0.762942 7.046891
v 0.060958 -0.757535 7.041161
v 0.064500 -0.747538 7.082611
v 0.059544 -0.756663 7.118976
v 0.064341 -0.741583 7.040482
v 0.062532 -0.747537 7.042391
v 0.062639 -0.746963 7.042172
v 0.067574 -0.749404 7.048420
v 0.065114 -0.747884 7.043413
v 0.060597 -0.741277 7.119989
v 0.068468 -0.743021 7.084372
v 0.071317 -0.730394 7.031307
v 0.066835 -0.719011 7.046632
v 0.066722 -0.714734 7.058580
v 0.065071 -0.712439 7.085599
v 0.063596 -0.707584 7.077703
v 0.063860 -0.708110 7.077757
v 0.065393 -0.707583 7.077495
v 0.065301 -0.707782 7.077522
v 0.077219 -0.745598 7.057148
v 0.079487 -0.740384 7.036847
v 0.078353 -0.742140 7.060541
v 0.075572 -0.724235 7.033744
v 0.075081 -0.734503 7.034613
v 0.074674 -0.734107 7.034442
v 0.075081 -0.724879 7.033202
v 0.077103 -0.723162 7.035183
v 0.072459 -0.719658 7.051311
v 0.078198 -0.728808 7.046209
v 0.073604 -0.717757 7.047024
v 0.068404 -0.716664 7.053251
v 0.068404 -0.716664 7.053251
v 0.073661 -0.718438 7.046820
v 0.068404 -0.716664 7.053251
v 0.077193 -0.720617 7.043688
v 0.072146 -0.712098 7.070780
v 0.080225 -0.727876 7.061753
v 0.079827 -0.739650 7.036554
v 0.081596 -0.742111 7.039839
v 0.081577 -0.746169 7.053205
v 0.081786 -0.744583 7.045270
v 0.084180 -0.742109 7.051984
v 0.081657 -0.746236 7.053268
v 0.078093 -0.722185 7.040811
v 0.078093 -0.722185 7.040811
v 0.077014 -0.720523 7.043862
vn -0.8631 -0.4849 -0.1411
vn -0.6572 -0.7385 -0.1508
vn -0.0631 -0.9915 0.1134
vn -0.9727 -0.1507 -0.1767
vn -0.9607 -0.2265 -0.1607
vn -0.9301 0.3401 -0.1386
vn -0.9621 0.2446 0.1209
vn -0.9907 -0.0552 0.1245
vn -0.1332 -0.9574 0.2561
vn -0.5762 -0.8027 0.1538
vn -0.9108 0.1214 0.3947
vn -0.8579 -0.5069 0.0836
vn -0.4478 0.1259 -0.8852
vn -0.8115 -0.2738 -0.5161
vn -0.8855 -0.4381 -0.1546
vn -0.7230 0.4194 -0.5490
vn -0.9197 -0.1177 -0.3745
vn -0.8575 -0.3016 -0.4168
vn -0.9929 -0.1186 0.0038
vn -0.9081 -0.1026 0.4061
vn -0.9462 -0.2865 0.1508
vn -0.8529 0.4730 0.2211
vn -0.7882 0.6056 -0.1099
vn -0.7748 0.5762 -0.2601
vn -0.5355 0.0091 0.8445
vn -0.9711 -0.2324 0.0543
vn -0.5034 -0.6089 0.6130
vn -0.9162 0.3953 -0.0658
vn -0.9604 0.1289 -0.2469
vn -0.7280 0.3186 0.6071
vn -0.8998 0.1816 -0.3968
vn -0.6570 0.5955 -0.4623
vn -0.6934 0.5525 -0.4626
vn -0.9107 0.4094 -0.0547
vn -0.9855 0.0760 -0.1517
vn -0.8764 0.4489 -0.1745
vn -0.8575 0.3530 0.3743
vn -0.0001 0.3531 0.9356
vn -0.3315 0.9429 0.0318
vn -0.0587 0.8992 0.4335
vn 0.3303 0.9242 0.1917
vn -0.8329 -0.4872 -0.2625
vn -0.3096 -0.9508 0.0059
vn -0.5852 -0.7622 -0.2766
vn -0.5978 -0.7377 -0.3137
vn 0.8278 -0.5610 0.0017
vn 0.6151 -0.7882 0.0211
vn -0.8568 -0.0664 -0.5114
vn 0.8262 -0.5378 0.1678
vn -0.9110 -0.3883 0.1390
vn 0.1061 -0.9397 0.3250
vn -0.3203 -0.8992 0.2981
vn -0.2791 -0.9430 0.1812
vn 0.6732 -0.4259 0.6045
vn -0.6274 0.1073 -0.7713
vn -0.8646 0.2882 0.4116
vn -0.9323 0.1193 0.3414
vn -0.2030 -0.2018 0.9582
vn 0.7251 0.1312 0.6761
vn 0.2954 0.3262 0.8980
vn 0.8145 0.3784 0.4398
vn -0.7215 0.5996 -0.3463
vn -0.8589 0.4512 -0.2423
vn -0.9557 0.0461 0.2906
vn -0.6867 0.7098 -0.1571
vn -0.5800 0.7722 -0.2596
vn -0.7586 0.6505 0.0357
vn -0.9213 0.2029 0.3317
vn -0.7291 0.6706 -0.1370
vn -0.2108 0.9292 0.3035
vn -0.9570 -0.2018 0.2086
vn 0.2334 0.9712 -0.0472
vn -0.7228 0.6860 -0.0838
vn -0.6843 0.7190 -0.1213
vn 0.4546 0.8359 0.3076
vn 0.7782 0.5576 0.2890
vn -0.0579 0.9858 -0.1575
vn 0.2626 -0.8461 -0.4639
vn 0.6640 -0.6938 -0.2788
vn 0.7631 -0.3774 -0.5246
vn 0.8210 -0.5618 0.1015
vn 0.9710 -0.2240 0.0838
vn -0.8240 0.2254 -0.5199
vn 0.3850 -0.2116 -0.8984
vn 0.4990 -0.4200 -0.7580
vn 0.6469 -0.7359 -0.2001
vn 0.4032 -0.4577 -0.7924
vn 0.9766 0.0905 0.1952
vn -0.4578 -0.2300 -0.8588
vn 0.9141 -0.3456 0.2120
vn -0.6239 0.1382 -0.7692
vn -0.5117 0.7166 -0.4741
vn -0.1401 0.9463 -0.2913
vn -0.5437 0.8059 -0.2343
vn 0.7410 0.5424 0.3958
vn -0.0752 0.8723 0.4831
vn -0.1132 0.8670 0.4852
vn 0.3654 -0.8657 0.3420
vn 0.0554 -0.7363 -0.6744
vn 0.8224 -0.3944 0.4100
vn 0.8624 0.1092 -0.4943
vn 0.6401 -0.1644 -0.7505
vn 0.6836 -0.1896 -0.7048
vn 0.9268 -0.1833 -0.3279
vn -0.3304 0.7252 -0.6041
vn -0.1225 0.9088 -0.3988
vn 0.0276 0.9537 -0.2996
vn 0.7895 0.6077 0.0859
vn 0.6751 0.6496 0.3497
vn 0.6599 0.6616 0.3562
vn 0.8850 0.2659 0.3823
vn 0.9597 0.2683 -0.0832
vn 0.5421 0.8313 -0.1228
vn 0.6940 0.7184 0.0478
vn 0.9548 0.1507 0.2560
vn 0.3945 0.8854 -0.2459
vn 0.8318 0.4466 -0.3296
vn 0.2405 -0.9704 -0.0244
vn 0.2335 -0.8095 -0.5387
vn 0.9231 -0.3235 -0.2082
vn 0.8636 0.3824 -0.3285
vn 0.9952 -0.0329 0.0926
vn 0.8301 -0.3869 0.4015
vn 0.3508 0.8687 -0.3497
vn 0.3935 0.8575 -0.3315
vn 0.9957 0.0637 -0.0676
s 1
f 2//1 1//2 3//3
f 1//2 2//1 4//4
f 5//5 1//2 4//4
f 6//6 2//1 7//7
f 4//4 2//1 6//6
f 7//7 8//8 6//6
f 3//3 9//9 10//10
f 2//1 3//3 10//10
f 7//7 11//11 8//8
f 12//12 10//10 9//9
f 13//13 14//14 15//15
f 14//14 13//13 16//16
f 14//14 17//17 15//15
f 17//17 18//18 19//19
f 5//5 20//20 21//21
f 21//21 20//20 19//19
f 4//4 20//20 5//5
f 6//6 58//22 22//23
f 8//8 25//24 6//6
f 26//25 27//26 28//27
f 15//15 17//17 29//28
f 17//17 31//29 29//28
f 31//29 17//17 19//19
f 20//20 32//30 19//19
f 8//8 33//31 25//24
f 25//24 24//32 6//6
f 37//33 31//29 19//19
f 19//19 30//34 37//33
f 30//34 19//19 32//30
f 34//35 38//36 33//31
f 27//26 34//35 33//31
f 27//26 35//37 34//35
f 26//25 35//37 27//26
f 26//25 39//38 35//37
f 38//36 34//35 35//37
f 38//36 35//37 40//39
f 40//39 35//37 41//40
f 35//37 39//38 41//40
f 40//39 41//40 42//41
f 43//42 44//43 1//2
f 44//43 43//42 46//44
f 43//42 47//45 46//44
f 5//5 43//42 1//2
f 45//46 48//47 44//43
f 48//47 3//3 1//2
f 14//14 49//48 43//42
f 49//48 47//45 43//42
f 18//18 43//42 5//5
f 44//43 48//47 1//2
f 3//3 50//49 9//9
f 12//12 9//9 51//50
f 52//51 53//52 54//53
f 9//9 50//49 52//51
f 12//12 51//50 27//26
f 51//50 28//27 27//26
f 53//52 52//51 28//27
f 50//49 56//54 52//51
f 56//54 28//27 52//51
f 14//14 57//55 49//48
f 17//17 14//14 43//42
f 18//18 17//17 43//42
f 58//22 23//56 22//23
f 58//22 6//6 24//32
f 11//11 59//57 8//8
f 28//27 55//58 26//25
f 56//54 55//58 28//27
f 55//58 56//54 61//59
f 55//58 61//59 60//60
f 56//54 62//61 61//59
f 63//62 13//13 29//28
f 16//16 57//55 14//14
f 31//29 63//62 29//28
f 58//22 32//30 23//56
f 20//20 23//56 32//30
f 24//32 64//63 58//22
f 32//30 58//22 65//64
f 58//22 64//63 65//64
f 25//24 33//31 24//32
f 24//32 33//31 64//63
f 60//60 61//59 26//25
f 16//16 13//13 63//62
f 37//33 63//62 31//29
f 37//33 66//65 63//62
f 37//33 30//34 36//66
f 67//67 36//66 30//34
f 32//30 68//68 67//67
f 30//34 32//30 67//67
f 32//30 65//64 68//68
f 33//31 38//36 64//63
f 8//8 27//26 33//31
f 8//8 12//12 27//26
f 61//59 39//38 26//25
f 62//61 39//38 61//59
f 37//33 36//66 67//67
f 66//65 37//33 67//67
f 66//65 67//67 70//69
f 71//70 66//65 70//69
f 68//68 65//64 69//71
f 69//71 70//69 68//68
f 67//67 68//68 70//69
f 72//72 71//70 70//69
f 64//63 38//36 65//64
f 65//64 38//36 69//71
f 38//36 70//69 69//71
f 73//73 74//74 38//36
f 73//73 38//36 40//39
f 75//75 40//39 42//41
f 42//41 76//76 75//75
f 42//41 62//61 76//76
f 42//41 41//40 62//61
f 62//61 41//40 39//38
f 70//69 77//77 72//72
f 72//72 75//75 76//76
f 48//47 50//49 3//3
f 79//78 80//79 45//46
f 80//79 79//78 81//80
f 45//46 80//79 82//81
f 48//47 45//46 82//81
f 48//47 82//81 83//82
f 48//47 83//82 50//49
f 49//48 57//55 78//83
f 85//84 81//80 57//55
f 85//84 57//55 86//85
f 80//79 81//80 87//86
f 88//87 87//86 81//80
f 85//84 88//87 81//80
f 87//86 82//81 80//79
f 83//82 89//88 50//49
f 50//49 89//88 56//54
f 57//55 16//16 84//89
f 57//55 84//89 86//85
f 88//87 85//84 84//89
f 83//82 82//81 90//90
f 90//90 89//88 83//82
f 56//54 89//88 62//61
f 84//89 16//16 91//91
f 16//16 92//92 91//91
f 66//65 16//16 63//62
f 62//61 89//88 76//76
f 92//92 16//16 66//65
f 93//93 92//92 66//65
f 93//93 66//65 95//94
f 95//94 66//65 71//70
f 94//95 96//96 71//70
f 96//96 94//95 98//97
f 76//76 71//70 72//72
f 76//76 94//95 71//70
f 99//98 82//81 87//86
f 88//87 84//89 100//99
f 100//99 84//89 91//91
f 87//86 88//87 100//99
f 82//81 99//98 101//100
f 90//90 82//81 101//100
f 104//101 91//102 105//103
f 106//104 104//101 105//103
f 89//88 90//90 94//95
f 92//92 102//105 91//91
f 109//106 102//105 92//92
f 92//92 93//93 110//107
f 109//106 92//92 110//107
f 107//108 112//109 113//110
f 112//109 107//108 114//111
f 107//108 108//112 114//111
f 107//108 111//113 93//93
f 107//108 93//93 115//114
f 94//95 90//90 116//115
f 94//95 116//115 115//114
f 94//95 76//76 89//88
f 93//93 95//94 115//114
f 95//94 97//116 115//114
f 94//95 115//114 97//116
f 103//117 100//99 91//91
f 87//86 119//118 99//98
f 100//99 118//119 87//86
f 119//118 87//86 118//119
f 120//120 117//121 121//122
f 121//122 117//121 108//112
f 108//112 116//115 121//122
f 122//123 101//100 99//98
f 116//115 101//100 122//123
f 122//123 121//122 116//115
f 120//120 121//122 122//123
f 104//101 106//104 108//112
f 117//121 104//101 108//112
f 90//90 101//100 116//115
f 116//115 108//112 107//108
f 107//108 115//114 116//115
f 109//106 123//124 102//105
f 125//125 123//124 109//106
f 106//104 124//126 108//112
f 124//126 114//111 108//112
