# Blender v2.78 (sub 0) OBJ File: 'exporter.blend'
# www.blender.org
o FJ3268.obj_grp1.1908
v 1.136383 -0.573258 3.801006
v 1.112049 -0.555908 3.792971
v 1.112514 -0.567293 3.779611
v 1.109327 -0.553377 3.783001
v 1.115771 -0.541732 3.783572
v 1.130297 -0.530742 3.766310
v 1.132883 -0.582806 3.767833
v 1.136908 -0.586856 3.783982
v 1.134064 -0.554737 3.756753
v 1.144105 -0.545337 3.799086
v 1.139918 -0.528826 3.784863
v 1.130297 -0.530742 3.766310
v 1.137446 -0.584399 3.772575
v 1.146344 -0.525535 3.746715
v 1.139217 -0.574535 3.752011
v 1.161911 -0.580721 3.799544
v 1.155309 -0.594709 3.782789
v 1.144751 -0.592604 3.769465
v 1.174084 -0.519156 3.761819
v 1.150855 -0.584261 3.750189
v 1.139093 -0.572552 3.752811
v 1.143112 -0.559561 3.755450
v 1.145350 -0.541479 3.749350
v 1.149686 -0.526840 3.742748
v 1.155331 -0.584045 3.750021
v 1.144418 -0.579303 3.751043
v 1.166854 -0.544436 3.793074
v 1.154985 -0.593716 3.776458
v 1.159228 -0.596924 3.773828
v 1.170988 -0.594137 3.784418
v 1.171934 -0.589760 3.755007
v 1.170747 -0.590001 3.754004
v 1.161669 -0.561932 3.767681
v 1.161938 -0.542399 3.759207
v 1.148754 -0.526551 3.744145
v 1.151155 -0.584026 3.750522
v 1.155347 -0.584059 3.750048
v 1.153698 -0.528147 3.742445
v 1.171731 -0.526299 3.744639
v 1.153629 -0.528155 3.742658
v 1.175069 -0.575519 3.792468
v 1.169163 -0.522174 3.771826
v 1.174838 -0.519027 3.762355
v 1.183632 -0.589819 3.760465
v 1.176991 -0.557241 3.768959
v 1.180381 -0.569788 3.768765
v 1.180576 -0.587984 3.758028
v 1.178562 -0.528270 3.749579
v 1.175916 -0.534527 3.758360
v 1.160474 -0.525813 3.745212
v 1.160474 -0.525813 3.745212
v 1.175069 -0.575519 3.792468
v 1.176972 -0.532520 3.762031
v 1.187930 -0.585282 3.766264
v 1.184468 -0.583162 3.773319
v 1.180328 -0.567378 3.771027
v 1.180292 -0.567289 3.771021
v 1.179389 -0.523689 3.754400
v 1.179085 -0.529516 3.753512
v 1.172135 -0.525660 3.743816
v 1.183632 -0.589819 3.760465
v 1.173210 -0.591467 3.755451
v 1.180576 -0.587984 3.758028
v 1.187191 -0.584622 3.765953
v 1.183632 -0.589819 3.760465
v 1.187191 -0.584622 3.765953
v 1.178675 -0.529385 3.753559
v 1.175595 -0.525709 3.745911
v 1.175662 -0.525717 3.745870
v 1.175595 -0.525709 3.745911
v 1.171023 -0.589758 3.753498
vn -0.8915 -0.4307 -0.1405
vn -0.2884 -0.3932 0.8731
vn -0.6823 -0.0105 0.7310
vn -0.9736 0.1638 -0.1591
vn -0.7015 0.6676 0.2496
vn -0.7800 0.3986 -0.4824
vn -0.6307 -0.6937 -0.3478
vn -0.4835 -0.8565 0.1804
vn -0.4833 0.0013 -0.8754
vn 0.0091 0.3912 0.9203
vn -0.1907 0.8460 0.4979
vn -0.3480 0.9346 0.0738
vn -0.5117 -0.8570 -0.0610
vn -0.7421 0.1025 -0.6625
vn -0.6659 -0.4159 -0.6193
vn 0.2231 -0.3515 0.9092
vn -0.2009 -0.9291 0.3105
vn -0.3869 -0.8973 -0.2125
vn -0.1048 0.9848 -0.1387
vn -0.0321 0.9714 -0.2354
vn -0.3018 -0.8010 -0.5171
vn 0.0850 -0.4375 -0.8952
vn 0.1824 0.0182 -0.9831
vn -0.4902 -0.2148 -0.8447
vn -0.0468 0.2534 -0.9662
vn 0.0247 0.1929 -0.9809
vn 0.2530 0.3287 -0.9099
vn 0.5544 0.3934 0.7334
vn -0.2959 -0.9542 0.0441
vn -0.1246 -0.9867 -0.1043
vn 0.4077 -0.8219 0.3979
vn -0.0261 -0.9565 -0.2906
vn 0.3868 0.4882 -0.7823
vn 0.3855 0.0875 -0.9185
vn 0.3367 -0.5516 -0.7631
vn -0.0099 0.9018 -0.4321
vn -0.1266 -0.0656 -0.9898
vn 0.0447 -0.6215 -0.7822
vn 0.0774 -0.3540 -0.9320
vn 0.3069 -0.6484 -0.6966
vn 0.6002 -0.2283 0.7666
vn 0.3456 0.7700 0.5363
vn 0.8087 0.5721 0.1368
vn 0.5854 0.4577 -0.6692
vn 0.7904 -0.0584 -0.6098
vn 0.3763 -0.7462 -0.5492
vn -0.0156 0.8809 -0.4730
vn 0.0258 0.7628 -0.6461
vn 0.0193 0.7105 -0.7035
vn 0.9305 0.2198 0.2931
vn 0.9829 -0.0577 0.1747
vn 0.6557 -0.6868 0.3137
vn 0.9094 0.2828 0.3049
vn 0.9457 0.3147 0.0808
vn 0.8372 0.3749 0.3981
vn 0.7157 -0.5759 -0.3951
vn 0.8331 0.5433 -0.1039
vn 0.9969 -0.0783 -0.0077
vn 0.0550 0.9413 -0.3332
vn 0.4272 -0.9041 0.0080
vn 0.4507 -0.3434 -0.8240
vn 0.4522 -0.3492 -0.8207
vn 0.4521 -0.3492 -0.8208
vn 0.4357 0.4206 -0.7957
vn 0.6426 0.3463 -0.6835
vn 0.6902 0.2459 -0.6805
vn 0.9287 0.3591 0.0923
vn 0.7762 -0.5939 -0.2118
vn 0.3554 -0.6290 -0.6914
vn 0.9076 -0.0889 -0.4103
vn 0.1837 0.9205 -0.3449
vn 0.4536 -0.3544 -0.8177
s 1
f 3//1 1//2 2//3
f 2//3 4//4 3//1
f 4//4 2//3 5//5
f 5//5 6//6 4//4
f 7//7 8//8 3//1
f 3//1 4//4 9//9
f 10//10 2//3 1//2
f 2//3 11//11 5//5
f 11//11 2//3 10//10
f 5//5 11//11 12//12
f 1//2 3//1 8//8
f 13//13 8//8 7//7
f 6//6 14//14 4//4
f 3//1 15//15 7//7
f 15//15 3//1 9//9
f 14//14 9//9 4//4
f 10//10 1//2 16//16
f 1//2 8//8 17//17
f 18//18 8//8 13//13
f 14//19 12//12 19//20
f 7//7 20//21 18//18
f 13//13 7//7 18//18
f 23//22 22//23 9//9
f 23//22 9//9 24//24
f 7//7 15//15 20//21
f 9//9 22//23 21//25
f 26//26 21//25 25//27
f 27//28 11//11 10//10
f 16//16 1//2 17//17
f 8//8 18//18 17//17
f 17//17 18//18 28//29
f 17//17 29//30 30//31
f 17//17 28//29 29//30
f 11//11 19//20 12//12
f 18//18 29//30 28//29
f 29//30 18//18 31//32
f 18//18 20//21 31//32
f 32//33 25//27 22//23
f 32//33 22//23 33//34
f 22//23 34//35 33//34
f 23//22 34//35 22//23
f 35//36 14//19 19//20
f 36//37 26//26 25//27
f 31//32 20//21 37//38
f 22//23 25//27 21//25
f 24//24 9//9 14//14
f 23//22 24//24 38//39
f 39//40 23//22 38//39
f 16//16 41//41 27//28
f 27//28 10//10 16//16
f 17//17 30//31 16//16
f 41//41 16//16 30//31
f 27//28 42//42 11//11
f 27//28 43//43 42//42
f 19//20 11//11 42//42
f 32//33 33//34 46//44
f 33//34 45//45 46//44
f 45//45 33//34 34//35
f 34//35 23//22 39//40
f 39//40 48//46 34//35
f 50//47 35//36 19//20
f 39//40 38//39 51//48
f 50//47 40//49 35//36
f 27//28 52//50 53//51
f 27//28 53//51 43//43
f 41//41 30//31 54//52
f 52//50 55//53 56//54
f 52//50 56//54 57//55
f 46//44 45//45 56//54
f 45//45 52//50 57//55
f 52//50 45//45 53//51
f 53//51 45//45 49//56
f 49//56 45//45 34//35
f 58//57 43//43 53//51
f 59//58 58//57 53//51
f 43//43 58//57 19//20
f 58//57 60//59 19//20
f 44//60 30//31 29//30
f 44//60 29//30 31//32
f 61//61 62//62 63//63
f 32//33 46//44 47//64
f 64//65 47//64 46//44
f 44//60 54//52 30//31
f 64//65 65//66 47//64
f 46//44 56//54 66//67
f 34//35 48//46 49//56
f 49//56 48//46 67//68
f 39//40 68//69 48//46
f 49//56 59//58 53//51
f 59//58 69//70 58//57
f 19//20 60//59 50//47
f 58//57 70//71 60//59
f 71//72 63//63 62//62
f 66//67 56//54 55//53
