# Blender v2.78 (sub 0) OBJ File: 'exporter.blend'
# www.blender.org
o FJ3252.obj_grp1.1892
v 1.066832 -0.670536 3.487982
v 1.058233 -0.670303 3.470898
v 1.062939 -0.658023 3.477504
v 1.057406 -0.668851 3.457814
v 1.063313 -0.676617 3.469212
v 1.076539 -0.678717 3.457543
v 1.063310 -0.650544 3.443984
v 1.072496 -0.628706 3.511060
v 1.078421 -0.610828 3.540085
v 1.069497 -0.624217 3.496740
v 1.068466 -0.625181 3.492693
v 1.080158 -0.611479 3.503363
v 1.082844 -0.661582 3.496973
v 1.082261 -0.661657 3.498041
v 1.061688 -0.640047 3.476806
v 1.065627 -0.634595 3.449919
v 1.076835 -0.663471 3.439283
v 1.064874 -0.640270 3.446752
v 1.065830 -0.634428 3.449539
v 1.094051 -0.589452 3.667904
v 1.088993 -0.585564 3.614556
v 1.088345 -0.601145 3.591506
v 1.090906 -0.628459 3.545060
v 1.087397 -0.602410 3.586083
v 1.087392 -0.646990 3.510861
v 1.107552 -0.591138 3.543101
v 1.087392 -0.646990 3.510861
v 1.112006 -0.667173 3.469052
v 1.094377 -0.625428 3.449832
v 1.097466 -0.668161 3.442994
v 1.091612 -0.635503 3.438487
v 1.103622 -0.594673 3.686346
v 1.102033 -0.587710 3.688177
v 1.109158 -0.608021 3.668028
v 1.103622 -0.594673 3.686346
v 1.109042 -0.585843 3.691851
v 1.116382 -0.600809 3.690909
v 1.104965 -0.571901 3.678697
v 1.097152 -0.575028 3.633242
v 1.109828 -0.607101 3.629397
v 1.103687 -0.614341 3.585860
v 1.102878 -0.635911 3.528358
v 1.108156 -0.653399 3.487486
v 1.107143 -0.666485 3.453665
v 1.096605 -0.636990 3.441472
v 1.096311 -0.651939 3.437744
v 1.122518 -0.599645 3.692515
v 1.116382 -0.600809 3.690909
v 1.112401 -0.590223 3.693538
v 1.126749 -0.608173 3.686870
v 1.148161 -0.580617 3.676928
v 1.123739 -0.567358 3.667929
v 1.125627 -0.569489 3.653603
v 1.124844 -0.611552 3.663413
v 1.123221 -0.582602 3.622842
v 1.126344 -0.605790 3.618927
v 1.114269 -0.616818 3.561479
v 1.114269 -0.616818 3.561479
v 1.114215 -0.603283 3.513620
v 1.113574 -0.622315 3.487864
v 1.103326 -0.620659 3.470134
v 1.108688 -0.645478 3.480047
v 1.101523 -0.655919 3.456710
v 1.109535 -0.659846 3.461396
v 1.108444 -0.639795 3.463026
v 1.104718 -0.628462 3.454738
v 1.109983 -0.667318 3.461098
v 1.101448 -0.656025 3.456027
v 1.102129 -0.656586 3.453643
v 1.126663 -0.608236 3.686924
v 1.145591 -0.609093 3.681920
v 1.138860 -0.609457 3.683938
v 1.147235 -0.608534 3.681682
v 1.149462 -0.590485 3.685755
v 1.130306 -0.564407 3.665892
v 1.132954 -0.564832 3.665583
v 1.139569 -0.570386 3.654949
v 1.129341 -0.594349 3.605856
v 1.125393 -0.604040 3.593055
v 1.124879 -0.604462 3.590768
v 1.118898 -0.609504 3.539001
v 1.151347 -0.605367 3.670966
v 1.139109 -0.599577 3.639308
v 1.137750 -0.590790 3.627844
v 1.151432 -0.604316 3.679811
v 1.151432 -0.604316 3.679811
v 1.149432 -0.591068 3.685261
v 1.151879 -0.596880 3.684264
v 1.151432 -0.604316 3.679811
v 1.148962 -0.586580 3.682938
v 1.149888 -0.587098 3.653264
v 1.151857 -0.604851 3.671332
v 1.150323 -0.598692 3.654922
v 1.151260 -0.599001 3.654513
v 1.137126 -0.590848 3.628047
vn -0.9557 -0.2190 0.1968
vn -0.9333 0.0510 0.3555
vn -0.8850 -0.3301 -0.3283
vn -0.4765 -0.5153 0.7124
vn -0.3920 -0.9158 0.0879
vn 0.0082 -0.9768 -0.2140
vn -0.8654 0.4953 -0.0755
vn -0.6971 0.0961 -0.7105
vn -0.8948 -0.2667 0.3580
vn -0.9089 0.4170 0.0060
vn -0.9706 0.0673 0.2310
vn -0.8690 0.4922 0.0502
vn -0.5108 0.8420 -0.1738
vn -0.7031 -0.2266 0.6740
vn -0.9868 0.1516 0.0573
vn -0.3474 0.7186 -0.6025
vn -0.2663 -0.3861 -0.8832
vn -0.7210 0.3438 -0.6017
vn -0.7854 -0.5646 0.2538
vn -0.9655 -0.0991 0.2409
vn -0.8975 0.4409 -0.0046
vn -0.3200 -0.8269 0.4625
vn -0.8255 -0.4607 0.3261
vn -0.5151 0.8565 -0.0324
vn -0.5856 -0.5056 0.6336
vn 0.3222 -0.8396 0.4373
vn 0.8339 -0.5466 0.0767
vn 0.1138 0.8221 -0.5578
vn 0.3936 -0.6118 -0.6861
vn 0.1006 0.4556 -0.8845
vn -0.7380 -0.5837 0.3387
vn -0.7077 0.0577 0.7041
vn -0.4753 -0.8687 0.1396
vn -0.4119 -0.2880 0.8645
vn -0.1604 0.3133 0.9360
vn -0.4553 -0.8019 0.3867
vn -0.4098 0.8256 0.3878
vn -0.1496 -0.9511 0.2704
vn -0.1190 -0.9929 0.0041
vn 0.1830 0.9533 -0.2402
vn 0.5035 -0.7927 0.3436
vn -0.2938 -0.6800 0.6718
vn 0.8656 -0.3665 0.3411
vn 0.8313 -0.4012 -0.3846
vn 0.5775 -0.0057 -0.8164
vn 0.7242 0.2448 -0.6447
vn 0.0176 -0.1940 0.9809
vn -0.2564 -0.3339 0.9071
vn -0.2107 -0.9547 0.2101
vn 0.1951 0.4626 0.8648
vn 0.7060 0.5618 0.4313
vn -0.0738 0.9623 0.2620
vn 0.0760 -0.9965 -0.0357
vn -0.0328 0.9540 -0.2980
vn 0.2978 0.8930 -0.3374
vn 0.4333 -0.9012 -0.0095
vn 0.1787 -0.9438 0.2782
vn 0.6455 0.7004 -0.3046
vn 0.6211 0.6627 -0.4183
vn 0.9968 -0.0756 -0.0251
vn 0.9710 0.1010 -0.2169
vn 0.8763 0.3279 -0.3528
vn 0.8216 0.4454 -0.3558
vn 0.9479 -0.0597 -0.3131
vn 0.9605 0.0554 -0.2726
vn 0.4906 0.8622 -0.1263
vn 0.7897 0.4107 -0.4557
vn 0.7352 0.6667 -0.1228
vn 0.0303 -0.5348 0.8444
vn 0.2607 -0.9643 -0.0456
vn 0.2618 -0.3930 0.8815
vn 0.3817 -0.2640 0.8858
vn 0.2774 0.2609 0.9246
vn 0.1687 0.9596 0.2253
vn 0.5813 0.7865 -0.2086
vn 0.8742 0.3701 -0.3143
vn 0.9281 -0.3635 -0.0807
vn 0.8419 -0.5350 -0.0706
vn 0.9552 -0.2883 -0.0668
vn 0.8149 -0.5791 0.0226
vn 0.0255 0.6207 0.7836
vn 0.4005 -0.9046 -0.1461
vn 0.6724 -0.6813 -0.2894
vn 0.9213 0.1411 -0.3624
vn 0.6471 -0.7566 0.0937
vn 0.5888 -0.2528 0.7677
vn 0.9863 0.1575 0.0483
vn 0.9360 0.2772 0.2169
vn 0.8684 0.2945 0.3990
vn 0.9168 0.3214 -0.2369
vn 0.9972 0.0681 -0.0320
vn 0.9931 -0.1000 0.0615
vn 0.5893 -0.7124 -0.3810
vn 0.9809 0.0980 -0.1683
vn 0.8737 0.0603 -0.4828
s 1
f 2//1 3//2 4//3
f 1//4 2//1 5//5
f 5//5 2//1 4//3
f 6//6 5//5 4//3
f 4//3 16//7 7//8
f 8//9 9//10 10//11
f 11//12 9//10 12//13
f 8//9 10//11 11//12
f 1//4 14//14 3//2
f 8//9 3//2 14//14
f 8//9 15//15 3//2
f 8//9 11//12 15//15
f 12//13 16//7 11//12
f 1//4 3//2 2//1
f 6//6 1//4 5//5
f 15//15 11//12 16//7
f 15//15 16//7 3//2
f 4//3 3//2 16//7
f 12//13 19//16 16//7
f 6//6 4//3 17//17
f 7//8 17//17 4//3
f 18//18 7//8 16//7
f 22//19 20//20 21//21
f 23//22 22//19 8//9
f 21//21 24//23 22//19
f 21//21 8//9 24//23
f 39//24 9//10 21//21
f 39//24 12//13 9//10
f 9//10 8//9 21//21
f 23//22 8//9 25//25
f 14//14 25//25 8//9
f 1//4 6//6 13//26
f 6//6 28//27 13//26
f 29//28 19//16 12//13
f 6//6 17//17 30//29
f 7//8 18//18 31//30
f 29//28 18//18 19//16
f 17//17 7//8 31//30
f 20//20 32//31 33//32
f 32//31 20//20 34//33
f 35//34 36//35 33//32
f 32//31 34//33 37//36
f 33//32 38//37 20//20
f 38//37 33//32 36//35
f 20//20 22//19 34//33
f 21//21 20//20 38//37
f 21//21 38//37 39//24
f 41//38 40//39 22//19
f 23//22 41//38 22//19
f 26//40 12//13 39//24
f 42//41 27//42 13//26
f 42//41 23//22 27//42
f 43//43 42//41 13//26
f 26//40 29//28 12//13
f 30//29 44//44 6//6
f 31//30 18//18 29//28
f 30//29 17//17 46//45
f 17//17 31//30 46//45
f 31//30 45//46 46//45
f 47//47 36//35 48//48
f 50//49 37//36 34//33
f 36//35 35//34 48//48
f 49//50 51//51 36//35
f 36//35 51//51 38//37
f 51//51 52//52 38//37
f 50//49 34//33 54//53
f 38//37 52//52 53//54
f 38//37 53//54 39//24
f 40//39 54//53 34//33
f 53//54 55//55 39//24
f 40//39 34//33 22//19
f 40//39 56//56 54//53
f 26//40 39//24 55//55
f 56//56 40//39 41//38
f 57//57 56//56 41//38
f 57//57 41//38 23//22
f 42//41 57//57 23//22
f 59//58 61//59 26//40
f 61//59 29//28 26//40
f 42//41 43//43 62//60
f 42//41 62//60 60//61
f 13//26 28//27 43//43
f 28//27 62//60 43//43
f 64//62 63//63 62//60
f 62//60 63//63 65//64
f 62//60 65//64 60//61
f 60//61 65//64 61//59
f 28//27 6//6 44//44
f 28//27 67//65 64//62
f 44//44 64//62 67//65
f 68//66 63//63 64//62
f 29//28 66//67 31//30
f 66//67 45//46 31//30
f 45//46 66//67 65//64
f 66//67 61//59 65//64
f 66//67 29//28 61//59
f 63//63 69//68 46//45
f 46//45 69//68 44//44
f 69//68 64//62 44//44
f 68//66 64//62 69//68
f 63//63 45//46 65//64
f 63//63 46//45 45//46
f 44//44 30//29 46//45
f 47//47 48//48 70//69
f 54//53 71//70 50//49
f 72//71 47//47 70//69
f 47//47 72//71 73//72
f 74//73 49//50 47//47
f 76//74 53//54 52//52
f 77//75 55//55 53//54
f 78//76 55//55 77//75
f 79//77 56//56 80//78
f 26//40 55//55 78//76
f 81//79 80//78 56//56
f 59//58 26//40 78//76
f 58//80 81//79 56//56
f 42//41 81//79 58//80
f 78//76 79//77 59//58
f 81//79 42//41 60//61
f 79//77 81//79 59//58
f 60//61 59//58 81//79
f 61//59 59//58 60//61
f 28//27 64//62 62//60
f 47//47 73//72 74//73
f 74//73 51//51 49//50
f 75//81 51//51 76//74
f 54//53 82//82 71//70
f 51//51 75//81 52//52
f 77//75 76//74 51//51
f 76//74 77//75 53//54
f 83//83 82//82 54//53
f 83//83 54//53 56//56
f 84//84 83//83 79//77
f 84//84 78//76 77//75
f 84//84 79//77 78//76
f 83//83 56//56 79//77
f 71//70 82//82 86//85
f 85//86 74//73 73//72
f 88//87 51//51 90//88
f 90//88 87//89 88//87
f 91//90 51//51 88//87
f 92//91 88//87 89//92
f 88//87 92//91 91//90
f 93//93 82//82 83//83
f 92//91 94//94 91//90
f 91//90 77//75 51//51
f 84//84 93//93 83//83
f 91//90 84//84 77//75
f 94//94 95//95 91//90
