# Blender v2.78 (sub 0) OBJ File: 'exporter.blend'
# www.blender.org
o FJ3237.obj_grp1.1878
v 0.042764 -0.616498 6.171979
v 0.052848 -0.638554 6.207676
v 0.039639 -0.608526 6.200882
v 0.044210 -0.600943 6.169487
v 0.041473 -0.597222 6.186773
v 0.064610 -0.600712 6.239688
v 0.052712 -0.606576 6.235094
v 0.045797 -0.614769 6.214788
v 0.055315 -0.650536 6.234703
v 0.064871 -0.625782 6.259169
v 0.067547 -0.609359 6.256093
v 0.076037 -0.627290 6.264404
v 0.054632 -0.597477 6.167922
v 0.100290 -0.608102 6.210092
v 0.098100 -0.612075 6.242383
v 0.065727 -0.662615 6.244702
v 0.051024 -0.611358 6.154344
v 0.059033 -0.608652 6.148980
v 0.061311 -0.632508 6.148403
v 0.112165 -0.633166 6.265907
v 0.068470 -0.612430 6.147568
v 0.074654 -0.606365 6.177188
v 0.106910 -0.612429 6.197984
v 0.080838 -0.686611 6.195677
v 0.089556 -0.665969 6.250998
v 0.074225 -0.665864 6.183110
v 0.068659 -0.624910 6.142477
v 0.077940 -0.649673 6.151052
v 0.100635 -0.617868 6.184450
v 0.188727 -0.629010 6.271682
v 0.106529 -0.680203 6.230686
v 0.088312 -0.634837 6.154138
v 0.130467 -0.653178 6.263455
v 0.108520 -0.630572 6.191689
v 0.121158 -0.614476 6.203720
v 0.119178 -0.614340 6.203101
v 0.153037 -0.611711 6.222913
v 0.171420 -0.614804 6.248452
v 0.091129 -0.688986 6.187080
v 0.087067 -0.650904 6.151584
v 0.110496 -0.658149 6.169182
v 0.138039 -0.641888 6.194426
v 0.218151 -0.643088 6.273638
v 0.157622 -0.623123 6.209674
v 0.421345 -0.355665 6.288221
v 0.405088 -0.392829 6.289222
v 0.410306 -0.377723 6.302018
v 0.433422 -0.338460 6.284507
v 0.440892 -0.326289 6.329884
v 0.438717 -0.318688 6.299704
v 0.433450 -0.338317 6.284411
v 0.449043 -0.309927 6.321802
v 0.415085 -0.382258 6.319596
v 0.472173 -0.284219 6.302265
v 0.469967 -0.288429 6.290926
v 0.471048 -0.300494 6.282891
v 0.497081 -0.294154 6.339528
v 0.480291 -0.285172 6.279224
v 0.485786 -0.286206 6.276045
v 0.490249 -0.279820 6.284263
v 0.497563 -0.276183 6.305732
v 0.511904 -0.275358 6.331168
v 0.112888 -0.690160 6.186798
v 0.118498 -0.688628 6.209082
v 0.172640 -0.677755 6.243134
v 0.141199 -0.674023 6.188693
v 0.142264 -0.660458 6.187408
v 0.232425 -0.659733 6.262352
v 0.204625 -0.608139 6.222340
v 0.219748 -0.611513 6.264225
v 0.249412 -0.611166 6.274135
v 0.330856 -0.518922 6.277987
v 0.330527 -0.530345 6.285144
v 0.431396 -0.382892 6.335309
v 0.417055 -0.391109 6.280985
v 0.461385 -0.374324 6.345945
v 0.423075 -0.366177 6.280986
v 0.432489 -0.360079 6.280140
v 0.413853 -0.434550 6.323281
v 0.440616 -0.336468 6.282793
v 0.440555 -0.336585 6.282651
v 0.449764 -0.399629 6.292055
v 0.481163 -0.308842 6.281863
v 0.522928 -0.341334 6.308742
v 0.535297 -0.317388 6.355529
v 0.485894 -0.286284 6.276459
v 0.574047 -0.281410 6.351868
v 0.533104 -0.270159 6.315042
v 0.588038 -0.254380 6.320129
v 0.562334 -0.262688 6.335806
v 0.164051 -0.677967 6.207546
v 0.182284 -0.645319 6.199912
v 0.182295 -0.664131 6.202585
v 0.260885 -0.584731 6.249248
v 0.254025 -0.589738 6.233496
v 0.266822 -0.588692 6.269198
v 0.331365 -0.513556 6.267919
v 0.372973 -0.452020 6.278493
v 0.356861 -0.485338 6.266531
v 0.337509 -0.545709 6.288215
v 0.384104 -0.444921 6.271156
v 0.424457 -0.399780 6.281307
v 0.417169 -0.470508 6.308884
v 0.491774 -0.352196 6.303814
v 0.509695 -0.352615 6.349621
v 0.544797 -0.282697 6.299576
v 0.546734 -0.295184 6.296587
v 0.571671 -0.260587 6.311186
v 0.219403 -0.671198 6.232114
v 0.242355 -0.656195 6.217044
v 0.269420 -0.625420 6.274399
v 0.267830 -0.584737 6.231256
v 0.287852 -0.604385 6.212989
v 0.288207 -0.596063 6.278075
v 0.294149 -0.555026 6.254589
v 0.314984 -0.546311 6.241506
v 0.370878 -0.484718 6.264311
v 0.470001 -0.404378 6.296992
v 0.529938 -0.371255 6.315213
v 0.563941 -0.346983 6.355557
v 0.577165 -0.296955 6.302495
v 0.575764 -0.308156 6.360949
v 0.594946 -0.281197 6.302845
v 0.607637 -0.257232 6.307763
v 0.619337 -0.268073 6.297933
v 0.606499 -0.257901 6.333905
v 0.273333 -0.646488 6.248083
v 0.286812 -0.621245 6.211084
v 0.312639 -0.616905 6.253126
v 0.309870 -0.593825 6.275855
v 0.386891 -0.486920 6.265549
v 0.338939 -0.574031 6.227214
v 0.346923 -0.573942 6.274272
v 0.430224 -0.452196 6.276001
v 0.411378 -0.485142 6.258570
v 0.408885 -0.502617 6.289736
v 0.459134 -0.439509 6.304443
v 0.468069 -0.429182 6.297521
v 0.500982 -0.394965 6.319146
v 0.553669 -0.372434 6.331313
v 0.559887 -0.369941 6.336780
v 0.559052 -0.367198 6.324380
v 0.624449 -0.276438 6.349040
v 0.636668 -0.269791 6.332491
v 0.292476 -0.628364 6.219063
v 0.287875 -0.638023 6.234130
v 0.407969 -0.492876 6.256516
v 0.381361 -0.551668 6.260043
v 0.392217 -0.522944 6.249162
v 0.436112 -0.467859 6.282171
v 0.429151 -0.467939 6.271495
v 0.495627 -0.400899 6.310058
v 0.500395 -0.397080 6.311742
v 0.512953 -0.389335 6.315679
v 0.540689 -0.377171 6.324551
v 0.540689 -0.377171 6.324551
v 0.540689 -0.377171 6.324551
v 0.553647 -0.372939 6.331406
v 0.600105 -0.360858 6.360753
v 0.649812 -0.315417 6.316043
v 0.656381 -0.287865 6.339482
v 0.641951 -0.268825 6.302660
v 0.351054 -0.574419 6.230919
v 0.358598 -0.576770 6.241220
v 0.570967 -0.371491 6.330416
v 0.586746 -0.373625 6.341478
v 0.608470 -0.366966 6.327836
v 0.603761 -0.374341 6.352908
v 0.633518 -0.366121 6.359153
v 0.643154 -0.339091 6.360700
v 0.649354 -0.289961 6.301312
v 0.673144 -0.320944 6.351203
v 0.652311 -0.276640 6.307272
v 0.621916 -0.378810 6.345758
v 0.664662 -0.298613 6.316567
v 0.676431 -0.329936 6.347345
v 0.641898 -0.364463 6.327034
v 0.659908 -0.369665 6.350118
v 0.665971 -0.358112 6.354189
v 0.660310 -0.333625 6.324033
v 0.659481 -0.357878 6.331852
v 0.656870 -0.370762 6.342698
v 0.673934 -0.341942 6.351486
v 0.672051 -0.353050 6.345392
v 0.665327 -0.364858 6.348964
vn -0.9341 -0.2660 -0.2381
vn -0.8932 -0.4455 -0.0618
vn -0.9833 0.0056 0.1819
vn -0.6334 0.7731 -0.0342
vn -0.7588 0.5422 -0.3609
vn -0.8013 0.4108 0.4349
vn -0.9469 -0.1804 0.2661
vn -0.1359 0.9389 0.3162
vn -0.9098 -0.3710 0.1859
vn -0.6671 -0.0505 0.7433
vn -0.2520 0.6416 0.7245
vn -0.1864 0.0361 0.9818
vn 0.0478 0.9471 -0.3175
vn 0.1946 0.9779 -0.0766
vn 0.1980 0.9090 0.3668
vn -0.5666 -0.6451 0.5126
vn -0.7453 0.1064 -0.6582
vn -0.2156 0.5505 -0.8065
vn -0.6444 -0.4458 -0.6212
vn -0.0110 0.3134 0.9496
vn 0.4065 0.6019 -0.6874
vn 0.4893 0.8096 -0.3243
vn 0.3147 0.8805 -0.3544
vn -0.5530 -0.8242 -0.1217
vn -0.2135 -0.6724 0.7087
vn -0.7902 -0.5403 -0.2891
vn 0.0392 0.0642 -0.9972
vn -0.3138 -0.6014 -0.7348
vn 0.6869 0.4919 -0.5350
vn -0.1128 0.3910 0.9134
vn -0.1327 -0.9004 0.4143
vn 0.6854 0.2703 -0.6762
vn -0.0995 -0.4606 0.8820
vn 0.5817 0.3782 -0.7202
vn 0.3213 0.7147 -0.6213
vn 0.2040 0.9358 -0.2876
vn -0.0601 0.9364 0.3457
vn -0.2493 -0.8958 -0.3680
vn 0.2875 -0.3090 -0.9066
vn 0.6193 0.4050 -0.6726
vn 0.2688 0.4565 -0.8482
vn 0.1799 0.6359 -0.7505
vn 0.0176 -0.2926 0.9561
vn 0.0676 0.9598 -0.2725
vn -0.8371 0.4139 -0.3577
vn -0.8437 0.4129 -0.3431
vn -0.9428 0.2828 0.1766
vn -0.6532 0.3899 0.6491
vn -0.7980 0.5837 -0.1500
vn -0.8658 0.3682 -0.3387
vn -0.6730 0.3418 -0.6559
vn -0.6611 0.6480 0.3783
vn -0.8322 0.2733 0.4824
vn -0.4881 0.0215 0.8725
vn -0.5122 0.8541 0.0909
vn -0.6302 0.6767 -0.3807
vn -0.3804 0.1900 -0.9051
vn -0.3283 0.4524 0.8292
vn -0.5171 0.5857 -0.6242
vn -0.2846 0.8381 0.4654
vn -0.2249 0.9739 -0.0322
vn -0.0737 0.8903 -0.4494
vn 0.1768 -0.8912 -0.4177
vn 0.0498 -0.9835 0.1737
vn 0.0699 -0.9015 0.4271
vn 0.4618 -0.3927 -0.7953
vn 0.3914 0.0949 -0.9153
vn 0.2287 -0.7810 0.5812
vn -0.1797 0.8925 -0.4137
vn -0.2962 0.8359 0.4621
vn -0.8058 0.4493 0.3857
vn -0.5387 0.1786 0.8233
vn -0.4806 0.1918 -0.8557
vn -0.2620 0.1145 -0.9582
vn 0.1848 0.0119 -0.9827
vn -0.0908 -0.2688 0.9589
vn -0.0030 -0.1763 0.9843
vn 0.2947 -0.0765 -0.9525
vn 0.0227 0.2457 -0.9691
vn 0.4489 0.1775 -0.8758
vn 0.3310 -0.0292 -0.9432
vn 0.1323 -0.2340 -0.9632
vn 0.2455 -0.2727 -0.9302
vn -0.1582 0.0739 0.9846
vn 0.2864 -0.2172 -0.9332
vn 0.5392 0.2079 -0.8161
vn -0.0961 0.4750 0.8747
vn -0.0763 0.9516 -0.2978
vn -0.0488 0.9988 0.0001
vn -0.2073 0.8349 0.5099
vn 0.3163 -0.8613 -0.3976
vn 0.1888 0.1767 -0.9660
vn 0.2810 -0.3717 -0.8848
vn -0.5184 0.8498 0.0954
vn -0.1955 0.2923 0.9361
vn -0.3364 0.9349 -0.1131
vn -0.4616 0.5547 0.6922
vn -0.7814 0.6174 -0.0906
vn -0.6938 0.5483 -0.4669
vn -0.2068 -0.1090 0.9723
vn -0.2310 0.3320 -0.9145
vn -0.4486 0.4903 -0.7473
vn 0.2967 -0.4866 0.8217
vn 0.2889 -0.1675 -0.9426
vn -0.0302 -0.3445 0.9383
vn 0.1488 0.5838 -0.7981
vn 0.2629 -0.1056 -0.9590
vn -0.1583 0.7144 -0.6816
vn 0.2972 -0.9531 -0.0574
vn -0.3394 0.7609 -0.5530
vn 0.0678 0.3745 -0.9247
vn -0.0542 -0.0677 0.9962
vn -0.6653 0.7397 -0.1013
vn -0.3028 0.6188 -0.7248
vn 0.0267 0.2596 -0.9654
vn 0.3145 0.0420 -0.9483
vn 0.3483 -0.2511 -0.9031
vn -0.1979 -0.4071 0.8917
vn 0.1183 -0.0847 -0.9894
vn -0.0628 0.1291 0.9896
vn -0.0937 -0.0452 -0.9946
vn 0.1049 0.8924 -0.4389
vn 0.0438 0.2999 -0.9530
vn 0.1651 0.8797 0.4459
vn 0.3624 -0.7628 -0.5355
vn 0.4895 -0.8276 0.2747
vn 0.3012 -0.2041 -0.9315
vn 0.5882 -0.7257 0.3570
vn 0.2677 -0.4390 0.8577
vn 0.2696 -0.4477 0.8526
vn -0.0542 0.3556 -0.9331
vn 0.1625 0.2479 -0.9551
vn 0.4399 -0.6015 0.6668
vn 0.0418 0.3920 -0.9190
vn 0.2032 0.1812 -0.9622
vn 0.6207 -0.6035 0.5004
vn 0.6204 -0.6669 0.4127
vn 0.3693 -0.7849 0.4976
vn -0.0099 -0.8207 0.5713
vn -0.0611 -0.8055 0.5894
vn 0.1870 -0.5434 -0.8184
vn 0.1893 0.5335 0.8244
vn 0.4611 0.8290 0.3166
vn 0.5491 -0.8284 -0.1106
vn 0.5515 -0.6377 -0.5377
vn -0.2367 0.3912 -0.8894
vn 0.7912 -0.6061 0.0821
vn 0.8076 -0.5234 -0.2718
vn 0.6410 -0.1034 -0.7605
vn 0.7444 -0.4122 -0.5254
vn 0.4538 -0.3629 -0.8138
vn 0.6179 -0.7684 0.1670
vn 0.5349 -0.5076 -0.6754
vn 0.4571 -0.8612 -0.2221
vn 0.3495 -0.5509 -0.7579
vn 0.4478 -0.8294 -0.3341
vn 0.3212 -0.8379 -0.4413
vn -0.1401 -0.2967 0.9446
vn 0.2451 -0.2994 -0.9221
vn 0.6775 0.6027 0.4217
vn 0.4585 0.7008 -0.5465
vn 0.5613 -0.1734 -0.8092
vn 0.7637 -0.5988 -0.2411
vn 0.6165 -0.2202 -0.7559
vn -0.0441 -0.9377 -0.3447
vn -0.2457 -0.9135 0.3242
vn -0.1750 -0.7972 0.5779
vn 0.0943 -0.4583 0.8838
vn 0.1564 0.0679 0.9854
vn 0.3752 -0.1749 -0.9103
vn 0.7476 0.5600 -0.3572
vn 0.0490 -0.6294 -0.7755
vn 0.0983 -0.9930 0.0651
vn 0.7212 0.3052 0.6218
vn 0.8970 0.0867 -0.4334
vn 0.9992 -0.0377 0.0116
vn 0.1968 -0.5471 -0.8136
vn 0.4435 -0.8074 0.3891
vn 0.5905 -0.3451 0.7295
vn 0.5787 -0.2299 -0.7825
vn 0.7724 -0.1549 0.6159
vn 0.4643 -0.8306 -0.3074
vn 0.5720 -0.4078 -0.7117
vn 0.8988 -0.4057 -0.1659
vn 0.6775 -0.6507 -0.3429
s 1
f 1//1 2//2 3//3
f 1//1 3//3 5//4
f 4//5 1//1 5//4
f 3//3 7//6 5//4
f 3//3 8//7 7//6
f 5//4 7//6 6//8
f 2//2 8//7 3//3
f 9//9 7//6 8//7
f 9//9 10//10 7//6
f 7//6 10//10 11//11
f 10//10 12//12 11//11
f 4//5 5//4 13//13
f 6//8 14//14 5//4
f 7//6 11//11 6//8
f 14//14 6//8 15//15
f 9//9 8//7 2//2
f 10//10 9//9 16//16
f 17//17 4//5 18//18
f 1//1 17//17 19//19
f 4//5 17//17 1//1
f 10//10 16//16 12//12
f 20//20 11//11 12//12
f 4//5 13//13 18//18
f 18//18 13//13 21//21
f 21//21 13//13 22//22
f 14//14 13//13 5//4
f 13//13 14//14 22//22
f 22//22 14//14 23//23
f 6//8 11//11 15//15
f 24//24 16//16 9//9
f 12//12 16//16 25//25
f 19//19 2//2 1//1
f 26//26 2//2 19//19
f 2//2 26//26 9//9
f 17//17 18//18 27//27
f 17//17 27//27 19//19
f 27//27 28//28 19//19
f 27//27 18//18 21//21
f 21//21 22//22 29//29
f 29//29 22//22 23//23
f 15//15 11//11 20//20
f 15//15 20//20 30//30
f 9//9 26//26 24//24
f 31//31 25//25 16//16
f 26//26 19//19 28//28
f 21//21 32//32 27//27
f 33//33 12//12 25//25
f 32//32 21//21 29//29
f 29//29 34//34 32//32
f 35//35 29//29 23//23
f 34//34 29//29 35//35
f 23//23 14//14 36//36
f 35//35 36//36 14//14
f 30//30 38//37 15//15
f 28//28 39//38 26//26
f 39//38 24//24 26//26
f 24//24 31//31 16//16
f 27//27 40//39 28//28
f 32//32 40//39 27//27
f 40//39 39//38 28//28
f 40//39 32//32 41//40
f 41//40 32//32 34//34
f 42//41 41//40 34//34
f 33//33 20//20 12//12
f 42//41 34//34 35//35
f 35//35 44//42 42//41
f 43//43 20//20 33//33
f 20//20 43//43 30//30
f 37//44 44//42 35//35
f 35//35 14//14 37//44
f 38//37 14//14 15//15
f 38//37 37//44 14//14
f 45//45 46//46 47//47
f 47//47 49//48 50//49
f 50//49 45//45 47//47
f 45//45 50//49 48//50
f 48//50 50//49 51//51
f 50//49 49//48 52//52
f 53//53 49//48 47//47
f 53//53 74//54 49//48
f 54//55 50//49 52//52
f 51//51 50//49 55//56
f 50//49 54//55 55//56
f 51//51 55//56 56//57
f 49//48 57//58 52//52
f 58//59 56//57 55//56
f 52//52 62//60 54//55
f 52//52 57//58 62//60
f 54//55 61//61 60//62
f 54//55 60//62 55//56
f 58//59 55//56 60//62
f 54//55 62//60 61//61
f 40//39 63//63 39//38
f 24//24 39//38 64//64
f 64//64 39//38 63//63
f 24//24 64//64 31//31
f 65//65 31//31 64//64
f 40//39 41//40 66//66
f 40//39 66//66 63//63
f 65//65 25//25 31//31
f 33//33 25//25 65//65
f 41//40 42//41 67//67
f 43//43 33//33 68//68
f 37//44 69//69 44//42
f 69//69 42//41 44//42
f 38//37 30//30 70//70
f 70//70 69//69 37//44
f 38//37 70//70 37//44
f 72//71 53//53 46//46
f 72//71 73//72 53//53
f 53//53 47//47 46//46
f 73//72 74//54 53//53
f 77//73 46//46 45//45
f 77//73 75//74 46//46
f 75//74 77//73 78//75
f 74//54 79//76 76//77
f 77//73 45//45 48//50
f 51//51 78//75 77//73
f 75//74 78//75 102//78
f 51//51 80//79 78//75
f 81//80 82//81 78//75
f 49//48 74//54 76//77
f 80//79 51//51 56//57
f 83//82 80//79 56//57
f 83//82 84//83 80//79
f 85//84 49//48 76//77
f 59//85 56//57 58//59
f 83//82 56//57 59//85
f 57//58 49//48 85//84
f 58//59 60//62 86//86
f 83//82 59//85 86//86
f 62//60 57//58 87//87
f 60//62 61//61 88//88
f 88//88 61//61 62//60
f 89//89 88//88 62//60
f 90//90 89//89 62//60
f 91//91 63//63 66//66
f 64//64 63//63 91//91
f 41//40 67//67 66//66
f 92//92 67//67 42//41
f 67//67 92//92 93//93
f 94//94 69//69 70//70
f 30//30 71//95 70//70
f 43//43 71//95 30//30
f 69//69 94//94 95//96
f 70//70 96//97 94//94
f 97//98 72//71 98//99
f 46//46 98//99 72//71
f 73//72 100//100 74//54
f 46//46 101//101 98//99
f 46//46 75//74 101//101
f 99//102 98//99 101//101
f 74//54 100//100 79//76
f 102//78 101//101 75//74
f 103//103 76//77 79//76
f 102//78 78//75 82//81
f 82//81 81//80 104//104
f 76//77 105//105 85//84
f 80//79 104//104 81//80
f 86//86 60//62 106//106
f 86//86 106//106 107//107
f 60//62 88//88 106//106
f 88//88 108//108 106//106
f 62//60 87//87 90//90
f 89//89 108//108 88//88
f 93//93 66//66 67//67
f 66//66 93//93 91//91
f 91//91 109//109 64//64
f 109//109 65//65 64//64
f 109//109 68//68 65//65
f 33//33 65//65 68//68
f 92//92 42//41 69//69
f 69//69 95//96 112//110
f 69//69 112//110 113//111
f 70//70 71//95 96//97
f 94//94 112//110 95//96
f 71//95 114//112 96//97
f 94//94 96//97 115//113
f 96//97 72//71 115//113
f 72//71 96//97 73//72
f 114//112 73//72 96//97
f 94//94 115//113 112//110
f 112//110 115//113 116//114
f 115//113 72//71 97//98
f 115//113 97//98 116//114
f 116//114 97//98 99//102
f 97//98 98//99 99//102
f 79//76 100//100 103//103
f 99//102 101//101 117//115
f 117//115 101//101 82//81
f 102//78 82//81 101//101
f 118//116 117//115 82//81
f 119//117 82//81 104//104
f 80//79 84//83 104//104
f 120//118 85//84 105//105
f 86//86 107//107 83//82
f 107//107 84//83 83//82
f 57//58 85//84 87//87
f 106//106 121//119 107//107
f 108//108 121//119 106//106
f 87//87 85//84 122//120
f 108//108 123//121 121//119
f 108//108 89//89 124//122
f 123//121 108//108 125//123
f 89//89 90//90 126//124
f 91//91 93//93 110//125
f 110//125 109//109 91//91
f 127//126 68//68 109//109
f 128//127 93//93 92//92
f 129//128 68//68 127//126
f 68//68 111//129 43//43
f 92//92 69//69 113//111
f 71//95 43//43 114//112
f 111//129 114//112 43//43
f 111//129 130//130 114//112
f 114//112 100//100 73//72
f 113//111 112//110 116//114
f 114//112 130//130 100//100
f 103//103 100//100 130//130
f 116//114 117//115 131//131
f 131//131 132//132 116//114
f 117//115 116//114 99//102
f 130//130 133//133 103//103
f 131//131 134//134 135//135
f 136//136 103//103 133//133
f 134//134 131//131 117//115
f 134//134 117//115 118//116
f 103//103 137//137 76//77
f 137//137 139//138 76//77
f 119//117 118//116 82//81
f 104//104 84//83 119//117
f 140//139 105//105 76//77
f 141//140 105//105 140//139
f 119//117 84//83 142//141
f 105//105 141//140 120//118
f 121//119 142//141 84//83
f 107//107 121//119 84//83
f 87//87 126//124 90//90
f 125//123 108//108 124//122
f 89//89 126//124 124//122
f 126//124 143//142 144//143
f 87//87 143//142 126//124
f 109//109 110//125 146//144
f 128//127 110//125 93//93
f 110//125 128//127 145//145
f 127//126 109//109 146//144
f 68//68 129//128 111//129
f 128//127 92//92 113//111
f 132//132 113//111 116//114
f 113//111 132//132 128//127
f 130//130 111//129 129//128
f 147//146 132//132 131//131
f 147//146 131//131 135//135
f 136//136 148//147 150//148
f 136//136 137//137 103//103
f 151//149 135//135 134//134
f 136//136 150//148 137//137
f 118//116 151//149 134//134
f 118//116 138//150 151//149
f 151//149 138//150 150//148
f 150//148 138//150 137//137
f 118//116 152//151 138//150
f 138//150 153//152 137//137
f 137//137 153//152 139//138
f 119//117 152//151 118//116
f 119//117 154//153 152//151
f 76//77 139//138 140//139
f 153//152 155//154 139//138
f 154//153 119//117 156//155
f 155//154 140//139 139//138
f 156//155 119//117 142//141
f 157//156 142//141 158//157
f 122//120 85//84 159//158
f 122//120 143//142 87//87
f 160//159 121//119 123//121
f 144//143 143//142 161//160
f 125//123 124//122 162//161
f 162//161 124//122 126//124
f 162//161 126//124 144//143
f 145//145 146//144 110//125
f 128//127 163//162 145//145
f 127//126 146//144 129//128
f 129//128 146//144 164//163
f 146//144 145//145 164//163
f 128//127 132//132 163//162
f 145//145 163//162 164//163
f 130//130 129//128 133//133
f 136//136 133//133 148//147
f 148//147 133//133 129//128
f 129//128 164//163 148//147
f 149//164 132//132 147//146
f 132//132 149//164 163//162
f 164//163 163//162 149//164
f 164//163 149//164 148//147
f 149//164 135//135 151//149
f 151//149 150//148 149//164
f 150//148 148//147 149//164
f 142//141 165//165 158//157
f 165//165 141//140 140//139
f 120//118 141//140 166//166
f 165//165 166//166 141//140
f 159//158 85//84 120//118
f 166//166 168//167 120//118
f 169//168 122//120 159//158
f 143//142 122//120 170//169
f 171//170 125//123 162//161
f 125//123 171//170 123//121
f 173//171 171//170 162//161
f 173//171 162//161 144//143
f 173//171 144//143 161//160
f 165//165 142//141 167//172
f 165//165 174//173 166//166
f 166//166 174//173 168//167
f 165//165 167//172 174//173
f 168//167 159//158 120//118
f 170//169 122//120 169//168
f 169//168 159//158 168//167
f 121//119 167//172 142//141
f 170//169 172//174 143//142
f 123//121 171//170 160//159
f 160//159 171//170 175//175
f 176//176 175//175 172//174
f 161//160 143//142 172//174
f 173//171 175//175 171//170
f 172//174 175//175 161//160
f 161//160 175//175 173//171
f 167//172 177//177 174//173
f 168//167 174//173 169//168
f 174//173 178//178 169//168
f 169//168 179//179 170//169
f 177//177 160//159 180//180
f 179//179 172//174 170//169
f 175//175 180//180 160//159
f 183//181 176//176 172//174
f 183//181 172//174 179//179
f 180//180 175//175 176//176
f 177//177 167//172 121//119
f 174//173 177//177 182//182
f 174//173 182//182 178//178
f 177//177 181//183 182//182
f 179//179 169//168 178//178
f 160//159 177//177 121//119
f 177//177 180//180 181//183
f 179//179 184//184 183//181
f 181//183 180//180 184//184
f 185//185 178//178 182//182
f 182//182 181//183 184//184
f 182//182 184//184 185//185
f 178//178 184//184 179//179
f 180//180 176//176 184//184
f 184//184 176//176 183//181
