# Blender v2.78 (sub 0) OBJ File: 'exporter.blend'
# www.blender.org
o FJ3250.obj_grp1.1890
v 0.496269 -0.551877 -0.221482
v 0.481301 -0.548789 -0.212368
v 0.496566 -0.539219 -0.220665
v 0.481097 -0.548244 -0.211673
v 0.485086 -0.544013 -0.214760
v 0.477116 -0.550087 -0.205114
v 0.477471 -0.553090 -0.197805
v 0.477572 -0.552341 -0.199182
v 0.481824 -0.554268 -0.190060
v 0.492724 -0.537783 -0.216649
v 0.492724 -0.537783 -0.216649
v 0.498809 -0.532683 -0.213139
v 0.491812 -0.549400 -0.173596
v 0.505525 -0.529330 -0.211923
v 0.505935 -0.528868 -0.211674
v 0.518866 -0.531414 -0.210918
v 0.512043 -0.523667 -0.208681
v 0.515589 -0.512892 -0.197598
v 0.514508 -0.513819 -0.197890
v 0.515625 -0.559504 -0.228983
v 0.502217 -0.563259 -0.218699
v 0.495158 -0.566821 -0.205890
v 0.480488 -0.554353 -0.189488
v 0.483988 -0.551590 -0.183703
v 0.508964 -0.547478 -0.220600
v 0.513432 -0.558257 -0.227439
v 0.530377 -0.565903 -0.236425
v 0.528395 -0.545637 -0.210622
v 0.521983 -0.539887 -0.208039
v 0.535703 -0.501823 -0.186472
v 0.560314 -0.524515 -0.198679
v 0.505485 -0.578547 -0.207765
v 0.513790 -0.580935 -0.215366
v 0.499795 -0.571413 -0.201117
v 0.526806 -0.574197 -0.233858
v 0.532516 -0.591527 -0.226925
v 0.495701 -0.563796 -0.190498
v 0.495637 -0.563749 -0.190358
v 0.501594 -0.568922 -0.177830
v 0.553702 -0.558042 -0.214728
v 0.492653 -0.549643 -0.173813
v 0.507336 -0.550718 -0.160796
v 0.497219 -0.544524 -0.167486
v 0.497893 -0.545717 -0.168995
v 0.529822 -0.546541 -0.211800
v 0.535373 -0.548206 -0.212417
v 0.530682 -0.545004 -0.211580
v 0.534223 -0.547863 -0.212598
v 0.509536 -0.540976 -0.158915
v 0.551436 -0.551437 -0.211504
v 0.519937 -0.523488 -0.174820
v 0.530578 -0.518502 -0.165439
v 0.525338 -0.530953 -0.154818
v 0.539545 -0.502507 -0.188087
v 0.559964 -0.523601 -0.190328
v 0.538081 -0.502949 -0.182657
v 0.537961 -0.503508 -0.183138
v 0.543281 -0.511019 -0.177447
v 0.501068 -0.576127 -0.188648
v 0.504447 -0.566782 -0.167675
v 0.552543 -0.573847 -0.228374
v 0.543862 -0.552274 -0.211502
v 0.541539 -0.550820 -0.211279
v 0.509536 -0.540976 -0.158915
v 0.532817 -0.549921 -0.149340
v 0.525338 -0.530953 -0.154818
v 0.551633 -0.532904 -0.174328
v 0.537962 -0.528333 -0.159619
v 0.525462 -0.531452 -0.154958
v 0.527710 -0.599229 -0.205933
v 0.522816 -0.598850 -0.194166
v 0.546924 -0.593917 -0.234848
v 0.552473 -0.600100 -0.235303
v 0.553618 -0.558153 -0.214348
v 0.563439 -0.564317 -0.201306
v 0.563514 -0.564349 -0.201317
v 0.551529 -0.551862 -0.211031
v 0.537168 -0.547163 -0.150832
v 0.559650 -0.553825 -0.186121
v 0.560214 -0.568953 -0.167125
v 0.537962 -0.528333 -0.159619
v 0.551427 -0.610539 -0.227560
v 0.542168 -0.612034 -0.207503
v 0.531634 -0.598895 -0.189117
v 0.534411 -0.590036 -0.172763
v 0.573100 -0.621490 -0.238082
v 0.524380 -0.585108 -0.168670
v 0.581565 -0.616019 -0.229733
v 0.544725 -0.562750 -0.153774
v 0.537168 -0.547163 -0.150832
v 0.572577 -0.648085 -0.236120
v 0.578531 -0.672067 -0.221261
v 0.560661 -0.596535 -0.179026
v 0.563856 -0.573181 -0.188009
v 0.627850 -0.702433 -0.250076
v 0.595410 -0.678575 -0.256171
v 0.614286 -0.697063 -0.263284
v 0.603750 -0.699123 -0.265731
v 0.567989 -0.642563 -0.201875
v 0.584603 -0.629033 -0.203519
v 0.603573 -0.726557 -0.263185
v 0.604887 -0.713019 -0.270694
v 0.614799 -0.735705 -0.310528
v 0.622305 -0.759398 -0.312189
v 0.632848 -0.751342 -0.316749
v 0.620590 -0.727763 -0.307547
v 0.613450 -0.727692 -0.303730
v 0.610729 -0.748117 -0.301088
v 0.612255 -0.725447 -0.286877
v 0.637810 -0.737863 -0.307505
v 0.616613 -0.723051 -0.288694
v 0.629835 -0.726883 -0.286195
v 0.627850 -0.702433 -0.250076
v 0.612179 -0.768937 -0.300999
v 0.610255 -0.767100 -0.284559
v 0.603018 -0.758753 -0.290350
v 0.636792 -0.795482 -0.274055
v 0.602666 -0.753570 -0.290124
v 0.612179 -0.768937 -0.300999
v 0.606356 -0.741766 -0.277571
v 0.655940 -0.764220 -0.306334
v 0.641862 -0.743015 -0.294080
v 0.620822 -0.751445 -0.256375
v 0.628521 -0.736882 -0.245969
v 0.567989 -0.642563 -0.201875
v 0.633253 -0.723282 -0.247463
v 0.627113 -0.785890 -0.298581
v 0.643422 -0.769604 -0.312585
v 0.634789 -0.784433 -0.305897
v 0.637571 -0.795453 -0.273823
v 0.660167 -0.750409 -0.285829
v 0.648306 -0.733381 -0.271298
v 0.655215 -0.739211 -0.283307
v 0.659069 -0.770130 -0.260740
v 0.628521 -0.736882 -0.245969
v 0.627113 -0.785890 -0.298581
v 0.655895 -0.780078 -0.301412
v 0.659300 -0.741788 -0.277680
v 0.636591 -0.795387 -0.287410
v 0.636591 -0.795387 -0.287410
v 0.646277 -0.794902 -0.282749
v 0.649971 -0.770571 -0.256440
v 0.669195 -0.769014 -0.287296
v 0.660883 -0.757613 -0.270794
v 0.659843 -0.781801 -0.268396
v 0.668001 -0.777324 -0.279533
v 0.669176 -0.768977 -0.272005
vn -0.5912 -0.6964 -0.4069
vn -0.4953 -0.5627 -0.6619
vn -0.4788 -0.1087 -0.8712
vn -0.1601 0.4973 -0.8527
vn -0.4695 0.5709 -0.6735
vn -0.6051 0.7226 0.3343
vn -0.6181 0.7819 0.0809
vn -0.6578 0.7513 0.0534
vn -0.6984 0.6987 0.1552
vn -0.6296 0.7558 0.1797
vn -0.6559 0.7204 0.2254
vn -0.2815 0.7274 -0.6258
vn 0.0717 0.5383 -0.8397
vn 0.1296 0.1675 -0.9773
vn 0.0988 0.3672 -0.9249
vn 0.0292 0.6721 -0.7399
vn -0.3836 0.9124 -0.1428
vn -0.6169 -0.4827 -0.6217
vn -0.4051 0.0917 -0.9097
vn -0.6697 -0.6772 -0.3047
vn -0.6038 -0.7889 -0.1139
vn -0.4855 -0.8006 0.3512
vn -0.8898 0.1160 0.4414
vn 0.1229 0.5442 -0.8299
vn -0.0044 0.3202 -0.9474
vn -0.2644 0.4102 -0.8728
vn -0.0509 0.1193 -0.9916
vn 0.0339 0.5566 -0.8301
vn -0.6712 0.6452 0.3650
vn -0.5926 0.7125 0.3756
vn -0.2038 0.9783 0.0367
vn 0.4181 0.8589 -0.2958
vn -0.7006 -0.6460 -0.3030
vn -0.5998 -0.6294 -0.4940
vn -0.7722 -0.6337 0.0464
vn -0.5139 -0.2917 -0.8067
vn -0.6081 -0.5681 -0.5545
vn -0.4784 -0.8153 0.3261
vn -0.7330 -0.6156 0.2894
vn -0.7750 -0.6093 0.1675
vn -0.8947 -0.2530 0.3680
vn -0.5545 -0.6620 0.5043
vn 0.2324 0.6502 -0.7233
vn -0.5710 -0.5519 0.6078
vn -0.5684 -0.3082 0.7628
vn 0.2051 0.7575 -0.6198
vn -0.1575 0.2816 -0.9465
vn -0.6213 -0.1229 0.7738
vn -0.5247 -0.0165 0.8511
vn 0.1676 0.2608 -0.9507
vn -0.6237 -0.4142 -0.6629
vn 0.7264 0.4872 -0.4848
vn 0.2598 0.3314 -0.9070
vn -0.6530 0.7546 0.0650
vn -0.6245 0.6710 0.3997
vn 0.8772 0.3843 0.2879
vn -0.4555 0.7513 0.4776
vn 0.4334 0.7920 0.4300
vn 0.6089 0.5734 0.5481
vn 0.5684 0.4610 -0.6815
vn -0.7309 -0.3348 0.5947
vn 0.1614 0.4513 -0.8777
vn 0.2155 0.4627 -0.8600
vn -0.5541 0.6491 0.5212
vn -0.5692 0.6406 0.5154
vn -0.0542 -0.0785 0.9954
vn -0.3304 0.1393 0.9335
vn 0.7926 0.2851 0.5389
vn 0.1580 0.5821 0.7976
vn 0.1657 0.4939 0.8536
vn -0.6003 -0.7786 -0.1831
vn -0.4575 -0.8710 0.1789
vn -0.3477 -0.2603 -0.9007
vn -0.4989 -0.3419 -0.7964
vn -0.3183 -0.7522 0.5770
vn 0.8115 0.4083 -0.4181
vn 0.7828 0.4436 -0.4364
vn 0.7985 0.4661 -0.3810
vn 0.9558 0.2907 -0.0434
vn 0.1975 0.2261 0.9539
vn 0.9546 0.1728 0.2425
vn 0.7336 0.3093 0.6051
vn -0.7328 -0.4697 -0.4923
vn -0.7888 -0.5595 -0.2545
vn -0.5578 -0.7513 0.3528
vn 0.1536 0.1471 -0.9771
vn -0.1748 -0.7035 0.6888
vn 0.7610 0.4616 -0.4558
vn 0.3384 -0.2448 0.9086
vn 0.7088 0.2534 0.6584
vn 0.8391 -0.0347 0.5429
vn -0.7816 -0.2278 -0.5807
vn -0.8298 -0.5372 0.1513
vn 0.5540 -0.2318 0.7996
vn 0.9500 0.1615 0.2674
vn 0.6648 0.6093 -0.4321
vn -0.4646 0.1695 -0.8691
vn 0.4341 0.6270 -0.6468
vn -0.1523 0.4160 -0.8965
vn -0.0128 -0.4918 0.8706
vn 0.6550 -0.0443 0.7543
vn -0.9505 -0.3095 -0.0276
vn -0.8995 0.0225 -0.4364
vn 0.1299 0.0975 -0.9867
vn -0.5878 0.1807 -0.7886
vn 0.0679 0.7961 -0.6013
vn -0.6695 0.6535 -0.3532
vn -0.8656 0.0109 -0.5006
vn -0.8497 0.3602 -0.3850
vn -0.1496 0.8722 -0.4657
vn 0.5605 0.7278 -0.3953
vn 0.8562 0.2989 0.4213
vn -0.7433 -0.6689 0.0031
vn -0.8148 -0.4994 0.2944
vn -0.9799 -0.1828 0.0800
vn -0.7508 -0.6606 0.0022
vn -0.5096 -0.2418 -0.8257
vn -0.6836 -0.2482 -0.6863
vn -0.9969 0.0415 -0.0664
vn -0.9810 -0.0898 0.1723
vn 0.6397 0.6007 -0.4795
vn 0.7281 0.1992 -0.6559
vn 0.6824 0.6757 -0.2788
vn -0.6052 -0.4912 0.6264
vn -0.2357 -0.4794 0.8454
vn -0.1779 -0.5081 0.8427
vn 0.6635 0.0962 0.7420
vn -0.7366 -0.6757 0.0302
vn 0.1901 -0.2950 -0.9364
vn -0.1294 -0.6730 -0.7283
vn 0.7848 0.6194 0.0222
vn 0.5301 0.7291 -0.4329
vn 0.6984 -0.1270 0.7044
vn 0.4164 -0.1287 0.9000
vn -0.4038 -0.7066 -0.5811
vn 0.5871 -0.5572 -0.5872
vn -0.0208 -0.8487 0.5285
vn 0.8474 0.4155 -0.3306
vn 0.8352 0.5362 0.1226
vn 0.0955 -0.9401 -0.3272
vn -0.6817 -0.7311 0.0275
vn 0.3954 -0.9173 -0.0475
vn 0.1956 -0.3455 0.9178
vn 0.9537 0.0644 -0.2938
vn 0.8292 0.3541 0.4324
vn 0.5573 -0.6509 0.5156
vn 0.8338 -0.5521 0.0026
vn 0.9094 0.1205 0.3981
s 1
f 6//1 2//2 1//3
f 3//4 2//2 10//5
f 5//6 4//7 11//8
f 4//7 12//9 11//8
f 2//2 3//4 1//3
f 12//9 4//7 8//10
f 8//10 13//11 12//9
f 12//12 3//4 10//5
f 12//12 14//13 3//4
f 16//14 14//13 15//15
f 17//16 14//13 12//12
f 17//16 16//14 15//15
f 18//17 17//16 12//12
f 21//18 1//3 20//19
f 22//20 6//1 1//3
f 21//18 22//20 1//3
f 6//1 22//20 7//21
f 22//20 23//22 7//21
f 8//10 9//23 13//11
f 25//24 27//25 20//19
f 26//26 25//24 20//19
f 3//4 25//24 1//3
f 25//24 26//26 1//3
f 29//27 25//24 3//4
f 28//28 25//24 29//27
f 3//4 14//13 29//27
f 29//27 14//13 16//14
f 12//9 13//11 19//29
f 51//30 19//29 13//11
f 17//16 18//17 16//14
f 19//29 30//31 18//17
f 30//31 19//29 51//30
f 30//31 54//32 18//17
f 21//18 32//33 22//20
f 32//33 21//18 33//34
f 32//33 34//35 22//20
f 35//36 20//19 27//25
f 35//36 21//18 20//19
f 21//18 36//37 33//34
f 35//36 36//37 21//18
f 37//38 38//39 23//22
f 22//20 34//35 23//22
f 34//35 37//38 23//22
f 34//35 59//40 38//39
f 39//41 38//39 59//40
f 38//39 41//42 23//22
f 27//25 25//24 40//43
f 23//22 41//42 24//44
f 41//42 38//39 42//45
f 40//43 25//24 45//46
f 25//24 28//28 45//46
f 29//27 46//47 28//28
f 44//48 41//42 49//49
f 48//50 47//51 16//14
f 16//14 18//17 31//52
f 29//27 16//14 47//51
f 48//50 16//14 31//52
f 48//50 31//52 50//53
f 51//30 13//11 43//54
f 51//30 43//54 52//55
f 30//31 51//30 52//55
f 18//17 54//32 31//52
f 31//52 54//32 55//56
f 56//57 30//31 52//55
f 54//32 30//31 57//58
f 55//56 54//32 58//59
f 54//32 57//58 58//59
f 32//33 59//40 34//35
f 40//43 61//60 27//25
f 38//39 39//41 42//45
f 39//41 60//61 42//45
f 40//43 45//46 62//62
f 63//63 62//62 45//46
f 41//42 42//45 49//49
f 62//62 48//50 50//53
f 62//62 50//53 40//43
f 53//64 43//54 64//65
f 49//49 42//45 65//66
f 65//66 66//67 49//49
f 52//55 43//54 53//64
f 67//68 55//56 58//59
f 68//69 57//58 69//70
f 68//69 58//59 57//58
f 36//37 70//71 33//34
f 71//72 32//33 33//34
f 70//71 71//72 33//34
f 71//72 59//40 32//33
f 35//36 27//25 72//73
f 73//74 36//37 35//36
f 59//40 60//61 39//41
f 60//61 87//75 42//45
f 61//60 74//76 75//77
f 87//75 65//66 42//45
f 74//76 77//78 75//77
f 31//52 76//79 50//53
f 78//80 68//69 65//66
f 31//52 55//56 76//79
f 76//79 55//56 79//81
f 58//59 81//82 67//68
f 68//69 69//70 65//66
f 36//37 73//74 82//83
f 36//37 83//84 70//71
f 36//37 82//83 83//84
f 84//85 71//72 70//71
f 83//84 84//85 70//71
f 71//72 84//85 59//40
f 73//74 72//73 27//25
f 86//86 73//74 27//25
f 84//85 85//87 59//40
f 59//40 87//75 60//61
f 59//40 85//87 87//75
f 27//25 61//60 86//86
f 61//60 75//77 88//88
f 65//66 87//75 89//89
f 79//81 88//88 76//79
f 81//82 90//90 80//91
f 89//89 80//91 90//90
f 89//89 78//80 65//66
f 67//68 79//81 55//56
f 80//91 79//81 67//68
f 81//82 80//91 67//68
f 91//92 82//83 73//74
f 91//92 73//74 86//86
f 84//85 83//84 92//93
f 88//88 86//86 61//60
f 93//94 89//89 85//87
f 87//75 85//87 89//89
f 88//88 79//81 94//95
f 94//95 95//96 88//88
f 93//94 94//95 80//91
f 80//91 89//89 93//94
f 80//91 94//95 79//81
f 96//97 91//92 86//86
f 91//92 83//84 82//83
f 85//87 84//85 92//93
f 86//86 97//98 98//99
f 88//88 97//98 86//86
f 85//87 99//100 93//94
f 91//92 92//93 83//84
f 99//100 85//87 92//93
f 88//88 95//96 97//98
f 100//101 93//94 99//100
f 94//95 93//94 100//101
f 101//102 92//93 91//92
f 102//103 101//102 91//92
f 98//99 102//103 96//97
f 102//103 91//92 96//97
f 105//104 103//105 106//106
f 103//105 107//107 106//106
f 108//108 107//107 103//105
f 109//109 111//110 107//107
f 106//106 107//107 111//110
f 106//106 111//110 112//111
f 107//107 108//108 109//109
f 98//99 111//110 109//109
f 97//98 111//110 98//99
f 112//111 111//110 97//98
f 98//99 109//109 102//103
f 100//101 113//112 94//95
f 114//113 115//114 116//115
f 117//116 115//114 114//113
f 103//105 104//117 108//108
f 119//118 118//119 108//108
f 119//118 108//108 104//117
f 118//119 119//118 116//115
f 118//119 116//115 115//114
f 118//119 115//114 120//120
f 105//104 104//117 103//105
f 118//119 109//109 108//108
f 109//109 120//120 102//103
f 109//109 118//119 120//120
f 110//121 106//106 112//111
f 105//104 106//106 110//121
f 105//104 110//121 121//122
f 110//121 112//111 122//123
f 101//102 102//103 120//120
f 123//124 92//93 101//102
f 122//123 112//111 95//96
f 123//124 99//100 92//93
f 123//124 124//125 125//126
f 112//111 97//98 95//96
f 100//101 126//127 113//112
f 127//128 117//116 114//113
f 104//117 105//104 128//129
f 128//129 129//130 104//117
f 128//129 105//104 121//122
f 120//120 123//124 101//102
f 120//120 115//114 123//124
f 122//123 121//122 110//121
f 132//131 133//132 122//123
f 132//131 122//123 95//96
f 126//127 134//133 113//112
f 99//100 135//134 100//101
f 119//118 129//130 136//135
f 119//118 104//117 129//130
f 137//136 129//130 128//129
f 130//137 123//124 115//114
f 121//122 137//136 128//129
f 122//123 131//138 121//122
f 122//123 133//132 131//138
f 131//138 133//132 138//139
f 133//132 132//131 138//139
f 126//127 100//101 135//134
f 132//131 113//112 134//133
f 139//140 136//135 129//130
f 127//128 140//141 117//116
f 137//136 141//142 129//130
f 124//125 123//124 142//143
f 131//138 143//144 121//122
f 134//133 144//145 138//139
f 142//143 134//133 126//127
f 126//127 135//134 142//143
f 131//138 138//139 144//145
f 132//131 134//133 138//139
f 129//130 141//142 139//140
f 141//142 130//137 139//140
f 130//137 145//146 142//143
f 130//137 142//143 123//124
f 141//142 137//136 146//147
f 142//143 145//146 134//133
f 137//136 121//122 143//144
f 143//144 131//138 147//148
f 137//136 143//144 146//147
f 143//144 147//148 146//147
f 131//138 144//145 147//148
f 147//148 144//145 134//133
f 145//146 130//137 141//142
f 141//142 146//147 145//146
f 134//133 145//146 147//148
f 145//146 146//147 147//148
