# Blender v2.78 (sub 0) OBJ File: 'exporter.blend'
# www.blender.org
o FJ3267.obj_grp1.1907
v 0.411006 -0.518079 -0.173763
v 0.409493 -0.518498 -0.166213
v 0.410029 -0.522162 -0.163620
v 0.409133 -0.518474 -0.165970
v 0.411500 -0.517720 -0.162245
v 0.429364 -0.548400 -0.172213
v 0.433839 -0.512751 -0.186624
v 0.412109 -0.509384 -0.171397
v 0.417842 -0.502955 -0.166203
v 0.426288 -0.503549 -0.176315
v 0.436672 -0.487044 -0.150536
v 0.424975 -0.497512 -0.157624
v 0.422554 -0.503325 -0.160774
v 0.424974 -0.525985 -0.183770
v 0.441729 -0.521926 -0.189038
v 0.426731 -0.527726 -0.151686
v 0.444560 -0.561693 -0.168825
v 0.427463 -0.514112 -0.155195
v 0.444583 -0.500875 -0.172237
v 0.425031 -0.500503 -0.154738
v 0.428236 -0.513550 -0.157024
v 0.425224 -0.506151 -0.143877
v 0.428236 -0.513550 -0.157024
v 0.416103 -0.506914 -0.133684
v 0.416316 -0.508348 -0.132238
v 0.416905 -0.495710 -0.138654
v 0.425224 -0.506151 -0.143877
v 0.419109 -0.506813 -0.124417
v 0.424390 -0.497480 -0.150237
v 0.425971 -0.493278 -0.151481
v 0.425999 -0.493309 -0.151443
v 0.420030 -0.488405 -0.142524
v 0.420059 -0.491850 -0.143914
v 0.424390 -0.497480 -0.150237
v 0.419988 -0.491811 -0.143917
v 0.433388 -0.479431 -0.139405
v 0.416908 -0.495714 -0.138657
v 0.418778 -0.507207 -0.122808
v 0.432406 -0.481209 -0.139424
v 0.420184 -0.488561 -0.142326
v 0.444202 -0.476814 -0.131257
v 0.457672 -0.565377 -0.190571
v 0.458450 -0.535224 -0.187345
v 0.426169 -0.518240 -0.152343
v 0.427181 -0.516160 -0.149139
v 0.429868 -0.525643 -0.141644
v 0.427181 -0.516160 -0.149139
v 0.428236 -0.513550 -0.157024
v 0.426169 -0.518240 -0.152343
v 0.427181 -0.516160 -0.149139
v 0.427181 -0.516160 -0.149139
v 0.426143 -0.521127 -0.111017
v 0.463908 -0.522874 -0.155027
v 0.471478 -0.510443 -0.152290
v 0.478797 -0.481770 -0.108345
v 0.451904 -0.478675 -0.112107
v 0.456976 -0.569788 -0.188750
v 0.443826 -0.544638 -0.138125
v 0.432637 -0.528479 -0.140520
v 0.437435 -0.531291 -0.134820
v 0.433201 -0.531421 -0.129849
v 0.437409 -0.531436 -0.134598
v 0.424509 -0.515672 -0.104434
v 0.465978 -0.474180 -0.100211
v 0.461049 -0.474952 -0.093183
v 0.452405 -0.569123 -0.180783
v 0.466248 -0.560631 -0.185165
v 0.445985 -0.533986 -0.115813
v 0.465430 -0.523563 -0.155497
v 0.436950 -0.530138 -0.097022
v 0.457289 -0.487368 -0.081128
v 0.457446 -0.568944 -0.187775
v 0.454432 -0.576239 -0.176332
v 0.448739 -0.572177 -0.167086
v 0.458402 -0.546657 -0.108842
v 0.478128 -0.533159 -0.162513
v 0.458320 -0.532953 -0.074454
v 0.465128 -0.523819 -0.155016
v 0.445219 -0.518042 -0.069682
v 0.507905 -0.513241 -0.138260
v 0.456716 -0.510989 -0.071104
v 0.475439 -0.485132 -0.089495
v 0.464178 -0.577598 -0.148822
v 0.476486 -0.575415 -0.149984
v 0.461918 -0.575927 -0.135290
v 0.477413 -0.559646 -0.177907
v 0.477403 -0.559578 -0.177794
v 0.461416 -0.555965 -0.107681
v 0.513135 -0.542851 -0.152855
v 0.452157 -0.522848 -0.070941
v 0.487673 -0.488499 -0.109658
v 0.502436 -0.501656 -0.120819
v 0.487800 -0.488461 -0.109631
v 0.490471 -0.504203 -0.101842
v 0.472873 -0.585059 -0.134639
v 0.485082 -0.559857 -0.165697
v 0.491925 -0.559051 -0.159723
v 0.483425 -0.548242 -0.163644
v 0.472654 -0.577140 -0.108918
v 0.465263 -0.546088 -0.100629
v 0.467244 -0.544876 -0.091533
v 0.458510 -0.532586 -0.075004
v 0.471801 -0.585391 -0.135670
v 0.468799 -0.555094 -0.104977
v 0.495467 -0.558782 -0.159070
v 0.493245 -0.556229 -0.157985
v 0.495748 -0.559083 -0.159286
v 0.492445 -0.558737 -0.160238
v 0.501602 -0.556214 -0.159478
v 0.503694 -0.551788 -0.161027
v 0.493245 -0.556229 -0.157985
v 0.501602 -0.556214 -0.159478
v 0.528886 -0.552576 -0.138508
v 0.499744 -0.549199 -0.156854
v 0.493245 -0.556229 -0.157985
v 0.500510 -0.549040 -0.157398
v 0.502658 -0.550069 -0.159251
v 0.469968 -0.542706 -0.084834
v 0.502658 -0.550069 -0.159251
v 0.503691 -0.551773 -0.161092
v 0.479619 -0.542809 -0.085848
v 0.518094 -0.529981 -0.131516
v 0.509493 -0.532760 -0.116247
v 0.482945 -0.585420 -0.131966
v 0.496105 -0.587430 -0.104095
v 0.480946 -0.582743 -0.100531
v 0.484820 -0.556358 -0.090658
v 0.503691 -0.551773 -0.161092
v 0.512817 -0.547938 -0.154794
v 0.485272 -0.557104 -0.089430
v 0.512817 -0.547938 -0.154794
v 0.503691 -0.551773 -0.161092
v 0.529194 -0.552065 -0.140119
v 0.521003 -0.540288 -0.124814
v 0.529422 -0.553151 -0.137652
v 0.495644 -0.586514 -0.104459
v 0.498401 -0.586665 -0.108446
v 0.501668 -0.584115 -0.104717
v 0.527122 -0.558671 -0.130656
v 0.514540 -0.570247 -0.109616
v 0.528524 -0.560012 -0.129309
v 0.503799 -0.584246 -0.109000
v 0.498433 -0.587514 -0.108358
v 0.518191 -0.570825 -0.116114
v 0.517723 -0.570613 -0.115870
vn -0.8977 -0.2958 0.3266
vn -0.9348 -0.2963 -0.1960
vn -0.8298 -0.0779 -0.5526
vn -0.7325 -0.6670 -0.1361
vn -0.7861 0.5373 -0.3056
vn -0.9301 0.2914 0.2234
vn -0.0763 0.4374 -0.8960
vn -0.6778 0.2112 0.7042
vn -0.6781 0.7117 0.1837
vn -0.2857 0.7377 -0.6117
vn -0.1371 0.8653 -0.4821
vn -0.8534 0.4992 0.1499
vn -0.7929 -0.0887 0.6028
vn -0.7250 -0.4079 0.5550
vn -0.8328 -0.5387 0.1272
vn -0.5534 -0.1540 -0.8186
vn 0.2370 0.3078 -0.9215
vn 0.4631 0.5994 -0.6529
vn -0.9894 -0.0721 0.1258
vn -0.8313 -0.2876 0.4756
vn -0.4432 0.2555 0.8592
vn -0.9669 -0.1975 -0.1616
vn -0.9777 -0.1633 -0.1321
vn -0.9877 -0.1560 0.0046
vn -0.9697 0.0426 0.2406
vn -0.9399 -0.0717 -0.3337
vn -0.9616 -0.1054 0.2534
vn -0.9785 -0.1008 -0.1800
vn -0.9403 0.3316 -0.0760
vn -0.5169 0.6322 -0.5772
vn -0.8022 0.0575 -0.5943
vn -0.6121 0.4843 -0.6251
vn -0.7689 0.1149 -0.6289
vn -0.8856 -0.3277 -0.3293
vn -0.6435 0.6330 0.4303
vn -0.6293 0.6219 0.4661
vn -0.5772 0.6075 0.5457
vn -0.7505 0.0048 -0.6608
vn -0.1068 0.8670 -0.4867
vn -0.5255 0.5439 0.6543
vn 0.0761 -0.2453 -0.9665
vn -0.9465 -0.0339 0.3210
vn -0.9495 -0.0318 0.3122
vn -0.8363 -0.5402 0.0940
vn -0.9088 0.4170 0.0165
vn -0.9806 -0.1046 -0.1658
vn -0.8548 -0.2592 -0.4497
vn -0.8241 -0.5401 0.1707
vn 0.4924 0.3465 -0.7984
vn -0.0160 0.9835 -0.1805
vn 0.4368 0.5029 -0.7458
vn 0.5709 0.8128 -0.1156
vn -0.5997 -0.7917 -0.1162
vn 0.4415 0.4412 -0.7813
vn -0.8178 -0.4856 0.3090
vn -0.6939 -0.4679 0.5473
vn -0.5242 -0.7974 -0.2988
vn -0.7173 -0.6942 -0.0601
vn -0.4547 -0.8876 -0.0744
vn -0.9067 -0.0025 0.4218
vn -0.6074 0.7347 0.3021
vn 0.2619 0.9590 0.1079
vn -0.7316 -0.5504 -0.4023
vn -0.5203 -0.8291 0.2047
vn -0.2541 0.7553 -0.6041
vn -0.5885 -0.7676 0.2540
vn -0.2006 0.6123 0.7648
vn -0.1965 0.8756 0.4413
vn 0.1171 -0.9759 -0.1839
vn -0.2370 -0.8958 -0.3760
vn -0.7908 -0.6105 0.0443
vn 0.5025 -0.1393 -0.8533
vn -0.7744 -0.3287 0.5407
vn 0.4796 0.5288 -0.7003
vn -0.3938 0.3860 -0.8342
vn -0.4963 -0.0692 0.8654
vn 0.6476 0.6074 -0.4602
vn 0.6297 0.5285 0.5693
vn 0.2828 0.1546 0.9466
vn -0.1656 -0.9830 -0.0793
vn 0.3840 -0.8090 -0.4450
vn -0.7170 -0.6575 0.2315
vn 0.5668 -0.7015 -0.4320
vn 0.6821 0.2823 -0.6746
vn -0.6836 -0.3909 0.6163
vn -0.4842 -0.7315 0.4801
vn 0.5695 0.4567 -0.6834
vn 0.1839 -0.1883 0.9647
vn 0.7883 0.3143 0.5290
vn 0.5532 0.4442 0.7047
vn -0.5851 -0.7888 0.1883
vn 0.5437 -0.6753 -0.4983
vn 0.5785 0.2716 -0.7691
vn 0.6227 0.3079 -0.7193
vn -0.7256 -0.5246 0.4454
vn -0.4894 -0.7937 0.3612
vn 0.4017 -0.1448 0.9042
vn 0.7904 0.6005 0.1208
vn 0.7522 0.2071 0.6256
vn 0.5795 0.7961 -0.1746
vn 0.1514 -0.8742 -0.4613
vn -0.6474 -0.6257 0.4351
vn -0.5078 -0.3879 0.7692
vn 0.4157 -0.7878 -0.4545
vn 0.6035 0.1936 -0.7735
vn 0.1744 -0.3198 -0.9313
vn 0.1365 -0.4490 -0.8831
vn -0.3704 0.3365 -0.8657
vn -0.1893 0.3085 -0.9322
vn 0.4279 -0.7821 -0.4530
vn 0.4423 -0.7009 -0.5596
vn 0.2586 -0.0011 -0.9660
vn 0.3672 -0.1931 -0.9099
vn -0.4858 0.5878 -0.6469
vn -0.4274 0.4983 -0.7543
vn -0.3629 0.5234 -0.7709
vn -0.2070 -0.7338 0.6470
vn -0.1378 0.7614 -0.6335
vn -0.0659 0.7136 -0.6974
vn 0.4815 -0.0994 0.8708
vn 0.8882 0.4552 0.0627
vn 0.2529 -0.9049 -0.3424
vn 0.4085 -0.9128 -0.0009
vn -0.3822 -0.7479 0.5428
vn -0.8261 -0.3345 0.4535
vn 0.5955 -0.4384 -0.6731
vn 0.5951 -0.3695 -0.7137
vn 0.0738 0.0379 0.9966
vn 0.5704 0.1675 -0.8041
vn 0.4573 0.2916 -0.8402
vn 0.8480 0.5027 -0.1676
vn 0.8043 0.2914 0.5179
vn -0.4543 -0.8901 0.0348
vn 0.4611 -0.8821 0.0960
vn 0.1101 -0.3880 0.9151
vn 0.3195 -0.3078 0.8962
vn 0.9163 0.0304 0.3994
vn 0.6986 -0.2462 0.6718
vn 0.4133 -0.7666 -0.4914
vn 0.8866 0.4044 0.2247
vn 0.5057 -0.7742 -0.3806
vn 0.4511 -0.8131 -0.3680
vn 0.4208 -0.8044 -0.4193
vn 0.8260 -0.3498 0.4419
s 1
f 3//1 2//2 1//3
f 1//3 6//4 3//1
f 8//5 1//3 4//6
f 1//3 8//5 7//7
f 4//6 5//8 8//5
f 5//8 9//9 8//5
f 9//9 10//10 8//5
f 8//5 10//10 7//7
f 9//9 11//11 10//10
f 12//12 9//9 13//13
f 3//1 5//8 4//6
f 16//14 5//8 3//1
f 17//15 3//1 6//4
f 14//16 7//7 15//17
f 7//7 14//16 1//3
f 19//18 15//17 7//7
f 19//18 7//7 10//10
f 12//12 13//13 20//19
f 21//20 20//19 13//13
f 18//21 13//13 9//9
f 5//8 18//21 9//9
f 22//22 20//19 23//23
f 24//24 25//25 26//26
f 26//26 25//25 28//27
f 19//18 10//10 11//11
f 12//12 11//11 9//9
f 12//12 29//28 30//29
f 12//12 20//19 29//28
f 12//12 31//30 11//11
f 33//31 32//32 31//30
f 33//31 31//30 34//33
f 29//28 22//22 35//34
f 29//28 20//19 22//22
f 26//26 32//32 33//31
f 26//26 33//31 24//24
f 38//35 36//36 37//37
f 33//31 27//38 24//24
f 31//30 32//32 11//11
f 39//39 11//11 32//32
f 40//40 37//37 36//36
f 14//16 6//4 1//3
f 42//41 14//16 15//17
f 17//15 16//14 3//1
f 5//8 16//14 18//21
f 44//42 16//14 45//43
f 46//44 45//43 16//14
f 48//45 49//45 50//45
f 51//46 22//22 23//23
f 27//38 47//47 24//24
f 47//47 46//44 24//24
f 28//27 25//25 52//48
f 19//18 53//49 15//17
f 41//50 19//18 11//11
f 19//18 41//50 54//51
f 55//52 54//51 41//50
f 39//39 41//50 11//11
f 57//53 14//16 42//41
f 57//53 6//4 14//16
f 43//54 42//41 15//17
f 58//55 46//44 16//14
f 59//56 46//44 58//55
f 59//56 60//57 46//44
f 58//55 62//58 59//56
f 46//44 61//59 24//24
f 28//27 52//48 63//60
f 36//36 38//35 56//61
f 36//36 56//61 41//50
f 41//50 56//61 64//62
f 55//52 41//50 64//62
f 66//63 17//15 6//4
f 16//14 17//15 58//55
f 61//59 46//44 60//57
f 61//59 60//57 62//58
f 68//64 62//58 58//55
f 52//48 24//24 61//59
f 43//54 15//17 53//49
f 69//65 43//54 53//49
f 63//60 52//48 70//66
f 19//18 54//51 53//49
f 71//67 65//68 56//61
f 56//61 65//68 64//62
f 72//69 6//4 57//53
f 72//69 66//63 6//4
f 73//70 74//71 66//63
f 73//70 66//63 72//69
f 74//71 17//15 66//63
f 67//72 42//41 43//54
f 67//72 72//69 42//41
f 68//64 58//55 75//73
f 68//64 61//59 62//58
f 52//48 61//59 70//66
f 76//74 43//54 69//65
f 69//65 78//75 54//51
f 76//74 69//65 54//51
f 78//75 53//49 54//51
f 79//76 38//35 63//60
f 54//51 80//77 76//74
f 71//67 38//35 79//76
f 56//61 38//35 71//67
f 82//78 71//67 81//79
f 55//52 64//62 82//78
f 65//68 82//78 64//62
f 73//70 83//80 74//71
f 73//70 72//69 84//81
f 85//82 74//71 83//80
f 86//83 72//69 67//72
f 87//84 67//72 43//54
f 72//69 86//83 84//81
f 74//71 58//55 17//15
f 43//54 76//74 87//84
f 58//55 88//85 75//73
f 61//59 68//64 70//66
f 63//60 70//66 79//76
f 79//76 70//66 77//86
f 89//87 76//74 80//77
f 81//79 79//76 90//88
f 79//76 81//79 71//67
f 54//51 55//52 80//77
f 94//89 93//90 55//52
f 94//89 55//52 82//78
f 82//78 65//68 71//67
f 83//80 95//91 85//82
f 85//82 58//55 74//71
f 84//81 86//83 96//92
f 76//74 98//93 87//84
f 97//94 87//84 98//93
f 100//95 68//64 75//73
f 101//96 70//66 68//64
f 76//74 89//87 98//93
f 77//86 90//88 79//76
f 102//97 81//79 90//88
f 80//77 55//52 92//98
f 94//89 92//98 93//90
f 94//89 82//78 123//99
f 91//100 92//98 55//52
f 84//81 83//80 73//70
f 83//80 84//81 103//101
f 99//102 85//82 95//91
f 85//82 88//85 58//55
f 99//102 88//85 85//82
f 104//103 88//85 99//102
f 96//92 105//104 84//81
f 97//94 98//93 106//105
f 109//106 107//107 110//108
f 107//107 108//109 110//108
f 105//104 112//110 113//111
f 113//111 84//81 105//104
f 100//95 75//73 88//85
f 88//85 104//103 100//95
f 101//96 100//95 104//103
f 114//112 98//93 89//87
f 98//93 114//112 115//113
f 108//109 111//114 110//108
f 116//115 110//108 111//114
f 116//115 117//116 110//108
f 101//96 68//64 100//95
f 70//66 101//96 77//86
f 118//117 77//86 101//96
f 89//87 119//118 114//112
f 89//87 120//119 119//118
f 81//79 102//97 121//120
f 118//117 121//120 77//86
f 82//78 81//79 121//120
f 82//78 121//120 123//99
f 92//98 122//121 80//77
f 123//99 122//121 92//98
f 123//99 92//98 94//89
f 103//101 84//81 124//122
f 125//123 103//101 124//122
f 104//103 99//102 126//124
f 127//125 101//96 104//103
f 128//126 129//127 113//111
f 112//110 128//126 113//111
f 118//117 101//96 127//125
f 130//128 121//120 118//117
f 89//87 131//129 132//130
f 89//87 133//131 131//129
f 122//121 89//87 80//77
f 122//121 123//99 134//132
f 95//91 125//133 99//102
f 125//133 126//124 99//102
f 127//125 104//103 126//124
f 89//87 122//121 133//131
f 133//131 122//121 134//132
f 123//99 130//128 134//132
f 130//128 123//99 121//120
f 125//123 124//122 137//134
f 136//135 138//136 126//124
f 127//125 126//124 130//128
f 130//128 126//124 138//136
f 139//137 134//132 140//138
f 113//111 141//139 84//81
f 139//137 135//140 134//132
f 134//132 135//140 133//131
f 124//122 142//141 143//142
f 124//122 84//81 144//143
f 142//141 124//122 144//143
f 140//138 130//128 138//136
f 84//81 141//139 144//143
f 139//137 140//138 145//144
f 140//138 134//132 130//128
f 140//138 137//134 145//144
f 140//138 125//123 137//134
