# Blender v2.78 (sub 0) OBJ File: 'exporter.blend'
# www.blender.org
o FJ3352.obj_grp1.1992
v -1.366710 -0.653793 3.437538
v -1.356051 -0.641420 3.440392
v -1.373599 -0.659997 3.411973
v -1.364373 -0.660356 3.438479
v -1.362179 -0.667133 3.427175
v -1.373010 -0.646203 3.410688
v -1.370803 -0.650414 3.397147
v -1.351611 -0.649995 3.442920
v -1.351611 -0.649995 3.442920
v -1.365555 -0.634168 3.414421
v -1.343747 -0.638912 3.451195
v -1.363706 -0.617848 3.419996
v -1.349268 -0.608426 3.459926
v -1.346840 -0.666215 3.416710
v -1.344428 -0.659717 3.433968
v -1.346048 -0.600090 3.433304
v -1.356205 -0.617524 3.403497
v -1.340589 -0.668025 3.390554
v -1.339738 -0.669448 3.412536
v -1.348034 -0.650722 3.378788
v -1.347842 -0.631924 3.378667
v -1.326381 -0.620659 3.490644
v -1.345698 -0.595541 3.464484
v -1.322358 -0.647493 3.448014
v -1.322358 -0.647493 3.448014
v -1.326695 -0.660854 3.427571
v -1.338610 -0.663635 3.416287
v -1.338725 -0.669288 3.412158
v -1.343464 -0.620498 3.387711
v -1.303458 -0.574238 3.618363
v -1.340078 -0.635523 3.455842
v -1.319682 -0.617001 3.388682
v -1.322818 -0.668665 3.415022
v -1.312497 -0.667466 3.405971
v -1.324842 -0.657885 3.380622
v -1.319966 -0.622473 3.381825
v -1.306029 -0.584724 3.676306
v -1.303962 -0.575871 3.649632
v -1.302116 -0.562553 3.666337
v -1.314559 -0.591950 3.574012
v -1.303843 -0.589040 3.623950
v -1.314445 -0.616523 3.513228
v -1.310143 -0.624033 3.491566
v -1.300952 -0.583824 3.486929
v -1.313041 -0.642567 3.447407
v -1.309006 -0.658335 3.424893
v -1.313060 -0.666617 3.418161
v -1.313675 -0.663374 3.391259
v -1.322966 -0.643209 3.375124
v -1.316813 -0.634948 3.381111
v -1.300954 -0.575683 3.688530
v -1.293289 -0.579181 3.692440
v -1.280648 -0.560712 3.690261
v -1.289719 -0.598871 3.673682
v -1.284762 -0.596436 3.687797
v -1.290279 -0.603292 3.671174
v -1.274784 -0.549867 3.670874
v -1.294346 -0.605147 3.639941
v -1.287624 -0.558487 3.636067
v -1.295239 -0.604424 3.592065
v -1.302390 -0.612552 3.529615
v -1.301060 -0.568838 3.548866
v -1.296706 -0.610282 3.514488
v -1.309677 -0.634670 3.424458
v -1.296962 -0.595806 3.475998
v -1.308675 -0.658706 3.424912
v -1.309049 -0.659480 3.421822
v -1.304693 -0.618414 3.418602
v -1.317504 -0.642497 3.384522
v -1.306420 -0.618813 3.400387
v -1.306279 -0.612489 3.416635
v -1.284905 -0.577003 3.694115
v -1.293289 -0.579181 3.692440
v -1.284679 -0.596683 3.687783
v -1.279103 -0.556206 3.685847
v -1.274459 -0.607100 3.684501
v -1.274451 -0.607197 3.684906
v -1.268220 -0.549802 3.658782
v -1.289563 -0.605324 3.671987
v -1.283839 -0.607964 3.673563
v -1.267256 -0.618756 3.665449
v -1.279943 -0.604842 3.678952
v -1.268233 -0.611523 3.679840
v -1.268220 -0.611513 3.679839
v -1.267761 -0.603375 3.622652
v -1.280982 -0.571672 3.589618
v -1.291571 -0.606593 3.536865
v -1.279680 -0.584616 3.570814
v -1.304286 -0.623629 3.402560
v -1.306420 -0.618813 3.400387
v -1.269163 -0.559805 3.678349
v -1.254951 -0.613893 3.680455
v -1.260297 -0.589950 3.683834
v -1.274548 -0.551027 3.670098
v -1.270848 -0.556136 3.670597
v -1.271272 -0.551257 3.665338
v -1.266807 -0.553195 3.665091
v -1.274459 -0.607100 3.684501
v -1.268220 -0.611513 3.679839
v -1.271272 -0.551257 3.665338
v -1.257492 -0.550367 3.655717
v -1.260383 -0.566222 3.631159
v -1.267812 -0.610372 3.646266
v -1.273999 -0.598349 3.585323
v -1.255465 -0.596101 3.626222
v -1.273999 -0.598349 3.585323
v -1.265248 -0.557854 3.676075
v -1.242679 -0.557625 3.680478
v -1.257947 -0.553416 3.674177
v -1.257972 -0.553375 3.674192
v -1.246033 -0.552801 3.673349
v -1.242663 -0.557652 3.680422
v -1.257388 -0.620535 3.655125
v -1.256875 -0.613575 3.680248
v -1.247076 -0.617335 3.683862
v -1.242690 -0.615779 3.662329
v -1.266633 -0.552248 3.664709
v -1.253075 -0.619616 3.651181
v -1.253169 -0.607339 3.643258
v -1.252925 -0.619251 3.651432
v -1.254816 -0.596046 3.625647
v -1.245340 -0.617755 3.684891
v -1.239857 -0.619020 3.681199
v -1.238238 -0.610227 3.688000
v -1.234244 -0.574408 3.685663
v -1.237301 -0.616564 3.674788
v -1.236615 -0.617070 3.674684
v -1.241747 -0.615508 3.666798
v -1.237825 -0.557691 3.679130
v -1.242577 -0.608479 3.650481
v -1.245165 -0.591739 3.650414
v -1.246622 -0.579348 3.650267
v -1.245607 -0.592098 3.650811
v -1.238210 -0.592298 3.658506
v -1.246920 -0.600974 3.645020
v -1.246920 -0.600974 3.645020
v -1.246920 -0.600974 3.645020
v -1.228584 -0.596235 3.681214
v -1.231701 -0.576331 3.671755
v -1.237888 -0.557947 3.679107
v -1.237888 -0.557947 3.679107
vn -0.7616 0.1023 0.6400
vn -0.8469 -0.5204 -0.1093
vn -0.4222 -0.5678 0.7067
vn -0.2599 -0.9520 0.1615
vn -0.9332 0.3593 -0.0078
vn -0.8235 -0.0817 -0.5614
vn -0.4828 -0.0034 0.8757
vn -0.7164 0.0452 0.6962
vn -0.9328 0.3584 0.0388
vn -0.8917 -0.0591 0.4488
vn -0.9174 0.3979 0.0092
vn 0.0033 -0.9453 0.3263
vn 0.1963 -0.8180 0.5407
vn -0.3484 0.9091 -0.2282
vn -0.5951 0.6948 -0.4039
vn -0.1235 -0.9922 -0.0177
vn -0.1632 -0.8721 -0.4612
vn -0.3793 -0.2972 -0.8763
vn -0.5970 -0.2562 0.7602
vn -0.7392 0.6639 0.1133
vn 0.0502 -0.6185 0.7842
vn 0.2909 -0.8369 0.4636
vn -0.1809 -0.7605 0.6236
vn -0.0046 -0.8565 0.5161
vn 0.0910 -0.9507 0.2965
vn 0.1130 -0.8931 0.4355
vn -0.4203 0.3316 -0.8446
vn -0.2805 0.7745 -0.5669
vn -0.9141 0.3819 0.1364
vn -0.4719 -0.5770 0.6666
vn -0.5036 -0.7673 0.3971
vn 0.0188 -0.9573 0.2885
vn 0.6154 -0.7759 -0.1388
vn 0.2071 0.8521 -0.4806
vn 0.2039 -0.5362 -0.8191
vn 0.3056 0.5267 -0.7932
vn 0.3878 -0.1020 -0.9161
vn -0.8958 -0.3407 0.2854
vn -0.7556 0.6470 0.1023
vn -0.9774 0.1975 -0.0751
vn -0.8427 -0.4665 0.2687
vn -0.2039 -0.9322 0.2989
vn 0.1072 -0.9204 0.3759
vn 0.4414 0.8471 -0.2960
vn 0.7411 -0.6146 0.2701
vn 0.6309 -0.5341 0.5628
vn 0.4979 -0.7913 0.3548
vn 0.7447 -0.5221 -0.4158
vn 0.8066 0.0321 -0.5903
vn -0.7596 0.0587 0.6477
vn 0.0727 0.4945 0.8661
vn -0.4705 -0.5540 0.6868
vn -0.6871 -0.6358 0.3517
vn -0.5230 -0.1051 0.8458
vn -0.7350 -0.4834 0.4755
vn -0.6424 -0.7662 -0.0196
vn -0.2934 0.9283 -0.2284
vn -0.9750 -0.1691 0.1444
vn -0.3156 -0.9448 0.0883
vn 0.3394 -0.9365 0.0881
vn 0.0453 0.9865 -0.1575
vn 0.7894 -0.6138 -0.0072
vn 0.9737 -0.2255 -0.0310
vn 0.9686 0.1559 -0.1935
vn -0.1883 -0.5984 0.7787
vn 0.9680 -0.2484 -0.0363
vn 0.9562 -0.2832 0.0736
vn 0.9171 -0.0857 -0.3893
vn 0.9595 -0.0910 -0.2664
vn 0.4334 0.8264 -0.3595
vn 0.6704 0.6903 -0.2720
vn 0.1610 0.0806 0.9837
vn -0.1096 -0.3056 0.9458
vn -0.0693 -0.3161 0.9462
vn -0.5997 -0.7410 0.3021
vn 0.2084 -0.0961 0.9733
vn 0.0114 0.7915 0.6111
vn -0.3551 0.9347 -0.0151
vn -0.1433 0.9870 -0.0723
vn -0.2116 -0.9745 0.0749
vn -0.4753 -0.7086 0.5216
vn -0.6999 -0.7024 0.1298
vn -0.5693 -0.6854 0.4541
vn -0.2864 -0.8624 0.4173
vn -0.4980 -0.8552 0.1435
vn 0.6110 0.7422 -0.2753
vn 0.4420 -0.8659 -0.2342
vn 0.5777 -0.8043 -0.1392
vn 0.9361 0.2519 -0.2454
vn 0.8808 0.2148 -0.4220
vn 0.3286 0.6025 0.7273
vn 0.0642 0.0399 0.9971
vn 0.6927 0.6371 0.3381
vn 0.4374 0.8011 0.4085
vn 0.7442 0.5058 0.4363
vn -0.1401 0.7874 0.6003
vn -0.1720 -0.8199 0.5461
vn -0.1783 -0.8152 0.5511
vn -0.2683 -0.7941 0.5453
vn 0.6734 0.4958 0.5484
vn 0.3385 0.9056 -0.2555
vn 0.5845 0.6033 -0.5426
vn -0.0550 -0.8994 -0.4337
vn 0.5754 -0.6714 -0.4671
vn 0.7792 -0.5811 -0.2350
vn 0.9074 -0.1101 -0.4055
vn -0.2483 -0.1961 0.9486
vn -0.0163 0.3379 0.9410
vn -0.2908 0.8759 0.3851
vn -0.2069 0.9142 0.3485
vn -0.1181 0.6505 0.7502
vn 0.1088 0.8459 0.5221
vn 0.3735 0.9229 0.0937
vn -0.1020 -0.9803 0.1689
vn -0.4673 -0.7184 -0.5153
vn 0.5711 -0.7887 -0.2277
vn -0.4871 0.6899 0.5355
vn 0.1631 -0.6707 -0.7236
vn 0.3733 -0.6593 -0.6526
vn 0.7275 -0.6112 -0.3117
vn 0.8937 0.2019 -0.4008
vn -0.1663 -0.7453 0.6456
vn -0.2568 -0.9603 -0.1093
vn 0.4001 -0.8506 0.3412
vn 0.4139 -0.2717 0.8688
vn 0.5638 0.2480 0.7878
vn 0.2452 -0.9340 -0.2599
vn 0.2436 -0.9363 -0.2530
vn 0.2523 -0.9244 -0.2860
vn 0.8444 0.4269 -0.3236
vn 0.9917 0.1061 -0.0720
vn 0.8627 0.0469 -0.5036
vn 0.9780 0.1873 -0.0918
vn 0.7677 -0.3094 -0.5611
vn 0.5155 -0.2859 -0.8078
vn 0.8958 0.0845 -0.4363
vn 0.8126 0.0974 -0.5746
vn 0.6941 -0.5543 -0.4592
vn 0.9469 -0.2999 -0.1162
vn 0.9786 -0.0660 0.1948
vn 0.9786 0.1439 -0.1473
vn 0.2761 0.4077 0.8704
vn 0.1879 0.8496 0.4929
s 1
f 1//1 3//2 4//3
f 3//2 5//4 4//3
f 1//1 6//5 3//2
f 3//2 6//5 7//6
f 8//7 1//1 4//3
f 2//8 10//9 1//1
f 8//7 2//8 1//1
f 2//8 13//10 12//11
f 5//4 14//12 15//13
f 10//9 6//5 1//1
f 10//9 2//8 12//11
f 12//11 16//14 17//15
f 14//12 5//4 3//2
f 10//9 7//6 6//5
f 10//9 17//15 7//6
f 12//11 17//15 10//9
f 19//16 14//12 3//2
f 19//16 3//2 18//17
f 18//17 3//2 7//6
f 20//18 18//17 7//6
f 8//7 11//19 2//8
f 2//8 11//19 13//10
f 12//11 13//10 23//20
f 12//11 23//20 16//14
f 15//13 4//3 5//4
f 4//3 15//13 9//21
f 24//22 15//13 14//12
f 9//21 15//13 25//23
f 26//24 24//22 14//12
f 14//12 28//25 27//26
f 28//25 19//16 18//17
f 21//27 17//15 29//28
f 20//18 7//6 21//27
f 21//27 7//6 17//15
f 30//29 23//20 13//10
f 13//10 31//30 22//31
f 11//19 31//30 13//10
f 25//23 31//30 9//21
f 14//12 27//26 26//24
f 27//26 28//25 33//32
f 33//32 28//25 34//33
f 27//26 33//32 26//24
f 17//15 16//14 29//28
f 16//14 32//34 29//28
f 35//35 18//17 20//18
f 36//36 21//27 29//28
f 20//18 21//27 49//37
f 32//34 36//36 29//28
f 37//38 39//39 38//40
f 40//41 30//29 13//10
f 22//31 40//41 13//10
f 42//42 40//41 22//31
f 42//42 22//31 43//43
f 22//31 25//23 43//43
f 25//23 22//31 31//30
f 44//44 32//34 16//14
f 43//43 24//22 45//45
f 24//22 46//46 45//45
f 46//46 24//22 26//24
f 26//24 33//32 47//47
f 46//46 26//24 47//47
f 18//17 34//33 28//25
f 18//17 48//48 34//33
f 18//17 35//35 48//48
f 35//35 20//18 49//37
f 50//49 49//37 36//36
f 49//37 21//27 36//36
f 39//39 51//50 53//51
f 54//52 51//50 37//38
f 51//50 39//39 37//38
f 51//50 55//53 52//54
f 37//38 56//55 54//52
f 37//38 58//56 56//55
f 38//40 39//39 59//57
f 38//40 58//56 37//38
f 58//56 38//40 41//58
f 41//58 38//40 30//29
f 38//40 59//57 30//29
f 41//58 30//29 40//41
f 60//59 58//56 40//41
f 58//56 41//58 40//41
f 59//57 23//20 30//29
f 40//41 42//42 60//59
f 60//59 42//42 61//60
f 59//57 62//61 23//20
f 62//61 16//14 23//20
f 63//62 61//60 43//43
f 43//43 61//60 42//42
f 45//45 63//62 43//43
f 45//45 64//63 65//64
f 45//45 46//46 64//63
f 66//65 46//46 47//47
f 67//66 66//65 47//47
f 46//46 67//66 64//63
f 64//63 68//67 65//64
f 33//32 34//33 47//47
f 34//33 67//66 47//47
f 34//33 48//48 67//66
f 67//66 48//48 69//68
f 67//66 69//68 64//63
f 64//63 69//68 89//69
f 70//70 32//34 71//71
f 70//70 36//36 32//34
f 69//68 50//49 89//69
f 50//49 36//36 89//69
f 49//37 48//48 35//35
f 69//68 48//48 49//37
f 49//37 50//49 69//68
f 52//54 72//72 51//50
f 72//72 73//73 74//74
f 53//51 51//50 72//72
f 55//53 54//52 76//75
f 54//52 55//53 51//50
f 72//72 74//74 77//76
f 53//51 75//77 39//39
f 39//39 75//77 57//78
f 39//39 57//78 78//79
f 81//80 80//81 79//82
f 54//52 56//55 80//81
f 54//52 82//83 76//75
f 80//81 82//83 54//52
f 83//84 80//81 81//80
f 76//75 82//83 84//85
f 83//84 82//83 80//81
f 78//79 59//57 39//39
f 58//56 79//82 56//55
f 79//82 58//56 81//80
f 59//57 86//86 62//61
f 85//87 60//59 61//60
f 44//44 62//61 86//86
f 63//62 87//88 61//60
f 62//61 44//44 16//14
f 65//64 44//44 86//86
f 86//86 88//89 65//64
f 88//89 63//62 65//64
f 45//45 65//64 63//62
f 65//64 71//71 32//34
f 44//44 65//64 32//34
f 65//64 89//69 71//71
f 36//36 90//90 89//69
f 68//67 64//63 89//69
f 89//69 90//90 71//71
f 91//91 75//77 53//51
f 72//72 77//76 53//51
f 77//76 93//92 53//51
f 93//92 91//91 53//51
f 91//91 94//93 75//77
f 95//94 94//93 91//91
f 94//93 95//94 96//95
f 97//96 95//94 91//91
f 98//97 99//98 92//99
f 57//78 100//100 78//79
f 101//101 59//57 78//79
f 97//96 100//100 95//94
f 101//101 102//102 59//57
f 103//103 81//80 58//56
f 85//87 103//103 60//59
f 86//86 59//57 102//102
f 60//59 103//103 58//56
f 105//104 85//87 104//105
f 61//60 87//88 85//87
f 85//87 87//88 104//105
f 63//62 88//89 106//106
f 93//92 77//76 92//107
f 93//92 108//108 91//91
f 97//96 91//91 107//109
f 107//109 109//110 97//96
f 91//91 108//108 110//111
f 112//112 111//113 109//110
f 83//84 81//80 114//114
f 114//114 81//80 113//115
f 116//116 114//114 113//115
f 117//117 97//96 109//110
f 97//96 78//79 100//100
f 78//79 117//117 109//110
f 111//113 78//79 109//110
f 101//101 78//79 111//113
f 118//118 81//80 103//103
f 118//118 103//103 119//119
f 81//80 118//118 113//115
f 116//116 113//115 120//120
f 85//87 119//119 103//103
f 118//118 119//119 120//120
f 119//119 85//87 105//104
f 121//121 88//89 102//102
f 102//102 88//89 86//86
f 106//106 88//89 121//121
f 122//122 115//123 123//124
f 124//125 122//122 123//124
f 122//122 93//92 92//107
f 124//125 93//92 122//122
f 93//92 125//126 108//108
f 116//116 115//123 114//114
f 115//123 116//116 123//124
f 128//127 126//128 123//129
f 101//101 111//113 129//130
f 131//131 132//132 133//133
f 102//102 101//101 129//130
f 120//120 130//134 116//116
f 119//119 130//134 120//120
f 135//135 130//134 119//119
f 136//136 131//131 130//134
f 134//137 130//134 131//131
f 132//132 131//131 121//121
f 102//102 132//132 121//121
f 136//136 121//121 131//131
f 119//119 105//104 137//138
f 123//124 127//139 124//125
f 127//139 138//140 124//125
f 138//140 125//126 124//125
f 138//140 127//139 116//116
f 125//126 93//92 124//125
f 129//130 125//126 138//140
f 138//140 139//141 129//130
f 108//108 125//126 140//142
f 112//112 141//143 111//113
f 133//133 132//132 139//141
f 102//102 129//130 139//141
f 138//140 116//116 130//134
f 139//141 138//140 134//137
f 139//141 134//137 133//133
f 138//140 130//134 134//137
f 102//102 139//141 132//132
