# Blender v2.78 (sub 0) OBJ File: 'exporter.blend'
# www.blender.org
o FJ3325.obj_grp1.1965
v -1.280548 -0.673133 3.402354
v -1.274318 -0.666121 3.402951
v -1.249864 -0.678008 3.401533
v -1.279941 -0.682993 3.387708
v -1.249864 -0.678008 3.401533
v -1.288107 -0.642837 3.379965
v -1.277087 -0.643492 3.393610
v -1.281688 -0.638942 3.385237
v -1.274003 -0.665663 3.403836
v -1.281625 -0.679492 3.375661
v -1.288614 -0.662728 3.374933
v -1.277243 -0.635594 3.371911
v -1.283311 -0.661684 3.351748
v -1.284260 -0.688665 3.330318
v -1.298013 -0.761423 3.243448
v -1.298747 -0.748559 3.247487
v -1.298973 -0.742370 3.244788
v -1.292557 -0.744817 3.249300
v -1.299419 -0.742211 3.246590
v -1.302063 -0.754271 3.245534
v -1.301379 -0.764810 3.229577
v -1.296565 -0.767697 3.229046
v -1.297486 -0.754470 3.217746
v -1.299158 -0.762342 3.222620
v -1.299594 -0.762936 3.222071
v -1.262131 -0.668412 3.402429
v -1.262282 -0.669435 3.400697
v -1.269575 -0.638337 3.386289
v -1.269577 -0.638315 3.386331
v -1.241685 -0.689512 3.349195
v -1.274846 -0.656441 3.338378
v -1.284602 -0.700342 3.311102
v -1.291253 -0.712703 3.280773
v -1.284801 -0.700584 3.311255
v -1.244800 -0.707545 3.305004
v -1.291167 -0.712565 3.281148
v -1.292811 -0.720541 3.266125
v -1.277932 -0.731141 3.268402
v -1.297042 -0.733541 3.240129
v -1.272516 -0.686775 3.280893
v -1.292395 -0.744521 3.248893
v -1.274989 -0.751603 3.242646
v -1.276367 -0.763007 3.237071
v -1.278867 -0.763015 3.219770
v -1.296989 -0.747638 3.219648
v -1.293425 -0.740869 3.219339
v -1.290539 -0.742985 3.214440
v -1.297735 -0.754535 3.217696
v -1.287778 -0.754103 3.213912
v -1.290355 -0.743549 3.215151
v -1.296989 -0.747638 3.219648
v -1.293425 -0.740869 3.219339
v -1.242575 -0.675417 3.401312
v -1.223957 -0.683559 3.393682
v -1.246042 -0.635036 3.376876
v -1.260515 -0.697824 3.264993
v -1.259038 -0.750638 3.245900
v -1.263244 -0.763130 3.242396
v -1.261789 -0.771899 3.229451
v -1.265085 -0.740918 3.215781
v -1.224635 -0.682855 3.396012
v -1.218491 -0.656667 3.388230
v -1.235661 -0.640218 3.378355
v -1.245190 -0.636788 3.365695
v -1.238162 -0.637905 3.378430
v -1.250715 -0.738098 3.255970
v -1.250682 -0.763905 3.241478
v -1.257095 -0.767184 3.220522
v -1.258124 -0.749474 3.212523
v -1.217464 -0.661786 3.386986
v -1.223393 -0.686105 3.380754
v -1.229668 -0.681660 3.397566
v -1.221112 -0.648505 3.383796
v -1.227217 -0.683790 3.371026
v -1.219442 -0.650165 3.369439
v -1.233837 -0.688547 3.338460
v -1.243591 -0.709559 3.298352
v -1.233387 -0.668719 3.338586
v -1.241353 -0.703584 3.294824
v -1.241353 -0.703584 3.294824
v -1.243977 -0.705481 3.308697
v -1.243977 -0.705481 3.308697
v -1.245593 -0.740821 3.248900
v -1.246817 -0.731306 3.259149
v -1.248052 -0.740417 3.247628
v -1.252229 -0.742422 3.231192
v -1.248382 -0.750680 3.243944
v -1.247838 -0.749938 3.243988
v -1.253005 -0.768736 3.229925
v -1.256066 -0.768262 3.222076
v -1.219902 -0.674199 3.372102
v -1.218795 -0.657079 3.387834
v -1.220545 -0.648691 3.383605
v -1.223779 -0.685955 3.378465
vn -0.2018 0.1486 0.9681
vn -0.5729 -0.2893 0.7669
vn 0.0579 -0.1405 0.9884
vn -0.0568 -0.8511 0.5218
vn -0.6028 -0.7578 0.2497
vn -0.5829 0.5094 0.6331
vn -0.8890 0.4561 0.0399
vn -0.9956 -0.0899 0.0279
vn -0.9507 -0.3039 0.0620
vn -0.4515 0.7917 0.4116
vn -0.3139 0.9215 -0.2287
vn -0.8945 0.3098 -0.3223
vn -0.7195 -0.6228 0.3073
vn -0.2369 -0.6775 0.6963
vn -0.3492 0.0238 0.9367
vn -0.7978 -0.0925 0.5958
vn -0.5769 0.3193 0.7518
vn -0.4491 0.3434 0.8249
vn -0.5453 -0.6737 0.4987
vn -0.8625 0.4774 -0.1679
vn -0.9710 0.0230 0.2378
vn -0.8610 -0.5079 -0.0282
vn -0.1939 -0.9785 -0.0703
vn -0.9809 0.1435 -0.1312
vn -0.9553 -0.0019 -0.2955
vn -0.2047 -0.7250 -0.6576
vn 0.0411 -0.0406 0.9983
vn 0.3906 0.4780 0.7867
vn 0.1003 0.9185 0.3826
vn 0.5290 0.4245 0.7348
vn 0.2308 0.4904 0.8404
vn -0.0005 0.9992 -0.0396
vn 0.1112 -0.9714 0.2096
vn -0.9820 0.1614 -0.0979
vn -0.9625 0.2699 -0.0280
vn -0.7216 -0.5704 0.3924
vn -0.1737 -0.8502 0.4970
vn 0.2853 -0.8533 0.4365
vn -0.7196 -0.6008 0.3481
vn -0.2652 -0.7437 0.6136
vn -0.3180 0.8339 -0.4511
vn -0.1373 -0.5819 0.8016
vn -0.0369 -0.5600 0.8277
vn -0.1030 -0.7994 0.5919
vn -0.1158 -0.8604 -0.4963
vn -0.9629 0.2188 -0.1580
vn -0.5962 0.6746 -0.4352
vn -0.1541 0.7828 -0.6029
vn -0.1504 -0.1906 -0.9701
vn -0.4670 -0.0166 -0.8841
vn -0.5951 0.2784 -0.7539
vn -0.6343 0.2864 -0.7181
vn -0.3447 0.1461 -0.9273
vn 0.1025 0.1110 0.9885
vn -0.0606 -0.9708 0.2320
vn 0.2420 0.9211 0.3049
vn 0.2582 0.8833 -0.3913
vn 0.0430 -0.4841 0.8740
vn -0.1673 -0.5666 0.8068
vn -0.0242 -0.9995 0.0188
vn 0.2740 0.6002 -0.7514
vn 0.7616 -0.0389 0.6469
vn 0.1637 0.3744 0.9127
vn 0.1162 0.5245 0.8435
vn 0.4399 0.8819 -0.1692
vn 0.3545 0.7043 -0.6150
vn 0.1810 -0.7949 0.5791
vn 0.6124 -0.5322 0.5846
vn 0.3960 -0.6206 -0.6768
vn 0.5349 0.1567 -0.8303
vn 0.9772 -0.0004 0.2121
vn 0.0310 -0.9970 0.0709
vn -0.0762 -0.9511 0.2992
vn -0.1030 0.4746 0.8742
vn 0.7700 -0.5685 -0.2895
vn 0.8358 0.4650 -0.2918
vn 0.8448 -0.5333 0.0426
vn 0.8350 -0.5023 0.2245
vn 0.8098 0.3557 -0.4667
vn 0.9896 -0.0552 -0.1330
vn 0.9248 -0.3796 0.0264
vn 0.0672 -0.9309 0.3589
vn 0.6797 -0.6877 0.2550
vn 0.5724 -0.5417 0.6155
vn 0.9488 -0.3028 0.0899
vn 0.9582 0.1278 -0.2560
vn 0.8530 0.2614 -0.4517
vn 0.2717 -0.4083 0.8715
vn 0.9593 -0.0109 -0.2822
vn 0.7047 -0.6361 -0.3143
vn 0.8271 -0.1752 -0.5341
vn 0.8206 0.5711 -0.0211
vn 0.9589 0.2645 0.1026
vn 0.9233 -0.3519 -0.1541
vn 0.9334 -0.2834 -0.2200
s 1
f 2//1 1//2 3//3
f 5//4 1//2 4//5
f 1//2 7//6 6//7
f 1//2 2//1 7//6
f 1//2 11//8 4//5
f 4//5 11//8 10//9
f 1//2 6//7 11//8
f 6//7 8//10 12//11
f 6//7 13//12 11//8
f 6//7 12//11 13//12
f 11//8 13//12 14//13
f 11//8 14//13 10//9
f 15//14 16//15 20//16
f 20//16 16//15 17//17
f 16//15 18//18 17//17
f 37//19 39//20 19//21
f 20//16 21//22 15//14
f 15//14 21//22 22//23
f 23//24 21//22 20//16
f 20//16 39//20 23//24
f 20//16 19//21 39//20
f 21//22 23//24 24//25
f 22//23 21//22 25//26
f 2//1 3//3 26//27
f 8//10 6//7 7//6
f 9//28 28//29 7//30
f 27//31 28//29 9//28
f 7//6 29//32 8//10
f 8//10 29//32 28//29
f 28//29 12//11 8//10
f 10//9 14//13 4//5
f 4//5 14//13 30//33
f 13//12 12//11 31//34
f 14//13 33//35 34//36
f 30//33 14//13 32//37
f 35//38 30//33 32//37
f 14//13 13//12 33//35
f 13//12 31//34 33//35
f 36//39 37//19 32//37
f 32//37 37//19 38//40
f 31//34 39//20 33//35
f 39//20 31//34 40//41
f 41//42 38//40 37//19
f 33//35 39//20 37//19
f 41//42 16//15 42//43
f 41//42 37//19 19//21
f 15//14 22//23 43//44
f 15//14 43//44 42//43
f 15//14 42//43 16//15
f 44//45 22//23 25//26
f 43//44 22//23 44//45
f 23//24 39//20 45//46
f 46//47 45//46 39//20
f 46//47 39//20 40//41
f 40//41 47//48 46//47
f 44//45 25//26 49//49
f 25//26 48//50 49//49
f 48//50 51//51 52//52
f 49//49 48//50 50//53
f 52//52 50//53 48//50
f 26//27 3//3 53//54
f 54//55 5//4 4//5
f 55//56 12//11 28//29
f 55//56 64//57 12//11
f 35//38 32//37 38//40
f 41//42 42//43 57//58
f 42//43 58//59 57//58
f 42//43 43//44 58//59
f 43//44 59//60 58//59
f 50//53 60//61 49//49
f 3//3 61//62 53//54
f 62//63 53//54 61//62
f 63//64 53//54 62//63
f 63//64 27//31 53//54
f 27//31 63//64 28//29
f 28//29 63//64 55//56
f 64//57 55//56 65//65
f 64//57 40//41 12//11
f 64//57 56//66 40//41
f 38//40 66//67 35//38
f 31//34 12//11 40//41
f 57//58 66//67 38//40
f 56//66 47//48 40//41
f 67//68 57//58 58//59
f 38//40 41//42 57//58
f 56//66 60//61 47//48
f 67//68 58//59 59//60
f 68//69 59//60 44//45
f 43//44 44//45 59//60
f 44//45 49//49 68//69
f 69//70 49//49 60//61
f 68//69 49//49 69//70
f 70//71 62//63 61//62
f 54//55 4//5 71//72
f 72//73 5//4 54//55
f 62//63 73//74 63//64
f 4//5 30//33 71//72
f 71//72 30//33 74//75
f 65//65 75//76 64//57
f 74//75 30//33 76//77
f 76//77 30//33 77//78
f 78//79 76//77 79//80
f 77//78 80//81 76//77
f 77//78 30//33 81//82
f 82//83 30//33 35//38
f 64//57 78//79 56//66
f 35//38 77//78 81//82
f 77//78 35//38 66//67
f 77//78 66//67 83//84
f 77//78 84//85 80//81
f 79//80 85//86 86//87
f 79//80 86//87 78//79
f 78//79 86//87 56//66
f 87//88 57//58 67//68
f 66//67 57//58 87//88
f 66//67 87//88 83//84
f 85//86 88//89 86//87
f 59//60 89//90 67//68
f 89//90 86//87 88//89
f 89//90 88//89 67//68
f 68//69 89//90 59//60
f 90//91 68//69 69//70
f 89//90 90//91 69//70
f 69//70 60//61 86//87
f 86//87 60//61 56//66
f 86//87 89//90 69//70
f 93//92 92//93 70//71
f 93//92 75//76 65//65
f 94//94 70//71 61//62
f 70//71 94//94 91//95
f 94//94 74//75 91//95
f 93//92 70//71 75//76
f 70//71 91//95 75//76
f 74//75 76//77 91//95
f 75//76 91//95 78//79
f 64//57 75//76 78//79
f 76//77 78//79 91//95
