# Blender v2.78 (sub 0) OBJ File: 'exporter.blend'
# www.blender.org
o FJ3378.obj_grp1.2017
v -0.038675 -0.879549 7.052112
v -0.043219 -0.863651 7.057750
v -0.036797 -0.875666 7.050294
v -0.035747 -0.881247 7.056375
v -0.037874 -0.879427 7.052015
v -0.027258 -0.886844 7.070658
v -0.039248 -0.867473 7.079589
v -0.029112 -0.888564 7.074138
v -0.038488 -0.864789 7.048767
v -0.035457 -0.864629 7.047430
v -0.035457 -0.864629 7.047430
v -0.033528 -0.860242 7.048744
v -0.027835 -0.871713 7.101653
v -0.036274 -0.863737 7.045951
v -0.038034 -0.846117 7.086509
v -0.028308 -0.847910 7.066687
v -0.026726 -0.851626 7.062806
v -0.026441 -0.851182 7.064050
v -0.036840 -0.846780 7.087100
v -0.027288 -0.835114 7.104146
v -0.028339 -0.840827 7.086864
v -0.033340 -0.845622 7.104486
v -0.032054 -0.835079 7.110307
v -0.028720 -0.832532 7.131604
v -0.030682 -0.818539 7.164246
v -0.033034 -0.810047 7.179707
v -0.031536 -0.813943 7.174288
v -0.031352 -0.811716 7.168129
v -0.010270 -0.834386 7.162738
v -0.027739 -0.809413 7.186433
v -0.032628 -0.809596 7.179239
v -0.012934 -0.896298 7.091864
v -0.012701 -0.896208 7.091751
v -0.021676 -0.892276 7.090993
v -0.010323 -0.887396 7.101924
v -0.025447 -0.846208 7.080781
v -0.011905 -0.880272 7.101692
v -0.028457 -0.841103 7.087680
v -0.024629 -0.846649 7.078837
v -0.025179 -0.843325 7.087287
v -0.022868 -0.837340 7.104453
v -0.011522 -0.859511 7.127179
v -0.025179 -0.843325 7.087287
v -0.024435 -0.831600 7.112350
v -0.029476 -0.831071 7.111670
v -0.029622 -0.830889 7.111605
v -0.025869 -0.828027 7.115910
v -0.025310 -0.815335 7.142637
v -0.028720 -0.832532 7.131604
v -0.011946 -0.814643 7.134275
v -0.021655 -0.802192 7.177704
v -0.018551 -0.800533 7.198441
v -0.010112 -0.822429 7.185821
v -0.022115 -0.796903 7.193395
v -0.010428 -0.894080 7.092029
v -0.013518 -0.897308 7.092375
v -0.010716 -0.894008 7.092076
v -0.012923 -0.894412 7.094752
v -0.012923 -0.895890 7.091935
v -0.010242 -0.887163 7.101794
v -0.011357 -0.886471 7.102273
v -0.011201 -0.877009 7.108742
v -0.011515 -0.883403 7.106019
v -0.010242 -0.887163 7.101794
v -0.010763 -0.884069 7.103476
v -0.011201 -0.877009 7.108742
v -0.011745 -0.862254 7.121052
v -0.012923 -0.867446 7.116113
v -0.008944 -0.864713 7.113014
v -0.012923 -0.863221 7.121089
v -0.007034 -0.858993 7.112930
v -0.012557 -0.867970 7.117067
v -0.011532 -0.862127 7.121464
v -0.011515 -0.859512 7.127145
v -0.010106 -0.852076 7.135595
v -0.011515 -0.859512 7.127145
v -0.009786 -0.852281 7.135584
v -0.006344 -0.829482 7.138869
v -0.009173 -0.840303 7.150122
v -0.010333 -0.839266 7.155084
v -0.007889 -0.844942 7.147677
v -0.006137 -0.811602 7.136855
v -0.008658 -0.829419 7.170805
v -0.007388 -0.811375 7.194385
v -0.010106 -0.822377 7.185639
v -0.007443 -0.811359 7.194372
v -0.009140 -0.809758 7.195982
v -0.013162 -0.803153 7.177480
v -0.008233 -0.801543 7.190042
v -0.007373 -0.807510 7.178478
v -0.007460 -0.804058 7.194572
v -0.004410 -0.814913 7.159537
v -0.014543 -0.796279 7.193011
v -0.007565 -0.863221 7.110244
v -0.003661 -0.829049 7.135051
v -0.008757 -0.829510 7.170465
v -0.003577 -0.818868 7.139537
v -0.003481 -0.818988 7.139445
v -0.007443 -0.811359 7.194372
vn 0.7844 -0.2869 -0.5499
vn 0.5297 -0.6472 -0.5483
vn 0.1410 -0.9046 -0.4023
vn -0.4943 -0.8650 -0.0859
vn -0.9132 -0.3656 -0.1799
vn -0.9229 -0.2511 0.2918
vn -0.9429 0.2394 -0.2317
vn -0.7529 0.0837 -0.6528
vn -0.3240 -0.2289 -0.9180
vn -0.4929 -0.1786 -0.8516
vn 0.8969 -0.1646 -0.4105
vn -0.6278 0.6840 -0.3716
vn -0.5374 0.8101 -0.2345
vn 0.1282 0.8804 -0.4566
vn 0.8444 -0.2916 -0.4493
vn 0.3684 0.7478 -0.5524
vn -0.9802 0.0440 0.1929
vn -0.3555 0.8882 -0.2910
vn -0.9789 0.0981 0.1790
vn -0.4968 0.7938 -0.3507
vn -0.9229 0.3560 -0.1469
vn -0.7179 -0.4982 0.4862
vn -0.9744 -0.1191 0.1905
vn -0.5527 -0.7319 0.3986
vn -0.5702 -0.7532 0.3279
vn -0.4291 -0.7440 0.5122
vn -0.8174 -0.1566 0.5544
vn -0.6407 0.7678 -0.0063
vn -0.8951 0.4195 -0.1512
vn -0.9967 -0.0809 -0.0107
vn -0.1187 -0.7700 -0.6269
vn -0.5948 -0.7219 0.3538
vn 0.9487 0.0452 -0.3130
vn 0.5026 -0.3031 -0.8097
vn -0.4810 -0.5378 0.6924
vn 0.9687 0.1575 -0.1921
vn 0.9467 0.2762 -0.1655
vn 0.5366 0.7897 -0.2973
vn 0.5921 0.7624 -0.2608
vn 0.6730 0.6647 -0.3244
vn 0.7965 0.5238 -0.3021
vn -0.6009 -0.5833 0.5465
vn 0.4918 0.8070 -0.3269
vn 0.4320 0.7131 -0.5522
vn -0.8352 0.5384 -0.1120
vn 0.2245 0.8315 -0.5081
vn -0.0572 0.8140 -0.5781
vn -0.6190 0.7289 -0.2925
vn -0.9979 -0.0453 -0.0461
vn -0.1966 0.8652 -0.4612
vn -0.3533 0.9118 -0.2094
vn -0.5414 -0.6531 0.5295
vn -0.5864 0.7616 0.2759
vn -0.1893 0.1950 0.9624
vn -0.2683 0.5328 -0.8026
vn -0.4391 -0.8797 -0.1825
vn 0.6116 -0.6822 0.4006
vn 0.5878 -0.7163 0.3761
vn 0.6338 -0.6467 0.4244
vn 0.9965 0.0632 -0.0540
vn 0.9959 -0.0220 -0.0881
vn 0.9231 -0.1525 0.3530
vn 0.9596 0.0085 0.2812
vn 0.9522 -0.0341 0.3036
vn 0.9692 -0.1492 0.1960
vn 0.9152 -0.2560 0.3113
vn -0.4336 -0.5879 0.6829
vn 0.9058 -0.3082 0.2907
vn -0.3033 -0.7747 0.5548
vn 0.9414 0.0084 -0.3373
vn 0.9528 -0.2482 0.1749
vn 0.9615 -0.2511 0.1114
vn 0.9666 -0.2036 0.1556
vn 0.9836 -0.1726 -0.0518
vn 0.9159 -0.3786 0.1333
vn 0.9248 -0.2512 0.2859
vn 0.4416 -0.7335 0.5167
vn 0.8812 -0.4153 0.2260
vn 0.4443 0.8190 -0.3630
vn 0.4105 -0.8108 0.4172
vn 0.1821 -0.6515 0.7365
vn 0.2128 -0.3467 0.9135
vn 0.2878 0.9105 -0.2969
vn 0.2899 0.9357 0.2011
vn 0.9948 -0.0973 0.0305
vn 0.8208 0.2713 0.5027
vn 0.9997 -0.0259 -0.0037
vn 0.9765 0.1942 0.0938
vn 0.7875 0.6152 -0.0370
vn 0.9393 -0.2746 0.2057
vn 0.9815 -0.1168 0.1519
vn 0.9868 -0.1600 0.0245
vn 0.9737 -0.2242 0.0403
vn -0.2301 -0.7598 0.6081
vn 0.9998 0.0166 -0.0148
vn 0.5671 -0.1985 0.7994
vn 0.8460 -0.4408 0.2999
vn 0.6778 -0.0200 0.7350
s 1
f 5//1 6//2 4//3
f 4//3 8//4 1//5
f 8//4 4//3 6//2
f 1//5 8//4 7//6
f 2//7 9//8 1//5
f 1//5 9//8 10//9
f 1//5 10//9 3//10
f 12//11 6//2 5//1
f 1//5 7//6 2//7
f 14//12 9//8 2//7
f 2//7 15//13 14//12
f 16//14 14//12 15//13
f 5//1 11//15 12//11
f 17//16 14//12 16//14
f 7//6 19//17 2//7
f 21//18 16//14 15//13
f 7//6 22//19 19//17
f 15//13 22//19 20//20
f 23//21 20//20 22//19
f 7//6 13//22 22//19
f 22//19 24//23 23//21
f 26//24 25//25 29//26
f 29//26 30//27 26//24
f 31//28 28//29 27//30
f 6//2 32//31 8//4
f 8//4 34//32 7//6
f 34//32 8//4 32//31
f 18//33 6//2 12//11
f 6//2 18//33 33//34
f 7//6 34//32 13//22
f 35//35 13//22 34//32
f 37//36 18//33 36//37
f 16//14 38//38 39//39
f 17//16 16//14 39//39
f 40//40 41//41 36//37
f 42//42 25//25 24//23
f 38//38 43//43 39//39
f 21//18 15//13 20//20
f 21//18 20//20 44//44
f 43//43 38//38 41//41
f 44//44 41//41 38//38
f 20//20 23//21 45//45
f 44//44 20//20 46//46
f 13//22 24//23 22//19
f 24//23 45//45 23//21
f 42//42 29//26 25//25
f 44//44 46//46 47//47
f 48//48 47//47 45//45
f 48//48 45//45 24//23
f 49//49 27//30 28//29
f 47//47 48//48 50//50
f 28//29 48//48 24//23
f 51//51 48//48 28//29
f 30//27 29//26 53//52
f 51//51 28//29 31//28
f 31//28 30//27 51//51
f 54//53 51//51 30//27
f 30//27 52//54 54//53
f 32//31 6//2 33//34
f 33//34 37//36 55//55
f 32//31 56//56 34//32
f 34//32 56//56 35//35
f 57//57 58//57 59//58
f 60//59 58//57 57//57
f 36//37 41//41 37//36
f 33//34 18//33 37//36
f 55//55 37//36 61//60
f 37//36 62//61 61//60
f 63//62 64//63 65//64
f 65//64 66//65 63//62
f 63//62 66//65 67//66
f 35//35 68//67 13//22
f 67//66 66//65 69//68
f 69//68 62//61 37//36
f 13//22 68//67 70//69
f 37//36 41//41 71//70
f 70//69 42//42 13//22
f 73//71 74//72 72//73
f 67//66 77//74 76//75
f 71//70 41//41 44//44
f 13//22 42//42 24//23
f 77//74 67//66 78//76
f 42//42 75//77 79//78
f 79//78 29//26 42//42
f 71//70 44//44 82//79
f 44//44 50//50 82//79
f 29//26 83//80 53//52
f 47//47 50//50 44//44
f 50//50 48//48 82//79
f 82//79 48//48 51//51
f 52//54 30//27 53//52
f 53//52 86//81 87//82
f 52//54 53//52 87//82
f 82//79 51//51 88//83
f 88//83 51//51 54//53
f 88//83 54//53 93//84
f 90//85 91//86 84//87
f 92//88 88//83 89//89
f 88//83 93//84 89//89
f 93//84 52//54 91//86
f 91//86 52//54 87//82
f 93//84 54//53 52//54
f 94//90 69//68 37//36
f 95//91 67//66 69//68
f 95//91 69//68 94//90
f 95//91 94//90 71//70
f 67//66 95//91 78//76
f 78//76 81//92 77//74
f 81//92 78//76 96//93
f 96//93 80//94 81//92
f 97//95 78//76 98//96
f 78//76 95//91 98//96
f 97//95 95//91 71//70
f 97//95 92//88 96//93
f 78//76 97//95 96//93
f 85//97 96//93 84//87
f 97//95 71//70 82//79
f 82//79 92//88 97//95
f 90//85 96//93 92//88
f 92//88 82//79 88//83
f 96//93 90//85 84//87
f 99//98 91//86 87//82
f 90//85 89//89 91//86
f 91//86 89//89 93//84
