# Blender v2.78 (sub 0) OBJ File: 'exporter.blend'
# www.blender.org
o FJ3362.obj_grp1.2002
v -0.679268 -0.315887 6.346919
v -0.676878 -0.307316 6.330633
v -0.680903 -0.330645 6.351752
v -0.659468 -0.276716 6.313249
v -0.667740 -0.300541 6.313830
v -0.656937 -0.285197 6.341382
v -0.630423 -0.274706 6.348318
v -0.656176 -0.286339 6.300958
v -0.634790 -0.262503 6.322866
v -0.648181 -0.268735 6.303529
v -0.643974 -0.272412 6.298085
v -0.680131 -0.350926 6.347178
v -0.670062 -0.356017 6.355597
v -0.633180 -0.346998 6.364337
v -0.663593 -0.317243 6.317803
v -0.613228 -0.285614 6.303718
v -0.573173 -0.306280 6.360493
v -0.609948 -0.255990 6.308695
v -0.605351 -0.257511 6.335014
v -0.582581 -0.257273 6.312775
v -0.569416 -0.262348 6.335723
v -0.571170 -0.280237 6.349721
v -0.668939 -0.368696 6.349786
v -0.664309 -0.354222 6.328255
v -0.642784 -0.361228 6.360968
v -0.649790 -0.363037 6.325500
v -0.584180 -0.327454 6.312871
v -0.602499 -0.264428 6.303262
v -0.559090 -0.267545 6.312156
v -0.659790 -0.372739 6.343229
v -0.623287 -0.378701 6.347237
v -0.572139 -0.289196 6.301172
v -0.520404 -0.273162 6.322861
v -0.508945 -0.280945 6.333255
v -0.609397 -0.366030 6.326498
v -0.612879 -0.369652 6.358692
v -0.550982 -0.347213 6.351268
v -0.510024 -0.298286 6.284543
v -0.509573 -0.297875 6.343283
v -0.532953 -0.285276 6.292862
v -0.532642 -0.274820 6.306785
v -0.566218 -0.370818 6.326949
v -0.569166 -0.370665 6.335340
v -0.504852 -0.344251 6.305091
v -0.495751 -0.280089 6.283560
v -0.528817 -0.353449 6.310374
v -0.501969 -0.284025 6.280619
v -0.510841 -0.284474 6.285070
v -0.488588 -0.286113 6.324481
v -0.479250 -0.283717 6.298645
v -0.537192 -0.381190 6.320827
v -0.515394 -0.391416 6.316504
v -0.526189 -0.382641 6.326992
v -0.459937 -0.329547 6.285523
v -0.444700 -0.325025 6.326324
v -0.492969 -0.286938 6.275520
v -0.486250 -0.285496 6.279612
v -0.446160 -0.378340 6.339476
v -0.440587 -0.330792 6.288193
v -0.448799 -0.328598 6.283795
v -0.445723 -0.316067 6.310350
v -0.505444 -0.398442 6.312858
v -0.494718 -0.396942 6.303660
v -0.460239 -0.386546 6.342008
v -0.466204 -0.312537 6.283990
v -0.496817 -0.403894 6.316353
v -0.469306 -0.389117 6.295909
v -0.427475 -0.372389 6.321985
v -0.455922 -0.438340 6.285257
v -0.475774 -0.429454 6.304257
v -0.418024 -0.374200 6.294040
v -0.455922 -0.438340 6.285257
v -0.438387 -0.438671 6.320626
v -0.432882 -0.364003 6.278957
v -0.432973 -0.387209 6.281065
v -0.454202 -0.452923 6.304040
v -0.416196 -0.393757 6.283070
v -0.397762 -0.422938 6.312160
v -0.391415 -0.428891 6.288102
v -0.392413 -0.444089 6.271173
v -0.412514 -0.498915 6.255081
v -0.433930 -0.480046 6.280225
v -0.411543 -0.492319 6.255652
v -0.424797 -0.440579 6.281289
v -0.399998 -0.528862 6.253044
v -0.418443 -0.495737 6.294931
v -0.389250 -0.493636 6.262531
v -0.362248 -0.493193 6.296329
v -0.383837 -0.449707 6.273656
v -0.375225 -0.480683 6.264788
v -0.362311 -0.485032 6.267627
v -0.347819 -0.499742 6.269366
v -0.351177 -0.575651 6.274646
v -0.396975 -0.513150 6.250062
v -0.334234 -0.521369 6.275259
v -0.403553 -0.528319 6.264619
v -0.313653 -0.554937 6.238636
v -0.376459 -0.564131 6.260665
v -0.328284 -0.584765 6.222071
v -0.352177 -0.539530 6.290417
v -0.356526 -0.578413 6.231771
v -0.334258 -0.607000 6.239530
v -0.313727 -0.592830 6.277449
v -0.294774 -0.561975 6.251681
v -0.335397 -0.527948 6.283187
v -0.335526 -0.527620 6.283333
v -0.338154 -0.596896 6.258589
v -0.282604 -0.585735 6.273662
v -0.274510 -0.604771 6.276256
v -0.280983 -0.577187 6.237183
v -0.306153 -0.629131 6.246278
v -0.293094 -0.627523 6.264470
v -0.260867 -0.598722 6.222173
v -0.265224 -0.591185 6.264221
v -0.285207 -0.642956 6.228574
v -0.300102 -0.625653 6.217380
v -0.280829 -0.614634 6.277011
v -0.251855 -0.592843 6.244193
v -0.287033 -0.621646 6.209918
v -0.263630 -0.642958 6.211658
v -0.241979 -0.656141 6.265239
v -0.227127 -0.605286 6.223665
v -0.211208 -0.615740 6.264233
v -0.257879 -0.658090 6.237439
v -0.179067 -0.632794 6.270676
v -0.208735 -0.675123 6.240665
v -0.210780 -0.644385 6.272779
v -0.237473 -0.625010 6.207703
v -0.200905 -0.608340 6.233851
v -0.216319 -0.671516 6.221772
v -0.163714 -0.611580 6.221524
v -0.169490 -0.614584 6.246058
v -0.176840 -0.677590 6.244273
v -0.121257 -0.638522 6.267145
v -0.154623 -0.619761 6.209552
v -0.104883 -0.610840 6.237959
v -0.110059 -0.619250 6.255400
v -0.168401 -0.678434 6.207325
v -0.146366 -0.648305 6.190649
v -0.176418 -0.666567 6.199251
v -0.139748 -0.664253 6.182774
v -0.100318 -0.662796 6.253522
v -0.132240 -0.633028 6.198659
v -0.119612 -0.610877 6.205759
v -0.079159 -0.610492 6.256162
v -0.121873 -0.684898 6.223728
v -0.120870 -0.617175 6.197923
v -0.110562 -0.631788 6.186731
v -0.080241 -0.629377 6.263736
v -0.105296 -0.619910 6.181359
v -0.074842 -0.600945 6.198204
v -0.070362 -0.600732 6.243449
v -0.120677 -0.683852 6.180111
v -0.125475 -0.689177 6.193243
v -0.104868 -0.658615 6.159340
v -0.109586 -0.648971 6.168460
v -0.074195 -0.613834 6.259448
v -0.065523 -0.628884 6.251738
v -0.063869 -0.601153 6.157909
v -0.047705 -0.598430 6.190995
v -0.059010 -0.610505 6.238503
v -0.081828 -0.626597 6.144804
v -0.071867 -0.614754 6.144636
v -0.063737 -0.654200 6.238352
v -0.045882 -0.606403 6.197573
v -0.062123 -0.605063 6.153684
v -0.056078 -0.596794 6.169148
v -0.046623 -0.602015 6.177531
v -0.050319 -0.596404 6.180510
v -0.099013 -0.689645 6.186967
v -0.085138 -0.669715 6.179373
v -0.072688 -0.664051 6.243815
v -0.088247 -0.650822 6.150613
v -0.086383 -0.685937 6.195735
v -0.072748 -0.635277 6.145016
v -0.054998 -0.614789 6.157229
v -0.049579 -0.619443 6.178185
vn -0.9615 0.1853 -0.2030
vn -0.7965 0.5978 -0.0903
vn -0.7719 -0.0671 -0.6322
vn -0.5649 0.6300 0.5329
vn -0.8220 0.3414 0.4557
vn -0.2245 0.5858 0.7787
vn -0.8177 0.0894 0.5687
vn -0.4702 -0.0359 -0.8818
vn -0.3679 0.9076 0.2025
vn -0.5109 0.7622 -0.3977
vn -0.1469 0.2782 -0.9492
vn -0.9471 -0.3171 0.0503
vn -0.4456 -0.2351 0.8638
vn -0.0615 -0.0186 0.9979
vn -0.4437 -0.2887 -0.8484
vn -0.5742 -0.3788 -0.7258
vn 0.0101 -0.1860 -0.9825
vn -0.0471 0.9145 -0.4019
vn -0.0317 0.8934 0.4481
vn 0.1946 0.9009 -0.3881
vn 0.1460 0.4832 0.8633
vn 0.1963 0.8449 0.4976
vn -0.6106 -0.7436 0.2726
vn -0.1410 -0.3907 0.9096
vn -0.1996 -0.5755 -0.7931
vn 0.0803 0.1035 0.9914
vn -0.1066 -0.2773 -0.9549
vn 0.1134 0.3222 -0.9398
vn -0.3550 -0.9051 -0.2341
vn -0.0147 -0.9960 0.0886
vn -0.1344 0.1486 -0.9797
vn 0.1452 0.6802 -0.7185
vn 0.2636 0.9645 -0.0154
vn -0.0381 -0.6030 -0.7968
vn 0.1395 -0.5645 0.8136
vn 0.0004 -0.4160 0.9094
vn -0.2739 -0.2223 -0.9357
vn 0.2842 0.3367 0.8977
vn -0.2054 0.5473 -0.8114
vn 0.0369 0.8966 -0.4412
vn 0.3445 0.7033 0.6219
vn -0.2629 -0.7509 -0.6058
vn 0.0816 -0.9128 0.4002
vn -0.2441 -0.2238 -0.9436
vn 0.0881 0.8989 -0.4293
vn -0.2445 -0.1709 -0.9545
vn -0.3986 0.4915 -0.7743
vn -0.2778 0.7018 -0.6559
vn 0.4655 0.7597 0.4540
vn 0.5522 0.8334 -0.0233
vn -0.5000 -0.8546 0.1401
vn -0.1990 -0.7558 0.6238
vn -0.2105 -0.2032 -0.9562
vn 0.6994 0.4202 0.5782
vn -0.0842 0.2451 -0.9658
vn 0.5555 0.6081 -0.5671
vn -0.3032 -0.2496 -0.9197
vn 0.4082 0.0041 0.9129
vn 0.7602 0.4670 -0.4516
vn 0.3037 0.2705 -0.9136
vn 0.7850 0.6140 0.0826
vn -0.3962 -0.1070 -0.9119
vn -0.0170 -0.3309 0.9435
vn 0.1469 0.0146 -0.9890
vn -0.6238 -0.6976 -0.3525
vn -0.4336 -0.6931 0.5758
vn -0.3017 0.0054 -0.9534
vn 0.7874 0.3054 0.5355
vn -0.7015 -0.3140 -0.6397
vn 0.9087 0.3796 -0.1737
vn -0.7294 -0.6678 0.1482
vn -0.2214 -0.4236 0.8784
vn 0.3032 0.1264 -0.9445
vn -0.1466 -0.0671 -0.9869
vn 0.5208 0.3212 -0.7910
vn 0.7964 0.2673 0.5426
vn 0.8564 0.4931 -0.1532
vn -0.6005 -0.6046 0.5233
vn -0.1471 0.2679 -0.9522
vn 0.1266 0.2087 -0.9697
vn -0.5752 -0.0947 -0.8125
vn -0.8154 -0.5744 -0.0722
vn -0.0716 0.2794 -0.9575
vn -0.1537 0.2268 -0.9617
vn 0.1212 -0.1814 0.9759
vn -0.7515 -0.3976 -0.5265
vn -0.5761 -0.6035 0.5512
vn 0.0875 0.3716 -0.9243
vn 0.5972 0.1251 0.7923
vn 0.6427 0.4493 -0.6205
vn 0.1236 0.2897 -0.9491
vn 0.5131 0.4807 -0.7111
vn 0.7851 0.5899 -0.1887
vn -0.3903 -0.6136 0.6864
vn 0.2071 0.4911 -0.8461
vn 0.7696 0.4993 0.3981
vn -0.8216 -0.5698 0.0181
vn 0.4012 0.5682 -0.7185
vn -0.7225 -0.6766 0.1421
vn -0.1024 0.2008 -0.9743
vn -0.6351 -0.3234 -0.7014
vn -0.6713 -0.7388 -0.0585
vn -0.2186 -0.4435 0.8692
vn 0.6584 0.7286 -0.1888
vn 0.5851 0.2633 0.7671
vn 0.4132 -0.0934 0.9058
vn -0.5359 -0.6985 0.4743
vn 0.4931 0.3252 0.8069
vn 0.2285 0.1972 0.9533
vn 0.5025 0.7821 -0.3687
vn -0.5751 -0.7996 0.1729
vn -0.3958 -0.6644 0.6340
vn 0.1595 0.6287 -0.7611
vn 0.4830 0.6905 0.5384
vn -0.4894 -0.8365 -0.2463
vn -0.5266 -0.5702 -0.6305
vn -0.0932 -0.2619 0.9606
vn 0.4667 0.8800 0.0881
vn -0.2004 -0.1001 -0.9746
vn -0.2227 -0.7018 0.6767
vn -0.2898 -0.5200 -0.8035
vn 0.1897 0.7919 -0.5804
vn 0.2774 0.8212 0.4988
vn -0.3999 -0.9164 0.0183
vn 0.1294 0.3696 0.9201
vn -0.1936 -0.9619 0.1932
vn 0.0696 -0.3117 0.9476
vn -0.0207 0.3617 -0.9321
vn 0.1698 0.9739 0.1507
vn -0.2926 -0.8958 -0.3344
vn 0.0748 0.9264 0.3691
vn 0.0206 0.9783 -0.2062
vn -0.0156 -0.8855 0.4643
vn 0.1076 -0.0141 0.9941
vn -0.1457 0.5912 -0.7933
vn -0.1927 0.9624 0.1917
vn -0.1125 0.7566 0.6442
vn -0.3244 -0.8038 -0.4987
vn -0.2733 0.4020 -0.8739
vn -0.3149 -0.4552 -0.8328
vn -0.4406 0.0552 -0.8960
vn 0.1543 -0.6259 0.7644
vn -0.3137 0.4814 -0.8185
vn -0.2303 0.9188 -0.3206
vn -0.1177 0.7491 0.6520
vn 0.0686 -0.9428 0.3263
vn -0.4991 0.5755 -0.6478
vn -0.6840 0.3580 -0.6356
vn 0.3168 -0.0654 0.9463
vn -0.6365 0.5581 -0.5323
vn -0.2351 0.9708 -0.0479
vn 0.2024 0.8858 0.4176
vn -0.2298 -0.6536 -0.7211
vn -0.1717 -0.9676 -0.1848
vn -0.4487 -0.1219 -0.8853
vn -0.6174 0.4178 -0.6666
vn 0.5641 -0.6386 0.5235
vn 0.3944 0.4276 0.8134
vn 0.7916 -0.0772 0.6061
vn -0.0471 0.9139 -0.4031
vn 0.6297 0.7662 0.1279
vn 0.8748 0.2633 0.4068
vn -0.4215 0.2342 -0.8761
vn -0.0475 0.4542 -0.8896
vn 0.8591 -0.4457 0.2518
vn 0.9873 0.0514 0.1504
vn 0.3974 0.5706 -0.7186
vn -0.3155 0.9480 -0.0423
vn 0.9162 0.2978 -0.2681
vn 0.3772 0.9237 -0.0663
vn 0.2627 -0.9109 -0.3181
vn 0.6092 -0.7889 -0.0805
vn 0.0198 -0.4563 -0.8896
vn 0.4250 -0.3605 -0.8304
vn 0.7461 -0.5611 -0.3585
vn 0.9156 -0.3718 -0.1532
vn 0.8203 -0.0974 -0.5635
s 1
f 2//1 4//2 5//3
f 6//4 1//5 7//6
f 7//6 1//5 3//7
f 4//2 8//8 5//3
f 2//1 1//5 4//2
f 1//5 6//4 4//2
f 4//2 6//4 9//9
f 10//10 8//8 4//2
f 11//11 8//8 10//10
f 9//9 10//10 4//2
f 9//9 6//4 7//6
f 12//12 3//7 2//1
f 3//7 12//12 13//13
f 3//7 13//13 14//14
f 2//1 5//3 15//15
f 1//5 2//1 3//7
f 12//12 2//1 15//15
f 12//12 15//15 24//16
f 3//7 14//14 7//6
f 8//8 15//15 5//3
f 11//11 16//17 8//8
f 10//10 9//9 18//18
f 19//19 9//9 7//6
f 19//19 18//18 9//9
f 11//11 10//10 18//18
f 18//18 19//19 20//20
f 19//19 7//6 22//21
f 19//19 22//21 21//22
f 12//12 24//16 23//23
f 12//12 23//23 13//13
f 13//13 23//23 25//24
f 26//25 24//16 15//15
f 14//14 13//13 25//24
f 17//26 7//6 14//14
f 8//8 16//17 15//15
f 16//17 27//27 15//15
f 22//21 7//6 17//26
f 11//11 18//18 28//28
f 11//11 28//28 16//17
f 18//18 20//20 28//28
f 20//20 19//19 21//22
f 24//16 30//29 23//23
f 24//16 26//25 30//29
f 30//29 31//30 23//23
f 25//24 23//23 31//30
f 27//27 26//25 15//15
f 16//17 32//31 27//27
f 16//17 28//28 32//31
f 32//31 28//28 29//32
f 20//20 29//32 28//28
f 29//32 20//20 33//33
f 33//33 20//20 21//22
f 26//25 31//30 30//29
f 26//25 35//34 31//30
f 31//30 36//35 25//24
f 27//27 35//34 26//25
f 36//35 14//14 25//24
f 14//14 36//35 17//26
f 17//26 36//35 37//36
f 38//37 27//27 32//31
f 39//38 22//21 17//26
f 40//39 32//31 29//32
f 41//40 29//32 33//33
f 22//21 34//41 21//22
f 35//34 42//42 31//30
f 43//43 36//35 31//30
f 37//36 36//35 43//43
f 42//42 35//34 27//27
f 44//44 27//27 38//37
f 29//32 41//40 40//39
f 41//40 33//33 45//45
f 21//22 34//41 33//33
f 39//38 34//41 22//21
f 42//42 43//43 31//30
f 27//27 44//44 46//46
f 38//37 32//31 40//39
f 47//47 38//37 40//39
f 40//39 41//40 45//45
f 40//39 45//45 48//48
f 47//47 48//48 45//45
f 33//33 34//41 49//49
f 50//50 33//33 49//49
f 52//51 43//43 42//42
f 43//43 53//52 37//36
f 42//42 27//27 46//46
f 54//53 44//44 38//37
f 34//41 39//38 55//54
f 56//55 38//37 47//47
f 47//47 45//45 56//55
f 56//55 45//45 57//56
f 50//50 57//56 45//45
f 45//45 33//33 50//50
f 52//51 53//52 43//43
f 51//57 42//42 46//46
f 58//58 39//38 17//26
f 56//55 54//53 38//37
f 59//59 57//56 50//50
f 56//55 60//60 54//53
f 49//49 61//61 50//50
f 34//41 55//54 49//49
f 51//57 46//46 63//62
f 17//26 37//36 64//63
f 17//26 64//63 58//58
f 58//58 55//54 39//38
f 56//55 57//56 65//64
f 65//64 57//56 59//59
f 59//59 50//50 61//61
f 61//61 49//49 55//54
f 62//65 51//57 63//62
f 66//66 53//52 52//51
f 62//65 66//66 52//51
f 67//67 63//62 46//46
f 67//67 46//46 44//44
f 53//52 66//66 37//36
f 54//53 67//67 44//44
f 55//54 58//58 68//68
f 65//64 59//59 60//60
f 62//65 63//62 69//69
f 37//36 66//66 64//63
f 68//68 71//70 55//54
f 59//59 61//61 71//70
f 55//54 71//70 61//61
f 70//71 62//65 69//69
f 66//66 70//71 73//72
f 64//63 66//66 73//72
f 67//67 54//53 74//73
f 74//73 54//53 60//60
f 75//74 67//67 74//73
f 60//60 59//59 74//73
f 74//73 59//59 71//70
f 70//71 66//66 62//65
f 77//75 75//74 74//73
f 68//68 58//58 78//76
f 77//75 74//73 71//70
f 78//76 71//70 68//68
f 78//76 79//77 71//70
f 73//72 70//71 76//78
f 72//79 63//62 67//67
f 58//58 64//63 73//72
f 77//75 80//80 75//74
f 79//77 77//75 71//70
f 81//81 70//71 69//69
f 82//82 70//71 81//81
f 82//82 76//78 70//71
f 69//69 83//83 81//81
f 84//84 72//79 67//67
f 100//85 58//58 73//72
f 75//74 80//80 67//67
f 84//84 67//67 80//80
f 85//86 82//82 81//81
f 82//82 86//87 76//78
f 84//84 87//88 83//83
f 73//72 76//78 86//87
f 83//83 72//79 84//84
f 78//76 58//58 88//89
f 100//85 88//89 58//58
f 79//77 89//90 77//75
f 90//91 84//84 80//80
f 89//90 80//80 77//75
f 89//90 90//91 80//80
f 79//77 91//92 89//90
f 78//76 92//93 79//77
f 93//94 73//72 86//87
f 94//95 83//83 87//88
f 83//83 94//95 81//81
f 84//84 90//91 87//88
f 90//91 89//90 91//92
f 92//93 78//76 95//96
f 82//82 85//86 96//97
f 86//87 82//82 96//97
f 88//89 95//96 78//76
f 92//93 91//92 79//77
f 97//98 91//92 92//93
f 96//97 85//86 98//99
f 93//94 100//85 73//72
f 99//100 87//88 90//91
f 99//100 90//91 91//92
f 101//101 102//102 98//99
f 98//99 85//86 101//101
f 93//94 103//103 100//85
f 97//98 99//100 91//92
f 92//93 104//104 97//98
f 95//96 104//104 92//93
f 88//89 105//105 95//96
f 106//106 88//89 100//85
f 101//101 85//86 81//81
f 99//100 101//101 81//81
f 96//97 98//99 86//87
f 86//87 98//99 93//94
f 98//99 102//102 107//107
f 105//105 106//106 100//85
f 107//107 93//94 98//99
f 99//100 81//81 94//95
f 87//88 99//100 94//95
f 105//105 108//108 95//96
f 103//103 93//94 107//107
f 109//109 100//85 103//103
f 97//98 104//104 110//110
f 102//102 111//111 107//107
f 112//112 103//103 107//107
f 108//108 105//105 100//85
f 110//110 113//113 97//98
f 95//96 114//114 104//104
f 114//114 95//96 108//108
f 102//102 115//115 111//111
f 116//116 115//115 102//102
f 117//117 109//109 103//103
f 97//98 113//113 99//100
f 109//109 108//108 100//85
f 110//110 104//104 118//118
f 118//118 104//104 114//114
f 116//116 102//102 101//101
f 116//116 101//101 119//119
f 112//112 107//107 111//111
f 111//111 121//120 112//112
f 119//119 101//101 99//100
f 120//121 116//116 119//119
f 117//117 103//103 112//112
f 113//113 110//110 122//122
f 123//123 118//118 114//114
f 114//114 108//108 109//109
f 114//114 109//109 123//123
f 116//116 120//121 115//115
f 115//115 124//124 111//111
f 124//124 121//120 111//111
f 121//120 117//117 112//112
f 125//125 109//109 117//117
f 122//122 110//110 118//118
f 124//124 126//126 121//120
f 117//117 121//120 127//127
f 99//100 113//113 128//128
f 125//125 117//117 127//127
f 123//123 109//109 125//125
f 123//123 129//129 118//118
f 129//129 122//122 118//118
f 120//121 130//130 115//115
f 128//128 119//119 99//100
f 128//128 120//121 119//119
f 122//122 128//128 113//113
f 124//124 115//115 130//130
f 124//124 130//130 126//126
f 125//125 132//131 123//123
f 122//122 129//129 131//132
f 129//129 123//123 132//131
f 129//129 132//131 131//132
f 126//126 133//133 121//120
f 127//127 134//134 125//125
f 131//132 135//135 122//122
f 131//132 132//131 136//136
f 137//137 136//136 132//131
f 130//130 120//121 138//138
f 130//130 138//138 126//126
f 139//139 140//140 120//121
f 128//128 139//139 120//121
f 120//121 140//140 138//138
f 141//141 140//140 139//139
f 121//120 142//142 127//127
f 133//133 142//142 121//120
f 128//128 122//122 139//139
f 135//135 139//139 122//122
f 143//143 139//139 135//135
f 127//127 142//142 134//134
f 144//144 131//132 136//136
f 132//131 125//125 137//137
f 137//137 125//125 134//134
f 144//144 135//135 131//132
f 136//136 137//137 145//145
f 146//146 142//142 133//133
f 143//143 135//135 147//147
f 148//148 143//143 147//147
f 134//134 142//142 149//149
f 147//147 135//135 144//144
f 150//150 148//148 147//147
f 150//150 147//147 144//144
f 144//144 136//136 151//151
f 151//151 136//136 152//152
f 145//145 152//152 136//136
f 138//138 140//140 153//153
f 138//138 153//153 154//154
f 140//140 141//141 153//153
f 141//141 139//139 155//155
f 156//156 155//155 139//139
f 143//143 148//148 139//139
f 148//148 156//156 139//139
f 172//157 149//149 142//142
f 151//151 150//150 144//144
f 134//134 157//158 137//137
f 137//137 157//158 145//145
f 157//158 134//134 149//149
f 157//158 149//149 158//159
f 151//151 159//160 150//150
f 152//152 160//161 151//151
f 145//145 157//158 152//152
f 161//162 152//152 157//158
f 158//159 161//162 157//158
f 138//138 154//154 126//126
f 146//146 126//126 154//154
f 146//146 133//133 126//126
f 153//153 141//141 155//155
f 150//150 156//156 148//148
f 150//150 162//163 156//156
f 155//155 156//156 162//163
f 162//163 150//150 163//164
f 164//165 161//162 158//159
f 164//165 165//166 161//162
f 149//149 172//157 158//159
f 164//165 158//159 172//157
f 159//160 163//164 150//150
f 163//164 159//160 166//167
f 151//151 167//168 159//160
f 161//162 165//166 160//161
f 152//152 161//162 160//161
f 168//169 166//167 159//160
f 169//170 167//168 151//151
f 159//160 169//170 168//169
f 169//170 160//161 168//169
f 151//151 160//161 169//170
f 170//171 146//146 154//154
f 170//171 154//154 153//153
f 170//171 174//172 146//146
f 172//157 146//146 174//172
f 153//153 155//155 173//173
f 153//153 173//173 170//171
f 170//171 175//174 171//175
f 146//146 172//157 142//142
f 155//155 162//163 173//173
f 170//171 173//173 175//174
f 174//172 164//165 172//157
f 175//174 162//163 163//164
f 173//173 162//163 175//174
f 175//174 177//176 171//175
f 177//176 165//166 164//165
f 166//167 176//177 163//164
f 163//164 176//177 175//174
f 175//174 176//177 177//176
f 164//165 171//175 177//176
f 168//169 176//177 166//167
f 176//177 168//169 177//176
f 160//161 165//166 168//169
f 165//166 177//176 168//169
f 170//171 171//175 174//172
f 174//172 171//175 164//165
