# Blender v2.78 (sub 0) OBJ File: 'exporter.blend'
# www.blender.org
o FJ3381.obj_grp1.2020
v -0.479286 -0.524114 1.778423
v -0.476110 -0.522645 1.771917
v -0.466213 -0.518174 1.768240
v -0.455606 -0.517705 1.743372
v -0.457568 -0.517734 1.743533
v -0.473458 -0.548099 1.794202
v -0.480233 -0.535154 1.805141
v -0.467953 -0.539669 1.840569
v -0.480204 -0.534512 1.805003
v -0.472842 -0.536575 1.818799
v -0.480204 -0.534512 1.805003
v -0.473143 -0.536168 1.819156
v -0.472459 -0.542483 1.832118
v -0.430097 -0.573745 1.813987
v -0.467569 -0.540154 1.840542
v -0.426346 -0.575128 1.840074
v -0.433896 -0.550419 1.873033
v -0.451826 -0.511114 1.748330
v -0.417251 -0.529278 1.712180
v -0.419723 -0.521313 1.790446
v -0.436630 -0.542220 1.873253
v -0.402174 -0.524439 1.876888
v -0.429721 -0.542655 1.875090
v -0.451977 -0.510684 1.748398
v -0.431020 -0.502658 1.738387
v -0.431020 -0.502658 1.738387
v -0.391526 -0.490371 1.772343
v -0.396970 -0.514665 1.812015
v -0.347904 -0.573537 1.811736
v -0.400275 -0.528958 1.881587
v -0.402346 -0.524165 1.876986
v -0.380134 -0.518631 1.883297
v -0.305465 -0.554671 1.831308
v -0.414790 -0.506757 1.706956
v -0.403507 -0.516590 1.695757
v -0.391350 -0.478820 1.740617
v -0.372468 -0.496115 1.810076
v -0.385311 -0.513916 1.873625
v -0.378042 -0.517170 1.879934
v -0.389295 -0.507972 1.696687
v -0.381497 -0.485810 1.730287
v -0.355503 -0.541136 1.735640
v -0.347248 -0.488946 1.801806
v -0.367790 -0.507382 1.873331
v -0.359515 -0.517181 1.873800
v -0.381954 -0.508246 1.698204
v -0.369585 -0.508465 1.703239
v -0.354459 -0.473657 1.748033
v -0.323859 -0.511583 1.844499
v -0.332023 -0.515858 1.722307
v -0.326633 -0.481101 1.752387
v -0.325843 -0.480505 1.751824
v -0.302208 -0.504499 1.745118
v -0.287470 -0.542459 1.817606
v -0.286647 -0.547159 1.807942
v -0.286680 -0.520302 1.765582
v -0.284460 -0.537746 1.779189
v -0.286514 -0.547214 1.797558
v -0.286963 -0.546506 1.797764
vn -0.2562 0.9557 0.1446
vn -0.5808 0.7344 -0.3511
vn -0.4252 0.8996 0.0998
vn -0.6796 -0.6924 -0.2423
vn -0.9483 -0.2715 0.1642
vn -0.7481 -0.4891 -0.4486
vn -0.6903 0.5708 0.4446
vn -0.4383 0.8500 0.2922
vn -0.1056 -0.9847 -0.1385
vn -0.8798 0.1376 0.4550
vn -0.6439 0.6789 0.3529
vn -0.9348 -0.1904 0.2999
vn -0.6674 -0.4788 0.5704
vn -0.2911 -0.5255 0.7995
vn -0.1849 -0.9244 0.3337
vn -0.6262 0.6651 -0.4068
vn -0.6131 -0.5347 -0.5815
vn -0.3440 -0.6891 -0.6379
vn -0.2377 -0.9539 -0.1832
vn -0.3395 0.8755 0.3438
vn -0.5010 -0.2200 0.8370
vn -0.4319 0.8946 0.1149
vn -0.4493 0.7628 0.4650
vn -0.1996 -0.0253 0.9795
vn -0.5055 0.7698 -0.3898
vn -0.2508 0.9036 0.3471
vn -0.3743 0.8504 0.3699
vn -0.4808 0.8522 0.2061
vn -0.3099 0.5348 0.7861
vn -0.3006 0.5898 0.7495
vn 0.2446 -0.4300 0.8691
vn 0.5604 -0.5884 0.5828
vn -0.5205 0.5093 -0.6854
vn -0.1966 -0.2161 -0.9564
vn -0.3793 0.9177 0.1181
vn -0.2783 0.9550 -0.1029
vn -0.3590 0.8981 0.2541
vn 0.1950 -0.9803 -0.0307
vn -0.4129 0.8402 0.3515
vn -0.2774 0.6853 0.6734
vn 0.0287 0.3949 -0.9183
vn 0.1031 0.8039 -0.5857
vn 0.2060 -0.8248 -0.5265
vn 0.1929 0.9275 0.3203
vn 0.1477 0.7832 0.6039
vn 0.5287 0.0846 0.8446
vn 0.3131 -0.4992 -0.8080
vn 0.1111 0.9657 -0.2346
vn 0.5907 0.5576 0.5833
vn 0.4873 -0.0406 -0.8723
vn 0.4323 0.2223 -0.8739
vn 0.2665 0.8515 -0.4516
vn 0.2788 0.8260 0.4899
vn 0.7489 0.3311 -0.5741
vn 0.9015 0.0784 0.4257
vn 0.8923 -0.4466 0.0653
vn 0.9354 0.2012 -0.2908
vn 0.8521 -0.4587 -0.2519
vn 0.9912 -0.1231 0.0481
vn 0.3176 -0.9193 -0.2323
s 1
f 3//1 4//2 2//3
f 6//4 7//5 1//6
f 3//1 2//3 8//7
f 8//7 2//3 9//8
f 10//9 8//7 9//8
f 11//10 7//5 12//11
f 6//4 13//12 7//5
f 12//11 7//5 13//12
f 10//9 13//12 8//7
f 15//13 8//7 13//12
f 13//12 17//14 15//13
f 13//12 6//4 16//15
f 13//12 16//15 17//14
f 18//16 4//2 3//1
f 6//4 1//6 5//17
f 6//4 5//17 19//18
f 19//18 14//19 6//4
f 20//20 3//1 8//7
f 14//19 16//15 6//4
f 17//14 21//21 15//13
f 22//22 20//20 8//7
f 22//22 8//7 21//23
f 21//21 17//14 23//24
f 18//16 26//25 4//2
f 20//20 24//26 3//1
f 20//20 27//27 24//26
f 28//28 20//20 22//22
f 21//21 30//29 31//30
f 30//29 21//21 23//24
f 32//31 23//24 17//14
f 16//15 33//32 17//14
f 26//25 34//33 4//2
f 5//17 34//33 35//34
f 25//35 24//26 27//27
f 25//35 27//27 36//36
f 28//28 37//37 20//20
f 27//27 20//20 37//37
f 29//38 16//15 14//19
f 29//38 33//32 16//15
f 28//28 22//22 38//39
f 32//31 17//14 33//32
f 38//39 31//30 30//29
f 39//40 38//39 30//29
f 40//41 36//36 41//42
f 19//18 5//17 35//34
f 36//36 34//33 26//25
f 34//33 36//36 40//41
f 35//34 34//33 40//41
f 19//18 42//43 29//38
f 43//44 36//36 27//27
f 43//44 27//27 37//37
f 37//37 28//28 38//39
f 37//37 38//39 44//45
f 39//40 44//45 38//39
f 45//46 44//45 32//31
f 40//41 46//47 35//34
f 41//42 36//36 48//48
f 35//34 42//43 19//18
f 19//18 29//38 14//19
f 36//36 43//44 48//48
f 43//44 37//37 44//45
f 44//45 49//49 43//44
f 33//32 45//46 32//31
f 41//42 50//50 47//51
f 46//47 50//50 35//34
f 47//51 40//41 41//42
f 50//50 46//47 47//51
f 52//52 41//42 48//48
f 41//42 52//52 50//50
f 35//34 50//50 42//43
f 49//49 44//45 45//46
f 51//53 52//52 48//48
f 52//52 53//54 50//50
f 51//53 48//48 43//44
f 54//55 49//49 33//32
f 54//55 43//44 49//49
f 54//55 33//32 55//56
f 33//32 49//49 45//46
f 56//57 51//53 54//55
f 56//57 50//50 53//54
f 56//57 53//54 51//53
f 43//44 54//55 51//53
f 57//58 29//38 42//43
f 50//50 57//58 42//43
f 57//58 50//50 56//57
f 59//59 57//58 54//55
f 57//58 56//57 54//55
f 57//58 58//60 29//38
f 54//55 55//56 59//59
f 58//60 33//32 29//38
f 58//60 55//56 33//32
