# Blender v2.78 (sub 0) OBJ File: 'exporter.blend'
# www.blender.org
o FJ3315.obj_grp1.1955
v 0.671687 -0.724644 -0.306542
v 0.670568 -0.728965 -0.311118
v 0.672568 -0.729844 -0.296492
v 0.671500 -0.730427 -0.297947
v 0.676247 -0.739350 -0.304873
v 0.678359 -0.729352 -0.291725
v 0.678629 -0.734804 -0.292338
v 0.690061 -0.727808 -0.284679
v 0.690448 -0.728146 -0.284924
v 0.709121 -0.731706 -0.281385
v 0.700485 -0.720564 -0.284012
v 0.700485 -0.720564 -0.284012
v 0.691898 -0.743835 -0.317245
v 0.693830 -0.730867 -0.326893
v 0.693811 -0.721479 -0.326787
v 0.714400 -0.751262 -0.289212
v 0.696715 -0.751740 -0.303267
v 0.681868 -0.717092 -0.314813
v 0.694105 -0.712456 -0.319777
v 0.710289 -0.712038 -0.286003
v 0.717218 -0.698846 -0.298207
v 0.694235 -0.712420 -0.319802
v 0.722336 -0.721988 -0.287522
v 0.703890 -0.708574 -0.318014
v 0.717447 -0.700550 -0.314246
v 0.719553 -0.699347 -0.304554
v 0.717228 -0.698826 -0.296908
v 0.710621 -0.766012 -0.313338
v 0.699620 -0.740979 -0.320298
v 0.713663 -0.715304 -0.323412
v 0.727085 -0.786702 -0.302609
v 0.721126 -0.727629 -0.315650
v 0.727772 -0.711716 -0.310226
v 0.717650 -0.766412 -0.316473
v 0.734739 -0.805720 -0.305108
v 0.725662 -0.746370 -0.310731
v 0.724259 -0.730110 -0.310681
v 0.733429 -0.745084 -0.299229
v 0.738131 -0.793283 -0.299828
v 0.748324 -0.776733 -0.316439
v 0.752991 -0.792641 -0.301476
v 0.725662 -0.746370 -0.310731
v 0.733624 -0.745098 -0.299220
v 0.725662 -0.746370 -0.310731
v 0.720639 -0.780608 -0.313505
v 0.721812 -0.782850 -0.314059
v 0.731645 -0.794791 -0.321479
v 0.746319 -0.768304 -0.304012
v 0.737097 -0.815233 -0.321696
v 0.740067 -0.817263 -0.316148
v 0.734638 -0.805813 -0.305039
v 0.744287 -0.810523 -0.300227
v 0.749648 -0.812167 -0.301763
v 0.753682 -0.801108 -0.322741
v 0.756666 -0.782646 -0.310540
v 0.746319 -0.768304 -0.304012
v 0.761786 -0.791532 -0.306316
v 0.736018 -0.807069 -0.327018
v 0.734976 -0.799114 -0.325774
v 0.734916 -0.798990 -0.326145
v 0.740138 -0.817019 -0.316453
v 0.766476 -0.805479 -0.304304
v 0.759367 -0.794182 -0.326396
v 0.758499 -0.789096 -0.322993
v 0.758498 -0.789121 -0.322958
v 0.772351 -0.804520 -0.318886
v 0.754853 -0.805382 -0.323012
v 0.754853 -0.805382 -0.323012
v 0.759093 -0.803579 -0.324133
v 0.762172 -0.807687 -0.303172
v 0.759388 -0.794190 -0.326150
v 0.764888 -0.796582 -0.326524
v 0.771857 -0.795838 -0.317565
v 0.763867 -0.795213 -0.327215
v 0.773055 -0.804831 -0.312135
v 0.764956 -0.799241 -0.327728
v 0.764956 -0.799241 -0.327728
v 0.763867 -0.795213 -0.327215
v 0.769291 -0.800646 -0.321440
v 0.770286 -0.800843 -0.324465
v 0.770922 -0.801619 -0.324895
vn -0.7326 0.6728 0.1030
vn -0.9167 -0.0590 -0.3952
vn -0.7155 0.5948 0.3664
vn -0.7320 -0.6800 -0.0429
vn -0.8081 -0.4368 0.3951
vn -0.4038 0.7853 0.4694
vn -0.4317 0.8420 0.3235
vn -0.5823 -0.4391 0.6842
vn -0.3180 -0.1878 0.9293
vn 0.0074 -0.1382 0.9904
vn -0.1053 0.2177 0.9703
vn -0.4350 -0.6123 -0.6602
vn -0.0933 -0.2582 -0.9616
vn -0.2291 0.2948 -0.9277
vn -0.4727 -0.5233 0.7090
vn -0.6355 -0.7303 0.2506
vn -0.3431 0.8621 -0.3729
vn -0.5774 0.7996 -0.1651
vn -0.3434 0.9341 -0.0979
vn -0.1090 0.6342 0.7655
vn -0.5401 0.6981 0.4700
vn -0.7341 0.6683 0.1204
vn -0.0084 0.8756 0.4830
vn -0.3464 0.7315 -0.5872
vn 0.2187 0.8354 -0.5043
vn 0.6601 0.2862 0.6945
vn 0.5215 0.8533 -0.0006
vn -0.6052 -0.4734 -0.6400
vn 0.1392 -0.3524 -0.9255
vn 0.3585 0.1574 -0.9202
vn -0.3465 -0.3044 0.8873
vn 0.6218 -0.3467 -0.7023
vn 0.9155 0.3045 -0.2629
vn -0.8117 -0.5172 0.2713
vn -0.0968 -0.0993 -0.9903
vn 0.2576 0.1395 -0.9561
vn 0.6784 -0.1541 -0.7184
vn 0.9606 0.2752 -0.0391
vn -0.7256 -0.3143 -0.6122
vn -0.1629 -0.2469 0.9553
vn -0.2035 0.2164 -0.9548
vn 0.3603 0.0160 0.9327
vn 0.8228 0.0728 -0.5637
vn 0.7533 0.5492 -0.3619
vn 0.7037 0.6541 -0.2774
vn 0.6420 0.5746 -0.5076
vn -0.8365 -0.5232 -0.1630
vn 0.7633 0.5829 -0.2788
vn -0.5086 -0.7431 -0.4348
vn -0.4814 0.1636 -0.8611
vn -0.1398 -0.9834 0.1161
vn -0.4754 -0.2214 0.8514
vn -0.1733 -0.5117 0.8415
vn -0.1452 0.1188 -0.9823
vn 0.7058 0.7008 -0.1040
vn 0.8312 0.5406 0.1297
vn 0.5991 0.3597 0.7154
vn -0.4169 -0.3034 -0.8568
vn -0.7827 0.0033 -0.6224
vn 0.1733 -0.7721 0.6115
vn 0.4743 -0.8115 -0.3414
vn 0.2258 0.5499 -0.8041
vn 0.5898 -0.3129 0.7445
vn 0.4943 0.5321 -0.6874
vn 0.8379 0.5150 -0.1808
vn 0.7697 -0.5674 -0.2925
vn 0.2031 -0.2913 -0.9348
vn -0.1118 -0.5425 -0.8326
vn -0.2516 -0.0083 -0.9678
vn 0.8977 -0.3498 0.2681
vn 0.3913 -0.8930 0.2222
vn -0.4354 -0.0712 -0.8974
vn 0.1632 0.5403 -0.8255
vn 0.1195 0.5777 -0.8075
vn 0.5790 0.6658 -0.4706
vn 0.8744 0.4837 -0.0381
vn -0.1242 -0.4367 -0.8910
vn -0.1625 0.0855 -0.9830
vn 0.8435 0.1782 -0.5067
vn 0.8178 0.2849 -0.5001
vn 0.8213 0.3530 -0.4481
vn 0.8081 0.4096 -0.4233
vn 0.1022 -0.8427 -0.5285
s 1
f 1//1 2//2 4//3
f 5//4 3//5 2//2
f 4//3 6//6 1//1
f 1//1 6//6 8//7
f 3//5 7//8 9//9
f 9//9 10//10 11//11
f 13//12 5//4 2//2
f 13//12 2//2 14//13
f 14//13 2//2 15//14
f 7//8 3//5 5//4
f 16//15 7//8 17//16
f 17//16 7//8 5//4
f 10//10 7//8 16//15
f 24//17 18//18 1//1
f 1//1 18//18 2//2
f 10//10 9//9 7//8
f 24//17 19//19 18//18
f 1//1 8//7 24//17
f 10//10 20//20 11//11
f 12//21 20//20 8//7
f 20//20 24//17 8//7
f 21//22 20//20 27//23
f 24//17 20//20 21//22
f 17//16 5//4 13//12
f 18//18 15//14 2//2
f 18//18 22//24 15//14
f 24//17 15//14 22//24
f 19//19 24//17 22//24
f 24//17 21//22 25//25
f 10//10 23//26 20//20
f 23//26 27//23 20//20
f 25//25 21//22 26//27
f 28//28 17//16 13//12
f 14//13 29//29 13//12
f 13//12 29//29 28//28
f 15//14 30//30 14//13
f 17//16 31//31 16//15
f 14//13 30//30 29//29
f 32//32 29//29 30//30
f 30//30 15//14 24//17
f 30//30 24//17 25//25
f 25//25 26//27 33//33
f 33//33 26//27 27//23
f 23//26 33//33 27//23
f 28//28 35//34 17//16
f 29//29 34//35 28//28
f 29//29 36//36 34//35
f 32//32 37//37 29//29
f 30//30 25//25 33//33
f 32//32 33//33 37//37
f 32//32 30//30 33//33
f 37//37 33//33 38//38
f 23//26 38//38 33//33
f 28//28 34//35 46//39
f 16//15 31//31 39//40
f 35//34 31//31 17//16
f 34//35 40//41 46//39
f 10//10 41//42 23//26
f 10//10 16//15 39//40
f 39//40 41//42 10//10
f 29//29 37//37 36//36
f 37//37 38//38 42//43
f 34//35 36//36 40//41
f 43//44 40//45 44//46
f 35//34 45//47 46//39
f 45//47 35//34 28//28
f 38//38 23//26 41//42
f 48//48 40//45 43//44
f 49//49 46//39 47//50
f 35//34 49//49 50//51
f 39//40 31//31 51//52
f 39//40 51//52 52//53
f 35//34 50//51 52//53
f 35//34 46//39 49//49
f 40//41 47//50 46//39
f 47//50 40//41 54//54
f 48//48 55//55 40//45
f 56//56 57//57 55//55
f 57//57 38//38 41//42
f 58//58 47//50 59//59
f 49//49 47//50 58//58
f 53//60 52//53 50//51
f 53//60 50//51 61//61
f 60//62 47//50 54//54
f 54//54 58//58 60//62
f 62//63 52//53 53//60
f 41//42 39//40 62//63
f 52//53 62//63 39//40
f 57//57 41//42 62//63
f 40//45 55//55 64//64
f 64//64 55//55 65//65
f 66//66 53//60 61//61
f 66//66 61//61 49//49
f 67//67 58//58 54//54
f 49//49 58//58 67//67
f 66//66 67//67 69//68
f 68//69 54//54 69//68
f 66//66 49//49 67//67
f 75//70 53//60 66//66
f 70//71 53//60 75//70
f 54//54 40//41 63//72
f 71//73 64//64 72//74
f 72//75 65//65 73//76
f 54//54 63//72 69//68
f 75//70 57//57 62//63
f 71//73 40//45 64//64
f 73//76 65//65 55//55
f 57//57 73//76 55//55
f 75//70 73//76 57//57
f 76//77 69//68 63//72
f 76//77 63//72 74//78
f 77//79 78//80 79//81
f 73//76 80//82 72//75
f 73//76 66//66 80//82
f 66//66 69//68 81//83
f 69//68 76//77 81//83
f 70//71 75//70 62//63
f 66//66 73//76 75//70
