# Blender v2.78 (sub 0) OBJ File: 'exporter.blend'
# www.blender.org
o FJ3311.obj_grp1.1951
v 0.586278 -0.843992 -0.297227
v 0.593354 -0.840759 -0.310722
v 0.589501 -0.837749 -0.302133
v 0.608099 -0.842055 -0.313315
v 0.607438 -0.831095 -0.310163
v 0.600202 -0.830403 -0.306128
v 0.591763 -0.857900 -0.279184
v 0.588367 -0.848808 -0.290270
v 0.587522 -0.843725 -0.297535
v 0.589359 -0.848991 -0.287408
v 0.623226 -0.872252 -0.304491
v 0.614320 -0.837498 -0.289228
v 0.614838 -0.825716 -0.302061
v 0.615873 -0.834191 -0.308344
v 0.612531 -0.828742 -0.306801
v 0.612531 -0.828742 -0.306801
v 0.623875 -0.825582 -0.304803
v 0.623010 -0.884954 -0.293841
v 0.591417 -0.852264 -0.274346
v 0.590635 -0.852126 -0.275452
v 0.592551 -0.851525 -0.271946
v 0.595898 -0.850131 -0.269439
v 0.630107 -0.879830 -0.303838
v 0.628192 -0.836168 -0.305646
v 0.627669 -0.829577 -0.280402
v 0.634342 -0.834094 -0.303898
v 0.625507 -0.821324 -0.286999
v 0.624376 -0.819761 -0.295869
v 0.624376 -0.819761 -0.295869
v 0.633781 -0.824628 -0.299470
v 0.626673 -0.819737 -0.289077
v 0.592011 -0.854030 -0.272296
v 0.598834 -0.851041 -0.266141
v 0.636606 -0.898081 -0.302437
v 0.611176 -0.844820 -0.263745
v 0.636089 -0.846126 -0.298353
v 0.631612 -0.839262 -0.275325
v 0.627726 -0.829342 -0.280511
v 0.619438 -0.880066 -0.272918
v 0.646099 -0.894727 -0.300961
v 0.612753 -0.848137 -0.261926
v 0.611193 -0.844520 -0.263618
v 0.638915 -0.869487 -0.297249
v 0.622152 -0.838888 -0.267736
v 0.636089 -0.846126 -0.298353
v 0.640539 -0.860777 -0.285717
v 0.622113 -0.839061 -0.268484
v 0.633295 -0.901199 -0.281233
v 0.668475 -0.939799 -0.288788
v 0.642802 -0.927677 -0.305278
v 0.650588 -0.887285 -0.285140
v 0.646642 -0.935776 -0.317480
v 0.646205 -0.935902 -0.317785
v 0.651520 -0.948536 -0.315268
v 0.651364 -0.950657 -0.309612
v 0.647487 -0.932531 -0.316598
v 0.648378 -0.921091 -0.307429
v 0.645501 -0.928221 -0.311487
v 0.642935 -0.920712 -0.306457
v 0.651824 -0.953194 -0.302898
v 0.663475 -0.934945 -0.310440
v 0.661384 -0.915419 -0.302653
v 0.664139 -0.909416 -0.292866
v 0.653855 -0.950822 -0.312136
v 0.653850 -0.950248 -0.312104
v 0.665388 -0.944159 -0.305296
v 0.678248 -0.921434 -0.307610
v 0.647231 -0.945425 -0.297525
v 0.667918 -0.922458 -0.287776
v 0.653257 -0.952229 -0.303223
v 0.653809 -0.953838 -0.303467
v 0.653257 -0.952229 -0.303223
v 0.658786 -0.950732 -0.299362
v 0.683319 -0.929837 -0.306854
v 0.667252 -0.921827 -0.287630
v 0.682843 -0.929747 -0.306373
v 0.684741 -0.933912 -0.302654
v 0.682514 -0.938488 -0.301560
v 0.680863 -0.940324 -0.293619
v 0.684514 -0.934141 -0.302691
v 0.682514 -0.938488 -0.301560
v 0.684516 -0.933962 -0.302597
vn -0.7291 -0.5112 -0.4550
vn -0.7867 0.6164 -0.0349
vn -0.6295 0.0217 -0.7767
vn 0.0095 0.6249 -0.7807
vn 0.1410 -0.0246 -0.9897
vn -0.4090 0.9030 -0.1315
vn -0.8123 -0.5782 0.0769
vn -0.9568 0.1149 0.2670
vn -0.7104 0.5434 0.4473
vn -0.5724 0.7351 0.3634
vn -0.5421 -0.5528 -0.6329
vn -0.4513 0.7870 0.4207
vn -0.3703 0.9289 0.0024
vn 0.3020 0.1086 -0.9471
vn 0.2221 0.3893 -0.8939
vn -0.1333 0.8615 -0.4900
vn 0.0879 0.5882 -0.8039
vn -0.7605 -0.5678 -0.3151
vn -0.7987 -0.2190 0.5605
vn -0.9567 0.0601 0.2847
vn -0.6789 0.6889 0.2539
vn -0.5828 0.7774 0.2364
vn -0.6092 0.6334 0.4772
vn 0.2083 0.0323 -0.9775
vn 0.3333 0.0141 -0.9427
vn -0.3698 0.5734 0.7310
vn 0.7414 0.0802 -0.6663
vn -0.5741 0.7873 0.2251
vn -0.3815 0.6547 0.6526
vn 0.2092 0.8999 -0.3827
vn 0.1653 0.9155 0.3667
vn 0.7515 0.5631 -0.3437
vn -0.4623 0.1115 0.8797
vn -0.2319 -0.0525 -0.9713
vn -0.6715 0.7387 -0.0584
vn 0.6571 -0.0684 -0.7507
vn 0.7452 0.2263 0.6273
vn 0.5780 0.4918 0.6512
vn -0.4509 -0.6070 0.6544
vn 0.1231 0.0885 0.9884
vn -0.5557 0.5730 0.6024
vn 0.7953 0.1671 -0.5827
vn 0.2425 0.5344 0.8097
vn 0.9730 0.1095 -0.2031
vn 0.9493 0.2359 0.2079
vn -0.0538 0.8836 0.4651
vn -0.7410 -0.5065 0.4407
vn 0.2158 -0.4533 0.8649
vn 0.5027 0.3432 -0.7934
vn -0.9105 -0.2490 -0.3301
vn 0.8757 0.4365 0.2065
vn 0.2235 0.3405 -0.9133
vn -0.7375 0.4596 -0.4948
vn -0.6113 0.5549 -0.5643
vn -0.1972 0.5955 -0.7788
vn -0.8270 -0.1418 -0.5441
vn -0.9384 -0.3341 -0.0880
vn -0.9358 -0.3365 -0.1054
vn 0.3837 0.2463 -0.8900
vn 0.3670 0.0746 -0.9272
vn 0.2032 0.5690 -0.7968
vn 0.7671 0.6411 -0.0243
vn -0.7084 -0.6778 -0.1967
vn -0.4584 -0.7220 -0.5183
vn 0.5382 -0.1974 -0.8194
vn 0.5113 -0.6677 -0.5411
vn 0.5986 -0.5611 -0.5717
vn 0.5204 0.6105 -0.5970
vn -0.2089 -0.5194 0.8286
vn 0.5379 0.1605 0.8276
vn -0.2317 -0.9584 -0.1668
vn 0.5263 -0.8256 -0.2033
vn -0.2552 -0.7352 0.6280
vn 0.2523 -0.9175 0.3075
vn 0.2912 -0.3043 -0.9070
vn 0.3362 -0.0510 0.9404
vn 0.7748 0.4563 0.4375
vn 0.8594 0.5079 0.0595
vn 0.7439 -0.6681 0.0143
vn 0.7282 -0.4419 0.5238
vn 0.4372 -0.4857 -0.7569
vn 0.6356 -0.4186 -0.6486
vn 0.9181 -0.3823 0.1041
s 1
f 1//1 3//2 2//3
f 5//4 4//5 2//3
f 2//3 3//2 6//6
f 2//3 6//6 5//4
f 1//1 7//7 8//8
f 9//9 8//8 10//10
f 11//11 1//1 2//3
f 3//2 10//10 6//6
f 10//10 12//12 6//6
f 9//9 10//10 3//2
f 13//13 6//6 12//12
f 14//14 4//5 5//4
f 14//14 5//4 15//15
f 5//4 6//6 16//16
f 13//13 16//16 6//6
f 16//16 13//13 17//17
f 18//18 7//7 1//1
f 32//19 8//8 7//7
f 8//8 19//20 10//10
f 19//20 8//8 32//19
f 20//21 21//22 10//10
f 10//10 21//22 22//23
f 4//5 23//24 2//3
f 4//5 14//14 23//24
f 24//25 14//14 17//17
f 25//26 13//13 12//12
f 14//14 15//15 17//17
f 24//25 17//17 26//27
f 28//28 13//13 27//29
f 13//13 29//30 17//17
f 31//31 28//28 27//29
f 13//13 25//26 27//29
f 30//32 17//17 29//30
f 30//32 29//30 31//31
f 32//19 22//23 19//20
f 33//33 22//23 32//19
f 34//34 18//18 11//11
f 18//18 1//1 11//11
f 10//10 22//23 35//35
f 12//12 10//10 35//35
f 35//35 22//23 33//33
f 23//24 14//14 24//25
f 26//27 36//36 24//25
f 31//31 37//37 30//32
f 38//38 31//31 27//29
f 31//31 38//38 37//37
f 26//27 17//17 30//32
f 39//39 32//19 7//7
f 32//19 39//39 33//33
f 23//24 34//34 11//11
f 41//40 42//41 33//33
f 39//39 41//40 33//33
f 23//24 24//25 43//42
f 12//12 35//35 25//26
f 25//26 35//35 42//41
f 41//40 44//43 42//41
f 37//37 44//43 41//40
f 43//42 24//25 36//36
f 43//42 45//44 46//45
f 30//32 46//45 45//44
f 37//37 38//38 25//26
f 47//46 25//26 42//41
f 47//46 37//37 25//26
f 44//43 47//46 42//41
f 45//44 26//27 30//32
f 30//32 37//37 46//45
f 18//18 39//39 7//7
f 18//18 48//47 39//39
f 49//48 39//39 48//47
f 40//49 34//34 23//24
f 40//49 23//24 43//42
f 41//40 46//45 37//37
f 34//34 50//50 18//18
f 49//48 41//40 39//39
f 43//42 51//51 40//49
f 46//45 51//51 43//42
f 46//45 41//40 51//51
f 57//52 56//53 53//54
f 53//54 58//55 57//52
f 50//50 59//56 53//57
f 53//57 60//58 50//50
f 52//59 57//52 61//60
f 50//50 34//34 59//56
f 57//52 58//55 34//34
f 18//18 50//50 60//58
f 48//47 18//18 60//58
f 57//52 62//61 61//60
f 57//52 40//49 62//61
f 34//34 40//49 57//52
f 62//61 40//49 63//62
f 63//62 40//49 51//51
f 55//63 53//57 64//64
f 52//59 61//60 54//65
f 61//60 66//66 54//65
f 65//67 54//65 66//66
f 55//63 60//58 53//57
f 67//68 61//60 62//61
f 49//48 48//47 68//69
f 63//62 67//68 62//61
f 51//51 69//70 63//62
f 64//64 70//71 55//63
f 66//66 71//72 65//67
f 72//73 73//74 68//69
f 71//72 66//66 73//74
f 74//75 66//66 61//60
f 74//75 61//60 67//68
f 51//51 41//40 69//70
f 75//76 41//40 49//48
f 77//77 76//78 67//68
f 67//68 63//62 77//77
f 68//69 73//74 49//48
f 78//79 79//80 66//66
f 73//74 66//66 79//80
f 73//74 79//80 49//48
f 69//70 49//48 79//80
f 69//70 75//76 49//48
f 66//66 74//75 81//81
f 80//82 81//81 74//75
f 63//62 69//70 77//77
f 69//70 79//80 77//77
f 78//79 82//83 79//80
