# Blender v2.78 (sub 0) OBJ File: 'exporter.blend'
# www.blender.org
o FJ3391.obj_grp1.2030
v -0.981984 -0.242520 4.739365
v -0.932798 -0.228687 4.870432
v -0.955404 -0.244029 4.802866
v -0.939539 -0.281121 4.828844
v -0.925719 -0.243847 4.900977
v -0.998554 -0.221387 4.796264
v -0.964465 -0.210651 4.881128
v -1.019457 -0.277332 4.608507
v -1.019457 -0.277332 4.608507
v -1.008114 -0.250424 4.683541
v -1.030788 -0.268430 4.600503
v -1.034898 -0.271324 4.599487
v -0.959172 -0.293438 4.794269
v -0.934169 -0.295858 4.820752
v -0.940356 -0.282980 4.833027
v -0.934197 -0.296729 4.820488
v -0.928844 -0.265322 4.900478
v -1.002852 -0.215625 4.856777
v -0.939256 -0.273825 4.924222
v -1.021761 -0.236198 4.918898
v -0.933925 -0.266471 4.917948
v -0.933925 -0.266471 4.917948
v -0.952523 -0.257187 4.935505
v -1.040357 -0.349872 4.401577
v -1.007374 -0.323956 4.592063
v -1.026205 -0.374384 4.418213
v -1.037827 -0.293458 4.542078
v -1.055417 -0.344414 4.407473
v -1.037761 -0.277875 4.765009
v -0.961855 -0.338723 4.759612
v -0.974413 -0.332071 4.730252
v -0.928439 -0.330310 4.807612
v -0.926784 -0.311202 4.816591
v -0.933583 -0.334136 4.792981
v -0.944992 -0.355164 4.809432
v -0.929179 -0.313038 4.815794
v -0.948576 -0.362772 4.807121
v -0.966343 -0.319638 4.819134
v -0.934374 -0.305200 4.821282
v -0.925644 -0.312012 4.819886
v -0.993267 -0.305814 4.841934
v -0.983758 -0.283944 4.867488
v -1.024126 -0.246451 4.886636
v -0.945839 -0.282331 4.933521
v -0.954003 -0.284323 4.939376
v -0.969614 -0.267710 4.940857
v -1.101873 -0.520732 3.783897
v -1.106739 -0.515672 3.786098
v -1.103913 -0.506006 3.803219
v -1.098410 -0.505802 3.814506
v -1.082303 -0.491880 3.918207
v -1.081886 -0.528728 3.825556
v -1.112447 -0.506314 3.810017
v -1.088224 -0.481793 3.938735
v -1.098988 -0.506114 3.813861
v -1.077614 -0.522564 3.907852
v -1.048972 -0.472737 4.081671
v -1.050150 -0.434603 4.137786
v -1.095494 -0.455685 4.100253
v -1.039362 -0.428316 4.294899
v -1.053649 -0.391035 4.249799
v -1.052727 -0.392571 4.252250
v -1.091364 -0.402814 4.386314
v -1.055417 -0.344414 4.407473
v -1.041699 -0.365492 4.536226
v -1.016309 -0.351419 4.565226
v -1.017053 -0.351249 4.562185
v -1.010957 -0.345782 4.601247
v -1.053557 -0.297142 4.711271
v -1.086277 -0.356305 4.515360
v -0.989111 -0.333407 4.693750
v -0.988932 -0.333675 4.693338
v -1.005144 -0.338917 4.726309
v -0.971154 -0.334351 4.742181
v -0.982369 -0.341354 4.743918
v -0.965115 -0.350343 4.780932
v -0.982369 -0.341354 4.743918
v -1.002158 -0.342679 4.774469
v -0.952586 -0.369950 4.813492
v -0.965234 -0.375060 4.820148
v -1.028443 -0.279584 4.815041
v -0.995692 -0.324384 4.837831
v -0.994502 -0.309366 4.840486
v -1.018043 -0.278977 4.837651
v -0.986002 -0.280982 4.900104
v -0.976067 -0.293625 4.933310
v -0.991252 -0.291358 4.934840
v -0.991493 -0.290512 4.935125
v -1.011462 -0.266734 4.936557
v -1.005734 -0.261041 4.939074
v -1.006904 -0.260158 4.939768
v -1.106110 -0.529650 3.776965
v -1.116404 -0.531239 3.783905
v -1.102386 -0.538036 3.805063
v -1.081886 -0.528728 3.825556
v -1.112945 -0.536300 3.799210
v -1.106739 -0.515672 3.786098
v -1.106509 -0.526615 3.779985
v -1.102068 -0.520846 3.783962
v -1.106509 -0.526615 3.779985
v -1.110762 -0.531521 3.780506
v -1.114725 -0.529667 3.786438
v -1.121706 -0.523146 3.801618
v -1.099908 -0.547098 3.811571
v -1.102420 -0.537915 3.805111
v -1.081886 -0.528728 3.825556
v -1.102420 -0.537915 3.805111
v -1.110736 -0.541485 3.806333
v -1.120385 -0.536504 3.807384
v -1.099908 -0.547098 3.811571
v -1.103913 -0.506006 3.803219
v -1.126743 -0.518325 3.817143
v -1.120748 -0.536915 3.807233
v -1.126785 -0.525587 3.809195
v -1.126734 -0.518355 3.817142
v -1.125414 -0.504137 3.886665
v -1.110449 -0.576295 3.834209
v -1.080167 -0.522517 3.892959
v -1.111976 -0.545412 3.893214
v -1.062187 -0.498822 4.061946
v -1.092248 -0.471032 4.145451
v -1.091288 -0.444652 4.241324
v -1.083023 -0.390019 4.458987
v -1.074309 -0.340698 4.580709
v -1.090662 -0.388279 4.449643
v -1.026013 -0.338518 4.704530
v -1.014583 -0.344777 4.629266
v -1.022248 -0.340977 4.704443
v -1.051916 -0.311660 4.709947
v -1.013173 -0.347053 4.730310
v -1.023864 -0.345526 4.772647
v -1.027070 -0.359908 4.821411
v -1.049552 -0.283907 4.797463
v -1.040517 -0.312840 4.789546
v -0.957369 -0.371345 4.818062
v -0.952586 -0.369950 4.813492
v -0.969377 -0.374319 4.825324
v -0.964913 -0.375705 4.820186
v -1.017979 -0.331632 4.830850
v -0.992795 -0.349558 4.843431
v -0.993704 -0.378258 4.859313
v -1.102697 -0.561403 3.817626
v -1.102697 -0.561403 3.817626
v -1.123172 -0.574529 3.818223
v -1.118786 -0.578130 3.823037
v -1.126809 -0.525614 3.809160
v -1.127411 -0.524484 3.808411
v -1.146728 -0.534368 3.808380
v -1.160602 -0.534078 3.825045
v -1.157229 -0.540870 3.814200
v -1.133911 -0.518754 3.904143
v -1.129452 -0.540936 3.901326
v -1.122396 -0.531611 3.924429
v -1.098514 -0.506367 4.040005
v -1.086591 -0.417480 4.378395
v -1.074309 -0.340698 4.580709
v -1.039486 -0.341948 4.791343
v -0.977609 -0.377590 4.833069
v -1.020319 -0.368028 4.839654
v -0.977609 -0.377590 4.833069
v -0.998983 -0.379573 4.855031
v -0.985266 -0.378779 4.850580
v -0.993725 -0.377457 4.856401
v -1.022250 -0.367780 4.842715
v -1.138612 -0.577401 3.826757
v -1.128253 -0.578619 3.848971
v -1.137963 -0.577087 3.827096
v -1.148435 -0.567121 3.855224
v -1.163098 -0.531628 3.831562
v -1.003481 -0.376209 4.855819
v -1.013044 -0.371024 4.846918
v -1.013044 -0.371024 4.846918
v -1.026373 -0.367088 4.837930
v -1.025979 -0.367664 4.839218
v -0.999957 -0.376821 4.855729
v -1.020644 -0.368992 4.839454
v -1.025111 -0.367579 4.839476
v -1.013044 -0.371024 4.846918
vn 0.6207 0.7106 -0.3313
vn 0.8096 0.5795 -0.0937
vn 0.9395 0.1863 -0.2876
vn 0.9699 0.1461 -0.1948
vn 0.8604 0.3706 0.3498
vn -0.2754 0.9398 -0.2024
vn 0.1993 0.9541 0.2235
vn 0.9013 0.2997 -0.3127
vn 0.7421 0.5956 -0.3074
vn 0.2857 0.9095 -0.3019
vn 0.7120 0.6656 -0.2239
vn -0.8230 0.5677 -0.0188
vn 0.6255 0.5310 -0.5717
vn 0.8724 0.1567 -0.4630
vn 0.7862 -0.5159 0.3403
vn 0.8624 0.5005 -0.0764
vn 0.8530 -0.5213 0.0260
vn -0.5649 0.8244 -0.0351
vn -0.7297 0.5221 0.4414
vn 0.8492 -0.4671 0.2462
vn 0.4202 -0.8554 -0.3027
vn 0.6483 0.2703 0.7118
vn 0.3795 0.4521 0.8072
vn 0.6908 0.6641 -0.2859
vn 0.9839 0.0207 -0.1774
vn 0.9933 -0.1035 -0.0521
vn 0.0856 0.9296 -0.3584
vn -0.6892 0.6991 -0.1903
vn 0.7621 -0.4052 -0.5050
vn 0.9422 -0.1911 -0.2753
vn 0.9575 -0.2100 0.1979
vn 0.8129 -0.1166 -0.5706
vn 0.7019 0.4085 -0.5835
vn 0.6743 -0.3805 0.6329
vn 0.5492 -0.3049 0.7781
vn 0.6837 -0.6797 -0.2658
vn -0.7415 0.6708 -0.0163
vn 0.1455 -0.3420 0.9283
vn 0.8310 0.5469 -0.1020
vn 0.4062 -0.2272 0.8851
vn 0.7791 -0.5061 0.3700
vn -0.1822 -0.9097 0.3731
vn -0.9965 -0.0833 0.0052
vn 0.7496 -0.5967 0.2866
vn 0.3388 -0.5141 0.7880
vn 0.0231 0.0799 0.9965
vn 0.5170 0.7054 -0.4849
vn 0.7045 0.5935 -0.3891
vn 0.8989 0.2514 -0.3589
vn 0.9527 0.2418 -0.1841
vn 0.8000 0.5556 -0.2264
vn 0.8703 0.4191 -0.2587
vn -0.4144 0.8704 -0.2658
vn 0.0473 0.9577 -0.2838
vn -0.0359 0.9856 -0.1651
vn 0.9971 -0.0151 -0.0747
vn 0.9933 -0.0346 -0.1103
vn 0.7999 0.5572 -0.2228
vn -0.6952 0.7065 -0.1325
vn 0.4474 0.8481 -0.2838
vn 0.5896 -0.7929 0.1541
vn -0.9940 0.1089 -0.0077
vn 0.2025 0.9203 -0.3346
vn 0.0370 -0.9690 0.2442
vn 0.3725 -0.9235 0.0916
vn 0.9451 -0.3243 -0.0395
vn 0.3485 -0.9303 0.1145
vn -0.9660 0.2402 0.0959
vn -0.9977 0.0662 0.0153
vn 0.4750 -0.8559 -0.2044
vn 0.2352 -0.9706 0.0512
vn 0.2759 -0.9607 -0.0307
vn 0.3114 -0.9468 -0.0809
vn 0.5920 -0.7402 -0.3188
vn 0.4302 -0.8390 -0.3331
vn 0.0434 -0.9169 -0.3969
vn -0.0727 -0.9899 -0.1214
vn -0.0846 -0.9789 -0.1859
vn 0.4482 -0.0720 0.8911
vn 0.6328 0.1133 0.7659
vn 0.1214 -0.0373 0.9919
vn -0.8555 0.3088 0.4156
vn -0.3315 -0.2952 0.8961
vn -0.9054 -0.0623 0.4200
vn -0.3338 -0.9380 -0.0931
vn 0.1013 -0.9603 0.2601
vn -0.5211 -0.7893 -0.3246
vn -0.0357 -0.2099 0.9771
vn -0.7349 -0.3747 0.5653
vn 0.0024 -0.3360 0.9419
vn -0.2317 0.1738 0.9571
vn 0.9137 -0.0676 -0.4006
vn -0.6867 -0.4455 -0.5744
vn 0.1325 -0.9566 -0.2596
vn 0.4569 -0.8174 -0.3508
vn 0.6332 -0.7114 -0.3049
vn -0.1130 -0.9152 -0.3870
vn -0.5025 0.5695 -0.6506
vn -0.2595 0.4694 -0.8440
vn 0.1425 0.4850 -0.8628
vn -0.6432 0.4949 -0.5843
vn -0.6742 0.4799 -0.5614
vn -0.6205 0.5176 -0.5891
vn 0.7587 -0.3068 -0.5747
vn 0.7368 -0.2424 -0.6311
vn 0.8454 -0.4591 -0.2730
vn 0.1643 -0.6684 -0.7254
vn 0.0184 -0.5799 -0.8145
vn -0.4998 -0.3123 -0.8079
vn 0.1665 -0.4811 -0.8607
vn -0.1837 0.9551 -0.2326
vn -0.8684 0.1874 -0.4591
vn -0.7544 0.5164 -0.4052
vn -0.8050 0.4401 -0.3979
vn -0.5472 0.7756 -0.3146
vn -0.6022 0.7983 -0.0088
vn 0.5482 -0.8347 0.0530
vn 0.6244 -0.7597 0.1817
vn -0.9111 0.4115 -0.0229
vn 0.4632 -0.8659 0.1890
vn 0.3008 -0.8877 0.3487
vn -0.5463 -0.7653 0.3405
vn -0.7258 -0.6641 0.1795
vn -0.0138 -0.9748 0.2228
vn -0.4743 -0.8551 0.2094
vn -0.3806 -0.8785 0.2887
vn -0.3570 -0.8787 0.3169
vn -0.8976 -0.4011 0.1827
vn -0.5824 -0.8093 0.0765
vn -0.5470 -0.8370 -0.0135
vn -0.2474 -0.9683 -0.0348
vn -0.9091 -0.3834 0.1628
vn 0.2583 -0.9656 -0.0304
vn -0.4512 -0.8687 -0.2044
vn -0.8068 -0.5828 -0.0968
vn -0.8379 0.4305 0.3356
vn -0.9322 -0.3409 0.1215
vn 0.8949 -0.4414 0.0660
vn 0.2681 -0.8137 -0.5158
vn 0.7571 0.0582 0.6506
vn -0.1513 -0.8373 -0.5253
vn 0.2083 0.3315 0.9202
vn 0.2803 0.4435 0.8513
vn -0.6250 0.0811 0.7764
vn 0.8018 -0.5367 -0.2628
vn 0.2287 -0.4290 -0.8739
vn -0.0484 -0.6504 -0.7581
vn 0.2707 -0.9560 -0.1131
vn 0.1514 -0.7002 -0.6977
vn -0.4063 -0.1621 -0.8992
vn -0.3779 -0.3147 -0.8707
vn -0.3904 0.2788 -0.8774
vn -0.4361 0.7559 -0.4882
vn -0.3861 0.8618 -0.3289
vn -0.7940 -0.0932 -0.6008
vn -0.5949 -0.6638 0.4533
vn -0.9647 0.1411 0.2225
vn -0.8647 -0.3929 0.3129
vn -0.7987 -0.5356 0.2742
vn -0.9255 -0.3671 -0.0935
vn -0.1955 -0.9008 -0.3877
vn -0.7041 -0.0996 -0.7031
vn -0.1987 -0.8787 0.4341
vn 0.0660 -0.9954 0.0693
vn 0.6083 -0.6994 0.3753
vn 0.1962 -0.7624 0.6167
vn -0.4323 0.3918 0.8121
vn -0.4642 -0.8279 -0.3147
vn -0.0319 -0.9367 0.3488
vn 0.0085 -0.9779 0.2089
vn -0.7402 -0.5886 0.3249
vn -0.7998 0.5856 -0.1321
vn -0.5593 -0.7595 0.3322
vn -0.6490 -0.6972 0.3046
vn -0.5752 -0.8044 0.1483
vn -0.0271 -0.9167 -0.3986
vn -0.2973 -0.9534 0.0504
vn -0.3005 -0.9526 0.0484
vn -0.2964 -0.9536 0.0524
vn -0.7839 0.3058 0.5403
vn -0.5018 0.0482 0.8636
s 1
f 1//1 2//2 3//3
f 3//3 2//2 4//4
f 2//2 5//5 4//4
f 1//1 6//6 2//2
f 6//6 7//7 2//2
f 2//2 7//7 5//5
f 8//8 1//1 3//3
f 9//9 10//10 1//1
f 11//11 10//10 9//9
f 12//12 6//6 10//10
f 10//10 6//6 1//1
f 14//13 13//14 4//4
f 4//4 15//15 16//16
f 15//15 4//4 17//17
f 4//4 5//5 17//17
f 7//7 6//6 18//18
f 7//7 18//18 20//19
f 21//20 19//21 17//17
f 5//5 22//22 17//17
f 23//23 5//5 7//7
f 24//24 11//11 9//9
f 24//24 8//8 25//25
f 26//26 24//24 25//25
f 12//12 27//27 28//28
f 3//3 25//25 8//8
f 30//29 31//30 13//14
f 32//31 34//32 33//33
f 35//34 32//31 36//35
f 37//36 34//32 32//31
f 33//33 30//29 13//14
f 33//33 34//32 30//29
f 13//14 31//30 25//25
f 25//25 3//3 13//14
f 29//37 6//6 12//12
f 35//34 36//35 39//38
f 33//33 13//14 14//13
f 16//16 15//15 40//39
f 39//38 15//15 38//40
f 39//38 38//40 35//34
f 13//14 3//3 4//4
f 41//41 38//40 15//15
f 42//42 17//17 19//21
f 42//42 15//15 17//17
f 41//41 15//15 42//42
f 43//43 18//18 6//6
f 44//44 22//22 5//5
f 44//44 5//5 23//23
f 45//45 44//44 23//23
f 23//23 46//46 45//45
f 7//7 20//19 23//23
f 48//47 49//48 47//49
f 47//49 49//48 50//50
f 51//51 52//52 47//49
f 53//53 54//54 55//55
f 51//51 56//56 52//52
f 47//49 50//50 51//51
f 57//57 56//56 51//51
f 50//50 54//54 51//51
f 57//57 51//51 58//58
f 61//59 51//51 54//54
f 58//58 51//51 62//60
f 58//58 62//60 24//24
f 58//58 24//24 26//26
f 58//58 26//26 57//57
f 57//57 26//26 60//61
f 28//28 61//59 63//62
f 24//24 62//60 64//63
f 11//11 24//24 64//63
f 60//61 26//26 65//64
f 66//65 65//64 26//26
f 26//26 25//25 67//66
f 65//64 66//65 68//67
f 69//68 12//12 70//69
f 71//70 67//66 25//25
f 71//70 25//25 31//30
f 68//71 72//72 73//73
f 69//68 29//37 12//12
f 71//70 31//30 74//74
f 75//75 71//70 74//74
f 75//75 30//29 76//76
f 75//75 74//74 30//29
f 77//77 76//76 78//78
f 30//29 34//32 37//36
f 30//29 37//36 76//76
f 35//34 37//36 32//31
f 79//79 35//34 80//80
f 82//81 38//40 41//41
f 81//82 6//6 29//37
f 41//41 42//42 83//83
f 83//83 42//42 84//84
f 81//82 84//84 6//6
f 84//84 43//43 6//6
f 85//85 42//42 19//21
f 84//84 42//42 43//43
f 42//42 85//85 43//43
f 20//19 18//18 43//43
f 44//44 86//86 19//21
f 19//21 86//86 85//85
f 44//44 45//45 86//86
f 85//85 86//86 87//87
f 86//86 45//45 88//88
f 85//85 89//89 43//43
f 85//85 87//87 89//89
f 89//89 20//19 43//43
f 45//45 46//46 88//88
f 89//89 88//88 90//90
f 23//23 20//19 91//91
f 23//23 91//91 46//46
f 88//88 46//46 90//90
f 92//92 47//49 52//52
f 93//93 92//94 94//95
f 94//95 92//94 95//96
f 93//93 94//95 96//97
f 97//98 93//93 53//53
f 98//99 97//98 99//100
f 100//101 101//102 102//103
f 97//98 98//99 93//93
f 104//104 105//105 106//106
f 96//97 107//107 108//108
f 93//93 96//97 109//109
f 108//108 107//107 110//110
f 55//55 111//111 53//53
f 111//111 97//98 53//53
f 93//93 103//112 53//53
f 112//113 53//53 103//112
f 103//112 93//93 109//109
f 112//113 103//112 114//114
f 115//115 116//116 53//53
f 117//117 106//106 118//118
f 53//53 116//116 54//54
f 59//119 54//54 116//116
f 118//118 120//120 119//121
f 154//122 119//121 120//120
f 56//56 57//57 120//120
f 60//61 120//120 57//57
f 154//122 120//120 121//123
f 59//119 61//59 54//54
f 63//62 61//59 59//119
f 59//119 121//123 63//62
f 121//123 120//120 122//124
f 120//120 60//61 122//124
f 155//125 60//61 65//64
f 63//62 12//12 28//28
f 65//64 124//126 123//127
f 12//12 63//62 70//69
f 125//128 70//69 63//62
f 65//64 68//67 126//129
f 126//129 124//126 65//64
f 126//129 127//130 128//131
f 128//131 68//71 73//73
f 129//132 69//68 70//69
f 124//126 126//129 129//132
f 72//72 77//77 73//73
f 130//133 128//131 73//73
f 128//131 130//133 126//129
f 78//78 73//73 77//77
f 73//73 78//78 131//134
f 73//73 131//134 130//133
f 78//78 132//135 131//134
f 133//136 129//132 134//137
f 134//137 129//132 126//129
f 69//68 133//136 29//37
f 69//68 129//132 133//136
f 37//36 35//34 136//138
f 80//80 35//34 38//40
f 37//36 135//139 76//76
f 80//80 38//40 137//140
f 135//139 138//141 76//76
f 137//140 38//40 140//142
f 140//142 141//143 137//140
f 140//142 38//40 82//81
f 82//81 139//144 140//142
f 29//37 133//136 81//82
f 81//82 133//136 139//144
f 134//137 139//144 133//136
f 83//83 139//144 82//81
f 84//84 139//144 83//83
f 81//82 139//144 84//84
f 91//91 20//19 89//89
f 91//91 89//89 90//90
f 106//106 142//145 104//104
f 108//108 110//110 143//146
f 142//145 106//106 117//117
f 144//147 108//108 143//146
f 142//145 117//117 145//148
f 144//147 143//146 145//149
f 108//108 109//109 96//97
f 108//108 144//147 113//150
f 144//147 146//151 113//150
f 109//109 146//151 103//112
f 146//151 109//109 113//150
f 148//152 115//115 147//153
f 148//152 146//151 144//147
f 149//154 115//115 148//152
f 150//155 149//154 148//152
f 116//116 115//115 149//154
f 119//121 154//122 152//156
f 151//157 59//119 116//116
f 153//158 154//122 151//157
f 59//119 151//157 154//122
f 121//123 59//119 154//122
f 122//124 155//125 63//62
f 60//61 155//125 122//124
f 65//64 123//127 155//125
f 125//128 63//62 155//125
f 125//128 155//125 123//127
f 125//128 123//127 70//69
f 123//127 156//159 70//69
f 130//133 131//134 126//129
f 126//129 131//134 134//137
f 157//160 134//137 131//134
f 157//160 139//144 134//137
f 131//134 132//135 157//160
f 159//161 76//76 138//141
f 138//141 158//162 161//163
f 161//163 158//162 162//164
f 141//143 160//165 137//140
f 159//161 138//141 161//163
f 162//164 163//166 161//163
f 140//142 139//144 164//167
f 76//76 159//161 78//78
f 78//78 159//161 132//135
f 140//142 164//167 141//143
f 144//147 145//149 165//168
f 117//117 166//169 145//148
f 145//148 166//169 167//170
f 167//170 166//169 168//171
f 165//168 150//155 144//147
f 168//171 165//168 167//170
f 169//172 165//168 168//171
f 144//147 150//155 148//152
f 169//172 150//155 165//168
f 117//117 118//118 119//121
f 119//121 166//169 117//117
f 166//169 119//121 152//156
f 151//157 169//172 168//171
f 151//157 116//116 149//154
f 169//172 151//157 149//154
f 152//156 153//158 151//157
f 168//171 152//156 151//157
f 157//160 132//135 139//144
f 163//166 170//173 161//163
f 159//161 161//163 171//174
f 161//163 170//173 172//175
f 159//161 173//176 132//135
f 176//177 178//178 177//179
f 174//180 164//167 139//144
f 132//135 174//180 139//144
f 164//167 175//181 141//143
f 152//156 168//171 166//169
