# Blender v2.78 (sub 0) OBJ File: 'exporter.blend'
# www.blender.org
o FJ3323.obj_grp1.1963
v -1.108602 -0.662112 3.437202
v -1.104930 -0.658489 3.422789
v -1.105427 -0.682852 3.420163
v -1.108069 -0.660206 3.436738
v -1.108312 -0.667966 3.440150
v -1.095989 -0.681460 3.450628
v -1.104861 -0.680638 3.445558
v -1.102602 -0.654200 3.432888
v -1.107386 -0.686099 3.431531
v -1.100679 -0.690109 3.431022
v -1.097261 -0.676566 3.398908
v -1.071651 -0.665199 3.392858
v -1.107241 -0.686050 3.431508
v -1.093530 -0.693221 3.394339
v -1.095756 -0.681697 3.450697
v -1.076874 -0.682881 3.455513
v -1.059001 -0.656405 3.444708
v -1.065318 -0.688683 3.451726
v -1.068074 -0.651802 3.425212
v -1.077408 -0.699756 3.341479
v -1.082994 -0.709138 3.358173
v -1.082994 -0.709138 3.358173
v -1.088881 -0.697293 3.363455
v -1.083911 -0.710374 3.339502
v -1.056718 -0.657210 3.428605
v -1.079421 -0.725071 3.337057
v -1.083384 -0.734635 3.322732
v -1.076162 -0.743990 3.303996
v -1.049807 -0.663474 3.435340
v -1.052136 -0.682751 3.445407
v -1.059795 -0.692645 3.400249
v -1.062262 -0.702438 3.378764
v -1.050080 -0.717701 3.345962
v -1.079421 -0.725071 3.337057
v -1.049407 -0.709961 3.334354
v -1.076684 -0.745329 3.323550
v -1.060381 -0.743985 3.321483
v -1.079421 -0.725071 3.337057
v -1.076672 -0.747703 3.319685
v -1.062657 -0.723636 3.307839
v -1.076905 -0.748901 3.314532
v -1.076858 -0.747191 3.308588
v -1.073982 -0.732582 3.300639
v -1.074592 -0.741662 3.303494
v -1.057188 -0.676996 3.453868
v -1.046541 -0.674364 3.441394
v -1.053426 -0.685233 3.403009
v -1.052469 -0.683687 3.401625
v -1.052493 -0.684604 3.398758
v -1.062262 -0.702438 3.378764
v -1.052202 -0.695800 3.378430
v -1.052718 -0.701435 3.363355
v -1.049634 -0.702673 3.360075
v -1.050080 -0.717701 3.345962
v -1.048230 -0.713973 3.343343
v -1.044400 -0.730417 3.330441
v -1.046852 -0.726650 3.335905
v -1.048230 -0.713973 3.343343
v -1.047282 -0.726297 3.335658
v -1.045452 -0.743063 3.326335
v -1.051237 -0.724933 3.306422
v -1.046207 -0.734880 3.308140
v -1.045516 -0.732817 3.333385
v -1.047282 -0.726297 3.335658
v -1.043590 -0.744471 3.319167
v -1.045310 -0.743023 3.313255
v -1.045296 -0.743060 3.313216
vn -0.9821 0.1645 -0.0917
vn -0.6868 0.6182 -0.3822
vn -0.8895 -0.3597 -0.2818
vn -0.3913 0.1655 0.9053
vn -0.3912 0.3248 0.8611
vn -0.7143 -0.2740 0.6440
vn -0.0633 0.5105 0.8576
vn -0.8723 -0.4417 0.2095
vn -0.3349 -0.9335 0.1281
vn 0.1018 0.8830 -0.4582
vn -0.8199 0.3129 -0.4795
vn -0.3400 0.8958 0.2864
vn -0.5169 -0.7988 -0.3078
vn -0.3342 -0.7691 0.5448
vn -0.1632 -0.1930 0.9675
vn 0.1666 0.9770 -0.1328
vn 0.3578 0.7407 0.5686
vn -0.6915 -0.7178 0.0811
vn -0.3583 0.7216 -0.5924
vn -0.9414 -0.3374 -0.0006
vn -0.8533 -0.5174 0.0644
vn -0.9626 0.1592 -0.2192
vn 0.6485 0.7392 -0.1818
vn 0.2027 -0.8334 0.5142
vn -0.8316 -0.4384 0.3409
vn -0.2134 0.1692 -0.9622
vn -0.9799 -0.1993 -0.0083
vn -0.9572 -0.0747 -0.2797
vn 0.8912 0.4516 0.0436
vn 0.6543 -0.6510 0.3848
vn 0.3649 -0.8801 0.3037
vn -0.0596 -0.9187 0.3904
vn -0.0233 -0.8577 0.5136
vn -0.1172 -0.8843 0.4520
vn 0.0077 -0.7827 0.6224
vn 0.7846 0.5318 -0.3188
vn -0.8055 -0.4712 0.3594
vn -0.0064 -0.8941 0.4478
vn -0.0775 -0.6178 0.7825
vn 0.1837 -0.9068 0.3795
vn -0.0044 0.6067 -0.7949
vn -0.9105 -0.4028 -0.0937
vn 0.2505 -0.9135 -0.3207
vn 0.3483 -0.4507 -0.8219
vn 0.4478 0.0029 0.8941
vn 0.9607 -0.0310 0.2759
vn 0.8135 -0.5748 0.0883
vn 0.9983 -0.0583 -0.0100
vn 0.9806 0.1909 -0.0457
vn 0.6136 -0.6957 0.3734
vn 0.5220 -0.7731 0.3603
vn 0.7864 -0.5968 0.1596
vn 0.7527 -0.5317 0.3883
vn 0.8301 -0.3323 0.4478
vn 0.9132 -0.2061 0.3515
vn 0.9858 -0.0357 0.1639
vn 0.7273 -0.4343 0.5315
vn 0.9536 0.3008 0.0150
vn -0.0014 -0.7681 0.6403
vn 0.4576 -0.6801 0.5728
vn 0.4445 0.4328 -0.7843
vn 0.7567 -0.0300 -0.6531
vn -0.0128 -0.4910 0.8710
vn 0.0289 -0.3219 0.9463
vn 0.7658 -0.6430 0.0108
vn 0.9432 -0.1734 -0.2834
vn 0.1743 -0.8109 -0.5586
s 1
f 1//1 2//2 3//3
f 6//4 5//5 7//6
f 5//5 6//4 4//7
f 7//6 9//8 10//9
f 7//6 1//1 9//8
f 3//3 9//8 1//1
f 2//2 12//10 11//11
f 1//1 8//12 2//2
f 8//12 12//10 2//2
f 13//13 3//3 10//9
f 2//2 11//11 3//3
f 6//4 7//6 15//14
f 6//4 8//12 4//7
f 10//9 15//14 7//6
f 16//15 15//14 10//9
f 8//12 19//16 12//10
f 8//12 17//17 19//16
f 10//9 3//3 14//18
f 11//11 14//18 3//3
f 11//11 12//10 20//19
f 11//11 23//20 14//18
f 14//18 23//20 21//21
f 20//19 24//22 11//11
f 25//23 19//16 17//17
f 10//9 18//24 16//15
f 14//18 18//24 10//9
f 23//20 24//22 26//25
f 21//21 23//20 26//25
f 20//19 43//26 24//22
f 24//22 27//27 26//25
f 24//22 43//26 27//27
f 27//27 43//26 28//28
f 16//15 8//12 6//4
f 8//12 16//15 17//17
f 25//23 17//17 29//29
f 19//16 25//23 12//10
f 14//18 30//30 18//24
f 30//30 14//18 31//31
f 14//18 32//32 31//31
f 33//33 32//32 14//18
f 33//33 14//18 22//34
f 33//33 22//34 34//35
f 12//10 25//23 35//36
f 27//27 36//37 26//25
f 37//38 38//39 39//40
f 12//10 40//41 20//19
f 41//42 36//37 27//27
f 28//28 41//42 27//27
f 20//19 40//41 43//26
f 42//43 37//38 39//40
f 44//44 43//26 40//41
f 16//15 45//45 17//17
f 46//46 17//17 45//45
f 16//15 18//24 45//45
f 18//24 30//30 45//45
f 46//46 45//45 30//30
f 46//46 29//29 17//17
f 46//46 30//30 47//47
f 31//31 47//47 30//30
f 29//29 48//48 25//23
f 48//48 29//29 46//46
f 46//46 47//47 48//48
f 25//23 48//48 49//49
f 48//48 47//47 35//36
f 49//49 35//36 25//23
f 31//31 50//50 47//47
f 47//47 50//50 51//51
f 35//36 47//47 52//52
f 51//51 50//50 53//53
f 50//50 54//54 53//53
f 53//53 54//54 55//55
f 54//54 56//56 55//55
f 54//54 57//57 56//56
f 52//52 58//58 35//36
f 59//59 33//33 34//35
f 38//39 37//38 60//60
f 12//10 61//61 40//41
f 61//61 44//44 40//41
f 35//36 61//61 12//10
f 61//61 62//62 44//44
f 58//58 56//56 35//36
f 38//39 63//63 64//64
f 38//39 60//60 63//63
f 57//57 60//60 56//56
f 42//43 65//65 37//38
f 37//38 65//65 60//60
f 56//56 60//60 65//65
f 65//65 62//62 56//56
f 65//65 66//66 62//62
f 56//56 62//62 35//36
f 35//36 62//62 61//61
f 65//65 42//43 67//67
f 67//67 42//43 44//44
f 62//62 67//67 44//44
