# Blender v2.78 (sub 0) OBJ File: 'exporter.blend'
# www.blender.org
o FJ3358.obj_grp1.1998
v -1.149622 -0.589031 3.684572
v -1.145344 -0.609529 3.680873
v -1.149702 -0.606021 3.682229
v -1.146127 -0.605770 3.661539
v -1.114831 -0.596153 3.694604
v -1.150583 -0.599446 3.684299
v -1.151657 -0.596068 3.683285
v -1.150516 -0.599363 3.684163
v -1.152217 -0.595865 3.683421
v -1.149347 -0.588885 3.684187
v -1.147498 -0.582539 3.681201
v -1.146263 -0.581846 3.680282
v -1.147498 -0.596985 3.646593
v -1.139842 -0.568899 3.655685
v -1.140930 -0.577918 3.648611
v -1.126542 -0.608409 3.687710
v -1.124124 -0.610675 3.655724
v -1.111926 -0.575898 3.686515
v -1.134611 -0.563163 3.662793
v -1.139597 -0.569224 3.655615
v -1.129353 -0.590687 3.613175
v -1.127917 -0.603545 3.610635
v -1.129814 -0.595983 3.607413
v -1.123272 -0.584934 3.616968
v -1.117823 -0.601373 3.692866
v -1.109818 -0.590379 3.694680
v -1.111281 -0.608636 3.668964
v -1.105244 -0.572688 3.679702
v -1.128494 -0.569618 3.652520
v -1.101079 -0.573555 3.642353
v -1.110582 -0.610531 3.597643
v -1.118945 -0.598100 3.557183
v -1.118945 -0.598100 3.557183
v -1.116622 -0.612234 3.507320
v -1.104607 -0.596336 3.686931
v -1.114668 -0.596274 3.694433
v -1.109890 -0.590513 3.694296
v -1.100530 -0.582313 3.683844
v -1.093827 -0.594901 3.666753
v -1.103077 -0.603983 3.634142
v -1.111007 -0.597176 3.524821
v -1.099669 -0.622663 3.559206
v -1.114908 -0.617424 3.554488
v -1.106115 -0.649643 3.493834
v -1.108508 -0.645267 3.478912
v -1.112815 -0.665749 3.470770
v -1.108814 -0.659805 3.459967
v -1.090838 -0.591307 3.638508
v -1.090768 -0.582773 3.629062
v -1.087405 -0.602453 3.592273
v -1.099669 -0.622663 3.559206
v -1.095791 -0.639470 3.524354
v -1.102458 -0.641690 3.517800
v -1.082421 -0.604505 3.533065
v -1.102458 -0.641690 3.517800
v -1.089523 -0.657169 3.499938
v -1.108751 -0.638270 3.462314
v -1.103594 -0.626325 3.455877
v -1.109969 -0.669139 3.461951
v -1.072700 -0.678934 3.464210
v -1.103636 -0.652405 3.462216
v -1.101638 -0.656674 3.456592
v -1.102440 -0.665782 3.445056
v -1.109406 -0.668670 3.461535
v -1.099086 -0.653852 3.440843
v -1.093297 -0.672353 3.446315
v -1.095725 -0.640967 3.438578
v -1.101810 -0.656638 3.456319
v -1.084049 -0.598090 3.575664
v -1.087754 -0.602837 3.587266
v -1.077670 -0.612898 3.538597
v -1.079797 -0.626465 3.530179
v -1.084533 -0.651415 3.504856
v -1.091825 -0.623520 3.455748
v -1.089461 -0.635713 3.438839
v -1.067082 -0.631119 3.454406
v -1.089405 -0.656748 3.436444
v -1.068592 -0.674608 3.452504
v -1.077670 -0.612898 3.538597
v -1.066802 -0.626667 3.483355
v -1.068267 -0.634662 3.498430
v -1.075844 -0.662008 3.494378
v -1.064000 -0.658992 3.478511
v -1.067565 -0.672549 3.488851
v -1.063949 -0.649725 3.443795
v -1.068257 -0.672230 3.487849
v -1.061212 -0.651505 3.468457
v -1.063904 -0.672329 3.483101
v -1.059788 -0.674552 3.464192
v -1.057601 -0.665674 3.466969
v -1.057026 -0.665795 3.455297
vn -0.3148 -0.9059 0.2831
vn -0.7468 -0.5395 0.3890
vn -0.5936 -0.7465 -0.3008
vn -0.2766 0.0757 0.9580
vn -0.3043 -0.1474 0.9411
vn -0.2827 0.2509 0.9258
vn -0.6227 0.0412 0.7814
vn -0.7750 -0.2685 0.5721
vn -0.9961 0.0480 -0.0745
vn -0.8805 0.4009 0.2530
vn -0.8925 0.4509 -0.0145
vn -0.8912 -0.2792 -0.3576
vn -0.5237 0.7151 -0.4630
vn -0.7127 0.5487 -0.4369
vn -0.0122 -0.7968 0.6042
vn 0.0737 0.6818 0.7278
vn 0.0133 0.6515 0.7585
vn -0.2282 0.9727 -0.0430
vn -0.0384 -0.9952 -0.0895
vn -0.0127 0.9025 -0.4304
vn 0.0179 0.6885 -0.7250
vn -0.7294 0.6201 -0.2889
vn -0.9621 0.0340 -0.2704
vn -0.6642 -0.7188 -0.2051
vn 0.0179 -0.5472 0.8368
vn -0.2262 0.3524 0.9081
vn 0.4402 -0.8841 0.1564
vn 0.5395 0.7720 0.3360
vn -0.3445 0.8711 -0.3500
vn 0.3224 0.9466 0.0024
vn 0.1109 -0.9717 0.2084
vn -0.9258 0.3120 -0.2135
vn -0.8882 0.4240 -0.1772
vn -0.9623 0.1626 -0.2182
vn 0.6880 -0.5067 0.5195
vn 0.5204 -0.4921 0.6979
vn 0.6147 -0.1396 0.7763
vn 0.8317 0.2876 0.4749
vn 0.9442 -0.2780 0.1763
vn 0.4986 -0.8611 0.0992
vn -0.3085 0.9038 -0.2965
vn -0.3382 -0.9081 0.2468
vn -0.5898 -0.7888 0.1731
vn -0.8556 -0.3440 0.3868
vn -0.9993 -0.0032 0.0375
vn -0.8729 -0.4431 0.2043
vn -0.8442 0.3656 -0.3920
vn 0.8421 0.5391 0.0130
vn 0.4038 -0.8692 0.2855
vn 0.2978 -0.8623 0.4096
vn 0.0351 -0.8563 0.5154
vn -0.3406 -0.8243 0.4523
vn 0.6512 0.7517 -0.1044
vn -0.9375 -0.3388 0.0789
vn -0.1827 -0.7916 0.5831
vn -0.9253 -0.1072 -0.3638
vn -0.6718 0.5140 -0.5333
vn -0.3107 -0.9453 0.0991
vn 0.0283 -0.9982 0.0522
vn -0.8724 0.1563 -0.4631
vn -0.9364 -0.0152 -0.3505
vn -0.6653 -0.3673 -0.6499
vn -0.7836 0.2005 -0.5880
vn -0.8141 0.5328 -0.2310
vn -0.1632 -0.8108 -0.5622
vn -0.5143 0.1965 -0.8348
vn -0.3449 0.9239 0.1656
vn 0.9340 -0.3393 0.1122
vn 0.9718 0.2172 0.0917
vn 0.9289 -0.3290 0.1701
vn 0.9099 -0.2882 0.2984
vn 0.6663 -0.6131 0.4244
vn 0.3621 -0.6033 0.7106
vn 0.0853 0.8665 -0.4918
vn 0.0114 0.5317 -0.8468
vn 0.6451 0.6426 -0.4134
vn -0.0201 -0.2088 -0.9777
vn 0.3370 -0.7456 -0.5749
vn 0.9185 0.3928 0.0443
vn 0.9057 0.4233 0.0220
vn 0.9039 -0.1926 0.3819
vn 0.7450 -0.0757 0.6627
vn 0.9066 0.0790 0.4145
vn 0.7823 0.3063 0.5424
vn -0.1391 -0.9085 0.3940
vn 0.6773 0.1255 -0.7249
vn 0.9772 0.2007 0.0698
vn 0.6933 -0.7201 -0.0300
vn 0.8037 -0.3626 0.4718
vn 0.9837 0.0006 0.1799
vn 0.8924 -0.1615 -0.4213
s 1
f 2//1 3//2 4//3
f 5//4 6//5 3//2
f 6//5 1//6 7//7
f 8//8 9//9 3//2
f 1//6 6//5 5//4
f 10//10 11//11 9//9
f 9//9 13//12 3//2
f 13//12 4//3 3//2
f 9//9 14//13 13//12
f 11//11 14//13 9//9
f 14//13 15//14 13//12
f 5//4 3//2 16//15
f 16//15 3//2 2//1
f 18//16 12//17 1//6
f 11//11 12//17 19//18
f 2//1 4//3 17//19
f 14//13 11//11 19//18
f 19//18 29//20 20//21
f 14//13 19//18 20//21
f 4//3 13//12 17//19
f 20//21 29//20 15//14
f 29//20 21//22 15//14
f 15//14 21//22 13//12
f 23//23 22//24 13//12
f 13//12 21//22 23//23
f 5//4 16//15 25//25
f 5//4 26//26 1//6
f 26//26 18//16 1//6
f 16//15 2//1 17//19
f 27//27 16//15 17//19
f 25//25 16//15 27//27
f 18//16 19//18 12//17
f 19//18 28//28 29//20
f 13//12 22//24 17//19
f 29//20 24//29 21//22
f 29//20 30//30 24//29
f 17//19 22//24 31//31
f 21//22 32//32 23//23
f 22//24 23//23 33//33
f 33//33 21//22 24//29
f 33//33 34//34 22//24
f 35//35 36//36 25//25
f 37//37 36//36 35//35
f 38//38 37//37 35//35
f 37//37 38//38 18//16
f 28//28 18//16 38//38
f 35//35 25//25 27//27
f 35//35 27//27 39//39
f 18//16 28//28 19//18
f 30//30 29//20 28//28
f 17//19 40//40 27//27
f 40//40 39//39 27//27
f 31//31 40//40 17//19
f 24//29 30//30 41//41
f 41//41 33//33 24//29
f 31//31 22//24 42//42
f 43//43 42//42 22//24
f 43//43 22//24 34//34
f 34//34 33//33 41//41
f 44//44 45//45 46//46
f 46//46 45//45 47//47
f 35//35 39//39 38//38
f 38//38 39//39 28//28
f 49//48 28//28 39//39
f 30//30 28//28 49//48
f 40//40 31//31 50//49
f 31//31 51//50 50//49
f 52//51 42//42 43//43
f 43//43 53//52 52//51
f 54//53 41//41 30//30
f 43//43 34//34 55//54
f 53//52 56//55 52//51
f 56//55 53//52 44//44
f 55//54 34//34 45//45
f 55//54 45//45 44//44
f 45//45 34//34 57//56
f 34//34 41//41 58//57
f 57//56 34//34 58//57
f 44//44 46//46 56//55
f 46//46 59//58 60//59
f 47//47 45//45 61//60
f 45//45 57//56 61//60
f 64//61 46//46 47//47
f 64//61 47//47 63//62
f 47//47 65//63 63//62
f 47//47 61//60 62//64
f 63//62 66//65 59//58
f 57//56 67//66 61//60
f 67//66 62//64 61//60
f 68//67 47//47 62//64
f 47//47 68//67 65//63
f 62//64 67//66 65//63
f 57//56 58//57 67//66
f 39//39 48//68 49//48
f 40//40 48//68 39//39
f 49//48 48//68 69//69
f 30//30 49//48 54//53
f 49//48 69//69 54//53
f 50//49 48//68 40//40
f 69//69 48//68 70//70
f 70//70 71//71 69//69
f 72//72 71//71 70//70
f 50//49 51//50 52//51
f 50//49 52//51 72//72
f 52//51 73//73 72//72
f 56//55 73//73 52//51
f 74//74 58//57 41//41
f 59//58 66//65 60//59
f 58//57 75//75 67//66
f 74//74 75//75 58//57
f 76//76 75//75 74//74
f 63//62 65//63 77//77
f 77//77 66//65 63//62
f 78//78 66//65 77//77
f 65//63 67//66 77//77
f 54//53 69//69 79//79
f 80//80 54//53 79//79
f 81//81 72//72 73//73
f 73//73 82//82 81//81
f 83//83 82//82 84//84
f 46//46 60//59 86//85
f 56//55 46//46 86//85
f 76//76 74//74 41//41
f 78//78 60//59 66//65
f 77//77 67//66 75//75
f 75//75 85//86 77//77
f 81//81 71//71 72//72
f 79//79 81//81 80//80
f 56//55 86//85 73//73
f 82//82 83//83 81//81
f 87//87 81//81 83//83
f 81//81 87//87 80//80
f 54//53 80//80 76//76
f 86//85 60//59 89//88
f 89//88 88//89 86//85
f 83//83 84//84 90//90
f 84//84 88//89 90//90
f 76//76 80//80 87//87
f 54//53 76//76 41//41
f 60//59 78//78 89//88
f 76//76 87//87 85//86
f 78//78 91//91 89//88
f 78//78 85//86 91//91
f 76//76 85//86 75//75
f 85//86 78//78 77//77
f 88//89 89//88 90//90
f 83//83 90//90 87//87
f 90//90 91//91 87//87
f 89//88 91//91 90//90
f 91//91 85//86 87//87
