# Blender v2.78 (sub 0) OBJ File: 'exporter.blend'
# www.blender.org
o FJ3371.obj_grp1.2010
v -0.084280 -0.733459 7.062923
v -0.084159 -0.731332 7.058654
v -0.078803 -0.710989 7.076968
v -0.076990 -0.725529 7.053964
v -0.069672 -0.735212 7.059103
v -0.075622 -0.714049 7.086069
v -0.078778 -0.735117 7.071086
v -0.069339 -0.741029 7.087898
v -0.072045 -0.722407 7.053855
v -0.065414 -0.746398 7.127462
v -0.061837 -0.742287 7.059260
v -0.065218 -0.711691 7.065319
v -0.065535 -0.718369 7.056761
v -0.056914 -0.734593 7.056353
v -0.070981 -0.708680 7.073144
v -0.061440 -0.715541 7.086931
v -0.072519 -0.712235 7.085105
v -0.071547 -0.712406 7.091700
v -0.071513 -0.712375 7.091800
v -0.063964 -0.711777 7.126107
v -0.063284 -0.712280 7.127359
v -0.053362 -0.708646 7.110057
v -0.061133 -0.759768 7.065637
v -0.056373 -0.770687 7.095531
v -0.062568 -0.749658 7.094705
v -0.057192 -0.767380 7.085913
v -0.056917 -0.768088 7.087940
v -0.047490 -0.769910 7.095973
v -0.052674 -0.751715 7.062197
v -0.059210 -0.769370 7.127286
v -0.057594 -0.759591 7.167194
v -0.051848 -0.771247 7.165556
v -0.054381 -0.758803 7.170400
v -0.049289 -0.768345 7.169201
v -0.062605 -0.752841 7.055358
v -0.061095 -0.750755 7.053114
v -0.061110 -0.751263 7.053193
v -0.054293 -0.746495 7.053869
v -0.054077 -0.753295 7.144599
v -0.050450 -0.762169 7.152730
v -0.051244 -0.746841 7.159303
v -0.052814 -0.737836 7.139593
v -0.058673 -0.750031 7.164115
v -0.057193 -0.749559 7.164462
v -0.055664 -0.754526 7.169349
v -0.053194 -0.753047 7.169250
v -0.055345 -0.755685 7.171787
v -0.058276 -0.750033 7.163809
v -0.055595 -0.749188 7.164936
v -0.055595 -0.749188 7.164936
v -0.053226 -0.754016 7.169018
v -0.052870 -0.749094 7.164561
v -0.062560 -0.750892 7.053815
v -0.059963 -0.741083 7.054823
v -0.062567 -0.750861 7.053782
v -0.061837 -0.742287 7.059260
v -0.059485 -0.747716 7.052640
v -0.057650 -0.741122 7.052989
v -0.053162 -0.744445 7.052176
v -0.052842 -0.755033 7.122633
v -0.053775 -0.734425 7.112589
v -0.053283 -0.752378 7.122874
v -0.051588 -0.735739 7.131418
v -0.050174 -0.735535 7.159428
v -0.056522 -0.724087 7.159850
v -0.055459 -0.732288 7.162496
v -0.054578 -0.728153 7.163570
v -0.052796 -0.742123 7.162119
v -0.052870 -0.749094 7.164561
v -0.059939 -0.741057 7.055060
v -0.047520 -0.746468 7.052392
v -0.057090 -0.725723 7.114933
v -0.055842 -0.720803 7.121900
v -0.050869 -0.723419 7.108460
v -0.053820 -0.724222 7.162683
v -0.048548 -0.725371 7.162986
v -0.050101 -0.730982 7.074800
v -0.051529 -0.722143 7.091739
v -0.054417 -0.719743 7.114845
v -0.054417 -0.719743 7.114845
v -0.050127 -0.718593 7.109305
v -0.049266 -0.713364 7.115127
v -0.049414 -0.717574 7.141427
v -0.052304 -0.718668 7.158692
v -0.058148 -0.712557 7.139324
v -0.048481 -0.722518 7.162307
v -0.052304 -0.718668 7.158692
v -0.052793 -0.709595 7.131237
v -0.052300 -0.718622 7.158694
v -0.044654 -0.777369 7.124170
v -0.038967 -0.776387 7.129350
v -0.048979 -0.773106 7.154904
v -0.044651 -0.772340 7.151501
v -0.043850 -0.770822 7.148872
v -0.044022 -0.772275 7.151464
v -0.047034 -0.775056 7.164921
v -0.041559 -0.771498 7.162019
v -0.044837 -0.770326 7.167230
v -0.041043 -0.771359 7.098481
v -0.047569 -0.759466 7.072667
v -0.041921 -0.763332 7.087409
v -0.038784 -0.762929 7.135971
v -0.046731 -0.753034 7.136896
v -0.047428 -0.764582 7.167565
v -0.042855 -0.769245 7.156916
v -0.043834 -0.770816 7.148928
v -0.042438 -0.768863 7.164081
v -0.047428 -0.764582 7.167565
v -0.052767 -0.751179 7.060763
v -0.043839 -0.751281 7.076179
v -0.044340 -0.755221 7.096313
v -0.047484 -0.758028 7.121652
v -0.043400 -0.758099 7.115561
v -0.046329 -0.751487 7.131526
v -0.047484 -0.758028 7.121652
v -0.039796 -0.760221 7.128083
v -0.047428 -0.764582 7.167565
v -0.047428 -0.764582 7.167565
v -0.051242 -0.745498 7.051138
v -0.048497 -0.748678 7.052274
v -0.049582 -0.746034 7.050700
v -0.048516 -0.748309 7.052510
v -0.051239 -0.739342 7.092686
v -0.040890 -0.737006 7.103953
v -0.047308 -0.723932 7.099028
v -0.047611 -0.722570 7.105315
v -0.044615 -0.724528 7.159687
v -0.047611 -0.722570 7.105315
v -0.049192 -0.717123 7.106730
v -0.047611 -0.722570 7.105315
v -0.048750 -0.717152 7.106676
v -0.048481 -0.722518 7.162307
v -0.035146 -0.771187 7.127614
v -0.035046 -0.771213 7.127542
v -0.036344 -0.764356 7.105946
v -0.039192 -0.757020 7.107370
v -0.040890 -0.737006 7.103953
vn -0.8079 -0.5877 -0.0444
vn -0.7446 0.6593 0.1043
vn -0.7707 -0.2636 -0.5801
vn -0.4329 -0.8104 -0.3947
vn -0.6522 -0.7464 0.1325
vn -0.7846 0.5399 0.3048
vn -0.4673 0.1355 -0.8737
vn -0.5826 -0.7996 -0.1458
vn -0.9775 -0.1764 0.1158
vn -0.6343 -0.7290 -0.2572
vn -0.7941 0.3211 0.5160
vn 0.3015 0.8581 -0.4157
vn -0.1267 0.5274 -0.8401
vn 0.3748 0.5837 -0.7203
vn 0.5867 0.4395 -0.6801
vn -0.0861 0.9878 -0.1294
vn -0.0820 0.9839 0.1586
vn 0.0017 0.9593 -0.2822
vn 0.4396 0.8955 -0.0703
vn -0.1179 0.9909 -0.0642
vn -0.2891 0.9518 0.1023
vn 0.4216 0.8975 -0.1295
vn -0.3677 -0.8655 -0.3400
vn -0.5327 -0.8195 -0.2113
vn -0.9533 -0.3021 -0.0056
vn 0.2247 -0.9181 -0.3266
vn 0.3382 -0.8350 -0.4341
vn 0.0459 -0.8086 -0.5866
vn -0.1308 -0.8596 -0.4939
vn -0.8532 -0.2625 0.4507
vn -0.7934 -0.6087 0.0001
vn -0.6413 -0.6618 0.3883
vn -0.6682 -0.2270 0.7085
vn 0.0562 -0.2433 0.9683
vn -0.6493 -0.5568 -0.5181
vn -0.2884 -0.2594 -0.9217
vn 0.5071 -0.6219 -0.5967
vn 0.0648 -0.7026 -0.7087
vn 0.8792 0.4764 -0.0119
vn 0.9326 0.2177 0.2880
vn 0.9818 0.1033 0.1593
vn -0.8596 0.1104 0.4990
vn -0.7579 0.0168 0.6521
vn -0.3883 0.6035 0.6964
vn 0.3536 0.4930 0.7949
vn 0.1906 0.5793 0.7925
vn -0.4656 0.5163 0.7188
vn 0.0805 0.6673 0.7404
vn 0.6524 0.5210 0.5505
vn 0.6633 0.4461 0.6009
vn -0.9437 0.1890 -0.2715
vn -0.9588 0.1658 0.2309
vn -0.3576 -0.3045 -0.8828
vn -0.9556 0.1712 -0.2397
vn -0.1062 -0.0269 -0.9940
vn -0.5529 0.2053 -0.8076
vn -0.1369 0.2338 -0.9626
vn -0.1969 -0.0495 -0.9792
vn 0.7383 0.4252 0.5236
vn 0.6716 0.2611 0.6934
vn 0.9396 0.3003 -0.1644
vn 0.9727 -0.2070 0.1045
vn -0.3402 0.1527 0.9279
vn -0.5791 0.1749 0.7962
vn 0.1570 0.2353 0.9592
vn 0.5928 0.0220 0.8051
vn 0.1343 0.0741 0.9882
vn -0.0530 0.3306 0.9423
vn -0.5827 -0.5979 -0.5504
vn 0.9472 -0.0785 0.3108
vn 0.9408 -0.3125 -0.1314
vn 0.9533 0.2989 -0.0421
vn 0.9949 0.0825 0.0584
vn -0.6503 0.2889 0.7026
vn 0.3763 -0.0329 0.9259
vn 0.8600 0.4476 -0.2453
vn 0.6643 -0.0155 0.7473
vn 0.7667 -0.2715 0.5818
vn 0.8450 -0.5187 0.1299
vn 0.7999 -0.1329 0.5853
vn 0.9949 0.0997 -0.0139
vn 0.9895 0.1447 -0.0021
vn -0.6535 0.6004 0.4609
vn -0.4721 0.8106 0.3463
vn -0.1955 0.4194 0.8865
vn -0.2806 0.4948 0.8225
vn 0.8615 0.4393 -0.2545
vn -0.9526 0.0021 0.3042
vn 0.3611 0.9230 0.1334
vn 0.6348 0.7577 0.1512
vn -0.0723 -0.9950 -0.0686
vn -0.0293 -0.9992 -0.0256
vn 0.5486 -0.8295 0.1049
vn 0.5490 -0.8012 0.2382
vn 0.9188 0.3494 0.1834
vn 0.9615 0.1879 0.2006
vn 0.0561 -0.9398 0.3371
vn 0.9197 -0.3924 -0.0117
vn 0.5877 -0.2134 0.7804
vn 0.5685 -0.7572 -0.3215
vn 0.1061 -0.8699 -0.4817
vn 0.8329 0.4069 0.3750
vn 0.8013 0.3939 0.4503
vn 0.6689 0.7424 -0.0381
vn 0.9693 0.1332 -0.2068
vn 0.9166 -0.3996 -0.0142
vn 0.8833 0.3458 0.3164
vn 0.5654 0.1781 0.8054
vn 0.9362 -0.2161 -0.2772
vn 0.8736 0.1588 -0.4600
vn 0.9825 0.1858 -0.0123
vn 0.9102 0.3361 -0.2418
vn 0.7169 0.6027 0.3506
vn 0.3739 0.8896 0.2623
vn 0.5665 0.6558 -0.4989
vn 0.8492 0.5024 -0.1627
vn 0.7437 0.6571 -0.1232
vn 0.9758 0.1269 -0.1781
vn 0.8094 0.3821 0.4460
vn -0.2055 0.3134 -0.9271
vn -0.0146 -0.9166 -0.3996
vn 0.0137 0.0547 -0.9984
vn -0.1635 -0.9173 -0.3630
vn 0.3485 -0.9248 0.1527
vn 0.9608 0.1663 -0.2220
vn 0.8679 0.3662 -0.3356
vn 0.8853 0.1916 -0.4238
vn 0.6754 0.2749 0.6843
vn 0.9727 0.0812 0.2176
vn 0.8012 -0.0867 0.5920
vn -0.6072 -0.7171 0.3423
vn 0.9411 0.3370 -0.0280
vn 0.8691 0.0575 0.4913
vn 0.6583 0.5625 0.5002
vn 0.9675 -0.1849 0.1724
vn 0.7454 -0.1383 0.6522
vn 0.9916 0.1202 -0.0471
vn 0.9555 0.2803 0.0923
vn 0.7526 0.2342 0.6154
s 1
f 1//1 3//2 2//3
f 1//1 2//3 5//4
f 7//5 1//1 5//4
f 1//1 6//6 3//2
f 7//5 6//6 1//1
f 4//7 2//3 3//2
f 7//5 8//8 10//9
f 7//5 5//4 8//8
f 8//8 5//4 11//10
f 7//5 10//9 6//6
f 10//9 65//11 6//6
f 12//12 9//13 4//7
f 13//14 9//13 12//12
f 4//7 5//4 2//3
f 13//14 14//15 9//13
f 12//12 4//7 15//16
f 15//16 4//7 3//2
f 6//6 17//17 3//2
f 18//18 17//17 6//6
f 17//17 15//16 3//2
f 17//17 16//19 15//16
f 15//16 16//19 12//12
f 17//17 19//20 16//19
f 19//20 18//18 6//6
f 6//6 20//21 19//20
f 19//20 20//21 22//22
f 23//23 24//24 25//25
f 24//24 23//23 26//26
f 24//24 27//27 28//28
f 27//27 29//29 28//28
f 31//30 10//9 30//31
f 32//32 31//30 30//31
f 32//32 33//33 31//30
f 32//32 34//34 33//33
f 35//35 36//36 23//23
f 23//23 37//37 38//38
f 38//38 26//26 23//23
f 26//26 38//38 29//29
f 27//27 26//26 29//29
f 24//24 10//9 25//25
f 24//24 30//31 10//9
f 40//39 39//40 41//41
f 10//9 31//30 43//42
f 31//30 45//43 43//42
f 31//30 33//33 45//43
f 48//44 47//45 46//46
f 48//44 46//46 49//47
f 34//34 46//46 47//45
f 50//48 51//49 52//50
f 54//51 53//52 35//35
f 36//36 35//35 55//53
f 23//23 25//25 35//35
f 54//51 35//35 56//54
f 35//35 25//25 56//54
f 36//36 55//53 57//55
f 57//55 55//53 54//56
f 54//56 58//57 57//55
f 38//38 37//37 57//55
f 59//58 38//38 57//55
f 59//58 57//55 58//57
f 25//25 8//8 11//10
f 10//9 8//8 25//25
f 60//59 61//60 62//61
f 41//41 39//40 64//62
f 10//9 43//42 65//11
f 44//63 66//64 43//42
f 65//11 43//42 66//64
f 44//65 68//66 67//67
f 68//66 44//65 69//68
f 70//69 5//4 4//7
f 5//4 70//69 11//10
f 70//69 4//7 58//57
f 58//57 4//7 9//13
f 14//15 58//57 9//13
f 61//60 72//70 62//61
f 62//61 72//70 73//71
f 62//61 73//71 63//72
f 63//72 73//71 42//73
f 73//71 64//62 42//73
f 75//74 65//11 66//64
f 68//66 76//75 67//67
f 13//14 77//76 14//15
f 77//76 13//14 12//12
f 74//77 79//78 72//70
f 72//70 80//79 73//71
f 61//60 74//77 72//70
f 81//80 79//78 74//77
f 73//71 80//79 82//81
f 82//81 83//82 73//71
f 64//62 73//71 83//82
f 75//74 84//83 65//11
f 84//83 85//84 65//11
f 86//85 87//86 67//67
f 78//87 12//12 16//19
f 78//87 77//76 12//12
f 16//19 19//20 22//22
f 65//11 21//88 6//6
f 22//22 20//21 88//89
f 21//88 85//84 20//21
f 20//21 85//84 88//89
f 21//88 65//11 85//84
f 85//84 89//90 88//89
f 30//31 24//24 90//91
f 30//31 92//92 32//32
f 90//91 92//92 30//31
f 90//91 91//93 92//92
f 91//93 93//94 92//92
f 91//93 94//95 95//96
f 92//92 96//97 32//32
f 92//92 97//98 96//97
f 97//98 98//99 96//97
f 34//34 96//97 98//99
f 99//100 28//28 100//101
f 99//100 24//24 28//28
f 99//100 90//91 24//24
f 102//102 39//40 94//95
f 102//102 103//103 39//40
f 94//95 39//40 40//39
f 40//39 104//104 105//105
f 40//39 105//105 94//95
f 93//94 105//105 92//92
f 106//106 105//105 93//94
f 92//92 105//105 97//98
f 107//107 105//105 104//104
f 97//98 107//107 98//99
f 96//97 34//34 32//32
f 108//108 34//34 98//99
f 107//107 108//108 98//99
f 28//28 29//29 100//101
f 101//109 100//101 71//110
f 101//109 71//110 110//111
f 110//111 111//112 101//109
f 60//59 113//113 61//60
f 60//59 112//114 113//113
f 115//115 62//61 114//116
f 116//117 115//115 114//116
f 113//113 112//114 116//117
f 117//118 40//39 41//41
f 34//34 108//108 46//46
f 41//41 52//50 51//49
f 118//119 41//41 51//49
f 14//15 119//120 59//58
f 120//121 59//58 121//122
f 121//122 119//120 14//15
f 71//110 121//122 14//15
f 121//122 71//110 120//121
f 59//58 58//57 14//15
f 29//29 109//123 122//124
f 122//124 109//123 38//38
f 38//38 120//121 122//124
f 120//121 38//38 59//58
f 100//101 29//29 122//124
f 100//101 122//124 71//110
f 110//111 71//110 77//76
f 111//112 110//111 123//125
f 111//112 125//126 124//127
f 63//72 114//116 62//61
f 103//103 42//73 39//40
f 63//72 42//73 103//103
f 114//116 63//72 103//103
f 39//40 42//73 64//62
f 41//41 68//66 52//50
f 64//62 68//66 41//41
f 14//15 77//76 71//110
f 77//76 78//87 110//111
f 78//87 125//126 123//125
f 110//111 78//87 123//125
f 125//126 111//112 123//125
f 113//113 74//77 61//60
f 126//128 74//77 113//113
f 68//66 64//62 76//75
f 64//62 127//129 76//75
f 78//87 16//19 22//22
f 78//87 22//22 125//126
f 74//77 128//130 81//80
f 125//126 129//131 130//132
f 81//80 128//130 131//133
f 125//126 130//132 124//127
f 129//131 82//81 80//79
f 89//90 127//129 83//82
f 64//62 83//82 127//129
f 76//75 86//85 67//67
f 127//129 132//134 76//75
f 127//129 89//90 132//134
f 125//126 82//81 129//131
f 82//81 125//126 22//22
f 88//89 82//81 22//22
f 89//90 83//82 88//89
f 83//82 82//81 88//89
f 99//100 91//93 90//91
f 134//135 133//136 91//93
f 94//95 91//93 133//136
f 99//100 100//101 101//109
f 101//109 135//137 99//100
f 134//135 99//100 135//137
f 134//135 91//93 99//100
f 135//137 113//113 116//117
f 116//117 134//135 135//137
f 102//102 116//117 114//116
f 103//103 102//102 114//116
f 94//95 133//136 102//102
f 102//102 134//135 116//117
f 105//105 107//107 97//98
f 111//112 135//137 101//109
f 135//137 111//112 136//138
f 113//113 135//137 136//138
f 111//112 124//127 136//138
f 136//138 137//139 113//113
f 126//128 113//113 137//139
