# Blender v2.78 (sub 0) OBJ File: 'exporter.blend'
# www.blender.org
o FJ3399.obj_grp1.2038
v 0.147788 -0.605579 4.595330
v 0.149242 -0.601354 4.587102
v 0.180817 -0.590866 4.616043
v 0.145119 -0.602791 4.595568
v 0.150039 -0.600982 4.587714
v 0.147881 -0.604894 4.595568
v 0.181271 -0.590097 4.617425
v 0.144598 -0.594185 4.593099
v 0.145251 -0.595749 4.588526
v 0.142941 -0.598565 4.595568
v 0.141682 -0.600431 4.597245
v 0.145251 -0.595749 4.588526
v 0.145209 -0.595655 4.588459
v 0.144598 -0.594185 4.593099
v 0.146636 -0.597157 4.587118
v 0.170701 -0.587894 4.602108
v 0.187012 -0.576289 4.622424
v 0.142546 -0.598290 4.595683
v 0.145980 -0.600792 4.594410
v 0.147881 -0.604894 4.595568
v 0.177971 -0.578907 4.619405
v 0.167742 -0.590091 4.615661
v 0.191122 -0.583218 4.627673
v 0.181431 -0.584141 4.630815
v 0.196236 -0.578570 4.634418
v 0.193707 -0.583743 4.629457
v 0.187135 -0.578936 4.640385
v 0.184705 -0.583191 4.635515
v 0.190062 -0.574008 4.637764
v 0.198162 -0.573667 4.667165
v 0.197383 -0.572060 4.657673
v 0.194578 -0.582073 4.651965
v 0.190062 -0.574008 4.637764
v 0.202812 -0.581649 4.654599
v 0.200209 -0.578609 4.673400
v 0.212656 -0.579608 4.702191
v 0.208038 -0.573510 4.666358
v 0.210057 -0.576172 4.670668
v 0.210057 -0.576172 4.670668
v 0.200209 -0.578609 4.673400
v 0.223426 -0.567283 4.738967
v 0.209289 -0.571806 4.711056
v 0.209289 -0.571806 4.711056
v 0.218791 -0.573760 4.735062
v 0.219709 -0.571670 4.709085
v 0.220217 -0.571521 4.709843
v 0.223222 -0.572717 4.722464
v 0.223222 -0.572717 4.722464
v 0.230467 -0.559746 4.773354
v 0.214823 -0.568506 4.704953
v 0.222525 -0.562314 4.747674
v 0.227136 -0.564079 4.738238
v 0.222525 -0.562314 4.747674
v 0.222525 -0.562314 4.747674
v 0.233470 -0.565580 4.764642
v 0.225632 -0.572239 4.740803
v 0.237953 -0.561149 4.769739
v 0.248520 -0.532348 4.822970
v 0.242628 -0.536364 4.818024
v 0.235655 -0.549295 4.789503
v 0.237953 -0.561149 4.769739
v 0.223222 -0.572717 4.722464
v 0.237334 -0.557645 4.765085
v 0.236846 -0.551165 4.792560
v 0.245059 -0.548511 4.809643
v 0.243307 -0.548000 4.787954
v 0.256046 -0.532219 4.842807
v 0.227136 -0.564079 4.738238
v 0.249101 -0.532970 4.824906
v 0.259815 -0.520036 4.851023
v 0.259370 -0.530393 4.839627
v 0.256112 -0.532367 4.842270
v 0.257737 -0.521030 4.870318
v 0.252157 -0.520566 4.859090
v 0.256300 -0.508490 4.880109
v 0.257073 -0.496672 4.929025
v 0.262970 -0.500642 4.940978
v 0.265467 -0.493205 4.929921
v 0.267594 -0.497180 4.943440
v 0.263468 -0.497888 4.960474
v 0.261831 -0.497104 4.979501
v 0.263456 -0.490544 4.977555
v 0.270340 -0.495847 4.979215
v 0.263368 -0.498054 4.960340
v 0.266316 -0.498159 4.974345
v 0.263591 -0.490650 4.977617
v 0.267570 -0.497619 4.991487
v 0.267594 -0.490481 4.980058
v 0.264344 -0.497964 4.988555
v 0.264007 -0.502983 4.987100
v 0.274425 -0.545890 5.004781
v 0.268484 -0.524544 5.000780
v 0.267752 -0.517441 5.002759
v 0.276217 -0.529400 5.006402
v 0.273342 -0.520233 4.996445
v 0.269055 -0.514212 4.993871
v 0.267686 -0.507975 4.988373
v 0.272969 -0.506012 4.997240
v 0.281390 -0.538714 5.002277
v 0.274599 -0.517442 5.003719
v 0.274138 -0.506018 4.997676
v 0.269213 -0.496651 4.946547
v 0.271098 -0.497568 4.981696
v 0.269996 -0.493110 4.972312
v 0.269996 -0.493110 4.972312
v 0.268870 -0.489504 4.973629
v 0.265291 -0.488848 4.971759
v 0.273408 -0.505961 4.997243
v 0.267594 -0.497636 4.991325
v 0.287654 -0.570145 4.995714
v 0.288966 -0.565720 4.991084
v 0.279152 -0.542242 4.997384
v 0.286392 -0.551178 4.998179
v 0.294630 -0.566016 4.993384
v 0.293425 -0.566120 4.992739
v 0.292868 -0.565852 5.000268
vn 0.5425 -0.7804 -0.3110
vn 0.6415 -0.0654 -0.7643
vn 0.6820 -0.7129 -0.1631
vn -0.6298 -0.5700 -0.5277
vn -0.5545 -0.6177 -0.5577
vn -0.5279 -0.6932 -0.4907
vn -0.9472 0.2367 -0.2161
vn -0.6131 -0.5969 -0.5174
vn -0.7812 -0.4340 -0.4487
vn -0.7248 -0.5061 -0.4675
vn 0.2172 0.7290 -0.6491
vn 0.4306 0.7627 -0.4826
vn 0.2578 0.6080 -0.7509
vn -0.6353 -0.0621 0.7698
vn -0.4075 0.9132 -0.0074
vn -0.4311 0.9023 0.0029
vn -0.4677 -0.4902 0.7355
vn -0.6063 -0.2983 0.7372
vn -0.5116 -0.2515 0.8216
vn -0.0247 -0.8943 0.4468
vn 0.0702 -0.9060 0.4174
vn 0.8246 -0.4237 -0.3749
vn 0.7919 0.5052 -0.3430
vn 0.7699 0.1557 -0.6189
vn -0.8816 0.2348 0.4093
vn -0.3606 -0.7611 0.5392
vn -0.7751 -0.2448 0.5825
vn -0.7576 0.5870 0.2855
vn -0.0045 0.9970 -0.0774
vn -0.8692 0.4024 0.2874
vn -0.3859 -0.8753 0.2916
vn 0.6575 -0.7104 -0.2510
vn 0.1816 0.9688 -0.1688
vn -0.4640 -0.8699 0.1674
vn 0.0396 -0.9961 0.0788
vn 0.9340 0.1104 -0.3397
vn 0.9439 0.1305 -0.3034
vn 0.8387 -0.5071 -0.1988
vn -0.9492 -0.1074 0.2958
vn 0.4293 0.8205 -0.3775
vn -0.8866 -0.3440 0.3092
vn -0.5370 0.8310 0.1452
vn -0.9452 -0.0868 0.3147
vn 0.2496 0.9587 -0.1363
vn 0.9793 -0.0655 -0.1916
vn 0.9511 -0.0861 -0.2966
vn 0.2324 -0.9678 0.0973
vn 0.6974 -0.7121 -0.0812
vn 0.0621 0.9861 -0.1541
vn -0.2608 0.9458 -0.1933
vn -0.0782 0.9722 -0.2205
vn 0.5138 0.7669 -0.3845
vn -0.9301 -0.1069 0.3513
vn -0.3814 -0.8283 0.4103
vn 0.7070 -0.7060 -0.0405
vn 0.3657 -0.9149 0.1711
vn 0.9360 0.0273 -0.3510
vn -0.3257 0.9070 -0.2670
vn -0.4593 0.8692 -0.1831
vn -0.9410 -0.0659 0.3320
vn -0.9592 -0.0291 0.2813
vn 0.9559 -0.2087 -0.2067
vn 0.9519 -0.1699 -0.2550
vn -0.7706 -0.5280 0.3570
vn 0.6476 -0.7501 0.1342
vn -0.5181 0.8374 -0.1743
vn 0.4066 0.8223 -0.3982
vn -0.3138 0.9052 -0.2867
vn -0.1492 -0.8675 0.4745
vn 0.7242 0.6222 -0.2972
vn 0.9707 -0.2126 -0.1116
vn 0.5497 -0.7937 0.2605
vn -0.6606 -0.6929 0.2889
vn 0.1571 -0.9451 0.2866
vn -0.4059 0.8756 -0.2617
vn -0.9310 0.3629 0.0390
vn -0.1679 -0.9631 0.2105
vn 0.4355 0.8690 -0.2348
vn 0.6397 -0.7670 0.0488
vn -0.2310 -0.9639 0.1322
vn -0.9913 -0.1262 -0.0363
vn -0.5344 0.7815 0.3219
vn 0.7842 -0.4991 -0.3686
vn -0.0063 -0.9940 0.1094
vn -0.1194 0.8876 0.4448
vn -0.5693 0.5682 0.5942
vn -0.2644 0.8906 0.3699
vn -0.8465 0.2937 0.4441
vn -0.9694 -0.0048 0.2453
vn -0.3038 0.9487 0.0881
vn 0.5514 0.8097 0.2008
vn -0.9368 -0.2105 -0.2794
vn -0.7059 -0.4201 0.5702
vn -0.6414 0.1068 0.7597
vn 0.2945 0.1928 0.9360
vn 0.5107 0.3457 -0.7872
vn 0.2113 -0.2504 -0.9448
vn 0.9287 0.3675 -0.0504
vn -0.3440 -0.6968 -0.6293
vn -0.4894 -0.5949 -0.6376
vn -0.0253 0.5029 0.8640
vn 0.8706 0.2345 0.4325
vn 0.8756 0.4680 -0.1199
vn 0.2172 -0.9461 -0.2402
vn 0.9290 -0.1357 -0.3442
vn 0.9745 -0.0109 -0.2241
vn 0.9970 0.0641 -0.0432
vn 0.9981 0.0368 -0.0486
vn 0.9610 0.2746 -0.0331
vn 0.6469 0.6951 0.3136
vn 0.7269 0.6524 0.2143
vn -0.1368 -0.1907 -0.9721
vn -0.3169 -0.9481 -0.0246
vn 0.5986 -0.3379 0.7263
vn 0.6533 0.4445 -0.6128
vn 0.5762 0.0802 -0.8134
vn 0.3221 0.4982 -0.8050
vn 0.8969 0.3685 0.2444
s 1
f 1//1 2//2 3//3
f 4//4 5//5 6//6
f 8//7 9//7 10//7
f 4//4 11//8 12//9
f 15//10 5//5 4//4
f 15//10 4//4 12//9
f 13//11 17//12 2//2
f 16//13 3//3 2//2
f 17//12 16//13 2//2
f 18//14 21//15 14//16
f 19//17 20//18 22//19
f 18//14 19//17 22//19
f 13//11 14//16 21//15
f 7//20 22//19 20//18
f 7//21 1//1 3//3
f 21//15 18//14 22//19
f 3//3 16//13 23//22
f 13//11 21//15 17//12
f 16//13 25//23 26//24
f 25//23 16//13 17//12
f 21//15 22//19 27//25
f 27//25 22//19 24//26
f 22//19 7//20 24//26
f 24//26 28//27 27//25
f 29//28 21//15 27//25
f 27//25 31//29 29//28
f 27//25 30//30 31//29
f 32//31 24//26 7//20
f 32//31 7//20 34//32
f 28//27 32//31 27//25
f 21//15 33//33 17//12
f 33//33 31//29 17//12
f 3//3 23//22 34//32
f 35//34 27//25 32//31
f 35//34 32//31 34//32
f 34//32 36//35 35//34
f 26//24 25//23 37//36
f 26//24 37//36 38//37
f 34//32 23//22 39//38
f 27//25 40//39 30//30
f 17//12 31//29 41//40
f 40//39 42//41 30//30
f 30//30 43//42 31//29
f 43//42 41//40 31//29
f 42//41 40//39 44//43
f 25//23 17//12 41//40
f 25//23 41//40 45//44
f 37//36 46//45 38//37
f 38//37 46//45 47//46
f 36//35 44//47 35//34
f 34//32 39//38 48//48
f 50//49 51//50 52//51
f 41//40 43//42 53//52
f 44//43 54//53 42//41
f 36//35 34//32 48//48
f 55//54 44//47 36//35
f 36//35 48//48 56//55
f 57//56 56//55 48//48
f 63//57 47//46 46//45
f 52//51 51//50 58//58
f 51//50 59//59 58//58
f 44//43 60//60 54//53
f 60//60 44//43 49//61
f 61//62 62//63 63//57
f 55//54 64//64 44//47
f 65//65 56//55 57//56
f 63//57 46//45 66//66
f 60//60 49//61 64//64
f 66//66 68//67 69//68
f 55//54 67//69 64//64
f 63//57 66//66 70//70
f 71//71 61//62 63//57
f 70//70 71//71 63//57
f 65//65 57//56 71//71
f 70//70 66//66 69//68
f 65//65 71//71 72//72
f 64//64 74//73 60//60
f 64//64 67//69 73//74
f 74//73 64//64 73//74
f 59//59 74//73 58//58
f 69//68 75//75 70//70
f 74//73 76//76 58//58
f 72//72 71//71 73//74
f 77//77 74//73 73//74
f 71//71 70//70 73//74
f 58//58 76//76 75//75
f 70//70 75//75 78//78
f 74//73 77//77 76//76
f 77//77 73//74 79//79
f 73//74 70//70 79//79
f 78//78 75//75 76//76
f 77//77 80//80 76//76
f 80//80 81//81 76//76
f 76//76 81//81 82//82
f 79//79 83//83 77//77
f 77//77 83//83 84//84
f 86//85 87//86 88//87
f 86//85 89//88 87//86
f 90//89 89//88 81//81
f 89//88 82//82 81//81
f 78//78 76//76 107//90
f 107//90 76//76 82//82
f 78//78 107//90 106//91
f 82//82 86//85 107//90
f 107//90 86//85 88//87
f 92//92 91//93 93//94
f 91//93 94//95 93//94
f 112//96 95//97 99//98
f 93//94 97//99 92//92
f 95//97 92//92 96//100
f 98//101 87//86 93//94
f 98//101 93//94 94//95
f 99//98 100//102 94//95
f 70//70 78//78 102//103
f 97//99 81//81 85//104
f 93//94 81//81 97//99
f 96//100 97//99 95//97
f 97//99 103//105 95//97
f 95//97 103//105 101//106
f 90//89 93//94 89//88
f 93//94 87//86 89//88
f 78//78 104//107 102//103
f 83//83 85//104 84//84
f 80//80 85//104 81//81
f 102//103 104//107 83//108
f 97//99 85//104 103//105
f 85//104 83//83 103//105
f 103//105 105//109 106//91
f 103//105 106//91 101//106
f 107//90 108//110 106//91
f 108//110 107//90 109//111
f 105//109 78//78 106//91
f 111//112 92//92 112//96
f 111//112 110//113 92//92
f 110//113 91//93 92//92
f 112//96 92//92 95//97
f 116//114 94//95 91//93
f 116//114 99//98 94//95
f 113//115 112//96 99//98
f 99//98 101//106 100//102
f 95//97 101//106 99//98
f 115//116 110//113 111//112
f 111//112 112//96 113//115
f 115//116 116//114 110//113
f 111//112 113//115 114//117
f 111//112 114//117 115//116
f 110//113 116//114 91//93
f 99//98 116//114 114//118
