# Blender v2.78 (sub 0) OBJ File: 'exporter.blend'
# www.blender.org
o FJ3312.obj_grp1.1952
v 0.657125 -0.779565 -0.311085
v 0.663582 -0.774977 -0.307815
v 0.639420 -0.807822 -0.299033
v 0.645865 -0.796582 -0.305208
v 0.661721 -0.796958 -0.317061
v 0.629447 -0.800007 -0.285956
v 0.633426 -0.797459 -0.294048
v 0.632981 -0.797213 -0.292561
v 0.631113 -0.795534 -0.288087
v 0.637699 -0.797415 -0.299989
v 0.633052 -0.794682 -0.282214
v 0.631261 -0.795797 -0.287725
v 0.635014 -0.797316 -0.273916
v 0.640783 -0.810081 -0.284357
v 0.667287 -0.809058 -0.305288
v 0.658889 -0.789678 -0.316854
v 0.648831 -0.792374 -0.302667
v 0.652561 -0.795496 -0.289927
v 0.664387 -0.776336 -0.311530
v 0.667253 -0.794692 -0.316341
v 0.661313 -0.788593 -0.296941
v 0.674573 -0.785336 -0.308344
v 0.668489 -0.775625 -0.300290
v 0.667120 -0.775754 -0.307862
v 0.667231 -0.775889 -0.307632
v 0.671430 -0.775683 -0.299314
v 0.658375 -0.817472 -0.298882
v 0.661839 -0.822588 -0.291966
v 0.645177 -0.795381 -0.269180
v 0.644651 -0.795646 -0.268441
v 0.657283 -0.787450 -0.266284
v 0.677209 -0.804584 -0.306148
v 0.679409 -0.807097 -0.304484
v 0.677504 -0.772491 -0.282869
v 0.671572 -0.771951 -0.285185
v 0.673528 -0.772787 -0.290526
v 0.674392 -0.772774 -0.287391
v 0.672984 -0.772875 -0.279049
v 0.672918 -0.773430 -0.278642
v 0.671611 -0.779217 -0.270024
v 0.666877 -0.826161 -0.291815
v 0.670416 -0.809668 -0.273497
v 0.660341 -0.787888 -0.264799
v 0.687659 -0.799473 -0.273875
v 0.678265 -0.777951 -0.276562
v 0.678265 -0.777951 -0.276562
v 0.670148 -0.825874 -0.298351
v 0.697091 -0.844939 -0.306749
v 0.694805 -0.829780 -0.302213
v 0.675713 -0.838874 -0.292454
v 0.695161 -0.821928 -0.298325
v 0.696055 -0.818094 -0.283225
v 0.691743 -0.866349 -0.297993
v 0.676528 -0.838850 -0.292247
v 0.712656 -0.874115 -0.289811
v 0.699143 -0.882173 -0.298633
v 0.689805 -0.859774 -0.296066
v 0.704870 -0.843704 -0.309445
v 0.706058 -0.835718 -0.301354
v 0.713492 -0.858207 -0.325057
v 0.706194 -0.870825 -0.310969
v 0.707985 -0.852397 -0.315418
v 0.719736 -0.863607 -0.327634
v 0.713502 -0.858169 -0.325212
v 0.724185 -0.863961 -0.327031
v 0.705903 -0.844710 -0.310249
v 0.722381 -0.855976 -0.320408
v 0.725342 -0.858633 -0.308080
v 0.719951 -0.877044 -0.295734
v 0.694082 -0.875839 -0.302847
v 0.699198 -0.881968 -0.298869
v 0.705004 -0.884538 -0.300162
v 0.714949 -0.876490 -0.307694
v 0.727255 -0.866632 -0.325437
v 0.728050 -0.866773 -0.326133
v 0.729375 -0.868622 -0.324166
v 0.732200 -0.867160 -0.318707
v 0.706307 -0.884671 -0.296674
v 0.727589 -0.871101 -0.305647
v 0.718174 -0.876745 -0.297136
v 0.730986 -0.870391 -0.318026
v 0.731212 -0.867411 -0.318392
v 0.730939 -0.870290 -0.318067
v 0.731446 -0.868942 -0.315991
v 0.726479 -0.870670 -0.305471
vn -0.6750 -0.5191 -0.5244
vn -0.7435 0.2596 -0.6164
vn -0.1066 -0.3014 -0.9475
vn -0.7417 0.4611 -0.4871
vn -0.1159 0.9814 -0.1529
vn -0.3775 0.8734 -0.3077
vn -0.9761 -0.1990 0.0869
vn -0.8493 -0.0743 -0.5226
vn -0.9179 0.3816 -0.1086
vn -0.5201 -0.7836 0.3396
vn -0.6833 0.1209 0.7200
vn -0.4604 0.8782 0.1301
vn -0.3535 0.1504 -0.9232
vn -0.5543 0.8226 0.1272
vn 0.1395 0.6864 -0.7137
vn 0.4265 -0.0196 -0.9043
vn -0.6642 0.6863 -0.2964
vn -0.6722 0.6815 0.2894
vn 0.8215 0.2989 -0.4857
vn -0.3002 0.9515 0.0672
vn -0.4041 0.9056 0.1289
vn 0.5150 0.8294 -0.2163
vn 0.7169 0.5803 -0.3864
vn 0.4681 0.8314 -0.2995
vn -0.3519 -0.6417 -0.6814
vn -0.5155 -0.8042 -0.2958
vn -0.2385 -0.5823 0.7772
vn 0.0854 -0.4979 -0.8630
vn -0.3247 0.9429 0.0747
vn -0.3219 0.9440 -0.0724
vn 0.6405 0.0216 -0.7676
vn 0.5429 -0.0438 -0.8387
vn -0.5048 0.6996 0.5057
vn -0.7771 0.6288 0.0258
vn 0.6839 0.6069 -0.4049
vn -0.0582 0.9959 -0.0690
vn 0.4667 0.8520 0.2373
vn 0.9002 0.3608 -0.2440
vn 0.2047 0.5612 0.8020
vn -0.4243 0.8280 0.3665
vn -0.5178 -0.6078 0.6020
vn -0.0405 0.1845 0.9820
vn -0.2743 -0.4046 0.8724
vn 0.5772 0.5955 0.5588
vn 0.6921 0.1076 0.7137
vn -0.4822 0.0194 -0.8758
vn 0.1278 0.3704 -0.9200
vn -0.5520 -0.5953 -0.5839
vn -0.5567 -0.4668 -0.6872
vn 0.6469 0.5275 -0.5507
vn 0.8762 0.3974 0.2726
vn 0.9286 0.3551 0.1081
vn -0.6336 -0.5078 0.5837
vn 0.2833 -0.3197 0.9042
vn -0.6785 -0.5018 0.5365
vn -0.8961 -0.4193 0.1454
vn -0.3390 0.3786 -0.8612
vn 0.5758 0.6926 -0.4344
vn -0.9532 -0.2831 -0.1059
vn -0.6391 0.5478 -0.5399
vn -0.4457 -0.4621 -0.7667
vn -0.7698 0.1175 -0.6274
vn -0.1337 -0.1662 -0.9770
vn -0.0647 0.9522 -0.2985
vn 0.4097 0.1992 -0.8902
vn -0.0010 0.6269 -0.7791
vn 0.4341 0.7621 -0.4805
vn 0.8392 0.4311 0.3315
vn 0.6936 0.1822 0.6970
vn -0.6613 -0.6648 -0.3474
vn -0.8291 -0.4181 -0.3711
vn -0.0609 -0.9263 -0.3718
vn 0.1243 -0.8758 -0.4664
vn 0.2965 -0.2975 -0.9075
vn 0.6123 -0.3171 -0.7243
vn 0.5980 0.7276 -0.3361
vn 0.8440 0.5355 -0.0298
vn 0.0936 -0.8929 0.4404
vn 0.4429 -0.8959 0.0358
vn 0.5515 -0.7807 0.2939
vn 0.6803 -0.7195 -0.1399
vn 0.9969 0.0137 -0.0779
vn 0.6612 -0.1599 -0.7329
vn 0.8821 0.1951 0.4287
vn 0.8045 0.1547 0.5734
s 1
f 3//1 4//2 5//3
f 8//4 9//5 10//6
f 3//1 6//7 7//8
f 3//1 7//8 4//2
f 10//6 9//5 4//2
f 7//8 6//7 12//9
f 6//7 14//10 13//11
f 12//9 6//7 11//12
f 11//12 6//7 13//11
f 16//13 5//3 4//2
f 17//14 4//2 9//5
f 19//15 20//16 16//13
f 16//13 20//16 5//3
f 4//2 17//14 1//17
f 1//17 16//13 4//2
f 1//17 17//14 21//18
f 20//16 19//15 22//19
f 1//17 19//15 16//13
f 1//17 2//20 19//15
f 21//18 2//20 1//17
f 21//18 23//21 2//20
f 25//22 19//15 2//20
f 22//19 19//15 24//23
f 24//23 25//22 22//19
f 25//22 2//20 23//21
f 25//22 23//21 26//24
f 3//1 14//10 6//7
f 5//3 27//25 3//1
f 27//25 28//26 3//1
f 3//1 28//26 14//10
f 14//10 30//27 13//11
f 5//3 15//28 27//25
f 9//5 18//29 17//14
f 11//12 18//29 9//5
f 13//11 29//30 11//12
f 11//12 29//30 18//29
f 22//19 32//31 20//16
f 5//3 20//16 33//32
f 21//18 17//14 18//29
f 21//18 18//29 31//33
f 18//29 29//30 31//33
f 32//31 22//19 33//32
f 21//18 31//33 35//34
f 22//19 25//22 26//24
f 22//19 26//24 36//35
f 26//24 23//21 37//36
f 21//18 35//34 23//21
f 37//36 23//21 38//37
f 22//19 36//35 34//38
f 31//33 40//39 39//40
f 35//34 31//33 39//40
f 41//41 14//10 28//26
f 41//41 30//27 14//10
f 43//42 31//33 30//27
f 15//28 5//3 33//32
f 30//27 42//43 43//42
f 33//32 22//19 34//38
f 40//39 31//33 43//42
f 40//39 45//44 38//37
f 37//36 38//37 45//44
f 45//44 40//39 44//45
f 48//46 27//25 49//47
f 28//26 47//48 50//49
f 47//48 28//26 27//25
f 41//41 42//43 30//27
f 49//47 15//28 51//50
f 27//25 15//28 49//47
f 51//50 15//28 33//32
f 43//42 42//43 44//45
f 51//50 33//32 34//38
f 43//42 44//45 40//39
f 34//38 46//51 44//45
f 44//45 52//52 34//38
f 50//49 47//48 48//46
f 54//53 42//43 41//41
f 52//52 51//50 34//38
f 55//54 42//43 56//55
f 44//45 42//43 55//54
f 44//45 55//54 52//52
f 57//56 42//43 54//53
f 49//47 58//57 48//46
f 49//47 51//50 59//58
f 52//52 59//58 51//50
f 48//46 53//59 50//49
f 60//60 61//61 62//62
f 63//63 61//61 60//60
f 53//59 48//46 62//62
f 57//56 56//55 42//43
f 63//63 64//64 65//65
f 60//60 62//62 66//66
f 67//67 64//64 60//60
f 66//66 67//67 60//60
f 62//62 48//46 58//57
f 62//62 58//57 66//66
f 67//67 66//66 59//58
f 68//68 67//67 59//58
f 49//47 59//58 66//66
f 52//52 55//54 69//69
f 71//70 70//71 72//72
f 53//59 70//71 71//70
f 61//61 70//71 62//62
f 70//71 61//61 72//72
f 62//62 70//71 53//59
f 56//55 57//56 53//59
f 63//63 73//73 61//61
f 74//74 63//63 65//65
f 67//67 65//65 64//64
f 76//75 63//63 74//74
f 75//76 65//65 77//77
f 77//77 65//65 67//67
f 68//68 77//77 67//67
f 59//58 52//52 68//68
f 68//68 52//52 69//69
f 72//72 78//78 71//70
f 73//73 72//72 61//61
f 79//79 72//72 73//73
f 78//78 79//79 80//80
f 72//72 79//79 78//78
f 71//70 56//55 53//59
f 78//78 55//54 56//55
f 76//75 81//81 73//73
f 73//73 81//81 79//79
f 76//75 73//73 63//63
f 76//75 74//74 82//82
f 82//82 83//83 76//75
f 82//82 81//81 83//83
f 77//77 68//68 84//84
f 79//79 81//81 82//82
f 84//84 68//68 85//85
f 68//68 69//69 85//85
f 78//78 80//80 55//54
