# Blender v2.78 (sub 0) OBJ File: 'exporter.blend'
# www.blender.org
o FJ3301.obj_grp1.1941
v -0.709708 -0.992836 -0.315402
v -0.711624 -0.993137 -0.315002
v -0.712297 -0.994044 -0.309832
v -0.691124 -0.944334 -0.314234
v -0.677170 -0.951239 -0.319322
v -0.688992 -0.958805 -0.314102
v -0.692499 -0.968435 -0.311357
v -0.688706 -0.958746 -0.313814
v -0.694585 -0.969766 -0.302171
v -0.682234 -0.935343 -0.316938
v -0.686655 -0.934779 -0.312238
v -0.688234 -0.936293 -0.306332
v -0.688579 -0.938883 -0.300854
v -0.685251 -0.938962 -0.301902
v -0.688579 -0.938883 -0.300854
v -0.677495 -0.934403 -0.315279
v -0.674126 -0.934752 -0.312100
v -0.680692 -0.933606 -0.314784
v -0.681685 -1.012472 -0.316514
v -0.713335 -0.994398 -0.310019
v -0.681038 -1.011046 -0.319612
v -0.711297 -0.997882 -0.305354
v -0.707550 -0.987956 -0.301534
v -0.707388 -0.988152 -0.301923
v -0.712297 -0.994044 -0.309832
v -0.707823 -0.998113 -0.301883
v -0.681145 -1.008479 -0.320628
v -0.684038 -0.983768 -0.316919
v -0.700918 -0.979125 -0.309928
v -0.699981 -0.979413 -0.309593
v -0.697437 -0.971127 -0.302308
v -0.691688 -0.968704 -0.296853
v -0.671357 -0.966393 -0.317817
v -0.686295 -0.942073 -0.291504
v -0.678381 -0.944721 -0.286488
v -0.660433 -0.957025 -0.323307
v -0.654028 -0.956279 -0.300595
v -0.685251 -0.938962 -0.301902
v -0.653623 -0.954985 -0.307484
v -0.684824 -0.942709 -0.291604
v -0.684457 -0.941791 -0.293228
v -0.684824 -0.942709 -0.291604
v -0.660942 -0.943136 -0.320995
v -0.654576 -0.953901 -0.319909
v -0.660942 -0.943136 -0.320995
v -0.660942 -0.943136 -0.320995
v -0.653844 -0.949530 -0.317273
v -0.653623 -0.954985 -0.307484
v -0.684918 -1.011537 -0.305289
v -0.676276 -0.989784 -0.314516
v -0.683365 -0.990103 -0.303014
v -0.672723 -0.981731 -0.306941
v -0.671361 -0.953807 -0.285902
v -0.654142 -0.959103 -0.306950
v -0.651188 -0.956243 -0.312986
v -0.664484 -0.947110 -0.289842
v -0.661049 -0.949746 -0.290623
v -0.653844 -0.949530 -0.317273
v -0.652032 -0.955718 -0.312737
v -0.654576 -0.953901 -0.319909
v -0.654576 -0.953901 -0.319909
v -0.653844 -0.949530 -0.317273
v -0.652032 -0.955718 -0.312737
v -0.680305 -1.011267 -0.316933
v -0.682747 -1.013539 -0.306336
v -0.673243 -0.982375 -0.307234
v -0.676364 -0.990364 -0.314625
v -0.660564 -0.952383 -0.289758
v -0.653990 -0.956756 -0.299698
v -0.653417 -0.959628 -0.307057
v -0.654421 -0.956703 -0.300547
v -0.654421 -0.956703 -0.300547
v -0.661077 -0.949801 -0.290731
vn -0.8474 0.1953 -0.4938
vn -0.2581 -0.0746 -0.9632
vn -0.3179 -0.0416 -0.9472
vn -0.9084 -0.1050 -0.4047
vn -0.8661 0.4842 0.1239
vn -0.2472 0.6377 -0.7295
vn -0.4943 0.8472 -0.1946
vn -0.4971 0.8320 0.2464
vn -0.9799 0.0300 0.1974
vn 0.2248 0.8111 0.5399
vn 0.1425 0.9129 0.3826
vn 0.1138 0.7489 -0.6529
vn 0.0438 0.9808 0.1902
vn 0.3579 0.9012 0.2444
vn 0.2350 0.9637 -0.1264
vn 0.0645 -0.9704 -0.2329
vn -0.4052 0.0789 -0.9108
vn -0.4799 -0.6049 -0.6354
vn -0.4924 -0.7404 -0.4574
vn -0.8219 -0.4984 0.2760
vn -0.7715 0.6362 -0.0013
vn -0.8226 0.5656 -0.0591
vn -0.7926 0.6031 -0.0898
vn -0.3267 -0.0886 0.9410
vn -0.8939 0.2218 0.3895
vn -0.3524 -0.4046 0.8439
vn -0.0790 0.1347 -0.9877
vn -0.2477 -0.1913 -0.9498
vn -0.2442 0.4989 -0.8315
vn -0.2526 0.3429 -0.9048
vn -0.7795 0.6168 -0.1088
vn -0.5334 0.0966 -0.8404
vn -0.4730 0.6203 -0.6257
vn -0.7394 0.1978 0.6436
vn 0.1592 -0.2363 -0.9586
vn -0.8404 0.0276 0.5412
vn -0.1447 0.4740 0.8686
vn 0.2877 -0.3559 -0.8891
vn 0.4094 0.9088 0.0807
vn 0.4812 0.8509 0.2108
vn 0.3124 0.9193 0.2395
vn 0.5030 0.8385 0.2097
vn 0.1277 0.9337 0.3344
vn 0.1574 0.2368 -0.9587
vn 0.5459 0.2418 -0.8022
vn 0.3660 0.8840 -0.2907
vn 0.7124 0.6470 0.2716
vn 0.6046 0.7788 0.1674
vn 0.8429 0.3970 0.3633
vn -0.0425 -0.5349 0.8439
vn 0.7131 -0.1231 -0.6901
vn 0.0760 -0.0999 0.9921
vn 0.2583 -0.3115 0.9145
vn 0.6732 -0.7354 -0.0771
vn 0.7023 -0.6206 0.3489
vn 0.4555 -0.8482 -0.2702
vn 0.4911 0.7940 0.3584
vn 0.6242 0.7776 -0.0747
vn -0.1643 0.8673 0.4699
vn 0.6462 0.3118 -0.6966
vn 0.9371 0.2446 0.2491
vn 0.6478 -0.5874 -0.4850
vn 0.9448 0.0380 -0.3255
vn 0.7290 -0.5714 -0.3768
vn 0.9125 -0.1366 -0.3856
vn 0.7797 -0.2229 0.5851
vn 0.9421 -0.2816 0.1822
vn 0.7002 -0.5496 0.4557
vn 0.9009 -0.2063 0.3818
vn 0.6681 -0.0340 0.7433
vn 0.6355 -0.6253 0.4529
vn 0.9769 0.0621 0.2046
vn 0.9902 0.0558 0.1277
vn 0.8738 0.3133 0.3719
vn 0.6377 0.4207 0.6452
s 1
f 4//1 5//2 6//3
f 8//4 9//5 4//1
f 10//6 5//2 4//1
f 4//1 11//7 10//6
f 12//8 11//7 4//1
f 4//1 13//9 12//8
f 14//10 12//8 15//11
f 11//7 16//12 10//6
f 11//7 12//8 18//13
f 18//13 12//8 17//14
f 16//15 18//13 17//14
f 14//10 17//14 12//8
f 19//16 1//17 21//18
f 20//19 1//17 19//16
f 20//19 19//16 22//20
f 2//21 3//22 23//23
f 22//20 24//24 25//25
f 26//26 24//24 22//20
f 1//17 28//27 27//28
f 27//28 21//18 1//17
f 2//29 29//30 1//17
f 30//31 2//21 23//23
f 29//30 28//27 1//17
f 29//30 7//32 28//27
f 30//31 23//23 31//33
f 24//24 32//34 9//5
f 8//4 30//31 9//5
f 9//5 30//31 31//33
f 5//2 33//35 6//3
f 28//27 6//3 33//35
f 6//3 28//27 7//32
f 4//1 34//36 13//9
f 9//5 32//34 34//36
f 4//1 9//5 34//36
f 32//34 35//37 34//36
f 5//2 10//6 36//38
f 33//35 5//2 36//38
f 37//39 38//40 41//41
f 37//39 39//42 38//40
f 14//10 15//11 40//43
f 36//38 43//44 44//45
f 46//46 16//15 17//14
f 36//38 10//6 43//44
f 47//47 45//48 17//14
f 16//12 43//44 10//6
f 48//49 17//14 14//10
f 22//20 19//16 49//50
f 22//20 49//50 26//26
f 50//51 27//28 28//27
f 53//52 24//24 51//53
f 50//51 28//27 33//35
f 54//54 50//51 33//35
f 54//54 52//55 50//51
f 53//52 32//34 24//24
f 33//35 55//56 54//54
f 32//34 53//52 35//37
f 36//38 55//56 33//35
f 37//39 41//41 56//57
f 37//39 56//57 57//58
f 35//37 41//41 42//59
f 56//57 41//41 35//37
f 53//52 56//57 35//37
f 43//44 58//60 44//45
f 48//49 59//61 47//47
f 17//14 48//49 47//47
f 36//38 60//62 55//56
f 61//63 62//63 63//63
f 19//16 64//64 49//50
f 24//24 26//26 49//50
f 27//65 64//64 19//16
f 65//66 64//67 66//68
f 24//24 49//50 51//53
f 51//53 49//50 65//66
f 65//66 66//68 51//53
f 64//64 27//65 67//69
f 51//53 66//68 52//55
f 64//64 50//51 52//55
f 64//64 67//69 50//51
f 53//52 51//53 68//70
f 51//53 52//55 68//70
f 52//55 69//71 68//70
f 69//71 52//55 54//54
f 56//57 53//52 68//70
f 59//61 48//49 70//72
f 71//73 70//72 48//49
f 68//70 72//74 73//75
f 56//57 68//70 73//75
