# Blender v2.78 (sub 0) OBJ File: 'exporter.blend'
# www.blender.org
o FJ3307.obj_grp1.1947
v 0.280079 -0.515860 -0.128571
v 0.278979 -0.501208 -0.120479
v 0.303304 -0.510218 -0.139802
v 0.271958 -0.507165 -0.115200
v 0.276768 -0.490518 -0.095776
v 0.278118 -0.488820 -0.100559
v 0.288541 -0.484344 -0.107358
v 0.300695 -0.487330 -0.118279
v 0.276568 -0.490452 -0.095764
v 0.289122 -0.484715 -0.091665
v 0.278398 -0.489006 -0.100489
v 0.288541 -0.484344 -0.107358
v 0.280934 -0.527258 -0.119611
v 0.271958 -0.507165 -0.115200
v 0.294192 -0.536184 -0.131411
v 0.279989 -0.524835 -0.106708
v 0.279556 -0.516226 -0.099254
v 0.314064 -0.518486 -0.139812
v 0.279018 -0.490923 -0.089772
v 0.312568 -0.503473 -0.136587
v 0.311357 -0.483788 -0.121608
v 0.279132 -0.490978 -0.089968
v 0.326369 -0.495027 -0.141949
v 0.300695 -0.487330 -0.118279
v 0.307157 -0.485465 -0.112368
v 0.351042 -0.497000 -0.092747
v 0.361997 -0.497090 -0.144466
v 0.346022 -0.473997 -0.133477
v 0.314400 -0.557222 -0.119366
v 0.282875 -0.534570 -0.113939
v 0.289243 -0.539763 -0.104242
v 0.289618 -0.533671 -0.097046
v 0.287487 -0.517252 -0.090867
v 0.286029 -0.511689 -0.085412
v 0.312654 -0.503494 -0.136475
v 0.327263 -0.528098 -0.062313
v 0.312642 -0.496779 -0.073514
v 0.306787 -0.491541 -0.081289
v 0.357085 -0.477273 -0.137137
v 0.356876 -0.466293 -0.135759
v 0.354201 -0.468720 -0.133261
v 0.354077 -0.468586 -0.133381
v 0.356388 -0.465837 -0.135954
v 0.365585 -0.468932 -0.141753
v 0.374444 -0.493030 -0.088006
v 0.363819 -0.458481 -0.137177
v 0.378070 -0.458559 -0.132630
v 0.362288 -0.459560 -0.136688
v 0.368776 -0.458020 -0.135900
v 0.381531 -0.459139 -0.127520
v 0.312534 -0.546274 -0.131749
v 0.331297 -0.531535 -0.140403
v 0.368870 -0.553616 -0.103321
v 0.299452 -0.525333 -0.083951
v 0.356828 -0.519953 -0.141878
v 0.311867 -0.494461 -0.072239
v 0.313617 -0.498532 -0.069057
v 0.311867 -0.494461 -0.072239
v 0.306366 -0.495086 -0.074980
v 0.365703 -0.480964 -0.138753
v 0.392255 -0.486999 -0.134896
v 0.388439 -0.469928 -0.130751
v 0.388332 -0.527935 -0.130735
v 0.337345 -0.499031 -0.051177
v 0.337340 -0.498997 -0.051537
v 0.394569 -0.521083 -0.126963
v 0.384987 -0.457840 -0.123319
v 0.386536 -0.459382 -0.118156
v 0.389378 -0.459112 -0.120534
v 0.385178 -0.458097 -0.123082
v 0.386536 -0.459382 -0.118156
v 0.389378 -0.459112 -0.120534
v 0.326382 -0.558446 -0.088305
v 0.351874 -0.502372 -0.043612
v 0.359845 -0.498664 -0.040543
v 0.405132 -0.492752 -0.136675
v 0.432375 -0.479690 -0.125652
v 0.401172 -0.469857 -0.086529
v 0.398129 -0.456898 -0.106853
v 0.444588 -0.473667 -0.114667
v 0.400209 -0.456186 -0.107810
v 0.417157 -0.442573 -0.086730
v 0.337225 -0.568816 -0.086736
v 0.336096 -0.545290 -0.064054
v 0.337710 -0.534794 -0.061940
v 0.405132 -0.492752 -0.136675
v 0.367520 -0.495204 -0.084480
v 0.371657 -0.493455 -0.087739
v 0.371838 -0.501039 -0.084290
v 0.377104 -0.499109 -0.087683
v 0.369686 -0.496830 -0.073885
v 0.372454 -0.500696 -0.084009
v 0.369561 -0.498438 -0.084250
v 0.377104 -0.499109 -0.087683
v 0.372454 -0.500696 -0.084009
v 0.379804 -0.499452 -0.084225
v 0.367464 -0.496841 -0.081950
v 0.367494 -0.495278 -0.084512
v 0.374160 -0.493126 -0.088916
v 0.369561 -0.498438 -0.084250
v 0.367494 -0.495278 -0.084512
v 0.367464 -0.496893 -0.081957
v 0.372454 -0.500696 -0.084009
v 0.370751 -0.496095 -0.074656
v 0.379804 -0.499452 -0.084225
v 0.371749 -0.494133 -0.072728
v 0.377569 -0.492640 -0.086957
v 0.378890 -0.491056 -0.083551
v 0.379706 -0.497072 -0.086426
v 0.377104 -0.499109 -0.087683
v 0.379706 -0.497072 -0.086426
v 0.379804 -0.499452 -0.084225
v 0.379706 -0.497072 -0.086426
v 0.377104 -0.499109 -0.087683
v 0.379706 -0.497072 -0.086426
v 0.379804 -0.499452 -0.084225
v 0.369185 -0.495259 -0.073805
v 0.371749 -0.494133 -0.072728
v 0.370751 -0.496095 -0.074656
v 0.377141 -0.494591 -0.074349
v 0.376989 -0.492389 -0.074533
v 0.376389 -0.494137 -0.076345
v 0.429287 -0.481752 -0.127317
v 0.419795 -0.445658 -0.077425
v 0.420123 -0.444424 -0.077209
v 0.351541 -0.567862 -0.079202
v 0.348563 -0.567112 -0.077066
v 0.351843 -0.502428 -0.043753
v 0.363144 -0.513076 -0.038989
v 0.442672 -0.513468 -0.066086
v 0.362458 -0.499002 -0.040307
v 0.370338 -0.495425 -0.036375
v 0.443928 -0.474169 -0.115495
v 0.454378 -0.472940 -0.093667
v 0.417593 -0.454514 -0.058692
v 0.417539 -0.453928 -0.056839
v 0.376320 -0.554389 -0.059362
v 0.388855 -0.559718 -0.067973
v 0.363343 -0.535217 -0.051373
v 0.372782 -0.494790 -0.035775
v 0.383170 -0.486275 -0.030458
v 0.381926 -0.486697 -0.029906
v 0.404208 -0.467564 -0.039396
v 0.394833 -0.480147 -0.029569
v 0.404349 -0.467341 -0.039268
v 0.418915 -0.505409 -0.040340
v 0.394833 -0.480147 -0.029569
v 0.448645 -0.473228 -0.107859
v 0.451388 -0.485833 -0.083205
v 0.367080 -0.564411 -0.071905
v 0.389287 -0.558481 -0.060602
v 0.376018 -0.547732 -0.056179
v 0.370312 -0.541267 -0.050788
v 0.387580 -0.537018 -0.043715
v 0.453706 -0.473218 -0.093478
v 0.453512 -0.483195 -0.084858
v 0.381894 -0.561505 -0.062720
v 0.389536 -0.558665 -0.060722
v 0.390400 -0.555982 -0.061451
v 0.391755 -0.555036 -0.059333
v 0.383744 -0.550107 -0.060838
v 0.382714 -0.547459 -0.060138
v 0.383744 -0.550107 -0.060838
v 0.386155 -0.547771 -0.058305
v 0.382719 -0.547511 -0.060088
v 0.389735 -0.544799 -0.054486
v 0.406566 -0.544285 -0.057525
v 0.402430 -0.542492 -0.050062
v 0.399537 -0.516249 -0.033956
v 0.441017 -0.513057 -0.065278
v 0.389434 -0.558313 -0.061164
v 0.393878 -0.555844 -0.061415
v 0.425275 -0.530178 -0.049509
vn -0.5721 0.5381 -0.6189
vn -0.6763 -0.0214 -0.7363
vn -0.7485 0.4503 -0.4868
vn -0.8769 0.3615 -0.3169
vn -0.8512 0.4082 -0.3300
vn -0.4863 0.6915 -0.5342
vn -0.4094 0.7129 -0.5694
vn -0.4594 0.8667 0.1945
vn -0.2005 0.9109 0.3607
vn -0.4192 0.9052 0.0693
vn -0.1115 0.9918 -0.0619
vn -0.8718 -0.4725 -0.1291
vn -0.9460 -0.3205 0.0497
vn -0.4648 -0.5497 -0.6941
vn -0.2122 0.2136 -0.9536
vn -0.8119 -0.5106 0.2830
vn -0.8020 -0.4110 0.4335
vn -0.9172 -0.2301 0.3252
vn -0.7706 0.0131 0.6372
vn -0.2390 0.9415 -0.2375
vn -0.4081 0.4148 -0.8132
vn -0.4739 0.8331 0.2852
vn -0.2927 0.3352 -0.8956
vn -0.1295 0.9776 -0.1657
vn 0.0451 0.9912 0.1247
vn -0.4029 0.8530 -0.3316
vn 0.0798 0.1337 -0.9878
vn -0.1951 -0.9216 -0.3354
vn -0.9230 -0.3121 0.2251
vn -0.7359 -0.5969 0.3196
vn -0.1687 -0.1561 -0.9732
vn -0.6650 -0.4797 0.5724
vn -0.6804 -0.5018 0.5341
vn -0.6569 -0.3786 0.6520
vn 0.1755 0.2296 -0.9573
vn -0.4423 -0.2608 0.8581
vn -0.5867 0.1076 0.8026
vn 0.1259 0.9115 0.3916
vn -0.0658 0.9529 0.2962
vn -0.2946 0.2274 -0.9282
vn -0.4262 0.1724 -0.8881
vn -0.5565 -0.0316 -0.8302
vn -0.0807 0.1727 -0.9817
vn -0.4914 0.6817 0.5420
vn -0.3910 0.5483 0.7392
vn 0.0218 0.3907 -0.9203
vn 0.3728 0.8024 -0.4661
vn -0.4007 0.7287 0.5554
vn -0.7429 0.6658 0.0699
vn 0.1556 0.9874 0.0300
vn -0.1941 0.8821 0.4293
vn -0.0872 -0.6187 -0.7808
vn 0.0402 -0.4460 -0.8941
vn 0.3182 -0.8262 -0.4649
vn -0.5785 -0.4604 0.6733
vn 0.1117 -0.2511 -0.9615
vn 0.1210 0.9851 0.1220
vn -0.8251 0.0181 0.5647
vn -0.5110 0.3991 0.7613
vn -0.4417 0.4269 0.7891
vn -0.0004 0.1027 -0.9947
vn 0.1183 0.0259 -0.9926
vn 0.3233 0.3756 -0.8686
vn 0.5159 -0.4252 -0.7437
vn -0.5761 -0.1056 0.8105
vn 0.0247 0.9984 0.0503
vn 0.5959 -0.3696 -0.7130
vn -0.8260 0.3226 0.4622
vn -0.1594 0.9576 -0.2398
vn 0.0971 0.9693 0.2259
vn -0.0258 0.9963 0.0821
vn -0.1132 0.9916 0.0629
vn -0.5333 0.8106 0.2418
vn -0.6035 -0.6402 0.4753
vn -0.5663 0.0086 0.8241
vn -0.1777 0.9838 0.0218
vn -0.0347 0.1262 -0.9914
vn 0.1465 0.7097 -0.6891
vn 0.3773 0.8868 -0.2670
vn -0.7034 0.6225 0.3430
vn -0.0687 0.9336 -0.3517
vn 0.3183 0.7806 -0.5379
vn -0.1633 0.9852 -0.0520
vn -0.2788 -0.9442 0.1752
vn -0.4198 -0.4170 0.8061
vn -0.3169 -0.2709 0.9089
vn -0.2847 0.8812 0.3773
vn -0.1853 0.9827 0.0068
vn -0.1611 0.9800 -0.1168
vn 0.6169 0.7766 -0.1278
vn 0.5456 0.8274 -0.1328
vn -0.1567 0.9633 0.2178
vn 0.1479 0.9853 0.0859
vn 0.4317 0.3575 0.8281
vn 0.4094 0.3697 0.8341
vn 0.3988 0.4034 0.8235
vn 0.7716 0.5335 0.3464
vn -0.1614 0.8736 -0.4591
vn -0.1493 0.8142 -0.5611
vn -0.2159 0.8398 -0.4982
vn -0.3950 0.8768 -0.2742
vn -0.5724 0.2058 0.7938
vn 0.4030 0.3787 0.8332
vn -0.3521 -0.0947 0.9312
vn -0.3618 -0.1092 0.9258
vn -0.8148 -0.3363 0.4722
vn -0.9182 0.3958 0.0175
vn -0.6604 0.4951 0.5646
vn -0.9925 -0.1027 -0.0670
vn -0.9660 0.0227 -0.2576
vn -0.0106 0.7035 -0.7106
vn -0.2461 0.5055 -0.8270
vn -0.6696 0.6500 -0.3594
vn -0.2812 0.7241 -0.6297
vn 0.2575 -0.9040 -0.3413
vn -0.7029 -0.4119 0.5799
vn -0.3270 -0.1771 0.9283
vn 0.6369 -0.6943 -0.3350
vn -0.3776 0.0776 0.9227
vn 0.6363 -0.6296 -0.4457
vn 0.4634 -0.4611 -0.7567
vn -0.4505 0.8904 -0.0652
vn 0.6713 0.7060 0.2257
vn -0.8155 0.5078 0.2777
vn -0.7433 0.6614 0.1007
vn -0.1816 -0.8968 0.4034
vn 0.0278 -0.4795 0.8771
vn 0.5295 -0.8479 -0.0279
vn -0.3605 -0.4399 0.8225
vn -0.5712 0.2104 0.7934
vn 0.6937 -0.5803 -0.4267
vn -0.1627 -0.1580 0.9739
vn -0.6214 0.7816 0.0554
vn -0.6320 0.7586 0.1587
vn -0.4376 0.7246 0.5324
vn 0.5800 0.0018 0.8146
vn 0.6402 0.2210 0.7357
vn 0.2943 0.0640 0.9536
vn 0.7388 0.3811 0.5559
vn 0.7644 -0.5288 -0.3688
vn 0.8193 -0.4619 -0.3396
vn 0.7094 0.6886 0.1502
vn 0.1305 -0.9896 0.0599
vn -0.1781 -0.4375 0.8814
vn -0.3262 -0.5910 0.7377
vn 0.2870 -0.5915 0.7535
vn -0.0927 -0.6037 0.7918
vn 0.8625 -0.4052 -0.3032
vn 0.6991 0.3809 0.6051
vn 0.2609 -0.9530 0.1540
vn 0.4711 -0.8088 0.3521
vn -0.1628 -0.6891 0.7061
vn 0.1162 -0.0445 0.9922
vn -0.3118 -0.1443 0.9391
vn 0.2569 -0.6745 0.6922
vn -0.4297 -0.4222 0.7982
vn -0.4361 -0.4613 0.7727
vn -0.4451 -0.4062 0.7980
vn -0.1015 -0.7283 0.6777
vn 0.1697 -0.5957 0.7850
vn 0.5720 -0.8145 0.0971
vn 0.3287 -0.6630 0.6726
vn 0.1529 -0.3177 0.9358
vn 0.8189 -0.0612 0.5707
vn 0.3953 -0.6456 0.6534
vn 0.4223 -0.6672 0.6136
vn 0.6339 -0.5927 0.4970
s 1
f 2//1 1//2 4//3
f 4//3 5//4 2//1
f 5//4 6//5 2//1
f 2//1 7//6 8//7
f 2//1 6//5 7//6
f 9//8 10//9 11//10
f 10//9 12//11 11//10
f 13//12 14//13 1//2
f 15//14 1//2 3//15
f 16//16 14//13 13//12
f 17//17 5//18 14//13
f 16//16 17//17 14//13
f 19//19 5//18 17//17
f 3//15 21//20 20//21
f 1//2 2//1 21//20
f 21//20 2//1 8//7
f 3//15 1//2 21//20
f 22//22 10//9 9//8
f 20//21 21//20 23//23
f 21//20 24//24 25//25
f 25//25 24//24 12//11
f 25//25 12//11 10//9
f 28//26 27//27 23//23
f 23//23 21//20 28//26
f 15//14 13//12 1//2
f 29//28 30//29 15//14
f 15//14 30//29 13//12
f 31//30 13//12 30//29
f 15//14 3//15 18//31
f 32//32 16//16 13//12
f 32//32 13//12 31//30
f 33//33 17//17 16//16
f 33//33 16//16 32//32
f 33//33 34//34 17//17
f 17//17 34//34 19//19
f 18//31 20//21 23//23
f 18//31 3//15 35//35
f 36//36 37//37 19//19
f 25//25 38//38 26//39
f 25//25 10//9 38//38
f 19//19 37//37 10//9
f 25//25 26//39 21//20
f 39//40 27//27 28//26
f 26//39 28//26 21//20
f 41//41 39//40 28//26
f 41//41 40//42 44//43
f 39//40 41//41 44//43
f 42//44 28//26 45//45
f 46//46 47//47 44//43
f 46//46 44//43 40//42
f 42//44 48//48 43//49
f 45//45 48//48 42//44
f 48//48 50//50 49//51
f 15//14 51//52 29//28
f 29//28 31//30 30//29
f 51//52 15//14 52//53
f 53//54 51//52 52//53
f 54//55 33//33 32//32
f 52//53 15//14 18//31
f 18//31 23//23 52//53
f 34//34 33//33 54//55
f 34//34 36//36 19//19
f 23//23 55//56 52//53
f 37//37 38//38 10//9
f 26//39 38//38 56//57
f 57//58 58//59 59//60
f 55//56 23//23 27//27
f 39//40 60//61 27//27
f 28//26 26//39 45//45
f 61//62 60//61 44//43
f 39//40 44//43 60//61
f 62//63 44//43 47//47
f 45//45 50//50 48//48
f 47//47 49//51 50//50
f 29//28 51//52 53//54
f 53//54 52//53 63//64
f 58//59 57//58 64//65
f 37//37 36//36 57//58
f 65//66 26//39 56//57
f 61//62 27//27 60//61
f 27//27 61//62 66//67
f 44//43 62//63 61//62
f 47//47 50//50 62//63
f 68//68 67//69 50//50
f 70//70 71//71 72//72
f 62//63 50//50 67//69
f 71//71 79//73 72//72
f 29//28 73//74 31//30
f 73//74 32//32 31//30
f 32//32 73//74 54//55
f 54//55 36//36 34//34
f 64//65 57//58 36//36
f 36//36 74//75 64//65
f 27//27 63//64 55//56
f 66//67 63//64 27//27
f 75//76 26//39 65//66
f 62//63 76//77 61//62
f 66//67 61//62 76//77
f 77//78 76//77 62//63
f 67//69 77//78 62//63
f 77//78 67//69 69//79
f 78//80 50//50 45//45
f 68//68 50//50 78//80
f 78//80 79//73 68//68
f 77//78 81//81 80//82
f 72//72 79//73 81//81
f 77//78 69//79 81//81
f 78//80 82//83 79//73
f 81//81 79//73 82//83
f 82//83 80//82 81//81
f 29//28 83//84 73//74
f 73//74 84//85 54//55
f 36//36 54//55 84//85
f 84//85 85//86 36//36
f 63//64 52//53 55//56
f 26//39 87//87 88//88
f 91//89 92//90 93//91
f 94//92 95//92 96//92
f 26//39 75//76 91//89
f 26//39 91//89 97//93
f 87//87 26//39 97//93
f 98//94 89//95 99//96
f 100//97 101//97 102//97
f 93//91 97//93 91//89
f 103//98 104//99 105//100
f 91//89 75//76 106//101
f 88//88 45//45 26//39
f 78//80 45//45 107//102
f 90//103 99//96 89//95
f 109//104 107//102 45//45
f 110//105 109//104 45//45
f 107//102 111//106 108//107
f 112//108 113//108 114//108
f 115//109 116//110 108//107
f 117//111 118//111 119//111
f 120//112 105//100 104//99
f 104//99 106//101 120//112
f 121//113 116//110 122//114
f 108//107 78//80 107//102
f 78//80 108//107 121//113
f 83//84 29//28 53//54
f 53//54 126//115 83//84
f 36//36 85//86 74//75
f 128//116 85//86 129//117
f 74//75 128//116 129//117
f 66//67 130//118 63//64
f 131//119 64//65 74//75
f 129//117 131//119 74//75
f 123//120 66//67 86//121
f 123//120 130//118 66//67
f 108//107 116//110 121//113
f 120//112 106//101 121//113
f 106//101 75//76 121//113
f 75//76 132//122 121//113
f 134//123 80//82 82//83
f 124//124 82//83 78//80
f 78//80 135//125 124//124
f 127//126 73//74 83//84
f 73//74 127//126 84//85
f 127//126 137//127 84//85
f 138//128 126//115 53//54
f 137//127 139//129 84//85
f 139//129 85//86 84//85
f 85//86 139//129 129//117
f 140//130 131//119 129//117
f 130//118 123//120 133//131
f 142//132 140//130 129//117
f 132//122 141//133 121//113
f 141//133 143//134 121//113
f 141//133 144//135 143//134
f 121//113 143//134 135//125
f 146//136 145//137 147//138
f 146//136 136//139 145//137
f 133//131 148//140 149//141
f 78//80 121//113 135//125
f 134//123 82//83 125//142
f 150//143 127//126 83//84
f 138//128 53//54 63//64
f 126//115 138//128 150//143
f 151//144 137//127 127//126
f 137//127 153//145 139//129
f 152//146 153//145 137//127
f 153//145 129//117 139//129
f 153//145 154//147 129//117
f 155//148 149//141 148//140
f 156//149 134//123 125//142
f 156//149 125//142 136//139
f 127//126 150//143 157//150
f 150//143 138//128 157//150
f 157//150 138//128 159//151
f 158//152 151//144 127//126
f 161//153 151//144 160//154
f 137//127 162//155 152//146
f 162//155 137//127 161//153
f 151//144 161//153 137//127
f 163//156 164//157 165//158
f 166//159 152//146 162//155
f 164//157 166//159 162//155
f 164//157 163//156 160//160
f 130//118 167//161 63//64
f 63//64 167//161 138//128
f 166//159 154//147 152//146
f 160//160 166//159 164//157
f 154//147 166//159 168//162
f 166//159 160//160 168//162
f 152//146 154//147 153//145
f 154//147 169//163 129//117
f 169//163 142//132 129//117
f 142//132 169//163 147//138
f 156//149 146//136 170//164
f 156//149 136//139 146//136
f 160//160 171//165 172//166
f 167//161 159//151 138//128
f 172//166 167//161 160//160
f 160//160 167//161 168//162
f 173//167 168//162 167//161
f 167//161 130//118 173//167
f 169//163 154//147 168//162
f 169//163 168//162 173//167
f 173//167 146//136 169//163
f 149//141 130//118 133//131
f 173//167 170//164 146//136
f 169//163 146//136 147//138
