# Blender v2.78 (sub 0) OBJ File: 'exporter.blend'
# www.blender.org
o FJ3341.obj_grp1.1981
v -0.384741 -0.916515 5.504858
v -0.385738 -0.921129 5.511818
v -0.385630 -0.922346 5.513314
v -0.384939 -0.923593 5.516325
v -0.379052 -0.921416 5.504345
v -0.384746 -0.917307 5.505527
v -0.385480 -0.922712 5.513322
v -0.384956 -0.923699 5.516452
v -0.373422 -0.913190 5.529846
v -0.381137 -0.911228 5.502476
v -0.379219 -0.907331 5.503556
v -0.382056 -0.913246 5.502286
v -0.379219 -0.907331 5.503556
v -0.376501 -0.906465 5.503844
v -0.374162 -0.904265 5.505809
v -0.382012 -0.913453 5.502758
v -0.363254 -0.925687 5.500920
v -0.370939 -0.917575 5.500054
v -0.377425 -0.906655 5.504917
v -0.376515 -0.906514 5.503931
v -0.379219 -0.907331 5.503556
v -0.377425 -0.906655 5.504917
v -0.376515 -0.906514 5.503931
v -0.377425 -0.906655 5.504917
v -0.376879 -0.905059 5.504870
v -0.377576 -0.904827 5.505376
v -0.376879 -0.905059 5.504870
v -0.376879 -0.905059 5.504870
v -0.375902 -0.904683 5.506185
v -0.374162 -0.904265 5.505809
v -0.373312 -0.900710 5.511451
v -0.371552 -0.932187 5.516939
v -0.338201 -0.944995 5.509685
v -0.362724 -0.937221 5.532730
v -0.374274 -0.927528 5.543559
v -0.384939 -0.923593 5.516325
v -0.377295 -0.928494 5.534822
v -0.377428 -0.928651 5.534841
v -0.375052 -0.928910 5.542268
v -0.372393 -0.929287 5.548238
v -0.372359 -0.928994 5.548139
v -0.360968 -0.923604 5.573190
v -0.366678 -0.926296 5.563148
v -0.370548 -0.927870 5.555056
v -0.365001 -0.925298 5.567626
v -0.361980 -0.913985 5.502769
v -0.375902 -0.904683 5.506185
v -0.372590 -0.898806 5.511302
v -0.374162 -0.904265 5.505809
v -0.372590 -0.898806 5.511302
v -0.372557 -0.898728 5.511264
v -0.373571 -0.900632 5.511489
v -0.372915 -0.897482 5.512616
v -0.372590 -0.898806 5.511302
v -0.372915 -0.897482 5.512616
v -0.372915 -0.897482 5.512616
v -0.367050 -0.890842 5.526126
v -0.366645 -0.892764 5.529235
v -0.367124 -0.891050 5.526231
v -0.352188 -0.906812 5.585968
v -0.348862 -0.937360 5.560165
v -0.326636 -0.943707 5.575886
v -0.360583 -0.923570 5.573130
v -0.333758 -0.932507 5.503126
v -0.336634 -0.939015 5.502505
v -0.331612 -0.920145 5.512377
v -0.353757 -0.907416 5.514746
v -0.366123 -0.891341 5.527686
v -0.365346 -0.892853 5.525010
v -0.367124 -0.891050 5.526231
v -0.365845 -0.890238 5.529000
v -0.365346 -0.892853 5.525010
v -0.366123 -0.891341 5.527686
v -0.366123 -0.891341 5.527686
v -0.365845 -0.890238 5.529000
v -0.367124 -0.891050 5.526231
v -0.366645 -0.892764 5.529235
v -0.366123 -0.891341 5.527686
v -0.365845 -0.890238 5.529000
v -0.365385 -0.892901 5.525036
v -0.353889 -0.888735 5.559880
v -0.344800 -0.905181 5.528860
v -0.303657 -0.964633 5.527113
v -0.305358 -0.956887 5.572166
v -0.354085 -0.888858 5.564343
v -0.357752 -0.888768 5.550314
v -0.357752 -0.888768 5.550314
v -0.354098 -0.889111 5.560126
v -0.356613 -0.917537 5.579702
v -0.354125 -0.910737 5.583787
v -0.356649 -0.917578 5.579776
v -0.349780 -0.899107 5.587904
v -0.352136 -0.907044 5.586028
v -0.314487 -0.956788 5.509419
v -0.352403 -0.889636 5.565835
v -0.353481 -0.891144 5.567403
v -0.354115 -0.888839 5.564351
v -0.353481 -0.891144 5.567403
v -0.352419 -0.889698 5.565853
v -0.354115 -0.888839 5.564351
v -0.352419 -0.889698 5.565853
v -0.353481 -0.891144 5.567403
v -0.350299 -0.892191 5.577919
v -0.350299 -0.892191 5.577919
v -0.349161 -0.894611 5.584737
v -0.349668 -0.893147 5.582191
v -0.348860 -0.897245 5.587451
v -0.349070 -0.894545 5.584792
v -0.349370 -0.896040 5.586275
v -0.349773 -0.898634 5.588068
v -0.351525 -0.903606 5.587137
v -0.348722 -0.897095 5.587697
v -0.321387 -0.915840 5.587054
v -0.331052 -0.926105 5.585090
v -0.312908 -0.951551 5.503139
v -0.308153 -0.962339 5.517402
v -0.312248 -0.947976 5.581288
v -0.281709 -0.942740 5.592182
v -0.306941 -0.913238 5.582089
v -0.303303 -0.917049 5.585293
v -0.303319 -0.947936 5.504268
v -0.295459 -0.959683 5.507651
v -0.296507 -0.963244 5.512113
v -0.306766 -0.913851 5.565179
v -0.274788 -0.953794 5.590727
v -0.267716 -0.961935 5.587481
v -0.290566 -0.927793 5.590644
v -0.298714 -0.954348 5.504896
v -0.263439 -0.943808 5.521703
v -0.293249 -0.967239 5.521101
v -0.293694 -0.924060 5.538791
v -0.242747 -0.979038 5.543754
v -0.264118 -0.972042 5.560642
v -0.274264 -0.927261 5.581375
v -0.265997 -0.966366 5.582086
v -0.260254 -0.963161 5.517295
v -0.266698 -0.934459 5.533188
v -0.273747 -0.933421 5.594212
v -0.269722 -0.930245 5.591471
v -0.264149 -0.953594 5.515986
v -0.251973 -0.971851 5.525411
v -0.249102 -0.976687 5.534495
v -0.234542 -0.940017 5.547776
v -0.240574 -0.961226 5.524999
v -0.235583 -0.975175 5.577343
v -0.251904 -0.934829 5.590744
v -0.239988 -0.956454 5.603904
v -0.225595 -0.965410 5.605144
v -0.191622 -0.958639 5.552184
v -0.235249 -0.967906 5.528209
v -0.208500 -0.948939 5.548900
v -0.236294 -0.971541 5.529689
v -0.228380 -0.977172 5.538379
v -0.221403 -0.971403 5.596004
v -0.247235 -0.938694 5.600979
v -0.237467 -0.938954 5.602760
v -0.246501 -0.942487 5.603878
v -0.223415 -0.981003 5.548877
v -0.216039 -0.981129 5.562029
v -0.237453 -0.937293 5.594695
v -0.228371 -0.944934 5.612449
v -0.208840 -0.942016 5.559613
v -0.185455 -0.961860 5.626355
v -0.217044 -0.940860 5.616508
v -0.219869 -0.938230 5.607872
v -0.198310 -0.978720 5.556518
v -0.192042 -0.968994 5.551983
v -0.189766 -0.980269 5.569277
v -0.191750 -0.977929 5.583393
v -0.188499 -0.939483 5.580129
v -0.185101 -0.956841 5.632939
v -0.193862 -0.943104 5.633022
v -0.179092 -0.935809 5.636088
v -0.178449 -0.950902 5.563125
v -0.167012 -0.943436 5.575407
v -0.163477 -0.966814 5.571893
v -0.170885 -0.975083 5.574327
v -0.164711 -0.939958 5.581900
v -0.190416 -0.938677 5.632893
v -0.190416 -0.938677 5.632893
v -0.160271 -0.959775 5.572786
v -0.168250 -0.942165 5.651574
v -0.146976 -0.948936 5.586009
v -0.146814 -0.965811 5.586518
v -0.161205 -0.933719 5.620676
v -0.144536 -0.949045 5.665769
v -0.140214 -0.957714 5.651390
v -0.159087 -0.935109 5.656600
v -0.144528 -0.959203 5.585881
v -0.145344 -0.940609 5.594614
v -0.126702 -0.932448 5.622905
v -0.129328 -0.967636 5.626014
v -0.114551 -0.965126 5.626564
v -0.126963 -0.924393 5.676734
v -0.132681 -0.938730 5.680105
v -0.136753 -0.932649 5.676667
v -0.114134 -0.939968 5.624429
v -0.109561 -0.954628 5.624239
v -0.119499 -0.922977 5.655355
v -0.095123 -0.958102 5.675364
v -0.102307 -0.932316 5.703018
v -0.111384 -0.930885 5.634615
v -0.092299 -0.963775 5.655575
v -0.099878 -0.911702 5.682474
v -0.089379 -0.933624 5.646241
v -0.087387 -0.955289 5.646532
v -0.087837 -0.960205 5.651250
v -0.095790 -0.917756 5.661538
v -0.090096 -0.959429 5.671417
v -0.086632 -0.960465 5.661912
v -0.096547 -0.912379 5.676025
v -0.095867 -0.948737 5.690632
v -0.089466 -0.953050 5.682702
v -0.100410 -0.913635 5.695138
v -0.103482 -0.920928 5.702521
v -0.099005 -0.915745 5.698835
v -0.099020 -0.943172 5.696905
v -0.093879 -0.942064 5.697271
v -0.099512 -0.924107 5.705041
v -0.096962 -0.932222 5.704465
v -0.086293 -0.942036 5.647166
v -0.093127 -0.924558 5.650796
v -0.086518 -0.928713 5.653671
v -0.083558 -0.935763 5.655676
v -0.083767 -0.956555 5.661680
v -0.085309 -0.955983 5.651776
v -0.088496 -0.919245 5.668007
v -0.083376 -0.930787 5.666513
v -0.084092 -0.955872 5.667226
v -0.089046 -0.945566 5.688962
v -0.092932 -0.911919 5.681276
v -0.093757 -0.914877 5.692423
v -0.096356 -0.923482 5.703570
v -0.093781 -0.931337 5.701844
v -0.089372 -0.914528 5.682738
vn -0.4623 -0.5107 -0.7249
vn -0.4079 -0.5978 -0.6901
vn -0.5137 -0.7694 -0.3798
vn -0.7124 -0.5269 -0.4635
vn -0.8534 0.3898 0.3459
vn -0.8004 0.5076 0.3189
vn -0.8294 0.4235 0.3644
vn -0.8945 0.4003 -0.1989
vn -0.8459 0.5049 0.1717
vn -0.8129 0.5535 0.1813
vn -0.2173 -0.0878 -0.9721
vn 0.0448 0.1880 -0.9811
vn 0.0929 0.4205 -0.9025
vn -0.8510 0.2774 -0.4459
vn -0.0895 -0.0155 -0.9959
vn -0.1788 -0.4214 -0.8891
vn -0.8363 0.3948 0.3804
vn -0.2727 0.9552 -0.1149
vn -0.7317 0.2312 -0.6413
vn 0.2339 0.5794 -0.7808
vn 0.0968 0.6037 -0.7913
vn -0.2502 0.9641 -0.0892
vn -0.8896 0.3439 0.3007
vn -0.5094 -0.8485 -0.1433
vn -0.4529 -0.8672 -0.2070
vn -0.3859 -0.8168 -0.4289
vn -0.9155 0.1149 0.3856
vn -0.9260 -0.1667 0.3387
vn -0.9291 -0.1619 0.3324
vn -0.4913 -0.8690 0.0583
vn -0.4368 -0.8984 0.0467
vn -0.4655 -0.8716 0.1537
vn -0.4291 -0.8761 0.2199
vn -0.9090 -0.0364 0.4152
vn -0.9087 0.2771 0.3122
vn -0.8070 0.5049 0.3063
vn -0.0291 -0.9719 0.2337
vn -0.4608 -0.7850 0.4141
vn 0.2707 0.4707 -0.8397
vn -0.3073 0.7174 -0.6253
vn -0.8611 0.3549 0.3641
vn -0.7149 -0.2351 0.6585
vn 0.3927 0.7103 -0.5842
vn -0.7610 0.3533 -0.5440
vn -0.9489 0.2412 0.2034
vn -0.9424 0.1780 0.2833
vn -0.9202 -0.0426 0.3892
vn 0.4303 0.7030 -0.5662
vn 0.3897 0.7591 -0.5215
vn -0.9222 0.2662 0.2805
vn -0.4169 -0.8758 0.2434
vn -0.4485 -0.7597 0.4708
vn -0.4131 -0.5976 0.6871
vn 0.2074 0.2930 -0.9333
vn -0.1368 -0.3645 -0.9211
vn 0.3684 0.7006 -0.6110
vn 0.4299 0.8008 -0.4170
vn 0.5951 0.7613 -0.2574
vn -0.4047 0.7408 -0.5361
vn -0.9535 0.2977 -0.0481
vn -0.9061 0.3699 0.2053
vn -0.5007 0.7151 0.4878
vn 0.5905 0.7329 -0.3379
vn 0.7359 0.6102 -0.2936
vn 0.5048 0.8452 -0.1756
vn 0.4473 0.8263 -0.3423
vn -0.3677 -0.8678 0.3343
vn -0.8699 0.3805 0.3139
vn -0.4093 0.9034 0.1280
vn 0.8784 0.3239 -0.3513
vn 0.2272 0.9695 -0.0917
vn -0.8489 0.0577 0.5253
vn -0.3411 -0.4640 0.8175
vn -0.3314 -0.9430 0.0315
vn -0.5950 0.5853 0.5507
vn 0.3921 0.9190 0.0404
vn 0.4755 0.8765 0.0753
vn -0.1539 0.7728 0.6157
vn -0.6228 0.7374 0.2613
vn -0.9184 0.2771 0.2825
vn -0.9227 0.2547 0.2894
vn -0.0982 -0.4732 0.8755
vn -0.2246 -0.3105 0.9237
vn -0.9052 0.3278 -0.2703
vn -0.9270 0.2857 0.2431
vn 0.9105 -0.2529 -0.3271
vn -0.2941 0.7007 0.6500
vn 0.2952 0.5425 0.7865
vn 0.4822 0.8442 0.2341
vn 0.0769 0.0206 0.9968
vn -0.0843 -0.1706 0.9817
vn 0.0203 0.0461 0.9987
vn -0.2072 -0.2641 0.9420
vn -0.0752 -0.3903 -0.9176
vn -0.3246 -0.8041 -0.4980
vn 0.2290 0.2573 -0.9388
vn -0.3324 -0.9183 -0.2151
vn -0.3496 -0.6380 0.6861
vn 0.4184 0.8678 0.2681
vn 0.2813 0.6773 0.6798
vn 0.0393 -0.6132 -0.7890
vn -0.1296 -0.8572 -0.4985
vn 0.4280 0.8966 -0.1132
vn -0.3078 -0.4527 0.8368
vn -0.3135 -0.7083 0.6325
vn -0.2376 -0.1389 0.9614
vn -0.0599 0.2694 0.9612
vn 0.1739 -0.1639 -0.9710
vn 0.3647 0.6156 -0.6985
vn -0.1851 -0.9647 -0.1876
vn 0.3544 0.9121 -0.2062
vn -0.1365 -0.9896 -0.0458
vn -0.2545 -0.9544 0.1562
vn -0.2738 -0.8789 0.3907
vn 0.3240 0.9444 0.0557
vn 0.1697 0.8314 0.5292
vn -0.1343 0.3438 0.9294
vn 0.3593 0.2325 -0.9038
vn 0.2856 -0.2985 -0.9107
vn 0.1170 -0.7488 -0.6523
vn 0.3181 0.8894 -0.3282
vn -0.0684 -0.9445 -0.3212
vn 0.2566 0.9399 -0.2250
vn 0.4281 0.1012 -0.8980
vn -0.1754 -0.9515 0.2529
vn 0.2223 0.9641 0.1455
vn -0.3748 -0.3476 0.8595
vn -0.2877 -0.7264 0.6241
vn 0.4963 0.2119 -0.8419
vn 0.4224 -0.2648 -0.8669
vn 0.3491 0.6529 -0.6722
vn 0.3127 -0.5765 -0.7549
vn 0.2444 -0.7860 -0.5678
vn -0.1449 -0.9146 0.3774
vn -0.0884 0.7752 0.6255
vn -0.0763 0.9223 0.3788
vn -0.2972 0.2258 0.9277
vn 0.0440 -0.9809 -0.1892
vn -0.0614 -0.9926 0.1045
vn 0.0817 0.9928 0.0875
vn -0.4463 0.2023 0.8717
vn 0.1689 0.9266 -0.3359
vn -0.1833 -0.8488 0.4960
vn -0.3698 0.7361 0.5669
vn -0.0918 0.9824 0.1627
vn 0.5104 -0.3166 -0.7995
vn 0.3253 -0.8170 -0.4761
vn 0.1832 -0.9782 -0.0973
vn -0.0178 -0.9658 0.2586
vn 0.0183 0.9929 -0.1176
vn -0.4223 -0.5654 0.7085
vn -0.5413 0.1092 0.8337
vn -0.2324 0.9656 0.1165
vn 0.4854 0.4151 -0.7695
vn 0.3964 0.6544 -0.6440
vn 0.5743 -0.4061 -0.7109
vn 0.4322 -0.8062 -0.4039
vn -0.3454 0.8368 0.4248
vn -0.5690 0.3336 0.7517
vn 0.2085 0.9019 -0.3782
vn 0.6147 0.0469 -0.7874
vn -0.6122 -0.0028 0.7907
vn 0.6145 0.3715 -0.6960
vn 0.6280 -0.5418 -0.5587
vn -0.0688 0.9928 -0.0982
vn -0.3778 -0.6804 0.6280
vn -0.1510 -0.9104 0.3852
vn -0.5837 0.5524 0.5951
vn 0.6998 -0.0538 -0.7123
vn 0.4642 0.6929 -0.5517
vn 0.2543 0.8707 -0.4210
vn 0.0326 -0.9864 0.1612
vn 0.4882 -0.7949 -0.3602
vn -0.4776 0.8540 0.2064
vn -0.5722 -0.2371 0.7850
vn 0.5827 0.4224 -0.6943
vn -0.1855 0.9598 -0.2106
vn -0.0615 -0.8971 0.4376
vn -0.6084 0.3509 0.7118
vn -0.4050 -0.2982 0.8643
vn 0.7080 -0.1049 -0.6984
vn 0.2669 0.7933 -0.5472
vn 0.2561 -0.9661 0.0324
vn -0.1867 0.9823 0.0154
vn 0.6653 0.3686 -0.6493
vn 0.7932 -0.2647 -0.5484
vn 0.6631 -0.6887 -0.2932
vn 0.0608 0.9618 -0.2668
vn 0.1976 0.9031 -0.3812
vn 0.3188 -0.8845 0.3406
vn 0.6144 -0.7832 0.0957
vn 0.5329 -0.6908 0.4886
vn -0.0740 -0.8125 0.5782
vn -0.1611 -0.6739 0.7211
vn -0.1618 0.9104 0.3807
vn -0.4563 0.4200 0.7845
vn 0.1402 0.7515 0.6446
vn 0.4686 -0.5084 0.7225
vn 0.2382 -0.2583 0.9362
vn -0.0247 0.2119 0.9770
vn 0.8401 0.0618 -0.5389
vn 0.4279 0.7276 -0.5362
vn 0.7876 0.4854 -0.3797
vn 0.9611 0.1417 -0.2370
vn 0.9252 -0.2660 -0.2705
vn 0.9431 -0.3326 -0.0025
vn 0.7275 0.6452 -0.2333
vn 0.9003 -0.3699 0.2295
vn 0.9819 0.1827 0.0506
vn 0.8611 -0.2400 0.4482
vn 0.3658 0.9302 -0.0303
vn 0.8300 0.5261 0.1852
vn 0.6229 0.6696 0.4045
vn 0.6025 0.3324 0.7255
vn 0.8225 -0.0412 0.5673
s 1
f 1//1 5//2 7//3
f 1//1 7//3 2//4
f 9//5 3//6 4//7
f 10//8 6//9 11//10
f 12//11 13//12 14//13
f 1//1 12//11 5//2
f 10//8 16//14 6//9
f 12//11 18//15 5//2
f 17//16 5//2 18//15
f 12//11 14//13 18//15
f 6//9 3//6 11//10
f 11//10 3//6 19//17
f 20//18 21//18 22//18
f 23//19 24//19 25//19
f 15//20 14//13 27//21
f 28//22 29//22 30//22
f 3//6 31//23 19//17
f 8//24 7//3 32//25
f 32//25 7//3 5//2
f 33//26 32//25 5//2
f 5//2 17//16 33//26
f 35//27 9//5 4//7
f 35//27 36//28 37//29
f 38//30 8//24 32//25
f 32//25 34//31 38//30
f 38//30 34//31 39//32
f 34//31 40//33 39//32
f 41//34 35//27 37//29
f 35//27 42//35 9//5
f 41//34 43//36 35//27
f 44//37 40//33 45//38
f 14//13 46//39 18//15
f 15//20 46//39 14//13
f 47//40 48//40 49//40
f 50//41 26//42 31//23
f 31//23 26//42 19//17
f 51//43 46//39 15//20
f 52//44 53//44 54//44
f 58//45 59//46 31//23
f 59//46 55//47 31//23
f 57//48 51//43 56//49
f 3//6 9//5 31//23
f 31//23 9//5 60//50
f 9//5 42//35 60//50
f 40//33 34//31 61//51
f 61//51 62//52 40//33
f 45//38 40//33 62//52
f 35//27 43//36 42//35
f 63//53 45//38 62//52
f 18//15 46//39 64//54
f 18//15 65//55 17//16
f 46//39 66//56 64//54
f 65//55 18//15 64//54
f 33//26 17//16 65//55
f 57//48 67//57 51//43
f 46//39 51//43 66//56
f 32//25 33//26 34//31
f 68//58 69//58 70//58
f 71//59 72//59 73//59
f 74//60 58//45 75//61
f 76//62 77//62 78//62
f 58//45 60//50 75//61
f 80//63 79//64 81//65
f 31//23 60//50 58//45
f 67//57 80//63 82//66
f 61//51 34//31 84//67
f 85//68 86//69 75//61
f 85//68 75//61 60//50
f 87//70 81//65 79//64
f 85//68 88//71 86//69
f 60//50 42//35 89//72
f 63//53 62//52 91//73
f 51//43 67//57 66//56
f 80//63 81//65 82//66
f 84//67 34//31 83//74
f 96//75 85//68 60//50
f 97//76 95//77 81//65
f 98//78 99//78 100//78
f 101//79 102//79 103//79
f 96//75 60//50 104//80
f 105//81 104//80 60//50
f 90//82 91//73 93//83
f 60//50 92//84 107//85
f 107//85 105//81 60//50
f 108//86 109//87 112//88
f 106//89 108//86 112//88
f 110//90 111//91 113//92
f 111//91 93//83 114//93
f 64//54 115//94 65//55
f 115//94 33//26 65//55
f 115//94 94//95 33//26
f 64//54 66//56 121//96
f 34//31 33//26 116//97
f 116//97 33//26 94//95
f 91//73 62//52 117//98
f 91//73 117//98 114//93
f 106//89 112//88 119//99
f 110//90 113//92 112//88
f 112//88 113//92 120//100
f 93//83 91//73 114//93
f 113//92 111//91 114//93
f 64//54 121//96 115//94
f 115//94 122//101 94//95
f 122//101 123//102 94//95
f 116//97 94//95 123//102
f 82//66 66//56 67//57
f 34//31 116//97 83//74
f 82//66 81//65 124//103
f 81//65 95//77 124//103
f 84//67 62//52 61//51
f 106//89 124//103 95//77
f 106//89 119//99 124//103
f 114//93 117//98 125//104
f 62//52 84//67 117//98
f 117//98 126//105 125//104
f 120//100 119//99 112//88
f 114//93 118//106 127//107
f 121//96 128//108 115//94
f 115//94 128//108 122//101
f 121//96 66//56 129//109
f 116//97 123//102 130//110
f 131//111 66//56 82//66
f 116//97 130//110 83//74
f 130//110 132//112 83//74
f 83//74 133//113 84//67
f 124//103 131//111 82//66
f 118//106 114//93 125//104
f 84//67 135//114 117//98
f 135//114 126//105 117//98
f 127//107 120//100 113//92
f 113//92 114//93 127//107
f 131//111 124//103 134//115
f 133//113 135//114 84//67
f 119//99 134//115 124//103
f 127//107 139//116 120//100
f 118//106 138//117 127//107
f 129//109 140//118 121//96
f 140//118 128//108 121//96
f 122//101 128//108 136//119
f 123//102 122//101 141//120
f 131//111 137//121 66//56
f 137//121 129//109 66//56
f 130//110 142//122 132//112
f 131//111 134//115 137//121
f 137//121 134//115 143//123
f 134//115 119//99 120//100
f 138//117 139//116 127//107
f 134//115 120//100 139//116
f 140//118 136//119 128//108
f 136//119 140//118 144//124
f 136//119 141//120 122//101
f 142//122 123//102 141//120
f 130//110 123//102 142//122
f 133//113 83//74 132//112
f 145//125 133//113 132//112
f 133//113 145//125 135//114
f 146//126 143//123 134//115
f 139//116 146//126 134//115
f 125//104 147//127 118//106
f 126//105 148//128 125//104
f 125//104 148//128 147//127
f 129//109 149//129 140//118
f 140//118 149//129 144//124
f 144//124 150//130 136//119
f 129//109 151//131 149//129
f 150//130 152//132 136//119
f 141//120 136//119 152//132
f 141//120 153//133 142//122
f 153//133 141//120 152//132
f 151//131 129//109 137//121
f 154//134 135//114 145//125
f 139//116 155//135 146//126
f 156//136 146//126 155//135
f 147//127 157//137 118//106
f 126//105 135//114 148//128
f 157//137 155//135 139//116
f 157//137 139//116 138//117
f 157//137 138//117 118//106
f 153//133 158//138 142//122
f 142//122 158//138 132//112
f 132//112 158//138 159//139
f 145//125 132//112 159//139
f 146//126 156//136 160//140
f 148//128 135//114 154//134
f 157//137 147//127 161//141
f 161//141 155//135 157//137
f 143//123 146//126 162//142
f 160//140 162//142 146//126
f 154//134 163//143 148//128
f 156//136 155//135 161//141
f 161//141 164//144 156//136
f 165//145 160//140 156//136
f 150//130 167//146 152//132
f 152//132 167//146 153//133
f 167//146 166//147 153//133
f 143//123 151//131 137//121
f 162//142 151//131 143//123
f 153//133 166//147 158//138
f 158//138 166//147 168//148
f 159//139 158//138 168//148
f 159//139 168//148 169//149
f 159//139 169//149 145//125
f 170//150 162//142 160//140
f 154//134 145//125 169//149
f 170//150 160//140 165//145
f 165//145 156//136 164//144
f 147//127 148//128 171//151
f 161//141 147//127 172//152
f 172//152 147//127 171//151
f 144//124 167//146 150//130
f 167//146 144//124 149//129
f 169//149 163//143 154//134
f 173//153 165//145 164//144
f 148//128 163//143 171//151
f 161//141 172//152 164//144
f 149//129 151//131 174//154
f 151//131 162//142 175//155
f 175//155 174//154 151//131
f 166//147 167//146 176//156
f 166//147 177//157 168//148
f 164//144 179//158 173//153
f 180//159 164//144 172//152
f 175//155 162//142 178//160
f 167//146 149//129 181//161
f 181//161 149//129 174//154
f 181//161 176//156 167//146
f 176//156 177//157 166//147
f 180//159 172//152 182//162
f 182//162 172//152 171//151
f 162//142 170//150 178//160
f 183//163 174//154 175//155
f 183//163 181//161 174//154
f 176//156 184//164 177//157
f 170//150 165//145 185//165
f 165//145 173//153 185//165
f 186//166 171//151 163//143
f 186//166 163//143 187//167
f 179//158 188//168 173//153
f 188//168 180//159 182//162
f 176//156 181//161 189//169
f 178//160 190//170 175//155
f 170//150 191//171 178//160
f 169//149 168//148 192//172
f 192//172 168//148 193//173
f 190//170 183//163 175//155
f 181//161 183//163 189//169
f 189//169 184//164 176//156
f 193//173 177//157 184//164
f 177//157 193//173 168//148
f 191//171 170//150 185//165
f 187//167 163//143 169//149
f 192//172 187//167 169//149
f 173//153 188//168 194//174
f 171//151 186//166 195//175
f 182//162 171//151 195//175
f 190//170 178//160 191//171
f 190//170 191//171 197//176
f 199//177 191//171 185//165
f 173//153 199//177 185//165
f 187//167 192//172 200//178
f 196//179 188//168 182//162
f 196//179 182//162 195//175
f 186//166 201//180 195//175
f 190//170 197//176 183//163
f 189//169 183//163 198//181
f 184//164 189//169 198//181
f 184//164 198//181 193//173
f 186//166 187//167 200//178
f 199//177 173//153 194//174
f 196//179 194//174 188//168
f 197//176 198//181 183//163
f 197//176 191//171 202//182
f 199//177 202//182 191//171
f 203//183 192//172 193//173
f 204//184 199//177 194//174
f 202//182 205//185 197//176
f 206//186 207//187 193//173
f 198//181 206//186 193//173
f 200//178 192//172 203//183
f 207//187 203//183 193//173
f 204//184 211//188 199//177
f 208//189 199//177 211//188
f 203//183 209//190 200//178
f 210//191 209//190 203//183
f 213//192 212//193 200//178
f 186//166 200//178 217//194
f 217//194 200//178 212//193
f 214//195 204//184 194//174
f 196//179 195//175 215//196
f 215//196 194//174 196//179
f 194//174 215//196 214//195
f 214//195 215//196 216//197
f 201//180 186//166 217//194
f 218//198 217//194 212//193
f 201//180 215//196 195//175
f 201//180 217//194 220//199
f 215//196 201//180 219//200
f 219//200 201//180 220//199
f 206//186 198//181 221//201
f 198//181 197//176 205//185
f 221//201 198//181 205//185
f 208//189 202//182 199//177
f 202//182 222//202 205//185
f 202//182 208//189 222//202
f 205//185 222//202 223//203
f 221//201 224//204 206//186
f 226//205 206//186 224//204
f 226//205 224//204 225//206
f 226//205 207//187 206//186
f 207//187 210//191 203//183
f 225//206 210//191 207//187
f 207//187 226//205 225//206
f 208//189 227//207 222//202
f 222//202 227//207 223//203
f 229//208 209//190 210//191
f 225//206 229//208 210//191
f 225//206 228//209 229//208
f 229//208 228//209 230//210
f 200//178 209//190 213//192
f 229//208 213//192 209//190
f 213//192 229//208 230//210
f 204//184 231//211 211//188
f 235//212 231//211 232//213
f 211//188 231//211 208//189
f 230//210 218//198 213//192
f 213//192 218//198 212//193
f 204//184 214//195 231//211
f 214//195 232//213 231//211
f 216//197 232//213 214//195
f 216//197 233//214 232//213
f 234//215 235//212 233//214
f 233//214 235//212 232//213
f 220//199 217//194 218//198
f 218//198 234//215 220//199
f 230//210 234//215 218//198
f 216//197 215//196 219//200
f 233//214 216//197 219//200
f 220//199 233//214 219//200
f 220//199 234//215 233//214
f 221//201 205//185 223//203
f 221//201 223//203 224//204
f 228//209 225//206 224//204
f 227//207 208//189 231//211
f 227//207 231//211 235//212
f 223//203 227//207 228//209
f 235//212 228//209 227//207
f 234//215 230//210 228//209
f 223//203 228//209 224//204
f 228//209 235//212 234//215
