# Blender v2.78 (sub 0) OBJ File: 'exporter.blend'
# www.blender.org
o FJ3400.obj_grp1.2039
v 0.132610 -0.579117 4.580700
v 0.137548 -0.585176 4.581594
v 0.134322 -0.580595 4.585164
v 0.137523 -0.578456 4.576569
v 0.166338 -0.572822 4.608662
v 0.146636 -0.576604 4.594070
v 0.172268 -0.571560 4.605791
v 0.146636 -0.576604 4.594070
v 0.151824 -0.570623 4.587432
v 0.168525 -0.563880 4.604179
v 0.167517 -0.564526 4.613928
v 0.167585 -0.572548 4.609918
v 0.173306 -0.566566 4.607036
v 0.169055 -0.564467 4.605056
v 0.174240 -0.566060 4.608263
v 0.173585 -0.570196 4.608647
v 0.167455 -0.564578 4.614377
v 0.194197 -0.565010 4.646531
v 0.179393 -0.569136 4.623579
v 0.182894 -0.564635 4.640439
v 0.189080 -0.560196 4.631468
v 0.187859 -0.557447 4.651910
v 0.187852 -0.557553 4.651740
v 0.203110 -0.564517 4.694617
v 0.197150 -0.561059 4.650990
v 0.206395 -0.560181 4.720271
v 0.207885 -0.552997 4.717078
v 0.211138 -0.556060 4.705516
v 0.203153 -0.564375 4.694906
v 0.214197 -0.557379 4.713779
v 0.214197 -0.557379 4.713779
v 0.209968 -0.562899 4.712352
v 0.214912 -0.551835 4.723732
v 0.216605 -0.550396 4.729093
v 0.220845 -0.551126 4.736125
v 0.234171 -0.542217 4.776775
v 0.231616 -0.545164 4.777647
v 0.236431 -0.530873 4.808403
v 0.232653 -0.530735 4.799006
v 0.236998 -0.528390 4.795448
v 0.233005 -0.529742 4.801333
v 0.242626 -0.514766 4.831580
v 0.248989 -0.519442 4.825229
v 0.249035 -0.519447 4.825262
v 0.241168 -0.520484 4.827483
v 0.246280 -0.521860 4.829079
v 0.244075 -0.513973 4.842763
v 0.244983 -0.507424 4.853849
v 0.250372 -0.500016 4.859821
v 0.245625 -0.501382 4.867293
v 0.245577 -0.500959 4.868403
v 0.247277 -0.498152 4.884851
v 0.246280 -0.521860 4.829079
v 0.251258 -0.510638 4.840241
v 0.248718 -0.511160 4.853512
v 0.252587 -0.489071 4.920012
v 0.255489 -0.503910 4.998740
v 0.254095 -0.479540 4.924705
v 0.254438 -0.496850 4.880940
v 0.253669 -0.499950 4.878467
v 0.247277 -0.498152 4.884851
v 0.254428 -0.496612 4.881565
v 0.258369 -0.485181 4.929403
v 0.258369 -0.485181 4.929403
v 0.255562 -0.499706 4.993065
v 0.258029 -0.485633 4.987535
v 0.252532 -0.480426 4.952719
v 0.254666 -0.483159 4.950103
v 0.259386 -0.480383 4.933415
v 0.255112 -0.474660 4.965395
v 0.254347 -0.477923 4.934989
v 0.257165 -0.483711 4.950013
v 0.254390 -0.477724 4.935449
v 0.253903 -0.480219 4.967899
v 0.252970 -0.488195 4.924051
v 0.257165 -0.483711 4.950013
v 0.254415 -0.483383 4.949778
v 0.257164 -0.483012 4.966068
v 0.254383 -0.480367 4.968819
v 0.255100 -0.480383 4.977194
v 0.257223 -0.483270 4.968159
v 0.262063 -0.481749 4.971684
v 0.259992 -0.476032 4.973099
v 0.259981 -0.476059 4.973110
v 0.255830 -0.475580 4.966397
v 0.276951 -0.554740 4.994287
v 0.267491 -0.543263 4.993349
v 0.265846 -0.537674 5.001043
v 0.277392 -0.549345 4.998362
v 0.258705 -0.501152 4.999227
v 0.264344 -0.518419 4.994377
v 0.264269 -0.518198 4.994428
v 0.278332 -0.549236 4.990936
v 0.263265 -0.499736 4.991453
v 0.266200 -0.513702 4.998510
v 0.263183 -0.495500 4.992827
v 0.258582 -0.492636 4.984244
v 0.263293 -0.499725 4.991419
v 0.255305 -0.499725 4.992827
v 0.258572 -0.492683 4.984236
v 0.258572 -0.492683 4.984236
v 0.263183 -0.488458 4.985785
v 0.263293 -0.499725 4.991419
v 0.263183 -0.488458 4.985785
v 0.263761 -0.484498 4.982966
v 0.258668 -0.482642 4.985093
v 0.263183 -0.488458 4.985785
v 0.263183 -0.495500 4.992827
v 0.257136 -0.487613 4.989870
v 0.262715 -0.481447 4.979314
v 0.260713 -0.479891 4.961908
v 0.259402 -0.480786 4.969336
v 0.259981 -0.476059 4.973110
v 0.263183 -0.488458 4.985785
v 0.281022 -0.551827 4.992310
v 0.281936 -0.549630 4.995726
v 0.272162 -0.535279 4.998281
v 0.280964 -0.551755 4.992405
v 0.281523 -0.551866 4.995690
v 0.281440 -0.551793 4.995691
vn -0.9333 0.2776 -0.2279
vn -0.0712 -0.9736 -0.2169
vn -0.7982 -0.1053 0.5931
vn 0.2016 -0.9674 0.1534
vn -0.0526 0.2447 -0.9682
vn -0.6222 0.0965 0.7769
vn 0.6793 -0.6485 -0.3434
vn -0.6896 0.0505 0.7225
vn -0.2485 0.9566 -0.1522
vn -0.0065 0.8343 -0.5513
vn -0.3886 0.9062 0.1665
vn -0.5346 -0.4627 0.7072
vn 0.7761 0.2738 -0.5681
vn 0.7159 0.2547 -0.6500
vn 0.8435 -0.1094 -0.5260
vn 0.8796 -0.2495 -0.4051
vn -0.7553 -0.3831 0.5317
vn 0.1255 -0.9834 0.1312
vn 0.7279 -0.6563 -0.1986
vn -0.8616 -0.3175 0.3962
vn 0.7385 0.5184 -0.4312
vn 0.0796 0.9954 -0.0526
vn -0.8753 -0.1880 0.4456
vn -0.3092 -0.9398 0.1458
vn -0.7850 -0.5003 0.3654
vn 0.9234 0.1962 -0.3298
vn -0.6158 0.7878 0.0108
vn 0.5703 0.7798 -0.2581
vn -0.3561 -0.9100 0.2125
vn 0.8719 -0.4582 -0.1729
vn 0.8866 0.3475 -0.3052
vn 0.2960 -0.9536 0.0556
vn 0.0147 0.9562 -0.2924
vn 0.5447 0.7573 -0.3602
vn 0.7476 0.5333 -0.3959
vn 0.1687 -0.9284 0.3311
vn 0.9691 -0.2013 -0.1425
vn -0.8975 0.3941 0.1979
vn -0.5799 -0.6746 0.4568
vn 0.1917 0.9041 -0.3819
vn -0.5693 0.7988 -0.1944
vn -0.8861 0.4614 0.0436
vn 0.7184 0.5296 -0.4510
vn 0.7536 -0.6426 0.1383
vn -0.9498 -0.0590 0.3072
vn -0.1193 -0.8772 0.4651
vn -0.5900 -0.7024 0.3981
vn -0.7600 -0.5814 0.2905
vn 0.1591 0.9318 -0.3264
vn -0.0114 -0.9380 0.3465
vn -0.9650 -0.2169 0.1472
vn -0.9125 -0.3702 0.1743
vn -0.7797 0.6023 -0.1712
vn 0.7094 -0.6767 0.1973
vn 0.8261 0.4722 -0.3075
vn -0.0391 -0.9455 0.3233
vn 0.2255 -0.9576 0.1793
vn 0.8757 0.4115 -0.2526
vn 0.8432 -0.5280 0.1011
vn -0.6780 -0.6810 0.2768
vn -0.2525 0.9380 -0.2377
vn 0.8759 0.4381 -0.2021
vn 0.4947 -0.8569 0.1451
vn 0.9846 -0.1713 -0.0355
vn -0.6786 0.5237 0.5149
vn -0.8571 -0.0245 0.5146
vn 0.0369 0.4526 0.8910
vn -0.9948 -0.0780 0.0657
vn -0.6502 -0.7405 0.1701
vn 0.4717 0.8693 -0.1479
vn -0.9871 0.1589 -0.0189
vn -0.4504 0.8888 -0.0846
vn 0.5196 -0.8522 0.0620
vn -0.4173 0.8996 -0.1289
vn -0.7029 -0.6804 0.2073
vn -0.1336 -0.9728 0.1894
vn -0.1285 -0.9848 0.1166
vn -0.1230 -0.9915 0.0431
vn -0.9700 -0.2426 -0.0135
vn -0.8370 0.4442 0.3197
vn -0.2430 -0.9621 -0.1241
vn -0.3994 0.8251 0.3995
vn -0.4506 0.8263 0.3378
vn 0.8581 0.5062 -0.0864
vn -0.7645 -0.4249 -0.4847
vn -0.1723 -0.9840 -0.0458
vn -0.5115 -0.2255 0.8291
vn 0.3414 0.0558 -0.9383
vn -0.5662 0.8216 0.0670
vn 0.7441 0.2513 -0.6190
vn 0.1140 -0.2391 0.9643
vn 0.2880 0.0808 -0.9542
vn 0.7828 0.0454 -0.6206
vn 0.8531 0.1395 -0.5027
vn 0.1784 0.1049 0.9784
vn 0.5140 0.4955 0.7003
vn 0.1561 -0.7894 -0.5937
vn -0.1156 -0.7462 -0.6556
vn 0.5769 -0.3608 -0.7329
vn 0.7449 -0.5679 -0.3500
vn 0.5495 -0.7826 -0.2927
vn 0.9998 0.0147 0.0147
vn 0.9926 0.0550 -0.1081
vn 0.5186 0.6408 0.5661
vn 0.4927 0.6233 0.6072
vn 0.4297 0.5737 0.6973
vn 0.9791 -0.2029 -0.0096
vn 0.9165 -0.3698 -0.1523
vn 0.9243 -0.2040 -0.3227
vn 0.9818 -0.1759 -0.0711
vn -0.0517 -0.9970 -0.0581
vn 0.4696 0.7510 0.4641
vn 0.9177 -0.2347 -0.3205
vn 0.8446 0.3797 0.3775
vn 0.9176 0.2731 0.2887
vn 0.3914 -0.7181 -0.5755
vn 0.7461 -0.5822 0.3231
vn 0.1229 -0.3369 0.9335
vn 0.9667 -0.1961 -0.1645
vn 0.7313 0.4580 -0.5053
s 1
f 1//1 2//2 3//3
f 2//2 5//4 3//3
f 2//2 1//1 4//5
f 3//3 5//4 6//6
f 4//5 7//7 2//2
f 3//3 8//8 1//1
f 2//2 7//7 5//4
f 4//5 1//1 10//9
f 9//10 7//7 4//5
f 1//1 11//11 10//9
f 9//10 4//5 10//9
f 5//4 12//12 6//6
f 8//8 11//11 1//1
f 13//13 7//7 9//10
f 13//13 9//10 14//14
f 15//15 16//16 13//13
f 6//6 12//12 17//17
f 7//7 13//13 16//16
f 5//4 7//7 19//18
f 18//19 19//18 7//7
f 17//17 12//12 20//20
f 19//18 20//20 12//12
f 13//13 14//14 21//21
f 21//21 14//14 10//9
f 22//22 11//11 23//23
f 22//22 10//9 11//11
f 10//9 22//22 21//21
f 23//23 11//11 20//20
f 16//16 15//15 21//21
f 18//19 24//24 19//18
f 18//19 16//16 21//21
f 23//23 20//20 26//25
f 21//21 25//26 18//19
f 22//22 27//27 21//21
f 23//23 26//25 27//27
f 21//21 27//27 28//28
f 28//28 25//26 21//21
f 24//24 29//29 19//18
f 19//18 26//25 20//20
f 19//18 29//29 26//25
f 18//19 25//26 30//30
f 25//26 28//28 31//31
f 18//19 30//30 32//32
f 26//25 29//29 32//32
f 18//19 32//32 24//24
f 33//33 28//28 27//27
f 31//31 28//28 34//34
f 31//31 34//34 35//35
f 32//32 37//36 26//25
f 37//36 32//32 36//37
f 32//32 30//30 36//37
f 30//30 35//35 36//37
f 26//25 39//38 27//27
f 26//25 38//39 39//38
f 26//25 37//36 38//39
f 27//27 34//34 33//33
f 34//34 27//27 40//40
f 27//27 39//38 40//40
f 35//35 34//34 40//40
f 36//37 35//35 40//40
f 39//38 41//41 40//40
f 42//42 40//40 41//41
f 36//37 40//40 43//43
f 36//37 44//44 37//36
f 45//45 39//38 38//39
f 46//46 38//39 37//36
f 38//39 46//46 47//47
f 39//38 45//45 42//42
f 45//45 48//48 42//42
f 47//47 48//48 45//45
f 40//40 42//42 49//49
f 48//48 50//50 42//42
f 48//51 52//52 51//53
f 37//36 44//44 53//54
f 40//40 54//55 43//43
f 55//56 47//47 46//46
f 44//44 55//56 53//54
f 44//44 56//57 55//56
f 48//48 47//47 55//56
f 49//49 54//55 40//40
f 59//58 60//59 44//44
f 56//57 44//44 60//59
f 59//58 44//44 54//55
f 48//48 55//56 61//60
f 49//49 42//42 58//61
f 55//56 56//57 61//60
f 59//58 54//55 62//62
f 63//63 56//57 60//59
f 60//59 59//58 64//64
f 66//65 57//66 90//67
f 62//62 54//55 49//49
f 42//42 50//50 51//53
f 58//61 42//42 51//53
f 52//52 67//68 51//53
f 51//53 67//68 58//61
f 52//52 68//69 67//68
f 49//49 69//70 62//62
f 58//61 69//70 49//49
f 71//71 58//61 70//72
f 63//63 72//73 56//57
f 73//74 69//70 58//61
f 70//72 58//61 67//68
f 73//74 71//71 70//72
f 67//68 68//69 74//75
f 75//76 76//77 77//77
f 78//78 77//77 76//77
f 67//68 79//79 70//72
f 80//80 70//72 79//79
f 81//81 74//75 68//69
f 81//81 79//79 74//75
f 79//79 57//66 80//80
f 80//80 84//82 85//83
f 66//65 80//80 57//66
f 73//74 70//72 83//84
f 87//85 86//86 88//87
f 87//85 88//87 57//66
f 91//88 65//89 92//90
f 87//85 65//89 91//88
f 89//91 90//67 88//87
f 92//90 93//92 87//85
f 92//90 94//93 95//94
f 87//85 57//66 65//89
f 88//87 90//67 57//66
f 90//67 89//91 95//95
f 94//93 92//90 65//89
f 96//96 90//67 95//95
f 97//97 65//89 57//66
f 97//97 57//66 79//79
f 98//98 99//98 100//98
f 101//99 102//99 103//99
f 104//100 97//97 82//101
f 94//93 107//102 108//103
f 105//104 106//105 96//96
f 90//67 106//105 109//106
f 96//96 106//105 90//67
f 94//93 108//103 95//94
f 64//64 59//58 69//107
f 83//84 69//70 73//74
f 63//63 111//108 72//73
f 72//73 111//108 82//101
f 83//84 110//109 69//70
f 64//64 69//107 111//110
f 81//81 72//73 82//101
f 69//70 110//109 112//111
f 97//97 79//79 81//81
f 84//82 80//80 66//65
f 82//101 97//97 81//81
f 106//105 105//104 113//112
f 112//111 110//109 114//113
f 86//86 87//85 93//92
f 88//87 86//86 89//91
f 116//114 117//115 89//91
f 95//94 93//92 92//90
f 117//115 93//92 95//94
f 93//92 115//116 86//86
f 117//115 116//114 93//92
f 119//117 86//86 115//116
f 86//86 119//117 120//118
f 86//86 120//118 89//91
f 119//117 115//116 116//119
f 120//118 116//114 89//91
f 118//120 93//92 116//114
