# Blender v2.78 (sub 0) OBJ File: 'exporter.blend'
# www.blender.org
o FJ3499.obj_grp1.2112
v 0.024199 -0.595664 5.081409
v 0.026538 -0.597732 5.077339
v 0.022909 -0.601964 5.082771
v 0.023824 -0.606971 5.085956
v 0.026231 -0.607840 5.080192
v 0.029591 -0.613252 5.085578
v 0.025293 -0.590584 5.086023
v 0.025757 -0.593754 5.089355
v 0.032086 -0.584262 5.081452
v 0.028380 -0.611619 5.090184
v 0.030765 -0.581274 5.090908
v 0.031730 -0.603681 5.075772
v 0.036155 -0.593651 5.074375
v 0.032733 -0.612226 5.081000
v 0.042266 -0.609989 5.079094
v 0.042830 -0.618865 5.101179
v 0.043256 -0.620674 5.097243
v 0.034775 -0.576773 5.090439
v 0.032176 -0.605705 5.095867
v 0.049284 -0.618409 5.107837
v 0.035567 -0.578312 5.094182
v 0.038589 -0.598155 5.097445
v 0.042139 -0.598511 5.074786
v 0.041819 -0.585548 5.078031
v 0.041792 -0.577668 5.085264
v 0.040897 -0.577337 5.092308
v 0.043912 -0.594913 5.095968
v 0.048435 -0.599570 5.094943
v 0.047154 -0.605415 5.100287
v 0.052533 -0.607393 5.084191
v 0.047121 -0.589148 5.080075
v 0.063260 -0.626759 5.102346
v 0.044749 -0.580339 5.087825
v 0.052078 -0.601854 5.091485
v 0.052233 -0.625231 5.110146
v 0.051915 -0.625544 5.110281
v 0.047154 -0.605415 5.100287
v 0.056535 -0.610711 5.100945
v 0.052280 -0.612640 5.105780
v 0.052280 -0.612640 5.105780
v 0.049423 -0.618677 5.108221
v 0.063767 -0.617852 5.101110
v 0.066089 -0.633620 5.114658
v 0.065046 -0.619192 5.114970
v 0.067884 -0.632789 5.129052
v 0.058774 -0.620381 5.115779
v 0.059945 -0.627310 5.119995
v 0.058774 -0.620381 5.115779
v 0.070080 -0.625032 5.108166
v 0.068616 -0.620220 5.110918
v 0.066317 -0.622677 5.124183
v 0.071706 -0.630383 5.141788
v 0.072302 -0.626711 5.140505
v 0.077684 -0.631790 5.122252
v 0.083901 -0.627946 5.134808
v 0.075327 -0.622518 5.133111
v 0.082529 -0.634873 5.136655
v 0.081284 -0.636189 5.149807
v 0.083206 -0.622192 5.158258
v 0.082864 -0.634278 5.166068
v 0.082658 -0.627031 5.183047
v 0.080578 -0.624717 5.173390
v 0.084032 -0.620737 5.174334
v 0.091752 -0.602318 5.230848
v 0.089241 -0.599860 5.248889
v 0.087798 -0.604854 5.258312
v 0.092390 -0.596846 5.254916
v 0.091915 -0.606744 5.241544
v 0.089487 -0.601292 5.265141
v 0.096171 -0.613208 5.270369
v 0.092140 -0.611338 5.274282
v 0.094811 -0.601483 5.273852
v 0.097173 -0.609959 5.282681
v 0.098233 -0.621509 5.284393
v 0.092724 -0.622684 5.173820
v 0.088353 -0.632653 5.153754
v 0.090817 -0.631161 5.180886
v 0.088483 -0.627749 5.192037
v 0.091085 -0.617812 5.181139
v 0.090124 -0.608020 5.212755
v 0.092599 -0.609731 5.225442
v 0.094728 -0.596985 5.236174
v 0.095315 -0.612135 5.226093
v 0.100229 -0.669739 5.257146
v 0.096935 -0.670094 5.263846
v 0.100420 -0.640160 5.278871
v 0.103289 -0.720134 5.229580
v 0.103923 -0.708440 5.244955
v 0.098895 -0.663600 5.272418
v 0.099802 -0.606200 5.250021
v 0.094842 -0.608017 5.247690
v 0.096575 -0.597891 5.256109
v 0.099408 -0.600011 5.254053
v 0.098934 -0.608543 5.261549
v 0.100410 -0.605066 5.262434
v 0.100086 -0.613536 5.269926
v 0.102338 -0.638218 5.285024
v 0.100599 -0.605321 5.279151
v 0.098299 -0.620884 5.279372
v 0.099741 -0.629864 5.281449
v 0.104658 -0.610405 5.281686
v 0.102965 -0.620133 5.287348
v 0.093088 -0.629062 5.173911
v 0.099710 -0.600158 5.226979
v 0.100047 -0.610853 5.229670
v 0.103492 -0.603203 5.234128
v 0.103134 -0.606618 5.233825
v 0.107033 -0.712029 5.229221
v 0.105033 -0.657593 5.263474
v 0.099893 -0.598245 5.238822
v 0.106186 -0.636825 5.273870
v 0.104118 -0.651107 5.280691
v 0.109448 -0.632639 5.275725
v 0.105015 -0.610965 5.273588
v 0.103370 -0.618308 5.274131
v 0.105536 -0.626206 5.275877
v 0.108208 -0.624683 5.276376
v 0.107121 -0.636961 5.286167
v 0.109842 -0.639876 5.281878
v 0.107620 -0.666459 5.269294
v 0.108981 -0.622093 5.283904
v 0.108081 -0.624326 5.276429
v 0.110878 -0.628115 5.279566
v 0.091253 -0.786576 5.115029
v 0.093445 -0.784186 5.112729
v 0.090946 -0.791162 5.115934
v 0.097836 -0.784487 5.110005
v 0.092871 -0.793259 5.115975
v 0.091041 -0.791266 5.115967
v 0.091532 -0.792533 5.115416
v 0.092534 -0.793679 5.115732
v 0.101525 -0.789454 5.138703
v 0.110330 -0.736196 5.210466
v 0.112996 -0.753190 5.199100
v 0.108738 -0.729213 5.229857
v 0.111961 -0.718645 5.238057
v 0.110046 -0.704096 5.234882
v 0.114398 -0.712033 5.233672
v 0.109010 -0.661062 5.267270
v 0.115127 -0.717021 5.235006
v 0.108089 -0.650744 5.268825
v 0.108955 -0.659060 5.268167
v 0.093554 -0.784250 5.112692
v 0.091253 -0.786576 5.115029
v 0.097836 -0.784487 5.110005
v 0.093445 -0.784186 5.112729
v 0.095285 -0.783642 5.112164
v 0.097836 -0.784487 5.110005
v 0.095285 -0.783642 5.112164
v 0.104018 -0.781038 5.129796
v 0.097836 -0.784487 5.110005
v 0.099553 -0.785336 5.110334
v 0.099596 -0.787933 5.109911
v 0.099553 -0.785336 5.110334
v 0.098595 -0.795031 5.111461
v 0.096045 -0.795669 5.114042
v 0.095997 -0.795865 5.114093
v 0.102085 -0.794432 5.123787
v 0.098714 -0.795090 5.111484
v 0.100010 -0.782764 5.135891
v 0.090549 -0.789515 5.115310
v 0.107110 -0.789200 5.145932
v 0.107766 -0.775909 5.149433
v 0.111776 -0.773538 5.170506
v 0.112345 -0.747324 5.200075
v 0.110654 -0.725100 5.217981
v 0.116804 -0.746739 5.213614
v 0.110654 -0.725100 5.217981
v 0.116067 -0.724509 5.219913
v 0.122087 -0.744260 5.211371
v 0.100450 -0.793308 5.110662
v 0.111810 -0.788413 5.139262
v 0.101410 -0.789623 5.109724
v 0.101490 -0.789908 5.109714
v 0.119502 -0.779000 5.155015
v 0.109819 -0.777359 5.141698
v 0.109828 -0.777445 5.142023
v 0.117687 -0.780150 5.166099
v 0.115858 -0.770317 5.158416
v 0.108702 -0.774255 5.158772
v 0.113353 -0.762300 5.181198
v 0.116434 -0.765506 5.187988
v 0.117667 -0.755769 5.182352
v 0.118050 -0.740850 5.201081
v 0.124543 -0.747900 5.199347
v 0.124993 -0.761677 5.179303
v 0.123467 -0.753049 5.187884
v 0.122925 -0.761227 5.194376
v 0.125451 -0.766045 5.181713
vn -0.9852 -0.0540 -0.1625
vn -0.6253 -0.4835 -0.6126
vn -0.9112 -0.3595 0.2013
vn -0.6062 0.1303 -0.7846
vn -0.8895 0.2993 -0.3453
vn -0.5190 -0.8311 -0.1996
vn -0.9106 0.4133 0.0051
vn -0.4909 0.6234 -0.6086
vn -0.8141 0.1214 0.5678
vn -0.7264 -0.5341 0.4326
vn -0.2022 -0.2905 -0.9353
vn -0.1213 0.2427 -0.9625
vn -0.1695 -0.7451 -0.6451
vn -0.4966 -0.8679 -0.0104
vn -0.7077 -0.5095 0.4895
vn -0.8122 0.5020 0.2971
vn -0.4058 0.9139 0.0093
vn -0.6180 0.0015 0.7862
vn -0.6289 0.1922 0.7534
vn -0.2617 0.5401 0.7999
vn -0.1378 0.1936 0.9714
vn 0.3575 -0.0836 -0.9302
vn 0.2430 -0.5228 -0.8171
vn 0.2330 0.5405 -0.8084
vn 0.2848 0.8550 -0.4335
vn 0.4311 0.7721 0.4669
vn 0.2847 0.2947 0.9122
vn 0.6358 0.4496 0.6274
vn 0.0862 0.4901 0.8674
vn 0.7890 -0.0487 -0.6124
vn 0.7727 0.3453 -0.5326
vn 0.3979 -0.6105 -0.6848
vn 0.8381 0.5374 0.0935
vn -0.7538 -0.1286 0.6444
vn -0.5130 -0.8579 0.0283
vn 0.8749 0.4705 0.1145
vn 0.3810 0.6172 0.6885
vn 0.4627 0.7823 0.4170
vn -0.3517 0.4841 0.8012
vn 0.1619 0.8104 0.5631
vn -0.5464 0.4675 0.6949
vn 0.8497 0.3732 -0.3724
vn -0.0544 -0.9687 -0.2424
vn 0.1582 0.9243 0.3472
vn -0.5986 0.3905 0.6994
vn -0.7660 0.0218 0.6425
vn -0.0496 0.8223 0.5669
vn -0.6339 -0.7315 0.2511
vn 0.8113 -0.0665 -0.5808
vn 0.5061 0.8612 0.0469
vn -0.4775 0.7567 0.4465
vn -0.9134 0.2899 0.2858
vn -0.7390 0.6057 0.2951
vn 0.7380 -0.4999 -0.4532
vn 0.9056 0.2889 -0.3106
vn 0.1105 0.9768 0.1835
vn 0.5965 -0.7733 -0.2150
vn 0.0202 -0.9991 0.0382
vn -0.2718 -0.9374 0.2178
vn -0.0572 0.9977 -0.0376
vn -0.8582 -0.3986 0.3234
vn -0.8927 0.4096 0.1881
vn -0.5754 0.8173 -0.0325
vn -0.3052 0.9470 0.1001
vn -0.2436 0.9557 -0.1652
vn -0.8897 0.4439 -0.1067
vn -0.9827 -0.1844 0.0164
vn -0.9664 0.2186 -0.1353
vn -0.8142 0.4966 0.3007
vn -0.3194 -0.8717 -0.3717
vn -0.9244 -0.3390 0.1746
vn -0.6724 -0.7372 -0.0665
vn -0.2808 0.8038 0.5245
vn -0.4333 0.3520 0.8297
vn 0.8541 -0.4999 -0.1435
vn 0.8536 0.4434 -0.2735
vn 0.4098 -0.8926 0.1880
vn -0.2624 -0.8642 0.4294
vn 0.2314 0.9080 -0.3493
vn -0.9802 0.1532 0.1256
vn -0.8773 -0.4209 0.2304
vn -0.3387 -0.8407 0.4226
vn 0.4282 -0.8787 0.2111
vn 0.1107 -0.9933 -0.0341
vn -0.6072 0.3784 -0.6986
vn -0.9977 -0.0656 0.0148
vn -0.9505 0.1799 -0.2533
vn -0.9841 -0.1270 -0.1241
vn -0.5399 -0.5207 0.6613
vn -0.6891 -0.3326 0.6438
vn 0.5014 0.8456 0.1830
vn 0.8055 -0.5922 0.0231
vn 0.9808 0.0357 -0.1916
vn 0.8510 0.5148 0.1037
vn 0.8437 -0.4963 -0.2046
vn 0.2884 -0.7252 -0.6252
vn -0.5935 -0.2018 0.7791
vn 0.0539 -0.3883 -0.9199
vn -0.7635 -0.5168 -0.3872
vn -0.9677 -0.1508 -0.2022
vn 0.3459 0.7776 0.5251
vn 0.6448 0.5510 0.5298
vn -0.8198 -0.1790 0.5440
vn 0.0339 0.1569 0.9870
vn 0.9004 -0.4119 -0.1402
vn 0.5041 0.8066 -0.3086
vn 0.9581 0.2859 -0.0152
vn 0.9024 -0.4201 0.0961
vn -0.4022 0.5104 -0.7601
vn 0.4002 0.4192 -0.8149
vn 0.5758 0.8176 0.0022
vn -0.2791 0.3246 -0.9037
vn 0.9222 0.1530 -0.3552
vn -0.2600 -0.0054 -0.9656
vn 0.3075 0.0498 -0.9503
vn 0.5850 0.1879 -0.7890
vn 0.0403 -0.4513 0.8914
vn 0.8330 -0.2432 0.4969
vn 0.3655 -0.1692 0.9153
vn 0.8976 -0.2079 0.3886
vn 0.8417 0.2155 0.4951
vn 0.7565 0.1296 -0.6410
vn 0.9956 0.0928 -0.0116
vn -0.6655 -0.1015 -0.7395
vn -0.6081 -0.1234 -0.7842
vn -0.5924 -0.2200 -0.7750
vn -0.4804 -0.1668 -0.8610
vn -0.7529 -0.5169 0.4075
vn -0.6590 -0.6281 0.4137
vn -0.8772 -0.2252 0.4240
vn -0.5999 -0.7071 0.3743
vn -0.7820 0.2973 -0.5478
vn -0.9378 -0.3245 0.1232
vn -0.4229 -0.6668 0.6136
vn 0.3616 -0.5207 0.7734
vn 0.4569 0.5843 -0.6707
vn 0.9385 0.2881 -0.1901
vn 0.9932 0.0315 -0.1121
vn 0.9432 -0.1256 0.3075
vn 0.6667 0.2676 -0.6957
vn 0.9786 -0.1128 0.1719
vn -0.3915 0.6003 -0.6974
vn 0.2748 0.9269 -0.2556
vn -0.0540 0.9890 -0.1379
vn -0.2789 0.9571 -0.0789
vn 0.2590 0.1530 -0.9537
vn 0.1465 0.1547 -0.9770
vn -0.1186 -0.0389 -0.9922
vn 0.5950 0.7224 -0.3524
vn -0.4863 -0.2202 -0.8456
vn -0.5736 -0.6122 -0.5443
vn -0.6789 -0.3498 -0.6455
vn -0.0102 -0.9864 0.1643
vn 0.2529 -0.9628 0.0950
vn 0.6454 -0.7485 -0.1525
vn -0.4569 0.8847 0.0926
vn -0.6954 0.7149 0.0735
vn -0.7664 0.6051 0.2158
vn -0.9151 0.0705 0.3969
vn -0.1267 -0.9026 0.4113
vn -0.4283 0.8913 -0.1486
vn -0.8966 -0.2252 0.3812
vn -0.9767 0.0797 -0.1995
vn -0.4199 0.5539 -0.7189
vn 0.1258 0.7272 -0.6748
vn 0.6164 0.6314 -0.4706
vn 0.8437 -0.2769 0.4598
vn 0.0265 -0.7296 0.6833
vn -0.2596 -0.1709 -0.9505
vn 0.7429 -0.6652 -0.0748
vn -0.1208 -0.0090 -0.9926
vn 0.9301 -0.1046 -0.3521
vn 0.9664 -0.1303 -0.2214
vn 0.6440 0.6530 -0.3985
vn -0.1564 0.9635 -0.2174
vn 0.3499 -0.8524 0.3884
vn -0.1781 0.9084 -0.3784
vn -0.7986 0.6008 0.0353
vn -0.3815 -0.7258 0.5725
vn -0.9002 0.4153 -0.1307
vn -0.2912 0.7896 -0.5402
vn -0.0524 0.7694 -0.6366
vn 0.6150 0.6109 -0.4986
vn 0.9787 0.2035 -0.0284
vn 0.8821 0.3659 -0.2967
vn 0.9076 -0.3925 0.1491
vn 0.5443 -0.6345 0.5487
s 1
f 3//1 5//2 4//3
f 2//4 5//2 3//1
f 2//4 3//1 1//5
f 5//2 6//6 4//3
f 1//5 3//1 7//7
f 1//5 9//8 2//4
f 9//8 1//5 7//7
f 3//1 8//9 7//7
f 3//1 4//3 8//9
f 6//6 10//10 4//3
f 12//11 2//4 13//12
f 13//12 2//4 9//8
f 2//4 12//11 5//2
f 6//6 5//2 14//13
f 14//13 5//2 12//11
f 17//14 10//10 6//6
f 10//10 17//14 16//15
f 11//16 9//8 7//7
f 11//16 7//7 8//9
f 18//17 9//8 11//16
f 19//18 8//9 4//3
f 4//3 10//10 19//18
f 16//15 20//19 10//10
f 18//17 11//16 21//20
f 11//16 8//9 21//20
f 21//20 8//9 19//18
f 19//18 22//21 21//20
f 23//22 12//11 13//12
f 12//11 15//23 14//13
f 24//24 13//12 9//8
f 14//13 17//14 6//6
f 24//24 9//8 25//25
f 25//25 9//8 18//17
f 20//19 19//18 10//10
f 18//17 21//20 26//26
f 26//26 25//25 18//17
f 26//26 21//20 27//27
f 26//26 27//27 28//28
f 22//21 27//27 21//20
f 22//21 19//18 20//19
f 22//21 20//19 29//29
f 23//22 15//23 12//11
f 30//30 23//22 31//31
f 30//30 15//23 23//22
f 15//23 30//30 32//32
f 23//22 13//12 24//24
f 24//24 31//31 23//22
f 25//25 31//31 24//24
f 33//33 31//31 25//25
f 16//15 35//34 20//19
f 16//15 17//14 36//35
f 26//26 33//33 25//25
f 33//33 26//26 28//28
f 33//33 28//28 34//36
f 27//27 22//21 29//29
f 28//28 27//27 37//37
f 38//38 28//28 37//37
f 39//39 29//29 20//19
f 37//37 40//40 38//38
f 20//19 41//41 39//39
f 31//31 34//36 30//30
f 34//36 42//42 30//30
f 30//30 42//42 32//32
f 31//31 33//33 34//36
f 42//42 34//36 28//28
f 43//43 17//14 14//13
f 43//43 14//13 32//32
f 32//32 14//13 15//23
f 42//42 28//28 38//38
f 40//40 44//44 38//38
f 36//35 17//14 43//43
f 46//45 39//39 41//41
f 20//19 35//34 47//46
f 46//45 41//41 47//46
f 40//40 48//47 44//44
f 45//48 47//46 35//34
f 49//49 32//32 42//42
f 38//38 50//50 42//42
f 50//50 38//38 44//44
f 44//44 48//47 51//51
f 43//43 45//48 36//35
f 47//46 51//51 46//45
f 45//48 52//52 47//46
f 51//51 47//46 53//53
f 47//46 52//52 53//53
f 32//32 54//54 43//43
f 49//49 54//54 32//32
f 49//49 42//42 55//55
f 49//49 55//55 54//54
f 51//51 56//56 44//44
f 57//57 43//43 54//54
f 43//43 57//57 58//58
f 56//56 51//51 53//53
f 58//58 45//48 43//43
f 45//48 58//58 60//59
f 59//60 56//56 53//53
f 52//52 61//61 62//62
f 61//61 52//52 45//48
f 53//53 52//52 62//62
f 63//63 53//53 62//62
f 67//64 82//65 65//66
f 66//67 65//66 64//68
f 67//64 65//66 69//69
f 69//69 65//66 66//67
f 70//70 71//71 68//72
f 69//69 72//73 67//64
f 66//67 71//71 69//69
f 68//72 71//71 66//67
f 72//73 69//69 73//74
f 73//74 69//69 71//71
f 42//42 50//50 55//55
f 57//57 54//54 55//55
f 56//56 50//50 44//44
f 50//50 56//56 55//55
f 57//57 76//75 58//58
f 55//55 56//56 75//76
f 60//59 61//61 45//48
f 56//56 59//60 75//76
f 53//53 63//63 59//60
f 60//59 58//58 77//77
f 76//75 77//77 58//58
f 78//78 61//61 60//59
f 59//60 63//63 79//79
f 78//78 60//59 77//77
f 62//62 61//61 80//80
f 63//63 62//62 80//80
f 61//61 81//81 80//80
f 82//65 63//63 80//80
f 79//79 63//63 82//65
f 61//61 83//82 81//81
f 61//61 78//78 83//82
f 81//81 64//68 80//80
f 80//80 64//68 82//65
f 81//81 83//82 68//72
f 68//72 64//68 81//81
f 105//83 91//84 68//72
f 84//85 85//86 86//87
f 85//86 87//88 88//89
f 89//90 85//86 88//89
f 68//72 66//67 64//68
f 65//66 82//65 64//68
f 82//65 67//64 92//91
f 70//70 68//72 91//84
f 70//70 91//84 90//92
f 89//90 86//87 85//86
f 92//91 95//93 93//94
f 93//94 95//93 90//92
f 94//95 96//96 70//70
f 90//92 94//95 70//70
f 90//92 95//93 94//95
f 97//97 86//87 89//90
f 92//91 67//64 72//73
f 115//98 99//99 70//70
f 70//70 96//96 115//98
f 99//99 71//71 70//70
f 86//87 97//97 100//100
f 92//91 72//73 98//101
f 98//101 101//102 92//91
f 71//71 74//103 73//74
f 71//71 99//99 74//103
f 99//99 100//100 74//103
f 100//100 97//97 74//103
f 99//99 115//98 100//100
f 98//101 72//73 73//74
f 73//74 74//103 102//104
f 98//101 73//74 101//102
f 101//102 73//74 102//104
f 57//57 55//55 76//75
f 55//55 75//76 76//75
f 77//77 76//75 103//105
f 75//76 103//105 76//75
f 79//79 75//76 59//60
f 75//76 79//79 104//106
f 78//78 77//77 105//83
f 106//107 107//108 103//105
f 103//105 75//76 106//107
f 105//83 83//82 78//78
f 77//77 107//108 105//83
f 107//108 77//77 103//105
f 85//86 84//85 87//88
f 84//85 108//109 87//88
f 104//106 106//107 75//76
f 109//110 108//109 84//85
f 82//65 104//106 79//79
f 110//111 104//106 82//65
f 110//111 106//107 104//106
f 105//83 68//72 83//82
f 91//84 105//83 90//92
f 90//92 105//83 107//108
f 82//65 92//91 110//111
f 93//94 106//107 110//111
f 90//92 107//108 106//107
f 84//85 86//87 111//112
f 110//111 92//91 93//94
f 106//107 93//94 90//92
f 84//85 111//112 109//110
f 94//95 95//93 114//113
f 96//96 94//95 114//113
f 115//98 96//96 114//113
f 100//100 115//98 116//114
f 116//114 117//115 111//112
f 115//98 117//115 116//114
f 117//115 113//116 111//112
f 86//87 100//100 111//112
f 111//112 100//100 116//114
f 89//90 112//117 97//97
f 120//118 118//119 112//117
f 120//118 119//120 118//119
f 101//102 114//113 92//91
f 114//113 95//93 92//91
f 114//113 101//102 121//121
f 122//122 115//98 114//113
f 115//98 122//122 117//115
f 122//122 114//113 123//123
f 114//113 121//121 123//123
f 74//103 97//97 102//104
f 97//97 118//119 102//104
f 102//104 118//119 121//121
f 112//117 118//119 97//97
f 101//102 102//104 121//121
f 124//124 125//125 126//126
f 127//127 126//126 125//125
f 130//128 132//129 129//130
f 130//128 131//131 132//129
f 87//88 133//132 134//133
f 134//133 135//134 87//88
f 108//109 133//132 87//88
f 87//88 135//134 88//89
f 135//134 136//135 88//89
f 88//89 112//117 89//90
f 136//135 112//117 88//89
f 120//118 112//117 136//135
f 137//136 108//109 109//110
f 109//110 138//137 137//136
f 138//137 109//110 139//138
f 139//138 120//118 140//139
f 138//137 139//138 140//139
f 141//140 139//138 109//110
f 139//138 142//141 120//118
f 109//110 111//112 141//140
f 139//138 113//116 123//123
f 113//116 141//140 111//112
f 141//140 113//116 139//138
f 113//116 122//122 123//123
f 142//141 123//123 119//120
f 120//118 142//141 119//120
f 121//121 119//120 123//123
f 121//121 118//119 119//120
f 145//142 146//142 147//142
f 148//143 149//144 150//145
f 151//146 152//147 153//148
f 154//149 148//143 150//145
f 127//127 155//150 126//126
f 128//151 126//126 155//150
f 128//151 155//150 156//152
f 127//127 153//148 155//150
f 131//131 157//153 132//129
f 158//154 157//153 159//155
f 143//156 150//145 149//144
f 160//157 144//158 161//159
f 143//156 144//158 160//157
f 160//157 150//145 143//156
f 161//159 129//130 160//157
f 158//154 162//160 157//153
f 163//161 150//145 160//157
f 132//129 157//153 162//160
f 129//130 164//162 160//157
f 133//132 165//163 134//133
f 166//164 133//132 108//109
f 168//165 108//109 169//166
f 170//167 136//135 167//168
f 167//168 136//135 135//134
f 140//139 136//135 170//167
f 108//109 137//136 169//166
f 169//166 137//136 138//137
f 140//139 120//118 136//135
f 171//169 155//150 153//148
f 172//170 158//154 159//155
f 153//148 152//147 173//171
f 171//169 153//148 173//171
f 172//170 159//155 174//172
f 174//172 154//149 175//173
f 175//173 172//170 174//172
f 176//174 175//173 154//149
f 150//145 176//174 154//149
f 150//145 163//161 177//175
f 162//160 158//154 172//170
f 162//160 172//170 178//176
f 177//175 163//161 179//177
f 132//129 164//162 129//130
f 160//157 180//178 163//161
f 160//157 164//162 180//178
f 164//162 132//129 162//160
f 164//162 162//160 182//179
f 180//178 164//162 181//180
f 182//179 134//133 164//162
f 164//162 134//133 181//180
f 181//180 134//133 165//163
f 181//180 165//163 183//181
f 183//181 165//163 133//132
f 183//181 133//132 184//182
f 135//134 134//133 182//179
f 184//182 133//132 166//164
f 167//168 135//134 182//179
f 168//165 169//166 184//182
f 184//182 169//166 187//183
f 185//184 140//139 170//167
f 185//184 169//166 140//139
f 169//166 138//137 140//139
f 186//185 176//174 179//177
f 176//174 186//185 175//173
f 178//176 172//170 175//173
f 187//183 186//185 179//177
f 179//177 163//161 180//178
f 187//183 179//177 183//181
f 180//178 181//180 183//181
f 179//177 180//178 183//181
f 182//179 162//160 178//176
f 189//186 188//187 178//176
f 188//187 182//179 178//176
f 188//187 167//168 182//179
f 183//181 184//182 187//183
f 185//184 186//185 187//183
f 188//187 170//167 167//168
f 187//183 169//166 185//184
f 175//173 189//186 178//176
f 175//173 186//185 189//186
f 186//185 185//184 189//186
f 189//186 170//167 188//187
f 185//184 170//167 189//186
