# Blender v2.78 (sub 0) OBJ File: 'exporter.blend'
# www.blender.org
o FJ3474.obj_grp1.2094
v 0.192122 -0.354194 4.872624
v 0.194581 -0.356398 4.874075
v 0.192257 -0.355266 4.874194
v 0.194619 -0.356387 4.877057
v 0.202814 -0.347937 4.870942
v 0.201533 -0.350706 4.874342
v 0.193877 -0.353207 4.878664
v 0.191804 -0.351316 4.874020
v 0.191887 -0.353452 4.876836
v 0.198869 -0.347200 4.877224
v 0.194720 -0.347725 4.875671
v 0.211307 -0.342587 4.872939
v 0.206626 -0.343433 4.874957
v 0.215494 -0.338163 4.865424
v 0.216626 -0.341445 4.868503
v 0.208527 -0.339545 4.871353
v 0.213848 -0.341189 4.866792
v 0.211358 -0.342534 4.872880
v 0.212397 -0.339408 4.871847
v 0.212472 -0.339369 4.871881
v 0.220621 -0.338743 4.862570
v 0.218805 -0.339656 4.868378
v 0.225310 -0.335839 4.862682
v 0.219813 -0.336376 4.862504
v 0.220480 -0.338839 4.862646
v 0.219813 -0.336376 4.862504
v 0.219006 -0.335508 4.866552
v 0.233476 -0.337817 4.828330
v 0.233555 -0.338512 4.827952
v 0.232168 -0.338633 4.833961
v 0.228512 -0.336927 4.847012
v 0.223594 -0.338442 4.863349
v 0.226399 -0.337847 4.857481
v 0.223594 -0.338442 4.863349
v 0.226399 -0.337847 4.857481
v 0.230640 -0.336497 4.851331
v 0.230640 -0.336497 4.851331
v 0.226409 -0.335820 4.861002
v 0.223594 -0.338442 4.863349
v 0.228512 -0.336927 4.847012
v 0.225941 -0.336970 4.854993
v 0.228512 -0.336927 4.847012
v 0.225941 -0.336970 4.854993
v 0.224877 -0.334974 4.856965
v 0.228512 -0.336927 4.847012
v 0.228512 -0.336927 4.847012
v 0.224877 -0.334974 4.856965
v 0.227940 -0.335180 4.849923
v 0.227940 -0.335180 4.849923
v 0.224877 -0.334974 4.856965
v 0.227609 -0.334311 4.854430
v 0.219813 -0.336376 4.862504
v 0.224877 -0.334974 4.856965
v 0.225941 -0.336970 4.854993
v 0.227544 -0.334580 4.858385
v 0.233846 -0.337901 4.827530
v 0.233803 -0.338504 4.828985
v 0.233555 -0.338512 4.827952
v 0.233846 -0.337901 4.827530
v 0.233555 -0.338512 4.827952
v 0.233100 -0.338054 4.828234
v 0.233541 -0.338020 4.827998
v 0.232168 -0.338633 4.833961
v 0.230640 -0.336497 4.851331
v 0.233846 -0.337901 4.827530
v 0.230365 -0.335099 4.849453
v 0.233803 -0.338504 4.828985
v 0.230640 -0.336497 4.851331
v 0.232168 -0.338633 4.833961
v 0.231878 -0.338283 4.832647
v 0.233100 -0.338054 4.828234
v 0.233766 -0.337413 4.827306
v 0.233100 -0.338054 4.828234
v 0.233871 -0.337902 4.827374
v 0.230365 -0.335099 4.849453
vn -0.6494 -0.2494 -0.7184
vn 0.1123 -0.9200 -0.3755
vn -0.7588 -0.6464 -0.0795
vn 0.0469 -0.8450 0.5326
vn 0.1153 -0.5382 -0.8349
vn 0.6249 -0.7619 -0.1702
vn -0.8771 -0.0697 0.4752
vn -0.2051 -0.0803 0.9754
vn -0.8407 0.4320 -0.3265
vn -0.6183 0.7656 0.1776
vn 0.4837 -0.0050 0.8752
vn -0.0539 0.4278 0.9023
vn 0.2044 0.3222 0.9243
vn -0.5853 0.1921 -0.7877
vn -0.4239 0.8931 0.1505
vn -0.0689 -0.6026 -0.7951
vn 0.4879 -0.8669 0.1019
vn 0.4135 0.1746 0.8936
vn -0.1804 0.8148 0.5509
vn 0.6107 -0.2002 0.7661
vn 0.1098 0.6382 0.7620
vn -0.2855 -0.7498 -0.5970
vn 0.7692 0.2709 0.5787
vn -0.6331 -0.2486 -0.7331
vn -0.4538 -0.1736 -0.8740
vn -0.5458 0.7636 -0.3449
vn 0.0686 0.8825 0.4652
vn -0.9391 -0.2121 -0.2702
vn -0.9547 -0.1678 -0.2456
vn -0.9497 0.1149 -0.2914
vn -0.1964 -0.9600 -0.1994
vn 0.0915 -0.9896 -0.1106
vn 0.4867 -0.8613 0.1462
vn 0.3780 -0.9240 0.0578
vn 0.2424 -0.9669 0.0798
vn 0.7798 -0.5004 0.3762
vn 0.7818 -0.4226 0.4584
vn 0.7013 -0.4813 0.5258
vn 0.1115 -0.9928 0.0438
vn -0.4896 -0.7824 -0.3850
vn -0.5542 -0.8121 -0.1827
vn -0.9330 -0.1969 -0.3012
vn -0.9254 0.2157 -0.3116
vn -0.8547 0.3534 -0.3803
vn -0.9326 0.2126 -0.2918
vn -0.4766 0.8523 -0.2153
vn -0.4343 0.8757 -0.2111
vn -0.1249 0.9880 -0.0908
vn -0.7458 0.2269 -0.6264
vn 0.8264 -0.5284 -0.1946
vn -0.6510 -0.1966 -0.7332
vn -0.9689 -0.1379 -0.2055
vn 0.9149 -0.4033 -0.0200
vn 0.8381 -0.5277 0.1386
vn 0.6977 -0.7124 0.0753
vn 0.9653 0.2297 0.1239
vn 0.9241 0.3487 0.1566
vn 0.9540 0.2771 0.1141
vn 0.9265 0.2737 0.2583
vn -0.0405 -0.9921 0.1185
vn -0.9598 0.1393 -0.2437
vn -0.9454 0.2062 -0.2524
vn -0.8858 0.3845 -0.2598
vn -0.7579 0.5312 -0.3786
vn 0.2090 0.9758 -0.0646
vn 0.0583 0.9822 -0.1787
vn 0.7024 0.6673 0.2478
s 1
f 1//1 2//2 3//3
f 4//4 3//3 2//2
f 5//5 2//2 1//1
f 6//6 4//4 2//2
f 4//4 9//7 3//3
f 7//8 9//7 4//4
f 3//3 9//7 1//1
f 9//7 8//9 1//1
f 6//6 2//2 5//5
f 11//10 9//7 7//8
f 9//7 11//10 8//9
f 6//6 12//11 4//4
f 4//4 12//11 7//8
f 10//12 11//10 7//8
f 7//8 13//13 10//12
f 12//11 13//13 7//8
f 14//14 8//9 11//10
f 5//5 1//1 8//9
f 16//15 14//14 11//10
f 17//16 5//5 8//9
f 17//16 8//9 14//14
f 15//17 12//11 6//6
f 15//17 6//6 5//5
f 13//13 12//11 18//18
f 10//12 16//15 11//10
f 10//12 13//13 16//15
f 17//16 15//17 5//5
f 13//13 19//19 16//15
f 22//20 12//11 15//17
f 13//13 18//18 20//21
f 17//16 21//22 15//17
f 20//21 18//18 22//20
f 23//23 20//21 22//20
f 17//16 24//24 25//25
f 24//24 17//16 14//14
f 24//24 21//22 25//25
f 26//26 14//14 16//15
f 26//26 16//15 27//27
f 27//27 16//15 19//19
f 19//19 20//21 27//27
f 30//28 31//29 28//30
f 33//31 32//32 21//22
f 34//33 35//34 36//35
f 37//36 38//37 39//38
f 21//22 32//32 15//17
f 39//38 22//20 15//17
f 38//37 23//23 39//38
f 39//38 23//23 22//20
f 36//35 35//34 40//39
f 33//31 41//40 42//41
f 43//42 44//42 45//42
f 46//43 47//44 48//45
f 49//46 50//47 51//48
f 41//40 33//31 21//22
f 41//40 21//22 24//24
f 52//49 53//49 54//49
f 27//27 50//47 26//26
f 51//48 50//47 27//27
f 20//21 23//23 27//27
f 56//50 57//50 58//50
f 59//51 60//51 61//51
f 29//52 30//28 28//30
f 62//53 64//54 63//55
f 65//56 66//57 67//58
f 68//59 67//58 66//57
f 69//60 36//35 40//39
f 46//43 48//45 70//61
f 71//62 70//61 48//45
f 73//63 49//46 72//64
f 72//64 49//46 51//48
f 75//65 74//66 51//48
f 27//27 55//67 51//48
f 68//59 66//57 55//67
f 75//65 51//48 55//67
f 55//67 23//23 68//59
f 23//23 55//67 27//27
