# Blender v2.78 (sub 0) OBJ File: 'exporter.blend'
# www.blender.org
o FJ3415.obj_grp1.2047
v -0.347911 -0.530535 4.561843
v -0.347678 -0.532947 4.595999
v -0.341266 -0.536338 4.558950
v -0.344083 -0.534465 4.580076
v -0.344099 -0.534336 4.579958
v -0.341266 -0.536338 4.558950
v -0.342059 -0.535380 4.616391
v -0.344695 -0.524826 4.595384
v -0.330118 -0.546343 4.623138
v -0.333503 -0.531806 4.531444
v -0.341671 -0.523882 4.567308
v -0.336340 -0.532098 4.619178
v -0.327472 -0.544742 4.523412
v -0.327021 -0.540688 4.517934
v -0.317203 -0.548060 4.508630
v -0.339116 -0.536780 4.602191
v -0.330670 -0.547821 4.633017
v -0.330071 -0.531511 4.532464
v -0.335632 -0.540408 4.540641
v -0.335632 -0.540408 4.540641
v -0.323061 -0.544813 4.528148
v -0.335138 -0.532385 4.558950
v -0.337976 -0.529569 4.575851
v -0.335138 -0.532385 4.558950
v -0.337976 -0.529569 4.575851
v -0.344083 -0.534465 4.580076
v -0.337976 -0.529569 4.575851
v -0.336457 -0.533991 4.600422
v -0.335160 -0.530977 4.605427
v -0.337976 -0.529569 4.575851
v -0.334629 -0.531362 4.607028
v -0.323883 -0.541463 4.634076
v -0.311449 -0.560395 4.645737
v -0.322957 -0.544896 4.527966
v -0.335632 -0.540408 4.540641
v -0.327472 -0.544742 4.523412
v -0.318187 -0.547406 4.631543
v -0.314481 -0.558482 4.637740
v -0.320140 -0.553511 4.632200
v -0.312370 -0.554054 4.644972
v -0.314490 -0.539230 4.514102
v -0.317623 -0.537971 4.522664
v -0.321677 -0.537528 4.531984
v -0.314065 -0.539414 4.513725
v -0.314507 -0.559487 4.637820
v -0.320140 -0.553511 4.632200
v -0.308841 -0.557925 4.636516
v -0.312980 -0.550673 4.634977
v -0.311755 -0.556295 4.635515
v -0.305939 -0.565197 4.640666
v -0.316647 -0.550455 4.514027
v -0.294852 -0.550727 4.496208
v -0.316647 -0.550455 4.514027
v -0.314507 -0.550441 4.516698
v -0.304581 -0.554858 4.509854
v -0.314507 -0.550441 4.516698
v -0.303039 -0.549961 4.511919
v -0.314275 -0.537439 4.521643
v -0.318301 -0.539958 4.526012
v -0.310281 -0.541310 4.515290
v -0.312759 -0.551042 4.635538
v -0.324277 -0.536418 4.534383
v -0.303838 -0.558245 4.637325
v -0.270337 -0.586542 4.644629
v -0.290564 -0.570846 4.649048
v -0.292085 -0.559360 4.495914
v -0.302321 -0.557147 4.503883
v -0.299446 -0.559938 4.645871
v -0.291847 -0.570370 4.649040
v -0.305645 -0.554727 4.640908
v -0.299068 -0.562994 4.640139
v -0.304401 -0.553765 4.641284
v -0.291896 -0.549578 4.505196
v -0.290564 -0.569003 4.639923
v -0.268193 -0.567944 4.502986
v -0.265182 -0.562557 4.502354
v -0.272164 -0.585814 4.641625
v -0.270587 -0.583002 4.639531
v -0.267947 -0.579631 4.642415
v -0.234768 -0.583635 4.495901
v -0.245947 -0.575179 4.491102
v -0.268428 -0.581715 4.646982
v -0.271009 -0.582610 4.640440
v -0.268969 -0.580201 4.642309
v -0.198219 -0.583928 4.493963
v -0.139659 -0.606416 4.494059
v -0.141533 -0.603759 4.507580
v -0.182623 -0.599380 4.503811
v -0.134109 -0.600206 4.499227
v -0.132064 -0.603825 4.496127
v -0.135936 -0.612101 4.498358
v -0.133558 -0.606609 4.505478
v -0.135899 -0.611206 4.504402
v -0.134177 -0.607659 4.493929
v -0.134353 -0.611152 4.501075
v -0.131206 -0.605390 4.502229
v -0.134353 -0.611152 4.501075
v -0.135859 -0.610617 4.503901
v -0.134595 -0.607114 4.494662
v -0.132591 -0.604302 4.497037
vn -0.9768 0.0868 -0.1956
vn -0.6535 -0.7556 -0.0454
vn -0.9319 -0.3389 0.1290
vn -0.0007 -0.9990 0.0440
vn -0.8823 0.1150 0.4564
vn -0.3082 0.9471 0.0890
vn -0.5899 0.6333 -0.5009
vn -0.0140 0.9944 -0.1045
vn -0.8003 -0.5174 -0.3032
vn -0.6778 0.2073 -0.7054
vn -0.6637 -0.1726 -0.7278
vn -0.8367 -0.4894 -0.2458
vn -0.2450 -0.9613 0.1257
vn 0.6667 -0.7124 0.2192
vn -0.5399 -0.8393 0.0648
vn 0.5286 -0.5613 0.6368
vn 0.8492 -0.1974 0.4898
vn 0.7815 -0.5878 0.2091
vn 0.8798 0.4023 0.2531
vn 0.7393 0.6714 0.0527
vn 0.1942 -0.9181 -0.3456
vn -0.0567 -0.9447 -0.3230
vn 0.5226 -0.8278 -0.2040
vn 0.5734 -0.7965 -0.1918
vn 0.8227 -0.4688 -0.3216
vn -0.7643 -0.3391 0.5485
vn -0.0936 0.8583 0.5045
vn 0.4941 0.8671 0.0631
vn 0.9305 -0.3460 -0.1198
vn 0.7435 0.6655 -0.0662
vn 0.1447 0.7948 0.5894
vn 0.2168 0.9602 -0.1762
vn -0.2535 -0.9437 0.2125
vn -0.1890 -0.9698 0.1544
vn -0.2344 -0.9514 0.1996
vn 0.7498 0.2159 -0.6254
vn -0.5378 -0.8418 -0.0459
vn 0.4772 -0.2473 -0.8433
vn -0.5454 -0.4050 0.7338
vn -0.0674 0.3760 0.9242
vn 0.4528 0.8907 0.0397
vn 0.5165 0.8494 0.1087
vn -0.3003 0.7730 -0.5588
vn 0.6847 -0.4598 0.5655
vn 0.0029 -0.6290 -0.7774
vn 0.0166 -0.6766 -0.7362
vn 0.0101 -0.4237 -0.9058
vn 0.4282 -0.0956 -0.8986
vn 0.2804 -0.0692 -0.9574
vn -0.4729 -0.7904 -0.3893
vn -0.0827 0.5253 -0.8469
vn -0.5765 -0.7799 -0.2439
vn -0.2715 -0.9318 0.2408
vn 0.3447 -0.7417 0.5754
vn -0.2790 -0.9328 0.2282
vn 0.4014 -0.4087 0.8196
vn 0.3397 -0.7107 0.6161
vn 0.4208 0.9067 0.0292
vn 0.6532 0.6468 -0.3936
vn 0.7703 -0.1595 0.6174
vn 0.7349 -0.0813 0.6733
vn 0.6724 0.0228 0.7399
vn -0.3885 -0.9212 -0.0219
vn -0.3487 -0.5344 -0.7699
vn 0.1304 0.3787 0.9163
vn 0.0563 0.3277 0.9431
vn 0.6583 0.5142 -0.5497
vn 0.1636 0.2292 -0.9595
vn 0.1813 -0.0560 -0.9818
vn 0.2741 0.6311 0.7257
vn 0.4007 0.8748 0.2722
vn -0.1207 -0.1841 -0.9755
vn 0.3737 -0.9082 0.1883
vn -0.1717 -0.3602 0.9169
vn -0.0355 -0.4153 0.9090
vn 0.1411 0.1064 0.9843
vn 0.0095 -0.8045 -0.5939
vn 0.3222 0.4410 -0.8377
vn 0.2736 0.4267 -0.8620
vn 0.5082 -0.5310 0.6780
vn -0.2876 -0.9304 -0.2275
vn 0.4074 0.7873 0.4629
vn 0.4774 -0.4422 -0.7593
vn 0.4390 0.8115 0.3858
vn 0.8860 -0.3562 -0.2967
vn -0.1540 -0.1984 -0.9680
vn 0.2359 0.6756 -0.6985
vn 0.1071 0.2947 -0.9496
vn -0.2173 -0.7897 0.5737
vn 0.5154 0.8568 -0.0122
vn 0.1130 0.2221 0.9684
vn 0.1543 0.5091 -0.8468
vn 0.1728 -0.9287 -0.3281
vn 0.4354 -0.6783 -0.5919
vn -0.0801 -0.8050 0.5878
vn 0.3270 -0.9354 0.1343
vn 0.8489 -0.5281 0.0228
vn 0.9347 0.1149 0.3363
vn 0.7378 -0.5150 0.4364
vn 0.6186 0.0689 0.7827
vn 0.1212 0.2627 -0.9572
vn 0.9701 0.0574 -0.2359
s 1
f 1//1 3//2 2//3
f 3//2 4//4 2//3
f 2//3 7//5 8//6
f 10//7 1//1 11//8
f 1//1 2//3 8//6
f 11//8 1//1 8//6
f 13//9 1//1 14//10
f 15//11 13//9 14//10
f 10//7 14//10 1//1
f 19//12 3//2 1//1
f 20//13 5//14 6//15
f 21//16 22//17 5//14
f 23//18 5//14 22//17
f 24//19 11//8 25//20
f 16//21 9//22 2//3
f 4//4 16//21 2//3
f 16//21 26//23 27//24
f 16//21 27//24 28//25
f 2//3 17//26 7//5
f 8//6 7//5 12//27
f 17//26 2//3 9//22
f 25//20 8//6 29//28
f 8//6 12//27 29//28
f 28//25 30//29 31//30
f 7//5 17//26 12//27
f 12//27 31//30 29//28
f 17//26 32//31 12//27
f 11//8 18//32 10//7
f 8//6 25//20 11//8
f 34//33 35//34 36//35
f 19//12 1//1 13//9
f 16//21 37//36 9//22
f 28//25 37//36 16//21
f 28//25 31//30 37//36
f 17//26 9//22 38//37
f 39//38 9//22 37//36
f 17//26 33//39 40//40
f 32//31 17//26 40//40
f 41//41 18//32 42//42
f 10//7 18//32 44//43
f 20//13 21//16 5//14
f 18//32 11//8 42//42
f 24//19 42//42 11//8
f 22//17 21//16 43//44
f 32//31 31//30 12//27
f 45//45 46//46 47//47
f 48//48 49//49 39//38
f 17//26 38//37 33//39
f 50//50 45//45 47//47
f 15//11 14//10 52//51
f 51//52 13//9 15//11
f 34//33 36//35 53//53
f 53//53 55//54 56//55
f 34//33 53//53 56//55
f 57//56 21//16 54//57
f 54//57 55//54 57//56
f 21//16 57//56 43//44
f 60//58 44//43 41//41
f 48//48 39//38 37//36
f 32//31 37//36 31//30
f 61//59 37//36 32//31
f 52//51 14//10 10//7
f 52//51 10//7 44//43
f 62//60 59//61 58//62
f 42//42 60//58 41//41
f 33//39 38//37 50//50
f 67//63 15//11 66//64
f 51//52 15//11 67//63
f 67//63 55//54 53//53
f 68//65 33//39 69//66
f 68//65 40//40 33//39
f 32//31 70//67 61//59
f 71//68 61//59 70//67
f 49//49 48//48 63//69
f 49//49 63//69 47//47
f 32//31 40//40 72//70
f 66//64 15//11 52//51
f 57//56 58//62 59//61
f 57//56 73//71 58//62
f 73//71 44//43 60//58
f 50//50 47//47 74//72
f 74//72 47//47 63//69
f 33//39 50//50 64//73
f 65//74 68//65 69//66
f 57//56 55//54 67//63
f 67//63 75//75 57//56
f 76//76 73//71 57//56
f 64//73 50//50 77//77
f 78//78 70//67 79//79
f 65//74 33//39 82//80
f 33//39 64//73 82//80
f 66//64 80//81 67//63
f 75//75 67//63 80//81
f 70//67 78//78 71//68
f 79//82 72//70 40//40
f 82//80 68//65 65//74
f 76//76 57//56 75//75
f 77//77 50//50 74//72
f 83//83 77//77 74//72
f 79//82 40//40 82//84
f 77//77 83//83 84//85
f 77//77 84//85 64//73
f 82//80 64//73 84//85
f 66//64 81//86 80//81
f 81//86 66//64 52//51
f 52//51 44//43 73//71
f 85//87 81//86 52//51
f 85//87 52//51 73//71
f 76//76 85//87 73//71
f 85//87 86//88 81//86
f 88//89 75//75 80//81
f 85//87 76//76 89//90
f 89//90 76//76 87//91
f 75//75 88//89 87//91
f 76//76 75//75 87//91
f 85//87 90//92 86//88
f 91//93 88//89 80//81
f 91//93 80//81 94//94
f 94//94 80//81 81//86
f 91//93 93//95 88//89
f 93//95 87//91 88//89
f 91//93 95//96 93//95
f 97//97 91//93 94//94
f 97//97 94//94 96//98
f 97//97 96//98 98//99
f 96//98 92//100 98//99
f 89//90 90//92 85//87
f 86//88 90//92 99//101
f 100//102 96//98 94//94
f 96//98 100//102 89//90
f 92//100 87//91 93//95
f 92//100 96//98 87//91
f 96//98 89//90 87//91
