# Blender v2.78 (sub 0) OBJ File: 'exporter.blend'
# www.blender.org
o FJ3482.obj_grp1.2102
v -0.105391 -0.544700 6.143429
v -0.089740 -0.547897 6.163810
v -0.097764 -0.536157 6.141303
v -0.111251 -0.556795 6.145286
v -0.101725 -0.540996 6.138622
v -0.097565 -0.536428 6.141180
v -0.104376 -0.564670 6.156791
v -0.047662 -0.576377 6.207510
v -0.112417 -0.563783 6.143239
v -0.085520 -0.563267 6.109985
v -0.106268 -0.575548 6.150760
v -0.108555 -0.577608 6.137840
v -0.102878 -0.583977 6.141852
v -0.094867 -0.588477 6.127322
v -0.097345 -0.581310 6.122082
v -0.084650 -0.526965 6.133579
v -0.068953 -0.525473 6.107603
v -0.075997 -0.531731 6.155213
v -0.057890 -0.533875 6.091472
v -0.046796 -0.560174 6.202946
v -0.069607 -0.574828 6.093933
v -0.083052 -0.587888 6.111631
v -0.059048 -0.605838 6.188477
v -0.062771 -0.605774 6.143126
v -0.063805 -0.520311 6.132472
v -0.041650 -0.527661 6.170320
v -0.055647 -0.519294 6.112114
v -0.046008 -0.541279 6.189988
v -0.066537 -0.584655 6.099873
v -0.057982 -0.571976 6.088408
v -0.058378 -0.597022 6.117187
v -0.050292 -0.582903 6.097693
v -0.052817 -0.556009 6.083408
v -0.034521 -0.593139 6.218966
v -0.058449 -0.611010 6.172366
v -0.036428 -0.522016 6.145502
v -0.035548 -0.520933 6.123022
v -0.044960 -0.526347 6.093380
v -0.040057 -0.533007 6.086928
v -0.034574 -0.525581 6.100427
v -0.036339 -0.536494 6.186014
v -0.033481 -0.543728 6.084917
v -0.028761 -0.606547 6.217349
v -0.035741 -0.604750 6.131968
v -0.035948 -0.594845 6.116030
v -0.047601 -0.613592 6.188854
v -0.030290 -0.618903 6.172880
v -0.030716 -0.524096 6.120487
v -0.027959 -0.533395 6.097755
v -0.013437 -0.562669 6.222347
v -0.007813 -0.547224 6.195590
v -0.027929 -0.540989 6.090607
v -0.030003 -0.552993 6.087121
v -0.003739 -0.577445 6.149240
v -0.032514 -0.566416 6.091499
v -0.006067 -0.592480 6.149236
v -0.000695 -0.611709 6.169300
v 0.018598 -0.584797 6.254301
v -0.018306 -0.614489 6.215831
v -0.006073 -0.621215 6.205600
v -0.007952 -0.621316 6.186783
v 0.001873 -0.552253 6.209741
v -0.005259 -0.547726 6.179913
v 0.011588 -0.560237 6.234107
v -0.002039 -0.563456 6.159711
v 0.014849 -0.560379 6.191130
v 0.075352 -0.581560 6.292696
v 0.025852 -0.615878 6.208734
v 0.017787 -0.554319 6.225871
v 0.024079 -0.555428 6.209952
v 0.014207 -0.583180 6.172865
v 0.025409 -0.574172 6.258374
v 0.027467 -0.599978 6.188369
v 0.040624 -0.604085 6.253867
v 0.057698 -0.605938 6.225734
v 0.058418 -0.544964 6.257784
v 0.076961 -0.555417 6.235291
v 0.034378 -0.567308 6.200355
v 0.053297 -0.550687 6.269871
v 0.072287 -0.553493 6.298966
v 0.033517 -0.586242 6.191741
v 0.057052 -0.608181 6.244804
v 0.073554 -0.567529 6.299858
v 0.067086 -0.545146 6.248827
v 0.112129 -0.571482 6.319363
v 0.082978 -0.589742 6.235802
v 0.084041 -0.572295 6.231075
v 0.092947 -0.591835 6.270966
v 0.094833 -0.540513 6.322853
v 0.092947 -0.554011 6.322574
v 0.090468 -0.534118 6.312985
v 0.096715 -0.526948 6.307505
v 0.113359 -0.529175 6.293765
v 0.102319 -0.585694 6.264248
v 0.102534 -0.527451 6.314446
v 0.109568 -0.532291 6.321282
v 0.108403 -0.525197 6.300085
v 0.115204 -0.527351 6.309206
v 0.102958 -0.556249 6.327466
v 0.111796 -0.547695 6.328309
v 0.126361 -0.541704 6.295486
v 0.099322 -0.567027 6.320940
v 0.113081 -0.561410 6.326460
v 0.105906 -0.561573 6.258562
v 0.123173 -0.568902 6.312983
v 0.109343 -0.572610 6.263195
v 0.124061 -0.533807 6.304189
v 0.119396 -0.539982 6.323195
v 0.122670 -0.549145 6.324483
v 0.124731 -0.536613 6.315289
v 0.128920 -0.552224 6.318451
v 0.131612 -0.549019 6.307837
v 0.121746 -0.563112 6.321955
v 0.130533 -0.559357 6.311219
v 0.129916 -0.560055 6.299237
vn -0.8484 0.5161 0.1173
vn -0.5689 0.4958 0.6561
vn -0.4955 0.7210 0.4843
vn -0.7695 0.5244 -0.3646
vn -0.9479 0.3029 0.0984
vn -0.6439 0.7489 -0.1566
vn -0.7548 0.0228 0.6556
vn -0.9956 0.0234 -0.0905
vn -0.7199 0.1302 -0.6817
vn -0.7949 -0.4084 0.4487
vn -0.9056 -0.3581 -0.2273
vn -0.6674 -0.7368 0.1085
vn -0.5799 -0.7612 -0.2904
vn -0.7566 -0.2791 -0.5913
vn -0.4586 0.8886 0.0090
vn -0.5446 0.6611 -0.5161
vn -0.3803 0.8086 0.4490
vn -0.4657 0.4422 -0.7665
vn -0.6244 0.1233 0.7713
vn -0.5170 0.3793 0.7674
vn -0.4990 -0.2361 -0.8338
vn -0.4628 -0.6774 -0.5718
vn -0.2679 -0.9356 -0.2299
vn -0.1632 0.9796 0.1172
vn -0.0149 0.9214 0.3884
vn -0.0925 0.9724 -0.2141
vn -0.3226 0.6995 0.6376
vn -0.1817 -0.7175 -0.6724
vn -0.0701 -0.4375 -0.8965
vn -0.0903 -0.8829 -0.4608
vn 0.1490 -0.6845 -0.7137
vn -0.1932 -0.0259 -0.9808
vn -0.6600 -0.5773 0.4807
vn -0.6137 -0.1524 0.7747
vn -0.4460 -0.8938 0.0475
vn 0.2871 0.9458 0.1516
vn 0.3410 0.9398 -0.0212
vn -0.0081 0.8171 -0.5764
vn 0.1580 0.5249 -0.8363
vn 0.4530 0.8239 -0.3405
vn 0.0119 0.8490 0.5283
vn 0.3582 0.1756 -0.9170
vn 0.5173 -0.4365 -0.7361
vn 0.6109 -0.1630 -0.7748
vn -0.5135 -0.4984 0.6985
vn 0.3351 -0.7366 -0.5875
vn 0.1428 -0.8917 -0.4295
vn -0.4100 -0.8750 0.2573
vn -0.0903 -0.9828 -0.1610
vn 0.6786 0.7251 -0.1170
vn 0.7814 0.5023 -0.3703
vn -0.3003 0.6967 0.6515
vn 0.4046 0.9115 0.0741
vn 0.7953 0.2680 -0.5437
vn 0.8886 0.0417 -0.4567
vn 0.8075 -0.2529 -0.5330
vn -0.5827 -0.0246 0.8123
vn 0.4894 -0.7192 -0.4933
vn -0.3184 -0.8062 0.4986
vn -0.0531 -0.9838 0.1710
vn 0.1390 -0.9774 -0.1590
vn -0.0035 0.9277 0.3733
vn 0.6572 0.7437 -0.1224
vn -0.3524 0.8064 0.4749
vn 0.8618 0.3554 -0.3619
vn -0.3859 -0.5737 0.7225
vn 0.3225 -0.9293 -0.1799
vn -0.2313 0.9622 0.1438
vn 0.2101 0.9314 -0.2971
vn 0.5549 0.7117 -0.4308
vn 0.7628 0.1498 -0.6291
vn -0.6488 0.2846 0.7057
vn 0.6669 -0.3164 -0.6746
vn -0.1542 -0.8308 0.5347
vn 0.5266 -0.7782 -0.3423
vn -0.3245 0.9457 0.0198
vn -0.6222 0.6729 0.4001
vn -0.7414 0.2295 0.6306
vn 0.4842 0.5658 -0.6674
vn 0.6295 0.1111 -0.7690
vn 0.2382 -0.9594 0.1512
vn -0.6329 -0.2243 0.7411
vn 0.0023 0.9450 -0.3271
vn 0.4461 0.6409 -0.6246
vn 0.1422 -0.7785 0.6113
vn 0.6942 -0.4995 -0.5184
vn 0.6860 0.1016 -0.7205
vn -0.6076 -0.1205 0.7851
vn -0.4784 0.3473 0.8066
vn -0.6413 0.5867 0.4945
vn -0.3536 0.9194 0.1721
vn 0.3949 -0.9117 0.1134
vn 0.7056 -0.6726 -0.2231
vn 0.1418 0.9804 -0.1367
vn -0.1720 0.8767 0.4492
vn 0.1134 0.6775 0.7267
vn 0.4005 0.8988 0.1781
vn 0.1049 0.1607 0.9814
vn -0.2428 -0.1921 0.9509
vn 0.4499 0.7782 -0.4381
vn 0.8253 0.3782 -0.4192
vn -0.3461 -0.5429 0.7652
vn 0.1599 -0.3605 0.9189
vn 0.7545 0.2431 -0.6096
vn 0.6393 -0.7250 0.2563
vn 0.8464 -0.2218 -0.4841
vn 0.7500 0.6528 -0.1065
vn 0.4516 0.4497 0.7706
vn 0.5663 0.0818 0.8201
vn 0.7241 0.5699 0.3885
vn 0.8538 -0.0027 0.5206
vn 0.9819 0.1870 0.0283
vn 0.5607 -0.4580 0.6899
vn 0.9218 -0.3331 0.1982
vn 0.9234 -0.2804 -0.2622
s 1
f 1//1 2//2 3//3
f 1//1 5//4 4//5
f 5//4 1//1 6//6
f 2//2 1//1 4//5
f 7//7 2//2 4//5
f 4//5 9//8 7//7
f 5//4 9//8 4//5
f 9//8 5//4 10//9
f 9//8 11//10 7//7
f 12//11 11//10 9//8
f 13//12 11//10 12//11
f 14//13 13//12 12//11
f 14//13 12//11 15//14
f 9//8 15//14 12//11
f 10//9 15//14 9//8
f 5//4 16//15 17//16
f 3//3 2//2 18//17
f 5//4 6//6 16//15
f 16//15 3//3 18//17
f 17//16 19//18 10//9
f 2//2 8//19 20//20
f 2//2 7//7 8//19
f 5//4 17//16 10//9
f 10//9 21//21 15//14
f 21//21 22//22 15//14
f 14//13 15//14 22//22
f 14//13 22//22 24//23
f 18//17 25//24 16//15
f 25//24 18//17 26//25
f 25//24 27//26 16//15
f 16//15 27//26 17//16
f 28//27 18//17 2//2
f 19//18 21//21 10//9
f 22//22 21//21 29//28
f 30//29 29//28 21//21
f 31//30 29//28 32//31
f 32//31 29//28 30//29
f 30//29 21//21 33//32
f 7//7 23//33 34//34
f 23//33 7//7 11//10
f 23//33 11//10 13//12
f 35//35 23//33 13//12
f 35//35 13//12 14//13
f 35//35 14//13 24//23
f 22//22 31//30 24//23
f 29//28 31//30 22//22
f 36//36 25//24 26//25
f 25//24 36//36 27//26
f 36//36 37//37 27//26
f 17//16 27//26 38//38
f 38//38 19//18 17//16
f 19//18 38//38 39//39
f 27//26 37//37 40//40
f 40//40 38//38 27//26
f 20//20 28//27 2//2
f 26//25 18//17 28//27
f 41//41 26//25 28//27
f 19//18 33//32 21//21
f 33//32 19//18 39//39
f 42//42 33//32 39//39
f 55//43 33//32 53//44
f 34//34 8//19 7//7
f 55//43 30//29 33//32
f 32//31 30//29 55//43
f 43//45 34//34 23//33
f 31//30 32//31 45//46
f 45//46 44//47 31//30
f 43//45 23//33 46//48
f 46//48 23//33 35//35
f 47//49 46//48 35//35
f 35//35 24//23 47//49
f 44//47 24//23 31//30
f 44//47 47//49 24//23
f 48//50 37//37 36//36
f 40//40 37//37 48//50
f 40//40 48//50 49//51
f 28//27 50//52 41//41
f 26//25 51//53 36//36
f 40//40 49//51 39//39
f 49//51 52//54 39//39
f 49//51 54//55 52//54
f 40//40 39//39 38//38
f 52//54 42//42 39//39
f 42//42 52//54 53//44
f 20//20 50//52 28//27
f 53//44 56//56 55//43
f 53//44 52//54 54//55
f 54//55 56//56 53//44
f 42//42 53//44 33//32
f 20//20 8//19 58//57
f 34//34 58//57 8//19
f 56//56 57//58 55//43
f 45//46 32//31 55//43
f 57//58 45//46 55//43
f 59//59 43//45 46//48
f 46//48 60//60 59//59
f 47//49 60//60 46//48
f 61//61 47//49 44//47
f 45//46 57//58 44//47
f 26//25 41//41 51//53
f 41//41 62//62 51//53
f 51//53 63//63 36//36
f 48//50 36//36 63//63
f 62//62 50//52 64//64
f 41//41 50//52 62//62
f 65//65 48//50 63//63
f 48//50 65//65 49//51
f 49//51 65//65 54//55
f 58//57 50//52 20//20
f 43//45 58//57 34//34
f 67//66 43//45 59//59
f 61//61 60//60 47//49
f 57//58 61//61 44//47
f 61//61 57//58 68//67
f 69//68 62//62 64//64
f 70//69 66//70 51//53
f 63//63 51//53 66//70
f 62//62 70//69 51//53
f 65//65 63//63 66//70
f 66//70 71//71 65//65
f 50//52 58//57 72//72
f 54//55 65//65 71//71
f 71//71 73//73 56//56
f 71//71 56//56 54//55
f 59//59 60//60 74//74
f 61//61 68//67 60//60
f 75//75 68//67 57//58
f 73//73 57//58 56//56
f 64//64 76//76 69//68
f 69//68 70//69 62//62
f 50//52 72//72 64//64
f 64//64 72//72 79//77
f 79//77 72//72 80//78
f 66//70 78//79 71//71
f 71//71 78//79 81//80
f 58//57 43//45 67//66
f 67//66 59//59 74//74
f 71//71 81//80 73//73
f 68//67 82//81 60//60
f 75//75 82//81 68//67
f 75//75 57//58 73//73
f 80//78 72//72 83//82
f 76//76 64//64 79//77
f 76//76 70//69 69//68
f 84//83 77//84 70//69
f 78//79 66//70 70//69
f 58//57 83//82 72//72
f 74//74 85//85 67//66
f 60//60 82//81 74//74
f 86//86 75//75 73//73
f 84//83 70//69 76//76
f 77//84 78//79 70//69
f 77//84 87//87 78//79
f 83//82 58//57 67//66
f 78//79 87//87 81//80
f 87//87 86//86 73//73
f 82//81 85//85 74//74
f 90//88 89//89 80//78
f 89//89 91//90 79//77
f 89//89 79//77 80//78
f 79//77 91//90 92//91
f 92//91 76//76 79//77
f 90//88 80//78 83//82
f 81//80 87//87 73//73
f 85//85 82//81 88//92
f 94//93 82//81 75//75
f 88//92 82//81 94//93
f 86//86 94//93 75//75
f 76//76 92//91 97//94
f 84//83 76//76 97//94
f 95//95 97//94 92//91
f 95//95 96//96 98//97
f 95//95 98//97 97//94
f 96//96 95//95 89//89
f 96//96 89//89 100//98
f 100//98 89//89 99//99
f 92//91 91//90 95//95
f 91//90 89//89 95//95
f 93//100 84//83 97//94
f 93//100 77//84 84//83
f 77//84 93//100 101//101
f 90//88 83//82 102//102
f 90//88 99//99 89//89
f 99//99 90//88 102//102
f 103//103 99//99 102//102
f 100//98 99//99 103//103
f 77//84 104//104 87//87
f 101//101 104//104 77//84
f 67//66 85//85 102//102
f 85//85 103//103 102//102
f 67//66 102//102 83//82
f 85//85 88//92 105//105
f 105//105 88//92 94//93
f 104//104 106//106 87//87
f 87//87 106//106 86//86
f 94//93 86//86 106//106
f 107//107 97//94 98//97
f 93//100 97//94 107//107
f 108//108 96//96 100//98
f 108//108 100//98 109//109
f 108//108 110//110 96//96
f 108//108 109//109 110//110
f 110//110 109//109 111//111
f 96//96 110//110 98//97
f 107//107 98//97 110//110
f 107//107 110//110 112//112
f 107//107 101//101 93//100
f 103//103 109//109 100//98
f 109//109 103//103 113//113
f 109//109 113//113 111//111
f 113//113 103//103 85//85
f 105//105 114//114 113//113
f 111//111 113//113 114//114
f 105//105 115//115 114//114
f 94//93 106//106 115//115
f 104//104 115//115 106//106
f 104//104 101//101 115//115
f 113//113 85//85 105//105
f 94//93 115//115 105//105
f 112//112 110//110 111//111
f 101//101 107//107 112//112
f 114//114 112//112 111//111
f 115//115 112//112 114//114
f 112//112 115//115 101//101
