# Blender v2.78 (sub 0) OBJ File: 'exporter.blend'
# www.blender.org
o FJ3439.obj_grp1.2065
v -0.146131 -0.621100 4.488531
v -0.147011 -0.619691 4.491348
v -0.147320 -0.615466 4.492756
v -0.147240 -0.620165 4.491320
v -0.141414 -0.623631 4.486557
v -0.141334 -0.621100 4.482897
v -0.141334 -0.621100 4.482897
v -0.141332 -0.621349 4.482689
v -0.147320 -0.615466 4.492756
v -0.099708 -0.637786 4.539764
v -0.139430 -0.608593 4.487123
v -0.139207 -0.608342 4.486851
v -0.144944 -0.610826 4.492544
v -0.140237 -0.609106 4.492413
v -0.145276 -0.611241 4.492756
v -0.143755 -0.609832 4.491348
v -0.099291 -0.638354 4.519842
v -0.061515 -0.660125 4.568211
v -0.112272 -0.636259 4.523172
v -0.137753 -0.618036 4.480679
v -0.138022 -0.618283 4.480860
v -0.136648 -0.614041 4.481226
v -0.136333 -0.611195 4.482537
v -0.106419 -0.629297 4.509429
v -0.095888 -0.629336 4.520802
v -0.138022 -0.610537 4.484306
v -0.138022 -0.610537 4.484306
v -0.136614 -0.611185 4.482897
v -0.067478 -0.639042 4.560498
v -0.108133 -0.622846 4.523164
v -0.073985 -0.654301 4.567105
v -0.067577 -0.645468 4.550657
v -0.088265 -0.637141 4.551631
v -0.039508 -0.666550 4.615116
v -0.055420 -0.646652 4.567897
v -0.056798 -0.648478 4.585176
v -0.037115 -0.676824 4.605175
v -0.039462 -0.672951 4.614247
v -0.027347 -0.672836 4.603041
v -0.025813 -0.667628 4.603903
v -0.032677 -0.661669 4.613035
v -0.032382 -0.677012 4.603673
v -0.034827 -0.677949 4.610676
v -0.033184 -0.673763 4.615691
v -0.026121 -0.674007 4.608231
v -0.028507 -0.672722 4.613732
v -0.033693 -0.667377 4.616675
v -0.027072 -0.667504 4.613458
v -0.027641 -0.662565 4.609063
vn -0.8600 0.1774 -0.4784
vn -0.9487 0.0354 -0.3141
vn -0.7941 0.2724 -0.5433
vn -0.3286 -0.8916 -0.3117
vn -0.6993 -0.6258 0.3455
vn -0.6921 -0.5868 -0.4202
vn -0.7091 0.3035 -0.6365
vn -0.7333 -0.1670 0.6591
vn -0.6810 0.0509 0.7305
vn -0.4877 0.6035 0.6308
vn -0.7252 0.3066 -0.6164
vn 0.2768 0.9605 -0.0291
vn -0.1610 0.9283 0.3353
vn -0.7930 0.3836 -0.4732
vn -0.7558 0.3381 -0.5607
vn 0.2304 -0.7867 -0.5727
vn 0.3332 -0.7093 -0.6212
vn -0.0538 -0.9332 -0.3554
vn -0.6693 -0.6314 0.3915
vn -0.6332 0.2842 -0.7200
vn -0.6741 0.3056 -0.6724
vn 0.5428 -0.3750 -0.7515
vn 0.6596 0.5489 -0.5135
vn 0.6671 -0.1272 -0.7341
vn 0.7253 0.4577 -0.5142
vn -0.6667 0.3421 -0.6622
vn -0.5301 0.4330 -0.7291
vn -0.4515 0.5263 -0.7205
vn 0.4243 0.9037 0.0572
vn -0.1841 0.8130 0.5524
vn -0.6200 -0.7481 0.2365
vn 0.7576 -0.0200 -0.6524
vn -0.5631 0.5090 0.6510
vn -0.5031 0.2354 0.8315
vn 0.7535 0.5713 -0.3255
vn -0.1385 0.8500 0.5083
vn -0.3444 -0.9345 -0.0901
vn -0.5656 -0.4806 0.6702
vn 0.7408 -0.4953 -0.4538
vn 0.9428 0.1729 -0.2850
vn 0.7485 0.6409 0.1703
vn 0.1740 0.7576 0.6290
vn 0.2882 -0.8936 -0.3443
vn -0.0606 -0.9447 0.3224
vn 0.1722 -0.5101 0.8427
vn 0.8473 -0.5224 0.0962
vn 0.5772 -0.4909 0.6526
vn 0.7692 0.1843 0.6118
vn 0.1141 0.1641 0.9798
s 1
f 1//1 2//2 3//3
f 5//4 4//5 6//6
f 1//1 3//3 7//7
f 4//5 10//8 9//9
f 9//9 10//8 13//10
f 7//7 3//3 11//11
f 12//12 13//10 14//13
f 15//14 16//15 3//3
f 3//3 16//15 11//11
f 5//4 8//16 17//17
f 5//4 18//18 4//5
f 19//19 4//5 18//18
f 21//20 7//7 22//21
f 20//22 23//23 24//24
f 23//23 25//25 24//24
f 17//17 8//16 20//22
f 11//11 26//26 7//7
f 22//21 7//7 26//26
f 26//26 28//27 22//21
f 27//28 12//12 23//23
f 12//12 14//13 29//29
f 25//25 23//23 12//12
f 13//10 30//30 14//13
f 30//30 29//29 14//13
f 10//8 4//5 19//19
f 18//18 31//31 19//19
f 18//18 5//4 17//17
f 17//17 20//22 24//24
f 19//19 31//31 10//8
f 32//32 17//17 24//24
f 25//25 32//32 24//24
f 13//10 10//8 33//33
f 30//30 13//10 33//33
f 12//12 29//29 25//25
f 10//8 31//31 34//34
f 34//34 33//33 10//8
f 32//32 25//25 35//35
f 25//25 29//29 35//35
f 29//29 30//30 36//36
f 18//18 37//37 31//31
f 30//30 33//33 36//36
f 34//34 36//36 33//33
f 34//34 31//31 38//38
f 39//39 18//18 17//17
f 39//39 17//17 32//32
f 39//39 32//32 40//40
f 29//29 49//41 35//35
f 36//36 34//34 41//42
f 41//42 29//29 36//36
f 29//29 41//42 49//41
f 37//37 18//18 42//43
f 18//18 39//39 42//43
f 37//37 43//44 31//31
f 31//31 43//44 38//38
f 44//45 38//38 43//44
f 42//43 43//44 37//37
f 42//43 45//46 43//44
f 43//44 45//46 44//45
f 45//46 42//43 39//39
f 46//47 44//45 45//46
f 44//45 34//34 38//38
f 46//47 48//48 44//45
f 32//32 35//35 40//40
f 49//41 41//42 48//48
f 44//45 47//49 34//34
f 41//42 34//34 47//49
f 48//48 47//49 44//45
f 48//48 41//42 47//49
f 48//48 46//47 45//46
f 45//46 39//39 40//40
f 35//35 49//41 40//40
f 40//40 48//48 45//46
f 49//41 48//48 40//40
