# Blender v2.78 (sub 0) OBJ File: 'exporter.blend'
# www.blender.org
o FJ3468.obj_grp1.2088
v 0.113443 -0.442626 4.189235
v 0.121673 -0.428894 4.158579
v 0.127953 -0.448192 4.188657
v 0.129918 -0.456644 4.204286
v 0.137935 -0.472280 4.268797
v 0.111709 -0.425821 4.183269
v 0.103413 -0.399161 4.141768
v 0.111509 -0.418821 4.148244
v 0.105917 -0.380654 4.141584
v 0.109386 -0.433681 4.177986
v 0.112456 -0.427813 4.180223
v 0.115469 -0.414389 4.180019
v 0.113743 -0.397019 4.162264
v 0.128582 -0.416676 4.172804
v 0.117099 -0.426058 4.195898
v 0.152115 -0.453226 4.265580
v 0.142913 -0.459124 4.271621
v 0.126559 -0.318841 4.088898
v 0.128997 -0.332769 4.114786
v 0.127967 -0.351559 4.123451
v 0.116805 -0.305839 4.096002
v 0.128190 -0.348635 4.121824
v 0.136183 -0.177166 4.049405
v 0.140837 -0.203212 4.068569
v 0.156711 -0.470195 4.261502
v 0.149257 -0.475952 4.265265
v 0.140201 -0.467059 4.269088
v 0.151947 -0.469090 4.269027
v 0.156349 -0.469969 4.261749
v 0.139151 -0.468625 4.271439
v 0.145486 -0.235797 4.069291
v 0.144359 -0.187174 4.049222
v 0.133110 -0.211463 4.069437
v 0.147178 -0.196455 4.062476
v 0.140805 -0.156421 4.036870
v 0.144369 -0.186001 4.049119
v 0.148098 -0.151060 4.051930
v 0.133110 -0.211463 4.069437
v 0.134302 -0.139122 4.033813
v 0.135147 -0.160109 4.050043
v 0.144074 -0.159362 4.038776
v 0.146229 -0.133762 4.042340
v 0.147729 -0.149624 4.038171
v 0.147729 -0.149624 4.038171
v 0.141434 -0.090492 4.004543
v 0.135844 -0.159363 4.048954
v 0.134891 -0.138113 4.033819
v 0.132147 -0.092739 4.008723
v 0.133428 -0.091799 4.008379
v 0.144601 -0.124982 4.033335
v 0.145408 -0.150889 4.048442
v 0.129673 -0.071432 3.986876
v 0.133332 -0.093456 4.003074
v 0.143875 -0.089898 3.997246
v 0.143726 -0.103625 4.009661
v 0.146364 -0.098849 4.012514
v 0.142706 -0.105047 4.014123
v 0.134806 -0.061180 3.975976
v 0.138744 -0.058152 3.969617
v 0.139217 -0.061006 3.974929
v 0.139286 -0.057699 3.974976
v 0.134696 -0.058085 3.971515
v 0.143420 -0.060880 3.974704
v 0.138291 -0.061328 3.969030
v 0.135954 -0.096793 4.001149
v 0.136632 -0.057093 3.969340
v 0.141097 -0.054961 3.973767
v 0.142870 -0.089220 3.997863
v 0.143420 -0.060880 3.974704
v 0.142935 -0.095255 4.009928
v 0.140325 -0.055021 3.971357
v 0.139011 -0.056919 3.969169
vn -0.3917 -0.6432 -0.6579
vn 0.4167 -0.6680 -0.6165
vn -0.2671 -0.8348 -0.4814
vn -0.8305 -0.5492 -0.0926
vn 0.1660 -0.8726 -0.4593
vn -0.1565 -0.8250 0.5430
vn -0.9446 0.1146 0.3075
vn -0.9111 -0.2019 -0.3592
vn -0.8463 0.3405 0.4096
vn -0.9511 0.0195 0.3083
vn -0.9376 0.1379 0.3193
vn -0.8889 0.2558 0.3800
vn -0.1427 0.6631 0.7348
vn -0.6737 0.5601 0.4822
vn 0.5505 0.6512 0.5223
vn 0.9112 0.3952 0.1163
vn -0.2173 0.4427 0.8700
vn -0.8812 0.2851 0.3771
vn 0.0854 -0.3920 -0.9160
vn 0.2882 0.3565 0.8887
vn 0.9850 -0.1281 -0.1157
vn -0.9671 0.0163 -0.2537
vn 0.1272 0.3964 0.9092
vn -0.8136 -0.2246 -0.5362
vn -0.4361 0.3733 0.8188
vn 0.1355 -0.2703 0.9532
vn 0.1871 -0.9478 0.2581
vn 0.5002 -0.2166 0.8384
vn 0.7044 -0.1143 0.7006
vn 0.8864 -0.4005 -0.2322
vn 0.1899 -0.0844 0.9782
vn 0.9513 -0.2006 -0.2341
vn 0.4949 -0.2630 -0.8282
vn -0.3596 0.3011 0.8832
vn 0.9567 0.1363 0.2572
vn -0.0208 -0.3885 -0.9212
vn 0.6856 -0.2584 -0.6806
vn 0.5632 0.3596 0.7440
vn -0.9493 0.2099 0.2340
vn -0.4610 -0.3935 -0.7954
vn -0.2560 0.3535 0.8997
vn 0.3960 -0.2899 -0.8713
vn -0.4629 0.5244 0.7147
vn 0.5865 -0.3770 -0.7169
vn 0.9913 0.0827 0.1024
vn 0.8136 -0.3543 -0.4610
vn -0.9996 0.0116 0.0255
vn -0.9899 -0.1082 -0.0919
vn -0.9857 0.0549 0.1595
vn 0.3484 0.5444 0.7631
vn 0.9278 0.1815 0.3259
vn 0.9622 0.1383 0.2344
vn -0.9974 0.0245 0.0675
vn -0.8361 -0.3053 -0.4558
vn -0.4186 -0.6173 -0.6661
vn 0.5499 -0.6161 -0.5640
vn 0.8909 -0.1951 -0.4102
vn 0.9286 -0.2487 -0.2756
vn -0.6477 -0.4204 -0.6354
vn -0.6749 0.5864 0.4479
vn -0.6411 0.6582 0.3946
vn 0.0796 -0.6317 -0.7711
vn 0.3451 0.8579 -0.3807
vn 0.2939 0.7016 -0.6492
vn 0.6143 0.5553 0.5606
vn 0.8922 -0.2820 -0.3527
vn -0.0263 0.7156 0.6981
s 1
f 8//1 2//2 3//3
f 1//4 8//1 3//3
f 3//3 4//5 1//4
f 1//4 5//6 6//7
f 4//5 5//6 1//4
f 7//8 6//7 9//9
f 6//7 7//8 10//10
f 11//11 12//12 9//9
f 13//13 9//9 12//12
f 1//4 7//8 8//1
f 1//4 6//7 10//10
f 12//12 11//11 15//14
f 16//15 14//16 15//14
f 15//14 11//11 17//17
f 5//18 17//17 11//11
f 15//14 17//17 16//15
f 2//2 8//1 18//19
f 9//9 13//13 19//20
f 2//2 20//21 14//16
f 13//13 14//16 19//20
f 19//20 14//16 20//21
f 14//16 13//13 15//14
f 7//8 9//9 21//22
f 18//19 8//1 7//8
f 18//19 7//8 21//22
f 22//23 20//21 2//2
f 23//24 18//19 21//22
f 19//20 24//25 9//9
f 27//26 5//6 26//27
f 4//5 26//27 5//6
f 26//27 28//28 27//26
f 26//27 4//5 2//2
f 28//28 26//27 29//29
f 26//27 2//2 25//30
f 2//2 14//16 25//30
f 14//16 16//15 25//30
f 28//28 17//17 30//31
f 16//15 17//17 28//28
f 16//15 28//28 29//29
f 25//30 16//15 29//29
f 18//19 31//32 2//2
f 2//2 31//32 22//23
f 18//19 23//24 32//33
f 32//33 31//32 18//19
f 21//22 9//9 24//25
f 31//32 19//20 22//23
f 24//25 33//34 21//22
f 31//32 34//35 19//20
f 32//33 23//24 35//36
f 32//33 36//37 31//32
f 24//25 19//20 37//38
f 21//22 38//39 23//24
f 34//35 37//38 19//20
f 35//36 23//24 39//40
f 24//25 40//41 33//34
f 35//36 41//42 32//33
f 42//43 40//41 24//25
f 36//37 43//44 31//32
f 41//42 43//44 36//37
f 31//32 44//45 34//35
f 39//40 45//46 35//36
f 46//47 47//48 23//24
f 47//48 46//47 48//49
f 42//43 49//50 40//41
f 35//36 43//44 41//42
f 44//45 50//51 51//52
f 44//45 51//52 34//35
f 23//24 38//39 46//47
f 52//53 47//48 48//49
f 53//54 59//55 39//40
f 39//40 59//55 45//46
f 35//36 54//56 43//44
f 44//45 55//57 56//58
f 44//45 56//58 50//51
f 59//55 53//54 58//59
f 66//60 49//50 67//61
f 68//62 62//63 63//64
f 42//43 57//65 49//50
f 49//50 57//65 67//61
f 55//57 69//66 56//58
f 70//67 63//64 62//63
l 60 61
l 71 72
l 64 65
