# Blender v2.78 (sub 0) OBJ File: 'exporter.blend'
# www.blender.org
o FJ3401.obj_grp1.2040
v -0.171694 -0.645965 4.735221
v -0.188704 -0.644077 4.748883
v -0.174906 -0.651587 4.747856
v -0.196167 -0.626246 4.771198
v -0.175670 -0.639585 4.750644
v -0.202851 -0.634617 4.775800
v -0.191354 -0.636586 4.772634
v -0.213826 -0.619963 4.801554
v -0.198057 -0.624214 4.775747
v -0.203960 -0.621874 4.786814
v -0.207519 -0.621428 4.807750
v -0.203137 -0.633941 4.785821
v -0.217060 -0.623779 4.802063
v -0.215702 -0.628697 4.802691
v -0.208445 -0.629780 4.806075
v -0.208519 -0.629664 4.806043
v -0.214752 -0.621377 4.803869
v -0.216784 -0.624536 4.802085
v -0.214281 -0.629747 4.805183
v -0.215668 -0.628639 4.802695
v -0.209872 -0.619277 4.806716
v -0.209856 -0.619287 4.806685
v -0.209856 -0.619287 4.806685
v -0.207336 -0.625930 4.809596
v -0.214281 -0.629747 4.805183
v -0.214281 -0.629747 4.805183
v -0.207336 -0.625930 4.809596
v -0.214281 -0.629747 4.805183
v -0.208445 -0.629780 4.806075
v -0.206490 -0.625935 4.808423
v -0.207336 -0.625930 4.809596
v -0.148848 -0.658096 4.727717
v -0.151645 -0.663333 4.730785
v -0.158669 -0.647180 4.735442
v -0.173525 -0.641451 4.748519
v -0.159182 -0.650842 4.741752
v -0.207240 -0.621564 4.807953
v -0.207336 -0.625930 4.809596
v -0.125693 -0.662651 4.734118
v -0.146021 -0.658867 4.739198
v -0.129924 -0.672781 4.740136
v -0.129821 -0.668316 4.730686
v -0.129393 -0.674040 4.740566
v -0.112353 -0.672511 4.739116
v -0.116360 -0.678863 4.748088
v -0.121814 -0.672911 4.734769
v -0.121933 -0.672712 4.734764
v -0.110081 -0.680477 4.750256
v -0.119320 -0.666811 4.744557
v -0.113553 -0.675946 4.754472
v -0.104641 -0.675783 4.747481
v -0.103439 -0.681763 4.758435
v -0.104954 -0.669975 4.759924
v -0.106691 -0.678416 4.765794
v -0.102276 -0.669912 4.759337
v -0.106328 -0.678351 4.765607
v -0.089505 -0.668379 4.780815
v -0.103727 -0.680833 4.758381
v -0.091694 -0.674343 4.787192
v -0.094167 -0.664079 4.782773
v -0.091295 -0.662403 4.784480
v -0.092417 -0.673801 4.786311
v -0.091295 -0.662403 4.784480
v -0.094575 -0.663666 4.782743
v -0.083870 -0.661372 4.794477
v -0.082584 -0.660305 4.801344
v -0.068632 -0.661974 4.811830
v -0.078772 -0.659647 4.801193
v -0.073747 -0.665156 4.815162
v -0.070690 -0.665613 4.814714
v -0.069644 -0.654354 4.815372
v -0.073847 -0.654821 4.814056
v -0.070430 -0.653607 4.812171
v -0.070579 -0.663480 4.817680
v -0.070797 -0.663361 4.817483
v -0.072845 -0.661504 4.819153
v -0.072756 -0.654999 4.816403
v -0.072756 -0.654999 4.816403
v -0.073503 -0.660105 4.818182
v -0.073152 -0.662056 4.819314
v -0.073152 -0.662056 4.819314
v -0.073573 -0.659278 4.819464
vn -0.3742 -0.8505 -0.3698
vn -0.0062 -0.7999 0.6000
vn -0.8155 -0.2631 -0.5156
vn -0.3439 0.3932 -0.8527
vn -0.2421 0.8097 -0.5345
vn 0.7246 0.6092 0.3223
vn -0.6277 -0.7647 -0.1460
vn 0.3805 -0.7886 0.4830
vn -0.5130 0.8487 -0.1286
vn -0.2160 0.9319 -0.2914
vn 0.6420 0.7560 0.1273
vn 0.9196 0.3583 0.1613
vn -0.1302 -0.9846 0.1170
vn -0.8933 0.2991 -0.3356
vn -0.6992 -0.6748 -0.2362
vn 0.9153 -0.2778 0.2917
vn -0.5978 0.1215 0.7924
vn -0.8213 -0.0571 0.5676
vn -0.7040 0.0316 0.7095
vn -0.8911 -0.1806 0.4163
vn -0.4784 0.1614 0.8632
vn 0.3966 0.9180 0.0025
vn -0.6597 0.6179 0.4278
vn -0.4337 0.2288 0.8715
vn -0.4845 -0.8701 -0.0905
vn -0.0474 -0.9771 0.2076
vn -0.0350 -0.9806 0.1931
vn -0.0422 -0.9772 0.2083
vn -0.1184 -0.6514 0.7494
vn 0.9835 -0.1806 -0.0082
vn 0.6274 -0.6319 0.4551
vn 0.0258 0.1720 -0.9848
vn 0.4281 0.8877 -0.1692
vn 0.6276 0.6493 0.4296
vn 0.5010 0.4425 0.7438
vn -0.1335 0.3190 0.9383
vn 0.7831 0.2630 0.5636
vn 0.5039 0.7516 -0.4257
vn -0.4013 0.0096 0.9159
vn 0.0315 -0.0717 0.9969
vn 0.1576 -0.3938 -0.9056
vn -0.2946 -0.9059 -0.3044
vn 0.6850 -0.0504 -0.7268
vn 0.1045 -0.5712 -0.8141
vn 0.4061 -0.0607 -0.9118
vn 0.0681 -0.9456 -0.3181
vn -0.0730 -0.9269 -0.3682
vn -0.3849 0.6430 0.6621
vn -0.8347 0.0554 0.5479
vn -0.6504 -0.4985 0.5731
vn 0.7704 -0.1060 -0.6287
vn -0.3821 0.9207 0.0801
vn -0.3577 -0.8984 0.2547
vn -0.7509 -0.3519 0.5588
vn 0.4394 0.8446 -0.3059
vn -0.2064 -0.9566 0.2055
vn 0.8943 -0.0826 -0.4398
vn 0.7479 -0.5650 -0.3484
vn -0.5905 0.7925 0.1524
vn 0.4364 0.7862 -0.4376
vn -0.5077 -0.6838 0.5241
vn 0.7024 -0.6153 -0.3579
vn -0.5405 0.8017 0.2551
vn -0.8284 0.1385 0.5428
vn 0.2721 0.8950 -0.3533
vn -0.7257 0.6429 0.2450
vn 0.9872 -0.0863 -0.1340
vn 0.6905 0.4399 -0.5743
vn -0.7197 -0.4081 0.5616
vn 0.5133 -0.8242 0.2393
vn 0.0167 -0.8741 0.4855
vn 0.1755 0.9309 0.3202
vn -0.5489 0.8291 0.1065
vn 0.9766 0.1781 -0.1206
vn 0.0001 -0.7901 0.6130
vn -0.8270 0.0560 0.5594
vn -0.0065 0.7366 0.6763
vn -0.8448 0.2388 0.4788
vn 0.0181 -0.8013 0.5980
vn 0.5621 0.0089 0.8270
vn 0.8818 0.0807 0.4647
vn 0.7242 0.2136 0.6557
vn 0.3315 0.2393 0.9126
s 1
f 33//1 3//2 2//3
f 1//4 2//3 4//5
f 5//6 1//4 4//5
f 2//3 3//2 6//7
f 7//8 6//7 3//2
f 8//9 10//10 4//5
f 4//5 9//11 5//6
f 5//6 9//11 11//12
f 7//8 12//13 6//7
f 13//14 2//3 6//7
f 8//9 4//5 13//14
f 13//14 4//5 2//3
f 6//7 14//15 13//14
f 6//7 12//13 14//15
f 7//8 16//16 12//13
f 11//12 16//16 7//8
f 17//17 18//18 19//19
f 20//20 19//19 18//18
f 17//17 19//19 21//21
f 8//9 22//22 10//10
f 13//14 23//23 8//9
f 9//11 10//10 22//22
f 22//22 11//12 9//11
f 21//21 19//19 24//24
f 12//13 25//25 14//15
f 15//26 26//27 12//28
f 27//29 28//29 29//29
f 30//30 16//16 11//12
f 16//16 30//30 31//31
f 1//4 32//32 33//1
f 34//33 1//4 5//6
f 35//34 36//35 34//33
f 1//4 33//1 2//3
f 36//35 5//6 3//2
f 5//6 7//8 3//2
f 5//6 11//12 7//8
f 37//36 21//21 24//24
f 11//12 38//37 30//30
f 34//33 39//38 32//32
f 1//4 34//33 32//32
f 41//39 40//40 33//1
f 40//40 36//35 3//2
f 33//1 40//40 3//2
f 42//41 33//1 32//32
f 39//38 42//41 32//32
f 33//1 42//41 43//42
f 34//33 36//35 40//40
f 34//33 40//40 39//38
f 33//1 43//42 41//39
f 39//38 44//43 42//41
f 46//44 43//42 42//41
f 42//41 44//43 47//45
f 43//42 46//44 48//46
f 43//42 48//46 45//47
f 49//48 39//38 40//40
f 49//48 40//40 41//39
f 49//48 41//39 50//49
f 41//39 45//50 50//49
f 47//45 44//43 46//44
f 48//46 46//44 51//51
f 44//43 51//51 46//44
f 49//48 50//49 53//52
f 48//46 52//53 45//47
f 39//38 51//51 44//43
f 50//49 45//50 54//54
f 49//48 55//55 39//38
f 53//52 55//55 49//48
f 51//51 39//38 55//55
f 52//53 56//56 45//47
f 55//55 57//57 51//51
f 58//58 48//46 51//51
f 51//51 57//57 58//58
f 60//59 53//52 50//49
f 61//60 55//55 53//52
f 56//56 52//53 62//61
f 59//62 58//58 57//57
f 63//63 53//52 60//59
f 50//49 54//54 64//64
f 61//60 65//65 55//55
f 55//55 65//65 57//57
f 62//61 54//54 56//56
f 66//66 64//64 54//54
f 65//65 63//63 60//59
f 65//65 67//67 57//57
f 57//57 67//67 59//62
f 68//68 67//67 65//65
f 69//69 54//54 62//61
f 67//67 70//70 59//62
f 69//71 59//62 70//70
f 60//59 66//66 65//65
f 68//68 65//65 71//72
f 71//72 65//65 72//73
f 68//68 73//74 67//67
f 70//70 75//75 69//71
f 66//66 54//54 76//76
f 72//73 65//65 66//66
f 72//73 77//77 71//72
f 72//73 66//66 78//78
f 78//78 66//66 76//76
f 76//76 54//54 69//69
f 75//75 81//79 69//71
f 80//80 74//81 82//82
f 67//67 73//74 74//81
f 70//70 67//67 74//81
f 77//77 79//83 71//72
f 73//74 82//82 74//81
