# Blender v2.78 (sub 0) OBJ File: 'exporter.blend'
# www.blender.org
o FJ3460.obj_grp1.2080
v 0.285941 -0.406330 4.735110
v 0.289436 -0.408546 4.752738
v 0.292021 -0.407768 4.752651
v 0.287941 -0.406505 4.751585
v 0.283734 -0.404380 4.735860
v 0.286735 -0.402811 4.734274
v 0.288163 -0.404293 4.735037
v 0.287949 -0.406507 4.751895
v 0.285178 -0.402150 4.735774
v 0.288520 -0.403813 4.747791
v 0.289316 -0.408298 4.759246
v 0.288795 -0.404477 4.752087
v 0.289046 -0.405528 4.763456
v 0.290864 -0.405466 4.743777
v 0.292211 -0.404806 4.755231
v 0.290864 -0.405466 4.743777
v 0.292094 -0.408481 4.760725
v 0.289303 -0.408285 4.758988
v 0.289304 -0.406553 4.766862
v 0.290727 -0.403002 4.778612
v 0.292257 -0.405524 4.751528
v 0.290368 -0.404126 4.763422
v 0.291536 -0.406494 4.774005
v 0.293843 -0.406549 4.772978
v 0.291369 -0.403616 4.784383
v 0.292094 -0.408481 4.760725
v 0.294773 -0.404777 4.782404
v 0.292948 -0.403853 4.767347
v 0.292646 -0.404167 4.765279
v 0.290507 -0.403461 4.770349
v 0.290507 -0.403461 4.770349
v 0.294708 -0.402013 4.790295
v 0.290727 -0.403002 4.778612
v 0.295534 -0.401999 4.783215
v 0.293189 -0.398988 4.787966
v 0.292371 -0.403129 4.790646
v 0.290325 -0.401595 4.789805
v 0.291524 -0.399338 4.790234
v 0.284588 -0.385951 4.941709
v 0.286253 -0.385902 4.943114
v 0.285188 -0.385396 4.941829
v 0.292641 -0.383491 4.937180
v 0.284627 -0.384680 4.942879
v 0.290286 -0.382949 4.946679
v 0.290286 -0.382949 4.946679
v 0.286704 -0.382047 4.944008
v 0.291239 -0.381968 4.937438
v 0.285005 -0.384478 4.940670
v 0.285658 -0.384193 4.940980
v 0.285382 -0.383082 4.941393
v 0.285251 -0.382480 4.940764
v 0.288950 -0.380076 4.944097
v 0.294604 -0.379403 4.937001
v 0.288349 -0.381294 4.941092
v 0.295602 -0.383547 4.939497
v 0.291150 -0.383666 4.942548
v 0.290930 -0.381240 4.942125
v 0.288349 -0.381294 4.941092
v 0.295887 -0.376181 4.947900
v 0.290874 -0.381280 4.941840
v 0.288349 -0.381294 4.941092
v 0.295367 -0.374306 4.951166
v 0.295887 -0.376181 4.947900
v 0.290871 -0.381314 4.941609
v 0.291150 -0.383666 4.942548
v 0.297560 -0.379405 4.939027
v 0.291150 -0.383666 4.942548
v 0.290904 -0.381302 4.941882
v 0.294567 -0.380779 4.935835
v 0.310600 -0.376002 4.930778
v 0.296586 -0.382278 4.935694
v 0.290871 -0.381314 4.941609
v 0.297560 -0.379405 4.939027
v 0.288349 -0.381294 4.941092
v 0.295565 -0.379023 4.938211
v 0.295602 -0.383547 4.939497
v 0.291050 -0.383638 4.942431
v 0.292673 -0.377323 4.949261
v 0.292673 -0.377323 4.949261
v 0.299095 -0.377791 4.950697
v 0.295153 -0.376363 4.953157
v 0.291150 -0.383666 4.942548
v 0.290930 -0.381240 4.942125
v 0.295887 -0.376181 4.947900
v 0.295153 -0.376363 4.953157
v 0.303528 -0.376947 4.931111
v 0.304287 -0.374802 4.934961
v 0.305203 -0.378305 4.934802
v 0.305203 -0.378305 4.934802
v 0.295361 -0.374231 4.951186
v 0.299935 -0.369124 4.953580
v 0.311055 -0.368955 4.926015
v 0.295153 -0.376363 4.953157
v 0.298735 -0.376929 4.950529
v 0.297889 -0.376438 4.950602
v 0.303467 -0.367707 4.956585
v 0.298529 -0.368158 4.956866
v 0.304536 -0.374777 4.934708
v 0.298529 -0.368158 4.956866
v 0.315928 -0.365131 4.925095
v 0.301174 -0.368936 4.958793
v 0.300162 -0.367267 4.959052
v 0.322578 -0.363218 4.916571
v 0.311939 -0.371144 4.930436
v 0.305485 -0.378408 4.935030
v 0.311839 -0.371178 4.930379
v 0.299881 -0.369490 4.953580
v 0.304178 -0.353311 4.958967
v 0.298735 -0.376929 4.950529
v 0.302690 -0.361827 4.956190
v 0.304536 -0.374777 4.934708
v 0.311939 -0.371144 4.930436
v 0.305050 -0.355729 4.962535
v 0.303467 -0.367707 4.956585
v 0.299031 -0.376506 4.950622
v 0.306428 -0.357290 4.960419
v 0.302564 -0.354590 4.960469
v 0.316496 -0.366095 4.919943
v 0.303467 -0.367707 4.956585
v 0.306355 -0.354992 4.958509
v 0.308165 -0.354815 4.961188
v 0.316160 -0.368521 4.926539
v 0.312041 -0.371109 4.930954
v 0.317476 -0.365246 4.924614
v 0.304430 -0.356049 4.957571
v 0.304280 -0.353292 4.959026
v 0.321307 -0.358080 4.913692
v 0.305725 -0.352686 4.958913
v 0.306893 -0.350417 4.964107
v 0.322371 -0.362645 4.914381
v 0.324865 -0.357179 4.914078
v 0.305493 -0.351237 4.960443
v 0.322371 -0.362645 4.914381
v 0.325856 -0.359238 4.907887
v 0.327359 -0.356006 4.909395
v 0.308224 -0.354821 4.961186
v 0.310140 -0.353742 4.962721
v 0.309665 -0.352137 4.965397
v 0.310440 -0.351071 4.961693
v 0.309647 -0.351988 4.965011
v 0.308428 -0.351721 4.965242
v 0.309337 -0.349667 4.963660
v 0.327966 -0.360128 4.908740
v 0.329305 -0.358737 4.911266
v 0.325314 -0.359366 4.914913
v 0.327763 -0.358059 4.907775
v 0.327965 -0.360089 4.908747
v 0.329462 -0.358598 4.909351
vn -0.3021 -0.9533 0.0045
vn -0.1455 -0.7771 -0.6124
vn 0.7268 -0.6749 -0.1272
vn -0.8653 -0.4825 0.1358
vn -0.9437 -0.0557 -0.3260
vn 0.1549 0.5656 -0.8100
vn 0.7931 -0.0459 -0.6074
vn -0.3872 0.8994 -0.2031
vn -0.8988 0.4034 0.1717
vn -0.3160 0.9277 0.1987
vn -0.8504 -0.5187 0.0886
vn -0.9969 0.0275 0.0732
vn -0.8751 0.4749 0.0934
vn 0.7371 0.6625 -0.1334
vn 0.6230 0.7766 -0.0936
vn 0.0193 -0.9971 0.0738
vn -0.1195 -0.9896 0.0806
vn -0.8812 -0.4441 0.1620
vn -0.9927 0.0907 0.0795
vn 0.6674 -0.6935 -0.2715
vn 0.9451 0.2690 -0.1855
vn -0.3275 0.9444 -0.0301
vn -0.6808 0.7295 0.0660
vn -0.8988 -0.4162 0.1379
vn -0.2702 -0.9347 0.2309
vn 0.1393 -0.9722 0.1885
vn 0.9406 -0.3391 0.0183
vn 0.8973 -0.4373 -0.0597
vn 0.5834 0.7854 -0.2070
vn 0.1677 0.9793 -0.1131
vn -0.6035 0.7898 -0.1095
vn 0.8012 -0.1451 0.5805
vn -0.3939 0.7026 0.5926
vn 0.2555 0.9668 0.0006
vn -0.8430 0.5370 -0.0310
vn 0.9357 0.3515 -0.0309
vn -0.7596 0.6495 -0.0348
vn -0.1379 -0.6516 0.7459
vn -0.9331 -0.0819 0.3502
vn -0.9003 -0.3725 -0.2250
vn -0.5942 0.2778 -0.7548
vn -0.0050 -0.6540 -0.7565
vn -0.1428 -0.8945 0.4236
vn -0.9183 -0.0335 0.3944
vn -0.5032 -0.3354 0.7965
vn -0.6888 0.4644 0.5567
vn -0.8694 -0.0786 -0.4878
vn -0.5325 0.1771 -0.8277
vn -0.4275 -0.3442 -0.8360
vn -0.5375 0.5161 -0.6669
vn -0.8185 0.5688 -0.0811
vn -0.5860 0.8087 -0.0507
vn -0.5372 0.7884 -0.2999
vn -0.3120 0.9197 -0.2384
vn 0.3157 -0.9483 -0.0333
vn 0.4229 -0.8355 0.3509
vn 0.2921 0.5800 -0.7605
vn -0.4646 0.7513 -0.4688
vn -0.2611 0.8008 -0.5390
vn 0.2348 0.3844 0.8928
vn -0.3338 -0.2378 -0.9122
vn 0.3720 -0.9281 -0.0140
vn -0.1915 -0.4396 -0.8775
vn -0.0837 0.8925 0.4433
vn -0.0992 0.8231 0.5592
vn -0.0695 0.8707 0.4869
vn -0.2218 0.9102 0.3496
vn -0.7505 0.5933 0.2910
vn -0.7760 0.5522 0.3049
vn 0.2499 -0.8069 0.5352
vn 0.2780 -0.8665 0.4146
vn -0.6165 -0.2713 0.7391
vn 0.0049 -0.7620 -0.6476
vn -0.3549 -0.4326 -0.8288
vn 0.7344 0.0193 -0.6785
vn 0.7746 -0.0399 -0.6312
vn 0.7230 0.0730 -0.6869
vn -0.8507 0.3439 0.3976
vn -0.3472 0.8681 0.3547
vn 0.5753 -0.7417 0.3449
vn 0.4600 0.0375 0.8871
vn 0.4776 -0.0712 0.8757
vn 0.5133 -0.2317 0.8263
vn -0.8756 0.3717 0.3086
vn -0.4284 0.5681 -0.7026
vn -0.7157 0.5833 -0.3840
vn 0.0031 -0.6018 0.7987
vn 0.6922 0.1290 -0.7101
vn -0.8750 0.1518 0.4598
vn 0.4520 0.1090 0.8853
vn -0.7435 0.4951 -0.4495
vn 0.2245 -0.6041 0.7647
vn 0.4831 -0.8012 0.3532
vn 0.7636 -0.5126 0.3926
vn -0.5057 -0.1639 0.8470
vn 0.4578 0.1100 0.8822
vn 0.6937 0.1793 -0.6975
vn -0.3708 0.5188 -0.7703
vn -0.1264 0.3780 -0.9171
vn 0.2208 0.2774 -0.9350
vn 0.6528 -0.7561 0.0462
vn 0.1756 0.5815 0.7943
vn 0.1813 0.5783 0.7954
vn -0.1415 0.8066 0.5739
vn 0.5790 -0.5265 0.6225
vn -0.1925 -0.3065 0.9322
vn -0.9036 0.3702 0.2157
vn -0.2504 -0.7886 -0.5615
vn 0.8278 -0.1048 -0.5512
vn 0.6397 -0.0345 -0.7679
vn 0.7155 -0.4791 -0.5084
vn 0.8752 -0.1312 -0.4656
vn 0.7739 -0.1552 -0.6140
vn 0.3767 0.5455 0.7487
vn 0.2854 0.2731 -0.9187
vn -0.0892 0.4256 -0.9005
vn -0.7037 0.6711 -0.2333
vn 0.7547 -0.5665 0.3309
vn 0.7932 -0.4597 0.3993
vn 0.0920 0.4989 -0.8618
vn 0.3712 -0.5584 0.7419
vn -0.5161 0.6347 0.5751
vn 0.2897 -0.9108 -0.2942
vn 0.1702 0.8254 0.5382
vn 0.4736 0.3177 0.8214
vn 0.6608 0.1953 0.7247
vn -0.3902 0.8618 -0.3242
vn 0.1346 -0.9171 -0.3752
vn -0.3920 -0.1836 -0.9015
vn 0.1789 0.9422 -0.2834
vn 0.6637 -0.3520 -0.6600
vn 0.8310 -0.5556 0.0281
vn 0.8011 0.4184 -0.4281
vn 0.8843 0.2831 0.3714
vn -0.1852 -0.9192 0.3475
vn 0.4082 0.8894 0.2057
vn 0.4635 -0.7566 -0.4613
vn 0.9318 -0.0203 0.3625
vn 0.6118 0.3529 0.7079
vn 0.2718 0.2571 -0.9274
vn 0.4325 -0.0920 -0.8969
vn 0.9583 0.0164 -0.2852
s 1
f 2//1 1//2 3//3
f 2//1 4//4 5//5
f 5//5 6//6 1//2
f 7//7 1//2 6//6
f 2//1 5//5 1//2
f 6//6 5//5 9//8
f 8//9 9//8 5//5
f 8//9 10//10 9//8
f 3//3 1//2 7//7
f 2//1 11//11 4//4
f 8//9 13//12 12//13
f 14//14 6//6 15//15
f 12//13 10//10 8//9
f 14//14 7//7 6//6
f 6//6 9//8 10//10
f 10//10 15//15 6//6
f 2//1 3//3 17//16
f 2//1 17//16 18//17
f 19//18 20//19 13//12
f 16//20 21//21 3//3
f 11//11 19//18 4//4
f 3//3 7//7 16//20
f 15//15 21//21 14//14
f 8//9 19//18 13//12
f 22//22 10//10 13//23
f 11//11 25//24 19//18
f 17//16 23//25 18//17
f 17//16 24//26 23//25
f 27//27 26//28 3//3
f 21//21 28//29 3//3
f 25//24 20//19 19//18
f 15//15 28//29 21//21
f 22//22 29//30 15//15
f 13//23 31//31 22//22
f 15//15 10//10 22//22
f 32//32 23//25 24//26
f 23//25 25//24 11//11
f 38//33 35//34 33//35
f 25//24 38//33 20//19
f 27//27 3//3 34//36
f 3//3 28//29 34//36
f 28//29 29//30 22//22
f 13//23 33//35 35//34
f 13//23 35//34 31//31
f 30//37 35//34 22//22
f 23//25 32//32 36//38
f 23//25 36//38 25//24
f 25//24 36//38 37//39
f 37//39 36//38 38//33
f 22//22 35//34 28//29
f 25//24 37//39 38//33
f 27//27 34//36 32//32
f 36//38 32//32 38//33
f 35//34 34//36 28//29
f 32//32 34//36 35//34
f 32//32 35//34 38//33
f 39//40 41//41 42//42
f 39//40 40//43 43//44
f 44//45 43//44 40//43
f 43//44 44//45 46//46
f 39//40 43//44 49//47
f 47//48 48//49 50//50
f 48//49 42//42 41//41
f 46//46 51//51 43//44
f 42//42 48//49 47//48
f 49//47 43//44 51//51
f 51//51 46//46 52//52
f 47//48 50//50 53//53
f 53//53 51//51 54//54
f 51//51 52//52 54//54
f 55//55 39//40 42//42
f 40//43 39//40 55//55
f 55//55 56//56 40//43
f 57//57 58//57 59//57
f 62//58 63//59 54//54
f 64//60 65//60 66//60
f 42//42 47//48 69//61
f 55//55 42//42 70//62
f 69//61 71//63 42//42
f 72//64 73//65 74//66
f 75//67 53//53 54//54
f 73//65 75//67 74//66
f 62//58 54//54 52//52
f 78//68 52//52 46//46
f 62//58 52//52 79//69
f 80//70 45//71 56//56
f 56//56 45//71 40//43
f 81//72 46//46 44//45
f 70//73 71//63 86//74
f 71//63 69//61 86//74
f 82//75 83//76 84//77
f 85//78 78//68 46//46
f 86//74 47//48 53//53
f 87//79 75//67 73//65
f 55//55 70//62 88//80
f 89//81 77//82 76//83
f 90//84 78//68 85//78
f 91//85 63//59 62//58
f 92//86 53//53 75//67
f 80//70 93//87 45//71
f 94//88 82//75 84//77
f 90//84 85//78 97//89
f 98//90 77//82 89//81
f 62//58 99//91 91//85
f 92//86 86//74 53//53
f 92//86 75//67 87//79
f 93//87 80//70 101//92
f 101//92 95//93 96//94
f 97//89 85//78 102//95
f 102//95 93//87 101//92
f 104//96 98//90 89//81
f 107//97 94//88 84//77
f 99//91 108//98 91//85
f 109//99 91//85 110//100
f 70//73 86//74 103//101
f 111//102 112//103 100//104
f 87//79 100//104 92//86
f 96//94 116//105 101//92
f 116//105 113//106 101//92
f 99//91 117//107 108//98
f 101//92 113//106 102//95
f 92//86 103//101 86//74
f 118//108 103//101 92//86
f 91//85 108//98 110//100
f 119//109 120//110 121//111
f 120//110 114//112 115//113
f 112//103 124//114 100//104
f 120//110 115//113 125//115
f 117//107 97//89 102//95
f 117//107 102//95 113//106
f 110//100 108//98 126//116
f 118//108 92//86 127//117
f 105//118 103//101 106//119
f 125//115 128//120 120//110
f 113//106 138//121 129//122
f 129//122 117//107 113//106
f 116//105 138//121 113//106
f 130//123 103//101 118//108
f 131//124 100//104 124//114
f 123//125 145//126 131//124
f 128//120 110//100 126//116
f 128//120 126//116 132//127
f 108//98 117//107 132//127
f 117//107 129//122 132//127
f 133//128 118//108 134//129
f 100//104 127//117 92//86
f 100//104 131//124 127//117
f 127//117 134//129 118//108
f 134//129 127//117 135//130
f 136//131 137//132 116//105
f 121//111 120//110 137//132
f 137//132 138//121 116//105
f 120//110 139//133 137//132
f 120//110 128//120 139//133
f 140//134 138//121 137//132
f 129//122 138//121 141//135
f 141//135 142//136 129//122
f 140//134 142//136 141//135
f 132//127 139//133 128//120
f 132//127 129//122 142//136
f 142//136 139//133 132//127
f 134//129 143//137 103//101
f 144//138 103//101 143//137
f 103//101 130//123 134//129
f 122//139 145//126 123//125
f 145//126 106//119 103//101
f 145//126 103//101 144//138
f 146//140 147//141 134//129
f 147//141 143//137 134//129
f 146//140 134//129 135//130
f 131//124 135//130 127//117
f 140//134 137//132 139//133
f 140//134 139//133 142//136
f 144//138 143//137 148//142
f 148//142 147//141 146//140
f 148//142 146//140 135//130
f 135//130 144//138 148//142
f 131//124 145//126 144//138
f 131//124 144//138 135//130
l 60 61
l 67 68
