# Blender v2.78 (sub 0) OBJ File: 'exporter.blend'
# www.blender.org
o FJ3451.obj_grp1.2076
v 0.405147 -0.593850 5.439476
v 0.408144 -0.594059 5.437113
v 0.409064 -0.594029 5.437614
v 0.408120 -0.593981 5.439849
v 0.405657 -0.595420 5.439016
v 0.404069 -0.594520 5.438742
v 0.448658 -0.599417 5.404123
v 0.405151 -0.594055 5.439675
v 0.405856 -0.595195 5.439145
v 0.405194 -0.594291 5.440460
v 0.406729 -0.590899 5.439228
v 0.408429 -0.593009 5.434239
v 0.465157 -0.596478 5.389158
v 0.445360 -0.600773 5.410688
v 0.445858 -0.599596 5.405761
v 0.445989 -0.600331 5.409616
v 0.462678 -0.598131 5.396381
v 0.463578 -0.600997 5.391541
v 0.472779 -0.600441 5.378125
v 0.481142 -0.596908 5.373723
v 0.463578 -0.600997 5.391541
v 0.489419 -0.595540 5.362785
v 0.485424 -0.598096 5.370792
v 0.497746 -0.592778 5.345476
v 0.492839 -0.597117 5.357394
v 0.492705 -0.599714 5.362168
v 0.485424 -0.598096 5.370792
v 0.485424 -0.598096 5.370792
v 0.463578 -0.600997 5.391541
v 0.493576 -0.597450 5.355933
v 0.498945 -0.595279 5.350464
v 0.502153 -0.593041 5.342059
v 0.483435 -0.598542 5.369684
v 0.489713 -0.595586 5.362995
v 0.512926 -0.583481 5.319159
v 0.498945 -0.595279 5.350464
v 0.504496 -0.592088 5.342824
v 0.489581 -0.594320 5.354081
v 0.503322 -0.592467 5.343128
v 0.510434 -0.585589 5.330807
v 0.487106 -0.597471 5.363904
v 0.498303 -0.440321 5.349048
v 0.499634 -0.442046 5.349049
v 0.501461 -0.438607 5.348913
v 0.501515 -0.439515 5.347654
v 0.515875 -0.436500 5.317848
v 0.498153 -0.439073 5.347451
v 0.498391 -0.439844 5.349064
v 0.499821 -0.440136 5.349772
v 0.501464 -0.439967 5.350271
v 0.499511 -0.438574 5.350229
v 0.503193 -0.592534 5.341404
v 0.497249 -0.593936 5.349456
v 0.503597 -0.591434 5.336380
v 0.515241 -0.579133 5.311386
v 0.502620 -0.594110 5.342321
v 0.503489 -0.589341 5.340464
v 0.511841 -0.583747 5.319734
v 0.513104 -0.583739 5.319384
v 0.509203 -0.585013 5.325777
v 0.509155 -0.582990 5.326673
v 0.511119 -0.582061 5.319844
v 0.510775 -0.585299 5.327930
v 0.511831 -0.581837 5.323946
v 0.503489 -0.589341 5.340464
v 0.511076 -0.583666 5.323992
v 0.523320 -0.430517 5.303639
v 0.520634 -0.432226 5.315254
v 0.516362 -0.436340 5.316897
v 0.500002 -0.442411 5.349144
v 0.501024 -0.439278 5.351901
v 0.500821 -0.436710 5.349016
v 0.520364 -0.436558 5.319406
v 0.520517 -0.432266 5.315475
v 0.521342 -0.569554 5.290274
v 0.523078 -0.567468 5.291087
v 0.516409 -0.581195 5.313142
v 0.511150 -0.583275 5.319392
v 0.525717 -0.563631 5.282535
v 0.526687 -0.565698 5.282852
v 0.524859 -0.569201 5.289904
v 0.525859 -0.564999 5.283594
v 0.522164 -0.433224 5.302927
v 0.523624 -0.431119 5.303445
v 0.518652 -0.436888 5.317853
v 0.517581 -0.438094 5.318524
v 0.521620 -0.436132 5.316897
v 0.526869 -0.566502 5.285484
v 0.525670 -0.561543 5.283414
v 0.512184 -0.582604 5.322906
v 0.525831 -0.566539 5.282281
v 0.522582 -0.568520 5.289904
v 0.527097 -0.563249 5.283086
v 0.525818 -0.564071 5.282413
v 0.526267 -0.563093 5.282862
v 0.527068 -0.565141 5.282955
v 0.524859 -0.569201 5.289904
v 0.526632 -0.564866 5.282405
v 0.527887 -0.564295 5.282862
v 0.527887 -0.564295 5.282862
v 0.526498 -0.563798 5.282382
v 0.525620 -0.563789 5.282930
v 0.522972 -0.567112 5.289904
v 0.525331 -0.564536 5.282360
v 0.522681 -0.570571 5.297227
v 0.536355 -0.435314 5.254722
v 0.533644 -0.432417 5.263529
v 0.534952 -0.432696 5.262155
v 0.533361 -0.429978 5.275212
v 0.530478 -0.433344 5.275856
v 0.530149 -0.434057 5.284958
v 0.530856 -0.432189 5.294010
v 0.532240 -0.432012 5.258374
v 0.532700 -0.428456 5.270076
v 0.534700 -0.430514 5.274900
v 0.545985 -0.443471 5.044844
v 0.543295 -0.439284 5.057144
v 0.545132 -0.445187 5.039999
v 0.543839 -0.440847 5.130538
v 0.541652 -0.446086 5.153179
v 0.543234 -0.444296 5.155284
v 0.541459 -0.444667 5.138956
v 0.542494 -0.444083 5.131050
v 0.543059 -0.448606 5.168029
v 0.543281 -0.448418 5.163303
v 0.543551 -0.444205 5.152741
v 0.544515 -0.447459 5.163054
v 0.540547 -0.445463 5.208264
v 0.544288 -0.447369 5.170226
v 0.541927 -0.443776 5.151467
v 0.544541 -0.445460 5.172910
v 0.544593 -0.447527 5.163281
v 0.545577 -0.447121 5.179792
v 0.543241 -0.440009 5.140327
v 0.545089 -0.443525 5.173880
v 0.540215 -0.445900 5.179378
v 0.543004 -0.446415 5.197826
v 0.540253 -0.440249 5.213596
v 0.538799 -0.441101 5.228084
v 0.538642 -0.442789 5.210799
v 0.544101 -0.442585 5.040422
v 0.546203 -0.443284 5.041572
v 0.540070 -0.431926 5.072979
v 0.541751 -0.436630 5.066493
v 0.543896 -0.440655 5.047733
v 0.542839 -0.434346 5.059101
v 0.543500 -0.433017 5.060430
v 0.546294 -0.438095 5.045312
v 0.542164 -0.437144 5.076564
v 0.542200 -0.441081 5.061004
v 0.539585 -0.433459 5.082621
v 0.540405 -0.430839 5.093116
v 0.543295 -0.439284 5.057144
v 0.542382 -0.434077 5.068067
v 0.544328 -0.437631 5.055565
v 0.543948 -0.434185 5.068099
v 0.544502 -0.431735 5.066406
v 0.544521 -0.434231 5.069161
v 0.540356 -0.434975 5.096894
v 0.537295 -0.435477 5.099700
v 0.538927 -0.433304 5.104044
v 0.541626 -0.435710 5.108002
v 0.541307 -0.434061 5.094013
v 0.542980 -0.431906 5.089912
v 0.542595 -0.431767 5.089608
v 0.544730 -0.442649 5.143620
v 0.542980 -0.431906 5.089912
v 0.542497 -0.434602 5.109423
v 0.542332 -0.433621 5.101944
v 0.541821 -0.433332 5.108840
v 0.540437 -0.433544 5.100064
v 0.543285 -0.434947 5.111993
v 0.545116 -0.442792 5.144745
v 0.540318 -0.444582 5.189908
v 0.538642 -0.442789 5.210799
v 0.541048 -0.441967 5.204061
v 0.542260 -0.446774 5.193505
v 0.543189 -0.441501 5.208758
v 0.536774 -0.437540 5.229342
v 0.533442 -0.435033 5.241951
v 0.538128 -0.431978 5.257168
v 0.536380 -0.435355 5.254647
v 0.536355 -0.430551 5.264246
v 0.536112 -0.431962 5.267521
v 0.536234 -0.430533 5.264647
v 0.546185 -0.477391 4.913083
v 0.544849 -0.476975 4.912456
v 0.547400 -0.469839 4.928911
v 0.544639 -0.476076 4.912582
v 0.546170 -0.476250 4.912456
v 0.544849 -0.476975 4.912456
v 0.546931 -0.477162 4.913178
v 0.547648 -0.474993 4.920026
v 0.545985 -0.477909 4.913864
v 0.544063 -0.477688 4.912771
v 0.547147 -0.467871 4.932324
v 0.544366 -0.478098 4.913288
v 0.547159 -0.470042 4.929226
v 0.544253 -0.466482 4.939157
v 0.545268 -0.467623 4.928135
v 0.545798 -0.469771 4.931004
v 0.544971 -0.468524 4.929356
v 0.544089 -0.471397 4.931174
v 0.544081 -0.467598 4.934304
v 0.546183 -0.460580 4.953322
v 0.548546 -0.464449 4.940511
v 0.545901 -0.458685 4.954764
v 0.545547 -0.459856 4.956375
v 0.545356 -0.460074 4.956115
v 0.545968 -0.457328 4.959941
v 0.544891 -0.464299 4.941280
v 0.546648 -0.468306 4.934447
v 0.545881 -0.456797 4.960815
v 0.547297 -0.455112 4.967150
v 0.547377 -0.459852 4.966569
v 0.547412 -0.457743 4.958040
v 0.543768 -0.458272 4.966179
v 0.547822 -0.464186 4.939215
v 0.543198 -0.460463 4.956958
v 0.541954 -0.457186 4.964226
v 0.548981 -0.456696 4.959253
v 0.547604 -0.459046 4.966629
v 0.546953 -0.458362 4.961218
v 0.547500 -0.455836 4.967161
v 0.548971 -0.461745 4.958104
v 0.549895 -0.458147 4.966323
v 0.547335 -0.457815 4.958058
v 0.548557 -0.457495 4.966307
v 0.548099 -0.453501 4.985853
v 0.549655 -0.455851 4.977538
v 0.547702 -0.453041 5.006835
v 0.547602 -0.452823 5.007320
v 0.549032 -0.453842 5.011147
v 0.550220 -0.452554 5.013028
v 0.550058 -0.453982 4.997468
v 0.548916 -0.454669 5.009628
v 0.548994 -0.451423 5.005886
v 0.550890 -0.454147 4.986997
v 0.548944 -0.450250 5.013348
v 0.551380 -0.454095 4.990700
v 0.549916 -0.452027 5.013786
v 0.546484 -0.442130 5.038209
v 0.546447 -0.447054 5.028814
v 0.546479 -0.444168 5.038818
v 0.548802 -0.453263 5.013859
v 0.549004 -0.445185 5.033485
v 0.547368 -0.444531 5.030694
v 0.546498 -0.445207 5.030594
v 0.550421 -0.450215 5.018085
v 0.546126 -0.447212 5.027947
v 0.547848 -0.442605 5.041831
v 0.547398 -0.448693 5.029117
v 0.547360 -0.444667 5.040055
v 0.545449 -0.442160 5.043634
v 0.545442 -0.440878 5.043854
vn 0.1228 0.9701 0.2092
vn -0.6497 0.1892 -0.7363
vn -0.5813 0.2773 -0.7650
vn -0.4396 -0.8326 -0.3370
vn -0.5354 -0.6531 -0.5356
vn -0.4294 -0.7756 -0.4627
vn -0.6102 -0.3353 -0.7178
vn 0.6163 0.0252 0.7871
vn 0.6438 0.4575 0.6134
vn 0.2566 0.8952 0.3644
vn -0.2119 -0.9513 -0.2238
vn -0.2294 -0.9640 -0.1342
vn -0.3486 -0.9227 -0.1646
vn -0.2361 -0.9551 -0.1793
vn 0.3296 -0.9364 0.1203
vn -0.6432 0.0970 -0.7595
vn -0.5028 0.5447 -0.6712
vn 0.7283 0.2946 0.6187
vn 0.4898 -0.7378 0.4646
vn 0.5590 -0.6644 0.4960
vn 0.4145 0.7323 0.5403
vn -0.5910 -0.6023 -0.5366
vn -0.3385 -0.8629 -0.3751
vn 0.1946 -0.9790 0.0609
vn 0.1873 -0.9805 0.0601
vn 0.1840 -0.9814 0.0541
vn 0.6140 0.6058 0.5060
vn -0.3460 0.9381 0.0144
vn -0.3517 0.9287 0.1179
vn -0.0719 0.9810 0.1800
vn 0.4705 0.6097 0.6379
vn 0.8341 -0.4831 0.2664
vn 0.2601 0.8270 0.4983
vn 0.8052 0.1967 0.5594
vn 0.7494 0.2360 0.6187
vn -0.2275 -0.9307 -0.2864
vn -0.2304 -0.8896 -0.3943
vn -0.1422 -0.9588 -0.2460
vn -0.8419 0.2907 -0.4547
vn -0.6538 -0.5962 -0.4659
vn -0.7030 -0.5490 -0.4521
vn 0.4229 0.5206 -0.7418
vn -0.2367 -0.3102 0.9207
vn 0.0045 0.9549 0.2969
vn -0.8024 -0.2361 -0.5481
vn 0.8078 -0.5602 0.1834
vn 0.7497 -0.6577 0.0737
vn -0.0737 0.9586 0.2752
vn -0.3974 -0.7876 -0.4710
vn -0.4967 -0.7427 -0.4490
vn -0.1526 -0.8342 -0.5299
vn -0.5739 -0.6589 -0.4863
vn -0.8262 -0.1745 -0.5357
vn 0.7207 0.4173 0.5536
vn 0.7078 0.4178 0.5697
vn 0.7173 0.4077 0.5651
vn 0.9664 -0.0911 0.2405
vn 0.1181 0.9614 -0.2486
vn -0.1619 0.9866 -0.0196
vn -0.2328 0.9701 0.0692
vn -0.1627 -0.9449 -0.2841
vn -0.6896 -0.5219 -0.5020
vn 0.8755 -0.3335 0.3498
vn 0.7406 -0.5483 0.3884
vn 0.4597 -0.8870 0.0438
vn 0.6883 0.5351 0.4898
vn 0.8672 -0.1320 0.4802
vn 0.8322 0.3582 0.4232
vn -0.5940 -0.6797 -0.4303
vn -0.9049 -0.1056 -0.4123
vn -0.3121 -0.7882 -0.5304
vn -0.7887 -0.2145 -0.5762
vn 0.5163 0.6210 0.5898
vn 0.5038 0.6670 0.5490
vn 0.5121 0.6653 0.5433
vn -0.8587 0.3846 -0.3388
vn -0.9117 0.3339 -0.2395
vn -0.8318 0.3660 -0.4173
vn -0.9449 0.0847 -0.3161
vn -0.1558 -0.9648 -0.2116
vn -0.7518 0.6309 -0.1916
vn 0.5297 -0.8459 0.0628
vn 0.7148 0.4348 0.5477
vn 0.7895 0.3482 0.5054
vn 0.7881 0.3894 0.4768
vn -0.8306 0.4133 -0.3731
vn -0.8752 0.4024 -0.2684
vn -0.8600 0.4573 -0.2265
vn -0.6689 -0.6240 -0.4040
vn 0.1699 -0.9836 0.0611
vn -0.9132 -0.3577 -0.1951
vn 0.5440 -0.8247 0.1545
vn 0.3312 0.9347 0.1290
vn -0.5308 0.8248 -0.1947
vn -0.1691 0.9855 0.0154
vn 0.9171 0.3255 0.2304
vn 0.0298 -0.9420 0.3343
vn 0.0321 -0.9439 0.3285
vn 0.0351 -0.9424 0.3328
vn -0.5614 -0.8115 -0.1623
vn -0.7993 0.5825 0.1477
vn -0.7410 0.6681 -0.0676
vn -0.4514 -0.8877 -0.0906
vn -0.4596 -0.8707 -0.1749
vn -0.7522 -0.6589 0.0008
vn -0.6616 -0.7467 -0.0683
vn 0.5402 -0.8355 -0.1005
vn 0.9384 -0.3375 -0.0740
vn 0.6234 -0.7015 -0.3452
vn 0.8886 -0.4508 -0.0847
vn 0.7528 -0.6515 0.0939
vn 0.7137 0.6846 0.1484
vn 0.9986 0.0223 0.0487
vn -0.8620 0.5057 -0.0355
vn 0.6031 -0.7886 0.1196
vn -0.3216 0.9160 -0.2398
vn 0.5978 -0.7809 0.1812
vn -0.8735 -0.4867 -0.0017
vn -0.8061 -0.5883 0.0635
vn -0.8160 -0.5779 -0.0135
vn 0.2148 -0.9365 0.2772
vn -0.3544 -0.8993 0.2562
vn -0.9655 -0.2093 -0.1552
vn -0.4583 -0.8666 0.1973
vn -0.9805 -0.1778 -0.0843
vn -0.9733 -0.2177 -0.0724
vn -0.9902 0.1178 -0.0744
vn -0.9032 0.3135 -0.2930
vn -0.1107 0.9891 -0.0971
vn -0.3505 -0.9363 -0.0226
vn -0.0858 -0.9638 -0.2524
vn -0.1886 0.9654 0.1803
vn -0.6021 -0.7984 -0.0018
vn 0.7036 -0.7034 -0.1006
vn 0.9592 -0.2511 0.1296
vn 0.9786 -0.1920 0.0741
vn 0.9972 0.0343 0.0671
vn 0.9947 0.0799 0.0650
vn 0.9990 0.0420 -0.0167
vn 0.9350 -0.3351 0.1156
vn 0.7271 0.6744 0.1284
vn 0.7294 0.6750 0.1113
vn 0.7302 0.6749 0.1065
vn -0.5971 -0.7887 -0.1464
vn -0.4041 0.8859 0.2277
vn -0.3726 0.8778 0.3012
vn -0.0606 0.9800 0.1894
vn 0.8292 0.5582 0.0267
vn 0.6446 0.7600 0.0829
vn 0.7297 0.6753 0.1071
vn -0.5954 0.7950 -0.1161
vn -0.7817 0.5712 -0.2503
vn 0.4254 0.8986 -0.1073
vn 0.7949 0.6067 0.0027
vn 0.0121 -0.9845 0.1747
vn -0.7942 0.5621 -0.2308
vn -0.5785 -0.8152 0.0277
vn 0.9865 0.1618 -0.0268
vn 0.7841 -0.5958 0.1737
vn 0.2086 0.9528 -0.2205
vn -0.4566 -0.8703 0.1847
vn -0.3768 -0.9143 0.1487
vn 0.9401 -0.2536 0.2277
vn -0.4584 -0.8747 0.1577
vn 0.7385 -0.6451 0.1963
vn 0.7488 0.6485 0.1372
vn 0.7333 0.6548 0.1828
vn -0.3079 -0.8181 0.4857
vn -0.3049 -0.8332 0.4614
vn -0.4300 -0.8284 0.3589
vn -0.2215 0.9003 -0.3747
vn -0.3266 0.8505 -0.4124
vn -0.2438 0.8564 -0.4550
vn -0.3156 -0.7997 0.5108
vn 0.1323 -0.9332 0.3341
vn 0.2253 -0.8384 0.4964
vn 0.0437 -0.9280 0.3700
vn 0.4505 -0.8126 0.3698
vn -0.9805 -0.1785 0.0826
vn -0.9884 -0.0511 0.1429
vn -0.9668 -0.1458 0.2099
vn -0.9887 -0.1027 0.1088
vn -0.9773 -0.2054 0.0514
vn -0.9815 -0.1213 0.1480
vn -0.9574 0.2841 -0.0514
vn -0.9576 0.2837 -0.0510
vn -0.9573 0.2845 -0.0510
vn 0.5408 0.7588 -0.3631
vn 0.4562 0.8326 -0.3141
vn 0.5674 0.7670 -0.2995
vn -0.9387 -0.2898 0.1867
vn 0.6946 -0.6430 0.3225
vn 0.6842 -0.7093 0.1697
vn 0.6066 -0.7913 0.0768
vn 0.6085 0.7496 -0.2604
vn 0.6896 0.7126 -0.1290
vn 0.6797 0.7201 -0.1394
vn 0.9906 -0.1352 -0.0206
vn 0.9079 -0.4185 -0.0251
vn 0.9016 -0.4220 0.0953
vn -0.9724 0.2260 -0.0588
vn -0.8425 0.5190 -0.1444
vn -0.9432 0.3293 -0.0448
vn -0.9203 0.3628 -0.1464
vn -0.9124 0.4094 -0.0000
vn -0.8237 -0.5619 0.0760
vn -0.7585 -0.6335 0.1525
vn 0.7803 -0.5641 0.2700
vn 0.2905 -0.9537 0.0783
vn 0.6844 -0.7205 0.1118
vn -0.8112 0.5749 -0.1072
vn -0.0467 0.9848 -0.1673
vn -0.0087 0.9825 -0.1859
vn -0.0733 0.9879 -0.1369
vn -0.5077 -0.8509 0.1349
vn -0.7640 0.5710 -0.3004
vn -0.9620 0.2457 -0.1194
vn 0.3140 -0.8852 0.3434
vn 0.3852 -0.8550 0.3473
vn 0.4745 -0.8090 0.3469
vn 0.2113 -0.8448 0.4917
vn 0.9755 0.2101 0.0646
vn 0.9738 0.2274 -0.0088
vn 0.7935 0.6060 -0.0556
vn 0.9968 -0.0796 -0.0028
vn 0.5253 0.8164 -0.2400
vn -0.5076 -0.8089 0.2965
vn -0.5296 -0.7929 0.3012
vn -0.5010 -0.8220 0.2707
vn 0.8132 -0.4671 0.3471
vn 0.9940 0.1076 -0.0180
vn 0.4246 0.8900 -0.1662
vn 0.8964 -0.3433 0.2803
s 1
f 11//1 2//2 1//3
f 5//4 6//5 7//6
f 7//6 6//5 12//7
f 10//8 14//9 11//1
f 13//10 2//2 11//1
f 13//10 11//1 14//9
f 15//11 16//12 10//13
f 15//11 18//14 16//12
f 15//11 19//15 18//14
f 7//6 12//7 26//16
f 26//16 12//7 20//17
f 14//9 17//18 13//10
f 21//19 17//18 14//9
f 17//18 21//19 23//20
f 17//18 22//21 13//10
f 24//22 25//23 19//15
f 19//15 25//23 18//14
f 28//24 29//25 30//26
f 17//18 27//27 22//21
f 33//28 34//29 35//30
f 36//31 37//32 38//33
f 27//27 39//34 22//21
f 22//21 39//34 40//35
f 32//36 31//37 41//38
f 46//39 42//40 47//41
f 51//42 49//43 50//44
f 54//45 25//23 24//22
f 55//46 37//32 56//47
f 36//31 56//47 37//32
f 34//29 57//48 35//30
f 52//49 53//50 58//51
f 59//52 54//45 60//53
f 65//54 63//55 64//56
f 24//22 60//53 54//45
f 66//57 37//32 55//46
f 48//58 51//42 50//44
f 67//59 48//58 50//44
f 67//59 50//44 68//60
f 69//61 43//62 46//39
f 42//40 46//39 43//62
f 73//63 70//64 86//65
f 72//66 71//67 74//68
f 73//63 71//67 70//64
f 60//53 75//69 59//52
f 58//51 76//70 77//71
f 77//71 52//49 58//51
f 76//70 80//72 77//71
f 78//73 81//74 79//75
f 82//76 62//77 61//78
f 83//79 85//80 69//61
f 83//79 46//39 84//81
f 47//41 84//81 46//39
f 43//62 69//61 85//80
f 86//65 87//82 73//63
f 73//63 74//68 71//67
f 88//83 89//84 90//85
f 91//86 92//87 93//88
f 83//79 110//89 111//90
f 107//91 111//90 110//89
f 86//65 111//90 112//92
f 111//90 85//80 83//79
f 112//92 87//82 86//65
f 74//68 73//63 112//93
f 113//94 110//89 114//95
f 110//89 83//79 114//95
f 83//79 84//81 114//95
f 114//95 74//68 115//96
f 115//96 74//68 112//93
f 116//97 117//98 118//99
f 119//100 120//101 121//102
f 122//103 123//104 124//105
f 120//106 122//103 124//105
f 125//107 126//108 127//109
f 127//109 132//110 125//107
f 133//111 134//112 135//113
f 120//101 136//114 121//102
f 125//107 132//110 137//115
f 121//102 136//114 138//116
f 133//111 137//115 132//110
f 120//106 124//105 128//117
f 124//105 137//115 128//117
f 140//118 136//119 128//120
f 128//117 137//115 139//121
f 142//122 143//123 141//124
f 144//125 143//123 142//122
f 144//125 151//126 143//123
f 146//127 145//128 152//129
f 151//126 144//125 159//130
f 151//126 159//130 160//131
f 151//126 161//132 143//123
f 144//125 162//133 159//130
f 163//134 155//135 156//136
f 157//137 164//138 158//139
f 165//140 163//134 156//136
f 161//132 152//129 143//123
f 166//141 167//142 168//143
f 119//100 121//102 171//144
f 152//129 161//132 130//145
f 159//130 123//104 160//131
f 152//129 130//145 129//146
f 170//147 152//129 129//146
f 165//140 126//108 163//134
f 169//148 170//147 172//149
f 134//112 172//149 170//147
f 126//108 125//107 163//134
f 123//104 122//103 160//131
f 134//112 173//150 172//149
f 174//151 175//152 176//153
f 121//102 138//116 131//154
f 178//155 133//111 135//113
f 176//153 175//152 179//156
f 140//118 128//120 180//157
f 176//153 114//95 177//158
f 137//115 181//159 139//121
f 113//94 176//153 179//156
f 177//158 114//95 181//160
f 133//111 181//159 137//115
f 178//155 181//159 133//111
f 139//121 182//161 107//91
f 128//117 139//121 107//91
f 128//120 108//162 180//157
f 139//121 181//159 106//163
f 180//157 108//162 109//164
f 107//91 182//161 106//163
f 106//163 111//90 107//91
f 111//90 106//163 184//165
f 112//92 111//90 184//165
f 184//165 106//163 181//159
f 152//129 169//148 146//127
f 170//147 169//148 152//129
f 114//95 176//153 113//94
f 183//166 181//160 114//95
f 185//167 114//95 115//96
f 181//160 183//166 112//93
f 185//167 183//166 114//95
f 112//93 183//166 115//96
f 194//168 196//169 195//170
f 198//171 197//172 199//173
f 195//170 196//169 202//174
f 188//175 205//176 189//177
f 188//175 206//178 205//176
f 200//179 201//180 207//181
f 204//182 203//183 208//184
f 209//185 210//186 211//187
f 212//188 213//189 214//190
f 203//183 215//191 208//184
f 216//192 217//193 218//194
f 227//195 229//196 228//197
f 230//198 225//199 226//200
f 223//201 231//202 224//203
f 221//204 222//205 232//206
f 222//205 233//207 232//206
f 234//208 225//199 230//198
f 235//209 234//208 230//198
f 236//210 225//199 234//208
f 224//203 231//202 237//211
f 239//212 238//213 228//214
f 233//207 142//122 250//215
f 232//206 233//207 250//215
f 237//211 231//202 242//216
f 231//202 243//217 242//216
f 244//218 245//219 246//220
f 236//210 234//208 248//221
f 241//222 240//223 247//224
f 249//225 234//208 235//209
f 242//216 243//217 145//128
f 251//226 241//222 247//224
f 142//122 141//124 250//215
f 252//227 253//228 254//229
f 244//218 246//220 154//230
f 132//110 126//231 133//111
f 251//226 247//224 255//232
f 242//216 145//128 146//127
f 154//230 153//233 244//218
f 158//139 251//226 255//232
f 255//232 157//137 158//139
f 133//111 173//150 134//112
l 147 148
l 100 101
l 186 187
l 149 150
l 192 193
l 8 9
l 3 4
l 98 99
l 104 105
l 190 191
l 44 45
l 94 95
l 96 97
l 102 103
l 219 220
