# Blender v2.78 (sub 0) OBJ File: 'exporter.blend'
# www.blender.org
o FJ3413.obj_grp1.2045
v 0.127905 -0.529380 5.863038
v 0.136436 -0.553788 5.841240
v 0.128782 -0.560737 5.821770
v 0.117637 -0.536677 5.814104
v 0.129877 -0.585101 5.859527
v 0.133515 -0.562188 5.868082
v 0.089640 -0.613189 5.931847
v 0.113034 -0.512735 5.837389
v 0.114708 -0.516464 5.868226
v 0.097324 -0.560682 5.794929
v 0.112017 -0.584545 5.810692
v 0.116324 -0.601572 5.834074
v 0.107893 -0.581335 5.917716
v 0.102559 -0.603623 5.821861
v 0.044126 -0.643801 6.011054
v 0.090009 -0.500778 5.853099
v 0.081294 -0.507999 5.821915
v 0.067360 -0.533517 5.946916
v 0.095919 -0.526986 5.804781
v 0.086843 -0.561796 5.958432
v 0.076645 -0.584474 5.799005
v 0.077045 -0.602037 6.016588
v 0.075334 -0.607309 5.817246
v 0.047619 -0.637987 5.913671
v 0.061182 -0.502623 5.848957
v 0.051075 -0.512443 5.825980
v 0.064441 -0.542815 5.795546
v 0.065662 -0.550677 6.016435
v 0.081099 -0.576982 6.014266
v 0.079743 -0.578398 6.013861
v 0.075075 -0.563403 6.016496
v 0.075874 -0.606667 6.017321
v 0.048817 -0.578964 5.803925
v 0.067272 -0.624871 6.016815
v 0.067052 -0.624678 6.017046
v 0.034493 -0.643682 6.014926
v 0.036394 -0.529001 5.821462
v 0.032163 -0.530217 5.966023
v 0.033146 -0.547663 5.813972
v 0.044001 -0.536567 6.017549
v 0.054336 -0.544718 6.017852
v 0.031538 -0.532523 6.017261
v 0.065774 -0.550671 6.016490
v 0.016797 -0.532717 6.017170
v 0.054336 -0.544718 6.017852
v 0.034659 -0.597853 5.832217
v 0.028724 -0.576913 5.823184
v 0.018726 -0.631681 5.906882
v 0.054031 -0.636295 6.016224
v 0.043257 -0.643756 6.012857
v 0.033717 -0.646202 5.974718
v 0.001888 -0.543579 5.905361
v -0.002928 -0.540536 6.010287
v 0.037493 -0.536104 6.017805
v 0.037493 -0.536104 6.017805
v 0.043563 -0.536761 6.017335
v 0.016581 -0.532009 6.017302
v 0.031468 -0.532982 6.017054
v 0.032613 -0.644149 6.015600
v 0.016914 -0.639855 6.017617
v 0.008322 -0.534780 6.016866
v 0.008322 -0.534780 6.016866
v 0.002493 -0.541009 6.017758
v -0.012944 -0.569231 5.908101
v -0.006124 -0.604015 5.902464
v -0.024535 -0.614640 6.017663
v -0.011242 -0.629655 5.967587
v 0.002140 -0.641098 6.016161
v 0.016914 -0.639855 6.017617
v 0.002992 -0.639545 6.015363
v 0.008322 -0.534780 6.016866
v -0.003852 -0.539254 6.010293
v 0.002493 -0.541009 6.017758
v -0.010728 -0.544319 6.016537
v -0.011535 -0.543508 6.016614
v -0.010613 -0.545247 6.013351
v -0.029723 -0.568515 6.017016
v -0.023825 -0.605433 5.958249
v -0.026574 -0.603786 6.018040
v -0.014436 -0.627837 6.016209
v -0.014873 -0.627696 6.016279
v -0.033306 -0.582815 6.015301
v -0.032028 -0.584961 6.015316
v -0.025704 -0.614137 6.017366
v -0.026574 -0.603786 6.018040
vn 0.9811 0.1006 -0.1651
vn 0.9647 -0.0072 0.2632
vn 0.8909 -0.4442 0.0941
vn 0.8564 0.4804 0.1895
vn 0.6156 0.7443 -0.2589
vn 0.5748 0.7483 0.3312
vn 0.6962 0.3542 -0.6244
vn 0.3016 -0.0392 -0.9526
vn 0.8627 -0.0961 -0.4965
vn 0.5919 -0.3886 -0.7061
vn 0.6396 -0.7338 -0.2290
vn 0.9011 -0.1619 0.4024
vn 0.3068 -0.8589 -0.4101
vn 0.3630 -0.9317 0.0112
vn 0.4098 -0.9002 -0.1474
vn 0.2737 0.5385 -0.7970
vn 0.0541 0.8569 -0.5127
vn 0.2061 0.9763 0.0657
vn 0.4915 0.7941 0.3575
vn 0.8247 0.4150 0.3843
vn 0.9595 -0.2368 0.1529
vn -0.0197 -0.4290 -0.9031
vn -0.0422 -0.8237 -0.5654
vn 0.1092 -0.9804 -0.1638
vn -0.2246 0.2536 -0.9409
vn 0.7093 0.6792 0.1884
vn 0.9855 0.1006 0.1366
vn 0.0846 -0.0113 0.9964
vn -0.0259 0.0223 0.9994
vn 0.5670 0.0339 0.8230
vn -0.4595 -0.3431 -0.8192
vn 0.7746 -0.6252 0.0956
vn 0.0438 -0.0462 0.9980
vn -0.0858 0.0071 0.9963
vn -0.4580 0.7734 -0.4383
vn -0.2961 0.9524 -0.0726
vn 0.1221 0.9776 0.1715
vn -0.7351 0.1625 -0.6582
vn -0.6996 0.5287 -0.4807
vn 0.4130 0.8892 0.1967
vn 0.3498 0.4773 0.8061
vn 0.0054 0.0307 0.9995
vn 0.0138 -0.0325 0.9994
vn 0.2636 0.1647 0.9505
vn -0.5696 -0.6392 -0.5167
vn -0.4298 -0.8484 -0.3092
vn -0.7898 -0.2391 -0.5649
vn 0.6480 -0.7437 -0.1643
vn 0.2323 -0.5224 0.8204
vn -0.7369 0.6627 -0.1335
vn -0.3404 0.9395 -0.0391
vn 0.1618 0.9803 0.1134
vn 0.0591 0.2391 0.9692
vn -0.0038 0.0635 0.9980
vn 0.0981 0.1939 0.9761
vn -0.2073 0.9758 -0.0690
vn 0.0148 0.2551 0.9668
vn 0.0104 -0.9979 -0.0646
vn -0.0497 -0.9968 0.0623
vn -0.0896 0.2167 0.9721
vn -0.0845 0.1213 0.9890
vn -0.2595 0.9258 -0.2748
vn -0.9494 0.1793 -0.2579
vn -0.8339 -0.4054 -0.3745
vn 0.0071 -0.0552 0.9984
vn -0.6511 -0.7444 -0.1482
vn -0.3684 -0.9295 -0.0180
vn 0.1437 0.1274 0.9814
vn -0.1459 -0.2507 0.9570
vn -0.0389 -0.5366 0.8429
vn -0.5415 0.5898 0.5991
vn -0.4088 0.7477 0.5234
vn -0.4087 0.7477 0.5234
vn -0.2563 0.8694 0.4224
vn -0.7294 0.6781 -0.0902
vn -0.4410 0.4619 0.7695
vn -0.0798 0.0393 0.9960
vn -0.9474 -0.2586 -0.1886
vn -0.0826 -0.0062 0.9966
vn -0.0451 -0.1493 0.9878
vn -0.6968 -0.7166 -0.0299
vn -0.9924 0.1173 -0.0379
vn -0.9030 -0.4287 -0.0292
vn -0.5612 -0.0139 0.8275
vn -0.6359 -0.1098 0.7639
s 1
f 2//1 6//2 5//3
f 2//1 1//4 6//2
f 1//4 8//5 9//6
f 8//5 2//1 4//7
f 8//5 1//4 2//1
f 10//8 4//7 3//9
f 2//1 3//9 4//7
f 3//9 11//10 10//8
f 3//9 2//1 12//11
f 12//11 11//10 3//9
f 6//2 13//12 5//3
f 12//11 14//13 11//10
f 12//11 2//1 5//3
f 12//11 5//3 15//14
f 7//15 15//14 5//3
f 7//15 5//3 13//12
f 8//5 19//16 17//17
f 16//18 8//5 17//17
f 9//6 8//5 16//18
f 18//19 1//4 9//6
f 19//16 8//5 4//7
f 10//8 19//16 4//7
f 20//20 6//2 1//4
f 20//20 13//12 6//2
f 20//20 22//21 13//12
f 21//22 10//8 11//10
f 11//10 14//13 21//22
f 23//23 21//22 14//13
f 22//21 7//15 13//12
f 14//13 12//11 23//23
f 12//11 15//14 24//24
f 9//6 16//18 18//19
f 19//16 10//8 27//25
f 27//25 17//17 19//16
f 18//19 20//20 1//4
f 20//20 18//19 28//26
f 20//20 28//26 29//27
f 27//25 10//8 21//22
f 20//20 29//27 22//21
f 31//28 32//29 30//30
f 21//22 23//23 33//31
f 22//21 34//32 7//15
f 24//24 23//23 12//11
f 36//33 35//34 32//29
f 26//35 17//17 27//25
f 17//17 25//36 16//18
f 17//17 26//35 25//36
f 16//18 25//36 38//37
f 18//19 16//18 38//37
f 39//38 37//39 27//25
f 40//40 28//26 18//19
f 40//40 18//19 38//37
f 28//26 40//40 41//41
f 44//42 32//29 31//28
f 45//43 31//28 43//44
f 44//42 31//28 45//43
f 21//22 33//31 27//25
f 46//45 33//31 23//23
f 23//23 48//46 46//45
f 33//31 46//45 47//47
f 23//23 24//24 48//46
f 7//15 34//32 15//14
f 34//32 49//48 15//14
f 36//33 50//49 35//34
f 52//50 25//36 26//35
f 52//50 53//51 25//36
f 26//35 27//25 37//39
f 26//35 37//39 52//50
f 38//37 42//52 40//40
f 40//40 42//52 54//53
f 55//54 45//43 56//55
f 57//56 42//52 38//37
f 44//42 45//43 55//54
f 58//57 44//42 55//54
f 27//25 33//31 39//38
f 33//31 47//47 39//38
f 48//46 24//24 51//58
f 24//24 15//14 51//58
f 15//14 59//59 51//58
f 38//37 25//36 53//51
f 38//37 53//51 57//56
f 62//60 63//61 44//42
f 53//51 61//62 57//56
f 37//39 39//38 64//63
f 64//63 39//38 47//47
f 46//45 65//64 47//47
f 48//46 65//64 46//45
f 66//65 36//33 32//29
f 67//66 48//46 68//67
f 51//58 68//67 48//46
f 51//58 59//59 68//67
f 66//65 69//68 36//33
f 66//65 70//69 69//68
f 68//67 59//59 60//70
f 71//71 72//72 73//73
f 32//29 44//42 63//61
f 72//72 74//74 73//73
f 52//50 75//75 53//51
f 37//39 64//63 52//50
f 76//76 77//77 63//61
f 77//77 32//29 63//61
f 47//47 65//64 64//63
f 65//64 78//78 64//63
f 79//79 66//65 32//29
f 48//46 67//66 65//64
f 65//64 67//66 78//78
f 80//80 70//69 66//65
f 68//67 81//81 67//66
f 75//75 52//50 64//63
f 64//63 82//82 75//75
f 82//82 64//63 78//78
f 82//82 78//78 84//83
f 77//77 79//79 32//29
f 79//79 77//77 83//84
f 84//83 85//85 82//82
f 78//78 67//66 84//83
f 84//83 67//66 81//81
