# Blender v2.78 (sub 0) OBJ File: 'exporter.blend'
# www.blender.org
o FJ3477.obj_grp1.2097
v -0.074279 -0.573771 4.846102
v -0.070370 -0.583140 4.821016
v -0.072059 -0.583966 4.843073
v -0.068296 -0.576800 4.812523
v -0.057125 -0.597956 4.828080
v -0.069571 -0.580593 4.855572
v -0.069741 -0.571875 4.857453
v -0.056946 -0.587187 4.808695
v -0.047491 -0.601583 4.851268
v -0.057405 -0.578779 4.804144
v -0.053287 -0.568118 4.804688
v -0.061877 -0.574377 4.863245
v -0.053730 -0.568184 4.860571
v -0.063758 -0.571299 4.807295
v -0.053252 -0.559973 4.809629
v -0.056745 -0.554664 4.824292
v -0.064495 -0.561074 4.824853
v -0.060682 -0.555341 4.840314
v -0.061843 -0.560054 4.855013
v -0.056788 -0.553697 4.824253
v -0.052961 -0.556221 4.844461
v -0.037508 -0.610636 4.830467
v -0.038441 -0.595260 4.862932
v -0.000964 -0.605549 4.816946
v -0.045398 -0.559041 4.820662
v -0.027700 -0.582134 4.858026
v 0.009575 -0.621876 4.833873
v 0.017837 -0.619022 4.856270
v 0.003976 -0.616869 4.823058
v 0.004236 -0.605878 4.863209
v -0.018862 -0.578699 4.836022
v -0.000153 -0.594184 4.856489
v 0.000754 -0.595782 4.821266
v 0.009026 -0.592463 4.842312
v 0.017505 -0.610909 4.818830
v 0.037461 -0.608031 4.865160
v 0.015421 -0.595070 4.830516
v 0.037174 -0.620067 4.847960
v 0.039366 -0.617646 4.829821
v 0.024851 -0.602637 4.821476
v 0.040336 -0.594240 4.829974
v 0.026172 -0.595922 4.857455
v 0.047945 -0.608364 4.824292
v 0.054286 -0.610513 4.861235
v 0.048715 -0.596358 4.863713
v 0.036868 -0.590962 4.843785
v 0.078548 -0.587367 4.828095
v 0.077444 -0.603488 4.841496
v 0.047108 -0.589833 4.855463
v 0.092139 -0.585842 4.833203
v 0.079407 -0.592390 4.867444
v 0.081370 -0.576607 4.829508
v 0.054455 -0.583904 4.842130
v 0.068086 -0.573623 4.847153
v 0.079797 -0.566602 4.858894
v 0.090159 -0.566657 4.868619
v 0.079773 -0.566219 4.837389
v 0.088868 -0.548389 4.843632
v 0.100990 -0.580591 4.839133
v 0.094788 -0.590584 4.856980
v 0.110324 -0.573181 4.854122
v 0.113231 -0.534996 4.833458
v 0.097090 -0.548626 4.833876
v 0.101965 -0.563273 4.869861
v 0.088868 -0.548389 4.843632
v 0.093971 -0.539449 4.860054
v 0.097145 -0.518143 4.860377
v 0.110859 -0.564556 4.864098
v 0.117043 -0.554651 4.841345
v 0.113220 -0.531269 4.869069
v 0.117130 -0.531114 4.837141
v 0.103529 -0.513012 4.837821
v 0.105761 -0.529724 4.869269
v 0.095639 -0.519311 4.848468
v 0.111006 -0.495077 4.841191
v 0.104114 -0.482180 4.870252
v 0.096575 -0.500033 4.851000
v 0.111450 -0.481283 4.875766
v 0.099976 -0.479810 4.861631
v 0.110487 -0.458546 4.849905
v 0.116507 -0.470538 4.844369
v 0.117151 -0.441671 4.861053
v 0.121629 -0.542632 4.854783
v 0.121875 -0.495349 4.849449
v 0.125099 -0.479941 4.864884
v 0.119893 -0.473562 4.876213
v 0.124272 -0.451420 4.850299
v 0.128193 -0.459673 4.853592
v 0.116502 -0.470712 4.844994
v 0.131486 -0.442673 4.880602
v 0.131758 -0.457082 4.866956
v 0.119090 -0.442528 4.873567
v 0.121762 -0.448275 4.878347
v 0.124028 -0.455217 4.878232
v 0.124028 -0.455217 4.878232
v 0.140267 -0.423659 4.859972
v 0.137537 -0.420536 4.872056
v 0.144764 -0.426823 4.860317
v 0.148553 -0.429762 4.868048
v 0.145703 -0.426319 4.880152
v 0.131441 -0.441957 4.880015
v 0.140352 -0.431321 4.881236
v 0.140034 -0.424420 4.880579
v 0.140352 -0.431321 4.881236
v 0.148352 -0.423074 4.872350
vn -0.9754 0.1813 0.1256
vn -0.8670 -0.4071 -0.2873
vn -0.8529 -0.5147 0.0873
vn -0.8656 -0.0670 -0.4963
vn -0.5800 -0.7945 -0.1802
vn -0.7180 -0.4210 0.5542
vn -0.7524 0.2289 0.6176
vn -0.3868 -0.5848 -0.7130
vn -0.4407 -0.8025 0.4022
vn -0.3260 -0.9268 -0.1864
vn -0.2219 -0.2073 -0.9528
vn -0.6497 0.3029 -0.6972
vn 0.0437 0.3642 -0.9303
vn -0.2700 0.0448 0.9618
vn -0.0253 0.7881 -0.6150
vn -0.7681 0.6023 -0.2173
vn -0.4071 0.9049 0.1243
vn -0.2877 0.7967 0.5315
vn 0.2284 0.5015 0.8344
vn -0.8382 0.4679 -0.2802
vn -0.0403 0.9832 -0.1780
vn 0.3140 0.8972 0.3106
vn -0.1928 -0.4309 0.8816
vn 0.1609 -0.1192 -0.9797
vn 0.5177 0.8355 -0.1841
vn 0.3988 0.6448 0.6521
vn -0.0875 -0.8596 0.5034
vn -0.0342 -0.7614 -0.6474
vn -0.0232 -0.0203 0.9995
vn 0.5168 0.8501 0.1008
vn 0.3568 0.5930 -0.7218
vn 0.2566 0.7862 0.5621
vn 0.2246 0.9706 0.0868
vn -0.0849 -0.9868 -0.1383
vn 0.1292 -0.3068 -0.9430
vn 0.0349 -0.2755 0.9607
vn 0.1902 0.9162 -0.3528
vn 0.1977 -0.9693 0.1463
vn 0.2617 -0.8706 -0.4165
vn 0.0848 0.5210 -0.8494
vn -0.2405 0.8757 -0.4186
vn -0.1211 0.8447 0.5214
vn 0.3331 -0.4390 -0.8344
vn 0.2837 -0.7669 0.5756
vn -0.3924 0.6031 0.6945
vn -0.1866 0.9818 -0.0347
vn 0.1784 -0.0552 -0.9824
vn 0.5188 -0.8348 -0.1844
vn -0.3947 0.8482 0.3532
vn 0.5415 -0.4513 -0.7093
vn -0.2054 0.3495 -0.9141
vn 0.2633 -0.4524 0.8521
vn -0.4750 0.8546 -0.2099
vn -0.6674 0.7447 -0.0014
vn -0.6577 0.5902 0.4680
vn -0.3654 0.2364 0.9003
vn -0.6498 0.5525 -0.5220
vn -0.7013 0.4346 -0.5651
vn 0.6548 -0.6989 0.2878
vn 0.7279 -0.5455 -0.4155
vn 0.3655 0.0544 -0.9292
vn -0.4453 0.3123 -0.8392
vn 0.2350 -0.1541 0.9597
vn -0.9189 0.3563 0.1691
vn -0.8456 0.2826 0.4529
vn -0.9014 0.0715 0.4271
vn 0.8504 -0.5185 0.0897
vn 0.7339 -0.3485 0.5830
vn 0.8406 -0.2712 -0.4688
vn 0.3991 -0.0934 0.9122
vn -0.3961 0.2059 -0.8948
vn -0.3947 -0.0407 0.9179
vn -0.9840 0.1332 -0.1183
vn 0.4486 0.0851 -0.8897
vn -0.7560 0.1031 0.6464
vn -0.9571 0.1698 -0.2348
vn -0.9570 0.2461 0.1533
vn -0.2917 -0.0607 0.9546
vn -0.6439 0.4603 -0.6111
vn -0.2982 0.2871 -0.9103
vn -0.7652 0.6019 -0.2285
vn 0.9834 -0.1188 0.1369
vn 0.7991 0.0575 -0.5984
vn 0.8628 0.0420 -0.5037
vn 0.9670 -0.2044 0.1522
vn 0.4610 -0.2083 0.8626
vn 0.8158 -0.1766 -0.5507
vn 0.5990 -0.0108 -0.8007
vn 0.2438 0.1750 -0.9539
vn 0.6690 -0.5000 0.5499
vn 0.8943 -0.4302 0.1230
vn -0.7506 0.4660 0.4684
vn -0.4187 0.1182 0.9004
vn -0.2459 -0.0728 0.9666
vn -0.0779 -0.0665 0.9947
vn -0.0018 0.7451 -0.6670
vn -0.3017 0.9444 0.1304
vn 0.6632 0.2623 -0.7009
vn 0.9719 -0.2167 -0.0922
vn 0.6716 0.1902 0.7161
vn -0.1821 0.0399 0.9825
vn -0.1139 0.6228 0.7741
vn -0.1177 0.0857 0.9893
vn 0.5796 -0.4909 0.6504
vn 0.7777 0.6166 0.1224
s 1
f 1//1 2//2 3//3
f 2//2 1//1 4//4
f 2//2 5//5 3//3
f 3//3 6//6 1//1
f 6//6 7//7 1//1
f 2//2 8//8 5//5
f 3//3 5//5 9//9
f 22//10 9//9 5//5
f 6//6 3//3 9//9
f 2//2 4//4 8//8
f 10//11 8//8 4//4
f 14//12 10//11 4//4
f 10//11 14//12 11//13
f 7//7 6//6 12//14
f 11//13 14//12 15//15
f 4//4 1//1 17//16
f 14//12 4//4 17//16
f 14//12 17//16 15//15
f 1//1 18//17 17//16
f 1//1 7//7 19//18
f 18//17 1//1 19//18
f 19//18 7//7 12//14
f 13//19 19//18 12//14
f 15//15 16//20 20//21
f 17//16 18//17 16//20
f 16//20 15//15 17//16
f 18//17 21//22 20//21
f 21//22 18//17 19//18
f 13//19 21//22 19//18
f 5//5 8//8 22//10
f 23//23 6//6 9//9
f 11//13 24//24 10//11
f 12//14 6//6 23//23
f 15//15 20//21 25//25
f 21//22 13//19 26//26
f 12//14 26//26 13//19
f 25//25 20//21 21//22
f 28//27 9//9 22//10
f 22//10 8//8 29//28
f 8//8 10//11 24//24
f 24//24 29//28 8//8
f 9//9 28//27 23//23
f 28//27 30//29 23//23
f 30//29 12//14 23//23
f 31//30 25//25 21//22
f 31//30 21//22 26//26
f 30//29 26//26 12//14
f 11//13 15//15 33//31
f 33//31 15//15 25//25
f 33//31 25//25 31//30
f 31//30 26//26 32//32
f 34//33 31//30 32//32
f 28//27 22//10 27//34
f 29//28 27//34 22//10
f 35//35 29//28 24//24
f 36//36 30//29 28//27
f 33//31 24//24 11//13
f 34//33 37//37 31//30
f 30//29 32//32 26//26
f 38//38 28//27 27//34
f 29//28 35//35 39//39
f 37//37 33//31 31//30
f 33//31 40//40 24//24
f 33//31 37//37 40//40
f 40//40 37//37 41//41
f 34//33 32//32 42//42
f 29//28 39//39 27//34
f 39//39 38//38 27//34
f 43//43 39//39 35//35
f 40//40 35//35 24//24
f 38//38 44//44 28//27
f 45//45 30//29 36//36
f 28//27 44//44 36//36
f 34//33 42//42 46//46
f 37//37 34//33 46//46
f 41//41 37//37 46//46
f 42//42 32//32 30//29
f 45//45 42//42 30//29
f 43//43 35//35 47//47
f 43//43 48//48 39//39
f 40//40 41//41 47//47
f 40//40 47//47 35//35
f 42//42 45//45 49//49
f 42//42 49//49 46//46
f 50//50 48//48 43//43
f 48//48 38//38 39//39
f 38//38 48//48 44//44
f 47//47 41//41 52//51
f 51//52 36//36 44//44
f 46//46 53//53 41//41
f 52//51 41//41 53//53
f 53//53 46//46 49//49
f 54//54 53//53 49//49
f 49//49 45//45 55//55
f 55//55 54//54 49//49
f 50//50 43//43 47//47
f 56//56 45//45 36//36
f 57//57 52//51 53//53
f 55//55 45//45 56//56
f 51//52 56//56 36//36
f 57//57 53//53 54//54
f 57//57 54//54 58//58
f 60//59 48//48 59//60
f 60//59 44//44 48//48
f 60//59 51//52 44//44
f 50//50 47//47 62//61
f 50//50 59//60 48//48
f 52//51 57//57 63//62
f 64//63 56//56 51//52
f 57//57 58//58 63//62
f 55//55 65//64 54//54
f 56//56 66//65 55//55
f 55//55 66//65 65//64
f 66//65 67//66 65//64
f 60//59 59//60 61//67
f 51//52 60//59 68//68
f 63//62 47//47 52//51
f 61//67 59//60 69//69
f 50//50 69//69 59//60
f 60//59 61//67 68//68
f 68//68 64//63 51//52
f 64//63 68//68 70//70
f 62//61 47//47 63//62
f 62//61 69//69 50//50
f 64//63 70//70 56//56
f 62//61 63//62 72//71
f 73//72 67//66 66//65
f 73//72 66//65 56//56
f 73//72 56//56 70//70
f 74//73 63//62 58//58
f 62//61 72//71 75//74
f 67//66 73//72 76//75
f 77//76 72//71 63//62
f 63//62 74//73 77//76
f 65//64 67//66 74//73
f 67//66 77//76 74//73
f 67//66 79//77 77//76
f 67//66 76//75 79//77
f 73//72 78//78 76//75
f 79//77 80//79 77//76
f 72//71 77//76 80//79
f 81//80 72//71 80//79
f 72//71 81//80 75//74
f 82//81 80//79 79//77
f 61//67 69//69 83//82
f 68//68 61//67 83//82
f 71//83 69//69 62//61
f 68//68 83//82 70//70
f 62//61 75//74 84//84
f 62//61 84//84 71//83
f 69//69 71//83 83//82
f 83//82 84//84 85//85
f 83//82 71//83 84//84
f 83//82 86//86 70//70
f 70//70 86//86 73//72
f 73//72 86//86 78//78
f 83//82 85//85 86//86
f 88//87 84//84 75//74
f 88//87 89//88 87//89
f 75//74 89//88 88//87
f 84//84 88//87 85//85
f 86//86 85//85 90//90
f 85//85 91//91 90//90
f 87//89 81//80 80//79
f 76//75 92//92 79//77
f 76//75 78//78 93//93
f 92//92 76//75 93//93
f 90//90 94//94 86//86
f 95//95 93//93 78//78
f 86//86 95//95 78//78
f 82//81 79//77 92//92
f 80//79 82//81 96//96
f 96//96 82//81 97//97
f 85//85 88//87 91//91
f 98//98 88//87 87//89
f 91//91 88//87 99//99
f 100//100 91//91 99//99
f 90//90 91//91 100//100
f 95//95 101//101 93//93
f 96//96 87//89 80//79
f 96//96 98//98 87//89
f 82//81 92//92 97//97
f 93//93 103//102 92//92
f 97//97 92//92 103//102
f 104//103 103//102 101//101
f 103//102 93//93 101//101
f 90//90 100//100 102//104
f 88//87 98//98 99//99
f 96//96 105//105 98//98
f 100//100 99//99 105//105
f 105//105 99//99 98//98
f 100//100 103//102 104//103
f 103//102 100//100 105//105
f 105//105 96//96 97//97
f 103//102 105//105 97//97
