# Blender v2.78 (sub 0) OBJ File: 'exporter.blend'
# www.blender.org
o FJ3432.obj_grp1.2060
v -0.052929 -0.641379 5.004900
v -0.052595 -0.645400 5.003952
v -0.049967 -0.643943 5.011717
v -0.041201 -0.643711 5.000158
v -0.052533 -0.645362 5.003954
v -0.049630 -0.638028 5.003604
v -0.049768 -0.637827 5.003345
v -0.053321 -0.641104 5.005033
v -0.047989 -0.637733 5.004798
v -0.049437 -0.639155 5.010291
v -0.049672 -0.638033 5.003390
v -0.047989 -0.637733 5.004798
v -0.042186 -0.641579 5.001746
v -0.047322 -0.641226 5.018789
v -0.044395 -0.649630 5.001652
v -0.042345 -0.647483 5.000227
v -0.044293 -0.649427 5.001653
v -0.046877 -0.649216 5.002029
v -0.041225 -0.644504 5.000772
v -0.042349 -0.647488 5.000245
v -0.037793 -0.649671 5.013261
v -0.040329 -0.639812 5.015361
v -0.044432 -0.638250 5.015730
v -0.035209 -0.647108 5.019399
v -0.029880 -0.652456 5.058295
v -0.047202 -0.641366 5.019115
v -0.046408 -0.647785 5.026639
v -0.041293 -0.653122 5.025220
v -0.031753 -0.658473 5.047680
v -0.034565 -0.649589 5.059841
v -0.031819 -0.654455 5.043342
v -0.031657 -0.654440 5.043504
v -0.034280 -0.663358 5.054420
v -0.042748 -0.645348 5.050373
v -0.039853 -0.661965 5.058407
v -0.042509 -0.654141 5.059689
v -0.028815 -0.661037 5.055299
v -0.030614 -0.661532 5.058805
v -0.039531 -0.652297 5.061757
v -0.041640 -0.658810 5.059258
v -0.031345 -0.654624 5.061173
v -0.027320 -0.657335 5.057786
vn -0.8851 -0.3742 0.2767
vn -0.9092 0.3001 0.2886
vn -0.6738 -0.6186 0.4041
vn -0.3710 0.0870 -0.9246
vn -0.3794 0.0713 -0.9225
vn -0.3829 0.1061 -0.9177
vn -0.4485 0.1407 -0.8826
vn -0.7226 0.6191 0.3075
vn -0.5256 0.8342 0.1672
vn 0.2458 0.7538 -0.6093
vn 0.4077 0.8697 -0.2783
vn 0.5550 0.6736 -0.4880
vn 0.1078 0.6631 -0.7407
vn -0.9387 0.2421 0.2455
vn 0.1074 -0.9860 -0.1279
vn -0.3226 -0.0153 -0.9464
vn -0.1789 -0.4757 -0.8612
vn -0.2757 -0.2062 -0.9389
vn 0.7772 -0.5245 -0.3476
vn 0.6994 -0.6617 -0.2704
vn 0.5867 0.8084 -0.0476
vn -0.0696 0.9926 0.0996
vn -0.1267 0.9894 0.0702
vn 0.9695 0.1301 -0.2077
vn 0.7697 0.5616 0.3036
vn 0.9530 0.0155 -0.3027
vn -0.7294 0.6102 0.3094
vn -0.9408 -0.3243 0.0980
vn -0.4737 -0.8626 -0.1776
vn 0.7818 -0.5409 -0.3102
vn 0.2914 0.7570 0.5849
vn -0.5271 0.8147 0.2416
vn 0.9018 -0.2822 -0.3272
vn 0.9250 -0.2429 -0.2923
vn 0.1099 -0.9902 -0.0866
vn -0.4560 -0.7455 0.4861
vn -0.8293 0.0568 0.5558
vn 0.7920 -0.5907 -0.1544
vn 0.4088 -0.6653 0.6247
vn -0.3098 0.2694 0.9119
vn -0.7255 -0.3904 0.5668
vn 0.3967 0.0527 0.9164
vn 0.9555 -0.0025 0.2949
s 1
f 3//1 1//2 2//3
f 4//4 5//5 6//6
f 6//6 5//5 8//7
f 1//2 10//8 7//9
f 10//8 1//2 3//1
f 11//10 12//11 13//12
f 13//12 4//13 11//10
f 10//8 3//1 14//14
f 3//1 2//3 15//15
f 16//16 17//17 18//18
f 5//5 16//16 18//18
f 16//16 5//5 4//4
f 15//15 20//19 21//20
f 12//11 22//21 13//12
f 22//21 12//11 23//22
f 7//9 23//22 9//23
f 13//12 22//21 24//24
f 24//24 22//21 25//25
f 19//26 21//20 20//19
f 19//26 13//12 24//24
f 26//27 23//22 10//8
f 10//8 23//22 7//9
f 15//15 27//28 3//1
f 14//14 3//1 27//28
f 27//28 26//27 14//14
f 15//15 28//29 27//28
f 21//20 28//29 15//15
f 24//24 21//20 19//26
f 24//24 29//30 21//20
f 30//31 22//21 23//22
f 22//21 30//31 25//25
f 30//31 23//22 34//32
f 24//24 31//33 29//30
f 25//25 32//34 24//24
f 21//20 33//35 28//29
f 34//32 23//22 26//27
f 27//28 34//32 26//27
f 35//36 28//29 33//35
f 34//32 27//28 36//37
f 33//35 21//20 29//30
f 29//30 31//33 32//34
f 33//35 29//30 37//38
f 38//39 33//35 37//38
f 39//40 30//31 34//32
f 27//28 28//29 35//36
f 27//28 35//36 40//41
f 36//37 27//28 40//41
f 39//40 34//32 36//37
f 36//37 40//41 39//40
f 39//40 40//41 35//36
f 35//36 38//39 39//40
f 38//39 41//42 39//40
f 30//31 39//40 41//42
f 38//39 35//36 33//35
f 29//30 32//34 42//43
f 42//43 37//38 29//30
f 42//43 32//34 25//25
f 37//38 42//43 38//39
f 41//42 38//39 42//43
f 25//25 30//31 41//42
f 42//43 25//25 41//42
