# Blender v2.78 (sub 0) OBJ File: 'exporter.blend'
# www.blender.org
o FJ3484.obj_grp1.2104
v 0.068955 -0.419326 4.233666
v 0.064628 -0.396207 4.229805
v 0.069394 -0.419272 4.233902
v 0.064988 -0.393032 4.230414
v 0.064277 -0.402755 4.229928
v 0.075376 -0.425646 4.233245
v 0.075420 -0.425759 4.233214
v 0.092469 -0.422041 4.242753
v 0.088176 -0.431906 4.239332
v 0.082378 -0.429841 4.236500
v 0.088211 -0.428558 4.241124
v 0.088950 -0.430868 4.239786
v 0.153542 -0.357750 4.109825
v 0.097061 -0.365215 4.186607
v 0.073658 -0.375318 4.231136
v 0.073781 -0.376396 4.229841
v 0.127443 -0.340064 4.154068
v 0.087771 -0.366012 4.237099
v 0.088607 -0.367085 4.236448
v 0.095580 -0.429838 4.239899
v 0.088950 -0.430868 4.239786
v 0.095522 -0.430149 4.239786
v 0.102095 -0.425759 4.245251
v 0.095522 -0.430149 4.239786
v 0.102095 -0.425759 4.245251
v 0.115033 -0.413198 4.248996
v 0.117760 -0.403237 4.249621
v 0.108588 -0.423002 4.246347
v 0.108667 -0.422755 4.246358
v 0.121764 -0.382429 4.249185
v 0.163141 -0.336107 4.093877
v 0.095334 -0.361527 4.236886
v 0.112026 -0.366766 4.244137
v 0.095855 -0.362648 4.236336
v 0.105809 -0.362288 4.238945
v 0.105805 -0.361930 4.239142
v 0.111986 -0.366468 4.243690
v 0.115318 -0.413799 4.248946
v 0.117760 -0.403237 4.249621
v 0.160692 -0.376777 4.188197
v 0.151967 -0.385355 4.149270
v 0.126493 -0.389508 4.245810
v 0.121099 -0.399203 4.248485
v 0.122004 -0.399332 4.249087
v 0.122190 -0.382461 4.249656
v 0.161397 -0.330089 4.161348
v 0.185324 -0.337395 4.147281
v 0.173407 -0.322631 4.095650
v 0.150599 -0.327367 4.149194
v 0.174888 -0.706600 3.778425
v 0.165468 -0.700245 3.779502
v 0.157011 -0.688660 3.779713
v 0.153468 -0.675189 3.784191
v 0.159115 -0.678229 3.777819
v 0.157011 -0.688660 3.779713
v 0.157011 -0.688660 3.779713
v 0.165949 -0.700359 3.779721
v 0.168661 -0.661656 3.833554
v 0.159854 -0.651601 3.789071
v 0.199819 -0.667700 3.784321
v 0.160656 -0.634141 3.839688
v 0.164836 -0.619323 3.834597
v 0.168833 -0.617868 3.864998
v 0.173238 -0.614590 3.828752
v 0.160607 -0.384770 4.167860
v 0.168757 -0.373203 4.117097
v 0.178853 -0.344435 4.063113
v 0.181313 -0.705842 3.779004
v 0.184251 -0.706603 3.779713
v 0.186664 -0.660280 3.841658
v 0.192480 -0.702122 3.779195
v 0.192497 -0.701879 3.779729
v 0.197019 -0.694561 3.779966
v 0.193842 -0.612564 3.827432
v 0.179955 -0.628605 3.870735
v 0.202309 -0.613762 3.882395
v 0.218289 -0.496569 3.878958
v 0.198031 -0.502819 3.903989
v 0.179777 -0.603371 3.881559
v 0.191073 -0.604766 3.887460
v 0.196635 -0.525003 3.874785
v 0.178853 -0.344435 4.063113
v 0.181313 -0.358595 4.071324
v 0.187618 -0.367930 4.083637
v 0.197428 -0.369491 4.086366
v 0.201420 -0.365466 4.107163
v 0.196180 -0.348837 4.137730
v 0.186610 -0.334780 4.049896
v 0.195975 -0.347136 4.018678
v 0.186600 -0.334779 4.050231
v 0.214371 -0.334249 4.003198
v 0.193879 -0.320321 4.094670
v 0.197019 -0.694561 3.779966
v 0.201319 -0.690855 3.783408
v 0.202617 -0.655709 3.834881
v 0.201144 -0.690824 3.783407
v 0.204577 -0.674687 3.786862
v 0.206542 -0.639404 3.817780
v 0.212805 -0.611967 3.874051
v 0.213026 -0.632583 3.842035
v 0.213991 -0.610482 3.838408
v 0.245007 -0.497072 3.885859
v 0.217271 -0.456037 3.933337
v 0.216735 -0.429593 3.918372
v 0.231983 -0.375599 3.939309
v 0.215743 -0.397213 3.947135
v 0.218836 -0.362580 3.954649
v 0.223291 -0.399439 3.969270
v 0.213780 -0.380412 3.980958
v 0.210741 -0.358407 3.969859
v 0.210228 -0.373357 4.013299
v 0.224211 -0.379508 4.016341
v 0.226175 -0.353123 4.079124
v 0.206721 -0.326722 4.098867
v 0.214410 -0.336706 4.101689
v 0.242704 -0.492124 3.923883
v 0.266059 -0.422762 3.947236
v 0.230389 -0.440823 3.947861
v 0.251622 -0.409607 3.967741
v 0.252964 -0.409687 3.922155
v 0.259483 -0.390024 3.940078
v 0.227441 -0.388010 3.991201
v 0.224211 -0.379508 4.016341
v 0.240499 -0.381787 4.001271
v 0.226852 -0.343079 3.980799
v 0.251962 -0.370585 4.002834
v 0.248116 -0.350205 4.021491
v 0.239976 -0.341120 4.003862
v 0.268751 -0.418241 3.932606
v 0.269276 -0.409645 3.944942
v 0.257978 -0.367387 3.975276
vn -0.6197 0.0207 0.7846
vn -0.4082 -0.0548 0.9113
vn -0.3223 0.0939 0.9420
vn -0.2937 -0.0225 0.9556
vn -0.5296 -0.5081 0.6793
vn -0.6012 -0.6135 0.5120
vn -0.2748 -0.3494 0.8958
vn -0.4404 -0.5516 0.7084
vn -0.8043 -0.0484 -0.5922
vn -0.6518 -0.4961 -0.5736
vn -0.6493 -0.3852 -0.6557
vn -0.3174 0.0830 0.9447
vn -0.8317 0.3622 -0.4209
vn -0.7312 0.6591 -0.1756
vn -0.6800 0.6901 -0.2477
vn -0.5503 0.8347 -0.0214
vn 0.0533 -0.4876 0.8714
vn 0.0805 -0.3989 0.9135
vn -0.3811 -0.4409 0.8126
vn -0.2312 -0.2374 0.9435
vn -0.2531 0.0010 0.9674
vn -0.1577 0.0323 0.9870
vn 0.3376 -0.9210 -0.1944
vn 0.6060 -0.7953 0.0129
vn 0.3411 -0.8975 0.2797
vn -0.0228 -0.2266 0.9737
vn -0.3005 0.0860 0.9499
vn -0.8198 0.3079 -0.4828
vn -0.3522 0.9253 0.1409
vn -0.3240 0.1840 0.9280
vn -0.3352 0.0947 0.9374
vn -0.2706 0.4950 0.8257
vn -0.2315 0.5882 0.7749
vn -0.2957 -0.7134 -0.6353
vn 0.0830 -0.9252 -0.3703
vn 0.0273 -0.8745 -0.4843
vn 0.8172 -0.5031 0.2812
vn 0.7264 -0.2623 0.6353
vn 0.4928 -0.1715 0.8531
vn 0.1681 -0.0466 0.9847
vn 0.7777 -0.0813 0.6234
vn 0.8240 -0.4537 0.3395
vn 0.6964 0.2867 0.6579
vn 0.8779 -0.0437 0.4768
vn 0.2460 0.8735 0.4202
vn 0.4281 0.7090 0.5604
vn 0.0997 0.8967 0.4312
vn 0.6607 0.5563 0.5041
vn -0.4333 0.8818 -0.1864
vn -0.2408 0.9681 0.0691
vn -0.2607 -0.2105 -0.9422
vn 0.0353 0.0531 -0.9980
vn -0.2004 -0.2140 -0.9561
vn -0.3005 0.1707 -0.9384
vn -0.9689 0.0315 -0.2454
vn -0.7415 0.0279 -0.6704
vn -0.4517 -0.7094 0.5410
vn -0.5770 -0.5867 0.5682
vn -0.8086 -0.4432 0.3870
vn -0.5573 0.5557 -0.6169
vn 0.4542 0.3467 -0.8207
vn -0.9695 -0.0355 0.2424
vn -0.8630 0.4566 -0.2164
vn -0.3999 0.6348 -0.6612
vn 0.5578 -0.8288 0.0440
vn -0.2193 -0.8894 -0.4010
vn -0.8940 0.1129 -0.4336
vn -0.0354 -0.8345 0.5499
vn -0.0141 0.1062 -0.9942
vn 0.1247 -0.7482 0.6517
vn 0.1313 -0.3789 -0.9161
vn 0.4240 -0.7622 0.4891
vn 0.0982 0.1188 -0.9880
vn 0.1655 0.5187 -0.8388
vn -0.8726 -0.1001 0.4780
vn -0.3686 -0.5358 0.7597
vn 0.3028 -0.5416 0.7843
vn -0.1929 -0.3629 0.9116
vn -0.1169 0.4431 -0.8888
vn -0.9641 0.1405 0.2254
vn -0.6647 -0.1316 0.7354
vn -0.7267 0.4733 -0.4979
vn -0.8278 -0.3863 -0.4068
vn -0.7197 -0.5817 -0.3790
vn -0.3581 -0.9133 -0.1938
vn 0.0036 -0.9978 0.0664
vn 0.5558 -0.8030 0.2149
vn -0.6247 0.7070 -0.3316
vn -0.9375 -0.2013 -0.2837
vn -0.5387 0.7804 -0.3176
vn -0.2325 0.9103 -0.3425
vn 0.1595 0.9866 0.0343
vn 0.5649 0.7873 0.2473
vn 0.7962 -0.5138 0.3195
vn 0.7572 -0.4613 -0.4624
vn 0.7194 -0.5536 0.4196
vn 0.6156 0.0686 -0.7850
vn 0.9057 -0.0137 -0.4237
vn 0.7845 0.3513 -0.5110
vn 0.7573 -0.4508 0.4725
vn 0.9608 -0.2756 0.0302
vn 0.7743 0.1335 -0.6185
vn 0.7308 0.1148 -0.6728
vn -0.8263 0.0255 0.5626
vn -0.8791 0.2733 -0.3905
vn -0.0065 0.6521 -0.7581
vn -0.9915 -0.0759 0.1061
vn -0.4801 0.6055 -0.6347
vn -0.6035 -0.6261 0.4937
vn -0.8631 -0.4903 0.1211
vn -0.8617 0.3521 -0.3653
vn -0.6659 -0.7460 -0.0119
vn -0.3775 -0.9235 0.0684
vn 0.8890 -0.2385 0.3909
vn 0.8483 0.3683 0.3806
vn 0.3978 -0.4288 0.8111
vn 0.8389 -0.2978 0.4555
vn -0.4259 -0.3441 0.8368
vn 0.3102 -0.5672 0.7630
vn 0.3579 0.4339 -0.8268
vn -0.2767 -0.8617 0.4252
vn 0.0736 -0.9862 0.1481
vn 0.3741 -0.7744 0.5103
vn 0.1418 0.8740 -0.4648
vn 0.6495 0.5652 -0.5087
vn 0.8299 0.5294 -0.1760
vn 0.7519 -0.4725 0.4598
vn 0.9102 0.3645 0.1967
vn 0.5585 0.8199 -0.1257
vn 0.9286 0.0966 -0.3582
vn 0.9881 0.0701 0.1371
s 1
f 5//1 3//2 4//3
f 3//2 8//4 4//3
f 10//5 3//2 7//6
f 3//2 10//5 11//7
f 3//2 11//7 8//4
f 11//7 10//5 12//8
f 2//9 13//10 1//11
f 15//12 4//3 8//4
f 14//13 2//9 16//14
f 17//15 14//13 16//14
f 18//16 17//15 16//14
f 11//7 21//17 22//18
f 22//18 8//4 11//7
f 8//4 24//19 25//20
f 25//20 26//21 8//4
f 8//4 26//21 27//22
f 20//23 28//24 23//25
f 25//20 29//26 26//21
f 8//4 27//22 30//27
f 31//28 2//9 14//13
f 17//15 18//16 32//29
f 33//30 15//12 8//4
f 33//30 19//31 15//12
f 33//30 34//32 19//31
f 35//33 34//32 33//30
f 30//27 33//30 8//4
f 1//11 13//10 6//34
f 6//34 41//35 9//36
f 9//36 41//35 20//23
f 20//23 41//35 28//24
f 38//37 43//38 39//39
f 30//27 27//22 44//40
f 42//41 38//37 40//42
f 43//38 38//37 42//41
f 42//41 45//43 43//38
f 45//43 42//41 87//44
f 13//10 2//9 31//28
f 14//13 17//15 31//28
f 46//45 37//46 45//43
f 37//46 46//45 36//47
f 47//48 46//45 45//43
f 87//44 47//48 45//43
f 31//28 17//15 48//49
f 49//50 32//29 46//45
f 49//50 17//15 32//29
f 46//45 32//29 36//47
f 52//51 50//52 51//53
f 54//54 50//52 52//51
f 53//55 54//54 55//56
f 57//57 58//58 56//59
f 59//60 54//54 53//55
f 54//54 59//60 60//61
f 53//55 61//62 59//60
f 62//63 59//60 61//62
f 53//55 58//58 61//62
f 53//55 56//59 58//58
f 64//64 59//60 62//63
f 6//34 13//10 41//35
f 41//35 65//65 28//24
f 28//24 65//65 40//42
f 28//24 40//42 38//37
f 40//42 87//44 42//41
f 41//35 13//10 66//66
f 13//10 31//28 67//67
f 48//49 17//15 49//50
f 68//68 58//58 57//57
f 60//61 71//69 50//52
f 58//58 68//68 70//70
f 69//71 50//52 71//69
f 68//68 72//72 70//70
f 73//73 71//69 60//61
f 60//61 50//52 54//54
f 74//74 60//61 59//60
f 58//58 63//75 61//62
f 58//58 70//70 75//76
f 74//74 59//60 64//64
f 58//58 75//76 63//75
f 75//76 70//70 76//77
f 75//76 76//77 80//78
f 74//74 64//64 77//79
f 63//75 78//80 61//62
f 79//81 63//75 75//76
f 80//78 79//81 75//76
f 63//75 79//81 78//80
f 79//81 80//78 78//80
f 61//62 78//80 62//63
f 62//63 81//82 64//64
f 64//64 81//82 77//79
f 82//83 83//84 13//10
f 66//66 13//10 83//84
f 83//84 84//85 66//66
f 66//66 84//85 85//86
f 86//87 65//65 41//35
f 66//66 86//87 41//35
f 66//66 85//86 86//87
f 86//87 40//42 65//65
f 67//67 31//28 88//88
f 89//89 83//84 82//83
f 48//49 90//90 31//28
f 48//49 91//91 90//90
f 92//92 46//45 114//93
f 46//45 47//48 114//93
f 48//49 49//50 92//92
f 92//92 49//50 46//45
f 94//94 72//72 93//95
f 94//94 95//96 72//72
f 60//61 96//97 73//73
f 97//98 96//97 60//61
f 72//72 95//96 70//70
f 60//61 98//99 97//98
f 94//94 97//98 95//96
f 76//77 70//70 95//96
f 99//100 76//77 95//96
f 95//96 97//98 100//101
f 60//61 74//74 98//99
f 74//74 101//102 98//99
f 97//98 98//99 100//101
f 98//99 101//102 100//101
f 99//100 95//96 100//101
f 74//74 102//103 101//102
f 78//80 81//82 62//63
f 78//80 80//78 103//104
f 104//105 81//82 78//80
f 81//82 104//105 77//79
f 77//79 104//105 105//106
f 78//80 103//104 104//105
f 103//104 106//107 104//105
f 106//107 107//108 104//105
f 106//107 108//109 109//110
f 106//107 109//110 110//111
f 109//110 89//89 110//111
f 111//112 89//89 109//110
f 84//85 83//84 111//112
f 111//112 112//113 84//85
f 85//86 84//85 112//113
f 86//87 113//114 87//44
f 87//44 40//42 86//87
f 91//91 110//111 88//88
f 107//108 110//111 91//91
f 110//111 89//89 88//88
f 88//88 90//90 91//91
f 88//88 89//89 67//67
f 111//112 83//84 89//89
f 92//92 91//91 48//49
f 87//44 115//115 47//48
f 115//115 114//93 47//48
f 115//115 87//44 113//114
f 116//116 76//77 99//100
f 100//101 101//102 102//103
f 99//100 117//117 116//116
f 117//117 99//100 100//101
f 76//77 116//116 80//78
f 74//74 77//79 102//103
f 116//116 118//118 80//78
f 118//118 103//104 80//78
f 116//116 119//119 118//118
f 104//105 107//108 105//106
f 120//120 102//103 77//79
f 120//120 77//79 105//106
f 103//104 118//118 106//107
f 118//118 108//109 106//107
f 108//109 118//118 119//119
f 122//121 111//112 109//110
f 122//121 112//113 111//112
f 122//121 109//110 108//109
f 123//122 122//121 124//123
f 108//109 119//119 122//121
f 119//119 124//123 122//121
f 110//111 107//108 106//107
f 125//124 105//106 107//108
f 125//124 121//125 105//106
f 121//125 125//124 131//126
f 123//122 86//87 85//86
f 124//123 86//87 123//122
f 126//127 86//87 124//123
f 113//114 126//127 127//128
f 113//114 86//87 126//127
f 125//124 107//108 91//91
f 128//129 125//124 91//91
f 128//129 131//126 125//124
f 128//129 91//91 92//92
f 128//129 92//92 114//93
f 128//129 114//93 127//128
f 114//93 115//115 127//128
f 127//128 115//115 113//114
f 100//101 102//103 129//130
f 117//117 100//101 129//130
f 120//120 129//130 102//103
f 116//116 117//117 119//119
f 129//130 120//120 121//125
f 117//117 129//130 130//131
f 117//117 130//131 119//119
f 105//106 121//125 120//120
f 129//130 121//125 130//131
f 131//126 130//131 121//125
f 119//119 126//127 124//123
f 119//119 130//131 126//127
f 130//131 131//126 127//128
f 130//131 127//128 126//127
f 128//129 127//128 131//126
