# Blender v2.78 (sub 0) OBJ File: 'exporter.blend'
# www.blender.org
o FJ3437.obj_grp1.2063
v -0.243673 -0.580106 4.397587
v -0.242577 -0.581732 4.399502
v -0.247564 -0.583122 4.402853
v -0.240016 -0.579439 4.398347
v -0.241548 -0.581698 4.398943
v -0.242930 -0.582299 4.399117
v -0.243673 -0.580106 4.397587
v -0.248448 -0.583540 4.402174
v -0.250220 -0.580256 4.405436
v -0.244051 -0.573698 4.397906
v -0.250220 -0.580256 4.405436
v -0.243673 -0.580106 4.397587
v -0.212069 -0.591274 4.426493
v -0.245405 -0.570375 4.399506
v -0.242359 -0.572846 4.397345
v -0.243416 -0.571522 4.397363
v -0.246586 -0.569980 4.401083
v -0.240016 -0.579439 4.398347
v -0.243673 -0.580106 4.397587
v -0.244051 -0.573698 4.397906
v -0.240016 -0.579439 4.398347
v -0.250254 -0.573214 4.405436
v -0.250220 -0.580256 4.405436
v -0.250671 -0.573524 4.405773
v -0.247876 -0.570731 4.404027
v -0.250254 -0.573214 4.405436
v -0.248227 -0.569986 4.404506
v -0.240016 -0.579439 4.398347
v -0.201616 -0.593087 4.443128
v -0.194396 -0.583295 4.435948
v -0.188976 -0.596378 4.439335
v -0.190440 -0.592394 4.453701
v -0.190172 -0.584203 4.445192
v -0.184390 -0.592265 4.439554
v -0.189219 -0.590927 4.436336
v -0.240016 -0.579439 4.398347
v -0.143754 -0.608110 4.491129
v -0.174667 -0.606619 4.459397
v -0.141373 -0.621117 4.482466
v -0.146496 -0.612596 4.492980
v -0.146274 -0.621251 4.488476
v -0.166501 -0.594541 4.457863
v -0.141474 -0.607738 4.489833
v -0.147890 -0.619212 4.489949
v -0.147881 -0.614058 4.492305
v -0.138311 -0.616479 4.479808
v -0.146307 -0.621100 4.488531
v -0.138643 -0.608451 4.485825
v -0.146472 -0.612649 4.492901
v -0.140425 -0.621025 4.481541
v -0.136792 -0.612668 4.481495
v -0.147881 -0.619217 4.489939
v -0.146307 -0.621100 4.488531
v -0.146472 -0.612649 4.492901
v -0.147881 -0.614058 4.492305
v -0.143497 -0.608436 4.491001
v -0.138644 -0.608461 4.485693
v -0.138780 -0.616762 4.480066
vn -0.1680 -0.7969 -0.5803
vn 0.0841 -0.8571 -0.5082
vn -0.2456 -0.9681 -0.0497
vn 0.1256 -0.3746 -0.9187
vn -0.0155 -0.2435 -0.9698
vn 0.1256 -0.3746 -0.9186
vn 0.2623 -0.4910 -0.8307
vn -0.8129 0.0565 -0.5797
vn -0.8277 -0.0174 -0.5609
vn -0.6213 0.0540 -0.7817
vn -0.6908 -0.0050 -0.7230
vn -0.1307 -0.9850 -0.1125
vn -0.6810 0.0367 -0.7313
vn -0.3081 0.0313 -0.9508
vn -0.2047 -0.2182 -0.9542
vn 0.1930 0.0595 -0.9794
vn -0.7720 -0.0006 -0.6357
vn -0.7828 0.5112 -0.3549
vn -0.7663 0.5196 -0.3779
vn -0.7846 0.5013 -0.3649
vn -0.6447 -0.5973 0.4771
vn -0.4938 -0.7809 0.3826
vn -0.5288 0.2757 0.8027
vn -0.6048 -0.1451 0.7831
vn 0.5250 0.7603 -0.3825
vn 0.4893 0.7558 -0.4351
vn 0.2560 0.9666 -0.0155
vn 0.2298 -0.7394 -0.6329
vn 0.2603 -0.7090 -0.6554
vn -0.0943 0.8734 0.4777
vn 0.1010 0.9457 0.3089
vn -0.5269 0.3375 0.7800
vn 0.6423 0.2352 -0.7295
vn 0.6271 0.3782 -0.6810
vn 0.6145 0.1677 -0.7709
vn -0.1725 0.8112 0.5588
vn -0.2783 -0.9428 -0.1835
vn 0.0093 -0.8500 -0.5267
vn -0.5088 0.4262 0.7480
vn 0.6261 0.6946 -0.3544
vn -0.4504 -0.8914 -0.0498
vn 0.2280 0.9490 0.2176
vn -0.6934 -0.5399 0.4771
vn -0.6928 -0.1104 0.7127
vn 0.6002 -0.1475 -0.7862
vn 0.7265 -0.3088 0.6139
vn 0.7173 -0.3116 0.6232
vn 0.7107 -0.2506 0.6573
vn 0.8155 -0.3324 0.4738
vn 0.6967 -0.3083 0.6477
vn 0.1393 -0.4317 0.8912
vn 0.2446 -0.4417 0.8632
vn 0.1394 -0.4317 0.8912
vn 0.0323 -0.4166 0.9085
vn 0.7061 -0.2437 0.6649
vn 0.8919 -0.4247 -0.1556
vn 0.5850 0.7760 -0.2357
s 1
f 1//1 2//2 3//3
f 4//4 5//5 6//6
f 4//4 6//6 7//7
f 8//8 9//9 10//10
f 8//8 10//10 12//11
f 2//2 13//12 3//3
f 10//10 14//13 15//14
f 18//15 10//10 15//14
f 19//16 20//16 21//16
f 22//17 10//10 9//9
f 10//10 22//17 14//13
f 14//18 26//19 25//20
f 29//21 11//22 3//3
f 24//23 23//24 29//21
f 30//25 16//26 17//27
f 3//3 13//12 29//21
f 2//2 31//28 13//12
f 28//29 31//28 2//2
f 17//27 27//30 33//31
f 24//23 32//32 27//30
f 34//33 31//28 28//29
f 29//21 32//32 24//23
f 17//27 33//31 30//25
f 16//26 35//34 36//35
f 35//34 16//26 30//25
f 27//30 32//32 37//36
f 38//37 13//12 31//28
f 13//12 38//37 29//21
f 31//28 39//38 38//37
f 32//32 40//39 37//36
f 37//36 33//31 27//30
f 33//31 42//40 30//25
f 41//41 29//21 38//37
f 38//37 39//38 41//41
f 42//40 34//33 35//34
f 42//40 35//34 30//25
f 42//40 33//31 43//42
f 41//41 44//43 29//21
f 44//43 45//44 29//21
f 29//21 45//44 32//32
f 31//28 34//33 46//45
f 31//28 46//45 39//38
f 47//46 48//47 49//48
f 50//49 48//47 47//46
f 50//49 51//50 48//47
f 52//51 53//52 54//53
f 52//51 54//53 55//54
f 37//36 43//42 33//31
f 32//32 45//44 40//39
f 48//47 56//55 49//48
f 58//56 51//50 50//49
f 34//33 42//40 46//45
f 42//40 43//42 57//57
f 46//45 42//40 57//57
