# Blender v2.78 (sub 0) OBJ File: 'exporter.blend'
# www.blender.org
o FJ3564.obj_grp1.2153
v -0.095368 -0.538881 6.307870
v -0.098399 -0.531907 6.320501
v -0.089651 -0.536762 6.289764
v -0.087622 -0.545151 6.297002
v -0.091473 -0.530051 6.291719
v -0.092336 -0.524973 6.300139
v -0.074479 -0.514973 6.249236
v -0.075978 -0.510078 6.252916
v -0.074235 -0.502767 6.258422
v -0.083413 -0.550676 6.305576
v -0.091500 -0.545840 6.309257
v -0.097127 -0.540194 6.325774
v -0.092212 -0.546592 6.322417
v -0.085985 -0.550288 6.325252
v -0.097648 -0.534562 6.368341
v -0.100040 -0.528770 6.350376
v -0.081642 -0.543234 6.285355
v -0.074961 -0.545047 6.283759
v -0.099671 -0.522206 6.347828
v -0.096683 -0.515214 6.351870
v -0.089664 -0.520253 6.303586
v -0.069781 -0.519065 6.245005
v -0.065597 -0.525934 6.247309
v -0.087629 -0.516635 6.316054
v -0.083350 -0.515010 6.300173
v -0.069138 -0.510978 6.243957
v -0.059646 -0.524781 6.244589
v -0.058133 -0.516277 6.240851
v -0.063630 -0.508611 6.242145
v -0.072399 -0.505128 6.249188
v -0.066132 -0.502053 6.246280
v -0.066960 -0.497979 6.251991
v -0.065601 -0.495516 6.258895
v -0.076766 -0.552215 6.310097
v -0.084958 -0.544079 6.360402
v -0.091505 -0.541399 6.361358
v -0.071201 -0.548008 6.290551
v -0.055612 -0.529254 6.250297
v -0.092878 -0.510819 6.358084
v -0.088254 -0.508424 6.354306
v -0.077845 -0.514156 6.308404
v -0.078742 -0.514566 6.315555
v -0.052422 -0.524303 6.245763
v -0.056049 -0.508983 6.241560
v -0.058398 -0.504465 6.243041
v -0.059535 -0.497310 6.249586
v -0.053249 -0.497213 6.251740
v -0.077151 -0.551370 6.323754
v -0.075755 -0.544019 6.357883
v -0.067385 -0.549054 6.301111
v -0.069330 -0.549758 6.316392
v -0.096585 -0.520658 6.439246
v -0.060544 -0.543084 6.285614
v -0.069297 -0.515673 6.310139
v -0.075106 -0.514570 6.320824
v -0.067890 -0.518249 6.318872
v -0.078899 -0.506995 6.356651
v -0.049333 -0.527308 6.251508
v -0.071956 -0.509880 6.296047
v -0.063432 -0.515599 6.303371
v -0.047503 -0.514035 6.244601
v -0.049933 -0.509602 6.243548
v -0.050825 -0.502752 6.246310
v -0.048272 -0.499658 6.252487
v -0.054539 -0.494866 6.258190
v -0.061130 -0.495820 6.266527
v -0.053019 -0.496628 6.265781
v -0.085203 -0.542517 6.404309
v -0.092160 -0.535601 6.435789
v -0.062304 -0.545089 6.309427
v -0.085791 -0.506885 6.398383
v -0.058967 -0.523297 6.306715
v -0.063077 -0.524038 6.322218
v -0.072772 -0.509069 6.355820
v -0.045682 -0.525921 6.256011
v -0.045128 -0.520252 6.248985
v -0.040774 -0.516399 6.255394
v -0.042939 -0.508905 6.250641
v -0.046338 -0.499851 6.263944
v -0.042538 -0.504058 6.258781
v -0.074587 -0.543116 6.394994
v -0.066398 -0.540297 6.343720
v -0.068046 -0.539158 6.363244
v -0.062019 -0.542453 6.317083
v -0.061586 -0.534233 6.327723
v -0.093757 -0.513445 6.442534
v -0.061488 -0.528759 6.323646
v -0.041659 -0.519960 6.261842
v -0.055153 -0.529752 6.301501
v -0.040506 -0.511352 6.263427
v -0.043276 -0.505028 6.265555
v -0.086501 -0.538710 6.442791
v -0.078449 -0.539616 6.446306
v -0.095761 -0.527154 6.442364
v -0.090375 -0.533186 6.446669
v -0.095207 -0.520169 6.444936
v -0.093053 -0.514680 6.445982
v -0.092276 -0.515502 6.446787
v -0.090339 -0.508919 6.442480
v -0.064092 -0.533570 6.357158
v -0.085165 -0.505399 6.442210
v -0.062547 -0.526099 6.356850
v -0.063990 -0.517106 6.374139
v -0.075106 -0.506606 6.395014
v -0.068236 -0.511982 6.362698
v -0.087193 -0.536169 6.446627
v -0.084580 -0.534480 6.446681
v -0.072518 -0.539241 6.444487
v -0.087893 -0.525274 6.445839
v -0.083356 -0.517394 6.444652
v -0.089764 -0.510274 6.445767
v -0.089745 -0.510182 6.445849
v -0.078175 -0.506088 6.447450
v -0.077146 -0.507118 6.447665
v -0.059418 -0.519895 6.440390
v -0.078081 -0.503672 6.439754
v -0.078159 -0.539185 6.446063
v -0.073867 -0.537425 6.446483
v -0.079506 -0.529831 6.442061
v -0.075764 -0.528670 6.441336
v -0.079970 -0.523650 6.441357
v -0.075431 -0.523867 6.441085
v -0.066329 -0.536439 6.443440
v -0.069038 -0.532977 6.445626
v -0.066256 -0.533113 6.445811
v -0.069230 -0.522352 6.443769
v -0.060360 -0.528582 6.437996
v -0.071029 -0.508420 6.446937
v -0.071451 -0.505217 6.442437
v -0.067401 -0.508407 6.444429
v -0.062848 -0.529761 6.446032
v -0.064131 -0.513290 6.445944
v -0.063216 -0.529667 6.445709
v -0.063563 -0.510814 6.441254
v -0.064221 -0.513236 6.445767
v -0.060747 -0.518580 6.444929
vn -0.6350 -0.6939 -0.3395
vn -0.9267 -0.2995 -0.2269
vn -0.8310 -0.3534 -0.4296
vn -0.9567 0.0309 -0.2893
vn -0.9899 0.0561 -0.1299
vn -0.9100 0.3809 -0.1636
vn -0.8176 -0.0879 -0.5690
vn -0.9021 0.2260 -0.3675
vn -0.7773 0.6192 -0.1112
vn -0.3342 -0.9255 -0.1781
vn -0.7182 -0.6785 -0.1541
vn -0.9077 -0.4195 -0.0143
vn -0.6636 -0.7481 -0.0032
vn -0.3187 -0.9430 0.0955
vn -0.8683 -0.4933 0.0527
vn -0.9925 -0.1204 0.0212
vn -0.5411 -0.7064 -0.4563
vn -0.1748 -0.8828 -0.4361
vn -0.9611 0.2691 -0.0616
vn -0.7685 0.6342 -0.0847
vn -0.5675 -0.3044 -0.7651
vn -0.3599 -0.6652 -0.6542
vn -0.7574 0.6486 -0.0749
vn -0.0307 -0.6055 -0.7953
vn 0.0413 -0.1706 -0.9845
vn -0.5387 0.0918 -0.8375
vn -0.2635 0.2356 -0.9354
vn -0.7173 0.4428 -0.5379
vn -0.3772 0.5892 -0.7145
vn -0.4935 0.8646 0.0947
vn -0.4400 0.8158 -0.3753
vn -0.3615 0.9320 -0.0256
vn -0.1526 -0.9818 0.1130
vn -0.5166 -0.8502 0.1019
vn 0.0504 -0.9970 -0.0591
vn 0.0816 -0.9527 -0.2926
vn 0.1576 -0.8517 -0.4998
vn -0.3883 0.9147 -0.1122
vn -0.3626 0.9242 -0.1196
vn -0.6505 0.7593 -0.0166
vn -0.0913 0.9883 0.1224
vn -0.0095 0.9981 -0.0608
vn 0.1726 0.2043 -0.9636
vn 0.0185 0.5079 -0.8612
vn -0.0664 0.9544 0.2910
vn -0.0191 0.8491 -0.5280
vn 0.1196 -0.9824 0.1436
vn 0.3046 -0.9463 0.1086
vn 0.4235 -0.9015 -0.0893
vn 0.4819 -0.8676 0.1228
vn -0.9014 -0.2718 0.3371
vn -0.9840 0.1348 0.1168
vn 0.5338 -0.8297 -0.1636
vn 0.3088 0.9462 -0.0971
vn 0.2382 0.9423 0.2353
vn 0.0917 0.9921 -0.0851
vn 0.5266 -0.7293 -0.4368
vn -0.0250 0.9308 0.3648
vn 0.5140 0.7563 0.4049
vn 0.3537 -0.5447 -0.7603
vn 0.5993 -0.0688 -0.7976
vn 0.4788 0.2245 -0.8487
vn 0.4320 0.5605 -0.7066
vn 0.3069 0.8517 -0.4247
vn 0.6228 0.7030 -0.3435
vn 0.2429 0.9670 -0.0763
vn -0.2863 -0.9551 0.0760
vn 0.7378 -0.6689 0.0907
vn -0.3102 0.9504 -0.0244
vn 0.6100 0.7855 0.1039
vn 0.8280 0.4288 0.3612
vn 0.4617 0.8817 -0.0970
vn 0.7383 -0.3535 -0.5745
vn 0.7542 -0.6328 -0.1754
vn 0.9603 -0.1401 -0.2410
vn 0.8586 0.2465 -0.4495
vn 0.8637 0.4965 -0.0866
vn 0.6394 0.7273 0.2493
vn 0.3111 0.8871 0.3408
vn 0.3071 -0.9510 0.0354
vn -0.7471 -0.6536 0.1205
vn 0.7527 -0.6407 0.1512
vn 0.6903 -0.7220 0.0460
vn 0.8560 -0.4936 0.1538
vn -0.8617 0.4692 0.1932
vn 0.9314 -0.3585 0.0629
vn 0.9726 -0.1658 0.1629
vn 0.9507 0.0304 0.3085
vn 0.9551 0.2393 0.1750
vn 0.8594 0.5045 0.0829
vn 0.9817 0.1052 0.1588
vn 0.8273 0.4419 0.3468
vn -0.4222 -0.8702 0.2538
vn -0.4831 -0.3805 0.7886
vn -0.2655 -0.6516 0.7106
vn -0.8105 0.0712 0.5814
vn -0.3246 0.0071 0.9458
vn -0.7302 0.3193 0.6040
vn 0.9219 -0.3856 0.0369
vn -0.6825 0.7113 0.1679
vn -0.3722 0.8940 0.2495
vn 0.9977 -0.0667 0.0122
vn 0.9153 0.3986 -0.0585
vn 0.1987 0.9789 -0.0472
vn 0.6989 0.7146 -0.0306
vn -0.2754 -0.5387 0.7962
vn 0.3253 0.0035 0.9456
vn 0.1614 0.1603 0.9738
vn 0.2778 -0.2474 0.9283
vn -0.9032 0.3093 0.2975
vn -0.5189 0.4774 0.7091
vn -0.0259 0.6345 0.7725
vn 0.0719 0.0322 0.9969
vn 0.9826 0.1251 0.1374
vn -0.0345 -0.0947 0.9949
vn 0.1953 -0.1007 0.9756
vn 0.2566 0.3274 0.9094
vn -0.1365 0.2432 0.9603
vn 0.2770 -0.1040 0.9552
vn -0.1603 -0.1284 0.9787
vn 0.0018 0.9968 0.0802
vn 0.3099 -0.8556 0.4145
vn 0.6123 -0.7058 0.3563
vn -0.1596 0.2787 0.9470
vn 0.2146 -0.2998 0.9295
vn -0.3399 -0.0572 0.9387
vn 0.9304 -0.3571 0.0827
vn 0.2227 0.3610 0.9056
vn 0.3868 0.8951 0.2218
vn 0.5626 0.7023 0.4362
vn 0.6218 -0.3381 0.7064
vn 0.5469 0.2172 0.8085
vn -0.2318 0.0789 0.9696
vn 0.7567 0.6405 0.1310
vn 0.7504 0.5666 0.3404
vn 0.7546 0.1151 0.6461
s 1
f 4//1 1//2 3//3
f 3//3 1//2 5//4
f 1//2 2//5 5//4
f 2//5 6//6 5//4
f 3//3 5//4 7//7
f 7//7 5//4 8//8
f 5//4 6//6 8//8
f 9//9 8//8 6//6
f 4//1 10//10 11//11
f 12//12 11//11 13//13
f 10//10 13//13 11//11
f 13//13 10//10 14//14
f 13//13 15//15 12//12
f 15//15 16//16 12//12
f 17//17 18//18 10//10
f 4//1 17//17 10//10
f 1//2 4//1 11//11
f 11//11 12//12 1//2
f 12//12 2//5 1//2
f 12//12 16//16 2//5
f 2//5 16//16 19//19
f 3//3 17//17 4//1
f 2//5 19//19 6//6
f 20//20 6//6 19//19
f 17//17 22//21 23//22
f 22//21 17//17 3//3
f 3//3 7//7 22//21
f 6//6 21//23 9//9
f 23//22 22//21 27//24
f 27//24 22//21 28//25
f 22//21 26//26 28//25
f 29//27 28//25 26//26
f 7//7 8//8 30//28
f 22//21 7//7 26//26
f 30//28 26//26 7//7
f 31//29 29//27 26//26
f 9//9 30//28 8//8
f 21//23 25//30 9//9
f 31//29 26//26 30//28
f 9//9 32//31 30//28
f 32//31 31//29 30//28
f 32//31 9//9 33//32
f 14//14 35//33 36//34
f 34//35 14//14 10//10
f 36//34 13//13 14//14
f 15//15 13//13 36//34
f 18//18 37//36 10//10
f 34//35 10//10 37//36
f 37//36 18//18 38//37
f 18//18 17//17 23//22
f 38//37 18//18 23//22
f 6//6 20//20 21//23
f 20//20 24//38 21//23
f 20//20 40//39 24//38
f 20//20 39//40 40//39
f 41//41 24//38 42//42
f 42//42 24//38 40//39
f 24//38 25//30 21//23
f 41//41 25//30 24//38
f 38//37 23//22 27//24
f 28//25 29//27 44//43
f 44//43 29//27 45//44
f 33//32 25//30 66//45
f 45//44 29//27 31//29
f 32//31 46//46 31//29
f 45//44 31//29 46//46
f 25//30 33//32 9//9
f 32//31 33//32 46//46
f 48//47 14//14 34//35
f 48//47 35//33 14//14
f 35//33 48//47 49//48
f 50//49 51//50 34//35
f 34//35 51//50 48//47
f 94//51 52//52 16//16
f 53//53 50//49 37//36
f 34//35 37//36 50//49
f 37//36 38//37 53//53
f 55//54 54//55 42//42
f 57//56 42//42 40//39
f 58//57 53//53 38//37
f 41//41 42//42 54//55
f 54//55 59//58 41//41
f 59//58 54//55 60//59
f 43//60 38//37 27//24
f 58//57 38//37 43//60
f 41//41 59//58 25//30
f 43//60 27//24 28//25
f 61//61 43//60 28//25
f 28//25 44//43 62//62
f 61//61 28//25 62//62
f 25//30 59//58 66//45
f 63//63 44//43 45//44
f 44//43 63//63 62//62
f 46//46 63//63 45//44
f 63//63 46//46 47//64
f 64//65 63//63 47//64
f 66//45 65//66 33//32
f 46//46 33//32 65//66
f 47//64 46//46 65//66
f 35//33 68//67 36//34
f 15//15 94//51 16//16
f 70//68 51//50 50//49
f 48//47 51//50 49//48
f 53//53 70//68 50//49
f 20//20 71//69 39//40
f 40//39 39//40 71//69
f 54//55 56//70 60//59
f 72//71 60//59 56//70
f 55//54 56//70 54//55
f 56//70 55//54 74//72
f 57//56 55//54 42//42
f 58//57 43//60 76//73
f 76//73 75//74 58//57
f 76//73 77//75 75//74
f 58//57 75//74 53//53
f 61//61 76//73 43//60
f 61//61 62//62 78//76
f 78//76 62//62 63//63
f 76//73 61//61 78//76
f 59//58 60//59 66//45
f 64//65 78//76 63//63
f 64//65 80//77 78//76
f 65//66 64//65 47//64
f 79//78 64//65 65//66
f 65//66 66//45 67//79
f 67//79 79//78 65//66
f 60//59 67//79 66//45
f 67//79 60//59 79//78
f 35//33 81//80 68//67
f 36//34 69//81 15//15
f 69//81 36//34 68//67
f 15//15 69//81 94//51
f 82//82 83//83 49//48
f 52//52 19//19 16//16
f 82//82 51//50 84//84
f 49//48 51//50 82//82
f 51//50 70//68 84//84
f 19//19 86//85 20//20
f 70//68 88//86 84//84
f 85//87 84//84 89//88
f 85//87 89//88 87//89
f 87//89 89//88 72//71
f 87//89 72//71 73//90
f 57//56 40//39 71//69
f 84//84 90//91 89//88
f 72//71 56//70 73//90
f 55//54 57//56 74//72
f 90//91 84//84 88//86
f 70//68 53//53 75//74
f 70//68 75//74 88//86
f 75//74 77//75 88//86
f 90//91 72//71 89//88
f 90//91 91//92 72//71
f 72//71 91//92 60//59
f 78//76 77//75 76//73
f 88//86 77//75 90//91
f 78//76 80//77 77//75
f 90//91 77//75 80//77
f 90//91 80//77 91//92
f 80//77 79//78 91//92
f 79//78 60//59 91//92
f 64//65 79//78 80//77
f 92//93 95//94 69//81
f 81//80 93//95 68//67
f 49//48 83//83 81//80
f 81//80 35//33 49//48
f 52//52 94//51 96//96
f 95//94 96//96 94//51
f 96//96 98//97 97//98
f 52//52 86//85 19//19
f 96//96 86//85 52//52
f 86//85 96//96 97//98
f 82//82 100//99 83//83
f 20//20 99//100 101//101
f 86//85 99//100 20//20
f 82//82 84//84 85//87
f 100//99 85//87 102//102
f 87//89 102//102 85//87
f 85//87 100//99 82//82
f 20//20 101//101 71//69
f 87//89 103//103 102//102
f 71//69 104//104 57//56
f 73//90 56//70 105//105
f 87//89 73//90 103//103
f 74//72 105//105 56//70
f 73//90 105//105 103//103
f 104//104 74//72 57//56
f 92//93 69//81 68//67
f 106//106 95//94 92//93
f 95//94 94//51 69//81
f 95//94 109//107 98//97
f 95//94 107//108 109//107
f 95//94 98//97 96//96
f 98//97 109//107 110//109
f 111//110 99//100 86//85
f 111//110 86//85 97//98
f 112//111 97//98 98//97
f 113//112 112//111 98//97
f 111//110 112//111 99//100
f 98//97 114//113 113//112
f 112//111 101//101 99//100
f 102//102 103//103 115//114
f 104//104 105//105 74//72
f 92//93 68//67 93//95
f 95//94 106//106 107//108
f 117//115 106//106 92//93
f 106//106 118//116 107//108
f 92//93 93//95 117//115
f 117//115 118//116 106//106
f 119//117 109//107 107//108
f 119//117 107//108 118//116
f 118//116 120//118 119//117
f 109//107 119//117 121//119
f 119//117 120//118 121//119
f 121//119 120//118 122//120
f 109//107 121//119 110//109
f 98//97 110//109 114//113
f 114//113 110//109 121//119
f 113//112 116//121 101//101
f 113//112 101//101 112//111
f 116//121 104//104 71//69
f 71//69 101//101 116//121
f 108//122 81//80 123//123
f 108//122 93//95 81//80
f 123//123 118//116 108//122
f 108//122 118//116 117//115
f 124//124 120//118 118//116
f 125//125 124//124 118//116
f 83//83 123//123 81//80
f 126//126 122//120 120//118
f 126//126 120//118 124//124
f 100//99 127//127 83//83
f 126//126 114//113 122//120
f 121//119 122//120 114//113
f 114//113 126//126 128//128
f 100//99 102//102 115//114
f 113//112 129//129 116//121
f 128//128 113//112 114//113
f 128//128 129//129 113//112
f 130//130 129//129 128//128
f 104//104 129//129 105//105
f 129//129 104//104 116//121
f 123//123 125//125 118//116
f 123//123 131//131 125//125
f 123//123 83//83 127//127
f 131//131 123//123 127//127
f 125//125 126//126 124//124
f 126//126 125//125 132//132
f 133//133 132//132 125//125
f 103//103 134//134 115//114
f 134//134 130//130 135//135
f 132//132 136//136 135//135
f 128//128 126//126 132//132
f 135//135 130//130 128//128
f 129//129 134//134 105//105
f 129//129 130//130 134//134
f 134//134 103//103 105//105
f 127//127 100//99 115//114
f 131//131 127//127 115//114
f 131//131 115//114 136//136
f 133//133 136//136 132//132
f 133//133 131//131 136//136
f 115//114 134//134 136//136
f 136//136 134//134 135//135
