# Blender v2.78 (sub 0) OBJ File: 'exporter.blend'
# www.blender.org
o FJ3523.obj_grp1.2128
v 0.056246 -0.316885 4.132823
v 0.051955 -0.342488 4.178780
v 0.061589 -0.349193 4.174385
v 0.055569 -0.343419 4.181638
v 0.055060 -0.306613 4.147991
v 0.050936 -0.335814 4.181931
v 0.054820 -0.332535 4.185270
v 0.054007 -0.301342 4.121187
v 0.061664 -0.308471 4.159420
v 0.051466 -0.335811 4.181293
v 0.070660 -0.332194 4.186055
v 0.060011 -0.323095 4.137789
v 0.069435 -0.345484 4.179421
v 0.067129 -0.346812 4.178267
v 0.071296 -0.343919 4.172188
v 0.068198 -0.324736 4.182478
v 0.074304 -0.339703 4.179769
v 0.076884 -0.308132 4.135831
v 0.062449 -0.290105 4.118015
v 0.071914 -0.292184 4.123005
v 0.064515 -0.286484 4.076592
v 0.067079 -0.292339 4.072562
v 0.073422 -0.296333 4.071035
v 0.074647 -0.312703 4.127402
v 0.069018 -0.280841 4.075033
v 0.078938 -0.278771 4.082484
v 0.079101 -0.296108 4.071280
v 0.084969 -0.285247 4.074445
v 0.085270 -0.291502 4.075053
v 0.073536 -0.278821 4.076128
v 0.078658 -0.280238 4.075544
v 0.077981 -0.280004 4.075446
vn -0.0853 -0.9939 -0.0695
vn -0.2967 -0.6437 0.7055
vn -0.8513 -0.5015 0.1543
vn -0.7466 0.6091 0.2674
vn -0.9574 0.2494 0.1458
vn -0.4983 0.2342 0.8348
vn -0.9804 0.1625 -0.1116
vn -0.1165 0.8431 0.5249
vn -0.6221 -0.2813 0.7306
vn -0.7922 -0.4899 -0.3640
vn 0.5417 0.0711 0.8375
vn -0.2427 -0.7938 -0.5577
vn 0.1767 -0.5380 0.8242
vn 0.6875 -0.6747 -0.2685
vn 0.3572 0.6731 0.6476
vn 0.8849 -0.2446 0.3964
vn 0.5651 -0.8248 -0.0192
vn 0.9863 0.1362 0.0933
vn -0.4218 0.8781 0.2260
vn 0.4856 0.7854 0.3838
vn -0.8882 0.3027 -0.3456
vn -0.6112 -0.1739 -0.7722
vn -0.1641 -0.4664 -0.8692
vn 0.7048 -0.6633 -0.2516
vn -0.4352 0.7306 -0.5261
vn 0.4059 0.8996 0.1614
vn 0.3783 -0.4967 -0.7812
vn 0.7687 0.3958 -0.5025
vn 0.8817 -0.2579 -0.3951
vn -0.1499 0.9279 -0.3414
vn 0.3208 0.6886 -0.6503
vn 0.2651 0.9412 -0.2096
s 1
f 3//1 4//2 2//3
f 5//4 6//5 7//6
f 5//4 8//7 6//5
f 5//4 7//6 9//8
f 8//7 2//3 6//5
f 10//9 4//2 7//6
f 8//7 1//10 2//3
f 2//3 4//2 10//9
f 4//2 11//11 7//6
f 12//12 3//1 2//3
f 4//2 3//1 13//13
f 12//12 2//3 1//10
f 12//12 15//14 3//1
f 13//13 11//11 4//2
f 16//15 7//6 11//11
f 17//16 11//11 13//13
f 15//14 14//17 3//1
f 14//17 15//14 17//16
f 18//18 17//16 15//14
f 17//16 18//18 11//11
f 8//7 5//4 19//19
f 19//19 5//4 9//8
f 9//8 16//15 20//20
f 20//20 16//15 18//18
f 9//8 7//6 16//15
f 18//18 16//15 11//11
f 21//21 22//22 8//7
f 8//7 22//22 1//10
f 1//10 23//23 12//12
f 24//24 15//14 12//12
f 23//23 24//24 12//12
f 24//24 18//18 15//14
f 25//25 21//21 8//7
f 8//7 19//19 25//25
f 26//26 25//25 19//19
f 26//26 19//19 20//20
f 19//19 9//8 20//20
f 20//20 18//18 26//26
f 23//23 1//10 22//22
f 27//27 23//23 28//28
f 27//27 24//24 23//23
f 24//24 27//27 29//29
f 22//22 21//21 25//25
f 25//25 26//26 30//30
f 23//23 22//22 25//25
f 28//28 23//23 25//25
f 28//28 25//25 31//31
f 31//31 25//25 30//30
f 32//32 30//30 26//26
f 32//32 26//26 31//31
f 26//26 28//28 31//31
f 27//27 28//28 29//29
f 18//18 28//28 26//26
f 24//24 29//29 18//18
f 29//29 28//28 18//18
