# Blender v2.78 (sub 0) OBJ File: 'exporter.blend'
# www.blender.org
o FJ3500.obj_grp1.2113
v -0.067507 -0.634127 5.125729
v -0.061569 -0.636172 5.117759
v -0.065575 -0.642379 5.124678
v -0.063456 -0.631382 5.131783
v -0.057285 -0.622705 5.127798
v -0.065509 -0.641236 5.131092
v -0.050787 -0.646505 5.120342
v -0.060357 -0.646974 5.132461
v -0.056081 -0.621361 5.125809
v -0.056680 -0.622000 5.127211
v -0.056757 -0.627578 5.120507
v -0.054878 -0.626522 5.127657
v -0.056060 -0.621414 5.125826
v -0.054759 -0.625912 5.122660
v -0.056060 -0.621414 5.125826
v -0.054964 -0.621800 5.125008
v -0.054909 -0.623776 5.125122
v -0.054878 -0.626522 5.127657
v -0.046372 -0.631625 5.126765
v -0.054909 -0.623776 5.125122
v -0.043045 -0.638170 5.129843
v -0.035404 -0.646183 5.120631
v -0.054849 -0.646930 5.131319
v -0.039939 -0.632096 5.117852
v -0.051452 -0.627038 5.124465
v -0.046372 -0.631625 5.126765
v -0.041032 -0.630489 5.122734
v -0.051452 -0.627038 5.124465
v -0.041977 -0.629984 5.121424
v -0.022849 -0.636791 5.124588
v -0.036080 -0.645256 5.124823
v -0.013097 -0.632318 5.112914
v -0.036774 -0.629886 5.119241
v -0.036840 -0.629827 5.119206
v -0.014200 -0.626383 5.121736
v -0.024053 -0.625058 5.117157
v 0.006633 -0.619347 5.117245
v 0.011971 -0.626691 5.115639
v 0.029685 -0.615399 5.111125
v 0.009428 -0.618890 5.113122
v 0.004239 -0.769584 5.084475
v 0.003488 -0.769561 5.090548
v 0.005182 -0.757367 5.086246
v 0.004871 -0.759391 5.082683
v 0.004427 -0.761105 5.092690
v 0.004570 -0.762911 5.081857
v 0.005910 -0.759018 5.090194
v 0.008854 -0.766127 5.095293
v 0.020556 -0.777933 5.095448
v 0.005953 -0.758851 5.090168
v 0.027483 -0.610857 5.113121
v 0.011971 -0.626691 5.115639
v 0.012378 -0.622077 5.121336
v 0.023235 -0.614433 5.120862
v 0.039514 -0.598728 5.257555
v 0.033481 -0.596368 5.270749
v 0.028386 -0.591808 5.281717
v 0.033481 -0.596368 5.270749
v 0.028417 -0.585159 5.285202
v 0.031090 -0.584602 5.272979
v 0.034109 -0.579697 5.285424
v 0.034654 -0.596159 5.300884
v 0.036515 -0.593418 5.286752
v 0.037454 -0.594122 5.277669
v 0.036787 -0.596973 5.295483
v 0.031581 -0.586682 5.297595
v 0.040529 -0.599978 5.298286
v 0.040349 -0.587651 5.307273
v 0.040735 -0.599284 5.309722
v 0.005086 -0.757531 5.084241
v 0.013632 -0.762877 5.087029
v 0.021022 -0.780407 5.090398
v 0.033380 -0.622508 5.114794
v 0.011971 -0.626691 5.115639
v 0.030720 -0.623199 5.118225
v 0.033709 -0.618924 5.124182
v 0.068063 -0.611699 5.213552
v 0.062952 -0.617580 5.230249
v 0.032478 -0.594870 5.278123
v 0.038359 -0.600072 5.263613
v 0.042117 -0.602823 5.254459
v 0.038359 -0.600072 5.263613
v 0.042117 -0.602823 5.254459
v 0.042744 -0.593378 5.269698
v 0.040930 -0.585819 5.264857
v 0.039192 -0.586280 5.283545
v 0.040883 -0.586271 5.293212
v 0.041596 -0.597507 5.296933
v 0.044807 -0.610783 5.305993
v 0.045745 -0.604200 5.300772
v 0.049801 -0.626447 5.301785
v 0.046537 -0.589879 5.307838
v 0.055634 -0.602173 5.310135
v 0.052131 -0.602072 5.315480
v 0.051371 -0.614504 5.313815
v 0.050853 -0.787847 5.085546
v 0.033099 -0.777738 5.084376
v 0.033442 -0.773412 5.093527
v 0.033442 -0.773412 5.093527
v 0.035059 -0.777290 5.096344
v 0.034722 -0.615897 5.111777
v 0.034660 -0.615832 5.111883
v 0.038425 -0.611709 5.114803
v 0.061125 -0.624035 5.137393
v 0.039346 -0.626324 5.122013
v 0.072431 -0.614171 5.206601
v 0.054885 -0.651995 5.289246
v 0.054240 -0.649762 5.297596
v 0.052953 -0.619235 5.300956
v 0.054885 -0.651995 5.289246
v 0.061801 -0.644997 5.304776
v 0.058417 -0.624151 5.301499
v 0.063387 -0.662525 5.284792
v 0.060544 -0.628248 5.310988
v 0.060951 -0.615893 5.311806
v 0.058922 -0.790543 5.095052
v 0.055376 -0.785341 5.096814
v 0.047543 -0.617370 5.118959
v 0.048403 -0.628187 5.134809
v 0.051036 -0.631469 5.123325
v 0.058224 -0.623755 5.139376
v 0.061794 -0.616058 5.221314
v 0.061794 -0.616058 5.221314
v 0.065720 -0.603583 5.232968
v 0.065607 -0.611988 5.236693
v 0.057920 -0.662267 5.286946
v 0.070591 -0.681200 5.269998
v 0.072098 -0.682947 5.278120
v 0.054885 -0.651995 5.289246
v 0.056371 -0.651823 5.290812
v 0.057920 -0.662267 5.286946
v 0.061937 -0.650651 5.289802
v 0.063267 -0.659441 5.281939
v 0.067795 -0.659035 5.294532
v 0.061767 -0.644620 5.304034
v 0.069526 -0.660269 5.290920
v 0.066144 -0.646814 5.300138
v 0.064882 -0.643319 5.301593
v 0.057461 -0.784218 5.084997
v 0.069473 -0.794316 5.096013
v 0.035059 -0.777290 5.096344
v 0.059940 -0.780584 5.093949
v 0.057317 -0.781946 5.096796
v 0.059769 -0.783057 5.097155
v 0.063004 -0.630655 5.134451
v 0.060052 -0.638025 5.141471
v 0.057579 -0.629615 5.147247
v 0.064137 -0.633935 5.165261
v 0.064137 -0.633935 5.165261
v 0.070216 -0.625004 5.172373
v 0.066710 -0.628087 5.183313
v 0.068411 -0.620513 5.198968
v 0.071763 -0.618607 5.196192
v 0.067795 -0.626584 5.187581
v 0.065632 -0.619336 5.201277
v 0.070887 -0.632651 5.192202
v 0.065250 -0.616804 5.211925
v 0.075644 -0.619654 5.193862
v 0.074644 -0.631423 5.196137
v 0.073457 -0.616330 5.219954
v 0.072737 -0.625395 5.211785
v 0.095450 -0.739646 5.235624
v 0.070591 -0.681200 5.269998
v 0.076946 -0.677853 5.267745
v 0.079945 -0.677492 5.273029
v 0.081473 -0.679656 5.276054
v 0.063921 -0.780840 5.090707
v 0.072776 -0.784429 5.092010
v 0.071494 -0.792425 5.091799
v 0.062488 -0.786125 5.099180
v 0.062770 -0.786252 5.099348
v 0.067290 -0.784191 5.100710
v 0.068181 -0.789421 5.103433
v 0.070888 -0.639211 5.163102
v 0.077124 -0.629536 5.169068
v 0.078120 -0.630723 5.185546
v 0.075644 -0.619874 5.193382
v 0.075644 -0.619874 5.193382
v 0.071733 -0.618372 5.196762
v 0.078154 -0.628851 5.191739
v 0.090238 -0.716850 5.245090
v 0.076946 -0.677853 5.267745
v 0.100032 -0.723694 5.239702
v 0.089318 -0.703232 5.253520
v 0.100277 -0.727265 5.249650
v 0.096828 -0.737261 5.244610
v 0.081473 -0.679656 5.276054
v 0.081382 -0.789470 5.099014
v 0.067506 -0.784736 5.100387
v 0.079596 -0.784172 5.108597
v 0.079596 -0.784172 5.108597
v 0.068181 -0.789421 5.103433
v 0.068181 -0.789421 5.103433
v 0.076776 -0.787909 5.113573
v 0.083145 -0.795937 5.118221
v 0.083145 -0.795937 5.118221
v 0.100276 -0.723785 5.239013
v 0.086779 -0.795947 5.113240
v 0.099114 -0.788912 5.159210
v 0.087480 -0.788012 5.135215
v 0.087480 -0.788012 5.135215
v 0.091521 -0.785511 5.123492
v 0.091196 -0.785463 5.122727
v 0.095070 -0.784365 5.143492
v 0.093481 -0.796502 5.132123
v 0.114526 -0.754409 5.206806
v 0.104361 -0.750069 5.216169
v 0.104823 -0.758878 5.210855
v 0.112345 -0.747427 5.216433
v 0.103375 -0.727147 5.244694
v 0.107610 -0.733516 5.235380
v 0.103375 -0.727147 5.244694
v 0.106641 -0.788406 5.149424
v 0.099652 -0.781027 5.162914
v 0.105445 -0.777080 5.179057
v 0.106019 -0.789621 5.163372
v 0.107543 -0.773311 5.173684
v 0.107406 -0.773328 5.173288
v 0.104514 -0.777337 5.179157
v 0.108644 -0.768148 5.204589
v 0.106722 -0.769957 5.189626
v 0.106958 -0.769979 5.189785
v 0.116609 -0.770193 5.201138
v 0.106674 -0.766948 5.200706
v 0.106674 -0.766948 5.200706
v 0.113823 -0.762689 5.193054
v 0.108432 -0.768123 5.204978
v 0.107795 -0.753145 5.226713
v 0.112345 -0.747427 5.216433
v 0.117601 -0.760836 5.211209
v 0.111645 -0.778403 5.165261
v 0.114602 -0.780914 5.173383
v 0.114602 -0.780914 5.173383
v 0.118137 -0.767657 5.190988
v 0.117093 -0.762783 5.208980
v 0.111899 -0.778073 5.165488
v 0.118137 -0.767657 5.190988
v 0.114531 -0.754821 5.206714
vn -0.9501 0.2937 -0.1053
vn -0.4357 -0.0111 -0.9000
vn -0.7354 -0.5830 -0.3454
vn -0.7682 -0.2687 0.5811
vn -0.4130 0.4000 0.8182
vn -0.1065 -0.7443 -0.6593
vn -0.2410 -0.7621 0.6010
vn -0.7723 0.5701 -0.2802
vn -0.8529 0.5169 -0.0732
vn -0.2308 0.5718 -0.7873
vn 0.3222 0.2101 0.9230
vn 0.3216 0.4373 0.8398
vn 0.3581 0.6123 -0.7049
vn 0.2871 0.6060 -0.7419
vn 0.8389 0.3449 0.4210
vn 0.7954 0.2981 0.5278
vn 0.8423 0.3171 0.4359
vn 0.8378 0.3756 0.3962
vn 0.3750 0.6599 0.6511
vn 0.4372 0.6131 0.6581
vn 0.2651 0.1577 0.9512
vn 0.1591 -0.9293 -0.3333
vn 0.0160 -0.9995 -0.0275
vn -0.1244 0.4802 -0.8683
vn 0.4918 0.4436 -0.7493
vn 0.5378 0.7605 -0.3638
vn 0.6943 0.5167 -0.5011
vn 0.0842 0.8884 0.4512
vn 0.3356 0.6923 0.6388
vn 0.1793 0.9784 -0.1027
vn 0.2505 -0.1570 0.9553
vn 0.3164 -0.7809 0.5385
vn 0.0657 -0.2794 -0.9579
vn -0.1198 0.3050 -0.9448
vn -0.3155 0.7172 -0.6213
vn -0.0665 0.6186 0.7829
vn -0.2571 0.8971 -0.3595
vn 0.2685 -0.7889 0.5528
vn -0.2074 0.9137 0.3496
vn -0.0205 -0.1478 0.9888
vn -0.2784 0.7110 -0.6457
vn 0.0080 0.0355 -0.9993
vn -0.9948 0.1021 -0.0025
vn -0.8390 -0.4079 0.3601
vn -0.9775 0.2091 0.0284
vn -0.8822 0.2212 0.4156
vn -0.5865 0.2261 -0.7777
vn -0.6873 -0.4938 -0.5327
vn -0.1748 0.1798 0.9680
vn -0.2944 -0.5607 0.7739
vn -0.4165 0.8135 0.4058
vn -0.0689 0.9088 -0.4115
vn 0.2241 -0.6844 -0.6938
vn -0.1981 0.6956 0.6905
vn -0.8867 -0.0717 -0.4567
vn -0.9013 -0.1552 -0.4045
vn -0.9108 -0.4119 -0.0285
vn -0.5419 -0.8355 0.0909
vn -0.2020 -0.9748 0.0950
vn -0.7545 0.5185 -0.4024
vn -0.9227 0.3685 0.1129
vn -0.8381 -0.4643 0.2864
vn 0.4956 -0.8515 0.1710
vn 0.8377 -0.5192 -0.1694
vn -0.2822 -0.9338 -0.2201
vn -0.0038 0.9978 0.0656
vn -0.8167 0.3595 0.4514
vn -0.5869 -0.6751 -0.4468
vn -0.2402 0.6629 0.7091
vn -0.6614 -0.1152 0.7411
vn 0.5026 0.8178 -0.2805
vn 0.5807 0.6681 -0.4652
vn 0.5867 0.6484 0.4852
vn -0.3607 -0.9296 -0.0751
vn 0.5100 0.6373 0.5777
vn -0.0061 -0.7660 -0.6428
vn 0.1895 -0.9806 -0.0498
vn -0.0927 -0.9745 0.2041
vn -0.4012 -0.5185 0.7551
vn -0.7066 0.5345 -0.4636
vn -0.2700 -0.9310 0.2458
vn -0.5129 -0.8555 0.0712
vn -0.5427 -0.8371 0.0690
vn -0.8237 -0.5019 -0.2639
vn -0.8155 -0.1470 -0.5598
vn 0.3694 0.8947 -0.2509
vn 0.8605 -0.1203 0.4951
vn 0.9767 0.2127 0.0278
vn 0.9011 0.3409 -0.2680
vn 0.3871 -0.4094 -0.8262
vn 0.2433 -0.3174 -0.9166
vn -0.8579 -0.5112 -0.0522
vn 0.0075 0.2959 -0.9552
vn -0.6115 0.0574 -0.7891
vn 0.5614 0.7393 0.3718
vn 0.8909 0.4535 -0.0253
vn 0.2179 0.3026 0.9279
vn -0.3908 -0.2876 0.8744
vn -0.1082 -0.6937 -0.7121
vn 0.1334 0.3151 -0.9396
vn 0.4267 0.8869 -0.1772
vn 0.2228 0.6898 0.6889
vn -0.0539 -0.0377 0.9978
vn 0.1856 -0.0454 -0.9816
vn -0.0749 0.6047 -0.7929
vn 0.3813 0.8609 -0.3369
vn 0.6059 0.7798 -0.1577
vn -0.4981 -0.8592 0.1173
vn 0.7268 0.6699 -0.1520
vn -0.9763 -0.2149 -0.0270
vn -0.7550 -0.4583 0.4690
vn -0.6738 0.2131 -0.7075
vn 0.6221 0.3428 -0.7039
vn 0.0572 0.2463 -0.9675
vn -0.4198 -0.4644 0.7798
vn 0.3601 -0.2314 0.9038
vn 0.8759 0.1750 0.4496
vn -0.3481 -0.4338 0.8311
vn -0.1419 -0.2081 0.9678
vn 0.6806 0.3940 -0.6176
vn -0.7262 -0.1241 0.6762
vn 0.2151 -0.7384 -0.6391
vn -0.2636 0.9287 0.2609
vn -0.7000 -0.7140 -0.0162
vn -0.8154 0.2299 -0.5313
vn 0.7421 0.6682 0.0519
vn 0.6798 -0.3824 0.6258
vn -0.8009 -0.5230 0.2916
vn -0.8914 -0.4532 -0.0085
vn -0.5968 -0.6171 0.5129
vn -0.0843 0.3372 -0.9377
vn 0.8304 0.3012 -0.4687
vn 0.9042 0.4243 0.0486
vn 0.7421 0.5111 -0.4336
vn 0.5655 -0.3807 0.7316
vn 0.6380 -0.1608 0.7531
vn 0.7665 -0.1600 0.6220
vn 0.6473 -0.2288 0.7271
vn -0.1406 -0.9892 -0.0409
vn 0.1840 0.6200 0.7628
vn 0.2114 0.8817 0.4219
vn 0.1432 0.8605 0.4889
vn -0.2493 0.2703 0.9299
vn 0.8368 -0.1564 -0.5247
vn -0.9287 0.0660 0.3649
vn -0.0923 -0.9948 -0.0441
vn -0.8607 -0.4430 0.2508
vn 0.0065 0.9919 -0.1271
vn -0.7490 0.6579 -0.0786
vn -0.9208 -0.3025 0.2463
vn -0.7049 0.6300 -0.3261
vn -0.3139 0.8697 -0.3810
vn -0.9140 -0.3803 0.1412
vn -0.9879 -0.0753 -0.1354
vn -0.4531 -0.8717 0.1866
vn -0.8044 0.5021 -0.3175
vn 0.4973 -0.7644 0.4103
vn 0.9552 -0.1010 0.2783
vn 0.0639 -0.9221 0.3817
vn -0.9121 -0.4012 -0.0841
vn -0.5449 0.2889 -0.7872
vn -0.7016 0.1770 -0.6903
vn -0.6071 0.3063 -0.7332
vn -0.4661 0.3332 -0.8196
vn 0.6434 0.6385 -0.4224
vn 0.3447 0.6930 -0.6332
vn 0.8297 0.0572 0.5553
vn 0.2582 0.1680 -0.9514
vn 0.3402 0.6849 -0.6443
vn 0.5493 0.4941 -0.6739
vn 0.3542 -0.6013 -0.7162
vn 0.1487 0.9335 0.3262
vn -0.3503 0.2869 0.8916
vn -0.5401 -0.2864 0.7914
vn -0.5345 0.2891 0.7942
vn -0.5501 -0.7443 0.3787
vn 0.3166 -0.9476 -0.0417
vn 0.9580 0.2600 -0.1207
vn 0.9296 -0.3514 0.1108
vn 0.0036 0.9625 -0.2711
vn 0.4107 0.8556 -0.3150
vn -0.0199 0.9236 -0.3830
vn 0.9816 0.1911 0.0056
vn 0.9606 0.2765 0.0269
vn -0.4474 0.2728 -0.8517
vn -0.1687 0.4514 -0.8762
vn 0.0980 0.6724 -0.7336
vn 0.2071 0.6249 -0.7527
vn -0.2188 -0.6808 0.6990
vn 0.9025 0.4300 -0.0264
vn 0.6142 -0.2566 0.7462
vn 0.8045 0.0144 -0.5937
vn -0.2018 0.8690 0.4518
vn -0.2807 0.9395 0.1963
vn 0.2822 0.9508 -0.1278
vn -0.6504 -0.1570 0.7432
vn -0.6665 0.1221 0.7354
vn -0.8310 -0.1165 0.5439
vn -0.4188 -0.8751 0.2425
vn -0.6389 -0.6887 0.3427
vn 0.7688 0.5990 -0.2239
vn 0.5485 -0.7909 -0.2715
vn -0.6523 -0.6128 0.4461
vn -0.8895 0.2098 0.4060
vn -0.5745 0.7760 0.2604
vn 0.6118 0.7463 -0.2623
vn 0.9147 0.1312 -0.3822
vn -0.4481 0.8938 0.0184
vn 0.1927 -0.9801 0.0484
vn -0.9843 -0.1719 -0.0411
vn -0.6889 0.4058 -0.6006
vn 0.3286 0.7407 -0.5860
vn -0.1620 0.8115 -0.5615
vn 0.8210 0.5589 -0.1167
vn 0.9330 0.3231 0.1588
vn 0.9011 0.0078 0.4335
vn 0.8821 -0.3407 -0.3253
vn -0.7393 0.6701 0.0668
vn -0.6857 0.7245 0.0699
vn -0.8469 0.5202 -0.1100
vn 0.2649 -0.9370 0.2276
vn 0.1508 0.9015 -0.4057
vn -0.7009 0.7117 -0.0475
vn -0.8238 0.5665 -0.0191
vn -0.3158 -0.8712 0.3759
vn -0.9904 -0.0872 0.1073
vn -0.7119 0.6691 -0.2134
vn 0.7047 -0.5865 0.3993
vn -0.9760 -0.2010 0.0833
vn -0.7862 -0.6004 0.1464
vn -0.7761 -0.6109 0.1567
vn -0.4517 0.7278 -0.5160
vn 0.2752 -0.6926 0.6668
vn 0.6772 -0.5020 0.5379
vn 0.9969 0.0338 -0.0716
vn 0.7579 0.4890 -0.4318
vn 0.9442 0.0991 -0.3140
vn 0.9430 0.1461 -0.2990
vn 0.7157 -0.6861 0.1305
vn 0.9830 0.1785 -0.0421
vn 0.9600 0.2442 -0.1367
vn 0.9708 -0.0236 0.2387
vn 0.5840 0.6907 -0.4265
s 1
f 1//1 2//2 3//3
f 3//3 6//4 1//1
f 1//1 6//4 4//5
f 2//2 7//6 3//3
f 7//6 8//7 3//3
f 4//5 9//8 1//1
f 5//9 9//8 4//5
f 2//2 1//1 9//8
f 11//10 2//2 9//8
f 10//11 4//5 12//12
f 14//13 11//10 15//14
f 17//15 13//16 10//17
f 18//18 17//15 10//17
f 19//19 20//20 12//12
f 12//12 21//21 19//19
f 6//4 3//3 8//7
f 6//4 8//7 4//5
f 12//12 4//5 21//21
f 21//21 4//5 8//7
f 22//22 8//7 7//6
f 22//22 23//23 8//7
f 24//24 2//2 11//10
f 14//13 16//25 25//26
f 16//25 26//27 25//26
f 27//28 28//29 19//19
f 25//26 27//28 14//13
f 24//24 11//10 14//13
f 24//24 14//13 29//30
f 27//28 29//30 14//13
f 27//28 19//19 21//21
f 30//31 21//21 8//7
f 31//32 23//23 22//22
f 31//32 30//31 8//7
f 2//2 24//24 7//6
f 32//33 7//6 24//24
f 33//34 24//24 29//30
f 29//30 27//28 34//35
f 27//28 21//21 35//36
f 34//35 36//37 33//34
f 34//35 27//28 36//37
f 35//36 21//21 30//31
f 32//33 22//22 7//6
f 32//33 24//24 33//34
f 36//37 27//28 35//36
f 32//33 33//34 36//37
f 22//22 38//38 31//32
f 37//39 36//37 35//36
f 35//36 30//31 53//40
f 40//41 36//37 37//39
f 32//33 36//37 40//41
f 40//41 39//42 32//33
f 31//32 53//40 30//31
f 38//38 53//40 31//32
f 44//43 42//44 43//45
f 42//44 45//46 43//45
f 44//43 46//47 41//48
f 41//48 42//44 44//43
f 42//44 48//49 45//46
f 42//44 49//50 48//49
f 47//51 43//45 45//46
f 51//52 40//41 37//39
f 32//33 39//42 52//53
f 52//53 22//22 32//33
f 37//39 35//36 53//40
f 54//54 37//39 53//40
f 55//55 56//56 57//57
f 57//57 58//58 79//59
f 60//60 55//55 57//57
f 60//60 57//57 59//61
f 62//62 57//57 79//59
f 79//59 64//63 63//64
f 79//59 63//64 65//65
f 61//66 60//60 59//61
f 59//61 66//67 61//66
f 57//57 62//62 59//61
f 59//61 62//62 66//67
f 62//62 79//59 65//65
f 65//65 67//68 62//62
f 61//66 66//67 68//69
f 69//70 66//67 62//62
f 66//67 69//70 68//69
f 71//71 46//47 70//72
f 50//73 71//71 70//72
f 41//48 72//74 42//44
f 42//44 72//74 49//50
f 71//71 50//73 45//75
f 40//41 51//52 39//42
f 52//53 39//42 73//76
f 74//77 73//76 75//78
f 38//38 75//78 53//40
f 51//52 37//39 54//54
f 54//54 53//40 76//79
f 75//78 76//79 53//40
f 60//60 77//80 55//55
f 78//81 79//59 80//82
f 80//82 81//83 78//81
f 82//84 55//55 83//85
f 61//66 85//86 60//60
f 58//58 80//82 79//59
f 56//56 55//55 82//84
f 84//87 64//63 79//59
f 85//86 61//66 86//88
f 86//88 64//63 84//87
f 86//88 84//87 85//86
f 63//64 64//63 86//88
f 86//88 61//66 87//89
f 63//64 88//90 65//65
f 63//64 86//88 87//89
f 88//90 63//64 87//89
f 88//90 87//89 90//91
f 89//92 62//62 67//68
f 88//90 90//91 65//65
f 89//92 67//68 90//91
f 89//92 90//91 109//93
f 91//94 89//92 109//93
f 92//95 61//66 68//69
f 92//95 87//89 61//66
f 87//89 92//95 93//96
f 87//89 93//96 90//91
f 62//62 89//92 69//70
f 94//97 69//70 95//98
f 89//92 95//98 69//70
f 68//69 69//70 94//97
f 68//69 94//97 92//95
f 96//99 72//74 41//48
f 46//47 97//100 41//48
f 97//100 96//99 41//48
f 46//47 71//71 97//100
f 98//101 97//100 71//71
f 45//75 98//101 71//71
f 99//102 45//46 48//49
f 100//103 48//49 49//50
f 101//104 73//76 39//42
f 39//42 51//52 102//105
f 54//54 103//106 51//52
f 104//107 103//106 54//54
f 102//105 51//52 103//106
f 104//107 54//54 76//79
f 75//78 105//108 76//79
f 55//55 78//81 83//85
f 77//80 85//86 106//109
f 77//80 60//60 85//86
f 78//81 84//87 79//59
f 91//94 107//110 108//111
f 109//93 110//112 91//94
f 90//91 93//96 109//93
f 109//93 93//96 112//113
f 108//111 95//98 89//92
f 89//92 91//94 108//111
f 112//113 113//114 109//93
f 108//111 111//115 95//98
f 95//98 111//115 114//116
f 93//96 94//97 115//117
f 95//98 114//116 94//97
f 115//117 94//97 114//116
f 93//96 92//95 94//97
f 72//74 116//118 49//50
f 100//103 49//50 117//119
f 102//105 103//106 101//104
f 103//106 118//120 101//104
f 76//79 105//108 119//121
f 101//104 120//122 73//76
f 73//76 105//108 75//78
f 73//76 120//122 105//108
f 118//120 120//122 101//104
f 104//107 76//79 121//123
f 121//123 76//79 119//121
f 55//55 122//124 78//81
f 77//80 123//125 55//55
f 124//126 106//109 85//86
f 85//86 84//87 124//126
f 125//127 124//126 84//87
f 126//128 127//129 128//130
f 113//114 129//131 109//93
f 107//110 126//128 108//111
f 126//128 128//130 108//111
f 108//111 128//130 111//115
f 137//132 136//133 132//134
f 134//135 111//115 128//130
f 112//113 137//132 132//134
f 134//136 138//137 135//138
f 134//135 136//133 137//132
f 138//137 115//117 114//116
f 135//138 138//137 114//116
f 112//113 93//96 137//132
f 137//132 93//96 115//117
f 72//74 96//99 140//139
f 117//119 49//50 116//118
f 99//102 48//49 141//140
f 99//102 141//140 142//141
f 142//141 141//140 143//142
f 144//143 100//103 117//119
f 103//106 104//107 118//120
f 118//120 145//144 120//122
f 147//145 121//123 119//121
f 118//120 104//107 145//144
f 105//108 120//122 146//146
f 119//121 105//108 146//146
f 145//144 146//146 120//122
f 119//121 146//146 147//145
f 146//146 148//147 147//145
f 121//123 147//145 150//148
f 151//149 150//148 147//145
f 149//150 151//149 147//145
f 152//151 153//152 151//149
f 154//153 78//81 155//154
f 78//81 154//153 156//155
f 77//80 157//156 123//125
f 77//80 152//151 157//156
f 155//154 78//81 122//124
f 125//127 159//157 160//158
f 84//87 78//81 125//127
f 161//159 125//127 78//81
f 127//129 162//160 128//130
f 163//161 131//162 130//163
f 164//164 163//161 130//163
f 132//134 165//165 133//166
f 136//133 134//135 166//167
f 132//134 136//133 165//165
f 139//168 97//100 167//169
f 167//169 97//100 98//101
f 116//118 72//74 140//139
f 139//168 96//99 97//100
f 168//170 169//171 139//168
f 139//168 169//171 96//99
f 167//172 99//102 142//141
f 144//143 117//119 170//173
f 117//119 116//118 171//174
f 172//175 144//143 170//173
f 173//176 116//118 140//139
f 145//144 174//177 146//146
f 174//177 145//144 175//178
f 121//123 150//148 104//107
f 145//144 104//107 175//178
f 104//107 150//148 175//178
f 156//155 148//147 146//146
f 174//177 175//178 176//179
f 174//177 156//155 146//146
f 156//155 154//153 148//147
f 151//149 153//152 150//148
f 177//180 150//148 153//152
f 175//178 150//148 178//181
f 159//157 156//155 174//177
f 174//177 176//179 159//157
f 177//180 153//152 179//182
f 180//183 175//178 158//184
f 159//157 161//159 156//155
f 160//158 159//157 176//179
f 179//182 77//80 106//109
f 152//151 77//80 153//152
f 179//182 106//109 177//180
f 180//183 158//184 160//158
f 156//155 161//159 78//81
f 124//126 158//184 106//109
f 158//184 124//126 160//158
f 160//158 124//126 125//127
f 163//161 164//164 181//185
f 181//185 182//186 183//187
f 181//185 162//160 163//161
f 165//165 184//188 133//166
f 186//189 134//135 128//130
f 187//190 165//165 136//133
f 166//167 134//135 185//191
f 165//165 187//190 185//191
f 139//168 167//169 168//170
f 169//171 140//139 96//99
f 168//170 188//192 169//171
f 142//141 143//142 189//193
f 142//141 189//193 167//172
f 190//194 167//172 189//193
f 168//170 167//169 191//195
f 116//118 192//196 171//174
f 172//175 170//173 193//197
f 172//175 193//197 194//198
f 194//198 193//197 195//199
f 140//139 196//200 173//176
f 176//179 175//178 180//183
f 184//188 165//165 197//201
f 128//130 162//160 186//189
f 186//189 185//191 134//135
f 198//202 140//139 169//171
f 188//192 198//202 169//171
f 194//198 199//203 200//204
f 199//203 194//198 195//199
f 201//205 190//194 189//193
f 202//206 168//170 191//195
f 168//170 203//207 188//192
f 198//202 195//199 140//139
f 201//205 204//208 190//194
f 198//202 205//209 195//199
f 186//189 162//160 208//210
f 208//210 162//160 207//211
f 207//211 162//160 181//185
f 181//185 209//212 206//213
f 206//213 207//211 181//185
f 183//187 209//212 181//185
f 197//201 210//214 211//215
f 210//214 197//201 165//165
f 185//191 212//216 165//165
f 199//203 195//199 205//209
f 213//217 198//202 188//192
f 191//195 204//218 202//206
f 202//206 188//192 203//207
f 205//209 198//202 213//217
f 214//219 204//208 201//205
f 199//203 215//220 200//204
f 205//209 216//221 199//203
f 213//217 216//221 205//209
f 202//206 204//218 217//222
f 204//208 214//219 218//223
f 218//223 214//219 219//224
f 215//220 220//225 221//226
f 219//224 222//227 218//223
f 199//203 220//225 215//220
f 199//203 216//221 220//225
f 216//221 223//228 220//225
f 224//229 208//210 222//227
f 220//225 225//230 221//226
f 220//225 227//231 225//230
f 207//211 222//227 208//210
f 225//230 227//231 208//210
f 222//227 207//211 226//232
f 220//225 228//233 186//189
f 226//232 207//211 206//213
f 186//189 208//210 227//231
f 229//234 197//201 211//215
f 185//191 228//233 230//235
f 228//233 185//191 186//189
f 212//216 230//235 211//215
f 185//191 230//235 212//216
f 202//206 213//217 188//192
f 231//236 213//217 202//206
f 231//236 202//206 217//222
f 213//217 231//236 233//237
f 231//236 234//238 233//237
f 232//239 216//221 213//217
f 223//228 216//221 232//239
f 218//223 222//227 217//222
f 217//222 222//227 226//232
f 231//236 217//222 226//232
f 232//239 235//240 223//228
f 237//241 235//240 232//239
f 238//242 237//241 236//243
f 220//225 223//228 228//233
f 238//242 211//215 237//241
f 237//241 211//215 235//240
f 228//233 223//228 230//235
f 229//234 211//215 238//242
f 230//235 235//240 211//215
