# Blender v2.78 (sub 0) OBJ File: 'exporter.blend'
# www.blender.org
o FJ3562.obj_grp1.2151
v -0.270666 -0.449260 4.687955
v -0.269550 -0.446214 4.670136
v -0.268855 -0.448509 4.677015
v -0.267335 -0.449640 4.689072
v -0.268981 -0.450335 4.690065
v -0.268855 -0.448509 4.677015
v -0.271402 -0.443944 4.707571
v -0.270806 -0.446275 4.690113
v -0.268823 -0.445154 4.682199
v -0.270321 -0.444540 4.672865
v -0.270909 -0.446537 4.683550
v -0.270909 -0.446537 4.683550
v -0.270806 -0.446275 4.690113
v -0.265744 -0.443689 4.658738
v -0.264173 -0.443486 4.659922
v -0.266284 -0.446176 4.670556
v -0.270321 -0.444540 4.672865
v -0.268714 -0.443788 4.676086
v -0.267096 -0.440838 4.658020
v -0.268567 -0.441666 4.665405
v -0.266747 -0.441908 4.658175
v -0.265421 -0.442200 4.657413
v -0.266743 -0.440983 4.658466
v -0.263964 -0.441271 4.657997
v -0.267278 -0.442803 4.659077
v -0.266858 -0.441895 4.657932
v -0.267182 -0.440477 4.659101
v -0.268567 -0.441666 4.665405
v -0.265526 -0.439345 4.658531
v -0.266690 -0.446959 4.691352
v -0.268864 -0.443044 4.715544
v -0.266477 -0.442828 4.715377
v -0.266684 -0.446903 4.691751
v -0.268205 -0.444269 4.696373
v -0.270216 -0.444447 4.696597
v -0.266819 -0.446265 4.683105
v -0.268742 -0.443561 4.677496
v -0.267023 -0.443668 4.673719
v -0.265856 -0.445124 4.671513
v -0.266284 -0.446176 4.670556
v -0.264173 -0.443486 4.659922
v -0.262985 -0.441203 4.659129
v -0.265856 -0.445124 4.671513
v -0.267023 -0.443668 4.673719
v -0.266819 -0.446265 4.683105
v -0.264859 -0.442929 4.657913
v -0.263964 -0.441271 4.657997
v -0.264859 -0.442929 4.657913
v -0.263183 -0.441094 4.659204
v -0.264219 -0.440182 4.660819
v -0.263545 -0.441437 4.659184
v -0.263755 -0.440287 4.658841
v -0.266899 -0.443985 4.706521
v -0.269181 -0.440151 4.716205
v -0.267978 -0.438727 4.714384
v -0.266001 -0.439772 4.714005
v -0.265483 -0.441642 4.714322
v -0.266171 -0.441297 4.716527
v -0.266948 -0.439398 4.716060
v -0.291259 -0.403739 4.837680
v -0.289528 -0.404365 4.836163
v -0.285542 -0.406828 4.840989
v -0.287103 -0.405073 4.842564
v -0.291460 -0.402564 4.838278
v -0.290060 -0.401440 4.836190
v -0.291274 -0.402513 4.838233
v -0.290361 -0.400934 4.837945
v -0.289378 -0.401311 4.840012
v -0.282469 -0.409946 4.845184
v -0.288516 -0.403061 4.835464
v -0.285132 -0.402786 4.838153
v -0.282572 -0.406297 4.846965
v -0.285038 -0.401920 4.841425
v -0.271648 -0.423255 4.858065
v -0.279552 -0.412206 4.851660
v -0.278061 -0.411424 4.846825
v -0.276491 -0.415409 4.854392
v -0.272952 -0.416602 4.855701
v -0.278513 -0.408196 4.846967
v -0.239319 -0.445902 4.700432
v -0.242001 -0.444529 4.691166
v -0.236576 -0.449144 4.670732
v -0.232759 -0.450246 4.669643
v -0.239816 -0.446791 4.678775
v -0.237977 -0.446588 4.685489
v -0.235327 -0.447257 4.678180
v -0.240933 -0.442491 4.706542
v -0.240315 -0.445195 4.705986
v -0.221541 -0.460395 4.623846
v -0.221763 -0.459802 4.624424
v -0.221387 -0.459922 4.623477
v -0.221339 -0.459609 4.624363
v -0.221666 -0.459739 4.624315
v -0.221562 -0.459260 4.624225
v -0.229727 -0.449847 4.660946
v -0.232391 -0.449936 4.663419
v -0.241069 -0.442437 4.682679
v -0.241293 -0.440640 4.696931
v -0.221404 -0.459917 4.623467
v -0.221147 -0.458758 4.623650
v -0.234803 -0.446303 4.667332
v -0.227365 -0.449510 4.660297
v -0.237282 -0.442698 4.676441
v -0.265097 -0.429815 4.860589
v -0.273010 -0.420006 4.852880
v -0.273010 -0.420006 4.852880
v -0.271705 -0.417375 4.852971
v -0.273010 -0.420006 4.852880
v -0.275490 -0.413801 4.853914
v -0.235207 -0.447152 4.711432
v -0.240315 -0.445195 4.705986
v -0.238502 -0.447151 4.713971
v -0.236716 -0.445266 4.700305
v -0.236382 -0.444157 4.694177
v -0.226899 -0.453895 4.660213
v -0.226132 -0.453485 4.662742
v -0.235605 -0.446813 4.679403
v -0.236256 -0.442184 4.688133
v -0.235926 -0.442094 4.696569
v -0.239003 -0.440796 4.709884
v -0.238821 -0.440939 4.709769
v -0.213295 -0.462243 4.631139
v -0.220275 -0.459827 4.622960
v -0.210433 -0.461056 4.633636
v -0.215790 -0.461019 4.630965
v -0.219891 -0.458715 4.624271
v -0.208704 -0.460040 4.637804
v -0.231049 -0.448940 4.662556
v -0.228677 -0.448210 4.665626
v -0.232531 -0.445606 4.670856
v -0.228871 -0.448927 4.666616
v -0.225513 -0.449577 4.660773
v -0.228849 -0.448920 4.666640
v -0.232531 -0.445606 4.670856
v -0.232743 -0.447499 4.672835
v -0.228677 -0.448210 4.665626
v -0.233852 -0.444910 4.674804
v -0.235657 -0.443583 4.683030
v -0.238396 -0.440511 4.688911
v -0.236303 -0.442201 4.688066
v -0.236085 -0.440517 4.706502
v -0.220709 -0.458566 4.623708
v -0.221132 -0.458821 4.623703
v -0.221567 -0.459187 4.624191
v -0.220565 -0.459057 4.623822
v -0.220999 -0.459379 4.625290
v -0.220586 -0.458636 4.624496
v -0.219891 -0.458715 4.624271
v -0.220705 -0.458634 4.623778
v -0.216283 -0.459733 4.629996
v -0.214953 -0.459343 4.630187
v -0.214953 -0.459343 4.630187
v -0.270083 -0.418610 4.856214
v -0.270083 -0.418610 4.856214
v -0.230920 -0.458696 4.756576
v -0.230286 -0.465576 4.760352
v -0.233569 -0.443899 4.709200
v -0.236716 -0.445266 4.700305
v -0.212843 -0.458620 4.651548
v -0.211264 -0.459745 4.653980
v -0.216296 -0.456494 4.653933
v -0.226191 -0.450452 4.663867
v -0.235765 -0.440222 4.706357
v -0.234861 -0.444080 4.722323
v -0.212394 -0.456003 4.652855
v -0.225703 -0.451953 4.658434
v -0.212494 -0.455830 4.652873
v -0.260113 -0.431762 4.860129
v -0.255948 -0.433650 4.866165
v -0.265424 -0.424885 4.856730
v -0.261897 -0.425997 4.859233
v -0.265424 -0.424885 4.856730
v -0.226722 -0.467274 4.761214
v -0.230969 -0.451447 4.741665
v -0.234861 -0.444080 4.722323
v -0.222743 -0.460896 4.765522
v -0.232057 -0.444620 4.718567
v -0.210895 -0.462278 4.638597
v -0.211164 -0.460387 4.651328
v -0.211137 -0.460252 4.639632
v -0.212198 -0.459592 4.634611
v -0.214953 -0.459343 4.630187
v -0.210124 -0.458164 4.654307
v -0.214586 -0.454549 4.655551
v -0.258569 -0.430171 4.860394
v -0.261832 -0.426109 4.859542
v -0.258072 -0.429214 4.862375
v -0.224139 -0.461414 4.756274
v -0.224315 -0.458887 4.756296
v -0.209147 -0.461524 4.647658
v -0.208032 -0.461840 4.642141
v -0.210854 -0.459370 4.646892
v -0.211567 -0.458510 4.649570
v -0.209796 -0.457482 4.649042
v -0.211640 -0.458541 4.649908
v -0.214085 -0.457147 4.657011
v -0.213275 -0.457319 4.656561
v -0.214586 -0.454549 4.655551
v -0.208089 -0.458476 4.645905
v -0.210097 -0.456799 4.652021
v -0.227990 -0.467636 4.763981
v -0.228260 -0.465783 4.766323
v -0.227276 -0.462282 4.766417
v -0.255324 -0.434356 4.866307
v -0.254429 -0.435552 4.866005
v -0.250672 -0.437120 4.864638
v -0.254689 -0.432418 4.866090
v -0.224622 -0.459881 4.764908
v -0.207447 -0.459813 4.648707
v -0.210758 -0.456972 4.650636
v -0.223066 -0.466044 4.764548
v -0.223739 -0.464369 4.767606
v -0.249820 -0.437247 4.866493
v -0.224522 -0.462670 4.767778
v -0.248570 -0.435124 4.863907
v -0.255414 -0.434074 4.867484
v -0.254879 -0.433755 4.866824
v -0.254766 -0.434182 4.866964
v -0.254680 -0.433952 4.866970
v -0.254663 -0.432722 4.866445
v -0.254879 -0.433755 4.866824
v -0.254636 -0.432768 4.866589
v -0.254223 -0.432314 4.866167
v -0.253974 -0.432120 4.866589
v -0.254223 -0.432314 4.866167
v -0.254636 -0.432768 4.866589
v -0.259306 -0.429776 4.873678
v -0.254636 -0.432768 4.866589
v -0.260732 -0.427939 4.876937
v -0.260064 -0.427046 4.880256
v -0.253591 -0.431385 4.872746
v -0.251374 -0.432424 4.864338
v -0.253974 -0.432120 4.866589
v -0.254636 -0.432768 4.866589
v -0.260383 -0.426372 4.875509
v -0.260383 -0.426372 4.875509
v -0.251367 -0.432412 4.864336
v -0.261117 -0.422029 4.879256
v -0.257795 -0.425624 4.874804
v -0.251819 -0.431281 4.869804
v -0.263274 -0.421349 4.881222
v -0.263320 -0.422176 4.882822
v -0.260566 -0.422364 4.884268
v -0.257610 -0.424063 4.878772
v -0.261325 -0.421819 4.879171
v -0.260166 -0.418954 4.881174
v -0.265281 -0.409716 4.886537
v -0.264364 -0.407891 4.889444
v -0.265230 -0.410030 4.886400
v -0.263537 -0.407239 4.884768
v -0.268158 -0.403188 4.889069
v -0.266535 -0.403349 4.892296
v -0.267869 -0.402125 4.891415
v -0.267365 -0.400606 4.889682
v -0.247673 -0.435510 4.866071
v -0.221603 -0.462363 4.765392
v -0.253555 -0.432181 4.866073
v -0.253939 -0.433122 4.866513
v -0.259446 -0.419174 4.884398
v -0.260358 -0.410174 4.885906
v -0.263438 -0.404768 4.890353
v -0.263011 -0.403491 4.887758
v -0.265598 -0.400974 4.891552
v -0.267272 -0.402760 4.891987
v -0.247979 -0.433965 4.865009
vn 0.4042 -0.9027 -0.1477
vn 0.7143 -0.6991 0.0307
vn -0.1052 -0.9863 0.1274
vn -0.5376 -0.8229 -0.1841
vn -0.8387 -0.5441 -0.0217
vn -0.9744 -0.1794 0.1352
vn -0.9925 0.1202 -0.0236
vn -0.7437 -0.5648 -0.3576
vn -0.9805 -0.1785 -0.0822
vn -0.4844 0.8742 -0.0336
vn 0.3949 0.9079 -0.1407
vn -0.0946 0.9711 0.2190
vn -0.5646 0.8164 0.1215
vn -0.5036 0.8587 -0.0952
vn -0.1404 -0.7985 -0.5854
vn 0.4161 -0.8712 -0.2605
vn 0.4601 -0.8777 -0.1341
vn -0.5640 0.8080 0.1702
vn -0.9911 -0.0736 -0.1112
vn -0.9650 -0.0103 -0.2619
vn -0.9662 0.1854 -0.1794
vn -0.5923 -0.2019 -0.7800
vn 0.0247 -0.1746 -0.9843
vn -0.6211 0.4976 -0.6055
vn -0.9705 -0.0537 -0.2350
vn -0.8755 -0.1850 -0.4464
vn -0.9530 0.2762 -0.1248
vn -0.5081 0.8541 0.1112
vn -0.1443 0.8750 -0.4621
vn -0.4084 -0.6452 0.6456
vn 0.5274 -0.7054 0.4735
vn 0.8029 0.5907 -0.0804
vn -0.3772 0.8935 -0.2436
vn 0.4847 0.8643 0.1344
vn 0.4824 0.8317 0.2749
vn 0.6882 0.6742 0.2679
vn 0.9539 -0.2972 0.0415
vn 0.9047 -0.4246 0.0346
vn 0.9547 -0.2852 0.0853
vn 0.8619 -0.4558 -0.2219
vn 0.8091 -0.5221 -0.2697
vn 0.8840 0.4293 0.1852
vn 0.8767 0.4195 0.2353
vn 0.8558 0.5031 0.1206
vn 0.4809 -0.2162 -0.8497
vn 0.4104 0.2848 -0.8663
vn 0.7330 -0.4841 -0.4778
vn 0.8166 -0.4205 -0.3954
vn 0.7778 0.3052 -0.5495
vn 0.7314 0.6113 -0.3023
vn 0.6968 0.6779 0.2344
vn 0.9557 0.1780 0.2345
vn 0.9965 0.0833 -0.0053
vn -0.6332 0.3421 0.6943
vn -0.1959 0.9800 0.0357
vn 0.7739 0.6325 -0.0310
vn 0.9921 -0.1017 0.0733
vn 0.5657 -0.0499 0.8231
vn 0.3402 0.7049 0.6224
vn -0.8810 -0.4409 -0.1715
vn -0.3552 -0.5720 -0.7394
vn -0.4556 -0.8759 -0.1587
vn -0.7818 -0.3925 0.4846
vn -0.9029 0.2219 -0.3681
vn -0.3149 0.6137 -0.7240
vn 0.1226 0.0548 -0.9909
vn -0.4300 0.9022 -0.0334
vn -0.7785 0.0137 0.6275
vn -0.3929 0.7458 0.5380
vn -0.4311 -0.8108 -0.3958
vn 0.6830 0.4106 -0.6041
vn 0.3452 0.9045 0.2503
vn -0.7468 -0.4019 0.5299
vn -0.8068 -0.2527 0.5340
vn -0.1337 0.6531 0.7454
vn -0.5509 0.1740 0.8162
vn 0.0526 0.6561 0.7528
vn 0.7732 0.6262 -0.1002
vn 0.5534 -0.2516 -0.7940
vn 0.2551 -0.8770 0.4073
vn 0.2802 -0.9247 0.2576
vn -0.7874 -0.6032 -0.1273
vn 0.1904 -0.9724 0.1347
vn -0.8362 -0.5284 -0.1471
vn -0.1409 -0.9893 -0.0383
vn -0.9337 -0.3574 -0.0224
vn -0.9487 -0.2918 0.1219
vn -0.9783 0.1346 0.1578
vn -0.6829 -0.7214 -0.1148
vn -0.9706 0.2405 -0.0140
vn -0.7249 -0.6248 -0.2901
vn -0.8193 0.5361 -0.2034
vn -0.6669 0.7440 0.0412
vn -0.9255 -0.1472 -0.3491
vn -0.4841 0.3764 -0.7899
vn -0.7690 -0.2227 -0.5992
vn -0.5693 0.6166 -0.5439
vn -0.0881 0.9515 -0.2947
vn -0.2279 0.7284 -0.6462
vn -0.6297 -0.7642 0.1396
vn 0.1426 -0.5132 -0.8463
vn 0.7254 0.1373 -0.6745
vn 0.4440 -0.1925 -0.8751
vn -0.6805 -0.7327 -0.0074
vn -0.5543 -0.8151 -0.1683
vn 0.4250 0.7586 0.4938
vn 0.8736 -0.4866 -0.0015
vn 0.3692 -0.9069 -0.2029
vn 0.3867 -0.8930 -0.2301
vn 0.0898 -0.8003 0.5928
vn -0.4863 -0.7165 -0.5001
vn 0.9147 -0.0829 0.3955
vn 0.8519 -0.4142 0.3205
vn 0.9622 0.2543 0.0976
vn 0.9839 0.1552 0.0885
vn 0.9861 0.1494 -0.0723
vn -0.6092 0.7635 0.2144
vn 0.3093 0.9506 0.0246
vn 0.1895 -0.9266 -0.3247
vn -0.5327 -0.7124 0.4569
vn 0.2677 -0.1522 -0.9514
vn -0.7762 -0.4175 0.4724
vn -0.7247 0.2906 0.6248
vn -0.6883 0.2722 0.6724
vn -0.5369 0.6599 0.5256
vn 0.8896 -0.0957 -0.4466
vn 0.6085 0.5412 -0.5803
vn 0.8518 0.4311 -0.2975
vn -0.6182 -0.1128 -0.7779
vn 0.4170 0.9020 -0.1117
vn 0.4249 0.8997 -0.1006
vn 0.1297 0.9036 -0.4082
vn 0.6577 -0.2877 0.6962
vn 0.8170 0.3984 0.4168
vn 0.8826 0.3065 0.3563
vn 0.8206 0.4111 0.3971
vn 0.8227 0.5588 0.1042
vn 0.1736 0.9654 -0.1947
vn 0.6477 0.7542 -0.1083
vn 0.0742 0.9950 0.0663
vn 0.2553 0.5436 -0.7996
vn 0.1776 0.7237 0.6669
vn 0.0079 0.9366 0.3504
vn -0.0203 0.9510 0.3087
vn -0.1118 0.9779 0.1767
vn 0.1124 0.9937 -0.0032
vn 0.1123 0.9937 -0.0033
vn 0.1082 0.9940 -0.0146
vn -0.3271 0.9012 0.2844
vn 0.1160 0.9932 0.0085
vn -0.3233 0.6505 -0.6872
vn -0.1396 -0.6856 -0.7145
vn 0.7616 0.6331 -0.1383
vn 0.4400 0.7091 0.5510
vn -0.7629 0.5202 0.3839
vn -0.8344 -0.5506 0.0236
vn 0.9911 0.0636 -0.1169
vn 0.8880 -0.3901 -0.2434
vn 0.1560 -0.8751 0.4580
vn -0.6229 -0.6766 -0.3927
vn -0.4556 0.3056 -0.8361
vn 0.7289 0.2183 0.6489
vn 0.8411 0.5334 -0.0890
vn 0.2861 0.9300 0.2309
vn -0.2740 0.6021 -0.7500
vn -0.2597 0.4377 -0.8608
vn 0.2817 0.9297 -0.2372
vn 0.5663 0.7252 0.3917
vn -0.6682 -0.1089 0.7359
vn 0.3523 -0.1774 -0.9189
vn 0.6581 0.3915 -0.6432
vn 0.6171 0.1220 -0.7773
vn 0.1866 -0.9382 -0.2914
vn -0.1522 0.9149 0.3738
vn -0.5064 0.7740 0.3801
vn 0.5419 0.6995 0.4660
vn 0.5289 0.8318 0.1682
vn -0.3591 -0.9158 0.1798
vn -0.9363 0.2431 0.2536
vn -0.1563 0.9789 0.1316
vn 0.1760 0.9829 -0.0543
vn 0.3490 0.9234 -0.1599
vn -0.0781 -0.6899 -0.7197
vn 0.4550 0.2805 -0.8452
vn 0.6887 0.7171 -0.1074
vn 0.5272 0.8310 0.1774
vn 0.8996 -0.2846 -0.3312
vn 0.9774 0.1399 -0.1587
vn 0.7452 -0.6667 -0.0083
vn -1.0000 0.0058 -0.0062
vn -0.0677 -0.9785 0.1948
vn -0.5072 -0.8588 0.0727
vn -0.8365 -0.4533 -0.3080
vn -0.5447 0.7136 -0.4406
vn -0.5826 0.5710 -0.5784
vn 0.4360 -0.2542 0.8633
vn 0.3780 -0.4984 0.7802
vn 0.7821 -0.0151 0.6230
vn 0.6104 0.6257 0.4857
vn 0.6704 0.7207 -0.1767
vn 0.5471 0.8368 0.0230
vn -0.3011 -0.9223 0.2421
vn -0.5796 -0.3888 0.7162
vn -0.5739 0.4437 0.6884
vn -0.7819 -0.5374 0.3161
vn -0.5692 -0.7878 0.2353
vn -0.1893 0.8189 0.5419
vn 0.0024 0.8724 0.4888
vn 0.6922 -0.7136 0.1080
vn 0.9583 -0.1036 0.2665
vn 0.2297 0.9461 -0.2284
vn 0.4085 -0.3520 0.8421
vn 0.0541 0.2891 0.9558
vn 0.6186 -0.1744 -0.7661
vn 0.0511 -0.9250 -0.3764
vn -0.7528 -0.6553 0.0621
vn -0.4316 0.4798 0.7639
vn -0.5533 -0.5704 0.6070
vn -0.2668 0.7752 0.5726
vn -0.2176 0.9685 0.1209
vn -0.6970 0.7121 0.0837
vn -0.7128 0.2965 -0.6356
vn -0.6416 -0.7603 0.1017
vn -0.8816 -0.1056 -0.4601
vn -0.8788 -0.0867 -0.4693
vn -0.7718 -0.6231 -0.1263
vn 0.2842 -0.9253 0.2511
vn -0.1729 -0.7517 0.6365
vn 0.7811 -0.0383 0.6233
vn 0.4490 0.8927 -0.0389
vn -0.5263 0.4893 -0.6954
vn -0.5028 0.5140 -0.6949
vn -0.5899 0.4628 -0.6617
vn -0.8946 -0.1346 -0.4261
vn -0.5018 0.5228 -0.6891
vn -0.3248 0.5147 -0.7935
vn 0.6450 0.7368 -0.2028
vn 0.7304 0.6398 0.2391
vn -0.8524 0.1156 -0.5100
vn -0.8338 -0.4285 0.3481
vn 0.1810 -0.4498 0.8746
vn 0.9118 0.4106 0.0071
vn 0.4560 0.8195 -0.3472
vn 0.5068 0.5209 -0.6869
vn -0.2270 -0.5008 0.8353
vn -0.1992 -0.4147 0.8879
vn -0.5414 -0.4491 0.7107
vn -0.0372 0.3718 -0.9276
vn -0.9658 -0.0075 -0.2593
vn -0.1856 -0.2203 0.9576
vn -0.4244 0.8777 -0.2226
vn -0.8271 0.1812 0.5320
vn 0.9366 -0.3027 0.1767
vn 0.9544 0.1271 0.2702
vn 0.8300 0.5092 -0.2275
vn 0.2858 0.9153 0.2837
vn 0.6488 -0.0143 0.7608
vn 0.9221 -0.0220 0.3863
vn 0.9650 0.2585 -0.0439
vn 0.6748 0.0110 0.7379
vn 0.6541 0.7033 -0.2783
vn 0.3541 0.7368 0.5759
vn -0.2202 0.4181 0.8813
s 1
f 3//1 4//2 5//3
f 6//4 5//3 1//5
f 7//6 8//7 1//5
f 6//4 1//5 2//8
f 2//8 1//5 11//9
f 12//10 34//11 9//12
f 12//10 9//12 10//13
f 8//7 11//9 1//5
f 12//10 13//14 34//11
f 14//15 6//4 2//8
f 3//1 15//16 16//17
f 4//2 3//1 16//17
f 18//18 10//13 9//12
f 2//8 17//19 19//20
f 17//19 20//21 19//20
f 14//15 15//16 3//1
f 17//19 2//8 11//9
f 2//8 21//22 14//15
f 22//23 14//15 21//22
f 23//24 22//23 21//22
f 15//16 14//15 22//23
f 25//25 2//8 19//20
f 19//20 26//26 25//25
f 19//20 20//21 27//27
f 18//18 28//28 10//13
f 29//29 28//28 18//18
f 29//29 22//23 23//24
f 5//3 31//30 7//6
f 7//6 1//5 5//3
f 4//2 32//31 5//3
f 33//32 9//12 34//11
f 8//7 7//6 35//33
f 36//34 37//35 9//12
f 38//36 37//35 36//34
f 33//32 36//34 9//12
f 13//14 35//33 34//11
f 39//37 4//2 40//38
f 4//2 39//37 30//39
f 41//40 42//41 40//38
f 43//42 44//43 45//44
f 46//45 22//23 24//46
f 47//47 41//40 48//48
f 29//29 24//46 22//23
f 41//40 47//47 42//41
f 49//49 24//46 52//50
f 29//29 52//50 24//46
f 50//51 37//35 38//36
f 40//38 42//41 39//37
f 43//42 51//52 44//43
f 50//51 44//43 51//52
f 50//51 51//52 52//50
f 23//24 28//28 29//29
f 29//29 37//35 50//51
f 52//50 29//29 50//51
f 53//53 32//31 4//2
f 4//2 30//39 53//53
f 5//3 32//31 31//30
f 31//30 54//54 7//6
f 53//53 33//32 34//11
f 35//33 55//55 34//11
f 56//56 34//11 55//55
f 53//53 34//11 56//56
f 7//6 55//55 35//33
f 7//6 54//54 55//55
f 53//53 57//57 32//31
f 57//57 53//53 56//56
f 58//58 32//31 57//57
f 57//57 56//56 58//58
f 58//58 31//30 32//31
f 58//58 54//54 31//30
f 59//59 54//54 58//58
f 54//54 59//59 55//55
f 59//59 56//56 55//55
f 58//58 56//56 59//59
f 60//60 61//61 62//62
f 60//60 62//62 63//63
f 60//60 66//64 65//65
f 61//61 60//60 70//66
f 60//60 65//65 70//66
f 67//67 64//68 68//69
f 67//67 65//65 66//64
f 60//60 63//63 64//68
f 64//68 63//63 68//69
f 62//62 69//70 63//63
f 62//62 61//61 70//66
f 65//65 71//71 70//66
f 73//72 71//71 65//65
f 67//67 73//72 65//65
f 73//72 67//67 68//69
f 63//63 74//73 75//74
f 69//70 62//62 70//66
f 68//69 63//63 75//74
f 63//63 69//70 74//73
f 68//69 72//75 73//72
f 77//76 72//75 68//69
f 72//75 77//76 78//77
f 79//78 73//72 72//75
f 76//79 70//66 71//71
f 79//78 71//71 73//72
f 83//80 86//81 82//82
f 82//82 86//81 85//83
f 82//82 85//83 84//84
f 80//85 84//84 85//83
f 81//86 84//84 80//85
f 88//87 87//88 81//86
f 89//89 92//90 91//91
f 84//84 97//92 82//82
f 84//84 81//86 97//92
f 97//92 81//86 98//93
f 98//93 81//86 87//88
f 99//94 91//91 92//90
f 100//95 99//94 92//90
f 96//96 82//82 101//97
f 101//97 82//82 97//92
f 101//97 97//92 103//98
f 101//97 103//98 102//99
f 69//70 104//100 74//73
f 75//74 74//73 77//76
f 106//101 69//70 76//79
f 76//79 107//102 108//103
f 69//70 70//66 76//79
f 79//78 76//79 71//71
f 111//104 80//85 112//105
f 112//105 87//88 88//87
f 72//75 109//106 79//78
f 80//85 114//107 113//108
f 81//86 80//85 111//104
f 113//108 110//109 80//85
f 116//110 83//80 115//111
f 82//82 115//111 83//80
f 83//80 135//112 117//113
f 86//81 117//113 85//83
f 85//83 117//113 114//107
f 114//107 117//113 138//114
f 85//83 114//107 80//85
f 118//115 114//107 138//114
f 114//107 118//115 119//116
f 98//93 120//117 121//118
f 87//88 120//117 98//93
f 89//89 122//119 90//120
f 89//89 91//91 123//121
f 89//89 123//121 122//119
f 90//120 122//119 125//122
f 125//122 94//123 93//124
f 125//122 150//125 94//123
f 124//126 126//127 127//128
f 122//119 123//121 124//126
f 115//111 96//96 95//129
f 115//111 82//82 96//96
f 96//96 101//97 95//129
f 129//130 102//99 130//131
f 129//130 132//132 102//99
f 83//80 131//133 135//112
f 133//134 134//135 135//112
f 130//131 102//99 103//98
f 133//134 136//136 134//135
f 135//112 137//137 138//114
f 130//131 103//98 137//137
f 134//135 137//137 135//112
f 138//114 117//113 135//112
f 138//114 137//137 139//138
f 103//98 139//138 137//137
f 138//114 139//138 140//139
f 103//98 97//92 139//138
f 119//116 140//139 139//138
f 139//138 97//92 98//93
f 121//118 139//138 98//93
f 141//140 139//138 121//118
f 123//121 99//94 100//95
f 142//141 123//121 100//95
f 126//127 123//121 142//141
f 124//126 123//121 126//127
f 143//142 144//143 145//144
f 144//143 146//145 145//144
f 147//146 148//147 149//148
f 146//145 150//125 145//144
f 150//125 151//149 145//144
f 148//147 147//146 152//150
f 128//151 101//97 102//99
f 104//100 69//70 105//152
f 107//102 79//78 153//153
f 79//78 107//102 76//79
f 79//78 109//106 154//154
f 155//155 120//117 87//88
f 155//155 87//88 156//156
f 112//105 80//85 110//109
f 113//108 157//157 110//109
f 158//158 119//116 157//157
f 160//159 115//111 159//160
f 115//111 161//161 159//160
f 115//111 95//129 161//161
f 115//111 160//159 116//110
f 116//110 162//162 83//80
f 114//107 119//116 158//158
f 119//116 139//138 163//163
f 164//164 141//140 121//118
f 165//165 161//161 166//166
f 102//99 165//165 166//166
f 166//166 128//151 102//99
f 132//132 167//167 102//99
f 136//136 133//134 132//168
f 133//134 162//162 132//168
f 83//80 162//162 131//133
f 154//154 109//106 78//77
f 169//169 77//76 74//73
f 170//170 108//103 107//102
f 107//102 171//171 172//172
f 78//77 77//76 169//169
f 173//173 112//105 110//109
f 153//153 171//171 107//102
f 174//174 175//175 155//155
f 176//176 164//164 174//174
f 163//163 157//157 119//116
f 176//176 177//177 164//164
f 120//117 155//155 175//175
f 164//164 177//177 141//140
f 178//178 125//122 122//119
f 178//178 180//179 125//122
f 125//122 181//180 150//125
f 127//128 182//181 181//180
f 181//180 151//149 150//125
f 132//132 184//182 167//167
f 104//100 105//152 168//183
f 185//184 168//183 108//103
f 104//100 169//169 74//73
f 156//156 87//88 112//105
f 170//170 185//184 108//103
f 186//185 78//77 187//186
f 187//186 78//77 169//169
f 185//184 172//172 171//171
f 78//77 186//185 154//154
f 173//173 156//156 112//105
f 110//109 188//187 173//173
f 110//109 157//157 188//187
f 176//176 189//188 177//177
f 122//119 191//189 178//178
f 124//126 191//189 122//119
f 178//178 192//190 180//179
f 190//191 178//178 191//189
f 190//191 179//192 192//190
f 192//190 179//192 193//193
f 178//178 190//191 192//190
f 180//179 192//190 194//194
f 179//192 159//160 193//193
f 192//190 195//195 194//194
f 195//195 159//160 161//161
f 194//194 195//195 165//165
f 160//159 159//160 179//192
f 116//110 160//159 196//196
f 197//197 196//196 160//159
f 162//162 116//110 196//196
f 183//198 162//162 196//196
f 183//198 198//199 162//162
f 181//180 125//122 180//179
f 199//200 127//128 181//180
f 181//180 180//179 199//200
f 195//195 161//161 165//165
f 184//182 200//201 167//167
f 132//168 162//162 198//199
f 173//173 201//202 156//156
f 201//202 202//203 156//156
f 202//203 203//204 155//155
f 204//205 169//169 205//206
f 202//203 155//155 156//156
f 169//169 104//100 205//206
f 207//207 187//186 169//169
f 208//208 174//174 155//155
f 185//184 171//171 187//186
f 173//173 188//187 211//209
f 174//174 208//208 176//176
f 188//187 163//163 189//188
f 188//187 157//157 163//163
f 191//189 209//210 190//191
f 190//191 160//159 179//192
f 190//191 209//210 160//159
f 191//189 124//126 127//128
f 127//128 199//200 209//210
f 180//179 194//194 199//200
f 191//189 127//128 209//210
f 209//210 199//200 200//201
f 210//211 167//167 200//201
f 210//211 200//201 199//200
f 160//159 209//210 183//198
f 200//201 183//198 209//210
f 198//199 183//198 200//201
f 183//198 197//197 160//159
f 201//202 173//173 211//209
f 202//203 201//202 212//212
f 211//209 212//212 201//202
f 214//213 203//204 202//203
f 212//212 214//213 202//203
f 215//214 206//215 168//183
f 206//215 205//206 104//100
f 206//215 104//100 168//183
f 169//169 204//205 216//216
f 217//217 207//207 169//169
f 204//205 205//206 218//218
f 222//219 223//220 207//207
f 224//221 225//221 226//221
f 219//222 205//206 227//223
f 228//224 219//225 229//226
f 205//206 213//227 230//228
f 227//223 205//206 230//228
f 213//227 231//229 230//228
f 208//208 155//155 203//204
f 232//230 185//184 187//186
f 232//230 187//186 207//207
f 233//231 234//232 235//233
f 236//234 228//224 229//226
f 237//235 233//231 235//233
f 237//235 235//233 238//236
f 232//230 239//237 240//238
f 229//226 227//223 230//228
f 229//226 241//239 236//234
f 229//226 242//240 241//239
f 230//228 242//240 229//226
f 231//229 243//241 230//228
f 242//240 230//228 243//241
f 244//242 231//229 239//237
f 241//239 238//236 235//233
f 245//243 244//242 239//237
f 244//242 238//236 246//244
f 242//240 243//241 248//245
f 242//240 249//246 241//239
f 241//239 246//244 238//236
f 242//240 248//245 247//247
f 246//244 241//239 250//248
f 251//249 241//239 249//246
f 250//248 241//239 251//249
f 251//249 249//246 247//247
f 248//245 252//250 247//247
f 252//250 251//249 247//247
f 250//248 251//249 254//251
f 253//252 251//249 252//250
f 253//252 254//251 251//249
f 206//215 255//253 213//227
f 255//253 206//215 215//214
f 205//206 206//215 213//227
f 188//187 256//254 211//209
f 212//212 211//209 256//254
f 212//212 256//254 214//213
f 256//254 176//176 214//213
f 185//184 215//214 168//183
f 265//255 215//214 185//184
f 223//220 257//256 207//207
f 207//207 257//256 232//230
f 257//256 258//257 232//230
f 185//184 232//230 265//255
f 240//238 265//255 232//230
f 265//255 240//238 255//253
f 189//188 176//176 256//254
f 256//254 188//187 189//188
f 214//213 208//208 203//204
f 176//176 208//208 214//213
f 239//237 231//229 240//238
f 244//242 243//241 231//229
f 244//242 259//258 243//241
f 244//242 246//244 259//258
f 259//258 246//244 260//259
f 248//245 243//241 261//260
f 259//258 261//260 243//241
f 260//259 261//260 259//258
f 246//244 250//248 260//259
f 260//259 250//248 262//261
f 261//260 260//259 262//261
f 248//245 261//260 252//250
f 250//248 254//251 262//261
f 263//262 254//251 253//252
f 253//252 264//263 263//262
f 264//263 252//250 263//262
f 261//260 263//262 252//250
f 261//260 262//261 263//262
f 262//261 254//251 263//262
f 255//253 215//214 265//255
f 231//229 213//227 255//253
f 255//253 240//238 231//229
l 220 221
