# Blender v2.78 (sub 0) OBJ File: 'exporter.blend'
# www.blender.org
o FJ3516.obj_grp1.2122
v 0.169810 -0.599360 5.497213
v 0.170587 -0.597332 5.502313
v 0.174448 -0.592997 5.500258
v 0.174805 -0.595769 5.501624
v 0.194326 -0.626521 5.494566
v 0.174962 -0.593804 5.501782
v 0.174867 -0.595333 5.498336
v 0.213828 -0.640209 5.501588
v 0.172903 -0.594986 5.496550
v 0.174504 -0.594008 5.498595
v 0.174236 -0.594999 5.498183
v 0.197452 -0.621588 5.501959
v 0.198196 -0.621933 5.502000
v 0.197692 -0.622081 5.494801
v 0.235418 -0.647624 5.496338
v 0.221620 -0.647491 5.498066
v 0.266150 -0.667499 5.489103
v 0.236034 -0.649219 5.499580
v 0.227976 -0.642591 5.498243
v 0.262277 -0.663030 5.495236
v 0.262791 -0.668719 5.496805
v 0.275025 -0.672074 5.494253
v 0.269830 -0.662855 5.490930
v 0.215032 -0.640201 5.496809
v 0.275571 -0.663068 5.494557
v 0.267514 -0.660630 5.495772
v 0.274930 -0.666918 5.497476
v 0.272481 -0.666382 5.496748
v 0.266687 -0.666229 5.490551
v 0.275846 -0.666951 5.488684
v 0.280369 -0.668701 5.489756
v 0.293493 -0.665987 5.488240
v 0.270410 -0.662882 5.490599
v 0.287311 -0.668515 5.487500
v 0.309326 -0.671629 5.485322
v 0.292641 -0.668646 5.488764
v 0.312523 -0.669460 5.486808
v 0.288367 -0.671413 5.491807
v 0.276044 -0.670821 5.492711
v 0.287159 -0.663934 5.491913
v 0.308364 -0.664957 5.490317
v 0.308679 -0.664845 5.490313
v 0.341235 -0.662007 5.475277
v 0.346751 -0.661833 5.472776
v 0.331268 -0.662963 5.482852
v 0.342414 -0.659173 5.476876
v 0.339202 -0.667274 5.474132
v 0.347255 -0.668252 5.473399
v 0.349545 -0.666806 5.470411
v 0.342349 -0.663965 5.476868
v 0.333237 -0.661004 5.475811
v 0.335538 -0.660298 5.473732
v 0.352823 -0.667502 5.471209
v 0.355825 -0.672635 5.464697
v 0.354796 -0.663296 5.469072
v 0.361176 -0.672685 5.461818
v 0.353274 -0.668765 5.472253
v 0.360693 -0.672412 5.459877
v 0.362219 -0.675951 5.465178
v 0.366400 -0.673593 5.460623
v 0.360602 -0.678409 5.468425
v 0.377859 -0.688094 5.455304
v 0.368661 -0.672111 5.461569
v 0.382417 -0.700375 5.448159
v 0.390020 -0.709642 5.438382
v 0.371763 -0.687468 5.453318
v 0.394355 -0.708694 5.439157
v 0.389236 -0.706496 5.437292
v 0.388715 -0.706072 5.437596
v 0.369046 -0.677585 5.456516
v 0.388779 -0.700067 5.441904
v 0.388715 -0.706072 5.437596
v 0.379326 -0.689172 5.449286
v 0.374499 -0.681660 5.457032
v 0.383218 -0.696477 5.450600
v 0.367593 -0.672754 5.459073
v 0.374499 -0.681660 5.457032
v 0.379326 -0.689172 5.449286
v 0.390413 -0.707782 5.439236
v 0.385319 -0.702260 5.446018
v 0.394621 -0.711847 5.436165
v 0.387428 -0.699238 5.436796
v 0.388414 -0.705791 5.436580
v 0.394388 -0.707275 5.439908
v 0.388715 -0.700749 5.442009
v 0.397986 -0.714071 5.429204
v 0.391060 -0.706840 5.437505
v 0.406383 -0.710350 5.432944
v 0.391184 -0.698249 5.440910
v 0.391373 -0.707224 5.437099
v 0.407447 -0.711258 5.427006
v 0.407155 -0.711071 5.427499
v 0.386543 -0.707005 5.440760
v 0.406504 -0.713262 5.421637
v 0.403109 -0.713835 5.427380
v 0.409407 -0.716316 5.421112
v 0.413364 -0.716646 5.421113
v 0.407383 -0.713081 5.430060
v 0.415434 -0.711768 5.418355
v 0.406671 -0.712913 5.421164
v 0.449881 -0.717019 5.381450
v 0.445018 -0.715465 5.391040
v 0.452508 -0.714490 5.380097
v 0.448641 -0.717583 5.379138
v 0.448130 -0.719902 5.381591
v 0.451121 -0.716788 5.380682
v 0.449679 -0.715958 5.381629
v 0.448758 -0.716090 5.379683
v 0.433335 -0.715471 5.396518
v 0.448935 -0.716370 5.380649
v 0.446367 -0.713883 5.384164
v 0.448323 -0.713305 5.383963
v 0.449614 -0.715481 5.379905
v 0.448806 -0.717340 5.379195
v 0.451872 -0.717340 5.381918
vn -0.8118 -0.1867 -0.5533
vn -0.6571 0.1471 0.7393
vn -0.5679 0.8231 -0.0002
vn -0.0241 0.4379 0.8987
vn -0.2892 0.5832 -0.7591
vn -0.2555 -0.5032 0.8256
vn -0.5831 -0.6384 -0.5024
vn 0.0303 0.0191 0.9994
vn 0.0629 0.0480 0.9969
vn 0.7311 0.5886 -0.3450
vn 0.4576 0.5041 0.7325
vn 0.6959 0.6261 -0.3519
vn 0.2389 0.2616 -0.9351
vn 0.3791 0.5620 -0.7351
vn 0.4997 0.5284 -0.6863
vn 0.4072 0.6796 0.6102
vn -0.3899 -0.9192 0.0552
vn -0.1043 -0.9639 -0.2449
vn 0.1483 0.1823 0.9720
vn 0.5523 0.8047 0.2176
vn -0.1226 -0.5650 0.8159
vn -0.3765 -0.9139 -0.1521
vn 0.2759 -0.3583 0.8919
vn 0.1413 0.5951 -0.7911
vn -0.3913 -0.5470 -0.7400
vn 0.2179 0.9543 -0.2046
vn 0.2309 0.5467 0.8048
vn 0.2748 0.5591 0.7822
vn 0.0120 -0.2892 0.9572
vn -0.1360 -0.1731 -0.9755
vn -0.2017 -0.2105 -0.9565
vn -0.1572 -0.2122 -0.9645
vn -0.1506 0.0812 -0.9852
vn -0.2756 0.3718 -0.8865
vn 0.0479 0.9985 -0.0255
vn -0.1612 -0.8431 -0.5131
vn -0.2340 -0.5036 -0.8316
vn 0.0321 -0.9846 0.1718
vn -0.0477 -0.9704 0.2367
vn -0.1852 0.4385 -0.8794
vn 0.0708 0.7850 0.6154
vn 0.2584 -0.4734 0.8421
vn 0.3385 -0.3968 0.8532
vn 0.2250 -0.3580 0.9062
vn 0.2924 0.1302 0.9474
vn -0.3163 0.2865 -0.9044
vn 0.0407 0.9797 -0.1964
vn 0.3723 0.0884 0.9239
vn -0.2036 -0.6203 -0.7575
vn -0.2258 0.6842 -0.6935
vn 0.4141 0.1574 0.8965
vn 0.2546 -0.8534 0.4549
vn -0.1946 -0.8266 -0.5281
vn -0.3247 0.4199 -0.8475
vn 0.0733 0.7958 0.6011
vn -0.1140 -0.6941 -0.7108
vn 0.3434 -0.0026 0.9392
vn -0.0861 0.6283 -0.7732
vn -0.3923 0.0989 -0.9145
vn 0.7535 0.5777 0.3139
vn 0.3178 0.0760 0.9451
vn -0.7782 -0.4643 -0.4229
vn -0.5571 -0.7597 0.3353
vn 0.2541 -0.3934 0.8836
vn -0.5107 -0.7680 0.3865
vn -0.2358 -0.6822 0.6921
vn 0.1672 0.8970 -0.4092
vn 0.2353 0.7671 -0.5968
vn 0.4736 -0.0641 0.8784
vn -0.7486 -0.4156 -0.5166
vn -0.7906 -0.6117 0.0257
vn 0.2079 -0.5998 0.7726
vn -0.8550 -0.3164 -0.4109
vn -0.7611 -0.3231 -0.5625
vn -0.6915 -0.3127 -0.6512
vn 0.2299 0.6630 -0.7125
vn 0.0618 0.5813 -0.8113
vn 0.0765 0.5815 -0.8099
vn 0.0521 0.5780 -0.8144
vn 0.8535 0.5162 0.0712
vn 0.8738 0.4798 0.0791
vn 0.8748 0.4367 -0.2100
vn 0.7695 0.6220 -0.1447
vn 0.7696 0.6257 -0.1275
vn 0.7787 0.6136 -0.1313
vn -0.3066 -0.9398 0.1509
vn -0.5096 0.1108 -0.8533
vn -0.4687 0.0270 -0.8829
vn 0.4690 0.8453 0.2560
vn 0.5136 0.8504 -0.1138
vn 0.1062 0.9809 -0.1631
vn 0.6792 0.7321 -0.0530
vn 0.8775 0.4441 -0.1812
vn -0.4048 -0.8875 -0.2203
vn -0.5971 -0.3312 -0.7306
vn -0.6214 -0.5224 -0.5839
vn -0.6629 0.0563 -0.7466
vn 0.1359 -0.9665 0.2179
vn -0.0605 -0.9196 0.3882
vn -0.3064 -0.9352 0.1777
vn -0.6997 0.1918 -0.6882
vn -0.2123 0.9184 -0.3340
vn -0.3378 0.7627 -0.5516
vn 0.3067 -0.9385 0.1586
vn 0.7840 0.0197 0.6204
vn 0.8091 0.3435 0.4769
vn -0.6504 -0.4437 -0.6165
vn -0.6503 -0.4633 -0.6020
vn 0.3013 0.9529 0.0353
vn 0.1786 0.9837 -0.0215
vn -0.1183 0.9276 -0.3542
vn 0.8251 0.1903 0.5320
s 1
f 1//1 2//2 3//3
f 4//4 3//3 2//2
f 1//1 3//3 7//5
f 8//6 1//1 5//7
f 1//1 8//6 2//2
f 8//6 12//8 2//2
f 12//8 6//9 2//2
f 6//10 13//11 11//12
f 5//7 1//1 9//13
f 14//14 5//7 9//13
f 14//14 9//13 10//15
f 11//12 13//11 14//14
f 14//14 13//11 15//16
f 13//11 12//8 8//6
f 8//6 5//7 16//17
f 16//17 5//7 17//18
f 18//19 13//11 8//6
f 18//19 19//20 13//11
f 13//11 19//20 15//16
f 8//6 16//17 20//21
f 16//17 17//18 21//22
f 18//19 8//6 22//23
f 23//24 5//7 14//14
f 15//16 23//24 14//14
f 23//24 24//25 5//7
f 25//26 23//24 15//16
f 19//20 18//19 26//27
f 26//27 18//19 27//28
f 28//29 18//19 22//23
f 30//30 29//31 24//32
f 23//24 31//33 24//25
f 32//34 33//35 25//26
f 33//35 23//24 25//26
f 17//18 34//36 21//22
f 34//36 35//37 21//22
f 22//23 36//38 28//29
f 36//38 37//39 28//29
f 32//40 31//33 23//24
f 27//28 40//41 26//27
f 27//42 37//43 41//44
f 42//45 40//41 27//28
f 34//36 43//46 35//37
f 44//47 32//34 25//26
f 45//48 41//44 37//43
f 42//45 41//44 45//48
f 50//49 31//33 32//40
f 46//50 44//47 25//26
f 42//45 46//51 40//41
f 48//52 37//43 49//53
f 45//48 46//51 42//45
f 47//54 35//37 43//46
f 45//48 37//43 48//52
f 32//34 44//47 52//55
f 32//40 51//56 50//49
f 53//57 45//48 48//52
f 52//55 44//47 55//58
f 43//46 56//59 47//54
f 57//60 46//51 45//48
f 53//57 48//52 61//61
f 47//54 56//59 54//62
f 57//60 59//63 62//64
f 54//62 59//63 49//65
f 59//63 64//66 62//64
f 58//67 52//55 60//68
f 55//58 60//68 52//55
f 46//51 57//60 62//64
f 46//51 62//64 63//69
f 66//70 64//66 54//62
f 54//62 64//66 59//63
f 65//71 64//66 66//70
f 64//66 67//72 62//64
f 56//73 68//74 65//75
f 58//67 60//68 69//76
f 70//77 71//78 72//79
f 73//80 74//81 75//82
f 54//62 56//59 66//70
f 77//83 78//84 76//85
f 65//75 68//74 81//86
f 64//66 81//86 67//72
f 83//87 82//88 91//89
f 88//90 92//91 89//92
f 93//93 73//80 75//82
f 68//74 95//94 81//86
f 94//95 96//96 86//97
f 97//98 81//86 95//94
f 97//98 98//99 90//100
f 81//86 97//98 67//72
f 87//101 94//95 86//97
f 99//102 83//87 91//89
f 100//103 83//87 99//102
f 101//104 97//98 95//94
f 102//105 103//106 98//99
f 96//96 104//107 105//108
f 104//107 96//96 94//95
f 102//105 98//99 97//98
f 106//109 92//91 88//90
f 106//109 110//110 92//91
f 107//111 100//103 99//102
f 97//98 101//104 102//105
f 115//112 103//106 102//105
l 79 80
l 84 85
l 111 112
l 113 114
l 38 39
l 108 109
