# Blender v2.78 (sub 0) OBJ File: 'exporter.blend'
# www.blender.org
o FJ3520.obj_grp1.2126
v 0.265682 -0.918430 5.210746
v 0.266959 -0.919208 5.211154
v 0.261150 -0.922824 5.209896
v 0.261584 -0.919887 5.209226
v 0.262011 -0.919047 5.206509
v 0.263220 -0.920742 5.209401
v 0.264181 -0.922708 5.208910
v 0.264777 -0.922025 5.207231
v 0.264777 -0.922861 5.209156
v 0.263020 -0.918507 5.207779
v 0.264777 -0.922025 5.207231
v 0.264228 -0.920414 5.206963
v 0.264748 -0.920106 5.206847
v 0.263054 -0.920851 5.207470
v 0.262605 -0.920072 5.207691
v 0.263818 -0.920616 5.207537
v 0.274538 -0.911624 5.248093
v 0.268806 -0.912405 5.228495
v 0.275193 -0.912385 5.251614
v 0.270142 -0.917308 5.232766
v 0.270777 -0.918269 5.224179
v 0.269484 -0.913572 5.227632
v 0.272115 -0.915762 5.231843
v 0.264940 -0.918232 5.210095
v 0.275538 -0.910954 5.245458
v 0.274922 -0.913618 5.244029
v 0.271403 -0.915233 5.235522
v 0.270777 -0.918269 5.224179
v 0.275587 -0.914083 5.244767
v 0.278974 -0.913293 5.243331
v 0.279759 -0.905181 5.268001
v 0.274584 -0.914724 5.241614
v 0.275143 -0.914556 5.246211
v 0.277974 -0.912928 5.251902
v 0.274724 -0.909691 5.244462
v 0.280909 -0.908639 5.264375
v 0.290344 -0.894319 5.309582
v 0.282637 -0.910065 5.274163
v 0.287476 -0.902821 5.285691
v 0.291506 -0.900088 5.305015
v 0.281882 -0.909378 5.268518
v 0.282024 -0.909660 5.268449
v 0.281655 -0.905071 5.276513
v 0.282689 -0.902754 5.285396
v 0.290103 -0.895938 5.301757
v 0.289024 -0.902259 5.290759
v 0.297743 -0.888362 5.329271
v 0.297265 -0.887672 5.329592
v 0.298675 -0.886145 5.324723
v 0.308040 -0.883381 5.339042
v 0.307213 -0.880195 5.344140
v 0.313486 -0.873228 5.364415
v 0.307763 -0.873325 5.356805
v 0.316726 -0.870709 5.362118
v 0.299733 -0.887982 5.324858
v 0.316218 -0.871359 5.364995
v 0.313880 -0.863259 5.377807
v 0.311762 -0.867663 5.363119
v 0.313506 -0.869500 5.358103
v 0.311708 -0.867568 5.363140
v 0.315053 -0.856300 5.387551
v 0.319401 -0.847332 5.398602
v 0.315702 -0.866158 5.374823
v 0.316199 -0.871290 5.365017
v 0.316860 -0.870028 5.368487
v 0.321126 -0.852587 5.400817
v 0.320989 -0.850397 5.400130
v 0.319446 -0.851133 5.400227
v 0.318042 -0.850160 5.400979
v 0.317455 -0.851123 5.395695
v 0.316714 -0.850061 5.396939
v 0.321112 -0.848789 5.400837
v 0.319432 -0.849372 5.401386
v 0.319959 -0.848704 5.400799
v 0.319276 -0.847578 5.398818
vn -0.9774 0.0559 0.2036
vn -0.6679 -0.6720 0.3199
vn -0.9418 0.1946 0.2743
vn -0.9778 0.1170 0.1737
vn -0.6206 0.7711 -0.1425
vn -0.8984 0.4206 0.1263
vn -0.8634 -0.3317 0.3802
vn -0.9431 -0.2407 0.2293
vn -0.2301 -0.9271 0.2958
vn -0.5250 0.8171 -0.2379
vn 0.8804 0.3688 -0.2981
vn 0.8834 0.3715 -0.2857
vn 0.8574 0.3967 -0.3278
vn -0.6006 0.7925 0.1063
vn -0.2601 -0.8933 0.3666
vn 0.3394 0.8628 -0.3747
vn 0.3274 0.9350 -0.1363
vn 0.3053 0.9120 -0.2740
vn 0.2230 -0.9617 0.1593
vn -0.4291 -0.8812 0.1986
vn -0.1129 -0.9763 0.1847
vn 0.2470 -0.9623 0.1137
vn -0.9199 0.3920 0.0099
vn -0.6016 -0.7054 0.3748
vn 0.7369 0.6445 -0.2038
vn 0.9739 0.0282 -0.2252
vn -0.8167 -0.4013 0.4146
vn 0.9192 -0.3735 -0.1245
vn -0.7783 -0.4352 0.4527
vn 0.9861 0.1010 -0.1319
vn 0.8141 -0.5780 -0.0563
vn 0.7973 -0.6029 0.0302
vn 0.7773 -0.6270 -0.0518
vn -0.7759 0.6297 0.0380
vn 0.1940 0.9231 -0.3319
vn -0.5262 0.8427 -0.1139
vn 0.9230 -0.0701 -0.3784
vn 0.6582 -0.7498 0.0683
vn -0.2167 -0.8306 0.5130
vn -0.4870 0.8681 -0.0957
vn 0.2836 0.8696 -0.4043
vn 0.8678 0.0720 -0.4916
vn -0.3861 0.9143 -0.1225
vn -0.0661 -0.8776 0.4748
vn -0.7704 -0.4885 0.4097
vn 0.9413 -0.0730 -0.3295
vn 0.8027 -0.5589 0.2082
vn -0.9598 -0.0747 0.2706
vn -0.4616 0.8415 -0.2807
vn -0.5311 0.8102 -0.2482
vn -0.7262 0.6775 -0.1170
vn 0.3911 0.7269 -0.5645
vn -0.8086 0.5872 -0.0381
vn -0.9842 -0.0646 0.1647
vn -0.0615 0.9046 -0.4218
vn -0.9530 -0.1723 0.2493
vn 0.9073 -0.3768 0.1866
vn 0.7191 -0.6508 0.2437
vn 0.4511 -0.8026 0.3904
vn 0.9610 0.0917 -0.2609
vn -0.9966 0.0322 0.0761
vn -0.5090 -0.6717 0.5384
s 1
f 3//1 17//2 4//3
f 18//4 14//5 19//6
f 10//7 9//8 20//9
f 3//1 20//9 17//2
f 14//5 18//4 13//10
f 22//11 23//12 24//13
f 18//4 19//6 25//14
f 9//8 26//15 20//9
f 16//16 27//17 28//18
f 29//19 15//20 21//21
f 29//19 21//21 30//22
f 17//2 20//9 26//15
f 19//6 31//23 25//14
f 17//2 26//15 34//24
f 23//12 22//11 36//25
f 36//25 22//11 35//26
f 17//2 34//24 37//27
f 38//28 29//19 30//22
f 37//27 34//24 40//29
f 30//22 41//30 38//28
f 42//31 30//32 39//33
f 31//23 19//6 44//34
f 35//26 43//35 36//25
f 31//23 44//34 45//36
f 36//25 43//35 46//37
f 40//38 38//28 41//30
f 37//27 40//29 47//39
f 48//40 45//36 44//34
f 46//37 40//38 41//30
f 46//37 43//35 49//41
f 46//37 50//42 40//38
f 45//36 48//40 51//43
f 52//44 47//39 40//29
f 47//39 52//44 53//45
f 50//42 46//37 54//46
f 46//37 49//41 54//46
f 40//29 56//47 52//44
f 53//45 52//44 57//48
f 58//49 55//50 53//51
f 54//46 49//41 59//52
f 55//50 58//49 59//52
f 54//46 56//47 40//29
f 57//48 60//53 53//45
f 57//48 61//54 60//53
f 62//55 59//52 58//49
f 62//55 58//49 63//56
f 62//55 54//46 59//52
f 64//57 56//47 54//46
f 54//46 65//58 64//57
f 56//47 65//58 52//44
f 52//44 65//58 66//59
f 65//58 54//46 67//60
f 54//46 62//55 67//60
f 68//61 62//55 63//56
f 66//59 69//62 52//44
f 66//59 65//58 67//60
l 32 33
l 1 2
l 72 73
l 5 6
l 7 8
l 74 75
l 70 71
l 11 12
