# Blender v2.78 (sub 0) OBJ File: 'exporter.blend'
# www.blender.org
o FJ3568.obj_grp1.2157
v -0.217473 -0.607797 3.813702
v -0.238641 -0.494274 3.897429
v -0.212252 -0.629000 3.779269
v -0.222274 -0.513378 3.898656
v -0.243312 -0.450664 3.910183
v -0.238586 -0.457794 3.894113
v -0.225369 -0.467855 3.877234
v -0.239603 -0.397467 3.976722
v -0.244874 -0.373667 3.986504
v -0.239434 -0.375688 3.939666
v -0.244450 -0.358120 3.971712
v -0.223072 -0.385471 3.993656
v -0.237335 -0.334092 3.981386
v -0.223476 -0.374804 3.933652
v -0.239232 -0.364656 4.017793
v -0.237262 -0.331639 4.080285
v -0.226788 -0.361346 4.029769
v -0.241859 -0.323017 4.057665
v -0.240010 -0.313472 4.044634
v -0.230033 -0.351101 4.052110
v -0.232334 -0.340857 4.078305
v -0.227515 -0.340538 4.115431
v -0.228467 -0.308950 4.022306
v -0.219348 -0.295780 4.059077
v -0.229260 -0.314190 4.106321
v -0.226805 -0.300952 4.081149
v -0.204011 -0.680211 3.736988
v -0.201724 -0.693732 3.748186
v -0.196693 -0.647135 3.749336
v -0.202167 -0.596467 3.837706
v -0.211843 -0.575469 3.801614
v -0.181192 -0.659503 3.736562
v -0.193689 -0.528340 3.889344
v -0.208129 -0.462571 3.879269
v -0.206920 -0.425632 3.952334
v -0.219293 -0.411691 3.967424
v -0.213720 -0.374501 4.003043
v -0.219129 -0.334914 3.971060
v -0.209430 -0.364070 3.944156
v -0.206961 -0.349872 4.041088
v -0.203575 -0.362399 4.119455
v -0.212650 -0.361456 4.123509
v -0.208248 -0.345585 4.086123
v -0.220140 -0.346304 4.092405
v -0.170356 -0.457704 4.238348
v -0.168662 -0.443322 4.249259
v -0.202659 -0.334710 3.980972
v -0.193088 -0.334205 4.078239
v -0.212019 -0.329572 4.146486
v -0.165082 -0.431417 4.248624
v -0.210674 -0.307037 4.018265
v -0.197814 -0.294438 4.073684
v -0.209462 -0.295564 4.103221
v -0.201127 -0.304760 4.128939
v -0.196953 -0.698519 3.737377
v -0.194130 -0.705225 3.740221
v -0.204085 -0.685449 3.736542
v -0.197036 -0.698430 3.737270
v -0.183957 -0.679275 3.735311
v -0.183630 -0.710346 3.743572
v -0.164048 -0.710229 3.742695
v -0.170991 -0.711663 3.743564
v -0.192828 -0.673860 3.780936
v -0.168776 -0.710747 3.743091
v -0.167472 -0.695355 3.761750
v -0.203396 -0.678735 3.736841
v -0.199765 -0.672243 3.735557
v -0.179939 -0.660298 3.794934
v -0.166567 -0.663862 3.738608
v -0.176799 -0.583840 3.842635
v -0.164969 -0.655604 3.793436
v -0.191015 -0.502013 3.859037
v -0.180120 -0.516261 3.880395
v -0.175582 -0.539215 3.852354
v -0.196767 -0.410828 3.949119
v -0.192034 -0.437106 3.915441
v -0.195210 -0.386929 3.961383
v -0.168798 -0.449000 4.205489
v -0.198053 -0.361327 3.960593
v -0.176531 -0.372169 4.133382
v -0.195678 -0.342869 4.014850
v -0.189154 -0.342405 4.101000
v -0.193919 -0.313080 4.039564
v -0.191390 -0.325399 4.057259
v -0.174996 -0.345579 4.121660
v -0.182703 -0.319356 4.091100
v -0.153512 -0.418001 4.245826
v -0.178456 -0.311156 4.113371
v -0.190041 -0.297712 4.104763
v -0.169941 -0.333863 4.132791
v -0.180325 -0.310038 4.129585
v -0.183954 -0.330084 4.162836
v -0.155098 -0.700910 3.742748
v -0.155960 -0.701661 3.743655
v -0.156838 -0.675642 3.740071
v -0.153067 -0.686797 3.743647
v -0.156164 -0.672022 3.772163
v -0.162035 -0.467082 4.249799
v -0.150945 -0.478876 4.246358
v -0.147659 -0.479697 4.243073
v -0.138111 -0.483876 4.242318
v -0.160788 -0.468234 4.249358
v -0.141042 -0.478392 4.246190
v -0.165588 -0.457814 4.251357
v -0.150945 -0.478876 4.246358
v -0.162229 -0.428067 4.178050
v -0.148524 -0.414974 4.176443
v -0.121025 -0.474060 4.236051
v -0.141868 -0.414298 4.241682
v -0.125550 -0.423981 4.236085
v -0.131228 -0.480880 4.239786
v -0.131228 -0.480880 4.239786
v -0.137800 -0.482641 4.243073
v -0.117681 -0.461086 4.235583
v -0.124188 -0.474069 4.240058
v -0.124655 -0.477468 4.239786
v -0.124655 -0.477468 4.239786
v -0.147659 -0.479697 4.243073
v -0.141087 -0.478341 4.245922
v -0.150945 -0.478876 4.246358
v -0.141087 -0.478341 4.245922
v -0.147659 -0.479697 4.243073
v -0.137800 -0.482641 4.243073
v -0.117206 -0.468439 4.236425
v -0.121013 -0.432299 4.236510
v -0.121082 -0.432332 4.236500
v -0.124655 -0.477468 4.239786
v -0.121369 -0.473571 4.236500
v -0.124188 -0.474069 4.240058
v -0.117327 -0.468480 4.236500
v -0.117201 -0.468466 4.236613
v -0.117327 -0.468480 4.236500
v -0.116374 -0.460732 4.232748
v -0.116965 -0.461349 4.236129
v -0.118083 -0.455335 4.237035
vn -0.8748 -0.3639 0.3198
vn -0.9079 -0.3183 0.2728
vn -0.9289 0.0728 -0.3632
vn -0.9926 0.0308 -0.1175
vn -0.8246 0.2547 -0.5052
vn -0.3522 -0.5780 0.7361
vn -0.5640 -0.5376 0.6268
vn -0.9763 -0.1503 0.1557
vn -0.7100 0.4475 -0.5437
vn -0.2875 0.4813 -0.8281
vn -0.9645 0.2113 -0.1587
vn -0.6287 0.6472 -0.4311
vn -0.5455 -0.7036 0.4553
vn 0.0810 -0.7760 0.6255
vn -0.9322 -0.2694 0.2417
vn -0.9823 0.1310 0.1338
vn -0.8458 0.5321 -0.0393
vn -0.2213 -0.9165 0.3333
vn 0.0464 -0.8710 0.4891
vn -0.7030 -0.6862 0.1870
vn -0.4408 0.8459 -0.3003
vn -0.8263 0.4216 0.3734
vn -0.2726 0.9571 -0.0987
vn -0.6798 0.7205 0.1369
vn -0.8171 -0.5341 0.2170
vn -0.9736 -0.0734 -0.2162
vn -0.4685 0.4721 -0.7468
vn -0.3925 -0.6616 0.6389
vn -0.2263 -0.5999 0.7674
vn -0.5521 0.4171 -0.7219
vn 0.0177 0.3686 -0.9294
vn 0.3734 -0.4868 0.7897
vn 0.2609 0.5947 -0.7605
vn 0.5124 -0.4317 0.7423
vn 0.0712 -0.6454 0.7605
vn -0.1086 0.5980 -0.7941
vn 0.4139 0.5930 -0.6906
vn 0.8330 -0.3156 0.4545
vn 0.5326 -0.6793 0.5049
vn 0.9691 -0.1270 0.2113
vn 0.0064 0.7935 -0.6086
vn 0.5837 -0.7801 0.2251
vn -0.0594 -0.7927 -0.6067
vn -0.5323 -0.7619 -0.3690
vn 0.2924 -0.9331 -0.2093
vn -0.3747 -0.9244 -0.0719
vn -0.9290 -0.3033 0.2121
vn -0.8407 -0.5363 0.0751
vn -0.6799 0.0201 0.7330
vn 0.6369 0.6222 -0.4553
vn 0.7617 -0.6352 -0.1282
vn -0.6987 0.3869 0.6017
vn -0.3306 0.2974 0.8957
vn 0.2289 0.8906 -0.3929
vn 0.4379 0.8925 -0.1076
vn -0.1955 0.8380 0.5095
vn -0.2500 0.9313 0.2650
vn 0.0478 0.7213 0.6910
vn -0.8875 -0.4103 -0.2096
vn -0.4720 -0.8021 -0.3658
vn -0.0654 -0.0599 -0.9961
vn 0.0834 -0.0584 -0.9948
vn 0.1698 -0.2038 -0.9642
vn 0.0678 -0.2012 -0.9772
vn -0.0482 -0.5571 -0.8290
vn -0.1047 -0.9934 -0.0462
vn 0.1937 -0.1144 -0.9744
vn 0.2862 -0.6792 0.6758
vn 0.1973 -0.7841 0.5885
vn -0.4371 0.1974 -0.8775
vn -0.4594 0.0927 -0.8834
vn 0.0403 -0.6208 0.7829
vn 0.6114 -0.3777 0.6954
vn 0.6522 0.5229 -0.5489
vn 0.4458 0.3470 -0.8251
vn 0.9281 -0.1193 0.3526
vn 0.9264 0.2726 -0.2596
vn 0.9815 0.1768 -0.0736
vn -0.5127 -0.7325 -0.4479
vn 0.8857 0.3329 -0.3236
vn 0.9572 -0.2695 0.1051
vn 0.5903 -0.6195 -0.5176
vn 0.4042 -0.5093 -0.7598
vn 0.8858 0.4089 -0.2194
vn 0.9336 -0.3498 -0.0769
vn 0.8556 -0.1886 -0.4820
vn 0.9578 -0.1583 -0.2400
vn 0.0188 0.3869 0.9219
vn 0.9008 0.4246 -0.0911
vn 0.4691 0.8799 0.0750
vn 0.9622 0.1777 -0.2066
vn 0.6015 0.7306 0.3233
vn 0.6720 -0.5531 0.4924
vn 0.6799 0.1718 -0.7129
vn 0.9476 -0.0200 -0.3189
vn 0.8893 -0.2391 0.3898
vn 0.5642 -0.4163 0.7130
vn -0.6822 -0.7161 -0.1479
vn -0.4680 -0.7918 -0.3925
vn -0.8170 -0.5764 -0.0141
vn 0.0404 -0.2315 0.9720
vn 0.3059 -0.0383 0.9513
vn 0.2278 0.0484 0.9725
vn -0.0585 -0.2725 0.9604
vn 0.0808 -0.6808 -0.7280
vn 0.6085 -0.3698 -0.7021
vn 0.3837 -0.6006 -0.7015
vn -0.0802 -0.7563 -0.6492
vn 0.3714 0.4856 0.7914
vn 0.8310 0.4437 0.3355
vn -0.2506 -0.0732 -0.9653
vn 0.3690 -0.5452 0.7527
vn 0.5065 -0.2631 0.8211
vn 0.4215 0.0539 0.9052
vn 0.3694 0.0551 0.9276
vn 0.4389 -0.8320 -0.3394
vn 0.3508 -0.3556 0.8663
vn 0.0650 -0.9508 0.3028
vn -0.1909 -0.6394 0.7448
vn 0.6303 -0.4204 -0.6526
vn 0.3655 0.1289 0.9219
vn 0.7849 -0.1561 0.5996
vn 0.7551 -0.3605 0.5476
vn 0.6911 -0.5486 0.4706
vn 0.2919 0.1511 0.9444
vn 0.9855 -0.0414 0.1647
vn 0.9463 -0.0276 -0.3221
vn 0.9833 0.0667 0.1695
vn 0.9714 0.1208 0.2046
vn 0.4631 0.1748 -0.8689
s 1
f 1//1 2//2 3//3
f 2//2 5//4 3//3
f 3//3 5//4 6//5
f 2//2 4//6 8//7
f 2//2 8//7 9//8
f 10//9 6//5 5//4
f 10//9 7//10 6//5
f 2//2 9//8 5//4
f 5//4 11//11 10//9
f 5//4 9//8 11//11
f 13//12 10//9 11//11
f 8//7 15//13 9//8
f 15//13 8//7 12//14
f 9//8 15//13 16//15
f 9//8 18//16 11//11
f 11//11 18//16 19//17
f 15//13 20//18 16//15
f 9//8 16//15 18//16
f 17//19 20//18 15//13
f 20//18 21//20 16//15
f 11//11 19//17 13//12
f 23//21 13//12 19//17
f 18//16 25//22 19//17
f 18//16 16//15 25//22
f 24//23 19//17 26//24
f 19//17 25//22 26//24
f 28//25 1//1 27//26
f 1//1 3//3 27//26
f 29//27 27//26 3//3
f 63//28 1//1 28//25
f 63//28 30//29 1//1
f 31//30 29//27 3//3
f 29//27 31//30 32//31
f 31//30 7//10 32//31
f 31//30 3//3 6//5
f 1//1 4//6 2//2
f 1//1 30//29 4//6
f 33//32 4//6 30//29
f 32//31 7//10 34//33
f 6//5 7//10 31//30
f 4//6 33//32 35//34
f 4//6 36//35 8//7
f 36//35 4//6 35//34
f 14//36 34//33 7//10
f 14//36 7//10 10//9
f 34//33 14//36 39//37
f 12//14 8//7 36//35
f 12//14 36//35 35//34
f 35//34 75//38 12//14
f 75//38 37//39 12//14
f 75//38 77//40 37//39
f 38//41 39//37 14//36
f 10//9 38//41 14//36
f 15//13 12//14 17//19
f 12//14 37//39 17//19
f 17//19 37//39 40//42
f 41//43 42//44 43//45
f 44//46 42//44 22//47
f 22//47 45//48 46//49
f 13//12 38//41 10//9
f 38//41 47//50 39//37
f 17//19 40//42 20//18
f 40//42 43//45 20//18
f 40//42 48//51 43//45
f 21//20 20//18 44//46
f 43//45 44//46 20//18
f 21//20 22//47 16//15
f 21//20 44//46 22//47
f 43//45 42//44 44//46
f 22//47 25//22 16//15
f 25//22 22//47 49//52
f 46//49 49//52 22//47
f 46//49 50//53 49//52
f 13//12 23//21 51//54
f 13//12 51//54 38//41
f 38//41 51//54 47//50
f 51//54 23//21 24//23
f 23//21 19//17 24//23
f 24//23 52//55 51//54
f 49//52 54//56 25//22
f 25//22 54//56 53//57
f 49//52 92//58 54//56
f 24//23 26//24 53//57
f 24//23 53//57 52//55
f 25//22 53//57 26//24
f 27//26 55//59 28//25
f 56//60 28//25 55//59
f 57//61 59//62 58//63
f 59//62 56//60 58//63
f 61//64 56//60 59//62
f 61//64 62//65 56//60
f 56//60 62//65 60//66
f 59//62 93//67 61//64
f 60//66 63//28 56//60
f 63//28 28//25 56//60
f 65//68 60//66 64//69
f 60//66 65//68 63//28
f 67//70 57//61 66//71
f 27//26 29//27 67//70
f 59//62 57//61 67//70
f 63//28 65//68 68//72
f 32//31 67//70 29//27
f 32//31 59//62 67//70
f 30//29 63//28 68//72
f 30//29 68//72 70//73
f 34//33 72//74 32//31
f 69//75 32//31 72//74
f 30//29 70//73 33//32
f 70//73 73//76 33//32
f 75//38 35//34 33//32
f 75//38 33//32 73//76
f 34//33 76//77 72//74
f 72//74 76//77 74//78
f 74//78 76//77 73//76
f 39//37 76//77 34//33
f 75//38 73//76 76//77
f 75//38 76//77 77//40
f 42//44 78//79 45//48
f 42//44 41//43 78//79
f 76//77 39//37 79//80
f 76//77 79//80 77//40
f 22//47 42//44 45//48
f 79//80 39//37 47//50
f 37//39 77//40 81//81
f 41//43 82//82 80//83
f 81//81 77//40 79//80
f 81//81 40//42 37//39
f 79//80 83//84 81//81
f 81//81 84//85 40//42
f 48//51 40//42 84//85
f 82//82 43//45 48//51
f 82//82 41//43 43//45
f 82//82 85//86 80//83
f 82//82 48//51 86//87
f 82//82 86//87 85//86
f 92//58 49//52 50//53
f 87//88 92//58 50//53
f 47//50 51//54 83//84
f 79//80 47//50 83//84
f 52//55 83//84 51//54
f 84//85 81//81 83//84
f 83//84 52//55 88//89
f 84//85 86//87 48//51
f 84//85 83//84 86//87
f 83//84 88//89 86//87
f 88//89 52//55 89//90
f 86//87 88//89 90//91
f 89//90 54//56 91//92
f 91//92 88//89 89//90
f 92//58 91//92 54//56
f 52//55 53//57 89//90
f 89//90 53//57 54//56
f 64//69 94//93 65//68
f 95//94 59//62 69//75
f 95//94 93//67 59//62
f 95//94 96//95 93//67
f 65//68 94//93 97//96
f 94//93 96//95 97//96
f 68//72 65//68 71//97
f 65//68 97//96 71//97
f 32//31 69//75 59//62
f 70//73 68//72 71//97
f 95//94 74//78 96//95
f 96//95 74//78 97//96
f 71//97 97//96 70//73
f 97//96 74//78 70//73
f 69//75 72//74 95//94
f 74//78 95//94 72//74
f 70//73 74//78 73//76
f 99//98 78//79 100//99
f 98//100 45//48 78//79
f 102//101 103//102 104//103
f 98//100 78//79 99//98
f 105//104 103//102 102//101
f 106//105 107//106 108//107
f 78//79 106//105 101//108
f 101//108 100//99 78//79
f 98//100 46//49 45//48
f 104//103 50//53 46//49
f 106//105 78//79 41//43
f 41//43 80//83 106//105
f 107//106 106//105 80//83
f 50//53 104//103 87//88
f 103//102 109//109 104//103
f 109//109 87//88 104//103
f 87//88 109//109 92//58
f 110//110 91//92 109//109
f 86//87 90//91 85//86
f 91//92 90//91 88//89
f 90//91 91//92 110//110
f 92//58 109//109 91//92
f 111//111 101//108 108//107
f 112//112 103//102 113//113
f 114//114 103//102 115//115
f 111//111 108//107 116//116
f 112//112 117//117 103//102
f 117//117 115//115 103//102
f 118//118 119//118 120//118
f 121//119 122//119 123//119
f 106//105 108//107 101//108
f 124//120 108//107 107//106
f 107//106 80//83 85//86
f 126//121 110//110 109//109
f 126//121 109//109 103//102
f 127//122 128//123 129//123
f 130//124 129//123 128//123
f 131//125 114//114 115//115
f 132//126 133//127 134//128
f 114//114 126//121 103//102
f 85//86 90//91 133//127
f 124//120 107//106 133//127
f 134//128 133//127 135//129
f 107//106 85//86 133//127
f 133//127 125//130 135//129
f 90//91 110//110 133//127
f 133//127 110//110 125//130
