# Blender v2.78 (sub 0) OBJ File: 'exporter.blend'
# www.blender.org
o FJ3561.obj_grp1.2150
v -0.286802 -0.418340 4.740891
v -0.286570 -0.419990 4.742142
v -0.287143 -0.419548 4.743027
v -0.287513 -0.417849 4.742770
v -0.285097 -0.419572 4.740963
v -0.276437 -0.422400 4.749990
v -0.284496 -0.417583 4.740554
v -0.286966 -0.417502 4.743917
v -0.277757 -0.420645 4.751346
v -0.286653 -0.416628 4.741831
v -0.284870 -0.416117 4.741780
v -0.285591 -0.416116 4.743246
v -0.275905 -0.421760 4.748163
v -0.268670 -0.421979 4.752073
v -0.272950 -0.418541 4.749436
v -0.275035 -0.418095 4.751643
v -0.277109 -0.417110 4.748037
v -0.279083 -0.416713 4.746453
v -0.276404 -0.422452 4.750021
v -0.269509 -0.426120 4.755128
v -0.271084 -0.425287 4.755843
v -0.268758 -0.424836 4.753255
v -0.265495 -0.425371 4.761211
v -0.264673 -0.430653 4.762348
v -0.266605 -0.426723 4.761073
v -0.268115 -0.420970 4.756317
v -0.261965 -0.433239 4.761405
v -0.265894 -0.421916 4.755942
v -0.258773 -0.428355 4.761371
v -0.249339 -0.450666 4.777383
v -0.246637 -0.451488 4.776506
v -0.247739 -0.446917 4.772672
v -0.252498 -0.438208 4.773349
v -0.249199 -0.449726 4.780292
v -0.258762 -0.428418 4.763824
v -0.253098 -0.436219 4.766013
v -0.243464 -0.445816 4.779127
v -0.242016 -0.451811 4.787288
v -0.242294 -0.448911 4.784235
v -0.240568 -0.449025 4.779898
v -0.242272 -0.457687 4.787015
v -0.238925 -0.459677 4.786752
v -0.238004 -0.456555 4.783322
v -0.227197 -0.462272 4.794040
v -0.234137 -0.463396 4.795739
v -0.232090 -0.463583 4.800230
v -0.226837 -0.464177 4.805860
v -0.229046 -0.456059 4.796645
v -0.236816 -0.451358 4.785888
v -0.226745 -0.459281 4.793940
v -0.222495 -0.469177 4.802738
v -0.224578 -0.462085 4.806484
v -0.229395 -0.455927 4.793353
v -0.223894 -0.459759 4.804177
v -0.222670 -0.459383 4.799465
v -0.215959 -0.468761 4.804254
v -0.211462 -0.467042 4.807361
v -0.210454 -0.477532 4.815062
v -0.212093 -0.475170 4.817259
v -0.204820 -0.468597 4.818481
v -0.204933 -0.479631 4.816329
v -0.207184 -0.471335 4.820411
v -0.205242 -0.467557 4.815360
v -0.200117 -0.481948 4.823533
v -0.203284 -0.477553 4.814225
v -0.193576 -0.480057 4.831180
v -0.205258 -0.468031 4.812913
v -0.193302 -0.482321 4.830258
v -0.192328 -0.472564 4.820732
v -0.189401 -0.477802 4.821238
v -0.197472 -0.471840 4.825797
v -0.193223 -0.477441 4.831587
v -0.191776 -0.483890 4.828876
v -0.193814 -0.483548 4.824019
v -0.195091 -0.470505 4.823771
v -0.194402 -0.470777 4.821772
v -0.182250 -0.482781 4.826666
v -0.185216 -0.484214 4.831285
v -0.184973 -0.484453 4.830394
v -0.186924 -0.481970 4.833163
v -0.187914 -0.479071 4.833949
v -0.190669 -0.473547 4.831830
v -0.181581 -0.473541 4.825070
v -0.182583 -0.471102 4.826550
v -0.185064 -0.470158 4.829885
v -0.184154 -0.470033 4.828671
v -0.186423 -0.483326 4.832224
v -0.185169 -0.484284 4.831463
v -0.186435 -0.483337 4.832478
v -0.184901 -0.484238 4.831568
v -0.183285 -0.483563 4.828518
v -0.183270 -0.483561 4.828516
v -0.185216 -0.484214 4.831285
v -0.184973 -0.484453 4.830394
v -0.183270 -0.483561 4.828516
v -0.187947 -0.476518 4.833815
v -0.186848 -0.479975 4.833770
v -0.186725 -0.480524 4.833351
v -0.187515 -0.478125 4.833961
v -0.181377 -0.480877 4.825711
v -0.188104 -0.476331 4.833680
v -0.186500 -0.471260 4.831415
v -0.182220 -0.482754 4.826638
v -0.181398 -0.480852 4.825746
v -0.181485 -0.478726 4.824666
v -0.180806 -0.475468 4.824807
v -0.181485 -0.478726 4.824666
v -0.180806 -0.475468 4.824807
v -0.181398 -0.480852 4.825746
v -0.180806 -0.475468 4.824807
v -0.181345 -0.475040 4.825417
v -0.181074 -0.474991 4.824855
v -0.185325 -0.470425 4.830167
v -0.182672 -0.470994 4.827013
v -0.184283 -0.470097 4.828797
v -0.182672 -0.470994 4.827013
v -0.181106 -0.474998 4.824901
v -0.181070 -0.474458 4.824948
v -0.181666 -0.472754 4.825792
v -0.181106 -0.474998 4.824901
v -0.181070 -0.474458 4.824948
v -0.181461 -0.473129 4.824968
v -0.180736 -0.474193 4.824827
v -0.183171 -0.471228 4.826870
vn -0.5122 -0.8058 -0.2970
vn -0.8104 -0.5469 0.2100
vn -0.6280 -0.0289 -0.7777
vn -0.9823 0.1782 0.0570
vn 0.0692 -0.6175 -0.7835
vn -0.4371 -0.8958 -0.0810
vn -0.7348 0.3232 0.5963
vn -0.6365 -0.1864 0.7485
vn -0.6026 0.7086 -0.3670
vn 0.2214 0.2455 -0.9438
vn 0.0584 0.8751 -0.4804
vn -0.3134 0.9220 0.2274
vn 0.1668 -0.8321 -0.5289
vn 0.6574 0.0020 -0.7535
vn 0.5753 0.6946 -0.4319
vn 0.1664 0.9858 0.0207
vn 0.4493 0.7921 -0.4131
vn -0.0743 0.8385 0.5398
vn -0.7515 -0.6446 0.1401
vn -0.3419 -0.8720 -0.3502
vn -0.6174 -0.7597 0.2040
vn 0.2471 -0.5915 -0.7675
vn -0.2137 0.5697 0.7936
vn -0.8042 -0.5354 0.2582
vn -0.6904 0.0554 0.7213
vn 0.1422 0.8858 0.4417
vn 0.6688 0.7270 -0.1555
vn -0.3868 -0.7660 -0.5135
vn 0.8069 0.4680 -0.3605
vn -0.6542 -0.7372 -0.1690
vn 0.3753 -0.4362 -0.8179
vn -0.0689 0.6369 0.7679
vn -0.8211 -0.1744 0.5434
vn 0.4642 0.7904 0.3998
vn 0.7296 0.0327 -0.6831
vn -0.0617 -0.7658 -0.6401
vn 0.6205 0.7583 0.1997
vn 0.1099 0.7977 0.5929
vn -0.4472 0.5031 0.7396
vn 0.5697 0.7977 0.1977
vn -0.1727 -0.8950 -0.4112
vn -0.7413 -0.6486 0.1728
vn 0.5074 -0.4122 -0.7567
vn 0.4280 -0.5217 -0.7380
vn -0.5781 -0.8141 0.0556
vn -0.7671 -0.3670 0.5262
vn -0.6579 0.0380 0.7522
vn 0.2445 0.9419 0.2303
vn 0.5555 0.8315 0.0067
vn 0.7427 0.1608 -0.6500
vn 0.0125 -0.8321 -0.5545
vn -0.3779 0.5485 0.7459
vn 0.5372 0.8433 -0.0190
vn -0.0500 0.8444 0.5334
vn 0.6550 0.6779 -0.3339
vn 0.4051 -0.4021 -0.8211
vn 0.6259 0.1904 -0.7563
vn -0.4685 -0.8831 0.0253
vn -0.6768 -0.3796 0.6307
vn -0.0826 0.8329 0.5473
vn -0.0954 -0.9128 -0.3970
vn -0.4506 0.3765 0.8095
vn 0.3365 0.9389 0.0727
vn -0.4571 -0.8503 0.2608
vn 0.2683 -0.5912 -0.7606
vn 0.5327 0.7807 -0.3265
vn -0.4454 -0.5983 0.6661
vn -0.5072 -0.2175 0.8339
vn -0.0328 -0.9498 -0.3111
vn 0.4720 -0.0618 -0.8794
vn -0.2833 0.7131 0.6413
vn -0.5201 0.0904 0.8493
vn -0.2353 -0.9301 0.2819
vn 0.0196 0.9884 0.1503
vn 0.3658 0.8963 -0.2505
vn 0.5133 0.5190 -0.6835
vn 0.1596 -0.7542 -0.6370
vn 0.0757 -0.9936 -0.0841
vn -0.3449 -0.4761 0.8089
vn -0.1194 -0.0558 0.9913
vn -0.3679 0.5267 0.7664
vn 0.3218 0.3499 -0.8798
vn -0.2061 0.9600 0.1895
vn 0.0058 0.9746 -0.2239
vn -0.2780 -0.7161 0.6403
vn -0.1898 -0.9055 0.3795
vn 0.1413 -0.9366 -0.3207
vn 0.7101 -0.6070 0.3568
vn 0.8586 0.1968 0.4733
vn 0.8395 0.0907 0.5357
vn 0.7463 0.0294 0.6649
vn 0.3417 -0.3567 0.8695
vn 0.5017 -0.2442 0.8298
vn 0.0094 -0.3058 0.9521
vn 0.8569 0.2230 0.4648
vn 0.8959 0.3353 0.2915
vn 0.2669 -0.4718 -0.8403
vn -0.2859 0.1157 0.9512
vn 0.0890 0.7182 0.6902
vn 0.2303 0.7812 -0.5802
vn 0.8243 -0.0245 0.5657
vn 0.8897 -0.1883 0.4159
vn 0.3922 -0.3088 -0.8665
vn 0.3594 0.0665 -0.9308
vn 0.8977 -0.1697 -0.4065
vn 0.8044 0.1904 0.5627
vn 0.8412 0.0875 0.5337
vn 0.2407 0.2328 -0.9423
vn 0.7529 0.0672 0.6547
vn 0.7748 0.0685 0.6285
vn 0.7694 0.1448 0.6222
vn 0.8047 0.4329 0.4063
vn 0.8052 0.0188 0.5928
vn 0.1355 0.1334 -0.9818
vn 0.9058 -0.0968 0.4124
vn 0.8791 -0.0330 0.4754
vn 0.4325 0.8908 -0.1393
vn 0.8348 0.5191 0.1831
vn 0.7433 0.6522 0.1490
vn 0.8687 0.4398 0.2279
s 1
f 2//1 3//2 1//3
f 3//2 4//4 1//3
f 1//3 5//5 2//1
f 2//1 6//6 3//2
f 3//2 8//7 4//4
f 9//8 8//7 3//2
f 1//3 4//4 10//9
f 1//3 7//10 5//5
f 7//10 1//3 10//9
f 7//10 10//9 11//11
f 11//11 10//9 12//12
f 4//4 8//7 10//9
f 8//7 12//12 10//9
f 13//13 2//1 5//5
f 14//14 5//5 7//10
f 14//14 7//10 15//15
f 9//8 3//2 6//6
f 11//11 15//15 7//10
f 11//11 12//12 17//16
f 15//15 11//11 18//17
f 13//13 6//6 2//1
f 14//14 13//13 5//5
f 16//18 17//16 12//12
f 16//18 12//12 8//7
f 6//6 19//19 9//8
f 13//13 20//20 6//6
f 21//21 9//8 19//19
f 21//21 6//6 20//20
f 20//20 13//13 22//22
f 14//14 22//22 13//13
f 9//8 16//18 8//7
f 23//23 16//18 9//8
f 17//16 15//15 18//17
f 24//24 25//25 21//21
f 25//25 9//8 21//21
f 9//8 25//25 23//23
f 17//16 16//18 15//15
f 26//26 15//15 16//18
f 28//27 15//15 26//26
f 27//28 20//20 22//22
f 21//21 20//20 24//24
f 26//26 16//18 23//23
f 14//14 15//15 28//27
f 27//28 22//22 14//14
f 24//24 20//20 27//28
f 29//29 14//14 28//27
f 27//28 30//30 24//24
f 14//14 32//31 27//28
f 33//32 25//25 34//33
f 33//32 23//23 25//25
f 33//32 35//34 23//23
f 14//14 29//29 36//35
f 35//34 26//26 23//23
f 35//34 29//29 28//27
f 35//34 28//27 26//26
f 24//24 30//30 34//33
f 27//28 31//36 30//30
f 24//24 34//33 25//25
f 31//36 27//28 32//31
f 14//14 36//35 32//31
f 33//32 37//37 35//34
f 37//37 29//29 35//34
f 39//38 33//32 38//39
f 38//39 33//32 34//33
f 36//35 29//29 40//40
f 37//37 40//40 29//29
f 42//41 41//42 30//30
f 42//41 30//30 31//36
f 34//33 30//30 41//42
f 44//43 43//44 32//31
f 36//35 44//43 32//31
f 41//42 42//41 45//45
f 41//42 46//46 34//33
f 43//44 42//41 31//36
f 34//33 46//46 47//47
f 43//44 31//36 32//31
f 34//33 47//47 38//39
f 44//43 36//35 40//40
f 37//37 33//32 39//38
f 46//46 41//42 45//45
f 39//38 48//48 49//49
f 50//50 40//40 49//49
f 37//37 39//38 49//49
f 49//49 40//40 37//37
f 45//45 42//41 51//51
f 42//41 43//44 44//43
f 38//39 47//47 52//52
f 48//48 39//38 38//39
f 40//40 50//50 44//43
f 49//49 48//48 53//53
f 44//43 51//51 42//41
f 54//54 48//48 38//39
f 52//52 54//54 38//39
f 55//55 50//50 49//49
f 56//56 44//43 50//50
f 50//50 55//55 57//57
f 58//58 46//46 45//45
f 47//47 46//46 59//59
f 45//45 51//51 58//58
f 51//51 44//43 56//56
f 56//56 50//50 57//57
f 60//60 48//48 54//54
f 54//54 52//52 60//60
f 61//61 58//58 51//51
f 58//58 59//59 46//46
f 52//52 47//47 62//62
f 60//60 52//52 62//62
f 48//48 55//55 53//53
f 63//63 48//48 60//60
f 58//58 64//64 59//59
f 56//56 65//65 51//51
f 65//65 61//61 51//51
f 59//59 62//62 47//47
f 55//55 67//66 57//57
f 48//48 67//66 55//55
f 58//58 61//61 64//64
f 64//64 68//67 59//59
f 62//62 59//59 66//68
f 63//63 67//66 48//48
f 61//61 65//65 74//69
f 70//70 65//65 56//56
f 71//71 62//62 72//72
f 64//64 74//69 73//73
f 64//64 61//61 74//69
f 68//67 66//68 59//59
f 62//62 66//68 72//72
f 63//63 75//74 76//75
f 71//71 60//60 62//62
f 60//60 71//71 75//74
f 75//74 63//63 60//60
f 67//66 63//63 76//75
f 69//76 67//66 76//75
f 68//67 64//64 73//73
f 65//65 77//77 74//69
f 57//57 70//70 56//56
f 57//57 69//76 70//70
f 67//66 69//76 57//57
f 77//77 79//78 74//69
f 79//78 73//73 74//69
f 68//67 80//79 81//80
f 66//68 68//67 81//80
f 70//70 77//77 65//65
f 72//72 82//81 71//71
f 70//70 69//76 83//82
f 76//75 75//74 85//83
f 86//84 76//75 85//83
f 85//83 75//74 71//71
f 87//85 73//73 78//86
f 79//78 78//86 73//73
f 79//78 77//77 92//87
f 93//88 94//88 95//88
f 87//85 68//67 73//73
f 90//89 91//90 96//91
f 80//79 68//67 87//85
f 89//92 88//93 97//94
f 90//89 96//91 98//95
f 89//92 97//94 81//80
f 99//96 98//95 96//91
f 100//97 77//77 70//70
f 82//81 72//72 101//98
f 72//72 66//68 81//80
f 97//94 101//98 81//80
f 72//72 81//80 101//98
f 96//91 102//99 82//81
f 83//82 69//76 84//100
f 69//76 76//75 86//84
f 86//84 84//100 69//76
f 71//71 82//81 85//83
f 104//101 91//90 103//102
f 105//103 100//97 70//70
f 96//91 91//90 104//101
f 106//104 105//103 70//70
f 107//105 108//105 109//105
f 96//91 104//101 110//106
f 111//107 96//91 110//106
f 83//82 112//108 70//70
f 70//70 112//108 106//104
f 113//109 96//91 114//110
f 102//99 85//83 82//81
f 114//110 115//111 113//109
f 113//109 102//99 96//91
f 110//106 117//112 111//107
f 96//91 111//107 119//113
f 118//114 112//108 83//82
f 120//115 121//116 111//107
f 119//113 111//107 121//116
f 114//110 96//91 119//113
f 86//84 116//117 84//100
f 122//118 124//119 123//120
