# Blender v2.78 (sub 0) OBJ File: 'exporter.blend'
# www.blender.org
o FJ3572.obj_grp1.2161
v -0.143297 -0.177103 4.013722
v -0.153975 -0.162914 3.965662
v -0.133578 -0.170178 4.004928
v -0.145462 -0.175827 4.014228
v -0.182509 -0.126541 3.848769
v -0.185688 -0.129100 3.826365
v -0.169894 -0.139555 3.841447
v -0.168165 -0.102403 3.794499
v -0.169865 -0.154407 3.892215
v -0.158770 -0.140510 3.896294
v -0.127264 -0.168545 4.014426
v -0.129231 -0.172236 4.013290
v -0.135339 -0.160829 3.971723
v -0.140649 -0.186479 3.998182
v -0.141728 -0.187220 4.011052
v -0.145755 -0.175230 4.013187
v -0.123238 -0.179258 4.004412
v -0.145004 -0.159508 3.922185
v -0.129591 -0.188995 4.006224
v -0.129591 -0.188995 4.006224
v -0.141684 -0.187173 4.011045
v -0.129591 -0.188995 4.006224
v -0.123238 -0.179258 4.004412
v -0.123238 -0.179258 4.004412
v -0.145004 -0.159508 3.922185
v -0.168943 -0.124471 3.811040
v -0.165651 -0.136743 3.851076
v -0.159536 -0.088772 3.773743
v -0.174897 -0.117534 3.827638
v -0.167158 -0.097427 3.791608
v -0.161024 -0.104389 3.797647
v -0.158813 -0.137211 3.848143
v -0.168943 -0.124471 3.811040
v -0.160777 -0.108112 3.793287
v -0.170377 -0.130579 3.852161
v -0.168943 -0.124471 3.811040
v -0.165332 -0.117857 3.819735
v -0.172520 -0.128389 3.853214
v -0.162303 -0.086914 3.773437
v -0.154928 -0.082284 3.777547
v -0.157037 -0.100555 3.783097
v -0.157698 -0.108742 3.793360
v -0.155664 -0.094225 3.786151
v -0.143392 -0.085775 3.769690
v -0.157581 -0.106480 3.784900
v -0.165332 -0.117857 3.819735
v -0.082806 0.001190 3.713191
v -0.090846 -0.004566 3.704364
v -0.084967 0.000425 3.711492
v -0.078699 -0.001728 3.707654
v -0.088536 0.001368 3.705715
v -0.087608 0.000956 3.704941
v -0.082729 0.003164 3.710347
v -0.081997 0.004953 3.712934
v -0.084834 0.005262 3.714126
v -0.080490 -0.004117 3.706377
v -0.079356 -0.001963 3.706702
vn -0.9127 -0.3182 -0.2563
vn -0.9645 -0.2134 0.1559
vn -0.7688 0.5123 0.3827
vn 0.1198 0.9543 0.2737
vn 0.0679 0.8762 0.4771
vn -0.4129 0.8503 0.3265
vn -0.8798 0.3699 0.2986
vn 0.6475 0.7501 0.1348
vn 0.5882 0.8046 0.0816
vn -0.3999 -0.8807 -0.2536
vn -0.3805 -0.9145 -0.1376
vn -0.7885 -0.6136 0.0427
vn -0.3275 0.9024 0.2802
vn 0.7289 -0.5885 -0.3498
vn 0.8746 -0.4316 -0.2210
vn 0.0049 -0.9656 -0.2601
vn -0.9655 -0.2109 0.1529
vn -0.0163 -0.9730 -0.2301
vn 0.3611 0.1313 0.9232
vn 0.3796 0.0727 0.9223
vn 0.4946 0.0758 0.8658
vn 0.7529 -0.5566 -0.3512
vn 0.1338 0.0963 0.9863
vn 0.8542 0.5194 -0.0240
vn 0.9084 0.3813 -0.1717
vn 0.9340 -0.1918 -0.3016
vn 0.2713 0.8701 0.4116
vn 0.6623 0.1067 0.7416
vn -0.1709 -0.5313 -0.8298
vn -0.8592 0.5012 0.1033
vn 0.2032 0.6786 0.7058
vn 0.2459 0.8382 0.4868
vn 0.5557 -0.7022 -0.4451
vn 0.5484 -0.7303 -0.4073
vn 0.9199 -0.2468 0.3049
vn 0.8364 -0.5009 -0.2223
vn 0.9598 0.2479 -0.1316
vn 0.7679 0.5452 0.3364
vn 0.8127 0.5432 0.2108
vn -0.3143 -0.6915 -0.6504
vn 0.3973 -0.7874 -0.4713
vn 0.7032 0.0992 0.7041
vn 0.8745 -0.4140 0.2526
vn 0.8725 -0.4115 0.2635
vn 0.9792 -0.0310 0.2005
vn 0.9602 0.0042 0.2794
vn -0.8356 0.5208 -0.1750
vn -0.5884 0.7714 0.2424
vn -0.6388 0.7175 0.2778
vn -0.4026 -0.1708 -0.8993
vn -0.5464 0.7647 0.3416
vn -0.5325 0.7697 0.3520
vn 0.8411 0.0713 0.5362
vn 0.8733 -0.2091 0.4401
vn -0.2650 0.9608 0.0814
vn 0.1826 0.9570 -0.2254
vn -0.1670 0.9488 -0.2682
vn 0.6177 -0.6829 -0.3900
vn 0.1912 -0.0282 -0.9811
vn 0.3761 0.6881 -0.6205
vn 0.8125 0.4561 0.3631
s 1
f 6//1 9//2 5//3
f 10//4 29//5 5//3
f 11//6 5//3 2//7
f 5//3 12//8 13//9
f 5//3 13//9 10//4
f 6//1 7//10 14//11
f 9//2 15//12 5//3
f 9//2 14//11 15//12
f 16//13 11//6 2//7
f 5//3 15//12 2//7
f 17//14 7//15 18//16
f 2//7 15//12 1//17
f 7//10 19//18 14//11
f 15//12 14//11 19//18
f 20//19 3//20 21//21
f 22//22 7//15 17//14
f 23//23 3//20 20//19
f 13//9 24//24 25//25
f 25//25 35//26 13//9
f 13//9 35//26 29//27
f 3//20 4//28 21//21
f 12//8 24//24 13//9
f 28//29 6//1 8//30
f 29//5 8//30 5//3
f 30//31 29//27 31//32
f 32//33 33//34 34//35
f 8//30 6//1 5//3
f 35//26 31//32 29//27
f 36//36 27//37 7//15
f 27//37 37//38 38//39
f 26//40 7//10 6//1
f 18//16 27//37 38//39
f 18//16 7//15 27//37
f 41//41 6//1 28//29
f 43//42 30//31 31//32
f 44//43 34//35 45//44
f 41//41 43//42 42//45
f 43//42 46//46 42//45
f 26//40 6//1 41//41
f 34//35 33//34 45//44
f 39//47 8//48 40//49
f 48//50 28//29 39//47
f 49//51 39//47 40//49
f 49//51 40//49 47//52
f 47//53 30//31 43//42
f 41//41 50//54 43//42
f 50//54 47//53 43//42
f 51//55 48//50 39//47
f 51//55 39//47 49//51
f 52//56 51//55 49//51
f 49//51 53//57 52//56
f 48//50 56//58 28//29
f 56//58 41//41 28//29
f 56//58 50//54 41//41
f 56//58 48//50 52//59
f 53//57 57//60 52//56
f 47//53 50//54 53//61
l 54 55
