# Blender v2.78 (sub 0) OBJ File: 'exporter.blend'
# www.blender.org
o FJ3584.obj_grp1.2173
v -0.328104 -0.355688 4.977182
v -0.328512 -0.356348 4.977335
v -0.329238 -0.356542 4.979226
v -0.329163 -0.356617 4.979260
v -0.328488 -0.356876 4.977458
v -0.328136 -0.357380 4.977784
v -0.329313 -0.356642 4.979379
v -0.328036 -0.355689 4.982818
v -0.327059 -0.356473 4.977252
v -0.328291 -0.356728 4.977215
v -0.327205 -0.356059 4.976584
v -0.326335 -0.354991 4.977592
v -0.328310 -0.357678 4.977241
v -0.327205 -0.356059 4.976584
v -0.326013 -0.358010 4.976107
v -0.328284 -0.357691 4.977239
v -0.326735 -0.356107 4.978176
v -0.327346 -0.356453 4.977015
v -0.328370 -0.357852 4.977106
v -0.327634 -0.358373 4.979870
v -0.307261 -0.365465 4.996959
v -0.300947 -0.361351 5.003486
v -0.304950 -0.367080 5.004143
v -0.310745 -0.358560 4.998859
v -0.312204 -0.357740 4.998356
v -0.327313 -0.355540 4.982029
v -0.305676 -0.362731 4.995691
v -0.307261 -0.365465 4.996959
v -0.305676 -0.362731 4.995691
v -0.297343 -0.366341 5.011503
v -0.297935 -0.357464 4.960145
v -0.301640 -0.359454 4.967806
v -0.302892 -0.361141 4.971387
v -0.297959 -0.357248 4.960315
v -0.299313 -0.360494 4.964722
v -0.298926 -0.356181 4.963674
v -0.304290 -0.359383 4.977429
v -0.304877 -0.363886 4.981093
v -0.305646 -0.363492 4.995117
v -0.302006 -0.363617 4.984100
v -0.302462 -0.360809 4.984190
v -0.302358 -0.360184 4.985918
v -0.301052 -0.361499 4.976912
v -0.304290 -0.359383 4.977429
v -0.302696 -0.363359 4.975211
v -0.304290 -0.359383 4.977429
v -0.301061 -0.361506 4.976867
v -0.300379 -0.358751 4.972969
v -0.301542 -0.362590 4.997146
v -0.303979 -0.360883 4.977297
v -0.299773 -0.365519 4.999368
v -0.304375 -0.363812 4.994799
v -0.298595 -0.368218 5.000084
v -0.302001 -0.363641 4.984190
v -0.301196 -0.366605 4.995456
v -0.299074 -0.367783 5.003080
v -0.302961 -0.367334 5.000303
v -0.305676 -0.362731 4.995691
v -0.301542 -0.362590 4.997146
v -0.304375 -0.363812 4.994799
v -0.304469 -0.364755 4.995644
v -0.304469 -0.364755 4.995644
v -0.307261 -0.365465 4.996959
v -0.305676 -0.362731 4.995691
v -0.304469 -0.364755 4.995644
v -0.304253 -0.365073 4.994893
v -0.301542 -0.362590 4.997146
v -0.304469 -0.364755 4.995644
v -0.301542 -0.362590 4.997146
v -0.305676 -0.362731 4.995691
v -0.301038 -0.361426 5.003438
v -0.301038 -0.361426 5.003438
v -0.297111 -0.356279 4.961630
v -0.297748 -0.355919 4.961702
v -0.297260 -0.356115 4.961598
v -0.297684 -0.357472 4.960622
v -0.297169 -0.358846 4.961133
v -0.295829 -0.358156 4.961740
v -0.298703 -0.358009 4.963296
v -0.296044 -0.356010 4.961690
v -0.285839 -0.373550 5.011182
v -0.278749 -0.373735 5.017223
v -0.266926 -0.387397 5.027393
v -0.273095 -0.381416 5.025498
v -0.278287 -0.374376 5.017756
v -0.264253 -0.389528 5.022514
v -0.259519 -0.389442 5.029122
v -0.263232 -0.387314 5.021213
v -0.262422 -0.383534 5.025174
v -0.259894 -0.386045 5.022332
v -0.278287 -0.374376 5.017756
v -0.262422 -0.383534 5.025174
v -0.266771 -0.387021 5.026910
v -0.262658 -0.384684 4.992900
v -0.261831 -0.382435 4.994038
v -0.261696 -0.383956 4.992029
v -0.262729 -0.384488 4.993347
v -0.261578 -0.384277 4.992304
v -0.264195 -0.386725 5.005148
v -0.261127 -0.386227 5.013557
v -0.263102 -0.386234 4.993738
v -0.263918 -0.384708 5.005080
v -0.264917 -0.388446 5.020571
v -0.263694 -0.389131 5.007616
v -0.264694 -0.389179 5.010432
v -0.263830 -0.385401 5.004962
v -0.264472 -0.386761 5.013296
v -0.262153 -0.388498 5.007110
v -0.258907 -0.389047 5.019837
v -0.263694 -0.389131 5.007616
v -0.262136 -0.386758 5.012307
v -0.262712 -0.387628 5.019567
v -0.264472 -0.386761 5.013296
v -0.262491 -0.387136 5.019492
v -0.262594 -0.386618 5.020995
v -0.264456 -0.386608 5.019113
v -0.264639 -0.386219 5.019996
v -0.262328 -0.390111 5.020988
v -0.262308 -0.390071 5.020995
v -0.264188 -0.389429 5.022497
v -0.263218 -0.387551 5.020901
v -0.261502 -0.390693 5.021265
v -0.262158 -0.389964 5.020955
v -0.246703 -0.390966 5.026910
v -0.247400 -0.390152 5.027077
v -0.250983 -0.396399 5.028437
v -0.261666 -0.385267 4.993659
v -0.261742 -0.383916 4.992067
v -0.260398 -0.384176 4.994423
v -0.261696 -0.383956 4.992029
v -0.261734 -0.382588 4.994142
v -0.261346 -0.383894 4.991838
v -0.261839 -0.385946 4.993198
v -0.262899 -0.386119 4.992838
v -0.258504 -0.389115 5.020455
v -0.255237 -0.388484 5.023343
v -0.257917 -0.390506 5.021922
v -0.253521 -0.390759 5.024898
v -0.215877 -0.407707 5.020251
v -0.253624 -0.392710 5.022732
v -0.218844 -0.405862 5.028803
v -0.207545 -0.408232 5.020777
v -0.218047 -0.407461 5.019868
v -0.240625 -0.399039 5.023385
v -0.221577 -0.409823 5.024423
v -0.227472 -0.405079 4.997804
v -0.228711 -0.406069 4.996994
v -0.225417 -0.405563 4.997015
v -0.227704 -0.406932 4.997968
v -0.226820 -0.407257 4.996381
v -0.227193 -0.406846 4.996681
v -0.225727 -0.405705 4.997086
v -0.228872 -0.405941 4.996943
v -0.227819 -0.406919 4.995957
v -0.225225 -0.407842 4.997850
v -0.220746 -0.407404 5.010437
v -0.227447 -0.406159 5.002422
v -0.227554 -0.407915 5.004955
v -0.221642 -0.411583 5.012463
v -0.221054 -0.410011 5.009772
v -0.217977 -0.407448 5.019728
v -0.229922 -0.401906 5.022169
v -0.215654 -0.406606 5.019634
v -0.221171 -0.409558 5.024234
v -0.217330 -0.408485 5.018497
v -0.221171 -0.409558 5.024234
v -0.217977 -0.407448 5.019728
v -0.199336 -0.415767 5.022510
v -0.217615 -0.408998 5.018729
v -0.216489 -0.411614 5.022193
v -0.219262 -0.409735 5.010479
v -0.213521 -0.409591 5.016629
v -0.212804 -0.409023 5.019509
v -0.212451 -0.411225 5.017854
v -0.219262 -0.409735 5.010479
v -0.212094 -0.411652 5.017864
v -0.217726 -0.408951 5.019493
v -0.213996 -0.412365 5.019456
v -0.218775 -0.404637 5.017031
v -0.217572 -0.406556 5.017034
v -0.217726 -0.408951 5.019493
v -0.217726 -0.408951 5.019493
v -0.210743 -0.407865 5.018930
v -0.216232 -0.407886 5.017521
v -0.214034 -0.412387 5.019445
v -0.213521 -0.409591 5.016629
v -0.197855 -0.417012 5.011346
v -0.213521 -0.409591 5.016629
v -0.211946 -0.410684 5.017931
v -0.188751 -0.427121 5.006445
v -0.193591 -0.422946 5.016443
v -0.179928 -0.426845 5.008531
v -0.188646 -0.427290 5.006254
v -0.189748 -0.422615 5.005832
v -0.172327 -0.429857 4.993251
v -0.158222 -0.446432 4.975282
v -0.181376 -0.429896 4.998300
v -0.161497 -0.435709 4.985655
v -0.180656 -0.428727 5.007475
v -0.180392 -0.429079 5.007465
v -0.159087 -0.439066 4.973814
v -0.158928 -0.446301 4.969755
v -0.152053 -0.445862 4.973200
v -0.157837 -0.440455 4.971683
v -0.149965 -0.443783 4.960886
v -0.149071 -0.453597 4.949176
v -0.147419 -0.447391 4.928845
v -0.154733 -0.446981 4.953326
v -0.152549 -0.455868 4.920574
v -0.153679 -0.452159 4.946700
v -0.152985 -0.450932 4.948383
v -0.151417 -0.452108 4.875620
v -0.152159 -0.457255 4.877261
v -0.150974 -0.457269 4.888231
v -0.147495 -0.448701 4.891788
v -0.150974 -0.457269 4.888231
v -0.148744 -0.456224 4.920671
v -0.146962 -0.447599 4.928894
v -0.143889 -0.456081 4.865661
v -0.148744 -0.456224 4.920671
v -0.144083 -0.456386 4.877715
v -0.148923 -0.468710 4.860486
v -0.147288 -0.460459 4.876729
v -0.147294 -0.460431 4.876350
v -0.148475 -0.481560 4.836753
v -0.146726 -0.486906 4.838917
v -0.143398 -0.478049 4.837578
v -0.148923 -0.468710 4.860486
v -0.140818 -0.481036 4.839564
v -0.144238 -0.485980 4.838794
v -0.143492 -0.478378 4.837858
v -0.147257 -0.485838 4.837858
v -0.148456 -0.481585 4.836778
v -0.142771 -0.486819 4.839032
v -0.147911 -0.485298 4.837914
v -0.148456 -0.481585 4.836778
v -0.147457 -0.485732 4.837975
v -0.146458 -0.486819 4.838891
v -0.146617 -0.486462 4.838520
v -0.142771 -0.486819 4.839032
v -0.140398 -0.484272 4.839203
v -0.140780 -0.480878 4.840282
v -0.140673 -0.484209 4.839126
v -0.140161 -0.480929 4.838768
v -0.139758 -0.481552 4.840440
v -0.140673 -0.484209 4.839126
v -0.142771 -0.486819 4.839032
v -0.145380 -0.486890 4.839420
vn -0.4229 0.8914 -0.1632
vn -0.8455 0.4553 -0.2789
vn -0.3175 0.9305 0.1828
vn 0.2399 0.8419 -0.4834
vn 0.1848 0.1109 -0.9765
vn -0.4513 -0.0423 -0.8914
vn -0.4715 -0.0501 -0.8804
vn -0.4669 -0.0518 -0.8828
vn 0.6585 -0.1982 -0.7260
vn 0.3588 -0.6338 -0.6853
vn 0.6224 -0.1434 -0.7694
vn 0.1132 0.9415 0.3175
vn 0.2446 0.9691 -0.0325
vn -0.4527 -0.8914 0.0214
vn -0.5743 -0.7125 0.4032
vn -0.5316 -0.8224 0.2025
vn -0.7012 -0.1009 0.7058
vn -0.0332 0.9869 0.1578
vn -0.8060 0.0237 0.5914
vn 0.6123 -0.1323 -0.7795
vn 0.6796 0.3708 -0.6330
vn -0.2356 -0.9641 -0.1225
vn -0.2461 -0.9627 -0.1120
vn -0.1686 -0.9609 -0.2196
vn 0.4124 -0.5688 -0.7116
vn -0.3914 0.3718 0.8418
vn -0.7926 -0.4529 -0.4082
vn -0.8017 -0.3655 -0.4729
vn -0.7732 -0.4556 -0.4412
vn -0.4562 0.8896 -0.0229
vn -0.9426 0.2429 -0.2289
vn -0.9137 0.3764 -0.1530
vn -0.9950 -0.0265 -0.0966
vn -0.7253 -0.5478 -0.4170
vn -0.7896 -0.6052 0.1013
vn 0.8255 -0.5306 -0.1924
vn 0.5512 -0.8292 -0.0930
vn 0.9742 0.2164 0.0635
vn 0.5894 0.8077 0.0140
vn 0.5416 0.8395 -0.0440
vn 0.4619 0.8869 -0.0096
vn 0.3791 -0.8924 -0.2447
vn 0.8264 0.5042 -0.2508
vn -0.5597 0.8286 0.0097
vn -0.4839 0.8649 0.1338
vn -0.3842 0.9169 0.1084
vn 0.7640 0.1937 -0.6154
vn 0.9212 0.3790 -0.0881
vn 0.3577 -0.8965 -0.2614
vn -0.0570 -0.9441 -0.3247
vn -0.1040 -0.9720 -0.2106
vn 0.1953 0.7536 -0.6277
vn -0.3744 -0.2023 -0.9049
vn -0.0052 -0.8753 -0.4835
vn -0.8390 -0.5438 -0.0177
vn 0.8853 0.4650 -0.0048
vn -0.7255 -0.6870 0.0416
vn -0.7940 -0.5985 -0.1064
vn 0.0314 0.9824 -0.1842
vn 0.7144 0.6096 -0.3435
vn -0.7508 0.5209 -0.4063
vn -0.8758 0.3230 -0.3587
vn 0.4475 0.8089 0.3815
vn 0.8370 0.3091 0.4515
vn -0.0689 0.9784 0.1947
vn -0.2384 0.9668 0.0919
vn 0.7374 -0.6027 -0.3049
vn -0.4647 -0.0920 -0.8807
vn 0.8562 0.1048 -0.5058
vn 0.8239 0.0315 0.5659
vn 0.8096 0.4147 0.4154
vn -0.3033 -0.9258 -0.2257
vn -0.6100 -0.7125 -0.3467
vn 0.4366 -0.0910 -0.8951
vn 0.5905 0.3729 -0.7158
vn -0.5535 -0.8138 0.1768
vn 0.2124 -0.1695 -0.9624
vn 0.0070 0.6281 0.7781
vn -0.1294 0.4610 0.8779
vn -0.3284 -0.9173 -0.2251
vn -0.0692 0.0463 0.9965
vn 0.0218 0.6404 0.7678
vn 0.2277 0.0799 -0.9705
vn 0.4198 0.8648 -0.2757
vn 0.5606 0.8008 -0.2110
vn 0.5050 0.8229 -0.2605
vn -0.2887 -0.1052 0.9516
vn -0.9144 0.3401 -0.2195
vn -0.8672 0.4555 -0.2014
vn -0.7577 0.4947 -0.4256
vn -0.9371 -0.2839 -0.2030
vn 0.0129 -0.9846 -0.1746
vn -0.0917 -0.9613 -0.2599
vn 0.5505 0.8252 -0.1262
vn 0.4930 0.8637 -0.1046
vn 0.6690 0.7294 -0.1427
vn -0.7419 -0.6577 0.1301
vn -0.9806 -0.1657 0.1052
vn -0.9957 0.0802 0.0454
vn -0.0448 0.9338 -0.3549
vn -0.2507 0.9672 0.0421
vn 0.1175 0.9929 -0.0199
vn -0.2915 0.9516 0.0978
vn 0.6359 0.7645 -0.1057
vn -0.6553 -0.2632 -0.7080
vn -0.5455 -0.8366 0.0498
vn -0.3162 -0.9361 -0.1538
vn 0.2666 -0.9450 -0.1893
vn 0.7802 -0.6016 -0.1714
vn -0.6604 -0.6865 -0.3043
vn 0.3871 0.8559 -0.3429
vn -0.3650 -0.7536 0.5467
vn 0.2188 0.4456 0.8681
vn 0.7433 0.5676 -0.3541
vn 0.9682 -0.2499 0.0067
vn 0.9703 -0.2375 -0.0469
vn 0.7235 -0.6264 -0.2902
vn 0.6353 -0.7114 -0.3004
vn 0.6532 -0.5817 -0.4846
vn 0.8544 -0.2430 -0.4593
vn 0.6034 -0.6154 -0.5072
vn 0.6363 0.3949 -0.6627
vn 0.4102 -0.3973 -0.8209
vn 0.6346 0.0121 -0.7728
vn 0.0252 0.8066 -0.5906
vn 0.4951 0.6291 -0.5993
vn 0.0450 -0.1803 -0.9826
vn -0.2888 -0.5121 -0.8089
vn 0.4150 0.2157 0.8839
vn 0.4760 0.8525 0.2161
vn -0.2993 -0.6374 -0.7100
vn -0.1026 -0.8214 0.5611
vn -0.2345 0.9720 -0.0172
vn -0.4594 0.8881 0.0138
vn -0.8048 -0.2773 -0.5248
vn -0.7167 -0.6953 -0.0542
vn -0.2069 -0.9581 -0.1981
vn 0.5581 0.8112 -0.1747
vn -0.7667 0.6132 0.1900
vn -0.4041 0.9033 0.1442
vn -0.6702 0.7195 0.1821
vn -0.6029 -0.7977 0.0081
vn -0.7560 -0.5576 0.3429
vn -0.9547 -0.2129 0.2078
vn 0.8651 0.0595 -0.4981
vn -0.1043 0.2025 -0.9737
vn -0.3880 -0.7488 -0.5374
vn -0.8375 0.1158 -0.5340
vn -0.8352 0.1172 -0.5372
vn -0.8438 0.1138 -0.5244
vn 0.6003 0.7502 0.2772
vn 0.3099 -0.8448 -0.4362
vn 0.5757 -0.6579 -0.4856
vn 0.6706 -0.5946 -0.4436
vn -0.6533 0.6248 0.4275
vn -0.3804 -0.9061 0.1854
vn 0.3659 -0.8226 -0.4352
vn 0.6657 0.1096 -0.7381
vn 0.6461 0.5011 -0.5758
vn 0.6781 0.5146 -0.5247
vn 0.6821 0.5062 -0.5278
vn 0.2777 -0.9162 -0.2889
vn -0.4739 -0.7259 -0.4984
vn -0.4153 -0.8849 -0.2111
vn -0.8630 -0.4947 -0.1023
vn 0.0562 0.9035 -0.4248
vn 0.0944 0.9246 -0.3690
vn 0.1994 0.9736 0.1112
vn 0.0440 -0.9780 -0.2039
vn 0.1852 0.6658 -0.7228
vn -0.3682 0.1391 -0.9193
vn -0.1609 0.5319 -0.8314
vn 0.0670 -0.5438 0.8365
vn -0.8393 -0.2919 -0.4586
vn 0.6479 0.2491 0.7199
vn -0.4935 -0.8611 0.1220
vn -0.4933 0.2232 -0.8408
vn -0.2066 0.7443 -0.6351
vn -0.1246 -0.9462 0.2985
vn -0.6688 0.0104 -0.7434
vn 0.7648 0.5925 0.2530
vn -0.2102 -0.5014 0.8393
vn 0.0863 -0.7478 0.6582
vn -0.6035 0.3727 -0.7049
vn -0.8662 -0.4346 -0.2466
vn 0.8200 -0.3443 0.4572
vn -0.4880 0.7783 -0.3950
vn -0.9325 0.2727 -0.2369
vn 0.8619 0.5000 0.0848
vn 0.4736 -0.8504 0.2291
vn -0.4639 0.8779 -0.1186
vn -0.9694 -0.2407 0.0477
vn -0.9909 -0.1311 -0.0297
vn -0.5461 -0.8377 -0.0018
vn -0.9150 -0.4014 0.0403
vn -0.2471 -0.9688 0.0208
vn -0.5933 0.7538 -0.2826
vn 0.2088 0.9703 -0.1218
vn 0.0996 -0.9931 0.0621
vn -0.4664 -0.8828 0.0561
vn 0.9819 -0.1365 0.1309
vn 0.5486 0.7165 -0.4309
vn 0.6710 -0.7376 0.0759
vn 0.9769 0.0244 0.2125
vn -0.4601 -0.7722 0.4382
vn -0.5092 -0.8207 0.2593
vn 0.6089 -0.6404 0.4682
vn -0.9783 0.1468 -0.1464
vn -0.3621 -0.7946 0.4874
vn 0.1678 0.7906 -0.5888
vn 0.9609 0.2646 -0.0817
vn -0.7973 -0.5221 0.3028
vn 0.2596 -0.7489 0.6097
vn 0.3932 -0.0247 -0.9191
vn 0.2675 -0.1328 -0.9544
vn 0.3061 -0.1523 -0.9397
vn 0.2091 -0.1153 -0.9711
vn 0.6076 -0.6026 0.5173
vn 0.3316 -0.0406 -0.9425
vn 0.7394 0.2627 -0.6200
vn 0.9324 -0.2129 -0.2920
vn 0.9336 -0.2155 -0.2863
vn 0.9392 -0.1789 -0.2930
s 1
f 1//1 2//2 3//3
f 12//4 9//5 1//1
f 13//6 14//7 15//8
f 17//9 21//10 16//11
f 22//12 12//4 1//1
f 24//13 22//12 1//1
f 1//1 3//3 24//13
f 6//14 23//15 7//16
f 25//17 26//18 8//19
f 7//16 23//15 8//19
f 18//20 12//4 27//21
f 19//22 23//15 20//23
f 19//22 28//24 23//15
f 21//10 17//9 29//25
f 30//26 25//17 8//19
f 8//19 23//15 30//26
f 12//4 22//12 27//21
f 32//27 31//28 35//29
f 36//30 33//31 37//32
f 38//33 37//32 33//31
f 35//29 38//34 32//27
f 38//33 39//35 37//32
f 40//36 47//37 41//38
f 42//39 43//40 44//41
f 38//42 47//37 40//36
f 41//38 51//43 40//36
f 50//44 52//45 49//46
f 53//47 54//48 51//43
f 55//49 38//42 40//36
f 38//33 56//50 57//51
f 57//51 23//15 28//24
f 58//52 59//52 60//52
f 62//53 63//53 64//53
f 28//24 65//54 57//51
f 39//35 38//33 66//55
f 38//33 57//51 66//55
f 67//56 51//43 41//38
f 66//55 61//57 39//35
f 68//58 66//55 57//51
f 69//59 70//59 71//59
f 51//43 67//56 72//60
f 22//12 24//13 30//26
f 74//61 34//62 36//30
f 36//30 34//62 33//31
f 37//32 73//63 36//30
f 46//64 80//65 73//66
f 78//67 79//68 80//69
f 80//65 46//64 45//70
f 80//69 48//71 47//37
f 47//37 77//72 78//67
f 47//37 31//73 77//72
f 47//37 78//67 80//69
f 47//37 38//42 31//73
f 53//47 51//43 81//74
f 51//43 72//60 82//75
f 82//75 81//74 51//43
f 23//15 83//76 30//26
f 56//50 23//15 57//51
f 81//74 23//15 56//50
f 88//77 23//15 81//74
f 30//26 85//78 22//12
f 83//76 84//79 30//26
f 23//15 88//77 86//80
f 30//26 87//81 85//78
f 87//81 30//26 84//79
f 88//77 81//74 82//75
f 87//81 89//82 85//78
f 90//83 88//77 82//75
f 90//84 91//85 92//86
f 83//76 23//15 86//80
f 84//79 93//87 87//81
f 94//88 95//89 96//90
f 99//91 97//92 98//93
f 100//94 101//95 102//96
f 94//88 103//97 95//89
f 99//91 98//93 104//98
f 103//97 94//88 105//99
f 115//100 90//84 114//101
f 106//102 107//103 114//101
f 106//102 114//101 111//104
f 119//105 120//105 121//105
f 103//97 105//99 118//106
f 99//91 104//98 122//107
f 110//108 108//109 122//107
f 122//107 123//110 99//91
f 111//104 114//101 90//84
f 124//111 90//84 92//86
f 126//112 87//81 83//76
f 86//80 123//110 122//107
f 86//80 126//112 83//76
f 89//82 87//81 125//113
f 129//114 130//114 131//114
f 108//109 133//115 132//116
f 127//117 134//118 128//119
f 132//116 111//104 108//109
f 127//117 110//108 134//118
f 111//104 109//120 108//109
f 127//117 108//109 110//108
f 135//121 109//120 111//104
f 135//121 111//104 136//122
f 137//123 122//107 108//109
f 108//109 109//120 137//123
f 111//104 90//84 136//122
f 138//124 135//121 136//122
f 136//122 90//84 124//111
f 124//111 139//125 136//122
f 138//126 137//123 109//120
f 137//123 140//127 122//107
f 122//107 140//127 86//80
f 138//126 144//128 137//123
f 141//129 125//113 87//81
f 141//129 87//81 126//112
f 139//125 124//111 142//130
f 138//126 143//131 144//128
f 86//80 140//127 144//128
f 86//80 144//128 126//112
f 145//132 141//129 126//112
f 149//133 148//134 150//135
f 149//133 150//135 154//136
f 150//135 155//137 154//136
f 156//138 148//134 149//133
f 147//139 157//140 146//141
f 156//138 149//133 157//140
f 153//142 159//143 158//144
f 147//139 158//144 157//140
f 153//142 154//136 159//143
f 160//145 148//134 156//138
f 161//146 162//146 163//146
f 143//131 164//147 144//128
f 165//148 166//149 167//150
f 144//128 164//147 126//112
f 141//129 168//151 125//113
f 154//136 155//137 159//143
f 159//152 151//153 152//154
f 169//155 157//140 158//144
f 169//155 158//144 170//156
f 170//156 158//144 159//143
f 159//152 152//154 171//157
f 172//158 160//145 156//138
f 173//159 174//160 175//161
f 176//162 159//152 171//157
f 177//163 170//156 145//132
f 159//143 178//164 170//156
f 170//156 182//165 169//155
f 169//155 156//138 157//140
f 139//125 183//166 184//167
f 183//166 139//125 142//130
f 186//168 156//138 169//155
f 125//113 168//151 142//130
f 141//129 145//132 170//156
f 159//152 176//162 185//169
f 188//170 184//167 183//166
f 189//171 183//166 187//172
f 178//164 191//173 170//156
f 189//171 187//172 190//174
f 190//174 178//164 189//171
f 191//173 192//175 141//129
f 191//173 141//129 170//156
f 187//172 183//166 142//130
f 191//173 178//164 190//174
f 190//174 193//176 191//173
f 187//172 142//130 194//177
f 194//177 142//130 195//178
f 196//179 190//174 197//180
f 196//179 191//173 193//176
f 198//181 142//130 168//151
f 192//175 198//181 168//151
f 192//175 191//173 199//182
f 198//181 195//178 142//130
f 194//177 195//178 197//180
f 197//180 190//174 187//172
f 199//182 200//183 192//175
f 201//184 197//180 195//178
f 197//180 202//185 196//179
f 203//186 192//175 200//183
f 201//184 202//185 197//180
f 192//175 203//186 198//181
f 195//178 198//181 204//187
f 200//183 191//173 196//179
f 196//179 203//186 200//183
f 204//187 208//188 202//185
f 201//184 204//187 202//185
f 205//189 204//187 198//181
f 205//189 198//181 203//186
f 206//190 203//186 196//179
f 208//188 204//187 207//191
f 207//191 204//187 205//189
f 209//192 210//193 208//188
f 210//193 202//185 208//188
f 202//185 211//194 196//179
f 196//179 211//194 206//190
f 213//195 214//196 209//192
f 212//197 213//195 207//191
f 212//197 207//191 215//198
f 213//195 208//188 207//191
f 211//194 216//199 217//200
f 213//195 209//192 208//188
f 218//201 219//202 215//198
f 220//203 221//204 206//190
f 221//204 219//202 206//190
f 217//200 206//190 211//194
f 219//202 218//201 206//190
f 218//201 205//189 203//186
f 218//201 203//186 206//190
f 222//205 223//206 213//195
f 219//202 212//197 215//198
f 223//206 214//196 213//195
f 221//204 216//199 224//207
f 216//199 221//204 217//200
f 225//208 226//209 212//197
f 227//210 212//197 219//202
f 219//202 221//204 229//211
f 212//197 228//212 213//195
f 225//208 212//197 227//210
f 228//212 212//197 226//209
f 228//212 230//213 224//207
f 231//214 232//215 233//216
f 231//214 234//217 232//215
f 229//211 227//210 219//202
f 241//218 229//211 221//204
f 243//219 231//214 242//220
f 231//214 243//219 234//217
f 244//221 245//222 246//223
f 241//218 224//207 230//213
f 226//209 230//213 228//212
f 221//204 224//207 241//218
l 169 181
l 10 11
l 237 238
l 247 248
l 4 5
l 239 240
l 75 76
l 235 236
l 112 113
l 116 117
l 179 180
