# Blender v2.78 (sub 0) OBJ File: 'exporter.blend'
# www.blender.org
o FJ3579.obj_grp1.2168
v -0.383756 -0.493313 6.280084
v -0.377242 -0.482558 6.289395
v -0.386507 -0.485039 6.281799
v -0.381471 -0.471515 6.281027
v -0.383257 -0.494155 6.276223
v -0.380087 -0.498964 6.275024
v -0.347710 -0.503354 6.294040
v -0.384602 -0.474059 6.279541
v -0.385774 -0.484567 6.281594
v -0.376407 -0.486307 6.273326
v -0.378034 -0.470973 6.266863
v -0.379912 -0.480422 6.259816
v -0.380632 -0.497509 6.267982
v -0.381473 -0.499162 6.267808
v -0.381037 -0.497427 6.267850
v -0.378247 -0.496238 6.262212
v -0.378417 -0.495930 6.262269
v -0.380632 -0.497509 6.267982
v -0.379733 -0.491577 6.261725
v -0.379730 -0.491331 6.261643
v -0.318402 -0.481215 6.309087
v -0.375254 -0.480268 6.258076
v -0.341691 -0.492353 6.276066
v -0.341478 -0.479926 6.282309
v -0.310398 -0.507026 6.304041
v -0.311147 -0.492638 6.313497
v -0.323322 -0.477720 6.298577
v -0.311989 -0.480825 6.294577
v -0.305624 -0.505584 6.293401
v -0.309447 -0.491432 6.286975
v -0.300905 -0.473849 6.309660
v -0.215197 -0.477412 6.315913
v -0.222264 -0.451064 6.334057
v -0.213939 -0.473922 6.347710
v -0.241992 -0.457776 6.315368
v -0.215228 -0.485103 6.330705
v -0.207897 -0.460079 6.316102
v -0.222864 -0.457337 6.344165
v -0.168706 -0.448055 6.345872
v -0.180019 -0.473195 6.350502
v -0.134419 -0.442312 6.332204
v -0.175464 -0.449960 6.323398
v -0.144448 -0.476573 6.330224
v -0.167477 -0.470783 6.320467
v -0.154543 -0.458628 6.317672
v -0.181168 -0.457981 6.351968
v -0.152025 -0.475843 6.343699
v -0.152674 -0.456925 6.351474
v -0.181168 -0.457981 6.351968
v -0.148563 -0.450552 6.317744
v -0.167477 -0.470783 6.320467
v -0.148563 -0.450552 6.317744
v -0.122453 -0.469503 6.338747
v -0.122791 -0.451946 6.341662
v -0.109135 -0.444019 6.312926
v -0.110903 -0.451844 6.300546
v -0.139243 -0.469431 6.314740
v -0.139243 -0.469431 6.314740
v -0.117382 -0.478210 6.317322
v -0.120081 -0.472646 6.304881
v -0.120081 -0.472646 6.304881
v -0.122064 -0.458574 6.302346
v -0.117382 -0.478210 6.317322
v -0.122064 -0.458574 6.302346
v -0.105929 -0.470097 6.288638
v -0.108153 -0.448939 6.329896
v -0.102621 -0.483045 6.317273
v -0.085934 -0.469527 6.318282
v -0.086214 -0.457864 6.310802
v -0.066284 -0.527022 6.272792
v -0.109698 -0.478894 6.293411
v -0.120081 -0.472646 6.304881
v -0.085684 -0.460620 6.293943
v -0.059749 -0.505118 6.247699
v -0.072949 -0.525582 6.263794
v -0.053186 -0.521581 6.275729
v -0.049921 -0.502993 6.254633
v -0.047585 -0.502558 6.260437
v -0.073411 -0.520036 6.253355
v -0.068434 -0.510252 6.247641
v -0.066091 -0.515728 6.250091
v -0.072540 -0.519283 6.253663
v -0.064357 -0.510933 6.248063
v -0.064503 -0.510865 6.248264
v -0.045332 -0.513176 6.269154
v -0.060033 -0.505467 6.248921
vn -0.7808 -0.4683 0.4136
vn -0.4734 0.0401 0.8799
vn -0.5736 -0.0578 0.8171
vn -0.3604 0.8628 0.3545
vn -0.4913 -0.8520 0.1810
vn -0.2873 -0.8206 0.4940
vn -0.6864 0.0835 -0.7225
vn -0.9573 -0.0827 -0.2771
vn -0.9643 0.0145 -0.2645
vn -0.9153 0.3768 0.1423
vn -0.2108 0.8785 -0.4288
vn -0.7483 0.1212 -0.6522
vn -0.8393 -0.5416 -0.0470
vn -0.2335 -0.1670 -0.9579
vn -0.8561 -0.3077 -0.4153
vn -0.3663 -0.1985 -0.9091
vn -0.8946 0.4410 -0.0718
vn -0.9671 0.1549 0.2016
vn 0.0188 -0.9673 -0.2530
vn 0.1029 0.2730 -0.9565
vn 0.3408 0.7431 -0.5760
vn 0.4165 0.0494 -0.9078
vn 0.3579 -0.3185 -0.8777
vn -0.3296 0.5748 0.7490
vn -0.0607 -0.9180 0.3918
vn -0.2898 -0.2644 0.9198
vn 0.0509 0.9983 -0.0291
vn 0.1151 0.7775 -0.6183
vn 0.2480 -0.7832 -0.5702
vn 0.3444 0.1553 -0.9259
vn -0.2889 0.9552 0.0648
vn 0.2356 -0.5709 -0.7865
vn -0.1358 -0.4067 0.9034
vn -0.1040 0.8529 -0.5116
vn 0.1401 -0.9881 0.0629
vn 0.1178 0.2844 -0.9514
vn -0.3190 0.5118 0.7977
vn -0.2227 0.9573 0.1841
vn -0.0260 0.8225 0.5681
vn 0.0569 -0.5206 0.8519
vn 0.0912 0.9885 0.1206
vn -0.0420 0.6808 -0.7312
vn -0.0737 -0.9863 -0.1475
vn 0.1668 -0.7117 -0.6824
vn -0.2320 0.0338 -0.9721
vn -0.0508 -0.0240 0.9984
vn 0.1674 0.2073 0.9639
vn 0.1461 -0.7848 0.6023
vn -0.0849 0.5802 0.8100
vn -0.0876 0.9139 -0.3964
vn 0.0671 -0.2883 -0.9552
vn 0.2957 -0.5619 0.7725
vn -0.2827 0.2848 -0.9159
vn 0.3807 0.4040 0.8318
vn -0.2082 0.6664 -0.7159
vn -0.3146 -0.3150 -0.8954
vn -0.2109 -0.8165 -0.5375
vn 0.1792 0.9717 -0.1539
vn -0.2246 -0.9070 -0.3564
vn -0.2954 -0.8610 -0.4141
vn -0.6018 -0.2202 -0.7677
vn -0.5767 -0.2238 -0.7857
vn -0.2170 -0.9707 0.1036
vn -0.3671 0.4388 -0.8202
vn -0.6385 0.1376 -0.7572
vn 0.5179 0.6485 0.5579
vn -0.0634 -0.8186 0.5708
vn 0.6611 -0.0873 0.7452
vn 0.7573 0.6186 0.2094
vn -0.8015 -0.4149 -0.4307
vn -0.6619 -0.7071 -0.2487
vn 0.4239 0.8134 -0.3984
vn -0.0278 0.5990 -0.8003
vn -0.3697 -0.9056 -0.2078
vn 0.5954 -0.7394 0.3144
vn 0.7095 0.2370 -0.6637
vn 0.9149 0.3723 -0.1560
vn 0.0216 -0.9854 0.1688
vn -0.8458 -0.2462 -0.4733
vn -0.3262 0.0240 -0.9450
vn 0.9465 -0.3228 -0.0016
vn 0.2660 -0.6472 -0.7144
vn 0.0738 -0.7693 -0.6346
vn 0.0999 -0.3219 -0.9415
vn 0.5854 -0.5209 -0.6213
vn 0.5201 -0.2881 -0.8041
s 1
f 1//1 2//2 3//3
f 2//2 4//4 3//3
f 6//5 7//6 1//1
f 1//1 9//7 5//8
f 5//8 9//7 10//9
f 3//3 4//4 8//10
f 10//9 9//7 8//10
f 8//10 4//4 11//11
f 10//9 8//10 12//12
f 8//10 11//11 12//12
f 5//8 6//5 1//1
f 13//13 6//5 5//8
f 17//14 18//15 19//16
f 5//8 10//9 15//17
f 10//9 20//18 15//17
f 10//9 12//12 20//18
f 12//12 17//14 19//16
f 7//6 2//2 1//1
f 6//5 14//19 7//6
f 11//11 22//20 12//12
f 24//21 22//20 11//11
f 23//22 22//20 24//21
f 17//14 22//20 23//22
f 17//14 23//22 16//23
f 12//12 22//20 17//14
f 4//4 2//2 21//24
f 14//19 25//25 7//6
f 2//2 26//26 21//24
f 26//26 2//2 7//6
f 27//27 4//4 21//24
f 27//27 24//21 4//4
f 4//4 24//21 11//11
f 27//27 28//28 24//21
f 25//25 14//19 29//29
f 16//23 23//22 29//29
f 26//26 7//6 25//25
f 29//29 14//19 16//23
f 24//21 30//30 23//22
f 29//29 23//22 30//30
f 24//21 28//28 30//30
f 31//31 27//27 21//24
f 31//31 28//28 27//27
f 32//32 29//29 30//30
f 34//33 26//26 25//25
f 35//34 28//28 31//31
f 35//34 30//30 28//28
f 36//35 34//33 25//25
f 35//34 37//36 30//30
f 26//26 38//37 21//24
f 38//37 31//31 21//24
f 31//31 38//37 33//38
f 33//38 35//34 31//31
f 36//35 29//29 32//32
f 29//29 36//35 25//25
f 34//33 38//37 26//26
f 39//39 33//38 38//37
f 37//36 32//32 30//30
f 40//40 34//33 36//35
f 41//41 35//34 33//38
f 37//36 35//34 42//42
f 36//35 32//32 43//43
f 32//32 44//44 43//43
f 45//45 37//36 42//42
f 45//45 32//32 37//36
f 40//40 46//46 34//33
f 48//47 46//46 40//40
f 40//40 47//48 48//47
f 34//33 46//46 38//37
f 49//49 39//39 38//37
f 33//38 39//39 41//41
f 42//42 35//34 41//41
f 50//50 42//42 41//41
f 47//48 36//35 43//43
f 51//51 32//32 45//45
f 53//52 48//47 47//48
f 47//48 40//40 36//35
f 42//42 52//53 45//45
f 48//47 39//39 49//49
f 48//47 54//54 39//39
f 39//39 54//54 41//41
f 52//53 56//55 45//45
f 51//51 45//45 57//56
f 43//43 44//44 58//57
f 53//52 54//54 48//47
f 55//58 56//55 50//50
f 55//58 50//50 41//41
f 59//59 43//43 60//60
f 60//60 43//43 58//57
f 45//45 61//61 57//56
f 61//61 45//45 62//62
f 47//48 43//43 63//63
f 53//52 47//48 63//63
f 45//45 56//55 64//64
f 62//62 65//65 61//61
f 66//66 55//58 41//41
f 54//54 66//66 41//41
f 53//52 67//67 68//68
f 68//68 54//54 53//52
f 69//69 55//58 66//66
f 67//67 53//52 63//63
f 71//70 67//67 63//63
f 72//71 71//70 63//63
f 65//65 64//64 56//55
f 71//70 61//61 65//65
f 66//66 54//54 68//68
f 68//68 69//69 66//66
f 73//72 56//55 55//58
f 73//72 74//73 56//55
f 71//70 75//74 67//67
f 55//58 69//69 73//72
f 76//75 68//68 67//67
f 73//72 77//76 74//73
f 69//69 78//77 73//72
f 78//77 77//76 73//72
f 75//74 70//78 67//67
f 79//79 75//74 71//70
f 65//65 79//79 71//70
f 65//65 56//55 80//80
f 80//80 56//55 74//73
f 70//78 76//75 67//67
f 69//69 68//68 85//81
f 81//82 70//78 75//74
f 70//78 81//82 76//75
f 80//80 81//82 82//83
f 75//74 82//83 81//82
f 65//65 80//80 79//79
f 81//82 80//80 84//84
f 84//84 80//80 74//73
f 69//69 85//81 78//77
f 85//81 68//68 76//75
f 85//81 76//75 81//82
f 83//85 85//81 81//82
f 77//76 83//85 86//86
f 85//81 83//85 77//76
f 77//76 78//77 85//81
