# Blender v2.78 (sub 0) OBJ File: 'exporter.blend'
# www.blender.org
o FJ3545.obj_grp1.2143
v -0.197573 -0.623656 4.749888
v -0.192249 -0.626594 4.738490
v -0.175601 -0.627645 4.729124
v -0.178636 -0.627591 4.727510
v -0.191272 -0.621215 4.742303
v -0.199779 -0.621992 4.744278
v -0.196874 -0.622280 4.746061
v -0.187991 -0.624926 4.740563
v -0.212529 -0.608422 4.789070
v -0.200798 -0.619379 4.762438
v -0.209752 -0.612140 4.763656
v -0.210639 -0.602893 4.778582
v -0.219660 -0.599660 4.814500
v -0.210630 -0.606753 4.782584
v -0.210616 -0.602856 4.779034
v -0.179908 -0.627686 4.729177
v -0.162241 -0.637913 4.722426
v -0.172644 -0.631037 4.729923
v -0.145619 -0.641089 4.719673
v -0.174791 -0.627794 4.728426
v -0.173181 -0.628838 4.732209
v -0.212568 -0.600577 4.784304
v -0.211537 -0.597412 4.798907
v -0.212193 -0.599793 4.804890
v -0.215271 -0.594701 4.806155
v -0.215453 -0.602889 4.800817
v -0.217101 -0.594857 4.807557
v -0.218428 -0.601491 4.825672
v -0.216115 -0.595659 4.827952
v -0.216595 -0.594035 4.818047
v -0.217798 -0.599104 4.820420
v -0.212190 -0.599772 4.805042
v -0.216180 -0.595665 4.828242
v -0.218618 -0.600523 4.826920
v -0.223979 -0.598608 4.836825
v -0.223979 -0.598608 4.836825
v -0.222291 -0.598707 4.859347
v -0.158295 -0.635678 4.721249
v -0.173209 -0.628312 4.727962
v -0.138755 -0.646731 4.718681
v -0.153295 -0.638479 4.724905
v -0.161133 -0.639240 4.721103
v -0.150775 -0.649763 4.719567
v -0.169023 -0.636695 4.725140
v -0.155433 -0.642066 4.722689
v -0.147454 -0.644895 4.724676
v -0.143168 -0.644002 4.723053
v -0.221016 -0.593988 4.831661
v -0.221365 -0.594464 4.863164
v -0.222548 -0.601119 4.850111
v -0.222548 -0.601119 4.850111
v -0.227813 -0.597337 4.871284
v -0.220970 -0.601904 4.890175
v -0.221016 -0.593988 4.831661
v -0.227112 -0.596609 4.866978
v -0.220699 -0.595174 4.876968
v -0.219747 -0.599176 4.874506
v -0.220609 -0.600680 4.874018
v -0.145778 -0.647868 4.719089
v -0.157248 -0.649331 4.726600
v -0.145770 -0.647845 4.719131
v -0.133373 -0.651194 4.723948
v -0.219247 -0.594202 4.913095
v -0.220384 -0.597417 4.907750
v -0.135496 -0.662748 4.726363
v -0.147687 -0.645070 4.724972
v -0.125188 -0.660068 4.721549
v -0.115063 -0.668399 4.725442
v -0.128839 -0.660633 4.722651
v -0.138743 -0.648900 4.721406
v -0.123878 -0.661192 4.722042
v -0.128122 -0.656967 4.726642
v -0.136486 -0.655258 4.722042
v -0.215178 -0.599814 4.904474
v -0.206926 -0.592369 4.922648
v -0.209632 -0.598837 4.923771
v -0.128122 -0.656967 4.726642
v -0.126659 -0.655521 4.725046
v -0.139235 -0.646887 4.723966
v -0.120067 -0.661850 4.728794
v -0.126659 -0.655521 4.725046
v -0.116614 -0.663654 4.729198
v -0.120650 -0.667285 4.726595
v -0.103503 -0.676607 4.734638
v -0.117806 -0.662877 4.729318
v -0.128122 -0.656967 4.726642
v -0.122093 -0.664708 4.729271
v -0.122078 -0.665045 4.729584
v -0.110975 -0.667698 4.729835
v -0.113086 -0.669130 4.734670
v -0.210650 -0.591123 4.919022
v -0.200060 -0.593905 4.932702
v -0.207782 -0.589749 4.925002
v -0.212822 -0.595373 4.925553
v -0.117806 -0.662877 4.729318
v -0.110302 -0.667888 4.730638
v -0.103746 -0.668981 4.735709
v -0.114960 -0.658500 4.735256
v -0.096950 -0.670592 4.743292
v -0.099092 -0.676130 4.746829
v -0.200041 -0.590968 4.932773
v -0.203972 -0.593674 4.939816
v -0.207356 -0.591965 4.934143
v -0.208993 -0.591857 4.931844
v -0.197417 -0.587550 4.940580
v -0.187594 -0.590200 4.952337
v -0.201172 -0.596030 4.936633
v -0.201172 -0.596030 4.936633
v -0.108875 -0.668536 4.731710
v -0.101203 -0.671769 4.738660
v -0.094043 -0.679074 4.743894
v -0.101217 -0.671983 4.738943
v -0.112176 -0.671481 4.732378
v -0.104117 -0.673719 4.741865
v -0.194302 -0.589904 4.938186
v -0.193726 -0.592380 4.942679
v -0.092511 -0.672721 4.748106
v -0.088144 -0.675712 4.755884
v -0.093471 -0.675967 4.752133
v -0.089049 -0.677679 4.761378
v -0.192460 -0.592625 4.941748
v -0.173193 -0.592213 4.956951
v -0.179122 -0.594702 4.951843
v -0.178906 -0.594227 4.951445
v -0.080685 -0.673534 4.767861
v -0.087910 -0.673919 4.754172
v -0.080505 -0.675435 4.766343
v -0.078737 -0.676510 4.762697
v -0.082638 -0.678135 4.767280
v -0.053227 -0.668226 4.806656
v -0.077873 -0.673641 4.768507
v -0.174166 -0.590054 4.948463
v -0.166428 -0.589123 4.952067
v -0.175686 -0.589035 4.949960
v -0.174166 -0.590054 4.948463
v -0.164836 -0.593256 4.950764
v -0.180659 -0.594270 4.947947
v -0.169379 -0.596345 4.953393
v -0.180659 -0.594270 4.947947
v -0.164836 -0.593256 4.950764
v -0.181229 -0.590251 4.954000
v -0.164439 -0.589976 4.955316
v -0.169379 -0.596345 4.953393
v -0.068062 -0.674196 4.779597
v -0.057616 -0.667430 4.808341
v -0.154405 -0.602030 4.952970
v -0.169379 -0.596345 4.953393
v -0.164836 -0.593256 4.950764
v -0.161774 -0.596641 4.954870
v -0.156734 -0.597476 4.960199
v -0.055983 -0.668963 4.808792
v -0.059784 -0.664825 4.808370
v -0.059959 -0.666583 4.809092
v -0.148464 -0.599871 4.955411
v -0.124340 -0.622031 4.960923
v -0.154405 -0.602030 4.952970
v -0.156601 -0.602636 4.957899
v -0.169379 -0.596345 4.953393
v -0.156734 -0.597476 4.960199
v -0.156601 -0.602636 4.957899
v -0.156601 -0.602636 4.957899
v -0.156734 -0.597476 4.960199
v -0.173073 -0.592181 4.956913
v -0.057951 -0.667954 4.802198
v -0.057965 -0.665900 4.803728
v -0.154405 -0.602030 4.952970
v -0.124305 -0.638624 4.949699
v -0.156601 -0.602636 4.957899
v -0.127643 -0.628095 4.949449
v -0.154405 -0.602030 4.952970
v -0.126067 -0.629387 4.949701
v -0.056992 -0.672720 4.806623
v -0.056480 -0.668662 4.806833
v -0.057929 -0.668895 4.805714
v -0.055654 -0.668651 4.805645
v -0.148464 -0.599871 4.955411
v -0.124587 -0.628526 4.955097
v -0.124643 -0.630456 4.955170
v -0.156734 -0.597476 4.960199
v -0.120913 -0.636010 4.955810
v -0.124608 -0.627493 4.957093
v -0.120284 -0.635388 4.955692
v -0.122534 -0.638467 4.949003
v -0.087735 -0.650726 4.940414
v -0.089494 -0.656313 4.939198
v -0.112765 -0.636761 4.948792
v -0.108625 -0.648696 4.944842
v -0.120900 -0.636297 4.949317
v -0.106795 -0.649131 4.945833
v -0.097597 -0.645418 4.941984
v -0.112765 -0.636761 4.948792
v -0.094009 -0.647836 4.946398
v -0.099551 -0.650125 4.946589
v -0.106800 -0.642855 4.952973
v -0.094009 -0.647836 4.946398
v -0.088525 -0.649484 4.943780
v -0.089429 -0.656389 4.939167
v -0.075721 -0.666031 4.936286
v -0.079245 -0.664877 4.939678
v -0.068677 -0.666568 4.941550
v -0.076268 -0.665590 4.942319
v -0.076483 -0.665412 4.942454
v -0.058798 -0.680355 4.931565
v -0.079351 -0.664868 4.939684
v -0.064134 -0.674567 4.932736
v -0.062087 -0.682848 4.932115
v -0.060908 -0.682970 4.931339
v -0.057896 -0.680745 4.934168
v -0.057977 -0.680703 4.934192
v -0.062023 -0.684284 4.935943
v -0.058368 -0.680337 4.937316
vn 0.3290 0.9282 -0.1735
vn 0.2325 0.9172 -0.3234
vn 0.0466 0.8537 -0.5186
vn -0.2904 0.7829 -0.5502
vn 0.4316 -0.7826 0.4487
vn 0.6371 0.2192 0.7389
vn -0.4829 -0.8747 0.0408
vn -0.9047 -0.0146 -0.4257
vn -0.8201 -0.2918 -0.4922
vn -0.0058 0.9205 -0.3906
vn 0.1886 -0.9309 0.3128
vn 0.2834 0.9264 -0.2478
vn -0.9595 -0.2151 -0.1819
vn -0.5699 -0.4431 -0.6920
vn -0.4262 -0.8739 -0.2338
vn 0.5481 0.5778 0.6048
vn 0.5337 0.7965 0.2841
vn 0.6111 0.5926 0.5248
vn -0.3824 0.7033 -0.5993
vn 0.5392 0.1803 0.8226
vn -0.3922 -0.8326 0.3910
vn 0.0671 -0.9152 0.3974
vn -0.4433 0.8306 -0.3369
vn 0.7029 0.7093 -0.0535
vn 0.9188 -0.2850 0.2732
vn 0.2100 0.9725 -0.1006
vn -0.4533 -0.8878 0.0794
vn -0.6227 0.7538 -0.2097
vn -0.4957 -0.8668 -0.0553
vn 0.9835 0.1023 0.1489
vn 0.6983 0.7127 0.0663
vn 0.7747 -0.5867 0.2358
vn 0.8429 -0.4859 0.2310
vn 0.9834 0.1671 0.0701
vn 0.8696 -0.4742 0.1373
vn -0.9543 0.2263 -0.1953
vn -0.3736 0.9259 0.0560
vn -0.3672 0.9295 0.0351
vn -0.3283 0.9359 0.1279
vn 0.0326 0.4771 -0.8783
vn 0.4698 0.5664 -0.6771
vn -0.5468 -0.4106 -0.7297
vn -0.5477 -0.3677 -0.7515
vn -0.5163 -0.3975 -0.7585
vn 0.4013 0.9017 0.1611
vn 0.2672 0.0450 0.9626
vn 0.1833 0.4032 0.8966
vn 0.2006 0.9797 0.0049
vn 0.1990 0.9784 -0.0565
vn 0.9572 0.2796 0.0751
vn 0.1750 -0.9841 0.0305
vn -0.8115 -0.5521 -0.1917
vn -0.6611 -0.7462 -0.0786
vn -0.5981 -0.8013 -0.0125
vn -0.1351 -0.9848 0.1089
vn -0.2583 0.9657 0.0271
vn -0.2022 0.9760 0.0809
vn -0.4058 0.9139 -0.0100
vn 0.7659 -0.6428 -0.0154
vn 0.9562 -0.2444 -0.1611
vn 0.5090 0.8464 0.1566
vn -0.1718 0.1645 -0.9713
vn 0.5542 0.8163 0.1629
vn -0.8125 -0.4183 0.4062
vn -0.8204 -0.4942 0.2877
vn 0.2901 -0.1027 -0.9515
vn -0.2729 -0.8229 -0.4984
vn -0.5255 -0.7160 -0.4596
vn -0.3736 -0.2560 0.8915
vn 0.6676 0.5168 -0.5359
vn 0.2213 0.4916 0.8422
vn -0.3370 -0.6784 -0.6529
vn -0.2609 -0.6695 -0.6955
vn -0.2752 -0.7418 -0.6116
vn -0.3467 0.9378 0.0183
vn 0.6206 -0.7714 -0.1405
vn 0.8707 0.0972 -0.4820
vn 0.8009 -0.4728 -0.3675
vn 0.4839 0.7616 0.4310
vn 0.4843 0.7613 0.4311
vn 0.4846 0.7611 0.4312
vn 0.6310 0.4386 -0.6399
vn -0.2805 -0.7622 -0.5835
vn -0.5579 -0.7888 0.2580
vn -0.1756 0.3880 0.9048
vn -0.1129 0.2395 0.9643
vn -0.2542 -0.6676 -0.6997
vn -0.4997 0.0040 0.8662
vn 0.6933 0.4289 -0.5792
vn -0.2639 -0.8584 -0.4399
vn -0.2332 0.5251 0.8185
vn 0.9647 -0.0384 -0.2604
vn 0.7115 -0.5577 -0.4275
vn -0.5205 0.8255 0.2183
vn -0.5407 -0.7561 0.3688
vn -0.6039 -0.7007 0.3798
vn 0.6603 0.6018 -0.4493
vn 0.6856 0.5960 -0.4180
vn 0.6172 0.6792 -0.3972
vn -0.0079 0.9676 0.2524
vn -0.7448 -0.2173 0.6310
vn 0.5327 0.6460 -0.5467
vn -0.6014 0.5168 0.6094
vn -0.6357 0.6732 0.3777
vn -0.8621 -0.1255 0.4909
vn -0.6019 0.7531 0.2655
vn -0.3767 0.2331 0.8965
vn -0.1477 -0.9079 0.3923
vn 0.5683 -0.8072 -0.1596
vn 0.6682 0.3624 -0.6497
vn 0.7183 0.3182 -0.6187
vn -0.3699 -0.9059 0.2062
vn 0.3369 0.7071 -0.6218
vn -0.0861 -0.9007 0.4259
vn 0.7037 -0.6869 -0.1816
vn -0.3970 0.8030 0.4445
vn -0.5054 0.7856 0.3569
vn 0.2473 -0.9677 -0.0498
vn -0.3529 0.8744 0.3329
vn 0.8228 0.1703 -0.5423
vn 0.1369 -0.9442 -0.2997
vn -0.4014 -0.6658 0.6289
vn 0.3758 -0.4922 -0.7852
vn -0.2714 -0.7611 0.5891
vn -0.4840 0.8132 0.3231
vn 0.3113 -0.9452 -0.0983
vn -0.2972 0.9481 -0.1133
vn -0.5643 0.7594 0.3238
vn -0.5161 0.7912 0.3281
vn 0.3572 0.2288 -0.9055
vn 0.3959 0.7472 -0.5338
vn 0.1824 -0.1649 -0.9693
vn 0.1597 -0.7654 -0.6235
vn 0.0023 0.9241 0.3822
vn 0.3544 0.8567 0.3748
vn 0.2621 -0.5337 -0.8040
vn 0.0863 -0.3615 -0.9283
vn 0.7216 -0.6765 0.1471
vn 0.8586 -0.2567 -0.4437
vn -0.1961 -0.4520 -0.8702
vn 0.0013 -0.2590 -0.9659
vn -0.0809 0.4825 0.8721
vn -0.0444 0.9950 -0.0895
vn -0.4981 -0.7288 0.4699
vn -0.1727 -0.9020 0.3956
vn -0.1700 -0.9415 0.2910
vn 0.1411 0.2072 -0.9681
vn 0.7655 0.6333 -0.1135
vn -0.3487 -0.8988 -0.2658
vn 0.6090 0.7044 0.3646
vn -0.4242 -0.6147 0.6650
vn -0.3985 -0.4781 0.7827
vn -0.3041 -0.3944 0.8671
vn -0.3025 -0.3946 0.8676
vn 0.3203 0.9327 -0.1654
vn -0.8512 -0.0811 0.5185
vn 0.0009 0.9771 -0.2130
vn -0.7271 -0.5629 -0.3930
vn -0.8151 -0.4481 -0.3671
vn -0.7352 -0.5879 -0.3373
vn 0.1068 0.2804 -0.9539
vn -0.4168 0.0001 -0.9090
vn -0.1397 -0.0265 -0.9898
vn -0.1821 -0.0726 -0.9806
vn -0.1132 0.9648 0.2372
vn 0.7316 0.6129 -0.2985
vn 0.6402 0.7228 -0.2602
vn 0.5945 0.7640 -0.2507
vn -0.4621 -0.7454 0.4805
vn -0.5143 -0.7661 0.3854
vn 0.0262 0.2553 -0.9665
vn -0.0009 0.1342 -0.9910
vn 0.4973 0.8675 -0.0143
vn -0.3336 -0.1537 -0.9301
vn 0.4353 0.8833 -0.1741
vn 0.6380 0.3107 0.7045
vn 0.6624 0.3003 0.6863
vn 0.5017 0.7353 0.4557
vn 0.4695 0.6152 0.6333
vn -0.2209 -0.8362 0.5020
vn -0.1957 -0.3127 0.9295
vn -0.2494 -0.5893 0.7684
vn -0.5467 -0.8353 0.0580
vn 0.5245 0.8355 -0.1639
vn 0.5249 0.8000 0.2907
vn -0.5553 -0.8073 -0.1995
vn -0.5248 -0.8434 -0.1154
vn -0.4649 -0.2397 -0.8523
vn 0.4172 0.3929 0.8195
vn 0.6862 0.4417 0.5779
vn 0.5389 0.5510 0.6371
vn 0.0106 -0.4044 0.9145
vn -0.5206 -0.7005 0.4881
vn -0.4152 -0.8722 0.2586
vn -0.2274 0.0016 -0.9738
vn -0.5311 -0.6030 -0.5953
vn -0.2176 0.0113 -0.9760
vn 0.8246 -0.3840 -0.4154
vn 0.4773 -0.8303 -0.2876
vn 0.5345 0.7596 -0.3706
vn 0.9639 0.0624 -0.2588
vn -0.1692 -0.9124 0.3728
vn 0.7832 -0.0384 0.6206
s 1
f 5//1 3//2 4//3
f 5//1 4//3 6//4
f 5//1 9//5 8//6
f 1//7 11//8 2//9
f 6//4 12//10 5//1
f 1//7 14//11 11//8
f 11//8 12//10 6//4
f 5//1 12//10 15//12
f 11//8 14//11 13//13
f 16//14 17//15 2//9
f 18//16 19//17 20//18
f 16//14 2//9 7//19
f 21//20 1//7 45//21
f 5//1 8//6 18//16
f 5//1 18//16 20//18
f 17//15 1//7 2//9
f 45//21 1//7 17//15
f 10//22 1//7 21//20
f 5//1 22//23 23//24
f 5//1 24//25 9//5
f 5//1 23//24 24//25
f 22//23 5//1 15//12
f 12//10 11//8 22//23
f 23//24 22//23 25//26
f 26//27 13//13 14//11
f 27//28 25//26 22//23
f 11//8 27//28 22//23
f 13//13 27//28 11//8
f 13//13 26//27 28//29
f 29//30 24//25 23//24
f 23//24 25//26 30//31
f 31//32 9//5 24//25
f 32//33 33//34 34//35
f 13//13 35//36 27//28
f 27//37 36//38 37//39
f 38//40 4//3 3//2
f 38//40 40//41 4//3
f 42//42 43//43 44//44
f 41//45 19//17 18//16
f 46//46 47//47 21//20
f 45//21 46//46 21//20
f 25//26 27//28 48//48
f 30//31 33//34 23//24
f 49//49 25//26 48//48
f 33//34 30//31 49//50
f 28//29 50//51 13//13
f 13//52 51//53 52//54
f 51//53 53//55 52//54
f 54//56 55//57 56//58
f 57//59 50//51 28//29
f 57//59 53//55 50//51
f 58//60 34//35 33//34
f 38//40 39//61 40//41
f 40//41 59//62 4//3
f 19//17 41//45 62//63
f 58//60 33//34 49//50
f 63//64 52//54 64//65
f 19//17 62//63 40//41
f 59//62 40//41 67//66
f 59//62 67//66 68//67
f 68//67 69//68 59//62
f 59//62 69//68 70//69
f 40//41 71//70 67//66
f 47//47 46//46 72//71
f 73//72 60//73 61//74
f 55//57 63//75 56//58
f 57//59 74//76 53//55
f 64//65 52//54 53//55
f 58//60 75//77 76//78
f 78//79 79//80 80//81
f 40//41 68//82 71//70
f 69//68 68//67 83//83
f 70//69 69//68 84//84
f 85//85 86//86 87//85
f 88//87 77//88 70//69
f 62//63 89//89 40//41
f 40//41 89//89 68//82
f 68//67 84//90 83//83
f 85//85 87//85 90//91
f 49//50 56//58 91//92
f 49//50 75//77 58//60
f 49//50 91//92 75//77
f 75//77 92//93 76//78
f 56//58 63//75 93//94
f 76//95 64//65 53//55
f 74//76 76//95 53//55
f 64//65 76//95 94//96
f 70//69 84//84 88//87
f 97//97 98//98 99//99
f 114//100 88//87 100//101
f 88//87 84//84 100//101
f 91//92 56//58 93//94
f 91//92 101//102 75//77
f 63//64 64//65 102//103
f 93//94 63//75 103//104
f 102//103 104//105 63//64
f 91//92 105//106 101//102
f 106//107 93//94 103//104
f 94//96 76//95 102//108
f 107//109 76//78 92//93
f 89//89 111//110 68//82
f 112//111 111//110 89//89
f 84//84 111//112 100//101
f 103//104 104//105 102//103
f 105//106 93//94 106//107
f 75//77 115//113 92//93
f 102//108 76//95 108//114
f 116//115 107//109 92//93
f 106//107 103//104 102//103
f 113//116 114//100 117//117
f 100//101 111//112 129//118
f 118//119 100//101 129//118
f 126//120 111//110 112//111
f 101//102 105//106 115//113
f 121//121 102//108 108//114
f 106//107 102//103 122//122
f 123//123 102//108 121//121
f 124//124 122//122 102//103
f 117//117 114//100 100//101
f 125//125 117//117 100//101
f 111//112 128//126 129//118
f 131//127 119//128 120//129
f 105//106 132//130 115//113
f 132//130 92//93 115//113
f 133//131 132//130 105//106
f 135//132 136//132 137//132
f 138//133 139//133 140//133
f 106//107 141//134 105//106
f 142//135 105//106 141//134
f 134//136 123//123 121//121
f 123//123 134//136 143//137
f 111//110 126//120 130//138
f 128//126 144//139 129//118
f 130//138 144//139 111//110
f 142//135 133//131 105//106
f 146//140 147//140 148//140
f 133//131 149//141 132//130
f 141//134 150//142 142//135
f 120//129 152//143 131//127
f 129//118 145//144 153//145
f 145//144 129//118 151//146
f 133//131 154//147 149//141
f 133//131 142//135 155//148
f 156//149 157//149 158//149
f 159//150 155//148 142//135
f 122//122 124//124 160//151
f 161//152 162//153 163//154
f 164//155 126//120 127//156
f 131//127 152//143 165//157
f 130//138 126//120 164//155
f 129//118 144//139 151//146
f 144//139 130//138 151//146
f 166//158 167//159 168//160
f 154//147 169//161 149//141
f 167//162 170//163 171//164
f 130//138 164//155 173//165
f 176//166 177//167 171//168
f 161//152 180//169 162//153
f 183//170 180//169 161//152
f 185//171 171//164 184//172
f 177//167 186//173 171//168
f 167//162 171//164 187//174
f 171//168 186//173 190//175
f 181//176 182//177 191//178
f 192//179 191//178 182//177
f 193//180 188//181 189//182
f 193//183 180//169 183//170
f 171//164 185//171 187//174
f 184//184 190//175 196//185
f 190//175 186//173 196//185
f 192//179 196//185 191//178
f 197//186 193//180 189//182
f 193//180 197//186 199//187
f 185//171 184//172 198//188
f 194//189 200//190 195//191
f 200//190 194//189 201//192
f 180//169 193//183 202//193
f 196//185 192//179 200//190
f 198//188 199//187 197//186
f 204//194 202//193 193//183
f 205//195 206//196 198//188
f 206//196 205//195 203//197
f 208//198 207//199 209//200
f 209//200 207//199 203//201
f 184//172 205//195 198//188
f 203//201 184//184 200//190
f 210//202 199//187 198//188
f 199//187 210//202 202//193
f 206//196 210//202 198//188
f 210//202 211//203 201//192
f 207//199 208//198 210//202
f 207//199 210//202 206//196
f 204//194 199//187 202//193
f 184//184 196//185 200//190
f 201//192 211//203 200//190
f 208//198 211//203 210//202
f 209//200 203//201 211//203
f 203//201 200//190 211//203
l 109 110
l 178 179
l 174 175
l 81 82
l 95 96
l 164 172
l 65 66
