# Blender v2.78 (sub 0) OBJ File: 'exporter.blend'
# www.blender.org
o FJ3590.obj_grp1.2178
v -0.322823 -0.565728 4.685554
v -0.313782 -0.559982 4.676044
v -0.320761 -0.556742 4.702906
v -0.322877 -0.564111 4.722003
v -0.315453 -0.564992 4.711601
v -0.306754 -0.577331 4.658895
v -0.303377 -0.572754 4.655910
v -0.313922 -0.571587 4.681750
v -0.316633 -0.566769 4.692708
v -0.309161 -0.565261 4.681650
v -0.317509 -0.570367 4.724684
v -0.320504 -0.565611 4.704390
v -0.309847 -0.570274 4.730440
v -0.311197 -0.563829 4.732949
v -0.312413 -0.576453 4.744825
v -0.291952 -0.583087 4.765775
v -0.311238 -0.571611 4.805203
v -0.305492 -0.580153 4.792038
v -0.313169 -0.567984 4.835051
v -0.314228 -0.575737 4.821548
v -0.313806 -0.575581 4.837463
v -0.305492 -0.580153 4.792038
v -0.309688 -0.577666 4.822867
v -0.302960 -0.575069 4.861160
v -0.313090 -0.563096 4.711798
v -0.311839 -0.562659 4.709546
v -0.314934 -0.566426 4.740664
v -0.307785 -0.567536 4.836115
v -0.284620 -0.591912 4.650462
v -0.288386 -0.590116 4.764569
v -0.296259 -0.584034 4.763856
v -0.291536 -0.587298 4.766030
v -0.296864 -0.580617 4.786740
v -0.276568 -0.593955 4.642796
v -0.278460 -0.582051 4.652548
v -0.295866 -0.577442 4.750691
v -0.287894 -0.585016 4.762068
v -0.303968 -0.569999 4.744951
v -0.287311 -0.580256 4.763448
v -0.287311 -0.580256 4.763448
v -0.303968 -0.569999 4.744951
v -0.307028 -0.570806 4.798376
v -0.286943 -0.578542 4.762927
v -0.302933 -0.571961 4.803869
v -0.299087 -0.575334 4.797535
v -0.302933 -0.571961 4.803869
v -0.294951 -0.576818 4.789222
v -0.302085 -0.574513 4.805617
v -0.305302 -0.571905 4.819455
v -0.306162 -0.576260 4.822465
v -0.310692 -0.572655 4.830856
v -0.306385 -0.575970 4.821943
v -0.305169 -0.574623 4.830769
v -0.305302 -0.571905 4.819455
v -0.302346 -0.575365 4.848990
v -0.302676 -0.576999 4.847795
v -0.300349 -0.573214 4.846262
v -0.300349 -0.573214 4.846262
v -0.292448 -0.582083 4.866158
v -0.292902 -0.582226 4.866806
v -0.293102 -0.570604 4.862473
v -0.286705 -0.579489 4.874185
v -0.265657 -0.592656 4.638137
v -0.290028 -0.583056 4.661039
v -0.285903 -0.584482 4.758049
v -0.288719 -0.588214 4.758941
v -0.301880 -0.579177 4.745749
v -0.286948 -0.590115 4.758941
v -0.288719 -0.588214 4.758941
v -0.285903 -0.584482 4.758049
v -0.283086 -0.582270 4.761758
v -0.288385 -0.590115 4.764575
v -0.290192 -0.590582 4.758786
v -0.292951 -0.586730 4.762931
v -0.291536 -0.587298 4.766030
v -0.291718 -0.581917 4.765824
v -0.291536 -0.580890 4.764575
v -0.290664 -0.583826 4.767287
v -0.298827 -0.580087 4.776593
v -0.287311 -0.580256 4.763448
v -0.288385 -0.590115 4.764575
v -0.293088 -0.581665 4.784292
v -0.302803 -0.579717 4.799785
v -0.288385 -0.590115 4.764575
v -0.291988 -0.579861 4.860678
v -0.275289 -0.586561 4.870580
v -0.269538 -0.588814 4.651695
v -0.295761 -0.577440 4.750679
v -0.282840 -0.582166 4.761875
v -0.307028 -0.570806 4.798376
v -0.292955 -0.573214 4.857528
v -0.293236 -0.571139 4.862364
v -0.291984 -0.579876 4.860673
v -0.291984 -0.579876 4.860673
v -0.284476 -0.580218 4.873755
v -0.268890 -0.586746 4.878611
v -0.271690 -0.578040 4.875029
v -0.287733 -0.574787 4.861907
v -0.293379 -0.573093 4.859337
v -0.268372 -0.606579 4.736689
v -0.268372 -0.606579 4.736689
v -0.293088 -0.581665 4.784292
v -0.288385 -0.590115 4.764575
v -0.275784 -0.591561 4.654382
v -0.277129 -0.582383 4.651956
v -0.285903 -0.584482 4.758049
v -0.282772 -0.581901 4.761976
v -0.239667 -0.628402 4.690189
v -0.279086 -0.585942 4.762556
v -0.279086 -0.585942 4.762556
v -0.256840 -0.588373 4.869090
v -0.259461 -0.585172 4.878356
v -0.268367 -0.580580 4.869969
v -0.260167 -0.611241 4.720914
v -0.285903 -0.584482 4.758049
v -0.260167 -0.611241 4.720914
v -0.286948 -0.590115 4.758941
v -0.260907 -0.611879 4.733262
v -0.266185 -0.604927 4.742041
v -0.260907 -0.611879 4.733262
v -0.263589 -0.600537 4.638266
v -0.263009 -0.601048 4.637928
v -0.251485 -0.609833 4.644862
v -0.252683 -0.610504 4.639165
v -0.284163 -0.591979 4.650265
v -0.247763 -0.601889 4.646051
v -0.238046 -0.603959 4.637157
v -0.259044 -0.601857 4.737056
v -0.258459 -0.601014 4.736546
v -0.262182 -0.593091 4.873118
v -0.268367 -0.580580 4.869969
v -0.258262 -0.591884 4.869252
v -0.262303 -0.592924 4.873193
v -0.260807 -0.612050 4.733326
v -0.256082 -0.606306 4.732736
v -0.255291 -0.605588 4.780951
v -0.255038 -0.605359 4.732872
v -0.216039 -0.640337 4.687046
v -0.235278 -0.625325 4.706831
v -0.255789 -0.607014 4.731739
v -0.260628 -0.612324 4.735432
v -0.258831 -0.607337 4.783908
v -0.257402 -0.601618 4.756192
v -0.260264 -0.605861 4.787391
v -0.255373 -0.605447 4.814196
v -0.248207 -0.603425 4.826409
v -0.215713 -0.618599 4.640541
v -0.251132 -0.610015 4.644779
v -0.214992 -0.638869 4.668091
v -0.262427 -0.600784 4.743831
v -0.263691 -0.601954 4.742737
v -0.266185 -0.604927 4.742041
v -0.266185 -0.604927 4.742041
v -0.263820 -0.601382 4.742041
v -0.293088 -0.581665 4.784292
v -0.259143 -0.602448 4.736407
v -0.263368 -0.602251 4.743449
v -0.260408 -0.599453 4.773683
v -0.261175 -0.604576 4.743459
v -0.256316 -0.598420 4.781031
v -0.256326 -0.598565 4.780912
v -0.253560 -0.587968 4.870198
v -0.235014 -0.632367 4.692747
v -0.240427 -0.630958 4.699789
v -0.260167 -0.611241 4.720914
v -0.240427 -0.630958 4.699789
v -0.259675 -0.612546 4.731601
v -0.229224 -0.637038 4.696691
v -0.241205 -0.610544 4.831640
v -0.249921 -0.605681 4.801466
v -0.250304 -0.600531 4.806579
v -0.242302 -0.613300 4.834902
v -0.244705 -0.608315 4.818713
v -0.238636 -0.612419 4.845604
v -0.238636 -0.612419 4.845604
v -0.228211 -0.611419 4.862987
v -0.227499 -0.609833 4.864570
v -0.188267 -0.623337 4.861433
v -0.229224 -0.637038 4.696691
v -0.260907 -0.611879 4.733262
v -0.240427 -0.630958 4.699789
v -0.223130 -0.642225 4.682888
v -0.223130 -0.642225 4.682888
v -0.229224 -0.637038 4.696691
v -0.208441 -0.645042 4.680062
v -0.222281 -0.634280 4.682845
v -0.218615 -0.615242 4.863353
v -0.238636 -0.612419 4.845604
v -0.242243 -0.613297 4.834994
v -0.240767 -0.612030 4.831332
v -0.215958 -0.609146 4.860051
v -0.215981 -0.608632 4.861421
v -0.238636 -0.612419 4.845604
v -0.220261 -0.615100 4.865040
v -0.227070 -0.609833 4.863162
v -0.224187 -0.609364 4.860243
v -0.202927 -0.626400 4.861147
v -0.225722 -0.605666 4.863797
v -0.181675 -0.633781 4.858968
v -0.201129 -0.640300 4.668084
v -0.204500 -0.645935 4.670079
v -0.203509 -0.644197 4.680562
v -0.199720 -0.642878 4.666580
v -0.235278 -0.625325 4.706831
v -0.168162 -0.656369 4.627121
v -0.214075 -0.619691 4.640369
v -0.220261 -0.615100 4.865040
v -0.225289 -0.604933 4.861776
v -0.218357 -0.615122 4.863223
v -0.220261 -0.615100 4.865040
v -0.229787 -0.609560 4.863507
v -0.229481 -0.606930 4.862058
v -0.224016 -0.608303 4.863319
v -0.224704 -0.608662 4.863279
v -0.209705 -0.642836 4.668213
v -0.202808 -0.650333 4.671621
v -0.209705 -0.642836 4.668213
v -0.198583 -0.642653 4.665987
v -0.178930 -0.654521 4.637816
v -0.173801 -0.643634 4.639228
v -0.220440 -0.615079 4.865267
v -0.218300 -0.615213 4.863162
v -0.174147 -0.629666 4.853037
v -0.215201 -0.608748 4.861660
v -0.215327 -0.609453 4.862602
v -0.216654 -0.610200 4.861703
v -0.204216 -0.615466 4.858045
v -0.216089 -0.608216 4.861569
v -0.178865 -0.654516 4.637820
v -0.202808 -0.650333 4.671621
v -0.223130 -0.642225 4.682888
v -0.185873 -0.649796 4.640761
v -0.183054 -0.645041 4.641963
v -0.180325 -0.634752 4.858214
v -0.190132 -0.628142 4.853538
v -0.216892 -0.609833 4.860721
v -0.125586 -0.677652 4.629919
v -0.167665 -0.656657 4.627384
v -0.181593 -0.648891 4.644378
v -0.209705 -0.642836 4.668213
v -0.184173 -0.646541 4.642645
v -0.177457 -0.645845 4.643453
v -0.173258 -0.648891 4.642457
v -0.183090 -0.646122 4.642045
v -0.200359 -0.630466 4.627806
v -0.177457 -0.629550 4.850252
v -0.174010 -0.629954 4.853022
v -0.174450 -0.632850 4.857341
v -0.105984 -0.691812 4.639277
v -0.183277 -0.650676 4.639228
v -0.184221 -0.649440 4.639711
v -0.183277 -0.650676 4.639228
v -0.184021 -0.649266 4.639941
v -0.184163 -0.647835 4.640715
v -0.171823 -0.652084 4.641176
v -0.202808 -0.650333 4.671621
v -0.178865 -0.654516 4.637820
v -0.189109 -0.647859 4.660354
v -0.202808 -0.650333 4.671621
v -0.171823 -0.652084 4.641176
v -0.171823 -0.652084 4.641176
v -0.173313 -0.648854 4.642543
v -0.189109 -0.647859 4.660354
v -0.208441 -0.645042 4.680062
v -0.183090 -0.646122 4.642045
v -0.184410 -0.647749 4.640977
v -0.183251 -0.645688 4.641451
v -0.184466 -0.646451 4.640636
v -0.173801 -0.643634 4.639228
v -0.172789 -0.642564 4.643120
v -0.177457 -0.645845 4.643453
v -0.177457 -0.629550 4.850252
v -0.145534 -0.650742 4.839454
v -0.107149 -0.678566 4.631166
v -0.172499 -0.650909 4.646725
v -0.132479 -0.670806 4.644603
v -0.136614 -0.663351 4.830910
v -0.133015 -0.669360 4.832532
v -0.136614 -0.663351 4.830910
v -0.145555 -0.654757 4.845399
v -0.146962 -0.659791 4.842950
v -0.132479 -0.670806 4.644603
v -0.171823 -0.652084 4.641176
v -0.178865 -0.654516 4.637820
v -0.121862 -0.667741 4.632553
v -0.137136 -0.662853 4.642174
v -0.141325 -0.655163 4.835179
v -0.139857 -0.655687 4.833403
v -0.091134 -0.690445 4.652557
v -0.091525 -0.689547 4.819604
v -0.116407 -0.668389 4.640411
v -0.121431 -0.668078 4.632774
v -0.091712 -0.687584 4.814389
v -0.112835 -0.669770 4.641283
v -0.087086 -0.684540 4.820902
v -0.095274 -0.681315 4.651490
v -0.093437 -0.680280 4.817530
v -0.092208 -0.686313 4.814830
v -0.073382 -0.690668 4.640584
v -0.067745 -0.681842 4.655544
v -0.033630 -0.703359 4.668062
v -0.026262 -0.700632 4.664647
v -0.026584 -0.691594 4.660928
v -0.033826 -0.694546 4.676792
v -0.031927 -0.684491 4.668662
v -0.025367 -0.690504 4.669234
vn -0.1002 0.9055 -0.4123
vn -0.9649 -0.1872 -0.1843
vn -0.4010 0.9157 0.0261
vn -0.9891 0.0785 0.1244
vn -0.2169 -0.9731 -0.0774
vn -0.7913 -0.4355 -0.4292
vn -0.0178 -0.9133 0.4070
vn -0.2587 -0.9530 0.1577
vn -0.3290 -0.8961 -0.2978
vn -0.7665 -0.5341 0.3567
vn 0.2528 -0.9650 0.0699
vn 0.7955 -0.2364 -0.5580
vn 0.7571 0.6529 -0.0219
vn 0.5090 0.8587 0.0594
vn -0.5403 0.6088 0.5809
vn -0.6745 0.2914 0.6783
vn -0.9662 -0.2563 0.0265
vn -0.7993 -0.5628 0.2109
vn -0.7228 0.5779 -0.3790
vn -0.6886 0.7196 0.0899
vn 0.0042 -0.9961 0.0887
vn -0.0270 -0.9927 0.1172
vn -0.8291 -0.5374 -0.1545
vn -0.7717 0.1033 0.6275
vn -0.3245 0.5437 -0.7740
vn 0.9060 0.2476 0.3433
vn 0.5206 -0.8363 -0.1717
vn -0.2366 -0.8256 0.5123
vn -0.7058 -0.6542 -0.2717
vn -0.7158 -0.6822 -0.1490
vn 0.3385 -0.8000 0.4954
vn -0.5335 -0.4379 -0.7237
vn 0.5606 0.8070 0.1856
vn 0.3960 -0.4311 0.8108
vn 0.8015 0.2554 -0.5407
vn -0.3363 -0.8997 -0.2782
vn 0.4646 -0.5136 -0.7214
vn 0.7119 0.6976 -0.0808
vn 0.7555 0.5268 -0.3895
vn -0.0429 0.8330 0.5516
vn 0.1389 0.9079 0.3956
vn -0.7757 0.4691 -0.4222
vn -0.1429 0.9844 0.1028
vn 0.1127 0.9851 -0.1300
vn 0.6451 0.7625 -0.0496
vn 0.8405 0.4777 0.2556
vn 0.7469 0.6413 0.1760
vn 0.8571 0.4413 0.2658
vn 0.0074 0.9910 -0.1335
vn 0.9295 -0.1934 0.3141
vn 0.4828 -0.8716 0.0844
vn 0.9940 0.0080 0.1089
vn 0.8368 0.4787 0.2657
vn 0.9204 0.3899 -0.0284
vn 0.9506 0.3042 0.0619
vn 0.8811 0.4074 -0.2402
vn 0.8367 0.4523 0.3088
vn 0.5508 -0.6996 -0.4553
vn 0.6627 -0.5971 -0.4520
vn 0.6652 -0.6585 -0.3520
vn 0.8813 0.0860 -0.4646
vn -0.0300 -0.9074 -0.4192
vn -0.5596 -0.4459 0.6986
vn -0.3630 0.7213 0.5898
vn 0.0117 0.5112 -0.8594
vn 0.4192 -0.4978 -0.7592
vn -0.1388 -0.1297 -0.9818
vn 0.3336 -0.6600 -0.6731
vn -0.7696 -0.4801 0.4209
vn -0.9119 -0.0655 0.4051
vn -0.7856 -0.0012 -0.6188
vn -0.6328 0.5561 -0.5388
vn -0.7313 0.2250 -0.6439
vn 0.5531 -0.7098 0.4361
vn 0.2353 -0.8575 0.4575
vn 0.3640 0.2951 0.8834
vn 0.5706 0.7459 -0.3437
vn 0.6514 0.7572 0.0486
vn -0.5557 0.6684 -0.4945
vn 0.7216 0.5202 -0.4567
vn 0.5574 0.7746 -0.2988
vn 0.1856 -0.6630 -0.7252
vn 0.5561 -0.5832 -0.5921
vn 0.8282 -0.1363 -0.5435
vn -0.4325 -0.0543 0.9000
vn -0.4475 -0.6607 0.6026
vn -0.2288 -0.3454 0.9101
vn 0.2897 0.8167 0.4991
vn 0.6342 -0.0519 -0.7714
vn 0.4169 -0.1185 -0.9012
vn -0.0969 -0.6809 -0.7260
vn -0.4291 -0.8792 0.2071
vn -0.4678 -0.8618 0.1962
vn -0.6090 -0.7903 -0.0678
vn -0.3037 -0.8798 0.3657
vn -0.2573 -0.9046 0.3398
vn -0.3039 -0.8998 0.3132
vn 0.3393 -0.0366 0.9400
vn 0.4773 0.5280 0.7024
vn -0.0057 0.8377 -0.5461
vn 0.0226 0.8393 -0.5432
vn -0.2533 0.7130 -0.6538
vn 0.7478 0.6191 0.2397
vn 0.8003 -0.0567 0.5968
vn 0.3902 0.5225 0.7581
vn 0.0251 0.2105 -0.9773
vn 0.4552 0.8721 -0.1795
vn -0.7105 -0.6920 -0.1273
vn -0.8018 0.0546 -0.5950
vn -0.5928 -0.7795 0.2022
vn -0.4669 -0.8320 0.2995
vn -0.6765 -0.7323 -0.0786
vn -0.5289 -0.7703 -0.3564
vn -0.5749 -0.2047 -0.7922
vn -0.4383 -0.3238 -0.8385
vn -0.3489 -0.7985 0.4905
vn -0.2954 -0.6863 0.6647
vn -0.4441 -0.8737 0.1987
vn 0.0649 -0.1029 0.9926
vn 0.4405 0.8213 -0.3624
vn 0.7158 0.5297 0.4550
vn -0.3075 0.6869 -0.6585
vn -0.3545 -0.7935 0.4946
vn 0.4467 0.7213 -0.5293
vn -0.3571 -0.3027 -0.8837
vn -0.3493 -0.7402 -0.5745
vn 0.5767 0.7919 -0.2009
vn 0.7082 -0.5632 0.4258
vn 0.7323 -0.5743 0.3660
vn 0.0279 -0.9314 0.3629
vn 0.7642 -0.6376 -0.0979
vn 0.4954 -0.8684 0.0222
vn 0.4589 -0.8879 -0.0331
vn -0.1543 -0.9877 0.0257
vn -0.9866 -0.0080 0.1632
vn 0.5664 0.8240 -0.0127
vn -0.1817 0.6863 -0.7043
vn 0.6878 0.6769 0.2620
vn 0.6384 -0.4261 0.6410
vn -0.0922 0.9923 -0.0831
vn -0.5892 0.7993 0.1186
vn 0.2564 0.9611 -0.1024
vn -0.9511 0.3060 0.0420
vn -0.9375 0.0398 0.3458
vn -0.2933 0.9464 0.1353
vn 0.3517 0.9327 -0.0803
vn 0.3977 0.8407 -0.3676
vn -0.7662 -0.2734 -0.5815
vn -0.7844 -0.2997 -0.5431
vn -0.7969 -0.1800 -0.5766
vn -0.7456 -0.6616 -0.0792
vn 0.6910 -0.6320 -0.3510
vn 0.9387 0.2829 -0.1971
vn 0.8650 0.4954 -0.0794
vn -0.3161 -0.9466 -0.0631
vn -0.8046 -0.5020 0.3171
vn -0.7010 0.4552 0.5490
vn 0.7309 0.6735 -0.1102
vn -0.4390 -0.8955 0.0735
vn -0.1077 0.0406 -0.9934
vn -0.3639 -0.9065 0.2142
vn -0.4067 -0.8782 0.2518
vn -0.4253 -0.8837 0.1953
vn -0.7419 -0.2835 -0.6076
vn -0.3420 -0.9193 0.1948
vn 0.2740 -0.6975 0.6621
vn -0.1827 0.7292 -0.6595
vn -0.1423 -0.9897 -0.0131
vn -0.2790 -0.9470 0.1589
vn -0.2891 -0.9409 0.1763
vn 0.7724 0.6184 -0.1448
vn 0.4845 -0.7385 -0.4688
vn 0.7941 0.3221 -0.5155
vn 0.5331 -0.6815 -0.5013
vn -0.6982 0.3373 0.6314
vn 0.2558 0.6896 -0.6775
vn -0.6135 -0.6156 0.4947
vn -0.1490 -0.5676 0.8097
vn -0.2208 -0.0859 -0.9715
vn -0.0117 -0.5643 0.8255
vn 0.5116 0.4639 0.7232
vn -0.2043 0.7705 -0.6038
vn 0.0789 -0.9636 0.2554
vn 0.6092 0.7673 0.2003
vn 0.4010 0.8523 0.3360
vn 0.6353 0.7336 0.2414
vn -0.2775 -0.4515 -0.8481
vn -0.1773 -0.9836 0.0323
vn 0.3507 0.8440 -0.4058
vn 0.6606 -0.5406 -0.5208
vn -0.4436 -0.8796 0.1720
vn -0.7208 -0.3531 -0.5965
vn -0.2367 -0.9392 0.2488
vn -0.0448 0.9277 -0.3706
vn -0.1057 0.7919 -0.6014
vn -0.0923 0.9178 -0.3861
vn 0.0873 0.3668 -0.9262
vn -0.3070 -0.5779 -0.7561
vn 0.2107 0.5242 0.8251
vn 0.4770 0.7953 0.3741
vn 0.6577 0.7436 0.1200
vn -0.4657 -0.8561 -0.2239
vn -0.6265 -0.7328 0.2655
vn 0.0469 0.3115 0.9491
vn -0.1187 -0.7275 0.6757
vn -0.4861 -0.5875 -0.6469
vn -0.3557 0.0059 -0.9346
vn -0.5142 -0.6519 -0.5573
vn -0.4231 -0.2803 -0.8617
vn -0.1719 -0.4981 -0.8499
vn -0.4338 -0.9005 -0.0299
vn -0.8316 0.5338 -0.1532
vn -0.0340 0.9859 -0.1641
vn 0.4271 0.2256 0.8756
vn -0.0140 0.9902 -0.1386
vn 0.3039 0.8030 -0.5127
vn 0.6538 0.5273 0.5428
vn 0.2842 -0.0641 0.9566
vn -0.2550 -0.9465 -0.1975
vn -0.0583 0.9490 -0.3098
vn -0.1132 0.9262 -0.3596
vn -0.0541 0.9608 -0.2718
vn 0.2021 -0.9442 0.2600
vn 0.6200 -0.4225 0.6611
vn 0.6163 -0.4407 0.6526
vn 0.7484 0.0659 0.6600
vn 0.6235 -0.4041 0.6694
vn 0.4513 0.8914 -0.0413
vn 0.3475 -0.1338 0.9281
vn 0.0031 0.8849 0.4658
vn 0.0223 0.4874 -0.8729
vn 0.2035 0.6501 -0.7321
vn 0.0784 0.7165 -0.6931
vn 0.6260 0.7733 -0.1009
vn 0.2856 0.1373 -0.9485
vn 0.4224 0.8699 0.2548
vn -0.0346 0.3006 0.9531
vn -0.5642 -0.5156 -0.6448
vn -0.5882 -0.7944 -0.1513
vn -0.2771 0.1415 -0.9504
vn 0.5246 0.1266 0.8419
vn -0.2984 -0.8370 0.4587
vn -0.2822 -0.5308 0.7991
vn -0.2720 -0.4124 0.8694
vn -0.2939 -0.4973 0.8163
vn 0.1901 0.5439 0.8174
vn 0.5956 0.7802 0.1915
vn -0.2293 0.1886 -0.9549
vn 0.4107 0.6686 -0.6198
vn -0.5175 -0.8050 -0.2900
vn 0.1641 -0.9804 0.1087
vn 0.4899 0.8062 -0.3319
vn 0.4591 0.8602 -0.2217
vn 0.4331 0.8844 -0.1741
vn 0.2864 0.9195 0.2691
vn -0.2421 0.2820 -0.9284
vn 0.1713 0.2336 -0.9571
vn -0.2646 -0.4574 0.8490
vn 0.9750 0.0657 0.2122
vn -0.1770 0.2829 0.9427
vn 0.3814 0.7382 -0.5564
vn 0.2925 -0.3214 -0.9006
vn -0.0659 0.8662 0.4953
vn 0.1269 -0.9649 0.2298
vn 0.1374 -0.1023 0.9852
vn 0.7515 0.2436 -0.6131
vn 0.7564 -0.6369 -0.1492
vn 0.3113 0.9163 0.2520
vn 0.8779 0.3003 0.3730
s 1
f 2//1 1//2 3//3
f 1//2 4//4 3//3
f 5//5 4//4 1//2
f 6//6 8//7 1//2
f 1//2 8//7 9//8
f 11//9 15//10 4//4
f 12//11 13//12 11//9
f 13//12 26//13 14//14
f 15//10 27//15 4//4
f 16//16 27//15 15//10
f 20//17 21//18 17//19
f 17//19 21//18 19//20
f 22//21 23//22 20//17
f 20//17 17//19 18//23
f 24//24 19//20 21//18
f 1//2 2//1 6//6
f 2//1 7//25 6//6
f 1//2 9//8 5//5
f 2//1 26//13 10//26
f 8//7 25//27 12//11
f 10//26 25//27 8//7
f 11//9 4//4 5//5
f 25//27 13//12 12//11
f 26//13 2//1 14//14
f 3//3 4//4 27//15
f 3//3 27//15 14//14
f 14//14 2//1 3//3
f 8//7 6//6 29//28
f 31//29 32//30 18//23
f 22//21 33//31 23//22
f 34//32 6//6 7//25
f 35//33 2//1 10//26
f 64//34 8//7 29//28
f 64//34 10//26 8//7
f 13//12 14//14 36//35
f 11//9 30//36 15//10
f 30//36 11//9 37//37
f 37//37 11//9 13//12
f 36//35 14//14 38//38
f 36//35 38//38 39//39
f 36//35 37//37 13//12
f 27//15 16//16 40//40
f 41//41 27//15 40//40
f 18//23 17//19 31//29
f 31//29 17//19 42//42
f 28//43 44//44 17//19
f 43//45 46//46 47//47
f 47//47 46//46 48//48
f 44//44 43//49 17//19
f 17//19 19//20 28//43
f 45//50 50//51 33//31
f 28//43 49//52 44//44
f 46//46 51//53 48//48
f 23//22 33//31 50//51
f 53//54 54//55 28//56
f 48//48 51//53 52//57
f 23//22 21//18 20//17
f 23//22 55//58 21//18
f 56//59 23//22 50//51
f 57//60 56//59 50//51
f 53//54 28//56 58//61
f 55//58 59//62 21//18
f 21//18 60//63 24//24
f 24//24 61//64 19//20
f 28//43 19//20 61//64
f 27//15 41//41 14//14
f 34//32 7//25 63//65
f 65//66 66//66 67//66
f 68//67 69//67 70//67
f 37//37 36//35 71//68
f 74//69 16//16 15//10
f 74//69 15//10 30//36
f 32//30 30//36 18//23
f 74//69 30//36 32//30
f 75//70 16//16 74//69
f 78//71 79//72 80//73
f 81//74 82//74 83//74
f 84//75 33//31 22//21
f 63//65 7//25 2//1
f 64//34 35//33 10//26
f 64//34 87//76 35//33
f 88//77 43//45 89//78
f 80//73 79//72 90//79
f 58//61 28//56 91//80
f 91//80 28//56 92//81
f 55//58 85//82 59//62
f 57//60 93//83 56//59
f 58//61 91//80 94//84
f 24//24 62//85 61//64
f 60//63 95//86 24//24
f 24//24 95//86 62//85
f 95//86 60//63 96//87
f 97//88 98//89 91//80
f 99//90 86//91 85//82
f 97//88 91//80 92//81
f 72//92 73//93 100//94
f 101//95 102//96 103//97
f 87//76 64//34 104//98
f 105//99 35//33 87//76
f 35//33 63//65 2//1
f 106//100 107//101 108//102
f 89//78 43//45 109//103
f 33//31 110//104 45//50
f 109//103 43//45 47//47
f 86//91 59//62 85//82
f 96//87 97//88 62//85
f 97//88 96//87 112//105
f 111//106 86//91 99//90
f 113//107 98//89 97//88
f 97//88 61//64 62//85
f 114//108 100//94 73//93
f 115//109 116//109 117//109
f 118//110 119//111 101//95
f 114//108 120//112 100//94
f 119//111 102//96 101//95
f 124//113 6//6 34//32
f 121//114 34//32 63//65
f 124//113 34//32 122//115
f 29//28 123//116 64//34
f 124//113 148//117 125//118
f 104//98 126//119 87//76
f 63//65 35//33 127//120
f 33//31 128//121 110//104
f 89//78 109//103 129//122
f 60//63 130//123 96//87
f 111//106 99//90 131//124
f 132//125 86//91 111//106
f 86//91 132//125 133//126
f 97//88 112//105 113//107
f 129//122 137//127 89//78
f 135//128 134//129 138//130
f 135//128 136//131 134//129
f 141//132 136//133 142//134
f 119//111 118//110 144//135
f 118//110 142//134 144//135
f 87//76 147//136 105//99
f 127//120 105//99 147//136
f 148//117 126//119 104//98
f 107//101 149//137 108//102
f 150//138 128//121 33//31
f 153//139 154//139 155//139
f 156//140 157//140 158//140
f 129//122 159//141 143//142
f 143//142 137//127 129//122
f 159//141 160//143 143//142
f 136//133 137//127 143//142
f 160//143 159//141 145//144
f 144//135 145//144 159//141
f 160//143 145//144 146//145
f 171//146 160//143 146//145
f 162//147 111//106 131//124
f 112//105 162//147 113//107
f 163//148 164//149 165//150
f 166//151 120//112 114//108
f 122//115 121//114 63//65
f 136//133 143//142 169//152
f 136//133 169//152 142//134
f 170//153 143//154 171//146
f 142//134 172//155 144//135
f 144//135 172//155 145//144
f 142//134 169//152 172//155
f 172//155 174//156 145//144
f 146//145 145//144 175//157
f 143//154 161//158 171//146
f 176//159 133//126 132//125
f 177//160 132//125 111//106
f 179//161 180//162 181//163
f 163//148 182//164 164//149
f 181//163 183//165 179//161
f 134//129 184//166 138//130
f 186//167 89//78 137//127
f 187//168 188//169 189//170
f 170//153 171//146 173//171
f 169//152 187//172 172//155
f 146//145 173//171 171//146
f 173//171 191//173 190//174
f 175//157 196//175 146//145
f 173//171 146//145 192//176
f 193//177 194//177 195//177
f 130//123 197//178 96//87
f 198//179 177//160 111//106
f 199//180 178//181 112//105
f 112//105 96//87 199//180
f 200//182 186//167 137//127
f 184//166 201//183 138//130
f 202//184 203//185 204//186
f 205//187 122//115 63//65
f 187//168 207//188 188//169
f 146//145 208//189 192//176
f 209//190 190//174 191//173
f 210//191 133//126 176//159
f 111//106 162//147 208//189
f 162//147 192//176 208//189
f 163//148 215//192 182//164
f 216//193 179//161 183//165
f 217//194 186//195 218//196
f 63//65 245//197 205//187
f 148//117 124//113 219//198
f 245//197 63//65 127//120
f 220//199 206//200 126//119
f 173//171 192//176 191//173
f 162//147 223//201 192//176
f 162//147 112//105 223//201
f 223//201 112//105 178//181
f 229//202 230//202 231//202
f 219//198 232//203 148//117
f 233//204 220//199 126//119
f 96//87 197//178 234//205
f 222//206 235//207 221//208
f 235//207 222//206 236//209
f 237//210 124//113 238//211
f 124//113 237//210 219//198
f 219//198 182//164 215//192
f 219//198 215//192 232//203
f 124//113 122//115 205//187
f 238//211 124//113 205//187
f 126//119 148//117 232//203
f 126//119 232//203 233//204
f 233//204 232//203 241//212
f 242//213 217//194 218//196
f 202//184 243//214 203//185
f 244//215 217//194 242//213
f 147//136 245//197 127//120
f 246//216 192//176 223//201
f 247//217 223//201 178//181
f 96//87 234//205 199//180
f 248//218 178//181 199//180
f 237//210 249//219 219//198
f 252//220 240//221 239//222
f 255//223 256//223 257//223
f 258//224 259//224 260//225
f 261//226 262//226 263//226
f 259//224 258//224 264//227
f 147//136 269//228 245//197
f 243//214 270//229 203//185
f 271//230 220//199 233//204
f 272//231 226//232 225//233
f 223//201 273//234 246//216
f 274//235 205//187 245//197
f 205//187 274//235 237//210
f 243//214 275//236 276//237
f 277//238 278//239 235//207
f 278//239 221//208 235//207
f 279//240 226//232 272//231
f 280//241 199//180 281//242
f 199//180 280//241 248//218
f 280//241 247//217 178//181
f 247//217 280//241 273//234
f 282//243 283//244 284//245
f 270//229 243//214 286//246
f 286//246 245//197 269//228
f 197//178 278//239 234//205
f 287//247 246//216 273//234
f 288//248 279//240 272//231
f 249//219 282//243 284//245
f 286//246 243//214 276//237
f 245//197 292//249 274//235
f 234//205 278//239 281//242
f 273//234 280//241 287//247
f 293//250 278//239 277//238
f 290//251 281//242 278//239
f 285//252 245//253 291//254
f 286//246 294//255 245//197
f 293//256 279//240 298//257
f 279//240 288//248 298//257
f 289//258 282//243 249//219
f 287//247 280//241 295//259
f 290//251 280//241 281//242
f 295//259 280//241 290//251
f 237//210 274//235 249//219
f 296//260 282//243 289//258
f 290//251 278//239 293//250
f 292//249 285//252 291//254
f 296//260 286//246 276//237
f 288//248 297//261 298//257
f 295//259 297//261 287//247
f 299//262 249//219 274//235
f 298//257 295//259 290//251
f 292//249 291//254 294//255
f 294//255 286//246 296//260
f 294//255 296//260 300//263
f 295//259 298//257 297//261
f 300//263 274//235 292//249
f 300//263 292//249 294//255
f 301//264 289//258 249//219
f 300//263 296//260 289//258
f 304//265 289//258 301//264
f 299//262 274//235 303//266
f 304//265 300//263 289//258
f 249//219 299//262 302//267
f 302//267 301//264 249//219
f 301//264 302//267 304//265
f 302//267 299//262 303//266
f 305//268 274//235 300//263
f 303//266 274//235 305//268
f 306//269 303//266 305//268
f 300//263 304//265 305//268
f 304//265 306//269 305//268
f 302//267 303//266 306//269
f 304//265 302//267 306//269
l 265 266
l 213 214
l 138 185
l 250 251
l 151 152
l 76 77
l 192 224
l 253 254
l 167 168
l 139 140
l 227 228
l 267 268
l 211 212
