# Blender v2.78 (sub 0) OBJ File: 'exporter.blend'
# www.blender.org
o FJ3585.obj_grp1.2174
v -0.142748 -0.562647 6.307438
v -0.132576 -0.558895 6.294351
v -0.123516 -0.573678 6.305869
v -0.144969 -0.541551 6.327742
v -0.133147 -0.563900 6.397635
v -0.126297 -0.565050 6.483342
v -0.134071 -0.554825 6.485153
v -0.133126 -0.554342 6.484685
v -0.126084 -0.564633 6.483183
v -0.126084 -0.560046 6.483183
v -0.141782 -0.545633 6.304156
v -0.130067 -0.537953 6.303160
v -0.120552 -0.546570 6.294563
v -0.141535 -0.547711 6.383691
v -0.132491 -0.537732 6.483248
v -0.124937 -0.534748 6.485215
v -0.132941 -0.554333 6.484875
v -0.133126 -0.554342 6.484685
v -0.129644 -0.542606 6.483183
v -0.132301 -0.537911 6.483183
v -0.132516 -0.554009 6.485150
v -0.126084 -0.560046 6.483183
v -0.128431 -0.554408 6.478488
v -0.128431 -0.554408 6.478488
v -0.129644 -0.542606 6.483183
v -0.123737 -0.535564 6.486751
v -0.132301 -0.537911 6.483183
v -0.129011 -0.530157 6.375933
v -0.117812 -0.538752 6.303059
v -0.121281 -0.531551 6.485685
v -0.119741 -0.559879 6.293443
v -0.110375 -0.566648 6.306227
v -0.107665 -0.555587 6.302296
v -0.118083 -0.566085 6.393467
v -0.104072 -0.556281 6.480892
v -0.106694 -0.561294 6.480429
v -0.109653 -0.559037 6.483887
v -0.109653 -0.559037 6.483887
v -0.109775 -0.546574 6.303537
v -0.107929 -0.540309 6.375505
v -0.115581 -0.545302 6.476339
v -0.119042 -0.551995 6.474123
v -0.128431 -0.554408 6.478488
v -0.126084 -0.560046 6.483183
v -0.119042 -0.551995 6.474123
v -0.109653 -0.559037 6.483887
v -0.114370 -0.543244 6.476845
v -0.119042 -0.551995 6.474123
v -0.108075 -0.553418 6.481728
v -0.109653 -0.559037 6.483887
v -0.109653 -0.537911 6.484639
v -0.112363 -0.532731 6.485716
v -0.132301 -0.537911 6.483183
v -0.123737 -0.535564 6.486751
v -0.114347 -0.533217 6.485859
v -0.109653 -0.537911 6.484639
v -0.114347 -0.533217 6.485859
v -0.105453 -0.537911 6.483183
v -0.114347 -0.533217 6.485859
v -0.109653 -0.537911 6.484639
v -0.104958 -0.554342 6.482525
v -0.104958 -0.554342 6.482525
v -0.108075 -0.553418 6.481728
v -0.106718 -0.561135 6.480413
v -0.103877 -0.556253 6.480929
v -0.109653 -0.559037 6.483887
v -0.104958 -0.554342 6.482525
v -0.102611 -0.547300 6.483605
v -0.102611 -0.547300 6.483605
v -0.102293 -0.547351 6.483653
v -0.105119 -0.537699 6.483218
vn 0.0076 -0.9455 -0.3256
vn -0.8122 -0.5090 -0.2850
vn -0.4373 -0.2071 -0.8752
vn -0.6128 -0.7880 0.0591
vn -0.3608 -0.9282 0.0908
vn -0.9635 -0.2641 0.0439
vn 0.2086 0.0000 0.9780
vn 0.0836 0.0000 0.9965
vn -0.7657 0.4072 -0.4979
vn 0.1742 0.4139 -0.8935
vn -0.2654 0.8186 -0.5093
vn 0.2653 -0.3115 -0.9125
vn -0.8599 0.5054 -0.0713
vn -0.9934 0.0756 0.0866
vn -0.8309 0.5523 0.0674
vn 0.1464 0.0828 0.9858
vn 0.6937 0.6271 0.3543
vn 0.6685 0.5881 0.4553
vn 0.6910 0.6103 0.3874
vn 0.3386 -0.5749 0.7449
vn 0.7751 -0.3254 0.5416
vn 0.5812 -0.3780 0.7207
vn -0.3333 -0.1885 0.9238
vn -0.2312 0.9729 0.0085
vn 0.3966 0.8230 -0.4066
vn -0.1505 0.8275 0.5409
vn 0.7269 -0.6034 -0.3278
vn 0.8892 -0.0074 -0.4574
vn 0.1650 -0.9838 0.0695
vn 0.9477 -0.3055 -0.0924
vn 0.5529 -0.8227 0.1319
vn -0.0428 0.0000 0.9991
vn 0.2262 -0.7105 0.6663
vn 0.8132 0.4504 -0.3685
vn 0.8201 0.5722 -0.0020
vn 0.3116 -0.4532 0.8352
vn 0.3886 -0.5125 0.7657
vn 0.1640 0.6706 0.7234
vn 0.0452 0.7290 0.6830
vn -0.0744 0.7735 0.6294
vn -0.6826 -0.0760 0.7269
vn -0.5303 0.2423 0.8124
vn -0.5208 0.1804 0.8344
vn -0.3053 0.4180 0.8556
vn -0.7749 -0.1927 0.6020
vn 0.3769 0.9208 0.1000
vn -0.4461 0.4745 0.7588
vn -0.3132 0.4296 0.8470
vn 0.0423 -0.6219 0.7819
vn -0.3553 -0.5384 0.7642
vn -0.3610 -0.5500 0.7531
vn -0.3605 -0.5553 0.7494
vn 0.3256 0.1110 0.9390
vn 0.3263 0.0817 0.9417
vn 0.0802 -0.0324 0.9963
vn -0.1248 0.3894 0.9126
vn -0.1744 -0.1744 0.9691
vn -0.3056 -0.2069 0.9294
vn 0.5654 -0.4028 0.7198
vn 0.5672 -0.3485 0.7462
vn 0.5602 -0.3680 0.7422
vn 0.5674 -0.3209 0.7584
vn 0.5807 -0.3091 0.7532
vn 0.1459 0.0008 0.9893
vn 0.9969 0.0614 -0.0498
vn 0.8037 0.5934 -0.0444
s 1
f 3//1 1//2 2//3
f 1//2 3//1 5//4
f 6//5 7//6 5//4
f 8//7 9//8 10//8
f 11//9 13//10 2//3
f 11//9 12//11 13//10
f 31//12 2//3 13//10
f 11//9 1//2 4//13
f 1//2 11//9 2//3
f 1//2 14//14 4//13
f 1//2 5//4 14//14
f 5//4 7//6 14//14
f 15//15 14//14 7//6
f 18//16 19//16 20//16
f 21//17 22//18 23//19
f 16//20 17//21 24//22
f 25//23 26//23 27//23
f 12//11 28//24 29//25
f 11//9 4//13 12//11
f 12//11 4//13 28//24
f 4//13 14//14 28//24
f 14//14 15//15 28//24
f 28//24 15//15 30//26
f 2//3 31//12 3//1
f 3//1 31//12 32//27
f 31//12 33//28 32//27
f 34//29 3//1 32//27
f 3//1 34//29 5//4
f 34//29 32//27 35//30
f 5//4 34//29 6//5
f 34//29 36//31 6//5
f 37//32 10//8 9//8
f 38//33 6//5 36//31
f 12//11 29//25 13//10
f 31//12 13//10 33//28
f 33//28 13//10 39//34
f 13//10 29//25 39//34
f 39//34 29//25 40//35
f 41//36 24//22 42//37
f 24//22 41//36 16//20
f 43//38 44//39 45//39
f 44//39 46//40 45//39
f 47//41 48//42 49//43
f 49//43 48//42 50//44
f 49//43 51//45 47//41
f 29//25 28//24 40//35
f 52//46 40//35 28//24
f 30//26 52//46 28//24
f 30//26 53//47 54//48
f 16//20 41//36 55//49
f 30//26 54//48 52//46
f 41//50 56//51 57//52
f 58//53 59//54 60//55
f 36//31 34//29 35//30
f 40//35 33//28 39//34
f 32//27 33//28 35//30
f 33//28 40//35 35//30
f 61//56 49//43 50//44
f 62//57 60//55 63//58
f 64//59 65//60 66//61
f 66//61 65//60 67//62
f 65//60 68//63 67//62
f 69//64 58//53 60//55
f 62//57 69//64 60//55
f 35//30 40//35 70//65
f 70//65 40//35 71//66
f 40//35 52//46 71//66
