# Blender v2.78 (sub 0) OBJ File: 'exporter.blend'
# www.blender.org
o FJ3616.obj_grp1.2198
v -0.313812 -0.368673 4.205933
v -0.312009 -0.369669 4.212266
v -0.316626 -0.368206 4.212097
v -0.315618 -0.366337 4.205717
v -0.313460 -0.366888 4.205326
v -0.315957 -0.364370 4.213089
v -0.316708 -0.368224 4.212102
v -0.314600 -0.369840 4.210823
v -0.294947 -0.339449 4.127800
v -0.310231 -0.362234 4.184031
v -0.313807 -0.368693 4.205894
v -0.301378 -0.342272 4.132180
v -0.301570 -0.347173 4.128247
v -0.300459 -0.353505 4.146518
v -0.311611 -0.370631 4.212697
v -0.301378 -0.342272 4.132180
v -0.309354 -0.371729 4.212863
v -0.304255 -0.349990 4.155975
v -0.310054 -0.363512 4.176737
v -0.309897 -0.357043 4.182921
v -0.300459 -0.353505 4.146518
v -0.303915 -0.355529 4.181470
v -0.296804 -0.343627 4.149598
v -0.311547 -0.366076 4.212064
v -0.279557 -0.343485 4.084545
v -0.286006 -0.333931 4.080884
v -0.289910 -0.339832 4.122012
v -0.300034 -0.346344 4.154288
v -0.280937 -0.335144 4.104041
v -0.283422 -0.342406 4.108855
v -0.270320 -0.327793 4.077585
v -0.264638 -0.321958 4.052964
v -0.281919 -0.337255 4.106124
v -0.262671 -0.318871 4.070345
v -0.222825 -0.259716 4.019882
v -0.263684 -0.320079 4.077897
v -0.278298 -0.325859 4.083136
v -0.222433 -0.277860 4.026708
v -0.210694 -0.270550 4.025721
v -0.251998 -0.293883 4.052060
v -0.259994 -0.311527 4.059474
v -0.250599 -0.296281 4.049715
v -0.225615 -0.273402 4.034175
v -0.225615 -0.273402 4.034175
v -0.246788 -0.303820 4.055278
v -0.246556 -0.312302 4.051818
v -0.211575 -0.274513 4.017655
v -0.204268 -0.264219 4.022180
v -0.198836 -0.246587 3.997769
v -0.176885 -0.239679 4.000295
v -0.185518 -0.233379 4.013745
v -0.155186 -0.221841 3.991802
v -0.139222 -0.308671 4.121994
v -0.134230 -0.315117 4.112751
v -0.136946 -0.318851 4.110840
v -0.115455 -0.315118 4.111210
v -0.159931 -0.202449 3.990389
v -0.156604 -0.208735 4.008714
v -0.163378 -0.204288 4.002698
v -0.160514 -0.220941 4.008684
v -0.136575 -0.262114 4.074362
v -0.137281 -0.262704 4.090788
v -0.128623 -0.253656 4.095912
v -0.137281 -0.262704 4.090788
v -0.141152 -0.308127 4.123387
v -0.130704 -0.302032 4.130739
v -0.158447 -0.207434 4.014296
v -0.163369 -0.204122 4.002885
v -0.142528 -0.219307 4.006546
v -0.113741 -0.307111 4.129326
v -0.132135 -0.271477 4.076693
v -0.137471 -0.316327 4.110205
v -0.115873 -0.263820 4.071260
v -0.114971 -0.305220 4.126608
v -0.117113 -0.251663 4.092113
v -0.115455 -0.315118 4.111210
v -0.112820 -0.311498 4.123001
v -0.115455 -0.315118 4.111210
v -0.114223 -0.222656 4.040013
v -0.130669 -0.301946 4.130686
v -0.138278 -0.308324 4.121876
v -0.130739 -0.302142 4.131697
v -0.129729 -0.200883 3.999967
v -0.150709 -0.214070 4.011792
v -0.146932 -0.209931 4.015731
v -0.148827 -0.217945 4.008801
v -0.150709 -0.214070 4.011792
v -0.146588 -0.209770 4.016602
v -0.144374 -0.217854 4.011383
v -0.142456 -0.219411 4.006839
v -0.125852 -0.230140 4.021302
v -0.135565 -0.223523 4.044006
v -0.136442 -0.236256 4.040199
v -0.135752 -0.254408 4.065465
v -0.135565 -0.223523 4.044006
v -0.132582 -0.197073 4.015629
v -0.145312 -0.210145 4.016090
v -0.143531 -0.196188 4.006407
vn -0.2992 -0.9520 -0.0645
vn -0.9667 0.1161 -0.2283
vn -0.4097 -0.8385 -0.3592
vn -0.4437 -0.8732 -0.2018
vn -0.2619 -0.9227 -0.2829
vn -0.0187 -0.9716 -0.2360
vn -0.9581 0.2852 0.0277
vn -0.9398 0.3049 -0.1545
vn -0.2730 0.9367 0.2193
vn -0.3108 0.8345 0.4549
vn 0.1100 0.9561 0.2716
vn -0.8809 -0.3321 -0.3372
vn 0.9589 0.2333 0.1614
vn 0.8932 0.3658 0.2615
vn 0.8971 0.3798 0.2256
vn -0.6319 -0.5524 -0.5437
vn -0.2515 0.9259 0.2819
vn 0.5521 0.7119 0.4341
vn 0.4133 0.8587 0.3029
vn 0.4431 0.8181 0.3665
vn 0.0942 -0.9418 -0.3228
vn 0.6889 -0.7199 0.0842
vn 0.6594 -0.7487 0.0676
vn -0.5592 -0.7868 -0.2610
vn 0.8679 -0.4327 0.2439
vn 0.8867 0.2479 0.3902
vn 0.9127 0.2812 0.2964
vn -0.1065 0.8188 0.5641
vn -0.2208 -0.5324 -0.8172
vn -0.6577 0.7508 0.0615
vn 0.8859 -0.0139 0.4636
vn -0.7257 0.1853 -0.6626
vn 0.5342 -0.8043 -0.2600
vn 0.4805 -0.8153 -0.3231
vn -0.1598 0.5126 0.8436
vn -0.2364 0.9024 0.3603
vn -0.2996 0.8923 0.3376
vn -0.6428 0.7272 0.2410
vn 0.0375 0.6013 0.7981
vn -0.3180 0.6681 0.6727
vn 0.7127 -0.4285 0.5553
vn 0.4052 0.1331 0.9045
vn 0.3264 0.3748 0.8678
vn 0.7821 -0.6104 0.1256
vn 0.7603 -0.6307 0.1552
vn -0.3466 0.6854 0.6404
vn -0.3442 -0.1526 -0.9264
vn 0.2859 -0.7011 -0.6532
vn 0.4492 -0.3915 0.8031
vn 0.3376 -0.4114 -0.8466
vn -0.1713 0.6747 -0.7179
vn -0.2502 -0.0896 0.9640
vn -0.4284 0.8952 -0.1228
vn 0.1262 0.0220 0.9918
vn -0.9436 -0.2177 -0.2496
vn -0.9251 -0.3003 -0.2322
vn -0.9970 -0.0537 -0.0551
vn -0.3347 0.6876 0.6444
vn -0.8123 0.4154 0.4093
vn -0.6871 0.4488 0.5714
vn -0.8506 -0.3139 -0.4219
vn -0.6954 0.3707 0.6156
vn -0.0927 0.9058 0.4135
vn -0.2086 0.9779 -0.0144
vn -0.2696 -0.6193 0.7374
vn -0.0520 -0.7936 0.6062
vn -0.0745 -0.7426 0.6655
vn 0.1456 -0.9323 0.3310
vn -0.3348 -0.5899 -0.7348
vn -0.0215 -0.5924 -0.8054
vn 0.2880 -0.6373 -0.7148
vn 0.2178 -0.5879 -0.7791
vn 0.6828 0.4089 0.6055
vn 0.9991 0.0365 -0.0218
vn 0.6199 0.5837 0.5244
vn 0.9451 -0.1892 -0.2664
vn 0.9590 0.2821 -0.0263
vn -0.1928 -0.6877 0.7000
vn -0.1689 -0.7233 0.6695
vn 0.3478 0.5292 0.7739
vn 0.6833 0.4067 -0.6065
vn -0.3677 -0.3538 0.8600
vn -0.2886 -0.4652 0.8368
vn 0.1746 -0.5940 0.7853
vn 0.1362 -0.5631 0.8151
vn -0.5705 -0.8202 0.0424
vn 0.4091 -0.6938 -0.5927
vn -0.6991 -0.7147 -0.0228
vn -0.9810 0.0099 0.1937
vn -0.9687 -0.2178 0.1192
vn -0.8766 -0.4185 -0.2375
vn -0.9941 -0.0696 -0.0829
vn -0.7571 0.5060 0.4133
vn 0.1590 0.9584 0.2371
vn -0.4712 0.5831 0.6618
vn 0.1705 0.9378 -0.3025
s 1
f 1//1 2//1 3//1
f 7//2 10//3 11//4
f 14//5 15//6 10//3
f 7//2 6//7 12//8
f 16//9 8//10 9//11
f 13//12 10//3 7//2
f 12//8 13//12 7//2
f 17//13 18//14 24//15
f 15//6 11//4 10//3
f 26//16 13//12 12//8
f 9//11 26//17 16//9
f 27//18 9//11 28//19
f 29//20 9//11 27//18
f 13//12 26//16 25//21
f 20//22 21//23 25//21
f 25//21 19//24 13//12
f 20//22 25//21 30//25
f 23//26 22//27 30//25
f 26//17 9//11 31//28
f 32//29 25//21 26//16
f 31//28 9//11 29//20
f 30//25 34//30 33//31
f 23//26 30//25 33//31
f 35//32 32//29 26//16
f 30//25 25//21 38//33
f 34//30 30//25 38//33
f 38//33 25//21 32//29
f 38//33 39//34 34//30
f 26//17 31//28 40//35
f 37//36 36//37 41//38
f 35//32 26//16 42//39
f 41//38 36//37 43//40
f 48//41 44//42 45//43
f 46//44 47//45 48//41
f 35//46 41//38 43//40
f 49//47 38//33 32//29
f 32//29 35//32 49//47
f 50//48 38//33 49//47
f 43//40 51//49 35//46
f 52//50 48//41 47//45
f 50//48 49//47 52//50
f 57//51 52//50 49//47
f 57//51 49//47 35//32
f 48//41 58//52 44//42
f 59//53 57//51 35//32
f 48//41 60//54 58//52
f 61//55 53//56 62//57
f 63//58 64//59 65//60
f 54//61 53//56 61//55
f 65//60 66//62 63//58
f 35//46 51//49 67//63
f 68//64 35//46 67//63
f 69//65 60//54 48//41
f 70//66 55//67 56//68
f 54//61 61//55 71//69
f 72//70 71//69 73//71
f 72//70 73//71 76//72
f 74//73 77//74 75//75
f 78//76 73//71 79//77
f 78//76 79//77 77//74
f 55//67 80//78 81//79
f 70//66 80//78 55//67
f 82//80 74//73 75//75
f 83//81 52//50 57//51
f 48//41 52//50 69//65
f 84//82 85//83 58//52
f 60//54 84//82 58//52
f 60//54 69//65 86//84
f 86//84 87//85 60//54
f 84//82 86//84 85//83
f 69//65 85//83 86//84
f 90//86 91//87 89//88
f 92//89 88//90 93//91
f 93//91 88//90 89//88
f 93//91 62//57 92//89
f 94//92 62//57 93//91
f 93//91 71//69 61//55
f 89//88 91//87 93//91
f 93//91 91//87 71//69
f 94//92 61//55 62//57
f 64//59 63//58 95//93
f 73//71 71//69 91//87
f 75//75 77//74 79//77
f 75//75 63//58 82//80
f 59//53 68//64 96//94
f 67//63 97//95 68//64
f 57//51 59//53 96//94
f 83//81 57//51 98//96
f 83//81 98//96 96//94
f 97//95 95//93 96//94
f 68//64 97//95 96//94
f 96//94 95//93 63//58
f 96//94 75//75 79//77
f 96//94 63//58 75//75
f 83//81 91//87 52//50
f 52//50 91//87 69//65
f 91//87 79//77 73//71
f 83//81 79//77 91//87
f 79//77 83//81 96//94
l 4 5
