# Blender v2.78 (sub 0) OBJ File: 'exporter.blend'
# www.blender.org
o FJ3649.obj_grp1.2223
v -0.418285 -0.619359 5.560009
v -0.418761 -0.620630 5.561159
v -0.420880 -0.620140 5.561987
v -0.417939 -0.618828 5.559515
v -0.417702 -0.619475 5.560358
v -0.415944 -0.616405 5.561675
v -0.418534 -0.618703 5.561367
v -0.415768 -0.614100 5.561798
v -0.418009 -0.619118 5.559888
v -0.417352 -0.614997 5.560830
v -0.416760 -0.610772 5.563130
v -0.417352 -0.616405 5.562661
v -0.414535 -0.611396 5.563130
v -0.415642 -0.609413 5.565552
v -0.416584 -0.616050 5.561221
v -0.417352 -0.619222 5.559797
v -0.416736 -0.614747 5.560955
v -0.415944 -0.616405 5.561675
v -0.416258 -0.615440 5.561958
v -0.416760 -0.610772 5.563130
v -0.412834 -0.615937 5.559937
v -0.411404 -0.608479 5.562633
v -0.412894 -0.604509 5.564303
v -0.418978 -0.608910 5.565928
v -0.417371 -0.605553 5.565257
v -0.413700 -0.607955 5.562927
v -0.414535 -0.611396 5.563130
v -0.411273 -0.604930 5.564085
v -0.414697 -0.607962 5.564556
v -0.412393 -0.598388 5.564524
v -0.411851 -0.603516 5.564712
v -0.416856 -0.612722 5.562420
v -0.413896 -0.607695 5.564036
v -0.411771 -0.596391 5.566033
v -0.410354 -0.598039 5.565805
v -0.407742 -0.590452 5.565861
v -0.409413 -0.601636 5.564819
v -0.408135 -0.598484 5.564826
v -0.407598 -0.590046 5.566010
v -0.405476 -0.591989 5.565137
v -0.411591 -0.598647 5.566364
v -0.408962 -0.594062 5.565484
v -0.410310 -0.599650 5.565947
v -0.410332 -0.597011 5.568764
v -0.413143 -0.603603 5.565760
v -0.410533 -0.596054 5.567273
v -0.409626 -0.599621 5.566296
v -0.413097 -0.595046 5.566345
v -0.411742 -0.591965 5.568008
v -0.407349 -0.591288 5.566700
v -0.401453 -0.580284 5.572569
v -0.409551 -0.591054 5.567356
v -0.407307 -0.594155 5.565977
v -0.406537 -0.591634 5.567470
v -0.410409 -0.589991 5.566615
v -0.403225 -0.585711 5.570078
v -0.396858 -0.583394 5.572223
v -0.404787 -0.591528 5.567309
v -0.409551 -0.591054 5.567356
v -0.400452 -0.579787 5.572097
v -0.400183 -0.578379 5.569421
v -0.400452 -0.579787 5.572097
v -0.393062 -0.568469 5.573760
v -0.397702 -0.577144 5.569939
v -0.396226 -0.572989 5.572989
v -0.397635 -0.579318 5.571487
v -0.400452 -0.579787 5.572097
v -0.387565 -0.567296 5.578417
v -0.396226 -0.572989 5.572989
v -0.375461 -0.556560 5.577307
v -0.397781 -0.580050 5.570792
v -0.390593 -0.571337 5.574539
v -0.388408 -0.565703 5.572989
v -0.388628 -0.568576 5.574812
v -0.397635 -0.579318 5.571487
v -0.392648 -0.569849 5.571901
v -0.392353 -0.571973 5.571836
v -0.374712 -0.557411 5.575897
v -0.391184 -0.569899 5.572321
v -0.386674 -0.566374 5.576181
v -0.389642 -0.567698 5.573894
v -0.372672 -0.555408 5.575195
v -0.375219 -0.555051 5.577308
v -0.388678 -0.566316 5.572995
v -0.366037 -0.553028 5.580031
v -0.383253 -0.564574 5.579360
v -0.369367 -0.552314 5.580570
v -0.349788 -0.548431 5.582056
v -0.348570 -0.540563 5.578857
v -0.347303 -0.541761 5.581439
v -0.379012 -0.558577 5.576774
v -0.371984 -0.554352 5.579656
v -0.333745 -0.535126 5.585118
v -0.354786 -0.541958 5.582144
v -0.338941 -0.531687 5.579750
v -0.346498 -0.536874 5.579186
v -0.354786 -0.541958 5.582144
v -0.375219 -0.555051 5.577308
v -0.323819 -0.526190 5.581468
v -0.314070 -0.518674 5.586372
v -0.313491 -0.514191 5.584433
v -0.330144 -0.530226 5.584121
v -0.347303 -0.541761 5.581439
v -0.327787 -0.526649 5.580313
v -0.327393 -0.526409 5.580383
v -0.314426 -0.514323 5.585069
v -0.297358 -0.513320 5.584390
v -0.298290 -0.508274 5.585477
v -0.294275 -0.508801 5.581138
v -0.299306 -0.507958 5.586373
v -0.297342 -0.512152 5.586134
v -0.295457 -0.511493 5.585860
v -0.280041 -0.501724 5.582918
v -0.266069 -0.502111 5.585610
v -0.266655 -0.507950 5.581439
v -0.265244 -0.505269 5.578810
v -0.254608 -0.505751 5.576140
v -0.258967 -0.506683 5.584472
v -0.266480 -0.507886 5.581433
v -0.258593 -0.506725 5.584491
v -0.239931 -0.511229 5.574269
v -0.239889 -0.508884 5.581439
v -0.233462 -0.510521 5.573343
v -0.234497 -0.506431 5.574492
v -0.212917 -0.516999 5.575678
v -0.232698 -0.510729 5.573599
v -0.242886 -0.504340 5.576229
v -0.234519 -0.507020 5.574398
v -0.211979 -0.513539 5.581778
v -0.212764 -0.518671 5.577269
v -0.214017 -0.512901 5.574965
v -0.211820 -0.516346 5.575054
v -0.209039 -0.512914 5.577208
v -0.212449 -0.516558 5.578254
v -0.210388 -0.516386 5.579937
v -0.210983 -0.514769 5.577911
vn -0.6869 0.3991 -0.6074
vn -0.6947 0.3660 -0.6193
vn -0.6886 0.3784 -0.6185
vn 0.6432 -0.4215 0.6392
vn 0.6419 -0.4254 0.6380
vn 0.6390 -0.4309 0.6372
vn -0.1572 0.3653 -0.9175
vn -0.1257 0.3184 -0.9396
vn 0.0700 0.2879 -0.9551
vn 0.4109 -0.3330 0.8487
vn 0.2608 -0.0578 0.9637
vn 0.3930 -0.3025 0.8683
vn 0.0972 -0.0419 0.9944
vn 0.7909 -0.3235 -0.5195
vn 0.1387 0.2072 -0.9684
vn 0.6037 -0.0561 -0.7953
vn -0.1570 0.2450 -0.9567
vn -0.3360 0.2819 -0.8987
vn -0.1050 0.2636 -0.9589
vn -0.2571 0.1909 -0.9474
vn -0.0273 0.1580 -0.9871
vn -0.7698 0.2832 -0.5721
vn -0.8356 0.4201 -0.3541
vn -0.9238 0.3817 0.0300
vn 0.6602 -0.5604 0.5001
vn 0.6941 -0.5421 0.4736
vn 0.6938 -0.5235 0.4945
vn 0.3858 -0.1546 0.9095
vn 0.8381 -0.5403 0.0752
vn 0.4017 -0.2285 0.8868
vn -0.6165 0.0090 0.7873
vn 0.1314 -0.5193 0.8444
vn -0.2673 0.2555 -0.9291
vn 0.3695 -0.4311 0.8232
vn -0.8019 0.5584 0.2123
vn -0.8246 0.5308 0.1956
vn -0.8246 0.5308 0.1955
vn 0.1108 -0.3838 0.9168
vn 0.5480 -0.0680 -0.8337
vn -0.0445 0.2207 -0.9743
vn -0.8461 0.5023 0.1786
vn 0.8106 -0.2083 -0.5473
vn -0.6420 0.3069 0.7025
vn -0.6943 0.2653 0.6690
vn -0.6375 0.2383 0.7326
vn 0.0754 -0.3574 0.9309
vn -0.1216 0.3695 -0.9213
vn 0.5007 -0.7760 -0.3836
vn 0.6199 -0.2947 -0.7272
vn 0.6649 -0.3627 -0.6529
vn -0.0683 0.3090 -0.9486
vn 0.5493 -0.8148 0.1853
vn 0.5104 -0.8415 0.1769
vn 0.4964 -0.8559 0.1454
vn 0.2892 -0.8946 -0.3405
vn 0.3633 -0.4621 -0.8090
vn 0.3494 -0.4292 -0.8329
vn 0.4841 -0.6772 -0.5541
vn -0.5803 0.7426 0.3344
vn -0.5851 0.7350 0.3426
vn -0.5821 0.7394 0.3382
vn -0.3861 0.5759 -0.7206
vn -0.4118 0.7099 -0.5713
vn -0.4089 0.7133 -0.5692
vn -0.4137 0.7069 -0.5737
vn -0.5647 0.8216 0.0784
vn -0.5420 0.8402 0.0156
vn 0.3446 -0.7396 -0.5781
vn -0.1399 0.1213 0.9827
vn 0.0140 -0.1269 0.9918
vn -0.2151 0.1603 0.9633
vn -0.3435 0.6028 -0.7201
vn 0.5335 -0.8453 -0.0308
vn 0.5521 -0.8324 0.0476
vn 0.3039 -0.3315 -0.8932
vn 0.2011 -0.3450 -0.9168
vn -0.2521 0.3032 0.9190
vn -0.0618 -0.0716 0.9955
vn 0.5425 -0.8390 -0.0424
vn -0.1270 0.0300 -0.9914
vn -0.0511 -0.0520 0.9973
vn 0.3288 -0.7931 0.5128
vn 0.3393 -0.6814 0.6485
vn -0.1116 0.4464 -0.8879
vn -0.3535 0.9311 -0.0899
vn 0.1230 0.6977 0.7057
vn -0.1336 0.7418 0.6572
vn 0.2177 -0.9628 0.1600
vn -0.2037 0.0295 -0.9786
vn -0.2144 -0.5315 -0.8194
vn 0.0777 -0.9680 -0.2386
vn 0.0747 -0.9436 -0.3225
vn 0.0553 -0.4711 0.8803
vn 0.1915 0.8751 0.4444
vn -0.0396 -0.8560 0.5154
vn -0.1969 -0.9512 0.2374
vn 0.1536 -0.1615 0.9748
vn -0.1398 -0.4957 -0.8571
vn 0.1985 0.9243 0.3260
vn -0.1676 -0.2209 -0.9608
vn -0.1948 -0.8339 -0.5164
vn -0.1522 0.2171 -0.9642
vn -0.0116 0.3858 -0.9225
vn 0.3320 -0.0529 0.9418
vn 0.8602 0.1695 0.4809
vn 0.4590 -0.8878 0.0330
vn 0.2151 0.3981 -0.8917
vn 0.3525 0.4379 -0.8270
vn -0.0595 -0.0670 -0.9960
vn 0.5357 -0.6911 -0.4851
vn 0.8410 -0.5392 0.0439
vn 0.2808 -0.8375 0.4688
vn 0.8554 -0.2851 -0.4324
s 1
f 4//1 3//2 11//3
f 12//4 13//5 14//6
f 23//7 19//8 20//9
f 27//10 28//11 29//12
f 29//12 28//11 30//13
f 35//14 31//15 32//16
f 35//14 32//16 36//17
f 34//18 39//19 33//20
f 36//17 40//21 35//14
f 26//22 41//23 42//24
f 43//25 44//26 45//27
f 47//28 50//29 46//30
f 51//31 42//24 41//23
f 42//24 51//31 52//32
f 39//19 34//18 55//33
f 50//29 56//34 46//30
f 59//35 60//36 61//37
f 46//30 56//34 62//38
f 40//21 36//17 63//39
f 64//40 39//19 55//33
f 65//41 61//37 60//36
f 40//21 63//39 66//42
f 67//43 68//44 69//45
f 62//38 56//34 72//46
f 73//47 64//40 55//33
f 74//48 75//49 76//50
f 82//51 64//40 73//47
f 79//52 85//53 80//54
f 74//48 76//50 88//55
f 81//56 89//57 90//58
f 91//59 92//60 94//61
f 89//57 81//56 95//62
f 96//63 84//64 83//65
f 97//66 95//62 98//67
f 90//58 89//57 99//68
f 86//69 100//70 87//71
f 95//62 97//66 101//72
f 99//68 102//73 103//74
f 99//68 89//57 104//75
f 105//76 89//57 95//62
f 87//71 100//70 106//77
f 93//78 107//79 100//70
f 93//78 100//70 86//69
f 99//68 104//75 105//76
f 99//68 107//79 102//73
f 109//80 95//62 101//72
f 99//68 109//80 107//79
f 105//76 109//80 99//68
f 109//80 105//76 95//62
f 106//77 100//70 110//81
f 107//79 111//82 100//70
f 110//81 100//70 112//83
f 109//80 101//72 113//84
f 113//84 101//72 108//85
f 107//79 112//83 111//82
f 110//81 114//86 113//87
f 119//88 112//83 109//80
f 109//80 112//83 107//79
f 109//80 113//84 116//89
f 117//90 115//91 109//92
f 112//83 119//88 118//93
f 110//81 112//83 118//93
f 119//88 115//91 117//90
f 117//94 116//89 113//84
f 118//93 114//86 110//81
f 119//88 120//95 118//93
f 121//96 122//97 119//88
f 122//97 120//95 119//88
f 123//98 117//94 113//84
f 121//96 119//88 117//90
f 122//97 114//86 118//93
f 124//99 113//87 114//86
f 125//100 117//94 126//101
f 127//102 123//98 113//84
f 128//103 123//98 127//102
f 126//101 117//94 123//98
f 129//104 133//105 124//99
f 122//97 124//99 114//86
f 130//106 129//104 122//97
f 130//106 122//97 121//96
f 128//103 131//107 123//98
f 128//103 133//108 131//107
f 124//99 122//97 129//104
f 131//107 125//100 126//101
f 132//109 125//100 131//107
f 125//110 134//111 130//106
f 133//105 134//111 125//110
f 131//107 133//108 132//109
f 121//96 125//110 130//106
f 135//112 129//104 130//106
f 135//112 130//106 136//113
f 134//111 133//105 129//104
l 53 54
l 48 49
l 37 38
l 70 71
l 1 2
l 77 78
l 21 22
l 24 25
l 15 16
l 17 18
l 5 6
l 57 58
l 7 8
l 9 10
