# Blender v2.78 (sub 0) OBJ File: 'exporter.blend'
# www.blender.org
o FJ3619.obj_grp1.2201
v -0.385335 -0.812066 5.484267
v -0.386876 -0.808791 5.495427
v -0.383118 -0.809671 5.494730
v -0.383586 -0.811583 5.488796
v -0.388951 -0.794212 5.507148
v -0.381130 -0.810485 5.487079
v -0.383060 -0.795874 5.503536
v -0.373192 -0.813489 5.489471
v -0.392504 -0.787890 5.512216
v -0.394381 -0.767178 5.525804
v -0.392137 -0.777560 5.516693
v -0.390439 -0.781219 5.520766
v -0.383081 -0.809753 5.494589
v -0.386949 -0.786817 5.511572
v -0.388869 -0.783527 5.518903
v -0.385865 -0.800888 5.499549
v -0.388610 -0.791068 5.505732
v -0.392722 -0.786552 5.513462
v -0.393536 -0.775037 5.522944
v -0.389960 -0.747990 5.535566
v -0.392241 -0.778421 5.515996
v -0.388337 -0.753648 5.527523
v -0.388738 -0.773475 5.521038
v -0.390722 -0.733363 5.552419
v -0.392303 -0.741299 5.540976
v -0.390688 -0.755016 5.537639
v -0.390251 -0.781379 5.519705
v -0.389598 -0.750235 5.536608
v -0.388553 -0.754897 5.535902
v -0.388553 -0.754897 5.535902
v -0.388906 -0.773675 5.520879
v -0.390424 -0.751947 5.532731
v -0.393395 -0.747385 5.537779
v -0.386693 -0.740053 5.543495
v -0.389859 -0.738601 5.548711
v -0.390582 -0.755135 5.537770
v -0.390716 -0.733750 5.547735
v -0.383771 -0.722968 5.556825
v -0.381885 -0.727968 5.550251
v -0.385436 -0.723832 5.549340
v -0.382596 -0.721990 5.557571
v -0.384789 -0.727077 5.547760
v -0.386353 -0.721095 5.552803
v -0.386321 -0.720785 5.553034
v -0.376646 -0.821963 5.473765
v -0.377448 -0.823396 5.475811
v -0.377448 -0.822499 5.473369
v -0.375769 -0.822768 5.473487
v -0.377448 -0.823396 5.475811
v -0.376659 -0.822983 5.473951
v -0.377938 -0.819907 5.473551
v -0.375494 -0.821940 5.477062
v -0.377072 -0.822041 5.477019
v -0.376772 -0.822075 5.475141
v -0.375782 -0.820896 5.475274
v -0.375716 -0.822307 5.474129
v -0.375770 -0.820704 5.473969
v -0.375486 -0.824363 5.476502
v -0.376357 -0.821896 5.474646
v -0.385269 -0.802285 5.496630
v -0.377074 -0.822883 5.475617
v -0.383206 -0.809677 5.494508
v -0.378284 -0.814988 5.485200
v -0.378284 -0.814988 5.485200
v -0.383081 -0.813110 5.484777
v -0.379326 -0.711706 5.553506
v -0.343363 -0.661646 5.575791
v -0.364415 -0.692254 5.561007
v -0.373269 -0.697311 5.562150
v -0.361595 -0.683141 5.564911
v -0.361918 -0.685107 5.568360
v -0.360189 -0.686554 5.569948
v -0.348254 -0.669112 5.567778
v -0.349588 -0.677905 5.569703
v -0.360547 -0.687294 5.562989
v -0.342700 -0.663293 5.568285
v -0.365367 -0.685568 5.563580
v -0.343920 -0.661727 5.571909
v -0.343920 -0.661727 5.571909
v -0.349588 -0.677905 5.569703
v -0.330667 -0.656169 5.571494
v -0.336635 -0.656169 5.576839
v -0.298532 -0.617919 5.582465
v -0.273972 -0.598558 5.586957
v -0.313512 -0.632112 5.577333
v -0.319055 -0.641307 5.574065
v -0.284327 -0.613814 5.582472
v -0.260382 -0.579986 5.577997
v -0.270493 -0.585176 5.582908
v -0.249488 -0.556659 5.581564
v -0.254093 -0.567365 5.588623
v -0.259504 -0.568703 5.582800
v -0.247997 -0.551020 5.579702
v -0.255712 -0.562629 5.586453
v -0.285274 -0.613098 5.582314
v -0.273938 -0.598429 5.586838
v -0.255066 -0.578895 5.584202
v -0.258809 -0.577139 5.579844
v -0.246677 -0.562471 5.587018
v -0.240960 -0.543710 5.580002
v -0.272080 -0.579749 5.582584
v -0.252951 -0.548434 5.587487
v -0.249670 -0.548333 5.586604
v -0.238223 -0.538472 5.584928
v -0.247876 -0.550126 5.588481
v -0.247307 -0.547028 5.584423
v -0.247488 -0.548711 5.588379
v -0.247333 -0.533310 5.582848
v -0.238833 -0.539329 5.584631
v -0.244091 -0.527188 5.578464
v -0.232236 -0.474265 5.573956
v -0.242228 -0.497268 5.585323
v -0.235500 -0.467011 5.567650
v -0.244229 -0.485580 5.577347
v -0.238369 -0.475304 5.580357
v -0.242075 -0.477361 5.578910
v -0.241928 -0.477717 5.578857
v -0.226282 -0.455579 5.563424
v -0.229098 -0.456318 5.575102
v -0.222907 -0.454944 5.574342
v -0.228895 -0.450181 5.564728
v -0.212437 -0.433163 5.560028
v -0.229098 -0.456318 5.575102
v -0.224050 -0.453421 5.571708
v -0.213921 -0.442491 5.560484
v -0.210319 -0.435662 5.553976
v -0.200209 -0.426266 5.559193
v -0.205498 -0.438884 5.554868
v -0.206528 -0.439581 5.563591
v -0.221586 -0.456337 5.567825
v -0.213603 -0.443092 5.557027
v -0.206521 -0.439588 5.563600
v -0.210319 -0.435662 5.553976
v -0.210319 -0.435662 5.565431
v -0.153949 -0.406278 5.533249
v -0.173370 -0.417508 5.536229
v -0.158751 -0.412437 5.543124
v -0.172762 -0.416884 5.536371
v -0.210347 -0.437061 5.560965
v -0.158471 -0.404202 5.527452
v -0.153798 -0.395590 5.531615
v -0.174812 -0.412075 5.540080
v -0.158471 -0.404202 5.527452
v -0.174812 -0.412075 5.540080
v -0.153412 -0.396622 5.531277
v -0.153060 -0.396274 5.524645
v -0.154310 -0.399157 5.535125
v -0.152128 -0.396218 5.526193
v -0.143604 -0.393695 5.513234
v -0.137212 -0.394089 5.519439
v -0.142717 -0.392472 5.511959
v -0.137430 -0.381664 5.498767
v -0.138523 -0.375441 5.510941
v -0.141132 -0.374467 5.504447
v -0.131924 -0.374087 5.493971
v -0.131692 -0.381317 5.500496
v -0.127088 -0.371684 5.491632
v -0.131611 -0.373907 5.505762
v -0.134749 -0.386503 5.516419
v -0.127088 -0.371684 5.491632
v -0.123849 -0.366724 5.453087
v -0.140353 -0.378235 5.498404
v -0.138355 -0.367536 5.486422
v -0.135235 -0.361372 5.482723
v -0.141132 -0.374467 5.504447
v -0.129427 -0.365765 5.494308
v -0.135065 -0.386697 5.516728
v -0.131305 -0.355244 5.466371
v -0.123994 -0.352031 5.438329
v -0.131069 -0.355839 5.467360
v -0.110249 -0.420082 5.186105
v -0.112080 -0.393571 5.294219
v -0.105558 -0.385843 5.289732
v -0.127272 -0.363649 5.409444
v -0.119280 -0.361177 5.394919
v -0.121647 -0.365996 5.419300
v -0.114408 -0.360548 5.414868
v -0.124115 -0.365572 5.454450
v -0.121475 -0.363373 5.375956
v -0.120509 -0.357078 5.393889
v -0.121475 -0.363373 5.375956
v -0.109478 -0.366934 5.355769
v -0.120509 -0.357078 5.393889
v -0.118215 -0.354482 5.416658
v -0.118881 -0.355185 5.441597
v -0.118215 -0.354482 5.416658
v -0.104784 -0.372465 5.347832
v -0.110786 -0.423586 5.141435
v -0.090655 -0.439300 5.099484
v -0.106352 -0.429306 5.151365
v -0.104754 -0.423541 5.177092
v -0.106431 -0.429530 5.151569
v -0.104474 -0.413427 5.148005
v -0.110249 -0.420082 5.186105
v -0.104745 -0.423550 5.177084
v -0.096026 -0.428024 5.151276
v -0.105083 -0.419737 5.195635
v -0.103516 -0.401014 5.294327
v -0.105234 -0.395629 5.244271
v -0.096772 -0.393417 5.291478
v -0.068026 -0.474327 5.081822
v -0.068581 -0.456705 5.078267
v -0.084762 -0.452351 5.103692
v -0.066241 -0.459235 5.096239
v -0.075654 -0.438548 5.097144
v -0.085679 -0.432551 5.128074
v -0.084385 -0.434353 5.124277
v -0.047077 -0.494828 5.086206
v -0.053136 -0.475278 5.072705
v -0.039762 -0.478837 5.079840
v -0.036393 -0.487578 5.085034
v -0.024884 -0.510826 5.076791
v -0.023708 -0.491035 5.074138
v -0.037256 -0.481261 5.079772
v 0.002667 -0.515687 5.085297
v 0.004391 -0.513052 5.083904
v -0.003637 -0.513477 5.071252
v -0.024892 -0.490541 5.079548
v 0.001279 -0.502219 5.073894
v 0.005585 -0.507182 5.080574
vn -0.9940 0.1089 -0.0051
vn -0.8375 -0.5460 -0.0197
vn -0.6926 -0.6602 0.2907
vn -0.9668 -0.2338 0.1033
vn 0.8027 0.4883 -0.3424
vn -0.6410 -0.7334 0.2264
vn -0.2582 -0.8502 0.4589
vn -0.5569 -0.5855 0.5892
vn 0.9626 -0.0366 0.2686
vn 0.9438 -0.0886 0.3183
vn 0.9243 -0.2370 0.2990
vn -0.9928 -0.0048 -0.1200
vn -0.8093 -0.3703 0.4560
vn 0.5717 0.5555 -0.6038
vn 0.5537 0.5377 -0.6359
vn 0.5341 0.6157 -0.5793
vn -0.5072 0.4105 -0.7578
vn -0.5654 0.3038 -0.7668
vn -0.5617 0.4442 -0.6980
vn -0.9554 0.1935 0.2229
vn -0.8529 0.2898 -0.4342
vn 0.9585 -0.2454 0.1454
vn 0.9521 -0.1610 0.2599
vn 0.9829 -0.1793 -0.0417
vn 0.9190 -0.2088 0.3346
vn 0.9114 0.1871 -0.3666
vn 0.9171 0.2383 -0.3194
vn 0.9019 0.2101 -0.3774
vn -0.4909 0.4473 -0.7476
vn 0.8893 0.0684 -0.4521
vn -0.2808 0.5316 -0.7990
vn -0.9403 0.3147 -0.1298
vn 0.3235 -0.5270 0.7859
vn 0.3495 -0.4979 0.7937
vn 0.2887 -0.5210 0.8032
vn 0.7829 -0.4393 0.4405
vn 0.0777 0.3481 -0.9342
vn 0.6753 -0.5536 0.4872
vn 0.4184 0.1438 -0.8968
vn -0.6675 0.5092 -0.5433
vn -0.8443 0.5187 0.1347
vn -0.9262 -0.0690 -0.3707
vn -0.9296 -0.1962 -0.3119
vn -0.2685 -0.8885 0.3721
vn -0.3462 -0.8459 0.4058
vn -0.2641 -0.9256 0.2710
vn 0.7378 0.5966 -0.3159
vn 0.7316 0.5714 -0.3719
vn 0.6346 0.6601 -0.4020
vn -0.5555 -0.8041 0.2120
vn -0.0133 0.7578 -0.6523
vn 0.0626 0.6352 -0.7698
vn -0.1828 0.7713 -0.6096
vn -0.0393 0.5218 -0.8521
vn -0.8457 0.4746 -0.2441
vn -0.5521 0.3480 0.7577
vn 0.5691 0.0824 -0.8182
vn -0.7456 0.3792 0.5479
vn -0.5044 0.7523 -0.4238
vn -0.7939 -0.5423 0.2751
vn -0.1593 0.5313 -0.8321
vn 0.7030 -0.4713 0.5327
vn -0.2964 0.4536 -0.8405
vn 0.6003 -0.3808 -0.7033
vn 0.6996 -0.3870 -0.6007
vn 0.4609 -0.2222 -0.8592
vn -0.7325 0.6775 -0.0669
vn 0.4841 -0.5163 0.7064
vn 0.4775 -0.4065 -0.7789
vn 0.0462 -0.2220 0.9740
vn -0.5762 0.3150 0.7542
vn -0.2206 0.1892 0.9568
vn -0.5904 0.6776 -0.4386
vn -0.6946 0.6490 -0.3104
vn -0.5146 0.5681 -0.6422
vn -0.5261 0.5441 -0.6536
vn 0.6357 -0.7399 0.2200
vn -0.7881 0.5875 -0.1838
vn -0.2837 0.1248 -0.9507
vn -0.0434 0.0472 -0.9979
vn -0.5395 0.3392 -0.7707
vn -0.8701 0.1672 -0.4636
vn -0.6045 0.2147 0.7671
vn 0.8174 -0.5760 -0.0075
vn 0.5511 -0.8051 -0.2195
vn 0.6045 -0.3873 -0.6961
vn 0.6918 -0.6593 0.2946
vn 0.8117 -0.3083 0.4961
vn -0.0361 -0.0208 0.9991
vn 0.6207 -0.2332 -0.7485
vn -0.9098 0.2632 -0.3208
vn 0.8283 -0.1523 0.5391
vn -0.8673 0.4104 0.2819
vn -0.9740 0.2240 0.0330
vn -0.4624 -0.0132 0.8865
vn -0.9074 0.0512 -0.4171
vn 0.7767 -0.5574 0.2934
vn -0.4442 -0.1193 -0.8879
vn 0.8991 -0.3709 -0.2323
vn -0.2081 0.0936 0.9736
vn -0.9858 0.0628 -0.1556
vn -0.4666 -0.0866 -0.8802
vn -0.8918 0.1700 0.4194
vn -0.4436 0.0866 0.8921
vn -0.1909 0.3960 0.8982
vn -0.1595 0.2988 0.9409
vn 0.0334 0.2822 0.9588
vn 0.0612 -0.4498 -0.8910
vn 0.0916 0.3557 0.9301
vn -0.7376 0.5955 -0.3182
vn -0.5554 0.8149 0.1658
vn -0.8398 0.5423 -0.0261
vn 0.5167 -0.1473 0.8434
vn 0.1327 -0.6943 -0.7073
vn -0.2295 -0.5756 -0.7849
vn -0.4677 0.8537 0.2289
vn 0.0144 -0.4961 -0.8682
vn 0.6315 -0.4712 0.6157
vn 0.7477 -0.6631 0.0353
vn 0.2456 -0.8111 -0.5309
vn -0.0120 -0.4759 -0.8794
vn 0.4778 -0.0934 0.8735
vn -0.5670 0.5953 -0.5694
vn 0.4244 0.0709 0.9027
vn -0.4317 0.8508 -0.2996
vn 0.4353 -0.8496 -0.2979
vn 0.5927 -0.4271 0.6829
vn -0.5003 0.8469 -0.1801
vn -0.0681 0.7258 0.6845
vn -0.5713 0.8158 -0.0903
vn 0.1545 0.5384 0.8284
vn -0.6969 0.6358 -0.3318
vn -0.6382 0.6404 -0.4274
vn -0.7877 0.6047 -0.1176
vn -0.9027 0.4276 -0.0477
vn -0.0080 0.4806 0.8769
vn -0.7874 0.3868 -0.4801
vn -0.3639 -0.6074 -0.7062
vn -0.7145 0.6027 -0.3554
vn 0.8753 -0.4785 0.0694
vn 0.4622 -0.7602 -0.4566
vn -0.0458 -0.6548 -0.7544
vn 0.0065 0.7693 0.6388
vn 0.8409 0.2162 0.4961
vn -0.9515 0.2321 -0.2021
vn 0.4886 -0.8439 -0.2214
vn 0.9313 -0.3641 0.0036
vn 0.9042 -0.4193 0.0809
vn 0.9384 0.1272 0.3213
vn 0.9508 0.0244 0.3087
vn 0.9507 0.1682 0.2606
vn -0.0405 -0.9966 -0.0712
vn -0.8021 -0.2614 -0.5370
vn -0.9721 0.1406 -0.1879
vn -0.5317 0.8350 0.1418
vn -0.5839 0.7564 0.2948
vn 0.5277 0.7093 0.4674
vn -0.5738 0.7474 0.3348
vn -0.3084 0.9486 0.0705
vn -0.8715 -0.4676 -0.1477
vn 0.3176 -0.9452 -0.0753
vn 0.4771 0.8360 0.2709
vn -0.1628 0.9824 -0.0918
vn -0.9538 -0.2976 0.0416
vn -0.9895 -0.1440 -0.0137
vn -0.9612 0.0333 -0.2739
vn 0.3977 -0.9122 0.0992
vn 0.8470 -0.5304 -0.0359
vn -0.9172 0.3437 -0.2018
vn -0.7911 0.5955 -0.1396
vn -0.8102 0.5485 -0.2067
vn 0.6090 0.7840 -0.1202
vn 0.4444 0.8845 -0.1421
vn -0.0746 0.9475 -0.3111
vn 0.3439 0.9284 -0.1405
vn 0.2051 0.9701 -0.1299
vn 0.2645 0.9632 -0.0476
vn 0.8136 0.5814 0.0067
vn 0.7288 0.6783 -0.0933
vn 0.8654 0.5010 -0.0106
vn 0.8688 -0.4892 0.0768
vn 0.4340 0.8812 0.1876
vn 0.8563 -0.3838 0.3456
vn -0.1219 -0.9679 0.2198
vn 0.1232 -0.9586 0.2568
vn -0.7782 -0.6271 0.0332
vn -0.2575 -0.9454 0.2001
vn -0.3426 -0.9224 0.1783
vn 0.1104 -0.9520 0.2854
vn 0.0572 -0.9748 0.2156
vn 0.0064 0.9651 -0.2620
vn -0.6580 0.7351 -0.1633
vn 0.9963 0.0412 0.0758
vn -0.7103 -0.5447 -0.4458
vn -0.7197 0.3306 -0.6105
vn 0.5117 -0.0503 0.8577
vn 0.5227 -0.4815 0.7035
vn 0.8488 0.4633 0.2548
vn 0.4997 0.8126 -0.3000
vn 0.9456 0.0458 0.3220
vn -0.1442 0.4236 -0.8943
vn -0.4638 -0.7556 0.4624
vn -0.0102 0.0386 -0.9992
vn 0.6497 0.7519 -0.1116
vn 0.4208 0.2726 0.8652
vn -0.4302 -0.8580 -0.2806
vn 0.4860 0.8728 -0.0460
vn 0.5297 0.6071 0.5923
vn 0.5597 -0.5143 0.6498
vn 0.2163 0.3784 0.9000
vn 0.4575 0.8315 0.3152
vn 0.2766 -0.6184 -0.7356
vn 0.6890 0.4959 -0.5285
vn 0.9771 0.1762 0.1192
s 1
f 10//1 1//2 2//3
f 2//3 9//4 10//1
f 1//2 10//1 11//5
f 4//6 3//7 2//3
f 2//3 3//7 12//8
f 13//9 14//10 15//11
f 18//12 10//1 9//4
f 2//3 19//13 9//4
f 18//12 19//13 10//1
f 12//8 19//13 2//3
f 17//14 23//15 16//16
f 21//17 22//18 17//19
f 19//13 12//8 24//20
f 10//1 19//13 25//21
f 25//21 19//13 24//20
f 26//22 27//23 28//24
f 15//11 14//10 29//25
f 30//26 31//27 32//28
f 11//5 10//1 33//29
f 34//30 30//26 32//28
f 11//5 33//29 20//31
f 25//21 24//20 37//32
f 25//21 20//31 33//29
f 36//33 38//34 35//35
f 26//22 28//24 39//36
f 32//28 40//37 34//30
f 39//36 41//38 26//22
f 42//39 20//31 25//21
f 25//21 37//32 43//40
f 37//32 24//20 44//41
f 46//42 2//3 45//43
f 63//44 62//45 51//46
f 59//47 60//48 64//49
f 1//2 45//43 2//3
f 3//7 4//6 61//50
f 6//51 65//52 5//53
f 65//52 6//51 58//54
f 25//21 66//55 42//39
f 67//56 44//41 24//20
f 34//30 40//37 68//57
f 69//58 66//55 25//21
f 25//21 43//40 69//58
f 43//40 44//41 69//58
f 44//41 67//56 69//58
f 69//58 70//59 66//55
f 24//20 72//60 67//56
f 68//57 40//37 70//61
f 41//38 39//36 71//62
f 72//60 34//30 68//57
f 73//63 68//57 70//61
f 74//64 75//65 76//66
f 79//67 69//58 67//56
f 80//68 72//60 68//57
f 81//69 74//64 76//66
f 72//60 80//68 81//69
f 82//70 67//56 72//60
f 67//56 83//71 79//67
f 82//70 84//72 83//71
f 72//60 84//72 82//70
f 78//73 85//74 77//75
f 85//74 86//76 77//75
f 81//69 76//66 86//76
f 85//74 79//67 83//71
f 87//77 84//72 72//60
f 85//74 89//78 86//76
f 81//69 86//76 90//79
f 90//79 86//76 89//78
f 87//77 72//60 81//69
f 89//78 85//74 83//71
f 88//80 81//69 90//79
f 87//77 81//69 88//80
f 92//81 90//79 89//78
f 93//82 90//79 92//81
f 83//71 84//72 94//83
f 83//71 94//83 89//78
f 97//84 95//85 98//86
f 95//85 97//84 96//87
f 84//72 99//88 91//89
f 99//88 84//72 97//84
f 94//83 84//72 91//89
f 100//90 99//88 97//84
f 92//81 103//91 93//82
f 99//88 104//92 91//89
f 105//93 94//83 91//89
f 106//94 94//83 105//93
f 106//94 105//93 107//95
f 103//91 108//96 93//82
f 88//80 90//79 100//90
f 97//84 98//86 100//90
f 91//89 104//92 107//95
f 109//97 99//88 100//90
f 93//82 108//96 110//98
f 109//97 100//90 104//92
f 100//90 90//79 110//98
f 110//98 111//99 100//90
f 104//92 112//100 107//95
f 100//90 111//99 104//92
f 107//95 112//100 106//94
f 104//92 111//99 112//100
f 114//101 110//98 108//96
f 113//102 111//99 110//98
f 114//101 106//94 112//100
f 110//98 114//101 113//102
f 116//103 117//104 115//105
f 112//106 119//107 115//105
f 111//99 113//102 118//108
f 119//107 112//106 120//109
f 114//101 112//100 116//103
f 115//105 117//104 112//106
f 114//101 121//110 113//102
f 114//101 116//103 121//110
f 121//110 116//103 122//111
f 123//112 116//103 115//105
f 122//111 116//103 123//112
f 112//100 111//99 124//113
f 125//114 113//102 121//110
f 126//115 125//114 121//110
f 123//112 127//116 122//111
f 111//99 118//108 128//117
f 129//118 130//119 128//120
f 118//108 131//121 128//117
f 132//122 124//113 111//99
f 121//110 122//111 133//123
f 134//124 120//109 129//118
f 128//120 125//114 126//115
f 133//123 122//111 135//125
f 119//107 120//109 134//124
f 136//126 128//120 126//115
f 129//118 137//127 134//124
f 136//126 137//127 128//120
f 137//127 129//118 128//120
f 135//125 138//128 133//123
f 141//129 142//130 147//131
f 143//132 144//133 145//134
f 146//135 143//132 145//134
f 147//131 122//111 127//116
f 137//127 147//131 139//136
f 142//130 122//111 147//131
f 148//137 149//138 140//139
f 136//126 149//138 150//140
f 149//138 151//141 150//140
f 149//138 136//126 140//139
f 150//140 137//127 136//126
f 152//142 149//138 148//137
f 153//143 141//129 147//131
f 150//140 167//144 137//127
f 167//144 147//131 137//127
f 145//134 154//145 146//135
f 150//140 152//142 155//146
f 150//140 151//141 152//142
f 150//140 156//147 167//144
f 167//144 156//147 157//148
f 158//149 159//150 160//151
f 161//152 155//146 162//153
f 162//153 155//146 152//142
f 146//135 154//145 162//153
f 162//153 154//145 163//154
f 152//142 148//137 162//153
f 153//143 164//155 165//156
f 166//157 164//155 153//143
f 167//144 166//157 153//143
f 160//151 166//157 158//149
f 165//156 145//158 153//143
f 153//143 147//131 167//144
f 168//159 174//160 163//154
f 174//160 176//161 163//154
f 161//152 163//154 176//161
f 161//152 162//153 163//154
f 166//157 170//162 164//155
f 164//155 168//159 163//154
f 166//157 169//163 170//162
f 164//155 163//154 165//156
f 168//159 170//162 169//163
f 171//164 172//165 188//166
f 176//161 174//160 177//167
f 156//147 178//168 157//148
f 179//169 172//165 174//160
f 180//170 179//169 174//160
f 179//169 173//171 172//165
f 173//172 181//173 175//174
f 174//160 168//159 180//170
f 182//175 183//176 184//177
f 186//178 187//179 175//174
f 185//180 187//179 186//178
f 177//167 185//181 176//161
f 185//181 178//168 176//161
f 184//177 169//163 185//182
f 157//148 178//168 185//181
f 166//157 160//151 185//182
f 185//182 169//163 166//157
f 180//170 168//159 169//163
f 183//176 169//163 184//177
f 196//183 191//184 192//185
f 190//186 171//164 188//166
f 192//185 191//184 194//187
f 191//184 197//188 194//187
f 172//165 171//164 198//189
f 194//187 197//188 198//189
f 198//189 195//190 196//183
f 193//191 188//166 199//192
f 188//166 172//165 199//192
f 196//183 193//191 200//193
f 196//183 200//193 198//189
f 195//190 198//189 197//188
f 200//193 193//191 173//172
f 187//179 200//193 173//172
f 198//189 174//160 172//165
f 173//171 199//192 172//165
f 198//189 177//167 174//160
f 177//167 198//189 200//193
f 200//193 187//179 177//167
f 175//174 187//179 173//172
f 201//194 188//166 189//195
f 204//196 196//183 203//197
f 193//191 189//195 188//166
f 188//166 203//197 190//186
f 203//197 196//183 192//185
f 206//198 196//183 204//196
f 205//199 206//198 207//200
f 205//199 189//195 193//191
f 206//198 205//199 193//191
f 206//198 193//191 196//183
f 189//195 202//201 201//194
f 203//197 201//194 208//202
f 201//194 203//197 188//166
f 189//195 205//199 202//201
f 207//200 204//196 205//199
f 209//203 201//194 202//201
f 203//197 208//202 204//196
f 210//204 209//203 202//201
f 211//205 205//199 204//196
f 208//202 201//194 209//203
f 208//202 209//203 212//206
f 210//204 213//207 209//203
f 202//201 205//199 210//204
f 211//205 210//204 205//199
f 214//208 210//204 211//205
f 215//209 208//202 212//206
f 216//210 208//202 215//209
f 208//202 211//205 204//196
f 210//204 218//211 213//207
f 214//208 211//205 218//211
f 217//212 212//206 209//203
f 209//203 219//213 217//212
f 211//205 220//214 218//211
f 218//211 219//213 213//207
f 217//212 215//209 212//206
f 216//210 211//205 208//202
f 216//210 220//214 211//205
f 217//212 219//213 215//209
f 215//209 219//213 220//214
f 219//213 218//211 220//214
l 49 50
l 52 53
l 54 55
l 56 57
l 47 48
l 101 102
l 7 8
