# Blender v2.78 (sub 0) OBJ File: 'exporter.blend'
# www.blender.org
o FJ3645.obj_grp1.2219
v -0.121370 -0.548064 6.087996
v -0.116558 -0.549490 6.144845
v -0.113985 -0.564697 6.144754
v -0.113433 -0.556201 6.148315
v -0.104803 -0.578867 6.148016
v -0.113698 -0.546219 6.148356
v -0.106948 -0.578764 6.145214
v -0.113682 -0.546263 6.148269
v -0.113968 -0.534071 6.144942
v -0.105347 -0.523301 6.148061
v -0.105230 -0.518409 6.141939
v -0.122414 -0.556434 5.989191
v -0.117345 -0.524728 6.085824
v -0.109167 -0.514497 6.105051
v -0.125326 -0.543667 5.994697
v -0.114026 -0.572305 6.005662
v -0.096058 -0.589531 6.144493
v -0.116753 -0.511122 6.000072
v -0.122628 -0.524097 5.999269
v -0.112336 -0.571844 5.989308
v -0.097495 -0.586126 5.992424
v -0.122834 -0.549688 5.985602
v -0.114824 -0.561039 5.985832
v -0.124332 -0.530677 5.989216
v -0.119410 -0.527608 5.985716
v -0.114093 -0.508765 5.990083
v -0.105090 -0.503062 5.985999
v -0.083871 -0.595678 6.144596
v -0.095235 -0.585879 6.148577
v -0.081329 -0.594020 6.147555
v -0.095431 -0.516795 6.149019
v -0.105204 -0.523179 6.147940
v -0.094104 -0.512442 6.147721
v -0.090157 -0.501798 6.110198
v -0.098805 -0.500479 6.077112
v -0.084877 -0.492340 6.060097
v -0.092934 -0.490769 5.995671
v -0.099772 -0.580895 5.987337
v -0.099772 -0.580895 5.987337
v -0.103201 -0.497204 5.991964
v -0.084806 -0.488149 5.988183
v -0.080287 -0.588511 5.985287
v -0.083287 -0.491633 5.985189
v -0.069106 -0.597289 6.144630
v -0.077416 -0.508771 6.148474
v -0.075369 -0.506032 6.142202
v -0.075692 -0.508879 6.147966
v -0.076153 -0.496331 6.094938
v -0.078266 -0.592094 5.987703
v -0.088595 -0.585618 5.986773
v -0.069915 -0.486297 5.986965
v -0.088595 -0.585618 5.986773
v -0.044848 -0.578828 5.985795
v -0.049131 -0.589338 6.147412
v -0.053456 -0.593621 6.143839
v -0.029174 -0.569656 6.148843
v -0.035744 -0.526802 6.148811
v -0.050320 -0.516032 6.148255
v -0.053744 -0.510577 6.142401
v -0.050315 -0.589481 6.060847
v -0.058625 -0.496951 6.087092
v -0.061845 -0.490651 6.045559
v -0.064488 -0.592942 5.998054
v -0.047244 -0.493049 5.994070
v -0.058556 -0.487928 5.988766
v -0.068960 -0.591222 5.986780
v -0.046738 -0.586051 5.991192
v -0.059010 -0.490064 5.985003
v -0.028395 -0.562870 5.985400
v -0.022268 -0.531626 5.986299
v -0.049658 -0.495350 5.986890
v -0.042905 -0.587211 6.143360
v -0.026596 -0.565958 6.148134
v -0.032116 -0.575900 6.143151
v -0.039629 -0.519914 6.145381
v -0.038712 -0.511141 6.101583
v -0.034423 -0.576694 6.075011
v -0.043891 -0.499314 6.048087
v -0.036409 -0.500878 5.992915
v -0.035942 -0.578662 6.002761
v -0.028457 -0.568831 5.989384
v -0.025598 -0.518365 5.988674
v -0.026906 -0.565924 6.148080
v -0.024192 -0.555924 6.148080
v -0.022916 -0.550763 6.148096
v -0.023624 -0.548587 6.148080
v -0.029376 -0.534056 6.147894
v -0.024229 -0.540073 6.141372
v -0.028053 -0.531692 6.143543
v -0.024731 -0.559092 6.063008
v -0.022164 -0.539070 6.057433
v -0.026866 -0.512471 5.993492
v -0.025004 -0.562683 5.988490
v -0.021070 -0.553441 5.992371
v -0.019321 -0.536766 5.986056
v -0.022173 -0.522560 5.994622
v -0.024846 -0.543586 5.985070
v -0.020024 -0.543863 5.986419
v -0.022252 -0.550929 5.987853
v -0.019522 -0.544576 5.985782
v -0.019184 -0.536491 5.985562
v -0.019626 -0.536801 5.985869
vn -0.8682 -0.3336 0.3673
vn -0.5007 -0.0942 0.8605
vn -0.9399 0.0313 0.3399
vn -0.9972 -0.0506 0.0546
vn -0.4022 -0.3829 0.8317
vn -0.5900 -0.0040 0.8074
vn -0.7844 -0.5652 0.2556
vn -0.9128 0.0469 0.4058
vn -0.8346 0.3147 0.4521
vn -0.6132 0.4696 0.6352
vn -0.8349 -0.4083 -0.3691
vn -0.9283 0.3629 0.0807
vn -0.7679 0.6268 0.1318
vn -0.8302 0.5573 -0.0138
vn -0.9480 0.3181 -0.0120
vn -0.6996 -0.5771 -0.4214
vn -0.4461 -0.8444 -0.2967
vn -0.7797 -0.6262 0.0057
vn -0.2770 -0.2171 -0.9360
vn -0.6614 -0.1119 -0.7416
vn -0.9968 -0.0560 -0.0578
vn -0.8873 0.2289 -0.4003
vn -0.4150 0.2036 -0.8867
vn -0.7423 0.5346 -0.4040
vn -0.3675 0.4136 -0.8330
vn -0.4862 -0.7873 0.3793
vn -0.1105 -0.4829 0.8687
vn -0.0146 -0.0222 0.9996
vn -0.1305 0.1798 0.9750
vn -0.7343 0.5690 0.3703
vn -0.6981 0.6607 0.2760
vn -0.4441 0.8550 0.2679
vn -0.1505 0.3190 0.9357
vn -0.3466 0.9184 0.1909
vn -0.5513 0.8289 0.0946
vn -0.2241 0.9668 0.1228
vn -0.4261 0.9040 -0.0340
vn -0.4992 -0.7031 -0.5064
vn -0.3001 -0.3013 -0.9051
vn -0.5798 0.7803 -0.2343
vn -0.2282 0.8801 -0.4164
vn -0.1351 -0.3892 -0.9112
vn 0.2105 0.5056 -0.8367
vn -0.1413 0.2973 -0.9443
vn -0.2949 -0.8960 0.3322
vn 0.0781 -0.8951 0.4389
vn -0.0070 0.9443 0.3290
vn 0.0181 0.0991 0.9949
vn 0.1285 0.8356 0.5341
vn -0.0390 0.9851 0.1676
vn -0.1398 -0.8714 -0.4701
vn -0.3436 -0.7296 -0.5913
vn -0.0016 0.8721 -0.4892
vn -0.3646 -0.8065 -0.4654
vn 0.3000 -0.5360 0.7891
vn 0.3270 -0.8965 0.2990
vn 0.0536 -0.0275 0.9982
vn 0.4434 0.3649 0.8187
vn 0.2610 0.5174 0.8149
vn 0.3327 0.8753 0.3509
vn 0.4702 -0.8823 -0.0199
vn 0.3065 0.9396 0.1524
vn 0.2147 0.9721 0.0941
vn 0.1615 -0.9811 -0.1069
vn 0.4985 0.8575 -0.1271
vn 0.3244 0.9124 -0.2496
vn 0.1299 -0.7108 -0.6913
vn 0.4691 -0.8097 -0.3527
vn 0.2554 -0.3448 -0.9033
vn 0.4096 -0.2136 -0.8869
vn 0.0529 0.0548 -0.9971
vn 0.4388 0.5254 -0.7290
vn 0.6200 -0.7390 0.2636
vn 0.8675 -0.4826 0.1208
vn 0.5723 0.7054 0.4183
vn 0.6551 0.7449 0.1264
vn 0.7740 -0.6330 -0.0119
vn 0.7824 -0.5895 0.2007
vn 0.6588 0.6762 -0.3299
vn 0.5924 0.8015 0.0820
vn 0.6809 -0.7309 -0.0458
vn 0.7228 -0.5648 -0.3982
vn 0.6556 0.3758 -0.6549
vn 0.2054 -0.0223 0.9784
vn 0.4811 -0.1482 0.8640
vn 0.1744 0.0547 0.9832
vn 0.5914 0.3584 0.7223
vn 0.9476 0.2735 0.1651
vn 0.9966 -0.0425 0.0701
vn 0.8171 0.4973 0.2915
vn 0.9535 -0.3015 0.0055
vn 0.9983 0.0559 0.0147
vn 0.8268 0.5302 -0.1880
vn 0.8088 -0.4137 -0.4179
vn 0.9580 -0.2666 -0.1061
vn 0.9939 -0.1087 -0.0160
vn 0.9965 0.0605 0.0585
vn 0.9382 0.3437 -0.0413
vn 0.0844 0.0430 -0.9955
vn 0.2410 -0.1726 -0.9550
vn 0.8097 -0.3922 -0.4365
vn 0.8660 0.4539 -0.2100
vn 0.0819 0.0286 -0.9962
s 1
f 3//1 4//2 2//3
f 2//3 1//4 3//1
f 4//2 3//1 5//5
f 4//2 5//5 6//6
f 5//5 3//1 7//7
f 8//8 2//3 4//2
f 8//8 9//9 2//3
f 6//6 9//9 8//8
f 10//10 9//9 6//6
f 3//1 1//4 12//11
f 2//3 9//9 1//4
f 9//9 13//12 1//4
f 13//12 9//9 14//13
f 18//14 13//12 14//13
f 1//4 13//12 19//15
f 13//12 18//14 19//15
f 20//16 21//17 16//18
f 23//19 12//11 22//20
f 12//11 20//16 16//18
f 23//19 20//16 12//11
f 1//4 15//21 12//11
f 1//4 24//22 15//21
f 15//21 24//22 22//20
f 12//11 15//21 22//20
f 1//4 19//15 24//22
f 22//20 24//22 25//23
f 18//14 26//24 19//15
f 26//24 24//22 19//15
f 24//22 26//24 27//25
f 23//19 22//20 25//23
f 25//23 24//22 27//25
f 12//11 7//7 3//1
f 7//7 17//26 5//5
f 7//7 16//18 17//26
f 30//27 5//5 17//26
f 5//5 29//28 6//6
f 29//28 31//29 6//6
f 6//6 31//29 10//10
f 9//9 10//10 32//30
f 32//30 11//31 9//9
f 11//31 32//30 33//32
f 33//33 10//10 31//29
f 11//31 33//32 34//34
f 7//7 12//11 16//18
f 11//31 14//13 9//9
f 11//31 35//35 14//13
f 11//31 34//34 35//35
f 36//36 37//37 35//35
f 18//14 14//13 35//35
f 16//18 21//17 17//26
f 21//17 20//16 38//38
f 39//39 20//16 23//19
f 35//35 40//40 18//14
f 18//14 40//40 26//24
f 26//24 40//40 27//25
f 35//35 37//37 40//40
f 27//25 40//40 41//41
f 41//41 40//40 37//37
f 39//39 23//19 42//42
f 23//19 25//23 42//42
f 42//42 25//23 68//43
f 25//23 27//25 68//43
f 68//43 27//25 43//44
f 27//25 41//41 43//44
f 30//27 28//45 44//46
f 28//45 30//27 17//26
f 33//32 46//47 34//34
f 45//48 33//33 31//29
f 46//47 33//32 47//49
f 34//34 46//47 48//50
f 28//45 17//26 21//17
f 35//35 34//34 36//36
f 48//50 36//36 34//34
f 21//17 49//51 28//45
f 49//51 44//46 28//45
f 50//52 21//17 38//38
f 42//42 21//17 50//52
f 49//51 21//17 42//42
f 36//36 41//41 37//37
f 36//36 51//53 41//41
f 42//42 52//54 39//39
f 51//53 43//44 41//41
f 44//46 54//55 30//27
f 44//46 55//56 54//55
f 54//55 29//28 30//27
f 54//55 56//57 29//28
f 56//57 45//48 29//28
f 45//48 31//29 29//28
f 57//58 58//59 45//48
f 46//47 47//49 59//60
f 58//59 47//49 45//48
f 58//59 59//60 47//49
f 55//56 44//46 60//61
f 48//50 46//47 61//62
f 59//60 61//62 46//47
f 48//50 62//63 36//36
f 61//62 62//63 48//50
f 60//61 44//46 63//64
f 62//63 51//53 36//36
f 62//63 64//65 65//66
f 44//46 49//51 63//64
f 66//67 63//64 49//51
f 67//68 63//64 66//67
f 62//63 65//66 51//53
f 66//67 49//51 42//42
f 66//67 42//42 53//69
f 53//69 42//42 69//70
f 70//71 68//43 71//72
f 68//43 43//44 51//53
f 65//66 68//43 51//53
f 72//73 54//55 55//56
f 54//55 72//73 73//74
f 45//48 56//57 57//58
f 75//75 58//59 57//58
f 58//59 75//75 59//60
f 72//73 55//56 60//61
f 59//60 75//75 76//76
f 77//77 74//78 72//73
f 59//60 76//76 61//62
f 76//76 79//79 78//80
f 77//77 72//73 60//61
f 76//76 78//80 61//62
f 78//80 64//65 62//63
f 61//62 78//80 62//63
f 63//64 67//68 60//61
f 64//65 78//80 79//79
f 67//68 66//67 53//69
f 60//61 67//68 80//81
f 81//82 67//68 53//69
f 80//81 77//77 60//61
f 67//68 81//82 80//81
f 71//72 82//83 70//71
f 64//65 71//72 65//66
f 71//72 68//43 65//66
f 79//79 71//72 64//65
f 42//42 68//43 70//71
f 72//73 74//78 73//74
f 84//84 56//57 83//85
f 86//86 57//58 56//57
f 87//87 57//58 86//86
f 88//88 87//87 85//89
f 89//90 87//87 88//88
f 86//86 56//57 84//84
f 89//90 76//76 75//75
f 87//87 75//75 57//58
f 87//87 89//90 75//75
f 90//91 73//74 74//78
f 77//77 90//91 74//78
f 73//74 90//91 85//89
f 85//89 91//92 88//88
f 85//89 90//91 91//92
f 89//90 92//93 76//76
f 89//90 88//88 92//93
f 92//93 79//79 76//76
f 88//88 91//92 92//93
f 77//77 93//94 90//91
f 90//91 93//94 94//95
f 100//96 95//97 91//92
f 92//93 91//92 96//98
f 96//98 91//92 95//97
f 81//82 77//77 80//81
f 91//92 90//91 100//96
f 90//91 94//95 100//96
f 81//82 53//69 69//70
f 77//77 81//82 93//94
f 93//94 81//82 69//70
f 93//94 69//70 97//99
f 93//94 97//99 98//100
f 99//101 94//95 93//94
f 100//96 94//95 99//101
f 82//83 92//93 96//98
f 82//83 96//98 101//102
f 79//79 82//83 71//72
f 92//93 82//83 79//79
f 69//70 42//42 97//99
f 97//99 102//103 98//100
f 97//99 42//42 70//71
f 97//99 70//71 102//103
