# Blender v2.78 (sub 0) OBJ File: 'exporter.blend'
# www.blender.org
o FJ3646.obj_grp1.2220
v -0.132830 -0.574700 4.801092
v -0.128885 -0.569889 4.806090
v -0.132081 -0.569290 4.803634
v -0.136438 -0.565295 4.808610
v -0.136550 -0.564718 4.808516
v -0.132081 -0.569290 4.803634
v -0.125540 -0.570343 4.803679
v -0.132260 -0.565928 4.811708
v -0.125070 -0.573140 4.805873
v -0.128321 -0.575989 4.807343
v -0.133466 -0.575181 4.808984
v -0.128321 -0.575989 4.807343
v -0.134714 -0.574116 4.810348
v -0.114366 -0.579341 4.796916
v -0.142041 -0.554515 4.818789
v -0.134234 -0.561303 4.815683
v -0.139245 -0.555694 4.828868
v -0.141309 -0.565697 4.818298
v -0.136953 -0.568088 4.817202
v -0.145136 -0.542479 4.846805
v -0.136953 -0.568088 4.817202
v -0.143692 -0.546478 4.827097
v -0.141806 -0.554159 4.819924
v -0.145550 -0.550586 4.832553
v -0.143962 -0.545770 4.829548
v -0.148074 -0.536176 4.845149
v -0.149345 -0.537903 4.846719
v -0.147927 -0.536484 4.845275
v -0.145550 -0.550586 4.832553
v -0.148020 -0.542521 4.847012
v -0.108559 -0.574368 4.790617
v -0.100961 -0.580443 4.795670
v -0.114593 -0.571165 4.796587
v -0.113849 -0.576492 4.799282
v -0.113394 -0.573599 4.800254
v -0.113394 -0.573599 4.800254
v -0.124986 -0.570600 4.803258
v -0.113152 -0.576527 4.800202
v -0.100664 -0.575339 4.800374
v -0.141615 -0.537433 4.846605
v -0.141449 -0.540869 4.845915
v -0.141265 -0.540915 4.845896
v -0.147837 -0.538159 4.844530
v -0.143586 -0.535630 4.845891
v -0.141676 -0.537647 4.846670
v -0.146685 -0.541075 4.847106
v -0.146820 -0.541770 4.848139
v -0.148339 -0.538301 4.846684
v -0.148020 -0.542521 4.847012
v -0.146820 -0.541770 4.848139
v -0.146005 -0.541996 4.850110
v -0.141920 -0.537518 4.846449
v -0.098454 -0.572311 4.794934
v -0.102069 -0.572355 4.797906
v -0.094690 -0.576596 4.792992
v -0.100715 -0.572285 4.798410
v -0.100912 -0.579960 4.795656
v -0.101427 -0.578167 4.799409
v -0.101347 -0.578149 4.799370
v -0.100506 -0.575454 4.800254
v -0.078730 -0.579701 4.809563
v -0.091754 -0.579852 4.803287
v -0.080609 -0.587700 4.805425
v -0.089194 -0.574567 4.799127
v -0.078836 -0.579583 4.803886
v -0.084228 -0.582829 4.810248
v -0.083494 -0.585818 4.810165
v -0.084208 -0.582796 4.809737
v -0.071372 -0.591258 4.812333
v -0.079962 -0.591291 4.813138
v -0.078336 -0.589026 4.816216
v -0.078336 -0.589026 4.816216
v -0.069813 -0.615006 4.823421
v -0.073021 -0.592945 4.821189
v -0.062545 -0.616816 4.829123
v -0.073844 -0.602204 4.824196
v -0.075859 -0.600936 4.820253
v -0.075859 -0.600936 4.820253
v -0.058933 -0.621790 4.830006
v -0.065685 -0.616920 4.831676
v -0.073844 -0.602204 4.824196
v -0.068715 -0.623333 4.830268
v -0.067713 -0.623524 4.832968
v -0.062065 -0.616411 4.828948
v -0.066397 -0.616105 4.832178
v -0.060298 -0.622173 4.827098
v -0.050753 -0.627686 4.825922
v -0.060294 -0.622231 4.827576
v -0.058183 -0.621537 4.829815
v -0.055462 -0.624408 4.829812
v -0.060190 -0.624614 4.835753
v -0.052891 -0.631437 4.824093
v -0.053190 -0.631898 4.832255
v -0.045472 -0.632131 4.829444
v -0.045657 -0.628916 4.828280
v -0.046940 -0.633088 4.832503
v -0.045657 -0.628916 4.828280
v -0.043916 -0.631754 4.828540
v -0.047728 -0.636511 4.827841
v -0.047293 -0.632097 4.826904
v -0.052657 -0.631461 4.824290
v -0.044478 -0.631672 4.828891
vn -0.3773 0.5114 -0.7721
vn -0.5874 -0.4430 -0.6773
vn -0.6610 0.3097 -0.6835
vn -0.0713 0.1614 -0.9843
vn 0.3297 0.8959 -0.2977
vn 0.3267 0.9115 -0.2500
vn 0.4260 0.7836 -0.4523
vn 0.6166 0.4886 0.6173
vn 0.0710 0.7124 -0.6982
vn 0.6967 0.1313 0.7053
vn -0.3867 -0.8697 0.3068
vn -0.2766 -0.6670 -0.6918
vn -0.0104 -0.9368 0.3498
vn -0.0606 -0.7924 0.6070
vn 0.4539 0.7353 -0.5034
vn 0.8220 0.5617 0.0937
vn 0.7986 -0.3532 0.4873
vn -0.9670 -0.0509 -0.2497
vn -0.8425 -0.5223 0.1317
vn -0.0962 -0.7571 0.6462
vn -0.8977 -0.4305 0.0936
vn 0.4848 -0.5177 0.7050
vn 0.5929 -0.2872 0.7523
vn -0.9137 -0.3880 0.1208
vn -0.4578 0.5616 -0.6892
vn 0.5757 0.7105 -0.4047
vn -0.9010 0.2166 -0.3758
vn -0.8429 0.3220 -0.4312
vn -0.8081 0.3835 -0.4471
vn -0.9610 -0.2764 -0.0100
vn -0.9660 -0.2587 0.0033
vn -0.9562 -0.2924 -0.0167
vn -0.2567 -0.8627 -0.4358
vn -0.2125 0.9579 -0.1930
vn 0.1713 -0.2385 0.9559
vn 0.0665 -0.1563 0.9855
vn 0.1787 0.8464 0.5016
vn 0.3301 0.8331 0.4437
vn 0.0646 -0.7084 0.7029
vn 0.0232 -0.7207 0.6929
vn 0.0491 0.5643 0.8241
vn 0.7078 -0.3021 0.6386
vn 0.6422 0.6955 -0.3223
vn 0.2698 0.8599 -0.4334
vn -0.5594 -0.7178 0.4146
vn -0.2714 0.3893 0.8802
vn -0.5073 0.5534 0.6606
vn -0.3637 0.4811 0.7976
vn -0.6868 0.0026 0.7268
vn 0.4595 -0.5705 0.6808
vn -0.0452 0.3914 0.9191
vn 0.6073 0.0385 0.7935
vn 0.9697 -0.0238 0.2431
vn 0.3099 0.8781 -0.3645
vn 0.3682 -0.0399 -0.9289
vn 0.0306 0.9867 0.1598
vn -0.0420 0.8766 0.4793
vn 0.1684 -0.8782 0.4476
vn 0.0109 -0.9023 0.4309
vn -0.3047 -0.6477 0.6983
vn -0.0827 -0.6615 0.7453
vn -0.1969 -0.2479 0.9486
vn 0.4325 0.7620 0.4820
vn -0.6035 -0.1414 0.7847
vn -0.0241 -0.7333 -0.6795
vn -0.6900 -0.3754 0.6189
vn 0.5170 0.5495 -0.6563
vn 0.6910 0.4755 -0.5444
vn -0.2370 0.5260 0.8168
vn -0.7813 -0.4553 0.4270
vn -0.6870 -0.1242 0.7160
vn 0.8654 0.0263 -0.5004
vn -0.8976 -0.4120 -0.1567
vn -0.6932 0.1332 0.7083
vn -0.3347 -0.5838 -0.7397
vn 0.8593 0.4571 0.2296
vn 0.6847 0.5883 0.4303
vn -0.8839 -0.0620 0.4635
vn 0.1092 0.5423 0.8331
vn -0.8939 -0.3915 -0.2183
vn -0.9063 -0.1756 0.3844
vn 0.7433 0.4664 -0.4795
vn -0.2074 0.3410 0.9169
vn 0.2288 0.5494 0.8036
vn -0.6324 -0.3965 0.6655
vn -0.7518 -0.6014 -0.2704
vn 0.5106 0.5683 0.6452
vn 0.5141 0.5546 0.6543
vn 0.0655 0.2283 -0.9714
vn 0.4392 0.7891 -0.4296
vn 0.3364 0.7594 -0.5569
vn 0.3534 0.7594 -0.5462
vn 0.1509 0.0524 0.9872
vn 0.6317 0.5556 0.5406
vn -0.3164 -0.4858 -0.8148
vn -0.2344 -0.5550 0.7982
vn 0.3227 0.1735 -0.9305
vn 0.4506 -0.2055 -0.8687
vn 0.3615 -0.3245 -0.8741
vn 0.4059 0.7854 -0.4674
vn 0.6107 -0.3154 0.7263
vn 0.6938 0.7160 0.0779
vn -0.1485 -0.9248 0.3502
vn 0.3997 -0.2125 -0.8917
vn 0.4279 -0.1648 -0.8886
vn 0.4215 -0.2092 -0.8824
vn 0.7627 -0.5764 0.2934
s 1
f 3//1 1//2 4//3
f 31//4 1//2 3//1
f 31//4 6//5 2//6
f 2//6 6//5 5//7
f 7//8 8//9 9//10
f 11//11 1//2 14//12
f 12//13 13//14 11//11
f 14//12 12//13 11//11
f 16//15 2//6 5//7
f 8//9 16//16 9//10
f 9//10 16//16 17//17
f 15//18 1//2 18//19
f 4//3 1//2 15//18
f 11//11 18//19 1//2
f 13//14 12//13 19//20
f 19//20 18//19 13//14
f 18//19 19//20 20//21
f 17//17 21//22 9//10
f 9//10 21//22 10//23
f 24//24 15//18 18//19
f 5//7 23//25 22//26
f 24//24 18//19 20//21
f 17//17 20//21 19//20
f 25//27 15//18 24//24
f 27//28 28//29 25//27
f 25//27 24//24 27//28
f 29//30 30//31 27//32
f 14//12 31//4 32//33
f 2//6 33//34 31//4
f 34//35 35//36 7//8
f 36//37 33//34 37//38
f 31//4 14//12 1//2
f 10//23 14//39 9//10
f 14//39 38//40 9//10
f 39//41 35//36 34//35
f 9//10 34//35 7//8
f 22//26 16//15 5//7
f 16//16 42//42 17//17
f 22//26 40//43 16//15
f 40//43 22//26 26//44
f 46//45 24//24 20//21
f 44//46 43//47 47//48
f 48//49 49//49 50//49
f 17//17 51//50 20//21
f 45//51 44//46 47//48
f 17//17 42//42 51//50
f 42//42 52//52 51//50
f 16//15 40//43 41//53
f 33//34 53//54 31//4
f 31//4 53//54 55//55
f 33//34 36//37 54//56
f 35//36 39//41 56//57
f 54//56 53//54 33//34
f 56//57 53//54 54//56
f 31//4 55//55 32//33
f 58//58 14//59 57//60
f 57//60 59//61 58//58
f 14//39 59//61 38//40
f 60//62 38//40 59//61
f 56//57 61//63 53//54
f 59//61 62//64 60//62
f 63//65 57//60 32//33
f 56//57 39//41 62//66
f 64//67 55//55 53//54
f 32//33 55//55 63//65
f 61//63 65//68 53//54
f 59//61 57//60 62//64
f 61//63 56//57 66//69
f 62//64 57//60 67//70
f 56//57 62//66 66//69
f 62//64 67//70 68//71
f 65//68 55//55 64//67
f 61//63 69//72 65//68
f 67//70 57//60 63//65
f 67//70 63//65 70//73
f 65//68 63//65 55//55
f 67//70 71//74 68//71
f 63//65 73//75 70//73
f 61//63 74//76 69//72
f 69//72 75//77 65//68
f 67//70 76//78 71//74
f 61//63 66//69 72//79
f 73//75 77//80 70//73
f 78//81 76//78 67//70
f 79//82 73//75 63//65
f 72//79 80//83 61//63
f 81//84 80//83 72//79
f 65//68 79//82 63//65
f 65//68 75//77 79//82
f 80//83 81//84 83//85
f 73//75 82//86 77//80
f 83//85 78//81 82//86
f 76//78 78//81 83//85
f 74//76 84//87 69//72
f 84//87 74//76 85//88
f 79//82 86//89 73//75
f 87//90 88//91 89//92
f 84//87 91//93 90//94
f 86//89 82//86 73//75
f 86//89 92//95 82//86
f 93//96 82//86 92//95
f 92//95 86//89 87//97
f 87//97 94//98 92//95
f 80//83 83//85 91//93
f 85//88 91//93 84//87
f 82//86 93//96 83//85
f 91//93 83//85 93//96
f 94//98 87//97 95//99
f 90//94 91//93 93//96
f 97//100 87//90 89//92
f 96//101 90//94 93//96
f 96//101 100//102 90//94
f 99//103 93//96 92//95
f 98//104 99//105 101//106
f 96//101 93//96 99//103
f 102//107 96//101 99//103
