# Blender v2.78 (sub 0) OBJ File: 'exporter.blend'
# www.blender.org
o FJ3622.obj_grp1.2204
v -0.531431 -0.601204 5.438253
v -0.529554 -0.599035 5.436188
v -0.527676 -0.601176 5.438253
v -0.529241 -0.601049 5.439455
v -0.531431 -0.601204 5.438253
v -0.531212 -0.599661 5.437733
v -0.529554 -0.599035 5.436188
v -0.525965 -0.589235 5.450572
v -0.528366 -0.600932 5.437896
v -0.530949 -0.601393 5.439715
v -0.530931 -0.591770 5.450497
v -0.529520 -0.598024 5.434585
v -0.524768 -0.601386 5.436544
v -0.529675 -0.598544 5.436754
v -0.523837 -0.586650 5.458433
v -0.527287 -0.588566 5.446114
v -0.525147 -0.586093 5.457409
v -0.524880 -0.600789 5.440226
v -0.526457 -0.588632 5.454148
v -0.527676 -0.590787 5.451398
v -0.520007 -0.580605 5.465465
v -0.514487 -0.578646 5.473199
v -0.522273 -0.583180 5.460688
v -0.527709 -0.590239 5.446345
v -0.524347 -0.582134 5.460787
v -0.523617 -0.585258 5.458921
v -0.522754 -0.585926 5.455092
v -0.522490 -0.586425 5.455605
v -0.511263 -0.573130 5.481256
v -0.524347 -0.582134 5.460787
v -0.515662 -0.576501 5.479566
v -0.499957 -0.561357 5.500895
v -0.515638 -0.580439 5.478127
v -0.525684 -0.584701 5.465543
v -0.506029 -0.571687 5.489092
v -0.509267 -0.575946 5.483136
v -0.507445 -0.571026 5.491686
v -0.507575 -0.569523 5.488685
v -0.508152 -0.569785 5.490348
v -0.506776 -0.568512 5.492939
v -0.512630 -0.576501 5.485200
v -0.507453 -0.572976 5.493346
v -0.507934 -0.566525 5.494534
v -0.504541 -0.572745 5.490833
v -0.507180 -0.576257 5.480448
v -0.500668 -0.565234 5.496467
v -0.498802 -0.562687 5.499029
v -0.503859 -0.559393 5.501577
v -0.499719 -0.556923 5.506781
v -0.504293 -0.560950 5.500559
v -0.498583 -0.552893 5.502408
v -0.507827 -0.567112 5.494589
v -0.500903 -0.563562 5.497408
v -0.507561 -0.569522 5.491504
v -0.499472 -0.559532 5.498395
v -0.499573 -0.555682 5.506214
v -0.505165 -0.566961 5.490974
v -0.503165 -0.557826 5.499518
v -0.497606 -0.544408 5.503121
v -0.494728 -0.548982 5.507121
v -0.490486 -0.512326 5.517464
v -0.491609 -0.513565 5.518906
v -0.492849 -0.514538 5.511809
v -0.487005 -0.505482 5.514671
v -0.486388 -0.514611 5.515234
v -0.486175 -0.506991 5.515169
v -0.491435 -0.514975 5.511152
v -0.493091 -0.514644 5.515245
v -0.493091 -0.514644 5.515245
v -0.486365 -0.505522 5.523055
v -0.490119 -0.512654 5.518672
v -0.486363 -0.514612 5.515245
v -0.482607 -0.508354 5.524635
v -0.482607 -0.508354 5.524635
v -0.486363 -0.514612 5.515245
v -0.482607 -0.508898 5.518015
v -0.482607 -0.508898 5.518015
v -0.486166 -0.505419 5.523038
v -0.482589 -0.508778 5.518162
v -0.482602 -0.508332 5.524621
v -0.463944 -0.501338 5.536655
v -0.454079 -0.501171 5.543317
v -0.480616 -0.499889 5.526152
v -0.477757 -0.504914 5.532403
v -0.458259 -0.497716 5.548538
v -0.457992 -0.497281 5.549226
v -0.453218 -0.495323 5.550221
v -0.450109 -0.502774 5.551235
v -0.445055 -0.493330 5.560629
v -0.446211 -0.489552 5.556158
v -0.437926 -0.482181 5.555302
v -0.443073 -0.495668 5.558361
v -0.443504 -0.488336 5.559967
v -0.443043 -0.495584 5.558295
v -0.439203 -0.489758 5.561111
v -0.439552 -0.493753 5.556558
v -0.429889 -0.479228 5.558304
v -0.431547 -0.481792 5.562683
v -0.437539 -0.476740 5.560314
v -0.437539 -0.476740 5.560314
v -0.437576 -0.476697 5.560359
v -0.422297 -0.462354 5.564304
v -0.422297 -0.462354 5.564304
v -0.429812 -0.479069 5.558342
v -0.411677 -0.455061 5.558250
v -0.426272 -0.461952 5.556934
v -0.425292 -0.463237 5.556891
v -0.426283 -0.461885 5.556843
v -0.421318 -0.462179 5.556377
v -0.422703 -0.468112 5.562241
v -0.411408 -0.452193 5.565689
v -0.418761 -0.452137 5.560314
v -0.391014 -0.447090 5.560400
v -0.407263 -0.444657 5.560304
v -0.400161 -0.447301 5.557564
v -0.389829 -0.446671 5.560455
v -0.368100 -0.437638 5.566259
v -0.369897 -0.433452 5.562211
v -0.370068 -0.435758 5.567058
v -0.368121 -0.437649 5.559989
v -0.370574 -0.435238 5.559463
v -0.367584 -0.439636 5.563076
v -0.368360 -0.437540 5.560455
v -0.371255 -0.437040 5.564762
v -0.371730 -0.439545 5.562766
vn 0.0053 -0.6920 -0.7219
vn -0.0201 -0.7430 0.6690
vn 0.1780 -0.8168 0.5487
vn -0.0180 -0.7705 0.6372
vn -0.0666 -0.9250 0.3741
vn 0.2323 -0.8304 0.5064
vn 0.1864 -0.8529 0.4877
vn -0.8608 0.0276 0.5082
vn 0.0825 -0.7465 0.6602
vn 0.0313 -0.6573 0.7529
vn 0.0177 -0.7958 0.6052
vn 0.4872 -0.8571 0.1672
vn 0.7319 0.4458 -0.5154
vn 0.8714 -0.4725 0.1320
vn 0.6566 0.5832 -0.4783
vn 0.8655 0.1265 -0.4846
vn 0.7861 0.4479 -0.4259
vn 0.7324 0.4474 -0.5132
vn 0.2250 0.8208 -0.5250
vn 0.2377 0.8179 -0.5240
vn 0.2434 0.8207 -0.5169
vn -0.8125 0.5426 0.2130
vn -0.7894 0.6089 0.0784
vn -0.4963 0.8094 -0.3138
vn 0.2839 -0.8843 0.3706
vn 0.8494 0.1732 -0.4986
vn 0.2975 -0.8538 0.4272
vn 0.5894 0.4547 -0.6678
vn 0.3906 -0.8659 0.3125
vn -0.6832 -0.3503 0.6408
vn -0.7350 -0.3490 0.5814
vn -0.7507 -0.2637 0.6057
vn -0.8633 0.1663 0.4765
vn -0.8837 0.0508 0.4652
vn -0.9280 0.1595 0.3367
vn -0.1496 0.8405 -0.5208
vn 0.9212 -0.3836 -0.0656
vn 0.9123 -0.3978 -0.0968
vn 0.9274 -0.3612 -0.0971
vn 0.7122 0.1238 -0.6909
vn -0.6196 -0.3650 0.6949
vn 0.6474 -0.6378 0.4173
vn -0.7478 0.5655 -0.3478
vn -0.0606 0.2823 -0.9574
vn -0.7919 0.5934 -0.1438
vn 0.4942 0.2375 -0.8362
vn 0.0395 -0.7495 0.6608
vn 0.1650 -0.7754 0.6096
vn 0.6252 -0.6147 0.4809
vn -0.6725 -0.0586 0.7378
vn 0.0824 0.6720 -0.7360
vn -0.0311 0.5078 -0.8609
vn -0.0477 0.3375 -0.9401
vn 0.8441 -0.3185 0.4314
vn -0.8802 0.2716 0.3892
vn -0.5988 0.4010 -0.6933
vn -0.6534 0.7389 -0.1643
vn 0.9410 -0.1080 -0.3206
vn 0.4138 -0.3841 0.8253
vn 0.6350 0.0882 -0.7675
vn 0.4276 0.1325 -0.8942
vn -0.9426 0.3315 -0.0397
vn -0.8882 0.4585 0.0308
vn -0.9252 0.2047 0.3196
vn -0.6402 -0.1833 0.7460
vn -0.3396 -0.8026 0.4905
vn 0.0535 -0.8407 0.5389
vn 0.8243 -0.5643 0.0464
vn 0.6638 0.0407 -0.7468
vn -0.4157 0.8770 0.2408
vn 0.3868 0.5793 -0.7175
vn -0.7007 0.0603 0.7109
vn -0.5395 0.7909 0.2889
vn 0.5017 0.6242 -0.5990
vn -0.4164 0.8562 0.3059
vn -0.5767 0.7866 0.2205
vn 0.1696 -0.9849 0.0345
vn 0.2924 -0.9032 0.3141
vn 0.0352 -0.6165 0.7865
vn -0.6739 0.7315 0.1038
vn 0.5802 -0.3949 -0.7124
vn -0.1832 0.5493 -0.8153
vn 0.4655 -0.7490 0.4715
vn -0.7201 0.4127 0.5577
vn -0.6488 0.2357 0.7235
vn 0.6675 -0.7100 0.2243
vn 0.3641 -0.4881 0.7932
vn 0.5664 -0.6969 0.4399
vn 0.7321 -0.4461 -0.5148
vn -0.1031 -0.0332 0.9941
vn 0.7170 -0.6762 -0.1696
vn -0.7082 0.5094 -0.4888
vn -0.7786 0.4623 0.4244
vn -0.8026 0.3996 0.4428
vn -0.7877 0.4073 0.4621
vn -0.4518 0.3078 0.8374
vn -0.0665 -0.0608 0.9959
vn -0.6922 0.7054 0.1522
vn 0.8363 -0.5479 0.0218
vn 0.4322 -0.2046 -0.8782
vn -0.7557 0.4720 -0.4541
vn -0.0765 0.1837 -0.9800
vn 0.1940 -0.0439 -0.9800
vn 0.6478 -0.7284 0.2229
vn 0.7331 -0.4884 0.4734
vn -0.1210 -0.0795 0.9895
vn -0.2069 -0.0313 0.9779
vn -0.7171 0.6871 0.1170
vn -0.4595 0.8543 -0.2430
vn 0.2889 -0.9028 -0.3185
vn -0.3498 0.5569 -0.7533
vn -0.0049 -0.0110 -0.9999
vn 0.2289 -0.6638 -0.7121
vn 0.8083 0.5887 -0.0028
vn 0.1841 -0.6398 0.7462
vn 0.2775 0.1555 0.9480
vn 0.5762 -0.3534 -0.7370
vn 0.3634 0.5548 -0.7484
vn 0.9554 -0.0945 -0.2798
vn 0.2506 -0.8093 0.5313
vn 0.6893 0.6467 0.3266
vn 0.8673 0.4329 0.2456
vn 0.9551 -0.2734 -0.1142
s 1
f 1//1 2//1 3//1
f 10//2 19//3 11//4
f 14//5 15//6 20//7
f 19//3 21//8 11//4
f 17//9 18//10 23//11
f 26//12 13//13 27//14
f 12//15 27//14 13//13
f 28//16 12//17 16//18
f 24//19 25//20 29//21
f 30//22 31//23 32//24
f 21//8 19//3 35//25
f 28//16 16//18 36//26
f 35//25 37//27 21//8
f 36//26 16//18 38//28
f 26//12 27//14 39//29
f 33//30 40//31 34//32
f 41//33 42//34 40//35
f 31//23 43//36 32//24
f 45//37 46//38 44//39
f 47//40 36//26 38//28
f 40//35 42//34 48//41
f 49//42 37//27 35//25
f 50//43 51//44 52//45
f 47//40 38//28 55//46
f 54//47 53//48 56//49
f 56//50 48//41 42//34
f 55//46 57//51 58//52
f 58//52 59//53 55//46
f 60//54 56//49 53//48
f 47//40 55//46 60//54
f 62//55 48//41 56//50
f 63//56 51//44 50//43
f 51//44 63//56 64//57
f 56//49 65//58 61//59
f 66//60 59//53 67//61
f 66//60 60//54 55//46
f 60//54 66//60 56//49
f 66//60 65//58 56//49
f 55//46 59//53 66//60
f 48//62 68//63 63//56
f 48//41 62//55 69//64
f 70//65 69//64 62//55
f 62//55 80//66 70//65
f 71//67 72//67 73//67
f 74//68 75//68 76//68
f 66//60 77//69 65//58
f 68//63 78//70 63//56
f 66//60 81//71 77//69
f 63//56 78//70 64//57
f 64//57 78//70 84//72
f 64//57 84//72 85//73
f 66//60 83//74 81//71
f 83//74 86//75 87//76
f 70//65 80//66 84//72
f 80//66 79//77 88//78
f 84//72 80//66 88//78
f 81//71 83//74 87//76
f 85//73 84//72 89//79
f 81//71 87//76 90//80
f 82//81 88//78 79//77
f 91//82 82//81 81//71
f 91//82 81//71 90//80
f 84//72 88//78 89//79
f 89//79 88//78 92//83
f 87//76 86//75 89//84
f 93//85 87//76 89//84
f 94//86 92//83 88//78
f 95//87 89//79 92//83
f 94//86 88//78 96//88
f 82//81 97//89 88//78
f 96//88 95//87 94//86
f 91//82 97//89 82//81
f 96//88 98//90 95//87
f 97//89 98//91 88//78
f 99//92 91//82 90//80
f 93//93 100//94 90//95
f 89//84 101//96 93//85
f 95//87 98//90 89//79
f 98//90 102//97 89//79
f 103//98 101//96 89//84
f 97//89 104//99 98//91
f 97//89 91//82 105//100
f 106//101 91//82 99//92
f 108//102 109//103 91//82
f 98//91 104//99 105//104
f 110//105 98//91 105//104
f 91//82 109//103 105//100
f 98//90 111//106 102//97
f 105//104 111//107 110//105
f 101//96 111//107 107//108
f 103//98 111//107 101//96
f 107//108 111//107 114//109
f 105//104 113//110 111//107
f 108//102 112//111 114//109
f 114//109 115//112 108//102
f 113//110 105//104 115//112
f 115//112 109//103 108//102
f 113//110 115//112 116//113
f 114//109 111//107 118//114
f 117//115 119//116 111//107
f 119//116 118//114 111//107
f 116//113 115//112 120//117
f 120//117 115//112 121//118
f 121//118 115//112 114//109
f 121//118 114//109 118//114
f 120//117 122//119 116//113
f 111//107 113//110 122//120
f 111//107 122//120 117//115
f 123//121 122//119 120//117
f 121//118 118//114 124//122
f 125//123 118//114 119//116
f 123//121 124//122 122//119
f 121//118 124//122 123//121
l 8 22
l 8 9
l 6 7
l 4 5
