# Blender v2.78 (sub 0) OBJ File: 'exporter.blend'
# www.blender.org
o FJ3651.obj_grp1.2225
v -0.357586 -0.790765 5.535077
v -0.361390 -0.764517 5.545318
v -0.354558 -0.803721 5.522287
v -0.355743 -0.797379 5.525649
v -0.354558 -0.803721 5.522287
v -0.358079 -0.781198 5.534914
v -0.353449 -0.794699 5.530964
v -0.363868 -0.759044 5.547785
v -0.358310 -0.783105 5.538252
v -0.360911 -0.763150 5.547732
v -0.360734 -0.761920 5.544305
v -0.360898 -0.763164 5.547685
v -0.359381 -0.780987 5.535838
v -0.358200 -0.782989 5.537779
v -0.356890 -0.775973 5.540380
v -0.358560 -0.778108 5.537629
v -0.357997 -0.776004 5.540515
v -0.364379 -0.757670 5.548985
v -0.361176 -0.729212 5.555954
v -0.360845 -0.728148 5.556289
v -0.359098 -0.761892 5.546464
v -0.363073 -0.755685 5.548891
v -0.362785 -0.730076 5.557499
v -0.362330 -0.736583 5.557278
v -0.360840 -0.740662 5.556182
v -0.360840 -0.740662 5.556182
v -0.359311 -0.739780 5.554163
v -0.357488 -0.726082 5.559833
v -0.363492 -0.732222 5.556153
v -0.357578 -0.715249 5.563228
v -0.358200 -0.724499 5.561722
v -0.357106 -0.723094 5.560411
v -0.355255 -0.718207 5.561459
v -0.356791 -0.725043 5.560314
v -0.359311 -0.739780 5.554163
v -0.358200 -0.724499 5.561722
v -0.352600 -0.710105 5.561722
v -0.343489 -0.698864 5.569789
v -0.352600 -0.710105 5.561722
v -0.343992 -0.831463 5.497758
v -0.345865 -0.832776 5.497004
v -0.343418 -0.832266 5.497728
v -0.345669 -0.830728 5.497125
v -0.344285 -0.832258 5.496588
v -0.346065 -0.831010 5.497054
v -0.345249 -0.825717 5.502865
v -0.347204 -0.820438 5.507828
v -0.347204 -0.820438 5.507828
v -0.353649 -0.790184 5.531812
v -0.352566 -0.806537 5.521067
v -0.352566 -0.806537 5.521067
v -0.352801 -0.800904 5.522287
v -0.349550 -0.814123 5.511166
v -0.355314 -0.799406 5.524352
v -0.352389 -0.785035 5.533588
v -0.352527 -0.800854 5.522171
v -0.352566 -0.806537 5.521067
v -0.347055 -0.702713 5.567184
v -0.339146 -0.692062 5.568213
v -0.342567 -0.696970 5.565807
v -0.332520 -0.682059 5.571230
v -0.344999 -0.831926 5.496691
v -0.345524 -0.830593 5.496936
v -0.344134 -0.831811 5.497417
v -0.345524 -0.825673 5.502570
v -0.344694 -0.832095 5.496841
v -0.344116 -0.831888 5.498157
v -0.317251 -0.668246 5.572463
v -0.337796 -0.691768 5.569866
v -0.331733 -0.686042 5.570158
v -0.317333 -0.670385 5.577739
v -0.319944 -0.672690 5.576884
v -0.321038 -0.669403 5.574360
v -0.276917 -0.626234 5.578878
v -0.336431 -0.689923 5.569540
v -0.316523 -0.667459 5.572776
v -0.281215 -0.626668 5.583664
v -0.266437 -0.619467 5.582429
v -0.277509 -0.630306 5.582425
v -0.277509 -0.630306 5.582425
v -0.257818 -0.609777 5.585715
v -0.258017 -0.609806 5.585870
v -0.237544 -0.588826 5.578759
v -0.256183 -0.603871 5.584196
v -0.249470 -0.603955 5.579344
v -0.248230 -0.598073 5.584021
v -0.245693 -0.601204 5.578810
v -0.229194 -0.590328 5.583687
v -0.229419 -0.590711 5.582379
v -0.224455 -0.586940 5.574286
v -0.238039 -0.590353 5.581445
v -0.233488 -0.594917 5.578842
v -0.197544 -0.581477 5.572713
v -0.222995 -0.590209 5.578623
v -0.205531 -0.577813 5.575790
v -0.203327 -0.581347 5.572631
v -0.215789 -0.580656 5.578482
v -0.191129 -0.575274 5.572897
v -0.203162 -0.581308 5.572614
v -0.200350 -0.584061 5.576103
v -0.202875 -0.584385 5.576495
v -0.190377 -0.578979 5.578307
v -0.202950 -0.577961 5.578525
v -0.195343 -0.581379 5.572237
v -0.191328 -0.579505 5.571064
v -0.189963 -0.575289 5.572768
v -0.170096 -0.579814 5.570027
v -0.173729 -0.575666 5.567552
v -0.170973 -0.575781 5.573465
v -0.173570 -0.575466 5.567241
vn -0.9930 -0.1082 -0.0484
vn -0.9966 0.0176 -0.0810
vn -0.8581 -0.4660 0.2157
vn -0.8394 -0.4726 0.2686
vn -0.6935 0.2863 -0.6612
vn -0.8830 -0.3031 0.3583
vn -0.4723 0.3155 -0.8230
vn -0.3100 -0.3580 0.8808
vn -0.4429 -0.5659 0.6954
vn -0.4564 -0.3450 0.8201
vn -0.5621 0.4329 -0.7047
vn 0.6385 0.1866 -0.7466
vn 0.9206 0.1547 -0.3586
vn 0.6641 0.5514 -0.5050
vn 0.7193 -0.4213 0.5524
vn 0.7194 -0.2886 0.6318
vn 0.6200 -0.3552 0.6996
vn -0.6522 -0.3072 0.6930
vn -0.9570 -0.1665 0.2375
vn -0.7631 -0.0145 0.6461
vn -0.1687 -0.3394 0.9254
vn 0.4301 -0.3311 0.8399
vn 0.8621 0.1949 -0.4678
vn 0.7719 -0.2944 0.5635
vn -0.5419 0.3376 -0.7697
vn -0.8577 0.2278 0.4610
vn -0.6577 0.1406 0.7400
vn 0.7096 -0.1157 -0.6951
vn 0.9440 -0.2639 0.1982
vn 0.9507 -0.2325 0.2050
vn 0.9474 -0.2469 0.2038
vn 0.7064 -0.4753 0.5245
vn -0.6864 0.6169 -0.3851
vn -0.7293 0.4527 0.5129
vn 0.7835 0.4960 -0.3742
vn 0.5238 0.6719 -0.5236
vn 0.4574 0.6470 -0.6101
vn 0.2970 -0.6713 0.6791
vn 0.1370 -0.6463 0.7506
vn 0.6220 -0.4009 0.6726
vn 0.6268 -0.4576 0.6307
vn 0.6776 -0.3928 0.6217
vn -0.1196 -0.7320 0.6707
vn -0.1814 -0.7126 0.6777
vn -0.2171 -0.7051 0.6751
vn 0.7897 0.4947 -0.3628
vn -0.8667 0.2194 -0.4480
vn -0.7820 -0.0491 -0.6213
vn -0.8827 0.0785 -0.4633
vn 0.5689 -0.3810 0.7288
vn 0.5200 -0.2796 0.8071
vn 0.5359 -0.4460 0.7168
vn -0.4425 0.3590 -0.8218
vn -0.6495 0.2947 -0.7010
vn 0.1894 -0.4401 0.8777
vn 0.2119 0.1734 -0.9618
vn 0.7153 -0.3255 -0.6184
vn -0.7276 0.5664 0.3871
vn -0.7393 0.6722 -0.0385
vn -0.5341 0.5682 -0.6260
vn 0.7470 -0.5769 -0.3305
vn -0.5109 0.4638 0.7238
vn -0.4478 0.6221 -0.6423
vn 0.6288 -0.6912 -0.3561
vn -0.6155 0.5606 0.5539
vn 0.7107 -0.7018 0.0475
vn 0.7281 -0.6849 -0.0266
vn 0.6723 -0.7020 0.2351
vn 0.7449 -0.6672 0.0009
vn 0.6433 -0.7571 -0.1139
vn 0.2564 -0.2107 -0.9433
vn 0.2557 -0.1047 -0.9611
vn 0.6263 -0.6707 0.3973
vn 0.7112 -0.7030 0.0004
vn 0.5045 -0.6582 0.5588
vn -0.2590 0.3636 0.8948
vn -0.5522 0.7760 -0.3048
vn -0.5056 0.6876 0.5211
vn 0.0823 -0.1617 -0.9834
vn -0.5083 0.7810 0.3628
vn 0.1896 -0.4309 -0.8823
vn 0.3672 -0.7970 0.4796
vn 0.4892 -0.8624 -0.1300
vn -0.1763 0.1540 -0.9722
vn -0.1162 0.6353 0.7635
vn -0.3766 0.6779 0.6314
vn 0.0238 -0.8962 -0.4431
vn 0.3246 -0.8810 0.3442
vn -0.3384 0.9080 -0.2471
vn -0.1087 0.0025 -0.9941
vn -0.1243 0.6812 0.7215
vn -0.1664 0.5735 0.8021
vn -0.1448 0.3508 -0.9252
vn -0.1975 0.4328 -0.8796
vn 0.2849 -0.0656 0.9563
vn 0.1455 -0.8682 -0.4744
vn 0.3134 -0.8403 0.4423
vn -0.0492 -0.4466 -0.8934
vn -0.1630 -0.0224 -0.9864
vn -0.1173 0.9524 -0.2814
vn -0.0565 -0.7949 -0.6042
vn -0.0808 -0.5263 -0.8465
vn 0.6777 0.3781 0.6307
vn 0.8685 -0.1631 0.4681
vn -0.1731 -0.6135 -0.7705
vn 0.3625 0.8301 -0.4237
s 1
f 1//1 2//2 3//3
f 7//4 8//5 6//6
f 6//6 8//5 11//7
f 18//8 9//9 10//10
f 19//11 11//7 8//5
f 20//12 17//13 16//14
f 13//15 21//16 12//17
f 10//10 24//18 18//8
f 22//19 24//18 23//20
f 25//21 24//18 10//10
f 26//22 12//17 21//16
f 20//12 27//23 17//13
f 21//16 28//24 26//22
f 19//11 8//5 29//25
f 19//11 29//25 30//26
f 31//27 24//18 25//21
f 24//18 31//27 23//20
f 27//23 20//12 32//28
f 33//29 34//30 35//31
f 26//22 28//24 36//32
f 19//11 30//26 37//33
f 23//20 31//27 38//34
f 38//34 30//26 23//20
f 47//35 44//36 43//37
f 40//38 1//1 41//39
f 48//40 49//41 50//42
f 46//43 51//44 45//45
f 47//35 43//37 52//46
f 1//1 3//3 41//39
f 4//47 42//48 5//49
f 57//50 15//51 14//52
f 17//13 53//53 16//14
f 16//14 53//53 54//54
f 28//24 58//55 36//32
f 58//55 28//24 32//28
f 20//12 39//56 59//57
f 30//26 60//58 37//33
f 59//57 32//28 20//12
f 38//34 61//59 30//26
f 60//58 30//26 68//60
f 68//60 30//26 61//59
f 69//61 58//55 32//28
f 69//61 32//28 59//57
f 72//62 61//59 38//34
f 68//60 61//59 73//63
f 73//63 74//64 68//60
f 61//59 72//62 77//65
f 69//61 59//57 78//66
f 70//67 71//68 58//69
f 78//70 75//71 76//72
f 70//67 79//73 71//68
f 80//74 69//61 78//66
f 79//73 81//75 71//68
f 74//64 78//70 76//72
f 82//76 77//65 72//62
f 73//63 83//77 74//64
f 73//63 77//65 84//78
f 79//73 78//70 81//75
f 84//78 83//77 73//63
f 78//70 74//64 85//79
f 84//78 77//65 82//76
f 86//80 83//77 84//78
f 85//79 74//64 83//77
f 85//79 87//81 78//70
f 81//75 78//70 89//82
f 78//70 87//81 92//83
f 90//84 85//79 83//77
f 84//78 88//85 91//86
f 82//76 88//85 84//78
f 91//86 83//77 86//80
f 87//81 90//84 92//83
f 92//83 89//82 78//70
f 92//83 90//84 93//87
f 94//88 89//82 92//83
f 90//84 83//77 95//89
f 93//87 90//84 96//90
f 95//89 83//77 103//91
f 97//92 83//77 91//86
f 98//93 96//90 90//84
f 95//89 98//93 90//84
f 99//94 96//90 98//93
f 88//85 102//95 91//86
f 93//87 100//96 92//83
f 101//97 89//82 94//88
f 89//82 101//97 102//95
f 91//86 103//91 97//92
f 102//95 103//91 91//86
f 104//98 93//87 96//90
f 104//98 96//90 105//99
f 105//99 99//94 98//93
f 106//100 95//89 103//91
f 93//87 107//101 100//96
f 107//102 104//98 105//99
f 109//103 101//97 107//104
f 109//103 103//91 102//95
f 108//105 107//102 105//99
f 105//99 98//93 106//100
f 105//99 106//100 108//105
f 109//103 106//100 103//91
f 109//103 102//95 101//97
f 110//106 108//105 106//100
f 109//103 110//106 106//100
f 107//104 110//106 109//103
l 64 65
l 62 63
l 66 67
l 55 56
