# Blender v2.78 (sub 0) OBJ File: 'exporter.blend'
# www.blender.org
o FJ3654.obj_grp1.2228
v -0.549544 -0.442650 5.210809
v -0.546924 -0.446881 5.222301
v -0.550233 -0.442327 5.209869
v -0.547830 -0.445768 5.223192
v -0.552557 -0.433172 5.181990
v -0.555262 -0.428059 5.170056
v -0.549924 -0.437312 5.195635
v -0.552557 -0.433634 5.181457
v -0.552557 -0.430562 5.181457
v -0.549741 -0.440357 5.201128
v -0.547923 -0.441020 5.211072
v -0.548542 -0.446885 5.229674
v -0.549759 -0.439213 5.205342
v -0.548762 -0.438977 5.201991
v -0.551579 -0.435571 5.181690
v -0.551149 -0.436131 5.197560
v -0.549727 -0.438855 5.206055
v -0.549695 -0.439007 5.205976
v -0.549533 -0.438067 5.198865
v -0.552557 -0.430562 5.181457
v -0.548849 -0.442500 5.213307
v -0.550482 -0.440760 5.205435
v -0.555783 -0.420639 5.142023
v -0.554130 -0.423133 5.149065
v -0.555374 -0.420540 5.147656
v -0.553297 -0.423066 5.140937
v -0.554130 -0.423133 5.149065
v -0.555726 -0.420447 5.142326
v -0.553109 -0.424715 5.161778
v -0.552046 -0.423164 5.143010
v -0.554477 -0.423019 5.151928
v -0.555297 -0.424509 5.151102
v -0.555807 -0.425862 5.161209
v -0.553874 -0.422498 5.148961
v -0.555733 -0.424779 5.156781
v -0.554715 -0.423591 5.156083
v -0.554860 -0.424643 5.157917
v -0.555262 -0.420476 5.153730
v -0.555078 -0.426397 5.163429
v -0.554130 -0.423133 5.149065
v -0.555374 -0.423512 5.151881
v -0.555374 -0.420540 5.147656
v -0.555374 -0.423512 5.151881
v -0.554547 -0.420804 5.148840
v -0.550780 -0.423094 5.150172
v -0.554378 -0.424912 5.162755
v -0.555744 -0.425433 5.164209
v -0.552021 -0.426372 5.165027
v -0.554233 -0.426322 5.160293
v -0.553448 -0.426889 5.163334
v -0.553839 -0.425162 5.166138
v -0.553966 -0.420727 5.149299
v -0.552557 -0.433634 5.181457
v -0.552557 -0.430562 5.181457
v -0.552280 -0.427681 5.168782
v -0.553966 -0.419550 5.075828
v -0.555355 -0.417822 5.096954
v -0.554684 -0.417822 5.075828
v -0.553966 -0.419550 5.075828
v -0.553285 -0.417822 5.108221
v -0.555355 -0.417822 5.096954
v -0.553125 -0.417822 5.075828
v -0.553285 -0.417822 5.108221
v -0.553966 -0.419550 5.075828
v -0.553931 -0.418072 5.075828
v -0.553966 -0.419550 5.075828
v -0.553891 -0.416492 5.114371
v -0.554139 -0.418842 5.076594
v -0.553199 -0.417953 5.123986
v -0.553125 -0.417822 5.075828
v -0.552334 -0.415598 5.125694
v -0.553891 -0.416492 5.114371
v -0.553905 -0.417822 5.075844
v -0.555374 -0.417679 5.132164
v -0.555034 -0.418195 5.119927
v -0.555374 -0.417679 5.132164
v -0.554396 -0.414644 5.107820
v -0.552891 -0.418452 5.109640
v -0.552098 -0.419774 5.129928
v -0.553693 -0.421207 5.146880
v -0.553891 -0.416492 5.114371
v -0.555803 -0.420191 5.147084
v -0.553994 -0.420273 5.149385
v -0.539887 -0.467279 5.333448
v -0.542842 -0.467458 5.359810
v -0.537247 -0.465047 5.312869
v -0.540956 -0.469536 5.344906
v -0.538438 -0.466224 5.323692
v -0.538544 -0.467087 5.344783
v -0.541100 -0.469457 5.377395
v -0.539219 -0.468072 5.380036
v -0.540032 -0.467331 5.346655
v -0.541271 -0.468429 5.374842
v -0.538961 -0.466868 5.356902
v -0.541651 -0.462215 5.346818
v -0.535743 -0.467879 5.394426
v -0.538544 -0.467087 5.344783
v -0.540087 -0.466900 5.369594
v -0.539761 -0.465730 5.399715
v -0.539715 -0.467451 5.391732
v -0.531614 -0.463371 5.421001
v -0.538367 -0.468285 5.398363
v -0.535713 -0.467576 5.403419
v -0.535713 -0.467576 5.403419
v -0.537074 -0.465644 5.411666
v -0.539506 -0.454496 5.257250
v -0.539980 -0.454851 5.255320
v -0.538639 -0.455722 5.258403
v -0.539429 -0.453661 5.258006
v -0.538388 -0.456874 5.273333
v -0.540874 -0.453474 5.258327
v -0.541084 -0.458417 5.285464
v -0.537128 -0.457376 5.269464
v -0.537067 -0.457252 5.269503
v -0.538301 -0.459579 5.291105
v -0.537528 -0.458217 5.300298
v -0.538473 -0.454232 5.270185
v -0.538696 -0.452297 5.265605
v -0.536800 -0.457835 5.292595
v -0.535863 -0.455946 5.279951
v -0.538750 -0.461482 5.303988
v -0.541290 -0.465564 5.380040
v -0.536614 -0.465708 5.394124
v -0.541290 -0.465564 5.380040
v -0.536614 -0.465708 5.394124
v -0.540924 -0.465490 5.368961
v -0.549975 -0.443173 5.211033
v -0.547008 -0.443165 5.213795
v -0.546924 -0.446881 5.222301
v -0.549741 -0.440357 5.201128
v -0.546907 -0.446907 5.222324
v -0.547303 -0.442663 5.213100
v -0.546924 -0.444109 5.223709
v -0.543596 -0.449606 5.235454
v -0.545651 -0.446252 5.222846
v -0.545095 -0.445387 5.226402
v -0.546145 -0.445961 5.226355
v -0.542855 -0.446629 5.229553
v -0.543248 -0.449415 5.241766
v -0.545033 -0.448819 5.236908
v -0.543963 -0.448259 5.235122
v -0.542837 -0.450186 5.236557
v -0.542994 -0.451624 5.244834
v -0.543791 -0.448177 5.237070
v -0.541125 -0.451682 5.246755
v -0.543077 -0.448355 5.237777
v -0.543135 -0.448281 5.237745
v -0.543146 -0.447160 5.231313
v -0.544255 -0.446349 5.236766
v -0.542894 -0.446923 5.239577
v -0.539676 -0.450550 5.242888
v -0.542293 -0.451338 5.236746
v -0.542699 -0.450336 5.236384
v -0.541734 -0.449824 5.240993
v -0.540406 -0.449978 5.241056
v -0.540183 -0.453269 5.247525
v -0.540340 -0.455085 5.252162
v -0.539019 -0.452606 5.260139
v -0.538419 -0.452638 5.259641
v -0.539839 -0.451187 5.249353
v -0.539403 -0.451731 5.248984
v -0.535360 -0.453549 5.262480
v -0.540286 -0.452183 5.255031
v -0.539824 -0.450522 5.251906
v -0.539844 -0.450531 5.251876
v -0.538515 -0.452985 5.265332
v -0.538454 -0.453278 5.254944
v -0.537011 -0.458134 5.278797
v -0.536089 -0.455222 5.266266
v -0.534555 -0.461753 5.308934
v -0.534633 -0.458666 5.289904
v -0.536355 -0.463101 5.313517
v -0.535722 -0.460690 5.289904
v -0.537074 -0.464183 5.310967
v -0.538558 -0.465291 5.345065
v -0.537065 -0.459799 5.305396
v -0.536540 -0.465430 5.395527
v -0.541290 -0.465564 5.380040
v -0.539652 -0.465708 5.399757
v -0.530244 -0.460442 5.429471
v -0.541290 -0.465564 5.380040
v -0.525686 -0.461980 5.442775
v -0.534497 -0.464945 5.408206
v -0.531248 -0.461247 5.425343
v -0.534252 -0.466493 5.409956
v -0.521252 -0.457607 5.464061
v -0.535010 -0.465116 5.411797
v -0.518441 -0.455416 5.463891
v -0.520997 -0.459734 5.458992
v -0.527122 -0.462683 5.442901
v -0.524390 -0.456960 5.451868
v -0.514855 -0.454262 5.481601
v -0.513529 -0.452105 5.481033
v -0.512785 -0.453793 5.480109
v -0.514679 -0.456357 5.478614
v -0.510500 -0.453868 5.480385
v -0.527122 -0.462683 5.442901
v -0.513363 -0.455966 5.481008
v -0.517642 -0.455844 5.481925
v -0.513686 -0.454377 5.482662
v -0.513172 -0.453437 5.482556
v -0.513587 -0.453535 5.483219
v -0.513122 -0.453736 5.483298
v -0.514531 -0.453736 5.483204
v -0.513936 -0.450909 5.481830
v -0.513838 -0.452178 5.483767
v -0.512057 -0.453149 5.479613
v -0.512539 -0.452582 5.481644
v -0.513122 -0.453032 5.483275
v -0.511723 -0.453172 5.481444
vn 0.9832 0.0000 -0.1826
vn 0.9967 -0.0000 -0.0810
vn -0.8386 -0.5441 -0.0267
vn -0.9697 0.1858 0.1584
vn -0.9877 -0.0372 0.1522
vn -0.4924 -0.8213 -0.2881
vn -0.3550 0.8648 0.3552
vn -0.0683 0.9546 0.2898
vn -0.9410 0.2765 0.1951
vn -0.9202 0.3255 0.2176
vn 0.7581 0.6359 0.1448
vn 0.8409 0.5370 0.0670
vn 0.8324 0.5467 0.0912
vn 0.6536 -0.7385 -0.1656
vn 0.6936 -0.7169 -0.0708
vn 0.6754 -0.7164 -0.1750
vn -0.9141 -0.3987 0.0733
vn -0.7202 -0.6694 -0.1824
vn -0.7523 -0.6536 -0.0829
vn -0.7410 -0.6482 -0.1755
vn -0.7279 -0.5609 -0.3945
vn 0.4371 -0.8917 -0.1179
vn -0.1640 -0.9657 -0.2015
vn -0.9629 0.2612 0.0684
vn 0.1735 -0.9820 -0.0744
vn 0.2031 -0.9766 -0.0700
vn 0.1919 -0.9812 0.0229
vn 0.9718 0.2357 0.0093
vn 0.9786 0.2051 -0.0146
vn 0.9862 0.1618 0.0344
vn 0.6211 -0.7241 -0.2998
vn 0.6251 -0.7270 -0.2841
vn 0.6403 -0.6944 -0.3284
vn 0.9746 0.2239 -0.0025
vn 0.9998 0.0000 0.0218
vn -0.9230 -0.3837 -0.0293
vn -0.3109 -0.9487 0.0571
vn 0.8993 -0.4374 0.0044
vn 0.9342 -0.3487 -0.0747
vn 0.9383 -0.3458 0.0005
vn 0.9574 -0.2880 -0.0231
vn -0.7843 0.6192 -0.0375
vn -0.8261 0.5571 -0.0854
vn -0.8196 0.5721 -0.0302
vn -0.8286 -0.5467 -0.1203
vn -0.8926 -0.4504 0.0192
vn -0.8584 -0.5066 0.0806
vn -0.9143 -0.4046 0.0191
vn -0.0910 0.9901 0.1067
vn -0.0906 0.9902 0.1061
vn -0.1016 0.9909 0.0888
vn 0.9465 -0.3220 -0.0237
vn 0.8134 -0.5815 -0.0140
vn 0.8565 -0.5087 0.0880
vn 0.1724 -0.9839 -0.0474
vn -0.9332 -0.3507 -0.0785
vn -0.9527 -0.2980 0.0596
vn -0.5934 -0.8006 -0.0836
vn 0.8634 -0.5042 0.0145
vn 0.2837 -0.9581 -0.0385
vn 0.0467 -0.9974 0.0552
vn -0.8265 -0.5331 0.1808
vn -0.3500 -0.9367 0.0118
vn 0.3072 -0.9371 -0.1656
vn 0.1462 -0.9843 0.0986
vn 0.6621 -0.7494 -0.0040
vn -0.3364 -0.9307 0.1436
vn -0.6989 -0.7152 -0.0014
vn -0.7002 -0.6954 -0.1616
vn -0.8031 -0.5923 0.0645
vn -0.4864 0.8499 0.2028
vn -0.5744 0.8168 0.0537
vn -0.5599 0.8252 0.0745
vn 0.6279 -0.7390 -0.2443
vn 0.7746 -0.5997 -0.2009
vn -0.2125 -0.9639 0.1604
vn -0.6459 -0.7563 -0.1038
vn -0.9933 0.1133 0.0224
vn -0.9145 0.4007 0.0557
vn -0.9814 0.1837 0.0551
vn 0.3720 0.8760 0.3069
vn 0.3554 0.9202 0.1639
vn 0.2607 0.9457 0.1943
vn -0.6301 -0.7624 -0.1477
vn -0.8426 -0.5294 -0.0990
vn -0.9194 0.3008 0.2534
vn 0.9967 -0.0557 0.0597
vn 0.9947 -0.0593 0.0835
vn 0.9980 -0.0570 0.0287
vn -0.9971 -0.0119 0.0757
vn 0.9220 0.3808 -0.0700
vn 0.8773 0.4558 -0.1504
vn 0.7666 0.6286 0.1311
vn 0.0095 0.9999 0.0070
vn 0.2962 -0.8855 -0.3579
vn 0.4083 -0.8739 -0.2637
vn 0.3559 -0.8548 -0.3777
vn 0.2446 -0.9341 -0.2599
vn -0.9516 0.1472 0.2698
vn -0.8323 -0.5529 0.0392
vn -0.9773 -0.1447 0.1548
vn -0.4030 0.8650 0.2990
vn -0.9460 0.3137 0.0820
vn -0.9690 0.2389 0.0635
vn -0.8232 -0.5611 -0.0865
vn -0.7613 -0.6304 -0.1516
vn -0.4003 -0.9009 -0.1678
vn -0.5358 -0.8353 -0.1232
vn -0.3691 0.8934 0.2563
vn 0.0686 0.9867 0.1473
vn -0.0976 0.9466 0.3072
vn 0.3320 0.9085 0.2538
vn 0.3099 -0.9458 -0.0970
vn 0.3085 -0.9481 -0.0778
vn 0.7027 -0.6359 -0.3190
vn 0.6289 -0.6322 -0.4527
vn 0.9686 -0.1350 -0.2089
vn 0.9720 -0.1679 -0.1642
vn 0.9765 -0.1802 -0.1182
vn 0.3751 0.9242 0.0722
vn 0.0097 -0.9356 -0.3529
vn 0.4437 -0.8659 -0.2309
vn 0.8304 0.5524 0.0727
vn -0.3251 0.9377 0.1230
vn 0.4475 -0.8906 -0.0812
vn 0.5751 -0.8130 -0.0909
vn 0.4840 -0.8671 -0.1179
vn 0.4738 -0.8484 -0.2363
vn 0.5580 -0.8212 -0.1192
vn 0.3461 0.9157 0.2044
vn 0.9448 0.3197 -0.0721
vn 0.9211 0.3892 -0.0090
vn -0.9973 0.0185 0.0710
vn 0.8927 0.4499 -0.0269
vn 0.8880 0.4507 0.0917
vn 0.7132 0.6973 0.0719
vn -0.0806 0.9801 0.1811
vn -0.4051 0.8665 0.2918
vn 0.9578 0.1662 -0.2347
vn 0.5051 0.8602 0.0703
vn 0.9218 -0.3826 -0.0628
vn 0.8780 -0.4733 -0.0709
vn 0.8753 -0.4775 -0.0761
vn 0.8349 -0.5441 -0.0834
vn 0.8822 -0.4663 -0.0664
vn 0.5183 0.8437 0.1400
vn 0.7247 0.6785 0.1198
vn -0.5298 0.8471 -0.0409
vn -0.4292 0.8970 -0.1062
vn -0.6189 0.7834 0.0571
vn 0.8549 -0.4848 -0.1849
vn -0.2423 -0.9636 0.1131
vn -0.8865 0.4531 0.0941
vn -0.8398 0.5141 0.1745
vn -0.8123 0.5377 0.2257
vn -0.9728 -0.0013 0.2318
vn -0.9168 0.2400 0.3191
vn -0.9702 0.0729 0.2309
vn -0.3623 0.9306 0.0513
vn 0.3467 0.8862 -0.3074
vn 0.3466 0.9015 -0.2590
vn -0.9216 0.2736 0.2754
vn 0.7617 -0.6111 0.2156
vn 0.8265 -0.5466 -0.1347
vn 0.5699 0.7872 -0.2356
vn 0.0085 -0.9853 0.1706
vn 0.0700 -0.8287 0.5553
vn 0.0376 -0.9142 0.4036
vn -0.9100 0.2786 0.3071
vn 0.1428 -0.5262 0.8383
vn 0.6743 -0.6977 0.2420
vn 0.0421 0.9860 -0.1614
vn -0.3241 0.9432 0.0730
s 1
f 7//1 8//2 9//2
f 5//3 10//4 11//5
f 6//6 5//3 11//5
f 12//7 13//8 39//9
f 38//10 39//9 13//8
f 18//11 19//12 20//13
f 21//14 15//15 14//16
f 23//17 24//17 25//17
f 26//18 27//19 28//20
f 40//21 41//21 42//21
f 35//22 34//23 46//24
f 29//25 47//26 30//27
f 34//23 5//3 6//6
f 34//23 6//6 46//24
f 51//28 50//29 52//30
f 53//31 49//32 48//33
f 50//29 51//28 54//34
f 8//2 55//35 9//2
f 56//36 57//36 58//36
f 59//37 60//37 61//37
f 62//38 63//38 64//38
f 69//39 70//40 71//41
f 67//42 68//43 74//44
f 77//45 26//18 28//20
f 75//46 80//47 76//48
f 81//49 82//50 83//51
f 31//52 69//39 71//41
f 88//53 172//54 89//55
f 84//56 90//57 85//58
f 87//59 88//53 93//60
f 88//53 89//55 93//60
f 93//60 89//55 96//61
f 85//58 90//57 99//62
f 99//62 90//57 102//63
f 93//64 103//65 102//63
f 93//60 96//61 104//66
f 99//62 102//63 105//67
f 106//68 110//69 139//70
f 111//71 112//72 166//73
f 169//74 114//75 109//76
f 106//68 113//77 110//69
f 115//78 116//79 117//80
f 118//81 119//82 120//83
f 113//77 86//84 121//85
f 86//84 84//56 121//85
f 113//77 121//85 110//69
f 84//56 85//58 121//85
f 115//78 92//86 116//79
f 97//87 172//88 98//89
f 85//58 99//62 122//90
f 123//91 94//92 95//93
f 124//94 125//94 126//94
f 127//95 128//96 129//97
f 128//96 127//95 130//98
f 2//99 134//100 1//101
f 1//101 134//100 139//70
f 140//102 136//103 135//104
f 141//105 142//106 143//107
f 134//100 145//108 139//70
f 136//103 140//102 146//109
f 138//110 137//111 147//112
f 148//113 144//114 131//115
f 131//115 132//116 148//113
f 153//117 148//118 154//119
f 147//112 155//120 138//110
f 143//107 142//106 156//121
f 156//121 157//122 143//107
f 155//120 147//112 158//123
f 146//109 140//102 159//124
f 140//102 111//71 159//124
f 151//125 160//126 152//127
f 162//128 157//122 156//121
f 163//129 152//127 160//126
f 164//130 161//131 155//132
f 155//120 158//123 165//133
f 145//108 106//68 139//70
f 111//71 166//73 159//124
f 167//134 161//131 164//130
f 109//76 157//122 162//128
f 109//76 162//128 169//74
f 158//123 167//134 164//130
f 168//135 167//134 158//123
f 158//123 164//130 165//133
f 18//11 132//136 19//12
f 137//111 138//110 22//137
f 13//8 12//7 133//138
f 101//139 104//66 96//61
f 169//74 162//128 170//140
f 169//74 172//54 114//75
f 171//141 173//142 169//143
f 114//75 172//54 174//144
f 172//145 173//142 171//141
f 88//53 174//144 172//54
f 175//146 170//140 162//128
f 95//93 94//92 176//147
f 179//148 180//149 181//150
f 101//139 182//151 104//66
f 102//63 189//152 105//67
f 187//153 190//154 188//155
f 102//63 103//65 189//152
f 185//156 186//157 191//158
f 179//148 192//159 180//149
f 183//160 184//161 180//149
f 191//158 186//157 193//162
f 194//163 195//164 182//151
f 182//151 101//139 194//163
f 183//160 180//149 196//165
f 197//166 198//167 199//168
f 186//157 200//169 193//162
f 198//167 201//170 199//168
f 202//171 195//164 194//163
f 207//172 196//165 180//149
f 192//159 207//172 180//149
f 210//173 207//172 192//159
l 149 150
l 43 44
l 65 66
l 36 37
l 78 79
l 91 92
l 100 101
l 36 45
l 205 206
l 3 4
l 177 178
l 107 108
l 16 17
l 72 73
l 32 33
l 203 204
l 208 209
