# Blender v2.78 (sub 0) OBJ File: 'exporter.blend'
# www.blender.org
o FJ3656.obj_grp1.2230
v -0.081784 -0.121106 3.988694
v -0.086642 -0.116847 3.990011
v -0.080532 -0.121835 4.018273
v -0.083169 -0.113251 3.989984
v -0.074644 -0.149447 4.042518
v -0.075103 -0.155904 4.057147
v -0.065343 -0.193187 4.075500
v -0.074387 -0.136942 4.042787
v -0.083135 -0.132863 4.031555
v -0.082150 -0.130916 4.015207
v -0.071801 -0.136891 4.035285
v -0.074459 -0.130375 4.026120
v -0.072048 -0.137055 4.035760
v -0.078530 -0.115262 3.990320
v -0.061470 -0.213479 4.086168
v -0.057673 -0.258854 4.100535
v -0.065310 -0.201821 4.079436
v -0.064508 -0.201350 4.079915
v -0.062291 -0.218717 4.088891
v -0.061586 -0.174503 4.072168
v -0.058012 -0.202015 4.085319
v -0.066840 -0.172561 4.060609
v -0.057722 -0.202898 4.076924
v -0.061229 -0.176919 4.065644
v -0.061800 -0.174981 4.064498
v -0.054817 -0.381550 4.116285
v -0.051150 -0.400876 4.125703
v -0.057688 -0.344564 4.109463
v -0.048114 -0.398967 4.116933
v -0.053770 -0.357532 4.108452
v -0.059370 -0.259497 4.096192
v -0.059223 -0.237510 4.089298
v -0.059370 -0.259497 4.096192
v -0.051112 -0.402044 4.126078
v -0.047768 -0.373140 4.117218
v -0.053433 -0.240754 4.097675
v -0.052109 -0.270556 4.094584
v -0.052123 -0.240835 4.089957
v -0.050853 -0.230353 4.092009
v -0.053033 -0.241089 4.090257
v -0.057633 -0.238975 4.088079
v -0.057374 -0.204049 4.086490
v -0.057633 -0.238975 4.088079
v -0.056744 -0.195470 4.076159
v -0.043352 -0.432799 4.130901
v -0.030112 -0.460599 4.144947
v -0.038026 -0.430967 4.130153
v -0.047255 -0.424525 4.134104
v -0.038331 -0.447694 4.139485
v -0.032025 -0.461219 4.150256
v -0.040695 -0.430261 4.139081
v -0.046670 -0.424053 4.133669
v -0.046087 -0.389795 4.124392
v -0.040695 -0.430261 4.139081
v -0.039435 -0.423942 4.135026
v -0.045387 -0.385899 4.118125
v -0.038026 -0.430967 4.130153
v -0.039435 -0.423942 4.135026
v -0.048710 -0.360337 4.116358
v -0.047919 -0.353311 4.114768
v -0.030012 -0.460199 4.145283
v 0.008901 -0.514243 4.190012
v -0.026358 -0.457023 4.143675
v -0.038331 -0.447694 4.139485
v -0.022806 -0.470468 4.161025
v -0.022806 -0.470468 4.161025
v -0.021220 -0.464827 4.158870
v -0.033781 -0.452093 4.149109
v -0.033781 -0.452093 4.149109
v -0.033781 -0.452093 4.149109
v -0.026242 -0.452093 4.146293
v -0.021220 -0.464827 4.158870
v -0.026242 -0.452093 4.146293
v -0.004554 -0.496260 4.180153
v -0.013430 -0.476853 4.168904
v -0.010885 -0.476223 4.167794
v -0.004162 -0.485265 4.168879
v 0.002094 -0.503112 4.191267
v -0.006398 -0.494669 4.178235
v 0.011363 -0.515100 4.195621
v -0.010885 -0.476223 4.167794
v -0.004162 -0.485265 4.168879
v -0.026242 -0.452093 4.146293
v 0.006346 -0.496439 4.185071
v 0.017834 -0.511720 4.200996
v 0.006415 -0.496478 4.185160
v 0.027919 -0.532139 4.224112
v 0.022041 -0.533146 4.215519
v 0.027067 -0.535201 4.220923
v 0.019717 -0.535859 4.223754
v 0.019728 -0.535525 4.223392
v 0.021126 -0.537685 4.220937
v 0.027043 -0.535188 4.220937
v 0.021034 -0.532496 4.226964
v 0.019717 -0.535859 4.223754
v 0.020994 -0.532464 4.226517
v 0.019717 -0.535859 4.223754
v 0.027511 -0.532371 4.223754
v 0.027566 -0.532352 4.223770
vn 0.0792 -0.6033 -0.7936
vn -0.2947 -0.9059 -0.3042
vn -0.8797 0.1485 -0.4517
vn -0.9078 0.2224 0.3555
vn -0.0796 0.9046 0.4187
vn -0.1565 0.8608 -0.4843
vn -0.8104 0.1763 0.5588
vn -0.2570 -0.6776 -0.6891
vn -0.8094 -0.3091 -0.4994
vn 0.9823 0.1568 -0.1026
vn 0.8400 -0.3290 -0.4314
vn 0.7205 0.5745 0.3885
vn 0.1532 0.7450 0.6493
vn 0.7562 0.4464 -0.4785
vn -0.8235 -0.2155 -0.5248
vn -0.9433 -0.0215 0.3312
vn -0.9254 -0.0374 0.3772
vn -0.4273 0.3470 0.8349
vn 0.4525 0.5384 0.7109
vn -0.3083 0.2649 0.9136
vn 0.2504 -0.5344 -0.8073
vn -0.3756 -0.4089 -0.8317
vn 0.2138 -0.2947 -0.9313
vn 0.5567 -0.2635 -0.7878
vn 0.8654 -0.1028 -0.4905
vn -0.9775 0.0307 0.2089
vn -0.8349 0.0851 0.5438
vn -0.9386 -0.1707 -0.2998
vn -0.0780 -0.3167 -0.9453
vn -0.4276 -0.1490 -0.8916
vn -0.9409 0.0257 0.3377
vn -0.9711 0.0169 0.2381
vn -0.9329 -0.0976 -0.3465
vn -0.3397 0.2250 0.9132
vn 0.6210 0.1823 0.7623
vn 0.2523 0.2235 0.9415
vn 0.0375 -0.2567 -0.9657
vn -0.6125 -0.2835 -0.7379
vn -0.0915 0.1955 0.9764
vn -0.9320 0.0270 0.3615
vn 0.2989 -0.2069 -0.9316
vn 0.2727 -0.1213 -0.9544
vn 0.2476 -0.2191 -0.9438
vn 0.7187 -0.1827 -0.6709
vn 0.9428 0.2451 0.2258
vn 0.9836 0.1325 0.1224
vn 0.8216 -0.0162 -0.5699
vn 0.2889 0.4400 0.8503
vn -0.4553 -0.5564 -0.6951
vn 0.1711 -0.4529 -0.8750
vn -0.5649 -0.4399 -0.6982
vn -0.9062 -0.3153 -0.2818
vn -0.8943 -0.4351 -0.1045
vn -0.6401 -0.6726 -0.3713
vn -0.7850 -0.0689 0.6157
vn -0.5630 0.1494 0.8128
vn -0.5617 0.1661 0.8105
vn 0.6039 0.3419 0.7200
vn 0.4560 0.4146 0.7875
vn 0.4074 0.4361 0.8024
vn 0.8579 0.1096 -0.5021
vn 0.9502 0.2358 -0.2037
vn 0.9662 0.2573 0.0146
vn 0.9989 -0.0247 0.0402
vn 0.7909 0.1296 0.5981
vn -0.5944 -0.6902 -0.4127
vn -0.7115 -0.7015 -0.0412
vn -0.3825 -0.5635 -0.7322
vn -0.3678 0.4290 0.8251
vn -0.3332 0.4166 0.8458
vn -0.2650 0.4082 0.8736
vn -0.8458 0.0197 0.5332
vn -0.7248 0.0819 0.6841
vn 0.2839 0.5655 0.7743
vn 0.2704 0.6513 0.7090
vn 0.2159 0.7173 0.6625
vn 0.8944 0.2579 -0.3655
vn -0.7279 -0.6808 -0.0818
vn 0.5751 -0.0779 -0.8144
vn 0.9135 0.2917 -0.2837
vn -0.0998 0.5845 0.8052
vn 0.2329 0.7135 0.6608
vn 0.3674 -0.4606 -0.8080
vn -0.7626 0.1267 0.6344
vn -0.8786 -0.3859 0.2813
vn 0.7492 -0.1930 -0.6336
vn 0.8028 0.5962 -0.0048
vn 0.7913 0.6015 0.1099
vn 0.8036 0.5832 -0.1190
vn 0.8556 0.5132 -0.0674
vn 0.7050 0.7074 0.0512
vn -0.9454 -0.3137 0.0884
vn 0.1318 0.7935 0.5942
vn 0.1939 -0.7544 -0.6271
vn 0.7013 -0.4665 -0.5390
vn 0.3050 -0.7192 0.6242
vn 0.3197 -0.7051 0.6329
vn 0.3502 -0.7125 0.6080
vn -0.9601 0.2183 0.1747
vn -0.5576 0.5400 0.6305
vn 0.2042 -0.6913 0.6931
vn 0.3303 -0.6943 0.6394
vn 0.9480 0.1228 -0.2936
s 1
f 1//1 10//2 2//3
f 10//2 9//4 2//3
f 9//4 3//5 2//3
f 4//6 2//3 3//5
f 6//7 5//8 7//9
f 9//4 5//8 6//7
f 5//8 9//4 10//2
f 5//8 10//2 12//10
f 12//10 11//11 5//8
f 13//12 12//10 8//13
f 8//13 9//4 6//7
f 12//10 10//2 1//1
f 1//1 14//14 12//10
f 12//10 14//14 3//5
f 12//10 3//5 8//13
f 8//13 3//5 9//4
f 4//6 1//1 2//3
f 4//6 14//14 1//1
f 14//14 4//6 3//5
f 32//15 15//16 18//17
f 21//18 20//19 19//20
f 22//21 17//22 7//9
f 23//23 17//22 22//21
f 19//20 20//19 6//7
f 22//21 7//9 5//8
f 24//24 22//21 25//25
f 6//7 7//9 19//20
f 22//21 24//24 23//23
f 22//21 11//11 25//25
f 6//7 20//19 8//13
f 11//11 22//21 5//8
f 11//11 13//12 25//25
f 20//19 13//12 8//13
f 27//26 28//27 26//28
f 29//29 26//28 30//30
f 28//27 16//31 31//32
f 28//27 27//26 16//31
f 30//30 26//28 33//33
f 34//34 35//35 36//36
f 30//30 32//15 37//37
f 33//33 32//15 30//30
f 37//37 32//15 41//38
f 34//34 36//36 16//39
f 31//32 16//31 15//40
f 32//15 33//33 15//16
f 17//22 41//38 32//15
f 38//41 37//42 43//43
f 41//38 17//22 23//23
f 38//41 43//43 23//23
f 38//41 23//23 44//44
f 44//45 39//46 40//47
f 36//36 19//20 16//39
f 42//48 19//20 36//36
f 20//19 42//48 39//46
f 44//45 20//19 39//46
f 42//48 21//18 19//20
f 23//23 24//24 44//44
f 44//45 25//25 20//19
f 25//25 13//12 20//19
f 45//49 29//29 46//50
f 46//50 29//29 47//51
f 48//52 49//53 50//54
f 48//52 45//49 49//53
f 48//52 27//26 26//28
f 45//49 48//52 26//28
f 50//55 51//56 52//57
f 52//57 51//56 34//34
f 29//29 45//49 26//28
f 53//58 54//59 55//60
f 47//51 29//29 56//61
f 57//62 56//61 58//63
f 58//63 56//61 59//64
f 51//56 35//35 34//34
f 29//29 30//30 37//37
f 59//64 56//61 29//29
f 40//47 39//46 29//29
f 29//29 39//46 59//64
f 60//65 39//46 36//36
f 39//46 42//48 36//36
f 49//53 61//66 50//54
f 50//54 61//66 62//67
f 46//50 64//68 45//49
f 66//69 67//70 68//71
f 69//72 50//55 65//73
f 54//59 70//74 55//60
f 71//75 55//60 70//74
f 71//75 70//74 72//76
f 57//62 58//63 73//77
f 51//56 50//55 69//72
f 62//67 74//78 50//54
f 63//79 62//80 46//50
f 66//69 75//81 67//70
f 75//81 76//82 72//76
f 63//79 57//62 73//77
f 77//83 63//79 73//77
f 46//50 47//51 63//79
f 78//84 65//73 50//55
f 50//55 79//85 78//84
f 75//81 66//69 78//84
f 80//86 62//80 63//79
f 81//87 82//87 83//88
f 82//87 81//87 84//89
f 71//75 72//76 76//82
f 79//85 74//78 78//84
f 80//86 77//83 85//90
f 77//83 86//91 85//90
f 75//81 86//91 76//82
f 77//83 80//86 63//79
f 91//92 74//78 62//67
f 87//93 75//81 78//84
f 91//92 88//94 89//95
f 92//96 93//97 94//98
f 80//86 85//90 88//94
f 88//94 91//92 62//67
f 85//90 89//95 88//94
f 95//99 96//100 91//92
f 74//78 91//92 78//84
f 91//92 96//100 78//84
f 92//96 94//98 97//101
f 94//98 93//97 98//102
f 89//95 85//90 99//103
f 75//81 87//93 86//91
f 87//93 85//90 86//91
f 78//84 96//100 87//93
l 90 91
